<?xml version="1.0" encoding="UTF-8"?>
<svg xmlns="http://www.w3.org/2000/svg" xmlns:xlink="http://www.w3.org/1999/xlink" width="235.078" height="253.211" viewBox="0 0 235.078 253.211">
<path fill-rule="nonzero" fill="rgb(93.725586%, 32.548523%, 31.373596%)" fill-opacity="1" d="M 78.679688 6.5 L 92.234375 24.570312 L 74.164062 38.125 L 60.609375 20.054688 Z M 78.679688 6.5 "/>
<path fill-rule="nonzero" fill="rgb(100%, 79.214478%, 15.684509%)" fill-opacity="1" d="M 92.234375 24.570312 L 105.785156 42.640625 L 87.714844 56.195312 L 74.164062 38.125 Z M 92.234375 24.570312 "/>
<path fill-rule="nonzero" fill="rgb(93.725586%, 32.548523%, 31.373596%)" fill-opacity="1" d="M 105.785156 42.640625 L 119.339844 60.710938 L 101.269531 74.265625 L 87.714844 56.195312 Z M 105.785156 42.640625 "/>
<path fill-rule="nonzero" fill="rgb(100%, 79.214478%, 15.684509%)" fill-opacity="1" d="M 119.339844 60.710938 L 132.890625 78.78125 L 114.820312 92.335938 L 101.269531 74.265625 Z M 119.339844 60.710938 "/>
<path fill-rule="nonzero" fill="rgb(100%, 79.214478%, 15.684509%)" fill-opacity="1" d="M 60.609375 20.054688 L 74.164062 38.125 L 56.09375 51.675781 L 42.539062 33.605469 Z M 60.609375 20.054688 "/>
<path fill-rule="nonzero" fill="rgb(93.725586%, 32.548523%, 31.373596%)" fill-opacity="1" d="M 74.164062 38.125 L 87.714844 56.195312 L 69.644531 69.746094 L 56.09375 51.675781 Z M 74.164062 38.125 "/>
<path fill-rule="nonzero" fill="rgb(100%, 79.214478%, 15.684509%)" fill-opacity="1" d="M 87.714844 56.195312 L 101.269531 74.265625 L 83.199219 87.816406 L 69.644531 69.746094 Z M 87.714844 56.195312 "/>
<path fill-rule="nonzero" fill="rgb(93.725586%, 32.548523%, 31.373596%)" fill-opacity="1" d="M 101.269531 74.265625 L 114.820312 92.335938 L 96.75 105.886719 L 83.199219 87.816406 Z M 101.269531 74.265625 "/>
<path fill-rule="nonzero" fill="rgb(93.725586%, 32.548523%, 31.373596%)" fill-opacity="1" d="M 42.539062 33.605469 L 56.09375 51.675781 L 38.023438 65.230469 L 24.46875 47.160156 Z M 42.539062 33.605469 "/>
<path fill-rule="nonzero" fill="rgb(100%, 79.214478%, 15.684509%)" fill-opacity="1" d="M 56.09375 51.675781 L 69.644531 69.746094 L 51.574219 83.300781 L 38.023438 65.230469 Z M 56.09375 51.675781 "/>
<path fill-rule="nonzero" fill="rgb(93.725586%, 32.548523%, 31.373596%)" fill-opacity="1" d="M 69.644531 69.746094 L 83.199219 87.816406 L 65.128906 101.371094 L 51.574219 83.300781 Z M 69.644531 69.746094 "/>
<path fill-rule="nonzero" fill="rgb(100%, 79.214478%, 15.684509%)" fill-opacity="1" d="M 83.199219 87.816406 L 96.75 105.886719 L 78.679688 119.441406 L 65.128906 101.371094 Z M 83.199219 87.816406 "/>
<path fill-rule="nonzero" fill="rgb(100%, 79.214478%, 15.684509%)" fill-opacity="1" d="M 24.46875 47.160156 L 38.023438 65.230469 L 19.953125 78.78125 L 6.398438 60.710938 Z M 24.46875 47.160156 "/>
<path fill-rule="nonzero" fill="rgb(93.725586%, 32.548523%, 31.373596%)" fill-opacity="1" d="M 38.023438 65.230469 L 51.574219 83.300781 L 33.503906 96.851562 L 19.953125 78.78125 Z M 38.023438 65.230469 "/>
<path fill-rule="nonzero" fill="rgb(100%, 79.214478%, 15.684509%)" fill-opacity="1" d="M 51.574219 83.300781 L 65.128906 101.371094 L 47.058594 114.921875 L 33.503906 96.851562 Z M 51.574219 83.300781 "/>
<path fill-rule="nonzero" fill="rgb(93.725586%, 32.548523%, 31.373596%)" fill-opacity="1" d="M 65.128906 101.371094 L 78.679688 119.441406 L 60.609375 132.992188 L 47.058594 114.921875 Z M 65.128906 101.371094 "/>
<path fill="none" stroke-width="0.89664" stroke-linecap="round" stroke-linejoin="round" stroke="rgb(0%, 0%, 0%)" stroke-opacity="1" stroke-miterlimit="10" d="M -54.423723 72.565566 L -126.988467 18.142008 M -40.815872 54.42438 L -113.380617 0.000821608 M -27.211944 36.283194 L -99.776688 -18.140365 M -13.604093 18.142008 L -86.168838 -36.281551 M -0.00408592 0.00474318 L -72.56883 -54.418815 M -54.423723 72.565566 L -0.000164354 0.000821608 M -72.564909 58.957716 L -18.14135 -13.607029 M -90.706095 45.353787 L -36.282537 -27.210958 M -108.847281 31.745937 L -54.423723 -40.818808 M -126.980624 18.145929 L -72.557066 -54.418815 " transform="matrix(0.996093, 0, 0, -0.996093, 132.890789, 78.782068)"/>
<path fill="none" stroke-width="0.89664" stroke-linecap="round" stroke-linejoin="round" stroke="rgb(0%, 0%, 0%)" stroke-opacity="1" stroke-miterlimit="10" d="M -54.423723 72.565566 L -0.000164354 0.000821608 L -72.564909 -54.422737 L -126.988467 18.142008 Z M -54.423723 72.565566 " transform="matrix(0.996093, 0, 0, -0.996093, 132.890789, 78.782068)"/>
<path fill-rule="nonzero" fill="rgb(93.725586%, 32.548523%, 31.373596%)" fill-opacity="1" d="M 187.101562 38.125 L 200.652344 56.195312 L 182.582031 69.746094 L 169.03125 51.675781 Z M 187.101562 38.125 "/>
<path fill-rule="nonzero" fill="rgb(100%, 79.214478%, 15.684509%)" fill-opacity="1" d="M 200.652344 56.195312 L 214.207031 74.265625 L 196.136719 87.816406 L 182.582031 69.746094 Z M 200.652344 56.195312 "/>
<path fill-rule="nonzero" fill="rgb(93.725586%, 32.548523%, 31.373596%)" fill-opacity="1" d="M 214.207031 74.265625 L 227.757812 92.335938 L 209.691406 105.886719 L 196.136719 87.816406 Z M 214.207031 74.265625 "/>
<path fill-rule="nonzero" fill="rgb(100%, 79.214478%, 15.684509%)" fill-opacity="1" d="M 169.03125 51.675781 L 182.582031 69.746094 L 164.515625 83.300781 L 150.960938 65.230469 Z M 169.03125 51.675781 "/>
<path fill-rule="nonzero" fill="rgb(93.725586%, 32.548523%, 31.373596%)" fill-opacity="1" d="M 182.582031 69.746094 L 196.136719 87.816406 L 178.066406 101.371094 L 164.515625 83.300781 Z M 182.582031 69.746094 "/>
<path fill-rule="nonzero" fill="rgb(100%, 79.214478%, 15.684509%)" fill-opacity="1" d="M 196.136719 87.816406 L 209.691406 105.886719 L 191.621094 119.441406 L 178.066406 101.371094 Z M 196.136719 87.816406 "/>
<path fill-rule="nonzero" fill="rgb(93.725586%, 32.548523%, 31.373596%)" fill-opacity="1" d="M 150.960938 65.230469 L 164.515625 83.300781 L 146.445312 96.851562 L 132.890625 78.78125 Z M 150.960938 65.230469 "/>
<path fill-rule="nonzero" fill="rgb(100%, 79.214478%, 15.684509%)" fill-opacity="1" d="M 164.515625 83.300781 L 178.066406 101.371094 L 159.996094 114.921875 L 146.445312 96.851562 Z M 164.515625 83.300781 "/>
<path fill-rule="nonzero" fill="rgb(93.725586%, 32.548523%, 31.373596%)" fill-opacity="1" d="M 178.066406 101.371094 L 191.621094 119.441406 L 173.550781 132.992188 L 159.996094 114.921875 Z M 178.066406 101.371094 "/>
<path fill="none" stroke-width="0.89664" stroke-linecap="round" stroke-linejoin="round" stroke="rgb(0%, 0%, 0%)" stroke-opacity="1" stroke-miterlimit="10" d="M 54.423394 40.81653 L -0.000164354 0.000821608 M 68.027323 22.675343 L 13.607686 -18.140365 M 81.635173 4.534157 L 27.211615 -36.281551 M 95.23518 -13.599186 L 40.811622 -54.414894 M 54.423394 40.81653 L 95.239102 -13.607029 M 36.282208 27.212601 L 77.101837 -27.210958 M 18.141022 13.60475 L 58.960651 -40.818808 M 0.00767879 0.00474318 L 40.823387 -54.418815 " transform="matrix(0.996093, 0, 0, -0.996093, 132.890789, 78.782068)"/>
<path fill="none" stroke-width="0.89664" stroke-linecap="round" stroke-linejoin="round" stroke="rgb(0%, 0%, 0%)" stroke-opacity="1" stroke-miterlimit="10" d="M 54.423394 40.81653 L 95.239102 -13.607029 L 40.819465 -54.422737 L -0.000164354 0.000821608 Z M 54.423394 40.81653 " transform="matrix(0.996093, 0, 0, -0.996093, 132.890789, 78.782068)"/>
<path fill-rule="nonzero" fill="rgb(93.725586%, 32.548523%, 31.373596%)" fill-opacity="1" d="M 173.550781 132.992188 L 173.550781 155.578125 L 150.960938 155.578125 L 150.960938 132.992188 Z M 173.550781 132.992188 "/>
<path fill-rule="nonzero" fill="rgb(100%, 79.214478%, 15.684509%)" fill-opacity="1" d="M 173.550781 155.578125 L 173.550781 178.164062 L 150.960938 178.164062 L 150.960938 155.578125 Z M 173.550781 155.578125 "/>
<path fill-rule="nonzero" fill="rgb(93.725586%, 32.548523%, 31.373596%)" fill-opacity="1" d="M 173.550781 178.164062 L 173.550781 200.75 L 150.960938 200.75 L 150.960938 178.164062 Z M 173.550781 178.164062 "/>
<path fill-rule="nonzero" fill="rgb(100%, 79.214478%, 15.684509%)" fill-opacity="1" d="M 173.550781 200.75 L 173.550781 223.339844 L 150.960938 223.339844 L 150.960938 200.75 Z M 173.550781 200.75 "/>
<path fill-rule="nonzero" fill="rgb(93.725586%, 32.548523%, 31.373596%)" fill-opacity="1" d="M 173.550781 223.339844 L 173.550781 245.925781 L 150.960938 245.925781 L 150.960938 223.339844 Z M 173.550781 223.339844 "/>
<path fill-rule="nonzero" fill="rgb(100%, 79.214478%, 15.684509%)" fill-opacity="1" d="M 150.960938 132.992188 L 150.960938 155.578125 L 128.375 155.578125 L 128.375 132.992188 Z M 150.960938 132.992188 "/>
<path fill-rule="nonzero" fill="rgb(93.725586%, 32.548523%, 31.373596%)" fill-opacity="1" d="M 150.960938 155.578125 L 150.960938 178.164062 L 128.375 178.164062 L 128.375 155.578125 Z M 150.960938 155.578125 "/>
<path fill-rule="nonzero" fill="rgb(100%, 79.214478%, 15.684509%)" fill-opacity="1" d="M 150.960938 178.164062 L 150.960938 200.75 L 128.375 200.75 L 128.375 178.164062 Z M 150.960938 178.164062 "/>
<path fill-rule="nonzero" fill="rgb(93.725586%, 32.548523%, 31.373596%)" fill-opacity="1" d="M 150.960938 200.75 L 150.960938 223.339844 L 128.375 223.339844 L 128.375 200.75 Z M 150.960938 200.75 "/>
<path fill-rule="nonzero" fill="rgb(100%, 79.214478%, 15.684509%)" fill-opacity="1" d="M 150.960938 223.339844 L 150.960938 245.925781 L 128.375 245.925781 L 128.375 223.339844 Z M 150.960938 223.339844 "/>
<path fill-rule="nonzero" fill="rgb(93.725586%, 32.548523%, 31.373596%)" fill-opacity="1" d="M 128.375 132.992188 L 128.375 155.578125 L 105.789062 155.578125 L 105.789062 132.992188 Z M 128.375 132.992188 "/>
<path fill-rule="nonzero" fill="rgb(100%, 79.214478%, 15.684509%)" fill-opacity="1" d="M 128.375 155.578125 L 128.375 178.164062 L 105.789062 178.164062 L 105.789062 155.578125 Z M 128.375 155.578125 "/>
<path fill-rule="nonzero" fill="rgb(93.725586%, 32.548523%, 31.373596%)" fill-opacity="1" d="M 128.375 178.164062 L 128.375 200.75 L 105.789062 200.75 L 105.789062 178.164062 Z M 128.375 178.164062 "/>
<path fill-rule="nonzero" fill="rgb(100%, 79.214478%, 15.684509%)" fill-opacity="1" d="M 128.375 200.75 L 128.375 223.339844 L 105.789062 223.339844 L 105.789062 200.75 Z M 128.375 200.75 "/>
<path fill-rule="nonzero" fill="rgb(93.725586%, 32.548523%, 31.373596%)" fill-opacity="1" d="M 128.375 223.339844 L 128.375 245.925781 L 105.789062 245.925781 L 105.789062 223.339844 Z M 128.375 223.339844 "/>
<path fill-rule="nonzero" fill="rgb(100%, 79.214478%, 15.684509%)" fill-opacity="1" d="M 105.789062 132.992188 L 105.789062 155.578125 L 83.203125 155.578125 L 83.203125 132.992188 Z M 105.789062 132.992188 "/>
<path fill-rule="nonzero" fill="rgb(93.725586%, 32.548523%, 31.373596%)" fill-opacity="1" d="M 105.789062 155.578125 L 105.789062 178.164062 L 83.203125 178.164062 L 83.203125 155.578125 Z M 105.789062 155.578125 "/>
<path fill-rule="nonzero" fill="rgb(100%, 79.214478%, 15.684509%)" fill-opacity="1" d="M 105.789062 178.164062 L 105.789062 200.75 L 83.203125 200.75 L 83.203125 178.164062 Z M 105.789062 178.164062 "/>
<path fill-rule="nonzero" fill="rgb(93.725586%, 32.548523%, 31.373596%)" fill-opacity="1" d="M 105.789062 200.75 L 105.789062 223.339844 L 83.203125 223.339844 L 83.203125 200.75 Z M 105.789062 200.75 "/>
<path fill-rule="nonzero" fill="rgb(100%, 79.214478%, 15.684509%)" fill-opacity="1" d="M 105.789062 223.339844 L 105.789062 245.925781 L 83.203125 245.925781 L 83.203125 223.339844 Z M 105.789062 223.339844 "/>
<path fill-rule="nonzero" fill="rgb(93.725586%, 32.548523%, 31.373596%)" fill-opacity="1" d="M 83.203125 132.992188 L 83.203125 155.578125 L 60.617188 155.578125 L 60.617188 132.992188 Z M 83.203125 132.992188 "/>
<path fill-rule="nonzero" fill="rgb(100%, 79.214478%, 15.684509%)" fill-opacity="1" d="M 83.203125 155.578125 L 83.203125 178.164062 L 60.617188 178.164062 L 60.617188 155.578125 Z M 83.203125 155.578125 "/>
<path fill-rule="nonzero" fill="rgb(93.725586%, 32.548523%, 31.373596%)" fill-opacity="1" d="M 83.203125 178.164062 L 83.203125 200.75 L 60.617188 200.75 L 60.617188 178.164062 Z M 83.203125 178.164062 "/>
<path fill-rule="nonzero" fill="rgb(100%, 79.214478%, 15.684509%)" fill-opacity="1" d="M 83.203125 200.75 L 83.203125 223.339844 L 60.617188 223.339844 L 60.617188 200.75 Z M 83.203125 200.75 "/>
<path fill-rule="nonzero" fill="rgb(93.725586%, 32.548523%, 31.373596%)" fill-opacity="1" d="M 83.203125 223.339844 L 83.203125 245.925781 L 60.617188 245.925781 L 60.617188 223.339844 Z M 83.203125 223.339844 "/>
<path fill="none" stroke-width="0.89664" stroke-linecap="round" stroke-linejoin="round" stroke="rgb(0%, 0%, 0%)" stroke-opacity="1" stroke-miterlimit="10" d="M 40.819465 -54.422737 L -72.557066 -54.422737 M 40.819465 -77.097259 L -72.557066 -77.097259 M 40.819465 -99.77178 L -72.557066 -99.77178 M 40.819465 -122.446302 L -72.557066 -122.446302 M 40.819465 -145.124746 L -72.557066 -145.124746 M 40.819465 -167.791424 L -72.557066 -167.791424 M 40.819465 -54.422737 L 40.819465 -167.799268 M 18.141022 -54.422737 L 18.141022 -167.799268 M -4.5335 -54.422737 L -4.5335 -167.799268 M -27.208022 -54.422737 L -27.208022 -167.799268 M -49.882544 -54.422737 L -49.882544 -167.799268 M -72.549223 -54.422737 L -72.549223 -167.799268 " transform="matrix(0.996093, 0, 0, -0.996093, 132.890789, 78.782068)"/>
<path fill="none" stroke-width="0.89664" stroke-linecap="round" stroke-linejoin="round" stroke="rgb(0%, 0%, 0%)" stroke-opacity="1" stroke-miterlimit="10" d="M 40.819465 -54.422737 L 40.819465 -167.799268 L -72.557066 -167.799268 L -72.557066 -54.422737 Z M 40.819465 -54.422737 " transform="matrix(0.996093, 0, 0, -0.996093, 132.890789, 78.782068)"/>
</svg>
