<?xml version="1.0" encoding="UTF-8"?>
<svg xmlns="http://www.w3.org/2000/svg" xmlns:xlink="http://www.w3.org/1999/xlink" width="212.648" height="179.775" viewBox="0 0 212.648 179.775">
<defs>
<clipPath id="clip-0">
<path clip-rule="nonzero" d="M 7 0.0351562 L 212 0.0351562 L 212 175 L 7 175 Z M 7 0.0351562 "/>
</clipPath>
</defs>
<path fill="none" stroke-width="0.3985" stroke-linecap="butt" stroke-linejoin="miter" stroke="rgb(0%, 0%, 0%)" stroke-opacity="1" stroke-miterlimit="10" d="M -16.191047 -13.448622 L -16.191047 147.947004 L 178.083132 147.947004 L 178.083132 -13.448622 Z M -16.191047 -13.448622 " transform="matrix(0.998347, 0, 0, -0.998347, 28.652571, 153.59704)"/>
<g clip-path="url(#clip-0)">
<path fill="none" stroke-width="1.49442" stroke-linecap="butt" stroke-linejoin="miter" stroke="rgb(13.331604%, 13.331604%, 13.331604%)" stroke-opacity="0.8" stroke-miterlimit="10" d="M -0.000227518 -0.0006168 L 0.813617 2.006607 L 1.627462 3.974703 L 2.441307 5.899759 L 3.255152 7.789601 L 4.068997 9.636403 L 4.882842 11.44799 L 5.692774 13.216538 L 6.506619 14.949871 L 7.320464 16.64799 L 8.134309 18.306982 L 8.948154 19.926846 L 9.761999 21.515409 L 10.575844 23.064845 L 11.389689 24.579066 L 12.203534 26.058072 L 13.017379 27.505777 L 13.831224 28.914355 L 14.645069 30.291631 L 15.458914 31.637605 L 16.268846 32.948365 L 17.082691 34.223911 L 17.896536 35.472067 L 18.710381 36.685009 L 19.524226 37.866649 L 20.338071 39.020901 L 21.151916 40.14385 L 21.965761 41.231585 L 22.779606 42.295844 L 23.59345 43.328801 L 24.407295 44.330456 L 25.22114 45.304723 L 26.034985 46.2516 L 26.844918 47.171088 L 27.658762 48.063188 L 28.472607 48.931811 L 29.286452 49.769132 L 30.100297 50.582977 L 30.914142 51.369433 L 31.727987 52.132412 L 32.541832 52.868003 L 33.355677 53.580117 L 34.169522 54.268755 L 34.983367 54.933917 L 35.797212 55.579515 L 36.607144 56.197724 L 37.420989 56.79637 L 38.234834 57.371539 L 39.048679 57.923232 L 39.862524 58.455362 L 40.676369 58.967927 L 41.490214 59.46093 L 42.304059 59.930455 L 43.117904 60.384331 L 43.931749 60.818642 L 44.745594 61.23339 L 45.559439 61.628574 L 46.373284 62.008108 L 47.183216 62.368078 L 47.997061 62.712397 L 48.810906 63.041065 L 49.624751 63.354082 L 50.438596 63.647536 L 51.25244 63.929251 L 52.066285 64.195316 L 52.88013 64.44573 L 53.693975 64.680493 L 54.50782 64.903518 L 55.321665 65.114804 L 56.13551 65.31044 L 56.945442 65.494338 L 57.759287 65.666497 L 58.573132 65.830831 L 59.386977 65.979515 L 60.200822 66.11646 L 61.014667 66.245579 L 61.828512 66.362961 L 62.642357 66.472517 L 63.456202 66.570335 L 64.270047 66.660327 L 65.083892 66.742494 L 65.897737 66.816836 L 66.711582 66.883352 L 67.521514 66.942043 L 68.335359 66.992908 L 69.149204 67.039861 L 69.963049 67.078988 L 70.776894 67.114202 L 71.590739 67.145504 L 72.404584 67.16898 L 74.032274 67.208107 L 75.659963 67.231584 L 76.473808 67.235496 L 77.283741 67.243322 L 78.097586 67.247235 L 82.16681 67.247235 L 82.980655 67.251147 L 83.7945 67.251147 L 85.42219 67.258973 L 86.236035 67.266798 L 87.04988 67.278536 L 87.859812 67.290274 L 88.673657 67.305925 L 90.301347 67.352878 L 91.115192 67.380267 L 91.929037 67.415481 L 93.556727 67.501561 L 94.370572 67.556339 L 95.184417 67.61503 L 95.998262 67.681546 L 96.812107 67.755888 L 97.622039 67.838055 L 98.435884 67.928047 L 99.249729 68.025865 L 100.063574 68.135421 L 100.877419 68.252803 L 101.691264 68.381922 L 102.505108 68.518867 L 103.318953 68.66755 L 104.132798 68.827972 L 104.946643 69.000131 L 105.760488 69.184029 L 106.574333 69.383578 L 107.388178 69.590951 L 108.19811 69.813976 L 109.011955 70.052652 L 109.8258 70.303066 L 110.639645 70.569131 L 111.45349 70.846933 L 112.267335 71.1443 L 113.08118 71.457317 L 113.895025 71.782072 L 114.70887 72.126392 L 115.522715 72.490274 L 116.33656 72.869808 L 117.150405 73.264992 L 117.960337 73.67974 L 118.774182 74.114051 L 119.588027 74.564014 L 120.401872 75.037452 L 121.215717 75.530455 L 122.029562 76.039108 L 122.843407 76.57515 L 123.657252 77.126843 L 124.471097 77.702012 L 125.284942 78.300657 L 126.098786 78.918867 L 126.912631 79.560552 L 127.726476 80.225714 L 128.536409 80.914352 L 129.350254 81.630379 L 130.164098 82.36597 L 130.977943 83.128949 L 131.791788 83.915405 L 132.605633 84.72925 L 133.419478 85.566571 L 134.233323 86.431282 L 135.047168 87.323381 L 135.861013 88.242869 L 136.674858 89.189746 L 137.488703 90.167925 L 138.298635 91.169581 L 139.11248 92.202538 L 139.926325 93.262884 L 140.74017 94.354532 L 141.554015 95.477481 L 142.36786 96.62782 L 143.181705 97.813373 L 143.99555 99.026315 L 144.809395 100.270558 L 145.62324 101.550016 L 146.437085 102.860776 L 147.25093 104.206751 L 148.064775 105.580114 L 148.874707 106.992605 L 149.688552 108.436397 L 150.502397 109.919316 L 151.316242 111.433537 L 152.130087 112.982973 L 152.943932 114.567623 L 153.757776 116.1914 L 154.571621 117.850392 L 155.385466 119.544598 L 156.199311 121.277931 L 157.013156 123.050391 L 157.827001 124.861979 L 158.636933 126.708781 L 159.450778 128.59471 L 160.264623 130.523679 L 161.078468 132.491775 L 161.892313 134.498999 " transform="matrix(0.998347, 0, 0, -0.998347, 28.652571, 153.59704)"/>
</g>
</svg>
