<?xml version="1.0" encoding="UTF-8"?>
<svg xmlns="http://www.w3.org/2000/svg" xmlns:xlink="http://www.w3.org/1999/xlink" width="434.716" height="131.409" viewBox="0 0 434.716 131.409">
<path fill="none" stroke-width="0.3985" stroke-linecap="round" stroke-linejoin="round" stroke="rgb(64.99939%, 64.99939%, 64.99939%)" stroke-opacity="1" stroke-miterlimit="10" d="M -19.842685 25.51291 L -19.842685 -93.543575 L 402.524932 -93.543575 L 402.524932 25.51291 Z M -19.842685 25.51291 " transform="matrix(0.995523, 0, 0, -0.995523, 26.734313, 31.54712)"/>
<path fill="none" stroke-width="0.89664" stroke-linecap="round" stroke-linejoin="round" stroke="rgb(0%, 0%, 0%)" stroke-opacity="1" stroke-miterlimit="10" d="M 33.450611 5.670163 C 33.450611 10.053068 29.895632 13.608047 25.512727 13.608047 C 21.129823 13.608047 17.574843 10.053068 17.574843 5.670163 C 17.574843 1.287258 21.129823 -2.267721 25.512727 -2.267721 C 29.895632 -2.267721 33.450611 1.287258 33.450611 5.670163 Z M 33.450611 5.670163 " transform="matrix(0.995523, 0, 0, -0.995523, 26.734313, 31.54712)"/>
<path fill="none" stroke-width="0.89664" stroke-linecap="round" stroke-linejoin="round" stroke="rgb(0%, 0%, 0%)" stroke-opacity="1" stroke-miterlimit="10" d="M 54.709857 5.670163 C 54.709857 10.053068 51.154878 13.608047 46.771973 13.608047 C 42.389069 13.608047 38.834089 10.053068 38.834089 5.670163 C 38.834089 1.287258 42.389069 -2.267721 46.771973 -2.267721 C 51.154878 -2.267721 54.709857 1.287258 54.709857 5.670163 Z M 54.709857 5.670163 " transform="matrix(0.995523, 0, 0, -0.995523, 26.734313, 31.54712)"/>
<path fill="none" stroke-width="0.89664" stroke-linecap="round" stroke-linejoin="round" stroke="rgb(0%, 0%, 0%)" stroke-opacity="1" stroke-miterlimit="10" d="M 124.157512 5.670163 C 124.157512 10.053068 120.606457 13.608047 116.223552 13.608047 C 111.836723 13.608047 108.285668 10.053068 108.285668 5.670163 C 108.285668 1.287258 111.836723 -2.267721 116.223552 -2.267721 C 120.606457 -2.267721 124.157512 1.287258 124.157512 5.670163 Z M 124.157512 5.670163 " transform="matrix(0.995523, 0, 0, -0.995523, 26.734313, 31.54712)"/>
<path fill="none" stroke-width="0.89664" stroke-linecap="round" stroke-linejoin="round" stroke="rgb(0%, 0%, 0%)" stroke-opacity="1" stroke-miterlimit="10" d="M 145.420682 5.670163 C 145.420682 10.053068 141.865703 13.608047 137.482798 13.608047 C 133.099893 13.608047 129.544914 10.053068 129.544914 5.670163 C 129.544914 1.287258 133.099893 -2.267721 137.482798 -2.267721 C 141.865703 -2.267721 145.420682 1.287258 145.420682 5.670163 Z M 145.420682 5.670163 " transform="matrix(0.995523, 0, 0, -0.995523, 26.734313, 31.54712)"/>
<path fill="none" stroke-width="0.89664" stroke-linecap="round" stroke-linejoin="round" stroke="rgb(0%, 0%, 0%)" stroke-opacity="1" stroke-miterlimit="10" d="M 124.157512 -15.589083 C 124.157512 -11.206178 120.606457 -7.655123 116.223552 -7.655123 C 111.836723 -7.655123 108.285668 -11.206178 108.285668 -15.589083 C 108.285668 -19.975912 111.836723 -23.526967 116.223552 -23.526967 C 120.606457 -23.526967 124.157512 -19.975912 124.157512 -15.589083 Z M 124.157512 -15.589083 " transform="matrix(0.995523, 0, 0, -0.995523, 26.734313, 31.54712)"/>
<path fill="none" stroke-width="0.89664" stroke-linecap="round" stroke-linejoin="round" stroke="rgb(0%, 0%, 0%)" stroke-opacity="1" stroke-miterlimit="10" d="M 145.420682 -15.589083 C 145.420682 -11.206178 141.865703 -7.655123 137.482798 -7.655123 C 133.099893 -7.655123 129.544914 -11.206178 129.544914 -15.589083 C 129.544914 -19.975912 133.099893 -23.526967 137.482798 -23.526967 C 141.865703 -23.526967 145.420682 -19.975912 145.420682 -15.589083 Z M 145.420682 -15.589083 " transform="matrix(0.995523, 0, 0, -0.995523, 26.734313, 31.54712)"/>
<path fill="none" stroke-width="0.89664" stroke-linecap="round" stroke-linejoin="round" stroke="rgb(0%, 0%, 0%)" stroke-opacity="1" stroke-miterlimit="10" d="M 206.365423 5.670163 C 206.365423 10.053068 202.810444 13.608047 198.427539 13.608047 C 194.044634 13.608047 190.489655 10.053068 190.489655 5.670163 C 190.489655 1.287258 194.044634 -2.267721 198.427539 -2.267721 C 202.810444 -2.267721 206.365423 1.287258 206.365423 5.670163 Z M 206.365423 5.670163 " transform="matrix(0.995523, 0, 0, -0.995523, 26.734313, 31.54712)"/>
<path fill="none" stroke-width="0.89664" stroke-linecap="round" stroke-linejoin="round" stroke="rgb(0%, 0%, 0%)" stroke-opacity="1" stroke-miterlimit="10" d="M 227.624669 5.670163 C 227.624669 10.053068 224.06969 13.608047 219.686785 13.608047 C 215.30388 13.608047 211.748901 10.053068 211.748901 5.670163 C 211.748901 1.287258 215.30388 -2.267721 219.686785 -2.267721 C 224.06969 -2.267721 227.624669 1.287258 227.624669 5.670163 Z M 227.624669 5.670163 " transform="matrix(0.995523, 0, 0, -0.995523, 26.734313, 31.54712)"/>
<path fill="none" stroke-width="0.89664" stroke-linecap="round" stroke-linejoin="round" stroke="rgb(0%, 0%, 0%)" stroke-opacity="1" stroke-miterlimit="10" d="M 206.365423 -15.589083 C 206.365423 -11.206178 202.810444 -7.655123 198.427539 -7.655123 C 194.044634 -7.655123 190.489655 -11.206178 190.489655 -15.589083 C 190.489655 -19.975912 194.044634 -23.526967 198.427539 -23.526967 C 202.810444 -23.526967 206.365423 -19.975912 206.365423 -15.589083 Z M 206.365423 -15.589083 " transform="matrix(0.995523, 0, 0, -0.995523, 26.734313, 31.54712)"/>
<path fill="none" stroke-width="0.89664" stroke-linecap="round" stroke-linejoin="round" stroke="rgb(0%, 0%, 0%)" stroke-opacity="1" stroke-miterlimit="10" d="M 227.624669 -15.589083 C 227.624669 -11.206178 224.06969 -7.655123 219.686785 -7.655123 C 215.30388 -7.655123 211.748901 -11.206178 211.748901 -15.589083 C 211.748901 -19.975912 215.30388 -23.526967 219.686785 -23.526967 C 224.06969 -23.526967 227.624669 -19.975912 227.624669 -15.589083 Z M 227.624669 -15.589083 " transform="matrix(0.995523, 0, 0, -0.995523, 26.734313, 31.54712)"/>
<path fill="none" stroke-width="0.89664" stroke-linecap="round" stroke-linejoin="round" stroke="rgb(0%, 0%, 0%)" stroke-opacity="1" stroke-miterlimit="10" d="M 206.365423 -36.852253 C 206.365423 -32.465424 202.810444 -28.914369 198.427539 -28.914369 C 194.044634 -28.914369 190.489655 -32.465424 190.489655 -36.852253 C 190.489655 -41.235158 194.044634 -44.786213 198.427539 -44.786213 C 202.810444 -44.786213 206.365423 -41.235158 206.365423 -36.852253 Z M 206.365423 -36.852253 " transform="matrix(0.995523, 0, 0, -0.995523, 26.734313, 31.54712)"/>
<path fill="none" stroke-width="0.89664" stroke-linecap="round" stroke-linejoin="round" stroke="rgb(0%, 0%, 0%)" stroke-opacity="1" stroke-miterlimit="10" d="M 227.624669 -36.852253 C 227.624669 -32.465424 224.06969 -28.914369 219.686785 -28.914369 C 215.30388 -28.914369 211.748901 -32.465424 211.748901 -36.852253 C 211.748901 -41.235158 215.30388 -44.786213 219.686785 -44.786213 C 224.06969 -44.786213 227.624669 -41.235158 227.624669 -36.852253 Z M 227.624669 -36.852253 " transform="matrix(0.995523, 0, 0, -0.995523, 26.734313, 31.54712)"/>
<path fill="none" stroke-width="0.89664" stroke-linecap="round" stroke-linejoin="round" stroke="rgb(0%, 0%, 0%)" stroke-opacity="1" stroke-miterlimit="10" d="M 248.883915 -36.852253 C 248.883915 -32.465424 245.332859 -28.914369 240.946031 -28.914369 C 236.563126 -28.914369 233.012071 -32.465424 233.012071 -36.852253 C 233.012071 -41.235158 236.563126 -44.786213 240.946031 -44.786213 C 245.332859 -44.786213 248.883915 -41.235158 248.883915 -36.852253 Z M 248.883915 -36.852253 " transform="matrix(0.995523, 0, 0, -0.995523, 26.734313, 31.54712)"/>
<path fill="none" stroke-width="0.89664" stroke-linecap="round" stroke-linejoin="round" stroke="rgb(0%, 0%, 0%)" stroke-opacity="1" stroke-miterlimit="10" d="M 319.751992 5.670163 C 319.751992 10.053068 316.197013 13.608047 311.814108 13.608047 C 307.431203 13.608047 303.876224 10.053068 303.876224 5.670163 C 303.876224 1.287258 307.431203 -2.267721 311.814108 -2.267721 C 316.197013 -2.267721 319.751992 1.287258 319.751992 5.670163 Z M 319.751992 5.670163 " transform="matrix(0.995523, 0, 0, -0.995523, 26.734313, 31.54712)"/>
<path fill="none" stroke-width="0.89664" stroke-linecap="round" stroke-linejoin="round" stroke="rgb(0%, 0%, 0%)" stroke-opacity="1" stroke-miterlimit="10" d="M 341.011238 5.670163 C 341.011238 10.053068 337.460182 13.608047 333.073354 13.608047 C 328.690449 13.608047 325.139394 10.053068 325.139394 5.670163 C 325.139394 1.287258 328.690449 -2.267721 333.073354 -2.267721 C 337.460182 -2.267721 341.011238 1.287258 341.011238 5.670163 Z M 341.011238 5.670163 " transform="matrix(0.995523, 0, 0, -0.995523, 26.734313, 31.54712)"/>
<path fill="none" stroke-width="0.89664" stroke-linecap="round" stroke-linejoin="round" stroke="rgb(0%, 0%, 0%)" stroke-opacity="1" stroke-miterlimit="10" d="M 319.751992 -15.589083 C 319.751992 -11.206178 316.197013 -7.655123 311.814108 -7.655123 C 307.431203 -7.655123 303.876224 -11.206178 303.876224 -15.589083 C 303.876224 -19.975912 307.431203 -23.526967 311.814108 -23.526967 C 316.197013 -23.526967 319.751992 -19.975912 319.751992 -15.589083 Z M 319.751992 -15.589083 " transform="matrix(0.995523, 0, 0, -0.995523, 26.734313, 31.54712)"/>
<path fill="none" stroke-width="0.89664" stroke-linecap="round" stroke-linejoin="round" stroke="rgb(0%, 0%, 0%)" stroke-opacity="1" stroke-miterlimit="10" d="M 341.011238 -15.589083 C 341.011238 -11.206178 337.460182 -7.655123 333.073354 -7.655123 C 328.690449 -7.655123 325.139394 -11.206178 325.139394 -15.589083 C 325.139394 -19.975912 328.690449 -23.526967 333.073354 -23.526967 C 337.460182 -23.526967 341.011238 -19.975912 341.011238 -15.589083 Z M 341.011238 -15.589083 " transform="matrix(0.995523, 0, 0, -0.995523, 26.734313, 31.54712)"/>
<path fill="none" stroke-width="0.89664" stroke-linecap="round" stroke-linejoin="round" stroke="rgb(0%, 0%, 0%)" stroke-opacity="1" stroke-miterlimit="10" d="M 319.751992 -36.852253 C 319.751992 -32.465424 316.197013 -28.914369 311.814108 -28.914369 C 307.431203 -28.914369 303.876224 -32.465424 303.876224 -36.852253 C 303.876224 -41.235158 307.431203 -44.786213 311.814108 -44.786213 C 316.197013 -44.786213 319.751992 -41.235158 319.751992 -36.852253 Z M 319.751992 -36.852253 " transform="matrix(0.995523, 0, 0, -0.995523, 26.734313, 31.54712)"/>
<path fill="none" stroke-width="0.89664" stroke-linecap="round" stroke-linejoin="round" stroke="rgb(0%, 0%, 0%)" stroke-opacity="1" stroke-miterlimit="10" d="M 341.011238 -36.852253 C 341.011238 -32.465424 337.460182 -28.914369 333.073354 -28.914369 C 328.690449 -28.914369 325.139394 -32.465424 325.139394 -36.852253 C 325.139394 -41.235158 328.690449 -44.786213 333.073354 -44.786213 C 337.460182 -44.786213 341.011238 -41.235158 341.011238 -36.852253 Z M 341.011238 -36.852253 " transform="matrix(0.995523, 0, 0, -0.995523, 26.734313, 31.54712)"/>
<path fill="none" stroke-width="0.89664" stroke-linecap="round" stroke-linejoin="round" stroke="rgb(0%, 0%, 0%)" stroke-opacity="1" stroke-miterlimit="10" d="M 362.270484 -36.852253 C 362.270484 -32.465424 358.719428 -28.914369 354.336524 -28.914369 C 349.949695 -28.914369 346.39864 -32.465424 346.39864 -36.852253 C 346.39864 -41.235158 349.949695 -44.786213 354.336524 -44.786213 C 358.719428 -44.786213 362.270484 -41.235158 362.270484 -36.852253 Z M 362.270484 -36.852253 " transform="matrix(0.995523, 0, 0, -0.995523, 26.734313, 31.54712)"/>
<path fill="none" stroke-width="0.89664" stroke-linecap="round" stroke-linejoin="round" stroke="rgb(0%, 0%, 0%)" stroke-opacity="1" stroke-miterlimit="10" d="M 319.751992 -58.111499 C 319.751992 -53.728594 316.197013 -50.173615 311.814108 -50.173615 C 307.431203 -50.173615 303.876224 -53.728594 303.876224 -58.111499 C 303.876224 -62.494404 307.431203 -66.049383 311.814108 -66.049383 C 316.197013 -66.049383 319.751992 -62.494404 319.751992 -58.111499 Z M 319.751992 -58.111499 " transform="matrix(0.995523, 0, 0, -0.995523, 26.734313, 31.54712)"/>
<path fill="none" stroke-width="0.89664" stroke-linecap="round" stroke-linejoin="round" stroke="rgb(0%, 0%, 0%)" stroke-opacity="1" stroke-miterlimit="10" d="M 341.011238 -58.111499 C 341.011238 -53.728594 337.460182 -50.173615 333.073354 -50.173615 C 328.690449 -50.173615 325.139394 -53.728594 325.139394 -58.111499 C 325.139394 -62.494404 328.690449 -66.049383 333.073354 -66.049383 C 337.460182 -66.049383 341.011238 -62.494404 341.011238 -58.111499 Z M 341.011238 -58.111499 " transform="matrix(0.995523, 0, 0, -0.995523, 26.734313, 31.54712)"/>
<path fill="none" stroke-width="0.89664" stroke-linecap="round" stroke-linejoin="round" stroke="rgb(0%, 0%, 0%)" stroke-opacity="1" stroke-miterlimit="10" d="M 362.270484 -58.111499 C 362.270484 -53.728594 358.719428 -50.173615 354.336524 -50.173615 C 349.949695 -50.173615 346.39864 -53.728594 346.39864 -58.111499 C 346.39864 -62.494404 349.949695 -66.049383 354.336524 -66.049383 C 358.719428 -66.049383 362.270484 -62.494404 362.270484 -58.111499 Z M 362.270484 -58.111499 " transform="matrix(0.995523, 0, 0, -0.995523, 26.734313, 31.54712)"/>
<path fill="none" stroke-width="0.89664" stroke-linecap="round" stroke-linejoin="round" stroke="rgb(0%, 0%, 0%)" stroke-opacity="1" stroke-miterlimit="10" d="M 383.533653 -58.111499 C 383.533653 -53.728594 379.978674 -50.173615 375.59577 -50.173615 C 371.212865 -50.173615 367.657886 -53.728594 367.657886 -58.111499 C 367.657886 -62.494404 371.212865 -66.049383 375.59577 -66.049383 C 379.978674 -66.049383 383.533653 -62.494404 383.533653 -58.111499 Z M 383.533653 -58.111499 " transform="matrix(0.995523, 0, 0, -0.995523, 26.734313, 31.54712)"/>
</svg>
