<?xml version="1.0" encoding="UTF-8"?>
<svg xmlns="http://www.w3.org/2000/svg" xmlns:xlink="http://www.w3.org/1999/xlink" width="352.113" height="196.207" viewBox="0 0 352.113 196.207">
<defs>
<g>
<g id="glyph-0-0">
<path d="M 6.578125 0 L 6.578125 -0.28125 L 6.421875 -0.28125 C 5.875 -0.28125 5.78125 -0.359375 5.6875 -0.609375 L 3.65625 -6.21875 C 3.609375 -6.328125 3.578125 -6.40625 3.4375 -6.40625 C 3.296875 -6.40625 3.28125 -6.34375 3.21875 -6.203125 L 1.3125 -0.890625 C 1.203125 -0.59375 0.984375 -0.28125 0.296875 -0.28125 L 0.296875 0 C 0.640625 -0.03125 0.890625 -0.03125 1.21875 -0.03125 L 2.21875 0 L 2.21875 -0.28125 C 1.71875 -0.28125 1.5625 -0.5625 1.5625 -0.734375 C 1.5625 -0.8125 1.578125 -0.859375 1.59375 -0.90625 L 2.015625 -2.0625 L 4.328125 -2.0625 L 4.8125 -0.703125 C 4.859375 -0.609375 4.859375 -0.59375 4.859375 -0.546875 C 4.859375 -0.28125 4.359375 -0.28125 4.125 -0.28125 L 4.125 0 C 4.53125 -0.03125 5 -0.03125 5.40625 -0.03125 Z M 4.234375 -2.328125 L 2.125 -2.328125 L 3.171875 -5.25 Z M 4.234375 -2.328125 "/>
</g>
<g id="glyph-0-1">
<path d="M 5.984375 -1.625 C 5.984375 -2.4375 5.203125 -3.078125 4.21875 -3.1875 C 5.109375 -3.375 5.734375 -3.9375 5.734375 -4.59375 C 5.734375 -5.375 4.875 -6.109375 3.6875 -6.109375 L 0.359375 -6.109375 L 0.359375 -5.828125 L 0.578125 -5.828125 C 1.265625 -5.828125 1.28125 -5.734375 1.28125 -5.390625 L 1.28125 -0.703125 C 1.28125 -0.375 1.265625 -0.28125 0.578125 -0.28125 L 0.359375 -0.28125 L 0.359375 0 L 3.9375 0 C 5.140625 0 5.984375 -0.796875 5.984375 -1.625 Z M 4.875 -4.59375 C 4.875 -3.90625 4.265625 -3.28125 3.4375 -3.28125 L 2.03125 -3.28125 L 2.03125 -5.453125 C 2.03125 -5.765625 2.046875 -5.828125 2.46875 -5.828125 L 3.625 -5.828125 C 4.5 -5.828125 4.875 -5.125 4.875 -4.59375 Z M 5.109375 -1.640625 C 5.109375 -0.953125 4.5625 -0.28125 3.640625 -0.28125 L 2.46875 -0.28125 C 2.046875 -0.28125 2.03125 -0.34375 2.03125 -0.640625 L 2.03125 -3.0625 L 3.71875 -3.0625 C 4.75 -3.0625 5.109375 -2.1875 5.109375 -1.640625 Z M 5.109375 -1.640625 "/>
</g>
<g id="glyph-0-2">
<path d="M 6.703125 -5.828125 L 6.703125 -6.109375 C 6.390625 -6.078125 6.125 -6.078125 5.828125 -6.078125 L 4.828125 -6.109375 L 4.828125 -5.828125 C 5.265625 -5.8125 5.453125 -5.609375 5.453125 -5.375 C 5.453125 -5.3125 5.453125 -5.296875 5.421875 -5.203125 L 3.703125 -0.859375 L 1.921875 -5.390625 C 1.875 -5.5 1.875 -5.5625 1.875 -5.5625 C 1.875 -5.828125 2.328125 -5.828125 2.59375 -5.828125 L 2.59375 -6.109375 C 2.1875 -6.078125 1.734375 -6.078125 1.328125 -6.078125 L 0.171875 -6.109375 L 0.171875 -5.828125 C 0.828125 -5.828125 0.921875 -5.796875 1.046875 -5.484375 L 3.21875 0 C 3.265625 0.140625 3.296875 0.203125 3.4375 0.203125 C 3.578125 0.203125 3.609375 0.140625 3.65625 0.015625 L 5.734375 -5.234375 C 5.921875 -5.703125 6.28125 -5.828125 6.703125 -5.828125 Z M 6.703125 -5.828125 "/>
</g>
<g id="glyph-0-3">
<path d="M 6.75 -2.171875 L 6.75 -2.453125 C 6.171875 -2.421875 6.0625 -2.421875 5.59375 -2.421875 C 5.25 -2.421875 4.484375 -2.421875 4.171875 -2.453125 L 4.171875 -2.171875 L 4.453125 -2.171875 C 5.28125 -2.171875 5.3125 -2.0625 5.3125 -1.734375 L 5.3125 -1.171875 C 5.3125 -0.078125 3.953125 -0.078125 3.828125 -0.078125 C 3.09375 -0.078125 1.421875 -0.515625 1.421875 -3.0625 C 1.421875 -5.546875 3.046875 -6.03125 3.796875 -6.03125 C 4.671875 -6.03125 5.609375 -5.359375 5.828125 -3.90625 C 5.84375 -3.796875 5.859375 -3.75 5.96875 -3.75 C 6.109375 -3.75 6.109375 -3.796875 6.109375 -3.984375 L 6.109375 -6.0625 C 6.109375 -6.21875 6.109375 -6.296875 6 -6.296875 C 5.9375 -6.296875 5.921875 -6.28125 5.859375 -6.1875 L 5.40625 -5.515625 C 5.125 -5.796875 4.609375 -6.296875 3.703125 -6.296875 C 1.96875 -6.296875 0.515625 -4.859375 0.515625 -3.0625 C 0.515625 -1.234375 1.96875 0.203125 3.71875 0.203125 C 4.5625 0.203125 5.203125 -0.125 5.453125 -0.5625 C 5.609375 -0.328125 5.921875 -0.015625 6.015625 -0.015625 C 6.109375 -0.015625 6.109375 -0.09375 6.109375 -0.234375 L 6.109375 -1.765625 C 6.109375 -2.125 6.15625 -2.171875 6.75 -2.171875 Z M 6.75 -2.171875 "/>
</g>
<g id="glyph-0-4">
<path d="M 6.671875 0.078125 C 6.671875 0 6.671875 -0.109375 6.5625 -0.109375 C 6.5 -0.109375 6.46875 -0.046875 6.453125 -0.015625 C 6.375 0.765625 5.78125 0.828125 5.625 0.828125 C 5.140625 0.828125 4.953125 0.4375 4.75 -0.0625 C 5.71875 -0.453125 6.625 -1.5625 6.625 -3.03125 C 6.625 -4.859375 5.234375 -6.296875 3.5625 -6.296875 C 1.890625 -6.296875 0.515625 -4.84375 0.515625 -3.03125 C 0.515625 -1.21875 1.90625 0.203125 3.5625 0.203125 C 3.875 0.203125 4.21875 0.140625 4.4375 0.078125 C 4.59375 0.953125 4.734375 1.734375 5.5625 1.734375 C 6.484375 1.734375 6.671875 0.53125 6.671875 0.078125 Z M 5.734375 -3.03125 C 5.734375 -1.84375 5.375 -0.90625 4.609375 -0.390625 C 4.4375 -0.828125 4.15625 -1.328125 3.578125 -1.328125 C 3.140625 -1.328125 2.8125 -0.984375 2.8125 -0.578125 C 2.8125 -0.359375 2.921875 -0.171875 2.921875 -0.171875 C 2.0625 -0.515625 1.390625 -1.4375 1.390625 -3.03125 C 1.390625 -5.25 2.640625 -6.046875 3.5625 -6.046875 C 4.5 -6.046875 5.734375 -5.25 5.734375 -3.03125 Z M 4.359375 -0.234375 C 4.109375 -0.109375 3.796875 -0.046875 3.5625 -0.046875 C 3.125 -0.046875 3.03125 -0.421875 3.03125 -0.578125 C 3.03125 -0.84375 3.234375 -1.109375 3.578125 -1.109375 C 4.0625 -1.109375 4.25 -0.734375 4.359375 -0.234375 Z M 4.359375 -0.234375 "/>
</g>
<g id="glyph-0-5">
<path d="M 5.734375 -4.4375 C 5.734375 -5.328125 4.8125 -6.109375 3.5625 -6.109375 L 0.359375 -6.109375 L 0.359375 -5.828125 L 0.5625 -5.828125 C 1.25 -5.828125 1.265625 -5.734375 1.265625 -5.390625 L 1.265625 -0.703125 C 1.265625 -0.375 1.25 -0.28125 0.5625 -0.28125 L 0.359375 -0.28125 L 0.359375 0 C 0.765625 -0.03125 1.265625 -0.03125 1.671875 -0.03125 C 2.078125 -0.03125 2.578125 -0.03125 2.984375 0 L 2.984375 -0.28125 L 2.78125 -0.28125 C 2.09375 -0.28125 2.078125 -0.375 2.078125 -0.703125 L 2.078125 -2.8125 L 3.5625 -2.8125 C 4.8125 -2.8125 5.734375 -3.578125 5.734375 -4.4375 Z M 4.8125 -4.4375 C 4.8125 -4.046875 4.8125 -3.0625 3.328125 -3.0625 L 2.046875 -3.0625 L 2.046875 -5.453125 C 2.046875 -5.765625 2.0625 -5.828125 2.484375 -5.828125 L 3.34375 -5.828125 C 4.8125 -5.828125 4.8125 -4.84375 4.8125 -4.4375 Z M 4.8125 -4.4375 "/>
</g>
<g id="glyph-1-0">
<path d="M 4.359375 -3.515625 C 4.359375 -3.65625 4.234375 -3.765625 4.078125 -3.765625 C 3.921875 -3.765625 3.734375 -3.671875 3.6875 -3.421875 C 3.5 -3.75 3.203125 -3.953125 2.84375 -3.953125 C 1.765625 -3.953125 0.65625 -2.6875 0.65625 -1.4375 C 0.65625 -0.59375 1.1875 0 1.90625 0 C 2.3125 0 2.65625 -0.21875 2.953125 -0.484375 C 2.84375 0 2.703125 0.59375 2.625 0.765625 C 2.578125 0.859375 2.265625 1.609375 1.359375 1.609375 C 1.1875 1.609375 0.890625 1.59375 0.671875 1.53125 C 0.84375 1.46875 0.984375 1.265625 0.984375 1.078125 C 0.984375 0.890625 0.84375 0.765625 0.65625 0.765625 C 0.453125 0.765625 0.15625 0.921875 0.15625 1.28125 C 0.15625 1.71875 0.65625 1.828125 1.375 1.828125 C 2.53125 1.828125 3.1875 1.171875 3.328125 0.59375 Z M 3.125 -1.15625 C 3.09375 -1 3.078125 -0.984375 2.9375 -0.8125 C 2.484375 -0.296875 2.109375 -0.21875 1.9375 -0.21875 C 1.5 -0.21875 1.328125 -0.65625 1.328125 -1.046875 C 1.328125 -1.40625 1.546875 -2.40625 1.8125 -2.921875 C 2.046875 -3.34375 2.4375 -3.734375 2.84375 -3.734375 C 3.421875 -3.734375 3.578125 -3.046875 3.578125 -2.96875 C 3.578125 -2.953125 3.5625 -2.875 3.546875 -2.828125 Z M 3.125 -1.15625 "/>
</g>
</g>
<clipPath id="clip-0">
<path clip-rule="nonzero" d="M 6.21875 174 L 177 174 L 177 176 L 6.21875 176 Z M 6.21875 174 "/>
</clipPath>
<clipPath id="clip-1">
<path clip-rule="nonzero" d="M 175 174 L 345.011719 174 L 345.011719 176 L 175 176 Z M 175 174 "/>
</clipPath>
<clipPath id="clip-2">
<path clip-rule="nonzero" d="M 6.21875 69 L 177 69 L 177 176 L 6.21875 176 Z M 6.21875 69 "/>
</clipPath>
</defs>
<g clip-path="url(#clip-0)">
<path fill="none" stroke-width="0.99628" stroke-linecap="round" stroke-linejoin="round" stroke="rgb(0%, 0%, 0%)" stroke-opacity="1" stroke-dasharray="2.98883 2.98883" stroke-miterlimit="10" d="M -226.77323 -0.000350086 L -0.00101009 -0.000350086 " transform="matrix(0.995975, 0, 0, -0.995975, 175.614287, 175.347308)"/>
</g>
<g clip-path="url(#clip-1)">
<path fill="none" stroke-width="0.99628" stroke-linecap="round" stroke-linejoin="round" stroke="rgb(0%, 0%, 0%)" stroke-opacity="1" stroke-miterlimit="10" d="M -0.00101009 -0.000350086 L 226.775131 -0.000350086 " transform="matrix(0.995975, 0, 0, -0.995975, 175.614287, 175.347308)"/>
</g>
<g clip-path="url(#clip-2)">
<path fill="none" stroke-width="0.99628" stroke-linecap="round" stroke-linejoin="round" stroke="rgb(0%, 0%, 0%)" stroke-opacity="1" stroke-miterlimit="10" d="M -226.77323 105.741708 L -0.00101009 -0.000350086 " transform="matrix(0.995975, 0, 0, -0.995975, 175.614287, 175.347308)"/>
</g>
<path fill="none" stroke-width="0.99628" stroke-linecap="round" stroke-linejoin="round" stroke="rgb(0%, 0%, 0%)" stroke-opacity="1" stroke-miterlimit="10" d="M -57.572601 71.341516 C -57.572601 86.99829 -70.264315 99.690004 -85.92109 99.690004 C -101.573942 99.690004 -114.265656 86.99829 -114.265656 71.341516 C -114.265656 55.688663 -101.573942 42.996949 -85.92109 42.996949 C -70.264315 42.996949 -57.572601 55.688663 -57.572601 71.341516 Z M -57.572601 71.341516 " transform="matrix(0.995975, 0, 0, -0.995975, 175.614287, 175.347308)"/>
<path fill="none" stroke-width="0.99628" stroke-linecap="round" stroke-linejoin="round" stroke="rgb(0%, 0%, 0%)" stroke-opacity="1" stroke-miterlimit="10" d="M 107.717755 28.348138 C 107.717755 44.000991 95.026041 56.692705 79.369267 56.692705 C 63.716414 56.692705 51.0247 44.000991 51.0247 28.348138 C 51.0247 12.691364 63.716414 -0.000350086 79.369267 -0.000350086 C 95.026041 -0.000350086 107.717755 12.691364 107.717755 28.348138 Z M 107.717755 28.348138 " transform="matrix(0.995975, 0, 0, -0.995975, 175.614287, 175.347308)"/>
<path fill-rule="nonzero" fill="rgb(0%, 0%, 0%)" fill-opacity="1" d="M 256.15625 175.347656 C 256.15625 174.523438 255.488281 173.859375 254.664062 173.859375 C 253.84375 173.859375 253.175781 174.523438 253.175781 175.347656 C 253.175781 176.167969 253.84375 176.835938 254.664062 176.835938 C 255.488281 176.835938 256.15625 176.167969 256.15625 175.347656 Z M 256.15625 175.347656 "/>
<path fill-rule="nonzero" fill="rgb(0%, 0%, 0%)" fill-opacity="1" d="M 256.15625 147.113281 C 256.15625 146.292969 255.488281 145.625 254.664062 145.625 C 253.84375 145.625 253.175781 146.292969 253.175781 147.113281 C 253.175781 147.9375 253.84375 148.601562 254.664062 148.601562 C 255.488281 148.601562 256.15625 147.9375 256.15625 147.113281 Z M 256.15625 147.113281 "/>
<path fill-rule="nonzero" fill="rgb(0%, 0%, 0%)" fill-opacity="1" d="M 79.597656 129.878906 C 79.597656 129.058594 78.929688 128.390625 78.109375 128.390625 C 77.285156 128.390625 76.621094 129.058594 76.621094 129.878906 C 76.621094 130.703125 77.285156 131.367188 78.109375 131.367188 C 78.929688 131.367188 79.597656 130.703125 79.597656 129.878906 Z M 79.597656 129.878906 "/>
<path fill-rule="nonzero" fill="rgb(0%, 0%, 0%)" fill-opacity="1" d="M 91.527344 104.292969 C 91.527344 103.46875 90.863281 102.804688 90.039062 102.804688 C 89.21875 102.804688 88.550781 103.46875 88.550781 104.292969 C 88.550781 105.113281 89.21875 105.78125 90.039062 105.78125 C 90.863281 105.78125 91.527344 105.113281 91.527344 104.292969 Z M 91.527344 104.292969 "/>
<g fill="rgb(0%, 0%, 0%)" fill-opacity="1">
<use xlink:href="#glyph-0-0" x="251.222705" y="187.231277"/>
</g>
<g fill="rgb(0%, 0%, 0%)" fill-opacity="1">
<use xlink:href="#glyph-0-1" x="251.414928" y="141.624603"/>
</g>
<g fill="rgb(0%, 0%, 0%)" fill-opacity="1">
<use xlink:href="#glyph-0-2" x="74.66728" y="141.469231"/>
</g>
<g fill="rgb(0%, 0%, 0%)" fill-opacity="1">
<use xlink:href="#glyph-0-3" x="86.437708" y="98.606467"/>
</g>
<path fill="none" stroke-width="0.99628" stroke-linecap="round" stroke-linejoin="round" stroke="rgb(0%, 0%, 0%)" stroke-opacity="1" stroke-dasharray="2.98883 2.98883" stroke-miterlimit="10" d="M 79.369267 -0.000350086 L 79.369267 28.348138 " transform="matrix(0.995975, 0, 0, -0.995975, 175.614287, 175.347308)"/>
<path fill="none" stroke-width="0.89664" stroke-linecap="round" stroke-linejoin="round" stroke="rgb(0%, 0%, 0%)" stroke-opacity="1" stroke-miterlimit="10" d="M 79.369267 9.922405 L 89.292022 9.922405 L 89.292022 -0.000350086 " transform="matrix(0.995975, 0, 0, -0.995975, 175.614287, 175.347308)"/>
<path fill="none" stroke-width="0.99628" stroke-linecap="round" stroke-linejoin="round" stroke="rgb(0%, 0%, 0%)" stroke-opacity="1" stroke-dasharray="2.98883 2.98883" stroke-miterlimit="10" d="M -85.92109 71.341516 L -97.898993 45.652169 " transform="matrix(0.995975, 0, 0, -0.995975, 175.614287, 175.347308)"/>
<path fill="none" stroke-width="0.89664" stroke-linecap="round" stroke-linejoin="round" stroke="rgb(0%, 0%, 0%)" stroke-opacity="1" stroke-miterlimit="10" d="M -93.706335 54.645401 L -84.717024 50.452743 L -88.909683 41.45951 " transform="matrix(0.995975, 0, 0, -0.995975, 175.614287, 175.347308)"/>
<path fill="none" stroke-width="0.99628" stroke-linecap="round" stroke-linejoin="round" stroke="rgb(0%, 0%, 0%)" stroke-opacity="1" stroke-miterlimit="10" d="M -141.017875 85.672641 L 134.466052 14.013091 L 155.786249 95.971912 L -119.697678 167.631463 Z M -141.017875 85.672641 " transform="matrix(0.995975, 0, 0, -0.995975, 175.614287, 175.347308)"/>
<path fill-rule="nonzero" fill="rgb(0%, 0%, 0%)" fill-opacity="1" d="M 177.101562 175.347656 C 177.101562 174.523438 176.4375 173.859375 175.613281 173.859375 C 174.792969 173.859375 174.125 174.523438 174.125 175.347656 C 174.125 176.167969 174.792969 176.835938 175.613281 176.835938 C 176.4375 176.835938 177.101562 176.167969 177.101562 175.347656 Z M 177.101562 175.347656 "/>
<path fill-rule="nonzero" fill="rgb(0%, 0%, 0%)" fill-opacity="1" d="M 177.105469 39.402344 C 177.105469 38.578125 176.441406 37.914062 175.617188 37.914062 C 174.796875 37.914062 174.128906 38.578125 174.128906 39.402344 C 174.128906 40.222656 174.796875 40.890625 175.617188 40.890625 C 176.441406 40.890625 177.105469 40.222656 177.105469 39.402344 Z M 177.105469 39.402344 "/>
<path fill="none" stroke-width="0.99628" stroke-linecap="round" stroke-linejoin="round" stroke="rgb(0%, 0%, 0%)" stroke-opacity="1" stroke-miterlimit="10" d="M -0.00101009 -0.000350086 L 0.00291195 136.494406 " transform="matrix(0.995975, 0, 0, -0.995975, 175.614287, 175.347308)"/>
<g fill="rgb(0%, 0%, 0%)" fill-opacity="1">
<use xlink:href="#glyph-0-4" x="172.049694" y="32.17994"/>
</g>
<g fill="rgb(0%, 0%, 0%)" fill-opacity="1">
<use xlink:href="#glyph-0-5" x="172.492903" y="186.937464"/>
</g>
<path fill="none" stroke-width="0.89664" stroke-linecap="round" stroke-linejoin="round" stroke="rgb(0%, 0%, 0%)" stroke-opacity="1" stroke-miterlimit="10" d="M -0.00101009 9.922405 L 9.921745 9.922405 L 9.921745 -0.000350086 " transform="matrix(0.995975, 0, 0, -0.995975, 175.614287, 175.347308)"/>
<path fill="none" stroke-width="0.89664" stroke-linecap="round" stroke-linejoin="round" stroke="rgb(0%, 0%, 0%)" stroke-opacity="1" stroke-miterlimit="10" d="M -20.552488 9.58511 C -21.952655 6.584751 -22.678232 3.30985 -22.678232 -0.000350086 " transform="matrix(0.995975, 0, 0, -0.995975, 175.614287, 175.347308)"/>
<g fill="rgb(0%, 0%, 0%)" fill-opacity="1">
<use xlink:href="#glyph-1-0" x="145.033883" y="169.819648"/>
</g>
</svg>
