<?xml version="1.0" encoding="UTF-8"?>
<svg xmlns="http://www.w3.org/2000/svg" xmlns:xlink="http://www.w3.org/1999/xlink" width="187.485" height="133.627" viewBox="0 0 187.485 133.627">
<path fill="none" stroke-width="0.3985" stroke-linecap="butt" stroke-linejoin="miter" stroke="rgb(0%, 0%, 0%)" stroke-opacity="1" stroke-miterlimit="10" d="M -0.00135489 -8.503969 L -0.00135489 113.386104 L 175.749581 113.386104 L 175.749581 -8.503969 Z M -0.00135489 -8.503969 " transform="matrix(0.997216, 0, 0, -0.997216, 5.85682, 118.922047)"/>
<path fill="none" stroke-width="0.3985" stroke-linecap="butt" stroke-linejoin="miter" stroke="rgb(0%, 0%, 0%)" stroke-opacity="1" stroke-miterlimit="10" d="M 28.347087 -8.503969 L 28.347087 113.386104 " transform="matrix(0.997216, 0, 0, -0.997216, 5.85682, 118.922047)"/>
<path fill="none" stroke-width="0.3985" stroke-linecap="butt" stroke-linejoin="miter" stroke="rgb(0%, 0%, 0%)" stroke-opacity="1" stroke-miterlimit="10" d="M 56.695528 -8.503969 L 56.695528 113.386104 " transform="matrix(0.997216, 0, 0, -0.997216, 5.85682, 118.922047)"/>
<path fill="none" stroke-width="0.3985" stroke-linecap="butt" stroke-linejoin="miter" stroke="rgb(0%, 0%, 0%)" stroke-opacity="1" stroke-miterlimit="10" d="M 85.040052 -8.503969 L 85.040052 113.386104 " transform="matrix(0.997216, 0, 0, -0.997216, 5.85682, 118.922047)"/>
<path fill="none" stroke-width="0.3985" stroke-linecap="butt" stroke-linejoin="miter" stroke="rgb(0%, 0%, 0%)" stroke-opacity="1" stroke-miterlimit="10" d="M 113.388494 -8.503969 L 113.388494 113.386104 " transform="matrix(0.997216, 0, 0, -0.997216, 5.85682, 118.922047)"/>
<path fill="none" stroke-width="0.3985" stroke-linecap="butt" stroke-linejoin="miter" stroke="rgb(0%, 0%, 0%)" stroke-opacity="1" stroke-miterlimit="10" d="M 141.733018 -8.503969 L 141.733018 113.386104 " transform="matrix(0.997216, 0, 0, -0.997216, 5.85682, 118.922047)"/>
<path fill="none" stroke-width="0.3985" stroke-linecap="butt" stroke-linejoin="miter" stroke="rgb(0%, 0%, 0%)" stroke-opacity="1" stroke-miterlimit="10" d="M 170.08146 -8.503969 L 170.08146 113.386104 " transform="matrix(0.997216, 0, 0, -0.997216, 5.85682, 118.922047)"/>
<path fill="none" stroke-width="0.3985" stroke-linecap="butt" stroke-linejoin="miter" stroke="rgb(0%, 0%, 0%)" stroke-opacity="1" stroke-miterlimit="10" d="M -0.00135489 0.000172181 L 175.749581 0.000172181 " transform="matrix(0.997216, 0, 0, -0.997216, 5.85682, 118.922047)"/>
<path fill="none" stroke-width="0.3985" stroke-linecap="butt" stroke-linejoin="miter" stroke="rgb(0%, 0%, 0%)" stroke-opacity="1" stroke-miterlimit="10" d="M -0.00135489 28.348614 L 175.749581 28.348614 " transform="matrix(0.997216, 0, 0, -0.997216, 5.85682, 118.922047)"/>
<path fill="none" stroke-width="0.3985" stroke-linecap="butt" stroke-linejoin="miter" stroke="rgb(0%, 0%, 0%)" stroke-opacity="1" stroke-miterlimit="10" d="M -0.00135489 56.693138 L 175.749581 56.693138 " transform="matrix(0.997216, 0, 0, -0.997216, 5.85682, 118.922047)"/>
<path fill="none" stroke-width="0.3985" stroke-linecap="butt" stroke-linejoin="miter" stroke="rgb(0%, 0%, 0%)" stroke-opacity="1" stroke-miterlimit="10" d="M -0.00135489 85.041579 L 175.749581 85.041579 " transform="matrix(0.997216, 0, 0, -0.997216, 5.85682, 118.922047)"/>
<path fill="none" stroke-width="0.3985" stroke-linecap="butt" stroke-linejoin="miter" stroke="rgb(0%, 0%, 0%)" stroke-opacity="1" stroke-miterlimit="10" d="M 172.917479 -8.503969 L 172.917479 113.386104 " transform="matrix(0.997216, 0, 0, -0.997216, 5.85682, 118.922047)"/>
<path fill="none" stroke-width="0.3985" stroke-linecap="butt" stroke-linejoin="miter" stroke="rgb(0%, 0%, 0%)" stroke-opacity="1" stroke-miterlimit="10" d="M 175.749581 -8.503969 L 175.749581 113.386104 " transform="matrix(0.997216, 0, 0, -0.997216, 5.85682, 118.922047)"/>
<path fill="none" stroke-width="0.3985" stroke-linecap="butt" stroke-linejoin="miter" stroke="rgb(0%, 0%, 0%)" stroke-opacity="1" stroke-miterlimit="10" d="M -0.00135489 -2.835847 L 175.749581 -2.835847 " transform="matrix(0.997216, 0, 0, -0.997216, 5.85682, 118.922047)"/>
<path fill="none" stroke-width="0.3985" stroke-linecap="butt" stroke-linejoin="miter" stroke="rgb(0%, 0%, 0%)" stroke-opacity="1" stroke-miterlimit="10" d="M -0.00135489 -5.667949 L 175.749581 -5.667949 " transform="matrix(0.997216, 0, 0, -0.997216, 5.85682, 118.922047)"/>
<path fill="none" stroke-width="0.3985" stroke-linecap="butt" stroke-linejoin="miter" stroke="rgb(0%, 0%, 0%)" stroke-opacity="1" stroke-miterlimit="10" d="M -0.00135489 -8.503969 L 175.749581 -8.503969 " transform="matrix(0.997216, 0, 0, -0.997216, 5.85682, 118.922047)"/>
</svg>
