<?xml version="1.0" encoding="UTF-8"?>
<svg xmlns="http://www.w3.org/2000/svg" xmlns:xlink="http://www.w3.org/1999/xlink" width="434.716" height="131.409" viewBox="0 0 434.716 131.409">
<path fill="none" stroke-width="0.3985" stroke-linecap="round" stroke-linejoin="round" stroke="rgb(64.99939%, 64.99939%, 64.99939%)" stroke-opacity="1" stroke-miterlimit="10" d="M -19.842685 25.51291 L -19.842685 -93.543575 L 402.524932 -93.543575 L 402.524932 25.51291 Z M -19.842685 25.51291 " transform="matrix(0.995523, 0, 0, -0.995523, 26.734313, 31.54712)"/>
<path fill-rule="nonzero" fill="rgb(72.499084%, 72.499084%, 72.499084%)" fill-opacity="1" stroke-width="0.89664" stroke-linecap="round" stroke-linejoin="round" stroke="rgb(0%, 0%, 0%)" stroke-opacity="1" stroke-miterlimit="10" d="M 41.953525 0.000245805 C 41.953525 4.383151 38.398546 7.93813 34.015641 7.93813 C 29.632736 7.93813 26.077757 4.383151 26.077757 0.000245805 C 26.077757 -4.382659 29.632736 -7.937638 34.015641 -7.937638 C 38.398546 -7.937638 41.953525 -4.382659 41.953525 0.000245805 Z M 41.953525 0.000245805 " transform="matrix(0.995523, 0, 0, -0.995523, 26.734313, 31.54712)"/>
<path fill-rule="nonzero" fill="rgb(72.499084%, 72.499084%, 72.499084%)" fill-opacity="1" stroke-width="0.89664" stroke-linecap="round" stroke-linejoin="round" stroke="rgb(0%, 0%, 0%)" stroke-opacity="1" stroke-miterlimit="10" d="M 135.497346 0.000245805 C 135.497346 4.383151 131.942367 7.93813 127.559462 7.93813 C 123.176557 7.93813 119.625502 4.383151 119.625502 0.000245805 C 119.625502 -4.382659 123.176557 -7.937638 127.559462 -7.937638 C 131.942367 -7.937638 135.497346 -4.382659 135.497346 0.000245805 Z M 135.497346 0.000245805 " transform="matrix(0.995523, 0, 0, -0.995523, 26.734313, 31.54712)"/>
<path fill-rule="nonzero" fill="rgb(72.499084%, 72.499084%, 72.499084%)" fill-opacity="1" stroke-width="0.89664" stroke-linecap="round" stroke-linejoin="round" stroke="rgb(0%, 0%, 0%)" stroke-opacity="1" stroke-miterlimit="10" d="M 135.497346 -21.259 C 135.497346 -16.876095 131.942367 -13.321116 127.559462 -13.321116 C 123.176557 -13.321116 119.625502 -16.876095 119.625502 -21.259 C 119.625502 -25.641905 123.176557 -29.196884 127.559462 -29.196884 C 131.942367 -29.196884 135.497346 -25.641905 135.497346 -21.259 Z M 135.497346 -21.259 " transform="matrix(0.995523, 0, 0, -0.995523, 26.734313, 31.54712)"/>
<path fill-rule="nonzero" fill="rgb(72.499084%, 72.499084%, 72.499084%)" fill-opacity="1" stroke-width="0.89664" stroke-linecap="round" stroke-linejoin="round" stroke="rgb(0%, 0%, 0%)" stroke-opacity="1" stroke-miterlimit="10" d="M 156.756592 -21.259 C 156.756592 -16.876095 153.205537 -13.321116 148.822632 -13.321116 C 144.435803 -13.321116 140.884748 -16.876095 140.884748 -21.259 C 140.884748 -25.641905 144.435803 -29.196884 148.822632 -29.196884 C 153.205537 -29.196884 156.756592 -25.641905 156.756592 -21.259 Z M 156.756592 -21.259 " transform="matrix(0.995523, 0, 0, -0.995523, 26.734313, 31.54712)"/>
<path fill-rule="nonzero" fill="rgb(72.499084%, 72.499084%, 72.499084%)" fill-opacity="1" stroke-width="0.89664" stroke-linecap="round" stroke-linejoin="round" stroke="rgb(0%, 0%, 0%)" stroke-opacity="1" stroke-miterlimit="10" d="M 223.37125 0.000245805 C 223.37125 4.383151 219.820195 7.93813 215.43729 7.93813 C 211.050462 7.93813 207.499406 4.383151 207.499406 0.000245805 C 207.499406 -4.382659 211.050462 -7.937638 215.43729 -7.937638 C 219.820195 -7.937638 223.37125 -4.382659 223.37125 0.000245805 Z M 223.37125 0.000245805 " transform="matrix(0.995523, 0, 0, -0.995523, 26.734313, 31.54712)"/>
<path fill-rule="nonzero" fill="rgb(72.499084%, 72.499084%, 72.499084%)" fill-opacity="1" stroke-width="0.89664" stroke-linecap="round" stroke-linejoin="round" stroke="rgb(0%, 0%, 0%)" stroke-opacity="1" stroke-miterlimit="10" d="M 223.37125 -21.259 C 223.37125 -16.876095 219.820195 -13.321116 215.43729 -13.321116 C 211.050462 -13.321116 207.499406 -16.876095 207.499406 -21.259 C 207.499406 -25.641905 211.050462 -29.196884 215.43729 -29.196884 C 219.820195 -29.196884 223.37125 -25.641905 223.37125 -21.259 Z M 223.37125 -21.259 " transform="matrix(0.995523, 0, 0, -0.995523, 26.734313, 31.54712)"/>
<path fill-rule="nonzero" fill="rgb(72.499084%, 72.499084%, 72.499084%)" fill-opacity="1" stroke-width="0.89664" stroke-linecap="round" stroke-linejoin="round" stroke="rgb(0%, 0%, 0%)" stroke-opacity="1" stroke-miterlimit="10" d="M 244.63442 -21.259 C 244.63442 -16.876095 241.079441 -13.321116 236.696536 -13.321116 C 232.313631 -13.321116 228.758652 -16.876095 228.758652 -21.259 C 228.758652 -25.641905 232.313631 -29.196884 236.696536 -29.196884 C 241.079441 -29.196884 244.63442 -25.641905 244.63442 -21.259 Z M 244.63442 -21.259 " transform="matrix(0.995523, 0, 0, -0.995523, 26.734313, 31.54712)"/>
<path fill-rule="nonzero" fill="rgb(72.499084%, 72.499084%, 72.499084%)" fill-opacity="1" stroke-width="0.89664" stroke-linecap="round" stroke-linejoin="round" stroke="rgb(0%, 0%, 0%)" stroke-opacity="1" stroke-miterlimit="10" d="M 223.37125 -42.518246 C 223.37125 -38.135341 219.820195 -34.584286 215.43729 -34.584286 C 211.050462 -34.584286 207.499406 -38.135341 207.499406 -42.518246 C 207.499406 -46.905075 211.050462 -50.45613 215.43729 -50.45613 C 219.820195 -50.45613 223.37125 -46.905075 223.37125 -42.518246 Z M 223.37125 -42.518246 " transform="matrix(0.995523, 0, 0, -0.995523, 26.734313, 31.54712)"/>
<path fill-rule="nonzero" fill="rgb(72.499084%, 72.499084%, 72.499084%)" fill-opacity="1" stroke-width="0.89664" stroke-linecap="round" stroke-linejoin="round" stroke="rgb(0%, 0%, 0%)" stroke-opacity="1" stroke-miterlimit="10" d="M 244.63442 -42.518246 C 244.63442 -38.135341 241.079441 -34.584286 236.696536 -34.584286 C 232.313631 -34.584286 228.758652 -38.135341 228.758652 -42.518246 C 228.758652 -46.905075 232.313631 -50.45613 236.696536 -50.45613 C 241.079441 -50.45613 244.63442 -46.905075 244.63442 -42.518246 Z M 244.63442 -42.518246 " transform="matrix(0.995523, 0, 0, -0.995523, 26.734313, 31.54712)"/>
<path fill-rule="nonzero" fill="rgb(72.499084%, 72.499084%, 72.499084%)" fill-opacity="1" stroke-width="0.89664" stroke-linecap="round" stroke-linejoin="round" stroke="rgb(0%, 0%, 0%)" stroke-opacity="1" stroke-miterlimit="10" d="M 265.893666 -42.518246 C 265.893666 -38.135341 262.338687 -34.584286 257.955782 -34.584286 C 253.572877 -34.584286 250.017898 -38.135341 250.017898 -42.518246 C 250.017898 -46.905075 253.572877 -50.45613 257.955782 -50.45613 C 262.338687 -50.45613 265.893666 -46.905075 265.893666 -42.518246 Z M 265.893666 -42.518246 " transform="matrix(0.995523, 0, 0, -0.995523, 26.734313, 31.54712)"/>
<path fill-rule="nonzero" fill="rgb(72.499084%, 72.499084%, 72.499084%)" fill-opacity="1" stroke-width="0.89664" stroke-linecap="round" stroke-linejoin="round" stroke="rgb(0%, 0%, 0%)" stroke-opacity="1" stroke-miterlimit="10" d="M 319.751992 0.000245805 C 319.751992 4.383151 316.197013 7.93813 311.814108 7.93813 C 307.431203 7.93813 303.876224 4.383151 303.876224 0.000245805 C 303.876224 -4.382659 307.431203 -7.937638 311.814108 -7.937638 C 316.197013 -7.937638 319.751992 -4.382659 319.751992 0.000245805 Z M 319.751992 0.000245805 " transform="matrix(0.995523, 0, 0, -0.995523, 26.734313, 31.54712)"/>
<path fill-rule="nonzero" fill="rgb(72.499084%, 72.499084%, 72.499084%)" fill-opacity="1" stroke-width="0.89664" stroke-linecap="round" stroke-linejoin="round" stroke="rgb(0%, 0%, 0%)" stroke-opacity="1" stroke-miterlimit="10" d="M 319.751992 -21.259 C 319.751992 -16.876095 316.197013 -13.321116 311.814108 -13.321116 C 307.431203 -13.321116 303.876224 -16.876095 303.876224 -21.259 C 303.876224 -25.641905 307.431203 -29.196884 311.814108 -29.196884 C 316.197013 -29.196884 319.751992 -25.641905 319.751992 -21.259 Z M 319.751992 -21.259 " transform="matrix(0.995523, 0, 0, -0.995523, 26.734313, 31.54712)"/>
<path fill-rule="nonzero" fill="rgb(72.499084%, 72.499084%, 72.499084%)" fill-opacity="1" stroke-width="0.89664" stroke-linecap="round" stroke-linejoin="round" stroke="rgb(0%, 0%, 0%)" stroke-opacity="1" stroke-miterlimit="10" d="M 341.011238 -21.259 C 341.011238 -16.876095 337.460182 -13.321116 333.073354 -13.321116 C 328.690449 -13.321116 325.139394 -16.876095 325.139394 -21.259 C 325.139394 -25.641905 328.690449 -29.196884 333.073354 -29.196884 C 337.460182 -29.196884 341.011238 -25.641905 341.011238 -21.259 Z M 341.011238 -21.259 " transform="matrix(0.995523, 0, 0, -0.995523, 26.734313, 31.54712)"/>
<path fill-rule="nonzero" fill="rgb(72.499084%, 72.499084%, 72.499084%)" fill-opacity="1" stroke-width="0.89664" stroke-linecap="round" stroke-linejoin="round" stroke="rgb(0%, 0%, 0%)" stroke-opacity="1" stroke-miterlimit="10" d="M 319.751992 -42.518246 C 319.751992 -38.135341 316.197013 -34.584286 311.814108 -34.584286 C 307.431203 -34.584286 303.876224 -38.135341 303.876224 -42.518246 C 303.876224 -46.905075 307.431203 -50.45613 311.814108 -50.45613 C 316.197013 -50.45613 319.751992 -46.905075 319.751992 -42.518246 Z M 319.751992 -42.518246 " transform="matrix(0.995523, 0, 0, -0.995523, 26.734313, 31.54712)"/>
<path fill-rule="nonzero" fill="rgb(72.499084%, 72.499084%, 72.499084%)" fill-opacity="1" stroke-width="0.89664" stroke-linecap="round" stroke-linejoin="round" stroke="rgb(0%, 0%, 0%)" stroke-opacity="1" stroke-miterlimit="10" d="M 341.011238 -42.518246 C 341.011238 -38.135341 337.460182 -34.584286 333.073354 -34.584286 C 328.690449 -34.584286 325.139394 -38.135341 325.139394 -42.518246 C 325.139394 -46.905075 328.690449 -50.45613 333.073354 -50.45613 C 337.460182 -50.45613 341.011238 -46.905075 341.011238 -42.518246 Z M 341.011238 -42.518246 " transform="matrix(0.995523, 0, 0, -0.995523, 26.734313, 31.54712)"/>
<path fill-rule="nonzero" fill="rgb(72.499084%, 72.499084%, 72.499084%)" fill-opacity="1" stroke-width="0.89664" stroke-linecap="round" stroke-linejoin="round" stroke="rgb(0%, 0%, 0%)" stroke-opacity="1" stroke-miterlimit="10" d="M 362.270484 -42.518246 C 362.270484 -38.135341 358.719428 -34.584286 354.336524 -34.584286 C 349.949695 -34.584286 346.39864 -38.135341 346.39864 -42.518246 C 346.39864 -46.905075 349.949695 -50.45613 354.336524 -50.45613 C 358.719428 -50.45613 362.270484 -46.905075 362.270484 -42.518246 Z M 362.270484 -42.518246 " transform="matrix(0.995523, 0, 0, -0.995523, 26.734313, 31.54712)"/>
<path fill-rule="nonzero" fill="rgb(72.499084%, 72.499084%, 72.499084%)" fill-opacity="1" stroke-width="0.89664" stroke-linecap="round" stroke-linejoin="round" stroke="rgb(0%, 0%, 0%)" stroke-opacity="1" stroke-miterlimit="10" d="M 319.751992 -63.781416 C 319.751992 -59.398511 316.197013 -55.843532 311.814108 -55.843532 C 307.431203 -55.843532 303.876224 -59.398511 303.876224 -63.781416 C 303.876224 -68.164321 307.431203 -71.7193 311.814108 -71.7193 C 316.197013 -71.7193 319.751992 -68.164321 319.751992 -63.781416 Z M 319.751992 -63.781416 " transform="matrix(0.995523, 0, 0, -0.995523, 26.734313, 31.54712)"/>
<path fill-rule="nonzero" fill="rgb(72.499084%, 72.499084%, 72.499084%)" fill-opacity="1" stroke-width="0.89664" stroke-linecap="round" stroke-linejoin="round" stroke="rgb(0%, 0%, 0%)" stroke-opacity="1" stroke-miterlimit="10" d="M 341.011238 -63.781416 C 341.011238 -59.398511 337.460182 -55.843532 333.073354 -55.843532 C 328.690449 -55.843532 325.139394 -59.398511 325.139394 -63.781416 C 325.139394 -68.164321 328.690449 -71.7193 333.073354 -71.7193 C 337.460182 -71.7193 341.011238 -68.164321 341.011238 -63.781416 Z M 341.011238 -63.781416 " transform="matrix(0.995523, 0, 0, -0.995523, 26.734313, 31.54712)"/>
<path fill-rule="nonzero" fill="rgb(72.499084%, 72.499084%, 72.499084%)" fill-opacity="1" stroke-width="0.89664" stroke-linecap="round" stroke-linejoin="round" stroke="rgb(0%, 0%, 0%)" stroke-opacity="1" stroke-miterlimit="10" d="M 362.270484 -63.781416 C 362.270484 -59.398511 358.719428 -55.843532 354.336524 -55.843532 C 349.949695 -55.843532 346.39864 -59.398511 346.39864 -63.781416 C 346.39864 -68.164321 349.949695 -71.7193 354.336524 -71.7193 C 358.719428 -71.7193 362.270484 -68.164321 362.270484 -63.781416 Z M 362.270484 -63.781416 " transform="matrix(0.995523, 0, 0, -0.995523, 26.734313, 31.54712)"/>
<path fill-rule="nonzero" fill="rgb(72.499084%, 72.499084%, 72.499084%)" fill-opacity="1" stroke-width="0.89664" stroke-linecap="round" stroke-linejoin="round" stroke="rgb(0%, 0%, 0%)" stroke-opacity="1" stroke-miterlimit="10" d="M 383.533653 -63.781416 C 383.533653 -59.398511 379.978674 -55.843532 375.59577 -55.843532 C 371.212865 -55.843532 367.657886 -59.398511 367.657886 -63.781416 C 367.657886 -68.164321 371.212865 -71.7193 375.59577 -71.7193 C 379.978674 -71.7193 383.533653 -68.164321 383.533653 -63.781416 Z M 383.533653 -63.781416 " transform="matrix(0.995523, 0, 0, -0.995523, 26.734313, 31.54712)"/>
</svg>
