<?xml version="1.0" encoding="UTF-8"?>
<svg xmlns="http://www.w3.org/2000/svg" xmlns:xlink="http://www.w3.org/1999/xlink" width="434.716" height="139.913" viewBox="0 0 434.716 139.913">
<path fill="none" stroke-width="0.3985" stroke-linecap="round" stroke-linejoin="round" stroke="rgb(64.99939%, 64.99939%, 64.99939%)" stroke-opacity="1" stroke-miterlimit="10" d="M -19.843093 25.511387 L -19.843093 -102.048456 L 402.526411 -102.048456 L 402.526411 25.511387 Z M -19.843093 25.511387 " transform="matrix(0.999347, 0, 0, -0.999347, 26.002013, 31.670512)"/>
<path fill="none" stroke-width="0.89664" stroke-linecap="round" stroke-linejoin="round" stroke="rgb(0%, 0%, 0%)" stroke-opacity="1" stroke-miterlimit="10" d="M 41.955066 5.670308 C 41.955066 10.052075 38.398056 13.605176 34.016289 13.605176 C 29.630613 13.605176 26.077512 10.052075 26.077512 5.670308 C 26.077512 1.284632 29.630613 -2.268469 34.016289 -2.268469 C 38.398056 -2.268469 41.955066 1.284632 41.955066 5.670308 Z M 41.955066 5.670308 " transform="matrix(0.999347, 0, 0, -0.999347, 26.002013, 31.670512)"/>
<path fill-rule="nonzero" fill="rgb(72.499084%, 72.499084%, 72.499084%)" fill-opacity="1" stroke-width="0.89664" stroke-linecap="round" stroke-linejoin="round" stroke="rgb(0%, 0%, 0%)" stroke-opacity="1" stroke-miterlimit="10" d="M 41.955066 -15.589666 C 41.955066 -11.207899 38.398056 -7.654798 34.016289 -7.654798 C 29.630613 -7.654798 26.077512 -11.207899 26.077512 -15.589666 C 26.077512 -19.975342 29.630613 -23.528443 34.016289 -23.528443 C 38.398056 -23.528443 41.955066 -19.975342 41.955066 -15.589666 Z M 41.955066 -15.589666 " transform="matrix(0.999347, 0, 0, -0.999347, 26.002013, 31.670512)"/>
<path fill="none" stroke-width="0.89664" stroke-linecap="round" stroke-linejoin="round" stroke="rgb(0%, 0%, 0%)" stroke-opacity="1" stroke-miterlimit="10" d="M 135.496606 5.670308 C 135.496606 10.052075 131.943505 13.605176 127.561738 13.605176 C 123.176062 13.605176 119.622961 10.052075 119.622961 5.670308 C 119.622961 1.284632 123.176062 -2.268469 127.561738 -2.268469 C 131.943505 -2.268469 135.496606 1.284632 135.496606 5.670308 Z M 135.496606 5.670308 " transform="matrix(0.999347, 0, 0, -0.999347, 26.002013, 31.670512)"/>
<path fill="none" stroke-width="0.89664" stroke-linecap="round" stroke-linejoin="round" stroke="rgb(0%, 0%, 0%)" stroke-opacity="1" stroke-miterlimit="10" d="M 156.756579 5.670308 C 156.756579 10.052075 153.203478 13.605176 148.821711 13.605176 C 144.436036 13.605176 140.882935 10.052075 140.882935 5.670308 C 140.882935 1.284632 144.436036 -2.268469 148.821711 -2.268469 C 153.203478 -2.268469 156.756579 1.284632 156.756579 5.670308 Z M 156.756579 5.670308 " transform="matrix(0.999347, 0, 0, -0.999347, 26.002013, 31.670512)"/>
<path fill-rule="nonzero" fill="rgb(72.499084%, 72.499084%, 72.499084%)" fill-opacity="1" stroke-width="0.89664" stroke-linecap="round" stroke-linejoin="round" stroke="rgb(0%, 0%, 0%)" stroke-opacity="1" stroke-miterlimit="10" d="M 135.496606 -15.589666 C 135.496606 -11.207899 131.943505 -7.654798 127.561738 -7.654798 C 123.176062 -7.654798 119.622961 -11.207899 119.622961 -15.589666 C 119.622961 -19.975342 123.176062 -23.528443 127.561738 -23.528443 C 131.943505 -23.528443 135.496606 -19.975342 135.496606 -15.589666 Z M 135.496606 -15.589666 " transform="matrix(0.999347, 0, 0, -0.999347, 26.002013, 31.670512)"/>
<path fill="none" stroke-width="0.89664" stroke-linecap="round" stroke-linejoin="round" stroke="rgb(0%, 0%, 0%)" stroke-opacity="1" stroke-miterlimit="10" d="M 156.756579 -15.589666 C 156.756579 -11.207899 153.203478 -7.654798 148.821711 -7.654798 C 144.436036 -7.654798 140.882935 -11.207899 140.882935 -15.589666 C 140.882935 -19.975342 144.436036 -23.528443 148.821711 -23.528443 C 153.203478 -23.528443 156.756579 -19.975342 156.756579 -15.589666 Z M 156.756579 -15.589666 " transform="matrix(0.999347, 0, 0, -0.999347, 26.002013, 31.670512)"/>
<path fill-rule="nonzero" fill="rgb(72.499084%, 72.499084%, 72.499084%)" fill-opacity="1" stroke-width="0.89664" stroke-linecap="round" stroke-linejoin="round" stroke="rgb(0%, 0%, 0%)" stroke-opacity="1" stroke-miterlimit="10" d="M 135.496606 -36.84964 C 135.496606 -32.467873 131.943505 -28.914772 127.561738 -28.914772 C 123.176062 -28.914772 119.622961 -32.467873 119.622961 -36.84964 C 119.622961 -41.235315 123.176062 -44.788416 127.561738 -44.788416 C 131.943505 -44.788416 135.496606 -41.235315 135.496606 -36.84964 Z M 135.496606 -36.84964 " transform="matrix(0.999347, 0, 0, -0.999347, 26.002013, 31.670512)"/>
<path fill-rule="nonzero" fill="rgb(72.499084%, 72.499084%, 72.499084%)" fill-opacity="1" stroke-width="0.89664" stroke-linecap="round" stroke-linejoin="round" stroke="rgb(0%, 0%, 0%)" stroke-opacity="1" stroke-miterlimit="10" d="M 156.756579 -36.84964 C 156.756579 -32.467873 153.203478 -28.914772 148.821711 -28.914772 C 144.436036 -28.914772 140.882935 -32.467873 140.882935 -36.84964 C 140.882935 -41.235315 144.436036 -44.788416 148.821711 -44.788416 C 153.203478 -44.788416 156.756579 -41.235315 156.756579 -36.84964 Z M 156.756579 -36.84964 " transform="matrix(0.999347, 0, 0, -0.999347, 26.002013, 31.670512)"/>
<path fill="none" stroke-width="0.89664" stroke-linecap="round" stroke-linejoin="round" stroke="rgb(0%, 0%, 0%)" stroke-opacity="1" stroke-miterlimit="10" d="M 223.374291 5.670308 C 223.374291 10.052075 219.82119 13.605176 215.435514 13.605176 C 211.053747 13.605176 207.500646 10.052075 207.500646 5.670308 C 207.500646 1.284632 211.053747 -2.268469 215.435514 -2.268469 C 219.82119 -2.268469 223.374291 1.284632 223.374291 5.670308 Z M 223.374291 5.670308 " transform="matrix(0.999347, 0, 0, -0.999347, 26.002013, 31.670512)"/>
<path fill="none" stroke-width="0.89664" stroke-linecap="round" stroke-linejoin="round" stroke="rgb(0%, 0%, 0%)" stroke-opacity="1" stroke-miterlimit="10" d="M 244.634265 5.670308 C 244.634265 10.052075 241.081164 13.605176 236.695488 13.605176 C 232.313721 13.605176 228.76062 10.052075 228.76062 5.670308 C 228.76062 1.284632 232.313721 -2.268469 236.695488 -2.268469 C 241.081164 -2.268469 244.634265 1.284632 244.634265 5.670308 Z M 244.634265 5.670308 " transform="matrix(0.999347, 0, 0, -0.999347, 26.002013, 31.670512)"/>
<path fill="none" stroke-width="0.89664" stroke-linecap="round" stroke-linejoin="round" stroke="rgb(0%, 0%, 0%)" stroke-opacity="1" stroke-miterlimit="10" d="M 265.894239 5.670308 C 265.894239 10.052075 262.341138 13.605176 257.955462 13.605176 C 253.573695 13.605176 250.020594 10.052075 250.020594 5.670308 C 250.020594 1.284632 253.573695 -2.268469 257.955462 -2.268469 C 262.341138 -2.268469 265.894239 1.284632 265.894239 5.670308 Z M 265.894239 5.670308 " transform="matrix(0.999347, 0, 0, -0.999347, 26.002013, 31.670512)"/>
<path fill-rule="nonzero" fill="rgb(72.499084%, 72.499084%, 72.499084%)" fill-opacity="1" stroke-width="0.89664" stroke-linecap="round" stroke-linejoin="round" stroke="rgb(0%, 0%, 0%)" stroke-opacity="1" stroke-miterlimit="10" d="M 223.374291 -15.589666 C 223.374291 -11.207899 219.82119 -7.654798 215.435514 -7.654798 C 211.053747 -7.654798 207.500646 -11.207899 207.500646 -15.589666 C 207.500646 -19.975342 211.053747 -23.528443 215.435514 -23.528443 C 219.82119 -23.528443 223.374291 -19.975342 223.374291 -15.589666 Z M 223.374291 -15.589666 " transform="matrix(0.999347, 0, 0, -0.999347, 26.002013, 31.670512)"/>
<path fill="none" stroke-width="0.89664" stroke-linecap="round" stroke-linejoin="round" stroke="rgb(0%, 0%, 0%)" stroke-opacity="1" stroke-miterlimit="10" d="M 244.634265 -15.589666 C 244.634265 -11.207899 241.081164 -7.654798 236.695488 -7.654798 C 232.313721 -7.654798 228.76062 -11.207899 228.76062 -15.589666 C 228.76062 -19.975342 232.313721 -23.528443 236.695488 -23.528443 C 241.081164 -23.528443 244.634265 -19.975342 244.634265 -15.589666 Z M 244.634265 -15.589666 " transform="matrix(0.999347, 0, 0, -0.999347, 26.002013, 31.670512)"/>
<path fill="none" stroke-width="0.89664" stroke-linecap="round" stroke-linejoin="round" stroke="rgb(0%, 0%, 0%)" stroke-opacity="1" stroke-miterlimit="10" d="M 265.894239 -15.589666 C 265.894239 -11.207899 262.341138 -7.654798 257.955462 -7.654798 C 253.573695 -7.654798 250.020594 -11.207899 250.020594 -15.589666 C 250.020594 -19.975342 253.573695 -23.528443 257.955462 -23.528443 C 262.341138 -23.528443 265.894239 -19.975342 265.894239 -15.589666 Z M 265.894239 -15.589666 " transform="matrix(0.999347, 0, 0, -0.999347, 26.002013, 31.670512)"/>
<path fill-rule="nonzero" fill="rgb(72.499084%, 72.499084%, 72.499084%)" fill-opacity="1" stroke-width="0.89664" stroke-linecap="round" stroke-linejoin="round" stroke="rgb(0%, 0%, 0%)" stroke-opacity="1" stroke-miterlimit="10" d="M 223.374291 -36.84964 C 223.374291 -32.467873 219.82119 -28.914772 215.435514 -28.914772 C 211.053747 -28.914772 207.500646 -32.467873 207.500646 -36.84964 C 207.500646 -41.235315 211.053747 -44.788416 215.435514 -44.788416 C 219.82119 -44.788416 223.374291 -41.235315 223.374291 -36.84964 Z M 223.374291 -36.84964 " transform="matrix(0.999347, 0, 0, -0.999347, 26.002013, 31.670512)"/>
<path fill-rule="nonzero" fill="rgb(72.499084%, 72.499084%, 72.499084%)" fill-opacity="1" stroke-width="0.89664" stroke-linecap="round" stroke-linejoin="round" stroke="rgb(0%, 0%, 0%)" stroke-opacity="1" stroke-miterlimit="10" d="M 244.634265 -36.84964 C 244.634265 -32.467873 241.081164 -28.914772 236.695488 -28.914772 C 232.313721 -28.914772 228.76062 -32.467873 228.76062 -36.84964 C 228.76062 -41.235315 232.313721 -44.788416 236.695488 -44.788416 C 241.081164 -44.788416 244.634265 -41.235315 244.634265 -36.84964 Z M 244.634265 -36.84964 " transform="matrix(0.999347, 0, 0, -0.999347, 26.002013, 31.670512)"/>
<path fill="none" stroke-width="0.89664" stroke-linecap="round" stroke-linejoin="round" stroke="rgb(0%, 0%, 0%)" stroke-opacity="1" stroke-miterlimit="10" d="M 265.894239 -36.84964 C 265.894239 -32.467873 262.341138 -28.914772 257.955462 -28.914772 C 253.573695 -28.914772 250.020594 -32.467873 250.020594 -36.84964 C 250.020594 -41.235315 253.573695 -44.788416 257.955462 -44.788416 C 262.341138 -44.788416 265.894239 -41.235315 265.894239 -36.84964 Z M 265.894239 -36.84964 " transform="matrix(0.999347, 0, 0, -0.999347, 26.002013, 31.670512)"/>
<path fill-rule="nonzero" fill="rgb(72.499084%, 72.499084%, 72.499084%)" fill-opacity="1" stroke-width="0.89664" stroke-linecap="round" stroke-linejoin="round" stroke="rgb(0%, 0%, 0%)" stroke-opacity="1" stroke-miterlimit="10" d="M 223.374291 -58.109613 C 223.374291 -53.727847 219.82119 -50.174746 215.435514 -50.174746 C 211.053747 -50.174746 207.500646 -53.727847 207.500646 -58.109613 C 207.500646 -62.495289 211.053747 -66.04839 215.435514 -66.04839 C 219.82119 -66.04839 223.374291 -62.495289 223.374291 -58.109613 Z M 223.374291 -58.109613 " transform="matrix(0.999347, 0, 0, -0.999347, 26.002013, 31.670512)"/>
<path fill-rule="nonzero" fill="rgb(72.499084%, 72.499084%, 72.499084%)" fill-opacity="1" stroke-width="0.89664" stroke-linecap="round" stroke-linejoin="round" stroke="rgb(0%, 0%, 0%)" stroke-opacity="1" stroke-miterlimit="10" d="M 244.634265 -58.109613 C 244.634265 -53.727847 241.081164 -50.174746 236.695488 -50.174746 C 232.313721 -50.174746 228.76062 -53.727847 228.76062 -58.109613 C 228.76062 -62.495289 232.313721 -66.04839 236.695488 -66.04839 C 241.081164 -66.04839 244.634265 -62.495289 244.634265 -58.109613 Z M 244.634265 -58.109613 " transform="matrix(0.999347, 0, 0, -0.999347, 26.002013, 31.670512)"/>
<path fill-rule="nonzero" fill="rgb(72.499084%, 72.499084%, 72.499084%)" fill-opacity="1" stroke-width="0.89664" stroke-linecap="round" stroke-linejoin="round" stroke="rgb(0%, 0%, 0%)" stroke-opacity="1" stroke-miterlimit="10" d="M 265.894239 -58.109613 C 265.894239 -53.727847 262.341138 -50.174746 257.955462 -50.174746 C 253.573695 -50.174746 250.020594 -53.727847 250.020594 -58.109613 C 250.020594 -62.495289 253.573695 -66.04839 257.955462 -66.04839 C 262.341138 -66.04839 265.894239 -62.495289 265.894239 -58.109613 Z M 265.894239 -58.109613 " transform="matrix(0.999347, 0, 0, -0.999347, 26.002013, 31.670512)"/>
<path fill="none" stroke-width="0.89664" stroke-linecap="round" stroke-linejoin="round" stroke="rgb(0%, 0%, 0%)" stroke-opacity="1" stroke-miterlimit="10" d="M 316.915831 5.670308 C 316.915831 10.052075 313.36273 13.605176 308.980963 13.605176 C 304.595287 13.605176 301.042186 10.052075 301.042186 5.670308 C 301.042186 1.284632 304.595287 -2.268469 308.980963 -2.268469 C 313.36273 -2.268469 316.915831 1.284632 316.915831 5.670308 Z M 316.915831 5.670308 " transform="matrix(0.999347, 0, 0, -0.999347, 26.002013, 31.670512)"/>
<path fill="none" stroke-width="0.89664" stroke-linecap="round" stroke-linejoin="round" stroke="rgb(0%, 0%, 0%)" stroke-opacity="1" stroke-miterlimit="10" d="M 338.175804 5.670308 C 338.175804 10.052075 334.622703 13.605176 330.240936 13.605176 C 325.855261 13.605176 322.30216 10.052075 322.30216 5.670308 C 322.30216 1.284632 325.855261 -2.268469 330.240936 -2.268469 C 334.622703 -2.268469 338.175804 1.284632 338.175804 5.670308 Z M 338.175804 5.670308 " transform="matrix(0.999347, 0, 0, -0.999347, 26.002013, 31.670512)"/>
<path fill="none" stroke-width="0.89664" stroke-linecap="round" stroke-linejoin="round" stroke="rgb(0%, 0%, 0%)" stroke-opacity="1" stroke-miterlimit="10" d="M 359.435778 5.670308 C 359.435778 10.052075 355.882677 13.605176 351.50091 13.605176 C 347.115234 13.605176 343.562134 10.052075 343.562134 5.670308 C 343.562134 1.284632 347.115234 -2.268469 351.50091 -2.268469 C 355.882677 -2.268469 359.435778 1.284632 359.435778 5.670308 Z M 359.435778 5.670308 " transform="matrix(0.999347, 0, 0, -0.999347, 26.002013, 31.670512)"/>
<path fill="none" stroke-width="0.89664" stroke-linecap="round" stroke-linejoin="round" stroke="rgb(0%, 0%, 0%)" stroke-opacity="1" stroke-miterlimit="10" d="M 380.695752 5.670308 C 380.695752 10.052075 377.142651 13.605176 372.760884 13.605176 C 368.375208 13.605176 364.822107 10.052075 364.822107 5.670308 C 364.822107 1.284632 368.375208 -2.268469 372.760884 -2.268469 C 377.142651 -2.268469 380.695752 1.284632 380.695752 5.670308 Z M 380.695752 5.670308 " transform="matrix(0.999347, 0, 0, -0.999347, 26.002013, 31.670512)"/>
<path fill-rule="nonzero" fill="rgb(72.499084%, 72.499084%, 72.499084%)" fill-opacity="1" stroke-width="0.89664" stroke-linecap="round" stroke-linejoin="round" stroke="rgb(0%, 0%, 0%)" stroke-opacity="1" stroke-miterlimit="10" d="M 316.915831 -15.589666 C 316.915831 -11.207899 313.36273 -7.654798 308.980963 -7.654798 C 304.595287 -7.654798 301.042186 -11.207899 301.042186 -15.589666 C 301.042186 -19.975342 304.595287 -23.528443 308.980963 -23.528443 C 313.36273 -23.528443 316.915831 -19.975342 316.915831 -15.589666 Z M 316.915831 -15.589666 " transform="matrix(0.999347, 0, 0, -0.999347, 26.002013, 31.670512)"/>
<path fill="none" stroke-width="0.89664" stroke-linecap="round" stroke-linejoin="round" stroke="rgb(0%, 0%, 0%)" stroke-opacity="1" stroke-miterlimit="10" d="M 338.175804 -15.589666 C 338.175804 -11.207899 334.622703 -7.654798 330.240936 -7.654798 C 325.855261 -7.654798 322.30216 -11.207899 322.30216 -15.589666 C 322.30216 -19.975342 325.855261 -23.528443 330.240936 -23.528443 C 334.622703 -23.528443 338.175804 -19.975342 338.175804 -15.589666 Z M 338.175804 -15.589666 " transform="matrix(0.999347, 0, 0, -0.999347, 26.002013, 31.670512)"/>
<path fill="none" stroke-width="0.89664" stroke-linecap="round" stroke-linejoin="round" stroke="rgb(0%, 0%, 0%)" stroke-opacity="1" stroke-miterlimit="10" d="M 359.435778 -15.589666 C 359.435778 -11.207899 355.882677 -7.654798 351.50091 -7.654798 C 347.115234 -7.654798 343.562134 -11.207899 343.562134 -15.589666 C 343.562134 -19.975342 347.115234 -23.528443 351.50091 -23.528443 C 355.882677 -23.528443 359.435778 -19.975342 359.435778 -15.589666 Z M 359.435778 -15.589666 " transform="matrix(0.999347, 0, 0, -0.999347, 26.002013, 31.670512)"/>
<path fill="none" stroke-width="0.89664" stroke-linecap="round" stroke-linejoin="round" stroke="rgb(0%, 0%, 0%)" stroke-opacity="1" stroke-miterlimit="10" d="M 380.695752 -15.589666 C 380.695752 -11.207899 377.142651 -7.654798 372.760884 -7.654798 C 368.375208 -7.654798 364.822107 -11.207899 364.822107 -15.589666 C 364.822107 -19.975342 368.375208 -23.528443 372.760884 -23.528443 C 377.142651 -23.528443 380.695752 -19.975342 380.695752 -15.589666 Z M 380.695752 -15.589666 " transform="matrix(0.999347, 0, 0, -0.999347, 26.002013, 31.670512)"/>
<path fill-rule="nonzero" fill="rgb(72.499084%, 72.499084%, 72.499084%)" fill-opacity="1" stroke-width="0.89664" stroke-linecap="round" stroke-linejoin="round" stroke="rgb(0%, 0%, 0%)" stroke-opacity="1" stroke-miterlimit="10" d="M 316.915831 -36.84964 C 316.915831 -32.467873 313.36273 -28.914772 308.980963 -28.914772 C 304.595287 -28.914772 301.042186 -32.467873 301.042186 -36.84964 C 301.042186 -41.235315 304.595287 -44.788416 308.980963 -44.788416 C 313.36273 -44.788416 316.915831 -41.235315 316.915831 -36.84964 Z M 316.915831 -36.84964 " transform="matrix(0.999347, 0, 0, -0.999347, 26.002013, 31.670512)"/>
<path fill-rule="nonzero" fill="rgb(72.499084%, 72.499084%, 72.499084%)" fill-opacity="1" stroke-width="0.89664" stroke-linecap="round" stroke-linejoin="round" stroke="rgb(0%, 0%, 0%)" stroke-opacity="1" stroke-miterlimit="10" d="M 338.175804 -36.84964 C 338.175804 -32.467873 334.622703 -28.914772 330.240936 -28.914772 C 325.855261 -28.914772 322.30216 -32.467873 322.30216 -36.84964 C 322.30216 -41.235315 325.855261 -44.788416 330.240936 -44.788416 C 334.622703 -44.788416 338.175804 -41.235315 338.175804 -36.84964 Z M 338.175804 -36.84964 " transform="matrix(0.999347, 0, 0, -0.999347, 26.002013, 31.670512)"/>
<path fill="none" stroke-width="0.89664" stroke-linecap="round" stroke-linejoin="round" stroke="rgb(0%, 0%, 0%)" stroke-opacity="1" stroke-miterlimit="10" d="M 359.435778 -36.84964 C 359.435778 -32.467873 355.882677 -28.914772 351.50091 -28.914772 C 347.115234 -28.914772 343.562134 -32.467873 343.562134 -36.84964 C 343.562134 -41.235315 347.115234 -44.788416 351.50091 -44.788416 C 355.882677 -44.788416 359.435778 -41.235315 359.435778 -36.84964 Z M 359.435778 -36.84964 " transform="matrix(0.999347, 0, 0, -0.999347, 26.002013, 31.670512)"/>
<path fill="none" stroke-width="0.89664" stroke-linecap="round" stroke-linejoin="round" stroke="rgb(0%, 0%, 0%)" stroke-opacity="1" stroke-miterlimit="10" d="M 380.695752 -36.84964 C 380.695752 -32.467873 377.142651 -28.914772 372.760884 -28.914772 C 368.375208 -28.914772 364.822107 -32.467873 364.822107 -36.84964 C 364.822107 -41.235315 368.375208 -44.788416 372.760884 -44.788416 C 377.142651 -44.788416 380.695752 -41.235315 380.695752 -36.84964 Z M 380.695752 -36.84964 " transform="matrix(0.999347, 0, 0, -0.999347, 26.002013, 31.670512)"/>
<path fill-rule="nonzero" fill="rgb(72.499084%, 72.499084%, 72.499084%)" fill-opacity="1" stroke-width="0.89664" stroke-linecap="round" stroke-linejoin="round" stroke="rgb(0%, 0%, 0%)" stroke-opacity="1" stroke-miterlimit="10" d="M 316.915831 -58.109613 C 316.915831 -53.727847 313.36273 -50.174746 308.980963 -50.174746 C 304.595287 -50.174746 301.042186 -53.727847 301.042186 -58.109613 C 301.042186 -62.495289 304.595287 -66.04839 308.980963 -66.04839 C 313.36273 -66.04839 316.915831 -62.495289 316.915831 -58.109613 Z M 316.915831 -58.109613 " transform="matrix(0.999347, 0, 0, -0.999347, 26.002013, 31.670512)"/>
<path fill-rule="nonzero" fill="rgb(72.499084%, 72.499084%, 72.499084%)" fill-opacity="1" stroke-width="0.89664" stroke-linecap="round" stroke-linejoin="round" stroke="rgb(0%, 0%, 0%)" stroke-opacity="1" stroke-miterlimit="10" d="M 338.175804 -58.109613 C 338.175804 -53.727847 334.622703 -50.174746 330.240936 -50.174746 C 325.855261 -50.174746 322.30216 -53.727847 322.30216 -58.109613 C 322.30216 -62.495289 325.855261 -66.04839 330.240936 -66.04839 C 334.622703 -66.04839 338.175804 -62.495289 338.175804 -58.109613 Z M 338.175804 -58.109613 " transform="matrix(0.999347, 0, 0, -0.999347, 26.002013, 31.670512)"/>
<path fill-rule="nonzero" fill="rgb(72.499084%, 72.499084%, 72.499084%)" fill-opacity="1" stroke-width="0.89664" stroke-linecap="round" stroke-linejoin="round" stroke="rgb(0%, 0%, 0%)" stroke-opacity="1" stroke-miterlimit="10" d="M 359.435778 -58.109613 C 359.435778 -53.727847 355.882677 -50.174746 351.50091 -50.174746 C 347.115234 -50.174746 343.562134 -53.727847 343.562134 -58.109613 C 343.562134 -62.495289 347.115234 -66.04839 351.50091 -66.04839 C 355.882677 -66.04839 359.435778 -62.495289 359.435778 -58.109613 Z M 359.435778 -58.109613 " transform="matrix(0.999347, 0, 0, -0.999347, 26.002013, 31.670512)"/>
<path fill="none" stroke-width="0.89664" stroke-linecap="round" stroke-linejoin="round" stroke="rgb(0%, 0%, 0%)" stroke-opacity="1" stroke-miterlimit="10" d="M 380.695752 -58.109613 C 380.695752 -53.727847 377.142651 -50.174746 372.760884 -50.174746 C 368.375208 -50.174746 364.822107 -53.727847 364.822107 -58.109613 C 364.822107 -62.495289 368.375208 -66.04839 372.760884 -66.04839 C 377.142651 -66.04839 380.695752 -62.495289 380.695752 -58.109613 Z M 380.695752 -58.109613 " transform="matrix(0.999347, 0, 0, -0.999347, 26.002013, 31.670512)"/>
<path fill-rule="nonzero" fill="rgb(72.499084%, 72.499084%, 72.499084%)" fill-opacity="1" stroke-width="0.89664" stroke-linecap="round" stroke-linejoin="round" stroke="rgb(0%, 0%, 0%)" stroke-opacity="1" stroke-miterlimit="10" d="M 316.915831 -79.369587 C 316.915831 -74.98782 313.36273 -71.434719 308.980963 -71.434719 C 304.595287 -71.434719 301.042186 -74.98782 301.042186 -79.369587 C 301.042186 -83.755263 304.595287 -87.308364 308.980963 -87.308364 C 313.36273 -87.308364 316.915831 -83.755263 316.915831 -79.369587 Z M 316.915831 -79.369587 " transform="matrix(0.999347, 0, 0, -0.999347, 26.002013, 31.670512)"/>
<path fill-rule="nonzero" fill="rgb(72.499084%, 72.499084%, 72.499084%)" fill-opacity="1" stroke-width="0.89664" stroke-linecap="round" stroke-linejoin="round" stroke="rgb(0%, 0%, 0%)" stroke-opacity="1" stroke-miterlimit="10" d="M 338.175804 -79.369587 C 338.175804 -74.98782 334.622703 -71.434719 330.240936 -71.434719 C 325.855261 -71.434719 322.30216 -74.98782 322.30216 -79.369587 C 322.30216 -83.755263 325.855261 -87.308364 330.240936 -87.308364 C 334.622703 -87.308364 338.175804 -83.755263 338.175804 -79.369587 Z M 338.175804 -79.369587 " transform="matrix(0.999347, 0, 0, -0.999347, 26.002013, 31.670512)"/>
<path fill-rule="nonzero" fill="rgb(72.499084%, 72.499084%, 72.499084%)" fill-opacity="1" stroke-width="0.89664" stroke-linecap="round" stroke-linejoin="round" stroke="rgb(0%, 0%, 0%)" stroke-opacity="1" stroke-miterlimit="10" d="M 359.435778 -79.369587 C 359.435778 -74.98782 355.882677 -71.434719 351.50091 -71.434719 C 347.115234 -71.434719 343.562134 -74.98782 343.562134 -79.369587 C 343.562134 -83.755263 347.115234 -87.308364 351.50091 -87.308364 C 355.882677 -87.308364 359.435778 -83.755263 359.435778 -79.369587 Z M 359.435778 -79.369587 " transform="matrix(0.999347, 0, 0, -0.999347, 26.002013, 31.670512)"/>
<path fill-rule="nonzero" fill="rgb(72.499084%, 72.499084%, 72.499084%)" fill-opacity="1" stroke-width="0.89664" stroke-linecap="round" stroke-linejoin="round" stroke="rgb(0%, 0%, 0%)" stroke-opacity="1" stroke-miterlimit="10" d="M 380.695752 -79.369587 C 380.695752 -74.98782 377.142651 -71.434719 372.760884 -71.434719 C 368.375208 -71.434719 364.822107 -74.98782 364.822107 -79.369587 C 364.822107 -83.755263 368.375208 -87.308364 372.760884 -87.308364 C 377.142651 -87.308364 380.695752 -83.755263 380.695752 -79.369587 Z M 380.695752 -79.369587 " transform="matrix(0.999347, 0, 0, -0.999347, 26.002013, 31.670512)"/>
</svg>
