<?xml version="1.0" encoding="UTF-8"?>
<svg xmlns="http://www.w3.org/2000/svg" xmlns:xlink="http://www.w3.org/1999/xlink" width="576" height="180" viewBox="0 0 576 180">
<defs>
<g>
<g id="glyph-0-0">
<path d="M 5.28125 -3.125 L 0.5625 -3.125 L 0.5625 -3.9375 L 5.28125 -3.9375 Z M 5.28125 -3.125 "/>
</g>
<g id="glyph-0-1">
<path d="M 3.234375 0 L 3.234375 -1.71875 L 0.125 -1.71875 L 0.125 -2.515625 L 3.390625 -7.15625 L 4.109375 -7.15625 L 4.109375 -2.515625 L 5.078125 -2.515625 L 5.078125 -1.71875 L 4.109375 -1.71875 L 4.109375 0 Z M 3.234375 -2.515625 L 3.234375 -5.75 L 0.984375 -2.515625 Z M 3.234375 -2.515625 "/>
</g>
<g id="glyph-0-2">
<path d="M 0.421875 -1.890625 L 1.296875 -2 C 1.398438 -1.507812 1.570312 -1.148438 1.8125 -0.921875 C 2.050781 -0.703125 2.347656 -0.59375 2.703125 -0.59375 C 3.117188 -0.59375 3.46875 -0.734375 3.75 -1.015625 C 4.03125 -1.304688 4.171875 -1.664062 4.171875 -2.09375 C 4.171875 -2.5 4.039062 -2.832031 3.78125 -3.09375 C 3.519531 -3.351562 3.1875 -3.484375 2.78125 -3.484375 C 2.613281 -3.484375 2.40625 -3.453125 2.15625 -3.390625 L 2.25 -4.15625 C 2.3125 -4.15625 2.359375 -4.15625 2.390625 -4.15625 C 2.765625 -4.15625 3.101562 -4.25 3.40625 -4.4375 C 3.707031 -4.632812 3.859375 -4.9375 3.859375 -5.34375 C 3.859375 -5.664062 3.75 -5.929688 3.53125 -6.140625 C 3.3125 -6.359375 3.03125 -6.46875 2.6875 -6.46875 C 2.34375 -6.46875 2.054688 -6.359375 1.828125 -6.140625 C 1.597656 -5.929688 1.453125 -5.609375 1.390625 -5.171875 L 0.515625 -5.328125 C 0.617188 -5.921875 0.859375 -6.378906 1.234375 -6.703125 C 1.617188 -7.023438 2.09375 -7.1875 2.65625 -7.1875 C 3.050781 -7.1875 3.410156 -7.101562 3.734375 -6.9375 C 4.066406 -6.769531 4.316406 -6.539062 4.484375 -6.25 C 4.660156 -5.957031 4.75 -5.648438 4.75 -5.328125 C 4.75 -5.015625 4.664062 -4.734375 4.5 -4.484375 C 4.34375 -4.234375 4.097656 -4.03125 3.765625 -3.875 C 4.191406 -3.78125 4.519531 -3.578125 4.75 -3.265625 C 4.988281 -2.960938 5.109375 -2.578125 5.109375 -2.109375 C 5.109375 -1.484375 4.878906 -0.953125 4.421875 -0.515625 C 3.960938 -0.0859375 3.390625 0.125 2.703125 0.125 C 2.066406 0.125 1.539062 -0.0625 1.125 -0.4375 C 0.71875 -0.8125 0.484375 -1.296875 0.421875 -1.890625 Z M 0.421875 -1.890625 "/>
</g>
<g id="glyph-0-3">
<path d="M 5.03125 -0.84375 L 5.03125 0 L 0.296875 0 C 0.296875 -0.207031 0.332031 -0.410156 0.40625 -0.609375 C 0.53125 -0.929688 0.722656 -1.25 0.984375 -1.5625 C 1.242188 -1.875 1.628906 -2.234375 2.140625 -2.640625 C 2.910156 -3.285156 3.429688 -3.789062 3.703125 -4.15625 C 3.984375 -4.53125 4.125 -4.882812 4.125 -5.21875 C 4.125 -5.570312 4 -5.863281 3.75 -6.09375 C 3.5 -6.332031 3.175781 -6.453125 2.78125 -6.453125 C 2.351562 -6.453125 2.007812 -6.328125 1.75 -6.078125 C 1.5 -5.828125 1.375 -5.476562 1.375 -5.03125 L 0.46875 -5.125 C 0.53125 -5.789062 0.757812 -6.300781 1.15625 -6.65625 C 1.5625 -7.007812 2.109375 -7.1875 2.796875 -7.1875 C 3.484375 -7.1875 4.023438 -6.992188 4.421875 -6.609375 C 4.828125 -6.234375 5.03125 -5.765625 5.03125 -5.203125 C 5.03125 -4.910156 4.96875 -4.625 4.84375 -4.34375 C 4.726562 -4.070312 4.535156 -3.78125 4.265625 -3.46875 C 3.992188 -3.164062 3.539062 -2.75 2.90625 -2.21875 C 2.382812 -1.78125 2.046875 -1.476562 1.890625 -1.3125 C 1.742188 -1.15625 1.625 -1 1.53125 -0.84375 Z M 5.03125 -0.84375 "/>
</g>
<g id="glyph-0-4">
<path d="M 3.71875 0 L 2.84375 0 L 2.84375 -5.59375 C 2.632812 -5.394531 2.359375 -5.191406 2.015625 -4.984375 C 1.671875 -4.785156 1.363281 -4.640625 1.09375 -4.546875 L 1.09375 -5.390625 C 1.582031 -5.617188 2.007812 -5.894531 2.375 -6.21875 C 2.75 -6.550781 3.007812 -6.875 3.15625 -7.1875 L 3.71875 -7.1875 Z M 3.71875 0 "/>
</g>
<g id="glyph-0-5">
<path d="M 0.421875 -3.53125 C 0.421875 -4.375 0.503906 -5.050781 0.671875 -5.5625 C 0.847656 -6.082031 1.109375 -6.484375 1.453125 -6.765625 C 1.796875 -7.046875 2.226562 -7.1875 2.75 -7.1875 C 3.132812 -7.1875 3.46875 -7.109375 3.75 -6.953125 C 4.039062 -6.796875 4.28125 -6.570312 4.46875 -6.28125 C 4.664062 -5.988281 4.816406 -5.632812 4.921875 -5.21875 C 5.023438 -4.800781 5.078125 -4.238281 5.078125 -3.53125 C 5.078125 -2.6875 4.988281 -2.003906 4.8125 -1.484375 C 4.644531 -0.972656 4.390625 -0.578125 4.046875 -0.296875 C 3.703125 -0.015625 3.269531 0.125 2.75 0.125 C 2.0625 0.125 1.519531 -0.125 1.125 -0.625 C 0.65625 -1.21875 0.421875 -2.1875 0.421875 -3.53125 Z M 1.3125 -3.53125 C 1.3125 -2.351562 1.445312 -1.566406 1.71875 -1.171875 C 2 -0.785156 2.34375 -0.59375 2.75 -0.59375 C 3.15625 -0.59375 3.492188 -0.785156 3.765625 -1.171875 C 4.046875 -1.566406 4.1875 -2.351562 4.1875 -3.53125 C 4.1875 -4.707031 4.046875 -5.488281 3.765625 -5.875 C 3.492188 -6.257812 3.148438 -6.453125 2.734375 -6.453125 C 2.335938 -6.453125 2.015625 -6.285156 1.765625 -5.953125 C 1.460938 -5.515625 1.3125 -4.707031 1.3125 -3.53125 Z M 1.3125 -3.53125 "/>
</g>
</g>
<clipPath id="clip-0">
<path clip-rule="nonzero" d="M 5.980469 5.96875 L 570.019531 5.96875 L 570.019531 159.261719 L 5.980469 159.261719 Z M 5.980469 5.96875 "/>
</clipPath>
<clipPath id="clip-1">
<path clip-rule="nonzero" d="M 5.980469 158 L 570.019531 158 L 570.019531 159.261719 L 5.980469 159.261719 Z M 5.980469 158 "/>
</clipPath>
</defs>
<rect x="-57.6" y="-18" width="691.2" height="216" fill="rgb(100%, 100%, 100%)" fill-opacity="1"/>
<rect x="-57.6" y="-18" width="691.2" height="216" fill="rgb(100%, 100%, 100%)" fill-opacity="1"/>
<path fill="none" stroke-width="1.16" stroke-linecap="round" stroke-linejoin="round" stroke="rgb(100%, 100%, 100%)" stroke-opacity="1" stroke-miterlimit="10" d="M 0 0 L 576 0 L 576 180 L 0 180 Z M 0 0 " transform="matrix(1, 0, 0, -1, 0, 180)"/>
<g clip-path="url(#clip-0)">
<path fill-rule="nonzero" fill="rgb(100%, 100%, 100%)" fill-opacity="1" d="M 5.980469 159.261719 L 570.019531 159.261719 L 570.019531 5.96875 L 5.980469 5.96875 Z M 5.980469 159.261719 "/>
</g>
<path fill-rule="nonzero" fill="rgb(0%, 0%, 0%)" fill-opacity="1" stroke-width="0.77" stroke-linecap="round" stroke-linejoin="round" stroke="rgb(0%, 0%, 0%)" stroke-opacity="1" stroke-miterlimit="10" d="M 58.121094 27.371094 C 58.121094 28.46875 59.011719 29.359375 60.101562 29.359375 C 61.199219 29.359375 62.089844 28.46875 62.089844 27.371094 C 62.089844 26.28125 61.199219 25.390625 60.101562 25.390625 C 59.011719 25.390625 58.121094 26.28125 58.121094 27.371094 " transform="matrix(1, 0, 0, -1, 0, 180)"/>
<path fill-rule="nonzero" fill="rgb(0%, 0%, 0%)" fill-opacity="1" stroke-width="0.77" stroke-linecap="round" stroke-linejoin="round" stroke="rgb(0%, 0%, 0%)" stroke-opacity="1" stroke-miterlimit="10" d="M 115.089844 27.371094 C 115.089844 28.46875 115.980469 29.359375 117.078125 29.359375 C 118.171875 29.359375 119.058594 28.46875 119.058594 27.371094 C 119.058594 26.28125 118.171875 25.390625 117.078125 25.390625 C 115.980469 25.390625 115.089844 26.28125 115.089844 27.371094 " transform="matrix(1, 0, 0, -1, 0, 180)"/>
<path fill-rule="nonzero" fill="rgb(0%, 0%, 0%)" fill-opacity="1" stroke-width="0.77" stroke-linecap="round" stroke-linejoin="round" stroke="rgb(0%, 0%, 0%)" stroke-opacity="1" stroke-miterlimit="10" d="M 115.089844 34.011719 C 115.089844 35.101562 115.980469 36 117.078125 36 C 118.171875 36 119.058594 35.101562 119.058594 34.011719 C 119.058594 32.921875 118.171875 32.019531 117.078125 32.019531 C 115.980469 32.019531 115.089844 32.921875 115.089844 34.011719 " transform="matrix(1, 0, 0, -1, 0, 180)"/>
<path fill-rule="nonzero" fill="rgb(0%, 0%, 0%)" fill-opacity="1" stroke-width="0.77" stroke-linecap="round" stroke-linejoin="round" stroke="rgb(0%, 0%, 0%)" stroke-opacity="1" stroke-miterlimit="10" d="M 115.089844 40.640625 C 115.089844 41.738281 115.980469 42.628906 117.078125 42.628906 C 118.171875 42.628906 119.058594 41.738281 119.058594 40.640625 C 119.058594 39.550781 118.171875 38.660156 117.078125 38.660156 C 115.980469 38.660156 115.089844 39.550781 115.089844 40.640625 " transform="matrix(1, 0, 0, -1, 0, 180)"/>
<path fill-rule="nonzero" fill="rgb(0%, 0%, 0%)" fill-opacity="1" stroke-width="0.77" stroke-linecap="round" stroke-linejoin="round" stroke="rgb(0%, 0%, 0%)" stroke-opacity="1" stroke-miterlimit="10" d="M 172.058594 27.371094 C 172.058594 28.46875 172.960938 29.359375 174.050781 29.359375 C 175.140625 29.359375 176.039062 28.46875 176.039062 27.371094 C 176.039062 26.28125 175.140625 25.390625 174.050781 25.390625 C 172.960938 25.390625 172.058594 26.28125 172.058594 27.371094 " transform="matrix(1, 0, 0, -1, 0, 180)"/>
<path fill-rule="nonzero" fill="rgb(0%, 0%, 0%)" fill-opacity="1" stroke-width="0.77" stroke-linecap="round" stroke-linejoin="round" stroke="rgb(0%, 0%, 0%)" stroke-opacity="1" stroke-miterlimit="10" d="M 172.058594 34.011719 C 172.058594 35.101562 172.960938 36 174.050781 36 C 175.140625 36 176.039062 35.101562 176.039062 34.011719 C 176.039062 32.921875 175.140625 32.019531 174.050781 32.019531 C 172.960938 32.019531 172.058594 32.921875 172.058594 34.011719 " transform="matrix(1, 0, 0, -1, 0, 180)"/>
<path fill-rule="nonzero" fill="rgb(0%, 0%, 0%)" fill-opacity="1" stroke-width="0.77" stroke-linecap="round" stroke-linejoin="round" stroke="rgb(0%, 0%, 0%)" stroke-opacity="1" stroke-miterlimit="10" d="M 172.058594 40.640625 C 172.058594 41.738281 172.960938 42.628906 174.050781 42.628906 C 175.140625 42.628906 176.039062 41.738281 176.039062 40.640625 C 176.039062 39.550781 175.140625 38.660156 174.050781 38.660156 C 172.960938 38.660156 172.058594 39.550781 172.058594 40.640625 " transform="matrix(1, 0, 0, -1, 0, 180)"/>
<path fill-rule="nonzero" fill="rgb(0%, 0%, 0%)" fill-opacity="1" stroke-width="0.77" stroke-linecap="round" stroke-linejoin="round" stroke="rgb(0%, 0%, 0%)" stroke-opacity="1" stroke-miterlimit="10" d="M 172.058594 47.28125 C 172.058594 48.371094 172.960938 49.269531 174.050781 49.269531 C 175.140625 49.269531 176.039062 48.371094 176.039062 47.28125 C 176.039062 46.191406 175.140625 45.289062 174.050781 45.289062 C 172.960938 45.289062 172.058594 46.191406 172.058594 47.28125 " transform="matrix(1, 0, 0, -1, 0, 180)"/>
<path fill-rule="nonzero" fill="rgb(0%, 0%, 0%)" fill-opacity="1" stroke-width="0.77" stroke-linecap="round" stroke-linejoin="round" stroke="rgb(0%, 0%, 0%)" stroke-opacity="1" stroke-miterlimit="10" d="M 172.058594 53.921875 C 172.058594 55.011719 172.960938 55.898438 174.050781 55.898438 C 175.140625 55.898438 176.039062 55.011719 176.039062 53.921875 C 176.039062 52.820312 175.140625 51.929688 174.050781 51.929688 C 172.960938 51.929688 172.058594 52.820312 172.058594 53.921875 " transform="matrix(1, 0, 0, -1, 0, 180)"/>
<path fill-rule="nonzero" fill="rgb(0%, 0%, 0%)" fill-opacity="1" stroke-width="0.77" stroke-linecap="round" stroke-linejoin="round" stroke="rgb(0%, 0%, 0%)" stroke-opacity="1" stroke-miterlimit="10" d="M 172.058594 60.550781 C 172.058594 61.640625 172.960938 62.539062 174.050781 62.539062 C 175.140625 62.539062 176.039062 61.640625 176.039062 60.550781 C 176.039062 59.460938 175.140625 58.558594 174.050781 58.558594 C 172.960938 58.558594 172.058594 59.460938 172.058594 60.550781 " transform="matrix(1, 0, 0, -1, 0, 180)"/>
<path fill-rule="nonzero" fill="rgb(0%, 0%, 0%)" fill-opacity="1" stroke-width="0.77" stroke-linecap="round" stroke-linejoin="round" stroke="rgb(0%, 0%, 0%)" stroke-opacity="1" stroke-miterlimit="10" d="M 172.058594 67.191406 C 172.058594 68.28125 172.960938 69.171875 174.050781 69.171875 C 175.140625 69.171875 176.039062 68.28125 176.039062 67.191406 C 176.039062 66.089844 175.140625 65.199219 174.050781 65.199219 C 172.960938 65.199219 172.058594 66.089844 172.058594 67.191406 " transform="matrix(1, 0, 0, -1, 0, 180)"/>
<path fill-rule="nonzero" fill="rgb(0%, 0%, 0%)" fill-opacity="1" stroke-width="0.77" stroke-linecap="round" stroke-linejoin="round" stroke="rgb(0%, 0%, 0%)" stroke-opacity="1" stroke-miterlimit="10" d="M 172.058594 73.820312 C 172.058594 74.921875 172.960938 75.808594 174.050781 75.808594 C 175.140625 75.808594 176.039062 74.921875 176.039062 73.820312 C 176.039062 72.730469 175.140625 71.839844 174.050781 71.839844 C 172.960938 71.839844 172.058594 72.730469 172.058594 73.820312 " transform="matrix(1, 0, 0, -1, 0, 180)"/>
<path fill-rule="nonzero" fill="rgb(0%, 0%, 0%)" fill-opacity="1" stroke-width="0.77" stroke-linecap="round" stroke-linejoin="round" stroke="rgb(0%, 0%, 0%)" stroke-opacity="1" stroke-miterlimit="10" d="M 172.058594 80.460938 C 172.058594 81.550781 172.960938 82.449219 174.050781 82.449219 C 175.140625 82.449219 176.039062 81.550781 176.039062 80.460938 C 176.039062 79.371094 175.140625 78.46875 174.050781 78.46875 C 172.960938 78.46875 172.058594 79.371094 172.058594 80.460938 " transform="matrix(1, 0, 0, -1, 0, 180)"/>
<path fill-rule="nonzero" fill="rgb(0%, 0%, 0%)" fill-opacity="1" stroke-width="0.77" stroke-linecap="round" stroke-linejoin="round" stroke="rgb(0%, 0%, 0%)" stroke-opacity="1" stroke-miterlimit="10" d="M 172.058594 87.089844 C 172.058594 88.191406 172.960938 89.078125 174.050781 89.078125 C 175.140625 89.078125 176.039062 88.191406 176.039062 87.089844 C 176.039062 86 175.140625 85.109375 174.050781 85.109375 C 172.960938 85.109375 172.058594 86 172.058594 87.089844 " transform="matrix(1, 0, 0, -1, 0, 180)"/>
<path fill-rule="nonzero" fill="rgb(0%, 0%, 0%)" fill-opacity="1" stroke-width="0.77" stroke-linecap="round" stroke-linejoin="round" stroke="rgb(0%, 0%, 0%)" stroke-opacity="1" stroke-miterlimit="10" d="M 172.058594 93.730469 C 172.058594 94.820312 172.960938 95.71875 174.050781 95.71875 C 175.140625 95.71875 176.039062 94.820312 176.039062 93.730469 C 176.039062 92.640625 175.140625 91.738281 174.050781 91.738281 C 172.960938 91.738281 172.058594 92.640625 172.058594 93.730469 " transform="matrix(1, 0, 0, -1, 0, 180)"/>
<path fill-rule="nonzero" fill="rgb(0%, 0%, 0%)" fill-opacity="1" stroke-width="0.77" stroke-linecap="round" stroke-linejoin="round" stroke="rgb(0%, 0%, 0%)" stroke-opacity="1" stroke-miterlimit="10" d="M 172.058594 100.371094 C 172.058594 101.460938 172.960938 102.351562 174.050781 102.351562 C 175.140625 102.351562 176.039062 101.460938 176.039062 100.371094 C 176.039062 99.269531 175.140625 98.378906 174.050781 98.378906 C 172.960938 98.378906 172.058594 99.269531 172.058594 100.371094 " transform="matrix(1, 0, 0, -1, 0, 180)"/>
<path fill-rule="nonzero" fill="rgb(0%, 0%, 0%)" fill-opacity="1" stroke-width="0.77" stroke-linecap="round" stroke-linejoin="round" stroke="rgb(0%, 0%, 0%)" stroke-opacity="1" stroke-miterlimit="10" d="M 172.058594 107 C 172.058594 108.089844 172.960938 108.988281 174.050781 108.988281 C 175.140625 108.988281 176.039062 108.089844 176.039062 107 C 176.039062 105.910156 175.140625 105.011719 174.050781 105.011719 C 172.960938 105.011719 172.058594 105.910156 172.058594 107 " transform="matrix(1, 0, 0, -1, 0, 180)"/>
<path fill-rule="nonzero" fill="rgb(0%, 0%, 0%)" fill-opacity="1" stroke-width="0.77" stroke-linecap="round" stroke-linejoin="round" stroke="rgb(0%, 0%, 0%)" stroke-opacity="1" stroke-miterlimit="10" d="M 172.058594 113.640625 C 172.058594 114.730469 172.960938 115.621094 174.050781 115.621094 C 175.140625 115.621094 176.039062 114.730469 176.039062 113.640625 C 176.039062 112.539062 175.140625 111.648438 174.050781 111.648438 C 172.960938 111.648438 172.058594 112.539062 172.058594 113.640625 " transform="matrix(1, 0, 0, -1, 0, 180)"/>
<path fill-rule="nonzero" fill="rgb(0%, 0%, 0%)" fill-opacity="1" stroke-width="0.77" stroke-linecap="round" stroke-linejoin="round" stroke="rgb(0%, 0%, 0%)" stroke-opacity="1" stroke-miterlimit="10" d="M 172.058594 120.269531 C 172.058594 121.371094 172.960938 122.261719 174.050781 122.261719 C 175.140625 122.261719 176.039062 121.371094 176.039062 120.269531 C 176.039062 119.179688 175.140625 118.289062 174.050781 118.289062 C 172.960938 118.289062 172.058594 119.179688 172.058594 120.269531 " transform="matrix(1, 0, 0, -1, 0, 180)"/>
<path fill-rule="nonzero" fill="rgb(0%, 0%, 0%)" fill-opacity="1" stroke-width="0.77" stroke-linecap="round" stroke-linejoin="round" stroke="rgb(0%, 0%, 0%)" stroke-opacity="1" stroke-miterlimit="10" d="M 172.058594 126.910156 C 172.058594 128 172.960938 128.898438 174.050781 128.898438 C 175.140625 128.898438 176.039062 128 176.039062 126.910156 C 176.039062 125.820312 175.140625 124.921875 174.050781 124.921875 C 172.960938 124.921875 172.058594 125.820312 172.058594 126.910156 " transform="matrix(1, 0, 0, -1, 0, 180)"/>
<path fill-rule="nonzero" fill="rgb(0%, 0%, 0%)" fill-opacity="1" stroke-width="0.77" stroke-linecap="round" stroke-linejoin="round" stroke="rgb(0%, 0%, 0%)" stroke-opacity="1" stroke-miterlimit="10" d="M 172.058594 133.539062 C 172.058594 134.640625 172.960938 135.53125 174.050781 135.53125 C 175.140625 135.53125 176.039062 134.640625 176.039062 133.539062 C 176.039062 132.449219 175.140625 131.558594 174.050781 131.558594 C 172.960938 131.558594 172.058594 132.449219 172.058594 133.539062 " transform="matrix(1, 0, 0, -1, 0, 180)"/>
<path fill-rule="nonzero" fill="rgb(0%, 0%, 0%)" fill-opacity="1" stroke-width="0.77" stroke-linecap="round" stroke-linejoin="round" stroke="rgb(0%, 0%, 0%)" stroke-opacity="1" stroke-miterlimit="10" d="M 172.058594 140.179688 C 172.058594 141.269531 172.960938 142.171875 174.050781 142.171875 C 175.140625 142.171875 176.039062 141.269531 176.039062 140.179688 C 176.039062 139.089844 175.140625 138.191406 174.050781 138.191406 C 172.960938 138.191406 172.058594 139.089844 172.058594 140.179688 " transform="matrix(1, 0, 0, -1, 0, 180)"/>
<path fill-rule="nonzero" fill="rgb(0%, 0%, 0%)" fill-opacity="1" stroke-width="0.77" stroke-linecap="round" stroke-linejoin="round" stroke="rgb(0%, 0%, 0%)" stroke-opacity="1" stroke-miterlimit="10" d="M 172.058594 146.820312 C 172.058594 147.910156 172.960938 148.800781 174.050781 148.800781 C 175.140625 148.800781 176.039062 147.910156 176.039062 146.820312 C 176.039062 145.71875 175.140625 144.828125 174.050781 144.828125 C 172.960938 144.828125 172.058594 145.71875 172.058594 146.820312 " transform="matrix(1, 0, 0, -1, 0, 180)"/>
<path fill-rule="nonzero" fill="rgb(0%, 0%, 0%)" fill-opacity="1" stroke-width="0.77" stroke-linecap="round" stroke-linejoin="round" stroke="rgb(0%, 0%, 0%)" stroke-opacity="1" stroke-miterlimit="10" d="M 172.058594 153.449219 C 172.058594 154.539062 172.960938 155.441406 174.050781 155.441406 C 175.140625 155.441406 176.039062 154.539062 176.039062 153.449219 C 176.039062 152.359375 175.140625 151.460938 174.050781 151.460938 C 172.960938 151.460938 172.058594 152.359375 172.058594 153.449219 " transform="matrix(1, 0, 0, -1, 0, 180)"/>
<path fill-rule="nonzero" fill="rgb(0%, 0%, 0%)" fill-opacity="1" stroke-width="0.77" stroke-linecap="round" stroke-linejoin="round" stroke="rgb(0%, 0%, 0%)" stroke-opacity="1" stroke-miterlimit="10" d="M 172.058594 160.089844 C 172.058594 161.179688 172.960938 162.070312 174.050781 162.070312 C 175.140625 162.070312 176.039062 161.179688 176.039062 160.089844 C 176.039062 158.988281 175.140625 158.101562 174.050781 158.101562 C 172.960938 158.101562 172.058594 158.988281 172.058594 160.089844 " transform="matrix(1, 0, 0, -1, 0, 180)"/>
<path fill-rule="nonzero" fill="rgb(0%, 0%, 0%)" fill-opacity="1" stroke-width="0.77" stroke-linecap="round" stroke-linejoin="round" stroke="rgb(0%, 0%, 0%)" stroke-opacity="1" stroke-miterlimit="10" d="M 172.058594 166.71875 C 172.058594 167.820312 172.960938 168.710938 174.050781 168.710938 C 175.140625 168.710938 176.039062 167.820312 176.039062 166.71875 C 176.039062 165.628906 175.140625 164.738281 174.050781 164.738281 C 172.960938 164.738281 172.058594 165.628906 172.058594 166.71875 " transform="matrix(1, 0, 0, -1, 0, 180)"/>
<path fill-rule="nonzero" fill="rgb(0%, 0%, 0%)" fill-opacity="1" stroke-width="0.77" stroke-linecap="round" stroke-linejoin="round" stroke="rgb(0%, 0%, 0%)" stroke-opacity="1" stroke-miterlimit="10" d="M 229.039062 27.371094 C 229.039062 28.46875 229.929688 29.359375 231.03125 29.359375 C 232.121094 29.359375 233.011719 28.46875 233.011719 27.371094 C 233.011719 26.28125 232.121094 25.390625 231.03125 25.390625 C 229.929688 25.390625 229.039062 26.28125 229.039062 27.371094 " transform="matrix(1, 0, 0, -1, 0, 180)"/>
<path fill-rule="nonzero" fill="rgb(0%, 0%, 0%)" fill-opacity="1" stroke-width="0.77" stroke-linecap="round" stroke-linejoin="round" stroke="rgb(0%, 0%, 0%)" stroke-opacity="1" stroke-miterlimit="10" d="M 229.039062 34.011719 C 229.039062 35.101562 229.929688 36 231.03125 36 C 232.121094 36 233.011719 35.101562 233.011719 34.011719 C 233.011719 32.921875 232.121094 32.019531 231.03125 32.019531 C 229.929688 32.019531 229.039062 32.921875 229.039062 34.011719 " transform="matrix(1, 0, 0, -1, 0, 180)"/>
<path fill-rule="nonzero" fill="rgb(0%, 0%, 0%)" fill-opacity="1" stroke-width="0.77" stroke-linecap="round" stroke-linejoin="round" stroke="rgb(0%, 0%, 0%)" stroke-opacity="1" stroke-miterlimit="10" d="M 229.039062 40.640625 C 229.039062 41.738281 229.929688 42.628906 231.03125 42.628906 C 232.121094 42.628906 233.011719 41.738281 233.011719 40.640625 C 233.011719 39.550781 232.121094 38.660156 231.03125 38.660156 C 229.929688 38.660156 229.039062 39.550781 229.039062 40.640625 " transform="matrix(1, 0, 0, -1, 0, 180)"/>
<path fill-rule="nonzero" fill="rgb(0%, 0%, 0%)" fill-opacity="1" stroke-width="0.77" stroke-linecap="round" stroke-linejoin="round" stroke="rgb(0%, 0%, 0%)" stroke-opacity="1" stroke-miterlimit="10" d="M 229.039062 47.28125 C 229.039062 48.371094 229.929688 49.269531 231.03125 49.269531 C 232.121094 49.269531 233.011719 48.371094 233.011719 47.28125 C 233.011719 46.191406 232.121094 45.289062 231.03125 45.289062 C 229.929688 45.289062 229.039062 46.191406 229.039062 47.28125 " transform="matrix(1, 0, 0, -1, 0, 180)"/>
<path fill-rule="nonzero" fill="rgb(0%, 0%, 0%)" fill-opacity="1" stroke-width="0.77" stroke-linecap="round" stroke-linejoin="round" stroke="rgb(0%, 0%, 0%)" stroke-opacity="1" stroke-miterlimit="10" d="M 229.039062 53.921875 C 229.039062 55.011719 229.929688 55.898438 231.03125 55.898438 C 232.121094 55.898438 233.011719 55.011719 233.011719 53.921875 C 233.011719 52.820312 232.121094 51.929688 231.03125 51.929688 C 229.929688 51.929688 229.039062 52.820312 229.039062 53.921875 " transform="matrix(1, 0, 0, -1, 0, 180)"/>
<path fill-rule="nonzero" fill="rgb(0%, 0%, 0%)" fill-opacity="1" stroke-width="0.77" stroke-linecap="round" stroke-linejoin="round" stroke="rgb(0%, 0%, 0%)" stroke-opacity="1" stroke-miterlimit="10" d="M 229.039062 60.550781 C 229.039062 61.640625 229.929688 62.539062 231.03125 62.539062 C 232.121094 62.539062 233.011719 61.640625 233.011719 60.550781 C 233.011719 59.460938 232.121094 58.558594 231.03125 58.558594 C 229.929688 58.558594 229.039062 59.460938 229.039062 60.550781 " transform="matrix(1, 0, 0, -1, 0, 180)"/>
<path fill-rule="nonzero" fill="rgb(0%, 0%, 0%)" fill-opacity="1" stroke-width="0.77" stroke-linecap="round" stroke-linejoin="round" stroke="rgb(0%, 0%, 0%)" stroke-opacity="1" stroke-miterlimit="10" d="M 342.988281 27.371094 C 342.988281 28.46875 343.878906 29.359375 344.96875 29.359375 C 346.070312 29.359375 346.960938 28.46875 346.960938 27.371094 C 346.960938 26.28125 346.070312 25.390625 344.96875 25.390625 C 343.878906 25.390625 342.988281 26.28125 342.988281 27.371094 " transform="matrix(1, 0, 0, -1, 0, 180)"/>
<path fill-rule="nonzero" fill="rgb(0%, 0%, 0%)" fill-opacity="1" stroke-width="0.77" stroke-linecap="round" stroke-linejoin="round" stroke="rgb(0%, 0%, 0%)" stroke-opacity="1" stroke-miterlimit="10" d="M 342.988281 34.011719 C 342.988281 35.101562 343.878906 36 344.96875 36 C 346.070312 36 346.960938 35.101562 346.960938 34.011719 C 346.960938 32.921875 346.070312 32.019531 344.96875 32.019531 C 343.878906 32.019531 342.988281 32.921875 342.988281 34.011719 " transform="matrix(1, 0, 0, -1, 0, 180)"/>
<path fill-rule="nonzero" fill="rgb(0%, 0%, 0%)" fill-opacity="1" stroke-width="0.77" stroke-linecap="round" stroke-linejoin="round" stroke="rgb(0%, 0%, 0%)" stroke-opacity="1" stroke-miterlimit="10" d="M 342.988281 40.640625 C 342.988281 41.738281 343.878906 42.628906 344.96875 42.628906 C 346.070312 42.628906 346.960938 41.738281 346.960938 40.640625 C 346.960938 39.550781 346.070312 38.660156 344.96875 38.660156 C 343.878906 38.660156 342.988281 39.550781 342.988281 40.640625 " transform="matrix(1, 0, 0, -1, 0, 180)"/>
<path fill-rule="nonzero" fill="rgb(0%, 0%, 0%)" fill-opacity="1" stroke-width="0.77" stroke-linecap="round" stroke-linejoin="round" stroke="rgb(0%, 0%, 0%)" stroke-opacity="1" stroke-miterlimit="10" d="M 342.988281 47.28125 C 342.988281 48.371094 343.878906 49.269531 344.96875 49.269531 C 346.070312 49.269531 346.960938 48.371094 346.960938 47.28125 C 346.960938 46.191406 346.070312 45.289062 344.96875 45.289062 C 343.878906 45.289062 342.988281 46.191406 342.988281 47.28125 " transform="matrix(1, 0, 0, -1, 0, 180)"/>
<path fill-rule="nonzero" fill="rgb(0%, 0%, 0%)" fill-opacity="1" stroke-width="0.77" stroke-linecap="round" stroke-linejoin="round" stroke="rgb(0%, 0%, 0%)" stroke-opacity="1" stroke-miterlimit="10" d="M 342.988281 53.921875 C 342.988281 55.011719 343.878906 55.898438 344.96875 55.898438 C 346.070312 55.898438 346.960938 55.011719 346.960938 53.921875 C 346.960938 52.820312 346.070312 51.929688 344.96875 51.929688 C 343.878906 51.929688 342.988281 52.820312 342.988281 53.921875 " transform="matrix(1, 0, 0, -1, 0, 180)"/>
<path fill-rule="nonzero" fill="rgb(0%, 0%, 0%)" fill-opacity="1" stroke-width="0.77" stroke-linecap="round" stroke-linejoin="round" stroke="rgb(0%, 0%, 0%)" stroke-opacity="1" stroke-miterlimit="10" d="M 342.988281 60.550781 C 342.988281 61.640625 343.878906 62.539062 344.96875 62.539062 C 346.070312 62.539062 346.960938 61.640625 346.960938 60.550781 C 346.960938 59.460938 346.070312 58.558594 344.96875 58.558594 C 343.878906 58.558594 342.988281 59.460938 342.988281 60.550781 " transform="matrix(1, 0, 0, -1, 0, 180)"/>
<path fill-rule="nonzero" fill="rgb(0%, 0%, 0%)" fill-opacity="1" stroke-width="0.77" stroke-linecap="round" stroke-linejoin="round" stroke="rgb(0%, 0%, 0%)" stroke-opacity="1" stroke-miterlimit="10" d="M 342.988281 67.191406 C 342.988281 68.28125 343.878906 69.171875 344.96875 69.171875 C 346.070312 69.171875 346.960938 68.28125 346.960938 67.191406 C 346.960938 66.089844 346.070312 65.199219 344.96875 65.199219 C 343.878906 65.199219 342.988281 66.089844 342.988281 67.191406 " transform="matrix(1, 0, 0, -1, 0, 180)"/>
<path fill-rule="nonzero" fill="rgb(0%, 0%, 0%)" fill-opacity="1" stroke-width="0.77" stroke-linecap="round" stroke-linejoin="round" stroke="rgb(0%, 0%, 0%)" stroke-opacity="1" stroke-miterlimit="10" d="M 342.988281 73.820312 C 342.988281 74.921875 343.878906 75.808594 344.96875 75.808594 C 346.070312 75.808594 346.960938 74.921875 346.960938 73.820312 C 346.960938 72.730469 346.070312 71.839844 344.96875 71.839844 C 343.878906 71.839844 342.988281 72.730469 342.988281 73.820312 " transform="matrix(1, 0, 0, -1, 0, 180)"/>
<path fill-rule="nonzero" fill="rgb(0%, 0%, 0%)" fill-opacity="1" stroke-width="0.77" stroke-linecap="round" stroke-linejoin="round" stroke="rgb(0%, 0%, 0%)" stroke-opacity="1" stroke-miterlimit="10" d="M 342.988281 80.460938 C 342.988281 81.550781 343.878906 82.449219 344.96875 82.449219 C 346.070312 82.449219 346.960938 81.550781 346.960938 80.460938 C 346.960938 79.371094 346.070312 78.46875 344.96875 78.46875 C 343.878906 78.46875 342.988281 79.371094 342.988281 80.460938 " transform="matrix(1, 0, 0, -1, 0, 180)"/>
<path fill-rule="nonzero" fill="rgb(0%, 0%, 0%)" fill-opacity="1" stroke-width="0.77" stroke-linecap="round" stroke-linejoin="round" stroke="rgb(0%, 0%, 0%)" stroke-opacity="1" stroke-miterlimit="10" d="M 342.988281 87.089844 C 342.988281 88.191406 343.878906 89.078125 344.96875 89.078125 C 346.070312 89.078125 346.960938 88.191406 346.960938 87.089844 C 346.960938 86 346.070312 85.109375 344.96875 85.109375 C 343.878906 85.109375 342.988281 86 342.988281 87.089844 " transform="matrix(1, 0, 0, -1, 0, 180)"/>
<path fill-rule="nonzero" fill="rgb(0%, 0%, 0%)" fill-opacity="1" stroke-width="0.77" stroke-linecap="round" stroke-linejoin="round" stroke="rgb(0%, 0%, 0%)" stroke-opacity="1" stroke-miterlimit="10" d="M 399.960938 27.371094 C 399.960938 28.46875 400.859375 29.359375 401.949219 29.359375 C 403.039062 29.359375 403.941406 28.46875 403.941406 27.371094 C 403.941406 26.28125 403.039062 25.390625 401.949219 25.390625 C 400.859375 25.390625 399.960938 26.28125 399.960938 27.371094 " transform="matrix(1, 0, 0, -1, 0, 180)"/>
<path fill-rule="nonzero" fill="rgb(0%, 0%, 0%)" fill-opacity="1" stroke-width="0.77" stroke-linecap="round" stroke-linejoin="round" stroke="rgb(0%, 0%, 0%)" stroke-opacity="1" stroke-miterlimit="10" d="M 399.960938 34.011719 C 399.960938 35.101562 400.859375 36 401.949219 36 C 403.039062 36 403.941406 35.101562 403.941406 34.011719 C 403.941406 32.921875 403.039062 32.019531 401.949219 32.019531 C 400.859375 32.019531 399.960938 32.921875 399.960938 34.011719 " transform="matrix(1, 0, 0, -1, 0, 180)"/>
<path fill-rule="nonzero" fill="rgb(0%, 0%, 0%)" fill-opacity="1" stroke-width="0.77" stroke-linecap="round" stroke-linejoin="round" stroke="rgb(0%, 0%, 0%)" stroke-opacity="1" stroke-miterlimit="10" d="M 399.960938 40.640625 C 399.960938 41.738281 400.859375 42.628906 401.949219 42.628906 C 403.039062 42.628906 403.941406 41.738281 403.941406 40.640625 C 403.941406 39.550781 403.039062 38.660156 401.949219 38.660156 C 400.859375 38.660156 399.960938 39.550781 399.960938 40.640625 " transform="matrix(1, 0, 0, -1, 0, 180)"/>
<path fill-rule="nonzero" fill="rgb(0%, 0%, 0%)" fill-opacity="1" stroke-width="0.77" stroke-linecap="round" stroke-linejoin="round" stroke="rgb(0%, 0%, 0%)" stroke-opacity="1" stroke-miterlimit="10" d="M 399.960938 47.28125 C 399.960938 48.371094 400.859375 49.269531 401.949219 49.269531 C 403.039062 49.269531 403.941406 48.371094 403.941406 47.28125 C 403.941406 46.191406 403.039062 45.289062 401.949219 45.289062 C 400.859375 45.289062 399.960938 46.191406 399.960938 47.28125 " transform="matrix(1, 0, 0, -1, 0, 180)"/>
<path fill-rule="nonzero" fill="rgb(0%, 0%, 0%)" fill-opacity="1" stroke-width="0.77" stroke-linecap="round" stroke-linejoin="round" stroke="rgb(0%, 0%, 0%)" stroke-opacity="1" stroke-miterlimit="10" d="M 399.960938 53.921875 C 399.960938 55.011719 400.859375 55.898438 401.949219 55.898438 C 403.039062 55.898438 403.941406 55.011719 403.941406 53.921875 C 403.941406 52.820312 403.039062 51.929688 401.949219 51.929688 C 400.859375 51.929688 399.960938 52.820312 399.960938 53.921875 " transform="matrix(1, 0, 0, -1, 0, 180)"/>
<path fill-rule="nonzero" fill="rgb(0%, 0%, 0%)" fill-opacity="1" stroke-width="0.77" stroke-linecap="round" stroke-linejoin="round" stroke="rgb(0%, 0%, 0%)" stroke-opacity="1" stroke-miterlimit="10" d="M 399.960938 60.550781 C 399.960938 61.640625 400.859375 62.539062 401.949219 62.539062 C 403.039062 62.539062 403.941406 61.640625 403.941406 60.550781 C 403.941406 59.460938 403.039062 58.558594 401.949219 58.558594 C 400.859375 58.558594 399.960938 59.460938 399.960938 60.550781 " transform="matrix(1, 0, 0, -1, 0, 180)"/>
<path fill-rule="nonzero" fill="rgb(0%, 0%, 0%)" fill-opacity="1" stroke-width="0.77" stroke-linecap="round" stroke-linejoin="round" stroke="rgb(0%, 0%, 0%)" stroke-opacity="1" stroke-miterlimit="10" d="M 399.960938 67.191406 C 399.960938 68.28125 400.859375 69.171875 401.949219 69.171875 C 403.039062 69.171875 403.941406 68.28125 403.941406 67.191406 C 403.941406 66.089844 403.039062 65.199219 401.949219 65.199219 C 400.859375 65.199219 399.960938 66.089844 399.960938 67.191406 " transform="matrix(1, 0, 0, -1, 0, 180)"/>
<path fill-rule="nonzero" fill="rgb(0%, 0%, 0%)" fill-opacity="1" stroke-width="0.77" stroke-linecap="round" stroke-linejoin="round" stroke="rgb(0%, 0%, 0%)" stroke-opacity="1" stroke-miterlimit="10" d="M 399.960938 73.820312 C 399.960938 74.921875 400.859375 75.808594 401.949219 75.808594 C 403.039062 75.808594 403.941406 74.921875 403.941406 73.820312 C 403.941406 72.730469 403.039062 71.839844 401.949219 71.839844 C 400.859375 71.839844 399.960938 72.730469 399.960938 73.820312 " transform="matrix(1, 0, 0, -1, 0, 180)"/>
<path fill-rule="nonzero" fill="rgb(0%, 0%, 0%)" fill-opacity="1" stroke-width="0.77" stroke-linecap="round" stroke-linejoin="round" stroke="rgb(0%, 0%, 0%)" stroke-opacity="1" stroke-miterlimit="10" d="M 399.960938 80.460938 C 399.960938 81.550781 400.859375 82.449219 401.949219 82.449219 C 403.039062 82.449219 403.941406 81.550781 403.941406 80.460938 C 403.941406 79.371094 403.039062 78.46875 401.949219 78.46875 C 400.859375 78.46875 399.960938 79.371094 399.960938 80.460938 " transform="matrix(1, 0, 0, -1, 0, 180)"/>
<path fill-rule="nonzero" fill="rgb(0%, 0%, 0%)" fill-opacity="1" stroke-width="0.77" stroke-linecap="round" stroke-linejoin="round" stroke="rgb(0%, 0%, 0%)" stroke-opacity="1" stroke-miterlimit="10" d="M 399.960938 87.089844 C 399.960938 88.191406 400.859375 89.078125 401.949219 89.078125 C 403.039062 89.078125 403.941406 88.191406 403.941406 87.089844 C 403.941406 86 403.039062 85.109375 401.949219 85.109375 C 400.859375 85.109375 399.960938 86 399.960938 87.089844 " transform="matrix(1, 0, 0, -1, 0, 180)"/>
<path fill-rule="nonzero" fill="rgb(0%, 0%, 0%)" fill-opacity="1" stroke-width="0.77" stroke-linecap="round" stroke-linejoin="round" stroke="rgb(0%, 0%, 0%)" stroke-opacity="1" stroke-miterlimit="10" d="M 399.960938 93.730469 C 399.960938 94.820312 400.859375 95.71875 401.949219 95.71875 C 403.039062 95.71875 403.941406 94.820312 403.941406 93.730469 C 403.941406 92.640625 403.039062 91.738281 401.949219 91.738281 C 400.859375 91.738281 399.960938 92.640625 399.960938 93.730469 " transform="matrix(1, 0, 0, -1, 0, 180)"/>
<path fill-rule="nonzero" fill="rgb(0%, 0%, 0%)" fill-opacity="1" stroke-width="0.77" stroke-linecap="round" stroke-linejoin="round" stroke="rgb(0%, 0%, 0%)" stroke-opacity="1" stroke-miterlimit="10" d="M 399.960938 100.371094 C 399.960938 101.460938 400.859375 102.351562 401.949219 102.351562 C 403.039062 102.351562 403.941406 101.460938 403.941406 100.371094 C 403.941406 99.269531 403.039062 98.378906 401.949219 98.378906 C 400.859375 98.378906 399.960938 99.269531 399.960938 100.371094 " transform="matrix(1, 0, 0, -1, 0, 180)"/>
<path fill-rule="nonzero" fill="rgb(0%, 0%, 0%)" fill-opacity="1" stroke-width="0.77" stroke-linecap="round" stroke-linejoin="round" stroke="rgb(0%, 0%, 0%)" stroke-opacity="1" stroke-miterlimit="10" d="M 399.960938 107 C 399.960938 108.089844 400.859375 108.988281 401.949219 108.988281 C 403.039062 108.988281 403.941406 108.089844 403.941406 107 C 403.941406 105.910156 403.039062 105.011719 401.949219 105.011719 C 400.859375 105.011719 399.960938 105.910156 399.960938 107 " transform="matrix(1, 0, 0, -1, 0, 180)"/>
<path fill-rule="nonzero" fill="rgb(0%, 0%, 0%)" fill-opacity="1" stroke-width="0.77" stroke-linecap="round" stroke-linejoin="round" stroke="rgb(0%, 0%, 0%)" stroke-opacity="1" stroke-miterlimit="10" d="M 399.960938 113.640625 C 399.960938 114.730469 400.859375 115.621094 401.949219 115.621094 C 403.039062 115.621094 403.941406 114.730469 403.941406 113.640625 C 403.941406 112.539062 403.039062 111.648438 401.949219 111.648438 C 400.859375 111.648438 399.960938 112.539062 399.960938 113.640625 " transform="matrix(1, 0, 0, -1, 0, 180)"/>
<path fill-rule="nonzero" fill="rgb(0%, 0%, 0%)" fill-opacity="1" stroke-width="0.77" stroke-linecap="round" stroke-linejoin="round" stroke="rgb(0%, 0%, 0%)" stroke-opacity="1" stroke-miterlimit="10" d="M 399.960938 120.269531 C 399.960938 121.371094 400.859375 122.261719 401.949219 122.261719 C 403.039062 122.261719 403.941406 121.371094 403.941406 120.269531 C 403.941406 119.179688 403.039062 118.289062 401.949219 118.289062 C 400.859375 118.289062 399.960938 119.179688 399.960938 120.269531 " transform="matrix(1, 0, 0, -1, 0, 180)"/>
<path fill-rule="nonzero" fill="rgb(0%, 0%, 0%)" fill-opacity="1" stroke-width="0.77" stroke-linecap="round" stroke-linejoin="round" stroke="rgb(0%, 0%, 0%)" stroke-opacity="1" stroke-miterlimit="10" d="M 399.960938 126.910156 C 399.960938 128 400.859375 128.898438 401.949219 128.898438 C 403.039062 128.898438 403.941406 128 403.941406 126.910156 C 403.941406 125.820312 403.039062 124.921875 401.949219 124.921875 C 400.859375 124.921875 399.960938 125.820312 399.960938 126.910156 " transform="matrix(1, 0, 0, -1, 0, 180)"/>
<path fill-rule="nonzero" fill="rgb(0%, 0%, 0%)" fill-opacity="1" stroke-width="0.77" stroke-linecap="round" stroke-linejoin="round" stroke="rgb(0%, 0%, 0%)" stroke-opacity="1" stroke-miterlimit="10" d="M 399.960938 133.539062 C 399.960938 134.640625 400.859375 135.53125 401.949219 135.53125 C 403.039062 135.53125 403.941406 134.640625 403.941406 133.539062 C 403.941406 132.449219 403.039062 131.558594 401.949219 131.558594 C 400.859375 131.558594 399.960938 132.449219 399.960938 133.539062 " transform="matrix(1, 0, 0, -1, 0, 180)"/>
<path fill-rule="nonzero" fill="rgb(0%, 0%, 0%)" fill-opacity="1" stroke-width="0.77" stroke-linecap="round" stroke-linejoin="round" stroke="rgb(0%, 0%, 0%)" stroke-opacity="1" stroke-miterlimit="10" d="M 399.960938 140.179688 C 399.960938 141.269531 400.859375 142.171875 401.949219 142.171875 C 403.039062 142.171875 403.941406 141.269531 403.941406 140.179688 C 403.941406 139.089844 403.039062 138.191406 401.949219 138.191406 C 400.859375 138.191406 399.960938 139.089844 399.960938 140.179688 " transform="matrix(1, 0, 0, -1, 0, 180)"/>
<path fill-rule="nonzero" fill="rgb(0%, 0%, 0%)" fill-opacity="1" stroke-width="0.77" stroke-linecap="round" stroke-linejoin="round" stroke="rgb(0%, 0%, 0%)" stroke-opacity="1" stroke-miterlimit="10" d="M 399.960938 146.820312 C 399.960938 147.910156 400.859375 148.800781 401.949219 148.800781 C 403.039062 148.800781 403.941406 147.910156 403.941406 146.820312 C 403.941406 145.71875 403.039062 144.828125 401.949219 144.828125 C 400.859375 144.828125 399.960938 145.71875 399.960938 146.820312 " transform="matrix(1, 0, 0, -1, 0, 180)"/>
<path fill-rule="nonzero" fill="rgb(0%, 0%, 0%)" fill-opacity="1" stroke-width="0.77" stroke-linecap="round" stroke-linejoin="round" stroke="rgb(0%, 0%, 0%)" stroke-opacity="1" stroke-miterlimit="10" d="M 399.960938 153.449219 C 399.960938 154.539062 400.859375 155.441406 401.949219 155.441406 C 403.039062 155.441406 403.941406 154.539062 403.941406 153.449219 C 403.941406 152.359375 403.039062 151.460938 401.949219 151.460938 C 400.859375 151.460938 399.960938 152.359375 399.960938 153.449219 " transform="matrix(1, 0, 0, -1, 0, 180)"/>
<path fill-rule="nonzero" fill="rgb(0%, 0%, 0%)" fill-opacity="1" stroke-width="0.77" stroke-linecap="round" stroke-linejoin="round" stroke="rgb(0%, 0%, 0%)" stroke-opacity="1" stroke-miterlimit="10" d="M 399.960938 160.089844 C 399.960938 161.179688 400.859375 162.070312 401.949219 162.070312 C 403.039062 162.070312 403.941406 161.179688 403.941406 160.089844 C 403.941406 158.988281 403.039062 158.101562 401.949219 158.101562 C 400.859375 158.101562 399.960938 158.988281 399.960938 160.089844 " transform="matrix(1, 0, 0, -1, 0, 180)"/>
<path fill-rule="nonzero" fill="rgb(0%, 0%, 0%)" fill-opacity="1" stroke-width="0.77" stroke-linecap="round" stroke-linejoin="round" stroke="rgb(0%, 0%, 0%)" stroke-opacity="1" stroke-miterlimit="10" d="M 399.960938 166.71875 C 399.960938 167.820312 400.859375 168.710938 401.949219 168.710938 C 403.039062 168.710938 403.941406 167.820312 403.941406 166.71875 C 403.941406 165.628906 403.039062 164.738281 401.949219 164.738281 C 400.859375 164.738281 399.960938 165.628906 399.960938 166.71875 " transform="matrix(1, 0, 0, -1, 0, 180)"/>
<path fill-rule="nonzero" fill="rgb(0%, 0%, 0%)" fill-opacity="1" stroke-width="0.77" stroke-linecap="round" stroke-linejoin="round" stroke="rgb(0%, 0%, 0%)" stroke-opacity="1" stroke-miterlimit="10" d="M 456.941406 27.371094 C 456.941406 28.46875 457.828125 29.359375 458.921875 29.359375 C 460.019531 29.359375 460.910156 28.46875 460.910156 27.371094 C 460.910156 26.28125 460.019531 25.390625 458.921875 25.390625 C 457.828125 25.390625 456.941406 26.28125 456.941406 27.371094 " transform="matrix(1, 0, 0, -1, 0, 180)"/>
<path fill-rule="nonzero" fill="rgb(0%, 0%, 0%)" fill-opacity="1" stroke-width="0.77" stroke-linecap="round" stroke-linejoin="round" stroke="rgb(0%, 0%, 0%)" stroke-opacity="1" stroke-miterlimit="10" d="M 456.941406 34.011719 C 456.941406 35.101562 457.828125 36 458.921875 36 C 460.019531 36 460.910156 35.101562 460.910156 34.011719 C 460.910156 32.921875 460.019531 32.019531 458.921875 32.019531 C 457.828125 32.019531 456.941406 32.921875 456.941406 34.011719 " transform="matrix(1, 0, 0, -1, 0, 180)"/>
<path fill-rule="nonzero" fill="rgb(0%, 0%, 0%)" fill-opacity="1" stroke-width="0.77" stroke-linecap="round" stroke-linejoin="round" stroke="rgb(0%, 0%, 0%)" stroke-opacity="1" stroke-miterlimit="10" d="M 456.941406 40.640625 C 456.941406 41.738281 457.828125 42.628906 458.921875 42.628906 C 460.019531 42.628906 460.910156 41.738281 460.910156 40.640625 C 460.910156 39.550781 460.019531 38.660156 458.921875 38.660156 C 457.828125 38.660156 456.941406 39.550781 456.941406 40.640625 " transform="matrix(1, 0, 0, -1, 0, 180)"/>
<path fill-rule="nonzero" fill="rgb(0%, 0%, 0%)" fill-opacity="1" stroke-width="0.77" stroke-linecap="round" stroke-linejoin="round" stroke="rgb(0%, 0%, 0%)" stroke-opacity="1" stroke-miterlimit="10" d="M 456.941406 47.28125 C 456.941406 48.371094 457.828125 49.269531 458.921875 49.269531 C 460.019531 49.269531 460.910156 48.371094 460.910156 47.28125 C 460.910156 46.191406 460.019531 45.289062 458.921875 45.289062 C 457.828125 45.289062 456.941406 46.191406 456.941406 47.28125 " transform="matrix(1, 0, 0, -1, 0, 180)"/>
<path fill-rule="nonzero" fill="rgb(0%, 0%, 0%)" fill-opacity="1" stroke-width="0.77" stroke-linecap="round" stroke-linejoin="round" stroke="rgb(0%, 0%, 0%)" stroke-opacity="1" stroke-miterlimit="10" d="M 456.941406 53.921875 C 456.941406 55.011719 457.828125 55.898438 458.921875 55.898438 C 460.019531 55.898438 460.910156 55.011719 460.910156 53.921875 C 460.910156 52.820312 460.019531 51.929688 458.921875 51.929688 C 457.828125 51.929688 456.941406 52.820312 456.941406 53.921875 " transform="matrix(1, 0, 0, -1, 0, 180)"/>
<path fill-rule="nonzero" fill="rgb(0%, 0%, 0%)" fill-opacity="1" stroke-width="0.77" stroke-linecap="round" stroke-linejoin="round" stroke="rgb(0%, 0%, 0%)" stroke-opacity="1" stroke-miterlimit="10" d="M 456.941406 60.550781 C 456.941406 61.640625 457.828125 62.539062 458.921875 62.539062 C 460.019531 62.539062 460.910156 61.640625 460.910156 60.550781 C 460.910156 59.460938 460.019531 58.558594 458.921875 58.558594 C 457.828125 58.558594 456.941406 59.460938 456.941406 60.550781 " transform="matrix(1, 0, 0, -1, 0, 180)"/>
<path fill-rule="nonzero" fill="rgb(0%, 0%, 0%)" fill-opacity="1" stroke-width="0.77" stroke-linecap="round" stroke-linejoin="round" stroke="rgb(0%, 0%, 0%)" stroke-opacity="1" stroke-miterlimit="10" d="M 513.910156 27.371094 C 513.910156 28.46875 514.800781 29.359375 515.898438 29.359375 C 516.988281 29.359375 517.878906 28.46875 517.878906 27.371094 C 517.878906 26.28125 516.988281 25.390625 515.898438 25.390625 C 514.800781 25.390625 513.910156 26.28125 513.910156 27.371094 " transform="matrix(1, 0, 0, -1, 0, 180)"/>
<path fill-rule="nonzero" fill="rgb(0%, 0%, 0%)" fill-opacity="1" stroke-width="0.77" stroke-linecap="round" stroke-linejoin="round" stroke="rgb(0%, 0%, 0%)" stroke-opacity="1" stroke-miterlimit="10" d="M 513.910156 34.011719 C 513.910156 35.101562 514.800781 36 515.898438 36 C 516.988281 36 517.878906 35.101562 517.878906 34.011719 C 517.878906 32.921875 516.988281 32.019531 515.898438 32.019531 C 514.800781 32.019531 513.910156 32.921875 513.910156 34.011719 " transform="matrix(1, 0, 0, -1, 0, 180)"/>
<g clip-path="url(#clip-1)">
<path fill="none" stroke-width="1.49" stroke-linecap="butt" stroke-linejoin="round" stroke="rgb(0%, 0%, 0%)" stroke-opacity="1" stroke-miterlimit="10" d="M 5.980469 20.738281 L 570.019531 20.738281 " transform="matrix(1, 0, 0, -1, 0, 180)"/>
</g>
<path fill="none" stroke-width="1.16" stroke-linecap="square" stroke-linejoin="round" stroke="rgb(0%, 0%, 0%)" stroke-opacity="1" stroke-miterlimit="10" d="M 5.980469 20.738281 L 570.019531 20.738281 " transform="matrix(1, 0, 0, -1, 0, 180)"/>
<path fill="none" stroke-width="1.16" stroke-linecap="butt" stroke-linejoin="round" stroke="rgb(0%, 0%, 0%)" stroke-opacity="1" stroke-miterlimit="10" d="M 60.101562 17.75 L 60.101562 20.738281 " transform="matrix(1, 0, 0, -1, 0, 180)"/>
<path fill="none" stroke-width="1.16" stroke-linecap="butt" stroke-linejoin="round" stroke="rgb(0%, 0%, 0%)" stroke-opacity="1" stroke-miterlimit="10" d="M 117.078125 17.75 L 117.078125 20.738281 " transform="matrix(1, 0, 0, -1, 0, 180)"/>
<path fill="none" stroke-width="1.16" stroke-linecap="butt" stroke-linejoin="round" stroke="rgb(0%, 0%, 0%)" stroke-opacity="1" stroke-miterlimit="10" d="M 174.050781 17.75 L 174.050781 20.738281 " transform="matrix(1, 0, 0, -1, 0, 180)"/>
<path fill="none" stroke-width="1.16" stroke-linecap="butt" stroke-linejoin="round" stroke="rgb(0%, 0%, 0%)" stroke-opacity="1" stroke-miterlimit="10" d="M 231.03125 17.75 L 231.03125 20.738281 " transform="matrix(1, 0, 0, -1, 0, 180)"/>
<path fill="none" stroke-width="1.16" stroke-linecap="butt" stroke-linejoin="round" stroke="rgb(0%, 0%, 0%)" stroke-opacity="1" stroke-miterlimit="10" d="M 288 17.75 L 288 20.738281 " transform="matrix(1, 0, 0, -1, 0, 180)"/>
<path fill="none" stroke-width="1.16" stroke-linecap="butt" stroke-linejoin="round" stroke="rgb(0%, 0%, 0%)" stroke-opacity="1" stroke-miterlimit="10" d="M 344.96875 17.75 L 344.96875 20.738281 " transform="matrix(1, 0, 0, -1, 0, 180)"/>
<path fill="none" stroke-width="1.16" stroke-linecap="butt" stroke-linejoin="round" stroke="rgb(0%, 0%, 0%)" stroke-opacity="1" stroke-miterlimit="10" d="M 401.949219 17.75 L 401.949219 20.738281 " transform="matrix(1, 0, 0, -1, 0, 180)"/>
<path fill="none" stroke-width="1.16" stroke-linecap="butt" stroke-linejoin="round" stroke="rgb(0%, 0%, 0%)" stroke-opacity="1" stroke-miterlimit="10" d="M 458.921875 17.75 L 458.921875 20.738281 " transform="matrix(1, 0, 0, -1, 0, 180)"/>
<path fill="none" stroke-width="1.16" stroke-linecap="butt" stroke-linejoin="round" stroke="rgb(0%, 0%, 0%)" stroke-opacity="1" stroke-miterlimit="10" d="M 515.898438 17.75 L 515.898438 20.738281 " transform="matrix(1, 0, 0, -1, 0, 180)"/>
<g fill="rgb(0%, 0%, 0%)" fill-opacity="1">
<use xlink:href="#glyph-0-0" x="54.4" y="171.82"/>
<use xlink:href="#glyph-0-1" x="60.24" y="171.82"/>
</g>
<g fill="rgb(0%, 0%, 0%)" fill-opacity="1">
<use xlink:href="#glyph-0-0" x="111.38" y="171.82"/>
<use xlink:href="#glyph-0-2" x="117.22" y="171.82"/>
</g>
<g fill="rgb(0%, 0%, 0%)" fill-opacity="1">
<use xlink:href="#glyph-0-0" x="168.35" y="171.82"/>
<use xlink:href="#glyph-0-3" x="174.19" y="171.82"/>
</g>
<g fill="rgb(0%, 0%, 0%)" fill-opacity="1">
<use xlink:href="#glyph-0-0" x="225.33" y="171.82"/>
<use xlink:href="#glyph-0-4" x="231.17" y="171.82"/>
</g>
<g fill="rgb(0%, 0%, 0%)" fill-opacity="1">
<use xlink:href="#glyph-0-5" x="285.22" y="171.82"/>
</g>
<g fill="rgb(0%, 0%, 0%)" fill-opacity="1">
<use xlink:href="#glyph-0-4" x="342.19" y="171.82"/>
</g>
<g fill="rgb(0%, 0%, 0%)" fill-opacity="1">
<use xlink:href="#glyph-0-3" x="399.17" y="171.82"/>
</g>
<g fill="rgb(0%, 0%, 0%)" fill-opacity="1">
<use xlink:href="#glyph-0-2" x="456.14" y="171.82"/>
</g>
<g fill="rgb(0%, 0%, 0%)" fill-opacity="1">
<use xlink:href="#glyph-0-1" x="513.12" y="171.82"/>
</g>
</svg>
