<?xml version="1.0" encoding="UTF-8"?>
<svg xmlns="http://www.w3.org/2000/svg" xmlns:xlink="http://www.w3.org/1999/xlink" width="297.155" height="125.423" viewBox="0 0 297.155 125.423">
<defs>
<g>
<g id="glyph-0-0">
<path d="M 0 -6.640625 L -0.734375 -6.640625 L -0.734375 -4.71875 L -11.015625 -4.71875 L -11.015625 -6.640625 L -11.765625 -6.640625 C -11.71875 -6.015625 -11.71875 -4.296875 -11.71875 -3.578125 C -11.71875 -2.859375 -11.71875 -1.140625 -11.765625 -0.53125 L -11.015625 -0.53125 L -11.015625 -2.453125 L -0.734375 -2.453125 L -0.734375 -0.53125 L 0 -0.53125 C -0.03125 -1.140625 -0.03125 -2.859375 -0.03125 -3.578125 C -0.03125 -4.296875 -0.03125 -6.015625 0 -6.640625 Z M 0 -6.640625 "/>
</g>
<g id="glyph-0-1">
<path d="M 0 -10.28125 L -0.734375 -10.28125 L -0.734375 -9.109375 L -5.25 -9.109375 C -6.875 -9.109375 -7.71875 -8.40625 -7.71875 -6.515625 C -7.71875 -5.28125 -7.109375 -4.21875 -5.828125 -3.640625 L -5.828125 -3.609375 L -7.71875 -3.609375 L -7.578125 -0.71875 L -6.84375 -0.71875 C -6.84375 -1.78125 -6.84375 -1.90625 -6.171875 -1.90625 L -0.734375 -1.90625 L -0.734375 -0.71875 L 0 -0.71875 C -0.03125 -1.109375 -0.03125 -2.34375 -0.03125 -2.828125 C -0.03125 -3.3125 -0.03125 -4.5625 0 -4.953125 L -0.734375 -4.953125 L -0.734375 -3.765625 L -4.390625 -3.765625 C -6.234375 -3.765625 -7.140625 -5.140625 -7.140625 -6.234375 C -7.140625 -6.875 -6.734375 -7.234375 -5.4375 -7.234375 L -0.734375 -7.234375 L -0.734375 -6.046875 L 0 -6.046875 C -0.03125 -6.4375 -0.03125 -7.671875 -0.03125 -8.15625 C -0.03125 -8.640625 -0.03125 -9.890625 0 -10.28125 Z M 0 -10.28125 "/>
</g>
<g id="glyph-0-2">
<path d="M -10.578125 -7.234375 C -11.28125 -7.234375 -12 -6.609375 -12 -5.40625 C -12 -3.84375 -11.34375 -1.9375 -9.359375 -1.9375 L -7.609375 -1.9375 L -7.609375 -0.671875 L -6.875 -0.671875 L -6.875 -1.9375 L -0.734375 -1.9375 L -0.734375 -0.75 L 0 -0.75 C -0.03125 -1.140625 -0.03125 -2.4375 -0.03125 -2.90625 C -0.03125 -3.40625 -0.03125 -4.796875 0 -5.203125 L -0.734375 -5.203125 L -0.734375 -3.71875 L -6.875 -3.71875 L -6.875 -5.671875 L -7.609375 -5.671875 L -7.609375 -3.640625 L -9.375 -3.640625 C -11.15625 -3.640625 -11.4375 -4.765625 -11.4375 -5.328125 C -11.4375 -5.515625 -11.421875 -5.546875 -11.375 -5.65625 C -11.203125 -5.40625 -10.921875 -5.25 -10.5625 -5.25 C -9.875 -5.25 -9.5625 -5.796875 -9.5625 -6.234375 C -9.5625 -6.609375 -9.828125 -7.234375 -10.578125 -7.234375 Z M -10.578125 -7.234375 "/>
</g>
<g id="glyph-0-3">
<path d="M -3.75 -9.078125 C -6.0625 -9.078125 -7.765625 -7.5 -7.765625 -4.8125 C -7.765625 -2.015625 -5.984375 -0.53125 -3.75 -0.53125 C -1.515625 -0.53125 0.109375 -2.109375 0.109375 -4.796875 C 0.109375 -7.59375 -1.59375 -9.078125 -3.75 -9.078125 Z M -3.921875 -7.03125 C -2.5 -7.03125 -0.515625 -7.03125 -0.515625 -4.8125 C -0.515625 -2.59375 -2.515625 -2.59375 -3.921875 -2.59375 C -4.734375 -2.59375 -5.59375 -2.59375 -6.203125 -2.90625 C -6.890625 -3.296875 -7.203125 -4.0625 -7.203125 -4.796875 C -7.203125 -5.78125 -6.734375 -6.390625 -6.25 -6.6875 C -5.640625 -7.03125 -4.75 -7.03125 -3.921875 -7.03125 Z M -3.921875 -7.03125 "/>
</g>
<g id="glyph-0-4">
<path d="M -6.359375 -7.3125 C -7.234375 -7.3125 -7.71875 -6.421875 -7.71875 -5.609375 C -7.71875 -4.25 -6.53125 -3.671875 -5.8125 -3.421875 L -5.8125 -3.40625 L -7.71875 -3.40625 L -7.578125 -0.59375 L -6.84375 -0.59375 C -6.84375 -1.65625 -6.84375 -1.78125 -6.171875 -1.78125 L -0.734375 -1.78125 L -0.734375 -0.59375 L 0 -0.59375 C -0.03125 -1 -0.03125 -2.28125 -0.03125 -2.765625 C -0.03125 -3.25 -0.03125 -4.640625 0 -5.0625 L -0.734375 -5.0625 L -0.734375 -3.5625 L -3.859375 -3.5625 C -4.421875 -3.5625 -7.140625 -3.6875 -7.140625 -5.6875 C -6.953125 -5.453125 -6.671875 -5.328125 -6.359375 -5.328125 C -5.65625 -5.328125 -5.359375 -5.890625 -5.359375 -6.328125 C -5.359375 -6.75 -5.65625 -7.3125 -6.359375 -7.3125 Z M -6.359375 -7.3125 "/>
</g>
<g id="glyph-0-5">
<path d="M 0 -15.65625 L -0.734375 -15.65625 L -0.734375 -14.46875 L -5.25 -14.46875 C -6.828125 -14.46875 -7.71875 -13.796875 -7.71875 -11.875 C -7.71875 -10.140625 -6.546875 -9.34375 -6 -9.0625 C -7.453125 -8.796875 -7.71875 -7.625 -7.71875 -6.53125 C -7.71875 -4.890625 -6.65625 -4 -5.828125 -3.640625 L -5.828125 -3.609375 L -7.71875 -3.609375 L -7.578125 -0.71875 L -6.84375 -0.71875 C -6.84375 -1.78125 -6.84375 -1.90625 -6.171875 -1.90625 L -0.734375 -1.90625 L -0.734375 -0.71875 L 0 -0.71875 C -0.03125 -1.109375 -0.03125 -2.34375 -0.03125 -2.828125 C -0.03125 -3.3125 -0.03125 -4.5625 0 -4.953125 L -0.734375 -4.953125 L -0.734375 -3.765625 L -4.390625 -3.765625 C -6.25 -3.765625 -7.140625 -5.15625 -7.140625 -6.234375 C -7.140625 -6.875 -6.765625 -7.25 -5.4375 -7.25 L -0.734375 -7.25 L -0.734375 -6.0625 L 0 -6.0625 C -0.03125 -6.46875 -0.03125 -7.703125 -0.03125 -8.171875 C -0.03125 -8.65625 -0.03125 -9.90625 0 -10.296875 L -0.734375 -10.296875 L -0.734375 -9.125 L -4.390625 -9.125 C -6.25 -9.125 -7.140625 -10.5 -7.140625 -11.59375 C -7.140625 -12.21875 -6.765625 -12.59375 -5.4375 -12.59375 L -0.734375 -12.59375 L -0.734375 -11.421875 L 0 -11.421875 C -0.03125 -11.8125 -0.03125 -13.046875 -0.03125 -13.53125 C -0.03125 -14 -0.03125 -15.25 0 -15.65625 Z M 0 -15.65625 "/>
</g>
<g id="glyph-0-6">
<path d="M -0.375 -9.265625 C -0.734375 -9.265625 -0.734375 -9.125 -0.734375 -8.875 C -0.75 -7.796875 -1.03125 -7.796875 -1.421875 -7.796875 L -5.125 -7.796875 C -6.703125 -7.796875 -7.765625 -6.546875 -7.765625 -4.125 C -7.765625 -3.171875 -7.671875 -1.140625 -6.234375 -1.140625 C -5.515625 -1.140625 -5.203125 -1.703125 -5.203125 -2.15625 C -5.203125 -2.671875 -5.578125 -3.171875 -6.21875 -3.171875 C -6.546875 -3.171875 -6.859375 -3.046875 -7.046875 -2.765625 C -7.203125 -3.328125 -7.203125 -3.734375 -7.203125 -4.0625 C -7.203125 -5.234375 -6.546875 -5.9375 -5.140625 -5.9375 L -4.453125 -5.9375 C -4.453125 -3.21875 -3.703125 -0.5 -1.796875 -0.5 C -0.234375 -0.5 0.109375 -2.484375 0.109375 -3.671875 C 0.109375 -4.984375 -0.609375 -5.828125 -1.375 -6.171875 C -0.734375 -6.171875 0 -6.171875 0 -7.90625 L 0 -8.78125 C 0 -9.140625 0 -9.265625 -0.375 -9.265625 Z M -2.375 -5.9375 C -0.765625 -5.9375 -0.46875 -4.484375 -0.46875 -3.9375 C -0.46875 -3.109375 -1.03125 -2.40625 -1.8125 -2.40625 C -3.375 -2.40625 -3.90625 -4.25 -4 -5.9375 Z M -2.375 -5.9375 "/>
</g>
<g id="glyph-0-7">
<path d="M 0 -4.90625 L -0.734375 -4.90625 L -0.734375 -3.71875 L -11.890625 -3.71875 L -11.765625 -0.75 L -11.015625 -0.75 C -11.015625 -1.8125 -11.015625 -1.9375 -10.359375 -1.9375 L -0.734375 -1.9375 L -0.734375 -0.75 L 0 -0.75 C -0.03125 -1.140625 -0.03125 -2.359375 -0.03125 -2.828125 C -0.03125 -3.296875 -0.03125 -4.515625 0 -4.90625 Z M 0 -4.90625 "/>
</g>
<g id="glyph-0-8">
<path d="M -7.609375 -11.296875 L -11.671875 -10.796875 L -11.671875 -0.65625 L -10.9375 -0.65625 L -10.9375 -2.46875 L -0.734375 -2.46875 L -0.734375 -0.65625 L 0 -0.65625 C -0.03125 -1.140625 -0.03125 -3.109375 -0.03125 -3.734375 L 0 -7.015625 L -0.734375 -7.015625 L -0.734375 -4.734375 L -5.46875 -4.734375 L -5.46875 -5.671875 C -5.46875 -7.3125 -4.71875 -7.453125 -3.46875 -7.453125 L -3.46875 -8.171875 L -8.203125 -8.171875 L -8.203125 -7.453125 C -6.953125 -7.453125 -6.203125 -7.3125 -6.203125 -5.671875 L -6.203125 -4.734375 L -10.9375 -4.734375 L -10.9375 -7.1875 C -10.9375 -9.90625 -9.6875 -10.328125 -7.609375 -10.578125 Z M -7.609375 -11.296875 "/>
</g>
<g id="glyph-1-0">
<path d="M 4.4375 7.328125 C 4.640625 7.234375 4.59375 7.109375 4.546875 7.015625 C 4.453125 6.828125 4.375 6.859375 4.25 6.90625 C 3.796875 7.046875 3.484375 6.875 3.359375 6.609375 C 3.109375 6.0625 3.703125 5.703125 4.0625 5.46875 C 4.15625 5.40625 4.734375 5.0625 4.78125 5.015625 C 5.359375 4.578125 5.40625 3.984375 5.359375 3.515625 C 6.125 4.4375 6.90625 4.609375 7.5 4.34375 C 8.40625 3.921875 8.71875 2.578125 7.921875 0.890625 L 6.34375 -2.515625 L 5.921875 -2.328125 L 6.359375 -1.375 L 1.03125 1.109375 L 0.59375 0.15625 L 0.171875 0.359375 C 0.34375 0.671875 0.75 1.546875 0.9375 1.921875 C 1.109375 2.296875 1.515625 3.171875 1.640625 3.515625 L 2.0625 3.3125 L 1.609375 2.34375 L 4.109375 1.1875 L 4.59375 2.234375 C 4.65625 2.359375 4.84375 2.765625 4.671875 3.1875 C 4.5 3.609375 4.3125 3.703125 3.65625 4 C 3.0625 4.28125 2.625 4.484375 2.609375 5.25 C 2.59375 5.734375 2.828125 6.3125 3 6.6875 C 3.453125 7.65625 4.296875 7.390625 4.4375 7.328125 Z M 6.84375 2.96875 C 6.359375 3.203125 5.609375 3.546875 4.921875 2.0625 L 4.4375 1.03125 L 6.9375 -0.140625 L 7.4375 0.921875 C 8.109375 2.375 7.40625 2.71875 6.84375 2.96875 Z M 6.84375 2.96875 "/>
</g>
<g id="glyph-1-1">
<path d="M 5.5 5.34375 L 5.296875 4.921875 C 3.953125 5.3125 3.046875 5.4375 2.265625 3.765625 L 1.640625 2.40625 L 4.171875 1.234375 L 4.390625 1.71875 C 4.796875 2.578125 4.46875 2.84375 3.796875 3.15625 L 4 3.578125 L 6.53125 2.40625 L 6.328125 1.984375 C 5.65625 2.296875 5.234375 2.390625 4.828125 1.515625 L 4.609375 1.03125 L 6.90625 -0.046875 L 7.53125 1.3125 C 8.203125 2.75 7.6875 3.3125 6.65625 3.953125 L 6.859375 4.375 L 8.890625 3.078125 L 6.296875 -2.5 L 5.859375 -2.296875 L 6.296875 -1.34375 L 1.03125 1.109375 L 0.59375 0.15625 L 0.171875 0.359375 L 2.84375 6.09375 Z M 5.5 5.34375 "/>
</g>
<g id="glyph-1-2">
<path d="M 3.46875 7.4375 L 3.890625 7.234375 L 3.484375 6.375 L 8.03125 1.453125 C 8.203125 1.234375 8.15625 1.125 8.09375 0.984375 C 7.96875 0.734375 7.890625 0.71875 7.703125 0.734375 L 1.234375 1.015625 C 1.09375 1.046875 1 1.046875 0.671875 0.34375 L 0.59375 0.171875 L 0.171875 0.375 L 0.6875 1.40625 C 0.859375 1.75 1.09375 2.265625 1.21875 2.609375 L 1.640625 2.40625 C 1.640625 2.40625 1.265625 1.609375 1.375 1.5625 L 1.515625 1.546875 L 2.796875 1.484375 L 3.921875 3.890625 L 2.859375 5.03125 L 2.46875 4.1875 L 2.046875 4.390625 C 2.234375 4.71875 2.640625 5.5625 2.8125 5.953125 C 2.984375 6.3125 3.359375 7.109375 3.46875 7.4375 Z M 4.265625 3.515625 L 3.3125 1.484375 L 6.28125 1.328125 Z M 4.265625 3.515625 "/>
</g>
<g id="glyph-1-3">
<path d="M 4.234375 4.296875 C 5.21875 3.84375 5.609375 2.78125 5.40625 1.875 L 5.078125 0.4375 C 4.984375 0.046875 5.0625 -0.609375 5.609375 -0.859375 C 6 -1.046875 6.671875 -1.03125 7.09375 -0.125 C 7.421875 0.578125 7.546875 1.609375 6.40625 2.40625 C 6.234375 2.546875 6.21875 2.546875 6.296875 2.734375 C 6.390625 2.953125 6.421875 2.9375 6.640625 2.828125 L 8.28125 2.0625 C 8.453125 1.984375 8.53125 1.953125 8.46875 1.796875 C 8.4375 1.71875 8.421875 1.703125 8.28125 1.65625 L 7.703125 1.4375 C 7.875 0.71875 7.671875 0.09375 7.46875 -0.328125 C 6.828125 -1.703125 5.671875 -1.9375 4.71875 -1.5 C 4.140625 -1.234375 3.859375 -0.734375 3.765625 -0.46875 C 3.515625 0.1875 3.609375 0.53125 3.84375 1.609375 C 4.046875 2.46875 4.09375 2.640625 3.984375 2.921875 C 3.921875 3.125 3.78125 3.46875 3.375 3.65625 C 2.953125 3.859375 2.21875 3.890625 1.78125 2.953125 C 1.46875 2.28125 1.015625 0.84375 2.3125 0.125 C 2.484375 0.046875 2.515625 0.03125 2.421875 -0.15625 C 2.3125 -0.375 2.265625 -0.359375 2.046875 -0.25 L 0.421875 0.5 C 0.25 0.578125 0.171875 0.625 0.25 0.78125 C 0.296875 0.875 0.3125 0.875 0.40625 0.90625 L 1 1.125 C 0.84375 1.921875 1.1875 2.796875 1.359375 3.15625 C 2.046875 4.65625 3.328125 4.734375 4.234375 4.296875 Z M 4.234375 4.296875 "/>
</g>
<g id="glyph-1-4">
<path d="M 6.390625 5.75 C 8.328125 4.84375 9 2.953125 8.078125 0.953125 C 7.125 -1.09375 5.203125 -1.71875 3.3125 -0.84375 C 1.453125 0.03125 0.765625 1.890625 1.71875 3.921875 C 2.671875 6 4.546875 6.609375 6.390625 5.75 Z M 5.890625 4.328125 C 5.25 4.625 4.4375 4.96875 3.65625 4.859375 C 2.8125 4.765625 2.3125 4.234375 2.09375 3.75 C 1.84375 3.21875 1.78125 2.4375 2.296875 1.765625 C 2.703125 1.203125 3.3125 0.828125 4.09375 0.46875 C 4.65625 0.203125 5.4375 -0.125 6.25 -0.015625 C 6.953125 0.109375 7.46875 0.59375 7.71875 1.125 C 7.984375 1.703125 8.015625 2.421875 7.59375 3.078125 C 7.171875 3.6875 6.5 4.046875 5.890625 4.328125 Z M 5.890625 4.328125 "/>
</g>
<g id="glyph-1-5">
<path d="M 9.359375 5.046875 L 9.78125 4.859375 C 9.59375 4.53125 9.34375 4.015625 9.1875 3.671875 C 9 3.28125 8.78125 2.8125 8.640625 2.4375 L 8.21875 2.625 L 8.328125 2.84375 C 8.40625 3.015625 8.46875 3.171875 8.53125 3.34375 C 8.609375 3.609375 8.609375 3.640625 8.421875 3.71875 L 4.78125 5.421875 L 7.3125 -0.109375 C 7.375 -0.265625 7.390625 -0.265625 7.296875 -0.46875 L 6.34375 -2.515625 L 5.921875 -2.328125 L 6.359375 -1.375 L 1.296875 1 C 1.09375 1.09375 1.09375 1.09375 0.953125 0.84375 C 0.8125 0.640625 0.8125 0.625 0.6875 0.375 L 0.59375 0.15625 L 0.171875 0.359375 C 0.359375 0.671875 0.59375 1.1875 0.75 1.546875 C 0.9375 1.921875 1.15625 2.390625 1.296875 2.78125 L 1.71875 2.578125 L 1.609375 2.34375 C 1.53125 2.171875 1.453125 2.015625 1.421875 1.84375 C 1.328125 1.59375 1.328125 1.578125 1.53125 1.484375 L 6.21875 -0.71875 L 3.03125 6.21875 C 2.984375 6.375 2.96875 6.375 3.03125 6.515625 C 3.15625 6.765625 3.234375 6.71875 3.4375 6.640625 L 8.640625 4.203125 C 8.828125 4.125 8.84375 4.109375 9 4.359375 C 9.125 4.546875 9.125 4.5625 9.25 4.8125 Z M 9.359375 5.046875 "/>
</g>
<g id="glyph-1-6">
<path d="M 1.6875 3.625 L 2.109375 3.421875 L 1.640625 2.40625 L 6.96875 -0.078125 L 7.4375 0.9375 L 7.859375 0.75 C 7.65625 0.390625 7.25 -0.484375 7.046875 -0.90625 C 6.859375 -1.3125 6.453125 -2.1875 6.3125 -2.578125 L 5.890625 -2.390625 L 6.359375 -1.375 L 1.03125 1.109375 L 0.5625 0.09375 L 0.140625 0.296875 C 0.34375 0.65625 0.75 1.53125 0.9375 1.9375 C 1.140625 2.359375 1.546875 3.234375 1.6875 3.625 Z M 1.6875 3.625 "/>
</g>
<g id="glyph-1-7">
<path d="M 5.59375 6.65625 L 6.03125 6.453125 C 5.84375 6.140625 5.484375 5.359375 5.3125 5 C 5.078125 4.5 4.6875 3.640625 4.484375 3.15625 L 4.046875 3.359375 L 4.65625 4.65625 L 3.75 5.078125 C 3.59375 5.15625 3.328125 5.265625 2.96875 5.015625 C 2.71875 4.84375 2.53125 4.578125 2.40625 4.296875 C 2.03125 3.515625 1.921875 2.625 2.28125 1.921875 C 2.609375 1.296875 3.1875 0.890625 4 0.515625 C 5.015625 0.03125 5.59375 -0.03125 6.21875 0.109375 C 6.828125 0.25 7.484375 0.78125 7.890625 1.640625 C 8.328125 2.609375 8.046875 3.796875 7 4.515625 C 6.84375 4.625 6.84375 4.625 6.9375 4.84375 C 7.046875 5.078125 7.0625 5.078125 7.28125 4.96875 L 9.21875 4.0625 C 9.390625 3.984375 9.46875 3.953125 9.390625 3.796875 C 9.359375 3.71875 9.328125 3.703125 9.234375 3.65625 L 8.421875 3.3125 C 8.640625 2.421875 8.4375 1.71875 8.21875 1.25 C 7.1875 -0.953125 5.203125 -1.71875 3.359375 -0.859375 C 1.546875 -0.015625 0.78125 1.9375 1.875 4.25 C 2 4.53125 2.453125 5.46875 3.21875 5.65625 C 3.09375 6.03125 3.109375 6.6875 3.15625 6.75 C 3.203125 6.875 3.3125 6.828125 3.453125 6.75 L 5.25 5.921875 Z M 5.59375 6.65625 "/>
</g>
<g id="glyph-1-8">
<path d="M 4.40625 9.4375 L 4.828125 9.234375 L 4.375 8.28125 L 9.703125 5.796875 L 10.15625 6.75 L 10.578125 6.5625 L 9.65625 4.59375 C 9.5625 4.390625 9.515625 4.296875 9.25 4.296875 L 3.484375 4.359375 L 7.234375 -0.015625 C 7.40625 -0.234375 7.359375 -0.328125 7.265625 -0.53125 L 6.34375 -2.515625 L 5.921875 -2.328125 L 6.375 -1.359375 L 1.3125 1.015625 C 1.109375 1.109375 1.09375 1.09375 0.953125 0.859375 C 0.8125 0.640625 0.8125 0.625 0.6875 0.375 L 0.59375 0.15625 L 0.171875 0.359375 C 0.359375 0.6875 0.59375 1.203125 0.75 1.546875 C 0.9375 1.921875 1.15625 2.390625 1.296875 2.78125 L 1.71875 2.578125 L 1.609375 2.34375 C 1.53125 2.1875 1.46875 2.03125 1.421875 1.859375 C 1.328125 1.59375 1.328125 1.59375 1.53125 1.5 L 6.484375 -0.8125 L 2.21875 4.15625 C 2.078125 4.328125 2.078125 4.453125 2.125 4.546875 C 2.203125 4.734375 2.375 4.734375 2.484375 4.75 L 9.171875 4.65625 L 3.84375 7.140625 L 3.40625 6.1875 L 2.984375 6.390625 C 3.15625 6.703125 3.546875 7.53125 3.71875 7.90625 C 3.890625 8.265625 4.296875 9.125 4.40625 9.4375 Z M 4.40625 9.4375 "/>
</g>
<g id="glyph-1-9">
<path d="M 3.578125 7.65625 L 4 7.453125 L 3.875 7.203125 C 3.65625 6.71875 3.671875 6.671875 3.765625 6.5 L 5.8125 2.59375 L 8.609375 3.90625 C 8.875 4.03125 9.0625 4.40625 9.1875 4.671875 L 9.25 4.828125 L 9.671875 4.640625 C 9.46875 4.296875 9.234375 3.78125 9.21875 3.734375 C 9.0625 3.40625 8.75 2.75 8.640625 2.40625 L 8.21875 2.59375 C 8.265625 2.71875 8.359375 2.890625 8.40625 3.15625 C 8.4375 3.3125 8.40625 3.203125 8.421875 3.28125 L 4.09375 1.265625 L 6.96875 -0.078125 L 7.40625 0.875 L 7.828125 0.6875 C 7.640625 0.375 7.234375 -0.515625 7.046875 -0.90625 C 6.875 -1.28125 6.46875 -2.171875 6.34375 -2.515625 L 5.921875 -2.328125 L 6.359375 -1.375 L 1.03125 1.109375 L 0.59375 0.15625 L 0.171875 0.359375 C 0.359375 0.671875 0.765625 1.5625 0.9375 1.9375 C 1.125 2.328125 1.53125 3.21875 1.65625 3.5625 L 2.078125 3.359375 L 1.640625 2.40625 L 3.53125 1.53125 L 4.6875 2.078125 L 3.125 5.0625 C 3.078125 5.125 3.0625 5.140625 3.03125 5.1875 C 2.875 5.046875 2.796875 4.875 2.640625 4.5625 L 2.21875 4.765625 C 2.421875 5.125 2.796875 5.9375 2.984375 6.328125 C 3.15625 6.703125 3.453125 7.3125 3.578125 7.65625 Z M 3.578125 7.65625 "/>
</g>
</g>
</defs>
<path fill="none" stroke-width="19.92554" stroke-linecap="round" stroke-linejoin="round" stroke="rgb(64.99939%, 64.99939%, 64.99939%)" stroke-opacity="1" stroke-miterlimit="10" d="M -0.000143726 46.770817 C -0.000143726 46.770817 0.411899 46.759044 0.568868 46.747271 C 0.725837 46.735499 0.980911 46.700181 1.13788 46.676635 C 1.294849 46.649166 1.545999 46.598151 1.706892 46.558909 C 1.863861 46.523591 2.115011 46.449031 2.27198 46.398016 C 2.432873 46.347001 2.684023 46.256744 2.840992 46.193956 C 2.997961 46.127244 3.253035 46.013442 3.410004 45.938882 C 3.566973 45.860397 3.822047 45.726974 3.979016 45.636717 C 4.135985 45.550384 4.391059 45.393415 4.548028 45.291385 C 4.704997 45.189356 4.956147 45.01669 5.11704 44.902888 C 5.274009 44.789085 5.525159 44.596798 5.682127 44.471223 C 5.843021 44.345648 6.094171 44.129816 6.251139 43.992469 C 6.408108 43.851197 6.663183 43.619668 6.820151 43.470547 C 6.97712 43.317503 7.232195 43.066352 7.389163 42.905459 C 7.546132 42.740642 7.797282 42.469871 7.958175 42.297205 C 8.115144 42.12454 8.366294 41.834147 8.527187 41.649709 C 8.684156 41.461346 8.935306 41.155257 9.092275 40.955122 C 9.253168 40.758911 9.504318 40.433201 9.661287 40.225217 C 9.818256 40.017233 10.07333 39.671902 10.230299 39.452145 C 10.387268 39.232389 10.642342 38.871361 10.799311 38.643756 C 10.95628 38.412227 11.20743 38.035502 11.368323 37.796124 C 11.525292 37.552823 11.776442 37.160401 11.937335 36.909251 C 12.094304 36.658101 12.345454 36.246057 12.502423 35.983135 C 12.663316 35.724136 12.914466 35.296396 13.071435 35.025625 C 13.228403 34.754854 13.483478 34.315341 13.640447 34.032797 C 13.797415 33.754177 14.05249 33.295044 14.209458 33.004651 C 14.366427 32.718183 14.617577 32.247277 14.77847 31.949036 C 14.935439 31.646871 15.186589 31.160268 15.347482 30.854178 C 15.504451 30.548089 15.755601 30.045789 15.91257 29.731851 C 16.073463 29.417914 16.324613 28.903841 16.481582 28.582055 C 16.638551 28.256345 16.893625 27.730499 17.050594 27.400864 C 17.207563 27.07123 17.462637 26.533612 17.619606 26.192205 C 17.776575 25.854722 18.027725 25.305331 18.188618 24.959999 C 18.345587 24.614668 18.596737 24.057429 18.75763 23.704249 C 18.914599 23.351069 19.165749 22.782057 19.322718 22.421029 C 19.483611 22.063925 19.734761 21.48314 19.89173 21.118188 C 20.048698 20.753235 20.303773 20.164602 20.460742 19.795725 C 20.61771 19.422924 20.872785 18.822519 21.029754 18.449718 C 21.186722 18.072993 21.437873 17.464738 21.598766 17.088013 C 21.755734 16.707364 22.006884 16.091261 22.167778 15.706688 C 22.324746 15.322114 22.575896 14.702087 22.732865 14.313589 C 22.893758 13.925092 23.144908 13.297216 23.301877 12.904794 C 23.458846 12.508448 23.71392 11.876648 23.870889 11.480302 C 24.027858 11.083956 24.282932 10.444308 24.439901 10.047962 C 24.59687 9.647691 24.84802 9.004119 25.008913 8.603849 C 25.165882 8.203578 25.417032 7.556082 25.574001 7.151887 C 25.734894 6.747692 25.986044 6.100196 26.143013 5.692077 C 26.303906 5.287882 26.555056 4.636462 26.712025 4.228343 C 26.868994 3.820224 27.124068 3.168803 27.281037 2.760684 C 27.438006 2.352565 27.69308 1.697221 27.850049 1.289102 C 28.007018 0.880983 28.258168 0.225638 28.419061 -0.182481 C 28.57603 -0.5906 28.82718 -1.245945 28.984148 -1.654064 C 29.145041 -2.062183 29.396192 -2.717527 29.55316 -3.125646 C 29.714053 -3.533765 29.965204 -4.18911 30.122172 -4.593305 C 30.279141 -5.001424 30.534216 -5.652844 30.691184 -6.057039 C 30.848153 -6.461234 31.103227 -7.112654 31.260196 -7.516849 C 31.417165 -7.921044 31.668315 -8.564616 31.829208 -8.964886 C 31.986177 -9.365157 32.237327 -10.008729 32.394296 -10.405075 C 32.555189 -10.805346 32.806339 -11.441069 32.963308 -11.837416 C 33.124201 -12.233762 33.375351 -12.865561 33.53232 -13.254059 C 33.689289 -13.646481 33.944363 -14.274357 34.101332 -14.662854 C 34.258301 -15.051352 34.513375 -15.671379 34.670344 -16.055953 C 34.827313 -16.436602 35.078463 -17.04878 35.239356 -17.42943 C 35.396325 -17.806155 35.647475 -18.410485 35.804444 -18.78721 C 35.965337 -19.160011 36.216487 -19.756493 36.373456 -20.125369 C 36.534349 -20.494246 36.785499 -21.082879 36.942467 -21.443907 C 37.099436 -21.80886 37.354511 -22.38572 37.511479 -22.742824 C 37.668448 -23.099928 37.923523 -23.66894 38.080491 -24.018196 C 38.23746 -24.371376 38.48861 -24.928615 38.649503 -25.270022 C 38.806472 -25.615354 39.057622 -26.16082 39.214591 -26.498303 C 39.375484 -26.835786 39.626634 -27.36948 39.783603 -27.699115 C 39.944496 -28.028749 40.195646 -28.550671 40.352615 -28.872457 C 40.509584 -29.194243 40.764658 -29.704391 40.921627 -30.014405 C 41.078596 -30.328342 41.33367 -30.826718 41.490639 -31.128883 C 41.647608 -31.434973 41.898758 -31.917652 42.059651 -32.211968 C 42.21662 -32.510209 42.46777 -32.977191 42.624739 -33.263659 C 42.785632 -33.554052 43.036782 -34.005337 43.193751 -34.283957 C 43.350719 -34.562576 43.605794 -35.002089 43.762763 -35.268936 C 43.919731 -35.539707 44.174806 -35.959599 44.331775 -36.218597 C 44.488743 -36.477596 44.743818 -36.885715 44.900787 -37.132941 C 45.057755 -37.380166 45.308905 -37.772589 45.469798 -38.011966 C 45.626767 -38.247419 45.877917 -38.62022 46.034886 -38.847825 C 46.195779 -39.07543 46.446929 -39.436458 46.603898 -39.65229 C 46.760867 -39.868122 47.015941 -40.205605 47.17291 -40.409665 C 47.329879 -40.617648 47.584953 -40.939434 47.741922 -41.131721 C 47.898891 -41.327932 48.153965 -41.630097 48.310934 -41.810611 C 48.467903 -41.99505 48.719053 -42.281518 48.879946 -42.454184 C 49.036915 -42.622925 49.288065 -42.889772 49.445034 -43.050665 C 49.605927 -43.211558 49.857077 -43.45486 50.014046 -43.60398 C 50.171015 -43.7531 50.426089 -43.976781 50.583058 -44.114129 C 50.740027 -44.251476 50.995101 -44.45946 51.15207 -44.581111 C 51.309039 -44.706686 51.564113 -44.895049 51.721082 -45.004927 C 51.87805 -45.114805 52.129201 -45.287471 52.290094 -45.385576 C 52.447062 -45.483682 52.698213 -45.632802 52.855181 -45.715211 C 53.016074 -45.801544 53.267225 -45.931043 53.424193 -46.005603 C 53.581162 -46.076239 53.836236 -46.186117 53.993205 -46.24498 C 54.150174 -46.307768 54.405248 -46.394101 54.562217 -46.445116 C 54.719186 -46.492206 54.97426 -46.558918 55.131229 -46.594236 C 55.288198 -46.629554 55.539348 -46.676645 55.700241 -46.70019 C 55.85721 -46.719811 56.10836 -46.747281 56.265329 -46.755129 C 56.426222 -46.766902 56.677372 -46.770826 56.834341 -46.766902 C 56.99131 -46.766902 57.246384 -46.751205 57.403353 -46.735508 C 57.560322 -46.719811 57.815396 -46.680569 57.972365 -46.653099 C 58.129334 -46.62563 58.384408 -46.566767 58.541377 -46.5236 C 58.698346 -46.484358 58.949496 -46.405874 59.110389 -46.350934 C 59.267358 -46.295995 59.518508 -46.19789 59.675476 -46.131178 C 59.83637 -46.064466 60.08752 -45.94674 60.244488 -45.868255 C 60.401457 -45.785847 60.656532 -45.648499 60.8135 -45.558242 C 60.970469 -45.464061 61.225544 -45.307092 61.382512 -45.201138 C 61.539481 -45.095184 61.794556 -44.918594 61.951524 -44.800867 C 62.108493 -44.683141 62.359643 -44.483005 62.520536 -44.353506 C 62.677505 -44.224007 62.928655 -44.008175 63.085624 -43.866903 C 63.246517 -43.721707 63.497667 -43.486253 63.654636 -43.333209 C 63.811605 -43.180164 64.066679 -42.921166 64.223648 -42.756348 C 64.380617 -42.591531 64.635691 -42.316836 64.79266 -42.136322 C 64.949629 -41.959732 65.204703 -41.665415 65.361672 -41.477053 C 65.518641 -41.28869 65.769791 -40.978677 65.930684 -40.778541 C 66.087653 -40.578406 66.338803 -40.248772 66.495772 -40.036864 C 66.656665 -39.824956 66.907815 -39.479624 67.064784 -39.255944 C 67.221752 -39.032263 67.476827 -38.667311 67.633796 -38.435782 C 67.790764 -38.200329 68.045839 -37.819679 68.202807 -37.576378 C 68.359776 -37.333076 68.614851 -36.932805 68.771819 -36.681655 C 68.928788 -36.426581 69.179938 -36.010614 69.340831 -35.747691 C 69.4978 -35.484768 69.74895 -35.057028 69.905919 -34.782333 C 70.066812 -34.507637 70.317962 -34.0642 70.474931 -33.781656 C 70.6319 -33.495188 70.886974 -33.036054 71.043943 -32.741738 C 71.200912 -32.451346 71.455986 -31.976515 71.612955 -31.67435 C 71.769924 -31.376109 72.024998 -30.885582 72.181967 -30.579492 C 72.338936 -30.269479 72.590086 -29.767179 72.750979 -29.449317 C 72.907948 -29.131455 73.159098 -28.613458 73.316067 -28.287748 C 73.47696 -27.965962 73.72811 -27.436192 73.885079 -27.102633 C 74.042047 -26.769074 74.297122 -26.227532 74.454091 -25.886125 C 74.611059 -25.548642 74.866134 -24.995327 75.023103 -24.649995 C 75.180071 -24.30074 75.435146 -23.739576 75.592115 -23.386396 C 75.749083 -23.033217 76.000233 -22.46028 76.161127 -22.099252 C 76.318095 -21.738224 76.569245 -21.153515 76.726214 -20.788562 C 76.887107 -20.42361 77.138257 -19.831053 77.295226 -19.458252 C 77.452195 -19.089375 77.707269 -18.488969 77.864238 -18.112244 C 78.021207 -17.735519 78.276281 -17.127265 78.43325 -16.742691 C 78.590219 -16.362042 78.845293 -15.745939 79.002262 -15.361366 C 79.159231 -14.972868 79.410381 -14.352841 79.571274 -13.960419 C 79.728243 -13.571921 79.979393 -12.940122 80.136362 -12.5477 C 80.297255 -12.155278 80.548405 -11.519554 80.705374 -11.123208 C 80.862343 -10.726861 81.117417 -10.087213 81.274386 -9.686943 C 81.431355 -9.286672 81.686429 -8.6431 81.843398 -8.24283 C 82.000367 -7.838635 82.255441 -7.195063 82.41241 -6.790868 C 82.569379 -6.386673 82.820529 -5.735253 82.981422 -5.327134 C 83.13839 -4.922939 83.389541 -4.267594 83.546509 -3.8634 C 83.707402 -3.455281 83.958553 -2.799936 84.115521 -2.391817 C 84.27249 -1.983698 84.527565 -1.328353 84.684533 -0.920234 C 84.841502 -0.512115 85.096576 0.143229 85.253545 0.551348 C 85.410514 0.959467 85.665588 1.614812 85.822557 2.022931 C 85.979526 2.43105 86.230676 3.086395 86.391569 3.494514 C 86.548538 3.902633 86.799688 4.554053 86.956657 4.962172 C 87.11755 5.366367 87.3687 6.017787 87.525669 6.421982 C 87.682638 6.826177 87.937712 7.473673 88.094681 7.877868 C 88.25165 8.282063 88.506724 8.925635 88.663693 9.325905 C 88.820662 9.726176 89.075736 10.365824 89.232705 10.76217 C 89.389674 11.16244 89.640824 11.798164 89.801717 12.190586 C 89.958686 12.586932 90.209836 13.218732 90.366805 13.60723 C 90.527698 13.999652 90.778848 14.623603 90.935816 15.012101 C 91.092785 15.396674 91.34786 16.016701 91.504828 16.39735 C 91.661797 16.781924 91.916872 17.390178 92.07384 17.766903 C 92.230809 18.147553 92.485884 18.747958 92.642852 19.124684 C 92.799821 19.497485 93.050971 20.090042 93.211864 20.458919 C 93.368833 20.823871 93.619983 21.40858 93.776952 21.769608 C 93.937845 22.130636 94.188995 22.707497 94.345964 23.064601 C 94.502933 23.417781 94.758007 23.982868 94.914976 24.332124 C 95.071945 24.68138 95.327019 25.238619 95.483988 25.580026 C 95.640957 25.921433 95.896031 26.4669 96.053 26.800459 C 96.209969 27.134018 96.461119 27.667711 96.622012 27.993422 C 96.778981 28.319132 97.030131 28.837129 97.1871 29.158915 C 97.347993 29.476777 97.599143 29.986926 97.756112 30.296939 C 97.91308 30.606953 98.168155 31.101404 98.325124 31.403569 C 98.482092 31.705734 98.737167 32.184489 98.894136 32.478806 C 99.051104 32.773122 99.306179 33.23618 99.463147 33.522648 C 99.620116 33.809116 99.871266 34.256478 100.032159 34.531173 C 100.189128 34.809793 100.440278 35.241457 100.597247 35.508304 C 100.75814 35.775151 101.00929 36.195043 101.166259 36.450117 C 101.323228 36.705191 101.578302 37.109386 101.735271 37.356612 C 101.89224 37.603838 102.147314 37.988411 102.304283 38.223864 C 102.461252 38.459318 102.716326 38.828194 102.873295 39.051875 C 103.030264 39.275556 103.281414 39.628735 103.442307 39.844568 C 103.599276 40.056475 103.850426 40.390034 104.007395 40.594094 C 104.168288 40.798153 104.419438 41.116015 104.576407 41.308302 C 104.733376 41.496664 104.98845 41.794905 105.145419 41.975419 C 105.302388 42.155933 105.557462 42.438477 105.714431 42.607219 C 105.871399 42.772036 106.126474 43.034959 106.283443 43.191928 C 106.440411 43.348896 106.691562 43.588274 106.852455 43.73347 C 107.009423 43.878666 107.260574 44.102347 107.417542 44.23577 C 107.578435 44.369194 107.829585 44.573253 107.986554 44.69098 C 108.143523 44.812631 108.398597 44.997069 108.555566 45.103023 C 108.712535 45.212901 108.967609 45.373794 109.124578 45.4719 C 109.281547 45.566081 109.536621 45.711277 109.69359 45.793686 C 109.850559 45.876094 110.101709 46.001669 110.262602 46.072305 C 110.419571 46.142941 110.670721 46.244971 110.82769 46.29991 C 110.988583 46.358773 111.239733 46.441182 111.396702 46.484348 C 111.553671 46.531439 111.808745 46.590302 111.965714 46.62562 C 112.122683 46.657014 112.377757 46.696256 112.534726 46.715877 C 112.691695 46.735499 112.946769 46.759044 113.103738 46.762968 C 113.260707 46.770817 113.511857 46.770817 113.67275 46.762968 C 113.829719 46.759044 114.080869 46.735499 114.237837 46.715877 C 114.39873 46.696256 114.649881 46.657014 114.806849 46.62562 C 114.963818 46.590302 115.218893 46.531439 115.375861 46.484348 C 115.53283 46.441182 115.787905 46.358773 115.944873 46.29991 C 116.101842 46.244971 116.356916 46.142941 116.513885 46.072305 C 116.670854 46.001669 116.922004 45.876094 117.082897 45.793686 C 117.239866 45.711277 117.491016 45.566081 117.647985 45.4719 C 117.808878 45.373794 118.060028 45.212901 118.216997 45.103023 C 118.373966 44.997069 118.62904 44.812631 118.786009 44.69098 C 118.942978 44.573253 119.198052 44.369194 119.355021 44.23577 C 119.51199 44.106271 119.767064 43.88259 119.924033 43.737394 C 120.081002 43.592198 120.332152 43.348896 120.493045 43.191928 C 120.650014 43.034959 120.901164 42.77596 121.058133 42.607219 C 121.219026 42.438477 121.470176 42.155933 121.627145 41.975419 C 121.784113 41.798829 122.039188 41.500589 122.196156 41.308302 C 122.353125 41.116015 122.6082 40.798153 122.765168 40.598018 C 122.922137 40.393958 123.177212 40.056475 123.33418 39.844568 C 123.491149 39.628735 123.742299 39.27948 123.903192 39.051875 C 124.060161 38.828194 124.311311 38.459318 124.46828 38.223864 C 124.629173 37.988411 124.880323 37.603838 125.037292 37.356612 C 125.194261 37.11331 125.449335 36.709115 125.606304 36.454041 C 125.763273 36.195043 126.018347 35.775151 126.175316 35.512228 C 126.332285 35.245381 126.587359 34.809793 126.744328 34.535097 C 126.901297 34.260402 127.152447 33.809116 127.31334 33.522648 C 127.470309 33.240105 127.721459 32.773122 127.878428 32.48273 C 128.039321 32.188413 128.290471 31.705734 128.44744 31.403569 C 128.604408 31.101404 128.859483 30.610877 129.016452 30.296939 C 129.17342 29.986926 129.428495 29.480701 129.585464 29.158915 C 129.742432 28.841053 129.997507 28.323056 130.154476 27.997346 C 130.311444 27.667711 130.562594 27.137942 130.723488 26.800459 C 130.880456 26.4669 131.131606 25.925358 131.288575 25.58395 C 131.449468 25.238619 131.700618 24.685304 131.857587 24.336048 C 132.014556 23.986793 132.26963 23.421705 132.426599 23.064601 C 132.583568 22.711421 132.838642 22.134561 132.995611 21.773532 C 133.15258 21.412504 133.40373 20.827795 133.564623 20.458919 C 133.721592 20.093966 133.972742 19.497485 134.133635 19.124684 C 134.290604 18.751883 134.541754 18.147553 134.698723 17.770828 C 134.859616 17.394102 135.110766 16.781924 135.267735 16.401275 C 135.424704 16.016701 135.679778 15.400598 135.836747 15.012101 C 135.993716 14.627527 136.24879 14.003576 136.405759 13.611154 C 136.562728 13.218732 136.813878 12.590857 136.974771 12.19451 C 137.131739 11.798164 137.38289 11.16244 137.543783 10.766094 C 137.700751 10.369748 137.951902 9.7301 138.10887 9.329829 C 138.269763 8.929559 138.520914 8.282063 138.677882 7.881792 C 138.834851 7.477597 139.089925 6.830101 139.246894 6.425906 C 139.403863 6.021712 139.658937 5.370291 139.815906 4.962172 C 139.972875 4.557977 140.224025 3.902633 140.384918 3.494514 C 140.541887 3.086395 140.793037 2.434974 140.95393 2.026855 C 141.110899 1.618736 141.362049 0.963391 141.519018 0.555272 C 141.679911 0.147154 141.931061 -0.508191 142.08803 -0.91631 C 142.244999 -1.328353 142.500073 -1.979774 142.657042 -2.387893 C 142.814011 -2.796012 143.069085 -3.451357 143.226054 -3.859476 C 143.383023 -4.267594 143.634173 -4.919015 143.795066 -5.327134 C 143.952035 -5.731329 144.203185 -6.382749 144.364078 -6.786944 C 144.521047 -7.191139 144.772197 -7.838635 144.929165 -8.238906 C 145.090059 -8.6431 145.341209 -9.286672 145.498177 -9.686943 C 145.655146 -10.087213 145.910221 -10.726861 146.067189 -11.123208 C 146.224158 -11.519554 146.479233 -12.155278 146.636201 -12.5477 C 146.79317 -12.940122 147.04432 -13.567997 147.205213 -13.960419 C 147.362182 -14.348917 147.613332 -14.972868 147.770301 -15.357441 C 147.931194 -15.745939 148.182344 -16.362042 148.339313 -16.742691 C 148.500206 -17.123341 148.751356 -17.731595 148.908325 -18.10832 C 149.065294 -18.485045 149.320368 -19.085451 149.477337 -19.458252 C 149.634306 -19.831053 149.88938 -20.419686 150.046349 -20.784638 C 150.203318 -21.153515 150.454468 -21.7343 150.615361 -22.095328 C 150.77233 -22.456356 151.02348 -23.029292 151.180449 -23.382472 C 151.341342 -23.739576 151.592492 -24.30074 151.749461 -24.646071 C 151.910354 -24.995327 152.161504 -25.544718 152.318473 -25.886125 C 152.475441 -26.227532 152.730516 -26.76515 152.887485 -27.098709 C 153.044453 -27.432268 153.299528 -27.962037 153.456497 -28.287748 C 153.613465 -28.613458 153.864615 -29.127531 154.025508 -29.445393 C 154.182477 -29.763255 154.433627 -30.265555 154.590596 -30.575568 C 154.751489 -30.885582 155.002639 -31.376109 155.159608 -31.67435 C 155.320501 -31.976515 155.571651 -32.451346 155.72862 -32.741738 C 155.885589 -33.03213 156.140663 -33.495188 156.297632 -33.777732 C 156.454601 -34.060276 156.709675 -34.507637 156.866644 -34.778408 C 157.023613 -35.053104 157.274763 -35.484768 157.435656 -35.747691 C 157.592625 -36.010614 157.843775 -36.426581 158.000744 -36.677731 C 158.161637 -36.932805 158.412787 -37.329152 158.569756 -37.576378 C 158.730649 -37.819679 158.981799 -38.200329 159.138768 -38.435782 C 159.295737 -38.667311 159.550811 -39.032263 159.70778 -39.255944 C 159.864748 -39.4757 160.119823 -39.824956 160.276792 -40.03294 C 160.43376 -40.244847 160.684911 -40.574482 160.845804 -40.774617 C 161.002772 -40.974752 161.253923 -41.28869 161.410891 -41.477053 C 161.571784 -41.665415 161.822934 -41.959732 161.979903 -42.136322 C 162.140796 -42.312912 162.391946 -42.591531 162.548915 -42.756348 C 162.705884 -42.921166 162.960958 -43.180164 163.117927 -43.333209 C 163.274896 -43.486253 163.52997 -43.721707 163.686939 -43.862979 C 163.843908 -44.004251 164.095058 -44.224007 164.255951 -44.353506 C 164.41292 -44.483005 164.66407 -44.679217 164.821039 -44.796943 C 164.981932 -44.91467 165.233082 -45.095184 165.390051 -45.201138 C 165.54702 -45.307092 165.802094 -45.464061 165.959063 -45.558242 C 166.116032 -45.648499 166.371106 -45.785847 166.528075 -45.868255 C 166.685044 -45.94674 166.940118 -46.064466 167.097087 -46.131178 C 167.254056 -46.19789 167.505206 -46.295995 167.666099 -46.350934 C 167.823068 -46.405874 168.074218 -46.484358 168.231186 -46.5236 C 168.392079 -46.566767 168.64323 -46.62563 168.800198 -46.653099 C 168.957167 -46.680569 169.212242 -46.715887 169.36921 -46.731584 C 169.526179 -46.747281 169.781254 -46.766902 169.938222 -46.766902 C 170.095191 -46.770826 170.350265 -46.766902 170.507234 -46.755129 C 170.664203 -46.747281 170.915353 -46.723735 171.076246 -46.70019 C 171.233215 -46.676645 171.484365 -46.629554 171.641334 -46.594236 C 171.802227 -46.558918 172.053377 -46.492206 172.210346 -46.445116 C 172.367315 -46.394101 172.622389 -46.307768 172.779358 -46.248905 C 172.936327 -46.186117 173.191401 -46.080163 173.34837 -46.005603 C 173.505339 -45.931043 173.760413 -45.801544 173.917382 -45.719135 C 174.074351 -45.632802 174.325501 -45.483682 174.486394 -45.385576 C 174.643363 -45.287471 174.894513 -45.118729 175.051482 -45.004927 C 175.212375 -44.895049 175.463525 -44.706686 175.620494 -44.581111 C 175.777462 -44.45946 176.032537 -44.251476 176.189506 -44.114129 C 176.346474 -43.980705 176.601549 -43.7531 176.758517 -43.60398 C 176.915486 -43.45486 177.170561 -43.211558 177.327529 -43.050665 C 177.484498 -42.889772 177.735648 -42.622925 177.896541 -42.454184 C 178.05351 -42.281518 178.30466 -41.99505 178.461629 -41.814536 C 178.622522 -41.630097 178.873672 -41.327932 179.030641 -41.135645 C 179.18761 -40.939434 179.442684 -40.617648 179.599653 -40.413589 C 179.756622 -40.205605 180.011696 -39.868122 180.168665 -39.65229 C 180.325634 -39.436458 180.580708 -39.079354 180.737677 -38.851749 C 180.894646 -38.624144 181.145796 -38.247419 181.306689 -38.011966 C 181.463658 -37.772589 181.714808 -37.380166 181.871777 -37.132941 C 182.03267 -36.885715 182.28382 -36.477596 182.440789 -36.218597 C 182.597757 -35.959599 182.852832 -35.539707 183.009801 -35.27286 C 183.166769 -35.002089 183.421844 -34.562576 183.578813 -34.287881 C 183.735781 -34.009261 183.990856 -33.554052 184.147825 -33.267583 C 184.304793 -32.981115 184.555943 -32.510209 184.716837 -32.215892 C 184.873805 -31.917652 185.124955 -31.434973 185.281924 -31.132808 C 185.442817 -30.826718 185.693967 -30.332267 185.850936 -30.018329 C 186.007905 -29.704391 186.262979 -29.194243 186.419948 -28.872457 C 186.576917 -28.550671 186.831991 -28.028749 186.98896 -27.699115 C 187.145929 -27.36948 187.401003 -26.835786 187.557972 -26.498303 C 187.714941 -26.16082 187.966091 -25.615354 188.126984 -25.273946 C 188.283953 -24.928615 188.535103 -24.371376 188.692072 -24.02212 C 188.852965 -23.672865 189.104115 -23.103853 189.261084 -22.746748 C 189.418053 -22.389644 189.673127 -21.80886 189.830096 -21.447832 C 189.987065 -21.082879 190.242139 -20.49817 190.399108 -20.129293 C 190.556077 -19.760417 190.811151 -19.163935 190.96812 -18.78721 C 191.125088 -18.414409 191.376239 -17.810079 191.537132 -17.42943 C 191.6941 -17.052705 191.945251 -16.440526 192.102219 -16.055953 C 192.263112 -15.671379 192.514263 -15.051352 192.671231 -14.662854 C 192.8282 -14.274357 193.083274 -13.650406 193.240243 -13.257983 C 193.397212 -12.865561 193.652286 -12.233762 193.809255 -11.837416 C 193.966224 -11.444994 194.221298 -10.805346 194.378267 -10.408999 C 194.535236 -10.008729 194.786386 -9.369081 194.947279 -8.968811 C 195.104248 -8.56854 195.355398 -7.921044 195.512367 -7.516849 C 195.67326 -7.112654 195.92441 -6.465158 196.081379 -6.060963 C 196.238348 -5.652844 196.493422 -5.001424 196.650391 -4.597229 C 196.80736 -4.18911 197.062434 -3.537689 197.219403 -3.129571 C 197.376372 -2.721452 197.631446 -2.066107 197.788415 -1.657988 C 197.945384 -1.249869 198.196534 -0.594524 198.357427 -0.186405 C 198.514396 0.221714 198.765546 0.877059 198.922514 1.285177 C 199.083408 1.693296 199.334558 2.348641 199.491526 2.75676 C 199.648495 3.164879 199.90357 3.820224 200.060538 4.224419 C 200.217507 4.632538 200.472582 5.283958 200.62955 5.692077 C 200.786519 6.096272 201.041594 6.743768 201.198562 7.147963 C 201.355531 7.552158 201.606681 8.199654 201.767574 8.599924 C 201.924543 9.004119 202.175693 9.647691 202.332662 10.044038 C 202.493555 10.444308 202.744705 11.083956 202.901674 11.480302 C 203.058643 11.876648 203.313717 12.508448 203.470686 12.90087 C 203.627655 13.293292 203.882729 13.921167 204.039698 14.309665 C 204.196667 14.698163 204.451741 15.31819 204.60871 15.706688 C 204.765679 16.091261 205.016829 16.70344 205.177722 17.084089 C 205.334691 17.464738 205.585841 18.072993 205.74281 18.445793 C 205.903703 18.822519 206.154853 19.422924 206.311822 19.791801 C 206.46879 20.160678 206.723865 20.753235 206.880834 21.118188 C 207.037802 21.479216 207.292877 22.06 207.449846 22.421029 C 207.606814 22.778133 207.861889 23.347145 208.018857 23.700325 C 208.175826 24.053504 208.426976 24.614668 208.587869 24.959999 C 208.744838 25.305331 208.995988 25.854722 209.152957 26.192205 C 209.31385 26.529688 209.565 27.067306 209.721969 27.39694 C 209.878938 27.730499 210.134012 28.256345 210.290981 28.578131 C 210.44795 28.903841 210.703024 29.41399 210.859993 29.731851 C 211.016962 30.045789 211.272036 30.544165 211.429005 30.854178 C 211.585974 31.160268 211.837124 31.646871 211.998017 31.945112 C 212.154986 32.243353 212.406136 32.714259 212.563105 33.004651 C 212.723998 33.295044 212.975148 33.750253 213.132117 34.032797 C 213.289086 34.311417 213.54416 34.754854 213.701129 35.025625 C 213.858097 35.296396 214.113172 35.720212 214.270141 35.983135 C 214.427109 36.246057 214.682184 36.654176 214.839153 36.905326 C 214.996121 37.156477 215.247272 37.552823 215.408165 37.7922 C 215.565133 38.035502 215.816283 38.412227 215.973252 38.639832 C 216.134145 38.871361 216.385295 39.232389 216.542264 39.452145 C 216.699233 39.671902 216.954307 40.013309 217.111276 40.221293 C 217.268245 40.433201 217.523319 40.758911 217.680288 40.955122 C 217.837257 41.151333 218.092331 41.461346 218.2493 41.645785 C 218.406269 41.834147 218.657419 42.120615 218.818312 42.297205 C 218.975281 42.469871 219.226431 42.740642 219.3834 42.901535 C 219.544293 43.066352 219.795443 43.317503 219.952412 43.466623 C 220.109381 43.619668 220.364455 43.851197 220.521424 43.988544 C 220.678393 44.129816 220.933467 44.341724 221.090436 44.471223 C 221.247405 44.596798 221.502479 44.789085 221.659448 44.902888 C 221.816417 45.01669 222.067567 45.189356 222.22846 45.291385 C 222.385428 45.393415 222.636579 45.54646 222.793547 45.636717 C 222.95444 45.726974 223.205591 45.860397 223.362559 45.934958 C 223.519528 46.013442 223.774603 46.127244 223.931571 46.190032 C 224.08854 46.256744 224.343614 46.347001 224.500583 46.398016 C 224.657552 46.449031 224.912626 46.523591 225.069595 46.558909 C 225.226564 46.598151 225.477714 46.649166 225.638607 46.676635 C 225.795576 46.704105 226.046726 46.735499 226.203695 46.747271 C 226.364588 46.759044 226.772707 46.770817 226.772707 46.770817 " transform="matrix(0.995421, 0, 0, -0.995421, 35.316549, 62.423823)"/>
<path fill="none" stroke-width="19.92554" stroke-linecap="round" stroke-linejoin="round" stroke="rgb(34.999084%, 34.999084%, 34.999084%)" stroke-opacity="1" stroke-miterlimit="10" d="M -0.000143726 -46.770826 C -0.000143726 -46.770826 0.411899 -46.759053 0.568868 -46.747281 C 0.725837 -46.735508 0.980911 -46.70019 1.13788 -46.676645 C 1.294849 -46.649175 1.545999 -46.59816 1.706892 -46.558918 C 1.863861 -46.5236 2.115011 -46.44904 2.27198 -46.398025 C 2.432873 -46.34701 2.684023 -46.256753 2.840992 -46.193966 C 2.997961 -46.127254 3.253035 -46.013451 3.410004 -45.938891 C 3.566973 -45.860407 3.822047 -45.726983 3.979016 -45.636726 C 4.135985 -45.550393 4.391059 -45.393425 4.548028 -45.291395 C 4.704997 -45.189365 4.956147 -45.016699 5.11704 -44.902897 C 5.274009 -44.789095 5.525159 -44.596808 5.682127 -44.471233 C 5.843021 -44.345658 6.094171 -44.129826 6.251139 -43.992478 C 6.408108 -43.851206 6.663183 -43.619677 6.820151 -43.470557 C 6.97712 -43.317512 7.232195 -43.066362 7.389163 -42.905469 C 7.546132 -42.740652 7.797282 -42.46988 7.958175 -42.297215 C 8.115144 -42.124549 8.366294 -41.834157 8.527187 -41.649718 C 8.684156 -41.461356 8.935306 -41.155267 9.092275 -40.955131 C 9.253168 -40.75892 9.504318 -40.43321 9.661287 -40.225226 C 9.818256 -40.017243 10.07333 -39.671911 10.230299 -39.452155 C 10.387268 -39.232399 10.642342 -38.87137 10.799311 -38.643765 C 10.95628 -38.412236 11.20743 -38.035511 11.368323 -37.796134 C 11.525292 -37.552832 11.776442 -37.16041 11.937335 -36.90926 C 12.094304 -36.65811 12.345454 -36.246067 12.502423 -35.983144 C 12.663316 -35.724145 12.914466 -35.296405 13.071435 -35.025634 C 13.228403 -34.754863 13.483478 -34.31535 13.640447 -34.032806 C 13.797415 -33.754187 14.05249 -33.295053 14.209458 -33.004661 C 14.366427 -32.718193 14.617577 -32.247286 14.77847 -31.949045 C 14.935439 -31.64688 15.186589 -31.160277 15.347482 -30.854188 C 15.504451 -30.548099 15.755601 -30.045798 15.91257 -29.731861 C 16.073463 -29.417923 16.324613 -28.90385 16.481582 -28.582064 C 16.638551 -28.256354 16.893625 -27.730508 17.050594 -27.400874 C 17.207563 -27.071239 17.462637 -26.533621 17.619606 -26.192214 C 17.776575 -25.854731 18.027725 -25.30534 18.188618 -24.960009 C 18.345587 -24.614677 18.596737 -24.057438 18.75763 -23.704258 C 18.914599 -23.351078 19.165749 -22.782066 19.322718 -22.421038 C 19.483611 -22.063934 19.734761 -21.483149 19.89173 -21.118197 C 20.048698 -20.753244 20.303773 -20.164611 20.460742 -19.795735 C 20.61771 -19.422934 20.872785 -18.822528 21.029754 -18.449727 C 21.186722 -18.073002 21.437873 -17.464748 21.598766 -17.088023 C 21.755734 -16.707373 22.006884 -16.091271 22.167778 -15.706697 C 22.324746 -15.322123 22.575896 -14.702097 22.732865 -14.313599 C 22.893758 -13.925101 23.144908 -13.297226 23.301877 -12.904804 C 23.458846 -12.508457 23.71392 -11.876658 23.870889 -11.480312 C 24.027858 -11.083965 24.282932 -10.444317 24.439901 -10.047971 C 24.59687 -9.647701 24.84802 -9.004129 25.008913 -8.603858 C 25.165882 -8.203588 25.417032 -7.556091 25.574001 -7.151896 C 25.734894 -6.747702 25.986044 -6.100205 26.143013 -5.692086 C 26.303906 -5.287892 26.555056 -4.636471 26.712025 -4.228352 C 26.868994 -3.820233 27.124068 -3.168813 27.281037 -2.760694 C 27.438006 -2.352575 27.69308 -1.69723 27.850049 -1.289111 C 28.007018 -0.880992 28.258168 -0.225647 28.419061 0.182472 C 28.57603 0.59059 28.82718 1.245935 28.984148 1.654054 C 29.145041 2.062173 29.396192 2.717518 29.55316 3.125637 C 29.714053 3.533756 29.965204 4.189101 30.122172 4.593295 C 30.279141 5.001414 30.534216 5.652835 30.691184 6.05703 C 30.848153 6.461224 31.103227 7.112645 31.260196 7.51684 C 31.417165 7.921034 31.668315 8.564606 31.829208 8.964877 C 31.986177 9.365147 32.237327 10.00872 32.394296 10.405066 C 32.555189 10.805336 32.806339 11.44106 32.963308 11.837406 C 33.124201 12.233753 33.375351 12.865552 33.53232 13.25405 C 33.689289 13.646472 33.944363 14.274347 34.101332 14.662845 C 34.258301 15.051343 34.513375 15.67137 34.670344 16.055943 C 34.827313 16.436593 35.078463 17.048771 35.239356 17.42942 C 35.396325 17.806146 35.647475 18.410475 35.804444 18.787201 C 35.965337 19.160002 36.216487 19.756483 36.373456 20.12536 C 36.534349 20.494237 36.785499 21.08287 36.942467 21.443898 C 37.099436 21.80885 37.354511 22.385711 37.511479 22.742815 C 37.668448 23.099919 37.923523 23.668931 38.080491 24.018186 C 38.23746 24.371366 38.48861 24.928606 38.649503 25.270013 C 38.806472 25.615344 39.057622 26.160811 39.214591 26.498294 C 39.375484 26.835777 39.626634 27.369471 39.783603 27.699105 C 39.944496 28.02874 40.195646 28.550661 40.352615 28.872447 C 40.509584 29.194233 40.764658 29.704382 40.921627 30.014395 C 41.078596 30.328333 41.33367 30.826709 41.490639 31.128874 C 41.647608 31.434963 41.898758 31.917642 42.059651 32.211959 C 42.21662 32.5102 42.46777 32.977182 42.624739 33.26365 C 42.785632 33.554042 43.036782 34.005327 43.193751 34.283947 C 43.350719 34.562567 43.605794 35.002079 43.762763 35.268926 C 43.919731 35.539698 44.174806 35.959589 44.331775 36.218588 C 44.488743 36.477586 44.743818 36.885705 44.900787 37.132931 C 45.057755 37.380157 45.308905 37.772579 45.469798 38.011957 C 45.626767 38.24741 45.877917 38.620211 46.034886 38.847816 C 46.195779 39.07542 46.446929 39.436449 46.603898 39.652281 C 46.760867 39.868113 47.015941 40.205596 47.17291 40.409655 C 47.329879 40.617639 47.584953 40.939425 47.741922 41.131712 C 47.898891 41.327923 48.153965 41.630088 48.310934 41.810602 C 48.467903 41.99504 48.719053 42.281508 48.879946 42.454174 C 49.036915 42.622916 49.288065 42.889763 49.445034 43.050656 C 49.605927 43.211549 49.857077 43.45485 50.014046 43.603971 C 50.171015 43.753091 50.426089 43.976772 50.583058 44.114119 C 50.740027 44.251467 50.995101 44.459451 51.15207 44.581102 C 51.309039 44.706677 51.564113 44.895039 51.721082 45.004917 C 51.87805 45.114796 52.129201 45.287461 52.290094 45.385567 C 52.447062 45.483672 52.698213 45.632793 52.855181 45.715201 C 53.016074 45.801534 53.267225 45.931033 53.424193 46.005594 C 53.581162 46.07623 53.836236 46.186108 53.993205 46.244971 C 54.150174 46.307759 54.405248 46.394091 54.562217 46.445106 C 54.719186 46.492197 54.97426 46.558909 55.131229 46.594227 C 55.288198 46.629545 55.539348 46.676635 55.700241 46.700181 C 55.85721 46.719802 56.10836 46.747271 56.265329 46.75512 C 56.426222 46.766892 56.677372 46.770817 56.834341 46.766892 C 56.99131 46.766892 57.246384 46.751195 57.403353 46.735499 C 57.560322 46.719802 57.815396 46.68056 57.972365 46.65309 C 58.129334 46.62562 58.384408 46.566757 58.541377 46.523591 C 58.698346 46.484348 58.949496 46.405864 59.110389 46.350925 C 59.267358 46.295986 59.518508 46.19788 59.675476 46.131169 C 59.83637 46.064457 60.08752 45.94673 60.244488 45.868246 C 60.401457 45.785837 60.656532 45.64849 60.8135 45.558232 C 60.970469 45.464051 61.225544 45.307082 61.382512 45.201128 C 61.539481 45.095174 61.794556 44.918585 61.951524 44.800858 C 62.108493 44.683131 62.359643 44.482996 62.520536 44.353497 C 62.677505 44.223998 62.928655 44.008165 63.085624 43.866893 C 63.246517 43.721697 63.497667 43.486244 63.654636 43.333199 C 63.811605 43.180155 64.066679 42.921156 64.223648 42.756339 C 64.380617 42.591522 64.635691 42.316826 64.79266 42.136312 C 64.949629 41.959722 65.204703 41.665406 65.361672 41.477043 C 65.518641 41.288681 65.769791 40.978667 65.930684 40.778532 C 66.087653 40.578397 66.338803 40.248762 66.495772 40.036854 C 66.656665 39.824946 66.907815 39.479615 67.064784 39.255934 C 67.221752 39.032254 67.476827 38.667301 67.633796 38.435772 C 67.790764 38.200319 68.045839 37.81967 68.202807 37.576368 C 68.359776 37.333066 68.614851 36.932796 68.771819 36.681646 C 68.928788 36.426572 69.179938 36.010604 69.340831 35.747681 C 69.4978 35.484759 69.74895 35.057019 69.905919 34.782323 C 70.066812 34.507628 70.317962 34.064191 70.474931 33.781647 C 70.6319 33.495179 70.886974 33.036045 71.043943 32.741729 C 71.200912 32.451336 71.455986 31.976506 71.612955 31.674341 C 71.769924 31.3761 72.024998 30.885572 72.181967 30.579483 C 72.338936 30.26947 72.590086 29.767169 72.750979 29.449308 C 72.907948 29.131446 73.159098 28.613449 73.316067 28.287738 C 73.47696 27.965952 73.72811 27.436182 73.885079 27.102624 C 74.042047 26.769065 74.297122 26.227523 74.454091 25.886115 C 74.611059 25.548632 74.866134 24.995317 75.023103 24.649986 C 75.180071 24.30073 75.435146 23.739567 75.592115 23.386387 C 75.749083 23.033207 76.000233 22.460271 76.161127 22.099243 C 76.318095 21.738214 76.569245 21.153506 76.726214 20.788553 C 76.887107 20.423601 77.138257 19.831043 77.295226 19.458242 C 77.452195 19.089366 77.707269 18.48896 77.864238 18.112235 C 78.021207 17.73551 78.276281 17.127255 78.43325 16.742682 C 78.590219 16.362032 78.845293 15.74593 79.002262 15.361356 C 79.159231 14.972858 79.410381 14.352832 79.571274 13.960409 C 79.728243 13.571912 79.979393 12.940112 80.136362 12.54769 C 80.297255 12.155268 80.548405 11.519544 80.705374 11.123198 C 80.862343 10.726852 81.117417 10.087204 81.274386 9.686933 C 81.431355 9.286663 81.686429 8.643091 81.843398 8.24282 C 82.000367 7.838626 82.255441 7.195053 82.41241 6.790859 C 82.569379 6.386664 82.820529 5.735243 82.981422 5.327125 C 83.13839 4.92293 83.389541 4.267585 83.546509 3.86339 C 83.707402 3.455271 83.958553 2.799927 84.115521 2.391808 C 84.27249 1.983689 84.527565 1.328344 84.684533 0.920225 C 84.841502 0.512106 85.096576 -0.143239 85.253545 -0.551358 C 85.410514 -0.959477 85.665588 -1.614821 85.822557 -2.02294 C 85.979526 -2.431059 86.230676 -3.086404 86.391569 -3.494523 C 86.548538 -3.902642 86.799688 -4.554063 86.956657 -4.962181 C 87.11755 -5.366376 87.3687 -6.017797 87.525669 -6.421991 C 87.682638 -6.826186 87.937712 -7.473683 88.094681 -7.877877 C 88.25165 -8.282072 88.506724 -8.925644 88.663693 -9.325915 C 88.820662 -9.726185 89.075736 -10.365833 89.232705 -10.762179 C 89.389674 -11.16245 89.640824 -11.798173 89.801717 -12.190596 C 89.958686 -12.586942 90.209836 -13.218741 90.366805 -13.607239 C 90.527698 -13.999661 90.778848 -14.623612 90.935816 -15.01211 C 91.092785 -15.396684 91.34786 -16.01671 91.504828 -16.39736 C 91.661797 -16.781933 91.916872 -17.390188 92.07384 -17.766913 C 92.230809 -18.147562 92.485884 -18.747968 92.642852 -19.124693 C 92.799821 -19.497494 93.050971 -20.090051 93.211864 -20.458928 C 93.368833 -20.82388 93.619983 -21.408589 93.776952 -21.769618 C 93.937845 -22.130646 94.188995 -22.707506 94.345964 -23.06461 C 94.502933 -23.41779 94.758007 -23.982878 94.914976 -24.332134 C 95.071945 -24.681389 95.327019 -25.238628 95.483988 -25.580036 C 95.640957 -25.921443 95.896031 -26.466909 96.053 -26.800468 C 96.209969 -27.134027 96.461119 -27.667721 96.622012 -27.993431 C 96.778981 -28.319142 97.030131 -28.837139 97.1871 -29.158925 C 97.347993 -29.476787 97.599143 -29.986935 97.756112 -30.296949 C 97.91308 -30.606962 98.168155 -31.101414 98.325124 -31.403579 C 98.482092 -31.705744 98.737167 -32.184499 98.894136 -32.478815 C 99.051104 -32.773132 99.306179 -33.23619 99.463147 -33.522658 C 99.620116 -33.809126 99.871266 -34.256487 100.032159 -34.531182 C 100.189128 -34.809802 100.440278 -35.241466 100.597247 -35.508313 C 100.75814 -35.77516 101.00929 -36.195052 101.166259 -36.450126 C 101.323228 -36.705201 101.578302 -37.109395 101.735271 -37.356621 C 101.89224 -37.603847 102.147314 -37.988421 102.304283 -38.223874 C 102.461252 -38.459327 102.716326 -38.828204 102.873295 -39.051884 C 103.030264 -39.275565 103.281414 -39.628745 103.442307 -39.844577 C 103.599276 -40.056485 103.850426 -40.390044 104.007395 -40.594103 C 104.168288 -40.798162 104.419438 -41.116024 104.576407 -41.308311 C 104.733376 -41.496674 104.98845 -41.794914 105.145419 -41.975429 C 105.302388 -42.155943 105.557462 -42.438487 105.714431 -42.607228 C 105.871399 -42.772045 106.126474 -43.034968 106.283443 -43.191937 C 106.440411 -43.348906 106.691562 -43.588283 106.852455 -43.733479 C 107.009423 -43.878676 107.260574 -44.102356 107.417542 -44.23578 C 107.578435 -44.369203 107.829585 -44.573263 107.986554 -44.690989 C 108.143523 -44.81264 108.398597 -44.997078 108.555566 -45.103032 C 108.712535 -45.21291 108.967609 -45.373804 109.124578 -45.471909 C 109.281547 -45.56609 109.536621 -45.711286 109.69359 -45.793695 C 109.850559 -45.876104 110.101709 -46.001679 110.262602 -46.072315 C 110.419571 -46.142951 110.670721 -46.24498 110.82769 -46.29992 C 110.988583 -46.358783 111.239733 -46.441191 111.396702 -46.484358 C 111.553671 -46.531449 111.808745 -46.590312 111.965714 -46.62563 C 112.122683 -46.657024 112.377757 -46.696266 112.534726 -46.715887 C 112.691695 -46.735508 112.946769 -46.759053 113.103738 -46.762978 C 113.260707 -46.770826 113.511857 -46.770826 113.67275 -46.762978 C 113.829719 -46.759053 114.080869 -46.735508 114.237837 -46.715887 C 114.39873 -46.696266 114.649881 -46.657024 114.806849 -46.62563 C 114.963818 -46.590312 115.218893 -46.531449 115.375861 -46.484358 C 115.53283 -46.441191 115.787905 -46.358783 115.944873 -46.29992 C 116.101842 -46.24498 116.356916 -46.142951 116.513885 -46.072315 C 116.670854 -46.001679 116.922004 -45.876104 117.082897 -45.793695 C 117.239866 -45.711286 117.491016 -45.56609 117.647985 -45.471909 C 117.808878 -45.373804 118.060028 -45.21291 118.216997 -45.103032 C 118.373966 -44.997078 118.62904 -44.81264 118.786009 -44.690989 C 118.942978 -44.573263 119.198052 -44.369203 119.355021 -44.23578 C 119.51199 -44.10628 119.767064 -43.8826 119.924033 -43.737404 C 120.081002 -43.592207 120.332152 -43.348906 120.493045 -43.191937 C 120.650014 -43.034968 120.901164 -42.77597 121.058133 -42.607228 C 121.219026 -42.438487 121.470176 -42.155943 121.627145 -41.975429 C 121.784113 -41.798839 122.039188 -41.500598 122.196156 -41.308311 C 122.353125 -41.116024 122.6082 -40.798162 122.765168 -40.598027 C 122.922137 -40.393968 123.177212 -40.056485 123.33418 -39.844577 C 123.491149 -39.628745 123.742299 -39.279489 123.903192 -39.051884 C 124.060161 -38.828204 124.311311 -38.459327 124.46828 -38.223874 C 124.629173 -37.988421 124.880323 -37.603847 125.037292 -37.356621 C 125.194261 -37.11332 125.449335 -36.709125 125.606304 -36.45405 C 125.763273 -36.195052 126.018347 -35.77516 126.175316 -35.512238 C 126.332285 -35.245391 126.587359 -34.809802 126.744328 -34.535107 C 126.901297 -34.260411 127.152447 -33.809126 127.31334 -33.522658 C 127.470309 -33.240114 127.721459 -32.773132 127.878428 -32.482739 C 128.039321 -32.188423 128.290471 -31.705744 128.44744 -31.403579 C 128.604408 -31.101414 128.859483 -30.610886 129.016452 -30.296949 C 129.17342 -29.986935 129.428495 -29.480711 129.585464 -29.158925 C 129.742432 -28.841063 129.997507 -28.323066 130.154476 -27.997355 C 130.311444 -27.667721 130.562594 -27.137951 130.723488 -26.800468 C 130.880456 -26.466909 131.131606 -25.925367 131.288575 -25.58396 C 131.449468 -25.238628 131.700618 -24.685313 131.857587 -24.336058 C 132.014556 -23.986802 132.26963 -23.421714 132.426599 -23.06461 C 132.583568 -22.71143 132.838642 -22.13457 132.995611 -21.773542 C 133.15258 -21.412514 133.40373 -20.827805 133.564623 -20.458928 C 133.721592 -20.093975 133.972742 -19.497494 134.133635 -19.124693 C 134.290604 -18.751892 134.541754 -18.147562 134.698723 -17.770837 C 134.859616 -17.394112 135.110766 -16.781933 135.267735 -16.401284 C 135.424704 -16.01671 135.679778 -15.400608 135.836747 -15.01211 C 135.993716 -14.627536 136.24879 -14.003585 136.405759 -13.611163 C 136.562728 -13.218741 136.813878 -12.590866 136.974771 -12.19452 C 137.131739 -11.798173 137.38289 -11.16245 137.543783 -10.766103 C 137.700751 -10.369757 137.951902 -9.730109 138.10887 -9.329839 C 138.269763 -8.929568 138.520914 -8.282072 138.677882 -7.881801 C 138.834851 -7.477607 139.089925 -6.83011 139.246894 -6.425916 C 139.403863 -6.021721 139.658937 -5.3703 139.815906 -4.962181 C 139.972875 -4.557987 140.224025 -3.902642 140.384918 -3.494523 C 140.541887 -3.086404 140.793037 -2.434983 140.95393 -2.026865 C 141.110899 -1.618746 141.362049 -0.963401 141.519018 -0.555282 C 141.679911 -0.147163 141.931061 0.508182 142.08803 0.920225 C 142.244999 1.328344 142.500073 1.979765 142.657042 2.387883 C 142.814011 2.796002 143.069085 3.451347 143.226054 3.859466 C 143.383023 4.267585 143.634173 4.919006 143.795066 5.327125 C 143.952035 5.731319 144.203185 6.38274 144.364078 6.786935 C 144.521047 7.191129 144.772197 7.838626 144.929165 8.238896 C 145.090059 8.643091 145.341209 9.286663 145.498177 9.686933 C 145.655146 10.087204 145.910221 10.726852 146.067189 11.123198 C 146.224158 11.519544 146.479233 12.155268 146.636201 12.54769 C 146.79317 12.940112 147.04432 13.567987 147.205213 13.960409 C 147.362182 14.348907 147.613332 14.972858 147.770301 15.357432 C 147.931194 15.74593 148.182344 16.362032 148.339313 16.742682 C 148.500206 17.123331 148.751356 17.731585 148.908325 18.108311 C 149.065294 18.485036 149.320368 19.085441 149.477337 19.458242 C 149.634306 19.831043 149.88938 20.419676 150.046349 20.784629 C 150.203318 21.153506 150.454468 21.73429 150.615361 22.095318 C 150.77233 22.456347 151.02348 23.029283 151.180449 23.382463 C 151.341342 23.739567 151.592492 24.30073 151.749461 24.646062 C 151.910354 24.995317 152.161504 25.544708 152.318473 25.886115 C 152.475441 26.227523 152.730516 26.765141 152.887485 27.0987 C 153.044453 27.432258 153.299528 27.962028 153.456497 28.287738 C 153.613465 28.613449 153.864615 29.127521 154.025508 29.445383 C 154.182477 29.763245 154.433627 30.265545 154.590596 30.575559 C 154.751489 30.885572 155.002639 31.3761 155.159608 31.674341 C 155.320501 31.976506 155.571651 32.451336 155.72862 32.741729 C 155.885589 33.036045 156.140663 33.495179 156.297632 33.777723 C 156.454601 34.060267 156.709675 34.507628 156.866644 34.778399 C 157.023613 35.053094 157.274763 35.484759 157.435656 35.747681 C 157.592625 36.010604 157.843775 36.426572 158.000744 36.677722 C 158.161637 36.932796 158.412787 37.329142 158.569756 37.576368 C 158.730649 37.81967 158.981799 38.200319 159.138768 38.435772 C 159.295737 38.667301 159.550811 39.032254 159.70778 39.255934 C 159.864748 39.475691 160.119823 39.824946 160.276792 40.03293 C 160.43376 40.244838 160.684911 40.574473 160.845804 40.774608 C 161.002772 40.974743 161.253923 41.288681 161.410891 41.477043 C 161.571784 41.665406 161.822934 41.959722 161.979903 42.136312 C 162.140796 42.312902 162.391946 42.591522 162.548915 42.756339 C 162.705884 42.921156 162.960958 43.180155 163.117927 43.333199 C 163.274896 43.486244 163.52997 43.721697 163.686939 43.862969 C 163.843908 44.004241 164.095058 44.223998 164.255951 44.353497 C 164.41292 44.482996 164.66407 44.679207 164.821039 44.796934 C 164.981932 44.91466 165.233082 45.095174 165.390051 45.201128 C 165.54702 45.307082 165.802094 45.464051 165.959063 45.558232 C 166.116032 45.64849 166.371106 45.785837 166.528075 45.868246 C 166.685044 45.94673 166.940118 46.064457 167.097087 46.131169 C 167.254056 46.19788 167.505206 46.295986 167.666099 46.350925 C 167.823068 46.405864 168.074218 46.484348 168.231186 46.523591 C 168.392079 46.566757 168.64323 46.62562 168.800198 46.65309 C 168.957167 46.68056 169.212242 46.715877 169.36921 46.731574 C 169.526179 46.747271 169.781254 46.766892 169.938222 46.766892 C 170.095191 46.770817 170.350265 46.766892 170.507234 46.75512 C 170.664203 46.747271 170.915353 46.723726 171.076246 46.700181 C 171.233215 46.676635 171.484365 46.629545 171.641334 46.594227 C 171.802227 46.558909 172.053377 46.492197 172.210346 46.445106 C 172.367315 46.394091 172.622389 46.307759 172.779358 46.248895 C 172.936327 46.186108 173.191401 46.080154 173.34837 46.005594 C 173.505339 45.931033 173.760413 45.801534 173.917382 45.719126 C 174.074351 45.632793 174.325501 45.483672 174.486394 45.385567 C 174.643363 45.287461 174.894513 45.11872 175.051482 45.004917 C 175.212375 44.895039 175.463525 44.706677 175.620494 44.581102 C 175.777462 44.459451 176.032537 44.251467 176.189506 44.114119 C 176.346474 43.980696 176.601549 43.753091 176.758517 43.603971 C 176.915486 43.458775 177.170561 43.211549 177.327529 43.050656 C 177.484498 42.889763 177.735648 42.622916 177.896541 42.454174 C 178.05351 42.281508 178.30466 41.99504 178.461629 41.814526 C 178.622522 41.630088 178.873672 41.327923 179.030641 41.135636 C 179.18761 40.939425 179.442684 40.617639 179.599653 40.413579 C 179.756622 40.205596 180.011696 39.868113 180.168665 39.652281 C 180.325634 39.436449 180.580708 39.079345 180.737677 38.85174 C 180.894646 38.624135 181.145796 38.24741 181.306689 38.011957 C 181.463658 37.772579 181.714808 37.380157 181.871777 37.132931 C 182.03267 36.885705 182.28382 36.477586 182.440789 36.218588 C 182.597757 35.959589 182.852832 35.539698 183.009801 35.272851 C 183.166769 35.002079 183.421844 34.562567 183.578813 34.287871 C 183.735781 34.009252 183.990856 33.554042 184.147825 33.267574 C 184.304793 32.981106 184.555943 32.5102 184.716837 32.215883 C 184.873805 31.917642 185.124955 31.434963 185.281924 31.132798 C 185.442817 30.826709 185.693967 30.332257 185.850936 30.01832 C 186.007905 29.704382 186.262979 29.194233 186.419948 28.872447 C 186.576917 28.550661 186.831991 28.02874 186.98896 27.699105 C 187.145929 27.369471 187.401003 26.835777 187.557972 26.498294 C 187.714941 26.160811 187.966091 25.615344 188.126984 25.273937 C 188.283953 24.928606 188.535103 24.371366 188.692072 24.022111 C 188.852965 23.672855 189.104115 23.103843 189.261084 22.746739 C 189.418053 22.389635 189.673127 21.80885 189.830096 21.447822 C 189.987065 21.08287 190.242139 20.498161 190.399108 20.129284 C 190.556077 19.760407 190.811151 19.163926 190.96812 18.787201 C 191.125088 18.4144 191.376239 17.81007 191.537132 17.42942 C 191.6941 17.052695 191.945251 16.440517 192.102219 16.055943 C 192.263112 15.67137 192.514263 15.051343 192.671231 14.662845 C 192.8282 14.274347 193.083274 13.650396 193.240243 13.257974 C 193.397212 12.865552 193.652286 12.233753 193.809255 11.837406 C 193.966224 11.444984 194.221298 10.805336 194.378267 10.40899 C 194.535236 10.00872 194.786386 9.369072 194.947279 8.968801 C 195.104248 8.568531 195.355398 7.921034 195.512367 7.51684 C 195.67326 7.112645 195.92441 6.465148 196.081379 6.060954 C 196.238348 5.652835 196.493422 5.001414 196.650391 4.59722 C 196.80736 4.189101 197.062434 3.53768 197.219403 3.129561 C 197.376372 2.721442 197.631446 2.066097 197.788415 1.657978 C 197.945384 1.249859 198.196534 0.594515 198.357427 0.186396 C 198.514396 -0.221723 198.765546 -0.877068 198.922514 -1.285187 C 199.083408 -1.693306 199.334558 -2.348651 199.491526 -2.75677 C 199.648495 -3.164888 199.90357 -3.820233 200.060538 -4.224428 C 200.217507 -4.632547 200.472582 -5.283968 200.62955 -5.692086 C 200.786519 -6.096281 201.041594 -6.743778 201.198562 -7.147972 C 201.355531 -7.552167 201.606681 -8.199663 201.767574 -8.599934 C 201.924543 -9.004129 202.175693 -9.647701 202.332662 -10.044047 C 202.493555 -10.444317 202.744705 -11.083965 202.901674 -11.480312 C 203.058643 -11.876658 203.313717 -12.508457 203.470686 -12.900879 C 203.627655 -13.293301 203.882729 -13.921177 204.039698 -14.309675 C 204.196667 -14.698172 204.451741 -15.318199 204.60871 -15.706697 C 204.765679 -16.091271 205.016829 -16.703449 205.177722 -17.084098 C 205.334691 -17.464748 205.585841 -18.073002 205.74281 -18.445803 C 205.903703 -18.822528 206.154853 -19.422934 206.311822 -19.79181 C 206.46879 -20.160687 206.723865 -20.753244 206.880834 -21.118197 C 207.037802 -21.479225 207.292877 -22.06001 207.449846 -22.421038 C 207.606814 -22.778142 207.861889 -23.347154 208.018857 -23.700334 C 208.175826 -24.053514 208.426976 -24.614677 208.587869 -24.960009 C 208.744838 -25.30534 208.995988 -25.854731 209.152957 -26.192214 C 209.31385 -26.529697 209.565 -27.067315 209.721969 -27.39695 C 209.878938 -27.730508 210.134012 -28.256354 210.290981 -28.57814 C 210.44795 -28.90385 210.703024 -29.413999 210.859993 -29.731861 C 211.016962 -30.045798 211.272036 -30.544174 211.429005 -30.854188 C 211.585974 -31.160277 211.837124 -31.64688 211.998017 -31.945121 C 212.154986 -32.243362 212.406136 -32.714268 212.563105 -33.004661 C 212.723998 -33.295053 212.975148 -33.750263 213.132117 -34.032806 C 213.289086 -34.311426 213.54416 -34.754863 213.701129 -35.025634 C 213.858097 -35.296405 214.113172 -35.720221 214.270141 -35.983144 C 214.427109 -36.246067 214.682184 -36.654186 214.839153 -36.905336 C 214.996121 -37.156486 215.247272 -37.552832 215.408165 -37.79221 C 215.565133 -38.035511 215.816283 -38.412236 215.973252 -38.639841 C 216.134145 -38.87137 216.385295 -39.232399 216.542264 -39.452155 C 216.699233 -39.671911 216.954307 -40.013318 217.111276 -40.221302 C 217.268245 -40.43321 217.523319 -40.75892 217.680288 -40.955131 C 217.837257 -41.151342 218.092331 -41.461356 218.2493 -41.645794 C 218.406269 -41.834157 218.657419 -42.120625 218.818312 -42.297215 C 218.975281 -42.46988 219.226431 -42.740652 219.3834 -42.901545 C 219.544293 -43.066362 219.795443 -43.317512 219.952412 -43.466632 C 220.109381 -43.619677 220.364455 -43.851206 220.521424 -43.988554 C 220.678393 -44.129826 220.933467 -44.341734 221.090436 -44.471233 C 221.247405 -44.596808 221.502479 -44.789095 221.659448 -44.902897 C 221.816417 -45.016699 222.067567 -45.189365 222.22846 -45.291395 C 222.385428 -45.393425 222.636579 -45.546469 222.793547 -45.636726 C 222.95444 -45.726983 223.205591 -45.860407 223.362559 -45.934967 C 223.519528 -46.013451 223.774603 -46.127254 223.931571 -46.190041 C 224.08854 -46.256753 224.343614 -46.34701 224.500583 -46.398025 C 224.657552 -46.44904 224.912626 -46.5236 225.069595 -46.558918 C 225.226564 -46.59816 225.477714 -46.649175 225.638607 -46.676645 C 225.795576 -46.704114 226.046726 -46.735508 226.203695 -46.747281 C 226.364588 -46.759053 226.772707 -46.770826 226.772707 -46.770826 " transform="matrix(0.995421, 0, 0, -0.995421, 35.316549, 62.423823)"/>
<path fill="none" stroke-width="19.92554" stroke-linecap="round" stroke-linejoin="round" stroke="rgb(64.99939%, 64.99939%, 64.99939%)" stroke-opacity="1" stroke-miterlimit="10" d="M 17.57644 26.29031 C 17.57644 26.29031 17.772651 25.866494 17.847211 25.701677 C 17.921771 25.53686 18.043422 25.273937 18.117982 25.10912 C 18.196466 24.944303 18.318117 24.677456 18.392677 24.508714 C 18.467238 24.343897 18.588888 24.073126 18.663449 23.904384 C 18.741933 23.735643 18.863584 23.464871 18.938144 23.29613 C 19.012704 23.127388 19.134355 22.852693 19.208915 22.683952 C 19.2874 22.511286 19.405126 22.232666 19.483611 22.06 C 19.558171 21.887335 19.679822 21.608715 19.754382 21.436049 C 19.828942 21.25946 19.950593 20.98084 20.029077 20.80425 C 20.103638 20.62766 20.225288 20.345116 20.299849 20.168526 C 20.374409 19.991936 20.49606 19.709392 20.57062 19.528878 C 20.649104 19.352288 20.770755 19.06582 20.845315 18.88923 C 20.919875 18.708716 21.041526 18.418324 21.116086 18.23781 C 21.194571 18.057296 21.312297 17.766903 21.390782 17.586389 C 21.465342 17.405875 21.586993 17.111559 21.661553 16.931044 C 21.736113 16.746606 21.857764 16.452289 21.936249 16.267851 C 22.010809 16.087337 22.13246 15.789096 22.20702 15.604658 C 22.28158 15.42022 22.403231 15.125903 22.481715 14.93754 C 22.556275 14.753102 22.677926 14.454861 22.752486 14.266499 C 22.827047 14.08206 22.948697 13.779895 23.023258 13.591533 C 23.101742 13.407094 23.223393 13.104929 23.297953 12.916567 C 23.372513 12.728204 23.494164 12.426039 23.568724 12.233753 C 23.647209 12.04539 23.764935 11.743225 23.84342 11.550938 C 23.91798 11.362576 24.039631 11.056486 24.114191 10.868124 C 24.188751 10.675837 24.310402 10.369748 24.388886 10.177461 C 24.463446 9.989098 24.585097 9.679085 24.659658 9.490722 C 24.734218 9.298436 24.855869 8.988422 24.930429 8.796135 C 25.008913 8.603849 25.130564 8.293835 25.205124 8.101548 C 25.279684 7.909262 25.401335 7.599248 25.475895 7.406961 C 25.55438 7.21075 25.676031 6.900737 25.750591 6.70845 C 25.825151 6.512239 25.946802 6.202226 26.021362 6.006015 C 26.099846 5.813728 26.217573 5.49979 26.296057 5.303579 C 26.370618 5.111292 26.492268 4.797355 26.566829 4.601144 C 26.641389 4.408857 26.76304 4.094919 26.841524 3.898708 C 26.916084 3.706421 27.037735 3.392484 27.112295 3.196273 C 27.186855 3.000062 27.308506 2.686124 27.383066 2.489913 C 27.461551 2.293702 27.583202 1.979765 27.657762 1.783553 C 27.732322 1.591267 27.853973 1.277329 27.928533 1.081118 C 28.007018 0.884907 28.128668 0.570969 28.203229 0.374758 C 28.277789 0.178547 28.39944 -0.13539 28.474 -0.331601 C 28.54856 -0.527812 28.670211 -0.84175 28.748695 -1.037961 C 28.823255 -1.234172 28.944906 -1.54811 29.019466 -1.744321 C 29.094027 -1.940532 29.215677 -2.254469 29.294162 -2.45068 C 29.368722 -2.642967 29.490373 -2.956905 29.564933 -3.153116 C 29.639493 -3.349327 29.761144 -3.663264 29.835704 -3.859476 C 29.914189 -4.051762 30.03584 -4.3657 30.1104 -4.561911 C 30.18496 -4.754198 30.306611 -5.068135 30.381171 -5.264346 C 30.459655 -5.456633 30.577382 -5.770571 30.655866 -5.962858 C 30.730427 -6.159069 30.852077 -6.469082 30.926638 -6.665293 C 31.001198 -6.85758 31.122849 -7.167593 31.201333 -7.363804 C 31.275893 -7.556091 31.397544 -7.866105 31.472104 -8.058391 C 31.546664 -8.250678 31.668315 -8.560692 31.742875 -8.752978 C 31.82136 -8.945265 31.943011 -9.255279 32.017571 -9.447565 C 32.092131 -9.639852 32.213782 -9.945941 32.288342 -10.138228 C 32.366826 -10.326591 32.488477 -10.63268 32.563037 -10.824967 C 32.637598 -11.017254 32.759248 -11.323343 32.833809 -11.511705 C 32.912293 -11.700068 33.03002 -12.006157 33.108504 -12.19452 C 33.183064 -12.382882 33.304715 -12.685047 33.379275 -12.87341 C 33.453836 -13.061772 33.575486 -13.363937 33.653971 -13.5523 C 33.728531 -13.740663 33.850182 -14.038903 33.924742 -14.227266 C 33.999302 -14.415628 34.120953 -14.713869 34.195513 -14.898308 C 34.273998 -15.082746 34.395648 -15.380987 34.470209 -15.565425 C 34.544769 -15.749863 34.66642 -16.04418 34.74098 -16.228618 C 34.819464 -16.413057 34.941115 -16.707373 35.015675 -16.891812 C 35.090235 -17.072326 35.211886 -17.366642 35.286446 -17.547156 C 35.361007 -17.727671 35.482657 -18.018063 35.561142 -18.198577 C 35.635702 -18.379091 35.757353 -18.669483 35.831913 -18.849998 C 35.906473 -19.026588 36.028124 -19.313056 36.106609 -19.49357 C 36.181169 -19.67016 36.30282 -19.956628 36.37738 -20.133218 C 36.45194 -20.309808 36.573591 -20.592351 36.648151 -20.765017 C 36.726635 -20.941607 36.848286 -21.224151 36.922846 -21.396817 C 36.997407 -21.573407 37.119057 -21.852026 37.193618 -22.024692 C 37.272102 -22.197358 37.389829 -22.472053 37.468313 -22.644719 C 37.542873 -22.817384 37.664524 -23.088156 37.739084 -23.260821 C 37.813644 -23.429563 37.935295 -23.700334 38.01378 -23.869076 C 38.08834 -24.037817 38.209991 -24.304664 38.284551 -24.473405 C 38.359111 -24.642147 38.480762 -24.90507 38.555322 -25.073811 C 38.633806 -25.238628 38.755457 -25.501551 38.830018 -25.666368 C 38.904578 -25.831186 39.100789 -26.251077 39.100789 -26.251077 " transform="matrix(0.995421, 0, 0, -0.995421, 35.316549, 62.423823)"/>
<path fill="none" stroke-width="19.92554" stroke-linecap="round" stroke-linejoin="round" stroke="rgb(34.999084%, 34.999084%, 34.999084%)" stroke-opacity="1" stroke-miterlimit="10" d="M 74.269652 26.29031 C 74.269652 26.29031 74.465863 25.866494 74.540423 25.701677 C 74.614984 25.53686 74.736635 25.273937 74.815119 25.10912 C 74.889679 24.944303 75.01133 24.677456 75.08589 24.508714 C 75.16045 24.343897 75.282101 24.073126 75.356661 23.904384 C 75.435146 23.735643 75.556797 23.464871 75.631357 23.29613 C 75.705917 23.127388 75.827568 22.852693 75.902128 22.683952 C 75.980612 22.511286 76.102263 22.232666 76.176823 22.06 C 76.251384 21.887335 76.373034 21.608715 76.447595 21.436049 C 76.522155 21.25946 76.643806 20.98084 76.72229 20.80425 C 76.79685 20.62766 76.918501 20.345116 76.993061 20.168526 C 77.067621 19.991936 77.189272 19.709392 77.267757 19.528878 C 77.342317 19.352288 77.463968 19.06582 77.538528 18.88923 C 77.613088 18.708716 77.734739 18.418324 77.809299 18.23781 C 77.887784 18.057296 78.009434 17.766903 78.083995 17.586389 C 78.158555 17.405875 78.280206 17.111559 78.354766 16.931044 C 78.43325 16.746606 78.550977 16.452289 78.629461 16.267851 C 78.704021 16.087337 78.825672 15.789096 78.900232 15.604658 C 78.974793 15.42022 79.096443 15.125903 79.174928 14.93754 C 79.249488 14.753102 79.371139 14.454861 79.445699 14.266499 C 79.520259 14.08206 79.64191 13.779895 79.720394 13.591533 C 79.794955 13.407094 79.916605 13.104929 79.991166 12.916567 C 80.065726 12.728204 80.187377 12.426039 80.261937 12.233753 C 80.340421 12.04539 80.462072 11.743225 80.536632 11.550938 C 80.611193 11.362576 80.732843 11.056486 80.807404 10.868124 C 80.885888 10.675837 81.003615 10.369748 81.082099 10.177461 C 81.156659 9.989098 81.27831 9.679085 81.35287 9.490722 C 81.42743 9.298436 81.549081 8.988422 81.627566 8.796135 C 81.702126 8.603849 81.823777 8.293835 81.898337 8.101548 C 81.972897 7.909262 82.094548 7.599248 82.169108 7.406961 C 82.247592 7.21075 82.369243 6.900737 82.443803 6.70845 C 82.518364 6.512239 82.640014 6.202226 82.714575 6.006015 C 82.793059 5.813728 82.91471 5.49979 82.98927 5.303579 C 83.06383 5.111292 83.185481 4.797355 83.260041 4.601144 C 83.334601 4.408857 83.456252 4.094919 83.534737 3.898708 C 83.609297 3.706421 83.730948 3.392484 83.805508 3.196273 C 83.880068 3.000062 84.001719 2.686124 84.080203 2.489913 C 84.154764 2.293702 84.276414 1.979765 84.350975 1.783553 C 84.425535 1.591267 84.547186 1.277329 84.621746 1.081118 C 84.70023 0.884907 84.821881 0.570969 84.896441 0.374758 C 84.971001 0.178547 85.092652 -0.13539 85.167212 -0.331601 C 85.245697 -0.527812 85.363423 -0.84175 85.441908 -1.037961 C 85.516468 -1.234172 85.638119 -1.54811 85.712679 -1.744321 C 85.787239 -1.940532 85.90889 -2.254469 85.987375 -2.45068 C 86.061935 -2.642967 86.183586 -2.956905 86.258146 -3.153116 C 86.332706 -3.349327 86.454357 -3.663264 86.532841 -3.859476 C 86.607401 -4.051762 86.729052 -4.3657 86.803612 -4.561911 C 86.878173 -4.754198 86.999823 -5.068135 87.074384 -5.264346 C 87.152868 -5.456633 87.274519 -5.770571 87.349079 -5.962858 C 87.423639 -6.159069 87.54529 -6.469082 87.61985 -6.665293 C 87.698335 -6.85758 87.816061 -7.167593 87.894546 -7.363804 C 87.969106 -7.556091 88.090757 -7.866105 88.165317 -8.058391 C 88.239877 -8.250678 88.361528 -8.560692 88.440012 -8.752978 C 88.514572 -8.945265 88.636223 -9.255279 88.710783 -9.447565 C 88.785344 -9.639852 88.906995 -9.945941 88.981555 -10.138228 C 89.060039 -10.326591 89.18169 -10.63268 89.25625 -10.824967 C 89.33081 -11.017254 89.452461 -11.323343 89.527021 -11.511705 C 89.605506 -11.700068 89.727157 -12.006157 89.801717 -12.19452 C 89.876277 -12.382882 89.997928 -12.685047 90.072488 -12.87341 C 90.150972 -13.061772 90.268699 -13.363937 90.347183 -13.5523 C 90.421744 -13.740663 90.543394 -14.038903 90.617955 -14.227266 C 90.692515 -14.415628 90.814166 -14.713869 90.89265 -14.898308 C 90.96721 -15.082746 91.088861 -15.380987 91.163421 -15.565425 C 91.237981 -15.749863 91.359632 -16.04418 91.434192 -16.228618 C 91.512677 -16.413057 91.634328 -16.707373 91.708888 -16.891812 C 91.783448 -17.072326 91.905099 -17.366642 91.979659 -17.547156 C 92.058144 -17.727671 92.17587 -18.018063 92.254355 -18.198577 C 92.328915 -18.379091 92.450566 -18.669483 92.525126 -18.849998 C 92.599686 -19.026588 92.721337 -19.313056 92.799821 -19.49357 C 92.874381 -19.67016 92.996032 -19.956628 93.070592 -20.133218 C 93.145153 -20.309808 93.266803 -20.592351 93.345288 -20.765017 C 93.419848 -20.941607 93.541499 -21.224151 93.616059 -21.396817 C 93.690619 -21.573407 93.81227 -21.852026 93.88683 -22.024692 C 93.965315 -22.197358 94.086965 -22.472053 94.161526 -22.644719 C 94.236086 -22.817384 94.357737 -23.088156 94.432297 -23.260821 C 94.510781 -23.429563 94.628508 -23.700334 94.706992 -23.869076 C 94.781553 -24.037817 94.903203 -24.304664 94.977764 -24.473405 C 95.052324 -24.642147 95.173975 -24.90507 95.252459 -25.073811 C 95.327019 -25.238628 95.44867 -25.501551 95.52323 -25.666368 C 95.59779 -25.831186 95.794001 -26.251077 95.794001 -26.251077 " transform="matrix(0.995421, 0, 0, -0.995421, 35.316549, 62.423823)"/>
<path fill="none" stroke-width="19.92554" stroke-linecap="round" stroke-linejoin="round" stroke="rgb(64.99939%, 64.99939%, 64.99939%)" stroke-opacity="1" stroke-miterlimit="10" d="M 130.962865 26.29031 C 130.962865 26.29031 131.159076 25.866494 131.233636 25.701677 C 131.312121 25.53686 131.429847 25.273937 131.508332 25.10912 C 131.582892 24.944303 131.704543 24.677456 131.779103 24.508714 C 131.853663 24.343897 131.975314 24.073126 132.053798 23.904384 C 132.128358 23.735643 132.250009 23.464871 132.324569 23.29613 C 132.39913 23.127388 132.52078 22.852693 132.595341 22.683952 C 132.673825 22.511286 132.795476 22.232666 132.870036 22.06 C 132.944596 21.887335 133.066247 21.608715 133.140807 21.436049 C 133.219292 21.25946 133.337018 20.98084 133.415503 20.80425 C 133.490063 20.62766 133.611714 20.345116 133.686274 20.168526 C 133.760834 19.991936 133.882485 19.709392 133.960969 19.528878 C 134.03553 19.352288 134.15718 19.06582 134.231741 18.88923 C 134.306301 18.708716 134.427952 18.418324 134.506436 18.23781 C 134.580996 18.057296 134.702647 17.766903 134.777207 17.586389 C 134.851767 17.405875 134.973418 17.111559 135.047978 16.931044 C 135.126463 16.746606 135.248114 16.452289 135.322674 16.267851 C 135.397234 16.087337 135.518885 15.789096 135.593445 15.604658 C 135.671929 15.42022 135.789656 15.125903 135.868141 14.93754 C 135.942701 14.753102 136.064352 14.454861 136.138912 14.266499 C 136.213472 14.08206 136.335123 13.779895 136.413607 13.591533 C 136.488167 13.407094 136.609818 13.104929 136.684378 12.916567 C 136.758939 12.728204 136.880589 12.426039 136.95515 12.233753 C 137.033634 12.04539 137.155285 11.743225 137.229845 11.550938 C 137.304405 11.362576 137.426056 11.056486 137.500616 10.868124 C 137.579101 10.675837 137.700751 10.369748 137.775312 10.177461 C 137.849872 9.989098 137.971523 9.679085 138.046083 9.490722 C 138.124567 9.298436 138.242294 8.988422 138.320778 8.796135 C 138.395338 8.603849 138.516989 8.293835 138.591549 8.101548 C 138.66611 7.909262 138.787761 7.599248 138.866245 7.406961 C 138.940805 7.21075 139.062456 6.900737 139.137016 6.70845 C 139.211576 6.512239 139.333227 6.202226 139.407787 6.006015 C 139.486272 5.813728 139.607923 5.49979 139.682483 5.303579 C 139.757043 5.111292 139.878694 4.797355 139.953254 4.601144 C 140.031738 4.408857 140.153389 4.094919 140.227949 3.898708 C 140.30251 3.706421 140.42416 3.392484 140.498721 3.196273 C 140.573281 3.000062 140.694932 2.686124 140.773416 2.489913 C 140.847976 2.293702 140.969627 1.979765 141.044187 1.783553 C 141.118747 1.591267 141.240398 1.277329 141.318883 1.081118 C 141.393443 0.884907 141.515094 0.570969 141.589654 0.374758 C 141.664214 0.178547 141.785865 -0.13539 141.860425 -0.331601 C 141.93891 -0.527812 142.06056 -0.84175 142.135121 -1.037961 C 142.209681 -1.234172 142.331332 -1.54811 142.405892 -1.744321 C 142.484376 -1.940532 142.602103 -2.254469 142.680587 -2.45068 C 142.755147 -2.642967 142.876798 -2.956905 142.951358 -3.153116 C 143.025919 -3.349327 143.147569 -3.663264 143.226054 -3.859476 C 143.300614 -4.051762 143.422265 -4.3657 143.496825 -4.561911 C 143.571385 -4.754198 143.693036 -5.068135 143.77152 -5.264346 C 143.846081 -5.456633 143.967731 -5.770571 144.042292 -5.962858 C 144.116852 -6.159069 144.238503 -6.469082 144.313063 -6.665293 C 144.391547 -6.85758 144.513198 -7.167593 144.587758 -7.363804 C 144.662319 -7.556091 144.783969 -7.866105 144.85853 -8.058391 C 144.937014 -8.250678 145.054741 -8.560692 145.133225 -8.752978 C 145.207785 -8.945265 145.329436 -9.255279 145.403996 -9.447565 C 145.478556 -9.639852 145.600207 -9.945941 145.678692 -10.138228 C 145.753252 -10.326591 145.874903 -10.63268 145.949463 -10.824967 C 146.024023 -11.017254 146.145674 -11.323343 146.220234 -11.511705 C 146.298718 -11.700068 146.420369 -12.006157 146.494929 -12.19452 C 146.56949 -12.382882 146.69114 -12.685047 146.765701 -12.87341 C 146.844185 -13.061772 146.965836 -13.363937 147.040396 -13.5523 C 147.114956 -13.740663 147.236607 -14.038903 147.311167 -14.227266 C 147.385727 -14.415628 147.507378 -14.713869 147.585863 -14.898308 C 147.660423 -15.082746 147.782074 -15.380987 147.856634 -15.565425 C 147.931194 -15.749863 148.052845 -16.04418 148.131329 -16.228618 C 148.20589 -16.413057 148.32754 -16.707373 148.402101 -16.891812 C 148.476661 -17.072326 148.598312 -17.366642 148.672872 -17.547156 C 148.751356 -17.727671 148.873007 -18.018063 148.947567 -18.198577 C 149.022127 -18.379091 149.143778 -18.669483 149.218338 -18.849998 C 149.296823 -19.026588 149.414549 -19.313056 149.493034 -19.49357 C 149.567594 -19.67016 149.689245 -19.956628 149.763805 -20.133218 C 149.838365 -20.309808 149.960016 -20.592351 150.038501 -20.765017 C 150.113061 -20.941607 150.234712 -21.224151 150.309272 -21.396817 C 150.383832 -21.573407 150.505483 -21.852026 150.583967 -22.024692 C 150.658527 -22.197358 150.780178 -22.472053 150.854738 -22.644719 C 150.929299 -22.817384 151.050949 -23.088156 151.12551 -23.260821 C 151.203994 -23.429563 151.325645 -23.700334 151.400205 -23.869076 C 151.474765 -24.037817 151.596416 -24.304664 151.670976 -24.473405 C 151.749461 -24.642147 151.867187 -24.90507 151.945672 -25.073811 C 152.020232 -25.238628 152.141883 -25.501551 152.216443 -25.666368 C 152.291003 -25.831186 152.491138 -26.251077 152.491138 -26.251077 " transform="matrix(0.995421, 0, 0, -0.995421, 35.316549, 62.423823)"/>
<path fill="none" stroke-width="19.92554" stroke-linecap="round" stroke-linejoin="round" stroke="rgb(34.999084%, 34.999084%, 34.999084%)" stroke-opacity="1" stroke-miterlimit="10" d="M 187.656078 26.29031 C 187.656078 26.29031 187.852289 25.866494 187.926849 25.701677 C 188.005333 25.53686 188.126984 25.273937 188.201544 25.10912 C 188.276104 24.944303 188.397755 24.677456 188.472315 24.508714 C 188.5508 24.343897 188.668526 24.073126 188.747011 23.904384 C 188.821571 23.735643 188.943222 23.464871 189.017782 23.29613 C 189.092342 23.127388 189.213993 22.852693 189.292478 22.683952 C 189.367038 22.511286 189.488689 22.232666 189.563249 22.06 C 189.637809 21.887335 189.75946 21.608715 189.83402 21.436049 C 189.912504 21.25946 190.034155 20.98084 190.108715 20.80425 C 190.183276 20.62766 190.304926 20.345116 190.379487 20.168526 C 190.457971 19.991936 190.575698 19.709392 190.654182 19.528878 C 190.728742 19.352288 190.850393 19.06582 190.924953 18.88923 C 190.999513 18.708716 191.121164 18.418324 191.199649 18.23781 C 191.274209 18.057296 191.39586 17.766903 191.47042 17.586389 C 191.54498 17.405875 191.666631 17.111559 191.745115 16.931044 C 191.819676 16.746606 191.941326 16.452289 192.015887 16.267851 C 192.090447 16.087337 192.212098 15.789096 192.286658 15.604658 C 192.365142 15.42022 192.486793 15.125903 192.561353 14.93754 C 192.635913 14.753102 192.757564 14.454861 192.832124 14.266499 C 192.910609 14.08206 193.028335 13.779895 193.10682 13.591533 C 193.18138 13.407094 193.303031 13.104929 193.377591 12.916567 C 193.452151 12.728204 193.573802 12.426039 193.652286 12.233753 C 193.726847 12.04539 193.848497 11.743225 193.923058 11.550938 C 193.997618 11.362576 194.119269 11.056486 194.193829 10.868124 C 194.272313 10.675837 194.393964 10.369748 194.468524 10.177461 C 194.543084 9.989098 194.664735 9.679085 194.739296 9.490722 C 194.81778 9.298436 194.939431 8.988422 195.013991 8.796135 C 195.088551 8.603849 195.210202 8.293835 195.284762 8.101548 C 195.363247 7.909262 195.480973 7.599248 195.559458 7.406961 C 195.634018 7.21075 195.755669 6.900737 195.830229 6.70845 C 195.904789 6.512239 196.02644 6.202226 196.104924 6.006015 C 196.179484 5.813728 196.301135 5.49979 196.375695 5.303579 C 196.450256 5.111292 196.571906 4.797355 196.646467 4.601144 C 196.724951 4.408857 196.846602 4.094919 196.921162 3.898708 C 196.995722 3.706421 197.117373 3.392484 197.191933 3.196273 C 197.270418 3.000062 197.388144 2.686124 197.466629 2.489913 C 197.541189 2.293702 197.66284 1.979765 197.7374 1.783553 C 197.81196 1.591267 197.933611 1.277329 198.012095 1.081118 C 198.086656 0.884907 198.208306 0.570969 198.282867 0.374758 C 198.357427 0.178547 198.479078 -0.13539 198.557562 -0.331601 C 198.632122 -0.527812 198.753773 -0.84175 198.828333 -1.037961 C 198.902893 -1.234172 199.024544 -1.54811 199.099104 -1.744321 C 199.177589 -1.940532 199.29924 -2.254469 199.3738 -2.45068 C 199.44836 -2.642967 199.570011 -2.956905 199.644571 -3.153116 C 199.723055 -3.349327 199.840782 -3.663264 199.919266 -3.859476 C 199.993827 -4.051762 200.115478 -4.3657 200.190038 -4.561911 C 200.264598 -4.754198 200.386249 -5.068135 200.464733 -5.264346 C 200.539293 -5.456633 200.660944 -5.770571 200.735504 -5.962858 C 200.810065 -6.159069 200.931715 -6.469082 201.006276 -6.665293 C 201.08476 -6.85758 201.206411 -7.167593 201.280971 -7.363804 C 201.355531 -7.556091 201.477182 -7.866105 201.551742 -8.058391 C 201.630227 -8.250678 201.751877 -8.560692 201.826438 -8.752978 C 201.900998 -8.945265 202.022649 -9.255279 202.097209 -9.447565 C 202.175693 -9.639852 202.29342 -9.945941 202.371904 -10.138228 C 202.446464 -10.326591 202.568115 -10.63268 202.642675 -10.824967 C 202.717236 -11.017254 202.838886 -11.323343 202.917371 -11.511705 C 202.991931 -11.700068 203.113582 -12.006157 203.188142 -12.19452 C 203.262702 -12.382882 203.384353 -12.685047 203.458913 -12.87341 C 203.537398 -13.061772 203.659049 -13.363937 203.733609 -13.5523 C 203.808169 -13.740663 203.92982 -14.038903 204.00438 -14.227266 C 204.082864 -14.415628 204.200591 -14.713869 204.279075 -14.898308 C 204.353636 -15.082746 204.475286 -15.380987 204.549847 -15.565425 C 204.624407 -15.749863 204.746058 -16.04418 204.824542 -16.228618 C 204.899102 -16.413057 205.020753 -16.707373 205.095313 -16.891812 C 205.169873 -17.072326 205.291524 -17.366642 205.370009 -17.547156 C 205.444569 -17.727671 205.56622 -18.018063 205.64078 -18.198577 C 205.71534 -18.379091 205.836991 -18.669483 205.911551 -18.849998 C 205.990036 -19.026588 206.111686 -19.313056 206.186247 -19.49357 C 206.260807 -19.67016 206.382458 -19.956628 206.457018 -20.133218 C 206.535502 -20.309808 206.653229 -20.592351 206.731713 -20.765017 C 206.806273 -20.941607 206.927924 -21.224151 207.002484 -21.396817 C 207.077045 -21.573407 207.198695 -21.852026 207.27718 -22.024692 C 207.35174 -22.197358 207.473391 -22.472053 207.547951 -22.644719 C 207.622511 -22.817384 207.744162 -23.088156 207.818722 -23.260821 C 207.897207 -23.429563 208.018857 -23.700334 208.093418 -23.869076 C 208.167978 -24.037817 208.289629 -24.304664 208.364189 -24.473405 C 208.442673 -24.642147 208.564324 -24.90507 208.638884 -25.073811 C 208.713444 -25.238628 208.835095 -25.501551 208.909656 -25.666368 C 208.98814 -25.831186 209.184351 -26.251077 209.184351 -26.251077 " transform="matrix(0.995421, 0, 0, -0.995421, 35.316549, 62.423823)"/>
<g fill="rgb(0%, 0%, 0%)" fill-opacity="1">
<use xlink:href="#glyph-0-0" x="21.511061" y="98.487913"/>
<use xlink:href="#glyph-0-1" x="21.511061" y="91.307676"/>
<use xlink:href="#glyph-0-2" x="21.511061" y="80.597298"/>
<use xlink:href="#glyph-0-3" x="21.511061" y="74.702306"/>
<use xlink:href="#glyph-0-4" x="21.511061" y="65.054398"/>
<use xlink:href="#glyph-0-5" x="21.511061" y="57.17156"/>
<use xlink:href="#glyph-0-6" x="21.511061" y="41.097426"/>
<use xlink:href="#glyph-0-7" x="21.511061" y="31.723703"/>
</g>
<g fill="rgb(0%, 0%, 0%)" fill-opacity="1">
<use xlink:href="#glyph-0-8" x="286.696095" y="91.847462"/>
</g>
<g fill="rgb(0%, 0%, 0%)" fill-opacity="1">
<use xlink:href="#glyph-0-3" x="286.696095" y="81.342724"/>
<use xlink:href="#glyph-0-4" x="286.696095" y="71.694815"/>
<use xlink:href="#glyph-0-5" x="286.696095" y="63.811977"/>
<use xlink:href="#glyph-0-6" x="286.696095" y="47.737843"/>
<use xlink:href="#glyph-0-7" x="286.696095" y="38.36412"/>
</g>
<g fill="rgb(100%, 100%, 100%)" fill-opacity="1">
<use xlink:href="#glyph-1-0" x="101.935075" y="30.406119"/>
<use xlink:href="#glyph-1-1" x="105.55202" y="38.16267"/>
<use xlink:href="#glyph-1-2" x="108.720515" y="44.957516"/>
<use xlink:href="#glyph-1-3" x="112.362607" y="52.767994"/>
<use xlink:href="#glyph-1-4" x="115.040739" y="58.511257"/>
<use xlink:href="#glyph-1-5" x="118.661875" y="66.276796"/>
<use xlink:href="#glyph-1-6" x="122.433892" y="74.365899"/>
<use xlink:href="#glyph-1-5" x="124.261224" y="78.28462"/>
<use xlink:href="#glyph-1-7" x="128.033241" y="86.373723"/>
</g>
<g fill="rgb(100%, 100%, 100%)" fill-opacity="1">
<use xlink:href="#glyph-1-3" x="152.673656" y="21.221373"/>
<use xlink:href="#glyph-1-1" x="155.351788" y="26.964636"/>
<use xlink:href="#glyph-1-5" x="158.520282" y="33.759482"/>
<use xlink:href="#glyph-1-3" x="162.292299" y="41.848585"/>
<use xlink:href="#glyph-1-1" x="164.970431" y="47.591848"/>
</g>
<g fill="rgb(100%, 100%, 100%)" fill-opacity="1">
<use xlink:href="#glyph-1-8" x="169.744128" y="57.829057"/>
<use xlink:href="#glyph-1-2" x="174.320842" y="67.643835"/>
<use xlink:href="#glyph-1-9" x="177.962934" y="75.454313"/>
<use xlink:href="#glyph-1-6" x="181.739142" y="83.552404"/>
<use xlink:href="#glyph-1-5" x="183.566474" y="87.471125"/>
<use xlink:href="#glyph-1-7" x="187.338491" y="95.560228"/>
</g>
</svg>
