<?xml version="1.0" encoding="UTF-8"?>
<svg xmlns="http://www.w3.org/2000/svg" xmlns:xlink="http://www.w3.org/1999/xlink" width="127.215" height="141.388" viewBox="0 0 127.215 141.388">
<path fill="none" stroke-width="2.49069" stroke-linecap="round" stroke-linejoin="round" stroke="rgb(13.331604%, 13.331604%, 13.331604%)" stroke-opacity="0.8" stroke-miterlimit="10" d="M 0.00185116 0.00103376 L -56.693507 -113.385752 C -56.693507 -121.215018 -31.31128 -127.56254 0.00185116 -127.56254 C 31.311052 -127.56254 56.693279 -121.215018 56.693279 -113.385752 Z M 0.00185116 0.00103376 " transform="matrix(0.993867, 0, 0, -0.993867, 63.21691, 7.001027)"/>
<path fill="none" stroke-width="2.49069" stroke-linecap="round" stroke-linejoin="round" stroke="rgb(13.331604%, 13.331604%, 13.331604%)" stroke-opacity="0.8" stroke-dasharray="2.98883 2.98883" stroke-miterlimit="10" d="M -56.693507 -113.385752 C -56.693507 -105.560417 -31.31128 -99.212895 0.00185116 -99.212895 C 31.311052 -99.212895 56.693279 -105.560417 56.693279 -113.385752 " transform="matrix(0.993867, 0, 0, -0.993867, 63.21691, 7.001027)"/>
<path fill="none" stroke-width="2.49069" stroke-linecap="round" stroke-linejoin="round" stroke="rgb(13.331604%, 13.331604%, 13.331604%)" stroke-opacity="0.8" stroke-dasharray="2.98883 2.98883" stroke-miterlimit="10" d="M -34.015364 -68.033396 L -34.015364 -113.385752 " transform="matrix(0.993867, 0, 0, -0.993867, 63.21691, 7.001027)"/>
<path fill="none" stroke-width="2.49069" stroke-linecap="round" stroke-linejoin="round" stroke="rgb(13.331604%, 13.331604%, 13.331604%)" stroke-opacity="0.8" stroke-dasharray="2.98883 2.98883" stroke-miterlimit="10" d="M 34.015136 -68.033396 L 34.015136 -113.385752 " transform="matrix(0.993867, 0, 0, -0.993867, 63.21691, 7.001027)"/>
<path fill="none" stroke-width="2.49069" stroke-linecap="round" stroke-linejoin="round" stroke="rgb(13.331604%, 13.331604%, 13.331604%)" stroke-opacity="0.8" stroke-dasharray="2.98883 2.98883" stroke-miterlimit="10" d="M -34.015364 -69.448324 C -34.015364 -64.75155 -18.785242 -60.946968 0.00185116 -60.946968 C 18.785014 -60.946968 34.015136 -64.75155 34.015136 -69.448324 " transform="matrix(0.993867, 0, 0, -0.993867, 63.21691, 7.001027)"/>
<path fill="none" stroke-width="2.49069" stroke-linecap="round" stroke-linejoin="round" stroke="rgb(13.331604%, 13.331604%, 13.331604%)" stroke-opacity="0.8" stroke-dasharray="2.98883 2.98883" stroke-miterlimit="10" d="M -34.015364 -69.448324 C -34.015364 -74.145097 -18.785242 -77.95361 0.00185116 -77.95361 C 18.785014 -77.95361 34.015136 -74.145097 34.015136 -69.448324 " transform="matrix(0.993867, 0, 0, -0.993867, 63.21691, 7.001027)"/>
<path fill="none" stroke-width="2.49069" stroke-linecap="round" stroke-linejoin="round" stroke="rgb(13.331604%, 13.331604%, 13.331604%)" stroke-opacity="0.8" stroke-dasharray="2.98883 2.98883" stroke-miterlimit="10" d="M -34.015364 -113.385752 C -34.015364 -108.688979 -18.785242 -104.884396 0.00185116 -104.884396 C 18.785014 -104.884396 34.015136 -108.688979 34.015136 -113.385752 " transform="matrix(0.993867, 0, 0, -0.993867, 63.21691, 7.001027)"/>
<path fill="none" stroke-width="2.49069" stroke-linecap="round" stroke-linejoin="round" stroke="rgb(13.331604%, 13.331604%, 13.331604%)" stroke-opacity="0.8" stroke-dasharray="2.98883 2.98883" stroke-miterlimit="10" d="M -34.015364 -113.385752 C -34.015364 -118.082526 -18.785242 -121.891039 0.00185116 -121.891039 C 18.785014 -121.891039 34.015136 -118.082526 34.015136 -113.385752 " transform="matrix(0.993867, 0, 0, -0.993867, 63.21691, 7.001027)"/>
</svg>
