<?xml version="1.0" encoding="UTF-8" standalone="no"?>
<!-- Created with Inkscape (http://www.inkscape.org/) -->

<svg
   width="270.93332mm"
   height="270.93332mm"
   viewBox="0 0 270.93332 270.93332"
   version="1.1"
   id="svg1"
   xml:space="preserve"
   inkscape:version="1.4 (86a8ad7, 2024-10-11)"
   sodipodi:docname="zo_math_logo_black_bg_white_text_master.svg"
   inkscape:export-filename="zo_math_logo_black_bg_white_text_1024.png"
   inkscape:export-xdpi="96"
   inkscape:export-ydpi="96"
   xmlns:inkscape="http://www.inkscape.org/namespaces/inkscape"
   xmlns:sodipodi="http://sodipodi.sourceforge.net/DTD/sodipodi-0.dtd"
   xmlns="http://www.w3.org/2000/svg"
   xmlns:svg="http://www.w3.org/2000/svg"><sodipodi:namedview
     id="namedview1"
     pagecolor="#ffffff"
     bordercolor="#000000"
     borderopacity="0.25"
     inkscape:showpageshadow="2"
     inkscape:pageopacity="0.0"
     inkscape:pagecheckerboard="0"
     inkscape:deskcolor="#d1d1d1"
     inkscape:document-units="mm"
     inkscape:zoom="0.71281576"
     inkscape:cx="535.90286"
     inkscape:cy="520.4711"
     inkscape:window-width="1314"
     inkscape:window-height="1000"
     inkscape:window-x="594"
     inkscape:window-y="0"
     inkscape:window-maximized="0"
     inkscape:current-layer="svg1" /><defs
     id="defs1"><rect
       x="90.366365"
       y="115.7819"
       width="986.97014"
       height="663.628"
       id="rect10" /><rect
       x="100.25019"
       y="122.84178"
       width="907.89957"
       height="509.72278"
       id="rect9" /><rect
       x="103.07413"
       y="593.02927"
       width="910.72352"
       height="344.52176"
       id="rect8" /><rect
       x="128.48967"
       y="604.32506"
       width="874.01218"
       height="351.58164"
       id="rect7" /><rect
       x="216.03209"
       y="802.00149"
       width="481.48329"
       height="128.48967"
       id="rect6" /><rect
       x="288.04279"
       y="855.65651"
       width="368.52533"
       height="67.774773"
       id="rect5" /></defs><g
     inkscape:groupmode="layer"
     id="layer2"
     inkscape:label="Vector logo"
     sodipodi:insensitive="true"><path
       id="rect11"
       style="opacity:1;stroke-width:6.00001"
       inkscape:label="bg_black"
       d="M 0,0 H 270.93332 V 270.93332 H 0 Z"
       sodipodi:insensitive="true" /><path
       id="rect12"
       style="opacity:1;fill:none;stroke:#ffffff;stroke-width:2.41554"
       inkscape:label="frame_border"
       d="M 11.791103,11.791103 H 259.14222 V 259.14222 H 11.791103 Z"
       sodipodi:insensitive="true" /><g
       id="g14"
       inkscape:label="wordmark_group"
       transform="translate(0,14.576989)"
       sodipodi:insensitive="true"><path
         d="m 37.815667,205.6017 v -52.42862 h 15.843027 l 9.512971,35.76304 9.40568,-35.76304 H 88.456139 V 205.6017 H 78.6213 V 164.33115 L 68.214253,205.6017 H 58.021786 L 47.650503,164.33115 v 41.27055 z m 108.433563,0 h -11.51571 l -4.57767,-11.9091 h -20.95714 l -4.32733,11.9091 H 93.641781 l 20.420699,-52.42862 h 11.19384 z m -19.49086,-20.74257 -7.22414,-19.45509 -7.08108,19.45509 z m 31.47148,20.74257 v -43.55939 h -15.55693 v -8.86923 h 41.66395 v 8.86923 h -15.52116 v 43.55939 z m 32.97352,0 v -52.42862 h 10.58587 v 20.63527 h 20.74256 v -20.63527 h 10.58586 V 205.6017 H 222.5318 v -22.92411 h -20.74256 v 22.92411 z"
         id="text7"
         style="font-weight:bold;font-size:280px;font-family:Arial;-inkscape-font-specification:'Arial Bold';white-space:pre;fill:#ffffff;stroke-width:5.93193"
         aria-label="MATH"
         inkscape:label="math_word"
         sodipodi:insensitive="true" /><path
         style="font-weight:bold;font-size:560px;font-family:Arial;-inkscape-font-specification:'Arial Bold';white-space:pre;opacity:1;fill:#ffffff;stroke-width:5.95552"
         d="M 37.815697,144.04713 V 124.73048 L 92.699815,55.928377 H 44.016891 V 37.98632 h 76.481379 v 16.639812 l -57.2363,71.551288 h 59.44592 v 17.86971 z M 131.76021,91.667801 q 0,-16.205732 4.77563,-27.202477 3.5639,-8.102864 9.69381,-14.541748 6.2012,-6.438884 13.54284,-9.549805 9.76509,-4.196127 22.52387,-4.196127 23.09409,0 36.92204,14.541748 13.89923,14.541749 13.89923,40.441979 0,25.683279 -13.75667,40.225029 -13.75667,14.4694 -36.77949,14.4694 -23.30793,0 -37.0646,-14.39705 -13.75666,-14.4694 -13.75666,-39.790949 z m 21.73981,-0.72347 q 0,18.014449 8.19698,27.347269 8.19697,9.26041 20.81319,9.26041 12.61622,0 20.67064,-9.18807 8.12571,-9.26046 8.12571,-27.708999 0,-18.231447 -7.91187,-27.202476 -7.84059,-8.971028 -20.88448,-8.971028 -13.04389,0 -21.02703,9.115723 -7.98314,9.043374 -7.98314,27.347171 z"
         id="text9"
         inkscape:label="zo_word"
         aria-label="ZO"
         sodipodi:insensitive="true" /></g></g></svg>
