<svg xmlns="http://www.w3.org/2000/svg" viewBox="0 0 320 180" width="320" height="180">
  <rect width="320" height="180" fill="none"/>
  <path d="M 24.00 144.59 L 24.30 144.57 L 24.61 144.55 L 24.91 144.53 L 25.21 144.52 L 25.51 144.50 L 25.82 144.48 L 26.12 144.46 L 26.42 144.44 L 26.72 144.42 L 27.03 144.40 L 27.33 144.38 L 27.63 144.36 L 27.93 144.34 L 28.24 144.32 L 28.54 144.29 L 28.84 144.27 L 29.14 144.25 L 29.45 144.23 L 29.75 144.21 L 30.05 144.19 L 30.35 144.16 L 30.66 144.14 L 30.96 144.12 L 31.26 144.10 L 31.56 144.07 L 31.87 144.05 L 32.17 144.03 L 32.47 144.00 L 32.77 143.98 L 33.08 143.96 L 33.38 143.93 L 33.68 143.91 L 33.98 143.88 L 34.29 143.86 L 34.59 143.83 L 34.89 143.81 L 35.19 143.78 L 35.50 143.76 L 35.80 143.73 L 36.10 143.70 L 36.40 143.68 L 36.71 143.65 L 37.01 143.62 L 37.31 143.60 L 37.62 143.57 L 37.92 143.54 L 38.22 143.51 L 38.52 143.48 L 38.83 143.46 L 39.13 143.43 L 39.43 143.40 L 39.73 143.37 L 40.04 143.34 L 40.34 143.31 L 40.64 143.28 L 40.94 143.25 L 41.25 143.22 L 41.55 143.19 L 41.85 143.16 L 42.15 143.13 L 42.46 143.09 L 42.76 143.06 L 43.06 143.03 L 43.36 143.00 L 43.67 142.97 L 43.97 142.93 L 44.27 142.90 L 44.57 142.86 L 44.88 142.83 L 45.18 142.80 L 45.48 142.76 L 45.78 142.73 L 46.09 142.69 L 46.39 142.66 L 46.69 142.62 L 46.99 142.58 L 47.30 142.55 L 47.60 142.51 L 47.90 142.47 L 48.20 142.44 L 48.51 142.40 L 48.81 142.36 L 49.11 142.32 L 49.41 142.28 L 49.72 142.24 L 50.02 142.20 L 50.32 142.16 L 50.63 142.12 L 50.93 142.08 L 51.23 142.04 L 51.53 142.00 L 51.84 141.96 L 52.14 141.92 L 52.44 141.88 L 52.74 141.83 L 53.05 141.79 L 53.35 141.75 L 53.65 141.70 L 53.95 141.66 L 54.26 141.61 L 54.56 141.57 L 54.86 141.52 L 55.16 141.48 L 55.47 141.43 L 55.77 141.38 L 56.07 141.34 L 56.37 141.29 L 56.68 141.24 L 56.98 141.19 L 57.28 141.14 L 57.58 141.09 L 57.89 141.04 L 58.19 140.99 L 58.49 140.94 L 58.79 140.89 L 59.10 140.84 L 59.40 140.79 L 59.70 140.73 L 60.00 140.68 L 60.31 140.63 L 60.61 140.57 L 60.91 140.52 L 61.21 140.46 L 61.52 140.41 L 61.82 140.35 L 62.12 140.30 L 62.42 140.24 L 62.73 140.18 L 63.03 140.12 L 63.33 140.07 L 63.64 140.01 L 63.94 139.95 L 64.24 139.89 L 64.54 139.83 L 64.85 139.77 L 65.15 139.70 L 65.45 139.64 L 65.75 139.58 L 66.06 139.52 L 66.36 139.45 L 66.66 139.39 L 66.96 139.32 L 67.27 139.26 L 67.57 139.19 L 67.87 139.12 L 68.17 139.06 L 68.48 138.99 L 68.78 138.92 L 69.08 138.85 L 69.38 138.78 L 69.69 138.71 L 69.99 138.64 L 70.29 138.57 L 70.59 138.49 L 70.90 138.42 L 71.20 138.35 L 71.50 138.27 L 71.80 138.20 L 72.11 138.12 L 72.41 138.05 L 72.71 137.97 L 73.01 137.89 L 73.32 137.81 L 73.62 137.73 L 73.92 137.65 L 74.22 137.57 L 74.53 137.49 L 74.83 137.41 L 75.13 137.33 L 75.43 137.24 L 75.74 137.16 L 76.04 137.07 L 76.34 136.99 L 76.65 136.90 L 76.95 136.82 L 77.25 136.73 L 77.55 136.64 L 77.86 136.55 L 78.16 136.46 L 78.46 136.37 L 78.76 136.27 L 79.07 136.18 L 79.37 136.09 L 79.67 135.99 L 79.97 135.90 L 80.28 135.80 L 80.58 135.70 L 80.88 135.61 L 81.18 135.51 L 81.49 135.41 L 81.79 135.31 L 82.09 135.21 L 82.39 135.10 L 82.70 135.00 L 83.00 134.90 L 83.30 134.79 L 83.60 134.68 L 83.91 134.58 L 84.21 134.47 L 84.51 134.36 L 84.81 134.25 L 85.12 134.14 L 85.42 134.03 L 85.72 133.91 L 86.02 133.80 L 86.33 133.69 L 86.63 133.57 L 86.93 133.45 L 87.23 133.33 L 87.54 133.22 L 87.84 133.10 L 88.14 132.97 L 88.44 132.85 L 88.75 132.73 L 89.05 132.60 L 89.35 132.48 L 89.66 132.35 L 89.96 132.22 L 90.26 132.09 L 90.56 131.96 L 90.87 131.83 L 91.17 131.70 L 91.47 131.57 L 91.77 131.43 L 92.08 131.29 L 92.38 131.16 L 92.68 131.02 L 92.98 130.88 L 93.29 130.74 L 93.59 130.60 L 93.89 130.45 L 94.19 130.31 L 94.50 130.16 L 94.80 130.01 L 95.10 129.86 L 95.40 129.71 L 95.71 129.56 L 96.01 129.41 L 96.31 129.25 L 96.61 129.10 L 96.92 128.94 L 97.22 128.78 L 97.52 128.62 L 97.82 128.46 L 98.13 128.30 L 98.43 128.14 L 98.73 127.97 L 99.03 127.80 L 99.34 127.63 L 99.64 127.46 L 99.94 127.29 L 100.24 127.12 L 100.55 126.94 L 100.85 126.77 L 101.15 126.59 L 101.45 126.41 L 101.76 126.23 L 102.06 126.05 L 102.36 125.86 L 102.67 125.68 L 102.97 125.49 L 103.27 125.30 L 103.57 125.11 L 103.88 124.92 L 104.18 124.72 L 104.48 124.53 L 104.78 124.33 L 105.09 124.13 L 105.39 123.93 L 105.69 123.72 L 105.99 123.52 L 106.30 123.31 L 106.60 123.10 L 106.90 122.89 L 107.20 122.68 L 107.51 122.47 L 107.81 122.25 L 108.11 122.03 L 108.41 121.81 L 108.72 121.59 L 109.02 121.36 L 109.32 121.14 L 109.62 120.91 L 109.93 120.68 L 110.23 120.45 L 110.53 120.21 L 110.83 119.98 L 111.14 119.74 L 111.44 119.50 L 111.74 119.25 L 112.04 119.01 L 112.35 118.76 L 112.65 118.51 L 112.95 118.26 L 113.25 118.01 L 113.56 117.75 L 113.86 117.49 L 114.16 117.23 L 114.46 116.97 L 114.77 116.70 L 115.07 116.44 L 115.37 116.17 L 115.68 115.89 L 115.98 115.62 L 116.28 115.34 L 116.58 115.06 L 116.89 114.78 L 117.19 114.49 L 117.49 114.21 L 117.79 113.91 L 118.10 113.62 L 118.40 113.33 L 118.70 113.03 L 119.00 112.73 L 119.31 112.42 L 119.61 112.12 L 119.91 111.81 L 120.21 111.50 L 120.52 111.18 L 120.82 110.87 L 121.12 110.55 L 121.42 110.22 L 121.73 109.90 L 122.03 109.57 L 122.33 109.24 L 122.63 108.90 L 122.94 108.57 L 123.24 108.23 L 123.54 107.88 L 123.84 107.54 L 124.15 107.19 L 124.45 106.83 L 124.75 106.48 L 125.05 106.12 L 125.36 105.75 L 125.66 105.39 L 125.96 105.02 L 126.26 104.65 L 126.57 104.27 L 126.87 103.89 L 127.17 103.51 L 127.47 103.13 L 127.78 102.74 L 128.08 102.34 L 128.38 101.95 L 128.69 101.55 L 128.99 101.14 L 129.29 100.74 L 129.59 100.33 L 129.90 99.91 L 130.20 99.49 L 130.50 99.07 L 130.80 98.65 L 131.11 98.22 L 131.41 97.79 L 131.71 97.35 L 132.01 96.91 L 132.32 96.46 L 132.62 96.01 L 132.92 95.56 L 133.22 95.10 L 133.53 94.64 L 133.83 94.18 L 134.13 93.71 L 134.43 93.24 L 134.74 92.76 L 135.04 92.28 L 135.34 91.79 L 135.64 91.30 L 135.95 90.80 L 136.25 90.31 L 136.55 89.80 L 136.85 89.29 L 137.16 88.78 L 137.46 88.26 L 137.76 87.74 L 138.06 87.21 L 138.37 86.68 L 138.67 86.15 L 138.97 85.61 L 139.27 85.06 L 139.58 84.51 L 139.88 83.95 L 140.18 83.39 L 140.48 82.83 L 140.79 82.26 L 141.09 81.68 L 141.39 81.10 L 141.70 80.51 L 142.00 79.92 L 142.30 79.33 L 142.60 78.72 L 142.91 78.12 L 143.21 77.50 L 143.51 76.89 L 143.81 76.26 L 144.12 75.63 L 144.42 75.00 L 144.72 74.36 L 145.02 73.71 L 145.33 73.06 L 145.63 72.40 L 145.93 71.74 L 146.23 71.07 L 146.54 70.39 L 146.84 69.71 L 147.14 69.02 L 147.44 68.33 L 147.75 67.63 L 148.05 66.92 L 148.35 66.21 L 148.65 65.49 L 148.96 64.76 L 149.26 64.03 L 149.56 63.29 L 149.86 62.55 L 150.17 61.80 L 150.47 61.04 L 150.77 60.27 L 151.07 59.50 L 151.38 58.72 L 151.68 57.93 L 151.98 57.14 L 152.28 56.34 L 152.59 55.53 L 152.89 54.72 L 153.19 53.90 L 153.49 53.07 L 153.80 52.23 L 154.10 51.39 L 154.40 50.54 L 154.71 49.68 L 155.01 48.81 L 155.31 47.94 L 155.61 47.05 L 155.92 46.16 L 156.22 45.26 L 156.52 44.36 L 156.82 43.44 L 157.13 42.52 L 157.43 41.59 L 157.73 40.65 L 158.03 39.70 L 158.34 38.75 L 158.64 37.78 L 158.94 36.81 L 159.24 35.83 L 159.55 34.84 L 159.85 33.84 L 160.15 33.84 L 160.45 34.84 L 160.76 35.83 L 161.06 36.81 L 161.36 37.78 L 161.66 38.75 L 161.97 39.70 L 162.27 40.65 L 162.57 41.59 L 162.87 42.52 L 163.18 43.44 L 163.48 44.36 L 163.78 45.26 L 164.08 46.16 L 164.39 47.05 L 164.69 47.94 L 164.99 48.81 L 165.29 49.68 L 165.60 50.54 L 165.90 51.39 L 166.20 52.23 L 166.51 53.07 L 166.81 53.90 L 167.11 54.72 L 167.41 55.53 L 167.72 56.34 L 168.02 57.14 L 168.32 57.93 L 168.62 58.72 L 168.93 59.50 L 169.23 60.27 L 169.53 61.04 L 169.83 61.80 L 170.14 62.55 L 170.44 63.29 L 170.74 64.03 L 171.04 64.76 L 171.35 65.49 L 171.65 66.21 L 171.95 66.92 L 172.25 67.63 L 172.56 68.33 L 172.86 69.02 L 173.16 69.71 L 173.46 70.39 L 173.77 71.07 L 174.07 71.74 L 174.37 72.40 L 174.67 73.06 L 174.98 73.71 L 175.28 74.36 L 175.58 75.00 L 175.88 75.63 L 176.19 76.26 L 176.49 76.89 L 176.79 77.50 L 177.09 78.12 L 177.40 78.72 L 177.70 79.33 L 178.00 79.92 L 178.30 80.51 L 178.61 81.10 L 178.91 81.68 L 179.21 82.26 L 179.52 82.83 L 179.82 83.39 L 180.12 83.95 L 180.42 84.51 L 180.73 85.06 L 181.03 85.61 L 181.33 86.15 L 181.63 86.68 L 181.94 87.21 L 182.24 87.74 L 182.54 88.26 L 182.84 88.78 L 183.15 89.29 L 183.45 89.80 L 183.75 90.31 L 184.05 90.80 L 184.36 91.30 L 184.66 91.79 L 184.96 92.28 L 185.26 92.76 L 185.57 93.24 L 185.87 93.71 L 186.17 94.18 L 186.47 94.64 L 186.78 95.10 L 187.08 95.56 L 187.38 96.01 L 187.68 96.46 L 187.99 96.91 L 188.29 97.35 L 188.59 97.79 L 188.89 98.22 L 189.20 98.65 L 189.50 99.07 L 189.80 99.49 L 190.10 99.91 L 190.41 100.33 L 190.71 100.74 L 191.01 101.14 L 191.31 101.55 L 191.62 101.95 L 191.92 102.34 L 192.22 102.74 L 192.53 103.13 L 192.83 103.51 L 193.13 103.89 L 193.43 104.27 L 193.74 104.65 L 194.04 105.02 L 194.34 105.39 L 194.64 105.75 L 194.95 106.12 L 195.25 106.48 L 195.55 106.83 L 195.85 107.19 L 196.16 107.54 L 196.46 107.88 L 196.76 108.23 L 197.06 108.57 L 197.37 108.90 L 197.67 109.24 L 197.97 109.57 L 198.27 109.90 L 198.58 110.22 L 198.88 110.55 L 199.18 110.87 L 199.48 111.18 L 199.79 111.50 L 200.09 111.81 L 200.39 112.12 L 200.69 112.42 L 201.00 112.73 L 201.30 113.03 L 201.60 113.33 L 201.90 113.62 L 202.21 113.91 L 202.51 114.21 L 202.81 114.49 L 203.11 114.78 L 203.42 115.06 L 203.72 115.34 L 204.02 115.62 L 204.32 115.89 L 204.63 116.17 L 204.93 116.44 L 205.23 116.70 L 205.54 116.97 L 205.84 117.23 L 206.14 117.49 L 206.44 117.75 L 206.75 118.01 L 207.05 118.26 L 207.35 118.51 L 207.65 118.76 L 207.96 119.01 L 208.26 119.25 L 208.56 119.50 L 208.86 119.74 L 209.17 119.98 L 209.47 120.21 L 209.77 120.45 L 210.07 120.68 L 210.38 120.91 L 210.68 121.14 L 210.98 121.36 L 211.28 121.59 L 211.59 121.81 L 211.89 122.03 L 212.19 122.25 L 212.49 122.47 L 212.80 122.68 L 213.10 122.89 L 213.40 123.10 L 213.70 123.31 L 214.01 123.52 L 214.31 123.72 L 214.61 123.93 L 214.91 124.13 L 215.22 124.33 L 215.52 124.53 L 215.82 124.72 L 216.12 124.92 L 216.43 125.11 L 216.73 125.30 L 217.03 125.49 L 217.33 125.68 L 217.64 125.86 L 217.94 126.05 L 218.24 126.23 L 218.55 126.41 L 218.85 126.59 L 219.15 126.77 L 219.45 126.94 L 219.76 127.12 L 220.06 127.29 L 220.36 127.46 L 220.66 127.63 L 220.97 127.80 L 221.27 127.97 L 221.57 128.14 L 221.87 128.30 L 222.18 128.46 L 222.48 128.62 L 222.78 128.78 L 223.08 128.94 L 223.39 129.10 L 223.69 129.25 L 223.99 129.41 L 224.29 129.56 L 224.60 129.71 L 224.90 129.86 L 225.20 130.01 L 225.50 130.16 L 225.81 130.31 L 226.11 130.45 L 226.41 130.60 L 226.71 130.74 L 227.02 130.88 L 227.32 131.02 L 227.62 131.16 L 227.92 131.29 L 228.23 131.43 L 228.53 131.57 L 228.83 131.70 L 229.13 131.83 L 229.44 131.96 L 229.74 132.09 L 230.04 132.22 L 230.34 132.35 L 230.65 132.48 L 230.95 132.60 L 231.25 132.73 L 231.56 132.85 L 231.86 132.97 L 232.16 133.10 L 232.46 133.22 L 232.77 133.33 L 233.07 133.45 L 233.37 133.57 L 233.67 133.69 L 233.98 133.80 L 234.28 133.91 L 234.58 134.03 L 234.88 134.14 L 235.19 134.25 L 235.49 134.36 L 235.79 134.47 L 236.09 134.58 L 236.40 134.68 L 236.70 134.79 L 237.00 134.90 L 237.30 135.00 L 237.61 135.10 L 237.91 135.21 L 238.21 135.31 L 238.51 135.41 L 238.82 135.51 L 239.12 135.61 L 239.42 135.70 L 239.72 135.80 L 240.03 135.90 L 240.33 135.99 L 240.63 136.09 L 240.93 136.18 L 241.24 136.27 L 241.54 136.37 L 241.84 136.46 L 242.14 136.55 L 242.45 136.64 L 242.75 136.73 L 243.05 136.82 L 243.35 136.90 L 243.66 136.99 L 243.96 137.07 L 244.26 137.16 L 244.57 137.24 L 244.87 137.33 L 245.17 137.41 L 245.47 137.49 L 245.78 137.57 L 246.08 137.65 L 246.38 137.73 L 246.68 137.81 L 246.99 137.89 L 247.29 137.97 L 247.59 138.05 L 247.89 138.12 L 248.20 138.20 L 248.50 138.27 L 248.80 138.35 L 249.10 138.42 L 249.41 138.49 L 249.71 138.57 L 250.01 138.64 L 250.31 138.71 L 250.62 138.78 L 250.92 138.85 L 251.22 138.92 L 251.52 138.99 L 251.83 139.06 L 252.13 139.12 L 252.43 139.19 L 252.73 139.26 L 253.04 139.32 L 253.34 139.39 L 253.64 139.45 L 253.94 139.52 L 254.25 139.58 L 254.55 139.64 L 254.85 139.70 L 255.15 139.77 L 255.46 139.83 L 255.76 139.89 L 256.06 139.95 L 256.36 140.01 L 256.67 140.07 L 256.97 140.12 L 257.27 140.18 L 257.58 140.24 L 257.88 140.30 L 258.18 140.35 L 258.48 140.41 L 258.79 140.46 L 259.09 140.52 L 259.39 140.57 L 259.69 140.63 L 260.00 140.68 L 260.30 140.73 L 260.60 140.79 L 260.90 140.84 L 261.21 140.89 L 261.51 140.94 L 261.81 140.99 L 262.11 141.04 L 262.42 141.09 L 262.72 141.14 L 263.02 141.19 L 263.32 141.24 L 263.63 141.29 L 263.93 141.34 L 264.23 141.38 L 264.53 141.43 L 264.84 141.48 L 265.14 141.52 L 265.44 141.57 L 265.74 141.61 L 266.05 141.66 L 266.35 141.70 L 266.65 141.75 L 266.95 141.79 L 267.26 141.83 L 267.56 141.88 L 267.86 141.92 L 268.16 141.96 L 268.47 142.00 L 268.77 142.04 L 269.07 142.08 L 269.37 142.12 L 269.68 142.16 L 269.98 142.20 L 270.28 142.24 L 270.59 142.28 L 270.89 142.32 L 271.19 142.36 L 271.49 142.40 L 271.80 142.44 L 272.10 142.47 L 272.40 142.51 L 272.70 142.55 L 273.01 142.58 L 273.31 142.62 L 273.61 142.66 L 273.91 142.69 L 274.22 142.73 L 274.52 142.76 L 274.82 142.80 L 275.12 142.83 L 275.43 142.86 L 275.73 142.90 L 276.03 142.93 L 276.33 142.97 L 276.64 143.00 L 276.94 143.03 L 277.24 143.06 L 277.54 143.09 L 277.85 143.13 L 278.15 143.16 L 278.45 143.19 L 278.75 143.22 L 279.06 143.25 L 279.36 143.28 L 279.66 143.31 L 279.96 143.34 L 280.27 143.37 L 280.57 143.40 L 280.87 143.43 L 281.17 143.46 L 281.48 143.48 L 281.78 143.51 L 282.08 143.54 L 282.38 143.57 L 282.69 143.60 L 282.99 143.62 L 283.29 143.65 L 283.60 143.68 L 283.90 143.70 L 284.20 143.73 L 284.50 143.76 L 284.81 143.78 L 285.11 143.81 L 285.41 143.83 L 285.71 143.86 L 286.02 143.88 L 286.32 143.91 L 286.62 143.93 L 286.92 143.96 L 287.23 143.98 L 287.53 144.00 L 287.83 144.03 L 288.13 144.05 L 288.44 144.07 L 288.74 144.10 L 289.04 144.12 L 289.34 144.14 L 289.65 144.16 L 289.95 144.19 L 290.25 144.21 L 290.55 144.23 L 290.86 144.25 L 291.16 144.27 L 291.46 144.29 L 291.76 144.32 L 292.07 144.34 L 292.37 144.36 L 292.67 144.38 L 292.97 144.40 L 293.28 144.42 L 293.58 144.44 L 293.88 144.46 L 294.18 144.48 L 294.49 144.50 L 294.79 144.52 L 295.09 144.53 L 295.39 144.55 L 295.70 144.57 L 296.00 144.59" fill="none" stroke="#5F6B7A" stroke-width="2.5" stroke-linecap="round" stroke-linejoin="round"/>
</svg>
