<svg xmlns="http://www.w3.org/2000/svg" viewBox="0 0 320 180" width="320" height="180">
  <rect width="320" height="180" fill="#F4F5F7"/>
  <path d="M 24.00 71.87 L 24.23 71.86 L 24.45 71.85 L 24.68 71.84 L 24.91 71.83 L 25.13 71.82 L 25.36 71.81 L 25.59 71.79 L 25.81 71.78 L 26.04 71.77 L 26.27 71.76 L 26.50 71.75 L 26.72 71.74 L 26.95 71.73 L 27.18 71.72 L 27.40 71.71 L 27.63 71.70 L 27.86 71.69 L 28.08 71.68 L 28.31 71.67 L 28.54 71.66 L 28.76 71.64 L 28.99 71.63 L 29.22 71.62 L 29.44 71.61 L 29.67 71.60 L 29.90 71.59 L 30.13 71.58 L 30.35 71.57 L 30.58 71.55 L 30.81 71.54 L 31.03 71.53 L 31.26 71.52 L 31.49 71.51 L 31.71 71.50 L 31.94 71.48 L 32.17 71.47 L 32.39 71.46 L 32.62 71.45 L 32.85 71.44 L 33.07 71.42 L 33.30 71.41 L 33.53 71.40 L 33.75 71.39 L 33.98 71.37 L 34.21 71.36 L 34.44 71.35 L 34.66 71.34 L 34.89 71.32 L 35.12 71.31 L 35.34 71.30 L 35.57 71.29 L 35.80 71.27 L 36.02 71.26 L 36.25 71.25 L 36.48 71.23 L 36.70 71.22 L 36.93 71.21 L 37.16 71.20 L 37.38 71.18 L 37.61 71.17 L 37.84 71.16 L 38.07 71.14 L 38.29 71.13 L 38.52 71.11 L 38.75 71.10 L 38.97 71.09 L 39.20 71.07 L 39.43 71.06 L 39.65 71.04 L 39.88 71.03 L 40.11 71.02 L 40.33 71.00 L 40.56 70.99 L 40.79 70.97 L 41.01 70.96 L 41.24 70.94 L 41.47 70.93 L 41.69 70.92 L 41.92 70.90 L 42.15 70.89 L 42.38 70.87 L 42.60 70.86 L 42.83 70.84 L 43.06 70.83 L 43.28 70.81 L 43.51 70.79 L 43.74 70.78 L 43.96 70.76 L 44.19 70.75 L 44.42 70.73 L 44.64 70.72 L 44.87 70.70 L 45.10 70.68 L 45.32 70.67 L 45.55 70.65 L 45.78 70.64 L 46.01 70.62 L 46.23 70.60 L 46.46 70.59 L 46.69 70.57 L 46.91 70.55 L 47.14 70.54 L 47.37 70.52 L 47.59 70.50 L 47.82 70.49 L 48.05 70.47 L 48.27 70.45 L 48.50 70.43 L 48.73 70.42 L 48.95 70.40 L 49.18 70.38 L 49.41 70.36 L 49.63 70.34 L 49.86 70.33 L 50.09 70.31 L 50.32 70.29 L 50.54 70.27 L 50.77 70.25 L 51.00 70.24 L 51.22 70.22 L 51.45 70.20 L 51.68 70.18 L 51.90 70.16 L 52.13 70.14 L 52.36 70.12 L 52.58 70.10 L 52.81 70.08 L 53.04 70.06 L 53.26 70.04 L 53.49 70.02 L 53.72 70.00 L 53.94 69.98 L 54.17 69.96 L 54.40 69.94 L 54.63 69.92 L 54.85 69.90 L 55.08 69.88 L 55.31 69.86 L 55.53 69.84 L 55.76 69.82 L 55.99 69.80 L 56.21 69.77 L 56.44 69.75 L 56.67 69.73 L 56.89 69.71 L 57.12 69.69 L 57.35 69.66 L 57.57 69.64 L 57.80 69.62 L 58.03 69.60 L 58.26 69.57 L 58.48 69.55 L 58.71 69.53 L 58.94 69.51 L 59.16 69.48 L 59.39 69.46 L 59.62 69.43 L 59.84 69.41 L 60.07 69.39 L 60.30 69.36 L 60.52 69.34 L 60.75 69.31 L 60.98 69.29 L 61.20 69.26 L 61.43 69.24 L 61.66 69.21 L 61.88 69.19 L 62.11 69.16 L 62.34 69.14 L 62.57 69.11 L 62.79 69.08 L 63.02 69.06 L 63.25 69.03 L 63.47 69.00 L 63.70 68.98 L 63.93 68.95 L 64.15 68.92 L 64.38 68.90 L 64.61 68.87 L 64.83 68.84 L 65.06 68.81 L 65.29 68.78 L 65.51 68.76 L 65.74 68.73 L 65.97 68.70 L 66.20 68.67 L 66.42 68.64 L 66.65 68.61 L 66.88 68.58 L 67.10 68.55 L 67.33 68.52 L 67.56 68.49 L 67.78 68.46 L 68.01 68.43 L 68.24 68.39 L 68.46 68.36 L 68.69 68.33 L 68.92 68.30 L 69.14 68.27 L 69.37 68.23 L 69.60 68.20 L 69.82 68.17 L 70.05 68.14 L 70.28 68.10 L 70.51 68.07 L 70.73 68.03 L 70.96 68.00 L 71.19 67.96 L 71.41 67.93 L 71.64 67.89 L 71.87 67.86 L 72.09 67.82 L 72.32 67.79 L 72.55 67.75 L 72.77 67.71 L 73.00 67.68 L 73.23 67.64 L 73.45 67.60 L 73.68 67.56 L 73.91 67.52 L 74.14 67.48 L 74.36 67.45 L 74.59 67.41 L 74.82 67.37 L 75.04 67.33 L 75.27 67.29 L 75.50 67.24 L 75.72 67.20 L 75.95 67.16 L 76.18 67.12 L 76.40 67.08 L 76.63 67.03 L 76.86 66.99 L 77.08 66.95 L 77.31 66.90 L 77.54 66.86 L 77.76 66.81 L 77.99 66.77 L 78.22 66.72 L 78.45 66.68 L 78.67 66.63 L 78.90 66.58 L 79.13 66.54 L 79.35 66.49 L 79.58 66.44 L 79.81 66.39 L 80.03 66.34 L 80.26 66.29 L 80.49 66.24 L 80.71 66.19 L 80.94 66.14 L 81.17 66.09 L 81.39 66.03 L 81.62 65.98 L 81.85 65.93 L 82.08 65.87 L 82.30 65.82 L 82.53 65.76 L 82.76 65.71 L 82.98 65.65 L 83.21 65.59 L 83.44 65.54 L 83.66 65.48 L 83.89 65.42 L 84.12 65.36 L 84.34 65.30 L 84.57 65.24 L 84.80 65.18 L 85.02 65.12 L 85.25 65.05 L 85.48 64.99 L 85.70 64.92 L 85.93 64.86 L 86.16 64.79 L 86.39 64.73 L 86.61 64.66 L 86.84 64.59 L 87.07 64.52 L 87.29 64.45 L 87.52 64.38 L 87.75 64.31 L 87.97 64.24 L 88.20 64.17 L 88.43 64.09 L 88.65 64.02 L 88.88 63.94 L 89.11 63.87 L 89.33 63.79 L 89.56 63.71 L 89.79 63.63 L 90.02 63.55 L 90.24 63.47 L 90.47 63.39 L 90.70 63.30 L 90.92 63.22 L 91.15 63.13 L 91.38 63.05 L 91.60 62.96 L 91.83 62.87 L 92.06 62.78 L 92.28 62.69 L 92.51 62.59 L 92.74 62.50 L 92.96 62.40 L 93.19 62.31 L 93.42 62.21 L 93.64 62.11 L 93.87 62.01 L 94.10 61.91 L 94.33 61.80 L 94.55 61.70 L 94.78 61.59 L 95.01 61.48 L 95.23 61.37 L 95.46 61.26 L 95.69 61.15 L 95.91 61.03 L 96.14 60.91 L 96.37 60.80 L 96.59 60.68 L 96.82 60.55 L 97.05 60.43 L 97.27 60.30 L 97.50 60.17 L 97.73 60.04 L 97.95 59.91 L 98.18 59.78 L 98.41 59.64 L 98.64 59.50 L 98.86 59.36 L 99.09 59.22 L 99.32 59.07 L 99.54 58.92 L 99.77 58.77 L 100.00 58.62 L 100.22 58.46 L 100.45 58.30 L 100.68 58.14 L 100.90 57.97 L 101.13 57.81 L 101.36 57.64 L 101.58 57.46 L 101.81 57.28 L 102.04 57.10 L 102.27 56.92 L 102.49 56.73 L 102.72 56.54 L 102.95 56.34 L 103.17 56.14 L 103.40 55.94 L 103.63 55.73 L 103.85 55.52 L 104.08 55.31 L 104.31 55.08 L 104.53 54.86 L 104.76 54.63 L 104.99 54.39 L 105.21 54.15 L 105.44 53.91 L 105.67 53.66 L 105.89 53.40 L 106.12 53.14 L 106.35 52.87 L 106.58 52.60 L 106.80 52.31 L 107.03 52.03 L 107.26 51.73 L 107.48 51.43 L 107.71 51.12 L 107.94 50.80 L 108.16 50.48 L 108.39 50.14 L 108.62 49.80 L 108.84 49.45 L 109.07 49.09 L 109.30 48.72 L 109.52 48.33 L 109.75 47.94 L 109.98 47.54 L 110.21 47.12 L 110.43 46.70 L 110.66 46.26 L 110.89 45.81 L 111.11 45.34 L 111.34 44.86 L 111.57 44.36 L 111.79 43.85 L 112.02 43.32 L 112.25 42.78 L 112.47 42.21 L 112.70 41.63 L 112.93 41.03 L 113.15 40.40 L 113.38 39.76 L 113.61 39.09 L 113.83 38.39 L 114.06 37.67 L 114.29 36.92 L 114.52 36.14 L 114.74 35.33 L 114.97 34.48 L 115.20 33.60 L 115.42 32.68 L 115.65 31.72 L 115.88 30.72 L 116.10 29.68 L 116.33 28.58 L 116.56 27.43 L 116.78 26.23 L 117.01 24.96 L 117.24 23.63 L 117.46 22.23" fill="none" stroke="#7E8692" stroke-width="2.3" stroke-linecap="round" stroke-linejoin="round"/>
  <path d="M 131.76 156.73 L 131.98 153.68 L 132.21 150.86 L 132.44 148.23 L 132.66 145.79 L 132.89 143.50 L 133.12 141.37 L 133.34 139.36 L 133.57 137.47 L 133.80 135.70 L 134.03 134.02 L 134.25 132.44 L 134.48 130.94 L 134.71 129.52 L 134.93 128.17 L 135.16 126.88 L 135.39 125.66 L 135.61 124.50 L 135.84 123.39 L 136.07 122.33 L 136.29 121.32 L 136.52 120.35 L 136.75 119.42 L 136.97 118.54 L 137.20 117.68 L 137.43 116.86 L 137.65 116.07 L 137.88 115.32 L 138.11 114.59 L 138.34 113.89 L 138.56 113.21 L 138.79 112.56 L 139.02 111.93 L 139.24 111.32 L 139.47 110.73 L 139.70 110.16 L 139.92 109.61 L 140.15 109.08 L 140.38 108.56 L 140.60 108.06 L 140.83 107.58 L 141.06 107.11 L 141.28 106.65 L 141.51 106.21 L 141.74 105.78 L 141.96 105.36 L 142.19 104.96 L 142.42 104.56 L 142.65 104.18 L 142.87 103.81 L 143.10 103.44 L 143.33 103.09 L 143.55 102.74 L 143.78 102.41 L 144.01 102.08 L 144.23 101.76 L 144.46 101.45 L 144.69 101.14 L 144.91 100.85 L 145.14 100.56 L 145.37 100.27 L 145.59 100.00 L 145.82 99.73 L 146.05 99.46 L 146.28 99.21 L 146.50 98.95 L 146.73 98.71 L 146.96 98.47 L 147.18 98.23 L 147.41 98.00 L 147.64 97.77 L 147.86 97.55 L 148.09 97.33 L 148.32 97.12 L 148.54 96.91 L 148.77 96.71 L 149.00 96.51 L 149.22 96.31 L 149.45 96.12 L 149.68 95.93 L 149.90 95.74 L 150.13 95.56 L 150.36 95.38 L 150.59 95.21 L 150.81 95.04 L 151.04 94.87 L 151.27 94.70 L 151.49 94.54 L 151.72 94.38 L 151.95 94.22 L 152.17 94.07 L 152.40 93.91 L 152.63 93.77 L 152.85 93.62 L 153.08 93.47 L 153.31 93.33 L 153.53 93.19 L 153.76 93.06 L 153.99 92.92 L 154.22 92.79 L 154.44 92.66 L 154.67 92.53 L 154.90 92.40 L 155.12 92.28 L 155.35 92.15 L 155.58 92.03 L 155.80 91.92 L 156.03 91.80 L 156.26 91.68 L 156.48 91.57 L 156.71 91.46 L 156.94 91.35 L 157.16 91.24 L 157.39 91.13 L 157.62 91.02 L 157.84 90.92 L 158.07 90.82 L 158.30 90.72 L 158.53 90.62 L 158.75 90.52 L 158.98 90.42 L 159.21 90.33 L 159.43 90.23 L 159.66 90.14 L 159.89 90.05 L 160.11 89.95 L 160.34 89.87 L 160.57 89.78 L 160.79 89.69 L 161.02 89.60 L 161.25 89.52 L 161.47 89.43 L 161.70 89.35 L 161.93 89.27 L 162.16 89.19 L 162.38 89.11 L 162.61 89.03 L 162.84 88.95 L 163.06 88.88 L 163.29 88.80 L 163.52 88.73 L 163.74 88.65 L 163.97 88.58 L 164.20 88.51 L 164.42 88.43 L 164.65 88.36 L 164.88 88.29 L 165.10 88.22 L 165.33 88.16 L 165.56 88.09 L 165.78 88.02 L 166.01 87.96 L 166.24 87.89 L 166.47 87.83 L 166.69 87.76 L 166.92 87.70 L 167.15 87.64 L 167.37 87.58 L 167.60 87.52 L 167.83 87.46 L 168.05 87.40 L 168.28 87.34 L 168.51 87.28 L 168.73 87.22 L 168.96 87.16 L 169.19 87.11 L 169.41 87.05 L 169.64 87.00 L 169.87 86.94 L 170.10 86.89 L 170.32 86.83 L 170.55 86.78 L 170.78 86.73 L 171.00 86.67 L 171.23 86.62 L 171.46 86.57 L 171.68 86.52 L 171.91 86.47 L 172.14 86.42 L 172.36 86.37 L 172.59 86.32 L 172.82 86.28 L 173.04 86.23 L 173.27 86.18 L 173.50 86.14 L 173.72 86.09 L 173.95 86.04 L 174.18 86.00 L 174.41 85.95 L 174.63 85.91 L 174.86 85.86 L 175.09 85.82 L 175.31 85.78 L 175.54 85.73 L 175.77 85.69 L 175.99 85.65 L 176.22 85.61 L 176.45 85.57 L 176.67 85.53 L 176.90 85.48 L 177.13 85.44 L 177.35 85.40 L 177.58 85.36 L 177.81 85.33 L 178.04 85.29 L 178.26 85.25 L 178.49 85.21 L 178.72 85.17 L 178.94 85.13 L 179.17 85.10 L 179.40 85.06 L 179.62 85.02 L 179.85 84.99 L 180.08 84.95 L 180.30 84.92 L 180.53 84.88 L 180.76 84.84 L 180.98 84.81 L 181.21 84.78 L 181.44 84.74 L 181.66 84.71 L 181.89 84.67 L 182.12 84.64 L 182.35 84.61 L 182.57 84.57 L 182.80 84.54 L 183.03 84.51 L 183.25 84.48 L 183.48 84.44 L 183.71 84.41 L 183.93 84.38 L 184.16 84.35 L 184.39 84.32 L 184.61 84.29 L 184.84 84.26 L 185.07 84.23 L 185.29 84.20 L 185.52 84.17 L 185.75 84.14 L 185.97 84.11 L 186.20 84.08 L 186.43 84.05 L 186.66 84.02 L 186.88 83.99 L 187.11 83.97 L 187.34 83.94 L 187.56 83.91 L 187.79 83.88 L 188.02 83.86 L 188.24 83.83 L 188.47 83.80 L 188.70 83.78 L 188.92 83.75 L 189.15 83.72 L 189.38 83.70 L 189.60 83.67 L 189.83 83.64 L 190.06 83.62 L 190.29 83.59 L 190.51 83.57 L 190.74 83.54 L 190.97 83.52 L 191.19 83.49 L 191.42 83.47 L 191.65 83.44 L 191.87 83.42 L 192.10 83.40 L 192.33 83.37 L 192.55 83.35 L 192.78 83.32 L 193.01 83.30 L 193.23 83.28 L 193.46 83.25 L 193.69 83.23 L 193.91 83.21 L 194.14 83.19 L 194.37 83.16 L 194.60 83.14 L 194.82 83.12 L 195.05 83.10 L 195.28 83.07 L 195.50 83.05 L 195.73 83.03 L 195.96 83.01 L 196.18 82.99 L 196.41 82.97 L 196.64 82.95 L 196.86 82.93 L 197.09 82.90 L 197.32 82.88 L 197.54 82.86 L 197.77 82.84 L 198.00 82.82 L 198.23 82.80 L 198.45 82.78 L 198.68 82.76 L 198.91 82.74 L 199.13 82.72 L 199.36 82.70 L 199.59 82.68 L 199.81 82.66 L 200.04 82.65 L 200.27 82.63 L 200.49 82.61 L 200.72 82.59 L 200.95 82.57 L 201.17 82.55 L 201.40 82.53 L 201.63 82.51 L 201.85 82.50 L 202.08 82.48 L 202.31 82.46 L 202.54 82.44 L 202.76 82.42 L 202.99 82.41 L 203.22 82.39 L 203.44 82.37 L 203.67 82.35 L 203.90 82.34 L 204.12 82.32 L 204.35 82.30 L 204.58 82.28 L 204.80 82.27 L 205.03 82.25 L 205.26 82.23 L 205.48 82.22 L 205.71 82.20 L 205.94 82.18 L 206.17 82.17 L 206.39 82.15 L 206.62 82.14 L 206.85 82.12 L 207.07 82.10 L 207.30 82.09 L 207.53 82.07 L 207.75 82.06 L 207.98 82.04 L 208.21 82.02 L 208.43 82.01 L 208.66 81.99 L 208.89 81.98 L 209.11 81.96 L 209.34 81.95 L 209.57 81.93 L 209.79 81.92 L 210.02 81.90 L 210.25 81.89 L 210.48 81.87 L 210.70 81.86 L 210.93 81.84 L 211.16 81.83 L 211.38 81.82 L 211.61 81.80 L 211.84 81.79 L 212.06 81.77 L 212.29 81.76 L 212.52 81.74 L 212.74 81.73 L 212.97 81.72 L 213.20 81.70 L 213.42 81.69 L 213.65 81.68 L 213.88 81.66 L 214.11 81.65 L 214.33 81.63 L 214.56 81.62 L 214.79 81.61 L 215.01 81.59 L 215.24 81.58 L 215.47 81.57 L 215.69 81.56 L 215.92 81.54 L 216.15 81.53 L 216.37 81.52 L 216.60 81.50 L 216.83 81.49 L 217.05 81.48 L 217.28 81.47 L 217.51 81.45 L 217.73 81.44 L 217.96 81.43 L 218.19 81.42 L 218.42 81.40 L 218.64 81.39 L 218.87 81.38 L 219.10 81.37 L 219.32 81.35 L 219.55 81.34 L 219.78 81.33 L 220.00 81.32 L 220.23 81.31 L 220.46 81.30 L 220.68 81.28 L 220.91 81.27 L 221.14 81.26 L 221.36 81.25 L 221.59 81.24 L 221.82 81.23 L 222.05 81.21 L 222.27 81.20 L 222.50 81.19 L 222.73 81.18 L 222.95 81.17 L 223.18 81.16 L 223.41 81.15 L 223.63 81.14 L 223.86 81.13 L 224.09 81.11 L 224.31 81.10 L 224.54 81.09 L 224.77 81.08 L 224.99 81.07 L 225.22 81.06 L 225.45 81.05 L 225.67 81.04 L 225.90 81.03 L 226.13 81.02 L 226.36 81.01 L 226.58 81.00 L 226.81 80.99 L 227.04 80.98 L 227.26 80.97 L 227.49 80.96 L 227.72 80.95 L 227.94 80.94 L 228.17 80.93 L 228.40 80.92 L 228.62 80.91 L 228.85 80.90 L 229.08 80.89 L 229.30 80.88 L 229.53 80.87 L 229.76 80.86 L 229.98 80.85 L 230.21 80.84 L 230.44 80.83 L 230.67 80.82 L 230.89 80.81 L 231.12 80.80 L 231.35 80.79 L 231.57 80.78 L 231.80 80.77 L 232.03 80.76 L 232.25 80.75 L 232.48 80.74 L 232.71 80.73 L 232.93 80.72 L 233.16 80.72 L 233.39 80.71 L 233.61 80.70 L 233.84 80.69 L 234.07 80.68 L 234.30 80.67 L 234.52 80.66 L 234.75 80.65 L 234.98 80.64 L 235.20 80.63 L 235.43 80.63 L 235.66 80.62 L 235.88 80.61 L 236.11 80.60 L 236.34 80.59 L 236.56 80.58 L 236.79 80.57 L 237.02 80.57 L 237.24 80.56 L 237.47 80.55 L 237.70 80.54 L 237.92 80.53 L 238.15 80.52 L 238.38 80.51 L 238.61 80.51 L 238.83 80.50 L 239.06 80.49 L 239.29 80.48 L 239.51 80.47 L 239.74 80.47 L 239.97 80.46 L 240.19 80.45 L 240.42 80.44 L 240.65 80.43 L 240.87 80.43 L 241.10 80.42 L 241.33 80.41 L 241.55 80.40 L 241.78 80.39 L 242.01 80.39 L 242.24 80.38 L 242.46 80.37 L 242.69 80.36 L 242.92 80.35 L 243.14 80.35 L 243.37 80.34 L 243.60 80.33 L 243.82 80.32 L 244.05 80.32 L 244.28 80.31 L 244.50 80.30 L 244.73 80.29 L 244.96 80.29 L 245.18 80.28 L 245.41 80.27 L 245.64 80.26 L 245.86 80.26 L 246.09 80.25 L 246.32 80.24 L 246.55 80.24 L 246.77 80.23 L 247.00 80.22 L 247.23 80.21 L 247.45 80.21 L 247.68 80.20 L 247.91 80.19 L 248.13 80.19 L 248.36 80.18 L 248.59 80.17 L 248.81 80.17 L 249.04 80.16 L 249.27 80.15 L 249.49 80.14 L 249.72 80.14 L 249.95 80.13 L 250.18 80.12 L 250.40 80.12 L 250.63 80.11 L 250.86 80.10 L 251.08 80.10 L 251.31 80.09 L 251.54 80.08 L 251.76 80.08 L 251.99 80.07 L 252.22 80.06 L 252.44 80.06 L 252.67 80.05 L 252.90 80.04 L 253.12 80.04 L 253.35 80.03 L 253.58 80.02 L 253.80 80.02 L 254.03 80.01 L 254.26 80.01 L 254.49 80.00 L 254.71 79.99 L 254.94 79.99 L 255.17 79.98 L 255.39 79.97 L 255.62 79.97 L 255.85 79.96 L 256.07 79.95 L 256.30 79.95 L 256.53 79.94 L 256.75 79.94 L 256.98 79.93 L 257.21 79.92 L 257.43 79.92 L 257.66 79.91 L 257.89 79.91 L 258.12 79.90 L 258.34 79.89 L 258.57 79.89 L 258.80 79.88 L 259.02 79.88 L 259.25 79.87 L 259.48 79.86 L 259.70 79.86 L 259.93 79.85 L 260.16 79.85 L 260.38 79.84 L 260.61 79.84 L 260.84 79.83 L 261.06 79.82 L 261.29 79.82 L 261.52 79.81 L 261.74 79.81 L 261.97 79.80 L 262.20 79.80 L 262.43 79.79 L 262.65 79.78 L 262.88 79.78 L 263.11 79.77 L 263.33 79.77 L 263.56 79.76 L 263.79 79.76 L 264.01 79.75 L 264.24 79.74 L 264.47 79.74 L 264.69 79.73 L 264.92 79.73 L 265.15 79.72 L 265.37 79.72 L 265.60 79.71 L 265.83 79.71 L 266.06 79.70 L 266.28 79.70 L 266.51 79.69 L 266.74 79.69 L 266.96 79.68 L 267.19 79.68 L 267.42 79.67 L 267.64 79.66 L 267.87 79.66 L 268.10 79.65 L 268.32 79.65 L 268.55 79.64 L 268.78 79.64 L 269.00 79.63 L 269.23 79.63 L 269.46 79.62 L 269.68 79.62 L 269.91 79.61 L 270.14 79.61 L 270.37 79.60 L 270.59 79.60 L 270.82 79.59 L 271.05 79.59 L 271.27 79.58 L 271.50 79.58 L 271.73 79.57 L 271.95 79.57 L 272.18 79.56 L 272.41 79.56 L 272.63 79.55 L 272.86 79.55 L 273.09 79.54 L 273.31 79.54 L 273.54 79.53 L 273.77 79.53 L 273.99 79.52 L 274.22 79.52 L 274.45 79.51 L 274.68 79.51 L 274.90 79.51 L 275.13 79.50 L 275.36 79.50 L 275.58 79.49 L 275.81 79.49 L 276.04 79.48 L 276.26 79.48 L 276.49 79.47 L 276.72 79.47 L 276.94 79.46 L 277.17 79.46 L 277.40 79.45 L 277.62 79.45 L 277.85 79.45 L 278.08 79.44 L 278.31 79.44 L 278.53 79.43 L 278.76 79.43 L 278.99 79.42 L 279.21 79.42 L 279.44 79.41 L 279.67 79.41 L 279.89 79.40 L 280.12 79.40 L 280.35 79.40 L 280.57 79.39 L 280.80 79.39 L 281.03 79.38 L 281.25 79.38 L 281.48 79.37 L 281.71 79.37 L 281.93 79.37 L 282.16 79.36 L 282.39 79.36 L 282.62 79.35 L 282.84 79.35 L 283.07 79.34 L 283.30 79.34 L 283.52 79.34 L 283.75 79.33 L 283.98 79.33 L 284.20 79.32 L 284.43 79.32 L 284.66 79.31 L 284.88 79.31 L 285.11 79.31 L 285.34 79.30 L 285.56 79.30 L 285.79 79.29 L 286.02 79.29 L 286.25 79.29 L 286.47 79.28 L 286.70 79.28 L 286.93 79.27 L 287.15 79.27 L 287.38 79.27 L 287.61 79.26 L 287.83 79.26 L 288.06 79.25 L 288.29 79.25 L 288.51 79.25 L 288.74 79.24 L 288.97 79.24 L 289.19 79.23 L 289.42 79.23 L 289.65 79.23 L 289.87 79.22 L 290.10 79.22 L 290.33 79.21 L 290.56 79.21 L 290.78 79.21 L 291.01 79.20 L 291.24 79.20 L 291.46 79.19 L 291.69 79.19 L 291.92 79.19 L 292.14 79.18 L 292.37 79.18 L 292.60 79.18 L 292.82 79.17 L 293.05 79.17 L 293.28 79.16 L 293.50 79.16 L 293.73 79.16 L 293.96 79.15 L 294.19 79.15 L 294.41 79.15 L 294.64 79.14 L 294.87 79.14 L 295.09 79.13 L 295.32 79.13 L 295.55 79.13 L 295.77 79.12 L 296.00 79.12" fill="none" stroke="#7E8692" stroke-width="2.3" stroke-linecap="round" stroke-linejoin="round"/>
</svg>
