<svg xmlns="http://www.w3.org/2000/svg" viewBox="0 0 320 180" width="320" height="180">
  <rect width="320" height="180" fill="#F4F5F7"/>
  <path d="M 18.00 90.23 L 18.24 90.23 L 18.47 90.23 L 18.71 90.23 L 18.95 90.23 L 19.18 90.23 L 19.42 90.23 L 19.66 90.23 L 19.89 90.23 L 20.13 90.24 L 20.37 90.24 L 20.61 90.24 L 20.84 90.24 L 21.08 90.24 L 21.32 90.24 L 21.55 90.24 L 21.79 90.24 L 22.03 90.25 L 22.26 90.25 L 22.50 90.25 L 22.74 90.25 L 22.97 90.25 L 23.21 90.25 L 23.45 90.25 L 23.68 90.25 L 23.92 90.26 L 24.16 90.26 L 24.40 90.26 L 24.63 90.26 L 24.87 90.26 L 25.11 90.26 L 25.34 90.26 L 25.58 90.27 L 25.82 90.27 L 26.05 90.27 L 26.29 90.27 L 26.53 90.27 L 26.76 90.27 L 27.00 90.27 L 27.24 90.28 L 27.47 90.28 L 27.71 90.28 L 27.95 90.28 L 28.19 90.28 L 28.42 90.28 L 28.66 90.28 L 28.90 90.29 L 29.13 90.29 L 29.37 90.29 L 29.61 90.29 L 29.84 90.29 L 30.08 90.29 L 30.32 90.30 L 30.55 90.30 L 30.79 90.30 L 31.03 90.30 L 31.26 90.30 L 31.50 90.30 L 31.74 90.31 L 31.97 90.31 L 32.21 90.31 L 32.45 90.31 L 32.69 90.31 L 32.92 90.31 L 33.16 90.32 L 33.40 90.32 L 33.63 90.32 L 33.87 90.32 L 34.11 90.32 L 34.34 90.32 L 34.58 90.33 L 34.82 90.33 L 35.05 90.33 L 35.29 90.33 L 35.53 90.33 L 35.76 90.34 L 36.00 90.34 L 36.24 90.34 L 36.48 90.34 L 36.71 90.34 L 36.95 90.35 L 37.19 90.35 L 37.42 90.35 L 37.66 90.35 L 37.90 90.35 L 38.13 90.36 L 38.37 90.36 L 38.61 90.36 L 38.84 90.36 L 39.08 90.36 L 39.32 90.37 L 39.55 90.37 L 39.79 90.37 L 40.03 90.37 L 40.27 90.38 L 40.50 90.38 L 40.74 90.38 L 40.98 90.38 L 41.21 90.38 L 41.45 90.39 L 41.69 90.39 L 41.92 90.39 L 42.16 90.39 L 42.40 90.40 L 42.63 90.40 L 42.87 90.40 L 43.11 90.40 L 43.34 90.41 L 43.58 90.41 L 43.82 90.41 L 44.06 90.41 L 44.29 90.42 L 44.53 90.42 L 44.77 90.42 L 45.00 90.42 L 45.24 90.43 L 45.48 90.43 L 45.71 90.43 L 45.95 90.43 L 46.19 90.44 L 46.42 90.44 L 46.66 90.44 L 46.90 90.45 L 47.13 90.45 L 47.37 90.45 L 47.61 90.45 L 47.84 90.46 L 48.08 90.46 L 48.32 90.46 L 48.56 90.47 L 48.79 90.47 L 49.03 90.47 L 49.27 90.47 L 49.50 90.48 L 49.74 90.48 L 49.98 90.48 L 50.21 90.49 L 50.45 90.49 L 50.69 90.49 L 50.92 90.50 L 51.16 90.50 L 51.40 90.50 L 51.63 90.51 L 51.87 90.51 L 52.11 90.51 L 52.35 90.52 L 52.58 90.52 L 52.82 90.52 L 53.06 90.53 L 53.29 90.53 L 53.53 90.53 L 53.77 90.54 L 54.00 90.54 L 54.24 90.54 L 54.48 90.55 L 54.71 90.55 L 54.95 90.56 L 55.19 90.56 L 55.42 90.56 L 55.66 90.57 L 55.90 90.57 L 56.14 90.57 L 56.37 90.58 L 56.61 90.58 L 56.85 90.59 L 57.08 90.59 L 57.32 90.60 L 57.56 90.60 L 57.79 90.60 L 58.03 90.61 L 58.27 90.61 L 58.50 90.62 L 58.74 90.62 L 58.98 90.62 L 59.21 90.63 L 59.45 90.63 L 59.69 90.64 L 59.92 90.64 L 60.16 90.65 L 60.40 90.65 L 60.64 90.66 L 60.87 90.66 L 61.11 90.67 L 61.35 90.67 L 61.58 90.68 L 61.82 90.68 L 62.06 90.69 L 62.29 90.69 L 62.53 90.70 L 62.77 90.70 L 63.00 90.71 L 63.24 90.71 L 63.48 90.72 L 63.71 90.72 L 63.95 90.73 L 64.19 90.73 L 64.43 90.74 L 64.66 90.74 L 64.90 90.75 L 65.14 90.75 L 65.37 90.76 L 65.61 90.77 L 65.85 90.77 L 66.08 90.78 L 66.32 90.78 L 66.56 90.79 L 66.79 90.80 L 67.03 90.80 L 67.27 90.81 L 67.50 90.81 L 67.74 90.82 L 67.98 90.83 L 68.22 90.83 L 68.45 90.84 L 68.69 90.85 L 68.93 90.85 L 69.16 90.86 L 69.40 90.87 L 69.64 90.87 L 69.87 90.88 L 70.11 90.89 L 70.35 90.89 L 70.58 90.90 L 70.82 90.91 L 71.06 90.92 L 71.29 90.92 L 71.53 90.93 L 71.77 90.94 L 72.01 90.95 L 72.24 90.95 L 72.48 90.96 L 72.72 90.97 L 72.95 90.98 L 73.19 90.98 L 73.43 90.99 L 73.66 91.00 L 73.90 91.01 L 74.14 91.02 L 74.37 91.03 L 74.61 91.03 L 74.85 91.04 L 75.08 91.05 L 75.32 91.06 L 75.56 91.07 L 75.79 91.08 L 76.03 91.09 L 76.27 91.10 L 76.51 91.11 L 76.74 91.12 L 76.98 91.13 L 77.22 91.14 L 77.45 91.15 L 77.69 91.16 L 77.93 91.17 L 78.16 91.18 L 78.40 91.19 L 78.64 91.20 L 78.87 91.21 L 79.11 91.22 L 79.35 91.23 L 79.58 91.24 L 79.82 91.25 L 80.06 91.26 L 80.30 91.27 L 80.53 91.28 L 80.77 91.30 L 81.01 91.31 L 81.24 91.32 L 81.48 91.33 L 81.72 91.34 L 81.95 91.36 L 82.19 91.37 L 82.43 91.38 L 82.66 91.39 L 82.90 91.41 L 83.14 91.42 L 83.37 91.43 L 83.61 91.45 L 83.85 91.46 L 84.09 91.47 L 84.32 91.49 L 84.56 91.50 L 84.80 91.51 L 85.03 91.53 L 85.27 91.54 L 85.51 91.56 L 85.74 91.57 L 85.98 91.59 L 86.22 91.60 L 86.45 91.62 L 86.69 91.64 L 86.93 91.65 L 87.16 91.67 L 87.40 91.68 L 87.64 91.70 L 87.87 91.72 L 88.11 91.73 L 88.35 91.75 L 88.59 91.77 L 88.82 91.79 L 89.06 91.80 L 89.30 91.82 L 89.53 91.84 L 89.77 91.86 L 90.01 91.88 L 90.24 91.90 L 90.48 91.92 L 90.72 91.94 L 90.95 91.96 L 91.19 91.98 L 91.43 92.00 L 91.66 92.02 L 91.90 92.04 L 92.14 92.06 L 92.38 92.08 L 92.61 92.11 L 92.85 92.13 L 93.09 92.15 L 93.32 92.17 L 93.56 92.20 L 93.80 92.22 L 94.03 92.24 L 94.27 92.27 L 94.51 92.29 L 94.74 92.32 L 94.98 92.34 L 95.22 92.37 L 95.45 92.40 L 95.69 92.42 L 95.93 92.45 L 96.17 92.48 L 96.40 92.50 L 96.64 92.53 L 96.88 92.56 L 97.11 92.59 L 97.35 92.62 L 97.59 92.65 L 97.82 92.68 L 98.06 92.71 L 98.30 92.74 L 98.53 92.77 L 98.77 92.81 L 99.01 92.84 L 99.24 92.87 L 99.48 92.91 L 99.72 92.94 L 99.95 92.98 L 100.19 93.01 L 100.43 93.05 L 100.67 93.08 L 100.90 93.12 L 101.14 93.16 L 101.38 93.20 L 101.61 93.24 L 101.85 93.28 L 102.09 93.32 L 102.32 93.36 L 102.56 93.40 L 102.80 93.44 L 103.03 93.49 L 103.27 93.53 L 103.51 93.57 L 103.74 93.62 L 103.98 93.66 L 104.22 93.71 L 104.46 93.76 L 104.69 93.81 L 104.93 93.86 L 105.17 93.91 L 105.40 93.96 L 105.64 94.01 L 105.88 94.06 L 106.11 94.12 L 106.35 94.17 L 106.59 94.23 L 106.82 94.28 L 107.06 94.34 L 107.30 94.40 L 107.53 94.46 L 107.77 94.52 L 108.01 94.58 L 108.25 94.65 L 108.48 94.71 L 108.72 94.78 L 108.96 94.84 L 109.19 94.91 L 109.43 94.98 L 109.67 95.05 L 109.90 95.12 L 110.14 95.20 L 110.38 95.27 L 110.61 95.35 L 110.85 95.43 L 111.09 95.51 L 111.32 95.59 L 111.56 95.67 L 111.80 95.75 L 112.04 95.84 L 112.27 95.93 L 112.51 96.01 L 112.75 96.11 L 112.98 96.20 L 113.22 96.29 L 113.46 96.39 L 113.69 96.49 L 113.93 96.59 L 114.17 96.69 L 114.40 96.80 L 114.64 96.90 L 114.88 97.01 L 115.11 97.12 L 115.35 97.24 L 115.59 97.35 L 115.82 97.47 L 116.06 97.59 L 116.30 97.72 L 116.54 97.85 L 116.77 97.98 L 117.01 98.11 L 117.25 98.24 L 117.48 98.38 L 117.72 98.52 L 117.96 98.67 L 118.19 98.82 L 118.43 98.97 L 118.67 99.12 L 118.90 99.28 L 119.14 99.44 L 119.38 99.61 L 119.61 99.78 L 119.85 99.95 L 120.09 100.13 L 120.33 100.32 L 120.56 100.50 L 120.80 100.69 L 121.04 100.89 L 121.27 101.09 L 121.51 101.30 L 121.75 101.51 L 121.98 101.73 L 122.22 101.95 L 122.46 102.17 L 122.69 102.41 L 122.93 102.65 L 123.17 102.89 L 123.40 103.15 L 123.64 103.40 L 123.88 103.67 L 124.12 103.94 L 124.35 104.22 L 124.59 104.51 L 124.83 104.80 L 125.06 105.11 L 125.30 105.42 L 125.54 105.74 L 125.77 106.07 L 126.01 106.41 L 126.25 106.75 L 126.48 107.11 L 126.72 107.48 L 126.96 107.86 L 127.19 108.25 L 127.43 108.65 L 127.67 109.06 L 127.90 109.49 L 128.14 109.92 L 128.38 110.38 L 128.62 110.84 L 128.85 111.32 L 129.09 111.81 L 129.33 112.32 L 129.56 112.85 L 129.80 113.39 L 130.04 113.95 L 130.27 114.53 L 130.51 115.12 L 130.75 115.74 L 130.98 116.37 L 131.22 117.03 L 131.46 117.71 L 131.69 118.41 L 131.93 119.13 L 132.17 119.88 L 132.41 120.66 L 132.64 121.46 L 132.88 122.29 L 133.12 123.16 L 133.35 124.05 L 133.59 124.97 L 133.83 125.93 L 134.06 126.92 L 134.30 127.95 L 134.54 129.02 L 134.77 130.13 L 135.01 131.29 L 135.25 132.48 L 135.48 133.72 L 135.72 135.02 L 135.96 136.36 L 136.20 137.76 L 136.43 139.21 L 136.67 140.73 L 136.91 142.30 L 137.14 143.95 L 137.38 145.66 L 137.62 147.45 L 137.85 149.31 L 138.09 151.25 L 138.33 153.28 L 138.56 155.40 L 138.80 157.62 L 139.04 159.94 L 139.27 162.36 L 139.51 164.90 L 139.75 167.56 L 139.98 170.35 L 140.22 173.27 L 140.46 176.34 L 140.70 179.55 L 140.93 182.93 L 141.17 186.48 L 141.41 190.22 L 141.64 194.15 L 141.88 198.28 L 142.12 202.64 L 142.35 207.24 L 142.59 212.09 L 142.83 217.21 L 143.06 222.63 L 143.30 228.35 L 143.54 234.41 L 143.77 240.83 L 144.01 247.63 L 144.25 254.85 L 144.49 262.51 L 144.72 270.66 L 144.96 279.33 L 145.20 288.57 L 145.43 298.41 L 145.67 308.92 L 145.91 320.14 L 146.14 332.15 L 146.38 345.00 L 146.62 358.78" fill="none" stroke="#7E8692" stroke-width="2.3" stroke-linecap="round" stroke-linejoin="round"/>
  <path d="M 173.38 -178.78 L 173.62 -165.00 L 173.86 -152.15 L 174.09 -140.14 L 174.33 -128.92 L 174.57 -118.41 L 174.80 -108.57 L 175.04 -99.33 L 175.28 -90.66 L 175.51 -82.51 L 175.75 -74.85 L 175.99 -67.63 L 176.23 -60.83 L 176.46 -54.41 L 176.70 -48.35 L 176.94 -42.63 L 177.17 -37.21 L 177.41 -32.09 L 177.65 -27.24 L 177.88 -22.64 L 178.12 -18.28 L 178.36 -14.15 L 178.59 -10.22 L 178.83 -6.48 L 179.07 -2.93 L 179.30 0.45 L 179.54 3.66 L 179.78 6.73 L 180.02 9.65 L 180.25 12.44 L 180.49 15.10 L 180.73 17.64 L 180.96 20.06 L 181.20 22.38 L 181.44 24.60 L 181.67 26.72 L 181.91 28.75 L 182.15 30.69 L 182.38 32.55 L 182.62 34.34 L 182.86 36.05 L 183.09 37.70 L 183.33 39.27 L 183.57 40.79 L 183.80 42.24 L 184.04 43.64 L 184.28 44.98 L 184.52 46.28 L 184.75 47.52 L 184.99 48.71 L 185.23 49.87 L 185.46 50.98 L 185.70 52.05 L 185.94 53.08 L 186.17 54.07 L 186.41 55.03 L 186.65 55.95 L 186.88 56.84 L 187.12 57.71 L 187.36 58.54 L 187.59 59.34 L 187.83 60.12 L 188.07 60.87 L 188.31 61.59 L 188.54 62.29 L 188.78 62.97 L 189.02 63.63 L 189.25 64.26 L 189.49 64.88 L 189.73 65.47 L 189.96 66.05 L 190.20 66.61 L 190.44 67.15 L 190.67 67.68 L 190.91 68.19 L 191.15 68.68 L 191.38 69.16 L 191.62 69.62 L 191.86 70.08 L 192.10 70.51 L 192.33 70.94 L 192.57 71.35 L 192.81 71.75 L 193.04 72.14 L 193.28 72.52 L 193.52 72.89 L 193.75 73.25 L 193.99 73.59 L 194.23 73.93 L 194.46 74.26 L 194.70 74.58 L 194.94 74.89 L 195.17 75.20 L 195.41 75.49 L 195.65 75.78 L 195.88 76.06 L 196.12 76.33 L 196.36 76.60 L 196.60 76.85 L 196.83 77.11 L 197.07 77.35 L 197.31 77.59 L 197.54 77.83 L 197.78 78.05 L 198.02 78.27 L 198.25 78.49 L 198.49 78.70 L 198.73 78.91 L 198.96 79.11 L 199.20 79.31 L 199.44 79.50 L 199.67 79.68 L 199.91 79.87 L 200.15 80.05 L 200.39 80.22 L 200.62 80.39 L 200.86 80.56 L 201.10 80.72 L 201.33 80.88 L 201.57 81.03 L 201.81 81.18 L 202.04 81.33 L 202.28 81.48 L 202.52 81.62 L 202.75 81.76 L 202.99 81.89 L 203.23 82.02 L 203.46 82.15 L 203.70 82.28 L 203.94 82.41 L 204.18 82.53 L 204.41 82.65 L 204.65 82.76 L 204.89 82.88 L 205.12 82.99 L 205.36 83.10 L 205.60 83.20 L 205.83 83.31 L 206.07 83.41 L 206.31 83.51 L 206.54 83.61 L 206.78 83.71 L 207.02 83.80 L 207.25 83.89 L 207.49 83.99 L 207.73 84.07 L 207.96 84.16 L 208.20 84.25 L 208.44 84.33 L 208.68 84.41 L 208.91 84.49 L 209.15 84.57 L 209.39 84.65 L 209.62 84.73 L 209.86 84.80 L 210.10 84.88 L 210.33 84.95 L 210.57 85.02 L 210.81 85.09 L 211.04 85.16 L 211.28 85.22 L 211.52 85.29 L 211.75 85.35 L 211.99 85.42 L 212.23 85.48 L 212.47 85.54 L 212.70 85.60 L 212.94 85.66 L 213.18 85.72 L 213.41 85.77 L 213.65 85.83 L 213.89 85.88 L 214.12 85.94 L 214.36 85.99 L 214.60 86.04 L 214.83 86.09 L 215.07 86.14 L 215.31 86.19 L 215.54 86.24 L 215.78 86.29 L 216.02 86.34 L 216.26 86.38 L 216.49 86.43 L 216.73 86.47 L 216.97 86.51 L 217.20 86.56 L 217.44 86.60 L 217.68 86.64 L 217.91 86.68 L 218.15 86.72 L 218.39 86.76 L 218.62 86.80 L 218.86 86.84 L 219.10 86.88 L 219.33 86.92 L 219.57 86.95 L 219.81 86.99 L 220.05 87.02 L 220.28 87.06 L 220.52 87.09 L 220.76 87.13 L 220.99 87.16 L 221.23 87.19 L 221.47 87.23 L 221.70 87.26 L 221.94 87.29 L 222.18 87.32 L 222.41 87.35 L 222.65 87.38 L 222.89 87.41 L 223.12 87.44 L 223.36 87.47 L 223.60 87.50 L 223.83 87.52 L 224.07 87.55 L 224.31 87.58 L 224.55 87.60 L 224.78 87.63 L 225.02 87.66 L 225.26 87.68 L 225.49 87.71 L 225.73 87.73 L 225.97 87.76 L 226.20 87.78 L 226.44 87.80 L 226.68 87.83 L 226.91 87.85 L 227.15 87.87 L 227.39 87.89 L 227.62 87.92 L 227.86 87.94 L 228.10 87.96 L 228.34 87.98 L 228.57 88.00 L 228.81 88.02 L 229.05 88.04 L 229.28 88.06 L 229.52 88.08 L 229.76 88.10 L 229.99 88.12 L 230.23 88.14 L 230.47 88.16 L 230.70 88.18 L 230.94 88.20 L 231.18 88.21 L 231.41 88.23 L 231.65 88.25 L 231.89 88.27 L 232.13 88.28 L 232.36 88.30 L 232.60 88.32 L 232.84 88.33 L 233.07 88.35 L 233.31 88.36 L 233.55 88.38 L 233.78 88.40 L 234.02 88.41 L 234.26 88.43 L 234.49 88.44 L 234.73 88.46 L 234.97 88.47 L 235.20 88.49 L 235.44 88.50 L 235.68 88.51 L 235.91 88.53 L 236.15 88.54 L 236.39 88.55 L 236.63 88.57 L 236.86 88.58 L 237.10 88.59 L 237.34 88.61 L 237.57 88.62 L 237.81 88.63 L 238.05 88.64 L 238.28 88.66 L 238.52 88.67 L 238.76 88.68 L 238.99 88.69 L 239.23 88.70 L 239.47 88.72 L 239.70 88.73 L 239.94 88.74 L 240.18 88.75 L 240.42 88.76 L 240.65 88.77 L 240.89 88.78 L 241.13 88.79 L 241.36 88.80 L 241.60 88.81 L 241.84 88.82 L 242.07 88.83 L 242.31 88.84 L 242.55 88.85 L 242.78 88.86 L 243.02 88.87 L 243.26 88.88 L 243.49 88.89 L 243.73 88.90 L 243.97 88.91 L 244.21 88.92 L 244.44 88.93 L 244.68 88.94 L 244.92 88.95 L 245.15 88.96 L 245.39 88.97 L 245.63 88.97 L 245.86 88.98 L 246.10 88.99 L 246.34 89.00 L 246.57 89.01 L 246.81 89.02 L 247.05 89.02 L 247.28 89.03 L 247.52 89.04 L 247.76 89.05 L 247.99 89.05 L 248.23 89.06 L 248.47 89.07 L 248.71 89.08 L 248.94 89.08 L 249.18 89.09 L 249.42 89.10 L 249.65 89.11 L 249.89 89.11 L 250.13 89.12 L 250.36 89.13 L 250.60 89.13 L 250.84 89.14 L 251.07 89.15 L 251.31 89.15 L 251.55 89.16 L 251.78 89.17 L 252.02 89.17 L 252.26 89.18 L 252.50 89.19 L 252.73 89.19 L 252.97 89.20 L 253.21 89.20 L 253.44 89.21 L 253.68 89.22 L 253.92 89.22 L 254.15 89.23 L 254.39 89.23 L 254.63 89.24 L 254.86 89.25 L 255.10 89.25 L 255.34 89.26 L 255.57 89.26 L 255.81 89.27 L 256.05 89.27 L 256.29 89.28 L 256.52 89.28 L 256.76 89.29 L 257.00 89.29 L 257.23 89.30 L 257.47 89.30 L 257.71 89.31 L 257.94 89.31 L 258.18 89.32 L 258.42 89.32 L 258.65 89.33 L 258.89 89.33 L 259.13 89.34 L 259.36 89.34 L 259.60 89.35 L 259.84 89.35 L 260.08 89.36 L 260.31 89.36 L 260.55 89.37 L 260.79 89.37 L 261.02 89.38 L 261.26 89.38 L 261.50 89.38 L 261.73 89.39 L 261.97 89.39 L 262.21 89.40 L 262.44 89.40 L 262.68 89.40 L 262.92 89.41 L 263.15 89.41 L 263.39 89.42 L 263.63 89.42 L 263.86 89.43 L 264.10 89.43 L 264.34 89.43 L 264.58 89.44 L 264.81 89.44 L 265.05 89.44 L 265.29 89.45 L 265.52 89.45 L 265.76 89.46 L 266.00 89.46 L 266.23 89.46 L 266.47 89.47 L 266.71 89.47 L 266.94 89.47 L 267.18 89.48 L 267.42 89.48 L 267.65 89.48 L 267.89 89.49 L 268.13 89.49 L 268.37 89.49 L 268.60 89.50 L 268.84 89.50 L 269.08 89.50 L 269.31 89.51 L 269.55 89.51 L 269.79 89.51 L 270.02 89.52 L 270.26 89.52 L 270.50 89.52 L 270.73 89.53 L 270.97 89.53 L 271.21 89.53 L 271.44 89.53 L 271.68 89.54 L 271.92 89.54 L 272.16 89.54 L 272.39 89.55 L 272.63 89.55 L 272.87 89.55 L 273.10 89.55 L 273.34 89.56 L 273.58 89.56 L 273.81 89.56 L 274.05 89.57 L 274.29 89.57 L 274.52 89.57 L 274.76 89.57 L 275.00 89.58 L 275.23 89.58 L 275.47 89.58 L 275.71 89.58 L 275.94 89.59 L 276.18 89.59 L 276.42 89.59 L 276.66 89.59 L 276.89 89.60 L 277.13 89.60 L 277.37 89.60 L 277.60 89.60 L 277.84 89.61 L 278.08 89.61 L 278.31 89.61 L 278.55 89.61 L 278.79 89.62 L 279.02 89.62 L 279.26 89.62 L 279.50 89.62 L 279.73 89.62 L 279.97 89.63 L 280.21 89.63 L 280.45 89.63 L 280.68 89.63 L 280.92 89.64 L 281.16 89.64 L 281.39 89.64 L 281.63 89.64 L 281.87 89.64 L 282.10 89.65 L 282.34 89.65 L 282.58 89.65 L 282.81 89.65 L 283.05 89.65 L 283.29 89.66 L 283.52 89.66 L 283.76 89.66 L 284.00 89.66 L 284.24 89.66 L 284.47 89.67 L 284.71 89.67 L 284.95 89.67 L 285.18 89.67 L 285.42 89.67 L 285.66 89.68 L 285.89 89.68 L 286.13 89.68 L 286.37 89.68 L 286.60 89.68 L 286.84 89.68 L 287.08 89.69 L 287.31 89.69 L 287.55 89.69 L 287.79 89.69 L 288.03 89.69 L 288.26 89.69 L 288.50 89.70 L 288.74 89.70 L 288.97 89.70 L 289.21 89.70 L 289.45 89.70 L 289.68 89.70 L 289.92 89.71 L 290.16 89.71 L 290.39 89.71 L 290.63 89.71 L 290.87 89.71 L 291.10 89.71 L 291.34 89.72 L 291.58 89.72 L 291.81 89.72 L 292.05 89.72 L 292.29 89.72 L 292.53 89.72 L 292.76 89.72 L 293.00 89.73 L 293.24 89.73 L 293.47 89.73 L 293.71 89.73 L 293.95 89.73 L 294.18 89.73 L 294.42 89.73 L 294.66 89.74 L 294.89 89.74 L 295.13 89.74 L 295.37 89.74 L 295.60 89.74 L 295.84 89.74 L 296.08 89.74 L 296.32 89.75 L 296.55 89.75 L 296.79 89.75 L 297.03 89.75 L 297.26 89.75 L 297.50 89.75 L 297.74 89.75 L 297.97 89.75 L 298.21 89.76 L 298.45 89.76 L 298.68 89.76 L 298.92 89.76 L 299.16 89.76 L 299.39 89.76 L 299.63 89.76 L 299.87 89.76 L 300.11 89.77 L 300.34 89.77 L 300.58 89.77 L 300.82 89.77 L 301.05 89.77 L 301.29 89.77 L 301.53 89.77 L 301.76 89.77 L 302.00 89.77" fill="none" stroke="#7E8692" stroke-width="2.3" stroke-linecap="round" stroke-linejoin="round"/>
</svg>
