<svg xmlns="http://www.w3.org/2000/svg" viewBox="0 0 320 180" width="320" height="180">
  <rect width="320" height="180" fill="#F4F5F7"/>
  <path d="M 18.00 27.00 L 18.16 27.00 L 18.32 27.01 L 18.47 27.02 L 18.63 27.04 L 18.79 27.06 L 18.95 27.08 L 19.11 27.11 L 19.26 27.14 L 19.42 27.18 L 19.58 27.23 L 19.74 27.27 L 19.89 27.32 L 20.05 27.38 L 20.21 27.44 L 20.37 27.51 L 20.53 27.58 L 20.68 27.65 L 20.84 27.73 L 21.00 27.81 L 21.16 27.90 L 21.32 27.99 L 21.47 28.09 L 21.63 28.19 L 21.79 28.29 L 21.95 28.40 L 22.10 28.52 L 22.26 28.63 L 22.42 28.76 L 22.58 28.88 L 22.74 29.02 L 22.89 29.15 L 23.05 29.29 L 23.21 29.44 L 23.37 29.59 L 23.53 29.74 L 23.68 29.90 L 23.84 30.06 L 24.00 30.22 L 24.16 30.39 L 24.31 30.57 L 24.47 30.75 L 24.63 30.93 L 24.79 31.12 L 24.95 31.31 L 25.10 31.50 L 25.26 31.70 L 25.42 31.91 L 25.58 32.12 L 25.74 32.33 L 25.89 32.54 L 26.05 32.76 L 26.21 32.99 L 26.37 33.22 L 26.52 33.45 L 26.68 33.69 L 26.84 33.93 L 27.00 34.17 L 27.16 34.42 L 27.31 34.67 L 27.47 34.93 L 27.63 35.19 L 27.79 35.45 L 27.95 35.72 L 28.10 35.99 L 28.26 36.27 L 28.42 36.55 L 28.58 36.83 L 28.73 37.12 L 28.89 37.41 L 29.05 37.70 L 29.21 38.00 L 29.37 38.30 L 29.52 38.61 L 29.68 38.92 L 29.84 39.23 L 30.00 39.55 L 30.16 39.87 L 30.31 40.19 L 30.47 40.52 L 30.63 40.85 L 30.79 41.18 L 30.94 41.52 L 31.10 41.86 L 31.26 42.21 L 31.42 42.55 L 31.58 42.90 L 31.73 43.26 L 31.89 43.62 L 32.05 43.98 L 32.21 44.34 L 32.37 44.71 L 32.52 45.08 L 32.68 45.45 L 32.84 45.83 L 33.00 46.21 L 33.16 46.59 L 33.31 46.98 L 33.47 47.37 L 33.63 47.76 L 33.79 48.15 L 33.94 48.55 L 34.10 48.95 L 34.26 49.36 L 34.42 49.76 L 34.58 50.17 L 34.73 50.58 L 34.89 51.00 L 35.05 51.42 L 35.21 51.84 L 35.37 52.26 L 35.52 52.69 L 35.68 53.11 L 35.84 53.54 L 36.00 53.98 L 36.15 54.41 L 36.31 54.85 L 36.47 55.29 L 36.63 55.73 L 36.79 56.18 L 36.94 56.63 L 37.10 57.08 L 37.26 57.53 L 37.42 57.98 L 37.58 58.44 L 37.73 58.90 L 37.89 59.36 L 38.05 59.82 L 38.21 60.29 L 38.36 60.76 L 38.52 61.23 L 38.68 61.70 L 38.84 62.17 L 39.00 62.65 L 39.15 63.12 L 39.31 63.60 L 39.47 64.08 L 39.63 64.56 L 39.79 65.05 L 39.94 65.53 L 40.10 66.02 L 40.26 66.51 L 40.42 67.00 L 40.57 67.49 L 40.73 67.99 L 40.89 68.48 L 41.05 68.98 L 41.21 69.48 L 41.36 69.97 L 41.52 70.48 L 41.68 70.98 L 41.84 71.48 L 42.00 71.98 L 42.15 72.49 L 42.31 73.00 L 42.47 73.50 L 42.63 74.01 L 42.78 74.52 L 42.94 75.03 L 43.10 75.55 L 43.26 76.06 L 43.42 76.57 L 43.57 77.09 L 43.73 77.60 L 43.89 78.12 L 44.05 78.64 L 44.21 79.15 L 44.36 79.67 L 44.52 80.19 L 44.68 80.71 L 44.84 81.23 L 44.99 81.75 L 45.15 82.27 L 45.31 82.79 L 45.47 83.32 L 45.63 83.84 L 45.78 84.36 L 45.94 84.88 L 46.10 85.41 L 46.26 85.93 L 46.42 86.45 L 46.57 86.98 L 46.73 87.50 L 46.89 88.03 L 47.05 88.55 L 47.21 89.07 L 47.36 89.60 L 47.52 90.12 L 47.68 90.64 L 47.84 91.17 L 47.99 91.69 L 48.15 92.21 L 48.31 92.74 L 48.47 93.26 L 48.63 93.78 L 48.78 94.30 L 48.94 94.83 L 49.10 95.35 L 49.26 95.87 L 49.42 96.39 L 49.57 96.91 L 49.73 97.43 L 49.89 97.94 L 50.05 98.46 L 50.20 98.98 L 50.36 99.50 L 50.52 100.01 L 50.68 100.53 L 50.84 101.04 L 50.99 101.55 L 51.15 102.07 L 51.31 102.58 L 51.47 103.09 L 51.63 103.60 L 51.78 104.10 L 51.94 104.61 L 52.10 105.12 L 52.26 105.62 L 52.41 106.13 L 52.57 106.63 L 52.73 107.13 L 52.89 107.63 L 53.05 108.13 L 53.20 108.62 L 53.36 109.12 L 53.52 109.61 L 53.68 110.11 L 53.84 110.60 L 53.99 111.09 L 54.15 111.58 L 54.31 112.06 L 54.47 112.55 L 54.62 113.03 L 54.78 113.51 L 54.94 113.99 L 55.10 114.47 L 55.26 114.95 L 55.41 115.42 L 55.57 115.90 L 55.73 116.37 L 55.89 116.84 L 56.05 117.30 L 56.20 117.77 L 56.36 118.23 L 56.52 118.69 L 56.68 119.15 L 56.83 119.61 L 56.99 120.06 L 57.15 120.52 L 57.31 120.97 L 57.47 121.42 L 57.62 121.86 L 57.78 122.31 L 57.94 122.75 L 58.10 123.19 L 58.26 123.62 L 58.41 124.06 L 58.57 124.49 L 58.73 124.92 L 58.89 125.35 L 59.05 125.77 L 59.20 126.20 L 59.36 126.62 L 59.52 127.03 L 59.68 127.45 L 59.83 127.86 L 59.99 128.27 L 60.15 128.68 L 60.31 129.08 L 60.47 129.48 L 60.62 129.88 L 60.78 130.28 L 60.94 130.67 L 61.10 131.06 L 61.26 131.45 L 61.41 131.83 L 61.57 132.21 L 61.73 132.59 L 61.89 132.97 L 62.04 133.34 L 62.20 133.71 L 62.36 134.08 L 62.52 134.44 L 62.68 134.80 L 62.83 135.16 L 62.99 135.52 L 63.15 135.87 L 63.31 136.22 L 63.47 136.56 L 63.62 136.90 L 63.78 137.24 L 63.94 137.58 L 64.10 137.91 L 64.25 138.24 L 64.41 138.57 L 64.57 138.89 L 64.73 139.21 L 64.89 139.53 L 65.04 139.84 L 65.20 140.15 L 65.36 140.46 L 65.52 140.76 L 65.68 141.06 L 65.83 141.35 L 65.99 141.65 L 66.15 141.94 L 66.31 142.22 L 66.46 142.51 L 66.62 142.78 L 66.78 143.06 L 66.94 143.33 L 67.10 143.60 L 67.25 143.87 L 67.41 144.13 L 67.57 144.39 L 67.73 144.64 L 67.89 144.89 L 68.04 145.14 L 68.20 145.38 L 68.36 145.62 L 68.52 145.86 L 68.67 146.09 L 68.83 146.32 L 68.99 146.55 L 69.15 146.77 L 69.31 146.99 L 69.46 147.20 L 69.62 147.41 L 69.78 147.62 L 69.94 147.82 L 70.10 148.02 L 70.25 148.22 L 70.41 148.41 L 70.57 148.60 L 70.73 148.79 L 70.88 148.97 L 71.04 149.14 L 71.20 149.32 L 71.36 149.49 L 71.52 149.65 L 71.67 149.82 L 71.83 149.98 L 71.99 150.13 L 72.15 150.28 L 72.31 150.43 L 72.46 150.57 L 72.62 150.71 L 72.78 150.85 L 72.94 150.98 L 73.10 151.11 L 73.25 151.24 L 73.41 151.36 L 73.57 151.47 L 73.73 151.59 L 73.88 151.70 L 74.04 151.80 L 74.20 151.91 L 74.36 152.00 L 74.52 152.10 L 74.67 152.19 L 74.83 152.28 L 74.99 152.36 L 75.15 152.44 L 75.31 152.52 L 75.46 152.59 L 75.62 152.66 L 75.78 152.72 L 75.94 152.78 L 76.09 152.84 L 76.25 152.89 L 76.41 152.94 L 76.57 152.99 L 76.73 153.03 L 76.88 153.07 L 77.04 153.10 L 77.20 153.13 L 77.36 153.16 L 77.52 153.18 L 77.67 153.20 L 77.83 153.22 L 77.99 153.23 L 78.15 153.24 L 78.30 153.25 L 78.46 153.25 L 78.62 153.25 L 78.78 153.24 L 78.94 153.23 L 79.09 153.22 L 79.25 153.20 L 79.41 153.18 L 79.57 153.16 L 79.73 153.13 L 79.88 153.10 L 80.04 153.07 L 80.20 153.03 L 80.36 152.99 L 80.51 152.94 L 80.67 152.90 L 80.83 152.84 L 80.99 152.79 L 81.15 152.73 L 81.30 152.67 L 81.46 152.60 L 81.62 152.53 L 81.78 152.46 L 81.94 152.39 L 82.09 152.31 L 82.25 152.23 L 82.41 152.14 L 82.57 152.05 L 82.72 151.96 L 82.88 151.86 L 83.04 151.76 L 83.20 151.66 L 83.36 151.56 L 83.51 151.45 L 83.67 151.34 L 83.83 151.22 L 83.99 151.11 L 84.15 150.98 L 84.30 150.86 L 84.46 150.73 L 84.62 150.60 L 84.78 150.47 L 84.93 150.33 L 85.09 150.19 L 85.25 150.05 L 85.41 149.91 L 85.57 149.76 L 85.72 149.61 L 85.88 149.45 L 86.04 149.30 L 86.20 149.14 L 86.36 148.97 L 86.51 148.81 L 86.67 148.64 L 86.83 148.47 L 86.99 148.30 L 87.15 148.12 L 87.30 147.94 L 87.46 147.76 L 87.62 147.57 L 87.78 147.39 L 87.93 147.20 L 88.09 147.00 L 88.25 146.81 L 88.41 146.61 L 88.57 146.41 L 88.72 146.21 L 88.88 146.00 L 89.04 145.80 L 89.20 145.59 L 89.36 145.37 L 89.51 145.16 L 89.67 144.94 L 89.83 144.72 L 89.99 144.50 L 90.14 144.28 L 90.30 144.05 L 90.46 143.82 L 90.62 143.59 L 90.78 143.36 L 90.93 143.13 L 91.09 142.89 L 91.25 142.65 L 91.41 142.41 L 91.57 142.17 L 91.72 141.92 L 91.88 141.67 L 92.04 141.42 L 92.20 141.17 L 92.35 140.92 L 92.51 140.67 L 92.67 140.41 L 92.83 140.15 L 92.99 139.89 L 93.14 139.63 L 93.30 139.37 L 93.46 139.10 L 93.62 138.83 L 93.78 138.57 L 93.93 138.30 L 94.09 138.02 L 94.25 137.75 L 94.41 137.48 L 94.56 137.20 L 94.72 136.92 L 94.88 136.64 L 95.04 136.36 L 95.20 136.08 L 95.35 135.80 L 95.51 135.51 L 95.67 135.23 L 95.83 134.94 L 95.99 134.65 L 96.14 134.36 L 96.30 134.07 L 96.46 133.78 L 96.62 133.49 L 96.77 133.20 L 96.93 132.90 L 97.09 132.61 L 97.25 132.31 L 97.41 132.01 L 97.56 131.71 L 97.72 131.41 L 97.88 131.11 L 98.04 130.81 L 98.20 130.51 L 98.35 130.21 L 98.51 129.90 L 98.67 129.60 L 98.83 129.30 L 98.98 128.99 L 99.14 128.68 L 99.30 128.38 L 99.46 128.07 L 99.62 127.76 L 99.77 127.45 L 99.93 127.15 L 100.09 126.84 L 100.25 126.53 L 100.41 126.22 L 100.56 125.91 L 100.72 125.60 L 100.88 125.29 L 101.04 124.98 L 101.20 124.66 L 101.35 124.35 L 101.51 124.04 L 101.67 123.73 L 101.83 123.42 L 101.98 123.11 L 102.14 122.80 L 102.30 122.48 L 102.46 122.17 L 102.62 121.86 L 102.77 121.55 L 102.93 121.24 L 103.09 120.93 L 103.25 120.62 L 103.41 120.30 L 103.56 119.99 L 103.72 119.68 L 103.88 119.37 L 104.04 119.06 L 104.19 118.76 L 104.35 118.45 L 104.51 118.14 L 104.67 117.83 L 104.83 117.52 L 104.98 117.21 L 105.14 116.91 L 105.30 116.60 L 105.46 116.30 L 105.62 115.99 L 105.77 115.69 L 105.93 115.38 L 106.09 115.08 L 106.25 114.78 L 106.40 114.48 L 106.56 114.18 L 106.72 113.88 L 106.88 113.58 L 107.04 113.28 L 107.19 112.99 L 107.35 112.69 L 107.51 112.39 L 107.67 112.10 L 107.83 111.81 L 107.98 111.51 L 108.14 111.22 L 108.30 110.93 L 108.46 110.65 L 108.61 110.36 L 108.77 110.07 L 108.93 109.79 L 109.09 109.50 L 109.25 109.22 L 109.40 108.94 L 109.56 108.66 L 109.72 108.38 L 109.88 108.10 L 110.04 107.82 L 110.19 107.55 L 110.35 107.28 L 110.51 107.00 L 110.67 106.73 L 110.82 106.46 L 110.98 106.20 L 111.14 105.93 L 111.30 105.67 L 111.46 105.40 L 111.61 105.14 L 111.77 104.88 L 111.93 104.62 L 112.09 104.37 L 112.25 104.11 L 112.40 103.86 L 112.56 103.61 L 112.72 103.36 L 112.88 103.11 L 113.04 102.87 L 113.19 102.62 L 113.35 102.38 L 113.51 102.14 L 113.67 101.90 L 113.82 101.66 L 113.98 101.43 L 114.14 101.20 L 114.30 100.97 L 114.46 100.74 L 114.61 100.51 L 114.77 100.29 L 114.93 100.06 L 115.09 99.84 L 115.25 99.62 L 115.40 99.41 L 115.56 99.19 L 115.72 98.98 L 115.88 98.77 L 116.03 98.56 L 116.19 98.36 L 116.35 98.15 L 116.51 97.95 L 116.67 97.75 L 116.82 97.56 L 116.98 97.36 L 117.14 97.17 L 117.30 96.98 L 117.46 96.79 L 117.61 96.61 L 117.77 96.42 L 117.93 96.24 L 118.09 96.06 L 118.24 95.89 L 118.40 95.71 L 118.56 95.54 L 118.72 95.37 L 118.88 95.21 L 119.03 95.04 L 119.19 94.88 L 119.35 94.72 L 119.51 94.57 L 119.67 94.41 L 119.82 94.26 L 119.98 94.11 L 120.14 93.97 L 120.30 93.82 L 120.45 93.68 L 120.61 93.54 L 120.77 93.41 L 120.93 93.27 L 121.09 93.14 L 121.24 93.01 L 121.40 92.89 L 121.56 92.76 L 121.72 92.64 L 121.88 92.52 L 122.03 92.41 L 122.19 92.30 L 122.35 92.18 L 122.51 92.08 L 122.66 91.97 L 122.82 91.87 L 122.98 91.77 L 123.14 91.67 L 123.30 91.58 L 123.45 91.49 L 123.61 91.40 L 123.77 91.31 L 123.93 91.23 L 124.09 91.15 L 124.24 91.07 L 124.40 90.99 L 124.56 90.92 L 124.72 90.85 L 124.87 90.78 L 125.03 90.72 L 125.19 90.66 L 125.35 90.60 L 125.51 90.54 L 125.66 90.49 L 125.82 90.44 L 125.98 90.39 L 126.14 90.35 L 126.30 90.30 L 126.45 90.26 L 126.61 90.23 L 126.77 90.19 L 126.93 90.16 L 127.09 90.13 L 127.24 90.10 L 127.40 90.08 L 127.56 90.06 L 127.72 90.04 L 127.87 90.03 L 128.03 90.01 L 128.19 90.00 L 128.35 90.00 L 128.51 89.99 L 128.66 89.99 L 128.82 89.99 L 128.98 89.99 L 129.14 90.00 L 129.30 90.01 L 129.45 90.02 L 129.61 90.04 L 129.77 90.05 L 129.93 90.07 L 130.08 90.09 L 130.24 90.12 L 130.40 90.15 L 130.56 90.18 L 130.72 90.21 L 130.87 90.25 L 131.03 90.28 L 131.19 90.33 L 131.35 90.37 L 131.51 90.41 L 131.66 90.46 L 131.82 90.51 L 131.98 90.57 L 132.14 90.62 L 132.29 90.68 L 132.45 90.75 L 132.61 90.81 L 132.77 90.88 L 132.93 90.95 L 133.08 91.02 L 133.24 91.09 L 133.40 91.17 L 133.56 91.25 L 133.72 91.33 L 133.87 91.41 L 134.03 91.50 L 134.19 91.59 L 134.35 91.68 L 134.50 91.77 L 134.66 91.87 L 134.82 91.97 L 134.98 92.07 L 135.14 92.17 L 135.29 92.28 L 135.45 92.38 L 135.61 92.49 L 135.77 92.61 L 135.93 92.72 L 136.08 92.84 L 136.24 92.96 L 136.40 93.08 L 136.56 93.20 L 136.71 93.33 L 136.87 93.46 L 137.03 93.59 L 137.19 93.72 L 137.35 93.86 L 137.50 93.99 L 137.66 94.13 L 137.82 94.27 L 137.98 94.42 L 138.14 94.56 L 138.29 94.71 L 138.45 94.86 L 138.61 95.01 L 138.77 95.16 L 138.92 95.32 L 139.08 95.48 L 139.24 95.64 L 139.40 95.80 L 139.56 95.96 L 139.71 96.12 L 139.87 96.29 L 140.03 96.46 L 140.19 96.63 L 140.35 96.80 L 140.50 96.98 L 140.66 97.15 L 140.82 97.33 L 140.98 97.51 L 141.14 97.69 L 141.29 97.87 L 141.45 98.06 L 141.61 98.25 L 141.77 98.43 L 141.92 98.62 L 142.08 98.81 L 142.24 99.01 L 142.40 99.20 L 142.56 99.40 L 142.71 99.59 L 142.87 99.79 L 143.03 99.99 L 143.19 100.19 L 143.35 100.40 L 143.50 100.60 L 143.66 100.81 L 143.82 101.02 L 143.98 101.22 L 144.13 101.43 L 144.29 101.65 L 144.45 101.86 L 144.61 102.07 L 144.77 102.29 L 144.92 102.50 L 145.08 102.72 L 145.24 102.94 L 145.40 103.16 L 145.56 103.38 L 145.71 103.60 L 145.87 103.82 L 146.03 104.05 L 146.19 104.27 L 146.34 104.50 L 146.50 104.73 L 146.66 104.95 L 146.82 105.18 L 146.98 105.41 L 147.13 105.64 L 147.29 105.87 L 147.45 106.11 L 147.61 106.34 L 147.77 106.57 L 147.92 106.81 L 148.08 107.04 L 148.24 107.28 L 148.40 107.52 L 148.55 107.75 L 148.71 107.99 L 148.87 108.23 L 149.03 108.47 L 149.19 108.71 L 149.34 108.95 L 149.50 109.19 L 149.66 109.43 L 149.82 109.67 L 149.98 109.92 L 150.13 110.16 L 150.29 110.40 L 150.45 110.65 L 150.61 110.89 L 150.76 111.13 L 150.92 111.38 L 151.08 111.62 L 151.24 111.87 L 151.40 112.11 L 151.55 112.36 L 151.71 112.60 L 151.87 112.85 L 152.03 113.10 L 152.19 113.34 L 152.34 113.59 L 152.50 113.83 L 152.66 114.08 L 152.82 114.33 L 152.97 114.57 L 153.13 114.82 L 153.29 115.06 L 153.45 115.31 L 153.61 115.56 L 153.76 115.80 L 153.92 116.05 L 154.08 116.29 L 154.24 116.54 L 154.40 116.78 L 154.55 117.03 L 154.71 117.27 L 154.87 117.51 L 155.03 117.76 L 155.19 118.00 L 155.34 118.24 L 155.50 118.49 L 155.66 118.73 L 155.82 118.97 L 155.97 119.21 L 156.13 119.45 L 156.29 119.69 L 156.45 119.93 L 156.61 120.17 L 156.76 120.41 L 156.92 120.65 L 157.08 120.88 L 157.24 121.12 L 157.40 121.36 L 157.55 121.59 L 157.71 121.83 L 157.87 122.06 L 158.03 122.29 L 158.18 122.52 L 158.34 122.76 L 158.50 122.99 L 158.66 123.22 L 158.82 123.44 L 158.97 123.67 L 159.13 123.90 L 159.29 124.13 L 159.45 124.35 L 159.61 124.57 L 159.76 124.80 L 159.92 125.02 L 160.08 125.24 L 160.24 125.46 L 160.39 125.68 L 160.55 125.90 L 160.71 126.11 L 160.87 126.33 L 161.03 126.54 L 161.18 126.76 L 161.34 126.97 L 161.50 127.18 L 161.66 127.39 L 161.82 127.60 L 161.97 127.80 L 162.13 128.01 L 162.29 128.21 L 162.45 128.41 L 162.60 128.62 L 162.76 128.82 L 162.92 129.01 L 163.08 129.21 L 163.24 129.41 L 163.39 129.60 L 163.55 129.79 L 163.71 129.99 L 163.87 130.18 L 164.03 130.36 L 164.18 130.55 L 164.34 130.74 L 164.50 130.92 L 164.66 131.10 L 164.81 131.28 L 164.97 131.46 L 165.13 131.64 L 165.29 131.81 L 165.45 131.99 L 165.60 132.16 L 165.76 132.33 L 165.92 132.50 L 166.08 132.67 L 166.24 132.83 L 166.39 132.99 L 166.55 133.16 L 166.71 133.32 L 166.87 133.47 L 167.03 133.63 L 167.18 133.79 L 167.34 133.94 L 167.50 134.09 L 167.66 134.24 L 167.81 134.38 L 167.97 134.53 L 168.13 134.67 L 168.29 134.81 L 168.45 134.95 L 168.60 135.09 L 168.76 135.23 L 168.92 135.36 L 169.08 135.49 L 169.24 135.62 L 169.39 135.75 L 169.55 135.87 L 169.71 136.00 L 169.87 136.12 L 170.02 136.24 L 170.18 136.36 L 170.34 136.47 L 170.50 136.59 L 170.66 136.70 L 170.81 136.81 L 170.97 136.91 L 171.13 137.02 L 171.29 137.12 L 171.45 137.22 L 171.60 137.32 L 171.76 137.42 L 171.92 137.51 L 172.08 137.60 L 172.23 137.69 L 172.39 137.78 L 172.55 137.87 L 172.71 137.95 L 172.87 138.03 L 173.02 138.11 L 173.18 138.19 L 173.34 138.26 L 173.50 138.33 L 173.66 138.41 L 173.81 138.47 L 173.97 138.54 L 174.13 138.60 L 174.29 138.66 L 174.44 138.72 L 174.60 138.78 L 174.76 138.84 L 174.92 138.89 L 175.08 138.94 L 175.23 138.99 L 175.39 139.03 L 175.55 139.08 L 175.71 139.12 L 175.87 139.16 L 176.02 139.19 L 176.18 139.23 L 176.34 139.26 L 176.50 139.29 L 176.65 139.32 L 176.81 139.34 L 176.97 139.37 L 177.13 139.39 L 177.29 139.41 L 177.44 139.42 L 177.60 139.44 L 177.76 139.45 L 177.92 139.46 L 178.08 139.46 L 178.23 139.47 L 178.39 139.47 L 178.55 139.47 L 178.71 139.47 L 178.86 139.47 L 179.02 139.46 L 179.18 139.45 L 179.34 139.44 L 179.50 139.43 L 179.65 139.41 L 179.81 139.40 L 179.97 139.38 L 180.13 139.36 L 180.29 139.33 L 180.44 139.31 L 180.60 139.28 L 180.76 139.25 L 180.92 139.21 L 181.08 139.18 L 181.23 139.14 L 181.39 139.10 L 181.55 139.06 L 181.71 139.02 L 181.86 138.97 L 182.02 138.92 L 182.18 138.87 L 182.34 138.82 L 182.50 138.77 L 182.65 138.71 L 182.81 138.65 L 182.97 138.59 L 183.13 138.53 L 183.29 138.46 L 183.44 138.40 L 183.60 138.33 L 183.76 138.26 L 183.92 138.18 L 184.07 138.11 L 184.23 138.03 L 184.39 137.95 L 184.55 137.87 L 184.71 137.79 L 184.86 137.70 L 185.02 137.61 L 185.18 137.52 L 185.34 137.43 L 185.50 137.34 L 185.65 137.24 L 185.81 137.15 L 185.97 137.05 L 186.13 136.95 L 186.28 136.84 L 186.44 136.74 L 186.60 136.63 L 186.76 136.52 L 186.92 136.41 L 187.07 136.30 L 187.23 136.19 L 187.39 136.07 L 187.55 135.95 L 187.71 135.83 L 187.86 135.71 L 188.02 135.59 L 188.18 135.47 L 188.34 135.34 L 188.49 135.21 L 188.65 135.08 L 188.81 134.95 L 188.97 134.82 L 189.13 134.68 L 189.28 134.54 L 189.44 134.41 L 189.60 134.27 L 189.76 134.13 L 189.92 133.98 L 190.07 133.84 L 190.23 133.69 L 190.39 133.54 L 190.55 133.39 L 190.70 133.24 L 190.86 133.09 L 191.02 132.94 L 191.18 132.78 L 191.34 132.63 L 191.49 132.47 L 191.65 132.31 L 191.81 132.15 L 191.97 131.99 L 192.13 131.82 L 192.28 131.66 L 192.44 131.49 L 192.60 131.32 L 192.76 131.16 L 192.91 130.99 L 193.07 130.82 L 193.23 130.64 L 193.39 130.47 L 193.55 130.29 L 193.70 130.12 L 193.86 129.94 L 194.02 129.76 L 194.18 129.58 L 194.34 129.40 L 194.49 129.22 L 194.65 129.04 L 194.81 128.85 L 194.97 128.67 L 195.13 128.48 L 195.28 128.30 L 195.44 128.11 L 195.60 127.92 L 195.76 127.73 L 195.91 127.54 L 196.07 127.35 L 196.23 127.16 L 196.39 126.96 L 196.55 126.77 L 196.70 126.58 L 196.86 126.38 L 197.02 126.18 L 197.18 125.99 L 197.34 125.79 L 197.49 125.59 L 197.65 125.39 L 197.81 125.19 L 197.97 124.99 L 198.12 124.79 L 198.28 124.59 L 198.44 124.39 L 198.60 124.18 L 198.76 123.98 L 198.91 123.78 L 199.07 123.57 L 199.23 123.37 L 199.39 123.16 L 199.55 122.96 L 199.70 122.75 L 199.86 122.54 L 200.02 122.34 L 200.18 122.13 L 200.33 121.92 L 200.49 121.72 L 200.65 121.51 L 200.81 121.30 L 200.97 121.09 L 201.12 120.88 L 201.28 120.67 L 201.44 120.46 L 201.60 120.25 L 201.76 120.04 L 201.91 119.83 L 202.07 119.62 L 202.23 119.41 L 202.39 119.20 L 202.54 118.99 L 202.70 118.78 L 202.86 118.57 L 203.02 118.36 L 203.18 118.15 L 203.33 117.94 L 203.49 117.73 L 203.65 117.52 L 203.81 117.31 L 203.97 117.10 L 204.12 116.90 L 204.28 116.69 L 204.44 116.48 L 204.60 116.27 L 204.75 116.06 L 204.91 115.85 L 205.07 115.64 L 205.23 115.44 L 205.39 115.23 L 205.54 115.02 L 205.70 114.82 L 205.86 114.61 L 206.02 114.40 L 206.18 114.20 L 206.33 113.99 L 206.49 113.79 L 206.65 113.59 L 206.81 113.38 L 206.96 113.18 L 207.12 112.98 L 207.28 112.78 L 207.44 112.57 L 207.60 112.37 L 207.75 112.17 L 207.91 111.97 L 208.07 111.78 L 208.23 111.58 L 208.39 111.38 L 208.54 111.18 L 208.70 110.99 L 208.86 110.79 L 209.02 110.60 L 209.18 110.41 L 209.33 110.21 L 209.49 110.02 L 209.65 109.83 L 209.81 109.64 L 209.96 109.45 L 210.12 109.26 L 210.28 109.08 L 210.44 108.89 L 210.60 108.71 L 210.75 108.52 L 210.91 108.34 L 211.07 108.16 L 211.23 107.97 L 211.39 107.79 L 211.54 107.61 L 211.70 107.44 L 211.86 107.26 L 212.02 107.08 L 212.17 106.91 L 212.33 106.74 L 212.49 106.56 L 212.65 106.39 L 212.81 106.22 L 212.96 106.05 L 213.12 105.89 L 213.28 105.72 L 213.44 105.55 L 213.60 105.39 L 213.75 105.23 L 213.91 105.07 L 214.07 104.91 L 214.23 104.75 L 214.38 104.59 L 214.54 104.44 L 214.70 104.28 L 214.86 104.13 L 215.02 103.98 L 215.17 103.83 L 215.33 103.68 L 215.49 103.53 L 215.65 103.38 L 215.81 103.24 L 215.96 103.10 L 216.12 102.96 L 216.28 102.82 L 216.44 102.68 L 216.59 102.54 L 216.75 102.41 L 216.91 102.27 L 217.07 102.14 L 217.23 102.01 L 217.38 101.88 L 217.54 101.75 L 217.70 101.63 L 217.86 101.50 L 218.02 101.38 L 218.17 101.26 L 218.33 101.14 L 218.49 101.02 L 218.65 100.91 L 218.80 100.79 L 218.96 100.68 L 219.12 100.57 L 219.28 100.46 L 219.44 100.36 L 219.59 100.25 L 219.75 100.15 L 219.91 100.05 L 220.07 99.95 L 220.23 99.85 L 220.38 99.75 L 220.54 99.66 L 220.70 99.56 L 220.86 99.47 L 221.02 99.38 L 221.17 99.30 L 221.33 99.21 L 221.49 99.13 L 221.65 99.05 L 221.80 98.97 L 221.96 98.89 L 222.12 98.81 L 222.28 98.74 L 222.44 98.66 L 222.59 98.59 L 222.75 98.53 L 222.91 98.46 L 223.07 98.39 L 223.23 98.33 L 223.38 98.27 L 223.54 98.21 L 223.70 98.15 L 223.86 98.10 L 224.01 98.05 L 224.17 97.99 L 224.33 97.95 L 224.49 97.90 L 224.65 97.85 L 224.80 97.81 L 224.96 97.77 L 225.12 97.73 L 225.28 97.69 L 225.44 97.65 L 225.59 97.62 L 225.75 97.59 L 225.91 97.56 L 226.07 97.53 L 226.22 97.50 L 226.38 97.48 L 226.54 97.46 L 226.70 97.44 L 226.86 97.42 L 227.01 97.40 L 227.17 97.39 L 227.33 97.38 L 227.49 97.37 L 227.65 97.36 L 227.80 97.35 L 227.96 97.35 L 228.12 97.35 L 228.28 97.35 L 228.43 97.35 L 228.59 97.35 L 228.75 97.36 L 228.91 97.37 L 229.07 97.38 L 229.22 97.39 L 229.38 97.40 L 229.54 97.42 L 229.70 97.43 L 229.86 97.45 L 230.01 97.47 L 230.17 97.50 L 230.33 97.52 L 230.49 97.55 L 230.64 97.58 L 230.80 97.61 L 230.96 97.64 L 231.12 97.68 L 231.28 97.71 L 231.43 97.75 L 231.59 97.79 L 231.75 97.84 L 231.91 97.88 L 232.07 97.93 L 232.22 97.97 L 232.38 98.02 L 232.54 98.08 L 232.70 98.13 L 232.85 98.18 L 233.01 98.24 L 233.17 98.30 L 233.33 98.36 L 233.49 98.42 L 233.64 98.49 L 233.80 98.56 L 233.96 98.62 L 234.12 98.69 L 234.28 98.76 L 234.43 98.84 L 234.59 98.91 L 234.75 98.99 L 234.91 99.07 L 235.07 99.15 L 235.22 99.23 L 235.38 99.32 L 235.54 99.40 L 235.70 99.49 L 235.85 99.58 L 236.01 99.67 L 236.17 99.76 L 236.33 99.86 L 236.49 99.95 L 236.64 100.05 L 236.80 100.15 L 236.96 100.25 L 237.12 100.35 L 237.28 100.45 L 237.43 100.56 L 237.59 100.67 L 237.75 100.77 L 237.91 100.88 L 238.06 101.00 L 238.22 101.11 L 238.38 101.22 L 238.54 101.34 L 238.70 101.46 L 238.85 101.58 L 239.01 101.70 L 239.17 101.82 L 239.33 101.94 L 239.49 102.07 L 239.64 102.19 L 239.80 102.32 L 239.96 102.45 L 240.12 102.58 L 240.27 102.71 L 240.43 102.85 L 240.59 102.98 L 240.75 103.12 L 240.91 103.25 L 241.06 103.39 L 241.22 103.53 L 241.38 103.67 L 241.54 103.81 L 241.70 103.96 L 241.85 104.10 L 242.01 104.25 L 242.17 104.39 L 242.33 104.54 L 242.48 104.69 L 242.64 104.84 L 242.80 104.99 L 242.96 105.14 L 243.12 105.30 L 243.27 105.45 L 243.43 105.61 L 243.59 105.76 L 243.75 105.92 L 243.91 106.08 L 244.06 106.24 L 244.22 106.40 L 244.38 106.56 L 244.54 106.72 L 244.69 106.89 L 244.85 107.05 L 245.01 107.22 L 245.17 107.38 L 245.33 107.55 L 245.48 107.72 L 245.64 107.89 L 245.80 108.06 L 245.96 108.23 L 246.12 108.40 L 246.27 108.57 L 246.43 108.74 L 246.59 108.91 L 246.75 109.09 L 246.90 109.26 L 247.06 109.44 L 247.22 109.61 L 247.38 109.79 L 247.54 109.97 L 247.69 110.14 L 247.85 110.32 L 248.01 110.50 L 248.17 110.68 L 248.33 110.86 L 248.48 111.04 L 248.64 111.22 L 248.80 111.40 L 248.96 111.58 L 249.12 111.76 L 249.27 111.95 L 249.43 112.13 L 249.59 112.31 L 249.75 112.49 L 249.90 112.68 L 250.06 112.86 L 250.22 113.05 L 250.38 113.23 L 250.54 113.42 L 250.69 113.60 L 250.85 113.79 L 251.01 113.97 L 251.17 114.16 L 251.33 114.34 L 251.48 114.53 L 251.64 114.72 L 251.80 114.90 L 251.96 115.09 L 252.11 115.27 L 252.27 115.46 L 252.43 115.65 L 252.59 115.83 L 252.75 116.02 L 252.90 116.21 L 253.06 116.39 L 253.22 116.58 L 253.38 116.77 L 253.54 116.95 L 253.69 117.14 L 253.85 117.32 L 254.01 117.51 L 254.17 117.69 L 254.32 117.88 L 254.48 118.06 L 254.64 118.25 L 254.80 118.43 L 254.96 118.62 L 255.11 118.80 L 255.27 118.99 L 255.43 119.17 L 255.59 119.35 L 255.75 119.54 L 255.90 119.72 L 256.06 119.90 L 256.22 120.08 L 256.38 120.26 L 256.53 120.44 L 256.69 120.62 L 256.85 120.80 L 257.01 120.98 L 257.17 121.16 L 257.32 121.34 L 257.48 121.52 L 257.64 121.69 L 257.80 121.87 L 257.96 122.05 L 258.11 122.22 L 258.27 122.40 L 258.43 122.57 L 258.59 122.74 L 258.74 122.92 L 258.90 123.09 L 259.06 123.26 L 259.22 123.43 L 259.38 123.60 L 259.53 123.77 L 259.69 123.94 L 259.85 124.10 L 260.01 124.27 L 260.17 124.44 L 260.32 124.60 L 260.48 124.76 L 260.64 124.93 L 260.80 125.09 L 260.95 125.25 L 261.11 125.41 L 261.27 125.57 L 261.43 125.73 L 261.59 125.89 L 261.74 126.04 L 261.90 126.20 L 262.06 126.35 L 262.22 126.51 L 262.38 126.66 L 262.53 126.81 L 262.69 126.96 L 262.85 127.11 L 263.01 127.26 L 263.17 127.40 L 263.32 127.55 L 263.48 127.69 L 263.64 127.84 L 263.80 127.98 L 263.95 128.12 L 264.11 128.26 L 264.27 128.40 L 264.43 128.54 L 264.59 128.67 L 264.74 128.81 L 264.90 128.94 L 265.06 129.07 L 265.22 129.20 L 265.38 129.33 L 265.53 129.46 L 265.69 129.59 L 265.85 129.72 L 266.01 129.84 L 266.16 129.96 L 266.32 130.09 L 266.48 130.21 L 266.64 130.32 L 266.80 130.44 L 266.95 130.56 L 267.11 130.67 L 267.27 130.79 L 267.43 130.90 L 267.59 131.01 L 267.74 131.12 L 267.90 131.22 L 268.06 131.33 L 268.22 131.43 L 268.37 131.54 L 268.53 131.64 L 268.69 131.74 L 268.85 131.84 L 269.01 131.93 L 269.16 132.03 L 269.32 132.12 L 269.48 132.21 L 269.64 132.30 L 269.80 132.39 L 269.95 132.48 L 270.11 132.57 L 270.27 132.65 L 270.43 132.73 L 270.58 132.81 L 270.74 132.89 L 270.90 132.97 L 271.06 133.05 L 271.22 133.12 L 271.37 133.19 L 271.53 133.26 L 271.69 133.33 L 271.85 133.40 L 272.01 133.47 L 272.16 133.53 L 272.32 133.59 L 272.48 133.65 L 272.64 133.71 L 272.79 133.77 L 272.95 133.82 L 273.11 133.88 L 273.27 133.93 L 273.43 133.98 L 273.58 134.03 L 273.74 134.08 L 273.90 134.12 L 274.06 134.17 L 274.22 134.21 L 274.37 134.25 L 274.53 134.29 L 274.69 134.32 L 274.85 134.36 L 275.01 134.39 L 275.16 134.42 L 275.32 134.45 L 275.48 134.48 L 275.64 134.50 L 275.79 134.53 L 275.95 134.55 L 276.11 134.57 L 276.27 134.59 L 276.43 134.61 L 276.58 134.62 L 276.74 134.64 L 276.90 134.65 L 277.06 134.66 L 277.22 134.67 L 277.37 134.67 L 277.53 134.68 L 277.69 134.68 L 277.85 134.68 L 278.00 134.68 L 278.16 134.68 L 278.32 134.67 L 278.48 134.67 L 278.64 134.66 L 278.79 134.65 L 278.95 134.64 L 279.11 134.63 L 279.27 134.61 L 279.43 134.60 L 279.58 134.58 L 279.74 134.56 L 279.90 134.54 L 280.06 134.51 L 280.21 134.49 L 280.37 134.46 L 280.53 134.43 L 280.69 134.40 L 280.85 134.37 L 281.00 134.34 L 281.16 134.30 L 281.32 134.26 L 281.48 134.22 L 281.64 134.18 L 281.79 134.14 L 281.95 134.10 L 282.11 134.05 L 282.27 134.00 L 282.42 133.95 L 282.58 133.90 L 282.74 133.85 L 282.90 133.80 L 283.06 133.74 L 283.21 133.68 L 283.37 133.63 L 283.53 133.56 L 283.69 133.50 L 283.85 133.44 L 284.00 133.37 L 284.16 133.31 L 284.32 133.24 L 284.48 133.17 L 284.63 133.09 L 284.79 133.02 L 284.95 132.95 L 285.11 132.87 L 285.27 132.79 L 285.42 132.71 L 285.58 132.63 L 285.74 132.55 L 285.90 132.46 L 286.06 132.38 L 286.21 132.29 L 286.37 132.20 L 286.53 132.11 L 286.69 132.02 L 286.84 131.93 L 287.00 131.83 L 287.16 131.74 L 287.32 131.64 L 287.48 131.54 L 287.63 131.44 L 287.79 131.34 L 287.95 131.24 L 288.11 131.13 L 288.27 131.03 L 288.42 130.92 L 288.58 130.81 L 288.74 130.70 L 288.90 130.59 L 289.06 130.48 L 289.21 130.37 L 289.37 130.25 L 289.53 130.14 L 289.69 130.02 L 289.84 129.90 L 290.00 129.78 L 290.16 129.66 L 290.32 129.54 L 290.48 129.41 L 290.63 129.29 L 290.79 129.16 L 290.95 129.04 L 291.11 128.91 L 291.27 128.78 L 291.42 128.65 L 291.58 128.52 L 291.74 128.39 L 291.90 128.25 L 292.05 128.12 L 292.21 127.98 L 292.37 127.85 L 292.53 127.71 L 292.69 127.57 L 292.84 127.43 L 293.00 127.29 L 293.16 127.15 L 293.32 127.01 L 293.48 126.87 L 293.63 126.72 L 293.79 126.58 L 293.95 126.43 L 294.11 126.28 L 294.26 126.14 L 294.42 125.99 L 294.58 125.84 L 294.74 125.69 L 294.90 125.54 L 295.05 125.39 L 295.21 125.23 L 295.37 125.08 L 295.53 124.93 L 295.69 124.77 L 295.84 124.62 L 296.00 124.46 L 296.16 124.31 L 296.32 124.15 L 296.47 123.99 L 296.63 123.83 L 296.79 123.67 L 296.95 123.51 L 297.11 123.35 L 297.26 123.19 L 297.42 123.03 L 297.58 122.87 L 297.74 122.71 L 297.90 122.55 L 298.05 122.38 L 298.21 122.22 L 298.37 122.05 L 298.53 121.89 L 298.68 121.73 L 298.84 121.56 L 299.00 121.39 L 299.16 121.23 L 299.32 121.06 L 299.47 120.90 L 299.63 120.73 L 299.79 120.56 L 299.95 120.39 L 300.11 120.23 L 300.26 120.06 L 300.42 119.89 L 300.58 119.72 L 300.74 119.55 L 300.89 119.39 L 301.05 119.22 L 301.21 119.05 L 301.37 118.88 L 301.53 118.71 L 301.68 118.54 L 301.84 118.37 L 302.00 118.20" fill="none" stroke="#7E8692" stroke-width="2.3" stroke-linecap="round" stroke-linejoin="round"/>
</svg>
