<svg xmlns="http://www.w3.org/2000/svg" viewBox="0 0 320 180" width="320" height="180">
  <rect width="320" height="180" fill="#F4F5F7"/>
  <path d="M 18.00 150.00 L 18.32 149.87 L 18.63 149.73 L 18.95 149.60 L 19.26 149.47 L 19.58 149.33 L 19.90 149.20 L 20.21 149.07 L 20.53 148.93 L 20.84 148.80 L 21.16 148.67 L 21.47 148.53 L 21.79 148.40 L 22.11 148.26 L 22.42 148.13 L 22.74 148.00 L 23.05 147.86 L 23.37 147.73 L 23.69 147.60 L 24.00 147.46 L 24.32 147.33 L 24.63 147.20 L 24.95 147.06 L 25.27 146.93 L 25.58 146.80 L 25.90 146.66 L 26.21 146.53 L 26.53 146.40 L 26.85 146.26 L 27.16 146.13 L 27.48 146.00 L 27.79 145.86 L 28.11 145.73 L 28.42 145.60 L 28.74 145.46 L 29.06 145.33 L 29.37 145.19 L 29.69 145.06 L 30.00 144.93 L 30.32 144.79 L 30.64 144.66 L 30.95 144.53 L 31.27 144.39 L 31.58 144.26 L 31.90 144.13 L 32.22 143.99 L 32.53 143.86 L 32.85 143.73 L 33.16 143.59 L 33.48 143.46 L 33.80 143.33 L 34.11 143.19 L 34.43 143.06 L 34.74 142.93 L 35.06 142.79 L 35.37 142.66 L 35.69 142.53 L 36.01 142.39 L 36.32 142.26 L 36.64 142.12 L 36.95 141.99 L 37.27 141.86 L 37.59 141.72 L 37.90 141.59 L 38.22 141.46 L 38.53 141.32 L 38.85 141.19 L 39.17 141.06 L 39.48 140.92 L 39.80 140.79 L 40.11 140.66 L 40.43 140.52 L 40.75 140.39 L 41.06 140.26 L 41.38 140.12 L 41.69 139.99 L 42.01 139.86 L 42.32 139.72 L 42.64 139.59 L 42.96 139.45 L 43.27 139.32 L 43.59 139.19 L 43.90 139.05 L 44.22 138.92 L 44.54 138.79 L 44.85 138.65 L 45.17 138.52 L 45.48 138.39 L 45.80 138.25 L 46.12 138.12 L 46.43 137.99 L 46.75 137.85 L 47.06 137.72 L 47.38 137.59 L 47.70 137.45 L 48.01 137.32 L 48.33 137.19 L 48.64 137.05 L 48.96 136.92 L 49.27 136.79 L 49.59 136.65 L 49.91 136.52 L 50.22 136.38 L 50.54 136.25 L 50.85 136.12 L 51.17 135.98 L 51.49 135.85 L 51.80 135.72 L 52.12 135.58 L 52.43 135.45 L 52.75 135.32 L 53.07 135.18 L 53.38 135.05 L 53.70 134.92 L 54.01 134.78 L 54.33 134.65 L 54.65 134.52 L 54.96 134.38 L 55.28 134.25 L 55.59 134.12 L 55.91 133.98 L 56.22 133.85 L 56.54 133.72 L 56.86 133.58 L 57.17 133.45 L 57.49 133.31 L 57.80 133.18 L 58.12 133.05 L 58.44 132.91 L 58.75 132.78 L 59.07 132.65 L 59.38 132.51 L 59.70 132.38 L 60.02 132.25 L 60.33 132.11 L 60.65 131.98 L 60.96 131.85 L 61.28 131.71 L 61.60 131.58 L 61.91 131.45 L 62.23 131.31 L 62.54 131.18 L 62.86 131.05 L 63.17 130.91 L 63.49 130.78 L 63.81 130.65 L 64.12 130.51 L 64.44 130.38 L 64.75 130.24 L 65.07 130.11 L 65.39 129.98 L 65.70 129.84 L 66.02 129.71 L 66.33 129.58 L 66.65 129.44 L 66.97 129.31 L 67.28 129.18 L 67.60 129.04 L 67.91 128.91 L 68.23 128.78 L 68.55 128.64 L 68.86 128.51 L 69.18 128.38 L 69.49 128.24 L 69.81 128.11 L 70.12 127.98 L 70.44 127.84 L 70.76 127.71 L 71.07 127.58 L 71.39 127.44 L 71.70 127.31 L 72.02 127.17 L 72.34 127.04 L 72.65 126.91 L 72.97 126.77 L 73.28 126.64 L 73.60 126.51 L 73.92 126.37 L 74.23 126.24 L 74.55 126.11 L 74.86 125.97 L 75.18 125.84 L 75.49 125.71 L 75.81 125.57 L 76.13 125.44 L 76.44 125.31 L 76.76 125.17 L 77.07 125.04 L 77.39 124.91 L 77.71 124.77 L 78.02 124.64 L 78.34 124.51 L 78.65 124.37 L 78.97 124.24 L 79.29 124.10 L 79.60 123.97 L 79.92 123.84 L 80.23 123.70 L 80.55 123.57 L 80.87 123.44 L 81.18 123.30 L 81.50 123.17 L 81.81 123.04 L 82.13 122.90 L 82.44 122.77 L 82.76 122.64 L 83.08 122.50 L 83.39 122.37 L 83.71 122.24 L 84.02 122.10 L 84.34 121.97 L 84.66 121.84 L 84.97 121.70 L 85.29 121.57 L 85.60 121.43 L 85.92 121.30 L 86.24 121.17 L 86.55 121.03 L 86.87 120.90 L 87.18 120.77 L 87.50 120.63 L 87.82 120.50 L 88.13 120.37 L 88.45 120.23 L 88.76 120.10 L 89.08 119.97 L 89.39 119.83 L 89.71 119.70 L 90.03 119.57 L 90.34 119.43 L 90.66 119.30 L 90.97 119.17 L 91.29 119.03 L 91.61 118.90 L 91.92 118.77 L 92.24 118.63 L 92.55 118.50 L 92.87 118.36 L 93.19 118.23 L 93.50 118.10 L 93.82 117.96 L 94.13 117.83 L 94.45 117.70 L 94.77 117.56 L 95.08 117.43 L 95.40 117.30 L 95.71 117.16 L 96.03 117.03 L 96.34 116.90 L 96.66 116.76 L 96.98 116.63 L 97.29 116.50 L 97.61 116.36 L 97.92 116.23 L 98.24 116.10 L 98.56 115.96 L 98.87 115.83 L 99.19 115.70 L 99.50 115.56 L 99.82 115.43 L 100.14 115.29 L 100.45 115.16 L 100.77 115.03 L 101.08 114.89 L 101.40 114.76 L 101.72 114.63 L 102.03 114.49 L 102.35 114.36 L 102.66 114.23 L 102.98 114.09 L 103.29 113.96 L 103.61 113.83 L 103.93 113.69 L 104.24 113.56 L 104.56 113.43 L 104.87 113.29 L 105.19 113.16 L 105.51 113.03 L 105.82 112.89 L 106.14 112.76 L 106.45 112.63 L 106.77 112.49 L 107.09 112.36 L 107.40 112.22 L 107.72 112.09 L 108.03 111.96 L 108.35 111.82 L 108.67 111.69 L 108.98 111.56 L 109.30 111.42 L 109.61 111.29 L 109.93 111.16 L 110.24 111.02 L 110.56 110.89 L 110.88 110.76 L 111.19 110.62 L 111.51 110.49 L 111.82 110.36 L 112.14 110.22 L 112.46 110.09 L 112.77 109.96 L 113.09 109.82 L 113.40 109.69 L 113.72 109.56 L 114.04 109.42 L 114.35 109.29 L 114.67 109.15 L 114.98 109.02 L 115.30 108.89 L 115.62 108.75 L 115.93 108.62 L 116.25 108.49 L 116.56 108.35 L 116.88 108.22 L 117.19 108.09 L 117.51 107.95 L 117.83 107.82 L 118.14 107.69 L 118.46 107.55 L 118.77 107.42 L 119.09 107.29 L 119.41 107.15 L 119.72 107.02 L 120.04 106.89 L 120.35 106.75 L 120.67 106.62 L 120.99 106.48 L 121.30 106.35 L 121.62 106.22 L 121.93 106.08 L 122.25 105.95 L 122.57 105.82 L 122.88 105.68 L 123.20 105.55 L 123.51 105.42 L 123.83 105.28 L 124.14 105.15 L 124.46 105.02 L 124.78 104.88 L 125.09 104.75 L 125.41 104.62 L 125.72 104.48 L 126.04 104.35 L 126.36 104.22 L 126.67 104.08 L 126.99 103.95 L 127.30 103.82 L 127.62 103.68 L 127.94 103.55 L 128.25 103.41 L 128.57 103.28 L 128.88 103.15 L 129.20 103.01 L 129.52 102.88 L 129.83 102.75 L 130.15 102.61 L 130.46 102.48 L 130.78 102.35 L 131.09 102.21 L 131.41 102.08 L 131.73 101.95 L 132.04 101.81 L 132.36 101.68 L 132.67 101.55 L 132.99 101.41 L 133.31 101.28 L 133.62 101.15 L 133.94 101.01 L 134.25 100.88 L 134.57 100.75 L 134.89 100.61 L 135.20 100.48 L 135.52 100.34 L 135.83 100.21 L 136.15 100.08 L 136.46 99.94 L 136.78 99.81 L 137.10 99.68 L 137.41 99.54 L 137.73 99.41 L 138.04 99.28 L 138.36 99.14 L 138.68 99.01 L 138.99 98.88 L 139.31 98.74 L 139.62 98.61 L 139.94 98.48 L 140.26 98.34 L 140.57 98.21 L 140.89 98.08 L 141.20 97.94 L 141.52 97.81 L 141.84 97.68 L 142.15 97.54 L 142.47 97.41 L 142.78 97.27 L 143.10 97.14 L 143.41 97.01 L 143.73 96.87 L 144.05 96.74 L 144.36 96.61 L 144.68 96.47 L 144.99 96.34 L 145.31 96.21 L 145.63 96.07 L 145.94 95.94 L 146.26 95.81 L 146.57 95.67 L 146.89 95.54 L 147.21 95.41 L 147.52 95.27 L 147.84 95.14 L 148.15 95.01 L 148.47 94.87 L 148.79 94.74 L 149.10 94.61 L 149.42 94.47 L 149.73 94.34 L 150.05 94.20 L 150.36 94.07 L 150.68 93.94 L 151.00 93.80 L 151.31 93.67 L 151.63 93.54 L 151.94 93.40 L 152.26 93.27 L 152.58 93.14 L 152.89 93.00 L 153.21 92.87 L 153.52 92.74 L 153.84 92.60 L 154.16 92.47 L 154.47 92.34 L 154.79 92.20 L 155.10 92.07 L 155.42 91.94 L 155.74 91.80 L 156.05 91.67 L 156.37 91.54 L 156.68 91.40 L 157.00 91.27 L 157.31 91.13 L 157.63 91.00 L 157.95 90.87 L 158.26 90.73 L 158.58 90.60 L 158.89 90.47 L 159.21 90.33 L 159.53 90.20 L 159.84 90.07 L 160.16 89.93 L 160.47 89.80 L 160.79 89.67 L 161.11 89.53 L 161.42 89.40 L 161.74 89.27 L 162.05 89.13 L 162.37 89.00 L 162.69 88.87 L 163.00 88.73 L 163.32 88.60 L 163.63 88.46 L 163.95 88.33 L 164.26 88.20 L 164.58 88.06 L 164.90 87.93 L 165.21 87.80 L 165.53 87.66 L 165.84 87.53 L 166.16 87.40 L 166.48 87.26 L 166.79 87.13 L 167.11 87.00 L 167.42 86.86 L 167.74 86.73 L 168.06 86.60 L 168.37 86.46 L 168.69 86.33 L 169.00 86.20 L 169.32 86.06 L 169.64 85.93 L 169.95 85.80 L 170.27 85.66 L 170.58 85.53 L 170.90 85.39 L 171.21 85.26 L 171.53 85.13 L 171.85 84.99 L 172.16 84.86 L 172.48 84.73 L 172.79 84.59 L 173.11 84.46 L 173.43 84.33 L 173.74 84.19 L 174.06 84.06 L 174.37 83.93 L 174.69 83.79 L 175.01 83.66 L 175.32 83.53 L 175.64 83.39 L 175.95 83.26 L 176.27 83.13 L 176.59 82.99 L 176.90 82.86 L 177.22 82.73 L 177.53 82.59 L 177.85 82.46 L 178.16 82.32 L 178.48 82.19 L 178.80 82.06 L 179.11 81.92 L 179.43 81.79 L 179.74 81.66 L 180.06 81.52 L 180.38 81.39 L 180.69 81.26 L 181.01 81.12 L 181.32 80.99 L 181.64 80.86 L 181.96 80.72 L 182.27 80.59 L 182.59 80.46 L 182.90 80.32 L 183.22 80.19 L 183.54 80.06 L 183.85 79.92 L 184.17 79.79 L 184.48 79.66 L 184.80 79.52 L 185.11 79.39 L 185.43 79.25 L 185.75 79.12 L 186.06 78.99 L 186.38 78.85 L 186.69 78.72 L 187.01 78.59 L 187.33 78.45 L 187.64 78.32 L 187.96 78.19 L 188.27 78.05 L 188.59 77.92 L 188.91 77.79 L 189.22 77.65 L 189.54 77.52 L 189.85 77.39 L 190.17 77.25 L 190.48 77.12 L 190.80 76.99 L 191.12 76.85 L 191.43 76.72 L 191.75 76.59 L 192.06 76.45 L 192.38 76.32 L 192.70 76.18 L 193.01 76.05 L 193.33 75.92 L 193.64 75.78 L 193.96 75.65 L 194.28 75.52 L 194.59 75.38 L 194.91 75.25 L 195.22 75.12 L 195.54 74.98 L 195.86 74.85 L 196.17 74.72 L 196.49 74.58 L 196.80 74.45 L 197.12 74.32 L 197.43 74.18 L 197.75 74.05 L 198.07 73.92 L 198.38 73.78 L 198.70 73.65 L 199.01 73.52 L 199.33 73.38 L 199.65 73.25 L 199.96 73.11 L 200.28 72.98 L 200.59 72.85 L 200.91 72.71 L 201.23 72.58 L 201.54 72.45 L 201.86 72.31 L 202.17 72.18 L 202.49 72.05 L 202.81 71.91 L 203.12 71.78 L 203.44 71.65 L 203.75 71.51 L 204.07 71.38 L 204.38 71.25 L 204.70 71.11 L 205.02 70.98 L 205.33 70.85 L 205.65 70.71 L 205.96 70.58 L 206.28 70.44 L 206.60 70.31 L 206.91 70.18 L 207.23 70.04 L 207.54 69.91 L 207.86 69.78 L 208.18 69.64 L 208.49 69.51 L 208.81 69.38 L 209.12 69.24 L 209.44 69.11 L 209.76 68.98 L 210.07 68.84 L 210.39 68.71 L 210.70 68.58 L 211.02 68.44 L 211.33 68.31 L 211.65 68.18 L 211.97 68.04 L 212.28 67.91 L 212.60 67.78 L 212.91 67.64 L 213.23 67.51 L 213.55 67.37 L 213.86 67.24 L 214.18 67.11 L 214.49 66.97 L 214.81 66.84 L 215.13 66.71 L 215.44 66.57 L 215.76 66.44 L 216.07 66.31 L 216.39 66.17 L 216.71 66.04 L 217.02 65.91 L 217.34 65.77 L 217.65 65.64 L 217.97 65.51 L 218.28 65.37 L 218.60 65.24 L 218.92 65.11 L 219.23 64.97 L 219.55 64.84 L 219.86 64.71 L 220.18 64.57 L 220.50 64.44 L 220.81 64.30 L 221.13 64.17 L 221.44 64.04 L 221.76 63.90 L 222.08 63.77 L 222.39 63.64 L 222.71 63.50 L 223.02 63.37 L 223.34 63.24 L 223.66 63.10 L 223.97 62.97 L 224.29 62.84 L 224.60 62.70 L 224.92 62.57 L 225.23 62.44 L 225.55 62.30 L 225.87 62.17 L 226.18 62.04 L 226.50 61.90 L 226.81 61.77 L 227.13 61.64 L 227.45 61.50 L 227.76 61.37 L 228.08 61.23 L 228.39 61.10 L 228.71 60.97 L 229.03 60.83 L 229.34 60.70 L 229.66 60.57 L 229.97 60.43 L 230.29 60.30 L 230.61 60.17 L 230.92 60.03 L 231.24 59.90 L 231.55 59.77 L 231.87 59.63 L 232.18 59.50 L 232.50 59.37 L 232.82 59.23 L 233.13 59.10 L 233.45 58.97 L 233.76 58.83 L 234.08 58.70 L 234.40 58.57 L 234.71 58.43 L 235.03 58.30 L 235.34 58.16 L 235.66 58.03 L 235.98 57.90 L 236.29 57.76 L 236.61 57.63 L 236.92 57.50 L 237.24 57.36 L 237.56 57.23 L 237.87 57.10 L 238.19 56.96 L 238.50 56.83 L 238.82 56.70 L 239.13 56.56 L 239.45 56.43 L 239.77 56.30 L 240.08 56.16 L 240.40 56.03 L 240.71 55.90 L 241.03 55.76 L 241.35 55.63 L 241.66 55.49 L 241.98 55.36 L 242.29 55.23 L 242.61 55.09 L 242.93 54.96 L 243.24 54.83 L 243.56 54.69 L 243.87 54.56 L 244.19 54.43 L 244.51 54.29 L 244.82 54.16 L 245.14 54.03 L 245.45 53.89 L 245.77 53.76 L 246.08 53.63 L 246.40 53.49 L 246.72 53.36 L 247.03 53.23 L 247.35 53.09 L 247.66 52.96 L 247.98 52.83 L 248.30 52.69 L 248.61 52.56 L 248.93 52.42 L 249.24 52.29 L 249.56 52.16 L 249.88 52.02 L 250.19 51.89 L 250.51 51.76 L 250.82 51.62 L 251.14 51.49 L 251.45 51.36 L 251.77 51.22 L 252.09 51.09 L 252.40 50.96 L 252.72 50.82 L 253.03 50.69 L 253.35 50.56 L 253.67 50.42 L 253.98 50.29 L 254.30 50.16 L 254.61 50.02 L 254.93 49.89 L 255.25 49.76 L 255.56 49.62 L 255.88 49.49 L 256.19 49.35 L 256.51 49.22 L 256.83 49.09 L 257.14 48.95 L 257.46 48.82 L 257.77 48.69 L 258.09 48.55 L 258.40 48.42 L 258.72 48.29 L 259.04 48.15 L 259.35 48.02 L 259.67 47.89 L 259.98 47.75 L 260.30 47.62 L 260.62 47.49 L 260.93 47.35 L 261.25 47.22 L 261.56 47.09 L 261.88 46.95 L 262.20 46.82 L 262.51 46.69 L 262.83 46.55 L 263.14 46.42 L 263.46 46.28 L 263.78 46.15 L 264.09 46.02 L 264.41 45.88 L 264.72 45.75 L 265.04 45.62 L 265.35 45.48 L 265.67 45.35 L 265.99 45.22 L 266.30 45.08 L 266.62 44.95 L 266.93 44.82 L 267.25 44.68 L 267.57 44.55 L 267.88 44.42 L 268.20 44.28 L 268.51 44.15 L 268.83 44.02 L 269.15 43.88 L 269.46 43.75 L 269.78 43.62 L 270.09 43.48 L 270.41 43.35 L 270.73 43.21 L 271.04 43.08 L 271.36 42.95 L 271.67 42.81 L 271.99 42.68 L 272.30 42.55 L 272.62 42.41 L 272.94 42.28 L 273.25 42.15 L 273.57 42.01 L 273.88 41.88 L 274.20 41.75 L 274.52 41.61 L 274.83 41.48 L 275.15 41.35 L 275.46 41.21 L 275.78 41.08 L 276.10 40.95 L 276.41 40.81 L 276.73 40.68 L 277.04 40.55 L 277.36 40.41 L 277.68 40.28 L 277.99 40.14 L 278.31 40.01 L 278.62 39.88 L 278.94 39.74 L 279.25 39.61 L 279.57 39.48 L 279.89 39.34 L 280.20 39.21 L 280.52 39.08 L 280.83 38.94 L 281.15 38.81 L 281.47 38.68 L 281.78 38.54 L 282.10 38.41 L 282.41 38.28 L 282.73 38.14 L 283.05 38.01 L 283.36 37.88 L 283.68 37.74 L 283.99 37.61 L 284.31 37.47 L 284.63 37.34 L 284.94 37.21 L 285.26 37.07 L 285.57 36.94 L 285.89 36.81 L 286.20 36.67 L 286.52 36.54 L 286.84 36.41 L 287.15 36.27 L 287.47 36.14 L 287.78 36.01 L 288.10 35.87 L 288.42 35.74 L 288.73 35.61 L 289.05 35.47 L 289.36 35.34 L 289.68 35.21 L 290.00 35.07 L 290.31 34.94 L 290.63 34.81 L 290.94 34.67 L 291.26 34.54 L 291.58 34.40 L 291.89 34.27 L 292.21 34.14 L 292.52 34.00 L 292.84 33.87 L 293.15 33.74 L 293.47 33.60 L 293.79 33.47 L 294.10 33.34 L 294.42 33.20 L 294.73 33.07 L 295.05 32.94 L 295.37 32.80 L 295.68 32.67 L 296.00 32.54 L 296.31 32.40 L 296.63 32.27 L 296.95 32.14 L 297.26 32.00 L 297.58 31.87 L 297.89 31.74 L 298.21 31.60 L 298.53 31.47 L 298.84 31.33 L 299.16 31.20 L 299.47 31.07 L 299.79 30.93 L 300.10 30.80 L 300.42 30.67 L 300.74 30.53 L 301.05 30.40 L 301.37 30.27 L 301.68 30.13 L 302.00 30.00" fill="none" stroke="#7E8692" stroke-width="2.3" stroke-linecap="round" stroke-linejoin="round"/>
</svg>
