<svg xmlns="http://www.w3.org/2000/svg" viewBox="0 0 320 180" width="320" height="180">
  <rect width="320" height="180" fill="#F4F5F7"/>
  <path d="M 18.00 132.64 L 18.16 132.56 L 18.32 132.47 L 18.47 132.38 L 18.63 132.29 L 18.79 132.20 L 18.95 132.11 L 19.11 132.02 L 19.26 131.92 L 19.42 131.83 L 19.58 131.74 L 19.74 131.64 L 19.89 131.55 L 20.05 131.45 L 20.21 131.35 L 20.37 131.25 L 20.53 131.15 L 20.68 131.05 L 20.84 130.95 L 21.00 130.85 L 21.16 130.75 L 21.32 130.65 L 21.47 130.55 L 21.63 130.44 L 21.79 130.34 L 21.95 130.23 L 22.10 130.13 L 22.26 130.02 L 22.42 129.92 L 22.58 129.81 L 22.74 129.70 L 22.89 129.59 L 23.05 129.48 L 23.21 129.37 L 23.37 129.26 L 23.53 129.15 L 23.68 129.04 L 23.84 128.93 L 24.00 128.82 L 24.16 128.71 L 24.31 128.59 L 24.47 128.48 L 24.63 128.37 L 24.79 128.25 L 24.95 128.14 L 25.10 128.02 L 25.26 127.91 L 25.42 127.79 L 25.58 127.68 L 25.74 127.56 L 25.89 127.44 L 26.05 127.33 L 26.21 127.21 L 26.37 127.09 L 26.52 126.98 L 26.68 126.86 L 26.84 126.74 L 27.00 126.62 L 27.16 126.50 L 27.31 126.38 L 27.47 126.27 L 27.63 126.15 L 27.79 126.03 L 27.95 125.91 L 28.10 125.79 L 28.26 125.67 L 28.42 125.55 L 28.58 125.43 L 28.73 125.31 L 28.89 125.19 L 29.05 125.07 L 29.21 124.95 L 29.37 124.83 L 29.52 124.71 L 29.68 124.59 L 29.84 124.47 L 30.00 124.35 L 30.16 124.23 L 30.31 124.11 L 30.47 123.99 L 30.63 123.87 L 30.79 123.75 L 30.94 123.63 L 31.10 123.52 L 31.26 123.40 L 31.42 123.28 L 31.58 123.16 L 31.73 123.04 L 31.89 122.92 L 32.05 122.81 L 32.21 122.69 L 32.37 122.57 L 32.52 122.45 L 32.68 122.34 L 32.84 122.22 L 33.00 122.10 L 33.16 121.99 L 33.31 121.87 L 33.47 121.76 L 33.63 121.64 L 33.79 121.53 L 33.94 121.42 L 34.10 121.30 L 34.26 121.19 L 34.42 121.08 L 34.58 120.97 L 34.73 120.86 L 34.89 120.74 L 35.05 120.63 L 35.21 120.52 L 35.37 120.41 L 35.52 120.31 L 35.68 120.20 L 35.84 120.09 L 36.00 119.98 L 36.15 119.88 L 36.31 119.77 L 36.47 119.67 L 36.63 119.56 L 36.79 119.46 L 36.94 119.36 L 37.10 119.25 L 37.26 119.15 L 37.42 119.05 L 37.58 118.95 L 37.73 118.85 L 37.89 118.75 L 38.05 118.66 L 38.21 118.56 L 38.36 118.46 L 38.52 118.37 L 38.68 118.27 L 38.84 118.18 L 39.00 118.09 L 39.15 118.00 L 39.31 117.91 L 39.47 117.82 L 39.63 117.73 L 39.79 117.64 L 39.94 117.55 L 40.10 117.47 L 40.26 117.38 L 40.42 117.30 L 40.57 117.21 L 40.73 117.13 L 40.89 117.05 L 41.05 116.97 L 41.21 116.89 L 41.36 116.81 L 41.52 116.74 L 41.68 116.66 L 41.84 116.59 L 42.00 116.51 L 42.15 116.44 L 42.31 116.37 L 42.47 116.30 L 42.63 116.23 L 42.78 116.16 L 42.94 116.10 L 43.10 116.03 L 43.26 115.97 L 43.42 115.90 L 43.57 115.84 L 43.73 115.78 L 43.89 115.72 L 44.05 115.67 L 44.21 115.61 L 44.36 115.55 L 44.52 115.50 L 44.68 115.45 L 44.84 115.40 L 44.99 115.35 L 45.15 115.30 L 45.31 115.25 L 45.47 115.20 L 45.63 115.16 L 45.78 115.12 L 45.94 115.07 L 46.10 115.03 L 46.26 114.99 L 46.42 114.96 L 46.57 114.92 L 46.73 114.88 L 46.89 114.85 L 47.05 114.82 L 47.21 114.79 L 47.36 114.76 L 47.52 114.73 L 47.68 114.71 L 47.84 114.68 L 47.99 114.66 L 48.15 114.64 L 48.31 114.62 L 48.47 114.60 L 48.63 114.58 L 48.78 114.56 L 48.94 114.55 L 49.10 114.54 L 49.26 114.53 L 49.42 114.52 L 49.57 114.51 L 49.73 114.50 L 49.89 114.50 L 50.05 114.49 L 50.20 114.49 L 50.36 114.49 L 50.52 114.49 L 50.68 114.50 L 50.84 114.50 L 50.99 114.51 L 51.15 114.52 L 51.31 114.52 L 51.47 114.54 L 51.63 114.55 L 51.78 114.56 L 51.94 114.58 L 52.10 114.60 L 52.26 114.61 L 52.41 114.64 L 52.57 114.66 L 52.73 114.68 L 52.89 114.71 L 53.05 114.73 L 53.20 114.76 L 53.36 114.79 L 53.52 114.83 L 53.68 114.86 L 53.84 114.89 L 53.99 114.93 L 54.15 114.97 L 54.31 115.01 L 54.47 115.05 L 54.62 115.09 L 54.78 115.14 L 54.94 115.19 L 55.10 115.23 L 55.26 115.28 L 55.41 115.34 L 55.57 115.39 L 55.73 115.44 L 55.89 115.50 L 56.05 115.56 L 56.20 115.62 L 56.36 115.68 L 56.52 115.74 L 56.68 115.81 L 56.83 115.87 L 56.99 115.94 L 57.15 116.01 L 57.31 116.08 L 57.47 116.15 L 57.62 116.23 L 57.78 116.30 L 57.94 116.38 L 58.10 116.46 L 58.26 116.54 L 58.41 116.62 L 58.57 116.71 L 58.73 116.79 L 58.89 116.88 L 59.05 116.97 L 59.20 117.06 L 59.36 117.15 L 59.52 117.24 L 59.68 117.34 L 59.83 117.43 L 59.99 117.53 L 60.15 117.63 L 60.31 117.73 L 60.47 117.83 L 60.62 117.94 L 60.78 118.04 L 60.94 118.15 L 61.10 118.26 L 61.26 118.37 L 61.41 118.48 L 61.57 118.59 L 61.73 118.70 L 61.89 118.82 L 62.04 118.93 L 62.20 119.05 L 62.36 119.17 L 62.52 119.29 L 62.68 119.41 L 62.83 119.54 L 62.99 119.66 L 63.15 119.79 L 63.31 119.92 L 63.47 120.05 L 63.62 120.18 L 63.78 120.31 L 63.94 120.44 L 64.10 120.57 L 64.25 120.71 L 64.41 120.85 L 64.57 120.98 L 64.73 121.12 L 64.89 121.26 L 65.04 121.41 L 65.20 121.55 L 65.36 121.69 L 65.52 121.84 L 65.68 121.98 L 65.83 122.13 L 65.99 122.28 L 66.15 122.43 L 66.31 122.58 L 66.46 122.73 L 66.62 122.88 L 66.78 123.04 L 66.94 123.19 L 67.10 123.35 L 67.25 123.51 L 67.41 123.66 L 67.57 123.82 L 67.73 123.98 L 67.89 124.14 L 68.04 124.31 L 68.20 124.47 L 68.36 124.63 L 68.52 124.80 L 68.67 124.96 L 68.83 125.13 L 68.99 125.30 L 69.15 125.46 L 69.31 125.63 L 69.46 125.80 L 69.62 125.97 L 69.78 126.14 L 69.94 126.31 L 70.10 126.49 L 70.25 126.66 L 70.41 126.83 L 70.57 127.01 L 70.73 127.18 L 70.88 127.36 L 71.04 127.54 L 71.20 127.71 L 71.36 127.89 L 71.52 128.07 L 71.67 128.25 L 71.83 128.43 L 71.99 128.61 L 72.15 128.79 L 72.31 128.97 L 72.46 129.15 L 72.62 129.33 L 72.78 129.51 L 72.94 129.69 L 73.10 129.88 L 73.25 130.06 L 73.41 130.24 L 73.57 130.43 L 73.73 130.61 L 73.88 130.79 L 74.04 130.98 L 74.20 131.16 L 74.36 131.35 L 74.52 131.53 L 74.67 131.72 L 74.83 131.90 L 74.99 132.09 L 75.15 132.27 L 75.31 132.46 L 75.46 132.64 L 75.62 132.83 L 75.78 133.02 L 75.94 133.20 L 76.09 133.39 L 76.25 133.57 L 76.41 133.76 L 76.57 133.94 L 76.73 134.13 L 76.88 134.31 L 77.04 134.50 L 77.20 134.68 L 77.36 134.87 L 77.52 135.05 L 77.67 135.24 L 77.83 135.42 L 77.99 135.60 L 78.15 135.78 L 78.30 135.97 L 78.46 136.15 L 78.62 136.33 L 78.78 136.51 L 78.94 136.69 L 79.09 136.87 L 79.25 137.05 L 79.41 137.23 L 79.57 137.41 L 79.73 137.59 L 79.88 137.77 L 80.04 137.95 L 80.20 138.12 L 80.36 138.30 L 80.51 138.47 L 80.67 138.65 L 80.83 138.82 L 80.99 139.00 L 81.15 139.17 L 81.30 139.34 L 81.46 139.51 L 81.62 139.68 L 81.78 139.85 L 81.94 140.02 L 82.09 140.19 L 82.25 140.35 L 82.41 140.52 L 82.57 140.68 L 82.72 140.85 L 82.88 141.01 L 83.04 141.17 L 83.20 141.33 L 83.36 141.49 L 83.51 141.65 L 83.67 141.80 L 83.83 141.96 L 83.99 142.12 L 84.15 142.27 L 84.30 142.42 L 84.46 142.57 L 84.62 142.72 L 84.78 142.87 L 84.93 143.02 L 85.09 143.16 L 85.25 143.31 L 85.41 143.45 L 85.57 143.59 L 85.72 143.73 L 85.88 143.87 L 86.04 144.01 L 86.20 144.15 L 86.36 144.28 L 86.51 144.41 L 86.67 144.54 L 86.83 144.67 L 86.99 144.80 L 87.15 144.93 L 87.30 145.05 L 87.46 145.18 L 87.62 145.30 L 87.78 145.42 L 87.93 145.54 L 88.09 145.65 L 88.25 145.77 L 88.41 145.88 L 88.57 145.99 L 88.72 146.10 L 88.88 146.21 L 89.04 146.31 L 89.20 146.42 L 89.36 146.52 L 89.51 146.62 L 89.67 146.72 L 89.83 146.81 L 89.99 146.91 L 90.14 147.00 L 90.30 147.09 L 90.46 147.18 L 90.62 147.26 L 90.78 147.34 L 90.93 147.43 L 91.09 147.51 L 91.25 147.58 L 91.41 147.66 L 91.57 147.73 L 91.72 147.80 L 91.88 147.87 L 92.04 147.94 L 92.20 148.00 L 92.35 148.06 L 92.51 148.12 L 92.67 148.18 L 92.83 148.23 L 92.99 148.28 L 93.14 148.33 L 93.30 148.38 L 93.46 148.43 L 93.62 148.47 L 93.78 148.51 L 93.93 148.55 L 94.09 148.58 L 94.25 148.62 L 94.41 148.65 L 94.56 148.68 L 94.72 148.70 L 94.88 148.72 L 95.04 148.74 L 95.20 148.76 L 95.35 148.78 L 95.51 148.79 L 95.67 148.80 L 95.83 148.81 L 95.99 148.81 L 96.14 148.81 L 96.30 148.81 L 96.46 148.81 L 96.62 148.81 L 96.77 148.80 L 96.93 148.79 L 97.09 148.77 L 97.25 148.75 L 97.41 148.74 L 97.56 148.71 L 97.72 148.69 L 97.88 148.66 L 98.04 148.63 L 98.20 148.60 L 98.35 148.56 L 98.51 148.52 L 98.67 148.48 L 98.83 148.43 L 98.98 148.39 L 99.14 148.34 L 99.30 148.28 L 99.46 148.23 L 99.62 148.17 L 99.77 148.11 L 99.93 148.04 L 100.09 147.97 L 100.25 147.90 L 100.41 147.83 L 100.56 147.75 L 100.72 147.67 L 100.88 147.59 L 101.04 147.50 L 101.20 147.42 L 101.35 147.32 L 101.51 147.23 L 101.67 147.13 L 101.83 147.03 L 101.98 146.93 L 102.14 146.82 L 102.30 146.71 L 102.46 146.60 L 102.62 146.48 L 102.77 146.37 L 102.93 146.24 L 103.09 146.12 L 103.25 145.99 L 103.41 145.86 L 103.56 145.73 L 103.72 145.59 L 103.88 145.45 L 104.04 145.31 L 104.19 145.16 L 104.35 145.01 L 104.51 144.86 L 104.67 144.71 L 104.83 144.55 L 104.98 144.39 L 105.14 144.22 L 105.30 144.06 L 105.46 143.89 L 105.62 143.71 L 105.77 143.54 L 105.93 143.36 L 106.09 143.17 L 106.25 142.99 L 106.40 142.80 L 106.56 142.61 L 106.72 142.41 L 106.88 142.22 L 107.04 142.02 L 107.19 141.81 L 107.35 141.61 L 107.51 141.40 L 107.67 141.18 L 107.83 140.97 L 107.98 140.75 L 108.14 140.53 L 108.30 140.30 L 108.46 140.07 L 108.61 139.84 L 108.77 139.61 L 108.93 139.37 L 109.09 139.13 L 109.25 138.89 L 109.40 138.64 L 109.56 138.40 L 109.72 138.14 L 109.88 137.89 L 110.04 137.63 L 110.19 137.37 L 110.35 137.11 L 110.51 136.84 L 110.67 136.57 L 110.82 136.30 L 110.98 136.03 L 111.14 135.75 L 111.30 135.47 L 111.46 135.19 L 111.61 134.90 L 111.77 134.61 L 111.93 134.32 L 112.09 134.02 L 112.25 133.73 L 112.40 133.43 L 112.56 133.12 L 112.72 132.82 L 112.88 132.51 L 113.04 132.20 L 113.19 131.88 L 113.35 131.57 L 113.51 131.25 L 113.67 130.93 L 113.82 130.60 L 113.98 130.27 L 114.14 129.94 L 114.30 129.61 L 114.46 129.28 L 114.61 128.94 L 114.77 128.60 L 114.93 128.25 L 115.09 127.91 L 115.25 127.56 L 115.40 127.21 L 115.56 126.86 L 115.72 126.50 L 115.88 126.15 L 116.03 125.78 L 116.19 125.42 L 116.35 125.06 L 116.51 124.69 L 116.67 124.32 L 116.82 123.95 L 116.98 123.57 L 117.14 123.20 L 117.30 122.82 L 117.46 122.44 L 117.61 122.05 L 117.77 121.67 L 117.93 121.28 L 118.09 120.89 L 118.24 120.50 L 118.40 120.10 L 118.56 119.71 L 118.72 119.31 L 118.88 118.91 L 119.03 118.50 L 119.19 118.10 L 119.35 117.69 L 119.51 117.28 L 119.67 116.87 L 119.82 116.46 L 119.98 116.04 L 120.14 115.63 L 120.30 115.21 L 120.45 114.79 L 120.61 114.37 L 120.77 113.94 L 120.93 113.52 L 121.09 113.09 L 121.24 112.66 L 121.40 112.23 L 121.56 111.80 L 121.72 111.36 L 121.88 110.93 L 122.03 110.49 L 122.19 110.05 L 122.35 109.61 L 122.51 109.17 L 122.66 108.72 L 122.82 108.28 L 122.98 107.83 L 123.14 107.39 L 123.30 106.94 L 123.45 106.49 L 123.61 106.03 L 123.77 105.58 L 123.93 105.13 L 124.09 104.67 L 124.24 104.21 L 124.40 103.75 L 124.56 103.30 L 124.72 102.83 L 124.87 102.37 L 125.03 101.91 L 125.19 101.45 L 125.35 100.98 L 125.51 100.52 L 125.66 100.05 L 125.82 99.58 L 125.98 99.11 L 126.14 98.64 L 126.30 98.17 L 126.45 97.70 L 126.61 97.23 L 126.77 96.76 L 126.93 96.28 L 127.09 95.81 L 127.24 95.34 L 127.40 94.86 L 127.56 94.38 L 127.72 93.91 L 127.87 93.43 L 128.03 92.95 L 128.19 92.47 L 128.35 92.00 L 128.51 91.52 L 128.66 91.04 L 128.82 90.56 L 128.98 90.08 L 129.14 89.60 L 129.30 89.12 L 129.45 88.64 L 129.61 88.15 L 129.77 87.67 L 129.93 87.19 L 130.08 86.71 L 130.24 86.23 L 130.40 85.75 L 130.56 85.27 L 130.72 84.78 L 130.87 84.30 L 131.03 83.82 L 131.19 83.34 L 131.35 82.86 L 131.51 82.38 L 131.66 81.90 L 131.82 81.42 L 131.98 80.94 L 132.14 80.46 L 132.29 79.98 L 132.45 79.50 L 132.61 79.02 L 132.77 78.54 L 132.93 78.06 L 133.08 77.59 L 133.24 77.11 L 133.40 76.63 L 133.56 76.16 L 133.72 75.68 L 133.87 75.21 L 134.03 74.73 L 134.19 74.26 L 134.35 73.79 L 134.50 73.32 L 134.66 72.85 L 134.82 72.38 L 134.98 71.91 L 135.14 71.44 L 135.29 70.98 L 135.45 70.51 L 135.61 70.04 L 135.77 69.58 L 135.93 69.12 L 136.08 68.66 L 136.24 68.20 L 136.40 67.74 L 136.56 67.28 L 136.71 66.82 L 136.87 66.37 L 137.03 65.91 L 137.19 65.46 L 137.35 65.01 L 137.50 64.56 L 137.66 64.11 L 137.82 63.66 L 137.98 63.22 L 138.14 62.77 L 138.29 62.33 L 138.45 61.89 L 138.61 61.45 L 138.77 61.01 L 138.92 60.58 L 139.08 60.14 L 139.24 59.71 L 139.40 59.28 L 139.56 58.85 L 139.71 58.43 L 139.87 58.00 L 140.03 57.58 L 140.19 57.16 L 140.35 56.74 L 140.50 56.32 L 140.66 55.90 L 140.82 55.49 L 140.98 55.08 L 141.14 54.67 L 141.29 54.26 L 141.45 53.86 L 141.61 53.46 L 141.77 53.06 L 141.92 52.66 L 142.08 52.26 L 142.24 51.87 L 142.40 51.48 L 142.56 51.09 L 142.71 50.70 L 142.87 50.32 L 143.03 49.94 L 143.19 49.56 L 143.35 49.18 L 143.50 48.81 L 143.66 48.44 L 143.82 48.07 L 143.98 47.70 L 144.13 47.34 L 144.29 46.98 L 144.45 46.62 L 144.61 46.27 L 144.77 45.91 L 144.92 45.56 L 145.08 45.22 L 145.24 44.87 L 145.40 44.53 L 145.56 44.19 L 145.71 43.86 L 145.87 43.53 L 146.03 43.20 L 146.19 42.87 L 146.34 42.55 L 146.50 42.22 L 146.66 41.91 L 146.82 41.59 L 146.98 41.28 L 147.13 40.97 L 147.29 40.67 L 147.45 40.36 L 147.61 40.07 L 147.77 39.77 L 147.92 39.48 L 148.08 39.19 L 148.24 38.90 L 148.40 38.62 L 148.55 38.34 L 148.71 38.06 L 148.87 37.79 L 149.03 37.52 L 149.19 37.26 L 149.34 36.99 L 149.50 36.73 L 149.66 36.48 L 149.82 36.23 L 149.98 35.98 L 150.13 35.73 L 150.29 35.49 L 150.45 35.25 L 150.61 35.02 L 150.76 34.79 L 150.92 34.56 L 151.08 34.33 L 151.24 34.11 L 151.40 33.90 L 151.55 33.68 L 151.71 33.47 L 151.87 33.27 L 152.03 33.07 L 152.19 32.87 L 152.34 32.67 L 152.50 32.48 L 152.66 32.30 L 152.82 32.11 L 152.97 31.93 L 153.13 31.76 L 153.29 31.59 L 153.45 31.42 L 153.61 31.25 L 153.76 31.09 L 153.92 30.94 L 154.08 30.78 L 154.24 30.63 L 154.40 30.49 L 154.55 30.35 L 154.71 30.21 L 154.87 30.08 L 155.03 29.95 L 155.19 29.82 L 155.34 29.70 L 155.50 29.58 L 155.66 29.47 L 155.82 29.36 L 155.97 29.26 L 156.13 29.15 L 156.29 29.06 L 156.45 28.96 L 156.61 28.87 L 156.76 28.79 L 156.92 28.71 L 157.08 28.63 L 157.24 28.56 L 157.40 28.49 L 157.55 28.42 L 157.71 28.36 L 157.87 28.30 L 158.03 28.25 L 158.18 28.20 L 158.34 28.16 L 158.50 28.12 L 158.66 28.08 L 158.82 28.05 L 158.97 28.02 L 159.13 27.99 L 159.29 27.97 L 159.45 27.96 L 159.61 27.94 L 159.76 27.94 L 159.92 27.93 L 160.08 27.93 L 160.24 27.94 L 160.39 27.94 L 160.55 27.96 L 160.71 27.97 L 160.87 27.99 L 161.03 28.02 L 161.18 28.05 L 161.34 28.08 L 161.50 28.12 L 161.66 28.16 L 161.82 28.20 L 161.97 28.25 L 162.13 28.30 L 162.29 28.36 L 162.45 28.42 L 162.60 28.49 L 162.76 28.56 L 162.92 28.63 L 163.08 28.71 L 163.24 28.79 L 163.39 28.87 L 163.55 28.96 L 163.71 29.06 L 163.87 29.15 L 164.03 29.26 L 164.18 29.36 L 164.34 29.47 L 164.50 29.58 L 164.66 29.70 L 164.81 29.82 L 164.97 29.95 L 165.13 30.08 L 165.29 30.21 L 165.45 30.35 L 165.60 30.49 L 165.76 30.63 L 165.92 30.78 L 166.08 30.94 L 166.24 31.09 L 166.39 31.25 L 166.55 31.42 L 166.71 31.59 L 166.87 31.76 L 167.03 31.93 L 167.18 32.11 L 167.34 32.30 L 167.50 32.48 L 167.66 32.67 L 167.81 32.87 L 167.97 33.07 L 168.13 33.27 L 168.29 33.47 L 168.45 33.68 L 168.60 33.90 L 168.76 34.11 L 168.92 34.33 L 169.08 34.56 L 169.24 34.79 L 169.39 35.02 L 169.55 35.25 L 169.71 35.49 L 169.87 35.73 L 170.02 35.98 L 170.18 36.23 L 170.34 36.48 L 170.50 36.73 L 170.66 36.99 L 170.81 37.26 L 170.97 37.52 L 171.13 37.79 L 171.29 38.06 L 171.45 38.34 L 171.60 38.62 L 171.76 38.90 L 171.92 39.19 L 172.08 39.48 L 172.23 39.77 L 172.39 40.07 L 172.55 40.36 L 172.71 40.67 L 172.87 40.97 L 173.02 41.28 L 173.18 41.59 L 173.34 41.91 L 173.50 42.22 L 173.66 42.55 L 173.81 42.87 L 173.97 43.20 L 174.13 43.53 L 174.29 43.86 L 174.44 44.19 L 174.60 44.53 L 174.76 44.87 L 174.92 45.22 L 175.08 45.56 L 175.23 45.91 L 175.39 46.27 L 175.55 46.62 L 175.71 46.98 L 175.87 47.34 L 176.02 47.70 L 176.18 48.07 L 176.34 48.44 L 176.50 48.81 L 176.65 49.18 L 176.81 49.56 L 176.97 49.94 L 177.13 50.32 L 177.29 50.70 L 177.44 51.09 L 177.60 51.48 L 177.76 51.87 L 177.92 52.26 L 178.08 52.66 L 178.23 53.06 L 178.39 53.46 L 178.55 53.86 L 178.71 54.26 L 178.86 54.67 L 179.02 55.08 L 179.18 55.49 L 179.34 55.90 L 179.50 56.32 L 179.65 56.74 L 179.81 57.16 L 179.97 57.58 L 180.13 58.00 L 180.29 58.43 L 180.44 58.85 L 180.60 59.28 L 180.76 59.71 L 180.92 60.14 L 181.08 60.58 L 181.23 61.01 L 181.39 61.45 L 181.55 61.89 L 181.71 62.33 L 181.86 62.77 L 182.02 63.22 L 182.18 63.66 L 182.34 64.11 L 182.50 64.56 L 182.65 65.01 L 182.81 65.46 L 182.97 65.91 L 183.13 66.37 L 183.29 66.82 L 183.44 67.28 L 183.60 67.74 L 183.76 68.20 L 183.92 68.66 L 184.07 69.12 L 184.23 69.58 L 184.39 70.04 L 184.55 70.51 L 184.71 70.98 L 184.86 71.44 L 185.02 71.91 L 185.18 72.38 L 185.34 72.85 L 185.50 73.32 L 185.65 73.79 L 185.81 74.26 L 185.97 74.73 L 186.13 75.21 L 186.28 75.68 L 186.44 76.16 L 186.60 76.63 L 186.76 77.11 L 186.92 77.59 L 187.07 78.06 L 187.23 78.54 L 187.39 79.02 L 187.55 79.50 L 187.71 79.98 L 187.86 80.46 L 188.02 80.94 L 188.18 81.42 L 188.34 81.90 L 188.49 82.38 L 188.65 82.86 L 188.81 83.34 L 188.97 83.82 L 189.13 84.30 L 189.28 84.78 L 189.44 85.27 L 189.60 85.75 L 189.76 86.23 L 189.92 86.71 L 190.07 87.19 L 190.23 87.67 L 190.39 88.15 L 190.55 88.64 L 190.70 89.12 L 190.86 89.60 L 191.02 90.08 L 191.18 90.56 L 191.34 91.04 L 191.49 91.52 L 191.65 92.00 L 191.81 92.47 L 191.97 92.95 L 192.13 93.43 L 192.28 93.91 L 192.44 94.38 L 192.60 94.86 L 192.76 95.34 L 192.91 95.81 L 193.07 96.28 L 193.23 96.76 L 193.39 97.23 L 193.55 97.70 L 193.70 98.17 L 193.86 98.64 L 194.02 99.11 L 194.18 99.58 L 194.34 100.05 L 194.49 100.52 L 194.65 100.98 L 194.81 101.45 L 194.97 101.91 L 195.13 102.37 L 195.28 102.83 L 195.44 103.30 L 195.60 103.75 L 195.76 104.21 L 195.91 104.67 L 196.07 105.13 L 196.23 105.58 L 196.39 106.03 L 196.55 106.49 L 196.70 106.94 L 196.86 107.39 L 197.02 107.83 L 197.18 108.28 L 197.34 108.72 L 197.49 109.17 L 197.65 109.61 L 197.81 110.05 L 197.97 110.49 L 198.12 110.93 L 198.28 111.36 L 198.44 111.80 L 198.60 112.23 L 198.76 112.66 L 198.91 113.09 L 199.07 113.52 L 199.23 113.94 L 199.39 114.37 L 199.55 114.79 L 199.70 115.21 L 199.86 115.63 L 200.02 116.04 L 200.18 116.46 L 200.33 116.87 L 200.49 117.28 L 200.65 117.69 L 200.81 118.10 L 200.97 118.50 L 201.12 118.91 L 201.28 119.31 L 201.44 119.71 L 201.60 120.10 L 201.76 120.50 L 201.91 120.89 L 202.07 121.28 L 202.23 121.67 L 202.39 122.05 L 202.54 122.44 L 202.70 122.82 L 202.86 123.20 L 203.02 123.57 L 203.18 123.95 L 203.33 124.32 L 203.49 124.69 L 203.65 125.06 L 203.81 125.42 L 203.97 125.78 L 204.12 126.15 L 204.28 126.50 L 204.44 126.86 L 204.60 127.21 L 204.75 127.56 L 204.91 127.91 L 205.07 128.25 L 205.23 128.60 L 205.39 128.94 L 205.54 129.28 L 205.70 129.61 L 205.86 129.94 L 206.02 130.27 L 206.18 130.60 L 206.33 130.93 L 206.49 131.25 L 206.65 131.57 L 206.81 131.88 L 206.96 132.20 L 207.12 132.51 L 207.28 132.82 L 207.44 133.12 L 207.60 133.43 L 207.75 133.73 L 207.91 134.02 L 208.07 134.32 L 208.23 134.61 L 208.39 134.90 L 208.54 135.19 L 208.70 135.47 L 208.86 135.75 L 209.02 136.03 L 209.18 136.30 L 209.33 136.57 L 209.49 136.84 L 209.65 137.11 L 209.81 137.37 L 209.96 137.63 L 210.12 137.89 L 210.28 138.14 L 210.44 138.40 L 210.60 138.64 L 210.75 138.89 L 210.91 139.13 L 211.07 139.37 L 211.23 139.61 L 211.39 139.84 L 211.54 140.07 L 211.70 140.30 L 211.86 140.53 L 212.02 140.75 L 212.17 140.97 L 212.33 141.18 L 212.49 141.40 L 212.65 141.61 L 212.81 141.81 L 212.96 142.02 L 213.12 142.22 L 213.28 142.41 L 213.44 142.61 L 213.60 142.80 L 213.75 142.99 L 213.91 143.17 L 214.07 143.36 L 214.23 143.54 L 214.38 143.71 L 214.54 143.89 L 214.70 144.06 L 214.86 144.22 L 215.02 144.39 L 215.17 144.55 L 215.33 144.71 L 215.49 144.86 L 215.65 145.01 L 215.81 145.16 L 215.96 145.31 L 216.12 145.45 L 216.28 145.59 L 216.44 145.73 L 216.59 145.86 L 216.75 145.99 L 216.91 146.12 L 217.07 146.24 L 217.23 146.37 L 217.38 146.48 L 217.54 146.60 L 217.70 146.71 L 217.86 146.82 L 218.02 146.93 L 218.17 147.03 L 218.33 147.13 L 218.49 147.23 L 218.65 147.32 L 218.80 147.42 L 218.96 147.50 L 219.12 147.59 L 219.28 147.67 L 219.44 147.75 L 219.59 147.83 L 219.75 147.90 L 219.91 147.97 L 220.07 148.04 L 220.23 148.11 L 220.38 148.17 L 220.54 148.23 L 220.70 148.28 L 220.86 148.34 L 221.02 148.39 L 221.17 148.43 L 221.33 148.48 L 221.49 148.52 L 221.65 148.56 L 221.80 148.60 L 221.96 148.63 L 222.12 148.66 L 222.28 148.69 L 222.44 148.71 L 222.59 148.74 L 222.75 148.75 L 222.91 148.77 L 223.07 148.79 L 223.23 148.80 L 223.38 148.81 L 223.54 148.81 L 223.70 148.81 L 223.86 148.81 L 224.01 148.81 L 224.17 148.81 L 224.33 148.80 L 224.49 148.79 L 224.65 148.78 L 224.80 148.76 L 224.96 148.74 L 225.12 148.72 L 225.28 148.70 L 225.44 148.68 L 225.59 148.65 L 225.75 148.62 L 225.91 148.58 L 226.07 148.55 L 226.22 148.51 L 226.38 148.47 L 226.54 148.43 L 226.70 148.38 L 226.86 148.33 L 227.01 148.28 L 227.17 148.23 L 227.33 148.18 L 227.49 148.12 L 227.65 148.06 L 227.80 148.00 L 227.96 147.94 L 228.12 147.87 L 228.28 147.80 L 228.43 147.73 L 228.59 147.66 L 228.75 147.58 L 228.91 147.51 L 229.07 147.43 L 229.22 147.34 L 229.38 147.26 L 229.54 147.18 L 229.70 147.09 L 229.86 147.00 L 230.01 146.91 L 230.17 146.81 L 230.33 146.72 L 230.49 146.62 L 230.64 146.52 L 230.80 146.42 L 230.96 146.31 L 231.12 146.21 L 231.28 146.10 L 231.43 145.99 L 231.59 145.88 L 231.75 145.77 L 231.91 145.65 L 232.07 145.54 L 232.22 145.42 L 232.38 145.30 L 232.54 145.18 L 232.70 145.05 L 232.85 144.93 L 233.01 144.80 L 233.17 144.67 L 233.33 144.54 L 233.49 144.41 L 233.64 144.28 L 233.80 144.15 L 233.96 144.01 L 234.12 143.87 L 234.28 143.73 L 234.43 143.59 L 234.59 143.45 L 234.75 143.31 L 234.91 143.16 L 235.07 143.02 L 235.22 142.87 L 235.38 142.72 L 235.54 142.57 L 235.70 142.42 L 235.85 142.27 L 236.01 142.12 L 236.17 141.96 L 236.33 141.80 L 236.49 141.65 L 236.64 141.49 L 236.80 141.33 L 236.96 141.17 L 237.12 141.01 L 237.28 140.85 L 237.43 140.68 L 237.59 140.52 L 237.75 140.35 L 237.91 140.19 L 238.06 140.02 L 238.22 139.85 L 238.38 139.68 L 238.54 139.51 L 238.70 139.34 L 238.85 139.17 L 239.01 139.00 L 239.17 138.82 L 239.33 138.65 L 239.49 138.47 L 239.64 138.30 L 239.80 138.12 L 239.96 137.95 L 240.12 137.77 L 240.27 137.59 L 240.43 137.41 L 240.59 137.23 L 240.75 137.05 L 240.91 136.87 L 241.06 136.69 L 241.22 136.51 L 241.38 136.33 L 241.54 136.15 L 241.70 135.97 L 241.85 135.78 L 242.01 135.60 L 242.17 135.42 L 242.33 135.24 L 242.48 135.05 L 242.64 134.87 L 242.80 134.68 L 242.96 134.50 L 243.12 134.31 L 243.27 134.13 L 243.43 133.94 L 243.59 133.76 L 243.75 133.57 L 243.91 133.39 L 244.06 133.20 L 244.22 133.02 L 244.38 132.83 L 244.54 132.64 L 244.69 132.46 L 244.85 132.27 L 245.01 132.09 L 245.17 131.90 L 245.33 131.72 L 245.48 131.53 L 245.64 131.35 L 245.80 131.16 L 245.96 130.98 L 246.12 130.79 L 246.27 130.61 L 246.43 130.43 L 246.59 130.24 L 246.75 130.06 L 246.90 129.88 L 247.06 129.69 L 247.22 129.51 L 247.38 129.33 L 247.54 129.15 L 247.69 128.97 L 247.85 128.79 L 248.01 128.61 L 248.17 128.43 L 248.33 128.25 L 248.48 128.07 L 248.64 127.89 L 248.80 127.71 L 248.96 127.54 L 249.12 127.36 L 249.27 127.18 L 249.43 127.01 L 249.59 126.83 L 249.75 126.66 L 249.90 126.49 L 250.06 126.31 L 250.22 126.14 L 250.38 125.97 L 250.54 125.80 L 250.69 125.63 L 250.85 125.46 L 251.01 125.30 L 251.17 125.13 L 251.33 124.96 L 251.48 124.80 L 251.64 124.63 L 251.80 124.47 L 251.96 124.31 L 252.11 124.14 L 252.27 123.98 L 252.43 123.82 L 252.59 123.66 L 252.75 123.51 L 252.90 123.35 L 253.06 123.19 L 253.22 123.04 L 253.38 122.88 L 253.54 122.73 L 253.69 122.58 L 253.85 122.43 L 254.01 122.28 L 254.17 122.13 L 254.32 121.98 L 254.48 121.84 L 254.64 121.69 L 254.80 121.55 L 254.96 121.41 L 255.11 121.26 L 255.27 121.12 L 255.43 120.98 L 255.59 120.85 L 255.75 120.71 L 255.90 120.57 L 256.06 120.44 L 256.22 120.31 L 256.38 120.18 L 256.53 120.05 L 256.69 119.92 L 256.85 119.79 L 257.01 119.66 L 257.17 119.54 L 257.32 119.41 L 257.48 119.29 L 257.64 119.17 L 257.80 119.05 L 257.96 118.93 L 258.11 118.82 L 258.27 118.70 L 258.43 118.59 L 258.59 118.48 L 258.74 118.37 L 258.90 118.26 L 259.06 118.15 L 259.22 118.04 L 259.38 117.94 L 259.53 117.83 L 259.69 117.73 L 259.85 117.63 L 260.01 117.53 L 260.17 117.43 L 260.32 117.34 L 260.48 117.24 L 260.64 117.15 L 260.80 117.06 L 260.95 116.97 L 261.11 116.88 L 261.27 116.79 L 261.43 116.71 L 261.59 116.62 L 261.74 116.54 L 261.90 116.46 L 262.06 116.38 L 262.22 116.30 L 262.38 116.23 L 262.53 116.15 L 262.69 116.08 L 262.85 116.01 L 263.01 115.94 L 263.17 115.87 L 263.32 115.81 L 263.48 115.74 L 263.64 115.68 L 263.80 115.62 L 263.95 115.56 L 264.11 115.50 L 264.27 115.44 L 264.43 115.39 L 264.59 115.34 L 264.74 115.28 L 264.90 115.23 L 265.06 115.19 L 265.22 115.14 L 265.38 115.09 L 265.53 115.05 L 265.69 115.01 L 265.85 114.97 L 266.01 114.93 L 266.16 114.89 L 266.32 114.86 L 266.48 114.83 L 266.64 114.79 L 266.80 114.76 L 266.95 114.73 L 267.11 114.71 L 267.27 114.68 L 267.43 114.66 L 267.59 114.64 L 267.74 114.61 L 267.90 114.60 L 268.06 114.58 L 268.22 114.56 L 268.37 114.55 L 268.53 114.54 L 268.69 114.52 L 268.85 114.52 L 269.01 114.51 L 269.16 114.50 L 269.32 114.50 L 269.48 114.49 L 269.64 114.49 L 269.80 114.49 L 269.95 114.49 L 270.11 114.50 L 270.27 114.50 L 270.43 114.51 L 270.58 114.52 L 270.74 114.53 L 270.90 114.54 L 271.06 114.55 L 271.22 114.56 L 271.37 114.58 L 271.53 114.60 L 271.69 114.62 L 271.85 114.64 L 272.01 114.66 L 272.16 114.68 L 272.32 114.71 L 272.48 114.73 L 272.64 114.76 L 272.79 114.79 L 272.95 114.82 L 273.11 114.85 L 273.27 114.88 L 273.43 114.92 L 273.58 114.96 L 273.74 114.99 L 273.90 115.03 L 274.06 115.07 L 274.22 115.12 L 274.37 115.16 L 274.53 115.20 L 274.69 115.25 L 274.85 115.30 L 275.01 115.35 L 275.16 115.40 L 275.32 115.45 L 275.48 115.50 L 275.64 115.55 L 275.79 115.61 L 275.95 115.67 L 276.11 115.72 L 276.27 115.78 L 276.43 115.84 L 276.58 115.90 L 276.74 115.97 L 276.90 116.03 L 277.06 116.10 L 277.22 116.16 L 277.37 116.23 L 277.53 116.30 L 277.69 116.37 L 277.85 116.44 L 278.00 116.51 L 278.16 116.59 L 278.32 116.66 L 278.48 116.74 L 278.64 116.81 L 278.79 116.89 L 278.95 116.97 L 279.11 117.05 L 279.27 117.13 L 279.43 117.21 L 279.58 117.30 L 279.74 117.38 L 279.90 117.47 L 280.06 117.55 L 280.21 117.64 L 280.37 117.73 L 280.53 117.82 L 280.69 117.91 L 280.85 118.00 L 281.00 118.09 L 281.16 118.18 L 281.32 118.27 L 281.48 118.37 L 281.64 118.46 L 281.79 118.56 L 281.95 118.66 L 282.11 118.75 L 282.27 118.85 L 282.42 118.95 L 282.58 119.05 L 282.74 119.15 L 282.90 119.25 L 283.06 119.36 L 283.21 119.46 L 283.37 119.56 L 283.53 119.67 L 283.69 119.77 L 283.85 119.88 L 284.00 119.98 L 284.16 120.09 L 284.32 120.20 L 284.48 120.31 L 284.63 120.41 L 284.79 120.52 L 284.95 120.63 L 285.11 120.74 L 285.27 120.86 L 285.42 120.97 L 285.58 121.08 L 285.74 121.19 L 285.90 121.30 L 286.06 121.42 L 286.21 121.53 L 286.37 121.64 L 286.53 121.76 L 286.69 121.87 L 286.84 121.99 L 287.00 122.10 L 287.16 122.22 L 287.32 122.34 L 287.48 122.45 L 287.63 122.57 L 287.79 122.69 L 287.95 122.81 L 288.11 122.92 L 288.27 123.04 L 288.42 123.16 L 288.58 123.28 L 288.74 123.40 L 288.90 123.52 L 289.06 123.63 L 289.21 123.75 L 289.37 123.87 L 289.53 123.99 L 289.69 124.11 L 289.84 124.23 L 290.00 124.35 L 290.16 124.47 L 290.32 124.59 L 290.48 124.71 L 290.63 124.83 L 290.79 124.95 L 290.95 125.07 L 291.11 125.19 L 291.27 125.31 L 291.42 125.43 L 291.58 125.55 L 291.74 125.67 L 291.90 125.79 L 292.05 125.91 L 292.21 126.03 L 292.37 126.15 L 292.53 126.27 L 292.69 126.38 L 292.84 126.50 L 293.00 126.62 L 293.16 126.74 L 293.32 126.86 L 293.48 126.98 L 293.63 127.09 L 293.79 127.21 L 293.95 127.33 L 294.11 127.44 L 294.26 127.56 L 294.42 127.68 L 294.58 127.79 L 294.74 127.91 L 294.90 128.02 L 295.05 128.14 L 295.21 128.25 L 295.37 128.37 L 295.53 128.48 L 295.69 128.59 L 295.84 128.71 L 296.00 128.82 L 296.16 128.93 L 296.32 129.04 L 296.47 129.15 L 296.63 129.26 L 296.79 129.37 L 296.95 129.48 L 297.11 129.59 L 297.26 129.70 L 297.42 129.81 L 297.58 129.92 L 297.74 130.02 L 297.90 130.13 L 298.05 130.23 L 298.21 130.34 L 298.37 130.44 L 298.53 130.55 L 298.68 130.65 L 298.84 130.75 L 299.00 130.85 L 299.16 130.95 L 299.32 131.05 L 299.47 131.15 L 299.63 131.25 L 299.79 131.35 L 299.95 131.45 L 300.11 131.55 L 300.26 131.64 L 300.42 131.74 L 300.58 131.83 L 300.74 131.92 L 300.89 132.02 L 301.05 132.11 L 301.21 132.20 L 301.37 132.29 L 301.53 132.38 L 301.68 132.47 L 301.84 132.56 L 302.00 132.64" fill="none" stroke="#7E8692" stroke-width="2.3" stroke-linecap="round" stroke-linejoin="round"/>
</svg>
