<svg xmlns="http://www.w3.org/2000/svg" viewBox="0 0 320 180" width="320" height="180">
  <rect width="320" height="180" fill="#F4F5F7"/>
  <path d="M 18.00 150.00 L 18.32 150.00 L 18.63 150.00 L 18.95 150.00 L 19.26 150.00 L 19.58 150.00 L 19.90 150.00 L 20.21 150.00 L 20.53 150.00 L 20.84 150.00 L 21.16 150.00 L 21.47 150.00 L 21.79 150.00 L 22.11 150.00 L 22.42 150.00 L 22.74 150.00 L 23.05 150.00 L 23.37 150.00 L 23.69 150.00 L 24.00 150.00 L 24.32 150.00 L 24.63 150.00 L 24.95 150.00 L 25.27 150.00 L 25.58 150.00 L 25.90 150.00 L 26.21 150.00 L 26.53 150.00 L 26.85 150.00 L 27.16 150.00 L 27.48 150.00 L 27.79 150.00 L 28.11 150.00 L 28.42 150.00 L 28.74 150.00 L 29.06 150.00 L 29.37 150.00 L 29.69 150.00 L 30.00 150.00 L 30.32 150.00 L 30.64 150.00 L 30.95 150.00 L 31.27 150.00 L 31.58 150.00 L 31.90 150.00 L 32.22 150.00 L 32.53 150.00 L 32.85 150.00 L 33.16 150.00 L 33.48 150.00 L 33.80 150.00 L 34.11 150.00 L 34.43 150.00 L 34.74 150.00 L 35.06 150.00 L 35.37 150.00 L 35.69 150.00 L 36.01 150.00 L 36.32 150.00 L 36.64 150.00 L 36.95 150.00 L 37.27 150.00 L 37.59 150.00 L 37.90 150.00 L 38.22 150.00 L 38.53 150.00 L 38.85 150.00 L 39.17 150.00 L 39.48 150.00 L 39.80 150.00 L 40.11 150.00 L 40.43 150.00 L 40.75 150.00 L 41.06 150.00 L 41.38 150.00 L 41.69 150.00 L 42.01 150.00 L 42.32 150.00 L 42.64 150.00 L 42.96 150.00 L 43.27 150.00 L 43.59 150.00 L 43.90 150.00 L 44.22 150.00 L 44.54 150.00 L 44.85 150.00 L 45.17 150.00 L 45.48 150.00 L 45.80 150.00 L 46.12 150.00 L 46.43 150.00 L 46.75 150.00 L 47.06 150.00 L 47.38 150.00 L 47.70 150.00 L 48.01 150.00 L 48.33 150.00 L 48.64 150.00 L 48.96 150.00 L 49.27 150.00 L 49.59 150.00 L 49.91 150.00 L 50.22 150.00 L 50.54 150.00 L 50.85 150.00 L 51.17 150.00 L 51.49 150.00 L 51.80 150.00 L 52.12 150.00 L 52.43 150.00 L 52.75 150.00 L 53.07 150.00 L 53.38 150.00 L 53.70 150.00 L 54.01 150.00 L 54.33 150.00 L 54.65 150.00 L 54.96 150.00 L 55.28 150.00 L 55.59 150.00 L 55.91 150.00 L 56.22 150.00 L 56.54 150.00 L 56.86 150.00 L 57.17 150.00 L 57.49 150.00 L 57.80 150.00 L 58.12 150.00 L 58.44 150.00 L 58.75 150.00 L 59.07 150.00 L 59.38 150.00 L 59.70 150.00 L 60.02 150.00 L 60.33 150.00 L 60.65 150.00 L 60.96 150.00 L 61.28 150.00 L 61.60 150.00 L 61.91 150.00 L 62.23 150.00 L 62.54 150.00 L 62.86 150.00 L 63.17 150.00 L 63.49 150.00 L 63.81 150.00 L 64.12 150.00 L 64.44 150.00 L 64.75 150.00 L 65.07 150.00 L 65.39 150.00 L 65.70 150.00 L 66.02 150.00 L 66.33 150.00 L 66.65 150.00 L 66.97 150.00 L 67.28 150.00 L 67.60 150.00 L 67.91 150.00 L 68.23 150.00 L 68.55 150.00 L 68.86 150.00 L 69.18 150.00 L 69.49 150.00 L 69.81 150.00 L 70.12 150.00 L 70.44 150.00 L 70.76 150.00 L 71.07 150.00 L 71.39 150.00 L 71.70 150.00 L 72.02 150.00 L 72.34 150.00 L 72.65 150.00 L 72.97 150.00 L 73.28 150.00 L 73.60 150.00 L 73.92 150.00 L 74.23 150.00 L 74.55 150.00 L 74.86 150.00 L 75.18 150.00 L 75.49 150.00 L 75.81 150.00 L 76.13 150.00 L 76.44 150.00 L 76.76 150.00 L 77.07 150.00 L 77.39 150.00 L 77.71 150.00 L 78.02 149.99 L 78.34 149.99 L 78.65 149.99 L 78.97 149.99 L 79.29 149.99 L 79.60 149.99 L 79.92 149.99 L 80.23 149.99 L 80.55 149.99 L 80.87 149.99 L 81.18 149.99 L 81.50 149.99 L 81.81 149.99 L 82.13 149.98 L 82.44 149.98 L 82.76 149.98 L 83.08 149.98 L 83.39 149.98 L 83.71 149.98 L 84.02 149.98 L 84.34 149.97 L 84.66 149.97 L 84.97 149.97 L 85.29 149.97 L 85.60 149.96 L 85.92 149.96 L 86.24 149.96 L 86.55 149.96 L 86.87 149.95 L 87.18 149.95 L 87.50 149.95 L 87.82 149.94 L 88.13 149.94 L 88.45 149.93 L 88.76 149.93 L 89.08 149.92 L 89.39 149.92 L 89.71 149.91 L 90.03 149.91 L 90.34 149.90 L 90.66 149.90 L 90.97 149.89 L 91.29 149.88 L 91.61 149.87 L 91.92 149.87 L 92.24 149.86 L 92.55 149.85 L 92.87 149.84 L 93.19 149.83 L 93.50 149.82 L 93.82 149.81 L 94.13 149.80 L 94.45 149.79 L 94.77 149.78 L 95.08 149.76 L 95.40 149.75 L 95.71 149.74 L 96.03 149.72 L 96.34 149.70 L 96.66 149.69 L 96.98 149.67 L 97.29 149.65 L 97.61 149.64 L 97.92 149.62 L 98.24 149.60 L 98.56 149.58 L 98.87 149.55 L 99.19 149.53 L 99.50 149.51 L 99.82 149.48 L 100.14 149.46 L 100.45 149.43 L 100.77 149.40 L 101.08 149.37 L 101.40 149.35 L 101.72 149.31 L 102.03 149.28 L 102.35 149.25 L 102.66 149.21 L 102.98 149.18 L 103.29 149.14 L 103.61 149.10 L 103.93 149.06 L 104.24 149.02 L 104.56 148.98 L 104.87 148.94 L 105.19 148.89 L 105.51 148.84 L 105.82 148.79 L 106.14 148.74 L 106.45 148.69 L 106.77 148.64 L 107.09 148.58 L 107.40 148.53 L 107.72 148.47 L 108.03 148.41 L 108.35 148.35 L 108.67 148.28 L 108.98 148.22 L 109.30 148.15 L 109.61 148.08 L 109.93 148.01 L 110.24 147.93 L 110.56 147.86 L 110.88 147.78 L 111.19 147.70 L 111.51 147.62 L 111.82 147.53 L 112.14 147.45 L 112.46 147.36 L 112.77 147.27 L 113.09 147.17 L 113.40 147.08 L 113.72 146.98 L 114.04 146.88 L 114.35 146.78 L 114.67 146.67 L 114.98 146.57 L 115.30 146.46 L 115.62 146.34 L 115.93 146.23 L 116.25 146.11 L 116.56 145.99 L 116.88 145.87 L 117.19 145.74 L 117.51 145.62 L 117.83 145.49 L 118.14 145.35 L 118.46 145.22 L 118.77 145.08 L 119.09 144.94 L 119.41 144.79 L 119.72 144.65 L 120.04 144.50 L 120.35 144.35 L 120.67 144.19 L 120.99 144.03 L 121.30 143.87 L 121.62 143.71 L 121.93 143.54 L 122.25 143.37 L 122.57 143.20 L 122.88 143.02 L 123.20 142.85 L 123.51 142.67 L 123.83 142.48 L 124.14 142.30 L 124.46 142.11 L 124.78 141.91 L 125.09 141.72 L 125.41 141.52 L 125.72 141.32 L 126.04 141.11 L 126.36 140.91 L 126.67 140.70 L 126.99 140.48 L 127.30 140.27 L 127.62 140.05 L 127.94 139.82 L 128.25 139.60 L 128.57 139.37 L 128.88 139.14 L 129.20 138.91 L 129.52 138.67 L 129.83 138.43 L 130.15 138.19 L 130.46 137.94 L 130.78 137.70 L 131.09 137.45 L 131.41 137.19 L 131.73 136.94 L 132.04 136.68 L 132.36 136.41 L 132.67 136.15 L 132.99 135.88 L 133.31 135.61 L 133.62 135.34 L 133.94 135.06 L 134.25 134.79 L 134.57 134.50 L 134.89 134.22 L 135.20 133.93 L 135.52 133.65 L 135.83 133.35 L 136.15 133.06 L 136.46 132.76 L 136.78 132.47 L 137.10 132.16 L 137.41 131.86 L 137.73 131.55 L 138.04 131.25 L 138.36 130.93 L 138.68 130.62 L 138.99 130.31 L 139.31 129.99 L 139.62 129.67 L 139.94 129.35 L 140.26 129.02 L 140.57 128.69 L 140.89 128.37 L 141.20 128.04 L 141.52 127.70 L 141.84 127.37 L 142.15 127.03 L 142.47 126.69 L 142.78 126.35 L 143.10 126.01 L 143.41 125.66 L 143.73 125.32 L 144.05 124.97 L 144.36 124.62 L 144.68 124.27 L 144.99 123.91 L 145.31 123.56 L 145.63 123.20 L 145.94 122.84 L 146.26 122.48 L 146.57 122.12 L 146.89 121.76 L 147.21 121.39 L 147.52 121.03 L 147.84 120.66 L 148.15 120.29 L 148.47 119.92 L 148.79 119.55 L 149.10 119.18 L 149.42 118.81 L 149.73 118.43 L 150.05 118.06 L 150.36 117.68 L 150.68 117.30 L 151.00 116.92 L 151.31 116.54 L 151.63 116.16 L 151.94 115.78 L 152.26 115.40 L 152.58 115.02 L 152.89 114.63 L 153.21 114.25 L 153.52 113.86 L 153.84 113.47 L 154.16 113.09 L 154.47 112.70 L 154.79 112.31 L 155.10 111.92 L 155.42 111.53 L 155.74 111.14 L 156.05 110.75 L 156.37 110.36 L 156.68 109.97 L 157.00 109.58 L 157.31 109.19 L 157.63 108.80 L 157.95 108.41 L 158.26 108.01 L 158.58 107.62 L 158.89 107.23 L 159.21 106.84 L 159.53 106.44 L 159.84 106.05 L 160.16 105.66 L 160.47 105.27 L 160.79 104.87 L 161.11 104.48 L 161.42 104.09 L 161.74 103.69 L 162.05 103.30 L 162.37 102.91 L 162.69 102.52 L 163.00 102.13 L 163.32 101.74 L 163.63 101.34 L 163.95 100.95 L 164.26 100.56 L 164.58 100.17 L 164.90 99.78 L 165.21 99.39 L 165.53 99.01 L 165.84 98.62 L 166.16 98.23 L 166.48 97.84 L 166.79 97.46 L 167.11 97.07 L 167.42 96.69 L 167.74 96.30 L 168.06 95.92 L 168.37 95.53 L 168.69 95.15 L 169.00 94.77 L 169.32 94.39 L 169.64 94.01 L 169.95 93.63 L 170.27 93.25 L 170.58 92.87 L 170.90 92.50 L 171.21 92.12 L 171.53 91.75 L 171.85 91.37 L 172.16 91.00 L 172.48 90.63 L 172.79 90.25 L 173.11 89.88 L 173.43 89.51 L 173.74 89.15 L 174.06 88.78 L 174.37 88.41 L 174.69 88.05 L 175.01 87.68 L 175.32 87.32 L 175.64 86.96 L 175.95 86.60 L 176.27 86.24 L 176.59 85.88 L 176.90 85.52 L 177.22 85.17 L 177.53 84.81 L 177.85 84.46 L 178.16 84.11 L 178.48 83.76 L 178.80 83.41 L 179.11 83.06 L 179.43 82.71 L 179.74 82.37 L 180.06 82.02 L 180.38 81.68 L 180.69 81.34 L 181.01 81.00 L 181.32 80.66 L 181.64 80.32 L 181.96 79.98 L 182.27 79.65 L 182.59 79.32 L 182.90 78.98 L 183.22 78.65 L 183.54 78.32 L 183.85 78.00 L 184.17 77.67 L 184.48 77.34 L 184.80 77.02 L 185.11 76.70 L 185.43 76.38 L 185.75 76.06 L 186.06 75.74 L 186.38 75.42 L 186.69 75.11 L 187.01 74.79 L 187.33 74.48 L 187.64 74.17 L 187.96 73.86 L 188.27 73.56 L 188.59 73.25 L 188.91 72.95 L 189.22 72.64 L 189.54 72.34 L 189.85 72.04 L 190.17 71.74 L 190.48 71.45 L 190.80 71.15 L 191.12 70.86 L 191.43 70.56 L 191.75 70.27 L 192.06 69.98 L 192.38 69.70 L 192.70 69.41 L 193.01 69.12 L 193.33 68.84 L 193.64 68.56 L 193.96 68.28 L 194.28 68.00 L 194.59 67.72 L 194.91 67.45 L 195.22 67.17 L 195.54 66.90 L 195.86 66.63 L 196.17 66.36 L 196.49 66.09 L 196.80 65.83 L 197.12 65.56 L 197.43 65.30 L 197.75 65.04 L 198.07 64.78 L 198.38 64.52 L 198.70 64.26 L 199.01 64.01 L 199.33 63.75 L 199.65 63.50 L 199.96 63.25 L 200.28 63.00 L 200.59 62.75 L 200.91 62.50 L 201.23 62.26 L 201.54 62.01 L 201.86 61.77 L 202.17 61.53 L 202.49 61.29 L 202.81 61.05 L 203.12 60.82 L 203.44 60.58 L 203.75 60.35 L 204.07 60.12 L 204.38 59.89 L 204.70 59.66 L 205.02 59.43 L 205.33 59.20 L 205.65 58.98 L 205.96 58.76 L 206.28 58.53 L 206.60 58.31 L 206.91 58.10 L 207.23 57.88 L 207.54 57.66 L 207.86 57.45 L 208.18 57.23 L 208.49 57.02 L 208.81 56.81 L 209.12 56.60 L 209.44 56.40 L 209.76 56.19 L 210.07 55.98 L 210.39 55.78 L 210.70 55.58 L 211.02 55.38 L 211.33 55.18 L 211.65 54.98 L 211.97 54.78 L 212.28 54.59 L 212.60 54.39 L 212.91 54.20 L 213.23 54.01 L 213.55 53.82 L 213.86 53.63 L 214.18 53.44 L 214.49 53.26 L 214.81 53.07 L 215.13 52.89 L 215.44 52.71 L 215.76 52.53 L 216.07 52.35 L 216.39 52.17 L 216.71 51.99 L 217.02 51.82 L 217.34 51.64 L 217.65 51.47 L 217.97 51.30 L 218.28 51.12 L 218.60 50.95 L 218.92 50.79 L 219.23 50.62 L 219.55 50.45 L 219.86 50.29 L 220.18 50.12 L 220.50 49.96 L 220.81 49.80 L 221.13 49.64 L 221.44 49.48 L 221.76 49.32 L 222.08 49.17 L 222.39 49.01 L 222.71 48.86 L 223.02 48.70 L 223.34 48.55 L 223.66 48.40 L 223.97 48.25 L 224.29 48.10 L 224.60 47.95 L 224.92 47.81 L 225.23 47.66 L 225.55 47.52 L 225.87 47.37 L 226.18 47.23 L 226.50 47.09 L 226.81 46.95 L 227.13 46.81 L 227.45 46.67 L 227.76 46.54 L 228.08 46.40 L 228.39 46.26 L 228.71 46.13 L 229.03 46.00 L 229.34 45.87 L 229.66 45.73 L 229.97 45.60 L 230.29 45.48 L 230.61 45.35 L 230.92 45.22 L 231.24 45.09 L 231.55 44.97 L 231.87 44.85 L 232.18 44.72 L 232.50 44.60 L 232.82 44.48 L 233.13 44.36 L 233.45 44.24 L 233.76 44.12 L 234.08 44.00 L 234.40 43.89 L 234.71 43.77 L 235.03 43.66 L 235.34 43.54 L 235.66 43.43 L 235.98 43.32 L 236.29 43.21 L 236.61 43.10 L 236.92 42.99 L 237.24 42.88 L 237.56 42.77 L 237.87 42.66 L 238.19 42.56 L 238.50 42.45 L 238.82 42.35 L 239.13 42.24 L 239.45 42.14 L 239.77 42.04 L 240.08 41.94 L 240.40 41.84 L 240.71 41.74 L 241.03 41.64 L 241.35 41.54 L 241.66 41.44 L 241.98 41.35 L 242.29 41.25 L 242.61 41.16 L 242.93 41.06 L 243.24 40.97 L 243.56 40.88 L 243.87 40.78 L 244.19 40.69 L 244.51 40.60 L 244.82 40.51 L 245.14 40.42 L 245.45 40.34 L 245.77 40.25 L 246.08 40.16 L 246.40 40.08 L 246.72 39.99 L 247.03 39.91 L 247.35 39.82 L 247.66 39.74 L 247.98 39.66 L 248.30 39.57 L 248.61 39.49 L 248.93 39.41 L 249.24 39.33 L 249.56 39.25 L 249.88 39.17 L 250.19 39.10 L 250.51 39.02 L 250.82 38.94 L 251.14 38.86 L 251.45 38.79 L 251.77 38.71 L 252.09 38.64 L 252.40 38.57 L 252.72 38.49 L 253.03 38.42 L 253.35 38.35 L 253.67 38.28 L 253.98 38.21 L 254.30 38.14 L 254.61 38.07 L 254.93 38.00 L 255.25 37.93 L 255.56 37.86 L 255.88 37.79 L 256.19 37.73 L 256.51 37.66 L 256.83 37.60 L 257.14 37.53 L 257.46 37.47 L 257.77 37.40 L 258.09 37.34 L 258.40 37.27 L 258.72 37.21 L 259.04 37.15 L 259.35 37.09 L 259.67 37.03 L 259.98 36.97 L 260.30 36.91 L 260.62 36.85 L 260.93 36.79 L 261.25 36.73 L 261.56 36.67 L 261.88 36.62 L 262.20 36.56 L 262.51 36.50 L 262.83 36.45 L 263.14 36.39 L 263.46 36.34 L 263.78 36.28 L 264.09 36.23 L 264.41 36.17 L 264.72 36.12 L 265.04 36.07 L 265.35 36.01 L 265.67 35.96 L 265.99 35.91 L 266.30 35.86 L 266.62 35.81 L 266.93 35.76 L 267.25 35.71 L 267.57 35.66 L 267.88 35.61 L 268.20 35.56 L 268.51 35.51 L 268.83 35.47 L 269.15 35.42 L 269.46 35.37 L 269.78 35.33 L 270.09 35.28 L 270.41 35.23 L 270.73 35.19 L 271.04 35.14 L 271.36 35.10 L 271.67 35.05 L 271.99 35.01 L 272.30 34.97 L 272.62 34.92 L 272.94 34.88 L 273.25 34.84 L 273.57 34.80 L 273.88 34.76 L 274.20 34.71 L 274.52 34.67 L 274.83 34.63 L 275.15 34.59 L 275.46 34.55 L 275.78 34.51 L 276.10 34.47 L 276.41 34.43 L 276.73 34.40 L 277.04 34.36 L 277.36 34.32 L 277.68 34.28 L 277.99 34.25 L 278.31 34.21 L 278.62 34.17 L 278.94 34.14 L 279.25 34.10 L 279.57 34.06 L 279.89 34.03 L 280.20 33.99 L 280.52 33.96 L 280.83 33.92 L 281.15 33.89 L 281.47 33.86 L 281.78 33.82 L 282.10 33.79 L 282.41 33.76 L 282.73 33.72 L 283.05 33.69 L 283.36 33.66 L 283.68 33.63 L 283.99 33.60 L 284.31 33.56 L 284.63 33.53 L 284.94 33.50 L 285.26 33.47 L 285.57 33.44 L 285.89 33.41 L 286.20 33.38 L 286.52 33.35 L 286.84 33.32 L 287.15 33.29 L 287.47 33.26 L 287.78 33.24 L 288.10 33.21 L 288.42 33.18 L 288.73 33.15 L 289.05 33.12 L 289.36 33.10 L 289.68 33.07 L 290.00 33.04 L 290.31 33.02 L 290.63 32.99 L 290.94 32.96 L 291.26 32.94 L 291.58 32.91 L 291.89 32.89 L 292.21 32.86 L 292.52 32.84 L 292.84 32.81 L 293.15 32.79 L 293.47 32.76 L 293.79 32.74 L 294.10 32.71 L 294.42 32.69 L 294.73 32.67 L 295.05 32.64 L 295.37 32.62 L 295.68 32.60 L 296.00 32.57 L 296.31 32.55 L 296.63 32.53 L 296.95 32.51 L 297.26 32.49 L 297.58 32.46 L 297.89 32.44 L 298.21 32.42 L 298.53 32.40 L 298.84 32.38 L 299.16 32.36 L 299.47 32.34 L 299.79 32.32 L 300.10 32.30 L 300.42 32.28 L 300.74 32.26 L 301.05 32.24 L 301.37 32.22 L 301.68 32.20 L 302.00 32.18" fill="none" stroke="#7E8692" stroke-width="2.3" stroke-linecap="round" stroke-linejoin="round"/>
</svg>
