<svg xmlns="http://www.w3.org/2000/svg" viewBox="0 0 320 180" width="320" height="180">
  <rect width="320" height="180" fill="#F4F5F7"/>
  <path d="M 18.00 162.00 L 18.32 162.00 L 18.63 161.99 L 18.95 161.98 L 19.26 161.97 L 19.58 161.96 L 19.90 161.95 L 20.21 161.94 L 20.53 161.92 L 20.84 161.91 L 21.16 161.89 L 21.47 161.87 L 21.79 161.85 L 22.11 161.83 L 22.42 161.81 L 22.74 161.79 L 23.05 161.77 L 23.37 161.74 L 23.69 161.72 L 24.00 161.69 L 24.32 161.67 L 24.63 161.64 L 24.95 161.61 L 25.27 161.58 L 25.58 161.55 L 25.90 161.52 L 26.21 161.49 L 26.53 161.46 L 26.85 161.43 L 27.16 161.40 L 27.48 161.36 L 27.79 161.33 L 28.11 161.29 L 28.42 161.26 L 28.74 161.22 L 29.06 161.18 L 29.37 161.15 L 29.69 161.11 L 30.00 161.07 L 30.32 161.03 L 30.64 160.99 L 30.95 160.95 L 31.27 160.91 L 31.58 160.87 L 31.90 160.82 L 32.22 160.78 L 32.53 160.74 L 32.85 160.69 L 33.16 160.65 L 33.48 160.60 L 33.80 160.56 L 34.11 160.51 L 34.43 160.46 L 34.74 160.41 L 35.06 160.37 L 35.37 160.32 L 35.69 160.27 L 36.01 160.22 L 36.32 160.17 L 36.64 160.12 L 36.95 160.07 L 37.27 160.01 L 37.59 159.96 L 37.90 159.91 L 38.22 159.86 L 38.53 159.80 L 38.85 159.75 L 39.17 159.69 L 39.48 159.64 L 39.80 159.58 L 40.11 159.53 L 40.43 159.47 L 40.75 159.41 L 41.06 159.35 L 41.38 159.29 L 41.69 159.24 L 42.01 159.18 L 42.32 159.12 L 42.64 159.06 L 42.96 159.00 L 43.27 158.94 L 43.59 158.87 L 43.90 158.81 L 44.22 158.75 L 44.54 158.69 L 44.85 158.62 L 45.17 158.56 L 45.48 158.50 L 45.80 158.43 L 46.12 158.37 L 46.43 158.30 L 46.75 158.23 L 47.06 158.17 L 47.38 158.10 L 47.70 158.03 L 48.01 157.97 L 48.33 157.90 L 48.64 157.83 L 48.96 157.76 L 49.27 157.69 L 49.59 157.62 L 49.91 157.55 L 50.22 157.48 L 50.54 157.41 L 50.85 157.34 L 51.17 157.27 L 51.49 157.19 L 51.80 157.12 L 52.12 157.05 L 52.43 156.97 L 52.75 156.90 L 53.07 156.82 L 53.38 156.75 L 53.70 156.67 L 54.01 156.60 L 54.33 156.52 L 54.65 156.45 L 54.96 156.37 L 55.28 156.29 L 55.59 156.22 L 55.91 156.14 L 56.22 156.06 L 56.54 155.98 L 56.86 155.90 L 57.17 155.82 L 57.49 155.74 L 57.80 155.66 L 58.12 155.58 L 58.44 155.50 L 58.75 155.42 L 59.07 155.34 L 59.38 155.25 L 59.70 155.17 L 60.02 155.09 L 60.33 155.01 L 60.65 154.92 L 60.96 154.84 L 61.28 154.75 L 61.60 154.67 L 61.91 154.58 L 62.23 154.50 L 62.54 154.41 L 62.86 154.33 L 63.17 154.24 L 63.49 154.15 L 63.81 154.06 L 64.12 153.98 L 64.44 153.89 L 64.75 153.80 L 65.07 153.71 L 65.39 153.62 L 65.70 153.53 L 66.02 153.44 L 66.33 153.35 L 66.65 153.26 L 66.97 153.17 L 67.28 153.08 L 67.60 152.99 L 67.91 152.90 L 68.23 152.80 L 68.55 152.71 L 68.86 152.62 L 69.18 152.52 L 69.49 152.43 L 69.81 152.34 L 70.12 152.24 L 70.44 152.15 L 70.76 152.05 L 71.07 151.96 L 71.39 151.86 L 71.70 151.76 L 72.02 151.67 L 72.34 151.57 L 72.65 151.47 L 72.97 151.38 L 73.28 151.28 L 73.60 151.18 L 73.92 151.08 L 74.23 150.98 L 74.55 150.88 L 74.86 150.78 L 75.18 150.68 L 75.49 150.58 L 75.81 150.48 L 76.13 150.38 L 76.44 150.28 L 76.76 150.18 L 77.07 150.08 L 77.39 149.98 L 77.71 149.87 L 78.02 149.77 L 78.34 149.67 L 78.65 149.56 L 78.97 149.46 L 79.29 149.36 L 79.60 149.25 L 79.92 149.15 L 80.23 149.04 L 80.55 148.94 L 80.87 148.83 L 81.18 148.72 L 81.50 148.62 L 81.81 148.51 L 82.13 148.40 L 82.44 148.30 L 82.76 148.19 L 83.08 148.08 L 83.39 147.97 L 83.71 147.86 L 84.02 147.76 L 84.34 147.65 L 84.66 147.54 L 84.97 147.43 L 85.29 147.32 L 85.60 147.21 L 85.92 147.10 L 86.24 146.98 L 86.55 146.87 L 86.87 146.76 L 87.18 146.65 L 87.50 146.54 L 87.82 146.42 L 88.13 146.31 L 88.45 146.20 L 88.76 146.09 L 89.08 145.97 L 89.39 145.86 L 89.71 145.74 L 90.03 145.63 L 90.34 145.51 L 90.66 145.40 L 90.97 145.28 L 91.29 145.17 L 91.61 145.05 L 91.92 144.93 L 92.24 144.82 L 92.55 144.70 L 92.87 144.58 L 93.19 144.46 L 93.50 144.35 L 93.82 144.23 L 94.13 144.11 L 94.45 143.99 L 94.77 143.87 L 95.08 143.75 L 95.40 143.63 L 95.71 143.51 L 96.03 143.39 L 96.34 143.27 L 96.66 143.15 L 96.98 143.03 L 97.29 142.91 L 97.61 142.78 L 97.92 142.66 L 98.24 142.54 L 98.56 142.42 L 98.87 142.29 L 99.19 142.17 L 99.50 142.05 L 99.82 141.92 L 100.14 141.80 L 100.45 141.68 L 100.77 141.55 L 101.08 141.43 L 101.40 141.30 L 101.72 141.17 L 102.03 141.05 L 102.35 140.92 L 102.66 140.80 L 102.98 140.67 L 103.29 140.54 L 103.61 140.42 L 103.93 140.29 L 104.24 140.16 L 104.56 140.03 L 104.87 139.90 L 105.19 139.77 L 105.51 139.65 L 105.82 139.52 L 106.14 139.39 L 106.45 139.26 L 106.77 139.13 L 107.09 139.00 L 107.40 138.87 L 107.72 138.73 L 108.03 138.60 L 108.35 138.47 L 108.67 138.34 L 108.98 138.21 L 109.30 138.08 L 109.61 137.94 L 109.93 137.81 L 110.24 137.68 L 110.56 137.54 L 110.88 137.41 L 111.19 137.28 L 111.51 137.14 L 111.82 137.01 L 112.14 136.87 L 112.46 136.74 L 112.77 136.60 L 113.09 136.47 L 113.40 136.33 L 113.72 136.19 L 114.04 136.06 L 114.35 135.92 L 114.67 135.78 L 114.98 135.65 L 115.30 135.51 L 115.62 135.37 L 115.93 135.23 L 116.25 135.10 L 116.56 134.96 L 116.88 134.82 L 117.19 134.68 L 117.51 134.54 L 117.83 134.40 L 118.14 134.26 L 118.46 134.12 L 118.77 133.98 L 119.09 133.84 L 119.41 133.70 L 119.72 133.56 L 120.04 133.42 L 120.35 133.27 L 120.67 133.13 L 120.99 132.99 L 121.30 132.85 L 121.62 132.70 L 121.93 132.56 L 122.25 132.42 L 122.57 132.27 L 122.88 132.13 L 123.20 131.99 L 123.51 131.84 L 123.83 131.70 L 124.14 131.55 L 124.46 131.41 L 124.78 131.26 L 125.09 131.12 L 125.41 130.97 L 125.72 130.82 L 126.04 130.68 L 126.36 130.53 L 126.67 130.38 L 126.99 130.24 L 127.30 130.09 L 127.62 129.94 L 127.94 129.79 L 128.25 129.65 L 128.57 129.50 L 128.88 129.35 L 129.20 129.20 L 129.52 129.05 L 129.83 128.90 L 130.15 128.75 L 130.46 128.60 L 130.78 128.45 L 131.09 128.30 L 131.41 128.15 L 131.73 128.00 L 132.04 127.85 L 132.36 127.70 L 132.67 127.55 L 132.99 127.39 L 133.31 127.24 L 133.62 127.09 L 133.94 126.94 L 134.25 126.78 L 134.57 126.63 L 134.89 126.48 L 135.20 126.32 L 135.52 126.17 L 135.83 126.01 L 136.15 125.86 L 136.46 125.70 L 136.78 125.55 L 137.10 125.39 L 137.41 125.24 L 137.73 125.08 L 138.04 124.93 L 138.36 124.77 L 138.68 124.61 L 138.99 124.46 L 139.31 124.30 L 139.62 124.14 L 139.94 123.99 L 140.26 123.83 L 140.57 123.67 L 140.89 123.51 L 141.20 123.35 L 141.52 123.20 L 141.84 123.04 L 142.15 122.88 L 142.47 122.72 L 142.78 122.56 L 143.10 122.40 L 143.41 122.24 L 143.73 122.08 L 144.05 121.92 L 144.36 121.76 L 144.68 121.60 L 144.99 121.43 L 145.31 121.27 L 145.63 121.11 L 145.94 120.95 L 146.26 120.79 L 146.57 120.62 L 146.89 120.46 L 147.21 120.30 L 147.52 120.13 L 147.84 119.97 L 148.15 119.81 L 148.47 119.64 L 148.79 119.48 L 149.10 119.31 L 149.42 119.15 L 149.73 118.99 L 150.05 118.82 L 150.36 118.65 L 150.68 118.49 L 151.00 118.32 L 151.31 118.16 L 151.63 117.99 L 151.94 117.82 L 152.26 117.66 L 152.58 117.49 L 152.89 117.32 L 153.21 117.16 L 153.52 116.99 L 153.84 116.82 L 154.16 116.65 L 154.47 116.48 L 154.79 116.31 L 155.10 116.15 L 155.42 115.98 L 155.74 115.81 L 156.05 115.64 L 156.37 115.47 L 156.68 115.30 L 157.00 115.13 L 157.31 114.96 L 157.63 114.79 L 157.95 114.61 L 158.26 114.44 L 158.58 114.27 L 158.89 114.10 L 159.21 113.93 L 159.53 113.76 L 159.84 113.58 L 160.16 113.41 L 160.47 113.24 L 160.79 113.06 L 161.11 112.89 L 161.42 112.72 L 161.74 112.54 L 162.05 112.37 L 162.37 112.20 L 162.69 112.02 L 163.00 111.85 L 163.32 111.67 L 163.63 111.50 L 163.95 111.32 L 164.26 111.15 L 164.58 110.97 L 164.90 110.79 L 165.21 110.62 L 165.53 110.44 L 165.84 110.26 L 166.16 110.09 L 166.48 109.91 L 166.79 109.73 L 167.11 109.55 L 167.42 109.38 L 167.74 109.20 L 168.06 109.02 L 168.37 108.84 L 168.69 108.66 L 169.00 108.48 L 169.32 108.30 L 169.64 108.13 L 169.95 107.95 L 170.27 107.77 L 170.58 107.59 L 170.90 107.40 L 171.21 107.22 L 171.53 107.04 L 171.85 106.86 L 172.16 106.68 L 172.48 106.50 L 172.79 106.32 L 173.11 106.14 L 173.43 105.95 L 173.74 105.77 L 174.06 105.59 L 174.37 105.41 L 174.69 105.22 L 175.01 105.04 L 175.32 104.86 L 175.64 104.67 L 175.95 104.49 L 176.27 104.30 L 176.59 104.12 L 176.90 103.94 L 177.22 103.75 L 177.53 103.57 L 177.85 103.38 L 178.16 103.20 L 178.48 103.01 L 178.80 102.82 L 179.11 102.64 L 179.43 102.45 L 179.74 102.26 L 180.06 102.08 L 180.38 101.89 L 180.69 101.70 L 181.01 101.52 L 181.32 101.33 L 181.64 101.14 L 181.96 100.95 L 182.27 100.76 L 182.59 100.58 L 182.90 100.39 L 183.22 100.20 L 183.54 100.01 L 183.85 99.82 L 184.17 99.63 L 184.48 99.44 L 184.80 99.25 L 185.11 99.06 L 185.43 98.87 L 185.75 98.68 L 186.06 98.49 L 186.38 98.30 L 186.69 98.11 L 187.01 97.91 L 187.33 97.72 L 187.64 97.53 L 187.96 97.34 L 188.27 97.15 L 188.59 96.95 L 188.91 96.76 L 189.22 96.57 L 189.54 96.37 L 189.85 96.18 L 190.17 95.99 L 190.48 95.79 L 190.80 95.60 L 191.12 95.40 L 191.43 95.21 L 191.75 95.01 L 192.06 94.82 L 192.38 94.62 L 192.70 94.43 L 193.01 94.23 L 193.33 94.04 L 193.64 93.84 L 193.96 93.65 L 194.28 93.45 L 194.59 93.25 L 194.91 93.06 L 195.22 92.86 L 195.54 92.66 L 195.86 92.46 L 196.17 92.27 L 196.49 92.07 L 196.80 91.87 L 197.12 91.67 L 197.43 91.47 L 197.75 91.27 L 198.07 91.07 L 198.38 90.88 L 198.70 90.68 L 199.01 90.48 L 199.33 90.28 L 199.65 90.08 L 199.96 89.88 L 200.28 89.68 L 200.59 89.48 L 200.91 89.27 L 201.23 89.07 L 201.54 88.87 L 201.86 88.67 L 202.17 88.47 L 202.49 88.27 L 202.81 88.07 L 203.12 87.86 L 203.44 87.66 L 203.75 87.46 L 204.07 87.25 L 204.38 87.05 L 204.70 86.85 L 205.02 86.64 L 205.33 86.44 L 205.65 86.24 L 205.96 86.03 L 206.28 85.83 L 206.60 85.62 L 206.91 85.42 L 207.23 85.21 L 207.54 85.01 L 207.86 84.80 L 208.18 84.60 L 208.49 84.39 L 208.81 84.19 L 209.12 83.98 L 209.44 83.77 L 209.76 83.57 L 210.07 83.36 L 210.39 83.15 L 210.70 82.95 L 211.02 82.74 L 211.33 82.53 L 211.65 82.32 L 211.97 82.11 L 212.28 81.91 L 212.60 81.70 L 212.91 81.49 L 213.23 81.28 L 213.55 81.07 L 213.86 80.86 L 214.18 80.65 L 214.49 80.44 L 214.81 80.23 L 215.13 80.02 L 215.44 79.81 L 215.76 79.60 L 216.07 79.39 L 216.39 79.18 L 216.71 78.97 L 217.02 78.76 L 217.34 78.55 L 217.65 78.33 L 217.97 78.12 L 218.28 77.91 L 218.60 77.70 L 218.92 77.49 L 219.23 77.27 L 219.55 77.06 L 219.86 76.85 L 220.18 76.63 L 220.50 76.42 L 220.81 76.21 L 221.13 75.99 L 221.44 75.78 L 221.76 75.56 L 222.08 75.35 L 222.39 75.13 L 222.71 74.92 L 223.02 74.70 L 223.34 74.49 L 223.66 74.27 L 223.97 74.06 L 224.29 73.84 L 224.60 73.63 L 224.92 73.41 L 225.23 73.19 L 225.55 72.98 L 225.87 72.76 L 226.18 72.54 L 226.50 72.33 L 226.81 72.11 L 227.13 71.89 L 227.45 71.67 L 227.76 71.45 L 228.08 71.24 L 228.39 71.02 L 228.71 70.80 L 229.03 70.58 L 229.34 70.36 L 229.66 70.14 L 229.97 69.92 L 230.29 69.70 L 230.61 69.48 L 230.92 69.26 L 231.24 69.04 L 231.55 68.82 L 231.87 68.60 L 232.18 68.38 L 232.50 68.16 L 232.82 67.94 L 233.13 67.72 L 233.45 67.49 L 233.76 67.27 L 234.08 67.05 L 234.40 66.83 L 234.71 66.61 L 235.03 66.38 L 235.34 66.16 L 235.66 65.94 L 235.98 65.71 L 236.29 65.49 L 236.61 65.27 L 236.92 65.04 L 237.24 64.82 L 237.56 64.60 L 237.87 64.37 L 238.19 64.15 L 238.50 63.92 L 238.82 63.70 L 239.13 63.47 L 239.45 63.25 L 239.77 63.02 L 240.08 62.80 L 240.40 62.57 L 240.71 62.34 L 241.03 62.12 L 241.35 61.89 L 241.66 61.66 L 241.98 61.44 L 242.29 61.21 L 242.61 60.98 L 242.93 60.76 L 243.24 60.53 L 243.56 60.30 L 243.87 60.07 L 244.19 59.84 L 244.51 59.62 L 244.82 59.39 L 245.14 59.16 L 245.45 58.93 L 245.77 58.70 L 246.08 58.47 L 246.40 58.24 L 246.72 58.01 L 247.03 57.78 L 247.35 57.55 L 247.66 57.32 L 247.98 57.09 L 248.30 56.86 L 248.61 56.63 L 248.93 56.40 L 249.24 56.17 L 249.56 55.94 L 249.88 55.70 L 250.19 55.47 L 250.51 55.24 L 250.82 55.01 L 251.14 54.78 L 251.45 54.54 L 251.77 54.31 L 252.09 54.08 L 252.40 53.84 L 252.72 53.61 L 253.03 53.38 L 253.35 53.14 L 253.67 52.91 L 253.98 52.68 L 254.30 52.44 L 254.61 52.21 L 254.93 51.97 L 255.25 51.74 L 255.56 51.50 L 255.88 51.27 L 256.19 51.03 L 256.51 50.80 L 256.83 50.56 L 257.14 50.33 L 257.46 50.09 L 257.77 49.85 L 258.09 49.62 L 258.40 49.38 L 258.72 49.14 L 259.04 48.91 L 259.35 48.67 L 259.67 48.43 L 259.98 48.19 L 260.30 47.96 L 260.62 47.72 L 260.93 47.48 L 261.25 47.24 L 261.56 47.00 L 261.88 46.76 L 262.20 46.53 L 262.51 46.29 L 262.83 46.05 L 263.14 45.81 L 263.46 45.57 L 263.78 45.33 L 264.09 45.09 L 264.41 44.85 L 264.72 44.61 L 265.04 44.37 L 265.35 44.13 L 265.67 43.88 L 265.99 43.64 L 266.30 43.40 L 266.62 43.16 L 266.93 42.92 L 267.25 42.68 L 267.57 42.44 L 267.88 42.19 L 268.20 41.95 L 268.51 41.71 L 268.83 41.46 L 269.15 41.22 L 269.46 40.98 L 269.78 40.74 L 270.09 40.49 L 270.41 40.25 L 270.73 40.00 L 271.04 39.76 L 271.36 39.52 L 271.67 39.27 L 271.99 39.03 L 272.30 38.78 L 272.62 38.54 L 272.94 38.29 L 273.25 38.05 L 273.57 37.80 L 273.88 37.56 L 274.20 37.31 L 274.52 37.06 L 274.83 36.82 L 275.15 36.57 L 275.46 36.32 L 275.78 36.08 L 276.10 35.83 L 276.41 35.58 L 276.73 35.34 L 277.04 35.09 L 277.36 34.84 L 277.68 34.59 L 277.99 34.34 L 278.31 34.10 L 278.62 33.85 L 278.94 33.60 L 279.25 33.35 L 279.57 33.10 L 279.89 32.85 L 280.20 32.60 L 280.52 32.35 L 280.83 32.10 L 281.15 31.85 L 281.47 31.60 L 281.78 31.35 L 282.10 31.10 L 282.41 30.85 L 282.73 30.60 L 283.05 30.35 L 283.36 30.10 L 283.68 29.85 L 283.99 29.60 L 284.31 29.34 L 284.63 29.09 L 284.94 28.84 L 285.26 28.59 L 285.57 28.34 L 285.89 28.08 L 286.20 27.83 L 286.52 27.58 L 286.84 27.32 L 287.15 27.07 L 287.47 26.82 L 287.78 26.56 L 288.10 26.31 L 288.42 26.06 L 288.73 25.80 L 289.05 25.55 L 289.36 25.29 L 289.68 25.04 L 290.00 24.78 L 290.31 24.53 L 290.63 24.27 L 290.94 24.02 L 291.26 23.76 L 291.58 23.51 L 291.89 23.25 L 292.21 22.99 L 292.52 22.74 L 292.84 22.48 L 293.15 22.22 L 293.47 21.97 L 293.79 21.71 L 294.10 21.45 L 294.42 21.20 L 294.73 20.94 L 295.05 20.68 L 295.37 20.42 L 295.68 20.17 L 296.00 19.91 L 296.31 19.65 L 296.63 19.39 L 296.95 19.13 L 297.26 18.87 L 297.58 18.61 L 297.89 18.35 L 298.21 18.09 L 298.53 17.83 L 298.84 17.57 L 299.16 17.31 L 299.47 17.05 L 299.79 16.79 L 300.10 16.53 L 300.42 16.27 L 300.74 16.01 L 301.05 15.75 L 301.37 15.49 L 301.68 15.23 L 302.00 14.97" fill="none" stroke="#7E8692" stroke-width="2.3" stroke-linecap="round" stroke-linejoin="round"/>
</svg>
