<svg xmlns="http://www.w3.org/2000/svg" viewBox="0 0 320 180" width="320" height="180">
  <rect width="320" height="180" fill="none"/>
  <path d="M 24.00 30.50 L 24.15 30.50 L 24.30 30.51 L 24.45 30.52 L 24.60 30.53 L 24.76 30.55 L 24.91 30.58 L 25.06 30.60 L 25.21 30.64 L 25.36 30.67 L 25.51 30.71 L 25.66 30.76 L 25.81 30.81 L 25.97 30.86 L 26.12 30.92 L 26.27 30.98 L 26.42 31.04 L 26.57 31.11 L 26.72 31.19 L 26.87 31.27 L 27.02 31.35 L 27.18 31.44 L 27.33 31.53 L 27.48 31.62 L 27.63 31.72 L 27.78 31.82 L 27.93 31.93 L 28.08 32.04 L 28.23 32.16 L 28.38 32.28 L 28.54 32.40 L 28.69 32.53 L 28.84 32.66 L 28.99 32.80 L 29.14 32.94 L 29.29 33.09 L 29.44 33.23 L 29.59 33.39 L 29.75 33.54 L 29.90 33.71 L 30.05 33.87 L 30.20 34.04 L 30.35 34.21 L 30.50 34.39 L 30.65 34.57 L 30.80 34.75 L 30.95 34.94 L 31.11 35.13 L 31.26 35.33 L 31.41 35.53 L 31.56 35.74 L 31.71 35.94 L 31.86 36.16 L 32.01 36.37 L 32.16 36.59 L 32.32 36.81 L 32.47 37.04 L 32.62 37.27 L 32.77 37.51 L 32.92 37.75 L 33.07 37.99 L 33.22 38.23 L 33.37 38.48 L 33.53 38.74 L 33.68 38.99 L 33.83 39.25 L 33.98 39.52 L 34.13 39.78 L 34.28 40.06 L 34.43 40.33 L 34.58 40.61 L 34.73 40.89 L 34.89 41.18 L 35.04 41.46 L 35.19 41.76 L 35.34 42.05 L 35.49 42.35 L 35.64 42.65 L 35.79 42.96 L 35.94 43.27 L 36.10 43.58 L 36.25 43.89 L 36.40 44.21 L 36.55 44.54 L 36.70 44.86 L 36.85 45.19 L 37.00 45.52 L 37.15 45.86 L 37.31 46.19 L 37.46 46.53 L 37.61 46.88 L 37.76 47.22 L 37.91 47.57 L 38.06 47.93 L 38.21 48.28 L 38.36 48.64 L 38.51 49.00 L 38.67 49.37 L 38.82 49.74 L 38.97 50.11 L 39.12 50.48 L 39.27 50.85 L 39.42 51.23 L 39.57 51.61 L 39.72 52.00 L 39.88 52.38 L 40.03 52.77 L 40.18 53.17 L 40.33 53.56 L 40.48 53.96 L 40.63 54.36 L 40.78 54.76 L 40.93 55.16 L 41.09 55.57 L 41.24 55.98 L 41.39 56.39 L 41.54 56.80 L 41.69 57.22 L 41.84 57.64 L 41.99 58.06 L 42.14 58.48 L 42.29 58.91 L 42.45 59.33 L 42.60 59.76 L 42.75 60.19 L 42.90 60.63 L 43.05 61.06 L 43.20 61.50 L 43.35 61.94 L 43.50 62.38 L 43.66 62.82 L 43.81 63.27 L 43.96 63.72 L 44.11 64.17 L 44.26 64.62 L 44.41 65.07 L 44.56 65.52 L 44.71 65.98 L 44.86 66.43 L 45.02 66.89 L 45.17 67.35 L 45.32 67.81 L 45.47 68.28 L 45.62 68.74 L 45.77 69.21 L 45.92 69.68 L 46.07 70.15 L 46.23 70.62 L 46.38 71.09 L 46.53 71.56 L 46.68 72.03 L 46.83 72.51 L 46.98 72.99 L 47.13 73.46 L 47.28 73.94 L 47.44 74.42 L 47.59 74.90 L 47.74 75.38 L 47.89 75.87 L 48.04 76.35 L 48.19 76.83 L 48.34 77.32 L 48.49 77.81 L 48.64 78.29 L 48.80 78.78 L 48.95 79.27 L 49.10 79.76 L 49.25 80.25 L 49.40 80.74 L 49.55 81.23 L 49.70 81.72 L 49.85 82.21 L 50.01 82.70 L 50.16 83.19 L 50.31 83.69 L 50.46 84.18 L 50.61 84.67 L 50.76 85.17 L 50.91 85.66 L 51.06 86.16 L 51.22 86.65 L 51.37 87.15 L 51.52 87.64 L 51.67 88.13 L 51.82 88.63 L 51.97 89.12 L 52.12 89.62 L 52.27 90.11 L 52.42 90.61 L 52.58 91.10 L 52.73 91.60 L 52.88 92.09 L 53.03 92.59 L 53.18 93.08 L 53.33 93.57 L 53.48 94.07 L 53.63 94.56 L 53.79 95.05 L 53.94 95.54 L 54.09 96.03 L 54.24 96.52 L 54.39 97.01 L 54.54 97.50 L 54.69 97.99 L 54.84 98.48 L 54.99 98.97 L 55.15 99.46 L 55.30 99.94 L 55.45 100.43 L 55.60 100.91 L 55.75 101.39 L 55.90 101.88 L 56.05 102.36 L 56.20 102.84 L 56.36 103.32 L 56.51 103.80 L 56.66 104.28 L 56.81 104.75 L 56.96 105.23 L 57.11 105.70 L 57.26 106.18 L 57.41 106.65 L 57.57 107.12 L 57.72 107.59 L 57.87 108.06 L 58.02 108.52 L 58.17 108.99 L 58.32 109.45 L 58.47 109.92 L 58.62 110.38 L 58.77 110.84 L 58.93 111.30 L 59.08 111.75 L 59.23 112.21 L 59.38 112.66 L 59.53 113.11 L 59.68 113.56 L 59.83 114.01 L 59.98 114.46 L 60.14 114.90 L 60.29 115.35 L 60.44 115.79 L 60.59 116.23 L 60.74 116.66 L 60.89 117.10 L 61.04 117.53 L 61.19 117.96 L 61.35 118.39 L 61.50 118.82 L 61.65 119.25 L 61.80 119.67 L 61.95 120.09 L 62.10 120.51 L 62.25 120.93 L 62.40 121.34 L 62.55 121.76 L 62.71 122.17 L 62.86 122.58 L 63.01 122.98 L 63.16 123.38 L 63.31 123.79 L 63.46 124.19 L 63.61 124.58 L 63.76 124.98 L 63.92 125.37 L 64.07 125.76 L 64.22 126.14 L 64.37 126.53 L 64.52 126.91 L 64.67 127.29 L 64.82 127.66 L 64.97 128.04 L 65.13 128.41 L 65.28 128.78 L 65.43 129.14 L 65.58 129.51 L 65.73 129.87 L 65.88 130.23 L 66.03 130.58 L 66.18 130.93 L 66.33 131.28 L 66.49 131.63 L 66.64 131.97 L 66.79 132.31 L 66.94 132.65 L 67.09 132.99 L 67.24 133.32 L 67.39 133.65 L 67.54 133.97 L 67.70 134.30 L 67.85 134.62 L 68.00 134.94 L 68.15 135.25 L 68.30 135.56 L 68.45 135.87 L 68.60 136.17 L 68.75 136.48 L 68.90 136.77 L 69.06 137.07 L 69.21 137.36 L 69.36 137.65 L 69.51 137.94 L 69.66 138.22 L 69.81 138.50 L 69.96 138.78 L 70.11 139.05 L 70.27 139.32 L 70.42 139.59 L 70.57 139.85 L 70.72 140.11 L 70.87 140.37 L 71.02 140.62 L 71.17 140.87 L 71.32 141.12 L 71.48 141.36 L 71.63 141.60 L 71.78 141.84 L 71.93 142.08 L 72.08 142.31 L 72.23 142.53 L 72.38 142.76 L 72.53 142.98 L 72.68 143.19 L 72.84 143.40 L 72.99 143.61 L 73.14 143.82 L 73.29 144.02 L 73.44 144.22 L 73.59 144.42 L 73.74 144.61 L 73.89 144.80 L 74.05 144.98 L 74.20 145.17 L 74.35 145.34 L 74.50 145.52 L 74.65 145.69 L 74.80 145.86 L 74.95 146.02 L 75.10 146.18 L 75.26 146.34 L 75.41 146.49 L 75.56 146.64 L 75.71 146.79 L 75.86 146.93 L 76.01 147.07 L 76.16 147.21 L 76.31 147.34 L 76.46 147.47 L 76.62 147.59 L 76.77 147.72 L 76.92 147.83 L 77.07 147.95 L 77.22 148.06 L 77.37 148.17 L 77.52 148.27 L 77.67 148.37 L 77.83 148.47 L 77.98 148.56 L 78.13 148.65 L 78.28 148.73 L 78.43 148.82 L 78.58 148.90 L 78.73 148.97 L 78.88 149.04 L 79.04 149.11 L 79.19 149.17 L 79.34 149.24 L 79.49 149.29 L 79.64 149.35 L 79.79 149.40 L 79.94 149.44 L 80.09 149.49 L 80.24 149.53 L 80.40 149.56 L 80.55 149.60 L 80.70 149.63 L 80.85 149.65 L 81.00 149.67 L 81.15 149.69 L 81.30 149.71 L 81.45 149.72 L 81.61 149.73 L 81.76 149.73 L 81.91 149.73 L 82.06 149.73 L 82.21 149.73 L 82.36 149.72 L 82.51 149.71 L 82.66 149.69 L 82.81 149.67 L 82.97 149.65 L 83.12 149.62 L 83.27 149.60 L 83.42 149.56 L 83.57 149.53 L 83.72 149.49 L 83.87 149.45 L 84.02 149.40 L 84.18 149.35 L 84.33 149.30 L 84.48 149.25 L 84.63 149.19 L 84.78 149.12 L 84.93 149.06 L 85.08 148.99 L 85.23 148.92 L 85.39 148.85 L 85.54 148.77 L 85.69 148.69 L 85.84 148.60 L 85.99 148.52 L 86.14 148.43 L 86.29 148.33 L 86.44 148.24 L 86.59 148.14 L 86.75 148.04 L 86.90 147.93 L 87.05 147.82 L 87.20 147.71 L 87.35 147.60 L 87.50 147.48 L 87.65 147.36 L 87.80 147.24 L 87.96 147.11 L 88.11 146.98 L 88.26 146.85 L 88.41 146.72 L 88.56 146.58 L 88.71 146.44 L 88.86 146.30 L 89.01 146.15 L 89.17 146.00 L 89.32 145.85 L 89.47 145.70 L 89.62 145.54 L 89.77 145.38 L 89.92 145.22 L 90.07 145.06 L 90.22 144.89 L 90.37 144.72 L 90.53 144.55 L 90.68 144.38 L 90.83 144.20 L 90.98 144.02 L 91.13 143.84 L 91.28 143.65 L 91.43 143.47 L 91.58 143.28 L 91.74 143.09 L 91.89 142.89 L 92.04 142.70 L 92.19 142.50 L 92.34 142.30 L 92.49 142.10 L 92.64 141.89 L 92.79 141.68 L 92.94 141.47 L 93.10 141.26 L 93.25 141.05 L 93.40 140.83 L 93.55 140.62 L 93.70 140.40 L 93.85 140.17 L 94.00 139.95 L 94.15 139.72 L 94.31 139.50 L 94.46 139.27 L 94.61 139.04 L 94.76 138.80 L 94.91 138.57 L 95.06 138.33 L 95.21 138.09 L 95.36 137.85 L 95.52 137.61 L 95.67 137.37 L 95.82 137.12 L 95.97 136.87 L 96.12 136.62 L 96.27 136.37 L 96.42 136.12 L 96.57 135.87 L 96.72 135.61 L 96.88 135.36 L 97.03 135.10 L 97.18 134.84 L 97.33 134.58 L 97.48 134.32 L 97.63 134.05 L 97.78 133.79 L 97.93 133.52 L 98.09 133.25 L 98.24 132.99 L 98.39 132.72 L 98.54 132.45 L 98.69 132.17 L 98.84 131.90 L 98.99 131.63 L 99.14 131.35 L 99.30 131.07 L 99.45 130.80 L 99.60 130.52 L 99.75 130.24 L 99.90 129.96 L 100.05 129.68 L 100.20 129.40 L 100.35 129.11 L 100.50 128.83 L 100.66 128.54 L 100.81 128.26 L 100.96 127.97 L 101.11 127.69 L 101.26 127.40 L 101.41 127.11 L 101.56 126.82 L 101.71 126.53 L 101.87 126.25 L 102.02 125.96 L 102.17 125.66 L 102.32 125.37 L 102.47 125.08 L 102.62 124.79 L 102.77 124.50 L 102.92 124.21 L 103.08 123.91 L 103.23 123.62 L 103.38 123.33 L 103.53 123.03 L 103.68 122.74 L 103.83 122.44 L 103.98 122.15 L 104.13 121.86 L 104.28 121.56 L 104.44 121.27 L 104.59 120.97 L 104.74 120.68 L 104.89 120.38 L 105.04 120.09 L 105.19 119.80 L 105.34 119.50 L 105.49 119.21 L 105.65 118.91 L 105.80 118.62 L 105.95 118.33 L 106.10 118.03 L 106.25 117.74 L 106.40 117.45 L 106.55 117.16 L 106.70 116.87 L 106.85 116.57 L 107.01 116.28 L 107.16 115.99 L 107.31 115.70 L 107.46 115.41 L 107.61 115.12 L 107.76 114.84 L 107.91 114.55 L 108.06 114.26 L 108.22 113.97 L 108.37 113.69 L 108.52 113.40 L 108.67 113.12 L 108.82 112.84 L 108.97 112.55 L 109.12 112.27 L 109.27 111.99 L 109.43 111.71 L 109.58 111.43 L 109.73 111.15 L 109.88 110.87 L 110.03 110.60 L 110.18 110.32 L 110.33 110.04 L 110.48 109.77 L 110.63 109.50 L 110.79 109.23 L 110.94 108.96 L 111.09 108.69 L 111.24 108.42 L 111.39 108.15 L 111.54 107.88 L 111.69 107.62 L 111.84 107.36 L 112.00 107.09 L 112.15 106.83 L 112.30 106.57 L 112.45 106.32 L 112.60 106.06 L 112.75 105.80 L 112.90 105.55 L 113.05 105.30 L 113.21 105.04 L 113.36 104.80 L 113.51 104.55 L 113.66 104.30 L 113.81 104.05 L 113.96 103.81 L 114.11 103.57 L 114.26 103.33 L 114.41 103.09 L 114.57 102.85 L 114.72 102.62 L 114.87 102.38 L 115.02 102.15 L 115.17 101.92 L 115.32 101.69 L 115.47 101.46 L 115.62 101.24 L 115.78 101.02 L 115.93 100.79 L 116.08 100.57 L 116.23 100.36 L 116.38 100.14 L 116.53 99.93 L 116.68 99.71 L 116.83 99.50 L 116.98 99.30 L 117.14 99.09 L 117.29 98.88 L 117.44 98.68 L 117.59 98.48 L 117.74 98.28 L 117.89 98.09 L 118.04 97.89 L 118.19 97.70 L 118.35 97.51 L 118.50 97.32 L 118.65 97.14 L 118.80 96.95 L 118.95 96.77 L 119.10 96.59 L 119.25 96.41 L 119.40 96.24 L 119.56 96.07 L 119.71 95.90 L 119.86 95.73 L 120.01 95.56 L 120.16 95.40 L 120.31 95.24 L 120.46 95.08 L 120.61 94.92 L 120.76 94.76 L 120.92 94.61 L 121.07 94.46 L 121.22 94.31 L 121.37 94.17 L 121.52 94.02 L 121.67 93.88 L 121.82 93.75 L 121.97 93.61 L 122.13 93.48 L 122.28 93.34 L 122.43 93.22 L 122.58 93.09 L 122.73 92.97 L 122.88 92.84 L 123.03 92.73 L 123.18 92.61 L 123.34 92.49 L 123.49 92.38 L 123.64 92.27 L 123.79 92.17 L 123.94 92.06 L 124.09 91.96 L 124.24 91.86 L 124.39 91.77 L 124.54 91.67 L 124.70 91.58 L 124.85 91.49 L 125.00 91.40 L 125.15 91.32 L 125.30 91.24 L 125.45 91.16 L 125.60 91.08 L 125.75 91.01 L 125.91 90.94 L 126.06 90.87 L 126.21 90.80 L 126.36 90.74 L 126.51 90.68 L 126.66 90.62 L 126.81 90.57 L 126.96 90.51 L 127.12 90.46 L 127.27 90.41 L 127.42 90.37 L 127.57 90.33 L 127.72 90.29 L 127.87 90.25 L 128.02 90.21 L 128.17 90.18 L 128.32 90.15 L 128.48 90.12 L 128.63 90.10 L 128.78 90.08 L 128.93 90.06 L 129.08 90.04 L 129.23 90.02 L 129.38 90.01 L 129.53 90.00 L 129.69 90.00 L 129.84 89.99 L 129.99 89.99 L 130.14 89.99 L 130.29 89.99 L 130.44 90.00 L 130.59 90.01 L 130.74 90.02 L 130.89 90.03 L 131.05 90.05 L 131.20 90.07 L 131.35 90.09 L 131.50 90.11 L 131.65 90.14 L 131.80 90.17 L 131.95 90.20 L 132.10 90.23 L 132.26 90.27 L 132.41 90.31 L 132.56 90.35 L 132.71 90.39 L 132.86 90.44 L 133.01 90.49 L 133.16 90.54 L 133.31 90.59 L 133.47 90.65 L 133.62 90.70 L 133.77 90.76 L 133.92 90.83 L 134.07 90.89 L 134.22 90.96 L 134.37 91.03 L 134.52 91.10 L 134.67 91.18 L 134.83 91.25 L 134.98 91.33 L 135.13 91.42 L 135.28 91.50 L 135.43 91.59 L 135.58 91.67 L 135.73 91.76 L 135.88 91.86 L 136.04 91.95 L 136.19 92.05 L 136.34 92.15 L 136.49 92.25 L 136.64 92.36 L 136.79 92.46 L 136.94 92.57 L 137.09 92.68 L 137.25 92.79 L 137.40 92.91 L 137.55 93.03 L 137.70 93.15 L 137.85 93.27 L 138.00 93.39 L 138.15 93.51 L 138.30 93.64 L 138.45 93.77 L 138.61 93.90 L 138.76 94.04 L 138.91 94.17 L 139.06 94.31 L 139.21 94.45 L 139.36 94.59 L 139.51 94.73 L 139.66 94.88 L 139.82 95.02 L 139.97 95.17 L 140.12 95.32 L 140.27 95.47 L 140.42 95.63 L 140.57 95.78 L 140.72 95.94 L 140.87 96.10 L 141.03 96.26 L 141.18 96.43 L 141.33 96.59 L 141.48 96.76 L 141.63 96.92 L 141.78 97.09 L 141.93 97.26 L 142.08 97.44 L 142.23 97.61 L 142.39 97.79 L 142.54 97.97 L 142.69 98.14 L 142.84 98.32 L 142.99 98.51 L 143.14 98.69 L 143.29 98.87 L 143.44 99.06 L 143.60 99.25 L 143.75 99.44 L 143.90 99.63 L 144.05 99.82 L 144.20 100.01 L 144.35 100.21 L 144.50 100.40 L 144.65 100.60 L 144.80 100.80 L 144.96 101.00 L 145.11 101.20 L 145.26 101.40 L 145.41 101.60 L 145.56 101.81 L 145.71 102.01 L 145.86 102.22 L 146.01 102.43 L 146.17 102.64 L 146.32 102.85 L 146.47 103.06 L 146.62 103.27 L 146.77 103.48 L 146.92 103.69 L 147.07 103.91 L 147.22 104.12 L 147.38 104.34 L 147.53 104.56 L 147.68 104.77 L 147.83 104.99 L 147.98 105.21 L 148.13 105.43 L 148.28 105.65 L 148.43 105.87 L 148.58 106.10 L 148.74 106.32 L 148.89 106.54 L 149.04 106.77 L 149.19 106.99 L 149.34 107.22 L 149.49 107.44 L 149.64 107.67 L 149.79 107.90 L 149.95 108.12 L 150.10 108.35 L 150.25 108.58 L 150.40 108.81 L 150.55 109.04 L 150.70 109.27 L 150.85 109.50 L 151.00 109.73 L 151.16 109.96 L 151.31 110.19 L 151.46 110.42 L 151.61 110.65 L 151.76 110.88 L 151.91 111.12 L 152.06 111.35 L 152.21 111.58 L 152.36 111.81 L 152.52 112.04 L 152.67 112.28 L 152.82 112.51 L 152.97 112.74 L 153.12 112.97 L 153.27 113.21 L 153.42 113.44 L 153.57 113.67 L 153.73 113.90 L 153.88 114.14 L 154.03 114.37 L 154.18 114.60 L 154.33 114.83 L 154.48 115.06 L 154.63 115.29 L 154.78 115.52 L 154.93 115.76 L 155.09 115.99 L 155.24 116.22 L 155.39 116.45 L 155.54 116.68 L 155.69 116.90 L 155.84 117.13 L 155.99 117.36 L 156.14 117.59 L 156.30 117.82 L 156.45 118.04 L 156.60 118.27 L 156.75 118.49 L 156.90 118.72 L 157.05 118.94 L 157.20 119.17 L 157.35 119.39 L 157.51 119.61 L 157.66 119.84 L 157.81 120.06 L 157.96 120.28 L 158.11 120.50 L 158.26 120.72 L 158.41 120.94 L 158.56 121.15 L 158.71 121.37 L 158.87 121.59 L 159.02 121.80 L 159.17 122.02 L 159.32 122.23 L 159.47 122.44 L 159.62 122.65 L 159.77 122.86 L 159.92 123.07 L 160.08 123.28 L 160.23 123.49 L 160.38 123.70 L 160.53 123.90 L 160.68 124.11 L 160.83 124.31 L 160.98 124.51 L 161.13 124.71 L 161.29 124.91 L 161.44 125.11 L 161.59 125.31 L 161.74 125.51 L 161.89 125.70 L 162.04 125.90 L 162.19 126.09 L 162.34 126.28 L 162.49 126.47 L 162.65 126.66 L 162.80 126.85 L 162.95 127.03 L 163.10 127.22 L 163.25 127.40 L 163.40 127.58 L 163.55 127.76 L 163.70 127.94 L 163.86 128.12 L 164.01 128.30 L 164.16 128.47 L 164.31 128.65 L 164.46 128.82 L 164.61 128.99 L 164.76 129.16 L 164.91 129.32 L 165.07 129.49 L 165.22 129.65 L 165.37 129.82 L 165.52 129.98 L 165.67 130.14 L 165.82 130.30 L 165.97 130.45 L 166.12 130.61 L 166.27 130.76 L 166.43 130.91 L 166.58 131.06 L 166.73 131.21 L 166.88 131.35 L 167.03 131.50 L 167.18 131.64 L 167.33 131.78 L 167.48 131.92 L 167.64 132.06 L 167.79 132.19 L 167.94 132.32 L 168.09 132.46 L 168.24 132.59 L 168.39 132.71 L 168.54 132.84 L 168.69 132.96 L 168.84 133.09 L 169.00 133.21 L 169.15 133.33 L 169.30 133.44 L 169.45 133.56 L 169.60 133.67 L 169.75 133.78 L 169.90 133.89 L 170.05 134.00 L 170.21 134.10 L 170.36 134.21 L 170.51 134.31 L 170.66 134.41 L 170.81 134.50 L 170.96 134.60 L 171.11 134.69 L 171.26 134.78 L 171.42 134.87 L 171.57 134.96 L 171.72 135.04 L 171.87 135.13 L 172.02 135.21 L 172.17 135.29 L 172.32 135.36 L 172.47 135.44 L 172.62 135.51 L 172.78 135.58 L 172.93 135.65 L 173.08 135.72 L 173.23 135.78 L 173.38 135.84 L 173.53 135.90 L 173.68 135.96 L 173.83 136.02 L 173.99 136.07 L 174.14 136.12 L 174.29 136.17 L 174.44 136.22 L 174.59 136.26 L 174.74 136.31 L 174.89 136.35 L 175.04 136.39 L 175.20 136.42 L 175.35 136.46 L 175.50 136.49 L 175.65 136.52 L 175.80 136.55 L 175.95 136.58 L 176.10 136.60 L 176.25 136.62 L 176.40 136.64 L 176.56 136.66 L 176.71 136.68 L 176.86 136.69 L 177.01 136.70 L 177.16 136.71 L 177.31 136.72 L 177.46 136.72 L 177.61 136.72 L 177.77 136.72 L 177.92 136.72 L 178.07 136.72 L 178.22 136.71 L 178.37 136.71 L 178.52 136.70 L 178.67 136.68 L 178.82 136.67 L 178.97 136.65 L 179.13 136.63 L 179.28 136.61 L 179.43 136.59 L 179.58 136.57 L 179.73 136.54 L 179.88 136.51 L 180.03 136.48 L 180.18 136.45 L 180.34 136.41 L 180.49 136.38 L 180.64 136.34 L 180.79 136.29 L 180.94 136.25 L 181.09 136.21 L 181.24 136.16 L 181.39 136.11 L 181.55 136.06 L 181.70 136.00 L 181.85 135.95 L 182.00 135.89 L 182.15 135.83 L 182.30 135.77 L 182.45 135.71 L 182.60 135.64 L 182.75 135.58 L 182.91 135.51 L 183.06 135.44 L 183.21 135.36 L 183.36 135.29 L 183.51 135.21 L 183.66 135.13 L 183.81 135.05 L 183.96 134.97 L 184.12 134.88 L 184.27 134.80 L 184.42 134.71 L 184.57 134.62 L 184.72 134.53 L 184.87 134.43 L 185.02 134.34 L 185.17 134.24 L 185.33 134.14 L 185.48 134.04 L 185.63 133.94 L 185.78 133.84 L 185.93 133.73 L 186.08 133.62 L 186.23 133.51 L 186.38 133.40 L 186.53 133.29 L 186.69 133.17 L 186.84 133.06 L 186.99 132.94 L 187.14 132.82 L 187.29 132.70 L 187.44 132.58 L 187.59 132.45 L 187.74 132.33 L 187.90 132.20 L 188.05 132.07 L 188.20 131.94 L 188.35 131.81 L 188.50 131.67 L 188.65 131.54 L 188.80 131.40 L 188.95 131.26 L 189.11 131.13 L 189.26 130.98 L 189.41 130.84 L 189.56 130.70 L 189.71 130.55 L 189.86 130.41 L 190.01 130.26 L 190.16 130.11 L 190.31 129.96 L 190.47 129.81 L 190.62 129.65 L 190.77 129.50 L 190.92 129.34 L 191.07 129.19 L 191.22 129.03 L 191.37 128.87 L 191.52 128.71 L 191.68 128.55 L 191.83 128.38 L 191.98 128.22 L 192.13 128.06 L 192.28 127.89 L 192.43 127.72 L 192.58 127.55 L 192.73 127.38 L 192.88 127.21 L 193.04 127.04 L 193.19 126.87 L 193.34 126.70 L 193.49 126.52 L 193.64 126.35 L 193.79 126.17 L 193.94 125.99 L 194.09 125.81 L 194.25 125.64 L 194.40 125.46 L 194.55 125.28 L 194.70 125.09 L 194.85 124.91 L 195.00 124.73 L 195.15 124.54 L 195.30 124.36 L 195.46 124.17 L 195.61 123.99 L 195.76 123.80 L 195.91 123.61 L 196.06 123.43 L 196.21 123.24 L 196.36 123.05 L 196.51 122.86 L 196.66 122.67 L 196.82 122.48 L 196.97 122.29 L 197.12 122.09 L 197.27 121.90 L 197.42 121.71 L 197.57 121.51 L 197.72 121.32 L 197.87 121.13 L 198.03 120.93 L 198.18 120.74 L 198.33 120.54 L 198.48 120.35 L 198.63 120.15 L 198.78 119.95 L 198.93 119.76 L 199.08 119.56 L 199.24 119.36 L 199.39 119.17 L 199.54 118.97 L 199.69 118.77 L 199.84 118.57 L 199.99 118.37 L 200.14 118.18 L 200.29 117.98 L 200.44 117.78 L 200.60 117.58 L 200.75 117.38 L 200.90 117.18 L 201.05 116.99 L 201.20 116.79 L 201.35 116.59 L 201.50 116.39 L 201.65 116.19 L 201.81 115.99 L 201.96 115.80 L 202.11 115.60 L 202.26 115.40 L 202.41 115.20 L 202.56 115.01 L 202.71 114.81 L 202.86 114.61 L 203.02 114.42 L 203.17 114.22 L 203.32 114.02 L 203.47 113.83 L 203.62 113.63 L 203.77 113.44 L 203.92 113.24 L 204.07 113.05 L 204.22 112.85 L 204.38 112.66 L 204.53 112.47 L 204.68 112.27 L 204.83 112.08 L 204.98 111.89 L 205.13 111.70 L 205.28 111.51 L 205.43 111.32 L 205.59 111.13 L 205.74 110.94 L 205.89 110.75 L 206.04 110.57 L 206.19 110.38 L 206.34 110.19 L 206.49 110.01 L 206.64 109.82 L 206.79 109.64 L 206.95 109.46 L 207.10 109.27 L 207.25 109.09 L 207.40 108.91 L 207.55 108.73 L 207.70 108.55 L 207.85 108.37 L 208.00 108.19 L 208.16 108.02 L 208.31 107.84 L 208.46 107.67 L 208.61 107.49 L 208.76 107.32 L 208.91 107.15 L 209.06 106.98 L 209.21 106.81 L 209.37 106.64 L 209.52 106.47 L 209.67 106.30 L 209.82 106.13 L 209.97 105.97 L 210.12 105.81 L 210.27 105.64 L 210.42 105.48 L 210.57 105.32 L 210.73 105.16 L 210.88 105.00 L 211.03 104.85 L 211.18 104.69 L 211.33 104.54 L 211.48 104.38 L 211.63 104.23 L 211.78 104.08 L 211.94 103.93 L 212.09 103.78 L 212.24 103.63 L 212.39 103.49 L 212.54 103.34 L 212.69 103.20 L 212.84 103.06 L 212.99 102.92 L 213.15 102.78 L 213.30 102.64 L 213.45 102.50 L 213.60 102.37 L 213.75 102.24 L 213.90 102.10 L 214.05 101.97 L 214.20 101.84 L 214.35 101.72 L 214.51 101.59 L 214.66 101.47 L 214.81 101.34 L 214.96 101.22 L 215.11 101.10 L 215.26 100.98 L 215.41 100.86 L 215.56 100.75 L 215.72 100.64 L 215.87 100.52 L 216.02 100.41 L 216.17 100.30 L 216.32 100.20 L 216.47 100.09 L 216.62 99.98 L 216.77 99.88 L 216.92 99.78 L 217.08 99.68 L 217.23 99.58 L 217.38 99.49 L 217.53 99.39 L 217.68 99.30 L 217.83 99.21 L 217.98 99.12 L 218.13 99.03 L 218.29 98.95 L 218.44 98.86 L 218.59 98.78 L 218.74 98.70 L 218.89 98.62 L 219.04 98.54 L 219.19 98.47 L 219.34 98.39 L 219.50 98.32 L 219.65 98.25 L 219.80 98.18 L 219.95 98.12 L 220.10 98.05 L 220.25 97.99 L 220.40 97.93 L 220.55 97.87 L 220.70 97.81 L 220.86 97.76 L 221.01 97.70 L 221.16 97.65 L 221.31 97.60 L 221.46 97.55 L 221.61 97.50 L 221.76 97.46 L 221.91 97.42 L 222.07 97.37 L 222.22 97.34 L 222.37 97.30 L 222.52 97.26 L 222.67 97.23 L 222.82 97.20 L 222.97 97.17 L 223.12 97.14 L 223.28 97.11 L 223.43 97.09 L 223.58 97.07 L 223.73 97.04 L 223.88 97.03 L 224.03 97.01 L 224.18 96.99 L 224.33 96.98 L 224.48 96.97 L 224.64 96.96 L 224.79 96.95 L 224.94 96.95 L 225.09 96.94 L 225.24 96.94 L 225.39 96.94 L 225.54 96.94 L 225.69 96.94 L 225.85 96.95 L 226.00 96.96 L 226.15 96.97 L 226.30 96.98 L 226.45 96.99 L 226.60 97.00 L 226.75 97.02 L 226.90 97.04 L 227.06 97.06 L 227.21 97.08 L 227.36 97.10 L 227.51 97.13 L 227.66 97.16 L 227.81 97.19 L 227.96 97.22 L 228.11 97.25 L 228.26 97.29 L 228.42 97.32 L 228.57 97.36 L 228.72 97.40 L 228.87 97.44 L 229.02 97.49 L 229.17 97.53 L 229.32 97.58 L 229.47 97.63 L 229.63 97.68 L 229.78 97.73 L 229.93 97.78 L 230.08 97.84 L 230.23 97.90 L 230.38 97.96 L 230.53 98.02 L 230.68 98.08 L 230.83 98.14 L 230.99 98.21 L 231.14 98.28 L 231.29 98.35 L 231.44 98.42 L 231.59 98.49 L 231.74 98.57 L 231.89 98.64 L 232.04 98.72 L 232.20 98.80 L 232.35 98.88 L 232.50 98.96 L 232.65 99.05 L 232.80 99.13 L 232.95 99.22 L 233.10 99.31 L 233.25 99.40 L 233.41 99.49 L 233.56 99.58 L 233.71 99.68 L 233.86 99.78 L 234.01 99.87 L 234.16 99.97 L 234.31 100.07 L 234.46 100.18 L 234.61 100.28 L 234.77 100.39 L 234.92 100.49 L 235.07 100.60 L 235.22 100.71 L 235.37 100.82 L 235.52 100.93 L 235.67 101.05 L 235.82 101.16 L 235.98 101.28 L 236.13 101.40 L 236.28 101.52 L 236.43 101.64 L 236.58 101.76 L 236.73 101.88 L 236.88 102.01 L 237.03 102.13 L 237.19 102.26 L 237.34 102.39 L 237.49 102.52 L 237.64 102.65 L 237.79 102.78 L 237.94 102.91 L 238.09 103.05 L 238.24 103.18 L 238.39 103.32 L 238.55 103.45 L 238.70 103.59 L 238.85 103.73 L 239.00 103.87 L 239.15 104.02 L 239.30 104.16 L 239.45 104.30 L 239.60 104.45 L 239.76 104.59 L 239.91 104.74 L 240.06 104.89 L 240.21 105.04 L 240.36 105.19 L 240.51 105.34 L 240.66 105.49 L 240.81 105.64 L 240.96 105.80 L 241.12 105.95 L 241.27 106.10 L 241.42 106.26 L 241.57 106.42 L 241.72 106.57 L 241.87 106.73 L 242.02 106.89 L 242.17 107.05 L 242.33 107.21 L 242.48 107.37 L 242.63 107.54 L 242.78 107.70 L 242.93 107.86 L 243.08 108.03 L 243.23 108.19 L 243.38 108.36 L 243.54 108.52 L 243.69 108.69 L 243.84 108.86 L 243.99 109.02 L 244.14 109.19 L 244.29 109.36 L 244.44 109.53 L 244.59 109.70 L 244.74 109.87 L 244.90 110.04 L 245.05 110.21 L 245.20 110.38 L 245.35 110.55 L 245.50 110.73 L 245.65 110.90 L 245.80 111.07 L 245.95 111.25 L 246.11 111.42 L 246.26 111.59 L 246.41 111.77 L 246.56 111.94 L 246.71 112.12 L 246.86 112.29 L 247.01 112.47 L 247.16 112.64 L 247.32 112.82 L 247.47 112.99 L 247.62 113.17 L 247.77 113.34 L 247.92 113.52 L 248.07 113.69 L 248.22 113.87 L 248.37 114.05 L 248.52 114.22 L 248.68 114.40 L 248.83 114.57 L 248.98 114.75 L 249.13 114.93 L 249.28 115.10 L 249.43 115.28 L 249.58 115.45 L 249.73 115.63 L 249.89 115.81 L 250.04 115.98 L 250.19 116.16 L 250.34 116.33 L 250.49 116.51 L 250.64 116.68 L 250.79 116.85 L 250.94 117.03 L 251.10 117.20 L 251.25 117.38 L 251.40 117.55 L 251.55 117.72 L 251.70 117.89 L 251.85 118.07 L 252.00 118.24 L 252.15 118.41 L 252.30 118.58 L 252.46 118.75 L 252.61 118.92 L 252.76 119.09 L 252.91 119.26 L 253.06 119.43 L 253.21 119.60 L 253.36 119.77 L 253.51 119.93 L 253.67 120.10 L 253.82 120.27 L 253.97 120.43 L 254.12 120.60 L 254.27 120.76 L 254.42 120.92 L 254.57 121.09 L 254.72 121.25 L 254.87 121.41 L 255.03 121.57 L 255.18 121.73 L 255.33 121.89 L 255.48 122.05 L 255.63 122.21 L 255.78 122.37 L 255.93 122.52 L 256.08 122.68 L 256.24 122.83 L 256.39 122.99 L 256.54 123.14 L 256.69 123.29 L 256.84 123.44 L 256.99 123.59 L 257.14 123.74 L 257.29 123.89 L 257.45 124.04 L 257.60 124.19 L 257.75 124.33 L 257.90 124.48 L 258.05 124.62 L 258.20 124.76 L 258.35 124.91 L 258.50 125.05 L 258.65 125.19 L 258.81 125.33 L 258.96 125.46 L 259.11 125.60 L 259.26 125.74 L 259.41 125.87 L 259.56 126.00 L 259.71 126.14 L 259.86 126.27 L 260.02 126.40 L 260.17 126.52 L 260.32 126.65 L 260.47 126.78 L 260.62 126.90 L 260.77 127.03 L 260.92 127.15 L 261.07 127.27 L 261.23 127.39 L 261.38 127.51 L 261.53 127.63 L 261.68 127.74 L 261.83 127.86 L 261.98 127.97 L 262.13 128.08 L 262.28 128.19 L 262.43 128.30 L 262.59 128.41 L 262.74 128.52 L 262.89 128.63 L 263.04 128.73 L 263.19 128.83 L 263.34 128.93 L 263.49 129.03 L 263.64 129.13 L 263.80 129.23 L 263.95 129.32 L 264.10 129.42 L 264.25 129.51 L 264.40 129.60 L 264.55 129.69 L 264.70 129.78 L 264.85 129.87 L 265.01 129.95 L 265.16 130.04 L 265.31 130.12 L 265.46 130.20 L 265.61 130.28 L 265.76 130.36 L 265.91 130.43 L 266.06 130.51 L 266.21 130.58 L 266.37 130.65 L 266.52 130.72 L 266.67 130.79 L 266.82 130.86 L 266.97 130.92 L 267.12 130.99 L 267.27 131.05 L 267.42 131.11 L 267.58 131.17 L 267.73 131.23 L 267.88 131.28 L 268.03 131.34 L 268.18 131.39 L 268.33 131.44 L 268.48 131.49 L 268.63 131.54 L 268.78 131.58 L 268.94 131.63 L 269.09 131.67 L 269.24 131.71 L 269.39 131.75 L 269.54 131.79 L 269.69 131.83 L 269.84 131.86 L 269.99 131.89 L 270.15 131.92 L 270.30 131.95 L 270.45 131.98 L 270.60 132.01 L 270.75 132.03 L 270.90 132.05 L 271.05 132.08 L 271.20 132.10 L 271.36 132.11 L 271.51 132.13 L 271.66 132.14 L 271.81 132.16 L 271.96 132.17 L 272.11 132.18 L 272.26 132.19 L 272.41 132.19 L 272.56 132.20 L 272.72 132.20 L 272.87 132.20 L 273.02 132.20 L 273.17 132.20 L 273.32 132.19 L 273.47 132.19 L 273.62 132.18 L 273.77 132.17 L 273.93 132.16 L 274.08 132.15 L 274.23 132.13 L 274.38 132.12 L 274.53 132.10 L 274.68 132.08 L 274.83 132.06 L 274.98 132.04 L 275.14 132.02 L 275.29 131.99 L 275.44 131.96 L 275.59 131.93 L 275.74 131.90 L 275.89 131.87 L 276.04 131.84 L 276.19 131.80 L 276.34 131.77 L 276.50 131.73 L 276.65 131.69 L 276.80 131.65 L 276.95 131.60 L 277.10 131.56 L 277.25 131.51 L 277.40 131.46 L 277.55 131.42 L 277.71 131.36 L 277.86 131.31 L 278.01 131.26 L 278.16 131.20 L 278.31 131.14 L 278.46 131.09 L 278.61 131.03 L 278.76 130.96 L 278.91 130.90 L 279.07 130.83 L 279.22 130.77 L 279.37 130.70 L 279.52 130.63 L 279.67 130.56 L 279.82 130.49 L 279.97 130.41 L 280.12 130.34 L 280.28 130.26 L 280.43 130.18 L 280.58 130.11 L 280.73 130.02 L 280.88 129.94 L 281.03 129.86 L 281.18 129.77 L 281.33 129.69 L 281.49 129.60 L 281.64 129.51 L 281.79 129.42 L 281.94 129.33 L 282.09 129.23 L 282.24 129.14 L 282.39 129.04 L 282.54 128.95 L 282.69 128.85 L 282.85 128.75 L 283.00 128.65 L 283.15 128.55 L 283.30 128.44 L 283.45 128.34 L 283.60 128.23 L 283.75 128.12 L 283.90 128.02 L 284.06 127.91 L 284.21 127.80 L 284.36 127.68 L 284.51 127.57 L 284.66 127.46 L 284.81 127.34 L 284.96 127.23 L 285.11 127.11 L 285.27 126.99 L 285.42 126.87 L 285.57 126.75 L 285.72 126.63 L 285.87 126.50 L 286.02 126.38 L 286.17 126.25 L 286.32 126.13 L 286.47 126.00 L 286.63 125.87 L 286.78 125.75 L 286.93 125.62 L 287.08 125.48 L 287.23 125.35 L 287.38 125.22 L 287.53 125.09 L 287.68 124.95 L 287.84 124.82 L 287.99 124.68 L 288.14 124.54 L 288.29 124.41 L 288.44 124.27 L 288.59 124.13 L 288.74 123.99 L 288.89 123.85 L 289.05 123.71 L 289.20 123.56 L 289.35 123.42 L 289.50 123.28 L 289.65 123.13 L 289.80 122.99 L 289.95 122.84 L 290.10 122.69 L 290.25 122.55 L 290.41 122.40 L 290.56 122.25 L 290.71 122.10 L 290.86 121.95 L 291.01 121.80 L 291.16 121.65 L 291.31 121.50 L 291.46 121.35 L 291.62 121.20 L 291.77 121.04 L 291.92 120.89 L 292.07 120.74 L 292.22 120.58 L 292.37 120.43 L 292.52 120.27 L 292.67 120.12 L 292.82 119.96 L 292.98 119.81 L 293.13 119.65 L 293.28 119.49 L 293.43 119.34 L 293.58 119.18 L 293.73 119.02 L 293.88 118.86 L 294.03 118.71 L 294.19 118.55 L 294.34 118.39 L 294.49 118.23 L 294.64 118.07 L 294.79 117.91 L 294.94 117.75 L 295.09 117.59 L 295.24 117.43 L 295.40 117.27 L 295.55 117.11 L 295.70 116.95 L 295.85 116.80 L 296.00 116.64" fill="none" stroke="#5F6B7A" stroke-width="2.5" stroke-linecap="round" stroke-linejoin="round"/>
</svg>
