<svg xmlns="http://www.w3.org/2000/svg" viewBox="0 0 320 180" width="320" height="180">
  <rect width="320" height="180" fill="#F4F5F7"/>
  <path d="M 24.00 125.49 L 24.19 124.12 L 24.39 122.80 L 24.58 121.53 L 24.78 120.31 L 24.97 119.13 L 25.17 118.00 L 25.36 116.90 L 25.56 115.84 L 25.75 114.81 L 25.94 113.82 L 26.14 112.85 L 26.33 111.92 L 26.53 111.01 L 26.72 110.12 L 26.92 109.26 L 27.11 108.42 L 27.31 107.60 L 27.50 106.80 L 27.69 106.03 L 27.89 105.27 L 28.08 104.52 L 28.28 103.80 L 28.47 103.09 L 28.67 102.39 L 28.86 101.72 L 29.06 101.05 L 29.25 100.40 L 29.44 99.76 L 29.64 99.13 L 29.83 98.52 L 30.03 97.92 L 30.22 97.33 L 30.42 96.74 L 30.61 96.17 L 30.80 95.61 L 31.00 95.06 L 31.19 94.52 L 31.39 93.99 L 31.58 93.47 L 31.78 92.95 L 31.97 92.45 L 32.17 91.95 L 32.36 91.46 L 32.55 90.97 L 32.75 90.50 L 32.94 90.03 L 33.14 89.56 L 33.33 89.11 L 33.53 88.66 L 33.72 88.22 L 33.92 87.78 L 34.11 87.35 L 34.30 86.92 L 34.50 86.50 L 34.69 86.09 L 34.89 85.68 L 35.08 85.28 L 35.28 84.88 L 35.47 84.49 L 35.67 84.10 L 35.86 83.72 L 36.05 83.34 L 36.25 82.96 L 36.44 82.59 L 36.64 82.23 L 36.83 81.86 L 37.03 81.51 L 37.22 81.15 L 37.42 80.81 L 37.61 80.46 L 37.80 80.12 L 38.00 79.78 L 38.19 79.45 L 38.39 79.12 L 38.58 78.79 L 38.78 78.46 L 38.97 78.14 L 39.17 77.83 L 39.36 77.51 L 39.55 77.20 L 39.75 76.90 L 39.94 76.59 L 40.14 76.29 L 40.33 75.99 L 40.53 75.69 L 40.72 75.40 L 40.91 75.11 L 41.11 74.82 L 41.30 74.54 L 41.50 74.26 L 41.69 73.98 L 41.89 73.70 L 42.08 73.43 L 42.28 73.15 L 42.47 72.89 L 42.66 72.62 L 42.86 72.35 L 43.05 72.09 L 43.25 71.83 L 43.44 71.57 L 43.64 71.32 L 43.83 71.06 L 44.03 70.81 L 44.22 70.56 L 44.41 70.31 L 44.61 70.07 L 44.80 69.83 L 45.00 69.58 L 45.19 69.34 L 45.39 69.11 L 45.58 68.87 L 45.78 68.64 L 45.97 68.41 L 46.16 68.18 L 46.36 67.95 L 46.55 67.72 L 46.75 67.50 L 46.94 67.27 L 47.14 67.05 L 47.33 66.83 L 47.53 66.61 L 47.72 66.40 L 47.91 66.18 L 48.11 65.97 L 48.30 65.75 L 48.50 65.54 L 48.69 65.34 L 48.89 65.13 L 49.08 64.92 L 49.28 64.72 L 49.47 64.51 L 49.66 64.31 L 49.86 64.11 L 50.05 63.91 L 50.25 63.72 L 50.44 63.52 L 50.64 63.33 L 50.83 63.13 L 51.03 62.94 L 51.22 62.75 L 51.41 62.56 L 51.61 62.37 L 51.80 62.18 L 52.00 62.00 L 52.19 61.81 L 52.39 61.63 L 52.58 61.45 L 52.77 61.27 L 52.97 61.09 L 53.16 60.91 L 53.36 60.73 L 53.55 60.55 L 53.75 60.38 L 53.94 60.20 L 54.14 60.03 L 54.33 59.86 L 54.52 59.69 L 54.72 59.52 L 54.91 59.35 L 55.11 59.18 L 55.30 59.01 L 55.50 58.85 L 55.69 58.68 L 55.89 58.52 L 56.08 58.35 L 56.27 58.19 L 56.47 58.03 L 56.66 57.87 L 56.86 57.71 L 57.05 57.55 L 57.25 57.40 L 57.44 57.24 L 57.64 57.08 L 57.83 56.93 L 58.02 56.78 L 58.22 56.62 L 58.41 56.47 L 58.61 56.32 L 58.80 56.17 L 59.00 56.02 L 59.19 55.87 L 59.39 55.72 L 59.58 55.58 L 59.77 55.43 L 59.97 55.29 L 60.16 55.14 L 60.36 55.00 L 60.55 54.85 L 60.75 54.71 L 60.94 54.57 L 61.14 54.43 L 61.33 54.29 L 61.52 54.15 L 61.72 54.01 L 61.91 53.87 L 62.11 53.74 L 62.30 53.60 L 62.50 53.47 L 62.69 53.33 L 62.88 53.20 L 63.08 53.06 L 63.27 52.93 L 63.47 52.80 L 63.66 52.67 L 63.86 52.54 L 64.05 52.41 L 64.25 52.28 L 64.44 52.15 L 64.63 52.02 L 64.83 51.90 L 65.02 51.77 L 65.22 51.64 L 65.41 51.52 L 65.61 51.39 L 65.80 51.27 L 66.00 51.15 L 66.19 51.02 L 66.38 50.90 L 66.58 50.78 L 66.77 50.66 L 66.97 50.54 L 67.16 50.42 L 67.36 50.30 L 67.55 50.18 L 67.75 50.06 L 67.94 49.95 L 68.13 49.83 L 68.33 49.71 L 68.52 49.60 L 68.72 49.48 L 68.91 49.37 L 69.11 49.25 L 69.30 49.14 L 69.50 49.03 L 69.69 48.91 L 69.88 48.80 L 70.08 48.69 L 70.27 48.58 L 70.47 48.47 L 70.66 48.36 L 70.86 48.25 L 71.05 48.14 L 71.25 48.03 L 71.44 47.93 L 71.63 47.82 L 71.83 47.71 L 72.02 47.61 L 72.22 47.50 L 72.41 47.40 L 72.61 47.29 L 72.80 47.19 L 72.99 47.08 L 73.19 46.98 L 73.38 46.88 L 73.58 46.78 L 73.77 46.67 L 73.97 46.57 L 74.16 46.47 L 74.36 46.37 L 74.55 46.27 L 74.74 46.17 L 74.94 46.07 L 75.13 45.98 L 75.33 45.88 L 75.52 45.78 L 75.72 45.68 L 75.91 45.59 L 76.11 45.49 L 76.30 45.39 L 76.49 45.30 L 76.69 45.20 L 76.88 45.11 L 77.08 45.02 L 77.27 44.92 L 77.47 44.83 L 77.66 44.74 L 77.86 44.64 L 78.05 44.55 L 78.24 44.46 L 78.44 44.37 L 78.63 44.28 L 78.83 44.19 L 79.02 44.10 L 79.22 44.01 L 79.41 43.92 L 79.61 43.83 L 79.80 43.74 L 79.99 43.65 L 80.19 43.57 L 80.38 43.48 L 80.58 43.39 L 80.77 43.31 L 80.97 43.22 L 81.16 43.13 L 81.36 43.05 L 81.55 42.96 L 81.74 42.88 L 81.94 42.80 L 82.13 42.71 L 82.33 42.63 L 82.52 42.55 L 82.72 42.46 L 82.91 42.38 L 83.11 42.30 L 83.30 42.22 L 83.49 42.14 L 83.69 42.06 L 83.88 41.97 L 84.08 41.89 L 84.27 41.81 L 84.47 41.74 L 84.66 41.66 L 84.85 41.58 L 85.05 41.50 L 85.24 41.42 L 85.44 41.34 L 85.63 41.27 L 85.83 41.19 L 86.02 41.11 L 86.22 41.04 L 86.41 40.96 L 86.60 40.88 L 86.80 40.81 L 86.99 40.73 L 87.19 40.66 L 87.38 40.58 L 87.58 40.51 L 87.77 40.44 L 87.97 40.36 L 88.16 40.29 L 88.35 40.22 L 88.55 40.14 L 88.74 40.07 L 88.94 40.00 L 89.13 39.93 L 89.33 39.86 L 89.52 39.79 L 89.72 39.72 L 89.91 39.65 L 90.10 39.58 L 90.30 39.51 L 90.49 39.44 L 90.69 39.37 L 90.88 39.30 L 91.08 39.23 L 91.27 39.16 L 91.47 39.09 L 91.66 39.03 L 91.85 38.96 L 92.05 38.89 L 92.24 38.83 L 92.44 38.76 L 92.63 38.69 L 92.83 38.63 L 93.02 38.56 L 93.22 38.50 L 93.41 38.43 L 93.60 38.37 L 93.80 38.30 L 93.99 38.24 L 94.19 38.17 L 94.38 38.11 L 94.58 38.05 L 94.77 37.98 L 94.96 37.92 L 95.16 37.86 L 95.35 37.80 L 95.55 37.73 L 95.74 37.67 L 95.94 37.61 L 96.13 37.55 L 96.33 37.49 L 96.52 37.43 L 96.71 37.37 L 96.91 37.31 L 97.10 37.25 L 97.30 37.19 L 97.49 37.13 L 97.69 37.07 L 97.88 37.01 L 98.08 36.95 L 98.27 36.89 L 98.46 36.84 L 98.66 36.78 L 98.85 36.72 L 99.05 36.66 L 99.24 36.61 L 99.44 36.55 L 99.63 36.49 L 99.83 36.44 L 100.02 36.38 L 100.21 36.33 L 100.41 36.27 L 100.60 36.22 L 100.80 36.16 L 100.99 36.11 L 101.19 36.05 L 101.38 36.00 L 101.58 35.94 L 101.77 35.89 L 101.96 35.84 L 102.16 35.78 L 102.35 35.73 L 102.55 35.68 L 102.74 35.62 L 102.94 35.57 L 103.13 35.52 L 103.33 35.47 L 103.52 35.42 L 103.71 35.36 L 103.91 35.31 L 104.10 35.26 L 104.30 35.21 L 104.49 35.16 L 104.69 35.11 L 104.88 35.06 L 105.08 35.01 L 105.27 34.96 L 105.46 34.91 L 105.66 34.86 L 105.85 34.81 L 106.05 34.77 L 106.24 34.72 L 106.44 34.67 L 106.63 34.62 L 106.82 34.57 L 107.02 34.53 L 107.21 34.48 L 107.41 34.43 L 107.60 34.39 L 107.80 34.34 L 107.99 34.29 L 108.19 34.25 L 108.38 34.20 L 108.57 34.15 L 108.77 34.11 L 108.96 34.06 L 109.16 34.02 L 109.35 33.97 L 109.55 33.93 L 109.74 33.88 L 109.94 33.84 L 110.13 33.80 L 110.32 33.75 L 110.52 33.71 L 110.71 33.67 L 110.91 33.62 L 111.10 33.58 L 111.30 33.54 L 111.49 33.49 L 111.69 33.45 L 111.88 33.41 L 112.07 33.37 L 112.27 33.33 L 112.46 33.28 L 112.66 33.24 L 112.85 33.20 L 113.05 33.16 L 113.24 33.12 L 113.44 33.08 L 113.63 33.04 L 113.82 33.00 L 114.02 32.96 L 114.21 32.92 L 114.41 32.88 L 114.60 32.84 L 114.80 32.80 L 114.99 32.76 L 115.19 32.72 L 115.38 32.69 L 115.57 32.65 L 115.77 32.61 L 115.96 32.57 L 116.16 32.53 L 116.35 32.50 L 116.55 32.46 L 116.74 32.42 L 116.93 32.39 L 117.13 32.35 L 117.32 32.31 L 117.52 32.28 L 117.71 32.24 L 117.91 32.20 L 118.10 32.17 L 118.30 32.13 L 118.49 32.10 L 118.68 32.06 L 118.88 32.03 L 119.07 31.99 L 119.27 31.96 L 119.46 31.92 L 119.66 31.89 L 119.85 31.86 L 120.05 31.82 L 120.24 31.79 L 120.43 31.75 L 120.63 31.72 L 120.82 31.69 L 121.02 31.66 L 121.21 31.62 L 121.41 31.59 L 121.60 31.56 L 121.80 31.53 L 121.99 31.49 L 122.18 31.46 L 122.38 31.43 L 122.57 31.40 L 122.77 31.37 L 122.96 31.34 L 123.16 31.31 L 123.35 31.28 L 123.55 31.24 L 123.74 31.21 L 123.93 31.18 L 124.13 31.15 L 124.32 31.12 L 124.52 31.09 L 124.71 31.07 L 124.91 31.04 L 125.10 31.01 L 125.30 30.98 L 125.49 30.95 L 125.68 30.92 L 125.88 30.89 L 126.07 30.86 L 126.27 30.84 L 126.46 30.81 L 126.66 30.78 L 126.85 30.75 L 127.05 30.73 L 127.24 30.70 L 127.43 30.67 L 127.63 30.65 L 127.82 30.62 L 128.02 30.59 L 128.21 30.57 L 128.41 30.54 L 128.60 30.51 L 128.79 30.49 L 128.99 30.46 L 129.18 30.44 L 129.38 30.41 L 129.57 30.39 L 129.77 30.36 L 129.96 30.34 L 130.16 30.31 L 130.35 30.29 L 130.54 30.27 L 130.74 30.24 L 130.93 30.22 L 131.13 30.19 L 131.32 30.17 L 131.52 30.15 L 131.71 30.12 L 131.91 30.10 L 132.10 30.08 L 132.29 30.06 L 132.49 30.03 L 132.68 30.01 L 132.88 29.99 L 133.07 29.97 L 133.27 29.95 L 133.46 29.92 L 133.66 29.90 L 133.85 29.88 L 134.04 29.86 L 134.24 29.84 L 134.43 29.82 L 134.63 29.80 L 134.82 29.78 L 135.02 29.76 L 135.21 29.74 L 135.41 29.72 L 135.60 29.70 L 135.79 29.68 L 135.99 29.66 L 136.18 29.64 L 136.38 29.62 L 136.57 29.60 L 136.77 29.58 L 136.96 29.56 L 137.16 29.54 L 137.35 29.53 L 137.54 29.51 L 137.74 29.49 L 137.93 29.47 L 138.13 29.45 L 138.32 29.44 L 138.52 29.42 L 138.71 29.40 L 138.90 29.39 L 139.10 29.37 L 139.29 29.35 L 139.49 29.34 L 139.68 29.32 L 139.88 29.30 L 140.07 29.29 L 140.27 29.27 L 140.46 29.26 L 140.65 29.24 L 140.85 29.22 L 141.04 29.21 L 141.24 29.19 L 141.43 29.18 L 141.63 29.16 L 141.82 29.15 L 142.02 29.14 L 142.21 29.12 L 142.40 29.11 L 142.60 29.09 L 142.79 29.08 L 142.99 29.07 L 143.18 29.05 L 143.38 29.04 L 143.57 29.03 L 143.77 29.01 L 143.96 29.00 L 144.15 28.99 L 144.35 28.97 L 144.54 28.96 L 144.74 28.95 L 144.93 28.94 L 145.13 28.93 L 145.32 28.91 L 145.52 28.90 L 145.71 28.89 L 145.90 28.88 L 146.10 28.87 L 146.29 28.86 L 146.49 28.85 L 146.68 28.84 L 146.88 28.83 L 147.07 28.82 L 147.27 28.81 L 147.46 28.80 L 147.65 28.79 L 147.85 28.78 L 148.04 28.77 L 148.24 28.76 L 148.43 28.75 L 148.63 28.74 L 148.82 28.73 L 149.02 28.72 L 149.21 28.71 L 149.40 28.70 L 149.60 28.70 L 149.79 28.69 L 149.99 28.68 L 150.18 28.67 L 150.38 28.66 L 150.57 28.66 L 150.76 28.65 L 150.96 28.64 L 151.15 28.63 L 151.35 28.63 L 151.54 28.62 L 151.74 28.61 L 151.93 28.61 L 152.13 28.60 L 152.32 28.60 L 152.51 28.59 L 152.71 28.58 L 152.90 28.58 L 153.10 28.57 L 153.29 28.57 L 153.49 28.56 L 153.68 28.56 L 153.88 28.55 L 154.07 28.55 L 154.26 28.54 L 154.46 28.54 L 154.65 28.53 L 154.85 28.53 L 155.04 28.53 L 155.24 28.52 L 155.43 28.52 L 155.63 28.51 L 155.82 28.51 L 156.01 28.51 L 156.21 28.51 L 156.40 28.50 L 156.60 28.50 L 156.79 28.50 L 156.99 28.49 L 157.18 28.49 L 157.38 28.49 L 157.57 28.49 L 157.76 28.49 L 157.96 28.48 L 158.15 28.48 L 158.35 28.48 L 158.54 28.48 L 158.74 28.48 L 158.93 28.48 L 159.13 28.48 L 159.32 28.48 L 159.51 28.48 L 159.71 28.48 L 159.90 28.48 L 160.10 28.48 L 160.29 28.48 L 160.49 28.48 L 160.68 28.48 L 160.87 28.48 L 161.07 28.48 L 161.26 28.48 L 161.46 28.48 L 161.65 28.48 L 161.85 28.48 L 162.04 28.48 L 162.24 28.49 L 162.43 28.49 L 162.62 28.49 L 162.82 28.49 L 163.01 28.49 L 163.21 28.50 L 163.40 28.50 L 163.60 28.50 L 163.79 28.51 L 163.99 28.51 L 164.18 28.51 L 164.37 28.51 L 164.57 28.52 L 164.76 28.52 L 164.96 28.53 L 165.15 28.53 L 165.35 28.53 L 165.54 28.54 L 165.74 28.54 L 165.93 28.55 L 166.12 28.55 L 166.32 28.56 L 166.51 28.56 L 166.71 28.57 L 166.90 28.57 L 167.10 28.58 L 167.29 28.58 L 167.49 28.59 L 167.68 28.60 L 167.87 28.60 L 168.07 28.61 L 168.26 28.61 L 168.46 28.62 L 168.65 28.63 L 168.85 28.63 L 169.04 28.64 L 169.24 28.65 L 169.43 28.66 L 169.62 28.66 L 169.82 28.67 L 170.01 28.68 L 170.21 28.69 L 170.40 28.70 L 170.60 28.70 L 170.79 28.71 L 170.98 28.72 L 171.18 28.73 L 171.37 28.74 L 171.57 28.75 L 171.76 28.76 L 171.96 28.77 L 172.15 28.78 L 172.35 28.79 L 172.54 28.80 L 172.73 28.81 L 172.93 28.82 L 173.12 28.83 L 173.32 28.84 L 173.51 28.85 L 173.71 28.86 L 173.90 28.87 L 174.10 28.88 L 174.29 28.89 L 174.48 28.90 L 174.68 28.91 L 174.87 28.93 L 175.07 28.94 L 175.26 28.95 L 175.46 28.96 L 175.65 28.97 L 175.85 28.99 L 176.04 29.00 L 176.23 29.01 L 176.43 29.03 L 176.62 29.04 L 176.82 29.05 L 177.01 29.07 L 177.21 29.08 L 177.40 29.09 L 177.60 29.11 L 177.79 29.12 L 177.98 29.14 L 178.18 29.15 L 178.37 29.16 L 178.57 29.18 L 178.76 29.19 L 178.96 29.21 L 179.15 29.22 L 179.35 29.24 L 179.54 29.26 L 179.73 29.27 L 179.93 29.29 L 180.12 29.30 L 180.32 29.32 L 180.51 29.34 L 180.71 29.35 L 180.90 29.37 L 181.10 29.39 L 181.29 29.40 L 181.48 29.42 L 181.68 29.44 L 181.87 29.45 L 182.07 29.47 L 182.26 29.49 L 182.46 29.51 L 182.65 29.53 L 182.84 29.54 L 183.04 29.56 L 183.23 29.58 L 183.43 29.60 L 183.62 29.62 L 183.82 29.64 L 184.01 29.66 L 184.21 29.68 L 184.40 29.70 L 184.59 29.72 L 184.79 29.74 L 184.98 29.76 L 185.18 29.78 L 185.37 29.80 L 185.57 29.82 L 185.76 29.84 L 185.96 29.86 L 186.15 29.88 L 186.34 29.90 L 186.54 29.92 L 186.73 29.95 L 186.93 29.97 L 187.12 29.99 L 187.32 30.01 L 187.51 30.03 L 187.71 30.06 L 187.90 30.08 L 188.09 30.10 L 188.29 30.12 L 188.48 30.15 L 188.68 30.17 L 188.87 30.19 L 189.07 30.22 L 189.26 30.24 L 189.46 30.27 L 189.65 30.29 L 189.84 30.31 L 190.04 30.34 L 190.23 30.36 L 190.43 30.39 L 190.62 30.41 L 190.82 30.44 L 191.01 30.46 L 191.21 30.49 L 191.40 30.51 L 191.59 30.54 L 191.79 30.57 L 191.98 30.59 L 192.18 30.62 L 192.37 30.65 L 192.57 30.67 L 192.76 30.70 L 192.95 30.73 L 193.15 30.75 L 193.34 30.78 L 193.54 30.81 L 193.73 30.84 L 193.93 30.86 L 194.12 30.89 L 194.32 30.92 L 194.51 30.95 L 194.70 30.98 L 194.90 31.01 L 195.09 31.04 L 195.29 31.07 L 195.48 31.09 L 195.68 31.12 L 195.87 31.15 L 196.07 31.18 L 196.26 31.21 L 196.45 31.24 L 196.65 31.28 L 196.84 31.31 L 197.04 31.34 L 197.23 31.37 L 197.43 31.40 L 197.62 31.43 L 197.82 31.46 L 198.01 31.49 L 198.20 31.53 L 198.40 31.56 L 198.59 31.59 L 198.79 31.62 L 198.98 31.66 L 199.18 31.69 L 199.37 31.72 L 199.57 31.75 L 199.76 31.79 L 199.95 31.82 L 200.15 31.86 L 200.34 31.89 L 200.54 31.92 L 200.73 31.96 L 200.93 31.99 L 201.12 32.03 L 201.32 32.06 L 201.51 32.10 L 201.70 32.13 L 201.90 32.17 L 202.09 32.20 L 202.29 32.24 L 202.48 32.28 L 202.68 32.31 L 202.87 32.35 L 203.07 32.39 L 203.26 32.42 L 203.45 32.46 L 203.65 32.50 L 203.84 32.53 L 204.04 32.57 L 204.23 32.61 L 204.43 32.65 L 204.62 32.69 L 204.81 32.72 L 205.01 32.76 L 205.20 32.80 L 205.40 32.84 L 205.59 32.88 L 205.79 32.92 L 205.98 32.96 L 206.18 33.00 L 206.37 33.04 L 206.56 33.08 L 206.76 33.12 L 206.95 33.16 L 207.15 33.20 L 207.34 33.24 L 207.54 33.28 L 207.73 33.33 L 207.93 33.37 L 208.12 33.41 L 208.31 33.45 L 208.51 33.49 L 208.70 33.54 L 208.90 33.58 L 209.09 33.62 L 209.29 33.67 L 209.48 33.71 L 209.68 33.75 L 209.87 33.80 L 210.06 33.84 L 210.26 33.88 L 210.45 33.93 L 210.65 33.97 L 210.84 34.02 L 211.04 34.06 L 211.23 34.11 L 211.43 34.15 L 211.62 34.20 L 211.81 34.25 L 212.01 34.29 L 212.20 34.34 L 212.40 34.39 L 212.59 34.43 L 212.79 34.48 L 212.98 34.53 L 213.18 34.57 L 213.37 34.62 L 213.56 34.67 L 213.76 34.72 L 213.95 34.77 L 214.15 34.81 L 214.34 34.86 L 214.54 34.91 L 214.73 34.96 L 214.92 35.01 L 215.12 35.06 L 215.31 35.11 L 215.51 35.16 L 215.70 35.21 L 215.90 35.26 L 216.09 35.31 L 216.29 35.36 L 216.48 35.42 L 216.67 35.47 L 216.87 35.52 L 217.06 35.57 L 217.26 35.62 L 217.45 35.68 L 217.65 35.73 L 217.84 35.78 L 218.04 35.84 L 218.23 35.89 L 218.42 35.94 L 218.62 36.00 L 218.81 36.05 L 219.01 36.11 L 219.20 36.16 L 219.40 36.22 L 219.59 36.27 L 219.79 36.33 L 219.98 36.38 L 220.17 36.44 L 220.37 36.49 L 220.56 36.55 L 220.76 36.61 L 220.95 36.66 L 221.15 36.72 L 221.34 36.78 L 221.54 36.84 L 221.73 36.89 L 221.92 36.95 L 222.12 37.01 L 222.31 37.07 L 222.51 37.13 L 222.70 37.19 L 222.90 37.25 L 223.09 37.31 L 223.29 37.37 L 223.48 37.43 L 223.67 37.49 L 223.87 37.55 L 224.06 37.61 L 224.26 37.67 L 224.45 37.73 L 224.65 37.80 L 224.84 37.86 L 225.04 37.92 L 225.23 37.98 L 225.42 38.05 L 225.62 38.11 L 225.81 38.17 L 226.01 38.24 L 226.20 38.30 L 226.40 38.37 L 226.59 38.43 L 226.78 38.50 L 226.98 38.56 L 227.17 38.63 L 227.37 38.69 L 227.56 38.76 L 227.76 38.83 L 227.95 38.89 L 228.15 38.96 L 228.34 39.03 L 228.53 39.09 L 228.73 39.16 L 228.92 39.23 L 229.12 39.30 L 229.31 39.37 L 229.51 39.44 L 229.70 39.51 L 229.90 39.58 L 230.09 39.65 L 230.28 39.72 L 230.48 39.79 L 230.67 39.86 L 230.87 39.93 L 231.06 40.00 L 231.26 40.07 L 231.45 40.14 L 231.65 40.22 L 231.84 40.29 L 232.03 40.36 L 232.23 40.44 L 232.42 40.51 L 232.62 40.58 L 232.81 40.66 L 233.01 40.73 L 233.20 40.81 L 233.40 40.88 L 233.59 40.96 L 233.78 41.04 L 233.98 41.11 L 234.17 41.19 L 234.37 41.27 L 234.56 41.34 L 234.76 41.42 L 234.95 41.50 L 235.15 41.58 L 235.34 41.66 L 235.53 41.74 L 235.73 41.81 L 235.92 41.89 L 236.12 41.97 L 236.31 42.06 L 236.51 42.14 L 236.70 42.22 L 236.89 42.30 L 237.09 42.38 L 237.28 42.46 L 237.48 42.55 L 237.67 42.63 L 237.87 42.71 L 238.06 42.80 L 238.26 42.88 L 238.45 42.96 L 238.64 43.05 L 238.84 43.13 L 239.03 43.22 L 239.23 43.31 L 239.42 43.39 L 239.62 43.48 L 239.81 43.57 L 240.01 43.65 L 240.20 43.74 L 240.39 43.83 L 240.59 43.92 L 240.78 44.01 L 240.98 44.10 L 241.17 44.19 L 241.37 44.28 L 241.56 44.37 L 241.76 44.46 L 241.95 44.55 L 242.14 44.64 L 242.34 44.74 L 242.53 44.83 L 242.73 44.92 L 242.92 45.02 L 243.12 45.11 L 243.31 45.20 L 243.51 45.30 L 243.70 45.39 L 243.89 45.49 L 244.09 45.59 L 244.28 45.68 L 244.48 45.78 L 244.67 45.88 L 244.87 45.98 L 245.06 46.07 L 245.26 46.17 L 245.45 46.27 L 245.64 46.37 L 245.84 46.47 L 246.03 46.57 L 246.23 46.67 L 246.42 46.78 L 246.62 46.88 L 246.81 46.98 L 247.01 47.08 L 247.20 47.19 L 247.39 47.29 L 247.59 47.40 L 247.78 47.50 L 247.98 47.61 L 248.17 47.71 L 248.37 47.82 L 248.56 47.93 L 248.75 48.03 L 248.95 48.14 L 249.14 48.25 L 249.34 48.36 L 249.53 48.47 L 249.73 48.58 L 249.92 48.69 L 250.12 48.80 L 250.31 48.91 L 250.50 49.03 L 250.70 49.14 L 250.89 49.25 L 251.09 49.37 L 251.28 49.48 L 251.48 49.60 L 251.67 49.71 L 251.87 49.83 L 252.06 49.95 L 252.25 50.06 L 252.45 50.18 L 252.64 50.30 L 252.84 50.42 L 253.03 50.54 L 253.23 50.66 L 253.42 50.78 L 253.62 50.90 L 253.81 51.02 L 254.00 51.15 L 254.20 51.27 L 254.39 51.39 L 254.59 51.52 L 254.78 51.64 L 254.98 51.77 L 255.17 51.90 L 255.37 52.02 L 255.56 52.15 L 255.75 52.28 L 255.95 52.41 L 256.14 52.54 L 256.34 52.67 L 256.53 52.80 L 256.73 52.93 L 256.92 53.06 L 257.12 53.20 L 257.31 53.33 L 257.50 53.47 L 257.70 53.60 L 257.89 53.74 L 258.09 53.87 L 258.28 54.01 L 258.48 54.15 L 258.67 54.29 L 258.86 54.43 L 259.06 54.57 L 259.25 54.71 L 259.45 54.85 L 259.64 55.00 L 259.84 55.14 L 260.03 55.29 L 260.23 55.43 L 260.42 55.58 L 260.61 55.72 L 260.81 55.87 L 261.00 56.02 L 261.20 56.17 L 261.39 56.32 L 261.59 56.47 L 261.78 56.62 L 261.98 56.78 L 262.17 56.93 L 262.36 57.08 L 262.56 57.24 L 262.75 57.40 L 262.95 57.55 L 263.14 57.71 L 263.34 57.87 L 263.53 58.03 L 263.73 58.19 L 263.92 58.35 L 264.11 58.52 L 264.31 58.68 L 264.50 58.85 L 264.70 59.01 L 264.89 59.18 L 265.09 59.35 L 265.28 59.52 L 265.48 59.69 L 265.67 59.86 L 265.86 60.03 L 266.06 60.20 L 266.25 60.38 L 266.45 60.55 L 266.64 60.73 L 266.84 60.91 L 267.03 61.09 L 267.23 61.27 L 267.42 61.45 L 267.61 61.63 L 267.81 61.81 L 268.00 62.00 L 268.20 62.18 L 268.39 62.37 L 268.59 62.56 L 268.78 62.75 L 268.97 62.94 L 269.17 63.13 L 269.36 63.33 L 269.56 63.52 L 269.75 63.72 L 269.95 63.91 L 270.14 64.11 L 270.34 64.31 L 270.53 64.51 L 270.72 64.72 L 270.92 64.92 L 271.11 65.13 L 271.31 65.34 L 271.50 65.54 L 271.70 65.75 L 271.89 65.97 L 272.09 66.18 L 272.28 66.40 L 272.47 66.61 L 272.67 66.83 L 272.86 67.05 L 273.06 67.27 L 273.25 67.50 L 273.45 67.72 L 273.64 67.95 L 273.84 68.18 L 274.03 68.41 L 274.22 68.64 L 274.42 68.87 L 274.61 69.11 L 274.81 69.34 L 275.00 69.58 L 275.20 69.83 L 275.39 70.07 L 275.59 70.31 L 275.78 70.56 L 275.97 70.81 L 276.17 71.06 L 276.36 71.32 L 276.56 71.57 L 276.75 71.83 L 276.95 72.09 L 277.14 72.35 L 277.34 72.62 L 277.53 72.89 L 277.72 73.15 L 277.92 73.43 L 278.11 73.70 L 278.31 73.98 L 278.50 74.26 L 278.70 74.54 L 278.89 74.82 L 279.09 75.11 L 279.28 75.40 L 279.47 75.69 L 279.67 75.99 L 279.86 76.29 L 280.06 76.59 L 280.25 76.90 L 280.45 77.20 L 280.64 77.51 L 280.83 77.83 L 281.03 78.14 L 281.22 78.46 L 281.42 78.79 L 281.61 79.12 L 281.81 79.45 L 282.00 79.78 L 282.20 80.12 L 282.39 80.46 L 282.58 80.81 L 282.78 81.15 L 282.97 81.51 L 283.17 81.86 L 283.36 82.23 L 283.56 82.59 L 283.75 82.96 L 283.95 83.34 L 284.14 83.72 L 284.33 84.10 L 284.53 84.49 L 284.72 84.88 L 284.92 85.28 L 285.11 85.68 L 285.31 86.09 L 285.50 86.50 L 285.70 86.92 L 285.89 87.35 L 286.08 87.78 L 286.28 88.22 L 286.47 88.66 L 286.67 89.11 L 286.86 89.56 L 287.06 90.03 L 287.25 90.50 L 287.45 90.97 L 287.64 91.46 L 287.83 91.95 L 288.03 92.45 L 288.22 92.95 L 288.42 93.47 L 288.61 93.99 L 288.81 94.52 L 289.00 95.06 L 289.20 95.61 L 289.39 96.17 L 289.58 96.74 L 289.78 97.33 L 289.97 97.92 L 290.17 98.52 L 290.36 99.13 L 290.56 99.76 L 290.75 100.40 L 290.94 101.05 L 291.14 101.72 L 291.33 102.39 L 291.53 103.09 L 291.72 103.80 L 291.92 104.52 L 292.11 105.27 L 292.31 106.03 L 292.50 106.80 L 292.69 107.60 L 292.89 108.42 L 293.08 109.26 L 293.28 110.12 L 293.47 111.01 L 293.67 111.92 L 293.86 112.85 L 294.06 113.82 L 294.25 114.81 L 294.44 115.84 L 294.64 116.90 L 294.83 118.00 L 295.03 119.13 L 295.22 120.31 L 295.42 121.53 L 295.61 122.80 L 295.81 124.12 L 296.00 125.49" fill="none" stroke="#7E8692" stroke-width="2.3" stroke-linecap="round" stroke-linejoin="round"/>
</svg>
