<svg xmlns="http://www.w3.org/2000/svg" viewBox="0 0 320 180" width="320" height="180">
  <rect width="320" height="180" fill="#F4F5F7"/>
  <path d="M 18.00 141.43 L 18.32 141.43 L 18.63 141.43 L 18.95 141.43 L 19.26 141.43 L 19.58 141.43 L 19.90 141.43 L 20.21 141.43 L 20.53 141.43 L 20.84 141.43 L 21.16 141.43 L 21.47 141.43 L 21.79 141.43 L 22.11 141.43 L 22.42 141.43 L 22.74 141.43 L 23.05 141.43 L 23.37 141.43 L 23.69 141.43 L 24.00 141.43 L 24.32 141.43 L 24.63 141.43 L 24.95 141.43 L 25.27 141.43 L 25.58 141.43 L 25.90 141.43 L 26.21 141.43 L 26.53 141.43 L 26.85 141.43 L 27.16 141.43 L 27.48 141.43 L 27.79 141.43 L 28.11 141.43 L 28.42 141.43 L 28.74 141.43 L 29.06 141.43 L 29.37 141.43 L 29.69 141.43 L 30.00 141.43 L 30.32 141.43 L 30.64 141.43 L 30.95 141.43 L 31.27 141.43 L 31.58 141.43 L 31.90 141.43 L 32.22 141.43 L 32.53 141.43 L 32.85 141.43 L 33.16 141.43 L 33.48 141.43 L 33.80 141.43 L 34.11 141.43 L 34.43 141.43 L 34.74 141.43 L 35.06 141.43 L 35.37 141.43 L 35.69 141.43 L 36.01 141.43 L 36.32 141.43 L 36.64 141.43 L 36.95 141.43 L 37.27 141.43 L 37.59 141.43 L 37.90 141.43 L 38.22 141.43 L 38.53 141.43 L 38.85 141.43 L 39.17 141.43 L 39.48 141.43 L 39.80 141.43 L 40.11 141.43 L 40.43 141.43 L 40.75 141.43 L 41.06 141.43 L 41.38 141.43 L 41.69 141.43 L 42.01 141.43 L 42.32 141.43 L 42.64 141.43 L 42.96 141.43 L 43.27 141.43 L 43.59 141.43 L 43.90 141.43 L 44.22 141.43 L 44.54 141.43 L 44.85 141.43 L 45.17 141.43 L 45.48 141.43 L 45.80 141.43 L 46.12 141.43 L 46.43 141.43 L 46.75 141.43 L 47.06 141.43 L 47.38 141.43 L 47.70 141.43 L 48.01 141.43 L 48.33 141.43 L 48.64 141.43 L 48.96 141.43 L 49.27 141.43 L 49.59 141.43 L 49.91 141.43 L 50.22 141.43 L 50.54 141.43 L 50.85 141.43 L 51.17 141.43 L 51.49 141.43 L 51.80 141.43 L 52.12 141.43 L 52.43 141.43 L 52.75 141.43 L 53.07 141.43 L 53.38 141.43 L 53.70 141.43 L 54.01 141.43 L 54.33 141.43 L 54.65 141.43 L 54.96 141.43 L 55.28 141.43 L 55.59 141.43 L 55.91 141.43 L 56.22 141.43 L 56.54 141.43 L 56.86 141.43 L 57.17 141.43 L 57.49 141.43 L 57.80 141.43 L 58.12 141.43 L 58.44 141.43 L 58.75 141.43 L 59.07 141.43 L 59.38 141.43 L 59.70 141.43 L 60.02 141.43 L 60.33 141.43 L 60.65 141.43 L 60.96 141.43 L 61.28 141.43 L 61.60 141.43 L 61.91 141.43 L 62.23 141.43 L 62.54 141.43 L 62.86 141.43 L 63.17 141.43 L 63.49 141.43 L 63.81 141.43 L 64.12 141.43 L 64.44 141.43 L 64.75 141.43 L 65.07 141.43 L 65.39 141.43 L 65.70 141.43 L 66.02 141.43 L 66.33 141.43 L 66.65 141.43 L 66.97 141.43 L 67.28 141.43 L 67.60 141.43 L 67.91 141.43 L 68.23 141.43 L 68.55 141.43 L 68.86 141.43 L 69.18 141.43 L 69.49 141.43 L 69.81 141.43 L 70.12 141.43 L 70.44 141.43 L 70.76 141.43 L 71.07 141.43 L 71.39 141.43 L 71.70 141.43 L 72.02 141.43 L 72.34 141.43 L 72.65 141.43 L 72.97 141.43 L 73.28 141.43 L 73.60 141.43 L 73.92 141.43 L 74.23 141.43 L 74.55 141.43 L 74.86 141.43 L 75.18 141.43 L 75.49 141.43 L 75.81 141.43 L 76.13 141.43 L 76.44 141.43 L 76.76 141.43 L 77.07 141.43 L 77.39 141.43 L 77.71 141.43 L 78.02 141.43 L 78.34 141.43 L 78.65 141.43 L 78.97 141.43 L 79.29 141.43 L 79.60 141.43 L 79.92 141.43 L 80.23 141.43 L 80.55 141.43 L 80.87 141.43 L 81.18 141.43 L 81.50 141.43 L 81.81 141.43 L 82.13 141.43 L 82.44 141.43 L 82.76 141.43 L 83.08 141.43 L 83.39 141.43 L 83.71 141.43 L 84.02 141.43 L 84.34 141.43 L 84.66 141.43 L 84.97 141.43 L 85.29 141.43" fill="none" stroke="#7E8692" stroke-width="2.3" stroke-linecap="round" stroke-linejoin="round"/>
  <path d="M 92.55 136.28 L 92.87 135.82 L 93.19 135.36 L 93.50 134.91 L 93.82 134.45 L 94.13 133.99 L 94.45 133.53 L 94.77 133.08 L 95.08 132.62 L 95.40 132.16 L 95.71 131.70 L 96.03 131.25 L 96.34 130.79 L 96.66 130.33 L 96.98 129.87 L 97.29 129.42 L 97.61 128.96 L 97.92 128.50 L 98.24 128.04 L 98.56 127.58 L 98.87 127.13 L 99.19 126.67 L 99.50 126.21 L 99.82 125.75 L 100.14 125.30 L 100.45 124.84 L 100.77 124.38 L 101.08 123.92 L 101.40 123.47 L 101.72 123.01 L 102.03 122.55 L 102.35 122.09 L 102.66 121.64 L 102.98 121.18 L 103.29 120.72 L 103.61 120.26 L 103.93 119.80 L 104.24 119.35 L 104.56 118.89 L 104.87 118.43 L 105.19 117.97 L 105.51 117.52 L 105.82 117.06 L 106.14 116.60 L 106.45 116.14 L 106.77 115.69 L 107.09 115.23 L 107.40 114.77 L 107.72 114.31 L 108.03 113.86 L 108.35 113.40 L 108.67 112.94 L 108.98 112.48 L 109.30 112.02 L 109.61 111.57 L 109.93 111.11 L 110.24 110.65 L 110.56 110.19 L 110.88 109.74 L 111.19 109.28 L 111.51 108.82 L 111.82 108.36 L 112.14 107.91 L 112.46 107.45 L 112.77 106.99 L 113.09 106.53 L 113.40 106.08 L 113.72 105.62 L 114.04 105.16 L 114.35 104.70 L 114.67 104.24 L 114.98 103.79 L 115.30 103.33 L 115.62 102.87 L 115.93 102.41 L 116.25 101.96 L 116.56 101.50 L 116.88 101.04 L 117.19 100.58 L 117.51 100.13 L 117.83 99.67 L 118.14 99.21 L 118.46 98.75 L 118.77 98.29 L 119.09 97.84 L 119.41 97.38 L 119.72 96.92 L 120.04 96.46 L 120.35 96.01 L 120.67 95.55 L 120.99 95.09 L 121.30 94.63 L 121.62 94.18 L 121.93 93.72 L 122.25 93.26 L 122.57 92.80 L 122.88 92.35 L 123.20 91.89 L 123.51 91.43 L 123.83 90.97 L 124.14 90.51 L 124.46 90.06 L 124.78 89.60 L 125.09 89.14 L 125.41 88.68 L 125.72 88.23 L 126.04 87.77 L 126.36 87.31 L 126.67 86.85 L 126.99 86.40 L 127.30 85.94 L 127.62 85.48 L 127.94 85.02 L 128.25 84.57 L 128.57 84.11 L 128.88 83.65 L 129.20 83.19 L 129.52 82.73 L 129.83 82.28 L 130.15 81.82 L 130.46 81.36 L 130.78 80.90 L 131.09 80.45 L 131.41 79.99 L 131.73 79.53 L 132.04 79.07 L 132.36 78.62 L 132.67 78.16 L 132.99 77.70 L 133.31 77.24 L 133.62 76.79 L 133.94 76.33 L 134.25 75.87 L 134.57 75.41 L 134.89 74.95 L 135.20 74.50 L 135.52 74.04 L 135.83 73.58 L 136.15 73.12 L 136.46 72.67 L 136.78 72.21 L 137.10 71.75 L 137.41 71.29 L 137.73 70.84 L 138.04 70.38 L 138.36 69.92 L 138.68 69.46 L 138.99 69.01 L 139.31 68.55 L 139.62 68.09 L 139.94 67.63 L 140.26 67.17 L 140.57 66.72 L 140.89 66.26 L 141.20 65.80 L 141.52 65.34 L 141.84 64.89 L 142.15 64.43 L 142.47 63.97 L 142.78 63.51 L 143.10 63.06 L 143.41 62.60 L 143.73 62.14 L 144.05 61.68 L 144.36 61.23 L 144.68 60.77 L 144.99 60.31 L 145.31 59.85 L 145.63 59.39 L 145.94 58.94 L 146.26 58.48 L 146.57 58.02 L 146.89 57.56 L 147.21 57.11 L 147.52 56.65 L 147.84 56.19 L 148.15 55.73 L 148.47 55.28 L 148.79 54.82 L 149.10 54.36 L 149.42 53.90 L 149.73 53.45 L 150.05 52.99 L 150.36 52.53 L 150.68 52.07 L 151.00 51.61 L 151.31 51.16 L 151.63 50.70 L 151.94 50.24 L 152.26 49.78 L 152.58 49.33 L 152.89 48.87 L 153.21 48.41 L 153.52 47.95 L 153.84 47.50 L 154.16 47.04 L 154.47 46.58 L 154.79 46.12 L 155.10 45.67 L 155.42 45.21 L 155.74 44.75 L 156.05 44.29 L 156.37 43.83 L 156.68 43.38 L 157.00 42.92 L 157.31 42.46 L 157.63 42.00 L 157.95 41.55 L 158.26 41.09 L 158.58 40.63 L 158.89 40.17 L 159.21 39.72 L 159.53 39.26 L 159.84 38.80 L 160.16 38.80 L 160.47 39.26 L 160.79 39.72 L 161.11 40.17 L 161.42 40.63 L 161.74 41.09 L 162.05 41.55 L 162.37 42.00 L 162.69 42.46 L 163.00 42.92 L 163.32 43.38 L 163.63 43.83 L 163.95 44.29 L 164.26 44.75 L 164.58 45.21 L 164.90 45.67 L 165.21 46.12 L 165.53 46.58 L 165.84 47.04 L 166.16 47.50 L 166.48 47.95 L 166.79 48.41 L 167.11 48.87 L 167.42 49.33 L 167.74 49.78 L 168.06 50.24 L 168.37 50.70 L 168.69 51.16 L 169.00 51.61 L 169.32 52.07 L 169.64 52.53 L 169.95 52.99 L 170.27 53.45 L 170.58 53.90 L 170.90 54.36 L 171.21 54.82 L 171.53 55.28 L 171.85 55.73 L 172.16 56.19 L 172.48 56.65 L 172.79 57.11 L 173.11 57.56 L 173.43 58.02 L 173.74 58.48 L 174.06 58.94 L 174.37 59.39 L 174.69 59.85 L 175.01 60.31 L 175.32 60.77 L 175.64 61.23 L 175.95 61.68 L 176.27 62.14 L 176.59 62.60 L 176.90 63.06 L 177.22 63.51 L 177.53 63.97 L 177.85 64.43 L 178.16 64.89 L 178.48 65.34 L 178.80 65.80 L 179.11 66.26 L 179.43 66.72 L 179.74 67.17 L 180.06 67.63 L 180.38 68.09 L 180.69 68.55 L 181.01 69.01 L 181.32 69.46 L 181.64 69.92 L 181.96 70.38 L 182.27 70.84 L 182.59 71.29 L 182.90 71.75 L 183.22 72.21 L 183.54 72.67 L 183.85 73.12 L 184.17 73.58 L 184.48 74.04 L 184.80 74.50 L 185.11 74.95 L 185.43 75.41 L 185.75 75.87 L 186.06 76.33 L 186.38 76.79 L 186.69 77.24 L 187.01 77.70 L 187.33 78.16 L 187.64 78.62 L 187.96 79.07 L 188.27 79.53 L 188.59 79.99 L 188.91 80.45 L 189.22 80.90 L 189.54 81.36 L 189.85 81.82 L 190.17 82.28 L 190.48 82.73 L 190.80 83.19 L 191.12 83.65 L 191.43 84.11 L 191.75 84.57 L 192.06 85.02 L 192.38 85.48 L 192.70 85.94 L 193.01 86.40 L 193.33 86.85 L 193.64 87.31 L 193.96 87.77 L 194.28 88.23 L 194.59 88.68 L 194.91 89.14 L 195.22 89.60 L 195.54 90.06 L 195.86 90.51 L 196.17 90.97 L 196.49 91.43 L 196.80 91.89 L 197.12 92.35 L 197.43 92.80 L 197.75 93.26 L 198.07 93.72 L 198.38 94.18 L 198.70 94.63 L 199.01 95.09 L 199.33 95.55 L 199.65 96.01 L 199.96 96.46 L 200.28 96.92 L 200.59 97.38 L 200.91 97.84 L 201.23 98.29 L 201.54 98.75 L 201.86 99.21 L 202.17 99.67 L 202.49 100.13 L 202.81 100.58 L 203.12 101.04 L 203.44 101.50 L 203.75 101.96 L 204.07 102.41 L 204.38 102.87 L 204.70 103.33 L 205.02 103.79 L 205.33 104.24 L 205.65 104.70 L 205.96 105.16 L 206.28 105.62 L 206.60 106.08 L 206.91 106.53 L 207.23 106.99 L 207.54 107.45 L 207.86 107.91 L 208.18 108.36 L 208.49 108.82 L 208.81 109.28 L 209.12 109.74 L 209.44 110.19 L 209.76 110.65 L 210.07 111.11 L 210.39 111.57 L 210.70 112.02 L 211.02 112.48 L 211.33 112.94 L 211.65 113.40 L 211.97 113.86 L 212.28 114.31 L 212.60 114.77 L 212.91 115.23 L 213.23 115.69 L 213.55 116.14 L 213.86 116.60 L 214.18 117.06 L 214.49 117.52 L 214.81 117.97 L 215.13 118.43 L 215.44 118.89 L 215.76 119.35 L 216.07 119.80 L 216.39 120.26 L 216.71 120.72 L 217.02 121.18 L 217.34 121.64 L 217.65 122.09 L 217.97 122.55 L 218.28 123.01 L 218.60 123.47 L 218.92 123.92 L 219.23 124.38 L 219.55 124.84 L 219.86 125.30 L 220.18 125.75 L 220.50 126.21 L 220.81 126.67 L 221.13 127.13 L 221.44 127.58 L 221.76 128.04 L 222.08 128.50 L 222.39 128.96 L 222.71 129.42 L 223.02 129.87 L 223.34 130.33 L 223.66 130.79 L 223.97 131.25 L 224.29 131.70 L 224.60 132.16 L 224.92 132.62 L 225.23 133.08 L 225.55 133.53 L 225.87 133.99 L 226.18 134.45 L 226.50 134.91 L 226.81 135.36 L 227.13 135.82 L 227.45 136.28" fill="none" stroke="#7E8692" stroke-width="2.3" stroke-linecap="round" stroke-linejoin="round"/>
  <path d="M 234.71 141.43 L 235.03 141.43 L 235.34 141.43 L 235.66 141.43 L 235.98 141.43 L 236.29 141.43 L 236.61 141.43 L 236.92 141.43 L 237.24 141.43 L 237.56 141.43 L 237.87 141.43 L 238.19 141.43 L 238.50 141.43 L 238.82 141.43 L 239.13 141.43 L 239.45 141.43 L 239.77 141.43 L 240.08 141.43 L 240.40 141.43 L 240.71 141.43 L 241.03 141.43 L 241.35 141.43 L 241.66 141.43 L 241.98 141.43 L 242.29 141.43 L 242.61 141.43 L 242.93 141.43 L 243.24 141.43 L 243.56 141.43 L 243.87 141.43 L 244.19 141.43 L 244.51 141.43 L 244.82 141.43 L 245.14 141.43 L 245.45 141.43 L 245.77 141.43 L 246.08 141.43 L 246.40 141.43 L 246.72 141.43 L 247.03 141.43 L 247.35 141.43 L 247.66 141.43 L 247.98 141.43 L 248.30 141.43 L 248.61 141.43 L 248.93 141.43 L 249.24 141.43 L 249.56 141.43 L 249.88 141.43 L 250.19 141.43 L 250.51 141.43 L 250.82 141.43 L 251.14 141.43 L 251.45 141.43 L 251.77 141.43 L 252.09 141.43 L 252.40 141.43 L 252.72 141.43 L 253.03 141.43 L 253.35 141.43 L 253.67 141.43 L 253.98 141.43 L 254.30 141.43 L 254.61 141.43 L 254.93 141.43 L 255.25 141.43 L 255.56 141.43 L 255.88 141.43 L 256.19 141.43 L 256.51 141.43 L 256.83 141.43 L 257.14 141.43 L 257.46 141.43 L 257.77 141.43 L 258.09 141.43 L 258.40 141.43 L 258.72 141.43 L 259.04 141.43 L 259.35 141.43 L 259.67 141.43 L 259.98 141.43 L 260.30 141.43 L 260.62 141.43 L 260.93 141.43 L 261.25 141.43 L 261.56 141.43 L 261.88 141.43 L 262.20 141.43 L 262.51 141.43 L 262.83 141.43 L 263.14 141.43 L 263.46 141.43 L 263.78 141.43 L 264.09 141.43 L 264.41 141.43 L 264.72 141.43 L 265.04 141.43 L 265.35 141.43 L 265.67 141.43 L 265.99 141.43 L 266.30 141.43 L 266.62 141.43 L 266.93 141.43 L 267.25 141.43 L 267.57 141.43 L 267.88 141.43 L 268.20 141.43 L 268.51 141.43 L 268.83 141.43 L 269.15 141.43 L 269.46 141.43 L 269.78 141.43 L 270.09 141.43 L 270.41 141.43 L 270.73 141.43 L 271.04 141.43 L 271.36 141.43 L 271.67 141.43 L 271.99 141.43 L 272.30 141.43 L 272.62 141.43 L 272.94 141.43 L 273.25 141.43 L 273.57 141.43 L 273.88 141.43 L 274.20 141.43 L 274.52 141.43 L 274.83 141.43 L 275.15 141.43 L 275.46 141.43 L 275.78 141.43 L 276.10 141.43 L 276.41 141.43 L 276.73 141.43 L 277.04 141.43 L 277.36 141.43 L 277.68 141.43 L 277.99 141.43 L 278.31 141.43 L 278.62 141.43 L 278.94 141.43 L 279.25 141.43 L 279.57 141.43 L 279.89 141.43 L 280.20 141.43 L 280.52 141.43 L 280.83 141.43 L 281.15 141.43 L 281.47 141.43 L 281.78 141.43 L 282.10 141.43 L 282.41 141.43 L 282.73 141.43 L 283.05 141.43 L 283.36 141.43 L 283.68 141.43 L 283.99 141.43 L 284.31 141.43 L 284.63 141.43 L 284.94 141.43 L 285.26 141.43 L 285.57 141.43 L 285.89 141.43 L 286.20 141.43 L 286.52 141.43 L 286.84 141.43 L 287.15 141.43 L 287.47 141.43 L 287.78 141.43 L 288.10 141.43 L 288.42 141.43 L 288.73 141.43 L 289.05 141.43 L 289.36 141.43 L 289.68 141.43 L 290.00 141.43 L 290.31 141.43 L 290.63 141.43 L 290.94 141.43 L 291.26 141.43 L 291.58 141.43 L 291.89 141.43 L 292.21 141.43 L 292.52 141.43 L 292.84 141.43 L 293.15 141.43 L 293.47 141.43 L 293.79 141.43 L 294.10 141.43 L 294.42 141.43 L 294.73 141.43 L 295.05 141.43 L 295.37 141.43 L 295.68 141.43 L 296.00 141.43 L 296.31 141.43 L 296.63 141.43 L 296.95 141.43 L 297.26 141.43 L 297.58 141.43 L 297.89 141.43 L 298.21 141.43 L 298.53 141.43 L 298.84 141.43 L 299.16 141.43 L 299.47 141.43 L 299.79 141.43 L 300.10 141.43 L 300.42 141.43 L 300.74 141.43 L 301.05 141.43 L 301.37 141.43 L 301.68 141.43 L 302.00 141.43" fill="none" stroke="#7E8692" stroke-width="2.3" stroke-linecap="round" stroke-linejoin="round"/>
</svg>
