<svg xmlns="http://www.w3.org/2000/svg" viewBox="0 0 320 180" width="320" height="180">
  <rect width="320" height="180" fill="none"/>
  <path d="M 24.00 32.04 L 24.30 32.70 L 24.61 33.36 L 24.91 34.01 L 25.21 34.66 L 25.51 35.31 L 25.82 35.95 L 26.12 36.59 L 26.42 37.22 L 26.72 37.85 L 27.03 38.48 L 27.33 39.11 L 27.63 39.73 L 27.93 40.35 L 28.24 40.96 L 28.54 41.57 L 28.84 42.18 L 29.14 42.78 L 29.45 43.39 L 29.75 43.98 L 30.05 44.58 L 30.35 45.17 L 30.66 45.76 L 30.96 46.35 L 31.26 46.93 L 31.56 47.51 L 31.87 48.08 L 32.17 48.65 L 32.47 49.22 L 32.77 49.79 L 33.08 50.35 L 33.38 50.91 L 33.68 51.47 L 33.98 52.03 L 34.29 52.58 L 34.59 53.13 L 34.89 53.67 L 35.19 54.21 L 35.50 54.75 L 35.80 55.29 L 36.10 55.82 L 36.40 56.35 L 36.71 56.88 L 37.01 57.41 L 37.31 57.93 L 37.62 58.45 L 37.92 58.96 L 38.22 59.48 L 38.52 59.99 L 38.83 60.49 L 39.13 61.00 L 39.43 61.50 L 39.73 62.00 L 40.04 62.50 L 40.34 62.99 L 40.64 63.48 L 40.94 63.97 L 41.25 64.46 L 41.55 64.94 L 41.85 65.42 L 42.15 65.90 L 42.46 66.37 L 42.76 66.85 L 43.06 67.32 L 43.36 67.78 L 43.67 68.25 L 43.97 68.71 L 44.27 69.17 L 44.57 69.63 L 44.88 70.08 L 45.18 70.54 L 45.48 70.99 L 45.78 71.43 L 46.09 71.88 L 46.39 72.32 L 46.69 72.76 L 46.99 73.20 L 47.30 73.63 L 47.60 74.07 L 47.90 74.50 L 48.20 74.92 L 48.51 75.35 L 48.81 75.77 L 49.11 76.19 L 49.41 76.61 L 49.72 77.03 L 50.02 77.44 L 50.32 77.85 L 50.63 78.26 L 50.93 78.67 L 51.23 79.07 L 51.53 79.48 L 51.84 79.88 L 52.14 80.28 L 52.44 80.67 L 52.74 81.07 L 53.05 81.46 L 53.35 81.85 L 53.65 82.23 L 53.95 82.62 L 54.26 83.00 L 54.56 83.38 L 54.86 83.76 L 55.16 84.14 L 55.47 84.51 L 55.77 84.88 L 56.07 85.25 L 56.37 85.62 L 56.68 85.99 L 56.98 86.35 L 57.28 86.71 L 57.58 87.07 L 57.89 87.43 L 58.19 87.79 L 58.49 88.14 L 58.79 88.49 L 59.10 88.84 L 59.40 89.19 L 59.70 89.54 L 60.00 89.88 L 60.31 90.22 L 60.61 90.56 L 60.91 90.90 L 61.21 91.24 L 61.52 91.57 L 61.82 91.90 L 62.12 92.23 L 62.42 92.56 L 62.73 92.89 L 63.03 93.21 L 63.33 93.54 L 63.64 93.86 L 63.94 94.18 L 64.24 94.50 L 64.54 94.81 L 64.85 95.13 L 65.15 95.44 L 65.45 95.75 L 65.75 96.06 L 66.06 96.36 L 66.36 96.67 L 66.66 96.97 L 66.96 97.27 L 67.27 97.57 L 67.57 97.87 L 67.87 98.17 L 68.17 98.46 L 68.48 98.76 L 68.78 99.05 L 69.08 99.34 L 69.38 99.63 L 69.69 99.91 L 69.99 100.20 L 70.29 100.48 L 70.59 100.76 L 70.90 101.04 L 71.20 101.32 L 71.50 101.60 L 71.80 101.87 L 72.11 102.14 L 72.41 102.42 L 72.71 102.69 L 73.01 102.95 L 73.32 103.22 L 73.62 103.49 L 73.92 103.75 L 74.22 104.01 L 74.53 104.27 L 74.83 104.53 L 75.13 104.79 L 75.43 105.05 L 75.74 105.30 L 76.04 105.56 L 76.34 105.81 L 76.65 106.06 L 76.95 106.31 L 77.25 106.55 L 77.55 106.80 L 77.86 107.04 L 78.16 107.29 L 78.46 107.53 L 78.76 107.77 L 79.07 108.01 L 79.37 108.24 L 79.67 108.48 L 79.97 108.71 L 80.28 108.95 L 80.58 109.18 L 80.88 109.41 L 81.18 109.64 L 81.49 109.87 L 81.79 110.09 L 82.09 110.32 L 82.39 110.54 L 82.70 110.76 L 83.00 110.98 L 83.30 111.20 L 83.60 111.42 L 83.91 111.64 L 84.21 111.85 L 84.51 112.07 L 84.81 112.28 L 85.12 112.49 L 85.42 112.70 L 85.72 112.91 L 86.02 113.12 L 86.33 113.32 L 86.63 113.53 L 86.93 113.73 L 87.23 113.93 L 87.54 114.13 L 87.84 114.33 L 88.14 114.53 L 88.44 114.73 L 88.75 114.93 L 89.05 115.12 L 89.35 115.31 L 89.66 115.51 L 89.96 115.70 L 90.26 115.89 L 90.56 116.08 L 90.87 116.27 L 91.17 116.45 L 91.47 116.64 L 91.77 116.82 L 92.08 117.00 L 92.38 117.19 L 92.68 117.37 L 92.98 117.55 L 93.29 117.72 L 93.59 117.90 L 93.89 118.08 L 94.19 118.25 L 94.50 118.43 L 94.80 118.60 L 95.10 118.77 L 95.40 118.94 L 95.71 119.11 L 96.01 119.28 L 96.31 119.45 L 96.61 119.61 L 96.92 119.78 L 97.22 119.94 L 97.52 120.10 L 97.82 120.26 L 98.13 120.42 L 98.43 120.58 L 98.73 120.74 L 99.03 120.90 L 99.34 121.06 L 99.64 121.21 L 99.94 121.37 L 100.24 121.52 L 100.55 121.67 L 100.85 121.82 L 101.15 121.97 L 101.45 122.12 L 101.76 122.27 L 102.06 122.42 L 102.36 122.56 L 102.67 122.71 L 102.97 122.85 L 103.27 122.99 L 103.57 123.14 L 103.88 123.28 L 104.18 123.42 L 104.48 123.56 L 104.78 123.69 L 105.09 123.83 L 105.39 123.97 L 105.69 124.10 L 105.99 124.24 L 106.30 124.37 L 106.60 124.50 L 106.90 124.63 L 107.20 124.76 L 107.51 124.89 L 107.81 125.02 L 108.11 125.15 L 108.41 125.27 L 108.72 125.40 L 109.02 125.52 L 109.32 125.65 L 109.62 125.77 L 109.93 125.89 L 110.23 126.01 L 110.53 126.13 L 110.83 126.25 L 111.14 126.37 L 111.44 126.49 L 111.74 126.60 L 112.04 126.72 L 112.35 126.84 L 112.65 126.95 L 112.95 127.06 L 113.25 127.17 L 113.56 127.28 L 113.86 127.40 L 114.16 127.50 L 114.46 127.61 L 114.77 127.72 L 115.07 127.83 L 115.37 127.93 L 115.68 128.04 L 115.98 128.14 L 116.28 128.25 L 116.58 128.35 L 116.89 128.45 L 117.19 128.55 L 117.49 128.65 L 117.79 128.75 L 118.10 128.85 L 118.40 128.95 L 118.70 129.04 L 119.00 129.14 L 119.31 129.23 L 119.61 129.33 L 119.91 129.42 L 120.21 129.51 L 120.52 129.60 L 120.82 129.70 L 121.12 129.79 L 121.42 129.88 L 121.73 129.96 L 122.03 130.05 L 122.33 130.14 L 122.63 130.22 L 122.94 130.31 L 123.24 130.39 L 123.54 130.48 L 123.84 130.56 L 124.15 130.64 L 124.45 130.72 L 124.75 130.81 L 125.05 130.88 L 125.36 130.96 L 125.66 131.04 L 125.96 131.12 L 126.26 131.20 L 126.57 131.27 L 126.87 131.35 L 127.17 131.42 L 127.47 131.50 L 127.78 131.57 L 128.08 131.64 L 128.38 131.71 L 128.69 131.78 L 128.99 131.85 L 129.29 131.92 L 129.59 131.99 L 129.90 132.06 L 130.20 132.13 L 130.50 132.19 L 130.80 132.26 L 131.11 132.32 L 131.41 132.39 L 131.71 132.45 L 132.01 132.51 L 132.32 132.57 L 132.62 132.64 L 132.92 132.70 L 133.22 132.76 L 133.53 132.81 L 133.83 132.87 L 134.13 132.93 L 134.43 132.99 L 134.74 133.04 L 135.04 133.10 L 135.34 133.15 L 135.64 133.21 L 135.95 133.26 L 136.25 133.31 L 136.55 133.36 L 136.85 133.42 L 137.16 133.47 L 137.46 133.52 L 137.76 133.57 L 138.06 133.61 L 138.37 133.66 L 138.67 133.71 L 138.97 133.75 L 139.27 133.80 L 139.58 133.85 L 139.88 133.89 L 140.18 133.93 L 140.48 133.98 L 140.79 134.02 L 141.09 134.06 L 141.39 134.10 L 141.70 134.14 L 142.00 134.18 L 142.30 134.22 L 142.60 134.26 L 142.91 134.29 L 143.21 134.33 L 143.51 134.37 L 143.81 134.40 L 144.12 134.44 L 144.42 134.47 L 144.72 134.50 L 145.02 134.54 L 145.33 134.57 L 145.63 134.60 L 145.93 134.63 L 146.23 134.66 L 146.54 134.69 L 146.84 134.72 L 147.14 134.75 L 147.44 134.77 L 147.75 134.80 L 148.05 134.83 L 148.35 134.85 L 148.65 134.88 L 148.96 134.90 L 149.26 134.92 L 149.56 134.95 L 149.86 134.97 L 150.17 134.99 L 150.47 135.01 L 150.77 135.03 L 151.07 135.05 L 151.38 135.07 L 151.68 135.09 L 151.98 135.11 L 152.28 135.12 L 152.59 135.14 L 152.89 135.15 L 153.19 135.17 L 153.49 135.18 L 153.80 135.20 L 154.10 135.21 L 154.40 135.22 L 154.71 135.23 L 155.01 135.25 L 155.31 135.26 L 155.61 135.27 L 155.92 135.27 L 156.22 135.28 L 156.52 135.29 L 156.82 135.30 L 157.13 135.30 L 157.43 135.31 L 157.73 135.32 L 158.03 135.32 L 158.34 135.32 L 158.64 135.33 L 158.94 135.33 L 159.24 135.33 L 159.55 135.33 L 159.85 135.33 L 160.15 135.33 L 160.45 135.33 L 160.76 135.33 L 161.06 135.33 L 161.36 135.33 L 161.66 135.32 L 161.97 135.32 L 162.27 135.32 L 162.57 135.31 L 162.87 135.30 L 163.18 135.30 L 163.48 135.29 L 163.78 135.28 L 164.08 135.27 L 164.39 135.27 L 164.69 135.26 L 164.99 135.25 L 165.29 135.23 L 165.60 135.22 L 165.90 135.21 L 166.20 135.20 L 166.51 135.18 L 166.81 135.17 L 167.11 135.15 L 167.41 135.14 L 167.72 135.12 L 168.02 135.11 L 168.32 135.09 L 168.62 135.07 L 168.93 135.05 L 169.23 135.03 L 169.53 135.01 L 169.83 134.99 L 170.14 134.97 L 170.44 134.95 L 170.74 134.92 L 171.04 134.90 L 171.35 134.88 L 171.65 134.85 L 171.95 134.83 L 172.25 134.80 L 172.56 134.77 L 172.86 134.75 L 173.16 134.72 L 173.46 134.69 L 173.77 134.66 L 174.07 134.63 L 174.37 134.60 L 174.67 134.57 L 174.98 134.54 L 175.28 134.50 L 175.58 134.47 L 175.88 134.44 L 176.19 134.40 L 176.49 134.37 L 176.79 134.33 L 177.09 134.29 L 177.40 134.26 L 177.70 134.22 L 178.00 134.18 L 178.30 134.14 L 178.61 134.10 L 178.91 134.06 L 179.21 134.02 L 179.52 133.98 L 179.82 133.93 L 180.12 133.89 L 180.42 133.85 L 180.73 133.80 L 181.03 133.75 L 181.33 133.71 L 181.63 133.66 L 181.94 133.61 L 182.24 133.57 L 182.54 133.52 L 182.84 133.47 L 183.15 133.42 L 183.45 133.36 L 183.75 133.31 L 184.05 133.26 L 184.36 133.21 L 184.66 133.15 L 184.96 133.10 L 185.26 133.04 L 185.57 132.99 L 185.87 132.93 L 186.17 132.87 L 186.47 132.81 L 186.78 132.76 L 187.08 132.70 L 187.38 132.64 L 187.68 132.57 L 187.99 132.51 L 188.29 132.45 L 188.59 132.39 L 188.89 132.32 L 189.20 132.26 L 189.50 132.19 L 189.80 132.13 L 190.10 132.06 L 190.41 131.99 L 190.71 131.92 L 191.01 131.85 L 191.31 131.78 L 191.62 131.71 L 191.92 131.64 L 192.22 131.57 L 192.53 131.50 L 192.83 131.42 L 193.13 131.35 L 193.43 131.27 L 193.74 131.20 L 194.04 131.12 L 194.34 131.04 L 194.64 130.96 L 194.95 130.88 L 195.25 130.81 L 195.55 130.72 L 195.85 130.64 L 196.16 130.56 L 196.46 130.48 L 196.76 130.39 L 197.06 130.31 L 197.37 130.22 L 197.67 130.14 L 197.97 130.05 L 198.27 129.96 L 198.58 129.88 L 198.88 129.79 L 199.18 129.70 L 199.48 129.60 L 199.79 129.51 L 200.09 129.42 L 200.39 129.33 L 200.69 129.23 L 201.00 129.14 L 201.30 129.04 L 201.60 128.95 L 201.90 128.85 L 202.21 128.75 L 202.51 128.65 L 202.81 128.55 L 203.11 128.45 L 203.42 128.35 L 203.72 128.25 L 204.02 128.14 L 204.32 128.04 L 204.63 127.93 L 204.93 127.83 L 205.23 127.72 L 205.54 127.61 L 205.84 127.50 L 206.14 127.40 L 206.44 127.28 L 206.75 127.17 L 207.05 127.06 L 207.35 126.95 L 207.65 126.84 L 207.96 126.72 L 208.26 126.60 L 208.56 126.49 L 208.86 126.37 L 209.17 126.25 L 209.47 126.13 L 209.77 126.01 L 210.07 125.89 L 210.38 125.77 L 210.68 125.65 L 210.98 125.52 L 211.28 125.40 L 211.59 125.27 L 211.89 125.15 L 212.19 125.02 L 212.49 124.89 L 212.80 124.76 L 213.10 124.63 L 213.40 124.50 L 213.70 124.37 L 214.01 124.24 L 214.31 124.10 L 214.61 123.97 L 214.91 123.83 L 215.22 123.69 L 215.52 123.56 L 215.82 123.42 L 216.12 123.28 L 216.43 123.14 L 216.73 122.99 L 217.03 122.85 L 217.33 122.71 L 217.64 122.56 L 217.94 122.42 L 218.24 122.27 L 218.55 122.12 L 218.85 121.97 L 219.15 121.82 L 219.45 121.67 L 219.76 121.52 L 220.06 121.37 L 220.36 121.21 L 220.66 121.06 L 220.97 120.90 L 221.27 120.74 L 221.57 120.58 L 221.87 120.42 L 222.18 120.26 L 222.48 120.10 L 222.78 119.94 L 223.08 119.78 L 223.39 119.61 L 223.69 119.45 L 223.99 119.28 L 224.29 119.11 L 224.60 118.94 L 224.90 118.77 L 225.20 118.60 L 225.50 118.43 L 225.81 118.25 L 226.11 118.08 L 226.41 117.90 L 226.71 117.72 L 227.02 117.55 L 227.32 117.37 L 227.62 117.19 L 227.92 117.00 L 228.23 116.82 L 228.53 116.64 L 228.83 116.45 L 229.13 116.27 L 229.44 116.08 L 229.74 115.89 L 230.04 115.70 L 230.34 115.51 L 230.65 115.31 L 230.95 115.12 L 231.25 114.93 L 231.56 114.73 L 231.86 114.53 L 232.16 114.33 L 232.46 114.13 L 232.77 113.93 L 233.07 113.73 L 233.37 113.53 L 233.67 113.32 L 233.98 113.12 L 234.28 112.91 L 234.58 112.70 L 234.88 112.49 L 235.19 112.28 L 235.49 112.07 L 235.79 111.85 L 236.09 111.64 L 236.40 111.42 L 236.70 111.20 L 237.00 110.98 L 237.30 110.76 L 237.61 110.54 L 237.91 110.32 L 238.21 110.09 L 238.51 109.87 L 238.82 109.64 L 239.12 109.41 L 239.42 109.18 L 239.72 108.95 L 240.03 108.71 L 240.33 108.48 L 240.63 108.24 L 240.93 108.01 L 241.24 107.77 L 241.54 107.53 L 241.84 107.29 L 242.14 107.04 L 242.45 106.80 L 242.75 106.55 L 243.05 106.31 L 243.35 106.06 L 243.66 105.81 L 243.96 105.56 L 244.26 105.30 L 244.57 105.05 L 244.87 104.79 L 245.17 104.53 L 245.47 104.27 L 245.78 104.01 L 246.08 103.75 L 246.38 103.49 L 246.68 103.22 L 246.99 102.95 L 247.29 102.69 L 247.59 102.42 L 247.89 102.14 L 248.20 101.87 L 248.50 101.60 L 248.80 101.32 L 249.10 101.04 L 249.41 100.76 L 249.71 100.48 L 250.01 100.20 L 250.31 99.91 L 250.62 99.63 L 250.92 99.34 L 251.22 99.05 L 251.52 98.76 L 251.83 98.46 L 252.13 98.17 L 252.43 97.87 L 252.73 97.57 L 253.04 97.27 L 253.34 96.97 L 253.64 96.67 L 253.94 96.36 L 254.25 96.06 L 254.55 95.75 L 254.85 95.44 L 255.15 95.13 L 255.46 94.81 L 255.76 94.50 L 256.06 94.18 L 256.36 93.86 L 256.67 93.54 L 256.97 93.21 L 257.27 92.89 L 257.58 92.56 L 257.88 92.23 L 258.18 91.90 L 258.48 91.57 L 258.79 91.24 L 259.09 90.90 L 259.39 90.56 L 259.69 90.22 L 260.00 89.88 L 260.30 89.54 L 260.60 89.19 L 260.90 88.84 L 261.21 88.49 L 261.51 88.14 L 261.81 87.79 L 262.11 87.43 L 262.42 87.07 L 262.72 86.71 L 263.02 86.35 L 263.32 85.99 L 263.63 85.62 L 263.93 85.25 L 264.23 84.88 L 264.53 84.51 L 264.84 84.14 L 265.14 83.76 L 265.44 83.38 L 265.74 83.00 L 266.05 82.62 L 266.35 82.23 L 266.65 81.85 L 266.95 81.46 L 267.26 81.07 L 267.56 80.67 L 267.86 80.28 L 268.16 79.88 L 268.47 79.48 L 268.77 79.07 L 269.07 78.67 L 269.37 78.26 L 269.68 77.85 L 269.98 77.44 L 270.28 77.03 L 270.59 76.61 L 270.89 76.19 L 271.19 75.77 L 271.49 75.35 L 271.80 74.92 L 272.10 74.50 L 272.40 74.07 L 272.70 73.63 L 273.01 73.20 L 273.31 72.76 L 273.61 72.32 L 273.91 71.88 L 274.22 71.43 L 274.52 70.99 L 274.82 70.54 L 275.12 70.08 L 275.43 69.63 L 275.73 69.17 L 276.03 68.71 L 276.33 68.25 L 276.64 67.78 L 276.94 67.32 L 277.24 66.85 L 277.54 66.37 L 277.85 65.90 L 278.15 65.42 L 278.45 64.94 L 278.75 64.46 L 279.06 63.97 L 279.36 63.48 L 279.66 62.99 L 279.96 62.50 L 280.27 62.00 L 280.57 61.50 L 280.87 61.00 L 281.17 60.49 L 281.48 59.99 L 281.78 59.48 L 282.08 58.96 L 282.38 58.45 L 282.69 57.93 L 282.99 57.41 L 283.29 56.88 L 283.60 56.35 L 283.90 55.82 L 284.20 55.29 L 284.50 54.75 L 284.81 54.21 L 285.11 53.67 L 285.41 53.13 L 285.71 52.58 L 286.02 52.03 L 286.32 51.47 L 286.62 50.91 L 286.92 50.35 L 287.23 49.79 L 287.53 49.22 L 287.83 48.65 L 288.13 48.08 L 288.44 47.51 L 288.74 46.93 L 289.04 46.35 L 289.34 45.76 L 289.65 45.17 L 289.95 44.58 L 290.25 43.98 L 290.55 43.39 L 290.86 42.78 L 291.16 42.18 L 291.46 41.57 L 291.76 40.96 L 292.07 40.35 L 292.37 39.73 L 292.67 39.11 L 292.97 38.48 L 293.28 37.85 L 293.58 37.22 L 293.88 36.59 L 294.18 35.95 L 294.49 35.31 L 294.79 34.66 L 295.09 34.01 L 295.39 33.36 L 295.70 32.70 L 296.00 32.04" fill="none" stroke="#5F6B7A" stroke-width="2.5" stroke-linecap="round" stroke-linejoin="round"/>
</svg>
