<svg xmlns="http://www.w3.org/2000/svg" viewBox="0 0 320 180" width="320" height="180">
  <rect width="320" height="180" fill="#F4F5F7"/>
  <path d="M 18.00 93.39 L 18.24 93.39 L 18.47 93.40 L 18.71 93.40 L 18.95 93.41 L 19.18 93.41 L 19.42 93.42 L 19.66 93.42 L 19.89 93.43 L 20.13 93.43 L 20.37 93.44 L 20.61 93.44 L 20.84 93.45 L 21.08 93.45 L 21.32 93.46 L 21.55 93.46 L 21.79 93.47 L 22.03 93.48 L 22.26 93.48 L 22.50 93.49 L 22.74 93.49 L 22.97 93.50 L 23.21 93.50 L 23.45 93.51 L 23.68 93.51 L 23.92 93.52 L 24.16 93.52 L 24.40 93.53 L 24.63 93.53 L 24.87 93.54 L 25.11 93.54 L 25.34 93.55 L 25.58 93.56 L 25.82 93.56 L 26.05 93.57 L 26.29 93.57 L 26.53 93.58 L 26.76 93.58 L 27.00 93.59 L 27.24 93.59 L 27.47 93.60 L 27.71 93.60 L 27.95 93.61 L 28.19 93.62 L 28.42 93.62 L 28.66 93.63 L 28.90 93.63 L 29.13 93.64 L 29.37 93.64 L 29.61 93.65 L 29.84 93.66 L 30.08 93.66 L 30.32 93.67 L 30.55 93.67 L 30.79 93.68 L 31.03 93.68 L 31.26 93.69 L 31.50 93.70 L 31.74 93.70 L 31.97 93.71 L 32.21 93.71 L 32.45 93.72 L 32.69 93.73 L 32.92 93.73 L 33.16 93.74 L 33.40 93.74 L 33.63 93.75 L 33.87 93.76 L 34.11 93.76 L 34.34 93.77 L 34.58 93.77 L 34.82 93.78 L 35.05 93.79 L 35.29 93.79 L 35.53 93.80 L 35.76 93.80 L 36.00 93.81 L 36.24 93.82 L 36.48 93.82 L 36.71 93.83 L 36.95 93.84 L 37.19 93.84 L 37.42 93.85 L 37.66 93.85 L 37.90 93.86 L 38.13 93.87 L 38.37 93.87 L 38.61 93.88 L 38.84 93.89 L 39.08 93.89 L 39.32 93.90 L 39.55 93.91 L 39.79 93.91 L 40.03 93.92 L 40.27 93.92 L 40.50 93.93 L 40.74 93.94 L 40.98 93.94 L 41.21 93.95 L 41.45 93.96 L 41.69 93.96 L 41.92 93.97 L 42.16 93.98 L 42.40 93.98 L 42.63 93.99 L 42.87 94.00 L 43.11 94.00 L 43.34 94.01 L 43.58 94.02 L 43.82 94.02 L 44.06 94.03 L 44.29 94.04 L 44.53 94.04 L 44.77 94.05 L 45.00 94.06 L 45.24 94.07 L 45.48 94.07 L 45.71 94.08 L 45.95 94.09 L 46.19 94.09 L 46.42 94.10 L 46.66 94.11 L 46.90 94.11 L 47.13 94.12 L 47.37 94.13 L 47.61 94.14 L 47.84 94.14 L 48.08 94.15 L 48.32 94.16 L 48.56 94.16 L 48.79 94.17 L 49.03 94.18 L 49.27 94.19 L 49.50 94.19 L 49.74 94.20 L 49.98 94.21 L 50.21 94.22 L 50.45 94.22 L 50.69 94.23 L 50.92 94.24 L 51.16 94.25 L 51.40 94.25 L 51.63 94.26 L 51.87 94.27 L 52.11 94.28 L 52.35 94.28 L 52.58 94.29 L 52.82 94.30 L 53.06 94.31 L 53.29 94.31 L 53.53 94.32 L 53.77 94.33 L 54.00 94.34 L 54.24 94.34 L 54.48 94.35 L 54.71 94.36 L 54.95 94.37 L 55.19 94.38 L 55.42 94.38 L 55.66 94.39 L 55.90 94.40 L 56.14 94.41 L 56.37 94.41 L 56.61 94.42 L 56.85 94.43 L 57.08 94.44 L 57.32 94.45 L 57.56 94.46 L 57.79 94.46 L 58.03 94.47 L 58.27 94.48 L 58.50 94.49 L 58.74 94.50 L 58.98 94.50 L 59.21 94.51 L 59.45 94.52 L 59.69 94.53 L 59.92 94.54 L 60.16 94.55 L 60.40 94.55 L 60.64 94.56 L 60.87 94.57 L 61.11 94.58 L 61.35 94.59 L 61.58 94.60 L 61.82 94.60 L 62.06 94.61 L 62.29 94.62 L 62.53 94.63 L 62.77 94.64 L 63.00 94.65 L 63.24 94.66 L 63.48 94.67 L 63.71 94.67 L 63.95 94.68 L 64.19 94.69 L 64.43 94.70 L 64.66 94.71 L 64.90 94.72 L 65.14 94.73 L 65.37 94.74 L 65.61 94.74 L 65.85 94.75 L 66.08 94.76 L 66.32 94.77 L 66.56 94.78 L 66.79 94.79 L 67.03 94.80 L 67.27 94.81 L 67.50 94.82 L 67.74 94.83 L 67.98 94.84 L 68.22 94.84 L 68.45 94.85 L 68.69 94.86 L 68.93 94.87 L 69.16 94.88 L 69.40 94.89 L 69.64 94.90 L 69.87 94.91 L 70.11 94.92 L 70.35 94.93 L 70.58 94.94 L 70.82 94.95 L 71.06 94.96 L 71.29 94.97 L 71.53 94.98 L 71.77 94.99 L 72.01 95.00 L 72.24 95.01 L 72.48 95.02 L 72.72 95.03 L 72.95 95.04 L 73.19 95.05 L 73.43 95.05 L 73.66 95.06 L 73.90 95.07 L 74.14 95.08 L 74.37 95.09 L 74.61 95.10 L 74.85 95.11 L 75.08 95.12 L 75.32 95.13 L 75.56 95.14 L 75.79 95.15 L 76.03 95.16 L 76.27 95.18 L 76.51 95.19 L 76.74 95.20 L 76.98 95.21 L 77.22 95.22 L 77.45 95.23 L 77.69 95.24 L 77.93 95.25 L 78.16 95.26 L 78.40 95.27 L 78.64 95.28 L 78.87 95.29 L 79.11 95.30 L 79.35 95.31 L 79.58 95.32 L 79.82 95.33 L 80.06 95.34 L 80.30 95.35 L 80.53 95.36 L 80.77 95.37 L 81.01 95.38 L 81.24 95.39 L 81.48 95.41 L 81.72 95.42 L 81.95 95.43 L 82.19 95.44 L 82.43 95.45 L 82.66 95.46 L 82.90 95.47 L 83.14 95.48 L 83.37 95.49 L 83.61 95.50 L 83.85 95.51 L 84.09 95.53 L 84.32 95.54 L 84.56 95.55 L 84.80 95.56 L 85.03 95.57 L 85.27 95.58 L 85.51 95.59 L 85.74 95.60 L 85.98 95.61 L 86.22 95.63 L 86.45 95.64 L 86.69 95.65 L 86.93 95.66 L 87.16 95.67 L 87.40 95.68 L 87.64 95.69 L 87.87 95.71 L 88.11 95.72 L 88.35 95.73 L 88.59 95.74 L 88.82 95.75 L 89.06 95.76 L 89.30 95.77 L 89.53 95.79 L 89.77 95.80 L 90.01 95.81 L 90.24 95.82 L 90.48 95.83 L 90.72 95.84 L 90.95 95.86 L 91.19 95.87 L 91.43 95.88 L 91.66 95.89 L 91.90 95.90 L 92.14 95.91 L 92.38 95.93 L 92.61 95.94 L 92.85 95.95 L 93.09 95.96 L 93.32 95.97 L 93.56 95.99 L 93.80 96.00 L 94.03 96.01 L 94.27 96.02 L 94.51 96.03 L 94.74 96.04 L 94.98 96.06 L 95.22 96.07 L 95.45 96.08 L 95.69 96.09 L 95.93 96.10 L 96.17 96.12 L 96.40 96.13 L 96.64 96.14 L 96.88 96.15 L 97.11 96.16 L 97.35 96.18 L 97.59 96.19 L 97.82 96.20 L 98.06 96.21 L 98.30 96.22 L 98.53 96.24 L 98.77 96.25 L 99.01 96.26 L 99.24 96.27 L 99.48 96.28 L 99.72 96.30 L 99.95 96.31 L 100.19 96.32 L 100.43 96.33 L 100.67 96.34 L 100.90 96.36 L 101.14 96.37 L 101.38 96.38 L 101.61 96.39 L 101.85 96.40 L 102.09 96.42 L 102.32 96.43 L 102.56 96.44 L 102.80 96.45 L 103.03 96.46 L 103.27 96.48 L 103.51 96.49 L 103.74 96.50 L 103.98 96.51 L 104.22 96.52 L 104.46 96.53 L 104.69 96.55 L 104.93 96.56 L 105.17 96.57 L 105.40 96.58 L 105.64 96.59 L 105.88 96.60 L 106.11 96.62 L 106.35 96.63 L 106.59 96.64 L 106.82 96.65 L 107.06 96.66 L 107.30 96.67 L 107.53 96.68 L 107.77 96.69 L 108.01 96.71 L 108.25 96.72 L 108.48 96.73 L 108.72 96.74 L 108.96 96.75 L 109.19 96.76 L 109.43 96.77 L 109.67 96.78 L 109.90 96.79 L 110.14 96.80 L 110.38 96.81 L 110.61 96.82 L 110.85 96.84 L 111.09 96.85 L 111.32 96.86 L 111.56 96.87 L 111.80 96.88 L 112.04 96.89 L 112.27 96.90 L 112.51 96.91 L 112.75 96.92 L 112.98 96.92 L 113.22 96.93 L 113.46 96.94 L 113.69 96.95 L 113.93 96.96 L 114.17 96.97 L 114.40 96.98 L 114.64 96.99 L 114.88 97.00 L 115.11 97.01 L 115.35 97.01 L 115.59 97.02 L 115.82 97.03 L 116.06 97.04 L 116.30 97.05 L 116.54 97.05 L 116.77 97.06 L 117.01 97.07 L 117.25 97.08 L 117.48 97.08 L 117.72 97.09 L 117.96 97.10 L 118.19 97.10 L 118.43 97.11 L 118.67 97.12 L 118.90 97.12 L 119.14 97.13 L 119.38 97.14 L 119.61 97.14 L 119.85 97.15 L 120.09 97.15 L 120.33 97.16 L 120.56 97.16 L 120.80 97.16 L 121.04 97.17 L 121.27 97.17 L 121.51 97.18 L 121.75 97.18 L 121.98 97.18 L 122.22 97.19 L 122.46 97.19 L 122.69 97.19 L 122.93 97.19 L 123.17 97.20 L 123.40 97.20 L 123.64 97.20 L 123.88 97.20 L 124.12 97.20 L 124.35 97.20 L 124.59 97.20 L 124.83 97.20 L 125.06 97.20 L 125.30 97.20 L 125.54 97.20 L 125.77 97.20 L 126.01 97.19 L 126.25 97.19 L 126.48 97.19 L 126.72 97.19 L 126.96 97.18 L 127.19 97.18 L 127.43 97.17 L 127.67 97.17 L 127.90 97.16 L 128.14 97.16 L 128.38 97.15 L 128.62 97.15 L 128.85 97.14 L 129.09 97.13 L 129.33 97.12 L 129.56 97.12 L 129.80 97.11 L 130.04 97.10 L 130.27 97.09 L 130.51 97.08 L 130.75 97.07 L 130.98 97.06 L 131.22 97.04 L 131.46 97.03 L 131.69 97.02 L 131.93 97.01 L 132.17 96.99 L 132.41 96.98 L 132.64 96.96 L 132.88 96.95 L 133.12 96.93 L 133.35 96.91 L 133.59 96.90 L 133.83 96.88 L 134.06 96.86 L 134.30 96.84 L 134.54 96.82 L 134.77 96.80 L 135.01 96.78 L 135.25 96.76 L 135.48 96.73 L 135.72 96.71 L 135.96 96.69 L 136.20 96.66 L 136.43 96.64 L 136.67 96.61 L 136.91 96.58 L 137.14 96.55 L 137.38 96.53 L 137.62 96.50 L 137.85 96.47 L 138.09 96.44 L 138.33 96.40 L 138.56 96.37 L 138.80 96.34 L 139.04 96.30 L 139.27 96.27 L 139.51 96.23 L 139.75 96.20 L 139.98 96.16 L 140.22 96.12 L 140.46 96.08 L 140.70 96.04 L 140.93 96.00 L 141.17 95.96 L 141.41 95.92 L 141.64 95.88 L 141.88 95.83 L 142.12 95.79 L 142.35 95.74 L 142.59 95.69 L 142.83 95.64 L 143.06 95.60 L 143.30 95.55 L 143.54 95.50 L 143.77 95.44 L 144.01 95.39 L 144.25 95.34 L 144.49 95.28 L 144.72 95.23 L 144.96 95.17 L 145.20 95.12 L 145.43 95.06 L 145.67 95.00 L 145.91 94.94 L 146.14 94.88 L 146.38 94.82 L 146.62 94.75 L 146.85 94.69 L 147.09 94.62 L 147.33 94.56 L 147.56 94.49 L 147.80 94.43 L 148.04 94.36 L 148.28 94.29 L 148.51 94.22 L 148.75 94.15 L 148.99 94.08 L 149.22 94.00 L 149.46 93.93 L 149.70 93.85 L 149.93 93.78 L 150.17 93.70 L 150.41 93.63 L 150.64 93.55 L 150.88 93.47 L 151.12 93.39 L 151.35 93.31 L 151.59 93.23 L 151.83 93.15 L 152.07 93.07 L 152.30 92.98 L 152.54 92.90 L 152.78 92.81 L 153.01 92.73 L 153.25 92.64 L 153.49 92.56 L 153.72 92.47 L 153.96 92.38 L 154.20 92.29 L 154.43 92.20 L 154.67 92.11 L 154.91 92.02 L 155.14 91.93 L 155.38 91.84 L 155.62 91.75 L 155.85 91.66 L 156.09 91.57 L 156.33 91.47 L 156.57 91.38 L 156.80 91.29 L 157.04 91.19 L 157.28 91.10 L 157.51 91.00 L 157.75 90.91 L 157.99 90.81 L 158.22 90.72 L 158.46 90.62 L 158.70 90.53 L 158.93 90.43 L 159.17 90.34 L 159.41 90.24 L 159.64 90.14 L 159.88 90.05 L 160.12 89.95 L 160.36 89.86 L 160.59 89.76 L 160.83 89.66 L 161.07 89.57 L 161.30 89.47 L 161.54 89.38 L 161.78 89.28 L 162.01 89.19 L 162.25 89.09 L 162.49 89.00 L 162.72 88.90 L 162.96 88.81 L 163.20 88.71 L 163.43 88.62 L 163.67 88.53 L 163.91 88.43 L 164.15 88.34 L 164.38 88.25 L 164.62 88.16 L 164.86 88.07 L 165.09 87.98 L 165.33 87.89 L 165.57 87.80 L 165.80 87.71 L 166.04 87.62 L 166.28 87.53 L 166.51 87.44 L 166.75 87.36 L 166.99 87.27 L 167.22 87.19 L 167.46 87.10 L 167.70 87.02 L 167.93 86.93 L 168.17 86.85 L 168.41 86.77 L 168.65 86.69 L 168.88 86.61 L 169.12 86.53 L 169.36 86.45 L 169.59 86.37 L 169.83 86.30 L 170.07 86.22 L 170.30 86.15 L 170.54 86.07 L 170.78 86.00 L 171.01 85.92 L 171.25 85.85 L 171.49 85.78 L 171.72 85.71 L 171.96 85.64 L 172.20 85.57 L 172.44 85.51 L 172.67 85.44 L 172.91 85.38 L 173.15 85.31 L 173.38 85.25 L 173.62 85.18 L 173.86 85.12 L 174.09 85.06 L 174.33 85.00 L 174.57 84.94 L 174.80 84.88 L 175.04 84.83 L 175.28 84.77 L 175.51 84.72 L 175.75 84.66 L 175.99 84.61 L 176.23 84.56 L 176.46 84.50 L 176.70 84.45 L 176.94 84.40 L 177.17 84.36 L 177.41 84.31 L 177.65 84.26 L 177.88 84.21 L 178.12 84.17 L 178.36 84.12 L 178.59 84.08 L 178.83 84.04 L 179.07 84.00 L 179.30 83.96 L 179.54 83.92 L 179.78 83.88 L 180.02 83.84 L 180.25 83.80 L 180.49 83.77 L 180.73 83.73 L 180.96 83.70 L 181.20 83.66 L 181.44 83.63 L 181.67 83.60 L 181.91 83.56 L 182.15 83.53 L 182.38 83.50 L 182.62 83.47 L 182.86 83.45 L 183.09 83.42 L 183.33 83.39 L 183.57 83.36 L 183.80 83.34 L 184.04 83.31 L 184.28 83.29 L 184.52 83.27 L 184.75 83.24 L 184.99 83.22 L 185.23 83.20 L 185.46 83.18 L 185.70 83.16 L 185.94 83.14 L 186.17 83.12 L 186.41 83.10 L 186.65 83.09 L 186.88 83.07 L 187.12 83.05 L 187.36 83.04 L 187.59 83.02 L 187.83 83.01 L 188.07 82.99 L 188.31 82.98 L 188.54 82.97 L 188.78 82.96 L 189.02 82.94 L 189.25 82.93 L 189.49 82.92 L 189.73 82.91 L 189.96 82.90 L 190.20 82.89 L 190.44 82.88 L 190.67 82.88 L 190.91 82.87 L 191.15 82.86 L 191.38 82.85 L 191.62 82.85 L 191.86 82.84 L 192.10 82.84 L 192.33 82.83 L 192.57 82.83 L 192.81 82.82 L 193.04 82.82 L 193.28 82.81 L 193.52 82.81 L 193.75 82.81 L 193.99 82.81 L 194.23 82.80 L 194.46 82.80 L 194.70 82.80 L 194.94 82.80 L 195.17 82.80 L 195.41 82.80 L 195.65 82.80 L 195.88 82.80 L 196.12 82.80 L 196.36 82.80 L 196.60 82.80 L 196.83 82.80 L 197.07 82.81 L 197.31 82.81 L 197.54 82.81 L 197.78 82.81 L 198.02 82.82 L 198.25 82.82 L 198.49 82.82 L 198.73 82.83 L 198.96 82.83 L 199.20 82.84 L 199.44 82.84 L 199.67 82.84 L 199.91 82.85 L 200.15 82.85 L 200.39 82.86 L 200.62 82.86 L 200.86 82.87 L 201.10 82.88 L 201.33 82.88 L 201.57 82.89 L 201.81 82.90 L 202.04 82.90 L 202.28 82.91 L 202.52 82.92 L 202.75 82.92 L 202.99 82.93 L 203.23 82.94 L 203.46 82.95 L 203.70 82.95 L 203.94 82.96 L 204.18 82.97 L 204.41 82.98 L 204.65 82.99 L 204.89 82.99 L 205.12 83.00 L 205.36 83.01 L 205.60 83.02 L 205.83 83.03 L 206.07 83.04 L 206.31 83.05 L 206.54 83.06 L 206.78 83.07 L 207.02 83.08 L 207.25 83.08 L 207.49 83.09 L 207.73 83.10 L 207.96 83.11 L 208.20 83.12 L 208.44 83.13 L 208.68 83.14 L 208.91 83.15 L 209.15 83.16 L 209.39 83.18 L 209.62 83.19 L 209.86 83.20 L 210.10 83.21 L 210.33 83.22 L 210.57 83.23 L 210.81 83.24 L 211.04 83.25 L 211.28 83.26 L 211.52 83.27 L 211.75 83.28 L 211.99 83.29 L 212.23 83.31 L 212.47 83.32 L 212.70 83.33 L 212.94 83.34 L 213.18 83.35 L 213.41 83.36 L 213.65 83.37 L 213.89 83.38 L 214.12 83.40 L 214.36 83.41 L 214.60 83.42 L 214.83 83.43 L 215.07 83.44 L 215.31 83.45 L 215.54 83.47 L 215.78 83.48 L 216.02 83.49 L 216.26 83.50 L 216.49 83.51 L 216.73 83.52 L 216.97 83.54 L 217.20 83.55 L 217.44 83.56 L 217.68 83.57 L 217.91 83.58 L 218.15 83.60 L 218.39 83.61 L 218.62 83.62 L 218.86 83.63 L 219.10 83.64 L 219.33 83.66 L 219.57 83.67 L 219.81 83.68 L 220.05 83.69 L 220.28 83.70 L 220.52 83.72 L 220.76 83.73 L 220.99 83.74 L 221.23 83.75 L 221.47 83.76 L 221.70 83.78 L 221.94 83.79 L 222.18 83.80 L 222.41 83.81 L 222.65 83.82 L 222.89 83.84 L 223.12 83.85 L 223.36 83.86 L 223.60 83.87 L 223.83 83.88 L 224.07 83.90 L 224.31 83.91 L 224.55 83.92 L 224.78 83.93 L 225.02 83.94 L 225.26 83.96 L 225.49 83.97 L 225.73 83.98 L 225.97 83.99 L 226.20 84.00 L 226.44 84.01 L 226.68 84.03 L 226.91 84.04 L 227.15 84.05 L 227.39 84.06 L 227.62 84.07 L 227.86 84.09 L 228.10 84.10 L 228.34 84.11 L 228.57 84.12 L 228.81 84.13 L 229.05 84.14 L 229.28 84.16 L 229.52 84.17 L 229.76 84.18 L 229.99 84.19 L 230.23 84.20 L 230.47 84.21 L 230.70 84.23 L 230.94 84.24 L 231.18 84.25 L 231.41 84.26 L 231.65 84.27 L 231.89 84.28 L 232.13 84.29 L 232.36 84.31 L 232.60 84.32 L 232.84 84.33 L 233.07 84.34 L 233.31 84.35 L 233.55 84.36 L 233.78 84.37 L 234.02 84.39 L 234.26 84.40 L 234.49 84.41 L 234.73 84.42 L 234.97 84.43 L 235.20 84.44 L 235.44 84.45 L 235.68 84.46 L 235.91 84.47 L 236.15 84.49 L 236.39 84.50 L 236.63 84.51 L 236.86 84.52 L 237.10 84.53 L 237.34 84.54 L 237.57 84.55 L 237.81 84.56 L 238.05 84.57 L 238.28 84.58 L 238.52 84.59 L 238.76 84.61 L 238.99 84.62 L 239.23 84.63 L 239.47 84.64 L 239.70 84.65 L 239.94 84.66 L 240.18 84.67 L 240.42 84.68 L 240.65 84.69 L 240.89 84.70 L 241.13 84.71 L 241.36 84.72 L 241.60 84.73 L 241.84 84.74 L 242.07 84.75 L 242.31 84.76 L 242.55 84.77 L 242.78 84.78 L 243.02 84.79 L 243.26 84.80 L 243.49 84.81 L 243.73 84.82 L 243.97 84.84 L 244.21 84.85 L 244.44 84.86 L 244.68 84.87 L 244.92 84.88 L 245.15 84.89 L 245.39 84.90 L 245.63 84.91 L 245.86 84.92 L 246.10 84.93 L 246.34 84.94 L 246.57 84.95 L 246.81 84.95 L 247.05 84.96 L 247.28 84.97 L 247.52 84.98 L 247.76 84.99 L 247.99 85.00 L 248.23 85.01 L 248.47 85.02 L 248.71 85.03 L 248.94 85.04 L 249.18 85.05 L 249.42 85.06 L 249.65 85.07 L 249.89 85.08 L 250.13 85.09 L 250.36 85.10 L 250.60 85.11 L 250.84 85.12 L 251.07 85.13 L 251.31 85.14 L 251.55 85.15 L 251.78 85.16 L 252.02 85.16 L 252.26 85.17 L 252.50 85.18 L 252.73 85.19 L 252.97 85.20 L 253.21 85.21 L 253.44 85.22 L 253.68 85.23 L 253.92 85.24 L 254.15 85.25 L 254.39 85.26 L 254.63 85.26 L 254.86 85.27 L 255.10 85.28 L 255.34 85.29 L 255.57 85.30 L 255.81 85.31 L 256.05 85.32 L 256.29 85.33 L 256.52 85.33 L 256.76 85.34 L 257.00 85.35 L 257.23 85.36 L 257.47 85.37 L 257.71 85.38 L 257.94 85.39 L 258.18 85.40 L 258.42 85.40 L 258.65 85.41 L 258.89 85.42 L 259.13 85.43 L 259.36 85.44 L 259.60 85.45 L 259.84 85.45 L 260.08 85.46 L 260.31 85.47 L 260.55 85.48 L 260.79 85.49 L 261.02 85.50 L 261.26 85.50 L 261.50 85.51 L 261.73 85.52 L 261.97 85.53 L 262.21 85.54 L 262.44 85.54 L 262.68 85.55 L 262.92 85.56 L 263.15 85.57 L 263.39 85.58 L 263.63 85.59 L 263.86 85.59 L 264.10 85.60 L 264.34 85.61 L 264.58 85.62 L 264.81 85.62 L 265.05 85.63 L 265.29 85.64 L 265.52 85.65 L 265.76 85.66 L 266.00 85.66 L 266.23 85.67 L 266.47 85.68 L 266.71 85.69 L 266.94 85.69 L 267.18 85.70 L 267.42 85.71 L 267.65 85.72 L 267.89 85.72 L 268.13 85.73 L 268.37 85.74 L 268.60 85.75 L 268.84 85.75 L 269.08 85.76 L 269.31 85.77 L 269.55 85.78 L 269.79 85.78 L 270.02 85.79 L 270.26 85.80 L 270.50 85.81 L 270.73 85.81 L 270.97 85.82 L 271.21 85.83 L 271.44 85.84 L 271.68 85.84 L 271.92 85.85 L 272.16 85.86 L 272.39 85.86 L 272.63 85.87 L 272.87 85.88 L 273.10 85.89 L 273.34 85.89 L 273.58 85.90 L 273.81 85.91 L 274.05 85.91 L 274.29 85.92 L 274.52 85.93 L 274.76 85.93 L 275.00 85.94 L 275.23 85.95 L 275.47 85.96 L 275.71 85.96 L 275.94 85.97 L 276.18 85.98 L 276.42 85.98 L 276.66 85.99 L 276.89 86.00 L 277.13 86.00 L 277.37 86.01 L 277.60 86.02 L 277.84 86.02 L 278.08 86.03 L 278.31 86.04 L 278.55 86.04 L 278.79 86.05 L 279.02 86.06 L 279.26 86.06 L 279.50 86.07 L 279.73 86.08 L 279.97 86.08 L 280.21 86.09 L 280.45 86.09 L 280.68 86.10 L 280.92 86.11 L 281.16 86.11 L 281.39 86.12 L 281.63 86.13 L 281.87 86.13 L 282.10 86.14 L 282.34 86.15 L 282.58 86.15 L 282.81 86.16 L 283.05 86.16 L 283.29 86.17 L 283.52 86.18 L 283.76 86.18 L 284.00 86.19 L 284.24 86.20 L 284.47 86.20 L 284.71 86.21 L 284.95 86.21 L 285.18 86.22 L 285.42 86.23 L 285.66 86.23 L 285.89 86.24 L 286.13 86.24 L 286.37 86.25 L 286.60 86.26 L 286.84 86.26 L 287.08 86.27 L 287.31 86.27 L 287.55 86.28 L 287.79 86.29 L 288.03 86.29 L 288.26 86.30 L 288.50 86.30 L 288.74 86.31 L 288.97 86.32 L 289.21 86.32 L 289.45 86.33 L 289.68 86.33 L 289.92 86.34 L 290.16 86.34 L 290.39 86.35 L 290.63 86.36 L 290.87 86.36 L 291.10 86.37 L 291.34 86.37 L 291.58 86.38 L 291.81 86.38 L 292.05 86.39 L 292.29 86.40 L 292.53 86.40 L 292.76 86.41 L 293.00 86.41 L 293.24 86.42 L 293.47 86.42 L 293.71 86.43 L 293.95 86.43 L 294.18 86.44 L 294.42 86.44 L 294.66 86.45 L 294.89 86.46 L 295.13 86.46 L 295.37 86.47 L 295.60 86.47 L 295.84 86.48 L 296.08 86.48 L 296.32 86.49 L 296.55 86.49 L 296.79 86.50 L 297.03 86.50 L 297.26 86.51 L 297.50 86.51 L 297.74 86.52 L 297.97 86.52 L 298.21 86.53 L 298.45 86.54 L 298.68 86.54 L 298.92 86.55 L 299.16 86.55 L 299.39 86.56 L 299.63 86.56 L 299.87 86.57 L 300.11 86.57 L 300.34 86.58 L 300.58 86.58 L 300.82 86.59 L 301.05 86.59 L 301.29 86.60 L 301.53 86.60 L 301.76 86.61 L 302.00 86.61" fill="none" stroke="#7E8692" stroke-width="2.3" stroke-linecap="round" stroke-linejoin="round"/>
</svg>
