<svg xmlns="http://www.w3.org/2000/svg" viewBox="0 0 320 180" width="320" height="180">
  <rect width="320" height="180" fill="#F4F5F7"/>
  <path d="M 18.00 127.58 L 18.20 126.12 L 18.41 124.73 L 18.61 123.38 L 18.81 122.09 L 19.02 120.84 L 19.22 119.64 L 19.42 118.48 L 19.62 117.36 L 19.83 116.27 L 20.03 115.22 L 20.23 114.20 L 20.44 113.20 L 20.64 112.24 L 20.84 111.30 L 21.05 110.39 L 21.25 109.50 L 21.45 108.64 L 21.65 107.79 L 21.86 106.97 L 22.06 106.16 L 22.26 105.38 L 22.47 104.61 L 22.67 103.86 L 22.87 103.12 L 23.08 102.40 L 23.28 101.70 L 23.48 101.01 L 23.68 100.33 L 23.89 99.67 L 24.09 99.02 L 24.29 98.38 L 24.50 97.76 L 24.70 97.14 L 24.90 96.54 L 25.11 95.94 L 25.31 95.36 L 25.51 94.79 L 25.71 94.22 L 25.92 93.67 L 26.12 93.13 L 26.32 92.59 L 26.53 92.06 L 26.73 91.54 L 26.93 91.03 L 27.14 90.52 L 27.34 90.03 L 27.54 89.54 L 27.74 89.06 L 27.95 88.58 L 28.15 88.11 L 28.35 87.65 L 28.56 87.19 L 28.76 86.74 L 28.96 86.30 L 29.17 85.86 L 29.37 85.43 L 29.57 85.00 L 29.77 84.58 L 29.98 84.16 L 30.18 83.75 L 30.38 83.35 L 30.59 82.94 L 30.79 82.55 L 30.99 82.16 L 31.20 81.77 L 31.40 81.39 L 31.60 81.01 L 31.80 80.63 L 32.01 80.26 L 32.21 79.90 L 32.41 79.54 L 32.62 79.18 L 32.82 78.83 L 33.02 78.48 L 33.23 78.13 L 33.43 77.79 L 33.63 77.45 L 33.83 77.11 L 34.04 76.78 L 34.24 76.45 L 34.44 76.12 L 34.65 75.80 L 34.85 75.48 L 35.05 75.17 L 35.26 74.85 L 35.46 74.54 L 35.66 74.24 L 35.86 73.93 L 36.07 73.63 L 36.27 73.33 L 36.47 73.04 L 36.68 72.74 L 36.88 72.45 L 37.08 72.16 L 37.29 71.88 L 37.49 71.60 L 37.69 71.32 L 37.89 71.04 L 38.10 70.76 L 38.30 70.49 L 38.50 70.22 L 38.71 69.95 L 38.91 69.68 L 39.11 69.42 L 39.32 69.16 L 39.52 68.90 L 39.72 68.64 L 39.92 68.38 L 40.13 68.13 L 40.33 67.88 L 40.53 67.63 L 40.74 67.38 L 40.94 67.14 L 41.14 66.89 L 41.35 66.65 L 41.55 66.41 L 41.75 66.17 L 41.95 65.93 L 42.16 65.70 L 42.36 65.47 L 42.56 65.24 L 42.77 65.01 L 42.97 64.78 L 43.17 64.55 L 43.38 64.33 L 43.58 64.11 L 43.78 63.88 L 43.98 63.66 L 44.19 63.45 L 44.39 63.23 L 44.59 63.02 L 44.80 62.80 L 45.00 62.59 L 45.20 62.38 L 45.41 62.17 L 45.61 61.96 L 45.81 61.76 L 46.01 61.55 L 46.22 61.35 L 46.42 61.15 L 46.62 60.94 L 46.83 60.75 L 47.03 60.55 L 47.23 60.35 L 47.44 60.15 L 47.64 59.96 L 47.84 59.77 L 48.04 59.58 L 48.25 59.39 L 48.45 59.20 L 48.65 59.01 L 48.86 58.82 L 49.06 58.63 L 49.26 58.45 L 49.47 58.27 L 49.67 58.08 L 49.87 57.90 L 50.07 57.72 L 50.28 57.54 L 50.48 57.37 L 50.68 57.19 L 50.89 57.01 L 51.09 56.84 L 51.29 56.67 L 51.50 56.49 L 51.70 56.32 L 51.90 56.15 L 52.10 55.98 L 52.31 55.81 L 52.51 55.64 L 52.71 55.48 L 52.92 55.31 L 53.12 55.15 L 53.32 54.98 L 53.53 54.82 L 53.73 54.66 L 53.93 54.50 L 54.13 54.34 L 54.34 54.18 L 54.54 54.02 L 54.74 53.86 L 54.95 53.71 L 55.15 53.55 L 55.35 53.40 L 55.56 53.24 L 55.76 53.09 L 55.96 52.94 L 56.16 52.79 L 56.37 52.64 L 56.57 52.49 L 56.77 52.34 L 56.98 52.19 L 57.18 52.04 L 57.38 51.90 L 57.59 51.75 L 57.79 51.60 L 57.99 51.46 L 58.19 51.32 L 58.40 51.17 L 58.60 51.03 L 58.80 50.89 L 59.01 50.75 L 59.21 50.61 L 59.41 50.47 L 59.62 50.33 L 59.82 50.20 L 60.02 50.06 L 60.22 49.92 L 60.43 49.79 L 60.63 49.65 L 60.83 49.52 L 61.04 49.39 L 61.24 49.25 L 61.44 49.12 L 61.65 48.99 L 61.85 48.86 L 62.05 48.73 L 62.25 48.60 L 62.46 48.47 L 62.66 48.34 L 62.86 48.22 L 63.07 48.09 L 63.27 47.96 L 63.47 47.84 L 63.68 47.71 L 63.88 47.59 L 64.08 47.47 L 64.28 47.34 L 64.49 47.22 L 64.69 47.10 L 64.89 46.98 L 65.10 46.86 L 65.30 46.74 L 65.50 46.62 L 65.71 46.50 L 65.91 46.38 L 66.11 46.26 L 66.31 46.14 L 66.52 46.03 L 66.72 45.91 L 66.92 45.80 L 67.13 45.68 L 67.33 45.57 L 67.53 45.45 L 67.74 45.34 L 67.94 45.23 L 68.14 45.11 L 68.34 45.00 L 68.55 44.89 L 68.75 44.78 L 68.95 44.67 L 69.16 44.56 L 69.36 44.45 L 69.56 44.34 L 69.77 44.23 L 69.97 44.13 L 70.17 44.02 L 70.37 43.91 L 70.58 43.81 L 70.78 43.70 L 70.98 43.60 L 71.19 43.49 L 71.39 43.39 L 71.59 43.28 L 71.80 43.18 L 72.00 43.08 L 72.20 42.97 L 72.40 42.87 L 72.61 42.77 L 72.81 42.67 L 73.01 42.57 L 73.22 42.47 L 73.42 42.37 L 73.62 42.27 L 73.83 42.17 L 74.03 42.07 L 74.23 41.98 L 74.43 41.88 L 74.64 41.78 L 74.84 41.68 L 75.04 41.59 L 75.25 41.49 L 75.45 41.40 L 75.65 41.30 L 75.86 41.21 L 76.06 41.11 L 76.26 41.02 L 76.46 40.93 L 76.67 40.84 L 76.87 40.74 L 77.07 40.65 L 77.28 40.56 L 77.48 40.47 L 77.68 40.38 L 77.89 40.29 L 78.09 40.20 L 78.29 40.11 L 78.49 40.02 L 78.70 39.93 L 78.90 39.84 L 79.10 39.75 L 79.31 39.67 L 79.51 39.58 L 79.71 39.49 L 79.92 39.41 L 80.12 39.32 L 80.32 39.24 L 80.52 39.15 L 80.73 39.07 L 80.93 38.98 L 81.13 38.90 L 81.34 38.81 L 81.54 38.73 L 81.74 38.65 L 81.95 38.56 L 82.15 38.48 L 82.35 38.40 L 82.55 38.32 L 82.76 38.24 L 82.96 38.16 L 83.16 38.08 L 83.37 37.99 L 83.57 37.92 L 83.77 37.84 L 83.98 37.76 L 84.18 37.68 L 84.38 37.60 L 84.58 37.52 L 84.79 37.44 L 84.99 37.37 L 85.19 37.29 L 85.40 37.21 L 85.60 37.14 L 85.80 37.06 L 86.01 36.98 L 86.21 36.91 L 86.41 36.83 L 86.61 36.76 L 86.82 36.68 L 87.02 36.61 L 87.22 36.54 L 87.43 36.46 L 87.63 36.39 L 87.83 36.32 L 88.04 36.24 L 88.24 36.17 L 88.44 36.10 L 88.64 36.03 L 88.85 35.96 L 89.05 35.89 L 89.25 35.82 L 89.46 35.74 L 89.66 35.67 L 89.86 35.61 L 90.07 35.54 L 90.27 35.47 L 90.47 35.40 L 90.67 35.33 L 90.88 35.26 L 91.08 35.19 L 91.28 35.13 L 91.49 35.06 L 91.69 34.99 L 91.89 34.92 L 92.10 34.86 L 92.30 34.79 L 92.50 34.73 L 92.70 34.66 L 92.91 34.59 L 93.11 34.53 L 93.31 34.46 L 93.52 34.40 L 93.72 34.34 L 93.92 34.27 L 94.13 34.21 L 94.33 34.15 L 94.53 34.08 L 94.73 34.02 L 94.94 33.96 L 95.14 33.89 L 95.34 33.83 L 95.55 33.77 L 95.75 33.71 L 95.95 33.65 L 96.16 33.59 L 96.36 33.53 L 96.56 33.47 L 96.76 33.41 L 96.97 33.35 L 97.17 33.29 L 97.37 33.23 L 97.58 33.17 L 97.78 33.11 L 97.98 33.05 L 98.19 32.99 L 98.39 32.94 L 98.59 32.88 L 98.79 32.82 L 99.00 32.76 L 99.20 32.71 L 99.40 32.65 L 99.61 32.59 L 99.81 32.54 L 100.01 32.48 L 100.22 32.43 L 100.42 32.37 L 100.62 32.31 L 100.82 32.26 L 101.03 32.21 L 101.23 32.15 L 101.43 32.10 L 101.64 32.04 L 101.84 31.99 L 102.04 31.94 L 102.25 31.88 L 102.45 31.83 L 102.65 31.78 L 102.85 31.72 L 103.06 31.67 L 103.26 31.62 L 103.46 31.57 L 103.67 31.52 L 103.87 31.47 L 104.07 31.41 L 104.28 31.36 L 104.48 31.31 L 104.68 31.26 L 104.88 31.21 L 105.09 31.16 L 105.29 31.11 L 105.49 31.06 L 105.70 31.02 L 105.90 30.97 L 106.10 30.92 L 106.31 30.87 L 106.51 30.82 L 106.71 30.77 L 106.91 30.73 L 107.12 30.68 L 107.32 30.63 L 107.52 30.58 L 107.73 30.54 L 107.93 30.49 L 108.13 30.44 L 108.34 30.40 L 108.54 30.35 L 108.74 30.31 L 108.94 30.26 L 109.15 30.22 L 109.35 30.17 L 109.55 30.13 L 109.76 30.08 L 109.96 30.04 L 110.16 29.99 L 110.37 29.95 L 110.57 29.90 L 110.77 29.86 L 110.97 29.82 L 111.18 29.77 L 111.38 29.73 L 111.58 29.69 L 111.79 29.65 L 111.99 29.60 L 112.19 29.56 L 112.40 29.52 L 112.60 29.48 L 112.80 29.44 L 113.01 29.40 L 113.21 29.36 L 113.41 29.31 L 113.61 29.27 L 113.82 29.23 L 114.02 29.19 L 114.22 29.15 L 114.43 29.11 L 114.63 29.07 L 114.83 29.04 L 115.04 29.00 L 115.24 28.96 L 115.44 28.92 L 115.64 28.88 L 115.85 28.84 L 116.05 28.80 L 116.25 28.77 L 116.46 28.73 L 116.66 28.69 L 116.86 28.65 L 117.07 28.62 L 117.27 28.58 L 117.47 28.54 L 117.67 28.51 L 117.88 28.47 L 118.08 28.44 L 118.28 28.40 L 118.49 28.36 L 118.69 28.33 L 118.89 28.29 L 119.10 28.26 L 119.30 28.22 L 119.50 28.19 L 119.70 28.15 L 119.91 28.12 L 120.11 28.09 L 120.31 28.05 L 120.52 28.02 L 120.72 27.99 L 120.92 27.95 L 121.13 27.92 L 121.33 27.89 L 121.53 27.85 L 121.73 27.82 L 121.94 27.79 L 122.14 27.76 L 122.34 27.72 L 122.55 27.69 L 122.75 27.66 L 122.95 27.63 L 123.16 27.60 L 123.36 27.57 L 123.56 27.54 L 123.76 27.51 L 123.97 27.48 L 124.17 27.45 L 124.37 27.42 L 124.58 27.39 L 124.78 27.36 L 124.98 27.33 L 125.19 27.30 L 125.39 27.27 L 125.59 27.24 L 125.79 27.21 L 126.00 27.18 L 126.20 27.15 L 126.40 27.13 L 126.61 27.10 L 126.81 27.07 L 127.01 27.04 L 127.22 27.02 L 127.42 26.99 L 127.62 26.96 L 127.82 26.93 L 128.03 26.91 L 128.23 26.88 L 128.43 26.85 L 128.64 26.83 L 128.84 26.80 L 129.04 26.78 L 129.25 26.75 L 129.45 26.73 L 129.65 26.70 L 129.85 26.68 L 130.06 26.65 L 130.26 26.63 L 130.46 26.60 L 130.67 26.58 L 130.87 26.55 L 131.07 26.53 L 131.28 26.51 L 131.48 26.48 L 131.68 26.46 L 131.88 26.44 L 132.09 26.41 L 132.29 26.39 L 132.49 26.37 L 132.70 26.34 L 132.90 26.32 L 133.10 26.30 L 133.31 26.28 L 133.51 26.26 L 133.71 26.23 L 133.91 26.21 L 134.12 26.19 L 134.32 26.17 L 134.52 26.15 L 134.73 26.13 L 134.93 26.11 L 135.13 26.09 L 135.34 26.07 L 135.54 26.05 L 135.74 26.03 L 135.94 26.01 L 136.15 25.99 L 136.35 25.97 L 136.55 25.95 L 136.76 25.93 L 136.96 25.91 L 137.16 25.89 L 137.37 25.87 L 137.57 25.86 L 137.77 25.84 L 137.97 25.82 L 138.18 25.80 L 138.38 25.78 L 138.58 25.77 L 138.79 25.75 L 138.99 25.73 L 139.19 25.72 L 139.40 25.70 L 139.60 25.68 L 139.80 25.67 L 140.00 25.65 L 140.21 25.63 L 140.41 25.62 L 140.61 25.60 L 140.82 25.59 L 141.02 25.57 L 141.22 25.56 L 141.43 25.54 L 141.63 25.53 L 141.83 25.51 L 142.03 25.50 L 142.24 25.48 L 142.44 25.47 L 142.64 25.45 L 142.85 25.44 L 143.05 25.43 L 143.25 25.41 L 143.46 25.40 L 143.66 25.38 L 143.86 25.37 L 144.06 25.36 L 144.27 25.35 L 144.47 25.33 L 144.67 25.32 L 144.88 25.31 L 145.08 25.30 L 145.28 25.28 L 145.49 25.27 L 145.69 25.26 L 145.89 25.25 L 146.09 25.24 L 146.30 25.23 L 146.50 25.22 L 146.70 25.21 L 146.91 25.20 L 147.11 25.18 L 147.31 25.17 L 147.52 25.16 L 147.72 25.15 L 147.92 25.14 L 148.12 25.14 L 148.33 25.13 L 148.53 25.12 L 148.73 25.11 L 148.94 25.10 L 149.14 25.09 L 149.34 25.08 L 149.55 25.07 L 149.75 25.06 L 149.95 25.06 L 150.15 25.05 L 150.36 25.04 L 150.56 25.03 L 150.76 25.03 L 150.97 25.02 L 151.17 25.01 L 151.37 25.00 L 151.58 25.00 L 151.78 24.99 L 151.98 24.98 L 152.18 24.98 L 152.39 24.97 L 152.59 24.97 L 152.79 24.96 L 153.00 24.95 L 153.20 24.95 L 153.40 24.94 L 153.61 24.94 L 153.81 24.93 L 154.01 24.93 L 154.21 24.92 L 154.42 24.92 L 154.62 24.91 L 154.82 24.91 L 155.03 24.91 L 155.23 24.90 L 155.43 24.90 L 155.64 24.89 L 155.84 24.89 L 156.04 24.89 L 156.24 24.88 L 156.45 24.88 L 156.65 24.88 L 156.85 24.88 L 157.06 24.87 L 157.26 24.87 L 157.46 24.87 L 157.67 24.87 L 157.87 24.87 L 158.07 24.86 L 158.27 24.86 L 158.48 24.86 L 158.68 24.86 L 158.88 24.86 L 159.09 24.86 L 159.29 24.86 L 159.49 24.86 L 159.70 24.86 L 159.90 24.86 L 160.10 24.86 L 160.30 24.86 L 160.51 24.86 L 160.71 24.86 L 160.91 24.86 L 161.12 24.86 L 161.32 24.86 L 161.52 24.86 L 161.73 24.86 L 161.93 24.86 L 162.13 24.87 L 162.33 24.87 L 162.54 24.87 L 162.74 24.87 L 162.94 24.87 L 163.15 24.88 L 163.35 24.88 L 163.55 24.88 L 163.76 24.88 L 163.96 24.89 L 164.16 24.89 L 164.36 24.89 L 164.57 24.90 L 164.77 24.90 L 164.97 24.91 L 165.18 24.91 L 165.38 24.91 L 165.58 24.92 L 165.79 24.92 L 165.99 24.93 L 166.19 24.93 L 166.39 24.94 L 166.60 24.94 L 166.80 24.95 L 167.00 24.95 L 167.21 24.96 L 167.41 24.97 L 167.61 24.97 L 167.82 24.98 L 168.02 24.98 L 168.22 24.99 L 168.42 25.00 L 168.63 25.00 L 168.83 25.01 L 169.03 25.02 L 169.24 25.03 L 169.44 25.03 L 169.64 25.04 L 169.85 25.05 L 170.05 25.06 L 170.25 25.06 L 170.45 25.07 L 170.66 25.08 L 170.86 25.09 L 171.06 25.10 L 171.27 25.11 L 171.47 25.12 L 171.67 25.13 L 171.88 25.14 L 172.08 25.14 L 172.28 25.15 L 172.48 25.16 L 172.69 25.17 L 172.89 25.18 L 173.09 25.20 L 173.30 25.21 L 173.50 25.22 L 173.70 25.23 L 173.91 25.24 L 174.11 25.25 L 174.31 25.26 L 174.51 25.27 L 174.72 25.28 L 174.92 25.30 L 175.12 25.31 L 175.33 25.32 L 175.53 25.33 L 175.73 25.35 L 175.94 25.36 L 176.14 25.37 L 176.34 25.38 L 176.54 25.40 L 176.75 25.41 L 176.95 25.43 L 177.15 25.44 L 177.36 25.45 L 177.56 25.47 L 177.76 25.48 L 177.97 25.50 L 178.17 25.51 L 178.37 25.53 L 178.57 25.54 L 178.78 25.56 L 178.98 25.57 L 179.18 25.59 L 179.39 25.60 L 179.59 25.62 L 179.79 25.63 L 180.00 25.65 L 180.20 25.67 L 180.40 25.68 L 180.60 25.70 L 180.81 25.72 L 181.01 25.73 L 181.21 25.75 L 181.42 25.77 L 181.62 25.78 L 181.82 25.80 L 182.03 25.82 L 182.23 25.84 L 182.43 25.86 L 182.63 25.87 L 182.84 25.89 L 183.04 25.91 L 183.24 25.93 L 183.45 25.95 L 183.65 25.97 L 183.85 25.99 L 184.06 26.01 L 184.26 26.03 L 184.46 26.05 L 184.66 26.07 L 184.87 26.09 L 185.07 26.11 L 185.27 26.13 L 185.48 26.15 L 185.68 26.17 L 185.88 26.19 L 186.09 26.21 L 186.29 26.23 L 186.49 26.26 L 186.69 26.28 L 186.90 26.30 L 187.10 26.32 L 187.30 26.34 L 187.51 26.37 L 187.71 26.39 L 187.91 26.41 L 188.12 26.44 L 188.32 26.46 L 188.52 26.48 L 188.72 26.51 L 188.93 26.53 L 189.13 26.55 L 189.33 26.58 L 189.54 26.60 L 189.74 26.63 L 189.94 26.65 L 190.15 26.68 L 190.35 26.70 L 190.55 26.73 L 190.75 26.75 L 190.96 26.78 L 191.16 26.80 L 191.36 26.83 L 191.57 26.85 L 191.77 26.88 L 191.97 26.91 L 192.18 26.93 L 192.38 26.96 L 192.58 26.99 L 192.78 27.02 L 192.99 27.04 L 193.19 27.07 L 193.39 27.10 L 193.60 27.13 L 193.80 27.15 L 194.00 27.18 L 194.21 27.21 L 194.41 27.24 L 194.61 27.27 L 194.81 27.30 L 195.02 27.33 L 195.22 27.36 L 195.42 27.39 L 195.63 27.42 L 195.83 27.45 L 196.03 27.48 L 196.24 27.51 L 196.44 27.54 L 196.64 27.57 L 196.84 27.60 L 197.05 27.63 L 197.25 27.66 L 197.45 27.69 L 197.66 27.72 L 197.86 27.76 L 198.06 27.79 L 198.27 27.82 L 198.47 27.85 L 198.67 27.89 L 198.87 27.92 L 199.08 27.95 L 199.28 27.99 L 199.48 28.02 L 199.69 28.05 L 199.89 28.09 L 200.09 28.12 L 200.30 28.15 L 200.50 28.19 L 200.70 28.22 L 200.90 28.26 L 201.11 28.29 L 201.31 28.33 L 201.51 28.36 L 201.72 28.40 L 201.92 28.44 L 202.12 28.47 L 202.33 28.51 L 202.53 28.54 L 202.73 28.58 L 202.93 28.62 L 203.14 28.65 L 203.34 28.69 L 203.54 28.73 L 203.75 28.77 L 203.95 28.80 L 204.15 28.84 L 204.36 28.88 L 204.56 28.92 L 204.76 28.96 L 204.96 29.00 L 205.17 29.04 L 205.37 29.07 L 205.57 29.11 L 205.78 29.15 L 205.98 29.19 L 206.18 29.23 L 206.39 29.27 L 206.59 29.31 L 206.79 29.36 L 206.99 29.40 L 207.20 29.44 L 207.40 29.48 L 207.60 29.52 L 207.81 29.56 L 208.01 29.60 L 208.21 29.65 L 208.42 29.69 L 208.62 29.73 L 208.82 29.77 L 209.03 29.82 L 209.23 29.86 L 209.43 29.90 L 209.63 29.95 L 209.84 29.99 L 210.04 30.04 L 210.24 30.08 L 210.45 30.13 L 210.65 30.17 L 210.85 30.22 L 211.06 30.26 L 211.26 30.31 L 211.46 30.35 L 211.66 30.40 L 211.87 30.44 L 212.07 30.49 L 212.27 30.54 L 212.48 30.58 L 212.68 30.63 L 212.88 30.68 L 213.09 30.73 L 213.29 30.77 L 213.49 30.82 L 213.69 30.87 L 213.90 30.92 L 214.10 30.97 L 214.30 31.02 L 214.51 31.06 L 214.71 31.11 L 214.91 31.16 L 215.12 31.21 L 215.32 31.26 L 215.52 31.31 L 215.72 31.36 L 215.93 31.41 L 216.13 31.47 L 216.33 31.52 L 216.54 31.57 L 216.74 31.62 L 216.94 31.67 L 217.15 31.72 L 217.35 31.78 L 217.55 31.83 L 217.75 31.88 L 217.96 31.94 L 218.16 31.99 L 218.36 32.04 L 218.57 32.10 L 218.77 32.15 L 218.97 32.21 L 219.18 32.26 L 219.38 32.31 L 219.58 32.37 L 219.78 32.43 L 219.99 32.48 L 220.19 32.54 L 220.39 32.59 L 220.60 32.65 L 220.80 32.71 L 221.00 32.76 L 221.21 32.82 L 221.41 32.88 L 221.61 32.94 L 221.81 32.99 L 222.02 33.05 L 222.22 33.11 L 222.42 33.17 L 222.63 33.23 L 222.83 33.29 L 223.03 33.35 L 223.24 33.41 L 223.44 33.47 L 223.64 33.53 L 223.84 33.59 L 224.05 33.65 L 224.25 33.71 L 224.45 33.77 L 224.66 33.83 L 224.86 33.89 L 225.06 33.96 L 225.27 34.02 L 225.47 34.08 L 225.67 34.15 L 225.87 34.21 L 226.08 34.27 L 226.28 34.34 L 226.48 34.40 L 226.69 34.46 L 226.89 34.53 L 227.09 34.59 L 227.30 34.66 L 227.50 34.73 L 227.70 34.79 L 227.90 34.86 L 228.11 34.92 L 228.31 34.99 L 228.51 35.06 L 228.72 35.13 L 228.92 35.19 L 229.12 35.26 L 229.33 35.33 L 229.53 35.40 L 229.73 35.47 L 229.93 35.54 L 230.14 35.61 L 230.34 35.67 L 230.54 35.74 L 230.75 35.82 L 230.95 35.89 L 231.15 35.96 L 231.36 36.03 L 231.56 36.10 L 231.76 36.17 L 231.96 36.24 L 232.17 36.32 L 232.37 36.39 L 232.57 36.46 L 232.78 36.54 L 232.98 36.61 L 233.18 36.68 L 233.39 36.76 L 233.59 36.83 L 233.79 36.91 L 233.99 36.98 L 234.20 37.06 L 234.40 37.14 L 234.60 37.21 L 234.81 37.29 L 235.01 37.37 L 235.21 37.44 L 235.42 37.52 L 235.62 37.60 L 235.82 37.68 L 236.02 37.76 L 236.23 37.84 L 236.43 37.92 L 236.63 37.99 L 236.84 38.08 L 237.04 38.16 L 237.24 38.24 L 237.45 38.32 L 237.65 38.40 L 237.85 38.48 L 238.05 38.56 L 238.26 38.65 L 238.46 38.73 L 238.66 38.81 L 238.87 38.90 L 239.07 38.98 L 239.27 39.07 L 239.48 39.15 L 239.68 39.24 L 239.88 39.32 L 240.08 39.41 L 240.29 39.49 L 240.49 39.58 L 240.69 39.67 L 240.90 39.75 L 241.10 39.84 L 241.30 39.93 L 241.51 40.02 L 241.71 40.11 L 241.91 40.20 L 242.11 40.29 L 242.32 40.38 L 242.52 40.47 L 242.72 40.56 L 242.93 40.65 L 243.13 40.74 L 243.33 40.84 L 243.54 40.93 L 243.74 41.02 L 243.94 41.11 L 244.14 41.21 L 244.35 41.30 L 244.55 41.40 L 244.75 41.49 L 244.96 41.59 L 245.16 41.68 L 245.36 41.78 L 245.57 41.88 L 245.77 41.98 L 245.97 42.07 L 246.17 42.17 L 246.38 42.27 L 246.58 42.37 L 246.78 42.47 L 246.99 42.57 L 247.19 42.67 L 247.39 42.77 L 247.60 42.87 L 247.80 42.97 L 248.00 43.08 L 248.20 43.18 L 248.41 43.28 L 248.61 43.39 L 248.81 43.49 L 249.02 43.60 L 249.22 43.70 L 249.42 43.81 L 249.63 43.91 L 249.83 44.02 L 250.03 44.13 L 250.23 44.23 L 250.44 44.34 L 250.64 44.45 L 250.84 44.56 L 251.05 44.67 L 251.25 44.78 L 251.45 44.89 L 251.66 45.00 L 251.86 45.11 L 252.06 45.23 L 252.26 45.34 L 252.47 45.45 L 252.67 45.57 L 252.87 45.68 L 253.08 45.80 L 253.28 45.91 L 253.48 46.03 L 253.69 46.14 L 253.89 46.26 L 254.09 46.38 L 254.29 46.50 L 254.50 46.62 L 254.70 46.74 L 254.90 46.86 L 255.11 46.98 L 255.31 47.10 L 255.51 47.22 L 255.72 47.34 L 255.92 47.47 L 256.12 47.59 L 256.32 47.71 L 256.53 47.84 L 256.73 47.96 L 256.93 48.09 L 257.14 48.22 L 257.34 48.34 L 257.54 48.47 L 257.75 48.60 L 257.95 48.73 L 258.15 48.86 L 258.35 48.99 L 258.56 49.12 L 258.76 49.25 L 258.96 49.39 L 259.17 49.52 L 259.37 49.65 L 259.57 49.79 L 259.78 49.92 L 259.98 50.06 L 260.18 50.20 L 260.38 50.33 L 260.59 50.47 L 260.79 50.61 L 260.99 50.75 L 261.20 50.89 L 261.40 51.03 L 261.60 51.17 L 261.81 51.32 L 262.01 51.46 L 262.21 51.60 L 262.41 51.75 L 262.62 51.90 L 262.82 52.04 L 263.02 52.19 L 263.23 52.34 L 263.43 52.49 L 263.63 52.64 L 263.84 52.79 L 264.04 52.94 L 264.24 53.09 L 264.44 53.24 L 264.65 53.40 L 264.85 53.55 L 265.05 53.71 L 265.26 53.86 L 265.46 54.02 L 265.66 54.18 L 265.87 54.34 L 266.07 54.50 L 266.27 54.66 L 266.47 54.82 L 266.68 54.98 L 266.88 55.15 L 267.08 55.31 L 267.29 55.48 L 267.49 55.64 L 267.69 55.81 L 267.90 55.98 L 268.10 56.15 L 268.30 56.32 L 268.50 56.49 L 268.71 56.67 L 268.91 56.84 L 269.11 57.01 L 269.32 57.19 L 269.52 57.37 L 269.72 57.54 L 269.93 57.72 L 270.13 57.90 L 270.33 58.08 L 270.53 58.27 L 270.74 58.45 L 270.94 58.63 L 271.14 58.82 L 271.35 59.01 L 271.55 59.20 L 271.75 59.39 L 271.96 59.58 L 272.16 59.77 L 272.36 59.96 L 272.56 60.15 L 272.77 60.35 L 272.97 60.55 L 273.17 60.75 L 273.38 60.94 L 273.58 61.15 L 273.78 61.35 L 273.99 61.55 L 274.19 61.76 L 274.39 61.96 L 274.59 62.17 L 274.80 62.38 L 275.00 62.59 L 275.20 62.80 L 275.41 63.02 L 275.61 63.23 L 275.81 63.45 L 276.02 63.66 L 276.22 63.88 L 276.42 64.11 L 276.62 64.33 L 276.83 64.55 L 277.03 64.78 L 277.23 65.01 L 277.44 65.24 L 277.64 65.47 L 277.84 65.70 L 278.05 65.93 L 278.25 66.17 L 278.45 66.41 L 278.65 66.65 L 278.86 66.89 L 279.06 67.14 L 279.26 67.38 L 279.47 67.63 L 279.67 67.88 L 279.87 68.13 L 280.08 68.38 L 280.28 68.64 L 280.48 68.90 L 280.68 69.16 L 280.89 69.42 L 281.09 69.68 L 281.29 69.95 L 281.50 70.22 L 281.70 70.49 L 281.90 70.76 L 282.11 71.04 L 282.31 71.32 L 282.51 71.60 L 282.71 71.88 L 282.92 72.16 L 283.12 72.45 L 283.32 72.74 L 283.53 73.04 L 283.73 73.33 L 283.93 73.63 L 284.14 73.93 L 284.34 74.24 L 284.54 74.54 L 284.74 74.85 L 284.95 75.17 L 285.15 75.48 L 285.35 75.80 L 285.56 76.12 L 285.76 76.45 L 285.96 76.78 L 286.17 77.11 L 286.37 77.45 L 286.57 77.79 L 286.77 78.13 L 286.98 78.48 L 287.18 78.83 L 287.38 79.18 L 287.59 79.54 L 287.79 79.90 L 287.99 80.26 L 288.20 80.63 L 288.40 81.01 L 288.60 81.39 L 288.80 81.77 L 289.01 82.16 L 289.21 82.55 L 289.41 82.94 L 289.62 83.35 L 289.82 83.75 L 290.02 84.16 L 290.23 84.58 L 290.43 85.00 L 290.63 85.43 L 290.83 85.86 L 291.04 86.30 L 291.24 86.74 L 291.44 87.19 L 291.65 87.65 L 291.85 88.11 L 292.05 88.58 L 292.26 89.06 L 292.46 89.54 L 292.66 90.03 L 292.86 90.52 L 293.07 91.03 L 293.27 91.54 L 293.47 92.06 L 293.68 92.59 L 293.88 93.13 L 294.08 93.67 L 294.29 94.22 L 294.49 94.79 L 294.69 95.36 L 294.89 95.94 L 295.10 96.54 L 295.30 97.14 L 295.50 97.76 L 295.71 98.38 L 295.91 99.02 L 296.11 99.67 L 296.32 100.33 L 296.52 101.01 L 296.72 101.70 L 296.92 102.40 L 297.13 103.12 L 297.33 103.86 L 297.53 104.61 L 297.74 105.38 L 297.94 106.16 L 298.14 106.97 L 298.35 107.79 L 298.55 108.64 L 298.75 109.50 L 298.95 110.39 L 299.16 111.30 L 299.36 112.24 L 299.56 113.20 L 299.77 114.20 L 299.97 115.22 L 300.17 116.27 L 300.38 117.36 L 300.58 118.48 L 300.78 119.64 L 300.98 120.84 L 301.19 122.09 L 301.39 123.38 L 301.59 124.73 L 301.80 126.12 L 302.00 127.58" fill="none" stroke="#7E8692" stroke-width="2.3" stroke-linecap="round" stroke-linejoin="round"/>
</svg>
