<svg xmlns="http://www.w3.org/2000/svg" viewBox="0 0 320 180" width="320" height="180">
  <rect width="320" height="180" fill="#F4F5F7"/>
  <path d="M 18.00 37.46 L 18.32 37.72 L 18.63 37.98 L 18.95 38.24 L 19.26 38.50 L 19.58 38.76 L 19.90 39.02 L 20.21 39.28 L 20.53 39.54 L 20.84 39.80 L 21.16 40.06 L 21.47 40.32 L 21.79 40.58 L 22.11 40.84 L 22.42 41.10 L 22.74 41.36 L 23.05 41.62 L 23.37 41.88 L 23.69 42.13 L 24.00 42.39 L 24.32 42.65 L 24.63 42.91 L 24.95 43.17 L 25.27 43.43 L 25.58 43.69 L 25.90 43.95 L 26.21 44.21 L 26.53 44.47 L 26.85 44.73 L 27.16 44.99 L 27.48 45.25 L 27.79 45.51 L 28.11 45.77 L 28.42 46.03 L 28.74 46.29 L 29.06 46.55 L 29.37 46.81 L 29.69 47.07 L 30.00 47.33 L 30.32 47.59 L 30.64 47.85 L 30.95 48.11 L 31.27 48.37 L 31.58 48.63 L 31.90 48.89 L 32.22 49.15 L 32.53 49.41 L 32.85 49.67 L 33.16 49.93 L 33.48 50.19 L 33.80 50.45 L 34.11 50.71 L 34.43 50.97 L 34.74 51.23 L 35.06 51.49 L 35.37 51.75 L 35.69 52.01 L 36.01 52.27 L 36.32 52.52 L 36.64 52.78 L 36.95 53.04 L 37.27 53.30 L 37.59 53.56 L 37.90 53.82 L 38.22 54.08 L 38.53 54.34 L 38.85 54.60 L 39.17 54.86 L 39.48 55.12 L 39.80 55.38 L 40.11 55.64 L 40.43 55.90 L 40.75 56.16 L 41.06 56.42 L 41.38 56.68 L 41.69 56.94 L 42.01 57.20 L 42.32 57.46 L 42.64 57.72 L 42.96 57.98 L 43.27 58.24 L 43.59 58.50 L 43.90 58.76 L 44.22 59.02 L 44.54 59.28 L 44.85 59.54 L 45.17 59.80 L 45.48 60.06 L 45.80 60.32 L 46.12 60.58 L 46.43 60.84 L 46.75 61.10 L 47.06 61.36 L 47.38 61.62 L 47.70 61.88 L 48.01 62.14 L 48.33 62.40 L 48.64 62.66 L 48.96 62.91 L 49.27 63.17 L 49.59 63.43 L 49.91 63.69 L 50.22 63.95 L 50.54 64.21 L 50.85 64.47 L 51.17 64.73 L 51.49 64.99 L 51.80 65.25 L 52.12 65.51 L 52.43 65.77 L 52.75 66.03 L 53.07 66.29 L 53.38 66.55 L 53.70 66.81 L 54.01 67.07 L 54.33 67.33 L 54.65 67.59 L 54.96 67.85 L 55.28 68.11 L 55.59 68.37 L 55.91 68.63 L 56.22 68.89 L 56.54 69.15 L 56.86 69.41 L 57.17 69.67 L 57.49 69.93 L 57.80 70.19 L 58.12 70.45 L 58.44 70.71 L 58.75 70.97 L 59.07 71.23 L 59.38 71.49 L 59.70 71.75 L 60.02 72.01 L 60.33 72.27 L 60.65 72.53 L 60.96 72.79 L 61.28 73.04 L 61.60 73.30 L 61.91 73.56 L 62.23 73.82 L 62.54 74.08 L 62.86 74.34 L 63.17 74.60 L 63.49 74.86 L 63.81 75.12 L 64.12 75.38 L 64.44 75.64 L 64.75 75.90 L 65.07 76.16 L 65.39 76.42 L 65.70 76.68 L 66.02 76.94 L 66.33 77.20 L 66.65 77.46 L 66.97 77.72 L 67.28 77.98 L 67.60 78.24 L 67.91 78.50 L 68.23 78.76 L 68.55 79.02 L 68.86 79.28 L 69.18 79.54 L 69.49 79.80 L 69.81 80.06 L 70.12 80.32 L 70.44 80.58 L 70.76 80.84 L 71.07 81.10 L 71.39 81.36 L 71.70 81.62 L 72.02 81.88 L 72.34 82.14 L 72.65 82.40 L 72.97 82.66 L 73.28 82.92 L 73.60 83.18 L 73.92 83.43 L 74.23 83.69 L 74.55 83.95 L 74.86 84.21 L 75.18 84.47 L 75.49 84.73 L 75.81 84.99 L 76.13 85.25 L 76.44 85.51 L 76.76 85.77 L 77.07 86.03 L 77.39 86.29 L 77.71 86.55 L 78.02 86.81 L 78.34 87.07 L 78.65 87.33 L 78.97 87.59 L 79.29 87.85 L 79.60 88.11 L 79.92 88.37 L 80.23 88.63 L 80.55 88.89 L 80.87 89.15 L 81.18 89.41 L 81.50 89.67 L 81.81 89.93 L 82.13 90.19 L 82.44 90.45 L 82.76 90.71 L 83.08 90.97 L 83.39 91.23 L 83.71 91.49 L 84.02 91.75 L 84.34 92.01 L 84.66 92.27 L 84.97 92.53 L 85.29 92.79 L 85.60 93.05 L 85.92 93.31 L 86.24 93.57 L 86.55 93.82 L 86.87 94.08 L 87.18 94.34 L 87.50 94.60 L 87.82 94.86 L 88.13 95.12 L 88.45 95.38 L 88.76 95.64 L 89.08 95.90 L 89.39 96.16 L 89.71 96.42 L 90.03 96.68 L 90.34 96.94 L 90.66 97.20 L 90.97 97.46 L 91.29 97.72 L 91.61 97.98 L 91.92 98.24 L 92.24 98.50 L 92.55 98.76 L 92.87 99.02 L 93.19 99.28 L 93.50 99.54 L 93.82 99.80 L 94.13 100.06 L 94.45 100.32 L 94.77 100.58 L 95.08 100.84 L 95.40 101.10 L 95.71 101.36 L 96.03 101.62 L 96.34 101.88 L 96.66 102.14 L 96.98 102.40 L 97.29 102.66 L 97.61 102.92 L 97.92 103.18 L 98.24 103.44 L 98.56 103.70 L 98.87 103.95 L 99.19 104.21 L 99.50 104.47 L 99.82 104.73 L 100.14 104.99 L 100.45 105.25 L 100.77 105.51 L 101.08 105.77 L 101.40 106.03 L 101.72 106.29 L 102.03 106.55 L 102.35 106.81 L 102.66 107.07 L 102.98 107.33 L 103.29 107.59 L 103.61 107.85 L 103.93 108.11 L 104.24 108.37 L 104.56 108.63 L 104.87 108.89 L 105.19 109.15 L 105.51 109.41 L 105.82 109.67 L 106.14 109.93 L 106.45 110.19 L 106.77 110.45 L 107.09 110.71 L 107.40 110.97 L 107.72 111.23 L 108.03 111.49 L 108.35 111.75 L 108.67 112.01 L 108.98 112.27 L 109.30 112.53 L 109.61 112.79 L 109.93 113.05 L 110.24 113.31 L 110.56 113.57 L 110.88 113.83 L 111.19 114.09 L 111.51 114.34 L 111.82 114.60 L 112.14 114.86 L 112.46 115.12 L 112.77 115.38 L 113.09 115.64 L 113.40 115.90 L 113.72 116.16 L 114.04 116.42 L 114.35 116.68 L 114.67 116.94 L 114.98 117.20 L 115.30 117.46 L 115.62 117.72 L 115.93 117.98 L 116.25 118.24 L 116.56 118.50 L 116.88 118.76 L 117.19 119.02 L 117.51 119.28 L 117.83 119.54 L 118.14 119.80 L 118.46 120.06 L 118.77 120.32 L 119.09 120.58 L 119.41 120.84 L 119.72 121.10 L 120.04 121.36 L 120.35 121.62 L 120.67 121.88 L 120.99 122.14 L 121.30 122.40 L 121.62 122.66 L 121.93 122.92 L 122.25 123.18 L 122.57 123.44 L 122.88 123.70 L 123.20 123.96 L 123.51 124.22 L 123.83 124.48 L 124.14 124.73 L 124.46 124.99 L 124.78 125.25 L 125.09 125.51 L 125.41 125.77 L 125.72 126.03 L 126.04 126.29 L 126.36 126.55 L 126.67 126.81 L 126.99 127.07 L 127.30 127.33 L 127.62 127.59 L 127.94 127.85 L 128.25 128.11 L 128.57 128.37 L 128.88 128.63 L 129.20 128.89 L 129.52 129.15 L 129.83 129.41 L 130.15 129.67 L 130.46 129.93 L 130.78 130.19 L 131.09 130.45 L 131.41 130.71 L 131.73 130.97 L 132.04 131.23 L 132.36 131.49 L 132.67 131.75 L 132.99 132.01 L 133.31 132.27 L 133.62 132.53 L 133.94 132.79 L 134.25 133.05 L 134.57 133.31 L 134.89 133.57 L 135.20 133.83 L 135.52 134.09 L 135.83 134.35 L 136.15 134.61 L 136.46 134.86 L 136.78 135.12 L 137.10 135.38 L 137.41 135.64 L 137.73 135.90 L 138.04 136.16 L 138.36 136.42 L 138.68 136.68 L 138.99 136.94 L 139.31 137.20 L 139.62 137.46 L 139.94 137.72 L 140.26 137.98 L 140.57 138.24 L 140.89 138.50 L 141.20 138.76 L 141.52 139.02 L 141.84 139.28 L 142.15 139.54 L 142.47 139.80 L 142.78 140.06 L 143.10 140.32 L 143.41 140.58 L 143.73 140.84 L 144.05 141.10 L 144.36 141.36 L 144.68 141.62 L 144.99 141.88 L 145.31 142.14 L 145.63 142.40 L 145.94 142.66 L 146.26 142.92 L 146.57 143.18 L 146.89 143.44 L 147.21 143.70 L 147.52 143.96 L 147.84 144.22 L 148.15 144.48 L 148.47 144.74 L 148.79 145.00 L 149.10 145.25 L 149.42 145.51 L 149.73 145.77 L 150.05 146.03 L 150.36 146.29 L 150.68 146.55 L 151.00 146.81 L 151.31 147.07 L 151.63 147.33 L 151.94 147.59 L 152.26 147.85 L 152.58 148.11 L 152.89 148.37 L 153.21 148.63 L 153.52 148.89 L 153.84 149.15 L 154.16 149.41 L 154.47 149.67 L 154.79 149.93 L 155.10 150.19 L 155.42 150.45 L 155.74 150.71 L 156.05 150.97 L 156.37 151.23 L 156.68 151.49 L 157.00 151.75 L 157.31 152.01 L 157.63 152.27 L 157.95 152.53 L 158.26 152.79 L 158.58 153.05 L 158.89 153.31 L 159.21 153.57 L 159.53 153.83 L 159.84 154.09 L 160.16 154.09 L 160.47 153.83 L 160.79 153.57 L 161.11 153.31 L 161.42 153.05 L 161.74 152.79 L 162.05 152.53 L 162.37 152.27 L 162.69 152.01 L 163.00 151.75 L 163.32 151.49 L 163.63 151.23 L 163.95 150.97 L 164.26 150.71 L 164.58 150.45 L 164.90 150.19 L 165.21 149.93 L 165.53 149.67 L 165.84 149.41 L 166.16 149.15 L 166.48 148.89 L 166.79 148.63 L 167.11 148.37 L 167.42 148.11 L 167.74 147.85 L 168.06 147.59 L 168.37 147.33 L 168.69 147.07 L 169.00 146.81 L 169.32 146.55 L 169.64 146.29 L 169.95 146.03 L 170.27 145.77 L 170.58 145.51 L 170.90 145.25 L 171.21 145.00 L 171.53 144.74 L 171.85 144.48 L 172.16 144.22 L 172.48 143.96 L 172.79 143.70 L 173.11 143.44 L 173.43 143.18 L 173.74 142.92 L 174.06 142.66 L 174.37 142.40 L 174.69 142.14 L 175.01 141.88 L 175.32 141.62 L 175.64 141.36 L 175.95 141.10 L 176.27 140.84 L 176.59 140.58 L 176.90 140.32 L 177.22 140.06 L 177.53 139.80 L 177.85 139.54 L 178.16 139.28 L 178.48 139.02 L 178.80 138.76 L 179.11 138.50 L 179.43 138.24 L 179.74 137.98 L 180.06 137.72 L 180.38 137.46 L 180.69 137.20 L 181.01 136.94 L 181.32 136.68 L 181.64 136.42 L 181.96 136.16 L 182.27 135.90 L 182.59 135.64 L 182.90 135.38 L 183.22 135.12 L 183.54 134.86 L 183.85 134.61 L 184.17 134.35 L 184.48 134.09 L 184.80 133.83 L 185.11 133.57 L 185.43 133.31 L 185.75 133.05 L 186.06 132.79 L 186.38 132.53 L 186.69 132.27 L 187.01 132.01 L 187.33 131.75 L 187.64 131.49 L 187.96 131.23 L 188.27 130.97 L 188.59 130.71 L 188.91 130.45 L 189.22 130.19 L 189.54 129.93 L 189.85 129.67 L 190.17 129.41 L 190.48 129.15 L 190.80 128.89 L 191.12 128.63 L 191.43 128.37 L 191.75 128.11 L 192.06 127.85 L 192.38 127.59 L 192.70 127.33 L 193.01 127.07 L 193.33 126.81 L 193.64 126.55 L 193.96 126.29 L 194.28 126.03 L 194.59 125.77 L 194.91 125.51 L 195.22 125.25 L 195.54 124.99 L 195.86 124.73 L 196.17 124.48 L 196.49 124.22 L 196.80 123.96 L 197.12 123.70 L 197.43 123.44 L 197.75 123.18 L 198.07 122.92 L 198.38 122.66 L 198.70 122.40 L 199.01 122.14 L 199.33 121.88 L 199.65 121.62 L 199.96 121.36 L 200.28 121.10 L 200.59 120.84 L 200.91 120.58 L 201.23 120.32 L 201.54 120.06 L 201.86 119.80 L 202.17 119.54 L 202.49 119.28 L 202.81 119.02 L 203.12 118.76 L 203.44 118.50 L 203.75 118.24 L 204.07 117.98 L 204.38 117.72 L 204.70 117.46 L 205.02 117.20 L 205.33 116.94 L 205.65 116.68 L 205.96 116.42 L 206.28 116.16 L 206.60 115.90 L 206.91 115.64 L 207.23 115.38 L 207.54 115.12 L 207.86 114.86 L 208.18 114.60 L 208.49 114.34 L 208.81 114.09 L 209.12 113.83 L 209.44 113.57 L 209.76 113.31 L 210.07 113.05 L 210.39 112.79 L 210.70 112.53 L 211.02 112.27 L 211.33 112.01 L 211.65 111.75 L 211.97 111.49 L 212.28 111.23 L 212.60 110.97 L 212.91 110.71 L 213.23 110.45 L 213.55 110.19 L 213.86 109.93 L 214.18 109.67 L 214.49 109.41 L 214.81 109.15 L 215.13 108.89 L 215.44 108.63 L 215.76 108.37 L 216.07 108.11 L 216.39 107.85 L 216.71 107.59 L 217.02 107.33 L 217.34 107.07 L 217.65 106.81 L 217.97 106.55 L 218.28 106.29 L 218.60 106.03 L 218.92 105.77 L 219.23 105.51 L 219.55 105.25 L 219.86 104.99 L 220.18 104.73 L 220.50 104.47 L 220.81 104.21 L 221.13 103.95 L 221.44 103.70 L 221.76 103.44 L 222.08 103.18 L 222.39 102.92 L 222.71 102.66 L 223.02 102.40 L 223.34 102.14 L 223.66 101.88 L 223.97 101.62 L 224.29 101.36 L 224.60 101.10 L 224.92 100.84 L 225.23 100.58 L 225.55 100.32 L 225.87 100.06 L 226.18 99.80 L 226.50 99.54 L 226.81 99.28 L 227.13 99.02 L 227.45 98.76 L 227.76 98.50 L 228.08 98.24 L 228.39 97.98 L 228.71 97.72 L 229.03 97.46 L 229.34 97.20 L 229.66 96.94 L 229.97 96.68 L 230.29 96.42 L 230.61 96.16 L 230.92 95.90 L 231.24 95.64 L 231.55 95.38 L 231.87 95.12 L 232.18 94.86 L 232.50 94.60 L 232.82 94.34 L 233.13 94.08 L 233.45 93.82 L 233.76 93.57 L 234.08 93.31 L 234.40 93.05 L 234.71 92.79 L 235.03 92.53 L 235.34 92.27 L 235.66 92.01 L 235.98 91.75 L 236.29 91.49 L 236.61 91.23 L 236.92 90.97 L 237.24 90.71 L 237.56 90.45 L 237.87 90.19 L 238.19 89.93 L 238.50 89.67 L 238.82 89.41 L 239.13 89.15 L 239.45 88.89 L 239.77 88.63 L 240.08 88.37 L 240.40 88.11 L 240.71 87.85 L 241.03 87.59 L 241.35 87.33 L 241.66 87.07 L 241.98 86.81 L 242.29 86.55 L 242.61 86.29 L 242.93 86.03 L 243.24 85.77 L 243.56 85.51 L 243.87 85.25 L 244.19 84.99 L 244.51 84.73 L 244.82 84.47 L 245.14 84.21 L 245.45 83.95 L 245.77 83.69 L 246.08 83.43 L 246.40 83.18 L 246.72 82.92 L 247.03 82.66 L 247.35 82.40 L 247.66 82.14 L 247.98 81.88 L 248.30 81.62 L 248.61 81.36 L 248.93 81.10 L 249.24 80.84 L 249.56 80.58 L 249.88 80.32 L 250.19 80.06 L 250.51 79.80 L 250.82 79.54 L 251.14 79.28 L 251.45 79.02 L 251.77 78.76 L 252.09 78.50 L 252.40 78.24 L 252.72 77.98 L 253.03 77.72 L 253.35 77.46 L 253.67 77.20 L 253.98 76.94 L 254.30 76.68 L 254.61 76.42 L 254.93 76.16 L 255.25 75.90 L 255.56 75.64 L 255.88 75.38 L 256.19 75.12 L 256.51 74.86 L 256.83 74.60 L 257.14 74.34 L 257.46 74.08 L 257.77 73.82 L 258.09 73.56 L 258.40 73.30 L 258.72 73.04 L 259.04 72.79 L 259.35 72.53 L 259.67 72.27 L 259.98 72.01 L 260.30 71.75 L 260.62 71.49 L 260.93 71.23 L 261.25 70.97 L 261.56 70.71 L 261.88 70.45 L 262.20 70.19 L 262.51 69.93 L 262.83 69.67 L 263.14 69.41 L 263.46 69.15 L 263.78 68.89 L 264.09 68.63 L 264.41 68.37 L 264.72 68.11 L 265.04 67.85 L 265.35 67.59 L 265.67 67.33 L 265.99 67.07 L 266.30 66.81 L 266.62 66.55 L 266.93 66.29 L 267.25 66.03 L 267.57 65.77 L 267.88 65.51 L 268.20 65.25 L 268.51 64.99 L 268.83 64.73 L 269.15 64.47 L 269.46 64.21 L 269.78 63.95 L 270.09 63.69 L 270.41 63.43 L 270.73 63.17 L 271.04 62.91 L 271.36 62.66 L 271.67 62.40 L 271.99 62.14 L 272.30 61.88 L 272.62 61.62 L 272.94 61.36 L 273.25 61.10 L 273.57 60.84 L 273.88 60.58 L 274.20 60.32 L 274.52 60.06 L 274.83 59.80 L 275.15 59.54 L 275.46 59.28 L 275.78 59.02 L 276.10 58.76 L 276.41 58.50 L 276.73 58.24 L 277.04 57.98 L 277.36 57.72 L 277.68 57.46 L 277.99 57.20 L 278.31 56.94 L 278.62 56.68 L 278.94 56.42 L 279.25 56.16 L 279.57 55.90 L 279.89 55.64 L 280.20 55.38 L 280.52 55.12 L 280.83 54.86 L 281.15 54.60 L 281.47 54.34 L 281.78 54.08 L 282.10 53.82 L 282.41 53.56 L 282.73 53.30 L 283.05 53.04 L 283.36 52.78 L 283.68 52.52 L 283.99 52.27 L 284.31 52.01 L 284.63 51.75 L 284.94 51.49 L 285.26 51.23 L 285.57 50.97 L 285.89 50.71 L 286.20 50.45 L 286.52 50.19 L 286.84 49.93 L 287.15 49.67 L 287.47 49.41 L 287.78 49.15 L 288.10 48.89 L 288.42 48.63 L 288.73 48.37 L 289.05 48.11 L 289.36 47.85 L 289.68 47.59 L 290.00 47.33 L 290.31 47.07 L 290.63 46.81 L 290.94 46.55 L 291.26 46.29 L 291.58 46.03 L 291.89 45.77 L 292.21 45.51 L 292.52 45.25 L 292.84 44.99 L 293.15 44.73 L 293.47 44.47 L 293.79 44.21 L 294.10 43.95 L 294.42 43.69 L 294.73 43.43 L 295.05 43.17 L 295.37 42.91 L 295.68 42.65 L 296.00 42.39 L 296.31 42.13 L 296.63 41.88 L 296.95 41.62 L 297.26 41.36 L 297.58 41.10 L 297.89 40.84 L 298.21 40.58 L 298.53 40.32 L 298.84 40.06 L 299.16 39.80 L 299.47 39.54 L 299.79 39.28 L 300.10 39.02 L 300.42 38.76 L 300.74 38.50 L 301.05 38.24 L 301.37 37.98 L 301.68 37.72 L 302.00 37.46" fill="none" stroke="#7E8692" stroke-width="2.3" stroke-linecap="round" stroke-linejoin="round"/>
</svg>
