<svg xmlns="http://www.w3.org/2000/svg" viewBox="0 0 320 180" width="320" height="180">
  <rect width="320" height="180" fill="#F4F5F7"/>
  <path d="M 24.00 146.34 L 24.30 146.34 L 24.61 146.34 L 24.91 146.34 L 25.21 146.34 L 25.51 146.34 L 25.82 146.34 L 26.12 146.34 L 26.42 146.34 L 26.72 146.34 L 27.03 146.34 L 27.33 146.34 L 27.63 146.34 L 27.93 146.34 L 28.24 146.34 L 28.54 146.34 L 28.84 146.34 L 29.14 146.34 L 29.45 146.34 L 29.75 146.34 L 30.05 146.34 L 30.35 146.34 L 30.66 146.34 L 30.96 146.34 L 31.26 146.34 L 31.56 146.34 L 31.87 146.34 L 32.17 146.34 L 32.47 146.34 L 32.77 146.34 L 33.08 146.34 L 33.38 146.34 L 33.68 146.34 L 33.98 146.34 L 34.29 146.34 L 34.59 146.34 L 34.89 146.34 L 35.19 146.34 L 35.50 146.34 L 35.80 146.34 L 36.10 146.34 L 36.40 146.34 L 36.71 146.34 L 37.01 146.34 L 37.31 146.34 L 37.62 146.34 L 37.92 146.34 L 38.22 146.34 L 38.52 146.34 L 38.83 146.34 L 39.13 146.34 L 39.43 146.34 L 39.73 146.34 L 40.04 146.34 L 40.34 146.34 L 40.64 146.34 L 40.94 146.34 L 41.25 146.34 L 41.55 146.34 L 41.85 146.34 L 42.15 146.34 L 42.46 146.34 L 42.76 146.34 L 43.06 146.34 L 43.36 146.34 L 43.67 146.34 L 43.97 146.34 L 44.27 146.34 L 44.57 146.34 L 44.88 146.34 L 45.18 146.34 L 45.48 146.34 L 45.78 146.34 L 46.09 146.34 L 46.39 146.34 L 46.69 146.34 L 46.99 146.34 L 47.30 146.34 L 47.60 146.34 L 47.90 146.34 L 48.20 146.34 L 48.51 146.34 L 48.81 146.34 L 49.11 146.34 L 49.41 146.34 L 49.72 146.34 L 50.02 146.34 L 50.32 146.34 L 50.63 146.34 L 50.93 146.34 L 51.23 146.34 L 51.53 146.34 L 51.84 146.34 L 52.14 146.34 L 52.44 146.34 L 52.74 146.34 L 53.05 146.34 L 53.35 146.34 L 53.65 146.34 L 53.95 146.34 L 54.26 146.34 L 54.56 146.34 L 54.86 146.34 L 55.16 146.34 L 55.47 146.34 L 55.77 146.34 L 56.07 146.34 L 56.37 146.34 L 56.68 146.34 L 56.98 146.34 L 57.28 146.34 L 57.58 146.34 L 57.89 146.34 L 58.19 146.34 L 58.49 146.34 L 58.79 146.34 L 59.10 146.34 L 59.40 146.34 L 59.70 146.34 L 60.00 146.34 L 60.31 146.34 L 60.61 146.34 L 60.91 146.34 L 61.21 146.34 L 61.52 146.34 L 61.82 146.34 L 62.12 146.34 L 62.42 146.34 L 62.73 146.34 L 63.03 146.34 L 63.33 146.34 L 63.64 146.34 L 63.94 146.34 L 64.24 146.34 L 64.54 146.34 L 64.85 146.34 L 65.15 146.34 L 65.45 146.34 L 65.75 146.34 L 66.06 146.34 L 66.36 146.34 L 66.66 146.34 L 66.96 146.34 L 67.27 146.34 L 67.57 146.34 L 67.87 146.34 L 68.17 146.34 L 68.48 146.34 L 68.78 146.34 L 69.08 146.34 L 69.38 146.34 L 69.69 146.34 L 69.99 146.34 L 70.29 146.34 L 70.59 146.34 L 70.90 146.34 L 71.20 146.34 L 71.50 146.34 L 71.80 146.34 L 72.11 146.34 L 72.41 146.34 L 72.71 146.34 L 73.01 146.34 L 73.32 146.34 L 73.62 146.34 L 73.92 146.34 L 74.22 146.34 L 74.53 146.34 L 74.83 146.34 L 75.13 146.34 L 75.43 146.34 L 75.74 146.34 L 76.04 146.34 L 76.34 146.34 L 76.65 146.34 L 76.95 146.34 L 77.25 146.34 L 77.55 146.34 L 77.86 146.34 L 78.16 146.34 L 78.46 146.34 L 78.76 146.34 L 79.07 146.34 L 79.37 146.34 L 79.67 146.34 L 79.97 146.34 L 80.28 146.34 L 80.58 146.34 L 80.88 146.34 L 81.18 146.34 L 81.49 146.34 L 81.79 146.34 L 82.09 146.34 L 82.39 146.34 L 82.70 146.34 L 83.00 146.34 L 83.30 146.34 L 83.60 146.34 L 83.91 146.34 L 84.21 146.34 L 84.51 146.34 L 84.81 146.34 L 85.12 146.34 L 85.42 146.34 L 85.72 146.34 L 86.02 146.34 L 86.33 146.34 L 86.63 146.34 L 86.93 146.34 L 87.23 146.34 L 87.54 146.34 L 87.84 146.34 L 88.14 146.34 L 88.44 146.34 L 88.75 146.34 L 89.05 146.34 L 89.35 146.34 L 89.66 146.34 L 89.96 146.34 L 90.26 146.34 L 90.56 146.34 L 90.87 146.34 L 91.17 146.34 L 91.47 146.34 L 91.77 146.34 L 92.08 146.34 L 92.38 146.34 L 92.68 146.34 L 92.98 146.34 L 93.29 146.34 L 93.59 146.34 L 93.89 146.34 L 94.19 146.34 L 94.50 146.34 L 94.80 146.34 L 95.10 146.34 L 95.40 146.34 L 95.71 146.34 L 96.01 146.34 L 96.31 146.34 L 96.61 146.34 L 96.92 146.34 L 97.22 146.34 L 97.52 146.34 L 97.82 146.34 L 98.13 146.34 L 98.43 146.34 L 98.73 146.34 L 99.03 146.34 L 99.34 146.34 L 99.64 146.34 L 99.94 146.34 L 100.24 146.34 L 100.55 146.34 L 100.85 146.34 L 101.15 146.34 L 101.45 146.34 L 101.76 146.34 L 102.06 146.34 L 102.36 146.34 L 102.67 146.34 L 102.97 146.34 L 103.27 146.34 L 103.57 146.34 L 103.88 146.34 L 104.18 146.34 L 104.48 146.34 L 104.78 146.34 L 105.09 146.34 L 105.39 146.34 L 105.69 146.34 L 105.99 146.34 L 106.30 146.34 L 106.60 146.34 L 106.90 146.34 L 107.20 146.34 L 107.51 146.34 L 107.81 146.34 L 108.11 146.34 L 108.41 146.34 L 108.72 146.34 L 109.02 146.34 L 109.32 146.34 L 109.62 146.34 L 109.93 146.34 L 110.23 146.34 L 110.53 146.34 L 110.83 146.34 L 111.14 146.34 L 111.44 146.34 L 111.74 146.34 L 112.04 146.34 L 112.35 146.34 L 112.65 146.34 L 112.95 146.34 L 113.25 146.34 L 113.56 146.34 L 113.86 146.34 L 114.16 146.34 L 114.46 146.34 L 114.77 146.34 L 115.07 146.34 L 115.37 146.34 L 115.68 146.34 L 115.98 146.34 L 116.28 146.34 L 116.58 146.34 L 116.89 146.34 L 117.19 146.34 L 117.49 146.34 L 117.79 146.34 L 118.10 146.34 L 118.40 146.34 L 118.70 146.34 L 119.00 146.34 L 119.31 146.34 L 119.61 146.34 L 119.91 146.34 L 120.21 146.34 L 120.52 146.34 L 120.82 146.34 L 121.12 146.34 L 121.42 146.34 L 121.73 146.34 L 122.03 146.34 L 122.33 146.34 L 122.63 146.34 L 122.94 146.34 L 123.24 146.34 L 123.54 146.34 L 123.84 146.34 L 124.15 146.34 L 124.45 146.34 L 124.75 146.34 L 125.05 146.34 L 125.36 146.34 L 125.66 146.34 L 125.96 146.34 L 126.26 146.34 L 126.57 146.34 L 126.87 146.34 L 127.17 146.34 L 127.47 146.34 L 127.78 146.34 L 128.08 146.34 L 128.38 146.34 L 128.69 146.34 L 128.99 146.34 L 129.29 146.34 L 129.59 146.34 L 129.90 146.34 L 130.20 146.34 L 130.50 146.34 L 130.80 146.34 L 131.11 146.34 L 131.41 146.34 L 131.71 146.34 L 132.01 146.34 L 132.32 146.34 L 132.62 146.34 L 132.92 146.34 L 133.22 146.34 L 133.53 146.34 L 133.83 146.34 L 134.13 146.34 L 134.43 146.34 L 134.74 146.34 L 135.04 146.34 L 135.34 146.34 L 135.64 146.34 L 135.95 146.34 L 136.25 146.34 L 136.55 146.34 L 136.85 146.34 L 137.16 146.34 L 137.46 146.34 L 137.76 146.34 L 138.06 146.34 L 138.37 146.34 L 138.67 146.34 L 138.97 146.34 L 139.27 146.34 L 139.58 146.34 L 139.88 146.34 L 140.18 146.34 L 140.48 146.34 L 140.79 146.34 L 141.09 146.34 L 141.39 146.34 L 141.70 146.34 L 142.00 146.34 L 142.30 146.34 L 142.60 146.34 L 142.91 146.34 L 143.21 146.34 L 143.51 146.34 L 143.81 146.34 L 144.12 146.34 L 144.42 146.34 L 144.72 146.34 L 145.02 146.34 L 145.33 146.34 L 145.63 146.34 L 145.93 146.34 L 146.23 146.34 L 146.54 146.34 L 146.84 146.34 L 147.14 146.34 L 147.44 146.34 L 147.75 146.34 L 148.05 146.34 L 148.35 146.34 L 148.65 146.34 L 148.96 146.34 L 149.26 146.34 L 149.56 146.34 L 149.86 146.34 L 150.17 146.34 L 150.47 146.34 L 150.77 146.34 L 151.07 146.34 L 151.38 146.34 L 151.68 146.34 L 151.98 146.34 L 152.28 146.34 L 152.59 146.34 L 152.89 146.34 L 153.19 146.34 L 153.49 146.34 L 153.80 146.34 L 154.10 146.34 L 154.40 146.34 L 154.71 146.34 L 155.01 146.34 L 155.31 146.34 L 155.61 146.34 L 155.92 146.34 L 156.22 146.34 L 156.52 146.34 L 156.82 146.34 L 157.13 146.34 L 157.43 146.34 L 157.73 146.34 L 158.03 146.34 L 158.34 146.34 L 158.64 146.34 L 158.94 146.34 L 159.24 146.34 L 159.55 146.34 L 159.85 146.34 L 160.15 146.21 L 160.45 145.95 L 160.76 145.69 L 161.06 145.44 L 161.36 145.18 L 161.66 144.92 L 161.97 144.66 L 162.27 144.40 L 162.57 144.14 L 162.87 143.88 L 163.18 143.62 L 163.48 143.36 L 163.78 143.10 L 164.08 142.84 L 164.39 142.58 L 164.69 142.32 L 164.99 142.06 L 165.29 141.80 L 165.60 141.55 L 165.90 141.29 L 166.20 141.03 L 166.51 140.77 L 166.81 140.51 L 167.11 140.25 L 167.41 139.99 L 167.72 139.73 L 168.02 139.47 L 168.32 139.21 L 168.62 138.95 L 168.93 138.69 L 169.23 138.43 L 169.53 138.17 L 169.83 137.91 L 170.14 137.66 L 170.44 137.40 L 170.74 137.14 L 171.04 136.88 L 171.35 136.62 L 171.65 136.36 L 171.95 136.10 L 172.25 135.84 L 172.56 135.58 L 172.86 135.32 L 173.16 135.06 L 173.46 134.80 L 173.77 134.54 L 174.07 134.28 L 174.37 134.02 L 174.67 133.77 L 174.98 133.51 L 175.28 133.25 L 175.58 132.99 L 175.88 132.73 L 176.19 132.47 L 176.49 132.21 L 176.79 131.95 L 177.09 131.69 L 177.40 131.43 L 177.70 131.17 L 178.00 130.91 L 178.30 130.65 L 178.61 130.39 L 178.91 130.13 L 179.21 129.88 L 179.52 129.62 L 179.82 129.36 L 180.12 129.10 L 180.42 128.84 L 180.73 128.58 L 181.03 128.32 L 181.33 128.06 L 181.63 127.80 L 181.94 127.54 L 182.24 127.28 L 182.54 127.02 L 182.84 126.76 L 183.15 126.50 L 183.45 126.24 L 183.75 125.98 L 184.05 125.73 L 184.36 125.47 L 184.66 125.21 L 184.96 124.95 L 185.26 124.69 L 185.57 124.43 L 185.87 124.17 L 186.17 123.91 L 186.47 123.65 L 186.78 123.39 L 187.08 123.13 L 187.38 122.87 L 187.68 122.61 L 187.99 122.35 L 188.29 122.09 L 188.59 121.84 L 188.89 121.58 L 189.20 121.32 L 189.50 121.06 L 189.80 120.80 L 190.10 120.54 L 190.41 120.28 L 190.71 120.02 L 191.01 119.76 L 191.31 119.50 L 191.62 119.24 L 191.92 118.98 L 192.22 118.72 L 192.53 118.46 L 192.83 118.20 L 193.13 117.95 L 193.43 117.69 L 193.74 117.43 L 194.04 117.17 L 194.34 116.91 L 194.64 116.65 L 194.95 116.39 L 195.25 116.13 L 195.55 115.87 L 195.85 115.61 L 196.16 115.35 L 196.46 115.09 L 196.76 114.83 L 197.06 114.57 L 197.37 114.31 L 197.67 114.06 L 197.97 113.80 L 198.27 113.54 L 198.58 113.28 L 198.88 113.02 L 199.18 112.76 L 199.48 112.50 L 199.79 112.24 L 200.09 111.98 L 200.39 111.72 L 200.69 111.46 L 201.00 111.20 L 201.30 110.94 L 201.60 110.68 L 201.90 110.42 L 202.21 110.17 L 202.51 109.91 L 202.81 109.65 L 203.11 109.39 L 203.42 109.13 L 203.72 108.87 L 204.02 108.61 L 204.32 108.35 L 204.63 108.09 L 204.93 107.83 L 205.23 107.57 L 205.54 107.31 L 205.84 107.05 L 206.14 106.79 L 206.44 106.53 L 206.75 106.28 L 207.05 106.02 L 207.35 105.76 L 207.65 105.50 L 207.96 105.24 L 208.26 104.98 L 208.56 104.72 L 208.86 104.46 L 209.17 104.20 L 209.47 103.94 L 209.77 103.68 L 210.07 103.42 L 210.38 103.16 L 210.68 102.90 L 210.98 102.64 L 211.28 102.39 L 211.59 102.13 L 211.89 101.87 L 212.19 101.61 L 212.49 101.35 L 212.80 101.09 L 213.10 100.83 L 213.40 100.57 L 213.70 100.31 L 214.01 100.05 L 214.31 99.79 L 214.61 99.53 L 214.91 99.27 L 215.22 99.01 L 215.52 98.75 L 215.82 98.50 L 216.12 98.24 L 216.43 97.98 L 216.73 97.72 L 217.03 97.46 L 217.33 97.20 L 217.64 96.94 L 217.94 96.68 L 218.24 96.42 L 218.55 96.16 L 218.85 95.90 L 219.15 95.64 L 219.45 95.38 L 219.76 95.12 L 220.06 94.86 L 220.36 94.61 L 220.66 94.35 L 220.97 94.09 L 221.27 93.83 L 221.57 93.57 L 221.87 93.31 L 222.18 93.05 L 222.48 92.79 L 222.78 92.53 L 223.08 92.27 L 223.39 92.01 L 223.69 91.75 L 223.99 91.49 L 224.29 91.23 L 224.60 90.97 L 224.90 90.72 L 225.20 90.46 L 225.50 90.20 L 225.81 89.94 L 226.11 89.68 L 226.41 89.42 L 226.71 89.16 L 227.02 88.90 L 227.32 88.64 L 227.62 88.38 L 227.92 88.12 L 228.23 87.86 L 228.53 87.60 L 228.83 87.34 L 229.13 87.08 L 229.44 86.83 L 229.74 86.57 L 230.04 86.31 L 230.34 86.05 L 230.65 85.79 L 230.95 85.53 L 231.25 85.27 L 231.56 85.01 L 231.86 84.75 L 232.16 84.49 L 232.46 84.23 L 232.77 83.97 L 233.07 83.71 L 233.37 83.45 L 233.67 83.19 L 233.98 82.94 L 234.28 82.68 L 234.58 82.42 L 234.88 82.16 L 235.19 81.90 L 235.49 81.64 L 235.79 81.38 L 236.09 81.12 L 236.40 80.86 L 236.70 80.60 L 237.00 80.34 L 237.30 80.08 L 237.61 79.82 L 237.91 79.56 L 238.21 79.30 L 238.51 79.05 L 238.82 78.79 L 239.12 78.53 L 239.42 78.27 L 239.72 78.01 L 240.03 77.75 L 240.33 77.49 L 240.63 77.23 L 240.93 76.97 L 241.24 76.71 L 241.54 76.45 L 241.84 76.19 L 242.14 75.93 L 242.45 75.67 L 242.75 75.41 L 243.05 75.16 L 243.35 74.90 L 243.66 74.64 L 243.96 74.38 L 244.26 74.12 L 244.57 73.86 L 244.87 73.60 L 245.17 73.34 L 245.47 73.08 L 245.78 72.82 L 246.08 72.56 L 246.38 72.30 L 246.68 72.04 L 246.99 71.78 L 247.29 71.52 L 247.59 71.27 L 247.89 71.01 L 248.20 70.75 L 248.50 70.49 L 248.80 70.23 L 249.10 69.97 L 249.41 69.71 L 249.71 69.45 L 250.01 69.19 L 250.31 68.93 L 250.62 68.67 L 250.92 68.41 L 251.22 68.15 L 251.52 67.89 L 251.83 67.63 L 252.13 67.38 L 252.43 67.12 L 252.73 66.86 L 253.04 66.60 L 253.34 66.34 L 253.64 66.08 L 253.94 65.82 L 254.25 65.56 L 254.55 65.30 L 254.85 65.04 L 255.15 64.78 L 255.46 64.52 L 255.76 64.26 L 256.06 64.00 L 256.36 63.74 L 256.67 63.49 L 256.97 63.23 L 257.27 62.97 L 257.58 62.71 L 257.88 62.45 L 258.18 62.19 L 258.48 61.93 L 258.79 61.67 L 259.09 61.41 L 259.39 61.15 L 259.69 60.89 L 260.00 60.63 L 260.30 60.37 L 260.60 60.11 L 260.90 59.85 L 261.21 59.60 L 261.51 59.34 L 261.81 59.08 L 262.11 58.82 L 262.42 58.56 L 262.72 58.30 L 263.02 58.04 L 263.32 57.78 L 263.63 57.52 L 263.93 57.26 L 264.23 57.00 L 264.53 56.74 L 264.84 56.48 L 265.14 56.22 L 265.44 55.96 L 265.74 55.71 L 266.05 55.45 L 266.35 55.19 L 266.65 54.93 L 266.95 54.67 L 267.26 54.41 L 267.56 54.15 L 267.86 53.89 L 268.16 53.63 L 268.47 53.37 L 268.77 53.11 L 269.07 52.85 L 269.37 52.59 L 269.68 52.33 L 269.98 52.07 L 270.28 51.81 L 270.59 51.56 L 270.89 51.30 L 271.19 51.04 L 271.49 50.78 L 271.80 50.52 L 272.10 50.26 L 272.40 50.00 L 272.70 49.74 L 273.01 49.48 L 273.31 49.22 L 273.61 48.96 L 273.91 48.70 L 274.22 48.44 L 274.52 48.18 L 274.82 47.92 L 275.12 47.67 L 275.43 47.41 L 275.73 47.15 L 276.03 46.89 L 276.33 46.63 L 276.64 46.37 L 276.94 46.11 L 277.24 45.85 L 277.54 45.59 L 277.85 45.33 L 278.15 45.07 L 278.45 44.81 L 278.75 44.55 L 279.06 44.29 L 279.36 44.03 L 279.66 43.78 L 279.96 43.52 L 280.27 43.26 L 280.57 43.00 L 280.87 42.74 L 281.17 42.48 L 281.48 42.22 L 281.78 41.96 L 282.08 41.70 L 282.38 41.44 L 282.69 41.18 L 282.99 40.92 L 283.29 40.66 L 283.60 40.40 L 283.90 40.14 L 284.20 39.89 L 284.50 39.63 L 284.81 39.37 L 285.11 39.11 L 285.41 38.85 L 285.71 38.59 L 286.02 38.33 L 286.32 38.07 L 286.62 37.81 L 286.92 37.55 L 287.23 37.29 L 287.53 37.03 L 287.83 36.77 L 288.13 36.51 L 288.44 36.25 L 288.74 36.00 L 289.04 35.74 L 289.34 35.48 L 289.65 35.22 L 289.95 34.96 L 290.25 34.70 L 290.55 34.44 L 290.86 34.18 L 291.16 33.92 L 291.46 33.66 L 291.76 33.40 L 292.07 33.14 L 292.37 32.88 L 292.67 32.62 L 292.97 32.36 L 293.28 32.11 L 293.58 31.85 L 293.88 31.59 L 294.18 31.33 L 294.49 31.07 L 294.79 30.81 L 295.09 30.55 L 295.39 30.29 L 295.70 30.03 L 296.00 29.77" fill="none" stroke="#7E8692" stroke-width="2.3" stroke-linecap="round" stroke-linejoin="round"/>
</svg>
