<svg xmlns="http://www.w3.org/2000/svg" viewBox="0 0 320 180" width="320" height="180">
  <rect width="320" height="180" fill="#F4F5F7"/>
  <path d="M 18.00 40.30 L 18.32 40.48 L 18.63 40.65 L 18.95 40.83 L 19.26 41.00 L 19.58 41.17 L 19.90 41.35 L 20.21 41.52 L 20.53 41.70 L 20.84 41.87 L 21.16 42.05 L 21.47 42.22 L 21.79 42.40 L 22.11 42.57 L 22.42 42.75 L 22.74 42.92 L 23.05 43.10 L 23.37 43.27 L 23.69 43.45 L 24.00 43.63 L 24.32 43.80 L 24.63 43.98 L 24.95 44.16 L 25.27 44.33 L 25.58 44.51 L 25.90 44.69 L 26.21 44.86 L 26.53 45.04 L 26.85 45.22 L 27.16 45.39 L 27.48 45.57 L 27.79 45.75 L 28.11 45.93 L 28.42 46.11 L 28.74 46.28 L 29.06 46.46 L 29.37 46.64 L 29.69 46.82 L 30.00 47.00 L 30.32 47.18 L 30.64 47.36 L 30.95 47.53 L 31.27 47.71 L 31.58 47.89 L 31.90 48.07 L 32.22 48.25 L 32.53 48.43 L 32.85 48.61 L 33.16 48.79 L 33.48 48.97 L 33.80 49.15 L 34.11 49.33 L 34.43 49.52 L 34.74 49.70 L 35.06 49.88 L 35.37 50.06 L 35.69 50.24 L 36.01 50.42 L 36.32 50.60 L 36.64 50.78 L 36.95 50.97 L 37.27 51.15 L 37.59 51.33 L 37.90 51.51 L 38.22 51.70 L 38.53 51.88 L 38.85 52.06 L 39.17 52.25 L 39.48 52.43 L 39.80 52.61 L 40.11 52.80 L 40.43 52.98 L 40.75 53.16 L 41.06 53.35 L 41.38 53.53 L 41.69 53.72 L 42.01 53.90 L 42.32 54.09 L 42.64 54.27 L 42.96 54.46 L 43.27 54.64 L 43.59 54.83 L 43.90 55.01 L 44.22 55.20 L 44.54 55.38 L 44.85 55.57 L 45.17 55.76 L 45.48 55.94 L 45.80 56.13 L 46.12 56.32 L 46.43 56.50 L 46.75 56.69 L 47.06 56.88 L 47.38 57.06 L 47.70 57.25 L 48.01 57.44 L 48.33 57.63 L 48.64 57.82 L 48.96 58.00 L 49.27 58.19 L 49.59 58.38 L 49.91 58.57 L 50.22 58.76 L 50.54 58.95 L 50.85 59.14 L 51.17 59.33 L 51.49 59.52 L 51.80 59.71 L 52.12 59.90 L 52.43 60.09 L 52.75 60.28 L 53.07 60.47 L 53.38 60.66 L 53.70 60.85 L 54.01 61.04 L 54.33 61.23 L 54.65 61.43 L 54.96 61.62 L 55.28 61.81 L 55.59 62.00 L 55.91 62.19 L 56.22 62.39 L 56.54 62.58 L 56.86 62.77 L 57.17 62.97 L 57.49 63.16 L 57.80 63.35 L 58.12 63.55 L 58.44 63.74 L 58.75 63.93 L 59.07 64.13 L 59.38 64.32 L 59.70 64.52 L 60.02 64.71 L 60.33 64.91 L 60.65 65.10 L 60.96 65.30 L 61.28 65.50 L 61.60 65.69 L 61.91 65.89 L 62.23 66.08 L 62.54 66.28 L 62.86 66.48 L 63.17 66.68 L 63.49 66.87 L 63.81 67.07 L 64.12 67.27 L 64.44 67.47 L 64.75 67.66 L 65.07 67.86 L 65.39 68.06 L 65.70 68.26 L 66.02 68.46 L 66.33 68.66 L 66.65 68.86 L 66.97 69.06 L 67.28 69.26 L 67.60 69.46 L 67.91 69.66 L 68.23 69.86 L 68.55 70.06 L 68.86 70.26 L 69.18 70.46 L 69.49 70.66 L 69.81 70.87 L 70.12 71.07 L 70.44 71.27 L 70.76 71.47 L 71.07 71.68 L 71.39 71.88 L 71.70 72.08 L 72.02 72.29 L 72.34 72.49 L 72.65 72.69 L 72.97 72.90 L 73.28 73.10 L 73.60 73.31 L 73.92 73.51 L 74.23 73.72 L 74.55 73.92 L 74.86 74.13 L 75.18 74.33 L 75.49 74.54 L 75.81 74.75 L 76.13 74.95 L 76.44 75.16 L 76.76 75.37 L 77.07 75.58 L 77.39 75.78 L 77.71 75.99 L 78.02 76.20 L 78.34 76.41 L 78.65 76.62 L 78.97 76.83 L 79.29 77.04 L 79.60 77.25 L 79.92 77.46 L 80.23 77.67 L 80.55 77.88 L 80.87 78.09 L 81.18 78.30 L 81.50 78.51 L 81.81 78.72 L 82.13 78.93 L 82.44 79.15 L 82.76 79.36 L 83.08 79.57 L 83.39 79.78 L 83.71 80.00 L 84.02 80.21 L 84.34 80.43 L 84.66 80.64 L 84.97 80.85 L 85.29 81.07 L 85.60 81.28 L 85.92 81.50 L 86.24 81.72 L 86.55 81.93 L 86.87 82.15 L 87.18 82.37 L 87.50 82.58 L 87.82 82.80 L 88.13 83.02 L 88.45 83.24 L 88.76 83.45 L 89.08 83.67 L 89.39 83.89 L 89.71 84.11 L 90.03 84.33 L 90.34 84.55 L 90.66 84.77 L 90.97 84.99 L 91.29 85.21 L 91.61 85.43 L 91.92 85.65 L 92.24 85.88 L 92.55 86.10 L 92.87 86.32 L 93.19 86.54 L 93.50 86.77 L 93.82 86.99 L 94.13 87.22 L 94.45 87.44 L 94.77 87.67 L 95.08 87.89 L 95.40 88.12 L 95.71 88.34 L 96.03 88.57 L 96.34 88.79 L 96.66 89.02 L 96.98 89.25 L 97.29 89.48 L 97.61 89.71 L 97.92 89.93 L 98.24 90.16 L 98.56 90.39 L 98.87 90.62 L 99.19 90.85 L 99.50 91.08 L 99.82 91.31 L 100.14 91.54 L 100.45 91.78 L 100.77 92.01 L 101.08 92.24 L 101.40 92.47 L 101.72 92.71 L 102.03 92.94 L 102.35 93.18 L 102.66 93.41 L 102.98 93.65 L 103.29 93.88 L 103.61 94.12 L 103.93 94.35 L 104.24 94.59 L 104.56 94.83 L 104.87 95.06 L 105.19 95.30 L 105.51 95.54 L 105.82 95.78 L 106.14 96.02 L 106.45 96.26 L 106.77 96.50 L 107.09 96.74 L 107.40 96.98 L 107.72 97.23 L 108.03 97.47 L 108.35 97.71 L 108.67 97.95 L 108.98 98.20 L 109.30 98.44 L 109.61 98.69 L 109.93 98.93 L 110.24 99.18 L 110.56 99.43 L 110.88 99.67 L 111.19 99.92 L 111.51 100.17 L 111.82 100.42 L 112.14 100.67 L 112.46 100.92 L 112.77 101.17 L 113.09 101.42 L 113.40 101.67 L 113.72 101.92 L 114.04 102.17 L 114.35 102.43 L 114.67 102.68 L 114.98 102.93 L 115.30 103.19 L 115.62 103.44 L 115.93 103.70 L 116.25 103.96 L 116.56 104.21 L 116.88 104.47 L 117.19 104.73 L 117.51 104.99 L 117.83 105.25 L 118.14 105.51 L 118.46 105.77 L 118.77 106.03 L 119.09 106.30 L 119.41 106.56 L 119.72 106.82 L 120.04 107.09 L 120.35 107.35 L 120.67 107.62 L 120.99 107.89 L 121.30 108.15 L 121.62 108.42 L 121.93 108.69 L 122.25 108.96 L 122.57 109.23 L 122.88 109.50 L 123.20 109.77 L 123.51 110.05 L 123.83 110.32 L 124.14 110.59 L 124.46 110.87 L 124.78 111.14 L 125.09 111.42 L 125.41 111.70 L 125.72 111.98 L 126.04 112.26 L 126.36 112.54 L 126.67 112.82 L 126.99 113.10 L 127.30 113.38 L 127.62 113.67 L 127.94 113.95 L 128.25 114.24 L 128.57 114.52 L 128.88 114.81 L 129.20 115.10 L 129.52 115.39 L 129.83 115.68 L 130.15 115.97 L 130.46 116.26 L 130.78 116.56 L 131.09 116.85 L 131.41 117.15 L 131.73 117.44 L 132.04 117.74 L 132.36 118.04 L 132.67 118.34 L 132.99 118.64 L 133.31 118.94 L 133.62 119.25 L 133.94 119.55 L 134.25 119.86 L 134.57 120.17 L 134.89 120.47 L 135.20 120.78 L 135.52 121.10 L 135.83 121.41 L 136.15 121.72 L 136.46 122.04 L 136.78 122.35 L 137.10 122.67 L 137.41 122.99 L 137.73 123.31 L 138.04 123.64 L 138.36 123.96 L 138.68 124.29 L 138.99 124.61 L 139.31 124.94 L 139.62 125.27 L 139.94 125.61 L 140.26 125.94 L 140.57 126.28 L 140.89 126.61 L 141.20 126.95 L 141.52 127.29 L 141.84 127.64 L 142.15 127.98 L 142.47 128.33 L 142.78 128.68 L 143.10 129.03 L 143.41 129.39 L 143.73 129.74 L 144.05 130.10 L 144.36 130.46 L 144.68 130.83 L 144.99 131.19 L 145.31 131.56 L 145.63 131.93 L 145.94 132.31 L 146.26 132.68 L 146.57 133.06 L 146.89 133.44 L 147.21 133.83 L 147.52 134.22 L 147.84 134.61 L 148.15 135.01 L 148.47 135.41 L 148.79 135.81 L 149.10 136.22 L 149.42 136.63 L 149.73 137.04 L 150.05 137.46 L 150.36 137.88 L 150.68 138.31 L 151.00 138.74 L 151.31 139.18 L 151.63 139.62 L 151.94 140.07 L 152.26 140.53 L 152.58 140.99 L 152.89 141.46 L 153.21 141.93 L 153.52 142.41 L 153.84 142.90 L 154.16 143.40 L 154.47 143.91 L 154.79 144.43 L 155.10 144.95 L 155.42 145.49 L 155.74 146.05 L 156.05 146.61 L 156.37 147.19 L 156.68 147.79 L 157.00 148.41 L 157.31 149.05 L 157.63 149.71 L 157.95 150.41 L 158.26 151.14 L 158.58 151.92 L 158.89 152.76 L 159.21 153.68 L 159.53 154.74 L 159.84 156.10 L 160.16 156.10 L 160.47 154.74 L 160.79 153.68 L 161.11 152.76 L 161.42 151.92 L 161.74 151.14 L 162.05 150.41 L 162.37 149.71 L 162.69 149.05 L 163.00 148.41 L 163.32 147.79 L 163.63 147.19 L 163.95 146.61 L 164.26 146.05 L 164.58 145.49 L 164.90 144.95 L 165.21 144.43 L 165.53 143.91 L 165.84 143.40 L 166.16 142.90 L 166.48 142.41 L 166.79 141.93 L 167.11 141.46 L 167.42 140.99 L 167.74 140.53 L 168.06 140.07 L 168.37 139.62 L 168.69 139.18 L 169.00 138.74 L 169.32 138.31 L 169.64 137.88 L 169.95 137.46 L 170.27 137.04 L 170.58 136.63 L 170.90 136.22 L 171.21 135.81 L 171.53 135.41 L 171.85 135.01 L 172.16 134.61 L 172.48 134.22 L 172.79 133.83 L 173.11 133.44 L 173.43 133.06 L 173.74 132.68 L 174.06 132.31 L 174.37 131.93 L 174.69 131.56 L 175.01 131.19 L 175.32 130.83 L 175.64 130.46 L 175.95 130.10 L 176.27 129.74 L 176.59 129.39 L 176.90 129.03 L 177.22 128.68 L 177.53 128.33 L 177.85 127.98 L 178.16 127.64 L 178.48 127.29 L 178.80 126.95 L 179.11 126.61 L 179.43 126.28 L 179.74 125.94 L 180.06 125.61 L 180.38 125.27 L 180.69 124.94 L 181.01 124.61 L 181.32 124.29 L 181.64 123.96 L 181.96 123.64 L 182.27 123.31 L 182.59 122.99 L 182.90 122.67 L 183.22 122.35 L 183.54 122.04 L 183.85 121.72 L 184.17 121.41 L 184.48 121.10 L 184.80 120.78 L 185.11 120.47 L 185.43 120.17 L 185.75 119.86 L 186.06 119.55 L 186.38 119.25 L 186.69 118.94 L 187.01 118.64 L 187.33 118.34 L 187.64 118.04 L 187.96 117.74 L 188.27 117.44 L 188.59 117.15 L 188.91 116.85 L 189.22 116.56 L 189.54 116.26 L 189.85 115.97 L 190.17 115.68 L 190.48 115.39 L 190.80 115.10 L 191.12 114.81 L 191.43 114.52 L 191.75 114.24 L 192.06 113.95 L 192.38 113.67 L 192.70 113.38 L 193.01 113.10 L 193.33 112.82 L 193.64 112.54 L 193.96 112.26 L 194.28 111.98 L 194.59 111.70 L 194.91 111.42 L 195.22 111.14 L 195.54 110.87 L 195.86 110.59 L 196.17 110.32 L 196.49 110.05 L 196.80 109.77 L 197.12 109.50 L 197.43 109.23 L 197.75 108.96 L 198.07 108.69 L 198.38 108.42 L 198.70 108.15 L 199.01 107.89 L 199.33 107.62 L 199.65 107.35 L 199.96 107.09 L 200.28 106.82 L 200.59 106.56 L 200.91 106.30 L 201.23 106.03 L 201.54 105.77 L 201.86 105.51 L 202.17 105.25 L 202.49 104.99 L 202.81 104.73 L 203.12 104.47 L 203.44 104.21 L 203.75 103.96 L 204.07 103.70 L 204.38 103.44 L 204.70 103.19 L 205.02 102.93 L 205.33 102.68 L 205.65 102.43 L 205.96 102.17 L 206.28 101.92 L 206.60 101.67 L 206.91 101.42 L 207.23 101.17 L 207.54 100.92 L 207.86 100.67 L 208.18 100.42 L 208.49 100.17 L 208.81 99.92 L 209.12 99.67 L 209.44 99.43 L 209.76 99.18 L 210.07 98.93 L 210.39 98.69 L 210.70 98.44 L 211.02 98.20 L 211.33 97.95 L 211.65 97.71 L 211.97 97.47 L 212.28 97.23 L 212.60 96.98 L 212.91 96.74 L 213.23 96.50 L 213.55 96.26 L 213.86 96.02 L 214.18 95.78 L 214.49 95.54 L 214.81 95.30 L 215.13 95.06 L 215.44 94.83 L 215.76 94.59 L 216.07 94.35 L 216.39 94.12 L 216.71 93.88 L 217.02 93.65 L 217.34 93.41 L 217.65 93.18 L 217.97 92.94 L 218.28 92.71 L 218.60 92.47 L 218.92 92.24 L 219.23 92.01 L 219.55 91.78 L 219.86 91.54 L 220.18 91.31 L 220.50 91.08 L 220.81 90.85 L 221.13 90.62 L 221.44 90.39 L 221.76 90.16 L 222.08 89.93 L 222.39 89.71 L 222.71 89.48 L 223.02 89.25 L 223.34 89.02 L 223.66 88.79 L 223.97 88.57 L 224.29 88.34 L 224.60 88.12 L 224.92 87.89 L 225.23 87.67 L 225.55 87.44 L 225.87 87.22 L 226.18 86.99 L 226.50 86.77 L 226.81 86.54 L 227.13 86.32 L 227.45 86.10 L 227.76 85.88 L 228.08 85.65 L 228.39 85.43 L 228.71 85.21 L 229.03 84.99 L 229.34 84.77 L 229.66 84.55 L 229.97 84.33 L 230.29 84.11 L 230.61 83.89 L 230.92 83.67 L 231.24 83.45 L 231.55 83.24 L 231.87 83.02 L 232.18 82.80 L 232.50 82.58 L 232.82 82.37 L 233.13 82.15 L 233.45 81.93 L 233.76 81.72 L 234.08 81.50 L 234.40 81.28 L 234.71 81.07 L 235.03 80.85 L 235.34 80.64 L 235.66 80.43 L 235.98 80.21 L 236.29 80.00 L 236.61 79.78 L 236.92 79.57 L 237.24 79.36 L 237.56 79.15 L 237.87 78.93 L 238.19 78.72 L 238.50 78.51 L 238.82 78.30 L 239.13 78.09 L 239.45 77.88 L 239.77 77.67 L 240.08 77.46 L 240.40 77.25 L 240.71 77.04 L 241.03 76.83 L 241.35 76.62 L 241.66 76.41 L 241.98 76.20 L 242.29 75.99 L 242.61 75.78 L 242.93 75.58 L 243.24 75.37 L 243.56 75.16 L 243.87 74.95 L 244.19 74.75 L 244.51 74.54 L 244.82 74.33 L 245.14 74.13 L 245.45 73.92 L 245.77 73.72 L 246.08 73.51 L 246.40 73.31 L 246.72 73.10 L 247.03 72.90 L 247.35 72.69 L 247.66 72.49 L 247.98 72.29 L 248.30 72.08 L 248.61 71.88 L 248.93 71.68 L 249.24 71.47 L 249.56 71.27 L 249.88 71.07 L 250.19 70.87 L 250.51 70.66 L 250.82 70.46 L 251.14 70.26 L 251.45 70.06 L 251.77 69.86 L 252.09 69.66 L 252.40 69.46 L 252.72 69.26 L 253.03 69.06 L 253.35 68.86 L 253.67 68.66 L 253.98 68.46 L 254.30 68.26 L 254.61 68.06 L 254.93 67.86 L 255.25 67.66 L 255.56 67.47 L 255.88 67.27 L 256.19 67.07 L 256.51 66.87 L 256.83 66.68 L 257.14 66.48 L 257.46 66.28 L 257.77 66.08 L 258.09 65.89 L 258.40 65.69 L 258.72 65.50 L 259.04 65.30 L 259.35 65.10 L 259.67 64.91 L 259.98 64.71 L 260.30 64.52 L 260.62 64.32 L 260.93 64.13 L 261.25 63.93 L 261.56 63.74 L 261.88 63.55 L 262.20 63.35 L 262.51 63.16 L 262.83 62.97 L 263.14 62.77 L 263.46 62.58 L 263.78 62.39 L 264.09 62.19 L 264.41 62.00 L 264.72 61.81 L 265.04 61.62 L 265.35 61.43 L 265.67 61.23 L 265.99 61.04 L 266.30 60.85 L 266.62 60.66 L 266.93 60.47 L 267.25 60.28 L 267.57 60.09 L 267.88 59.90 L 268.20 59.71 L 268.51 59.52 L 268.83 59.33 L 269.15 59.14 L 269.46 58.95 L 269.78 58.76 L 270.09 58.57 L 270.41 58.38 L 270.73 58.19 L 271.04 58.00 L 271.36 57.82 L 271.67 57.63 L 271.99 57.44 L 272.30 57.25 L 272.62 57.06 L 272.94 56.88 L 273.25 56.69 L 273.57 56.50 L 273.88 56.32 L 274.20 56.13 L 274.52 55.94 L 274.83 55.76 L 275.15 55.57 L 275.46 55.38 L 275.78 55.20 L 276.10 55.01 L 276.41 54.83 L 276.73 54.64 L 277.04 54.46 L 277.36 54.27 L 277.68 54.09 L 277.99 53.90 L 278.31 53.72 L 278.62 53.53 L 278.94 53.35 L 279.25 53.16 L 279.57 52.98 L 279.89 52.80 L 280.20 52.61 L 280.52 52.43 L 280.83 52.25 L 281.15 52.06 L 281.47 51.88 L 281.78 51.70 L 282.10 51.51 L 282.41 51.33 L 282.73 51.15 L 283.05 50.97 L 283.36 50.78 L 283.68 50.60 L 283.99 50.42 L 284.31 50.24 L 284.63 50.06 L 284.94 49.88 L 285.26 49.70 L 285.57 49.52 L 285.89 49.33 L 286.20 49.15 L 286.52 48.97 L 286.84 48.79 L 287.15 48.61 L 287.47 48.43 L 287.78 48.25 L 288.10 48.07 L 288.42 47.89 L 288.73 47.71 L 289.05 47.53 L 289.36 47.36 L 289.68 47.18 L 290.00 47.00 L 290.31 46.82 L 290.63 46.64 L 290.94 46.46 L 291.26 46.28 L 291.58 46.11 L 291.89 45.93 L 292.21 45.75 L 292.52 45.57 L 292.84 45.39 L 293.15 45.22 L 293.47 45.04 L 293.79 44.86 L 294.10 44.69 L 294.42 44.51 L 294.73 44.33 L 295.05 44.16 L 295.37 43.98 L 295.68 43.80 L 296.00 43.63 L 296.31 43.45 L 296.63 43.27 L 296.95 43.10 L 297.26 42.92 L 297.58 42.75 L 297.89 42.57 L 298.21 42.40 L 298.53 42.22 L 298.84 42.05 L 299.16 41.87 L 299.47 41.70 L 299.79 41.52 L 300.10 41.35 L 300.42 41.17 L 300.74 41.00 L 301.05 40.83 L 301.37 40.65 L 301.68 40.48 L 302.00 40.30" fill="none" stroke="#7E8692" stroke-width="2.3" stroke-linecap="round" stroke-linejoin="round"/>
</svg>
