<svg xmlns="http://www.w3.org/2000/svg" viewBox="0 0 320 180" width="320" height="180">
  <rect width="320" height="180" fill="#F4F5F7"/>
  <path d="M 24.00 89.20 L 24.23 89.20 L 24.45 89.19 L 24.68 89.19 L 24.91 89.19 L 25.13 89.19 L 25.36 89.18 L 25.59 89.18 L 25.81 89.18 L 26.04 89.18 L 26.27 89.17 L 26.50 89.17 L 26.72 89.17 L 26.95 89.17 L 27.18 89.16 L 27.40 89.16 L 27.63 89.16 L 27.86 89.16 L 28.08 89.15 L 28.31 89.15 L 28.54 89.15 L 28.76 89.14 L 28.99 89.14 L 29.22 89.14 L 29.44 89.14 L 29.67 89.13 L 29.90 89.13 L 30.13 89.13 L 30.35 89.12 L 30.58 89.12 L 30.81 89.12 L 31.03 89.12 L 31.26 89.11 L 31.49 89.11 L 31.71 89.11 L 31.94 89.10 L 32.17 89.10 L 32.39 89.10 L 32.62 89.10 L 32.85 89.09 L 33.07 89.09 L 33.30 89.09 L 33.53 89.08 L 33.75 89.08 L 33.98 89.08 L 34.21 89.07 L 34.44 89.07 L 34.66 89.07 L 34.89 89.06 L 35.12 89.06 L 35.34 89.06 L 35.57 89.06 L 35.80 89.05 L 36.02 89.05 L 36.25 89.05 L 36.48 89.04 L 36.70 89.04 L 36.93 89.04 L 37.16 89.03 L 37.38 89.03 L 37.61 89.03 L 37.84 89.02 L 38.07 89.02 L 38.29 89.02 L 38.52 89.01 L 38.75 89.01 L 38.97 89.01 L 39.20 89.00 L 39.43 89.00 L 39.65 88.99 L 39.88 88.99 L 40.11 88.99 L 40.33 88.98 L 40.56 88.98 L 40.79 88.98 L 41.01 88.97 L 41.24 88.97 L 41.47 88.97 L 41.69 88.96 L 41.92 88.96 L 42.15 88.96 L 42.38 88.95 L 42.60 88.95 L 42.83 88.94 L 43.06 88.94 L 43.28 88.94 L 43.51 88.93 L 43.74 88.93 L 43.96 88.92 L 44.19 88.92 L 44.42 88.92 L 44.64 88.91 L 44.87 88.91 L 45.10 88.91 L 45.32 88.90 L 45.55 88.90 L 45.78 88.89 L 46.01 88.89 L 46.23 88.88 L 46.46 88.88 L 46.69 88.88 L 46.91 88.87 L 47.14 88.87 L 47.37 88.86 L 47.59 88.86 L 47.82 88.86 L 48.05 88.85 L 48.27 88.85 L 48.50 88.84 L 48.73 88.84 L 48.95 88.83 L 49.18 88.83 L 49.41 88.83 L 49.63 88.82 L 49.86 88.82 L 50.09 88.81 L 50.32 88.81 L 50.54 88.80 L 50.77 88.80 L 51.00 88.79 L 51.22 88.79 L 51.45 88.78 L 51.68 88.78 L 51.90 88.78 L 52.13 88.77 L 52.36 88.77 L 52.58 88.76 L 52.81 88.76 L 53.04 88.75 L 53.26 88.75 L 53.49 88.74 L 53.72 88.74 L 53.94 88.73 L 54.17 88.73 L 54.40 88.72 L 54.63 88.72 L 54.85 88.71 L 55.08 88.71 L 55.31 88.70 L 55.53 88.70 L 55.76 88.69 L 55.99 88.69 L 56.21 88.68 L 56.44 88.68 L 56.67 88.67 L 56.89 88.67 L 57.12 88.66 L 57.35 88.66 L 57.57 88.65 L 57.80 88.64 L 58.03 88.64 L 58.26 88.63 L 58.48 88.63 L 58.71 88.62 L 58.94 88.62 L 59.16 88.61 L 59.39 88.61 L 59.62 88.60 L 59.84 88.59 L 60.07 88.59 L 60.30 88.58 L 60.52 88.58 L 60.75 88.57 L 60.98 88.57 L 61.20 88.56 L 61.43 88.55 L 61.66 88.55 L 61.88 88.54 L 62.11 88.54 L 62.34 88.53 L 62.57 88.52 L 62.79 88.52 L 63.02 88.51 L 63.25 88.51 L 63.47 88.50 L 63.70 88.49 L 63.93 88.49 L 64.15 88.48 L 64.38 88.47 L 64.61 88.47 L 64.83 88.46 L 65.06 88.45 L 65.29 88.45 L 65.51 88.44 L 65.74 88.43 L 65.97 88.43 L 66.20 88.42 L 66.42 88.41 L 66.65 88.41 L 66.88 88.40 L 67.10 88.39 L 67.33 88.39 L 67.56 88.38 L 67.78 88.37 L 68.01 88.37 L 68.24 88.36 L 68.46 88.35 L 68.69 88.34 L 68.92 88.34 L 69.14 88.33 L 69.37 88.32 L 69.60 88.31 L 69.82 88.31 L 70.05 88.30 L 70.28 88.29 L 70.51 88.28 L 70.73 88.28 L 70.96 88.27 L 71.19 88.26 L 71.41 88.25 L 71.64 88.25 L 71.87 88.24 L 72.09 88.23 L 72.32 88.22 L 72.55 88.21 L 72.77 88.21 L 73.00 88.20 L 73.23 88.19 L 73.45 88.18 L 73.68 88.17 L 73.91 88.17 L 74.14 88.16 L 74.36 88.15 L 74.59 88.14 L 74.82 88.13 L 75.04 88.12 L 75.27 88.11 L 75.50 88.11 L 75.72 88.10 L 75.95 88.09 L 76.18 88.08 L 76.40 88.07 L 76.63 88.06 L 76.86 88.05 L 77.08 88.04 L 77.31 88.03 L 77.54 88.02 L 77.76 88.01 L 77.99 88.01 L 78.22 88.00 L 78.45 87.99 L 78.67 87.98 L 78.90 87.97 L 79.13 87.96 L 79.35 87.95 L 79.58 87.94 L 79.81 87.93 L 80.03 87.92 L 80.26 87.91 L 80.49 87.90 L 80.71 87.89 L 80.94 87.88 L 81.17 87.87 L 81.39 87.86 L 81.62 87.85 L 81.85 87.84 L 82.08 87.82 L 82.30 87.81 L 82.53 87.80 L 82.76 87.79 L 82.98 87.78 L 83.21 87.77 L 83.44 87.76 L 83.66 87.75 L 83.89 87.74 L 84.12 87.73 L 84.34 87.71 L 84.57 87.70 L 84.80 87.69 L 85.02 87.68 L 85.25 87.67 L 85.48 87.66 L 85.70 87.64 L 85.93 87.63 L 86.16 87.62 L 86.39 87.61 L 86.61 87.60 L 86.84 87.58 L 87.07 87.57 L 87.29 87.56 L 87.52 87.55 L 87.75 87.53 L 87.97 87.52 L 88.20 87.51 L 88.43 87.50 L 88.65 87.48 L 88.88 87.47 L 89.11 87.46 L 89.33 87.44 L 89.56 87.43 L 89.79 87.42 L 90.02 87.40 L 90.24 87.39 L 90.47 87.38 L 90.70 87.36 L 90.92 87.35 L 91.15 87.33 L 91.38 87.32 L 91.60 87.31 L 91.83 87.29 L 92.06 87.28 L 92.28 87.26 L 92.51 87.25 L 92.74 87.23 L 92.96 87.22 L 93.19 87.20 L 93.42 87.19 L 93.64 87.17 L 93.87 87.16 L 94.10 87.14 L 94.33 87.13 L 94.55 87.11 L 94.78 87.09 L 95.01 87.08 L 95.23 87.06 L 95.46 87.05 L 95.69 87.03 L 95.91 87.01 L 96.14 87.00 L 96.37 86.98 L 96.59 86.96 L 96.82 86.95 L 97.05 86.93 L 97.27 86.91 L 97.50 86.89 L 97.73 86.88 L 97.95 86.86 L 98.18 86.84 L 98.41 86.82 L 98.64 86.81 L 98.86 86.79 L 99.09 86.77 L 99.32 86.75 L 99.54 86.73 L 99.77 86.71 L 100.00 86.69 L 100.22 86.68 L 100.45 86.66 L 100.68 86.64 L 100.90 86.62 L 101.13 86.60 L 101.36 86.58 L 101.58 86.56 L 101.81 86.54 L 102.04 86.52 L 102.27 86.50 L 102.49 86.48 L 102.72 86.46 L 102.95 86.44 L 103.17 86.41 L 103.40 86.39 L 103.63 86.37 L 103.85 86.35 L 104.08 86.33 L 104.31 86.31 L 104.53 86.29 L 104.76 86.26 L 104.99 86.24 L 105.21 86.22 L 105.44 86.20 L 105.67 86.17 L 105.89 86.15 L 106.12 86.13 L 106.35 86.10 L 106.58 86.08 L 106.80 86.06 L 107.03 86.03 L 107.26 86.01 L 107.48 85.98 L 107.71 85.96 L 107.94 85.93 L 108.16 85.91 L 108.39 85.88 L 108.62 85.86 L 108.84 85.83 L 109.07 85.81 L 109.30 85.78 L 109.52 85.76 L 109.75 85.73 L 109.98 85.70 L 110.21 85.68 L 110.43 85.65 L 110.66 85.62 L 110.89 85.59 L 111.11 85.57 L 111.34 85.54 L 111.57 85.51 L 111.79 85.48 L 112.02 85.45 L 112.25 85.42 L 112.47 85.40 L 112.70 85.37 L 112.93 85.34 L 113.15 85.31 L 113.38 85.28 L 113.61 85.25 L 113.83 85.22 L 114.06 85.19 L 114.29 85.16 L 114.52 85.12 L 114.74 85.09 L 114.97 85.06 L 115.20 85.03 L 115.42 85.00 L 115.65 84.97 L 115.88 84.93 L 116.10 84.90 L 116.33 84.87 L 116.56 84.83 L 116.78 84.80 L 117.01 84.77 L 117.24 84.73 L 117.46 84.70 L 117.69 84.66 L 117.92 84.63 L 118.15 84.59 L 118.37 84.56 L 118.60 84.52 L 118.83 84.49 L 119.05 84.45 L 119.28 84.41 L 119.51 84.38 L 119.73 84.34 L 119.96 84.30 L 120.19 84.26 L 120.41 84.23 L 120.64 84.19 L 120.87 84.15 L 121.09 84.11 L 121.32 84.07 L 121.55 84.03 L 121.77 83.99 L 122.00 83.95 L 122.23 83.91 L 122.46 83.87 L 122.68 83.83 L 122.91 83.79 L 123.14 83.75 L 123.36 83.71 L 123.59 83.67 L 123.82 83.62 L 124.04 83.58 L 124.27 83.54 L 124.50 83.49 L 124.72 83.45 L 124.95 83.41 L 125.18 83.36 L 125.40 83.32 L 125.63 83.27 L 125.86 83.23 L 126.09 83.18 L 126.31 83.14 L 126.54 83.09 L 126.77 83.05 L 126.99 83.00 L 127.22 82.95 L 127.45 82.90 L 127.67 82.86 L 127.90 82.81 L 128.13 82.76 L 128.35 82.71 L 128.58 82.66 L 128.81 82.62 L 129.03 82.57 L 129.26 82.52 L 129.49 82.47 L 129.71 82.42 L 129.94 82.37 L 130.17 82.32 L 130.40 82.26 L 130.62 82.21 L 130.85 82.16 L 131.08 82.11 L 131.30 82.06 L 131.53 82.01 L 131.76 81.95 L 131.98 81.90 L 132.21 81.85 L 132.44 81.79 L 132.66 81.74 L 132.89 81.69 L 133.12 81.63 L 133.34 81.58 L 133.57 81.52 L 133.80 81.47 L 134.03 81.41 L 134.25 81.36 L 134.48 81.30 L 134.71 81.25 L 134.93 81.19 L 135.16 81.13 L 135.39 81.08 L 135.61 81.02 L 135.84 80.96 L 136.07 80.91 L 136.29 80.85 L 136.52 80.79 L 136.75 80.73 L 136.97 80.68 L 137.20 80.62 L 137.43 80.56 L 137.65 80.50 L 137.88 80.44 L 138.11 80.39 L 138.34 80.33 L 138.56 80.27 L 138.79 80.21 L 139.02 80.15 L 139.24 80.09 L 139.47 80.03 L 139.70 79.97 L 139.92 79.92 L 140.15 79.86 L 140.38 79.80 L 140.60 79.74 L 140.83 79.68 L 141.06 79.62 L 141.28 79.56 L 141.51 79.50 L 141.74 79.45 L 141.96 79.39 L 142.19 79.33 L 142.42 79.27 L 142.65 79.21 L 142.87 79.15 L 143.10 79.09 L 143.33 79.04 L 143.55 78.98 L 143.78 78.92 L 144.01 78.86 L 144.23 78.81 L 144.46 78.75 L 144.69 78.69 L 144.91 78.64 L 145.14 78.58 L 145.37 78.53 L 145.59 78.47 L 145.82 78.41 L 146.05 78.36 L 146.28 78.31 L 146.50 78.25 L 146.73 78.20 L 146.96 78.14 L 147.18 78.09 L 147.41 78.04 L 147.64 77.99 L 147.86 77.94 L 148.09 77.89 L 148.32 77.84 L 148.54 77.79 L 148.77 77.74 L 149.00 77.69 L 149.22 77.64 L 149.45 77.59 L 149.68 77.55 L 149.90 77.50 L 150.13 77.46 L 150.36 77.41 L 150.59 77.37 L 150.81 77.33 L 151.04 77.28 L 151.27 77.24 L 151.49 77.20 L 151.72 77.16 L 151.95 77.12 L 152.17 77.08 L 152.40 77.05 L 152.63 77.01 L 152.85 76.98 L 153.08 76.94 L 153.31 76.91 L 153.53 76.87 L 153.76 76.84 L 153.99 76.81 L 154.22 76.78 L 154.44 76.75 L 154.67 76.73 L 154.90 76.70 L 155.12 76.67 L 155.35 76.65 L 155.58 76.63 L 155.80 76.60 L 156.03 76.58 L 156.26 76.56 L 156.48 76.54 L 156.71 76.53 L 156.94 76.51 L 157.16 76.49 L 157.39 76.48 L 157.62 76.47 L 157.84 76.45 L 158.07 76.44 L 158.30 76.43 L 158.53 76.43 L 158.75 76.42 L 158.98 76.41 L 159.21 76.41 L 159.43 76.40 L 159.66 76.40 L 159.89 76.40 L 160.11 76.40 L 160.34 76.40 L 160.57 76.40 L 160.79 76.41 L 161.02 76.41 L 161.25 76.42 L 161.47 76.43 L 161.70 76.43 L 161.93 76.44 L 162.16 76.45 L 162.38 76.47 L 162.61 76.48 L 162.84 76.49 L 163.06 76.51 L 163.29 76.53 L 163.52 76.54 L 163.74 76.56 L 163.97 76.58 L 164.20 76.60 L 164.42 76.63 L 164.65 76.65 L 164.88 76.67 L 165.10 76.70 L 165.33 76.73 L 165.56 76.75 L 165.78 76.78 L 166.01 76.81 L 166.24 76.84 L 166.47 76.87 L 166.69 76.91 L 166.92 76.94 L 167.15 76.98 L 167.37 77.01 L 167.60 77.05 L 167.83 77.08 L 168.05 77.12 L 168.28 77.16 L 168.51 77.20 L 168.73 77.24 L 168.96 77.28 L 169.19 77.33 L 169.41 77.37 L 169.64 77.41 L 169.87 77.46 L 170.10 77.50 L 170.32 77.55 L 170.55 77.59 L 170.78 77.64 L 171.00 77.69 L 171.23 77.74 L 171.46 77.79 L 171.68 77.84 L 171.91 77.89 L 172.14 77.94 L 172.36 77.99 L 172.59 78.04 L 172.82 78.09 L 173.04 78.14 L 173.27 78.20 L 173.50 78.25 L 173.72 78.31 L 173.95 78.36 L 174.18 78.41 L 174.41 78.47 L 174.63 78.53 L 174.86 78.58 L 175.09 78.64 L 175.31 78.69 L 175.54 78.75 L 175.77 78.81 L 175.99 78.86 L 176.22 78.92 L 176.45 78.98 L 176.67 79.04 L 176.90 79.09 L 177.13 79.15 L 177.35 79.21 L 177.58 79.27 L 177.81 79.33 L 178.04 79.39 L 178.26 79.45 L 178.49 79.50 L 178.72 79.56 L 178.94 79.62 L 179.17 79.68 L 179.40 79.74 L 179.62 79.80 L 179.85 79.86 L 180.08 79.92 L 180.30 79.97 L 180.53 80.03 L 180.76 80.09 L 180.98 80.15 L 181.21 80.21 L 181.44 80.27 L 181.66 80.33 L 181.89 80.39 L 182.12 80.44 L 182.35 80.50 L 182.57 80.56 L 182.80 80.62 L 183.03 80.68 L 183.25 80.73 L 183.48 80.79 L 183.71 80.85 L 183.93 80.91 L 184.16 80.96 L 184.39 81.02 L 184.61 81.08 L 184.84 81.13 L 185.07 81.19 L 185.29 81.25 L 185.52 81.30 L 185.75 81.36 L 185.97 81.41 L 186.20 81.47 L 186.43 81.52 L 186.66 81.58 L 186.88 81.63 L 187.11 81.69 L 187.34 81.74 L 187.56 81.79 L 187.79 81.85 L 188.02 81.90 L 188.24 81.95 L 188.47 82.01 L 188.70 82.06 L 188.92 82.11 L 189.15 82.16 L 189.38 82.21 L 189.60 82.26 L 189.83 82.32 L 190.06 82.37 L 190.29 82.42 L 190.51 82.47 L 190.74 82.52 L 190.97 82.57 L 191.19 82.62 L 191.42 82.66 L 191.65 82.71 L 191.87 82.76 L 192.10 82.81 L 192.33 82.86 L 192.55 82.90 L 192.78 82.95 L 193.01 83.00 L 193.23 83.05 L 193.46 83.09 L 193.69 83.14 L 193.91 83.18 L 194.14 83.23 L 194.37 83.27 L 194.60 83.32 L 194.82 83.36 L 195.05 83.41 L 195.28 83.45 L 195.50 83.49 L 195.73 83.54 L 195.96 83.58 L 196.18 83.62 L 196.41 83.67 L 196.64 83.71 L 196.86 83.75 L 197.09 83.79 L 197.32 83.83 L 197.54 83.87 L 197.77 83.91 L 198.00 83.95 L 198.23 83.99 L 198.45 84.03 L 198.68 84.07 L 198.91 84.11 L 199.13 84.15 L 199.36 84.19 L 199.59 84.23 L 199.81 84.26 L 200.04 84.30 L 200.27 84.34 L 200.49 84.38 L 200.72 84.41 L 200.95 84.45 L 201.17 84.49 L 201.40 84.52 L 201.63 84.56 L 201.85 84.59 L 202.08 84.63 L 202.31 84.66 L 202.54 84.70 L 202.76 84.73 L 202.99 84.77 L 203.22 84.80 L 203.44 84.83 L 203.67 84.87 L 203.90 84.90 L 204.12 84.93 L 204.35 84.97 L 204.58 85.00 L 204.80 85.03 L 205.03 85.06 L 205.26 85.09 L 205.48 85.12 L 205.71 85.16 L 205.94 85.19 L 206.17 85.22 L 206.39 85.25 L 206.62 85.28 L 206.85 85.31 L 207.07 85.34 L 207.30 85.37 L 207.53 85.40 L 207.75 85.42 L 207.98 85.45 L 208.21 85.48 L 208.43 85.51 L 208.66 85.54 L 208.89 85.57 L 209.11 85.59 L 209.34 85.62 L 209.57 85.65 L 209.79 85.68 L 210.02 85.70 L 210.25 85.73 L 210.48 85.76 L 210.70 85.78 L 210.93 85.81 L 211.16 85.83 L 211.38 85.86 L 211.61 85.88 L 211.84 85.91 L 212.06 85.93 L 212.29 85.96 L 212.52 85.98 L 212.74 86.01 L 212.97 86.03 L 213.20 86.06 L 213.42 86.08 L 213.65 86.10 L 213.88 86.13 L 214.11 86.15 L 214.33 86.17 L 214.56 86.20 L 214.79 86.22 L 215.01 86.24 L 215.24 86.26 L 215.47 86.29 L 215.69 86.31 L 215.92 86.33 L 216.15 86.35 L 216.37 86.37 L 216.60 86.39 L 216.83 86.41 L 217.05 86.44 L 217.28 86.46 L 217.51 86.48 L 217.73 86.50 L 217.96 86.52 L 218.19 86.54 L 218.42 86.56 L 218.64 86.58 L 218.87 86.60 L 219.10 86.62 L 219.32 86.64 L 219.55 86.66 L 219.78 86.68 L 220.00 86.69 L 220.23 86.71 L 220.46 86.73 L 220.68 86.75 L 220.91 86.77 L 221.14 86.79 L 221.36 86.81 L 221.59 86.82 L 221.82 86.84 L 222.05 86.86 L 222.27 86.88 L 222.50 86.89 L 222.73 86.91 L 222.95 86.93 L 223.18 86.95 L 223.41 86.96 L 223.63 86.98 L 223.86 87.00 L 224.09 87.01 L 224.31 87.03 L 224.54 87.05 L 224.77 87.06 L 224.99 87.08 L 225.22 87.09 L 225.45 87.11 L 225.67 87.13 L 225.90 87.14 L 226.13 87.16 L 226.36 87.17 L 226.58 87.19 L 226.81 87.20 L 227.04 87.22 L 227.26 87.23 L 227.49 87.25 L 227.72 87.26 L 227.94 87.28 L 228.17 87.29 L 228.40 87.31 L 228.62 87.32 L 228.85 87.33 L 229.08 87.35 L 229.30 87.36 L 229.53 87.38 L 229.76 87.39 L 229.98 87.40 L 230.21 87.42 L 230.44 87.43 L 230.67 87.44 L 230.89 87.46 L 231.12 87.47 L 231.35 87.48 L 231.57 87.50 L 231.80 87.51 L 232.03 87.52 L 232.25 87.53 L 232.48 87.55 L 232.71 87.56 L 232.93 87.57 L 233.16 87.58 L 233.39 87.60 L 233.61 87.61 L 233.84 87.62 L 234.07 87.63 L 234.30 87.64 L 234.52 87.66 L 234.75 87.67 L 234.98 87.68 L 235.20 87.69 L 235.43 87.70 L 235.66 87.71 L 235.88 87.73 L 236.11 87.74 L 236.34 87.75 L 236.56 87.76 L 236.79 87.77 L 237.02 87.78 L 237.24 87.79 L 237.47 87.80 L 237.70 87.81 L 237.92 87.82 L 238.15 87.84 L 238.38 87.85 L 238.61 87.86 L 238.83 87.87 L 239.06 87.88 L 239.29 87.89 L 239.51 87.90 L 239.74 87.91 L 239.97 87.92 L 240.19 87.93 L 240.42 87.94 L 240.65 87.95 L 240.87 87.96 L 241.10 87.97 L 241.33 87.98 L 241.55 87.99 L 241.78 88.00 L 242.01 88.01 L 242.24 88.01 L 242.46 88.02 L 242.69 88.03 L 242.92 88.04 L 243.14 88.05 L 243.37 88.06 L 243.60 88.07 L 243.82 88.08 L 244.05 88.09 L 244.28 88.10 L 244.50 88.11 L 244.73 88.11 L 244.96 88.12 L 245.18 88.13 L 245.41 88.14 L 245.64 88.15 L 245.86 88.16 L 246.09 88.17 L 246.32 88.17 L 246.55 88.18 L 246.77 88.19 L 247.00 88.20 L 247.23 88.21 L 247.45 88.21 L 247.68 88.22 L 247.91 88.23 L 248.13 88.24 L 248.36 88.25 L 248.59 88.25 L 248.81 88.26 L 249.04 88.27 L 249.27 88.28 L 249.49 88.28 L 249.72 88.29 L 249.95 88.30 L 250.18 88.31 L 250.40 88.31 L 250.63 88.32 L 250.86 88.33 L 251.08 88.34 L 251.31 88.34 L 251.54 88.35 L 251.76 88.36 L 251.99 88.37 L 252.22 88.37 L 252.44 88.38 L 252.67 88.39 L 252.90 88.39 L 253.12 88.40 L 253.35 88.41 L 253.58 88.41 L 253.80 88.42 L 254.03 88.43 L 254.26 88.43 L 254.49 88.44 L 254.71 88.45 L 254.94 88.45 L 255.17 88.46 L 255.39 88.47 L 255.62 88.47 L 255.85 88.48 L 256.07 88.49 L 256.30 88.49 L 256.53 88.50 L 256.75 88.51 L 256.98 88.51 L 257.21 88.52 L 257.43 88.52 L 257.66 88.53 L 257.89 88.54 L 258.12 88.54 L 258.34 88.55 L 258.57 88.55 L 258.80 88.56 L 259.02 88.57 L 259.25 88.57 L 259.48 88.58 L 259.70 88.58 L 259.93 88.59 L 260.16 88.59 L 260.38 88.60 L 260.61 88.61 L 260.84 88.61 L 261.06 88.62 L 261.29 88.62 L 261.52 88.63 L 261.74 88.63 L 261.97 88.64 L 262.20 88.64 L 262.43 88.65 L 262.65 88.66 L 262.88 88.66 L 263.11 88.67 L 263.33 88.67 L 263.56 88.68 L 263.79 88.68 L 264.01 88.69 L 264.24 88.69 L 264.47 88.70 L 264.69 88.70 L 264.92 88.71 L 265.15 88.71 L 265.37 88.72 L 265.60 88.72 L 265.83 88.73 L 266.06 88.73 L 266.28 88.74 L 266.51 88.74 L 266.74 88.75 L 266.96 88.75 L 267.19 88.76 L 267.42 88.76 L 267.64 88.77 L 267.87 88.77 L 268.10 88.78 L 268.32 88.78 L 268.55 88.78 L 268.78 88.79 L 269.00 88.79 L 269.23 88.80 L 269.46 88.80 L 269.68 88.81 L 269.91 88.81 L 270.14 88.82 L 270.37 88.82 L 270.59 88.83 L 270.82 88.83 L 271.05 88.83 L 271.27 88.84 L 271.50 88.84 L 271.73 88.85 L 271.95 88.85 L 272.18 88.86 L 272.41 88.86 L 272.63 88.86 L 272.86 88.87 L 273.09 88.87 L 273.31 88.88 L 273.54 88.88 L 273.77 88.88 L 273.99 88.89 L 274.22 88.89 L 274.45 88.90 L 274.68 88.90 L 274.90 88.91 L 275.13 88.91 L 275.36 88.91 L 275.58 88.92 L 275.81 88.92 L 276.04 88.92 L 276.26 88.93 L 276.49 88.93 L 276.72 88.94 L 276.94 88.94 L 277.17 88.94 L 277.40 88.95 L 277.62 88.95 L 277.85 88.96 L 278.08 88.96 L 278.31 88.96 L 278.53 88.97 L 278.76 88.97 L 278.99 88.97 L 279.21 88.98 L 279.44 88.98 L 279.67 88.98 L 279.89 88.99 L 280.12 88.99 L 280.35 88.99 L 280.57 89.00 L 280.80 89.00 L 281.03 89.01 L 281.25 89.01 L 281.48 89.01 L 281.71 89.02 L 281.93 89.02 L 282.16 89.02 L 282.39 89.03 L 282.62 89.03 L 282.84 89.03 L 283.07 89.04 L 283.30 89.04 L 283.52 89.04 L 283.75 89.05 L 283.98 89.05 L 284.20 89.05 L 284.43 89.06 L 284.66 89.06 L 284.88 89.06 L 285.11 89.06 L 285.34 89.07 L 285.56 89.07 L 285.79 89.07 L 286.02 89.08 L 286.25 89.08 L 286.47 89.08 L 286.70 89.09 L 286.93 89.09 L 287.15 89.09 L 287.38 89.10 L 287.61 89.10 L 287.83 89.10 L 288.06 89.10 L 288.29 89.11 L 288.51 89.11 L 288.74 89.11 L 288.97 89.12 L 289.19 89.12 L 289.42 89.12 L 289.65 89.12 L 289.87 89.13 L 290.10 89.13 L 290.33 89.13 L 290.56 89.14 L 290.78 89.14 L 291.01 89.14 L 291.24 89.14 L 291.46 89.15 L 291.69 89.15 L 291.92 89.15 L 292.14 89.16 L 292.37 89.16 L 292.60 89.16 L 292.82 89.16 L 293.05 89.17 L 293.28 89.17 L 293.50 89.17 L 293.73 89.17 L 293.96 89.18 L 294.19 89.18 L 294.41 89.18 L 294.64 89.18 L 294.87 89.19 L 295.09 89.19 L 295.32 89.19 L 295.55 89.19 L 295.77 89.20 L 296.00 89.20" fill="none" stroke="#7E8692" stroke-width="2.3" stroke-linecap="round" stroke-linejoin="round"/>
</svg>
