<svg xmlns="http://www.w3.org/2000/svg" viewBox="0 0 320 180" width="320" height="180">
  <rect width="320" height="180" fill="#F4F5F7"/>
  <path d="M 24.00 144.94 L 24.30 144.92 L 24.61 144.90 L 24.91 144.88 L 25.21 144.87 L 25.51 144.85 L 25.82 144.83 L 26.12 144.81 L 26.42 144.80 L 26.72 144.78 L 27.03 144.76 L 27.33 144.74 L 27.63 144.73 L 27.93 144.71 L 28.24 144.69 L 28.54 144.67 L 28.84 144.65 L 29.14 144.63 L 29.45 144.62 L 29.75 144.60 L 30.05 144.58 L 30.35 144.56 L 30.66 144.54 L 30.96 144.52 L 31.26 144.50 L 31.56 144.48 L 31.87 144.46 L 32.17 144.45 L 32.47 144.43 L 32.77 144.41 L 33.08 144.39 L 33.38 144.37 L 33.68 144.35 L 33.98 144.33 L 34.29 144.31 L 34.59 144.29 L 34.89 144.27 L 35.19 144.25 L 35.50 144.23 L 35.80 144.21 L 36.10 144.19 L 36.40 144.17 L 36.71 144.15 L 37.01 144.13 L 37.31 144.10 L 37.62 144.08 L 37.92 144.06 L 38.22 144.04 L 38.52 144.02 L 38.83 144.00 L 39.13 143.98 L 39.43 143.96 L 39.73 143.93 L 40.04 143.91 L 40.34 143.89 L 40.64 143.87 L 40.94 143.85 L 41.25 143.83 L 41.55 143.80 L 41.85 143.78 L 42.15 143.76 L 42.46 143.74 L 42.76 143.71 L 43.06 143.69 L 43.36 143.67 L 43.67 143.64 L 43.97 143.62 L 44.27 143.60 L 44.57 143.57 L 44.88 143.55 L 45.18 143.53 L 45.48 143.50 L 45.78 143.48 L 46.09 143.46 L 46.39 143.43 L 46.69 143.41 L 46.99 143.38 L 47.30 143.36 L 47.60 143.33 L 47.90 143.31 L 48.20 143.29 L 48.51 143.26 L 48.81 143.24 L 49.11 143.21 L 49.41 143.18 L 49.72 143.16 L 50.02 143.13 L 50.32 143.11 L 50.63 143.08 L 50.93 143.06 L 51.23 143.03 L 51.53 143.00 L 51.84 142.98 L 52.14 142.95 L 52.44 142.92 L 52.74 142.90 L 53.05 142.87 L 53.35 142.84 L 53.65 142.82 L 53.95 142.79 L 54.26 142.76 L 54.56 142.73 L 54.86 142.71 L 55.16 142.68 L 55.47 142.65 L 55.77 142.62 L 56.07 142.59 L 56.37 142.56 L 56.68 142.54 L 56.98 142.51 L 57.28 142.48 L 57.58 142.45 L 57.89 142.42 L 58.19 142.39 L 58.49 142.36 L 58.79 142.33 L 59.10 142.30 L 59.40 142.27 L 59.70 142.24 L 60.00 142.21 L 60.31 142.18 L 60.61 142.15 L 60.91 142.12 L 61.21 142.08 L 61.52 142.05 L 61.82 142.02 L 62.12 141.99 L 62.42 141.96 L 62.73 141.93 L 63.03 141.89 L 63.33 141.86 L 63.64 141.83 L 63.94 141.79 L 64.24 141.76 L 64.54 141.73 L 64.85 141.69 L 65.15 141.66 L 65.45 141.63 L 65.75 141.59 L 66.06 141.56 L 66.36 141.52 L 66.66 141.49 L 66.96 141.45 L 67.27 141.42 L 67.57 141.38 L 67.87 141.35 L 68.17 141.31 L 68.48 141.28 L 68.78 141.24 L 69.08 141.20 L 69.38 141.17 L 69.69 141.13 L 69.99 141.09 L 70.29 141.06 L 70.59 141.02 L 70.90 140.98 L 71.20 140.94 L 71.50 140.90 L 71.80 140.87 L 72.11 140.83 L 72.41 140.79 L 72.71 140.75 L 73.01 140.71 L 73.32 140.67 L 73.62 140.63 L 73.92 140.59 L 74.22 140.55 L 74.53 140.51 L 74.83 140.47 L 75.13 140.43 L 75.43 140.38 L 75.74 140.34 L 76.04 140.30 L 76.34 140.26 L 76.65 140.21 L 76.95 140.17 L 77.25 140.13 L 77.55 140.09 L 77.86 140.04 L 78.16 140.00 L 78.46 139.95 L 78.76 139.91 L 79.07 139.86 L 79.37 139.82 L 79.67 139.77 L 79.97 139.73 L 80.28 139.68 L 80.58 139.63 L 80.88 139.59 L 81.18 139.54 L 81.49 139.49 L 81.79 139.44 L 82.09 139.40 L 82.39 139.35 L 82.70 139.30 L 83.00 139.25 L 83.30 139.20 L 83.60 139.15 L 83.91 139.10 L 84.21 139.05 L 84.51 139.00 L 84.81 138.95 L 85.12 138.90 L 85.42 138.84 L 85.72 138.79 L 86.02 138.74 L 86.33 138.68 L 86.63 138.63 L 86.93 138.58 L 87.23 138.52 L 87.54 138.47 L 87.84 138.41 L 88.14 138.36 L 88.44 138.30 L 88.75 138.25 L 89.05 138.19 L 89.35 138.13 L 89.66 138.07 L 89.96 138.02 L 90.26 137.96 L 90.56 137.90 L 90.87 137.84 L 91.17 137.78 L 91.47 137.72 L 91.77 137.66 L 92.08 137.60 L 92.38 137.53 L 92.68 137.47 L 92.98 137.41 L 93.29 137.35 L 93.59 137.28 L 93.89 137.22 L 94.19 137.15 L 94.50 137.09 L 94.80 137.02 L 95.10 136.96 L 95.40 136.89 L 95.71 136.82 L 96.01 136.76 L 96.31 136.69 L 96.61 136.62 L 96.92 136.55 L 97.22 136.48 L 97.52 136.41 L 97.82 136.34 L 98.13 136.26 L 98.43 136.19 L 98.73 136.12 L 99.03 136.05 L 99.34 135.97 L 99.64 135.90 L 99.94 135.82 L 100.24 135.75 L 100.55 135.67 L 100.85 135.59 L 101.15 135.51 L 101.45 135.43 L 101.76 135.36 L 102.06 135.28 L 102.36 135.19 L 102.67 135.11 L 102.97 135.03 L 103.27 134.95 L 103.57 134.86 L 103.88 134.78 L 104.18 134.70 L 104.48 134.61 L 104.78 134.52 L 105.09 134.44 L 105.39 134.35 L 105.69 134.26 L 105.99 134.17 L 106.30 134.08 L 106.60 133.99 L 106.90 133.90 L 107.20 133.80 L 107.51 133.71 L 107.81 133.61 L 108.11 133.52 L 108.41 133.42 L 108.72 133.33 L 109.02 133.23 L 109.32 133.13 L 109.62 133.03 L 109.93 132.93 L 110.23 132.83 L 110.53 132.72 L 110.83 132.62 L 111.14 132.51 L 111.44 132.41 L 111.74 132.30 L 112.04 132.19 L 112.35 132.09 L 112.65 131.98 L 112.95 131.86 L 113.25 131.75 L 113.56 131.64 L 113.86 131.53 L 114.16 131.41 L 114.46 131.29 L 114.77 131.18 L 115.07 131.06 L 115.37 130.94 L 115.68 130.82 L 115.98 130.69 L 116.28 130.57 L 116.58 130.45 L 116.89 130.32 L 117.19 130.19 L 117.49 130.06 L 117.79 129.93 L 118.10 129.80 L 118.40 129.67 L 118.70 129.54 L 119.00 129.40 L 119.31 129.26 L 119.61 129.13 L 119.91 128.99 L 120.21 128.85 L 120.52 128.70 L 120.82 128.56 L 121.12 128.41 L 121.42 128.27 L 121.73 128.12 L 122.03 127.97 L 122.33 127.82 L 122.63 127.66 L 122.94 127.51 L 123.24 127.35 L 123.54 127.19 L 123.84 127.03 L 124.15 126.87 L 124.45 126.71 L 124.75 126.54 L 125.05 126.38 L 125.36 126.21 L 125.66 126.04 L 125.96 125.86 L 126.26 125.69 L 126.57 125.51 L 126.87 125.34 L 127.17 125.15 L 127.47 124.97 L 127.78 124.79 L 128.08 124.60 L 128.38 124.41 L 128.69 124.22 L 128.99 124.03 L 129.29 123.84 L 129.59 123.64 L 129.90 123.44 L 130.20 123.24 L 130.50 123.04 L 130.80 122.83 L 131.11 122.62 L 131.41 122.41 L 131.71 122.20 L 132.01 121.99 L 132.32 121.77 L 132.62 121.55 L 132.92 121.33 L 133.22 121.10 L 133.53 120.87 L 133.83 120.65 L 134.13 120.41 L 134.43 120.18 L 134.74 119.94 L 135.04 119.70 L 135.34 119.46 L 135.64 119.21 L 135.95 118.96 L 136.25 118.71 L 136.55 118.46 L 136.85 118.20 L 137.16 117.94 L 137.46 117.68 L 137.76 117.41 L 138.06 117.15 L 138.37 116.88 L 138.67 116.60 L 138.97 116.32 L 139.27 116.04 L 139.58 115.76 L 139.88 115.48 L 140.18 115.19 L 140.48 114.89 L 140.79 114.60 L 141.09 114.30 L 141.39 114.00 L 141.70 113.69 L 142.00 113.39 L 142.30 113.08 L 142.60 112.76 L 142.91 112.44 L 143.21 112.12 L 143.51 111.80 L 143.81 111.47 L 144.12 111.14 L 144.42 110.81 L 144.72 110.47 L 145.02 110.13 L 145.33 109.79 L 145.63 109.44 L 145.93 109.09 L 146.23 108.74 L 146.54 108.39 L 146.84 108.03 L 147.14 107.66 L 147.44 107.30 L 147.75 106.93 L 148.05 106.56 L 148.35 106.18 L 148.65 105.81 L 148.96 105.43 L 149.26 105.04 L 149.56 104.66 L 149.86 104.27 L 150.17 103.88 L 150.47 103.48 L 150.77 103.08 L 151.07 102.68 L 151.38 102.28 L 151.68 101.87 L 151.98 101.47 L 152.28 101.06 L 152.59 100.64 L 152.89 100.23 L 153.19 99.81 L 153.49 99.39 L 153.80 98.97 L 154.10 98.54 L 154.40 98.12 L 154.71 97.69 L 155.01 97.26 L 155.31 96.83 L 155.61 96.40 L 155.92 95.96 L 156.22 95.53 L 156.52 95.09 L 156.82 94.65 L 157.13 94.21 L 157.43 93.77 L 157.73 93.33 L 158.03 92.89 L 158.34 92.44 L 158.64 92.00 L 158.94 91.56 L 159.24 91.11 L 159.55 90.67 L 159.85 90.22 L 160.15 89.78 L 160.45 89.33 L 160.76 88.89 L 161.06 88.44 L 161.36 88.00 L 161.66 87.56 L 161.97 87.11 L 162.27 86.67 L 162.57 86.23 L 162.87 85.79 L 163.18 85.35 L 163.48 84.91 L 163.78 84.47 L 164.08 84.04 L 164.39 83.60 L 164.69 83.17 L 164.99 82.74 L 165.29 82.31 L 165.60 81.88 L 165.90 81.46 L 166.20 81.03 L 166.51 80.61 L 166.81 80.19 L 167.11 79.77 L 167.41 79.36 L 167.72 78.94 L 168.02 78.53 L 168.32 78.13 L 168.62 77.72 L 168.93 77.32 L 169.23 76.92 L 169.53 76.52 L 169.83 76.12 L 170.14 75.73 L 170.44 75.34 L 170.74 74.96 L 171.04 74.57 L 171.35 74.19 L 171.65 73.82 L 171.95 73.44 L 172.25 73.07 L 172.56 72.70 L 172.86 72.34 L 173.16 71.97 L 173.46 71.61 L 173.77 71.26 L 174.07 70.91 L 174.37 70.56 L 174.67 70.21 L 174.98 69.87 L 175.28 69.53 L 175.58 69.19 L 175.88 68.86 L 176.19 68.53 L 176.49 68.20 L 176.79 67.88 L 177.09 67.56 L 177.40 67.24 L 177.70 66.92 L 178.00 66.61 L 178.30 66.31 L 178.61 66.00 L 178.91 65.70 L 179.21 65.40 L 179.52 65.11 L 179.82 64.81 L 180.12 64.52 L 180.42 64.24 L 180.73 63.96 L 181.03 63.68 L 181.33 63.40 L 181.63 63.12 L 181.94 62.85 L 182.24 62.59 L 182.54 62.32 L 182.84 62.06 L 183.15 61.80 L 183.45 61.54 L 183.75 61.29 L 184.05 61.04 L 184.36 60.79 L 184.66 60.54 L 184.96 60.30 L 185.26 60.06 L 185.57 59.82 L 185.87 59.59 L 186.17 59.35 L 186.47 59.13 L 186.78 58.90 L 187.08 58.67 L 187.38 58.45 L 187.68 58.23 L 187.99 58.01 L 188.29 57.80 L 188.59 57.59 L 188.89 57.38 L 189.20 57.17 L 189.50 56.96 L 189.80 56.76 L 190.10 56.56 L 190.41 56.36 L 190.71 56.16 L 191.01 55.97 L 191.31 55.78 L 191.62 55.59 L 191.92 55.40 L 192.22 55.21 L 192.53 55.03 L 192.83 54.85 L 193.13 54.66 L 193.43 54.49 L 193.74 54.31 L 194.04 54.14 L 194.34 53.96 L 194.64 53.79 L 194.95 53.62 L 195.25 53.46 L 195.55 53.29 L 195.85 53.13 L 196.16 52.97 L 196.46 52.81 L 196.76 52.65 L 197.06 52.49 L 197.37 52.34 L 197.67 52.18 L 197.97 52.03 L 198.27 51.88 L 198.58 51.73 L 198.88 51.59 L 199.18 51.44 L 199.48 51.30 L 199.79 51.15 L 200.09 51.01 L 200.39 50.87 L 200.69 50.74 L 201.00 50.60 L 201.30 50.46 L 201.60 50.33 L 201.90 50.20 L 202.21 50.07 L 202.51 49.94 L 202.81 49.81 L 203.11 49.68 L 203.42 49.55 L 203.72 49.43 L 204.02 49.31 L 204.32 49.18 L 204.63 49.06 L 204.93 48.94 L 205.23 48.82 L 205.54 48.71 L 205.84 48.59 L 206.14 48.47 L 206.44 48.36 L 206.75 48.25 L 207.05 48.14 L 207.35 48.02 L 207.65 47.91 L 207.96 47.81 L 208.26 47.70 L 208.56 47.59 L 208.86 47.49 L 209.17 47.38 L 209.47 47.28 L 209.77 47.17 L 210.07 47.07 L 210.38 46.97 L 210.68 46.87 L 210.98 46.77 L 211.28 46.67 L 211.59 46.58 L 211.89 46.48 L 212.19 46.39 L 212.49 46.29 L 212.80 46.20 L 213.10 46.10 L 213.40 46.01 L 213.70 45.92 L 214.01 45.83 L 214.31 45.74 L 214.61 45.65 L 214.91 45.56 L 215.22 45.48 L 215.52 45.39 L 215.82 45.30 L 216.12 45.22 L 216.43 45.14 L 216.73 45.05 L 217.03 44.97 L 217.33 44.89 L 217.64 44.81 L 217.94 44.72 L 218.24 44.64 L 218.55 44.57 L 218.85 44.49 L 219.15 44.41 L 219.45 44.33 L 219.76 44.25 L 220.06 44.18 L 220.36 44.10 L 220.66 44.03 L 220.97 43.95 L 221.27 43.88 L 221.57 43.81 L 221.87 43.74 L 222.18 43.66 L 222.48 43.59 L 222.78 43.52 L 223.08 43.45 L 223.39 43.38 L 223.69 43.31 L 223.99 43.24 L 224.29 43.18 L 224.60 43.11 L 224.90 43.04 L 225.20 42.98 L 225.50 42.91 L 225.81 42.85 L 226.11 42.78 L 226.41 42.72 L 226.71 42.65 L 227.02 42.59 L 227.32 42.53 L 227.62 42.47 L 227.92 42.40 L 228.23 42.34 L 228.53 42.28 L 228.83 42.22 L 229.13 42.16 L 229.44 42.10 L 229.74 42.04 L 230.04 41.98 L 230.34 41.93 L 230.65 41.87 L 230.95 41.81 L 231.25 41.75 L 231.56 41.70 L 231.86 41.64 L 232.16 41.59 L 232.46 41.53 L 232.77 41.48 L 233.07 41.42 L 233.37 41.37 L 233.67 41.32 L 233.98 41.26 L 234.28 41.21 L 234.58 41.16 L 234.88 41.10 L 235.19 41.05 L 235.49 41.00 L 235.79 40.95 L 236.09 40.90 L 236.40 40.85 L 236.70 40.80 L 237.00 40.75 L 237.30 40.70 L 237.61 40.65 L 237.91 40.60 L 238.21 40.56 L 238.51 40.51 L 238.82 40.46 L 239.12 40.41 L 239.42 40.37 L 239.72 40.32 L 240.03 40.27 L 240.33 40.23 L 240.63 40.18 L 240.93 40.14 L 241.24 40.09 L 241.54 40.05 L 241.84 40.00 L 242.14 39.96 L 242.45 39.91 L 242.75 39.87 L 243.05 39.83 L 243.35 39.79 L 243.66 39.74 L 243.96 39.70 L 244.26 39.66 L 244.57 39.62 L 244.87 39.57 L 245.17 39.53 L 245.47 39.49 L 245.78 39.45 L 246.08 39.41 L 246.38 39.37 L 246.68 39.33 L 246.99 39.29 L 247.29 39.25 L 247.59 39.21 L 247.89 39.17 L 248.20 39.13 L 248.50 39.10 L 248.80 39.06 L 249.10 39.02 L 249.41 38.98 L 249.71 38.94 L 250.01 38.91 L 250.31 38.87 L 250.62 38.83 L 250.92 38.80 L 251.22 38.76 L 251.52 38.72 L 251.83 38.69 L 252.13 38.65 L 252.43 38.62 L 252.73 38.58 L 253.04 38.55 L 253.34 38.51 L 253.64 38.48 L 253.94 38.44 L 254.25 38.41 L 254.55 38.37 L 254.85 38.34 L 255.15 38.31 L 255.46 38.27 L 255.76 38.24 L 256.06 38.21 L 256.36 38.17 L 256.67 38.14 L 256.97 38.11 L 257.27 38.07 L 257.58 38.04 L 257.88 38.01 L 258.18 37.98 L 258.48 37.95 L 258.79 37.92 L 259.09 37.88 L 259.39 37.85 L 259.69 37.82 L 260.00 37.79 L 260.30 37.76 L 260.60 37.73 L 260.90 37.70 L 261.21 37.67 L 261.51 37.64 L 261.81 37.61 L 262.11 37.58 L 262.42 37.55 L 262.72 37.52 L 263.02 37.49 L 263.32 37.46 L 263.63 37.44 L 263.93 37.41 L 264.23 37.38 L 264.53 37.35 L 264.84 37.32 L 265.14 37.29 L 265.44 37.27 L 265.74 37.24 L 266.05 37.21 L 266.35 37.18 L 266.65 37.16 L 266.95 37.13 L 267.26 37.10 L 267.56 37.08 L 267.86 37.05 L 268.16 37.02 L 268.47 37.00 L 268.77 36.97 L 269.07 36.94 L 269.37 36.92 L 269.68 36.89 L 269.98 36.87 L 270.28 36.84 L 270.59 36.82 L 270.89 36.79 L 271.19 36.76 L 271.49 36.74 L 271.80 36.71 L 272.10 36.69 L 272.40 36.67 L 272.70 36.64 L 273.01 36.62 L 273.31 36.59 L 273.61 36.57 L 273.91 36.54 L 274.22 36.52 L 274.52 36.50 L 274.82 36.47 L 275.12 36.45 L 275.43 36.43 L 275.73 36.40 L 276.03 36.38 L 276.33 36.36 L 276.64 36.33 L 276.94 36.31 L 277.24 36.29 L 277.54 36.26 L 277.85 36.24 L 278.15 36.22 L 278.45 36.20 L 278.75 36.17 L 279.06 36.15 L 279.36 36.13 L 279.66 36.11 L 279.96 36.09 L 280.27 36.07 L 280.57 36.04 L 280.87 36.02 L 281.17 36.00 L 281.48 35.98 L 281.78 35.96 L 282.08 35.94 L 282.38 35.92 L 282.69 35.90 L 282.99 35.87 L 283.29 35.85 L 283.60 35.83 L 283.90 35.81 L 284.20 35.79 L 284.50 35.77 L 284.81 35.75 L 285.11 35.73 L 285.41 35.71 L 285.71 35.69 L 286.02 35.67 L 286.32 35.65 L 286.62 35.63 L 286.92 35.61 L 287.23 35.59 L 287.53 35.57 L 287.83 35.55 L 288.13 35.54 L 288.44 35.52 L 288.74 35.50 L 289.04 35.48 L 289.34 35.46 L 289.65 35.44 L 289.95 35.42 L 290.25 35.40 L 290.55 35.38 L 290.86 35.37 L 291.16 35.35 L 291.46 35.33 L 291.76 35.31 L 292.07 35.29 L 292.37 35.27 L 292.67 35.26 L 292.97 35.24 L 293.28 35.22 L 293.58 35.20 L 293.88 35.19 L 294.18 35.17 L 294.49 35.15 L 294.79 35.13 L 295.09 35.12 L 295.39 35.10 L 295.70 35.08 L 296.00 35.06" fill="none" stroke="#7E8692" stroke-width="2.3" stroke-linecap="round" stroke-linejoin="round"/>
</svg>
