<svg xmlns="http://www.w3.org/2000/svg" viewBox="0 0 320 180" width="320" height="180">
  <rect width="320" height="180" fill="#F4F5F7"/>
  <path d="M 18.00 157.50 L 18.32 157.50 L 18.63 157.50 L 18.95 157.50 L 19.26 157.50 L 19.58 157.50 L 19.90 157.50 L 20.21 157.50 L 20.53 157.50 L 20.84 157.50 L 21.16 157.50 L 21.47 157.50 L 21.79 157.50 L 22.11 157.50 L 22.42 157.50 L 22.74 157.50 L 23.05 157.50 L 23.37 157.50 L 23.69 157.50 L 24.00 157.50 L 24.32 157.50 L 24.63 157.50 L 24.95 157.50 L 25.27 157.50 L 25.58 157.50 L 25.90 157.50 L 26.21 157.50 L 26.53 157.50 L 26.85 157.50 L 27.16 157.50 L 27.48 157.50 L 27.79 157.50 L 28.11 157.50 L 28.42 157.50 L 28.74 157.50 L 29.06 157.50 L 29.37 157.50 L 29.69 157.50 L 30.00 157.50 L 30.32 157.50 L 30.64 157.50 L 30.95 157.50 L 31.27 157.50 L 31.58 157.50 L 31.90 157.50 L 32.22 157.50 L 32.53 157.50 L 32.85 157.50 L 33.16 157.50 L 33.48 157.50 L 33.80 157.50 L 34.11 157.50 L 34.43 157.50 L 34.74 157.50 L 35.06 157.50 L 35.37 157.50 L 35.69 157.50 L 36.01 157.50 L 36.32 157.50 L 36.64 157.50 L 36.95 157.50 L 37.27 157.50 L 37.59 157.50 L 37.90 157.50 L 38.22 157.50 L 38.53 157.50 L 38.85 157.50 L 39.17 157.50 L 39.48 157.50 L 39.80 157.50 L 40.11 157.50 L 40.43 157.50 L 40.75 157.50 L 41.06 157.50 L 41.38 157.50 L 41.69 157.50 L 42.01 157.50 L 42.32 157.50 L 42.64 157.50 L 42.96 157.50 L 43.27 157.50 L 43.59 157.50 L 43.90 157.50 L 44.22 157.50 L 44.54 157.50 L 44.85 157.50 L 45.17 157.50 L 45.48 157.50 L 45.80 157.50 L 46.12 157.50 L 46.43 157.50 L 46.75 157.50 L 47.06 157.50 L 47.38 157.50 L 47.70 157.50 L 48.01 157.50 L 48.33 157.50 L 48.64 157.50 L 48.96 157.50 L 49.27 157.50 L 49.59 157.50 L 49.91 157.50 L 50.22 157.50 L 50.54 157.50 L 50.85 157.50 L 51.17 157.50 L 51.49 157.50 L 51.80 157.50 L 52.12 157.50 L 52.43 157.50 L 52.75 157.50 L 53.07 157.50 L 53.38 157.50 L 53.70 157.50 L 54.01 157.50 L 54.33 157.50 L 54.65 157.50 L 54.96 157.50 L 55.28 157.50 L 55.59 157.50 L 55.91 157.50 L 56.22 157.50 L 56.54 157.50 L 56.86 157.50 L 57.17 157.50 L 57.49 157.50 L 57.80 157.50 L 58.12 157.50 L 58.44 157.50 L 58.75 157.50 L 59.07 157.50 L 59.38 157.50 L 59.70 157.50 L 60.02 157.50 L 60.33 157.50 L 60.65 157.50 L 60.96 157.50 L 61.28 157.50 L 61.60 157.50 L 61.91 157.50" fill="none" stroke="#7E8692" stroke-width="2.3" stroke-linecap="round" stroke-linejoin="round"/>
  <path d="M 68.86 135.00 L 69.18 135.00 L 69.49 135.00 L 69.81 135.00 L 70.12 135.00 L 70.44 135.00 L 70.76 135.00 L 71.07 135.00 L 71.39 135.00 L 71.70 135.00 L 72.02 135.00 L 72.34 135.00 L 72.65 135.00 L 72.97 135.00 L 73.28 135.00 L 73.60 135.00 L 73.92 135.00 L 74.23 135.00 L 74.55 135.00 L 74.86 135.00 L 75.18 135.00 L 75.49 135.00 L 75.81 135.00 L 76.13 135.00 L 76.44 135.00 L 76.76 135.00 L 77.07 135.00 L 77.39 135.00 L 77.71 135.00 L 78.02 135.00 L 78.34 135.00 L 78.65 135.00 L 78.97 135.00 L 79.29 135.00 L 79.60 135.00 L 79.92 135.00 L 80.23 135.00 L 80.55 135.00 L 80.87 135.00 L 81.18 135.00 L 81.50 135.00 L 81.81 135.00 L 82.13 135.00 L 82.44 135.00 L 82.76 135.00 L 83.08 135.00 L 83.39 135.00 L 83.71 135.00 L 84.02 135.00 L 84.34 135.00 L 84.66 135.00 L 84.97 135.00 L 85.29 135.00 L 85.60 135.00 L 85.92 135.00 L 86.24 135.00 L 86.55 135.00 L 86.87 135.00 L 87.18 135.00 L 87.50 135.00 L 87.82 135.00 L 88.13 135.00 L 88.45 135.00 L 88.76 135.00 L 89.08 135.00 L 89.39 135.00 L 89.71 135.00 L 90.03 135.00 L 90.34 135.00 L 90.66 135.00 L 90.97 135.00 L 91.29 135.00 L 91.61 135.00 L 91.92 135.00 L 92.24 135.00 L 92.55 135.00 L 92.87 135.00 L 93.19 135.00 L 93.50 135.00 L 93.82 135.00 L 94.13 135.00 L 94.45 135.00 L 94.77 135.00 L 95.08 135.00 L 95.40 135.00 L 95.71 135.00 L 96.03 135.00 L 96.34 135.00 L 96.66 135.00 L 96.98 135.00 L 97.29 135.00 L 97.61 135.00 L 97.92 135.00 L 98.24 135.00 L 98.56 135.00 L 98.87 135.00 L 99.19 135.00 L 99.50 135.00 L 99.82 135.00 L 100.14 135.00 L 100.45 135.00 L 100.77 135.00 L 101.08 135.00 L 101.40 135.00 L 101.72 135.00 L 102.03 135.00 L 102.35 135.00 L 102.66 135.00 L 102.98 135.00 L 103.29 135.00 L 103.61 135.00 L 103.93 135.00 L 104.24 135.00 L 104.56 135.00 L 104.87 135.00 L 105.19 135.00 L 105.51 135.00 L 105.82 135.00 L 106.14 135.00 L 106.45 135.00 L 106.77 135.00 L 107.09 135.00 L 107.40 135.00 L 107.72 135.00 L 108.03 135.00 L 108.35 135.00 L 108.67 135.00 L 108.98 135.00" fill="none" stroke="#7E8692" stroke-width="2.3" stroke-linecap="round" stroke-linejoin="round"/>
  <path d="M 116.25 112.50 L 116.56 112.50 L 116.88 112.50 L 117.19 112.50 L 117.51 112.50 L 117.83 112.50 L 118.14 112.50 L 118.46 112.50 L 118.77 112.50 L 119.09 112.50 L 119.41 112.50 L 119.72 112.50 L 120.04 112.50 L 120.35 112.50 L 120.67 112.50 L 120.99 112.50 L 121.30 112.50 L 121.62 112.50 L 121.93 112.50 L 122.25 112.50 L 122.57 112.50 L 122.88 112.50 L 123.20 112.50 L 123.51 112.50 L 123.83 112.50 L 124.14 112.50 L 124.46 112.50 L 124.78 112.50 L 125.09 112.50 L 125.41 112.50 L 125.72 112.50 L 126.04 112.50 L 126.36 112.50 L 126.67 112.50 L 126.99 112.50 L 127.30 112.50 L 127.62 112.50 L 127.94 112.50 L 128.25 112.50 L 128.57 112.50 L 128.88 112.50 L 129.20 112.50 L 129.52 112.50 L 129.83 112.50 L 130.15 112.50 L 130.46 112.50 L 130.78 112.50 L 131.09 112.50 L 131.41 112.50 L 131.73 112.50 L 132.04 112.50 L 132.36 112.50 L 132.67 112.50 L 132.99 112.50 L 133.31 112.50 L 133.62 112.50 L 133.94 112.50 L 134.25 112.50 L 134.57 112.50 L 134.89 112.50 L 135.20 112.50 L 135.52 112.50 L 135.83 112.50 L 136.15 112.50 L 136.46 112.50 L 136.78 112.50 L 137.10 112.50 L 137.41 112.50 L 137.73 112.50 L 138.04 112.50 L 138.36 112.50 L 138.68 112.50 L 138.99 112.50 L 139.31 112.50 L 139.62 112.50 L 139.94 112.50 L 140.26 112.50 L 140.57 112.50 L 140.89 112.50 L 141.20 112.50 L 141.52 112.50 L 141.84 112.50 L 142.15 112.50 L 142.47 112.50 L 142.78 112.50 L 143.10 112.50 L 143.41 112.50 L 143.73 112.50 L 144.05 112.50 L 144.36 112.50 L 144.68 112.50 L 144.99 112.50 L 145.31 112.50 L 145.63 112.50 L 145.94 112.50 L 146.26 112.50 L 146.57 112.50 L 146.89 112.50 L 147.21 112.50 L 147.52 112.50 L 147.84 112.50 L 148.15 112.50 L 148.47 112.50 L 148.79 112.50 L 149.10 112.50 L 149.42 112.50 L 149.73 112.50 L 150.05 112.50 L 150.36 112.50 L 150.68 112.50 L 151.00 112.50 L 151.31 112.50 L 151.63 112.50 L 151.94 112.50 L 152.26 112.50 L 152.58 112.50 L 152.89 112.50 L 153.21 112.50 L 153.52 112.50 L 153.84 112.50 L 154.16 112.50 L 154.47 112.50 L 154.79 112.50 L 155.10 112.50 L 155.42 112.50 L 155.74 112.50 L 156.05 112.50 L 156.37 112.50" fill="none" stroke="#7E8692" stroke-width="2.3" stroke-linecap="round" stroke-linejoin="round"/>
  <path d="M 163.63 90.00 L 163.95 90.00 L 164.26 90.00 L 164.58 90.00 L 164.90 90.00 L 165.21 90.00 L 165.53 90.00 L 165.84 90.00 L 166.16 90.00 L 166.48 90.00 L 166.79 90.00 L 167.11 90.00 L 167.42 90.00 L 167.74 90.00 L 168.06 90.00 L 168.37 90.00 L 168.69 90.00 L 169.00 90.00 L 169.32 90.00 L 169.64 90.00 L 169.95 90.00 L 170.27 90.00 L 170.58 90.00 L 170.90 90.00 L 171.21 90.00 L 171.53 90.00 L 171.85 90.00 L 172.16 90.00 L 172.48 90.00 L 172.79 90.00 L 173.11 90.00 L 173.43 90.00 L 173.74 90.00 L 174.06 90.00 L 174.37 90.00 L 174.69 90.00 L 175.01 90.00 L 175.32 90.00 L 175.64 90.00 L 175.95 90.00 L 176.27 90.00 L 176.59 90.00 L 176.90 90.00 L 177.22 90.00 L 177.53 90.00 L 177.85 90.00 L 178.16 90.00 L 178.48 90.00 L 178.80 90.00 L 179.11 90.00 L 179.43 90.00 L 179.74 90.00 L 180.06 90.00 L 180.38 90.00 L 180.69 90.00 L 181.01 90.00 L 181.32 90.00 L 181.64 90.00 L 181.96 90.00 L 182.27 90.00 L 182.59 90.00 L 182.90 90.00 L 183.22 90.00 L 183.54 90.00 L 183.85 90.00 L 184.17 90.00 L 184.48 90.00 L 184.80 90.00 L 185.11 90.00 L 185.43 90.00 L 185.75 90.00 L 186.06 90.00 L 186.38 90.00 L 186.69 90.00 L 187.01 90.00 L 187.33 90.00 L 187.64 90.00 L 187.96 90.00 L 188.27 90.00 L 188.59 90.00 L 188.91 90.00 L 189.22 90.00 L 189.54 90.00 L 189.85 90.00 L 190.17 90.00 L 190.48 90.00 L 190.80 90.00 L 191.12 90.00 L 191.43 90.00 L 191.75 90.00 L 192.06 90.00 L 192.38 90.00 L 192.70 90.00 L 193.01 90.00 L 193.33 90.00 L 193.64 90.00 L 193.96 90.00 L 194.28 90.00 L 194.59 90.00 L 194.91 90.00 L 195.22 90.00 L 195.54 90.00 L 195.86 90.00 L 196.17 90.00 L 196.49 90.00 L 196.80 90.00 L 197.12 90.00 L 197.43 90.00 L 197.75 90.00 L 198.07 90.00 L 198.38 90.00 L 198.70 90.00 L 199.01 90.00 L 199.33 90.00 L 199.65 90.00 L 199.96 90.00 L 200.28 90.00 L 200.59 90.00 L 200.91 90.00 L 201.23 90.00 L 201.54 90.00 L 201.86 90.00 L 202.17 90.00 L 202.49 90.00 L 202.81 90.00 L 203.12 90.00 L 203.44 90.00 L 203.75 90.00" fill="none" stroke="#7E8692" stroke-width="2.3" stroke-linecap="round" stroke-linejoin="round"/>
  <path d="M 211.02 67.50 L 211.33 67.50 L 211.65 67.50 L 211.97 67.50 L 212.28 67.50 L 212.60 67.50 L 212.91 67.50 L 213.23 67.50 L 213.55 67.50 L 213.86 67.50 L 214.18 67.50 L 214.49 67.50 L 214.81 67.50 L 215.13 67.50 L 215.44 67.50 L 215.76 67.50 L 216.07 67.50 L 216.39 67.50 L 216.71 67.50 L 217.02 67.50 L 217.34 67.50 L 217.65 67.50 L 217.97 67.50 L 218.28 67.50 L 218.60 67.50 L 218.92 67.50 L 219.23 67.50 L 219.55 67.50 L 219.86 67.50 L 220.18 67.50 L 220.50 67.50 L 220.81 67.50 L 221.13 67.50 L 221.44 67.50 L 221.76 67.50 L 222.08 67.50 L 222.39 67.50 L 222.71 67.50 L 223.02 67.50 L 223.34 67.50 L 223.66 67.50 L 223.97 67.50 L 224.29 67.50 L 224.60 67.50 L 224.92 67.50 L 225.23 67.50 L 225.55 67.50 L 225.87 67.50 L 226.18 67.50 L 226.50 67.50 L 226.81 67.50 L 227.13 67.50 L 227.45 67.50 L 227.76 67.50 L 228.08 67.50 L 228.39 67.50 L 228.71 67.50 L 229.03 67.50 L 229.34 67.50 L 229.66 67.50 L 229.97 67.50 L 230.29 67.50 L 230.61 67.50 L 230.92 67.50 L 231.24 67.50 L 231.55 67.50 L 231.87 67.50 L 232.18 67.50 L 232.50 67.50 L 232.82 67.50 L 233.13 67.50 L 233.45 67.50 L 233.76 67.50 L 234.08 67.50 L 234.40 67.50 L 234.71 67.50 L 235.03 67.50 L 235.34 67.50 L 235.66 67.50 L 235.98 67.50 L 236.29 67.50 L 236.61 67.50 L 236.92 67.50 L 237.24 67.50 L 237.56 67.50 L 237.87 67.50 L 238.19 67.50 L 238.50 67.50 L 238.82 67.50 L 239.13 67.50 L 239.45 67.50 L 239.77 67.50 L 240.08 67.50 L 240.40 67.50 L 240.71 67.50 L 241.03 67.50 L 241.35 67.50 L 241.66 67.50 L 241.98 67.50 L 242.29 67.50 L 242.61 67.50 L 242.93 67.50 L 243.24 67.50 L 243.56 67.50 L 243.87 67.50 L 244.19 67.50 L 244.51 67.50 L 244.82 67.50 L 245.14 67.50 L 245.45 67.50 L 245.77 67.50 L 246.08 67.50 L 246.40 67.50 L 246.72 67.50 L 247.03 67.50 L 247.35 67.50 L 247.66 67.50 L 247.98 67.50 L 248.30 67.50 L 248.61 67.50 L 248.93 67.50 L 249.24 67.50 L 249.56 67.50 L 249.88 67.50 L 250.19 67.50 L 250.51 67.50 L 250.82 67.50 L 251.14 67.50" fill="none" stroke="#7E8692" stroke-width="2.3" stroke-linecap="round" stroke-linejoin="round"/>
  <path d="M 258.09 45.00 L 258.40 45.00 L 258.72 45.00 L 259.04 45.00 L 259.35 45.00 L 259.67 45.00 L 259.98 45.00 L 260.30 45.00 L 260.62 45.00 L 260.93 45.00 L 261.25 45.00 L 261.56 45.00 L 261.88 45.00 L 262.20 45.00 L 262.51 45.00 L 262.83 45.00 L 263.14 45.00 L 263.46 45.00 L 263.78 45.00 L 264.09 45.00 L 264.41 45.00 L 264.72 45.00 L 265.04 45.00 L 265.35 45.00 L 265.67 45.00 L 265.99 45.00 L 266.30 45.00 L 266.62 45.00 L 266.93 45.00 L 267.25 45.00 L 267.57 45.00 L 267.88 45.00 L 268.20 45.00 L 268.51 45.00 L 268.83 45.00 L 269.15 45.00 L 269.46 45.00 L 269.78 45.00 L 270.09 45.00 L 270.41 45.00 L 270.73 45.00 L 271.04 45.00 L 271.36 45.00 L 271.67 45.00 L 271.99 45.00 L 272.30 45.00 L 272.62 45.00 L 272.94 45.00 L 273.25 45.00 L 273.57 45.00 L 273.88 45.00 L 274.20 45.00 L 274.52 45.00 L 274.83 45.00 L 275.15 45.00 L 275.46 45.00 L 275.78 45.00 L 276.10 45.00 L 276.41 45.00 L 276.73 45.00 L 277.04 45.00 L 277.36 45.00 L 277.68 45.00 L 277.99 45.00 L 278.31 45.00 L 278.62 45.00 L 278.94 45.00 L 279.25 45.00 L 279.57 45.00 L 279.89 45.00 L 280.20 45.00 L 280.52 45.00 L 280.83 45.00 L 281.15 45.00 L 281.47 45.00 L 281.78 45.00 L 282.10 45.00 L 282.41 45.00 L 282.73 45.00 L 283.05 45.00 L 283.36 45.00 L 283.68 45.00 L 283.99 45.00 L 284.31 45.00 L 284.63 45.00 L 284.94 45.00 L 285.26 45.00 L 285.57 45.00 L 285.89 45.00 L 286.20 45.00 L 286.52 45.00 L 286.84 45.00 L 287.15 45.00 L 287.47 45.00 L 287.78 45.00 L 288.10 45.00 L 288.42 45.00 L 288.73 45.00 L 289.05 45.00 L 289.36 45.00 L 289.68 45.00 L 290.00 45.00 L 290.31 45.00 L 290.63 45.00 L 290.94 45.00 L 291.26 45.00 L 291.58 45.00 L 291.89 45.00 L 292.21 45.00 L 292.52 45.00 L 292.84 45.00 L 293.15 45.00 L 293.47 45.00 L 293.79 45.00 L 294.10 45.00 L 294.42 45.00 L 294.73 45.00 L 295.05 45.00 L 295.37 45.00 L 295.68 45.00 L 296.00 45.00 L 296.31 45.00 L 296.63 45.00 L 296.95 45.00 L 297.26 45.00 L 297.58 45.00 L 297.89 45.00 L 298.21 45.00 L 298.53 45.00 L 298.84 45.00 L 299.16 45.00 L 299.47 45.00 L 299.79 45.00 L 300.10 45.00 L 300.42 45.00 L 300.74 45.00 L 301.05 45.00 L 301.37 45.00 L 301.68 45.00 L 302.00 22.50" fill="none" stroke="#7E8692" stroke-width="2.3" stroke-linecap="round" stroke-linejoin="round"/>
</svg>
