<svg xmlns="http://www.w3.org/2000/svg" viewBox="0 0 320 180" width="320" height="180">
  <rect width="320" height="180" fill="#F4F5F7"/>
  <path d="M 160.12 89.68 L 160.36 89.33 L 160.59 89.06 L 160.83 88.82 L 161.07 88.61 L 161.30 88.41 L 161.54 88.22 L 161.78 88.04 L 162.01 87.87 L 162.25 87.71 L 162.49 87.55 L 162.72 87.40 L 162.96 87.25 L 163.20 87.11 L 163.43 86.97 L 163.67 86.83 L 163.91 86.69 L 164.15 86.56 L 164.38 86.43 L 164.62 86.30 L 164.86 86.18 L 165.09 86.05 L 165.33 85.93 L 165.57 85.81 L 165.80 85.69 L 166.04 85.58 L 166.28 85.46 L 166.51 85.35 L 166.75 85.24 L 166.99 85.13 L 167.22 85.02 L 167.46 84.91 L 167.70 84.80 L 167.93 84.70 L 168.17 84.59 L 168.41 84.49 L 168.65 84.38 L 168.88 84.28 L 169.12 84.18 L 169.36 84.08 L 169.59 83.98 L 169.83 83.88 L 170.07 83.78 L 170.30 83.69 L 170.54 83.59 L 170.78 83.50 L 171.01 83.40 L 171.25 83.31 L 171.49 83.21 L 171.72 83.12 L 171.96 83.03 L 172.20 82.94 L 172.44 82.84 L 172.67 82.75 L 172.91 82.66 L 173.15 82.57 L 173.38 82.49 L 173.62 82.40 L 173.86 82.31 L 174.09 82.22 L 174.33 82.13 L 174.57 82.05 L 174.80 81.96 L 175.04 81.88 L 175.28 81.79 L 175.51 81.71 L 175.75 81.62 L 175.99 81.54 L 176.23 81.46 L 176.46 81.37 L 176.70 81.29 L 176.94 81.21 L 177.17 81.13 L 177.41 81.04 L 177.65 80.96 L 177.88 80.88 L 178.12 80.80 L 178.36 80.72 L 178.59 80.64 L 178.83 80.56 L 179.07 80.49 L 179.30 80.41 L 179.54 80.33 L 179.78 80.25 L 180.02 80.17 L 180.25 80.10 L 180.49 80.02 L 180.73 79.94 L 180.96 79.86 L 181.20 79.79 L 181.44 79.71 L 181.67 79.64 L 181.91 79.56 L 182.15 79.49 L 182.38 79.41 L 182.62 79.34 L 182.86 79.26 L 183.09 79.19 L 183.33 79.11 L 183.57 79.04 L 183.80 78.97 L 184.04 78.89 L 184.28 78.82 L 184.52 78.75 L 184.75 78.68 L 184.99 78.61 L 185.23 78.53 L 185.46 78.46 L 185.70 78.39 L 185.94 78.32 L 186.17 78.25 L 186.41 78.18 L 186.65 78.11 L 186.88 78.04 L 187.12 77.97 L 187.36 77.90 L 187.59 77.83 L 187.83 77.76 L 188.07 77.69 L 188.31 77.62 L 188.54 77.55 L 188.78 77.48 L 189.02 77.41 L 189.25 77.34 L 189.49 77.28 L 189.73 77.21 L 189.96 77.14 L 190.20 77.07 L 190.44 77.00 L 190.67 76.94 L 190.91 76.87 L 191.15 76.80 L 191.38 76.74 L 191.62 76.67 L 191.86 76.60 L 192.10 76.54 L 192.33 76.47 L 192.57 76.40 L 192.81 76.34 L 193.04 76.27 L 193.28 76.21 L 193.52 76.14 L 193.75 76.08 L 193.99 76.01 L 194.23 75.95 L 194.46 75.88 L 194.70 75.82 L 194.94 75.75 L 195.17 75.69 L 195.41 75.62 L 195.65 75.56 L 195.88 75.50 L 196.12 75.43 L 196.36 75.37 L 196.60 75.31 L 196.83 75.24 L 197.07 75.18 L 197.31 75.12 L 197.54 75.05 L 197.78 74.99 L 198.02 74.93 L 198.25 74.86 L 198.49 74.80 L 198.73 74.74 L 198.96 74.68 L 199.20 74.62 L 199.44 74.55 L 199.67 74.49 L 199.91 74.43 L 200.15 74.37 L 200.39 74.31 L 200.62 74.25 L 200.86 74.19 L 201.10 74.12 L 201.33 74.06 L 201.57 74.00 L 201.81 73.94 L 202.04 73.88 L 202.28 73.82 L 202.52 73.76 L 202.75 73.70 L 202.99 73.64 L 203.23 73.58 L 203.46 73.52 L 203.70 73.46 L 203.94 73.40 L 204.18 73.34 L 204.41 73.28 L 204.65 73.22 L 204.89 73.16 L 205.12 73.10 L 205.36 73.04 L 205.60 72.99 L 205.83 72.93 L 206.07 72.87 L 206.31 72.81 L 206.54 72.75 L 206.78 72.69 L 207.02 72.63 L 207.25 72.58 L 207.49 72.52 L 207.73 72.46 L 207.96 72.40 L 208.20 72.34 L 208.44 72.29 L 208.68 72.23 L 208.91 72.17 L 209.15 72.11 L 209.39 72.05 L 209.62 72.00 L 209.86 71.94 L 210.10 71.88 L 210.33 71.83 L 210.57 71.77 L 210.81 71.71 L 211.04 71.66 L 211.28 71.60 L 211.52 71.54 L 211.75 71.49 L 211.99 71.43 L 212.23 71.37 L 212.47 71.32 L 212.70 71.26 L 212.94 71.20 L 213.18 71.15 L 213.41 71.09 L 213.65 71.04 L 213.89 70.98 L 214.12 70.92 L 214.36 70.87 L 214.60 70.81 L 214.83 70.76 L 215.07 70.70 L 215.31 70.65 L 215.54 70.59 L 215.78 70.54 L 216.02 70.48 L 216.26 70.43 L 216.49 70.37 L 216.73 70.32 L 216.97 70.26 L 217.20 70.21 L 217.44 70.15 L 217.68 70.10 L 217.91 70.04 L 218.15 69.99 L 218.39 69.94 L 218.62 69.88 L 218.86 69.83 L 219.10 69.77 L 219.33 69.72 L 219.57 69.67 L 219.81 69.61 L 220.05 69.56 L 220.28 69.50 L 220.52 69.45 L 220.76 69.40 L 220.99 69.34 L 221.23 69.29 L 221.47 69.24 L 221.70 69.18 L 221.94 69.13 L 222.18 69.08 L 222.41 69.02 L 222.65 68.97 L 222.89 68.92 L 223.12 68.86 L 223.36 68.81 L 223.60 68.76 L 223.83 68.71 L 224.07 68.65 L 224.31 68.60 L 224.55 68.55 L 224.78 68.50 L 225.02 68.44 L 225.26 68.39 L 225.49 68.34 L 225.73 68.29 L 225.97 68.23 L 226.20 68.18 L 226.44 68.13 L 226.68 68.08 L 226.91 68.03 L 227.15 67.98 L 227.39 67.92 L 227.62 67.87 L 227.86 67.82 L 228.10 67.77 L 228.34 67.72 L 228.57 67.67 L 228.81 67.61 L 229.05 67.56 L 229.28 67.51 L 229.52 67.46 L 229.76 67.41 L 229.99 67.36 L 230.23 67.31 L 230.47 67.26 L 230.70 67.21 L 230.94 67.15 L 231.18 67.10 L 231.41 67.05 L 231.65 67.00 L 231.89 66.95 L 232.13 66.90 L 232.36 66.85 L 232.60 66.80 L 232.84 66.75 L 233.07 66.70 L 233.31 66.65 L 233.55 66.60 L 233.78 66.55 L 234.02 66.50 L 234.26 66.45 L 234.49 66.40 L 234.73 66.35 L 234.97 66.30 L 235.20 66.25 L 235.44 66.20 L 235.68 66.15 L 235.91 66.10 L 236.15 66.05 L 236.39 66.00 L 236.63 65.95 L 236.86 65.90 L 237.10 65.85 L 237.34 65.80 L 237.57 65.75 L 237.81 65.70 L 238.05 65.65 L 238.28 65.60 L 238.52 65.55 L 238.76 65.51 L 238.99 65.46 L 239.23 65.41 L 239.47 65.36 L 239.70 65.31 L 239.94 65.26 L 240.18 65.21 L 240.42 65.16 L 240.65 65.11 L 240.89 65.07 L 241.13 65.02 L 241.36 64.97 L 241.60 64.92 L 241.84 64.87 L 242.07 64.82 L 242.31 64.77 L 242.55 64.73 L 242.78 64.68 L 243.02 64.63 L 243.26 64.58 L 243.49 64.53 L 243.73 64.48 L 243.97 64.44 L 244.21 64.39 L 244.44 64.34 L 244.68 64.29 L 244.92 64.24 L 245.15 64.20 L 245.39 64.15 L 245.63 64.10 L 245.86 64.05 L 246.10 64.01 L 246.34 63.96 L 246.57 63.91 L 246.81 63.86 L 247.05 63.82 L 247.28 63.77 L 247.52 63.72 L 247.76 63.67 L 247.99 63.63 L 248.23 63.58 L 248.47 63.53 L 248.71 63.48 L 248.94 63.44 L 249.18 63.39 L 249.42 63.34 L 249.65 63.30 L 249.89 63.25 L 250.13 63.20 L 250.36 63.15 L 250.60 63.11 L 250.84 63.06 L 251.07 63.01 L 251.31 62.97 L 251.55 62.92 L 251.78 62.87 L 252.02 62.83 L 252.26 62.78 L 252.50 62.73 L 252.73 62.69 L 252.97 62.64 L 253.21 62.59 L 253.44 62.55 L 253.68 62.50 L 253.92 62.46 L 254.15 62.41 L 254.39 62.36 L 254.63 62.32 L 254.86 62.27 L 255.10 62.22 L 255.34 62.18 L 255.57 62.13 L 255.81 62.09 L 256.05 62.04 L 256.29 61.99 L 256.52 61.95 L 256.76 61.90 L 257.00 61.86 L 257.23 61.81 L 257.47 61.76 L 257.71 61.72 L 257.94 61.67 L 258.18 61.63 L 258.42 61.58 L 258.65 61.54 L 258.89 61.49 L 259.13 61.45 L 259.36 61.40 L 259.60 61.35 L 259.84 61.31 L 260.08 61.26 L 260.31 61.22 L 260.55 61.17 L 260.79 61.13 L 261.02 61.08 L 261.26 61.04 L 261.50 60.99 L 261.73 60.95 L 261.97 60.90 L 262.21 60.86 L 262.44 60.81 L 262.68 60.77 L 262.92 60.72 L 263.15 60.68 L 263.39 60.63 L 263.63 60.59 L 263.86 60.54 L 264.10 60.50 L 264.34 60.45 L 264.58 60.41 L 264.81 60.36 L 265.05 60.32 L 265.29 60.27 L 265.52 60.23 L 265.76 60.19 L 266.00 60.14 L 266.23 60.10 L 266.47 60.05 L 266.71 60.01 L 266.94 59.96 L 267.18 59.92 L 267.42 59.87 L 267.65 59.83 L 267.89 59.79 L 268.13 59.74 L 268.37 59.70 L 268.60 59.65 L 268.84 59.61 L 269.08 59.57 L 269.31 59.52 L 269.55 59.48 L 269.79 59.43 L 270.02 59.39 L 270.26 59.35 L 270.50 59.30 L 270.73 59.26 L 270.97 59.21 L 271.21 59.17 L 271.44 59.13 L 271.68 59.08 L 271.92 59.04 L 272.16 59.00 L 272.39 58.95 L 272.63 58.91 L 272.87 58.86 L 273.10 58.82 L 273.34 58.78 L 273.58 58.73 L 273.81 58.69 L 274.05 58.65 L 274.29 58.60 L 274.52 58.56 L 274.76 58.52 L 275.00 58.47 L 275.23 58.43 L 275.47 58.39 L 275.71 58.34 L 275.94 58.30 L 276.18 58.26 L 276.42 58.21 L 276.66 58.17 L 276.89 58.13 L 277.13 58.09 L 277.37 58.04 L 277.60 58.00 L 277.84 57.96 L 278.08 57.91 L 278.31 57.87 L 278.55 57.83 L 278.79 57.79 L 279.02 57.74 L 279.26 57.70 L 279.50 57.66 L 279.73 57.61 L 279.97 57.57 L 280.21 57.53 L 280.45 57.49 L 280.68 57.44 L 280.92 57.40 L 281.16 57.36 L 281.39 57.32 L 281.63 57.27 L 281.87 57.23 L 282.10 57.19 L 282.34 57.15 L 282.58 57.10 L 282.81 57.06 L 283.05 57.02 L 283.29 56.98 L 283.52 56.93 L 283.76 56.89 L 284.00 56.85 L 284.24 56.81 L 284.47 56.77 L 284.71 56.72 L 284.95 56.68 L 285.18 56.64 L 285.42 56.60 L 285.66 56.55 L 285.89 56.51 L 286.13 56.47 L 286.37 56.43 L 286.60 56.39 L 286.84 56.35 L 287.08 56.30 L 287.31 56.26 L 287.55 56.22 L 287.79 56.18 L 288.03 56.14 L 288.26 56.09 L 288.50 56.05 L 288.74 56.01 L 288.97 55.97 L 289.21 55.93 L 289.45 55.89 L 289.68 55.84 L 289.92 55.80 L 290.16 55.76 L 290.39 55.72 L 290.63 55.68 L 290.87 55.64 L 291.10 55.60 L 291.34 55.55 L 291.58 55.51 L 291.81 55.47 L 292.05 55.43 L 292.29 55.39 L 292.53 55.35 L 292.76 55.31 L 293.00 55.26 L 293.24 55.22 L 293.47 55.18 L 293.71 55.14 L 293.95 55.10 L 294.18 55.06 L 294.42 55.02 L 294.66 54.98 L 294.89 54.94 L 295.13 54.89 L 295.37 54.85 L 295.60 54.81 L 295.84 54.77 L 296.08 54.73 L 296.32 54.69 L 296.55 54.65 L 296.79 54.61 L 297.03 54.57 L 297.26 54.53 L 297.50 54.49 L 297.74 54.44 L 297.97 54.40 L 298.21 54.36 L 298.45 54.32 L 298.68 54.28 L 298.92 54.24 L 299.16 54.20 L 299.39 54.16 L 299.63 54.12 L 299.87 54.08 L 300.11 54.04 L 300.34 54.00 L 300.58 53.96 L 300.82 53.92 L 301.05 53.88 L 301.29 53.84 L 301.53 53.80 L 301.76 53.75 L 302.00 53.71" fill="none" stroke="#7E8692" stroke-width="2.3" stroke-linecap="round" stroke-linejoin="round"/>
</svg>
