<svg xmlns="http://www.w3.org/2000/svg" viewBox="0 0 320 180" width="320" height="180">
  <rect width="320" height="180" fill="none"/>
  <path d="M 24.00 151.51 L 24.19 151.51 L 24.39 151.51 L 24.58 151.50 L 24.78 151.50 L 24.97 151.50 L 25.17 151.50 L 25.36 151.49 L 25.56 151.49 L 25.75 151.49 L 25.94 151.49 L 26.14 151.48 L 26.33 151.48 L 26.53 151.48 L 26.72 151.47 L 26.92 151.47 L 27.11 151.47 L 27.31 151.46 L 27.50 151.46 L 27.69 151.46 L 27.89 151.46 L 28.08 151.45 L 28.28 151.45 L 28.47 151.45 L 28.67 151.44 L 28.86 151.44 L 29.06 151.44 L 29.25 151.43 L 29.44 151.43 L 29.64 151.43 L 29.83 151.42 L 30.03 151.42 L 30.22 151.42 L 30.42 151.41 L 30.61 151.41 L 30.80 151.41 L 31.00 151.40 L 31.19 151.40 L 31.39 151.40 L 31.58 151.39 L 31.78 151.39 L 31.97 151.38 L 32.17 151.38 L 32.36 151.38 L 32.55 151.37 L 32.75 151.37 L 32.94 151.37 L 33.14 151.36 L 33.33 151.36 L 33.53 151.35 L 33.72 151.35 L 33.92 151.35 L 34.11 151.34 L 34.30 151.34 L 34.50 151.33 L 34.69 151.33 L 34.89 151.32 L 35.08 151.32 L 35.28 151.32 L 35.47 151.31 L 35.67 151.31 L 35.86 151.30 L 36.05 151.30 L 36.25 151.29 L 36.44 151.29 L 36.64 151.29 L 36.83 151.28 L 37.03 151.28 L 37.22 151.27 L 37.42 151.27 L 37.61 151.26 L 37.80 151.26 L 38.00 151.25 L 38.19 151.25 L 38.39 151.24 L 38.58 151.24 L 38.78 151.23 L 38.97 151.23 L 39.17 151.22 L 39.36 151.22 L 39.55 151.21 L 39.75 151.21 L 39.94 151.20 L 40.14 151.20 L 40.33 151.19 L 40.53 151.19 L 40.72 151.18 L 40.91 151.18 L 41.11 151.17 L 41.30 151.16 L 41.50 151.16 L 41.69 151.15 L 41.89 151.15 L 42.08 151.14 L 42.28 151.14 L 42.47 151.13 L 42.66 151.12 L 42.86 151.12 L 43.05 151.11 L 43.25 151.11 L 43.44 151.10 L 43.64 151.09 L 43.83 151.09 L 44.03 151.08 L 44.22 151.07 L 44.41 151.07 L 44.61 151.06 L 44.80 151.06 L 45.00 151.05 L 45.19 151.04 L 45.39 151.04 L 45.58 151.03 L 45.78 151.02 L 45.97 151.02 L 46.16 151.01 L 46.36 151.00 L 46.55 150.99 L 46.75 150.99 L 46.94 150.98 L 47.14 150.97 L 47.33 150.97 L 47.53 150.96 L 47.72 150.95 L 47.91 150.94 L 48.11 150.94 L 48.30 150.93 L 48.50 150.92 L 48.69 150.91 L 48.89 150.91 L 49.08 150.90 L 49.28 150.89 L 49.47 150.88 L 49.66 150.87 L 49.86 150.87 L 50.05 150.86 L 50.25 150.85 L 50.44 150.84 L 50.64 150.83 L 50.83 150.83 L 51.03 150.82 L 51.22 150.81 L 51.41 150.80 L 51.61 150.79 L 51.80 150.78 L 52.00 150.77 L 52.19 150.76 L 52.39 150.76 L 52.58 150.75 L 52.77 150.74 L 52.97 150.73 L 53.16 150.72 L 53.36 150.71 L 53.55 150.70 L 53.75 150.69 L 53.94 150.68 L 54.14 150.67 L 54.33 150.66 L 54.52 150.65 L 54.72 150.64 L 54.91 150.63 L 55.11 150.62 L 55.30 150.61 L 55.50 150.60 L 55.69 150.59 L 55.89 150.58 L 56.08 150.57 L 56.27 150.56 L 56.47 150.55 L 56.66 150.54 L 56.86 150.53 L 57.05 150.51 L 57.25 150.50 L 57.44 150.49 L 57.64 150.48 L 57.83 150.47 L 58.02 150.46 L 58.22 150.45 L 58.41 150.44 L 58.61 150.42 L 58.80 150.41 L 59.00 150.40 L 59.19 150.39 L 59.39 150.38 L 59.58 150.36 L 59.77 150.35 L 59.97 150.34 L 60.16 150.33 L 60.36 150.31 L 60.55 150.30 L 60.75 150.29 L 60.94 150.27 L 61.14 150.26 L 61.33 150.25 L 61.52 150.23 L 61.72 150.22 L 61.91 150.21 L 62.11 150.19 L 62.30 150.18 L 62.50 150.17 L 62.69 150.15 L 62.88 150.14 L 63.08 150.12 L 63.27 150.11 L 63.47 150.09 L 63.66 150.08 L 63.86 150.06 L 64.05 150.05 L 64.25 150.04 L 64.44 150.02 L 64.63 150.00 L 64.83 149.99 L 65.02 149.97 L 65.22 149.96 L 65.41 149.94 L 65.61 149.93 L 65.80 149.91 L 66.00 149.89 L 66.19 149.88 L 66.38 149.86 L 66.58 149.84 L 66.77 149.83 L 66.97 149.81 L 67.16 149.79 L 67.36 149.78 L 67.55 149.76 L 67.75 149.74 L 67.94 149.72 L 68.13 149.71 L 68.33 149.69 L 68.52 149.67 L 68.72 149.65 L 68.91 149.63 L 69.11 149.62 L 69.30 149.60 L 69.50 149.58 L 69.69 149.56 L 69.88 149.54 L 70.08 149.52 L 70.27 149.50 L 70.47 149.48 L 70.66 149.46 L 70.86 149.44 L 71.05 149.42 L 71.25 149.40 L 71.44 149.38 L 71.63 149.36 L 71.83 149.34 L 72.02 149.32 L 72.22 149.30 L 72.41 149.28 L 72.61 149.26 L 72.80 149.23 L 72.99 149.21 L 73.19 149.19 L 73.38 149.17 L 73.58 149.15 L 73.77 149.12 L 73.97 149.10 L 74.16 149.08 L 74.36 149.06 L 74.55 149.03 L 74.74 149.01 L 74.94 148.98 L 75.13 148.96 L 75.33 148.94 L 75.52 148.91 L 75.72 148.89 L 75.91 148.86 L 76.11 148.84 L 76.30 148.81 L 76.49 148.79 L 76.69 148.76 L 76.88 148.74 L 77.08 148.71 L 77.27 148.69 L 77.47 148.66 L 77.66 148.63 L 77.86 148.61 L 78.05 148.58 L 78.24 148.55 L 78.44 148.52 L 78.63 148.50 L 78.83 148.47 L 79.02 148.44 L 79.22 148.41 L 79.41 148.38 L 79.61 148.36 L 79.80 148.33 L 79.99 148.30 L 80.19 148.27 L 80.38 148.24 L 80.58 148.21 L 80.77 148.18 L 80.97 148.15 L 81.16 148.12 L 81.36 148.09 L 81.55 148.05 L 81.74 148.02 L 81.94 147.99 L 82.13 147.96 L 82.33 147.93 L 82.52 147.89 L 82.72 147.86 L 82.91 147.83 L 83.11 147.80 L 83.30 147.76 L 83.49 147.73 L 83.69 147.69 L 83.88 147.66 L 84.08 147.63 L 84.27 147.59 L 84.47 147.56 L 84.66 147.52 L 84.85 147.48 L 85.05 147.45 L 85.24 147.41 L 85.44 147.38 L 85.63 147.34 L 85.83 147.30 L 86.02 147.26 L 86.22 147.23 L 86.41 147.19 L 86.60 147.15 L 86.80 147.11 L 86.99 147.07 L 87.19 147.03 L 87.38 146.99 L 87.58 146.95 L 87.77 146.91 L 87.97 146.87 L 88.16 146.83 L 88.35 146.79 L 88.55 146.75 L 88.74 146.71 L 88.94 146.66 L 89.13 146.62 L 89.33 146.58 L 89.52 146.54 L 89.72 146.49 L 89.91 146.45 L 90.10 146.40 L 90.30 146.36 L 90.49 146.31 L 90.69 146.27 L 90.88 146.22 L 91.08 146.18 L 91.27 146.13 L 91.47 146.08 L 91.66 146.04 L 91.85 145.99 L 92.05 145.94 L 92.24 145.89 L 92.44 145.85 L 92.63 145.80 L 92.83 145.75 L 93.02 145.70 L 93.22 145.65 L 93.41 145.60 L 93.60 145.55 L 93.80 145.50 L 93.99 145.44 L 94.19 145.39 L 94.38 145.34 L 94.58 145.29 L 94.77 145.23 L 94.96 145.18 L 95.16 145.13 L 95.35 145.07 L 95.55 145.02 L 95.74 144.96 L 95.94 144.90 L 96.13 144.85 L 96.33 144.79 L 96.52 144.73 L 96.71 144.68 L 96.91 144.62 L 97.10 144.56 L 97.30 144.50 L 97.49 144.44 L 97.69 144.38 L 97.88 144.32 L 98.08 144.26 L 98.27 144.20 L 98.46 144.14 L 98.66 144.08 L 98.85 144.02 L 99.05 143.95 L 99.24 143.89 L 99.44 143.82 L 99.63 143.76 L 99.83 143.70 L 100.02 143.63 L 100.21 143.56 L 100.41 143.50 L 100.60 143.43 L 100.80 143.36 L 100.99 143.30 L 101.19 143.23 L 101.38 143.16 L 101.58 143.09 L 101.77 143.02 L 101.96 142.95 L 102.16 142.88 L 102.35 142.81 L 102.55 142.74 L 102.74 142.66 L 102.94 142.59 L 103.13 142.52 L 103.33 142.44 L 103.52 142.37 L 103.71 142.29 L 103.91 142.22 L 104.10 142.14 L 104.30 142.06 L 104.49 141.99 L 104.69 141.91 L 104.88 141.83 L 105.08 141.75 L 105.27 141.67 L 105.46 141.59 L 105.66 141.51 L 105.85 141.43 L 106.05 141.35 L 106.24 141.26 L 106.44 141.18 L 106.63 141.10 L 106.82 141.01 L 107.02 140.93 L 107.21 140.84 L 107.41 140.76 L 107.60 140.67 L 107.80 140.58 L 107.99 140.50 L 108.19 140.41 L 108.38 140.32 L 108.57 140.23 L 108.77 140.14 L 108.96 140.05 L 109.16 139.95 L 109.35 139.86 L 109.55 139.77 L 109.74 139.68 L 109.94 139.58 L 110.13 139.49 L 110.32 139.39 L 110.52 139.30 L 110.71 139.20 L 110.91 139.10 L 111.10 139.00 L 111.30 138.90 L 111.49 138.80 L 111.69 138.70 L 111.88 138.60 L 112.07 138.50 L 112.27 138.40 L 112.46 138.30 L 112.66 138.19 L 112.85 138.09 L 113.05 137.98 L 113.24 137.88 L 113.44 137.77 L 113.63 137.66 L 113.82 137.56 L 114.02 137.45 L 114.21 137.34 L 114.41 137.23 L 114.60 137.12 L 114.80 137.01 L 114.99 136.89 L 115.19 136.78 L 115.38 136.67 L 115.57 136.55 L 115.77 136.44 L 115.96 136.32 L 116.16 136.21 L 116.35 136.09 L 116.55 135.97 L 116.74 135.85 L 116.93 135.73 L 117.13 135.61 L 117.32 135.49 L 117.52 135.37 L 117.71 135.24 L 117.91 135.12 L 118.10 135.00 L 118.30 134.87 L 118.49 134.75 L 118.68 134.62 L 118.88 134.49 L 119.07 134.36 L 119.27 134.24 L 119.46 134.11 L 119.66 133.97 L 119.85 133.84 L 120.05 133.71 L 120.24 133.58 L 120.43 133.44 L 120.63 133.31 L 120.82 133.17 L 121.02 133.04 L 121.21 132.90 L 121.41 132.76 L 121.60 132.62 L 121.80 132.49 L 121.99 132.34 L 122.18 132.20 L 122.38 132.06 L 122.57 131.92 L 122.77 131.78 L 122.96 131.63 L 123.16 131.49 L 123.35 131.34 L 123.55 131.19 L 123.74 131.04 L 123.93 130.90 L 124.13 130.75 L 124.32 130.60 L 124.52 130.44 L 124.71 130.29 L 124.91 130.14 L 125.10 129.99 L 125.30 129.83 L 125.49 129.68 L 125.68 129.52 L 125.88 129.36 L 126.07 129.20 L 126.27 129.05 L 126.46 128.89 L 126.66 128.73 L 126.85 128.56 L 127.05 128.40 L 127.24 128.24 L 127.43 128.07 L 127.63 127.91 L 127.82 127.74 L 128.02 127.58 L 128.21 127.41 L 128.41 127.24 L 128.60 127.07 L 128.79 126.90 L 128.99 126.73 L 129.18 126.56 L 129.38 126.38 L 129.57 126.21 L 129.77 126.04 L 129.96 125.86 L 130.16 125.68 L 130.35 125.51 L 130.54 125.33 L 130.74 125.15 L 130.93 124.97 L 131.13 124.79 L 131.32 124.61 L 131.52 124.43 L 131.71 124.24 L 131.91 124.06 L 132.10 123.87 L 132.29 123.69 L 132.49 123.50 L 132.68 123.31 L 132.88 123.12 L 133.07 122.93 L 133.27 122.74 L 133.46 122.55 L 133.66 122.36 L 133.85 122.17 L 134.04 121.97 L 134.24 121.78 L 134.43 121.58 L 134.63 121.39 L 134.82 121.19 L 135.02 120.99 L 135.21 120.79 L 135.41 120.59 L 135.60 120.39 L 135.79 120.19 L 135.99 119.99 L 136.18 119.79 L 136.38 119.58 L 136.57 119.38 L 136.77 119.17 L 136.96 118.97 L 137.16 118.76 L 137.35 118.55 L 137.54 118.34 L 137.74 118.13 L 137.93 117.92 L 138.13 117.71 L 138.32 117.50 L 138.52 117.28 L 138.71 117.07 L 138.90 116.86 L 139.10 116.64 L 139.29 116.42 L 139.49 116.21 L 139.68 115.99 L 139.88 115.77 L 140.07 115.55 L 140.27 115.33 L 140.46 115.11 L 140.65 114.89 L 140.85 114.66 L 141.04 114.44 L 141.24 114.22 L 141.43 113.99 L 141.63 113.77 L 141.82 113.54 L 142.02 113.31 L 142.21 113.09 L 142.40 112.86 L 142.60 112.63 L 142.79 112.40 L 142.99 112.17 L 143.18 111.94 L 143.38 111.70 L 143.57 111.47 L 143.77 111.24 L 143.96 111.00 L 144.15 110.77 L 144.35 110.53 L 144.54 110.30 L 144.74 110.06 L 144.93 109.82 L 145.13 109.58 L 145.32 109.35 L 145.52 109.11 L 145.71 108.87 L 145.90 108.63 L 146.10 108.38 L 146.29 108.14 L 146.49 107.90 L 146.68 107.66 L 146.88 107.41 L 147.07 107.17 L 147.27 106.92 L 147.46 106.68 L 147.65 106.43 L 147.85 106.18 L 148.04 105.94 L 148.24 105.69 L 148.43 105.44 L 148.63 105.19 L 148.82 104.94 L 149.02 104.69 L 149.21 104.44 L 149.40 104.19 L 149.60 103.94 L 149.79 103.69 L 149.99 103.44 L 150.18 103.18 L 150.38 102.93 L 150.57 102.68 L 150.76 102.42 L 150.96 102.17 L 151.15 101.91 L 151.35 101.66 L 151.54 101.40 L 151.74 101.14 L 151.93 100.89 L 152.13 100.63 L 152.32 100.37 L 152.51 100.12 L 152.71 99.86 L 152.90 99.60 L 153.10 99.34 L 153.29 99.08 L 153.49 98.82 L 153.68 98.56 L 153.88 98.30 L 154.07 98.04 L 154.26 97.78 L 154.46 97.52 L 154.65 97.26 L 154.85 97.00 L 155.04 96.73 L 155.24 96.47 L 155.43 96.21 L 155.63 95.95 L 155.82 95.68 L 156.01 95.42 L 156.21 95.16 L 156.40 94.89 L 156.60 94.63 L 156.79 94.37 L 156.99 94.10 L 157.18 93.84 L 157.38 93.58 L 157.57 93.31 L 157.76 93.05 L 157.96 92.78 L 158.15 92.52 L 158.35 92.25 L 158.54 91.99 L 158.74 91.72 L 158.93 91.46 L 159.13 91.19 L 159.32 90.93 L 159.51 90.66 L 159.71 90.40 L 159.90 90.13 L 160.10 89.87 L 160.29 89.60 L 160.49 89.34 L 160.68 89.07 L 160.87 88.81 L 161.07 88.54 L 161.26 88.28 L 161.46 88.01 L 161.65 87.75 L 161.85 87.48 L 162.04 87.22 L 162.24 86.95 L 162.43 86.69 L 162.62 86.42 L 162.82 86.16 L 163.01 85.90 L 163.21 85.63 L 163.40 85.37 L 163.60 85.11 L 163.79 84.84 L 163.99 84.58 L 164.18 84.32 L 164.37 84.05 L 164.57 83.79 L 164.76 83.53 L 164.96 83.27 L 165.15 83.00 L 165.35 82.74 L 165.54 82.48 L 165.74 82.22 L 165.93 81.96 L 166.12 81.70 L 166.32 81.44 L 166.51 81.18 L 166.71 80.92 L 166.90 80.66 L 167.10 80.40 L 167.29 80.14 L 167.49 79.88 L 167.68 79.63 L 167.87 79.37 L 168.07 79.11 L 168.26 78.86 L 168.46 78.60 L 168.65 78.34 L 168.85 78.09 L 169.04 77.83 L 169.24 77.58 L 169.43 77.32 L 169.62 77.07 L 169.82 76.82 L 170.01 76.56 L 170.21 76.31 L 170.40 76.06 L 170.60 75.81 L 170.79 75.56 L 170.98 75.31 L 171.18 75.06 L 171.37 74.81 L 171.57 74.56 L 171.76 74.31 L 171.96 74.06 L 172.15 73.82 L 172.35 73.57 L 172.54 73.32 L 172.73 73.08 L 172.93 72.83 L 173.12 72.59 L 173.32 72.34 L 173.51 72.10 L 173.71 71.86 L 173.90 71.62 L 174.10 71.37 L 174.29 71.13 L 174.48 70.89 L 174.68 70.65 L 174.87 70.42 L 175.07 70.18 L 175.26 69.94 L 175.46 69.70 L 175.65 69.47 L 175.85 69.23 L 176.04 69.00 L 176.23 68.76 L 176.43 68.53 L 176.62 68.30 L 176.82 68.06 L 177.01 67.83 L 177.21 67.60 L 177.40 67.37 L 177.60 67.14 L 177.79 66.91 L 177.98 66.69 L 178.18 66.46 L 178.37 66.23 L 178.57 66.01 L 178.76 65.78 L 178.96 65.56 L 179.15 65.34 L 179.35 65.11 L 179.54 64.89 L 179.73 64.67 L 179.93 64.45 L 180.12 64.23 L 180.32 64.01 L 180.51 63.79 L 180.71 63.58 L 180.90 63.36 L 181.10 63.14 L 181.29 62.93 L 181.48 62.72 L 181.68 62.50 L 181.87 62.29 L 182.07 62.08 L 182.26 61.87 L 182.46 61.66 L 182.65 61.45 L 182.84 61.24 L 183.04 61.03 L 183.23 60.83 L 183.43 60.62 L 183.62 60.42 L 183.82 60.21 L 184.01 60.01 L 184.21 59.81 L 184.40 59.61 L 184.59 59.41 L 184.79 59.21 L 184.98 59.01 L 185.18 58.81 L 185.37 58.61 L 185.57 58.42 L 185.76 58.22 L 185.96 58.03 L 186.15 57.83 L 186.34 57.64 L 186.54 57.45 L 186.73 57.26 L 186.93 57.07 L 187.12 56.88 L 187.32 56.69 L 187.51 56.50 L 187.71 56.31 L 187.90 56.13 L 188.09 55.94 L 188.29 55.76 L 188.48 55.57 L 188.68 55.39 L 188.87 55.21 L 189.07 55.03 L 189.26 54.85 L 189.46 54.67 L 189.65 54.49 L 189.84 54.32 L 190.04 54.14 L 190.23 53.96 L 190.43 53.79 L 190.62 53.62 L 190.82 53.44 L 191.01 53.27 L 191.21 53.10 L 191.40 52.93 L 191.59 52.76 L 191.79 52.59 L 191.98 52.42 L 192.18 52.26 L 192.37 52.09 L 192.57 51.93 L 192.76 51.76 L 192.95 51.60 L 193.15 51.44 L 193.34 51.27 L 193.54 51.11 L 193.73 50.95 L 193.93 50.80 L 194.12 50.64 L 194.32 50.48 L 194.51 50.32 L 194.70 50.17 L 194.90 50.01 L 195.09 49.86 L 195.29 49.71 L 195.48 49.56 L 195.68 49.40 L 195.87 49.25 L 196.07 49.10 L 196.26 48.96 L 196.45 48.81 L 196.65 48.66 L 196.84 48.51 L 197.04 48.37 L 197.23 48.22 L 197.43 48.08 L 197.62 47.94 L 197.82 47.80 L 198.01 47.66 L 198.20 47.51 L 198.40 47.38 L 198.59 47.24 L 198.79 47.10 L 198.98 46.96 L 199.18 46.83 L 199.37 46.69 L 199.57 46.56 L 199.76 46.42 L 199.95 46.29 L 200.15 46.16 L 200.34 46.03 L 200.54 45.89 L 200.73 45.76 L 200.93 45.64 L 201.12 45.51 L 201.32 45.38 L 201.51 45.25 L 201.70 45.13 L 201.90 45.00 L 202.09 44.88 L 202.29 44.76 L 202.48 44.63 L 202.68 44.51 L 202.87 44.39 L 203.07 44.27 L 203.26 44.15 L 203.45 44.03 L 203.65 43.91 L 203.84 43.79 L 204.04 43.68 L 204.23 43.56 L 204.43 43.45 L 204.62 43.33 L 204.81 43.22 L 205.01 43.11 L 205.20 42.99 L 205.40 42.88 L 205.59 42.77 L 205.79 42.66 L 205.98 42.55 L 206.18 42.44 L 206.37 42.34 L 206.56 42.23 L 206.76 42.12 L 206.95 42.02 L 207.15 41.91 L 207.34 41.81 L 207.54 41.70 L 207.73 41.60 L 207.93 41.50 L 208.12 41.40 L 208.31 41.30 L 208.51 41.20 L 208.70 41.10 L 208.90 41.00 L 209.09 40.90 L 209.29 40.80 L 209.48 40.70 L 209.68 40.61 L 209.87 40.51 L 210.06 40.42 L 210.26 40.32 L 210.45 40.23 L 210.65 40.14 L 210.84 40.05 L 211.04 39.95 L 211.23 39.86 L 211.43 39.77 L 211.62 39.68 L 211.81 39.59 L 212.01 39.50 L 212.20 39.42 L 212.40 39.33 L 212.59 39.24 L 212.79 39.16 L 212.98 39.07 L 213.18 38.99 L 213.37 38.90 L 213.56 38.82 L 213.76 38.74 L 213.95 38.65 L 214.15 38.57 L 214.34 38.49 L 214.54 38.41 L 214.73 38.33 L 214.92 38.25 L 215.12 38.17 L 215.31 38.09 L 215.51 38.01 L 215.70 37.94 L 215.90 37.86 L 216.09 37.78 L 216.29 37.71 L 216.48 37.63 L 216.67 37.56 L 216.87 37.48 L 217.06 37.41 L 217.26 37.34 L 217.45 37.26 L 217.65 37.19 L 217.84 37.12 L 218.04 37.05 L 218.23 36.98 L 218.42 36.91 L 218.62 36.84 L 218.81 36.77 L 219.01 36.70 L 219.20 36.64 L 219.40 36.57 L 219.59 36.50 L 219.79 36.44 L 219.98 36.37 L 220.17 36.30 L 220.37 36.24 L 220.56 36.18 L 220.76 36.11 L 220.95 36.05 L 221.15 35.98 L 221.34 35.92 L 221.54 35.86 L 221.73 35.80 L 221.92 35.74 L 222.12 35.68 L 222.31 35.62 L 222.51 35.56 L 222.70 35.50 L 222.90 35.44 L 223.09 35.38 L 223.29 35.32 L 223.48 35.27 L 223.67 35.21 L 223.87 35.15 L 224.06 35.10 L 224.26 35.04 L 224.45 34.98 L 224.65 34.93 L 224.84 34.87 L 225.04 34.82 L 225.23 34.77 L 225.42 34.71 L 225.62 34.66 L 225.81 34.61 L 226.01 34.56 L 226.20 34.50 L 226.40 34.45 L 226.59 34.40 L 226.78 34.35 L 226.98 34.30 L 227.17 34.25 L 227.37 34.20 L 227.56 34.15 L 227.76 34.11 L 227.95 34.06 L 228.15 34.01 L 228.34 33.96 L 228.53 33.92 L 228.73 33.87 L 228.92 33.82 L 229.12 33.78 L 229.31 33.73 L 229.51 33.69 L 229.70 33.64 L 229.90 33.60 L 230.09 33.55 L 230.28 33.51 L 230.48 33.46 L 230.67 33.42 L 230.87 33.38 L 231.06 33.34 L 231.26 33.29 L 231.45 33.25 L 231.65 33.21 L 231.84 33.17 L 232.03 33.13 L 232.23 33.09 L 232.42 33.05 L 232.62 33.01 L 232.81 32.97 L 233.01 32.93 L 233.20 32.89 L 233.40 32.85 L 233.59 32.81 L 233.78 32.77 L 233.98 32.74 L 234.17 32.70 L 234.37 32.66 L 234.56 32.62 L 234.76 32.59 L 234.95 32.55 L 235.15 32.52 L 235.34 32.48 L 235.53 32.44 L 235.73 32.41 L 235.92 32.37 L 236.12 32.34 L 236.31 32.31 L 236.51 32.27 L 236.70 32.24 L 236.89 32.20 L 237.09 32.17 L 237.28 32.14 L 237.48 32.11 L 237.67 32.07 L 237.87 32.04 L 238.06 32.01 L 238.26 31.98 L 238.45 31.95 L 238.64 31.91 L 238.84 31.88 L 239.03 31.85 L 239.23 31.82 L 239.42 31.79 L 239.62 31.76 L 239.81 31.73 L 240.01 31.70 L 240.20 31.67 L 240.39 31.64 L 240.59 31.62 L 240.78 31.59 L 240.98 31.56 L 241.17 31.53 L 241.37 31.50 L 241.56 31.48 L 241.76 31.45 L 241.95 31.42 L 242.14 31.39 L 242.34 31.37 L 242.53 31.34 L 242.73 31.31 L 242.92 31.29 L 243.12 31.26 L 243.31 31.24 L 243.51 31.21 L 243.70 31.19 L 243.89 31.16 L 244.09 31.14 L 244.28 31.11 L 244.48 31.09 L 244.67 31.06 L 244.87 31.04 L 245.06 31.02 L 245.26 30.99 L 245.45 30.97 L 245.64 30.94 L 245.84 30.92 L 246.03 30.90 L 246.23 30.88 L 246.42 30.85 L 246.62 30.83 L 246.81 30.81 L 247.01 30.79 L 247.20 30.77 L 247.39 30.74 L 247.59 30.72 L 247.78 30.70 L 247.98 30.68 L 248.17 30.66 L 248.37 30.64 L 248.56 30.62 L 248.75 30.60 L 248.95 30.58 L 249.14 30.56 L 249.34 30.54 L 249.53 30.52 L 249.73 30.50 L 249.92 30.48 L 250.12 30.46 L 250.31 30.44 L 250.50 30.42 L 250.70 30.40 L 250.89 30.38 L 251.09 30.37 L 251.28 30.35 L 251.48 30.33 L 251.67 30.31 L 251.87 30.29 L 252.06 30.28 L 252.25 30.26 L 252.45 30.24 L 252.64 30.22 L 252.84 30.21 L 253.03 30.19 L 253.23 30.17 L 253.42 30.16 L 253.62 30.14 L 253.81 30.12 L 254.00 30.11 L 254.20 30.09 L 254.39 30.07 L 254.59 30.06 L 254.78 30.04 L 254.98 30.03 L 255.17 30.01 L 255.37 30.00 L 255.56 29.98 L 255.75 29.96 L 255.95 29.95 L 256.14 29.94 L 256.34 29.92 L 256.53 29.91 L 256.73 29.89 L 256.92 29.88 L 257.12 29.86 L 257.31 29.85 L 257.50 29.83 L 257.70 29.82 L 257.89 29.81 L 258.09 29.79 L 258.28 29.78 L 258.48 29.77 L 258.67 29.75 L 258.86 29.74 L 259.06 29.73 L 259.25 29.71 L 259.45 29.70 L 259.64 29.69 L 259.84 29.67 L 260.03 29.66 L 260.23 29.65 L 260.42 29.64 L 260.61 29.62 L 260.81 29.61 L 261.00 29.60 L 261.20 29.59 L 261.39 29.58 L 261.59 29.56 L 261.78 29.55 L 261.98 29.54 L 262.17 29.53 L 262.36 29.52 L 262.56 29.51 L 262.75 29.50 L 262.95 29.49 L 263.14 29.47 L 263.34 29.46 L 263.53 29.45 L 263.73 29.44 L 263.92 29.43 L 264.11 29.42 L 264.31 29.41 L 264.50 29.40 L 264.70 29.39 L 264.89 29.38 L 265.09 29.37 L 265.28 29.36 L 265.48 29.35 L 265.67 29.34 L 265.86 29.33 L 266.06 29.32 L 266.25 29.31 L 266.45 29.30 L 266.64 29.29 L 266.84 29.28 L 267.03 29.27 L 267.23 29.26 L 267.42 29.25 L 267.61 29.24 L 267.81 29.24 L 268.00 29.23 L 268.20 29.22 L 268.39 29.21 L 268.59 29.20 L 268.78 29.19 L 268.97 29.18 L 269.17 29.17 L 269.36 29.17 L 269.56 29.16 L 269.75 29.15 L 269.95 29.14 L 270.14 29.13 L 270.34 29.13 L 270.53 29.12 L 270.72 29.11 L 270.92 29.10 L 271.11 29.09 L 271.31 29.09 L 271.50 29.08 L 271.70 29.07 L 271.89 29.06 L 272.09 29.06 L 272.28 29.05 L 272.47 29.04 L 272.67 29.03 L 272.86 29.03 L 273.06 29.02 L 273.25 29.01 L 273.45 29.01 L 273.64 29.00 L 273.84 28.99 L 274.03 28.98 L 274.22 28.98 L 274.42 28.97 L 274.61 28.96 L 274.81 28.96 L 275.00 28.95 L 275.20 28.94 L 275.39 28.94 L 275.59 28.93 L 275.78 28.93 L 275.97 28.92 L 276.17 28.91 L 276.36 28.91 L 276.56 28.90 L 276.75 28.89 L 276.95 28.89 L 277.14 28.88 L 277.34 28.88 L 277.53 28.87 L 277.72 28.86 L 277.92 28.86 L 278.11 28.85 L 278.31 28.85 L 278.50 28.84 L 278.70 28.84 L 278.89 28.83 L 279.09 28.82 L 279.28 28.82 L 279.47 28.81 L 279.67 28.81 L 279.86 28.80 L 280.06 28.80 L 280.25 28.79 L 280.45 28.79 L 280.64 28.78 L 280.83 28.78 L 281.03 28.77 L 281.22 28.77 L 281.42 28.76 L 281.61 28.76 L 281.81 28.75 L 282.00 28.75 L 282.20 28.74 L 282.39 28.74 L 282.58 28.73 L 282.78 28.73 L 282.97 28.72 L 283.17 28.72 L 283.36 28.71 L 283.56 28.71 L 283.75 28.71 L 283.95 28.70 L 284.14 28.70 L 284.33 28.69 L 284.53 28.69 L 284.72 28.68 L 284.92 28.68 L 285.11 28.68 L 285.31 28.67 L 285.50 28.67 L 285.70 28.66 L 285.89 28.66 L 286.08 28.65 L 286.28 28.65 L 286.47 28.65 L 286.67 28.64 L 286.86 28.64 L 287.06 28.63 L 287.25 28.63 L 287.45 28.63 L 287.64 28.62 L 287.83 28.62 L 288.03 28.62 L 288.22 28.61 L 288.42 28.61 L 288.61 28.60 L 288.81 28.60 L 289.00 28.60 L 289.20 28.59 L 289.39 28.59 L 289.58 28.59 L 289.78 28.58 L 289.97 28.58 L 290.17 28.58 L 290.36 28.57 L 290.56 28.57 L 290.75 28.57 L 290.94 28.56 L 291.14 28.56 L 291.33 28.56 L 291.53 28.55 L 291.72 28.55 L 291.92 28.55 L 292.11 28.54 L 292.31 28.54 L 292.50 28.54 L 292.69 28.54 L 292.89 28.53 L 293.08 28.53 L 293.28 28.53 L 293.47 28.52 L 293.67 28.52 L 293.86 28.52 L 294.06 28.51 L 294.25 28.51 L 294.44 28.51 L 294.64 28.51 L 294.83 28.50 L 295.03 28.50 L 295.22 28.50 L 295.42 28.50 L 295.61 28.49 L 295.81 28.49 L 296.00 28.49" fill="none" stroke="#5F6B7A" stroke-width="2.5" stroke-linecap="round" stroke-linejoin="round"/>
</svg>
