<svg xmlns="http://www.w3.org/2000/svg" viewBox="0 0 320 180" width="320" height="180">
  <rect width="320" height="180" fill="none"/>
  <path d="M 24.00 148.99 L 24.30 148.33 L 24.61 147.69 L 24.91 147.04 L 25.21 146.41 L 25.51 145.78 L 25.82 145.15 L 26.12 144.53 L 26.42 143.92 L 26.72 143.31 L 27.03 142.71 L 27.33 142.11 L 27.63 141.52 L 27.93 140.94 L 28.24 140.36 L 28.54 139.78 L 28.84 139.21 L 29.14 138.65 L 29.45 138.09 L 29.75 137.53 L 30.05 136.98 L 30.35 136.44 L 30.66 135.90 L 30.96 135.36 L 31.26 134.83 L 31.56 134.31 L 31.87 133.79 L 32.17 133.28 L 32.47 132.77 L 32.77 132.26 L 33.08 131.76 L 33.38 131.27 L 33.68 130.77 L 33.98 130.29 L 34.29 129.81 L 34.59 129.33 L 34.89 128.86 L 35.19 128.39 L 35.50 127.93 L 35.80 127.47 L 36.10 127.02 L 36.40 126.57 L 36.71 126.12 L 37.01 125.68 L 37.31 125.24 L 37.62 124.81 L 37.92 124.38 L 38.22 123.96 L 38.52 123.54 L 38.83 123.12 L 39.13 122.71 L 39.43 122.30 L 39.73 121.90 L 40.04 121.50 L 40.34 121.11 L 40.64 120.71 L 40.94 120.33 L 41.25 119.94 L 41.55 119.56 L 41.85 119.19 L 42.15 118.82 L 42.46 118.45 L 42.76 118.08 L 43.06 117.72 L 43.36 117.37 L 43.67 117.01 L 43.97 116.66 L 44.27 116.32 L 44.57 115.98 L 44.88 115.64 L 45.18 115.30 L 45.48 114.97 L 45.78 114.64 L 46.09 114.32 L 46.39 114.00 L 46.69 113.68 L 46.99 113.36 L 47.30 113.05 L 47.60 112.75 L 47.90 112.44 L 48.20 112.14 L 48.51 111.84 L 48.81 111.55 L 49.11 111.26 L 49.41 110.97 L 49.72 110.68 L 50.02 110.40 L 50.32 110.12 L 50.63 109.84 L 50.93 109.57 L 51.23 109.30 L 51.53 109.04 L 51.84 108.77 L 52.14 108.51 L 52.44 108.25 L 52.74 108.00 L 53.05 107.74 L 53.35 107.49 L 53.65 107.25 L 53.95 107.00 L 54.26 106.76 L 54.56 106.52 L 54.86 106.29 L 55.16 106.06 L 55.47 105.83 L 55.77 105.60 L 56.07 105.37 L 56.37 105.15 L 56.68 104.93 L 56.98 104.71 L 57.28 104.50 L 57.58 104.29 L 57.89 104.08 L 58.19 103.87 L 58.49 103.66 L 58.79 103.46 L 59.10 103.26 L 59.40 103.06 L 59.70 102.87 L 60.00 102.68 L 60.31 102.48 L 60.61 102.30 L 60.91 102.11 L 61.21 101.93 L 61.52 101.75 L 61.82 101.57 L 62.12 101.39 L 62.42 101.21 L 62.73 101.04 L 63.03 100.87 L 63.33 100.70 L 63.64 100.54 L 63.94 100.37 L 64.24 100.21 L 64.54 100.05 L 64.85 99.89 L 65.15 99.73 L 65.45 99.58 L 65.75 99.43 L 66.06 99.28 L 66.36 99.13 L 66.66 98.98 L 66.96 98.84 L 67.27 98.69 L 67.57 98.55 L 67.87 98.41 L 68.17 98.28 L 68.48 98.14 L 68.78 98.01 L 69.08 97.88 L 69.38 97.75 L 69.69 97.62 L 69.99 97.49 L 70.29 97.37 L 70.59 97.24 L 70.90 97.12 L 71.20 97.00 L 71.50 96.88 L 71.80 96.77 L 72.11 96.65 L 72.41 96.54 L 72.71 96.42 L 73.01 96.31 L 73.32 96.20 L 73.62 96.10 L 73.92 95.99 L 74.22 95.89 L 74.53 95.78 L 74.83 95.68 L 75.13 95.58 L 75.43 95.48 L 75.74 95.39 L 76.04 95.29 L 76.34 95.19 L 76.65 95.10 L 76.95 95.01 L 77.25 94.92 L 77.55 94.83 L 77.86 94.74 L 78.16 94.66 L 78.46 94.57 L 78.76 94.49 L 79.07 94.40 L 79.37 94.32 L 79.67 94.24 L 79.97 94.16 L 80.28 94.08 L 80.58 94.01 L 80.88 93.93 L 81.18 93.86 L 81.49 93.78 L 81.79 93.71 L 82.09 93.64 L 82.39 93.57 L 82.70 93.50 L 83.00 93.43 L 83.30 93.37 L 83.60 93.30 L 83.91 93.23 L 84.21 93.17 L 84.51 93.11 L 84.81 93.05 L 85.12 92.99 L 85.42 92.93 L 85.72 92.87 L 86.02 92.81 L 86.33 92.75 L 86.63 92.70 L 86.93 92.64 L 87.23 92.59 L 87.54 92.53 L 87.84 92.48 L 88.14 92.43 L 88.44 92.38 L 88.75 92.33 L 89.05 92.28 L 89.35 92.23 L 89.66 92.18 L 89.96 92.14 L 90.26 92.09 L 90.56 92.05 L 90.87 92.00 L 91.17 91.96 L 91.47 91.92 L 91.77 91.87 L 92.08 91.83 L 92.38 91.79 L 92.68 91.75 L 92.98 91.71 L 93.29 91.68 L 93.59 91.64 L 93.89 91.60 L 94.19 91.56 L 94.50 91.53 L 94.80 91.49 L 95.10 91.46 L 95.40 91.43 L 95.71 91.39 L 96.01 91.36 L 96.31 91.33 L 96.61 91.30 L 96.92 91.27 L 97.22 91.24 L 97.52 91.21 L 97.82 91.18 L 98.13 91.15 L 98.43 91.12 L 98.73 91.09 L 99.03 91.07 L 99.34 91.04 L 99.64 91.02 L 99.94 90.99 L 100.24 90.97 L 100.55 90.94 L 100.85 90.92 L 101.15 90.89 L 101.45 90.87 L 101.76 90.85 L 102.06 90.83 L 102.36 90.81 L 102.67 90.79 L 102.97 90.77 L 103.27 90.74 L 103.57 90.73 L 103.88 90.71 L 104.18 90.69 L 104.48 90.67 L 104.78 90.65 L 105.09 90.63 L 105.39 90.62 L 105.69 90.60 L 105.99 90.58 L 106.30 90.57 L 106.60 90.55 L 106.90 90.54 L 107.20 90.52 L 107.51 90.51 L 107.81 90.49 L 108.11 90.48 L 108.41 90.46 L 108.72 90.45 L 109.02 90.44 L 109.32 90.42 L 109.62 90.41 L 109.93 90.40 L 110.23 90.39 L 110.53 90.38 L 110.83 90.36 L 111.14 90.35 L 111.44 90.34 L 111.74 90.33 L 112.04 90.32 L 112.35 90.31 L 112.65 90.30 L 112.95 90.29 L 113.25 90.28 L 113.56 90.27 L 113.86 90.27 L 114.16 90.26 L 114.46 90.25 L 114.77 90.24 L 115.07 90.23 L 115.37 90.22 L 115.68 90.22 L 115.98 90.21 L 116.28 90.20 L 116.58 90.20 L 116.89 90.19 L 117.19 90.18 L 117.49 90.18 L 117.79 90.17 L 118.10 90.16 L 118.40 90.16 L 118.70 90.15 L 119.00 90.15 L 119.31 90.14 L 119.61 90.14 L 119.91 90.13 L 120.21 90.13 L 120.52 90.12 L 120.82 90.12 L 121.12 90.11 L 121.42 90.11 L 121.73 90.10 L 122.03 90.10 L 122.33 90.10 L 122.63 90.09 L 122.94 90.09 L 123.24 90.09 L 123.54 90.08 L 123.84 90.08 L 124.15 90.08 L 124.45 90.07 L 124.75 90.07 L 125.05 90.07 L 125.36 90.06 L 125.66 90.06 L 125.96 90.06 L 126.26 90.06 L 126.57 90.05 L 126.87 90.05 L 127.17 90.05 L 127.47 90.05 L 127.78 90.04 L 128.08 90.04 L 128.38 90.04 L 128.69 90.04 L 128.99 90.04 L 129.29 90.03 L 129.59 90.03 L 129.90 90.03 L 130.20 90.03 L 130.50 90.03 L 130.80 90.03 L 131.11 90.03 L 131.41 90.02 L 131.71 90.02 L 132.01 90.02 L 132.32 90.02 L 132.62 90.02 L 132.92 90.02 L 133.22 90.02 L 133.53 90.02 L 133.83 90.02 L 134.13 90.01 L 134.43 90.01 L 134.74 90.01 L 135.04 90.01 L 135.34 90.01 L 135.64 90.01 L 135.95 90.01 L 136.25 90.01 L 136.55 90.01 L 136.85 90.01 L 137.16 90.01 L 137.46 90.01 L 137.76 90.01 L 138.06 90.01 L 138.37 90.01 L 138.67 90.01 L 138.97 90.01 L 139.27 90.00 L 139.58 90.00 L 139.88 90.00 L 140.18 90.00 L 140.48 90.00 L 140.79 90.00 L 141.09 90.00 L 141.39 90.00 L 141.70 90.00 L 142.00 90.00 L 142.30 90.00 L 142.60 90.00 L 142.91 90.00 L 143.21 90.00 L 143.51 90.00 L 143.81 90.00 L 144.12 90.00 L 144.42 90.00 L 144.72 90.00 L 145.02 90.00 L 145.33 90.00 L 145.63 90.00 L 145.93 90.00 L 146.23 90.00 L 146.54 90.00 L 146.84 90.00 L 147.14 90.00 L 147.44 90.00 L 147.75 90.00 L 148.05 90.00 L 148.35 90.00 L 148.65 90.00 L 148.96 90.00 L 149.26 90.00 L 149.56 90.00 L 149.86 90.00 L 150.17 90.00 L 150.47 90.00 L 150.77 90.00 L 151.07 90.00 L 151.38 90.00 L 151.68 90.00 L 151.98 90.00 L 152.28 90.00 L 152.59 90.00 L 152.89 90.00 L 153.19 90.00 L 153.49 90.00 L 153.80 90.00 L 154.10 90.00 L 154.40 90.00 L 154.71 90.00 L 155.01 90.00 L 155.31 90.00 L 155.61 90.00 L 155.92 90.00 L 156.22 90.00 L 156.52 90.00 L 156.82 90.00 L 157.13 90.00 L 157.43 90.00 L 157.73 90.00 L 158.03 90.00 L 158.34 90.00 L 158.64 90.00 L 158.94 90.00 L 159.24 90.00 L 159.55 90.00 L 159.85 90.00 L 160.15 90.00 L 160.45 90.00 L 160.76 90.00 L 161.06 90.00 L 161.36 90.00 L 161.66 90.00 L 161.97 90.00 L 162.27 90.00 L 162.57 90.00 L 162.87 90.00 L 163.18 90.00 L 163.48 90.00 L 163.78 90.00 L 164.08 90.00 L 164.39 90.00 L 164.69 90.00 L 164.99 90.00 L 165.29 90.00 L 165.60 90.00 L 165.90 90.00 L 166.20 90.00 L 166.51 90.00 L 166.81 90.00 L 167.11 90.00 L 167.41 90.00 L 167.72 90.00 L 168.02 90.00 L 168.32 90.00 L 168.62 90.00 L 168.93 90.00 L 169.23 90.00 L 169.53 90.00 L 169.83 90.00 L 170.14 90.00 L 170.44 90.00 L 170.74 90.00 L 171.04 90.00 L 171.35 90.00 L 171.65 90.00 L 171.95 90.00 L 172.25 90.00 L 172.56 90.00 L 172.86 90.00 L 173.16 90.00 L 173.46 90.00 L 173.77 90.00 L 174.07 90.00 L 174.37 90.00 L 174.67 90.00 L 174.98 90.00 L 175.28 90.00 L 175.58 90.00 L 175.88 90.00 L 176.19 90.00 L 176.49 90.00 L 176.79 90.00 L 177.09 90.00 L 177.40 90.00 L 177.70 90.00 L 178.00 90.00 L 178.30 90.00 L 178.61 90.00 L 178.91 90.00 L 179.21 90.00 L 179.52 90.00 L 179.82 90.00 L 180.12 90.00 L 180.42 90.00 L 180.73 90.00 L 181.03 89.99 L 181.33 89.99 L 181.63 89.99 L 181.94 89.99 L 182.24 89.99 L 182.54 89.99 L 182.84 89.99 L 183.15 89.99 L 183.45 89.99 L 183.75 89.99 L 184.05 89.99 L 184.36 89.99 L 184.66 89.99 L 184.96 89.99 L 185.26 89.99 L 185.57 89.99 L 185.87 89.99 L 186.17 89.98 L 186.47 89.98 L 186.78 89.98 L 187.08 89.98 L 187.38 89.98 L 187.68 89.98 L 187.99 89.98 L 188.29 89.98 L 188.59 89.98 L 188.89 89.97 L 189.20 89.97 L 189.50 89.97 L 189.80 89.97 L 190.10 89.97 L 190.41 89.97 L 190.71 89.97 L 191.01 89.96 L 191.31 89.96 L 191.62 89.96 L 191.92 89.96 L 192.22 89.96 L 192.53 89.95 L 192.83 89.95 L 193.13 89.95 L 193.43 89.95 L 193.74 89.94 L 194.04 89.94 L 194.34 89.94 L 194.64 89.94 L 194.95 89.93 L 195.25 89.93 L 195.55 89.93 L 195.85 89.92 L 196.16 89.92 L 196.46 89.92 L 196.76 89.91 L 197.06 89.91 L 197.37 89.91 L 197.67 89.90 L 197.97 89.90 L 198.27 89.90 L 198.58 89.89 L 198.88 89.89 L 199.18 89.88 L 199.48 89.88 L 199.79 89.87 L 200.09 89.87 L 200.39 89.86 L 200.69 89.86 L 201.00 89.85 L 201.30 89.85 L 201.60 89.84 L 201.90 89.84 L 202.21 89.83 L 202.51 89.82 L 202.81 89.82 L 203.11 89.81 L 203.42 89.80 L 203.72 89.80 L 204.02 89.79 L 204.32 89.78 L 204.63 89.78 L 204.93 89.77 L 205.23 89.76 L 205.54 89.75 L 205.84 89.74 L 206.14 89.73 L 206.44 89.73 L 206.75 89.72 L 207.05 89.71 L 207.35 89.70 L 207.65 89.69 L 207.96 89.68 L 208.26 89.67 L 208.56 89.66 L 208.86 89.65 L 209.17 89.64 L 209.47 89.62 L 209.77 89.61 L 210.07 89.60 L 210.38 89.59 L 210.68 89.58 L 210.98 89.56 L 211.28 89.55 L 211.59 89.54 L 211.89 89.52 L 212.19 89.51 L 212.49 89.49 L 212.80 89.48 L 213.10 89.46 L 213.40 89.45 L 213.70 89.43 L 214.01 89.42 L 214.31 89.40 L 214.61 89.38 L 214.91 89.37 L 215.22 89.35 L 215.52 89.33 L 215.82 89.31 L 216.12 89.29 L 216.43 89.27 L 216.73 89.26 L 217.03 89.23 L 217.33 89.21 L 217.64 89.19 L 217.94 89.17 L 218.24 89.15 L 218.55 89.13 L 218.85 89.11 L 219.15 89.08 L 219.45 89.06 L 219.76 89.03 L 220.06 89.01 L 220.36 88.98 L 220.66 88.96 L 220.97 88.93 L 221.27 88.91 L 221.57 88.88 L 221.87 88.85 L 222.18 88.82 L 222.48 88.79 L 222.78 88.76 L 223.08 88.73 L 223.39 88.70 L 223.69 88.67 L 223.99 88.64 L 224.29 88.61 L 224.60 88.57 L 224.90 88.54 L 225.20 88.51 L 225.50 88.47 L 225.81 88.44 L 226.11 88.40 L 226.41 88.36 L 226.71 88.32 L 227.02 88.29 L 227.32 88.25 L 227.62 88.21 L 227.92 88.17 L 228.23 88.13 L 228.53 88.08 L 228.83 88.04 L 229.13 88.00 L 229.44 87.95 L 229.74 87.91 L 230.04 87.86 L 230.34 87.82 L 230.65 87.77 L 230.95 87.72 L 231.25 87.67 L 231.56 87.62 L 231.86 87.57 L 232.16 87.52 L 232.46 87.47 L 232.77 87.41 L 233.07 87.36 L 233.37 87.30 L 233.67 87.25 L 233.98 87.19 L 234.28 87.13 L 234.58 87.07 L 234.88 87.01 L 235.19 86.95 L 235.49 86.89 L 235.79 86.83 L 236.09 86.77 L 236.40 86.70 L 236.70 86.63 L 237.00 86.57 L 237.30 86.50 L 237.61 86.43 L 237.91 86.36 L 238.21 86.29 L 238.51 86.22 L 238.82 86.14 L 239.12 86.07 L 239.42 85.99 L 239.72 85.92 L 240.03 85.84 L 240.33 85.76 L 240.63 85.68 L 240.93 85.60 L 241.24 85.51 L 241.54 85.43 L 241.84 85.34 L 242.14 85.26 L 242.45 85.17 L 242.75 85.08 L 243.05 84.99 L 243.35 84.90 L 243.66 84.81 L 243.96 84.71 L 244.26 84.61 L 244.57 84.52 L 244.87 84.42 L 245.17 84.32 L 245.47 84.22 L 245.78 84.11 L 246.08 84.01 L 246.38 83.90 L 246.68 83.80 L 246.99 83.69 L 247.29 83.58 L 247.59 83.46 L 247.89 83.35 L 248.20 83.23 L 248.50 83.12 L 248.80 83.00 L 249.10 82.88 L 249.41 82.76 L 249.71 82.63 L 250.01 82.51 L 250.31 82.38 L 250.62 82.25 L 250.92 82.12 L 251.22 81.99 L 251.52 81.86 L 251.83 81.72 L 252.13 81.59 L 252.43 81.45 L 252.73 81.31 L 253.04 81.16 L 253.34 81.02 L 253.64 80.87 L 253.94 80.72 L 254.25 80.57 L 254.55 80.42 L 254.85 80.27 L 255.15 80.11 L 255.46 79.95 L 255.76 79.79 L 256.06 79.63 L 256.36 79.46 L 256.67 79.30 L 256.97 79.13 L 257.27 78.96 L 257.58 78.79 L 257.88 78.61 L 258.18 78.43 L 258.48 78.25 L 258.79 78.07 L 259.09 77.89 L 259.39 77.70 L 259.69 77.52 L 260.00 77.32 L 260.30 77.13 L 260.60 76.94 L 260.90 76.74 L 261.21 76.54 L 261.51 76.34 L 261.81 76.13 L 262.11 75.92 L 262.42 75.71 L 262.72 75.50 L 263.02 75.29 L 263.32 75.07 L 263.63 74.85 L 263.93 74.63 L 264.23 74.40 L 264.53 74.17 L 264.84 73.94 L 265.14 73.71 L 265.44 73.48 L 265.74 73.24 L 266.05 73.00 L 266.35 72.75 L 266.65 72.51 L 266.95 72.26 L 267.26 72.00 L 267.56 71.75 L 267.86 71.49 L 268.16 71.23 L 268.47 70.96 L 268.77 70.70 L 269.07 70.43 L 269.37 70.16 L 269.68 69.88 L 269.98 69.60 L 270.28 69.32 L 270.59 69.03 L 270.89 68.74 L 271.19 68.45 L 271.49 68.16 L 271.80 67.86 L 272.10 67.56 L 272.40 67.25 L 272.70 66.95 L 273.01 66.64 L 273.31 66.32 L 273.61 66.00 L 273.91 65.68 L 274.22 65.36 L 274.52 65.03 L 274.82 64.70 L 275.12 64.36 L 275.43 64.02 L 275.73 63.68 L 276.03 63.34 L 276.33 62.99 L 276.64 62.63 L 276.94 62.28 L 277.24 61.92 L 277.54 61.55 L 277.85 61.18 L 278.15 60.81 L 278.45 60.44 L 278.75 60.06 L 279.06 59.67 L 279.36 59.29 L 279.66 58.89 L 279.96 58.50 L 280.27 58.10 L 280.57 57.70 L 280.87 57.29 L 281.17 56.88 L 281.48 56.46 L 281.78 56.04 L 282.08 55.62 L 282.38 55.19 L 282.69 54.76 L 282.99 54.32 L 283.29 53.88 L 283.60 53.43 L 283.90 52.98 L 284.20 52.53 L 284.50 52.07 L 284.81 51.61 L 285.11 51.14 L 285.41 50.67 L 285.71 50.19 L 286.02 49.71 L 286.32 49.23 L 286.62 48.73 L 286.92 48.24 L 287.23 47.74 L 287.53 47.23 L 287.83 46.72 L 288.13 46.21 L 288.44 45.69 L 288.74 45.17 L 289.04 44.64 L 289.34 44.10 L 289.65 43.56 L 289.95 43.02 L 290.25 42.47 L 290.55 41.91 L 290.86 41.35 L 291.16 40.79 L 291.46 40.22 L 291.76 39.64 L 292.07 39.06 L 292.37 38.48 L 292.67 37.89 L 292.97 37.29 L 293.28 36.69 L 293.58 36.08 L 293.88 35.47 L 294.18 34.85 L 294.49 34.22 L 294.79 33.59 L 295.09 32.96 L 295.39 32.31 L 295.70 31.67 L 296.00 31.01" fill="none" stroke="#5F6B7A" stroke-width="2.5" stroke-linecap="round" stroke-linejoin="round"/>
</svg>
