<svg xmlns="http://www.w3.org/2000/svg" viewBox="0 0 320 180" width="320" height="180">
  <rect width="320" height="180" fill="none"/>
  <path d="M 24.00 152.83 L 24.19 150.69 L 24.39 149.81 L 24.58 149.13 L 24.78 148.55 L 24.97 148.05 L 25.17 147.59 L 25.36 147.17 L 25.56 146.78 L 25.75 146.41 L 25.94 146.06 L 26.14 145.73 L 26.33 145.41 L 26.53 145.11 L 26.72 144.82 L 26.92 144.53 L 27.11 144.26 L 27.31 144.00 L 27.50 143.74 L 27.69 143.49 L 27.89 143.24 L 28.08 143.01 L 28.28 142.77 L 28.47 142.55 L 28.67 142.32 L 28.86 142.11 L 29.06 141.89 L 29.25 141.68 L 29.44 141.48 L 29.64 141.27 L 29.83 141.07 L 30.03 140.88 L 30.22 140.69 L 30.42 140.50 L 30.61 140.31 L 30.80 140.12 L 31.00 139.94 L 31.19 139.76 L 31.39 139.59 L 31.58 139.41 L 31.78 139.24 L 31.97 139.07 L 32.17 138.90 L 32.36 138.73 L 32.55 138.57 L 32.75 138.41 L 32.94 138.24 L 33.14 138.09 L 33.33 137.93 L 33.53 137.77 L 33.72 137.62 L 33.92 137.46 L 34.11 137.31 L 34.30 137.16 L 34.50 137.01 L 34.69 136.86 L 34.89 136.72 L 35.08 136.57 L 35.28 136.43 L 35.47 136.29 L 35.67 136.14 L 35.86 136.00 L 36.05 135.86 L 36.25 135.73 L 36.44 135.59 L 36.64 135.45 L 36.83 135.32 L 37.03 135.18 L 37.22 135.05 L 37.42 134.92 L 37.61 134.78 L 37.80 134.65 L 38.00 134.52 L 38.19 134.39 L 38.39 134.27 L 38.58 134.14 L 38.78 134.01 L 38.97 133.89 L 39.17 133.76 L 39.36 133.64 L 39.55 133.51 L 39.75 133.39 L 39.94 133.27 L 40.14 133.15 L 40.33 133.03 L 40.53 132.91 L 40.72 132.79 L 40.91 132.67 L 41.11 132.55 L 41.30 132.43 L 41.50 132.32 L 41.69 132.20 L 41.89 132.08 L 42.08 131.97 L 42.28 131.86 L 42.47 131.74 L 42.66 131.63 L 42.86 131.52 L 43.05 131.40 L 43.25 131.29 L 43.44 131.18 L 43.64 131.07 L 43.83 130.96 L 44.03 130.85 L 44.22 130.74 L 44.41 130.63 L 44.61 130.52 L 44.80 130.42 L 45.00 130.31 L 45.19 130.20 L 45.39 130.09 L 45.58 129.99 L 45.78 129.88 L 45.97 129.78 L 46.16 129.67 L 46.36 129.57 L 46.55 129.46 L 46.75 129.36 L 46.94 129.26 L 47.14 129.16 L 47.33 129.05 L 47.53 128.95 L 47.72 128.85 L 47.91 128.75 L 48.11 128.65 L 48.30 128.55 L 48.50 128.45 L 48.69 128.35 L 48.89 128.25 L 49.08 128.15 L 49.28 128.05 L 49.47 127.95 L 49.66 127.85 L 49.86 127.76 L 50.05 127.66 L 50.25 127.56 L 50.44 127.47 L 50.64 127.37 L 50.83 127.27 L 51.03 127.18 L 51.22 127.08 L 51.41 126.99 L 51.61 126.89 L 51.80 126.80 L 52.00 126.70 L 52.19 126.61 L 52.39 126.52 L 52.58 126.42 L 52.77 126.33 L 52.97 126.24 L 53.16 126.14 L 53.36 126.05 L 53.55 125.96 L 53.75 125.87 L 53.94 125.78 L 54.14 125.69 L 54.33 125.59 L 54.52 125.50 L 54.72 125.41 L 54.91 125.32 L 55.11 125.23 L 55.30 125.14 L 55.50 125.05 L 55.69 124.96 L 55.89 124.88 L 56.08 124.79 L 56.27 124.70 L 56.47 124.61 L 56.66 124.52 L 56.86 124.43 L 57.05 124.35 L 57.25 124.26 L 57.44 124.17 L 57.64 124.08 L 57.83 124.00 L 58.02 123.91 L 58.22 123.83 L 58.41 123.74 L 58.61 123.65 L 58.80 123.57 L 59.00 123.48 L 59.19 123.40 L 59.39 123.31 L 59.58 123.23 L 59.77 123.14 L 59.97 123.06 L 60.16 122.97 L 60.36 122.89 L 60.55 122.81 L 60.75 122.72 L 60.94 122.64 L 61.14 122.55 L 61.33 122.47 L 61.52 122.39 L 61.72 122.31 L 61.91 122.22 L 62.11 122.14 L 62.30 122.06 L 62.50 121.98 L 62.69 121.89 L 62.88 121.81 L 63.08 121.73 L 63.27 121.65 L 63.47 121.57 L 63.66 121.49 L 63.86 121.41 L 64.05 121.33 L 64.25 121.24 L 64.44 121.16 L 64.63 121.08 L 64.83 121.00 L 65.02 120.92 L 65.22 120.84 L 65.41 120.76 L 65.61 120.68 L 65.80 120.61 L 66.00 120.53 L 66.19 120.45 L 66.38 120.37 L 66.58 120.29 L 66.77 120.21 L 66.97 120.13 L 67.16 120.05 L 67.36 119.98 L 67.55 119.90 L 67.75 119.82 L 67.94 119.74 L 68.13 119.66 L 68.33 119.59 L 68.52 119.51 L 68.72 119.43 L 68.91 119.36 L 69.11 119.28 L 69.30 119.20 L 69.50 119.13 L 69.69 119.05 L 69.88 118.97 L 70.08 118.90 L 70.27 118.82 L 70.47 118.74 L 70.66 118.67 L 70.86 118.59 L 71.05 118.52 L 71.25 118.44 L 71.44 118.37 L 71.63 118.29 L 71.83 118.22 L 72.02 118.14 L 72.22 118.07 L 72.41 117.99 L 72.61 117.92 L 72.80 117.84 L 72.99 117.77 L 73.19 117.69 L 73.38 117.62 L 73.58 117.54 L 73.77 117.47 L 73.97 117.40 L 74.16 117.32 L 74.36 117.25 L 74.55 117.17 L 74.74 117.10 L 74.94 117.03 L 75.13 116.95 L 75.33 116.88 L 75.52 116.81 L 75.72 116.74 L 75.91 116.66 L 76.11 116.59 L 76.30 116.52 L 76.49 116.45 L 76.69 116.37 L 76.88 116.30 L 77.08 116.23 L 77.27 116.16 L 77.47 116.08 L 77.66 116.01 L 77.86 115.94 L 78.05 115.87 L 78.24 115.80 L 78.44 115.73 L 78.63 115.65 L 78.83 115.58 L 79.02 115.51 L 79.22 115.44 L 79.41 115.37 L 79.61 115.30 L 79.80 115.23 L 79.99 115.16 L 80.19 115.09 L 80.38 115.02 L 80.58 114.95 L 80.77 114.87 L 80.97 114.80 L 81.16 114.73 L 81.36 114.66 L 81.55 114.59 L 81.74 114.52 L 81.94 114.45 L 82.13 114.38 L 82.33 114.31 L 82.52 114.25 L 82.72 114.18 L 82.91 114.11 L 83.11 114.04 L 83.30 113.97 L 83.49 113.90 L 83.69 113.83 L 83.88 113.76 L 84.08 113.69 L 84.27 113.62 L 84.47 113.55 L 84.66 113.48 L 84.85 113.42 L 85.05 113.35 L 85.24 113.28 L 85.44 113.21 L 85.63 113.14 L 85.83 113.07 L 86.02 113.01 L 86.22 112.94 L 86.41 112.87 L 86.60 112.80 L 86.80 112.73 L 86.99 112.67 L 87.19 112.60 L 87.38 112.53 L 87.58 112.46 L 87.77 112.40 L 87.97 112.33 L 88.16 112.26 L 88.35 112.19 L 88.55 112.13 L 88.74 112.06 L 88.94 111.99 L 89.13 111.92 L 89.33 111.86 L 89.52 111.79 L 89.72 111.72 L 89.91 111.66 L 90.10 111.59 L 90.30 111.52 L 90.49 111.46 L 90.69 111.39 L 90.88 111.32 L 91.08 111.26 L 91.27 111.19 L 91.47 111.13 L 91.66 111.06 L 91.85 110.99 L 92.05 110.93 L 92.24 110.86 L 92.44 110.80 L 92.63 110.73 L 92.83 110.66 L 93.02 110.60 L 93.22 110.53 L 93.41 110.47 L 93.60 110.40 L 93.80 110.34 L 93.99 110.27 L 94.19 110.21 L 94.38 110.14 L 94.58 110.07 L 94.77 110.01 L 94.96 109.94 L 95.16 109.88 L 95.35 109.81 L 95.55 109.75 L 95.74 109.68 L 95.94 109.62 L 96.13 109.55 L 96.33 109.49 L 96.52 109.43 L 96.71 109.36 L 96.91 109.30 L 97.10 109.23 L 97.30 109.17 L 97.49 109.10 L 97.69 109.04 L 97.88 108.97 L 98.08 108.91 L 98.27 108.85 L 98.46 108.78 L 98.66 108.72 L 98.85 108.65 L 99.05 108.59 L 99.24 108.53 L 99.44 108.46 L 99.63 108.40 L 99.83 108.33 L 100.02 108.27 L 100.21 108.21 L 100.41 108.14 L 100.60 108.08 L 100.80 108.02 L 100.99 107.95 L 101.19 107.89 L 101.38 107.83 L 101.58 107.76 L 101.77 107.70 L 101.96 107.64 L 102.16 107.57 L 102.35 107.51 L 102.55 107.45 L 102.74 107.38 L 102.94 107.32 L 103.13 107.26 L 103.33 107.19 L 103.52 107.13 L 103.71 107.07 L 103.91 107.01 L 104.10 106.94 L 104.30 106.88 L 104.49 106.82 L 104.69 106.75 L 104.88 106.69 L 105.08 106.63 L 105.27 106.57 L 105.46 106.50 L 105.66 106.44 L 105.85 106.38 L 106.05 106.32 L 106.24 106.26 L 106.44 106.19 L 106.63 106.13 L 106.82 106.07 L 107.02 106.01 L 107.21 105.94 L 107.41 105.88 L 107.60 105.82 L 107.80 105.76 L 107.99 105.70 L 108.19 105.63 L 108.38 105.57 L 108.57 105.51 L 108.77 105.45 L 108.96 105.39 L 109.16 105.33 L 109.35 105.26 L 109.55 105.20 L 109.74 105.14 L 109.94 105.08 L 110.13 105.02 L 110.32 104.96 L 110.52 104.90 L 110.71 104.83 L 110.91 104.77 L 111.10 104.71 L 111.30 104.65 L 111.49 104.59 L 111.69 104.53 L 111.88 104.47 L 112.07 104.41 L 112.27 104.34 L 112.46 104.28 L 112.66 104.22 L 112.85 104.16 L 113.05 104.10 L 113.24 104.04 L 113.44 103.98 L 113.63 103.92 L 113.82 103.86 L 114.02 103.80 L 114.21 103.74 L 114.41 103.67 L 114.60 103.61 L 114.80 103.55 L 114.99 103.49 L 115.19 103.43 L 115.38 103.37 L 115.57 103.31 L 115.77 103.25 L 115.96 103.19 L 116.16 103.13 L 116.35 103.07 L 116.55 103.01 L 116.74 102.95 L 116.93 102.89 L 117.13 102.83 L 117.32 102.77 L 117.52 102.71 L 117.71 102.65 L 117.91 102.59 L 118.10 102.53 L 118.30 102.47 L 118.49 102.41 L 118.68 102.35 L 118.88 102.29 L 119.07 102.23 L 119.27 102.17 L 119.46 102.11 L 119.66 102.05 L 119.85 101.99 L 120.05 101.93 L 120.24 101.87 L 120.43 101.81 L 120.63 101.75 L 120.82 101.69 L 121.02 101.63 L 121.21 101.57 L 121.41 101.51 L 121.60 101.45 L 121.80 101.39 L 121.99 101.33 L 122.18 101.27 L 122.38 101.21 L 122.57 101.15 L 122.77 101.09 L 122.96 101.03 L 123.16 100.97 L 123.35 100.91 L 123.55 100.85 L 123.74 100.80 L 123.93 100.74 L 124.13 100.68 L 124.32 100.62 L 124.52 100.56 L 124.71 100.50 L 124.91 100.44 L 125.10 100.38 L 125.30 100.32 L 125.49 100.26 L 125.68 100.20 L 125.88 100.14 L 126.07 100.09 L 126.27 100.03 L 126.46 99.97 L 126.66 99.91 L 126.85 99.85 L 127.05 99.79 L 127.24 99.73 L 127.43 99.67 L 127.63 99.61 L 127.82 99.55 L 128.02 99.50 L 128.21 99.44 L 128.41 99.38 L 128.60 99.32 L 128.79 99.26 L 128.99 99.20 L 129.18 99.14 L 129.38 99.08 L 129.57 99.03 L 129.77 98.97 L 129.96 98.91 L 130.16 98.85 L 130.35 98.79 L 130.54 98.73 L 130.74 98.67 L 130.93 98.62 L 131.13 98.56 L 131.32 98.50 L 131.52 98.44 L 131.71 98.38 L 131.91 98.32 L 132.10 98.26 L 132.29 98.21 L 132.49 98.15 L 132.68 98.09 L 132.88 98.03 L 133.07 97.97 L 133.27 97.91 L 133.46 97.86 L 133.66 97.80 L 133.85 97.74 L 134.04 97.68 L 134.24 97.62 L 134.43 97.56 L 134.63 97.51 L 134.82 97.45 L 135.02 97.39 L 135.21 97.33 L 135.41 97.27 L 135.60 97.22 L 135.79 97.16 L 135.99 97.10 L 136.18 97.04 L 136.38 96.98 L 136.57 96.93 L 136.77 96.87 L 136.96 96.81 L 137.16 96.75 L 137.35 96.69 L 137.54 96.64 L 137.74 96.58 L 137.93 96.52 L 138.13 96.46 L 138.32 96.40 L 138.52 96.35 L 138.71 96.29 L 138.90 96.23 L 139.10 96.17 L 139.29 96.11 L 139.49 96.06 L 139.68 96.00 L 139.88 95.94 L 140.07 95.88 L 140.27 95.82 L 140.46 95.77 L 140.65 95.71 L 140.85 95.65 L 141.04 95.59 L 141.24 95.54 L 141.43 95.48 L 141.63 95.42 L 141.82 95.36 L 142.02 95.31 L 142.21 95.25 L 142.40 95.19 L 142.60 95.13 L 142.79 95.07 L 142.99 95.02 L 143.18 94.96 L 143.38 94.90 L 143.57 94.84 L 143.77 94.79 L 143.96 94.73 L 144.15 94.67 L 144.35 94.61 L 144.54 94.56 L 144.74 94.50 L 144.93 94.44 L 145.13 94.38 L 145.32 94.33 L 145.52 94.27 L 145.71 94.21 L 145.90 94.15 L 146.10 94.10 L 146.29 94.04 L 146.49 93.98 L 146.68 93.92 L 146.88 93.87 L 147.07 93.81 L 147.27 93.75 L 147.46 93.69 L 147.65 93.64 L 147.85 93.58 L 148.04 93.52 L 148.24 93.46 L 148.43 93.41 L 148.63 93.35 L 148.82 93.29 L 149.02 93.23 L 149.21 93.18 L 149.40 93.12 L 149.60 93.06 L 149.79 93.00 L 149.99 92.95 L 150.18 92.89 L 150.38 92.83 L 150.57 92.78 L 150.76 92.72 L 150.96 92.66 L 151.15 92.60 L 151.35 92.55 L 151.54 92.49 L 151.74 92.43 L 151.93 92.37 L 152.13 92.32 L 152.32 92.26 L 152.51 92.20 L 152.71 92.15 L 152.90 92.09 L 153.10 92.03 L 153.29 91.97 L 153.49 91.92 L 153.68 91.86 L 153.88 91.80 L 154.07 91.74 L 154.26 91.69 L 154.46 91.63 L 154.65 91.57 L 154.85 91.52 L 155.04 91.46 L 155.24 91.40 L 155.43 91.34 L 155.63 91.29 L 155.82 91.23 L 156.01 91.17 L 156.21 91.12 L 156.40 91.06 L 156.60 91.00 L 156.79 90.94 L 156.99 90.89 L 157.18 90.83 L 157.38 90.77 L 157.57 90.71 L 157.76 90.66 L 157.96 90.60 L 158.15 90.54 L 158.35 90.49 L 158.54 90.43 L 158.74 90.37 L 158.93 90.31 L 159.13 90.26 L 159.32 90.20 L 159.51 90.14 L 159.71 90.09 L 159.90 90.03 L 160.10 89.97 L 160.29 89.91 L 160.49 89.86 L 160.68 89.80 L 160.87 89.74 L 161.07 89.69 L 161.26 89.63 L 161.46 89.57 L 161.65 89.51 L 161.85 89.46 L 162.04 89.40 L 162.24 89.34 L 162.43 89.29 L 162.62 89.23 L 162.82 89.17 L 163.01 89.11 L 163.21 89.06 L 163.40 89.00 L 163.60 88.94 L 163.79 88.88 L 163.99 88.83 L 164.18 88.77 L 164.37 88.71 L 164.57 88.66 L 164.76 88.60 L 164.96 88.54 L 165.15 88.48 L 165.35 88.43 L 165.54 88.37 L 165.74 88.31 L 165.93 88.26 L 166.12 88.20 L 166.32 88.14 L 166.51 88.08 L 166.71 88.03 L 166.90 87.97 L 167.10 87.91 L 167.29 87.85 L 167.49 87.80 L 167.68 87.74 L 167.87 87.68 L 168.07 87.63 L 168.26 87.57 L 168.46 87.51 L 168.65 87.45 L 168.85 87.40 L 169.04 87.34 L 169.24 87.28 L 169.43 87.22 L 169.62 87.17 L 169.82 87.11 L 170.01 87.05 L 170.21 87.00 L 170.40 86.94 L 170.60 86.88 L 170.79 86.82 L 170.98 86.77 L 171.18 86.71 L 171.37 86.65 L 171.57 86.59 L 171.76 86.54 L 171.96 86.48 L 172.15 86.42 L 172.35 86.36 L 172.54 86.31 L 172.73 86.25 L 172.93 86.19 L 173.12 86.13 L 173.32 86.08 L 173.51 86.02 L 173.71 85.96 L 173.90 85.90 L 174.10 85.85 L 174.29 85.79 L 174.48 85.73 L 174.68 85.67 L 174.87 85.62 L 175.07 85.56 L 175.26 85.50 L 175.46 85.44 L 175.65 85.39 L 175.85 85.33 L 176.04 85.27 L 176.23 85.21 L 176.43 85.16 L 176.62 85.10 L 176.82 85.04 L 177.01 84.98 L 177.21 84.93 L 177.40 84.87 L 177.60 84.81 L 177.79 84.75 L 177.98 84.69 L 178.18 84.64 L 178.37 84.58 L 178.57 84.52 L 178.76 84.46 L 178.96 84.41 L 179.15 84.35 L 179.35 84.29 L 179.54 84.23 L 179.73 84.18 L 179.93 84.12 L 180.12 84.06 L 180.32 84.00 L 180.51 83.94 L 180.71 83.89 L 180.90 83.83 L 181.10 83.77 L 181.29 83.71 L 181.48 83.65 L 181.68 83.60 L 181.87 83.54 L 182.07 83.48 L 182.26 83.42 L 182.46 83.36 L 182.65 83.31 L 182.84 83.25 L 183.04 83.19 L 183.23 83.13 L 183.43 83.07 L 183.62 83.02 L 183.82 82.96 L 184.01 82.90 L 184.21 82.84 L 184.40 82.78 L 184.59 82.73 L 184.79 82.67 L 184.98 82.61 L 185.18 82.55 L 185.37 82.49 L 185.57 82.44 L 185.76 82.38 L 185.96 82.32 L 186.15 82.26 L 186.34 82.20 L 186.54 82.14 L 186.73 82.09 L 186.93 82.03 L 187.12 81.97 L 187.32 81.91 L 187.51 81.85 L 187.71 81.79 L 187.90 81.74 L 188.09 81.68 L 188.29 81.62 L 188.48 81.56 L 188.68 81.50 L 188.87 81.44 L 189.07 81.38 L 189.26 81.33 L 189.46 81.27 L 189.65 81.21 L 189.84 81.15 L 190.04 81.09 L 190.23 81.03 L 190.43 80.97 L 190.62 80.92 L 190.82 80.86 L 191.01 80.80 L 191.21 80.74 L 191.40 80.68 L 191.59 80.62 L 191.79 80.56 L 191.98 80.50 L 192.18 80.45 L 192.37 80.39 L 192.57 80.33 L 192.76 80.27 L 192.95 80.21 L 193.15 80.15 L 193.34 80.09 L 193.54 80.03 L 193.73 79.97 L 193.93 79.91 L 194.12 79.86 L 194.32 79.80 L 194.51 79.74 L 194.70 79.68 L 194.90 79.62 L 195.09 79.56 L 195.29 79.50 L 195.48 79.44 L 195.68 79.38 L 195.87 79.32 L 196.07 79.26 L 196.26 79.20 L 196.45 79.15 L 196.65 79.09 L 196.84 79.03 L 197.04 78.97 L 197.23 78.91 L 197.43 78.85 L 197.62 78.79 L 197.82 78.73 L 198.01 78.67 L 198.20 78.61 L 198.40 78.55 L 198.59 78.49 L 198.79 78.43 L 198.98 78.37 L 199.18 78.31 L 199.37 78.25 L 199.57 78.19 L 199.76 78.13 L 199.95 78.07 L 200.15 78.01 L 200.34 77.95 L 200.54 77.89 L 200.73 77.83 L 200.93 77.77 L 201.12 77.71 L 201.32 77.65 L 201.51 77.59 L 201.70 77.53 L 201.90 77.47 L 202.09 77.41 L 202.29 77.35 L 202.48 77.29 L 202.68 77.23 L 202.87 77.17 L 203.07 77.11 L 203.26 77.05 L 203.45 76.99 L 203.65 76.93 L 203.84 76.87 L 204.04 76.81 L 204.23 76.75 L 204.43 76.69 L 204.62 76.63 L 204.81 76.57 L 205.01 76.51 L 205.20 76.45 L 205.40 76.39 L 205.59 76.33 L 205.79 76.26 L 205.98 76.20 L 206.18 76.14 L 206.37 76.08 L 206.56 76.02 L 206.76 75.96 L 206.95 75.90 L 207.15 75.84 L 207.34 75.78 L 207.54 75.72 L 207.73 75.66 L 207.93 75.59 L 208.12 75.53 L 208.31 75.47 L 208.51 75.41 L 208.70 75.35 L 208.90 75.29 L 209.09 75.23 L 209.29 75.17 L 209.48 75.10 L 209.68 75.04 L 209.87 74.98 L 210.06 74.92 L 210.26 74.86 L 210.45 74.80 L 210.65 74.74 L 210.84 74.67 L 211.04 74.61 L 211.23 74.55 L 211.43 74.49 L 211.62 74.43 L 211.81 74.37 L 212.01 74.30 L 212.20 74.24 L 212.40 74.18 L 212.59 74.12 L 212.79 74.06 L 212.98 73.99 L 213.18 73.93 L 213.37 73.87 L 213.56 73.81 L 213.76 73.74 L 213.95 73.68 L 214.15 73.62 L 214.34 73.56 L 214.54 73.50 L 214.73 73.43 L 214.92 73.37 L 215.12 73.31 L 215.31 73.25 L 215.51 73.18 L 215.70 73.12 L 215.90 73.06 L 216.09 72.99 L 216.29 72.93 L 216.48 72.87 L 216.67 72.81 L 216.87 72.74 L 217.06 72.68 L 217.26 72.62 L 217.45 72.55 L 217.65 72.49 L 217.84 72.43 L 218.04 72.36 L 218.23 72.30 L 218.42 72.24 L 218.62 72.17 L 218.81 72.11 L 219.01 72.05 L 219.20 71.98 L 219.40 71.92 L 219.59 71.86 L 219.79 71.79 L 219.98 71.73 L 220.17 71.67 L 220.37 71.60 L 220.56 71.54 L 220.76 71.47 L 220.95 71.41 L 221.15 71.35 L 221.34 71.28 L 221.54 71.22 L 221.73 71.15 L 221.92 71.09 L 222.12 71.03 L 222.31 70.96 L 222.51 70.90 L 222.70 70.83 L 222.90 70.77 L 223.09 70.70 L 223.29 70.64 L 223.48 70.57 L 223.67 70.51 L 223.87 70.45 L 224.06 70.38 L 224.26 70.32 L 224.45 70.25 L 224.65 70.19 L 224.84 70.12 L 225.04 70.06 L 225.23 69.99 L 225.42 69.93 L 225.62 69.86 L 225.81 69.79 L 226.01 69.73 L 226.20 69.66 L 226.40 69.60 L 226.59 69.53 L 226.78 69.47 L 226.98 69.40 L 227.17 69.34 L 227.37 69.27 L 227.56 69.20 L 227.76 69.14 L 227.95 69.07 L 228.15 69.01 L 228.34 68.94 L 228.53 68.87 L 228.73 68.81 L 228.92 68.74 L 229.12 68.68 L 229.31 68.61 L 229.51 68.54 L 229.70 68.48 L 229.90 68.41 L 230.09 68.34 L 230.28 68.28 L 230.48 68.21 L 230.67 68.14 L 230.87 68.08 L 231.06 68.01 L 231.26 67.94 L 231.45 67.87 L 231.65 67.81 L 231.84 67.74 L 232.03 67.67 L 232.23 67.60 L 232.42 67.54 L 232.62 67.47 L 232.81 67.40 L 233.01 67.33 L 233.20 67.27 L 233.40 67.20 L 233.59 67.13 L 233.78 67.06 L 233.98 66.99 L 234.17 66.93 L 234.37 66.86 L 234.56 66.79 L 234.76 66.72 L 234.95 66.65 L 235.15 66.58 L 235.34 66.52 L 235.53 66.45 L 235.73 66.38 L 235.92 66.31 L 236.12 66.24 L 236.31 66.17 L 236.51 66.10 L 236.70 66.03 L 236.89 65.96 L 237.09 65.89 L 237.28 65.82 L 237.48 65.75 L 237.67 65.69 L 237.87 65.62 L 238.06 65.55 L 238.26 65.48 L 238.45 65.41 L 238.64 65.34 L 238.84 65.27 L 239.03 65.20 L 239.23 65.13 L 239.42 65.05 L 239.62 64.98 L 239.81 64.91 L 240.01 64.84 L 240.20 64.77 L 240.39 64.70 L 240.59 64.63 L 240.78 64.56 L 240.98 64.49 L 241.17 64.42 L 241.37 64.35 L 241.56 64.27 L 241.76 64.20 L 241.95 64.13 L 242.14 64.06 L 242.34 63.99 L 242.53 63.92 L 242.73 63.84 L 242.92 63.77 L 243.12 63.70 L 243.31 63.63 L 243.51 63.55 L 243.70 63.48 L 243.89 63.41 L 244.09 63.34 L 244.28 63.26 L 244.48 63.19 L 244.67 63.12 L 244.87 63.05 L 245.06 62.97 L 245.26 62.90 L 245.45 62.83 L 245.64 62.75 L 245.84 62.68 L 246.03 62.60 L 246.23 62.53 L 246.42 62.46 L 246.62 62.38 L 246.81 62.31 L 247.01 62.23 L 247.20 62.16 L 247.39 62.08 L 247.59 62.01 L 247.78 61.93 L 247.98 61.86 L 248.17 61.78 L 248.37 61.71 L 248.56 61.63 L 248.75 61.56 L 248.95 61.48 L 249.14 61.41 L 249.34 61.33 L 249.53 61.26 L 249.73 61.18 L 249.92 61.10 L 250.12 61.03 L 250.31 60.95 L 250.50 60.87 L 250.70 60.80 L 250.89 60.72 L 251.09 60.64 L 251.28 60.57 L 251.48 60.49 L 251.67 60.41 L 251.87 60.34 L 252.06 60.26 L 252.25 60.18 L 252.45 60.10 L 252.64 60.02 L 252.84 59.95 L 253.03 59.87 L 253.23 59.79 L 253.42 59.71 L 253.62 59.63 L 253.81 59.55 L 254.00 59.47 L 254.20 59.39 L 254.39 59.32 L 254.59 59.24 L 254.78 59.16 L 254.98 59.08 L 255.17 59.00 L 255.37 58.92 L 255.56 58.84 L 255.75 58.76 L 255.95 58.67 L 256.14 58.59 L 256.34 58.51 L 256.53 58.43 L 256.73 58.35 L 256.92 58.27 L 257.12 58.19 L 257.31 58.11 L 257.50 58.02 L 257.70 57.94 L 257.89 57.86 L 258.09 57.78 L 258.28 57.69 L 258.48 57.61 L 258.67 57.53 L 258.86 57.45 L 259.06 57.36 L 259.25 57.28 L 259.45 57.19 L 259.64 57.11 L 259.84 57.03 L 260.03 56.94 L 260.23 56.86 L 260.42 56.77 L 260.61 56.69 L 260.81 56.60 L 261.00 56.52 L 261.20 56.43 L 261.39 56.35 L 261.59 56.26 L 261.78 56.17 L 261.98 56.09 L 262.17 56.00 L 262.36 55.92 L 262.56 55.83 L 262.75 55.74 L 262.95 55.65 L 263.14 55.57 L 263.34 55.48 L 263.53 55.39 L 263.73 55.30 L 263.92 55.21 L 264.11 55.12 L 264.31 55.04 L 264.50 54.95 L 264.70 54.86 L 264.89 54.77 L 265.09 54.68 L 265.28 54.59 L 265.48 54.50 L 265.67 54.41 L 265.86 54.31 L 266.06 54.22 L 266.25 54.13 L 266.45 54.04 L 266.64 53.95 L 266.84 53.86 L 267.03 53.76 L 267.23 53.67 L 267.42 53.58 L 267.61 53.48 L 267.81 53.39 L 268.00 53.30 L 268.20 53.20 L 268.39 53.11 L 268.59 53.01 L 268.78 52.92 L 268.97 52.82 L 269.17 52.73 L 269.36 52.63 L 269.56 52.53 L 269.75 52.44 L 269.95 52.34 L 270.14 52.24 L 270.34 52.15 L 270.53 52.05 L 270.72 51.95 L 270.92 51.85 L 271.11 51.75 L 271.31 51.65 L 271.50 51.55 L 271.70 51.45 L 271.89 51.35 L 272.09 51.25 L 272.28 51.15 L 272.47 51.05 L 272.67 50.95 L 272.86 50.84 L 273.06 50.74 L 273.25 50.64 L 273.45 50.54 L 273.64 50.43 L 273.84 50.33 L 274.03 50.22 L 274.22 50.12 L 274.42 50.01 L 274.61 49.91 L 274.81 49.80 L 275.00 49.69 L 275.20 49.58 L 275.39 49.48 L 275.59 49.37 L 275.78 49.26 L 275.97 49.15 L 276.17 49.04 L 276.36 48.93 L 276.56 48.82 L 276.75 48.71 L 276.95 48.60 L 277.14 48.48 L 277.34 48.37 L 277.53 48.26 L 277.72 48.14 L 277.92 48.03 L 278.11 47.92 L 278.31 47.80 L 278.50 47.68 L 278.70 47.57 L 278.89 47.45 L 279.09 47.33 L 279.28 47.21 L 279.47 47.09 L 279.67 46.97 L 279.86 46.85 L 280.06 46.73 L 280.25 46.61 L 280.45 46.49 L 280.64 46.36 L 280.83 46.24 L 281.03 46.11 L 281.22 45.99 L 281.42 45.86 L 281.61 45.73 L 281.81 45.61 L 282.00 45.48 L 282.20 45.35 L 282.39 45.22 L 282.58 45.08 L 282.78 44.95 L 282.97 44.82 L 283.17 44.68 L 283.36 44.55 L 283.56 44.41 L 283.75 44.27 L 283.95 44.14 L 284.14 44.00 L 284.33 43.86 L 284.53 43.71 L 284.72 43.57 L 284.92 43.43 L 285.11 43.28 L 285.31 43.14 L 285.50 42.99 L 285.70 42.84 L 285.89 42.69 L 286.08 42.54 L 286.28 42.38 L 286.47 42.23 L 286.67 42.07 L 286.86 41.91 L 287.06 41.76 L 287.25 41.59 L 287.45 41.43 L 287.64 41.27 L 287.83 41.10 L 288.03 40.93 L 288.22 40.76 L 288.42 40.59 L 288.61 40.41 L 288.81 40.24 L 289.00 40.06 L 289.20 39.88 L 289.39 39.69 L 289.58 39.50 L 289.78 39.31 L 289.97 39.12 L 290.17 38.93 L 290.36 38.73 L 290.56 38.52 L 290.75 38.32 L 290.94 38.11 L 291.14 37.89 L 291.33 37.68 L 291.53 37.45 L 291.72 37.23 L 291.92 36.99 L 292.11 36.76 L 292.31 36.51 L 292.50 36.26 L 292.69 36.00 L 292.89 35.74 L 293.08 35.47 L 293.28 35.18 L 293.47 34.89 L 293.67 34.59 L 293.86 34.27 L 294.06 33.94 L 294.25 33.59 L 294.44 33.22 L 294.64 32.83 L 294.83 32.41 L 295.03 31.95 L 295.22 31.45 L 295.42 30.87 L 295.61 30.19 L 295.81 29.31 L 296.00 27.17" fill="none" stroke="#5F6B7A" stroke-width="2.5" stroke-linecap="round" stroke-linejoin="round"/>
</svg>
