<svg xmlns="http://www.w3.org/2000/svg" viewBox="0 0 320 180" width="320" height="180">
  <rect width="320" height="180" fill="none"/>
  <path d="M 24.00 138.57 L 24.30 138.57 L 24.61 138.57 L 24.91 138.57 L 25.21 138.57 L 25.51 138.57 L 25.82 138.57 L 26.12 138.57 L 26.42 138.57 L 26.72 138.57 L 27.03 138.57 L 27.33 138.57 L 27.63 138.57 L 27.93 138.57 L 28.24 138.57 L 28.54 138.57 L 28.84 138.57 L 29.14 138.57 L 29.45 138.57 L 29.75 138.57 L 30.05 138.57 L 30.35 138.57 L 30.66 138.57 L 30.96 138.57 L 31.26 138.57 L 31.56 138.57 L 31.87 138.57 L 32.17 138.57 L 32.47 138.57 L 32.77 138.57 L 33.08 138.57 L 33.38 138.57 L 33.68 138.57 L 33.98 138.57 L 34.29 138.57 L 34.59 138.57 L 34.89 138.57 L 35.19 138.57 L 35.50 138.57 L 35.80 138.57 L 36.10 138.57 L 36.40 138.57 L 36.71 138.57 L 37.01 138.57 L 37.31 138.57 L 37.62 138.57 L 37.92 138.57 L 38.22 138.57 L 38.52 138.57 L 38.83 138.57 L 39.13 138.57 L 39.43 138.57 L 39.73 138.57 L 40.04 138.57 L 40.34 138.57 L 40.64 138.57 L 40.94 138.57 L 41.25 138.57 L 41.55 138.57 L 41.85 138.57 L 42.15 138.57 L 42.46 138.57 L 42.76 138.57 L 43.06 138.57 L 43.36 138.57 L 43.67 138.57 L 43.97 138.57 L 44.27 138.57 L 44.57 138.57 L 44.88 138.57 L 45.18 138.57 L 45.48 138.57 L 45.78 138.57 L 46.09 138.57 L 46.39 138.57 L 46.69 138.57 L 46.99 138.57 L 47.30 138.57 L 47.60 138.57 L 47.90 138.57 L 48.20 138.57 L 48.51 138.57 L 48.81 138.57 L 49.11 138.57 L 49.41 138.57 L 49.72 138.57 L 50.02 138.57 L 50.32 138.57 L 50.63 138.57 L 50.93 138.57 L 51.23 138.57 L 51.53 138.57 L 51.84 138.57 L 52.14 138.57 L 52.44 138.57 L 52.74 138.57 L 53.05 138.57 L 53.35 138.57 L 53.65 138.57 L 53.95 138.57 L 54.26 138.57 L 54.56 138.57 L 54.86 138.57 L 55.16 138.57 L 55.47 138.57 L 55.77 138.57 L 56.07 138.57 L 56.37 138.57 L 56.68 138.57 L 56.98 138.57 L 57.28 138.57 L 57.58 138.57 L 57.89 138.57 L 58.19 138.57 L 58.49 138.57 L 58.79 138.57 L 59.10 138.57 L 59.40 138.57 L 59.70 138.57 L 60.00 138.57 L 60.31 138.57 L 60.61 138.57 L 60.91 138.57 L 61.21 138.57 L 61.52 138.57 L 61.82 138.57 L 62.12 138.57 L 62.42 138.57 L 62.73 138.57 L 63.03 138.57 L 63.33 138.57 L 63.64 138.57 L 63.94 138.57 L 64.24 138.57 L 64.54 138.57 L 64.85 138.57 L 65.15 138.57 L 65.45 138.57 L 65.75 138.57 L 66.06 138.57 L 66.36 138.57 L 66.66 138.57 L 66.96 138.57 L 67.27 138.57 L 67.57 138.57 L 67.87 138.57 L 68.17 138.57 L 68.48 138.57 L 68.78 138.57 L 69.08 138.57 L 69.38 138.57 L 69.69 138.57 L 69.99 138.57 L 70.29 138.57 L 70.59 138.57 L 70.90 138.57 L 71.20 138.57 L 71.50 138.57 L 71.80 138.57 L 72.11 138.57 L 72.41 138.57 L 72.71 138.57 L 73.01 138.57 L 73.32 138.57 L 73.62 138.57 L 73.92 138.57 L 74.22 138.57 L 74.53 138.57 L 74.83 138.57 L 75.13 138.57 L 75.43 138.57 L 75.74 138.57 L 76.04 138.57 L 76.34 138.57 L 76.65 138.57 L 76.95 138.57 L 77.25 138.57 L 77.55 138.57 L 77.86 138.57 L 78.16 138.57 L 78.46 138.57 L 78.76 138.57 L 79.07 138.57 L 79.37 138.57 L 79.67 138.57 L 79.97 138.57 L 80.28 138.57 L 80.58 138.57 L 80.88 138.57 L 81.18 138.57 L 81.49 138.57 L 81.79 138.57 L 82.09 138.57 L 82.39 138.57 L 82.70 138.57 L 83.00 138.57 L 83.30 138.57 L 83.60 138.57 L 83.91 138.57 L 84.21 138.57 L 84.51 138.57 L 84.81 138.57 L 85.12 138.57 L 85.42 138.57 L 85.72 138.57 L 86.02 138.57 L 86.33 138.57 L 86.63 138.57 L 86.93 138.57 L 87.23 138.57 L 87.54 138.57 L 87.84 138.57 L 88.14 138.57 L 88.44 138.57 L 88.75 138.57 L 89.05 138.57 L 89.35 138.57 L 89.66 138.57 L 89.96 138.57 L 90.26 138.57 L 90.56 138.57 L 90.87 138.57 L 91.17 138.57 L 91.47 138.57 L 91.77 138.57 L 92.08 138.46 L 92.38 138.03 L 92.68 137.60 L 92.98 137.17 L 93.29 136.73 L 93.59 136.30 L 93.89 135.87 L 94.19 135.44 L 94.50 135.01 L 94.80 134.57 L 95.10 134.14 L 95.40 133.71 L 95.71 133.28 L 96.01 132.84 L 96.31 132.41 L 96.61 131.98 L 96.92 131.55 L 97.22 131.12 L 97.52 130.68 L 97.82 130.25 L 98.13 129.82 L 98.43 129.39 L 98.73 128.95 L 99.03 128.52 L 99.34 128.09 L 99.64 127.66 L 99.94 127.23 L 100.24 126.79 L 100.55 126.36 L 100.85 125.93 L 101.15 125.50 L 101.45 125.06 L 101.76 124.63 L 102.06 124.20 L 102.36 123.77 L 102.67 123.34 L 102.97 122.90 L 103.27 122.47 L 103.57 122.04 L 103.88 121.61 L 104.18 121.17 L 104.48 120.74 L 104.78 120.31 L 105.09 119.88 L 105.39 119.45 L 105.69 119.01 L 105.99 118.58 L 106.30 118.15 L 106.60 117.72 L 106.90 117.28 L 107.20 116.85 L 107.51 116.42 L 107.81 115.99 L 108.11 115.56 L 108.41 115.12 L 108.72 114.69 L 109.02 114.26 L 109.32 113.83 L 109.62 113.39 L 109.93 112.96 L 110.23 112.53 L 110.53 112.10 L 110.83 111.67 L 111.14 111.23 L 111.44 110.80 L 111.74 110.37 L 112.04 109.94 L 112.35 109.50 L 112.65 109.07 L 112.95 108.64 L 113.25 108.21 L 113.56 107.78 L 113.86 107.34 L 114.16 106.91 L 114.46 106.48 L 114.77 106.05 L 115.07 105.61 L 115.37 105.18 L 115.68 104.75 L 115.98 104.32 L 116.28 103.89 L 116.58 103.45 L 116.89 103.02 L 117.19 102.59 L 117.49 102.16 L 117.79 101.72 L 118.10 101.29 L 118.40 100.86 L 118.70 100.43 L 119.00 100.00 L 119.31 99.56 L 119.61 99.13 L 119.91 98.70 L 120.21 98.27 L 120.52 97.83 L 120.82 97.40 L 121.12 96.97 L 121.42 96.54 L 121.73 96.11 L 122.03 95.67 L 122.33 95.24 L 122.63 94.81 L 122.94 94.38 L 123.24 93.94 L 123.54 93.51 L 123.84 93.08 L 124.15 92.65 L 124.45 92.22 L 124.75 91.78 L 125.05 91.35 L 125.36 90.92 L 125.66 90.49 L 125.96 90.05 L 126.26 89.62 L 126.57 89.19 L 126.87 88.76 L 127.17 88.33 L 127.47 87.89 L 127.78 87.46 L 128.08 87.03 L 128.38 86.60 L 128.69 86.16 L 128.99 85.73 L 129.29 85.30 L 129.59 84.87 L 129.90 84.44 L 130.20 84.00 L 130.50 83.57 L 130.80 83.14 L 131.11 82.71 L 131.41 82.27 L 131.71 81.84 L 132.01 81.41 L 132.32 80.98 L 132.62 80.55 L 132.92 80.11 L 133.22 79.68 L 133.53 79.25 L 133.83 78.82 L 134.13 78.38 L 134.43 77.95 L 134.74 77.52 L 135.04 77.09 L 135.34 76.66 L 135.64 76.22 L 135.95 75.79 L 136.25 75.36 L 136.55 74.93 L 136.85 74.49 L 137.16 74.06 L 137.46 73.63 L 137.76 73.20 L 138.06 72.76 L 138.37 72.33 L 138.67 71.90 L 138.97 71.47 L 139.27 71.04 L 139.58 70.60 L 139.88 70.17 L 140.18 69.74 L 140.48 69.31 L 140.79 68.87 L 141.09 68.44 L 141.39 68.01 L 141.70 67.58 L 142.00 67.15 L 142.30 66.71 L 142.60 66.28 L 142.91 65.85 L 143.21 65.42 L 143.51 64.98 L 143.81 64.55 L 144.12 64.12 L 144.42 63.69 L 144.72 63.26 L 145.02 62.82 L 145.33 62.39 L 145.63 61.96 L 145.93 61.53 L 146.23 61.09 L 146.54 60.66 L 146.84 60.23 L 147.14 59.80 L 147.44 59.37 L 147.75 58.93 L 148.05 58.50 L 148.35 58.07 L 148.65 57.64 L 148.96 57.20 L 149.26 56.77 L 149.56 56.34 L 149.86 55.91 L 150.17 55.48 L 150.47 55.04 L 150.77 54.61 L 151.07 54.18 L 151.38 53.75 L 151.68 53.31 L 151.98 52.88 L 152.28 52.45 L 152.59 52.02 L 152.89 51.59 L 153.19 51.15 L 153.49 50.72 L 153.80 50.29 L 154.10 49.86 L 154.40 49.42 L 154.71 48.99 L 155.01 48.56 L 155.31 48.13 L 155.61 47.70 L 155.92 47.26 L 156.22 46.83 L 156.52 46.40 L 156.82 45.97 L 157.13 45.53 L 157.43 45.10 L 157.73 44.67 L 158.03 44.24 L 158.34 43.81 L 158.64 43.37 L 158.94 42.94 L 159.24 42.51 L 159.55 42.08 L 159.85 41.64 L 160.15 41.64 L 160.45 42.08 L 160.76 42.51 L 161.06 42.94 L 161.36 43.37 L 161.66 43.81 L 161.97 44.24 L 162.27 44.67 L 162.57 45.10 L 162.87 45.53 L 163.18 45.97 L 163.48 46.40 L 163.78 46.83 L 164.08 47.26 L 164.39 47.70 L 164.69 48.13 L 164.99 48.56 L 165.29 48.99 L 165.60 49.42 L 165.90 49.86 L 166.20 50.29 L 166.51 50.72 L 166.81 51.15 L 167.11 51.59 L 167.41 52.02 L 167.72 52.45 L 168.02 52.88 L 168.32 53.31 L 168.62 53.75 L 168.93 54.18 L 169.23 54.61 L 169.53 55.04 L 169.83 55.48 L 170.14 55.91 L 170.44 56.34 L 170.74 56.77 L 171.04 57.20 L 171.35 57.64 L 171.65 58.07 L 171.95 58.50 L 172.25 58.93 L 172.56 59.37 L 172.86 59.80 L 173.16 60.23 L 173.46 60.66 L 173.77 61.09 L 174.07 61.53 L 174.37 61.96 L 174.67 62.39 L 174.98 62.82 L 175.28 63.26 L 175.58 63.69 L 175.88 64.12 L 176.19 64.55 L 176.49 64.98 L 176.79 65.42 L 177.09 65.85 L 177.40 66.28 L 177.70 66.71 L 178.00 67.15 L 178.30 67.58 L 178.61 68.01 L 178.91 68.44 L 179.21 68.87 L 179.52 69.31 L 179.82 69.74 L 180.12 70.17 L 180.42 70.60 L 180.73 71.04 L 181.03 71.47 L 181.33 71.90 L 181.63 72.33 L 181.94 72.76 L 182.24 73.20 L 182.54 73.63 L 182.84 74.06 L 183.15 74.49 L 183.45 74.93 L 183.75 75.36 L 184.05 75.79 L 184.36 76.22 L 184.66 76.66 L 184.96 77.09 L 185.26 77.52 L 185.57 77.95 L 185.87 78.38 L 186.17 78.82 L 186.47 79.25 L 186.78 79.68 L 187.08 80.11 L 187.38 80.55 L 187.68 80.98 L 187.99 81.41 L 188.29 81.84 L 188.59 82.27 L 188.89 82.71 L 189.20 83.14 L 189.50 83.57 L 189.80 84.00 L 190.10 84.44 L 190.41 84.87 L 190.71 85.30 L 191.01 85.73 L 191.31 86.16 L 191.62 86.60 L 191.92 87.03 L 192.22 87.46 L 192.53 87.89 L 192.83 88.33 L 193.13 88.76 L 193.43 89.19 L 193.74 89.62 L 194.04 90.05 L 194.34 90.49 L 194.64 90.92 L 194.95 91.35 L 195.25 91.78 L 195.55 92.22 L 195.85 92.65 L 196.16 93.08 L 196.46 93.51 L 196.76 93.94 L 197.06 94.38 L 197.37 94.81 L 197.67 95.24 L 197.97 95.67 L 198.27 96.11 L 198.58 96.54 L 198.88 96.97 L 199.18 97.40 L 199.48 97.83 L 199.79 98.27 L 200.09 98.70 L 200.39 99.13 L 200.69 99.56 L 201.00 100.00 L 201.30 100.43 L 201.60 100.86 L 201.90 101.29 L 202.21 101.72 L 202.51 102.16 L 202.81 102.59 L 203.11 103.02 L 203.42 103.45 L 203.72 103.89 L 204.02 104.32 L 204.32 104.75 L 204.63 105.18 L 204.93 105.61 L 205.23 106.05 L 205.54 106.48 L 205.84 106.91 L 206.14 107.34 L 206.44 107.78 L 206.75 108.21 L 207.05 108.64 L 207.35 109.07 L 207.65 109.50 L 207.96 109.94 L 208.26 110.37 L 208.56 110.80 L 208.86 111.23 L 209.17 111.67 L 209.47 112.10 L 209.77 112.53 L 210.07 112.96 L 210.38 113.39 L 210.68 113.83 L 210.98 114.26 L 211.28 114.69 L 211.59 115.12 L 211.89 115.56 L 212.19 115.99 L 212.49 116.42 L 212.80 116.85 L 213.10 117.28 L 213.40 117.72 L 213.70 118.15 L 214.01 118.58 L 214.31 119.01 L 214.61 119.45 L 214.91 119.88 L 215.22 120.31 L 215.52 120.74 L 215.82 121.17 L 216.12 121.61 L 216.43 122.04 L 216.73 122.47 L 217.03 122.90 L 217.33 123.34 L 217.64 123.77 L 217.94 124.20 L 218.24 124.63 L 218.55 125.06 L 218.85 125.50 L 219.15 125.93 L 219.45 126.36 L 219.76 126.79 L 220.06 127.23 L 220.36 127.66 L 220.66 128.09 L 220.97 128.52 L 221.27 128.95 L 221.57 129.39 L 221.87 129.82 L 222.18 130.25 L 222.48 130.68 L 222.78 131.12 L 223.08 131.55 L 223.39 131.98 L 223.69 132.41 L 223.99 132.84 L 224.29 133.28 L 224.60 133.71 L 224.90 134.14 L 225.20 134.57 L 225.50 135.01 L 225.81 135.44 L 226.11 135.87 L 226.41 136.30 L 226.71 136.73 L 227.02 137.17 L 227.32 137.60 L 227.62 138.03 L 227.92 138.46 L 228.23 138.57 L 228.53 138.57 L 228.83 138.57 L 229.13 138.57 L 229.44 138.57 L 229.74 138.57 L 230.04 138.57 L 230.34 138.57 L 230.65 138.57 L 230.95 138.57 L 231.25 138.57 L 231.56 138.57 L 231.86 138.57 L 232.16 138.57 L 232.46 138.57 L 232.77 138.57 L 233.07 138.57 L 233.37 138.57 L 233.67 138.57 L 233.98 138.57 L 234.28 138.57 L 234.58 138.57 L 234.88 138.57 L 235.19 138.57 L 235.49 138.57 L 235.79 138.57 L 236.09 138.57 L 236.40 138.57 L 236.70 138.57 L 237.00 138.57 L 237.30 138.57 L 237.61 138.57 L 237.91 138.57 L 238.21 138.57 L 238.51 138.57 L 238.82 138.57 L 239.12 138.57 L 239.42 138.57 L 239.72 138.57 L 240.03 138.57 L 240.33 138.57 L 240.63 138.57 L 240.93 138.57 L 241.24 138.57 L 241.54 138.57 L 241.84 138.57 L 242.14 138.57 L 242.45 138.57 L 242.75 138.57 L 243.05 138.57 L 243.35 138.57 L 243.66 138.57 L 243.96 138.57 L 244.26 138.57 L 244.57 138.57 L 244.87 138.57 L 245.17 138.57 L 245.47 138.57 L 245.78 138.57 L 246.08 138.57 L 246.38 138.57 L 246.68 138.57 L 246.99 138.57 L 247.29 138.57 L 247.59 138.57 L 247.89 138.57 L 248.20 138.57 L 248.50 138.57 L 248.80 138.57 L 249.10 138.57 L 249.41 138.57 L 249.71 138.57 L 250.01 138.57 L 250.31 138.57 L 250.62 138.57 L 250.92 138.57 L 251.22 138.57 L 251.52 138.57 L 251.83 138.57 L 252.13 138.57 L 252.43 138.57 L 252.73 138.57 L 253.04 138.57 L 253.34 138.57 L 253.64 138.57 L 253.94 138.57 L 254.25 138.57 L 254.55 138.57 L 254.85 138.57 L 255.15 138.57 L 255.46 138.57 L 255.76 138.57 L 256.06 138.57 L 256.36 138.57 L 256.67 138.57 L 256.97 138.57 L 257.27 138.57 L 257.58 138.57 L 257.88 138.57 L 258.18 138.57 L 258.48 138.57 L 258.79 138.57 L 259.09 138.57 L 259.39 138.57 L 259.69 138.57 L 260.00 138.57 L 260.30 138.57 L 260.60 138.57 L 260.90 138.57 L 261.21 138.57 L 261.51 138.57 L 261.81 138.57 L 262.11 138.57 L 262.42 138.57 L 262.72 138.57 L 263.02 138.57 L 263.32 138.57 L 263.63 138.57 L 263.93 138.57 L 264.23 138.57 L 264.53 138.57 L 264.84 138.57 L 265.14 138.57 L 265.44 138.57 L 265.74 138.57 L 266.05 138.57 L 266.35 138.57 L 266.65 138.57 L 266.95 138.57 L 267.26 138.57 L 267.56 138.57 L 267.86 138.57 L 268.16 138.57 L 268.47 138.57 L 268.77 138.57 L 269.07 138.57 L 269.37 138.57 L 269.68 138.57 L 269.98 138.57 L 270.28 138.57 L 270.59 138.57 L 270.89 138.57 L 271.19 138.57 L 271.49 138.57 L 271.80 138.57 L 272.10 138.57 L 272.40 138.57 L 272.70 138.57 L 273.01 138.57 L 273.31 138.57 L 273.61 138.57 L 273.91 138.57 L 274.22 138.57 L 274.52 138.57 L 274.82 138.57 L 275.12 138.57 L 275.43 138.57 L 275.73 138.57 L 276.03 138.57 L 276.33 138.57 L 276.64 138.57 L 276.94 138.57 L 277.24 138.57 L 277.54 138.57 L 277.85 138.57 L 278.15 138.57 L 278.45 138.57 L 278.75 138.57 L 279.06 138.57 L 279.36 138.57 L 279.66 138.57 L 279.96 138.57 L 280.27 138.57 L 280.57 138.57 L 280.87 138.57 L 281.17 138.57 L 281.48 138.57 L 281.78 138.57 L 282.08 138.57 L 282.38 138.57 L 282.69 138.57 L 282.99 138.57 L 283.29 138.57 L 283.60 138.57 L 283.90 138.57 L 284.20 138.57 L 284.50 138.57 L 284.81 138.57 L 285.11 138.57 L 285.41 138.57 L 285.71 138.57 L 286.02 138.57 L 286.32 138.57 L 286.62 138.57 L 286.92 138.57 L 287.23 138.57 L 287.53 138.57 L 287.83 138.57 L 288.13 138.57 L 288.44 138.57 L 288.74 138.57 L 289.04 138.57 L 289.34 138.57 L 289.65 138.57 L 289.95 138.57 L 290.25 138.57 L 290.55 138.57 L 290.86 138.57 L 291.16 138.57 L 291.46 138.57 L 291.76 138.57 L 292.07 138.57 L 292.37 138.57 L 292.67 138.57 L 292.97 138.57 L 293.28 138.57 L 293.58 138.57 L 293.88 138.57 L 294.18 138.57 L 294.49 138.57 L 294.79 138.57 L 295.09 138.57 L 295.39 138.57 L 295.70 138.57 L 296.00 138.57" fill="none" stroke="#5F6B7A" stroke-width="2.5" stroke-linecap="round" stroke-linejoin="round"/>
</svg>
