<svg xmlns="http://www.w3.org/2000/svg" viewBox="0 0 320 180" width="320" height="180">
  <rect width="320" height="180" fill="#F4F5F7"/>
  <path d="M 18.00 144.00 L 18.24 143.90 L 18.47 143.80 L 18.71 143.69 L 18.95 143.59 L 19.18 143.49 L 19.42 143.39 L 19.66 143.28 L 19.89 143.18 L 20.13 143.08 L 20.37 142.98 L 20.61 142.88 L 20.84 142.77 L 21.08 142.67 L 21.32 142.57 L 21.55 142.47 L 21.79 142.36 L 22.03 142.26 L 22.26 142.16 L 22.50 142.06 L 22.74 141.95 L 22.97 141.85 L 23.21 141.75 L 23.45 141.65 L 23.68 141.54 L 23.92 141.44 L 24.16 141.34 L 24.40 141.24 L 24.63 141.13 L 24.87 141.03 L 25.11 140.93 L 25.34 140.83 L 25.58 140.72 L 25.82 140.62 L 26.05 140.52 L 26.29 140.41 L 26.53 140.31 L 26.76 140.21 L 27.00 140.11 L 27.24 140.00 L 27.47 139.90 L 27.71 139.80 L 27.95 139.69 L 28.19 139.59 L 28.42 139.49 L 28.66 139.38 L 28.90 139.28 L 29.13 139.18 L 29.37 139.07 L 29.61 138.97 L 29.84 138.87 L 30.08 138.77 L 30.32 138.66 L 30.55 138.56 L 30.79 138.46 L 31.03 138.35 L 31.26 138.25 L 31.50 138.15 L 31.74 138.04 L 31.97 137.94 L 32.21 137.83 L 32.45 137.73 L 32.69 137.63 L 32.92 137.52 L 33.16 137.42 L 33.40 137.32 L 33.63 137.21 L 33.87 137.11 L 34.11 137.01 L 34.34 136.90 L 34.58 136.80 L 34.82 136.69 L 35.05 136.59 L 35.29 136.49 L 35.53 136.38 L 35.76 136.28 L 36.00 136.18 L 36.24 136.07 L 36.48 135.97 L 36.71 135.86 L 36.95 135.76 L 37.19 135.66 L 37.42 135.55 L 37.66 135.45 L 37.90 135.34 L 38.13 135.24 L 38.37 135.13 L 38.61 135.03 L 38.84 134.93 L 39.08 134.82 L 39.32 134.72 L 39.55 134.61 L 39.79 134.51 L 40.03 134.40 L 40.27 134.30 L 40.50 134.19 L 40.74 134.09 L 40.98 133.99 L 41.21 133.88 L 41.45 133.78 L 41.69 133.67 L 41.92 133.57 L 42.16 133.46 L 42.40 133.36 L 42.63 133.25 L 42.87 133.15 L 43.11 133.04 L 43.34 132.94 L 43.58 132.83 L 43.82 132.73 L 44.06 132.62 L 44.29 132.52 L 44.53 132.41 L 44.77 132.31 L 45.00 132.20 L 45.24 132.10 L 45.48 131.99 L 45.71 131.89 L 45.95 131.78 L 46.19 131.67 L 46.42 131.57 L 46.66 131.46 L 46.90 131.36 L 47.13 131.25 L 47.37 131.15 L 47.61 131.04 L 47.84 130.94 L 48.08 130.83 L 48.32 130.72 L 48.56 130.62 L 48.79 130.51 L 49.03 130.41 L 49.27 130.30 L 49.50 130.19 L 49.74 130.09 L 49.98 129.98 L 50.21 129.88 L 50.45 129.77 L 50.69 129.66 L 50.92 129.56 L 51.16 129.45 L 51.40 129.35 L 51.63 129.24 L 51.87 129.13 L 52.11 129.03 L 52.35 128.92 L 52.58 128.81 L 52.82 128.71 L 53.06 128.60 L 53.29 128.49 L 53.53 128.39 L 53.77 128.28 L 54.00 128.17 L 54.24 128.07 L 54.48 127.96 L 54.71 127.85 L 54.95 127.75 L 55.19 127.64 L 55.42 127.53 L 55.66 127.42 L 55.90 127.32 L 56.14 127.21 L 56.37 127.10 L 56.61 126.99 L 56.85 126.89 L 57.08 126.78 L 57.32 126.67 L 57.56 126.56 L 57.79 126.46 L 58.03 126.35 L 58.27 126.24 L 58.50 126.13 L 58.74 126.03 L 58.98 125.92 L 59.21 125.81 L 59.45 125.70 L 59.69 125.59 L 59.92 125.49 L 60.16 125.38 L 60.40 125.27 L 60.64 125.16 L 60.87 125.05 L 61.11 124.94 L 61.35 124.84 L 61.58 124.73 L 61.82 124.62 L 62.06 124.51 L 62.29 124.40 L 62.53 124.29 L 62.77 124.18 L 63.00 124.07 L 63.24 123.97 L 63.48 123.86 L 63.71 123.75 L 63.95 123.64 L 64.19 123.53 L 64.43 123.42 L 64.66 123.31 L 64.90 123.20 L 65.14 123.09 L 65.37 122.98 L 65.61 122.87 L 65.85 122.76 L 66.08 122.65 L 66.32 122.54 L 66.56 122.43 L 66.79 122.32 L 67.03 122.21 L 67.27 122.10 L 67.50 121.99 L 67.74 121.88 L 67.98 121.77 L 68.22 121.66 L 68.45 121.55 L 68.69 121.44 L 68.93 121.33 L 69.16 121.22 L 69.40 121.11 L 69.64 121.00 L 69.87 120.89 L 70.11 120.78 L 70.35 120.66 L 70.58 120.55 L 70.82 120.44 L 71.06 120.33 L 71.29 120.22 L 71.53 120.11 L 71.77 120.00 L 72.01 119.88 L 72.24 119.77 L 72.48 119.66 L 72.72 119.55 L 72.95 119.44 L 73.19 119.32 L 73.43 119.21 L 73.66 119.10 L 73.90 118.99 L 74.14 118.88 L 74.37 118.76 L 74.61 118.65 L 74.85 118.54 L 75.08 118.42 L 75.32 118.31 L 75.56 118.20 L 75.79 118.09 L 76.03 117.97 L 76.27 117.86 L 76.51 117.75 L 76.74 117.63 L 76.98 117.52 L 77.22 117.40 L 77.45 117.29 L 77.69 117.18 L 77.93 117.06 L 78.16 116.95 L 78.40 116.83 L 78.64 116.72 L 78.87 116.61 L 79.11 116.49 L 79.35 116.38 L 79.58 116.26 L 79.82 116.15 L 80.06 116.03 L 80.30 115.92 L 80.53 115.80 L 80.77 115.69 L 81.01 115.57 L 81.24 115.46 L 81.48 115.34 L 81.72 115.22 L 81.95 115.11 L 82.19 114.99 L 82.43 114.88 L 82.66 114.76 L 82.90 114.64 L 83.14 114.53 L 83.37 114.41 L 83.61 114.29 L 83.85 114.18 L 84.09 114.06 L 84.32 113.94 L 84.56 113.83 L 84.80 113.71 L 85.03 113.59 L 85.27 113.47 L 85.51 113.35 L 85.74 113.24 L 85.98 113.12 L 86.22 113.00 L 86.45 112.88 L 86.69 112.76 L 86.93 112.64 L 87.16 112.53 L 87.40 112.41 L 87.64 112.29 L 87.87 112.17 L 88.11 112.05 L 88.35 111.93 L 88.59 111.81 L 88.82 111.69 L 89.06 111.57 L 89.30 111.45 L 89.53 111.33 L 89.77 111.21 L 90.01 111.09 L 90.24 110.97 L 90.48 110.85 L 90.72 110.72 L 90.95 110.60 L 91.19 110.48 L 91.43 110.36 L 91.66 110.24 L 91.90 110.12 L 92.14 109.99 L 92.38 109.87 L 92.61 109.75 L 92.85 109.63 L 93.09 109.50 L 93.32 109.38 L 93.56 109.26 L 93.80 109.13 L 94.03 109.01 L 94.27 108.88 L 94.51 108.76 L 94.74 108.64 L 94.98 108.51 L 95.22 108.39 L 95.45 108.26 L 95.69 108.14 L 95.93 108.01 L 96.17 107.89 L 96.40 107.76 L 96.64 107.63 L 96.88 107.51 L 97.11 107.38 L 97.35 107.25 L 97.59 107.13 L 97.82 107.00 L 98.06 106.87 L 98.30 106.74 L 98.53 106.62 L 98.77 106.49 L 99.01 106.36 L 99.24 106.23 L 99.48 106.10 L 99.72 105.97 L 99.95 105.84 L 100.19 105.71 L 100.43 105.58 L 100.67 105.45 L 100.90 105.32 L 101.14 105.19 L 101.38 105.06 L 101.61 104.93 L 101.85 104.80 L 102.09 104.66 L 102.32 104.53 L 102.56 104.40 L 102.80 104.27 L 103.03 104.13 L 103.27 104.00 L 103.51 103.87 L 103.74 103.73 L 103.98 103.60 L 104.22 103.46 L 104.46 103.33 L 104.69 103.19 L 104.93 103.06 L 105.17 102.92 L 105.40 102.78 L 105.64 102.65 L 105.88 102.51 L 106.11 102.37 L 106.35 102.23 L 106.59 102.10 L 106.82 101.96 L 107.06 101.82 L 107.30 101.68 L 107.53 101.54 L 107.77 101.40 L 108.01 101.26 L 108.25 101.12 L 108.48 100.97 L 108.72 100.83 L 108.96 100.69 L 109.19 100.55 L 109.43 100.40 L 109.67 100.26 L 109.90 100.12 L 110.14 99.97 L 110.38 99.83 L 110.61 99.68 L 110.85 99.54 L 111.09 99.39 L 111.32 99.24 L 111.56 99.09 L 111.80 98.95 L 112.04 98.80 L 112.27 98.65 L 112.51 98.50 L 112.75 98.35 L 112.98 98.20 L 113.22 98.05 L 113.46 97.90 L 113.69 97.74 L 113.93 97.59 L 114.17 97.44 L 114.40 97.28 L 114.64 97.13 L 114.88 96.97 L 115.11 96.82 L 115.35 96.66 L 115.59 96.50 L 115.82 96.35 L 116.06 96.19 L 116.30 96.03 L 116.54 95.87 L 116.77 95.71 L 117.01 95.55 L 117.25 95.39 L 117.48 95.22 L 117.72 95.06 L 117.96 94.90 L 118.19 94.73 L 118.43 94.56 L 118.67 94.40 L 118.90 94.23 L 119.14 94.06 L 119.38 93.89 L 119.61 93.72 L 119.85 93.55 L 120.09 93.38 L 120.33 93.21 L 120.56 93.04 L 120.80 92.86 L 121.04 92.69 L 121.27 92.51 L 121.51 92.33 L 121.75 92.15 L 121.98 91.97 L 122.22 91.79 L 122.46 91.61 L 122.69 91.43 L 122.93 91.25 L 123.17 91.06 L 123.40 90.88 L 123.64 90.69 L 123.88 90.50 L 124.12 90.31 L 124.35 90.12 L 124.59 89.93 L 124.83 89.73 L 125.06 89.54 L 125.30 89.34 L 125.54 89.15 L 125.77 88.95 L 126.01 88.75 L 126.25 88.55 L 126.48 88.34 L 126.72 88.14 L 126.96 87.93 L 127.19 87.72 L 127.43 87.52 L 127.67 87.30 L 127.90 87.09 L 128.14 86.88 L 128.38 86.66 L 128.62 86.44 L 128.85 86.22 L 129.09 86.00 L 129.33 85.78 L 129.56 85.55 L 129.80 85.32 L 130.04 85.09 L 130.27 84.86 L 130.51 84.63 L 130.75 84.39 L 130.98 84.15 L 131.22 83.91 L 131.46 83.67 L 131.69 83.42 L 131.93 83.17 L 132.17 82.92 L 132.41 82.67 L 132.64 82.41 L 132.88 82.15 L 133.12 81.89 L 133.35 81.63 L 133.59 81.36 L 133.83 81.09 L 134.06 80.81 L 134.30 80.53 L 134.54 80.25 L 134.77 79.97 L 135.01 79.68 L 135.25 79.39 L 135.48 79.09 L 135.72 78.79 L 135.96 78.49 L 136.20 78.18 L 136.43 77.87 L 136.67 77.55 L 136.91 77.23 L 137.14 76.91 L 137.38 76.58 L 137.62 76.24 L 137.85 75.90 L 138.09 75.56 L 138.33 75.20 L 138.56 74.85 L 138.80 74.49 L 139.04 74.12 L 139.27 73.74 L 139.51 73.36 L 139.75 72.97 L 139.98 72.58 L 140.22 72.18 L 140.46 71.77 L 140.70 71.35 L 140.93 70.92 L 141.17 70.49 L 141.41 70.05 L 141.64 69.60 L 141.88 69.14 L 142.12 68.67 L 142.35 68.19 L 142.59 67.70 L 142.83 67.20 L 143.06 66.69 L 143.30 66.16 L 143.54 65.62 L 143.77 65.07 L 144.01 64.51 L 144.25 63.94 L 144.49 63.34 L 144.72 62.74 L 144.96 62.11 L 145.20 61.47 L 145.43 60.82 L 145.67 60.14 L 145.91 59.44 L 146.14 58.73 L 146.38 57.99 L 146.62 57.23 L 146.85 56.45 L 147.09 55.64 L 147.33 54.80 L 147.56 53.94 L 147.80 53.04 L 148.04 52.12 L 148.28 51.16 L 148.51 50.16 L 148.75 49.13 L 148.99 48.05 L 149.22 46.94 L 149.46 45.78 L 149.70 44.57 L 149.93 43.30 L 150.17 41.98 L 150.41 40.60 L 150.64 39.16 L 150.88 37.64 L 151.12 36.05 L 151.35 34.38 L 151.59 32.62 L 151.83 30.76 L 152.07 28.79 L 152.30 26.72 L 152.54 24.51 L 152.78 22.17 L 153.01 19.68 L 153.25 17.01 L 153.49 14.16 L 153.72 11.10 L 153.96 7.81 L 154.20 4.26 L 154.43 0.42 L 154.67 -3.76 L 154.91 -8.32 L 155.14 -13.31 L 155.38 -18.80 L 155.62 -24.88 L 155.85 -31.64 L 156.09 -39.21 L 156.33 -47.75 L 156.57 -57.45" fill="none" stroke="#7E8692" stroke-width="2.3" stroke-linecap="round" stroke-linejoin="round"/>
  <path d="M 163.43 237.45 L 163.67 227.75 L 163.91 219.21 L 164.15 211.64 L 164.38 204.88 L 164.62 198.80 L 164.86 193.31 L 165.09 188.32 L 165.33 183.76 L 165.57 179.58 L 165.80 175.74 L 166.04 172.19 L 166.28 168.90 L 166.51 165.84 L 166.75 162.99 L 166.99 160.32 L 167.22 157.83 L 167.46 155.49 L 167.70 153.28 L 167.93 151.21 L 168.17 149.24 L 168.41 147.38 L 168.65 145.62 L 168.88 143.95 L 169.12 142.36 L 169.36 140.84 L 169.59 139.40 L 169.83 138.02 L 170.07 136.70 L 170.30 135.43 L 170.54 134.22 L 170.78 133.06 L 171.01 131.95 L 171.25 130.87 L 171.49 129.84 L 171.72 128.84 L 171.96 127.88 L 172.20 126.96 L 172.44 126.06 L 172.67 125.20 L 172.91 124.36 L 173.15 123.55 L 173.38 122.77 L 173.62 122.01 L 173.86 121.27 L 174.09 120.56 L 174.33 119.86 L 174.57 119.18 L 174.80 118.53 L 175.04 117.89 L 175.28 117.26 L 175.51 116.66 L 175.75 116.06 L 175.99 115.49 L 176.23 114.93 L 176.46 114.38 L 176.70 113.84 L 176.94 113.31 L 177.17 112.80 L 177.41 112.30 L 177.65 111.81 L 177.88 111.33 L 178.12 110.86 L 178.36 110.40 L 178.59 109.95 L 178.83 109.51 L 179.07 109.08 L 179.30 108.65 L 179.54 108.23 L 179.78 107.82 L 180.02 107.42 L 180.25 107.03 L 180.49 106.64 L 180.73 106.26 L 180.96 105.88 L 181.20 105.51 L 181.44 105.15 L 181.67 104.80 L 181.91 104.44 L 182.15 104.10 L 182.38 103.76 L 182.62 103.42 L 182.86 103.09 L 183.09 102.77 L 183.33 102.45 L 183.57 102.13 L 183.80 101.82 L 184.04 101.51 L 184.28 101.21 L 184.52 100.91 L 184.75 100.61 L 184.99 100.32 L 185.23 100.03 L 185.46 99.75 L 185.70 99.47 L 185.94 99.19 L 186.17 98.91 L 186.41 98.64 L 186.65 98.37 L 186.88 98.11 L 187.12 97.85 L 187.36 97.59 L 187.59 97.33 L 187.83 97.08 L 188.07 96.83 L 188.31 96.58 L 188.54 96.33 L 188.78 96.09 L 189.02 95.85 L 189.25 95.61 L 189.49 95.37 L 189.73 95.14 L 189.96 94.91 L 190.20 94.68 L 190.44 94.45 L 190.67 94.22 L 190.91 94.00 L 191.15 93.78 L 191.38 93.56 L 191.62 93.34 L 191.86 93.12 L 192.10 92.91 L 192.33 92.70 L 192.57 92.48 L 192.81 92.28 L 193.04 92.07 L 193.28 91.86 L 193.52 91.66 L 193.75 91.45 L 193.99 91.25 L 194.23 91.05 L 194.46 90.85 L 194.70 90.66 L 194.94 90.46 L 195.17 90.27 L 195.41 90.07 L 195.65 89.88 L 195.88 89.69 L 196.12 89.50 L 196.36 89.31 L 196.60 89.12 L 196.83 88.94 L 197.07 88.75 L 197.31 88.57 L 197.54 88.39 L 197.78 88.21 L 198.02 88.03 L 198.25 87.85 L 198.49 87.67 L 198.73 87.49 L 198.96 87.31 L 199.20 87.14 L 199.44 86.96 L 199.67 86.79 L 199.91 86.62 L 200.15 86.45 L 200.39 86.28 L 200.62 86.11 L 200.86 85.94 L 201.10 85.77 L 201.33 85.60 L 201.57 85.44 L 201.81 85.27 L 202.04 85.10 L 202.28 84.94 L 202.52 84.78 L 202.75 84.61 L 202.99 84.45 L 203.23 84.29 L 203.46 84.13 L 203.70 83.97 L 203.94 83.81 L 204.18 83.65 L 204.41 83.50 L 204.65 83.34 L 204.89 83.18 L 205.12 83.03 L 205.36 82.87 L 205.60 82.72 L 205.83 82.56 L 206.07 82.41 L 206.31 82.26 L 206.54 82.10 L 206.78 81.95 L 207.02 81.80 L 207.25 81.65 L 207.49 81.50 L 207.73 81.35 L 207.96 81.20 L 208.20 81.05 L 208.44 80.91 L 208.68 80.76 L 208.91 80.61 L 209.15 80.46 L 209.39 80.32 L 209.62 80.17 L 209.86 80.03 L 210.10 79.88 L 210.33 79.74 L 210.57 79.60 L 210.81 79.45 L 211.04 79.31 L 211.28 79.17 L 211.52 79.03 L 211.75 78.88 L 211.99 78.74 L 212.23 78.60 L 212.47 78.46 L 212.70 78.32 L 212.94 78.18 L 213.18 78.04 L 213.41 77.90 L 213.65 77.77 L 213.89 77.63 L 214.12 77.49 L 214.36 77.35 L 214.60 77.22 L 214.83 77.08 L 215.07 76.94 L 215.31 76.81 L 215.54 76.67 L 215.78 76.54 L 216.02 76.40 L 216.26 76.27 L 216.49 76.13 L 216.73 76.00 L 216.97 75.87 L 217.20 75.73 L 217.44 75.60 L 217.68 75.47 L 217.91 75.34 L 218.15 75.20 L 218.39 75.07 L 218.62 74.94 L 218.86 74.81 L 219.10 74.68 L 219.33 74.55 L 219.57 74.42 L 219.81 74.29 L 220.05 74.16 L 220.28 74.03 L 220.52 73.90 L 220.76 73.77 L 220.99 73.64 L 221.23 73.51 L 221.47 73.38 L 221.70 73.26 L 221.94 73.13 L 222.18 73.00 L 222.41 72.87 L 222.65 72.75 L 222.89 72.62 L 223.12 72.49 L 223.36 72.37 L 223.60 72.24 L 223.83 72.11 L 224.07 71.99 L 224.31 71.86 L 224.55 71.74 L 224.78 71.61 L 225.02 71.49 L 225.26 71.36 L 225.49 71.24 L 225.73 71.12 L 225.97 70.99 L 226.20 70.87 L 226.44 70.74 L 226.68 70.62 L 226.91 70.50 L 227.15 70.37 L 227.39 70.25 L 227.62 70.13 L 227.86 70.01 L 228.10 69.88 L 228.34 69.76 L 228.57 69.64 L 228.81 69.52 L 229.05 69.40 L 229.28 69.28 L 229.52 69.15 L 229.76 69.03 L 229.99 68.91 L 230.23 68.79 L 230.47 68.67 L 230.70 68.55 L 230.94 68.43 L 231.18 68.31 L 231.41 68.19 L 231.65 68.07 L 231.89 67.95 L 232.13 67.83 L 232.36 67.71 L 232.60 67.59 L 232.84 67.47 L 233.07 67.36 L 233.31 67.24 L 233.55 67.12 L 233.78 67.00 L 234.02 66.88 L 234.26 66.76 L 234.49 66.65 L 234.73 66.53 L 234.97 66.41 L 235.20 66.29 L 235.44 66.17 L 235.68 66.06 L 235.91 65.94 L 236.15 65.82 L 236.39 65.71 L 236.63 65.59 L 236.86 65.47 L 237.10 65.36 L 237.34 65.24 L 237.57 65.12 L 237.81 65.01 L 238.05 64.89 L 238.28 64.78 L 238.52 64.66 L 238.76 64.54 L 238.99 64.43 L 239.23 64.31 L 239.47 64.20 L 239.70 64.08 L 239.94 63.97 L 240.18 63.85 L 240.42 63.74 L 240.65 63.62 L 240.89 63.51 L 241.13 63.39 L 241.36 63.28 L 241.60 63.17 L 241.84 63.05 L 242.07 62.94 L 242.31 62.82 L 242.55 62.71 L 242.78 62.60 L 243.02 62.48 L 243.26 62.37 L 243.49 62.25 L 243.73 62.14 L 243.97 62.03 L 244.21 61.91 L 244.44 61.80 L 244.68 61.69 L 244.92 61.58 L 245.15 61.46 L 245.39 61.35 L 245.63 61.24 L 245.86 61.12 L 246.10 61.01 L 246.34 60.90 L 246.57 60.79 L 246.81 60.68 L 247.05 60.56 L 247.28 60.45 L 247.52 60.34 L 247.76 60.23 L 247.99 60.12 L 248.23 60.00 L 248.47 59.89 L 248.71 59.78 L 248.94 59.67 L 249.18 59.56 L 249.42 59.45 L 249.65 59.34 L 249.89 59.22 L 250.13 59.11 L 250.36 59.00 L 250.60 58.89 L 250.84 58.78 L 251.07 58.67 L 251.31 58.56 L 251.55 58.45 L 251.78 58.34 L 252.02 58.23 L 252.26 58.12 L 252.50 58.01 L 252.73 57.90 L 252.97 57.79 L 253.21 57.68 L 253.44 57.57 L 253.68 57.46 L 253.92 57.35 L 254.15 57.24 L 254.39 57.13 L 254.63 57.02 L 254.86 56.91 L 255.10 56.80 L 255.34 56.69 L 255.57 56.58 L 255.81 56.47 L 256.05 56.36 L 256.29 56.25 L 256.52 56.14 L 256.76 56.03 L 257.00 55.93 L 257.23 55.82 L 257.47 55.71 L 257.71 55.60 L 257.94 55.49 L 258.18 55.38 L 258.42 55.27 L 258.65 55.16 L 258.89 55.06 L 259.13 54.95 L 259.36 54.84 L 259.60 54.73 L 259.84 54.62 L 260.08 54.51 L 260.31 54.41 L 260.55 54.30 L 260.79 54.19 L 261.02 54.08 L 261.26 53.97 L 261.50 53.87 L 261.73 53.76 L 261.97 53.65 L 262.21 53.54 L 262.44 53.44 L 262.68 53.33 L 262.92 53.22 L 263.15 53.11 L 263.39 53.01 L 263.63 52.90 L 263.86 52.79 L 264.10 52.68 L 264.34 52.58 L 264.58 52.47 L 264.81 52.36 L 265.05 52.25 L 265.29 52.15 L 265.52 52.04 L 265.76 51.93 L 266.00 51.83 L 266.23 51.72 L 266.47 51.61 L 266.71 51.51 L 266.94 51.40 L 267.18 51.29 L 267.42 51.19 L 267.65 51.08 L 267.89 50.97 L 268.13 50.87 L 268.37 50.76 L 268.60 50.65 L 268.84 50.55 L 269.08 50.44 L 269.31 50.34 L 269.55 50.23 L 269.79 50.12 L 270.02 50.02 L 270.26 49.91 L 270.50 49.81 L 270.73 49.70 L 270.97 49.59 L 271.21 49.49 L 271.44 49.38 L 271.68 49.28 L 271.92 49.17 L 272.16 49.06 L 272.39 48.96 L 272.63 48.85 L 272.87 48.75 L 273.10 48.64 L 273.34 48.54 L 273.58 48.43 L 273.81 48.33 L 274.05 48.22 L 274.29 48.11 L 274.52 48.01 L 274.76 47.90 L 275.00 47.80 L 275.23 47.69 L 275.47 47.59 L 275.71 47.48 L 275.94 47.38 L 276.18 47.27 L 276.42 47.17 L 276.66 47.06 L 276.89 46.96 L 277.13 46.85 L 277.37 46.75 L 277.60 46.64 L 277.84 46.54 L 278.08 46.43 L 278.31 46.33 L 278.55 46.22 L 278.79 46.12 L 279.02 46.01 L 279.26 45.91 L 279.50 45.81 L 279.73 45.70 L 279.97 45.60 L 280.21 45.49 L 280.45 45.39 L 280.68 45.28 L 280.92 45.18 L 281.16 45.07 L 281.39 44.97 L 281.63 44.87 L 281.87 44.76 L 282.10 44.66 L 282.34 44.55 L 282.58 44.45 L 282.81 44.34 L 283.05 44.24 L 283.29 44.14 L 283.52 44.03 L 283.76 43.93 L 284.00 43.82 L 284.24 43.72 L 284.47 43.62 L 284.71 43.51 L 284.95 43.41 L 285.18 43.31 L 285.42 43.20 L 285.66 43.10 L 285.89 42.99 L 286.13 42.89 L 286.37 42.79 L 286.60 42.68 L 286.84 42.58 L 287.08 42.48 L 287.31 42.37 L 287.55 42.27 L 287.79 42.17 L 288.03 42.06 L 288.26 41.96 L 288.50 41.85 L 288.74 41.75 L 288.97 41.65 L 289.21 41.54 L 289.45 41.44 L 289.68 41.34 L 289.92 41.23 L 290.16 41.13 L 290.39 41.03 L 290.63 40.93 L 290.87 40.82 L 291.10 40.72 L 291.34 40.62 L 291.58 40.51 L 291.81 40.41 L 292.05 40.31 L 292.29 40.20 L 292.53 40.10 L 292.76 40.00 L 293.00 39.89 L 293.24 39.79 L 293.47 39.69 L 293.71 39.59 L 293.95 39.48 L 294.18 39.38 L 294.42 39.28 L 294.66 39.17 L 294.89 39.07 L 295.13 38.97 L 295.37 38.87 L 295.60 38.76 L 295.84 38.66 L 296.08 38.56 L 296.32 38.46 L 296.55 38.35 L 296.79 38.25 L 297.03 38.15 L 297.26 38.05 L 297.50 37.94 L 297.74 37.84 L 297.97 37.74 L 298.21 37.64 L 298.45 37.53 L 298.68 37.43 L 298.92 37.33 L 299.16 37.23 L 299.39 37.12 L 299.63 37.02 L 299.87 36.92 L 300.11 36.82 L 300.34 36.72 L 300.58 36.61 L 300.82 36.51 L 301.05 36.41 L 301.29 36.31 L 301.53 36.20 L 301.76 36.10 L 302.00 36.00" fill="none" stroke="#7E8692" stroke-width="2.3" stroke-linecap="round" stroke-linejoin="round"/>
</svg>
