<svg xmlns="http://www.w3.org/2000/svg" viewBox="0 0 320 180" width="320" height="180">
  <rect width="320" height="180" fill="#F4F5F7"/>
  <path d="M 18.00 162.00 L 18.32 161.84 L 18.63 161.68 L 18.95 161.52 L 19.26 161.36 L 19.58 161.20 L 19.90 161.04 L 20.21 160.88 L 20.53 160.72 L 20.84 160.56 L 21.16 160.40 L 21.47 160.24 L 21.79 160.08 L 22.11 159.92 L 22.42 159.76 L 22.74 159.60 L 23.05 159.44 L 23.37 159.28 L 23.69 159.12 L 24.00 158.96 L 24.32 158.80 L 24.63 158.64 L 24.95 158.48 L 25.27 158.32 L 25.58 158.16 L 25.90 158.00 L 26.21 157.84 L 26.53 157.68 L 26.85 157.52 L 27.16 157.35 L 27.48 157.19 L 27.79 157.03 L 28.11 156.87 L 28.42 156.71 L 28.74 156.55 L 29.06 156.39 L 29.37 156.23 L 29.69 156.07 L 30.00 155.91 L 30.32 155.75 L 30.64 155.59 L 30.95 155.43 L 31.27 155.27 L 31.58 155.11 L 31.90 154.95 L 32.22 154.79 L 32.53 154.63 L 32.85 154.47 L 33.16 154.31 L 33.48 154.15 L 33.80 153.99 L 34.11 153.83 L 34.43 153.67 L 34.74 153.51 L 35.06 153.35 L 35.37 153.19 L 35.69 153.03 L 36.01 152.87 L 36.32 152.71 L 36.64 152.55 L 36.95 152.39 L 37.27 152.23 L 37.59 152.07 L 37.90 151.91 L 38.22 151.75 L 38.53 151.59 L 38.85 151.43 L 39.17 151.27 L 39.48 151.11 L 39.80 150.95 L 40.11 150.79 L 40.43 150.63 L 40.75 150.47 L 41.06 150.31 L 41.38 150.15 L 41.69 149.99 L 42.01 149.83 L 42.32 149.67 L 42.64 149.51 L 42.96 149.35 L 43.27 149.19 L 43.59 149.03 L 43.90 148.87 L 44.22 148.71 L 44.54 148.55 L 44.85 148.38 L 45.17 148.22 L 45.48 148.06 L 45.80 147.90 L 46.12 147.74 L 46.43 147.58 L 46.75 147.42 L 47.06 147.26 L 47.38 147.10 L 47.70 146.94 L 48.01 146.78 L 48.33 146.62 L 48.64 146.46 L 48.96 146.30 L 49.27 146.14 L 49.59 145.98 L 49.91 145.82 L 50.22 145.66 L 50.54 145.50 L 50.85 145.34 L 51.17 145.18 L 51.49 145.02 L 51.80 144.86 L 52.12 144.70 L 52.43 144.54 L 52.75 144.38 L 53.07 144.22 L 53.38 144.06 L 53.70 143.90 L 54.01 143.74 L 54.33 143.58 L 54.65 143.42 L 54.96 143.26 L 55.28 143.10 L 55.59 142.94 L 55.91 142.78 L 56.22 142.62 L 56.54 142.46 L 56.86 142.30 L 57.17 142.14 L 57.49 141.98 L 57.80 141.82 L 58.12 141.66 L 58.44 141.50 L 58.75 141.34 L 59.07 141.18 L 59.38 141.02 L 59.70 140.86 L 60.02 140.70 L 60.33 140.54 L 60.65 140.38 L 60.96 140.22 L 61.28 140.06 L 61.60 139.90 L 61.91 139.74 L 62.23 139.58 L 62.54 139.41 L 62.86 139.25 L 63.17 139.09 L 63.49 138.93 L 63.81 138.77 L 64.12 138.61 L 64.44 138.45 L 64.75 138.29 L 65.07 138.13 L 65.39 137.97 L 65.70 137.81 L 66.02 137.65 L 66.33 137.49 L 66.65 137.33 L 66.97 137.17 L 67.28 137.01 L 67.60 136.85 L 67.91 136.69 L 68.23 136.53 L 68.55 136.37 L 68.86 136.21 L 69.18 136.05 L 69.49 135.89 L 69.81 135.73 L 70.12 135.57 L 70.44 135.41 L 70.76 135.25 L 71.07 135.09 L 71.39 134.93 L 71.70 134.77 L 72.02 134.61 L 72.34 134.45 L 72.65 134.29 L 72.97 134.13 L 73.28 133.97 L 73.60 133.81 L 73.92 133.65 L 74.23 133.49 L 74.55 133.33 L 74.86 133.17 L 75.18 133.01 L 75.49 132.85 L 75.81 132.69 L 76.13 132.53 L 76.44 132.37 L 76.76 132.21 L 77.07 132.05 L 77.39 131.89 L 77.71 131.73 L 78.02 131.57 L 78.34 131.41 L 78.65 131.25 L 78.97 131.09 L 79.29 130.93 L 79.60 130.77 L 79.92 130.61 L 80.23 130.44 L 80.55 130.28 L 80.87 130.12 L 81.18 129.96 L 81.50 129.80 L 81.81 129.64 L 82.13 129.48 L 82.44 129.32 L 82.76 129.16 L 83.08 129.00 L 83.39 128.84 L 83.71 128.68 L 84.02 128.52 L 84.34 128.36 L 84.66 128.20 L 84.97 128.04 L 85.29 127.88 L 85.60 127.72 L 85.92 127.56 L 86.24 127.40 L 86.55 127.24 L 86.87 127.08 L 87.18 126.92 L 87.50 126.76 L 87.82 126.60 L 88.13 126.44 L 88.45 126.28 L 88.76 126.12 L 89.08 125.96 L 89.39 125.80 L 89.71 125.64 L 90.03 125.48 L 90.34 125.32 L 90.66 125.16 L 90.97 125.00 L 91.29 124.84 L 91.61 124.68 L 91.92 124.52 L 92.24 124.36 L 92.55 124.20 L 92.87 124.04 L 93.19 123.88 L 93.50 123.72 L 93.82 123.56 L 94.13 123.40 L 94.45 123.24 L 94.77 123.08 L 95.08 122.92 L 95.40 122.76 L 95.71 122.60 L 96.03 122.44 L 96.34 122.28 L 96.66 122.12 L 96.98 121.96 L 97.29 121.80 L 97.61 121.64 L 97.92 121.47 L 98.24 121.31 L 98.56 121.15 L 98.87 120.99 L 99.19 120.83 L 99.50 120.67 L 99.82 120.51 L 100.14 120.35 L 100.45 120.19 L 100.77 120.03 L 101.08 119.87 L 101.40 119.71 L 101.72 119.55 L 102.03 119.39 L 102.35 119.23 L 102.66 119.07 L 102.98 118.91 L 103.29 118.75 L 103.61 118.59 L 103.93 118.43 L 104.24 118.27 L 104.56 118.11 L 104.87 117.95 L 105.19 117.79 L 105.51 117.63 L 105.82 117.47 L 106.14 117.31 L 106.45 117.15 L 106.77 116.99 L 107.09 116.83 L 107.40 116.67 L 107.72 116.51 L 108.03 116.35 L 108.35 116.19 L 108.67 116.03 L 108.98 115.87 L 109.30 115.71 L 109.61 115.55 L 109.93 115.39 L 110.24 115.23 L 110.56 115.07 L 110.88 114.91 L 111.19 114.75 L 111.51 114.59 L 111.82 114.43 L 112.14 114.27 L 112.46 114.11 L 112.77 113.95 L 113.09 113.79 L 113.40 113.63 L 113.72 113.47 L 114.04 113.31 L 114.35 113.15 L 114.67 112.99 L 114.98 112.83 L 115.30 112.67 L 115.62 112.51 L 115.93 112.34 L 116.25 112.18 L 116.56 112.02 L 116.88 111.86 L 117.19 111.70 L 117.51 111.54 L 117.83 111.38 L 118.14 111.22 L 118.46 111.06 L 118.77 110.90 L 119.09 110.74 L 119.41 110.58 L 119.72 110.42 L 120.04 110.26 L 120.35 110.10 L 120.67 109.94 L 120.99 109.78 L 121.30 109.62 L 121.62 109.46 L 121.93 109.30 L 122.25 109.14 L 122.57 108.98 L 122.88 108.82 L 123.20 108.66 L 123.51 108.50 L 123.83 108.34 L 124.14 108.18 L 124.46 108.02 L 124.78 107.86 L 125.09 107.70 L 125.41 107.54 L 125.72 107.38 L 126.04 107.22 L 126.36 107.06 L 126.67 106.90 L 126.99 106.74 L 127.30 106.58 L 127.62 106.42 L 127.94 106.26 L 128.25 106.10 L 128.57 105.94 L 128.88 105.78 L 129.20 105.62 L 129.52 105.46 L 129.83 105.30 L 130.15 105.14 L 130.46 104.98 L 130.78 104.82 L 131.09 104.66 L 131.41 104.50 L 131.73 104.34 L 132.04 104.18 L 132.36 104.02 L 132.67 103.86 L 132.99 103.70 L 133.31 103.54 L 133.62 103.37 L 133.94 103.21 L 134.25 103.05 L 134.57 102.89 L 134.89 102.73 L 135.20 102.57 L 135.52 102.41 L 135.83 102.25 L 136.15 102.09 L 136.46 101.93 L 136.78 101.77 L 137.10 101.61 L 137.41 101.45 L 137.73 101.29 L 138.04 101.13 L 138.36 100.97 L 138.68 100.81 L 138.99 100.65 L 139.31 100.49 L 139.62 100.33 L 139.94 100.17 L 140.26 100.01 L 140.57 99.85 L 140.89 99.69 L 141.20 99.53 L 141.52 99.37 L 141.84 99.21 L 142.15 99.05 L 142.47 98.89 L 142.78 98.73 L 143.10 98.57 L 143.41 98.41 L 143.73 98.25 L 144.05 98.09 L 144.36 97.93 L 144.68 97.77 L 144.99 97.61 L 145.31 97.45 L 145.63 97.29 L 145.94 97.13 L 146.26 96.97 L 146.57 96.81 L 146.89 96.65 L 147.21 96.49 L 147.52 96.33 L 147.84 96.17 L 148.15 96.01 L 148.47 95.85 L 148.79 95.69 L 149.10 95.53 L 149.42 95.37 L 149.73 95.21 L 150.05 95.05 L 150.36 94.89 L 150.68 94.73 L 151.00 94.57 L 151.31 94.40 L 151.63 94.24 L 151.94 94.08 L 152.26 93.92 L 152.58 93.76 L 152.89 93.60 L 153.21 93.44 L 153.52 93.28 L 153.84 93.12 L 154.16 92.96 L 154.47 92.80 L 154.79 92.64 L 155.10 92.48 L 155.42 92.32 L 155.74 92.16 L 156.05 92.00 L 156.37 91.84 L 156.68 91.68 L 157.00 91.52 L 157.31 91.36 L 157.63 91.20 L 157.95 91.04 L 158.26 90.88 L 158.58 90.72 L 158.89 90.56 L 159.21 90.40 L 159.53 90.24 L 159.84 90.08 L 160.16 89.92 L 160.47 89.76 L 160.79 89.60 L 161.11 89.44 L 161.42 89.28 L 161.74 89.12 L 162.05 88.96 L 162.37 88.80 L 162.69 88.64 L 163.00 88.48 L 163.32 88.32 L 163.63 88.16 L 163.95 88.00 L 164.26 87.84 L 164.58 87.68 L 164.90 87.52 L 165.21 87.36 L 165.53 87.20 L 165.84 87.04 L 166.16 86.88 L 166.48 86.72 L 166.79 86.56 L 167.11 86.40 L 167.42 86.24 L 167.74 86.08 L 168.06 85.92 L 168.37 85.76 L 168.69 85.60 L 169.00 85.43 L 169.32 85.27 L 169.64 85.11 L 169.95 84.95 L 170.27 84.79 L 170.58 84.63 L 170.90 84.47 L 171.21 84.31 L 171.53 84.15 L 171.85 83.99 L 172.16 83.83 L 172.48 83.67 L 172.79 83.51 L 173.11 83.35 L 173.43 83.19 L 173.74 83.03 L 174.06 82.87 L 174.37 82.71 L 174.69 82.55 L 175.01 82.39 L 175.32 82.23 L 175.64 82.07 L 175.95 81.91 L 176.27 81.75 L 176.59 81.59 L 176.90 81.43 L 177.22 81.27 L 177.53 81.11 L 177.85 80.95 L 178.16 80.79 L 178.48 80.63 L 178.80 80.47 L 179.11 80.31 L 179.43 80.15 L 179.74 79.99 L 180.06 79.83 L 180.38 79.67 L 180.69 79.51 L 181.01 79.35 L 181.32 79.19 L 181.64 79.03 L 181.96 78.87 L 182.27 78.71 L 182.59 78.55 L 182.90 78.39 L 183.22 78.23 L 183.54 78.07 L 183.85 77.91 L 184.17 77.75 L 184.48 77.59 L 184.80 77.43 L 185.11 77.27 L 185.43 77.11 L 185.75 76.95 L 186.06 76.79 L 186.38 76.63 L 186.69 76.46 L 187.01 76.30 L 187.33 76.14 L 187.64 75.98 L 187.96 75.82 L 188.27 75.66 L 188.59 75.50 L 188.91 75.34 L 189.22 75.18 L 189.54 75.02 L 189.85 74.86 L 190.17 74.70 L 190.48 74.54 L 190.80 74.38 L 191.12 74.22 L 191.43 74.06 L 191.75 73.90 L 192.06 73.74 L 192.38 73.58 L 192.70 73.42 L 193.01 73.26 L 193.33 73.10 L 193.64 72.94 L 193.96 72.78 L 194.28 72.62 L 194.59 72.46 L 194.91 72.30 L 195.22 72.14 L 195.54 71.98 L 195.86 71.82 L 196.17 71.66 L 196.49 71.50 L 196.80 71.34 L 197.12 71.18 L 197.43 71.02 L 197.75 70.86 L 198.07 70.70 L 198.38 70.54 L 198.70 70.38 L 199.01 70.22 L 199.33 70.06 L 199.65 69.90 L 199.96 69.74 L 200.28 69.58 L 200.59 69.42 L 200.91 69.26 L 201.23 69.10 L 201.54 68.94 L 201.86 68.78 L 202.17 68.62 L 202.49 68.46 L 202.81 68.30 L 203.12 68.14 L 203.44 67.98 L 203.75 67.82 L 204.07 67.66 L 204.38 67.49 L 204.70 67.33 L 205.02 67.17 L 205.33 67.01 L 205.65 66.85 L 205.96 66.69 L 206.28 66.53 L 206.60 66.37 L 206.91 66.21 L 207.23 66.05 L 207.54 65.89 L 207.86 65.73 L 208.18 65.57 L 208.49 65.41 L 208.81 65.25 L 209.12 65.09 L 209.44 64.93 L 209.76 64.77 L 210.07 64.61 L 210.39 64.45 L 210.70 64.29 L 211.02 64.13 L 211.33 63.97 L 211.65 63.81 L 211.97 63.65 L 212.28 63.49 L 212.60 63.33 L 212.91 63.17 L 213.23 63.01 L 213.55 62.85 L 213.86 62.69 L 214.18 62.53 L 214.49 62.37 L 214.81 62.21 L 215.13 62.05 L 215.44 61.89 L 215.76 61.73 L 216.07 61.57 L 216.39 61.41 L 216.71 61.25 L 217.02 61.09 L 217.34 60.93 L 217.65 60.77 L 217.97 60.61 L 218.28 60.45 L 218.60 60.29 L 218.92 60.13 L 219.23 59.97 L 219.55 59.81 L 219.86 59.65 L 220.18 59.49 L 220.50 59.33 L 220.81 59.17 L 221.13 59.01 L 221.44 58.85 L 221.76 58.69 L 222.08 58.53 L 222.39 58.36 L 222.71 58.20 L 223.02 58.04 L 223.34 57.88 L 223.66 57.72 L 223.97 57.56 L 224.29 57.40 L 224.60 57.24 L 224.92 57.08 L 225.23 56.92 L 225.55 56.76 L 225.87 56.60 L 226.18 56.44 L 226.50 56.28 L 226.81 56.12 L 227.13 55.96 L 227.45 55.80 L 227.76 55.64 L 228.08 55.48 L 228.39 55.32 L 228.71 55.16 L 229.03 55.00 L 229.34 54.84 L 229.66 54.68 L 229.97 54.52 L 230.29 54.36 L 230.61 54.20 L 230.92 54.04 L 231.24 53.88 L 231.55 53.72 L 231.87 53.56 L 232.18 53.40 L 232.50 53.24 L 232.82 53.08 L 233.13 52.92 L 233.45 52.76 L 233.76 52.60 L 234.08 52.44 L 234.40 52.28 L 234.71 52.12 L 235.03 51.96 L 235.34 51.80 L 235.66 51.64 L 235.98 51.48 L 236.29 51.32 L 236.61 51.16 L 236.92 51.00 L 237.24 50.84 L 237.56 50.68 L 237.87 50.52 L 238.19 50.36 L 238.50 50.20 L 238.82 50.04 L 239.13 49.88 L 239.45 49.72 L 239.77 49.56 L 240.08 49.39 L 240.40 49.23 L 240.71 49.07 L 241.03 48.91 L 241.35 48.75 L 241.66 48.59 L 241.98 48.43 L 242.29 48.27 L 242.61 48.11 L 242.93 47.95 L 243.24 47.79 L 243.56 47.63 L 243.87 47.47 L 244.19 47.31 L 244.51 47.15 L 244.82 46.99 L 245.14 46.83 L 245.45 46.67 L 245.77 46.51 L 246.08 46.35 L 246.40 46.19 L 246.72 46.03 L 247.03 45.87 L 247.35 45.71 L 247.66 45.55 L 247.98 45.39 L 248.30 45.23 L 248.61 45.07 L 248.93 44.91 L 249.24 44.75 L 249.56 44.59 L 249.88 44.43 L 250.19 44.27 L 250.51 44.11 L 250.82 43.95 L 251.14 43.79 L 251.45 43.63 L 251.77 43.47 L 252.09 43.31 L 252.40 43.15 L 252.72 42.99 L 253.03 42.83 L 253.35 42.67 L 253.67 42.51 L 253.98 42.35 L 254.30 42.19 L 254.61 42.03 L 254.93 41.87 L 255.25 41.71 L 255.56 41.55 L 255.88 41.39 L 256.19 41.23 L 256.51 41.07 L 256.83 40.91 L 257.14 40.75 L 257.46 40.59 L 257.77 40.42 L 258.09 40.26 L 258.40 40.10 L 258.72 39.94 L 259.04 39.78 L 259.35 39.62 L 259.67 39.46 L 259.98 39.30 L 260.30 39.14 L 260.62 38.98 L 260.93 38.82 L 261.25 38.66 L 261.56 38.50 L 261.88 38.34 L 262.20 38.18 L 262.51 38.02 L 262.83 37.86 L 263.14 37.70 L 263.46 37.54 L 263.78 37.38 L 264.09 37.22 L 264.41 37.06 L 264.72 36.90 L 265.04 36.74 L 265.35 36.58 L 265.67 36.42 L 265.99 36.26 L 266.30 36.10 L 266.62 35.94 L 266.93 35.78 L 267.25 35.62 L 267.57 35.46 L 267.88 35.30 L 268.20 35.14 L 268.51 34.98 L 268.83 34.82 L 269.15 34.66 L 269.46 34.50 L 269.78 34.34 L 270.09 34.18 L 270.41 34.02 L 270.73 33.86 L 271.04 33.70 L 271.36 33.54 L 271.67 33.38 L 271.99 33.22 L 272.30 33.06 L 272.62 32.90 L 272.94 32.74 L 273.25 32.58 L 273.57 32.42 L 273.88 32.26 L 274.20 32.10 L 274.52 31.94 L 274.83 31.78 L 275.15 31.62 L 275.46 31.45 L 275.78 31.29 L 276.10 31.13 L 276.41 30.97 L 276.73 30.81 L 277.04 30.65 L 277.36 30.49 L 277.68 30.33 L 277.99 30.17 L 278.31 30.01 L 278.62 29.85 L 278.94 29.69 L 279.25 29.53 L 279.57 29.37 L 279.89 29.21 L 280.20 29.05 L 280.52 28.89 L 280.83 28.73 L 281.15 28.57 L 281.47 28.41 L 281.78 28.25 L 282.10 28.09 L 282.41 27.93 L 282.73 27.77 L 283.05 27.61 L 283.36 27.45 L 283.68 27.29 L 283.99 27.13 L 284.31 26.97 L 284.63 26.81 L 284.94 26.65 L 285.26 26.49 L 285.57 26.33 L 285.89 26.17 L 286.20 26.01 L 286.52 25.85 L 286.84 25.69 L 287.15 25.53 L 287.47 25.37 L 287.78 25.21 L 288.10 25.05 L 288.42 24.89 L 288.73 24.73 L 289.05 24.57 L 289.36 24.41 L 289.68 24.25 L 290.00 24.09 L 290.31 23.93 L 290.63 23.77 L 290.94 23.61 L 291.26 23.45 L 291.58 23.29 L 291.89 23.13 L 292.21 22.97 L 292.52 22.81 L 292.84 22.65 L 293.15 22.48 L 293.47 22.32 L 293.79 22.16 L 294.10 22.00 L 294.42 21.84 L 294.73 21.68 L 295.05 21.52 L 295.37 21.36 L 295.68 21.20 L 296.00 21.04 L 296.31 20.88 L 296.63 20.72 L 296.95 20.56 L 297.26 20.40 L 297.58 20.24 L 297.89 20.08 L 298.21 19.92 L 298.53 19.76 L 298.84 19.60 L 299.16 19.44 L 299.47 19.28 L 299.79 19.12 L 300.10 18.96 L 300.42 18.80 L 300.74 18.64 L 301.05 18.48 L 301.37 18.32 L 301.68 18.16 L 302.00 18.00" fill="none" stroke="#7E8692" stroke-width="2.3" stroke-linecap="round" stroke-linejoin="round"/>
</svg>
