<svg xmlns="http://www.w3.org/2000/svg" viewBox="0 0 320 180" width="320" height="180">
  <rect width="320" height="180" fill="#F4F5F7"/>
  <path d="M 24.99 158.00 L 25.11 157.20 L 25.24 156.41 L 25.36 155.64 L 25.48 154.88 L 25.61 154.12 L 25.73 153.38 L 25.86 152.65 L 25.98 151.93 L 26.10 151.22 L 26.23 150.51 L 26.35 149.82 L 26.47 149.14 L 26.60 148.46 L 26.72 147.79 L 26.84 147.13 L 26.97 146.48 L 27.09 145.84 L 27.22 145.20 L 27.34 144.57 L 27.46 143.95 L 27.59 143.34 L 27.71 142.73 L 27.83 142.13 L 27.96 141.54 L 28.08 140.95 L 28.21 140.37 L 28.33 139.80 L 28.45 139.23 L 28.58 138.67 L 28.70 138.11 L 28.82 137.56 L 28.95 137.02 L 29.07 136.48 L 29.20 135.94 L 29.32 135.41 L 29.44 134.89 L 29.57 134.37 L 29.69 133.86 L 29.81 133.35 L 29.94 132.85 L 30.06 132.35 L 30.18 131.86 L 30.31 131.37 L 30.43 130.88 L 30.56 130.40 L 30.68 129.93 L 30.80 129.45 L 30.93 128.99 L 31.05 128.52 L 31.17 128.06 L 31.30 127.61 L 31.42 127.16 L 31.55 126.71 L 31.67 126.27 L 31.79 125.83 L 31.92 125.39 L 32.04 124.96 L 32.16 124.53 L 32.29 124.10 L 32.41 123.68 L 32.53 123.26 L 32.66 122.84 L 32.78 122.43 L 32.91 122.02 L 33.03 121.62 L 33.15 121.21 L 33.28 120.81 L 33.40 120.42 L 33.52 120.02 L 33.65 119.63 L 33.77 119.24 L 33.90 118.86 L 34.02 118.48 L 34.14 118.10 L 34.27 117.72 L 34.39 117.35 L 34.51 116.98 L 34.64 116.61 L 34.76 116.24 L 34.88 115.88 L 35.01 115.52 L 35.13 115.16 L 35.26 114.80 L 35.38 114.45 L 35.50 114.10 L 35.63 113.75 L 35.75 113.40 L 35.87 113.06 L 36.00 112.72 L 36.12 112.38 L 36.25 112.04 L 36.37 111.70 L 36.49 111.37 L 36.62 111.04 L 36.74 110.71 L 36.86 110.38 L 36.99 110.06 L 37.11 109.74 L 37.24 109.42 L 37.36 109.10 L 37.48 108.78 L 37.61 108.47 L 37.73 108.15 L 37.85 107.84 L 37.98 107.53 L 38.10 107.23 L 38.22 106.92 L 38.35 106.62 L 38.47 106.32 L 38.60 106.02 L 38.72 105.72 L 38.84 105.42 L 38.97 105.13 L 39.09 104.83 L 39.21 104.54 L 39.34 104.25 L 39.46 103.96 L 39.59 103.68 L 39.71 103.39 L 39.83 103.11 L 39.96 102.83 L 40.08 102.55 L 40.20 102.27 L 40.33 101.99 L 40.45 101.72 L 40.57 101.44 L 40.70 101.17 L 40.82 100.90 L 40.95 100.63 L 41.07 100.36 L 41.19 100.10 L 41.32 99.83 L 41.44 99.57 L 41.56 99.30 L 41.69 99.04 L 41.81 98.78 L 41.94 98.52 L 42.06 98.27 L 42.18 98.01 L 42.31 97.76 L 42.43 97.50 L 42.55 97.25 L 42.68 97.00 L 42.80 96.75 L 42.92 96.50 L 43.05 96.26 L 43.17 96.01 L 43.30 95.77 L 43.42 95.52 L 43.54 95.28 L 43.67 95.04 L 43.79 94.80 L 43.91 94.56 L 44.04 94.32 L 44.16 94.09 L 44.29 93.85 L 44.41 93.62 L 44.53 93.39 L 44.66 93.15 L 44.78 92.92 L 44.90 92.69 L 45.03 92.47 L 45.15 92.24 L 45.28 92.01 L 45.40 91.79 L 45.52 91.56 L 45.65 91.34 L 45.77 91.12 L 45.89 90.90 L 46.02 90.67 L 46.14 90.46 L 46.26 90.24 L 46.39 90.02 L 46.51 89.80 L 46.64 89.59 L 46.76 89.37 L 46.88 89.16 L 47.01 88.95 L 47.13 88.74 L 47.25 88.52 L 47.38 88.32 L 47.50 88.11 L 47.63 87.90 L 47.75 87.69 L 47.87 87.48 L 48.00 87.28 L 48.12 87.08 L 48.24 86.87 L 48.37 86.67 L 48.49 86.47 L 48.61 86.27 L 48.74 86.07 L 48.86 85.87 L 48.99 85.67 L 49.11 85.47 L 49.23 85.27 L 49.36 85.08 L 49.48 84.88 L 49.60 84.69 L 49.73 84.49 L 49.85 84.30 L 49.98 84.11 L 50.10 83.92 L 50.22 83.73 L 50.35 83.54 L 50.47 83.35 L 50.59 83.16 L 50.72 82.97 L 50.84 82.79 L 50.96 82.60 L 51.09 82.42 L 51.21 82.23 L 51.34 82.05 L 51.46 81.86 L 51.58 81.68 L 51.71 81.50 L 51.83 81.32 L 51.95 81.14 L 52.08 80.96 L 52.20 80.78 L 52.33 80.60 L 52.45 80.43 L 52.57 80.25 L 52.70 80.07 L 52.82 79.90 L 52.94 79.72 L 53.07 79.55 L 53.19 79.38 L 53.32 79.20 L 53.44 79.03 L 53.56 78.86 L 53.69 78.69 L 53.81 78.52 L 53.93 78.35 L 54.06 78.18 L 54.18 78.01 L 54.30 77.84 L 54.43 77.68 L 54.55 77.51 L 54.68 77.34 L 54.80 77.18 L 54.92 77.01 L 55.05 76.85 L 55.17 76.69 L 55.29 76.52 L 55.42 76.36 L 55.54 76.20 L 55.67 76.04 L 55.79 75.88 L 55.91 75.72 L 56.04 75.56 L 56.16 75.40 L 56.28 75.24 L 56.41 75.08 L 56.53 74.93 L 56.65 74.77 L 56.78 74.62 L 56.90 74.46 L 57.03 74.30 L 57.15 74.15 L 57.27 74.00 L 57.40 73.84 L 57.52 73.69 L 57.64 73.54 L 57.77 73.39 L 57.89 73.24 L 58.02 73.08 L 58.14 72.93 L 58.26 72.79 L 58.39 72.64 L 58.51 72.49 L 58.63 72.34 L 58.76 72.19 L 58.88 72.04 L 59.01 71.90 L 59.13 71.75 L 59.25 71.61 L 59.38 71.46 L 59.50 71.32 L 59.62 71.17 L 59.75 71.03 L 59.87 70.89 L 59.99 70.74 L 60.12 70.60 L 60.24 70.46 L 60.37 70.32 L 60.49 70.18 L 60.61 70.04 L 60.74 69.90 L 60.86 69.76 L 60.98 69.62 L 61.11 69.48 L 61.23 69.34 L 61.36 69.20 L 61.48 69.07 L 61.60 68.93 L 61.73 68.79 L 61.85 68.66 L 61.97 68.52 L 62.10 68.39 L 62.22 68.25 L 62.34 68.12 L 62.47 67.99 L 62.59 67.85 L 62.72 67.72 L 62.84 67.59 L 62.96 67.46 L 63.09 67.32 L 63.21 67.19 L 63.33 67.06 L 63.46 66.93 L 63.58 66.80 L 63.71 66.67 L 63.83 66.54 L 63.95 66.42 L 64.08 66.29 L 64.20 66.16 L 64.32 66.03 L 64.45 65.91 L 64.57 65.78 L 64.69 65.65 L 64.82 65.53 L 64.94 65.40 L 65.07 65.28 L 65.19 65.15 L 65.31 65.03 L 65.44 64.90 L 65.56 64.78 L 65.68 64.66 L 65.81 64.53 L 65.93 64.41 L 66.06 64.29 L 66.18 64.17 L 66.30 64.05 L 66.43 63.93 L 66.55 63.81 L 66.67 63.69 L 66.80 63.57 L 66.92 63.45 L 67.05 63.33 L 67.17 63.21 L 67.29 63.09 L 67.42 62.97 L 67.54 62.85 L 67.66 62.74 L 67.79 62.62 L 67.91 62.50 L 68.03 62.39 L 68.16 62.27 L 68.28 62.16 L 68.41 62.04 L 68.53 61.93 L 68.65 61.81 L 68.78 61.70 L 68.90 61.58 L 69.02 61.47 L 69.15 61.36 L 69.27 61.24 L 69.40 61.13 L 69.52 61.02 L 69.64 60.91 L 69.77 60.80 L 69.89 60.69 L 70.01 60.57 L 70.14 60.46 L 70.26 60.35 L 70.38 60.24 L 70.51 60.13 L 70.63 60.03 L 70.76 59.92 L 70.88 59.81 L 71.00 59.70 L 71.13 59.59 L 71.25 59.48 L 71.37 59.38 L 71.50 59.27 L 71.62 59.16 L 71.75 59.06 L 71.87 58.95 L 71.99 58.85 L 72.12 58.74 L 72.24 58.64 L 72.36 58.53 L 72.49 58.43 L 72.61 58.32 L 72.73 58.22 L 72.86 58.11 L 72.98 58.01 L 73.11 57.91 L 73.23 57.80 L 73.35 57.70 L 73.48 57.60 L 73.60 57.50 L 73.72 57.40 L 73.85 57.30 L 73.97 57.19 L 74.10 57.09 L 74.22 56.99 L 74.34 56.89 L 74.47 56.79 L 74.59 56.69 L 74.71 56.59 L 74.84 56.50 L 74.96 56.40 L 75.09 56.30 L 75.21 56.20 L 75.33 56.10 L 75.46 56.01 L 75.58 55.91 L 75.70 55.81 L 75.83 55.71 L 75.95 55.62 L 76.07 55.52 L 76.20 55.43 L 76.32 55.33 L 76.45 55.23 L 76.57 55.14 L 76.69 55.04 L 76.82 54.95 L 76.94 54.86 L 77.06 54.76 L 77.19 54.67 L 77.31 54.57 L 77.44 54.48 L 77.56 54.39 L 77.68 54.29 L 77.81 54.20 L 77.93 54.11 L 78.05 54.02 L 78.18 53.93 L 78.30 53.83 L 78.42 53.74 L 78.55 53.65 L 78.67 53.56 L 78.80 53.47 L 78.92 53.38 L 79.04 53.29 L 79.17 53.20 L 79.29 53.11 L 79.41 53.02 L 79.54 52.93 L 79.66 52.84 L 79.79 52.76 L 79.91 52.67 L 80.03 52.58 L 80.16 52.49 L 80.28 52.40 L 80.40 52.32 L 80.53 52.23 L 80.65 52.14 L 80.77 52.06 L 80.90 51.97 L 81.02 51.88 L 81.15 51.80 L 81.27 51.71 L 81.39 51.63 L 81.52 51.54 L 81.64 51.46 L 81.76 51.37 L 81.89 51.29 L 82.01 51.20 L 82.14 51.12 L 82.26 51.04 L 82.38 50.95 L 82.51 50.87 L 82.63 50.79 L 82.75 50.70 L 82.88 50.62 L 83.00 50.54 L 83.13 50.46 L 83.25 50.37 L 83.37 50.29 L 83.50 50.21 L 83.62 50.13 L 83.74 50.05 L 83.87 49.97 L 83.99 49.89 L 84.11 49.81 L 84.24 49.73 L 84.36 49.65 L 84.49 49.57 L 84.61 49.49 L 84.73 49.41 L 84.86 49.33 L 84.98 49.25 L 85.10 49.17 L 85.23 49.09 L 85.35 49.01 L 85.48 48.94 L 85.60 48.86 L 85.72 48.78 L 85.85 48.70 L 85.97 48.63 L 86.09 48.55 L 86.22 48.47 L 86.34 48.40 L 86.46 48.32 L 86.59 48.24 L 86.71 48.17 L 86.84 48.09 L 86.96 48.02 L 87.08 47.94 L 87.21 47.87 L 87.33 47.79 L 87.45 47.72 L 87.58 47.64 L 87.70 47.57 L 87.83 47.49 L 87.95 47.42 L 88.07 47.35 L 88.20 47.27 L 88.32 47.20 L 88.44 47.13 L 88.57 47.05 L 88.69 46.98 L 88.81 46.91 L 88.94 46.83 L 89.06 46.76 L 89.19 46.69 L 89.31 46.62 L 89.43 46.55 L 89.56 46.48 L 89.68 46.40 L 89.80 46.33 L 89.93 46.26 L 90.05 46.19 L 90.18 46.12 L 90.30 46.05 L 90.42 45.98 L 90.55 45.91 L 90.67 45.84 L 90.79 45.77 L 90.92 45.70 L 91.04 45.63 L 91.17 45.57 L 91.29 45.50 L 91.41 45.43 L 91.54 45.36 L 91.66 45.29 L 91.78 45.22 L 91.91 45.16 L 92.03 45.09 L 92.15 45.02 L 92.28 44.95 L 92.40 44.89 L 92.53 44.82 L 92.65 44.75 L 92.77 44.69 L 92.90 44.62 L 93.02 44.55 L 93.14 44.49 L 93.27 44.42 L 93.39 44.36 L 93.52 44.29 L 93.64 44.23 L 93.76 44.16 L 93.89 44.10 L 94.01 44.03 L 94.13 43.97 L 94.26 43.90 L 94.38 43.84 L 94.50 43.77 L 94.63 43.71 L 94.75 43.65 L 94.88 43.58 L 95.00 43.52 L 95.12 43.46 L 95.25 43.39 L 95.37 43.33 L 95.49 43.27 L 95.62 43.21 L 95.74 43.14 L 95.87 43.08 L 95.99 43.02 L 96.11 42.96 L 96.24 42.90 L 96.36 42.84 L 96.48 42.77 L 96.61 42.71 L 96.73 42.65 L 96.85 42.59 L 96.98 42.53 L 97.10 42.47 L 97.23 42.41 L 97.35 42.35 L 97.47 42.29 L 97.60 42.23 L 97.72 42.17 L 97.84 42.11 L 97.97 42.05 L 98.09 41.99 L 98.22 41.93 L 98.34 41.88 L 98.46 41.82 L 98.59 41.76 L 98.71 41.70 L 98.83 41.64 L 98.96 41.58 L 99.08 41.53 L 99.21 41.47 L 99.33 41.41 L 99.45 41.35 L 99.58 41.30 L 99.70 41.24 L 99.82 41.18 L 99.95 41.13 L 100.07 41.07 L 100.19 41.01 L 100.32 40.96 L 100.44 40.90 L 100.57 40.85 L 100.69 40.79 L 100.81 40.73 L 100.94 40.68 L 101.06 40.62 L 101.18 40.57 L 101.31 40.51 L 101.43 40.46 L 101.56 40.40 L 101.68 40.35 L 101.80 40.30 L 101.93 40.24 L 102.05 40.19 L 102.17 40.13 L 102.30 40.08 L 102.42 40.03 L 102.54 39.97 L 102.67 39.92 L 102.79 39.87 L 102.92 39.81 L 103.04 39.76 L 103.16 39.71 L 103.29 39.66 L 103.41 39.60 L 103.53 39.55 L 103.66 39.50 L 103.78 39.45 L 103.91 39.39 L 104.03 39.34 L 104.15 39.29 L 104.28 39.24 L 104.40 39.19 L 104.52 39.14 L 104.65 39.09 L 104.77 39.04 L 104.89 38.99 L 105.02 38.94 L 105.14 38.89 L 105.27 38.84 L 105.39 38.79 L 105.51 38.74 L 105.64 38.69 L 105.76 38.64 L 105.88 38.59 L 106.01 38.54 L 106.13 38.49 L 106.26 38.44 L 106.38 38.39 L 106.50 38.34 L 106.63 38.29 L 106.75 38.25 L 106.87 38.20 L 107.00 38.15 L 107.12 38.10 L 107.25 38.05 L 107.37 38.01 L 107.49 37.96 L 107.62 37.91 L 107.74 37.86 L 107.86 37.82 L 107.99 37.77 L 108.11 37.72 L 108.23 37.68 L 108.36 37.63 L 108.48 37.58 L 108.61 37.54 L 108.73 37.49 L 108.85 37.44 L 108.98 37.40 L 109.10 37.35 L 109.22 37.31 L 109.35 37.26 L 109.47 37.22 L 109.60 37.17 L 109.72 37.13 L 109.84 37.08 L 109.97 37.04 L 110.09 36.99 L 110.21 36.95 L 110.34 36.90 L 110.46 36.86 L 110.58 36.81 L 110.71 36.77 L 110.83 36.73 L 110.96 36.68 L 111.08 36.64 L 111.20 36.60 L 111.33 36.55 L 111.45 36.51 L 111.57 36.47 L 111.70 36.42 L 111.82 36.38 L 111.95 36.34 L 112.07 36.30 L 112.19 36.25 L 112.32 36.21 L 112.44 36.17 L 112.56 36.13 L 112.69 36.08 L 112.81 36.04 L 112.93 36.00 L 113.06 35.96 L 113.18 35.92 L 113.31 35.88 L 113.43 35.84 L 113.55 35.80 L 113.68 35.76 L 113.80 35.71 L 113.92 35.67 L 114.05 35.63 L 114.17 35.59 L 114.30 35.55 L 114.42 35.51 L 114.54 35.47 L 114.67 35.43 L 114.79 35.39 L 114.91 35.35 L 115.04 35.31 L 115.16 35.28 L 115.29 35.24 L 115.41 35.20 L 115.53 35.16 L 115.66 35.12 L 115.78 35.08 L 115.90 35.04 L 116.03 35.00 L 116.15 34.97 L 116.27 34.93 L 116.40 34.89 L 116.52 34.85 L 116.65 34.81 L 116.77 34.78 L 116.89 34.74 L 117.02 34.70 L 117.14 34.67 L 117.26 34.63 L 117.39 34.59 L 117.51 34.55 L 117.64 34.52 L 117.76 34.48 L 117.88 34.44 L 118.01 34.41 L 118.13 34.37 L 118.25 34.34 L 118.38 34.30 L 118.50 34.26 L 118.62 34.23 L 118.75 34.19 L 118.87 34.16 L 119.00 34.12 L 119.12 34.09 L 119.24 34.05 L 119.37 34.02 L 119.49 33.98 L 119.61 33.95 L 119.74 33.91 L 119.86 33.88 L 119.99 33.84 L 120.11 33.81 L 120.23 33.77 L 120.36 33.74 L 120.48 33.71 L 120.60 33.67 L 120.73 33.64 L 120.85 33.61 L 120.97 33.57 L 121.10 33.54 L 121.22 33.51 L 121.35 33.47 L 121.47 33.44 L 121.59 33.41 L 121.72 33.37 L 121.84 33.34 L 121.96 33.31 L 122.09 33.28 L 122.21 33.24 L 122.34 33.21 L 122.46 33.18 L 122.58 33.15 L 122.71 33.12 L 122.83 33.09 L 122.95 33.05 L 123.08 33.02 L 123.20 32.99 L 123.33 32.96 L 123.45 32.93 L 123.57 32.90 L 123.70 32.87 L 123.82 32.84 L 123.94 32.81 L 124.07 32.78 L 124.19 32.75 L 124.31 32.72 L 124.44 32.68 L 124.56 32.65 L 124.69 32.62 L 124.81 32.60 L 124.93 32.57 L 125.06 32.54 L 125.18 32.51 L 125.30 32.48 L 125.43 32.45 L 125.55 32.42 L 125.68 32.39 L 125.80 32.36 L 125.92 32.33 L 126.05 32.30 L 126.17 32.28 L 126.29 32.25 L 126.42 32.22 L 126.54 32.19 L 126.66 32.16 L 126.79 32.13 L 126.91 32.11 L 127.04 32.08 L 127.16 32.05 L 127.28 32.02 L 127.41 32.00 L 127.53 31.97 L 127.65 31.94 L 127.78 31.92 L 127.90 31.89 L 128.03 31.86 L 128.15 31.83 L 128.27 31.81 L 128.40 31.78 L 128.52 31.76 L 128.64 31.73 L 128.77 31.70 L 128.89 31.68 L 129.02 31.65 L 129.14 31.63 L 129.26 31.60 L 129.39 31.57 L 129.51 31.55 L 129.63 31.52 L 129.76 31.50 L 129.88 31.47 L 130.00 31.45 L 130.13 31.42 L 130.25 31.40 L 130.38 31.37 L 130.50 31.35 L 130.62 31.32 L 130.75 31.30 L 130.87 31.28 L 130.99 31.25 L 131.12 31.23 L 131.24 31.20 L 131.37 31.18 L 131.49 31.16 L 131.61 31.13 L 131.74 31.11 L 131.86 31.09 L 131.98 31.06 L 132.11 31.04 L 132.23 31.02 L 132.35 30.99 L 132.48 30.97 L 132.60 30.95 L 132.73 30.92 L 132.85 30.90 L 132.97 30.88 L 133.10 30.86 L 133.22 30.84 L 133.34 30.81 L 133.47 30.79 L 133.59 30.77 L 133.72 30.75 L 133.84 30.73 L 133.96 30.70 L 134.09 30.68 L 134.21 30.66 L 134.33 30.64 L 134.46 30.62 L 134.58 30.60 L 134.70 30.58 L 134.83 30.56 L 134.95 30.54 L 135.08 30.52 L 135.20 30.50 L 135.32 30.48 L 135.45 30.45 L 135.57 30.43 L 135.69 30.41 L 135.82 30.39 L 135.94 30.38 L 136.07 30.36 L 136.19 30.34 L 136.31 30.32 L 136.44 30.30 L 136.56 30.28 L 136.68 30.26 L 136.81 30.24 L 136.93 30.22 L 137.06 30.20 L 137.18 30.18 L 137.30 30.16 L 137.43 30.15 L 137.55 30.13 L 137.67 30.11 L 137.80 30.09 L 137.92 30.07 L 138.04 30.05 L 138.17 30.04 L 138.29 30.02 L 138.42 30.00 L 138.54 29.98 L 138.66 29.97 L 138.79 29.95 L 138.91 29.93 L 139.03 29.91 L 139.16 29.90 L 139.28 29.88 L 139.41 29.86 L 139.53 29.85 L 139.65 29.83 L 139.78 29.81 L 139.90 29.80 L 140.02 29.78 L 140.15 29.76 L 140.27 29.75 L 140.39 29.73 L 140.52 29.72 L 140.64 29.70 L 140.77 29.68 L 140.89 29.67 L 141.01 29.65 L 141.14 29.64 L 141.26 29.62 L 141.38 29.61 L 141.51 29.59 L 141.63 29.58 L 141.76 29.56 L 141.88 29.55 L 142.00 29.53 L 142.13 29.52 L 142.25 29.50 L 142.37 29.49 L 142.50 29.48 L 142.62 29.46 L 142.74 29.45 L 142.87 29.43 L 142.99 29.42 L 143.12 29.41 L 143.24 29.39 L 143.36 29.38 L 143.49 29.37 L 143.61 29.35 L 143.73 29.34 L 143.86 29.33 L 143.98 29.31 L 144.11 29.30 L 144.23 29.29 L 144.35 29.27 L 144.48 29.26 L 144.60 29.25 L 144.72 29.24 L 144.85 29.22 L 144.97 29.21 L 145.10 29.20 L 145.22 29.19 L 145.34 29.18 L 145.47 29.16 L 145.59 29.15 L 145.71 29.14 L 145.84 29.13 L 145.96 29.12 L 146.08 29.11 L 146.21 29.10 L 146.33 29.08 L 146.46 29.07 L 146.58 29.06 L 146.70 29.05 L 146.83 29.04 L 146.95 29.03 L 147.07 29.02 L 147.20 29.01 L 147.32 29.00 L 147.45 28.99 L 147.57 28.98 L 147.69 28.97 L 147.82 28.96 L 147.94 28.95 L 148.06 28.94 L 148.19 28.93 L 148.31 28.92 L 148.43 28.91 L 148.56 28.90 L 148.68 28.89 L 148.81 28.88 L 148.93 28.87 L 149.05 28.87 L 149.18 28.86 L 149.30 28.85 L 149.42 28.84 L 149.55 28.83 L 149.67 28.82 L 149.80 28.81 L 149.92 28.81 L 150.04 28.80 L 150.17 28.79 L 150.29 28.78 L 150.41 28.77 L 150.54 28.77 L 150.66 28.76 L 150.78 28.75 L 150.91 28.74 L 151.03 28.74 L 151.16 28.73 L 151.28 28.72 L 151.40 28.72 L 151.53 28.71 L 151.65 28.70 L 151.77 28.70 L 151.90 28.69 L 152.02 28.68 L 152.15 28.68 L 152.27 28.67 L 152.39 28.66 L 152.52 28.66 L 152.64 28.65 L 152.76 28.65 L 152.89 28.64 L 153.01 28.63 L 153.14 28.63 L 153.26 28.62 L 153.38 28.62 L 153.51 28.61 L 153.63 28.61 L 153.75 28.60 L 153.88 28.60 L 154.00 28.59 L 154.12 28.59 L 154.25 28.58 L 154.37 28.58 L 154.50 28.57 L 154.62 28.57 L 154.74 28.57 L 154.87 28.56 L 154.99 28.56 L 155.11 28.55 L 155.24 28.55 L 155.36 28.55 L 155.49 28.54 L 155.61 28.54 L 155.73 28.54 L 155.86 28.53 L 155.98 28.53 L 156.10 28.53 L 156.23 28.52 L 156.35 28.52 L 156.47 28.52 L 156.60 28.51 L 156.72 28.51 L 156.85 28.51 L 156.97 28.51 L 157.09 28.50 L 157.22 28.50 L 157.34 28.50 L 157.46 28.50 L 157.59 28.50 L 157.71 28.49 L 157.84 28.49 L 157.96 28.49 L 158.08 28.49 L 158.21 28.49 L 158.33 28.49 L 158.45 28.48 L 158.58 28.48 L 158.70 28.48 L 158.82 28.48 L 158.95 28.48 L 159.07 28.48 L 159.20 28.48 L 159.32 28.48 L 159.44 28.48 L 159.57 28.48 L 159.69 28.48 L 159.81 28.48 L 159.94 28.48 L 160.06 28.48 L 160.19 28.48 L 160.31 28.48 L 160.43 28.48 L 160.56 28.48 L 160.68 28.48 L 160.80 28.48 L 160.93 28.48 L 161.05 28.48 L 161.18 28.48 L 161.30 28.48 L 161.42 28.48 L 161.55 28.48 L 161.67 28.49 L 161.79 28.49 L 161.92 28.49 L 162.04 28.49 L 162.16 28.49 L 162.29 28.49 L 162.41 28.50 L 162.54 28.50 L 162.66 28.50 L 162.78 28.50 L 162.91 28.50 L 163.03 28.51 L 163.15 28.51 L 163.28 28.51 L 163.40 28.51 L 163.53 28.52 L 163.65 28.52 L 163.77 28.52 L 163.90 28.53 L 164.02 28.53 L 164.14 28.53 L 164.27 28.54 L 164.39 28.54 L 164.51 28.54 L 164.64 28.55 L 164.76 28.55 L 164.89 28.55 L 165.01 28.56 L 165.13 28.56 L 165.26 28.57 L 165.38 28.57 L 165.50 28.57 L 165.63 28.58 L 165.75 28.58 L 165.88 28.59 L 166.00 28.59 L 166.12 28.60 L 166.25 28.60 L 166.37 28.61 L 166.49 28.61 L 166.62 28.62 L 166.74 28.62 L 166.86 28.63 L 166.99 28.63 L 167.11 28.64 L 167.24 28.65 L 167.36 28.65 L 167.48 28.66 L 167.61 28.66 L 167.73 28.67 L 167.85 28.68 L 167.98 28.68 L 168.10 28.69 L 168.23 28.70 L 168.35 28.70 L 168.47 28.71 L 168.60 28.72 L 168.72 28.72 L 168.84 28.73 L 168.97 28.74 L 169.09 28.74 L 169.22 28.75 L 169.34 28.76 L 169.46 28.77 L 169.59 28.77 L 169.71 28.78 L 169.83 28.79 L 169.96 28.80 L 170.08 28.81 L 170.20 28.81 L 170.33 28.82 L 170.45 28.83 L 170.58 28.84 L 170.70 28.85 L 170.82 28.86 L 170.95 28.87 L 171.07 28.87 L 171.19 28.88 L 171.32 28.89 L 171.44 28.90 L 171.57 28.91 L 171.69 28.92 L 171.81 28.93 L 171.94 28.94 L 172.06 28.95 L 172.18 28.96 L 172.31 28.97 L 172.43 28.98 L 172.55 28.99 L 172.68 29.00 L 172.80 29.01 L 172.93 29.02 L 173.05 29.03 L 173.17 29.04 L 173.30 29.05 L 173.42 29.06 L 173.54 29.07 L 173.67 29.08 L 173.79 29.10 L 173.92 29.11 L 174.04 29.12 L 174.16 29.13 L 174.29 29.14 L 174.41 29.15 L 174.53 29.16 L 174.66 29.18 L 174.78 29.19 L 174.90 29.20 L 175.03 29.21 L 175.15 29.22 L 175.28 29.24 L 175.40 29.25 L 175.52 29.26 L 175.65 29.27 L 175.77 29.29 L 175.89 29.30 L 176.02 29.31 L 176.14 29.33 L 176.27 29.34 L 176.39 29.35 L 176.51 29.37 L 176.64 29.38 L 176.76 29.39 L 176.88 29.41 L 177.01 29.42 L 177.13 29.43 L 177.26 29.45 L 177.38 29.46 L 177.50 29.48 L 177.63 29.49 L 177.75 29.50 L 177.87 29.52 L 178.00 29.53 L 178.12 29.55 L 178.24 29.56 L 178.37 29.58 L 178.49 29.59 L 178.62 29.61 L 178.74 29.62 L 178.86 29.64 L 178.99 29.65 L 179.11 29.67 L 179.23 29.68 L 179.36 29.70 L 179.48 29.72 L 179.61 29.73 L 179.73 29.75 L 179.85 29.76 L 179.98 29.78 L 180.10 29.80 L 180.22 29.81 L 180.35 29.83 L 180.47 29.85 L 180.59 29.86 L 180.72 29.88 L 180.84 29.90 L 180.97 29.91 L 181.09 29.93 L 181.21 29.95 L 181.34 29.97 L 181.46 29.98 L 181.58 30.00 L 181.71 30.02 L 181.83 30.04 L 181.96 30.05 L 182.08 30.07 L 182.20 30.09 L 182.33 30.11 L 182.45 30.13 L 182.57 30.15 L 182.70 30.16 L 182.82 30.18 L 182.94 30.20 L 183.07 30.22 L 183.19 30.24 L 183.32 30.26 L 183.44 30.28 L 183.56 30.30 L 183.69 30.32 L 183.81 30.34 L 183.93 30.36 L 184.06 30.38 L 184.18 30.39 L 184.31 30.41 L 184.43 30.43 L 184.55 30.45 L 184.68 30.48 L 184.80 30.50 L 184.92 30.52 L 185.05 30.54 L 185.17 30.56 L 185.30 30.58 L 185.42 30.60 L 185.54 30.62 L 185.67 30.64 L 185.79 30.66 L 185.91 30.68 L 186.04 30.70 L 186.16 30.73 L 186.28 30.75 L 186.41 30.77 L 186.53 30.79 L 186.66 30.81 L 186.78 30.84 L 186.90 30.86 L 187.03 30.88 L 187.15 30.90 L 187.27 30.92 L 187.40 30.95 L 187.52 30.97 L 187.65 30.99 L 187.77 31.02 L 187.89 31.04 L 188.02 31.06 L 188.14 31.09 L 188.26 31.11 L 188.39 31.13 L 188.51 31.16 L 188.63 31.18 L 188.76 31.20 L 188.88 31.23 L 189.01 31.25 L 189.13 31.28 L 189.25 31.30 L 189.38 31.32 L 189.50 31.35 L 189.62 31.37 L 189.75 31.40 L 189.87 31.42 L 190.00 31.45 L 190.12 31.47 L 190.24 31.50 L 190.37 31.52 L 190.49 31.55 L 190.61 31.57 L 190.74 31.60 L 190.86 31.63 L 190.98 31.65 L 191.11 31.68 L 191.23 31.70 L 191.36 31.73 L 191.48 31.76 L 191.60 31.78 L 191.73 31.81 L 191.85 31.83 L 191.97 31.86 L 192.10 31.89 L 192.22 31.92 L 192.35 31.94 L 192.47 31.97 L 192.59 32.00 L 192.72 32.02 L 192.84 32.05 L 192.96 32.08 L 193.09 32.11 L 193.21 32.13 L 193.34 32.16 L 193.46 32.19 L 193.58 32.22 L 193.71 32.25 L 193.83 32.28 L 193.95 32.30 L 194.08 32.33 L 194.20 32.36 L 194.32 32.39 L 194.45 32.42 L 194.57 32.45 L 194.70 32.48 L 194.82 32.51 L 194.94 32.54 L 195.07 32.57 L 195.19 32.60 L 195.31 32.62 L 195.44 32.65 L 195.56 32.68 L 195.69 32.72 L 195.81 32.75 L 195.93 32.78 L 196.06 32.81 L 196.18 32.84 L 196.30 32.87 L 196.43 32.90 L 196.55 32.93 L 196.67 32.96 L 196.80 32.99 L 196.92 33.02 L 197.05 33.05 L 197.17 33.09 L 197.29 33.12 L 197.42 33.15 L 197.54 33.18 L 197.66 33.21 L 197.79 33.24 L 197.91 33.28 L 198.04 33.31 L 198.16 33.34 L 198.28 33.37 L 198.41 33.41 L 198.53 33.44 L 198.65 33.47 L 198.78 33.51 L 198.90 33.54 L 199.03 33.57 L 199.15 33.61 L 199.27 33.64 L 199.40 33.67 L 199.52 33.71 L 199.64 33.74 L 199.77 33.77 L 199.89 33.81 L 200.01 33.84 L 200.14 33.88 L 200.26 33.91 L 200.39 33.95 L 200.51 33.98 L 200.63 34.02 L 200.76 34.05 L 200.88 34.09 L 201.00 34.12 L 201.13 34.16 L 201.25 34.19 L 201.38 34.23 L 201.50 34.26 L 201.62 34.30 L 201.75 34.34 L 201.87 34.37 L 201.99 34.41 L 202.12 34.44 L 202.24 34.48 L 202.36 34.52 L 202.49 34.55 L 202.61 34.59 L 202.74 34.63 L 202.86 34.67 L 202.98 34.70 L 203.11 34.74 L 203.23 34.78 L 203.35 34.81 L 203.48 34.85 L 203.60 34.89 L 203.73 34.93 L 203.85 34.97 L 203.97 35.00 L 204.10 35.04 L 204.22 35.08 L 204.34 35.12 L 204.47 35.16 L 204.59 35.20 L 204.71 35.24 L 204.84 35.28 L 204.96 35.31 L 205.09 35.35 L 205.21 35.39 L 205.33 35.43 L 205.46 35.47 L 205.58 35.51 L 205.70 35.55 L 205.83 35.59 L 205.95 35.63 L 206.08 35.67 L 206.20 35.71 L 206.32 35.76 L 206.45 35.80 L 206.57 35.84 L 206.69 35.88 L 206.82 35.92 L 206.94 35.96 L 207.07 36.00 L 207.19 36.04 L 207.31 36.08 L 207.44 36.13 L 207.56 36.17 L 207.68 36.21 L 207.81 36.25 L 207.93 36.30 L 208.05 36.34 L 208.18 36.38 L 208.30 36.42 L 208.43 36.47 L 208.55 36.51 L 208.67 36.55 L 208.80 36.60 L 208.92 36.64 L 209.04 36.68 L 209.17 36.73 L 209.29 36.77 L 209.42 36.81 L 209.54 36.86 L 209.66 36.90 L 209.79 36.95 L 209.91 36.99 L 210.03 37.04 L 210.16 37.08 L 210.28 37.13 L 210.40 37.17 L 210.53 37.22 L 210.65 37.26 L 210.78 37.31 L 210.90 37.35 L 211.02 37.40 L 211.15 37.44 L 211.27 37.49 L 211.39 37.54 L 211.52 37.58 L 211.64 37.63 L 211.77 37.68 L 211.89 37.72 L 212.01 37.77 L 212.14 37.82 L 212.26 37.86 L 212.38 37.91 L 212.51 37.96 L 212.63 38.01 L 212.75 38.05 L 212.88 38.10 L 213.00 38.15 L 213.13 38.20 L 213.25 38.25 L 213.37 38.29 L 213.50 38.34 L 213.62 38.39 L 213.74 38.44 L 213.87 38.49 L 213.99 38.54 L 214.12 38.59 L 214.24 38.64 L 214.36 38.69 L 214.49 38.74 L 214.61 38.79 L 214.73 38.84 L 214.86 38.89 L 214.98 38.94 L 215.11 38.99 L 215.23 39.04 L 215.35 39.09 L 215.48 39.14 L 215.60 39.19 L 215.72 39.24 L 215.85 39.29 L 215.97 39.34 L 216.09 39.39 L 216.22 39.45 L 216.34 39.50 L 216.47 39.55 L 216.59 39.60 L 216.71 39.66 L 216.84 39.71 L 216.96 39.76 L 217.08 39.81 L 217.21 39.87 L 217.33 39.92 L 217.46 39.97 L 217.58 40.03 L 217.70 40.08 L 217.83 40.13 L 217.95 40.19 L 218.07 40.24 L 218.20 40.30 L 218.32 40.35 L 218.44 40.40 L 218.57 40.46 L 218.69 40.51 L 218.82 40.57 L 218.94 40.62 L 219.06 40.68 L 219.19 40.73 L 219.31 40.79 L 219.43 40.85 L 219.56 40.90 L 219.68 40.96 L 219.81 41.01 L 219.93 41.07 L 220.05 41.13 L 220.18 41.18 L 220.30 41.24 L 220.42 41.30 L 220.55 41.35 L 220.67 41.41 L 220.79 41.47 L 220.92 41.53 L 221.04 41.58 L 221.17 41.64 L 221.29 41.70 L 221.41 41.76 L 221.54 41.82 L 221.66 41.88 L 221.78 41.93 L 221.91 41.99 L 222.03 42.05 L 222.16 42.11 L 222.28 42.17 L 222.40 42.23 L 222.53 42.29 L 222.65 42.35 L 222.77 42.41 L 222.90 42.47 L 223.02 42.53 L 223.15 42.59 L 223.27 42.65 L 223.39 42.71 L 223.52 42.77 L 223.64 42.84 L 223.76 42.90 L 223.89 42.96 L 224.01 43.02 L 224.13 43.08 L 224.26 43.14 L 224.38 43.21 L 224.51 43.27 L 224.63 43.33 L 224.75 43.39 L 224.88 43.46 L 225.00 43.52 L 225.12 43.58 L 225.25 43.65 L 225.37 43.71 L 225.50 43.77 L 225.62 43.84 L 225.74 43.90 L 225.87 43.97 L 225.99 44.03 L 226.11 44.10 L 226.24 44.16 L 226.36 44.23 L 226.48 44.29 L 226.61 44.36 L 226.73 44.42 L 226.86 44.49 L 226.98 44.55 L 227.10 44.62 L 227.23 44.69 L 227.35 44.75 L 227.47 44.82 L 227.60 44.89 L 227.72 44.95 L 227.85 45.02 L 227.97 45.09 L 228.09 45.16 L 228.22 45.22 L 228.34 45.29 L 228.46 45.36 L 228.59 45.43 L 228.71 45.50 L 228.83 45.57 L 228.96 45.63 L 229.08 45.70 L 229.21 45.77 L 229.33 45.84 L 229.45 45.91 L 229.58 45.98 L 229.70 46.05 L 229.82 46.12 L 229.95 46.19 L 230.07 46.26 L 230.20 46.33 L 230.32 46.40 L 230.44 46.48 L 230.57 46.55 L 230.69 46.62 L 230.81 46.69 L 230.94 46.76 L 231.06 46.83 L 231.19 46.91 L 231.31 46.98 L 231.43 47.05 L 231.56 47.13 L 231.68 47.20 L 231.80 47.27 L 231.93 47.35 L 232.05 47.42 L 232.17 47.49 L 232.30 47.57 L 232.42 47.64 L 232.55 47.72 L 232.67 47.79 L 232.79 47.87 L 232.92 47.94 L 233.04 48.02 L 233.16 48.09 L 233.29 48.17 L 233.41 48.24 L 233.54 48.32 L 233.66 48.40 L 233.78 48.47 L 233.91 48.55 L 234.03 48.63 L 234.15 48.70 L 234.28 48.78 L 234.40 48.86 L 234.52 48.94 L 234.65 49.01 L 234.77 49.09 L 234.90 49.17 L 235.02 49.25 L 235.14 49.33 L 235.27 49.41 L 235.39 49.49 L 235.51 49.57 L 235.64 49.65 L 235.76 49.73 L 235.89 49.81 L 236.01 49.89 L 236.13 49.97 L 236.26 50.05 L 236.38 50.13 L 236.50 50.21 L 236.63 50.29 L 236.75 50.37 L 236.87 50.46 L 237.00 50.54 L 237.12 50.62 L 237.25 50.70 L 237.37 50.79 L 237.49 50.87 L 237.62 50.95 L 237.74 51.04 L 237.86 51.12 L 237.99 51.20 L 238.11 51.29 L 238.24 51.37 L 238.36 51.46 L 238.48 51.54 L 238.61 51.63 L 238.73 51.71 L 238.85 51.80 L 238.98 51.88 L 239.10 51.97 L 239.23 52.06 L 239.35 52.14 L 239.47 52.23 L 239.60 52.32 L 239.72 52.40 L 239.84 52.49 L 239.97 52.58 L 240.09 52.67 L 240.21 52.76 L 240.34 52.84 L 240.46 52.93 L 240.59 53.02 L 240.71 53.11 L 240.83 53.20 L 240.96 53.29 L 241.08 53.38 L 241.20 53.47 L 241.33 53.56 L 241.45 53.65 L 241.58 53.74 L 241.70 53.83 L 241.82 53.93 L 241.95 54.02 L 242.07 54.11 L 242.19 54.20 L 242.32 54.29 L 242.44 54.39 L 242.56 54.48 L 242.69 54.57 L 242.81 54.67 L 242.94 54.76 L 243.06 54.86 L 243.18 54.95 L 243.31 55.04 L 243.43 55.14 L 243.55 55.23 L 243.68 55.33 L 243.80 55.43 L 243.93 55.52 L 244.05 55.62 L 244.17 55.71 L 244.30 55.81 L 244.42 55.91 L 244.54 56.01 L 244.67 56.10 L 244.79 56.20 L 244.91 56.30 L 245.04 56.40 L 245.16 56.50 L 245.29 56.59 L 245.41 56.69 L 245.53 56.79 L 245.66 56.89 L 245.78 56.99 L 245.90 57.09 L 246.03 57.19 L 246.15 57.30 L 246.28 57.40 L 246.40 57.50 L 246.52 57.60 L 246.65 57.70 L 246.77 57.80 L 246.89 57.91 L 247.02 58.01 L 247.14 58.11 L 247.27 58.22 L 247.39 58.32 L 247.51 58.43 L 247.64 58.53 L 247.76 58.64 L 247.88 58.74 L 248.01 58.85 L 248.13 58.95 L 248.25 59.06 L 248.38 59.16 L 248.50 59.27 L 248.63 59.38 L 248.75 59.48 L 248.87 59.59 L 249.00 59.70 L 249.12 59.81 L 249.24 59.92 L 249.37 60.03 L 249.49 60.13 L 249.62 60.24 L 249.74 60.35 L 249.86 60.46 L 249.99 60.57 L 250.11 60.69 L 250.23 60.80 L 250.36 60.91 L 250.48 61.02 L 250.60 61.13 L 250.73 61.24 L 250.85 61.36 L 250.98 61.47 L 251.10 61.58 L 251.22 61.70 L 251.35 61.81 L 251.47 61.93 L 251.59 62.04 L 251.72 62.16 L 251.84 62.27 L 251.97 62.39 L 252.09 62.50 L 252.21 62.62 L 252.34 62.74 L 252.46 62.85 L 252.58 62.97 L 252.71 63.09 L 252.83 63.21 L 252.95 63.33 L 253.08 63.45 L 253.20 63.57 L 253.33 63.69 L 253.45 63.81 L 253.57 63.93 L 253.70 64.05 L 253.82 64.17 L 253.94 64.29 L 254.07 64.41 L 254.19 64.53 L 254.32 64.66 L 254.44 64.78 L 254.56 64.90 L 254.69 65.03 L 254.81 65.15 L 254.93 65.28 L 255.06 65.40 L 255.18 65.53 L 255.31 65.65 L 255.43 65.78 L 255.55 65.91 L 255.68 66.03 L 255.80 66.16 L 255.92 66.29 L 256.05 66.42 L 256.17 66.54 L 256.29 66.67 L 256.42 66.80 L 256.54 66.93 L 256.67 67.06 L 256.79 67.19 L 256.91 67.32 L 257.04 67.46 L 257.16 67.59 L 257.28 67.72 L 257.41 67.85 L 257.53 67.99 L 257.66 68.12 L 257.78 68.25 L 257.90 68.39 L 258.03 68.52 L 258.15 68.66 L 258.27 68.79 L 258.40 68.93 L 258.52 69.07 L 258.64 69.20 L 258.77 69.34 L 258.89 69.48 L 259.02 69.62 L 259.14 69.76 L 259.26 69.90 L 259.39 70.04 L 259.51 70.18 L 259.63 70.32 L 259.76 70.46 L 259.88 70.60 L 260.01 70.74 L 260.13 70.89 L 260.25 71.03 L 260.38 71.17 L 260.50 71.32 L 260.62 71.46 L 260.75 71.61 L 260.87 71.75 L 260.99 71.90 L 261.12 72.04 L 261.24 72.19 L 261.37 72.34 L 261.49 72.49 L 261.61 72.64 L 261.74 72.79 L 261.86 72.93 L 261.98 73.08 L 262.11 73.24 L 262.23 73.39 L 262.36 73.54 L 262.48 73.69 L 262.60 73.84 L 262.73 74.00 L 262.85 74.15 L 262.97 74.30 L 263.10 74.46 L 263.22 74.62 L 263.35 74.77 L 263.47 74.93 L 263.59 75.08 L 263.72 75.24 L 263.84 75.40 L 263.96 75.56 L 264.09 75.72 L 264.21 75.88 L 264.33 76.04 L 264.46 76.20 L 264.58 76.36 L 264.71 76.52 L 264.83 76.69 L 264.95 76.85 L 265.08 77.01 L 265.20 77.18 L 265.32 77.34 L 265.45 77.51 L 265.57 77.68 L 265.70 77.84 L 265.82 78.01 L 265.94 78.18 L 266.07 78.35 L 266.19 78.52 L 266.31 78.69 L 266.44 78.86 L 266.56 79.03 L 266.68 79.20 L 266.81 79.38 L 266.93 79.55 L 267.06 79.72 L 267.18 79.90 L 267.30 80.07 L 267.43 80.25 L 267.55 80.43 L 267.67 80.60 L 267.80 80.78 L 267.92 80.96 L 268.05 81.14 L 268.17 81.32 L 268.29 81.50 L 268.42 81.68 L 268.54 81.86 L 268.66 82.05 L 268.79 82.23 L 268.91 82.42 L 269.04 82.60 L 269.16 82.79 L 269.28 82.97 L 269.41 83.16 L 269.53 83.35 L 269.65 83.54 L 269.78 83.73 L 269.90 83.92 L 270.02 84.11 L 270.15 84.30 L 270.27 84.49 L 270.40 84.69 L 270.52 84.88 L 270.64 85.08 L 270.77 85.27 L 270.89 85.47 L 271.01 85.67 L 271.14 85.87 L 271.26 86.07 L 271.39 86.27 L 271.51 86.47 L 271.63 86.67 L 271.76 86.87 L 271.88 87.08 L 272.00 87.28 L 272.13 87.48 L 272.25 87.69 L 272.37 87.90 L 272.50 88.11 L 272.62 88.32 L 272.75 88.52 L 272.87 88.74 L 272.99 88.95 L 273.12 89.16 L 273.24 89.37 L 273.36 89.59 L 273.49 89.80 L 273.61 90.02 L 273.74 90.24 L 273.86 90.46 L 273.98 90.67 L 274.11 90.90 L 274.23 91.12 L 274.35 91.34 L 274.48 91.56 L 274.60 91.79 L 274.72 92.01 L 274.85 92.24 L 274.97 92.47 L 275.10 92.69 L 275.22 92.92 L 275.34 93.15 L 275.47 93.39 L 275.59 93.62 L 275.71 93.85 L 275.84 94.09 L 275.96 94.32 L 276.09 94.56 L 276.21 94.80 L 276.33 95.04 L 276.46 95.28 L 276.58 95.52 L 276.70 95.77 L 276.83 96.01 L 276.95 96.26 L 277.08 96.50 L 277.20 96.75 L 277.32 97.00 L 277.45 97.25 L 277.57 97.50 L 277.69 97.76 L 277.82 98.01 L 277.94 98.27 L 278.06 98.52 L 278.19 98.78 L 278.31 99.04 L 278.44 99.30 L 278.56 99.57 L 278.68 99.83 L 278.81 100.10 L 278.93 100.36 L 279.05 100.63 L 279.18 100.90 L 279.30 101.17 L 279.43 101.44 L 279.55 101.72 L 279.67 101.99 L 279.80 102.27 L 279.92 102.55 L 280.04 102.83 L 280.17 103.11 L 280.29 103.39 L 280.41 103.68 L 280.54 103.96 L 280.66 104.25 L 280.79 104.54 L 280.91 104.83 L 281.03 105.13 L 281.16 105.42 L 281.28 105.72 L 281.40 106.02 L 281.53 106.32 L 281.65 106.62 L 281.78 106.92 L 281.90 107.23 L 282.02 107.53 L 282.15 107.84 L 282.27 108.15 L 282.39 108.47 L 282.52 108.78 L 282.64 109.10 L 282.76 109.42 L 282.89 109.74 L 283.01 110.06 L 283.14 110.38 L 283.26 110.71 L 283.38 111.04 L 283.51 111.37 L 283.63 111.70 L 283.75 112.04 L 283.88 112.38 L 284.00 112.72 L 284.13 113.06 L 284.25 113.40 L 284.37 113.75 L 284.50 114.10 L 284.62 114.45 L 284.74 114.80 L 284.87 115.16 L 284.99 115.52 L 285.12 115.88 L 285.24 116.24 L 285.36 116.61 L 285.49 116.98 L 285.61 117.35 L 285.73 117.72 L 285.86 118.10 L 285.98 118.48 L 286.10 118.86 L 286.23 119.24 L 286.35 119.63 L 286.48 120.02 L 286.60 120.42 L 286.72 120.81 L 286.85 121.21 L 286.97 121.62 L 287.09 122.02 L 287.22 122.43 L 287.34 122.84 L 287.47 123.26 L 287.59 123.68 L 287.71 124.10 L 287.84 124.53 L 287.96 124.96 L 288.08 125.39 L 288.21 125.83 L 288.33 126.27 L 288.45 126.71 L 288.58 127.16 L 288.70 127.61 L 288.83 128.06 L 288.95 128.52 L 289.07 128.99 L 289.20 129.45 L 289.32 129.93 L 289.44 130.40 L 289.57 130.88 L 289.69 131.37 L 289.82 131.86 L 289.94 132.35 L 290.06 132.85 L 290.19 133.35 L 290.31 133.86 L 290.43 134.37 L 290.56 134.89 L 290.68 135.41 L 290.80 135.94 L 290.93 136.48 L 291.05 137.02 L 291.18 137.56 L 291.30 138.11 L 291.42 138.67 L 291.55 139.23 L 291.67 139.80 L 291.79 140.37 L 291.92 140.95 L 292.04 141.54 L 292.17 142.13 L 292.29 142.73 L 292.41 143.34 L 292.54 143.95 L 292.66 144.57 L 292.78 145.20 L 292.91 145.84 L 293.03 146.48 L 293.16 147.13 L 293.28 147.79 L 293.40 148.46 L 293.53 149.14 L 293.65 149.82 L 293.77 150.51 L 293.90 151.22 L 294.02 151.93 L 294.14 152.65 L 294.27 153.38 L 294.39 154.12 L 294.52 154.88 L 294.64 155.64 L 294.76 156.41 L 294.89 157.20 L 295.01 158.00" fill="none" stroke="#7E8692" stroke-width="2.3" stroke-linecap="round" stroke-linejoin="round"/>
</svg>
