<svg xmlns="http://www.w3.org/2000/svg" viewBox="0 0 320 180" width="320" height="180">
  <rect width="320" height="180" fill="#F4F5F7"/>
  <path d="M 18.71 102.65 L 18.95 96.54 L 19.18 90.37 L 19.42 84.19 L 19.66 78.02 L 19.89 71.89 L 20.13 65.81 L 20.37 59.81 L 20.61 53.89 L 20.84 48.07 L 21.08 42.36 L 21.32 36.77 L 21.55 31.30 L 21.79 25.96 L 22.03 20.76 L 22.26 15.69 L 22.50 10.76 L 22.74 5.97 L 22.97 1.32 L 23.21 -3.18 L 23.45 -7.55 L 23.68 -11.78 L 23.92 -15.86 L 24.16 -19.81 L 24.40 -23.63 L 24.63 -27.31 L 24.87 -30.86 L 25.11 -34.29 L 25.34 -37.58 L 25.58 -40.75 L 25.82 -43.81 L 26.05 -46.74 L 26.29 -49.55 L 26.53 -52.26 L 26.76 -54.85 L 27.00 -57.34 L 27.24 -59.72 L 27.47 -61.99 L 27.71 -64.17 L 27.95 -66.26 L 28.19 -68.24 L 28.42 -70.14 L 28.66 -71.95 L 28.90 -73.67 L 29.13 -75.30 L 29.37 -76.86 L 29.61 -78.33 L 29.84 -79.73 L 30.08 -81.05 L 30.32 -82.31 L 30.55 -83.49 L 30.79 -84.60 L 31.03 -85.65 L 31.26 -86.63 L 31.50 -87.55 L 31.74 -88.41 L 31.97 -89.21 L 32.21 -89.96 L 32.45 -90.65 L 32.69 -91.28 L 32.92 -91.87 L 33.16 -92.40 L 33.40 -92.89 L 33.63 -93.33 L 33.87 -93.73 L 34.11 -94.08 L 34.34 -94.39 L 34.58 -94.66 L 34.82 -94.88 L 35.05 -95.07 L 35.29 -95.23 L 35.53 -95.34 L 35.76 -95.43 L 36.00 -95.47 L 36.24 -95.49 L 36.48 -95.47 L 36.71 -95.43 L 36.95 -95.35 L 37.19 -95.25 L 37.42 -95.12 L 37.66 -94.96 L 37.90 -94.78 L 38.13 -94.57 L 38.37 -94.34 L 38.61 -94.08 L 38.84 -93.80 L 39.08 -93.50 L 39.32 -93.18 L 39.55 -92.84 L 39.79 -92.48 L 40.03 -92.10 L 40.27 -91.71 L 40.50 -91.29 L 40.74 -90.86 L 40.98 -90.42 L 41.21 -89.96 L 41.45 -89.48 L 41.69 -88.99 L 41.92 -88.48 L 42.16 -87.96 L 42.40 -87.43 L 42.63 -86.89 L 42.87 -86.33 L 43.11 -85.76 L 43.34 -85.19 L 43.58 -84.60 L 43.82 -84.00 L 44.06 -83.39 L 44.29 -82.77 L 44.53 -82.14 L 44.77 -81.51 L 45.00 -80.86 L 45.24 -80.21 L 45.48 -79.55 L 45.71 -78.89 L 45.95 -78.21 L 46.19 -77.53 L 46.42 -76.85 L 46.66 -76.15 L 46.90 -75.46 L 47.13 -74.75 L 47.37 -74.04 L 47.61 -73.33 L 47.84 -72.61 L 48.08 -71.89 L 48.32 -71.16 L 48.56 -70.43 L 48.79 -69.70 L 49.03 -68.96 L 49.27 -68.22 L 49.50 -67.47 L 49.74 -66.73 L 49.98 -65.98 L 50.21 -65.23 L 50.45 -64.47 L 50.69 -63.71 L 50.92 -62.96 L 51.16 -62.19 L 51.40 -61.43 L 51.63 -60.67 L 51.87 -59.90 L 52.11 -59.14 L 52.35 -58.37 L 52.58 -57.60 L 52.82 -56.83 L 53.06 -56.06 L 53.29 -55.29 L 53.53 -54.52 L 53.77 -53.75 L 54.00 -52.98 L 54.24 -52.20 L 54.48 -51.43 L 54.71 -50.66 L 54.95 -49.89 L 55.19 -49.12 L 55.42 -48.35 L 55.66 -47.58 L 55.90 -46.81 L 56.14 -46.04 L 56.37 -45.27 L 56.61 -44.50 L 56.85 -43.73 L 57.08 -42.97 L 57.32 -42.20 L 57.56 -41.44 L 57.79 -40.68 L 58.03 -39.91 L 58.27 -39.15 L 58.50 -38.39 L 58.74 -37.64 L 58.98 -36.88 L 59.21 -36.13 L 59.45 -35.37 L 59.69 -34.62 L 59.92 -33.87 L 60.16 -33.12 L 60.40 -32.38 L 60.64 -31.63 L 60.87 -30.89 L 61.11 -30.15 L 61.35 -29.41 L 61.58 -28.67 L 61.82 -27.93 L 62.06 -27.20 L 62.29 -26.47 L 62.53 -25.74 L 62.77 -25.01 L 63.00 -24.29 L 63.24 -23.56 L 63.48 -22.84 L 63.71 -22.13 L 63.95 -21.41 L 64.19 -20.69 L 64.43 -19.98 L 64.66 -19.27 L 64.90 -18.57 L 65.14 -17.86 L 65.37 -17.16 L 65.61 -16.46 L 65.85 -15.76 L 66.08 -15.06 L 66.32 -14.37 L 66.56 -13.68 L 66.79 -12.99 L 67.03 -12.31 L 67.27 -11.62 L 67.50 -10.94 L 67.74 -10.26 L 67.98 -9.59 L 68.22 -8.91 L 68.45 -8.24 L 68.69 -7.57 L 68.93 -6.91 L 69.16 -6.24 L 69.40 -5.58 L 69.64 -4.93 L 69.87 -4.27 L 70.11 -3.62 L 70.35 -2.97 L 70.58 -2.32 L 70.82 -1.67 L 71.06 -1.03 L 71.29 -0.39 L 71.53 0.25 L 71.77 0.88 L 72.01 1.52 L 72.24 2.15 L 72.48 2.77 L 72.72 3.40 L 72.95 4.02 L 73.19 4.64 L 73.43 5.26 L 73.66 5.87 L 73.90 6.48 L 74.14 7.09 L 74.37 7.70 L 74.61 8.30 L 74.85 8.90 L 75.08 9.50 L 75.32 10.10 L 75.56 10.69 L 75.79 11.28 L 76.03 11.87 L 76.27 12.46 L 76.51 13.04 L 76.74 13.62 L 76.98 14.20 L 77.22 14.78 L 77.45 15.35 L 77.69 15.92 L 77.93 16.49 L 78.16 17.06 L 78.40 17.62 L 78.64 18.18 L 78.87 18.74 L 79.11 19.30 L 79.35 19.85 L 79.58 20.40 L 79.82 20.95 L 80.06 21.50 L 80.30 22.04 L 80.53 22.58 L 80.77 23.12 L 81.01 23.66 L 81.24 24.19 L 81.48 24.72 L 81.72 25.25 L 81.95 25.78 L 82.19 26.30 L 82.43 26.82 L 82.66 27.34 L 82.90 27.86 L 83.14 28.38 L 83.37 28.89 L 83.61 29.40 L 83.85 29.91 L 84.09 30.41 L 84.32 30.91 L 84.56 31.42 L 84.80 31.91 L 85.03 32.41 L 85.27 32.90 L 85.51 33.40 L 85.74 33.89 L 85.98 34.37 L 86.22 34.86 L 86.45 35.34 L 86.69 35.82 L 86.93 36.30 L 87.16 36.77 L 87.40 37.25 L 87.64 37.72 L 87.87 38.19 L 88.11 38.66 L 88.35 39.12 L 88.59 39.58 L 88.82 40.05 L 89.06 40.50 L 89.30 40.96 L 89.53 41.41 L 89.77 41.87 L 90.01 42.32 L 90.24 42.77 L 90.48 43.21 L 90.72 43.65 L 90.95 44.10 L 91.19 44.54 L 91.43 44.97 L 91.66 45.41 L 91.90 45.84 L 92.14 46.27 L 92.38 46.70 L 92.61 47.13 L 92.85 47.56 L 93.09 47.98 L 93.32 48.40 L 93.56 48.82 L 93.80 49.24 L 94.03 49.66 L 94.27 50.07 L 94.51 50.48 L 94.74 50.89 L 94.98 51.30 L 95.22 51.70 L 95.45 52.11 L 95.69 52.51 L 95.93 52.91 L 96.17 53.31 L 96.40 53.71 L 96.64 54.10 L 96.88 54.49 L 97.11 54.89 L 97.35 55.28 L 97.59 55.66 L 97.82 56.05 L 98.06 56.43 L 98.30 56.81 L 98.53 57.19 L 98.77 57.57 L 99.01 57.95 L 99.24 58.32 L 99.48 58.70 L 99.72 59.07 L 99.95 59.44 L 100.19 59.81 L 100.43 60.17 L 100.67 60.54 L 100.90 60.90 L 101.14 61.26 L 101.38 61.62 L 101.61 61.98 L 101.85 62.34 L 102.09 62.69 L 102.32 63.04 L 102.56 63.40 L 102.80 63.75 L 103.03 64.09 L 103.27 64.44 L 103.51 64.78 L 103.74 65.13 L 103.98 65.47 L 104.22 65.81 L 104.46 66.15 L 104.69 66.48 L 104.93 66.82 L 105.17 67.15 L 105.40 67.49 L 105.64 67.82 L 105.88 68.15 L 106.11 68.47 L 106.35 68.80 L 106.59 69.12 L 106.82 69.45 L 107.06 69.77 L 107.30 70.09 L 107.53 70.41 L 107.77 70.73 L 108.01 71.04 L 108.25 71.36 L 108.48 71.67 L 108.72 71.98 L 108.96 72.29 L 109.19 72.60 L 109.43 72.91 L 109.67 73.21 L 109.90 73.52 L 110.14 73.82 L 110.38 74.12 L 110.61 74.42 L 110.85 74.72 L 111.09 75.02 L 111.32 75.31 L 111.56 75.61 L 111.80 75.90 L 112.04 76.19 L 112.27 76.48 L 112.51 76.77 L 112.75 77.06 L 112.98 77.35 L 113.22 77.63 L 113.46 77.92 L 113.69 78.20 L 113.93 78.48 L 114.17 78.76 L 114.40 79.04 L 114.64 79.32 L 114.88 79.60 L 115.11 79.87 L 115.35 80.15 L 115.59 80.42 L 115.82 80.69 L 116.06 80.96 L 116.30 81.23 L 116.54 81.50 L 116.77 81.77 L 117.01 82.03 L 117.25 82.30 L 117.48 82.56 L 117.72 82.82 L 117.96 83.08 L 118.19 83.34 L 118.43 83.60 L 118.67 83.86 L 118.90 84.11 L 119.14 84.37 L 119.38 84.62 L 119.61 84.87 L 119.85 85.13 L 120.09 85.38 L 120.33 85.63 L 120.56 85.87 L 120.80 86.12 L 121.04 86.37 L 121.27 86.61 L 121.51 86.86 L 121.75 87.10 L 121.98 87.34 L 122.22 87.58 L 122.46 87.82 L 122.69 88.06 L 122.93 88.30 L 123.17 88.53 L 123.40 88.77 L 123.64 89.00 L 123.88 89.24 L 124.12 89.47 L 124.35 89.70 L 124.59 89.93 L 124.83 90.16 L 125.06 90.39 L 125.30 90.61 L 125.54 90.84 L 125.77 91.07 L 126.01 91.29 L 126.25 91.51 L 126.48 91.74 L 126.72 91.96 L 126.96 92.18 L 127.19 92.40 L 127.43 92.61 L 127.67 92.83 L 127.90 93.05 L 128.14 93.26 L 128.38 93.48 L 128.62 93.69 L 128.85 93.91 L 129.09 94.12 L 129.33 94.33 L 129.56 94.54 L 129.80 94.75 L 130.04 94.96 L 130.27 95.16 L 130.51 95.37 L 130.75 95.57 L 130.98 95.78 L 131.22 95.98 L 131.46 96.19 L 131.69 96.39 L 131.93 96.59 L 132.17 96.79 L 132.41 96.99 L 132.64 97.19 L 132.88 97.38 L 133.12 97.58 L 133.35 97.78 L 133.59 97.97 L 133.83 98.17 L 134.06 98.36 L 134.30 98.55 L 134.54 98.74 L 134.77 98.94 L 135.01 99.13 L 135.25 99.31 L 135.48 99.50 L 135.72 99.69 L 135.96 99.88 L 136.20 100.06 L 136.43 100.25 L 136.67 100.43 L 136.91 100.62 L 137.14 100.80 L 137.38 100.98 L 137.62 101.16 L 137.85 101.35 L 138.09 101.53 L 138.33 101.70 L 138.56 101.88 L 138.80 102.06 L 139.04 102.24 L 139.27 102.41 L 139.51 102.59 L 139.75 102.76 L 139.98 102.94 L 140.22 103.11 L 140.46 103.28 L 140.70 103.46 L 140.93 103.63 L 141.17 103.80 L 141.41 103.97 L 141.64 104.14 L 141.88 104.30 L 142.12 104.47 L 142.35 104.64 L 142.59 104.80 L 142.83 104.97 L 143.06 105.13 L 143.30 105.30 L 143.54 105.46 L 143.77 105.62 L 144.01 105.79 L 144.25 105.95 L 144.49 106.11 L 144.72 106.27 L 144.96 106.43 L 145.20 106.59 L 145.43 106.75 L 145.67 106.90 L 145.91 107.06 L 146.14 107.22 L 146.38 107.37 L 146.62 107.53 L 146.85 107.68 L 147.09 107.83 L 147.33 107.99 L 147.56 108.14 L 147.80 108.29 L 148.04 108.44 L 148.28 108.59 L 148.51 108.74 L 148.75 108.89 L 148.99 109.04 L 149.22 109.19 L 149.46 109.34 L 149.70 109.48 L 149.93 109.63 L 150.17 109.77 L 150.41 109.92 L 150.64 110.06 L 150.88 110.21 L 151.12 110.35 L 151.35 110.49 L 151.59 110.64 L 151.83 110.78 L 152.07 110.92 L 152.30 111.06 L 152.54 111.20 L 152.78 111.34 L 153.01 111.48 L 153.25 111.61 L 153.49 111.75 L 153.72 111.89 L 153.96 112.03 L 154.20 112.16 L 154.43 112.30 L 154.67 112.43 L 154.91 112.57 L 155.14 112.70 L 155.38 112.83 L 155.62 112.97 L 155.85 113.10 L 156.09 113.23 L 156.33 113.36 L 156.57 113.49 L 156.80 113.62 L 157.04 113.75 L 157.28 113.88 L 157.51 114.01 L 157.75 114.14 L 157.99 114.27 L 158.22 114.39 L 158.46 114.52 L 158.70 114.65 L 158.93 114.77 L 159.17 114.90 L 159.41 115.02 L 159.64 115.14 L 159.88 115.27 L 160.12 115.39 L 160.36 115.51 L 160.59 115.64 L 160.83 115.76 L 161.07 115.88 L 161.30 116.00 L 161.54 116.12 L 161.78 116.24 L 162.01 116.36 L 162.25 116.48 L 162.49 116.60 L 162.72 116.71 L 162.96 116.83 L 163.20 116.95 L 163.43 117.06 L 163.67 117.18 L 163.91 117.30 L 164.15 117.41 L 164.38 117.53 L 164.62 117.64 L 164.86 117.75 L 165.09 117.87 L 165.33 117.98 L 165.57 118.09 L 165.80 118.21 L 166.04 118.32 L 166.28 118.43 L 166.51 118.54 L 166.75 118.65 L 166.99 118.76 L 167.22 118.87 L 167.46 118.98 L 167.70 119.09 L 167.93 119.20 L 168.17 119.30 L 168.41 119.41 L 168.65 119.52 L 168.88 119.62 L 169.12 119.73 L 169.36 119.84 L 169.59 119.94 L 169.83 120.05 L 170.07 120.15 L 170.30 120.26 L 170.54 120.36 L 170.78 120.46 L 171.01 120.57 L 171.25 120.67 L 171.49 120.77 L 171.72 120.87 L 171.96 120.97 L 172.20 121.08 L 172.44 121.18 L 172.67 121.28 L 172.91 121.38 L 173.15 121.48 L 173.38 121.58 L 173.62 121.67 L 173.86 121.77 L 174.09 121.87 L 174.33 121.97 L 174.57 122.07 L 174.80 122.16 L 175.04 122.26 L 175.28 122.36 L 175.51 122.45 L 175.75 122.55 L 175.99 122.64 L 176.23 122.74 L 176.46 122.83 L 176.70 122.93 L 176.94 123.02 L 177.17 123.11 L 177.41 123.21 L 177.65 123.30 L 177.88 123.39 L 178.12 123.48 L 178.36 123.58 L 178.59 123.67 L 178.83 123.76 L 179.07 123.85 L 179.30 123.94 L 179.54 124.03 L 179.78 124.12 L 180.02 124.21 L 180.25 124.30 L 180.49 124.39 L 180.73 124.47 L 180.96 124.56 L 181.20 124.65 L 181.44 124.74 L 181.67 124.83 L 181.91 124.91 L 182.15 125.00 L 182.38 125.08 L 182.62 125.17 L 182.86 125.26 L 183.09 125.34 L 183.33 125.43 L 183.57 125.51 L 183.80 125.60 L 184.04 125.68 L 184.28 125.76 L 184.52 125.85 L 184.75 125.93 L 184.99 126.01 L 185.23 126.09 L 185.46 126.18 L 185.70 126.26 L 185.94 126.34 L 186.17 126.42 L 186.41 126.50 L 186.65 126.58 L 186.88 126.66 L 187.12 126.74 L 187.36 126.82 L 187.59 126.90 L 187.83 126.98 L 188.07 127.06 L 188.31 127.14 L 188.54 127.22 L 188.78 127.30 L 189.02 127.37 L 189.25 127.45 L 189.49 127.53 L 189.73 127.61 L 189.96 127.68 L 190.20 127.76 L 190.44 127.84 L 190.67 127.91 L 190.91 127.99 L 191.15 128.06 L 191.38 128.14 L 191.62 128.21 L 191.86 128.29 L 192.10 128.36 L 192.33 128.43 L 192.57 128.51 L 192.81 128.58 L 193.04 128.66 L 193.28 128.73 L 193.52 128.80 L 193.75 128.87 L 193.99 128.95 L 194.23 129.02 L 194.46 129.09 L 194.70 129.16 L 194.94 129.23 L 195.17 129.30 L 195.41 129.37 L 195.65 129.44 L 195.88 129.51 L 196.12 129.58 L 196.36 129.65 L 196.60 129.72 L 196.83 129.79 L 197.07 129.86 L 197.31 129.93 L 197.54 130.00 L 197.78 130.07 L 198.02 130.14 L 198.25 130.20 L 198.49 130.27 L 198.73 130.34 L 198.96 130.41 L 199.20 130.47 L 199.44 130.54 L 199.67 130.61 L 199.91 130.67 L 200.15 130.74 L 200.39 130.80 L 200.62 130.87 L 200.86 130.93 L 201.10 131.00 L 201.33 131.06 L 201.57 131.13 L 201.81 131.19 L 202.04 131.26 L 202.28 131.32 L 202.52 131.38 L 202.75 131.45 L 202.99 131.51 L 203.23 131.57 L 203.46 131.64 L 203.70 131.70 L 203.94 131.76 L 204.18 131.82 L 204.41 131.89 L 204.65 131.95 L 204.89 132.01 L 205.12 132.07 L 205.36 132.13 L 205.60 132.19 L 205.83 132.25 L 206.07 132.31 L 206.31 132.37 L 206.54 132.43 L 206.78 132.49 L 207.02 132.55 L 207.25 132.61 L 207.49 132.67 L 207.73 132.73 L 207.96 132.79 L 208.20 132.85 L 208.44 132.91 L 208.68 132.97 L 208.91 133.02 L 209.15 133.08 L 209.39 133.14 L 209.62 133.20 L 209.86 133.25 L 210.10 133.31 L 210.33 133.37 L 210.57 133.43 L 210.81 133.48 L 211.04 133.54 L 211.28 133.59 L 211.52 133.65 L 211.75 133.71 L 211.99 133.76 L 212.23 133.82 L 212.47 133.87 L 212.70 133.93 L 212.94 133.98 L 213.18 134.04 L 213.41 134.09 L 213.65 134.15 L 213.89 134.20 L 214.12 134.25 L 214.36 134.31 L 214.60 134.36 L 214.83 134.41 L 215.07 134.47 L 215.31 134.52 L 215.54 134.57 L 215.78 134.63 L 216.02 134.68 L 216.26 134.73 L 216.49 134.78 L 216.73 134.84 L 216.97 134.89 L 217.20 134.94 L 217.44 134.99 L 217.68 135.04 L 217.91 135.09 L 218.15 135.14 L 218.39 135.19 L 218.62 135.25 L 218.86 135.30 L 219.10 135.35 L 219.33 135.40 L 219.57 135.45 L 219.81 135.50 L 220.05 135.55 L 220.28 135.60 L 220.52 135.64 L 220.76 135.69 L 220.99 135.74 L 221.23 135.79 L 221.47 135.84 L 221.70 135.89 L 221.94 135.94 L 222.18 135.99 L 222.41 136.03 L 222.65 136.08 L 222.89 136.13 L 223.12 136.18 L 223.36 136.22 L 223.60 136.27 L 223.83 136.32 L 224.07 136.37 L 224.31 136.41 L 224.55 136.46 L 224.78 136.51 L 225.02 136.55 L 225.26 136.60 L 225.49 136.65 L 225.73 136.69 L 225.97 136.74 L 226.20 136.78 L 226.44 136.83 L 226.68 136.87 L 226.91 136.92 L 227.15 136.96 L 227.39 137.01 L 227.62 137.05 L 227.86 137.10 L 228.10 137.14 L 228.34 137.19 L 228.57 137.23 L 228.81 137.28 L 229.05 137.32 L 229.28 137.36 L 229.52 137.41 L 229.76 137.45 L 229.99 137.49 L 230.23 137.54 L 230.47 137.58 L 230.70 137.62 L 230.94 137.67 L 231.18 137.71 L 231.41 137.75 L 231.65 137.79 L 231.89 137.84 L 232.13 137.88 L 232.36 137.92 L 232.60 137.96 L 232.84 138.00 L 233.07 138.04 L 233.31 138.09 L 233.55 138.13 L 233.78 138.17 L 234.02 138.21 L 234.26 138.25 L 234.49 138.29 L 234.73 138.33 L 234.97 138.37 L 235.20 138.41 L 235.44 138.45 L 235.68 138.49 L 235.91 138.53 L 236.15 138.57 L 236.39 138.61 L 236.63 138.65 L 236.86 138.69 L 237.10 138.73 L 237.34 138.77 L 237.57 138.81 L 237.81 138.85 L 238.05 138.89 L 238.28 138.93 L 238.52 138.97 L 238.76 139.01 L 238.99 139.04 L 239.23 139.08 L 239.47 139.12 L 239.70 139.16 L 239.94 139.20 L 240.18 139.23 L 240.42 139.27 L 240.65 139.31 L 240.89 139.35 L 241.13 139.38 L 241.36 139.42 L 241.60 139.46 L 241.84 139.50 L 242.07 139.53 L 242.31 139.57 L 242.55 139.61 L 242.78 139.64 L 243.02 139.68 L 243.26 139.72 L 243.49 139.75 L 243.73 139.79 L 243.97 139.82 L 244.21 139.86 L 244.44 139.90 L 244.68 139.93 L 244.92 139.97 L 245.15 140.00 L 245.39 140.04 L 245.63 140.07 L 245.86 140.11 L 246.10 140.14 L 246.34 140.18 L 246.57 140.21 L 246.81 140.25 L 247.05 140.28 L 247.28 140.32 L 247.52 140.35 L 247.76 140.39 L 247.99 140.42 L 248.23 140.46 L 248.47 140.49 L 248.71 140.52 L 248.94 140.56 L 249.18 140.59 L 249.42 140.62 L 249.65 140.66 L 249.89 140.69 L 250.13 140.73 L 250.36 140.76 L 250.60 140.79 L 250.84 140.82 L 251.07 140.86 L 251.31 140.89 L 251.55 140.92 L 251.78 140.96 L 252.02 140.99 L 252.26 141.02 L 252.50 141.05 L 252.73 141.08 L 252.97 141.12 L 253.21 141.15 L 253.44 141.18 L 253.68 141.21 L 253.92 141.24 L 254.15 141.28 L 254.39 141.31 L 254.63 141.34 L 254.86 141.37 L 255.10 141.40 L 255.34 141.43 L 255.57 141.46 L 255.81 141.50 L 256.05 141.53 L 256.29 141.56 L 256.52 141.59 L 256.76 141.62 L 257.00 141.65 L 257.23 141.68 L 257.47 141.71 L 257.71 141.74 L 257.94 141.77 L 258.18 141.80 L 258.42 141.83 L 258.65 141.86 L 258.89 141.89 L 259.13 141.92 L 259.36 141.95 L 259.60 141.98 L 259.84 142.01 L 260.08 142.04 L 260.31 142.07 L 260.55 142.10 L 260.79 142.13 L 261.02 142.15 L 261.26 142.18 L 261.50 142.21 L 261.73 142.24 L 261.97 142.27 L 262.21 142.30 L 262.44 142.33 L 262.68 142.36 L 262.92 142.38 L 263.15 142.41 L 263.39 142.44 L 263.63 142.47 L 263.86 142.50 L 264.10 142.52 L 264.34 142.55 L 264.58 142.58 L 264.81 142.61 L 265.05 142.64 L 265.29 142.66 L 265.52 142.69 L 265.76 142.72 L 266.00 142.75 L 266.23 142.77 L 266.47 142.80 L 266.71 142.83 L 266.94 142.85 L 267.18 142.88 L 267.42 142.91 L 267.65 142.93 L 267.89 142.96 L 268.13 142.99 L 268.37 143.01 L 268.60 143.04 L 268.84 143.07 L 269.08 143.09 L 269.31 143.12 L 269.55 143.15 L 269.79 143.17 L 270.02 143.20 L 270.26 143.22 L 270.50 143.25 L 270.73 143.28 L 270.97 143.30 L 271.21 143.33 L 271.44 143.35 L 271.68 143.38 L 271.92 143.40 L 272.16 143.43 L 272.39 143.45 L 272.63 143.48 L 272.87 143.50 L 273.10 143.53 L 273.34 143.55 L 273.58 143.58 L 273.81 143.60 L 274.05 143.63 L 274.29 143.65 L 274.52 143.68 L 274.76 143.70 L 275.00 143.73 L 275.23 143.75 L 275.47 143.78 L 275.71 143.80 L 275.94 143.83 L 276.18 143.85 L 276.42 143.87 L 276.66 143.90 L 276.89 143.92 L 277.13 143.95 L 277.37 143.97 L 277.60 143.99 L 277.84 144.02 L 278.08 144.04 L 278.31 144.06 L 278.55 144.09 L 278.79 144.11 L 279.02 144.13 L 279.26 144.16 L 279.50 144.18 L 279.73 144.20 L 279.97 144.23 L 280.21 144.25 L 280.45 144.27 L 280.68 144.30 L 280.92 144.32 L 281.16 144.34 L 281.39 144.36 L 281.63 144.39 L 281.87 144.41 L 282.10 144.43 L 282.34 144.45 L 282.58 144.48 L 282.81 144.50 L 283.05 144.52 L 283.29 144.54 L 283.52 144.57 L 283.76 144.59 L 284.00 144.61 L 284.24 144.63 L 284.47 144.65 L 284.71 144.68 L 284.95 144.70 L 285.18 144.72 L 285.42 144.74 L 285.66 144.76 L 285.89 144.78 L 286.13 144.81 L 286.37 144.83 L 286.60 144.85 L 286.84 144.87 L 287.08 144.89 L 287.31 144.91 L 287.55 144.93 L 287.79 144.95 L 288.03 144.97 L 288.26 145.00 L 288.50 145.02 L 288.74 145.04 L 288.97 145.06 L 289.21 145.08 L 289.45 145.10 L 289.68 145.12 L 289.92 145.14 L 290.16 145.16 L 290.39 145.18 L 290.63 145.20 L 290.87 145.22 L 291.10 145.24 L 291.34 145.26 L 291.58 145.28 L 291.81 145.30 L 292.05 145.32 L 292.29 145.34 L 292.53 145.36 L 292.76 145.38 L 293.00 145.40 L 293.24 145.42 L 293.47 145.44 L 293.71 145.46 L 293.95 145.48 L 294.18 145.50 L 294.42 145.52 L 294.66 145.54 L 294.89 145.56 L 295.13 145.58 L 295.37 145.60 L 295.60 145.62 L 295.84 145.64 L 296.08 145.66 L 296.32 145.68 L 296.55 145.69 L 296.79 145.71 L 297.03 145.73 L 297.26 145.75 L 297.50 145.77 L 297.74 145.79 L 297.97 145.81 L 298.21 145.83 L 298.45 145.85 L 298.68 145.86 L 298.92 145.88 L 299.16 145.90 L 299.39 145.92 L 299.63 145.94 L 299.87 145.96 L 300.11 145.97 L 300.34 145.99 L 300.58 146.01 L 300.82 146.03 L 301.05 146.05 L 301.29 146.06 L 301.53 146.08 L 301.76 146.10 L 302.00 146.12" fill="none" stroke="#7E8692" stroke-width="2.3" stroke-linecap="round" stroke-linejoin="round"/>
</svg>
