<svg xmlns="http://www.w3.org/2000/svg" viewBox="0 0 320 180" width="320" height="180">
  <rect width="320" height="180" fill="#F4F5F7"/>
  <path d="M 18.00 -102.00 L 18.32 -100.30 L 18.63 -98.61 L 18.95 -96.93 L 19.26 -95.26 L 19.58 -93.60 L 19.90 -91.95 L 20.21 -90.32 L 20.53 -88.69 L 20.84 -87.08 L 21.16 -85.48 L 21.47 -83.88 L 21.79 -82.30 L 22.11 -80.73 L 22.42 -79.17 L 22.74 -77.63 L 23.05 -76.09 L 23.37 -74.56 L 23.69 -73.04 L 24.00 -71.54 L 24.32 -70.04 L 24.63 -68.56 L 24.95 -67.08 L 25.27 -65.62 L 25.58 -64.16 L 25.90 -62.72 L 26.21 -61.29 L 26.53 -59.86 L 26.85 -58.45 L 27.16 -57.04 L 27.48 -55.65 L 27.79 -54.27 L 28.11 -52.89 L 28.42 -51.53 L 28.74 -50.17 L 29.06 -48.83 L 29.37 -47.49 L 29.69 -46.17 L 30.00 -44.85 L 30.32 -43.55 L 30.64 -42.25 L 30.95 -40.96 L 31.27 -39.69 L 31.58 -38.42 L 31.90 -37.16 L 32.22 -35.91 L 32.53 -34.67 L 32.85 -33.44 L 33.16 -32.22 L 33.48 -31.00 L 33.80 -29.80 L 34.11 -28.60 L 34.43 -27.42 L 34.74 -26.24 L 35.06 -25.07 L 35.37 -23.91 L 35.69 -22.76 L 36.01 -21.62 L 36.32 -20.49 L 36.64 -19.36 L 36.95 -18.25 L 37.27 -17.14 L 37.59 -16.04 L 37.90 -14.95 L 38.22 -13.87 L 38.53 -12.79 L 38.85 -11.73 L 39.17 -10.67 L 39.48 -9.62 L 39.80 -8.58 L 40.11 -7.55 L 40.43 -6.53 L 40.75 -5.51 L 41.06 -4.50 L 41.38 -3.50 L 41.69 -2.51 L 42.01 -1.53 L 42.32 -0.55 L 42.64 0.42 L 42.96 1.38 L 43.27 2.33 L 43.59 3.28 L 43.90 4.21 L 44.22 5.14 L 44.54 6.07 L 44.85 6.98 L 45.17 7.89 L 45.48 8.79 L 45.80 9.68 L 46.12 10.57 L 46.43 11.44 L 46.75 12.31 L 47.06 13.18 L 47.38 14.03 L 47.70 14.88 L 48.01 15.72 L 48.33 16.56 L 48.64 17.39 L 48.96 18.21 L 49.27 19.02 L 49.59 19.83 L 49.91 20.63 L 50.22 21.42 L 50.54 22.21 L 50.85 22.98 L 51.17 23.76 L 51.49 24.52 L 51.80 25.28 L 52.12 26.03 L 52.43 26.78 L 52.75 27.52 L 53.07 28.25 L 53.38 28.98 L 53.70 29.70 L 54.01 30.41 L 54.33 31.12 L 54.65 31.82 L 54.96 32.52 L 55.28 33.20 L 55.59 33.89 L 55.91 34.56 L 56.22 35.23 L 56.54 35.90 L 56.86 36.55 L 57.17 37.21 L 57.49 37.85 L 57.80 38.49 L 58.12 39.13 L 58.44 39.75 L 58.75 40.38 L 59.07 40.99 L 59.38 41.60 L 59.70 42.21 L 60.02 42.81 L 60.33 43.40 L 60.65 43.99 L 60.96 44.57 L 61.28 45.15 L 61.60 45.72 L 61.91 46.29 L 62.23 46.85 L 62.54 47.40 L 62.86 47.95 L 63.17 48.49 L 63.49 49.03 L 63.81 49.57 L 64.12 50.10 L 64.44 50.62 L 64.75 51.14 L 65.07 51.65 L 65.39 52.16 L 65.70 52.66 L 66.02 53.16 L 66.33 53.65 L 66.65 54.14 L 66.97 54.62 L 67.28 55.10 L 67.60 55.57 L 67.91 56.04 L 68.23 56.51 L 68.55 56.96 L 68.86 57.42 L 69.18 57.87 L 69.49 58.31 L 69.81 58.75 L 70.12 59.19 L 70.44 59.62 L 70.76 60.05 L 71.07 60.47 L 71.39 60.89 L 71.70 61.30 L 72.02 61.71 L 72.34 62.11 L 72.65 62.51 L 72.97 62.91 L 73.28 63.30 L 73.60 63.68 L 73.92 64.07 L 74.23 64.45 L 74.55 64.82 L 74.86 65.19 L 75.18 65.56 L 75.49 65.92 L 75.81 66.28 L 76.13 66.63 L 76.44 66.98 L 76.76 67.33 L 77.07 67.67 L 77.39 68.01 L 77.71 68.34 L 78.02 68.67 L 78.34 69.00 L 78.65 69.32 L 78.97 69.64 L 79.29 69.96 L 79.60 70.27 L 79.92 70.58 L 80.23 70.88 L 80.55 71.18 L 80.87 71.48 L 81.18 71.78 L 81.50 72.07 L 81.81 72.35 L 82.13 72.64 L 82.44 72.92 L 82.76 73.19 L 83.08 73.47 L 83.39 73.74 L 83.71 74.00 L 84.02 74.27 L 84.34 74.53 L 84.66 74.78 L 84.97 75.04 L 85.29 75.29 L 85.60 75.53 L 85.92 75.78 L 86.24 76.02 L 86.55 76.26 L 86.87 76.49 L 87.18 76.72 L 87.50 76.95 L 87.82 77.18 L 88.13 77.40 L 88.45 77.62 L 88.76 77.84 L 89.08 78.05 L 89.39 78.26 L 89.71 78.47 L 90.03 78.68 L 90.34 78.88 L 90.66 79.08 L 90.97 79.28 L 91.29 79.48 L 91.61 79.67 L 91.92 79.86 L 92.24 80.04 L 92.55 80.23 L 92.87 80.41 L 93.19 80.59 L 93.50 80.77 L 93.82 80.94 L 94.13 81.11 L 94.45 81.28 L 94.77 81.45 L 95.08 81.61 L 95.40 81.77 L 95.71 81.93 L 96.03 82.09 L 96.34 82.25 L 96.66 82.40 L 96.98 82.55 L 97.29 82.70 L 97.61 82.84 L 97.92 82.99 L 98.24 83.13 L 98.56 83.27 L 98.87 83.41 L 99.19 83.54 L 99.50 83.68 L 99.82 83.81 L 100.14 83.94 L 100.45 84.06 L 100.77 84.19 L 101.08 84.31 L 101.40 84.43 L 101.72 84.55 L 102.03 84.67 L 102.35 84.78 L 102.66 84.90 L 102.98 85.01 L 103.29 85.12 L 103.61 85.23 L 103.93 85.33 L 104.24 85.44 L 104.56 85.54 L 104.87 85.64 L 105.19 85.74 L 105.51 85.84 L 105.82 85.93 L 106.14 86.03 L 106.45 86.12 L 106.77 86.21 L 107.09 86.30 L 107.40 86.39 L 107.72 86.47 L 108.03 86.56 L 108.35 86.64 L 108.67 86.72 L 108.98 86.80 L 109.30 86.88 L 109.61 86.96 L 109.93 87.03 L 110.24 87.11 L 110.56 87.18 L 110.88 87.25 L 111.19 87.32 L 111.51 87.39 L 111.82 87.46 L 112.14 87.52 L 112.46 87.59 L 112.77 87.65 L 113.09 87.71 L 113.40 87.77 L 113.72 87.83 L 114.04 87.89 L 114.35 87.95 L 114.67 88.01 L 114.98 88.06 L 115.30 88.11 L 115.62 88.17 L 115.93 88.22 L 116.25 88.27 L 116.56 88.32 L 116.88 88.37 L 117.19 88.41 L 117.51 88.46 L 117.83 88.51 L 118.14 88.55 L 118.46 88.59 L 118.77 88.64 L 119.09 88.68 L 119.41 88.72 L 119.72 88.76 L 120.04 88.80 L 120.35 88.83 L 120.67 88.87 L 120.99 88.91 L 121.30 88.94 L 121.62 88.98 L 121.93 89.01 L 122.25 89.04 L 122.57 89.07 L 122.88 89.10 L 123.20 89.13 L 123.51 89.16 L 123.83 89.19 L 124.14 89.22 L 124.46 89.25 L 124.78 89.27 L 125.09 89.30 L 125.41 89.32 L 125.72 89.35 L 126.04 89.37 L 126.36 89.39 L 126.67 89.42 L 126.99 89.44 L 127.30 89.46 L 127.62 89.48 L 127.94 89.50 L 128.25 89.52 L 128.57 89.54 L 128.88 89.56 L 129.20 89.57 L 129.52 89.59 L 129.83 89.61 L 130.15 89.62 L 130.46 89.64 L 130.78 89.66 L 131.09 89.67 L 131.41 89.68 L 131.73 89.70 L 132.04 89.71 L 132.36 89.72 L 132.67 89.74 L 132.99 89.75 L 133.31 89.76 L 133.62 89.77 L 133.94 89.78 L 134.25 89.79 L 134.57 89.80 L 134.89 89.81 L 135.20 89.82 L 135.52 89.83 L 135.83 89.84 L 136.15 89.85 L 136.46 89.86 L 136.78 89.86 L 137.10 89.87 L 137.41 89.88 L 137.73 89.88 L 138.04 89.89 L 138.36 89.90 L 138.68 89.90 L 138.99 89.91 L 139.31 89.91 L 139.62 89.92 L 139.94 89.92 L 140.26 89.93 L 140.57 89.93 L 140.89 89.94 L 141.20 89.94 L 141.52 89.94 L 141.84 89.95 L 142.15 89.95 L 142.47 89.96 L 142.78 89.96 L 143.10 89.96 L 143.41 89.96 L 143.73 89.97 L 144.05 89.97 L 144.36 89.97 L 144.68 89.97 L 144.99 89.98 L 145.31 89.98 L 145.63 89.98 L 145.94 89.98 L 146.26 89.98 L 146.57 89.98 L 146.89 89.99 L 147.21 89.99 L 147.52 89.99 L 147.84 89.99 L 148.15 89.99 L 148.47 89.99 L 148.79 89.99 L 149.10 89.99 L 149.42 89.99 L 149.73 89.99 L 150.05 90.00 L 150.36 90.00 L 150.68 90.00 L 151.00 90.00 L 151.31 90.00 L 151.63 90.00 L 151.94 90.00 L 152.26 90.00 L 152.58 90.00 L 152.89 90.00 L 153.21 90.00 L 153.52 90.00 L 153.84 90.00 L 154.16 90.00 L 154.47 90.00 L 154.79 90.00 L 155.10 90.00 L 155.42 90.00 L 155.74 90.00 L 156.05 90.00 L 156.37 90.00 L 156.68 90.00 L 157.00 90.00 L 157.31 90.00 L 157.63 90.00 L 157.95 90.00 L 158.26 90.00 L 158.58 90.00 L 158.89 90.00 L 159.21 90.00 L 159.53 90.00 L 159.84 90.00 L 160.16 90.00 L 160.47 90.00 L 160.79 90.00 L 161.11 90.00 L 161.42 90.00 L 161.74 90.00 L 162.05 90.00 L 162.37 90.00 L 162.69 90.00 L 163.00 90.00 L 163.32 90.00 L 163.63 90.00 L 163.95 90.00 L 164.26 90.00 L 164.58 90.00 L 164.90 90.00 L 165.21 90.00 L 165.53 90.00 L 165.84 90.00 L 166.16 90.00 L 166.48 90.00 L 166.79 90.00 L 167.11 90.00 L 167.42 90.00 L 167.74 90.00 L 168.06 90.00 L 168.37 90.00 L 168.69 90.00 L 169.00 90.00 L 169.32 90.00 L 169.64 90.00 L 169.95 90.00 L 170.27 89.99 L 170.58 89.99 L 170.90 89.99 L 171.21 89.99 L 171.53 89.99 L 171.85 89.99 L 172.16 89.99 L 172.48 89.99 L 172.79 89.99 L 173.11 89.99 L 173.43 89.98 L 173.74 89.98 L 174.06 89.98 L 174.37 89.98 L 174.69 89.98 L 175.01 89.98 L 175.32 89.97 L 175.64 89.97 L 175.95 89.97 L 176.27 89.97 L 176.59 89.96 L 176.90 89.96 L 177.22 89.96 L 177.53 89.96 L 177.85 89.95 L 178.16 89.95 L 178.48 89.94 L 178.80 89.94 L 179.11 89.94 L 179.43 89.93 L 179.74 89.93 L 180.06 89.92 L 180.38 89.92 L 180.69 89.91 L 181.01 89.91 L 181.32 89.90 L 181.64 89.90 L 181.96 89.89 L 182.27 89.88 L 182.59 89.88 L 182.90 89.87 L 183.22 89.86 L 183.54 89.86 L 183.85 89.85 L 184.17 89.84 L 184.48 89.83 L 184.80 89.82 L 185.11 89.81 L 185.43 89.80 L 185.75 89.79 L 186.06 89.78 L 186.38 89.77 L 186.69 89.76 L 187.01 89.75 L 187.33 89.74 L 187.64 89.72 L 187.96 89.71 L 188.27 89.70 L 188.59 89.68 L 188.91 89.67 L 189.22 89.66 L 189.54 89.64 L 189.85 89.62 L 190.17 89.61 L 190.48 89.59 L 190.80 89.57 L 191.12 89.56 L 191.43 89.54 L 191.75 89.52 L 192.06 89.50 L 192.38 89.48 L 192.70 89.46 L 193.01 89.44 L 193.33 89.42 L 193.64 89.39 L 193.96 89.37 L 194.28 89.35 L 194.59 89.32 L 194.91 89.30 L 195.22 89.27 L 195.54 89.25 L 195.86 89.22 L 196.17 89.19 L 196.49 89.16 L 196.80 89.13 L 197.12 89.10 L 197.43 89.07 L 197.75 89.04 L 198.07 89.01 L 198.38 88.98 L 198.70 88.94 L 199.01 88.91 L 199.33 88.87 L 199.65 88.83 L 199.96 88.80 L 200.28 88.76 L 200.59 88.72 L 200.91 88.68 L 201.23 88.64 L 201.54 88.59 L 201.86 88.55 L 202.17 88.51 L 202.49 88.46 L 202.81 88.41 L 203.12 88.37 L 203.44 88.32 L 203.75 88.27 L 204.07 88.22 L 204.38 88.17 L 204.70 88.11 L 205.02 88.06 L 205.33 88.01 L 205.65 87.95 L 205.96 87.89 L 206.28 87.83 L 206.60 87.77 L 206.91 87.71 L 207.23 87.65 L 207.54 87.59 L 207.86 87.52 L 208.18 87.46 L 208.49 87.39 L 208.81 87.32 L 209.12 87.25 L 209.44 87.18 L 209.76 87.11 L 210.07 87.03 L 210.39 86.96 L 210.70 86.88 L 211.02 86.80 L 211.33 86.72 L 211.65 86.64 L 211.97 86.56 L 212.28 86.47 L 212.60 86.39 L 212.91 86.30 L 213.23 86.21 L 213.55 86.12 L 213.86 86.03 L 214.18 85.93 L 214.49 85.84 L 214.81 85.74 L 215.13 85.64 L 215.44 85.54 L 215.76 85.44 L 216.07 85.33 L 216.39 85.23 L 216.71 85.12 L 217.02 85.01 L 217.34 84.90 L 217.65 84.78 L 217.97 84.67 L 218.28 84.55 L 218.60 84.43 L 218.92 84.31 L 219.23 84.19 L 219.55 84.06 L 219.86 83.94 L 220.18 83.81 L 220.50 83.68 L 220.81 83.54 L 221.13 83.41 L 221.44 83.27 L 221.76 83.13 L 222.08 82.99 L 222.39 82.84 L 222.71 82.70 L 223.02 82.55 L 223.34 82.40 L 223.66 82.25 L 223.97 82.09 L 224.29 81.93 L 224.60 81.77 L 224.92 81.61 L 225.23 81.45 L 225.55 81.28 L 225.87 81.11 L 226.18 80.94 L 226.50 80.77 L 226.81 80.59 L 227.13 80.41 L 227.45 80.23 L 227.76 80.04 L 228.08 79.86 L 228.39 79.67 L 228.71 79.48 L 229.03 79.28 L 229.34 79.08 L 229.66 78.88 L 229.97 78.68 L 230.29 78.47 L 230.61 78.26 L 230.92 78.05 L 231.24 77.84 L 231.55 77.62 L 231.87 77.40 L 232.18 77.18 L 232.50 76.95 L 232.82 76.72 L 233.13 76.49 L 233.45 76.26 L 233.76 76.02 L 234.08 75.78 L 234.40 75.53 L 234.71 75.29 L 235.03 75.04 L 235.34 74.78 L 235.66 74.53 L 235.98 74.27 L 236.29 74.00 L 236.61 73.74 L 236.92 73.47 L 237.24 73.19 L 237.56 72.92 L 237.87 72.64 L 238.19 72.35 L 238.50 72.07 L 238.82 71.78 L 239.13 71.48 L 239.45 71.18 L 239.77 70.88 L 240.08 70.58 L 240.40 70.27 L 240.71 69.96 L 241.03 69.64 L 241.35 69.32 L 241.66 69.00 L 241.98 68.67 L 242.29 68.34 L 242.61 68.01 L 242.93 67.67 L 243.24 67.33 L 243.56 66.98 L 243.87 66.63 L 244.19 66.28 L 244.51 65.92 L 244.82 65.56 L 245.14 65.19 L 245.45 64.82 L 245.77 64.45 L 246.08 64.07 L 246.40 63.68 L 246.72 63.30 L 247.03 62.91 L 247.35 62.51 L 247.66 62.11 L 247.98 61.71 L 248.30 61.30 L 248.61 60.89 L 248.93 60.47 L 249.24 60.05 L 249.56 59.62 L 249.88 59.19 L 250.19 58.75 L 250.51 58.31 L 250.82 57.87 L 251.14 57.42 L 251.45 56.96 L 251.77 56.51 L 252.09 56.04 L 252.40 55.57 L 252.72 55.10 L 253.03 54.62 L 253.35 54.14 L 253.67 53.65 L 253.98 53.16 L 254.30 52.66 L 254.61 52.16 L 254.93 51.65 L 255.25 51.14 L 255.56 50.62 L 255.88 50.10 L 256.19 49.57 L 256.51 49.03 L 256.83 48.49 L 257.14 47.95 L 257.46 47.40 L 257.77 46.85 L 258.09 46.29 L 258.40 45.72 L 258.72 45.15 L 259.04 44.57 L 259.35 43.99 L 259.67 43.40 L 259.98 42.81 L 260.30 42.21 L 260.62 41.60 L 260.93 40.99 L 261.25 40.38 L 261.56 39.75 L 261.88 39.13 L 262.20 38.49 L 262.51 37.85 L 262.83 37.21 L 263.14 36.55 L 263.46 35.90 L 263.78 35.23 L 264.09 34.56 L 264.41 33.89 L 264.72 33.20 L 265.04 32.52 L 265.35 31.82 L 265.67 31.12 L 265.99 30.41 L 266.30 29.70 L 266.62 28.98 L 266.93 28.25 L 267.25 27.52 L 267.57 26.78 L 267.88 26.03 L 268.20 25.28 L 268.51 24.52 L 268.83 23.76 L 269.15 22.98 L 269.46 22.21 L 269.78 21.42 L 270.09 20.63 L 270.41 19.83 L 270.73 19.02 L 271.04 18.21 L 271.36 17.39 L 271.67 16.56 L 271.99 15.72 L 272.30 14.88 L 272.62 14.03 L 272.94 13.18 L 273.25 12.31 L 273.57 11.44 L 273.88 10.57 L 274.20 9.68 L 274.52 8.79 L 274.83 7.89 L 275.15 6.98 L 275.46 6.07 L 275.78 5.14 L 276.10 4.21 L 276.41 3.28 L 276.73 2.33 L 277.04 1.38 L 277.36 0.42 L 277.68 -0.55 L 277.99 -1.53 L 278.31 -2.51 L 278.62 -3.50 L 278.94 -4.50 L 279.25 -5.51 L 279.57 -6.53 L 279.89 -7.55 L 280.20 -8.58 L 280.52 -9.62 L 280.83 -10.67 L 281.15 -11.73 L 281.47 -12.79 L 281.78 -13.87 L 282.10 -14.95 L 282.41 -16.04 L 282.73 -17.14 L 283.05 -18.25 L 283.36 -19.36 L 283.68 -20.49 L 283.99 -21.62 L 284.31 -22.76 L 284.63 -23.91 L 284.94 -25.07 L 285.26 -26.24 L 285.57 -27.42 L 285.89 -28.60 L 286.20 -29.80 L 286.52 -31.00 L 286.84 -32.22 L 287.15 -33.44 L 287.47 -34.67 L 287.78 -35.91 L 288.10 -37.16 L 288.42 -38.42 L 288.73 -39.69 L 289.05 -40.96 L 289.36 -42.25 L 289.68 -43.55 L 290.00 -44.85 L 290.31 -46.17 L 290.63 -47.49 L 290.94 -48.83 L 291.26 -50.17 L 291.58 -51.53 L 291.89 -52.89 L 292.21 -54.27 L 292.52 -55.65 L 292.84 -57.04 L 293.15 -58.45 L 293.47 -59.86 L 293.79 -61.29 L 294.10 -62.72 L 294.42 -64.16 L 294.73 -65.62 L 295.05 -67.08 L 295.37 -68.56 L 295.68 -70.04 L 296.00 -71.54 L 296.31 -73.04 L 296.63 -74.56 L 296.95 -76.09 L 297.26 -77.63 L 297.58 -79.17 L 297.89 -80.73 L 298.21 -82.30 L 298.53 -83.88 L 298.84 -85.48 L 299.16 -87.08 L 299.47 -88.69 L 299.79 -90.32 L 300.10 -91.95 L 300.42 -93.60 L 300.74 -95.26 L 301.05 -96.93 L 301.37 -98.61 L 301.68 -100.30 L 302.00 -102.00" fill="none" stroke="#7E8692" stroke-width="2.3" stroke-linecap="round" stroke-linejoin="round"/>
</svg>
