<svg xmlns="http://www.w3.org/2000/svg" viewBox="0 0 320 180" width="320" height="180">
  <rect width="320" height="180" fill="#F4F5F7"/>
  <path d="M 24.00 40.38 L 24.30 40.62 L 24.61 40.87 L 24.91 41.11 L 25.21 41.36 L 25.51 41.60 L 25.82 41.85 L 26.12 42.10 L 26.42 42.34 L 26.72 42.59 L 27.03 42.83 L 27.33 43.08 L 27.63 43.32 L 27.93 43.57 L 28.24 43.81 L 28.54 44.06 L 28.84 44.30 L 29.14 44.55 L 29.45 44.79 L 29.75 45.04 L 30.05 45.28 L 30.35 45.53 L 30.66 45.78 L 30.96 46.02 L 31.26 46.27 L 31.56 46.51 L 31.87 46.76 L 32.17 47.00 L 32.47 47.25 L 32.77 47.49 L 33.08 47.74 L 33.38 47.98 L 33.68 48.23 L 33.98 48.47 L 34.29 48.72 L 34.59 48.96 L 34.89 49.21 L 35.19 49.46 L 35.50 49.70 L 35.80 49.95 L 36.10 50.19 L 36.40 50.44 L 36.71 50.68 L 37.01 50.93 L 37.31 51.17 L 37.62 51.42 L 37.92 51.66 L 38.22 51.91 L 38.52 52.15 L 38.83 52.40 L 39.13 52.64 L 39.43 52.89 L 39.73 53.13 L 40.04 53.38 L 40.34 53.63 L 40.64 53.87 L 40.94 54.12 L 41.25 54.36 L 41.55 54.61 L 41.85 54.85 L 42.15 55.10 L 42.46 55.34 L 42.76 55.59 L 43.06 55.83 L 43.36 56.08 L 43.67 56.32 L 43.97 56.57 L 44.27 56.81 L 44.57 57.06 L 44.88 57.31 L 45.18 57.55 L 45.48 57.80 L 45.78 58.04 L 46.09 58.29 L 46.39 58.53 L 46.69 58.78 L 46.99 59.02 L 47.30 59.27 L 47.60 59.51 L 47.90 59.76 L 48.20 60.00 L 48.51 60.25 L 48.81 60.49 L 49.11 60.74 L 49.41 60.99 L 49.72 61.23 L 50.02 61.48 L 50.32 61.72 L 50.63 61.97 L 50.93 62.21 L 51.23 62.46 L 51.53 62.70 L 51.84 62.95 L 52.14 63.19 L 52.44 63.44 L 52.74 63.68 L 53.05 63.93 L 53.35 64.17 L 53.65 64.42 L 53.95 64.66 L 54.26 64.91 L 54.56 65.16 L 54.86 65.40 L 55.16 65.65 L 55.47 65.89 L 55.77 66.14 L 56.07 66.38 L 56.37 66.63 L 56.68 66.87 L 56.98 67.12 L 57.28 67.36 L 57.58 67.61 L 57.89 67.85 L 58.19 68.10 L 58.49 68.34 L 58.79 68.59 L 59.10 68.84 L 59.40 69.08 L 59.70 69.33 L 60.00 69.57 L 60.31 69.82 L 60.61 70.06 L 60.91 70.31 L 61.21 70.55 L 61.52 70.80 L 61.82 71.04 L 62.12 71.29 L 62.42 71.53 L 62.73 71.78 L 63.03 72.02 L 63.33 72.27 L 63.64 72.51 L 63.94 72.76 L 64.24 73.01 L 64.54 73.25 L 64.85 73.50 L 65.15 73.74 L 65.45 73.99 L 65.75 74.23 L 66.06 74.48 L 66.36 74.72 L 66.66 74.97 L 66.96 75.21 L 67.27 75.46 L 67.57 75.70 L 67.87 75.95 L 68.17 76.19 L 68.48 76.44 L 68.78 76.69 L 69.08 76.93 L 69.38 77.18 L 69.69 77.42 L 69.99 77.67 L 70.29 77.91 L 70.59 78.16 L 70.90 78.40 L 71.20 78.65 L 71.50 78.89 L 71.80 79.14 L 72.11 79.38 L 72.41 79.63 L 72.71 79.87 L 73.01 80.12 L 73.32 80.37 L 73.62 80.61 L 73.92 80.86 L 74.22 81.10 L 74.53 81.35 L 74.83 81.59 L 75.13 81.84 L 75.43 82.08 L 75.74 82.33 L 76.04 82.57 L 76.34 82.82 L 76.65 83.06 L 76.95 83.31 L 77.25 83.55 L 77.55 83.80 L 77.86 84.04 L 78.16 84.29 L 78.46 84.54 L 78.76 84.78 L 79.07 85.03 L 79.37 85.27 L 79.67 85.52 L 79.97 85.76 L 80.28 86.01 L 80.58 86.25 L 80.88 86.50 L 81.18 86.74 L 81.49 86.99 L 81.79 87.23 L 82.09 87.48 L 82.39 87.72 L 82.70 87.97 L 83.00 88.22 L 83.30 88.46 L 83.60 88.71 L 83.91 88.95 L 84.21 89.20 L 84.51 89.44 L 84.81 89.69 L 85.12 89.93 L 85.42 90.18 L 85.72 90.42 L 86.02 90.67 L 86.33 90.91 L 86.63 91.16 L 86.93 91.40 L 87.23 91.65 L 87.54 91.90 L 87.84 92.14 L 88.14 92.39 L 88.44 92.63 L 88.75 92.88 L 89.05 93.12 L 89.35 93.37 L 89.66 93.61 L 89.96 93.86 L 90.26 94.10 L 90.56 94.35 L 90.87 94.59 L 91.17 94.84 L 91.47 95.08 L 91.77 95.33 L 92.08 95.57 L 92.38 95.82 L 92.68 96.07 L 92.98 96.31 L 93.29 96.56 L 93.59 96.80 L 93.89 97.05 L 94.19 97.29 L 94.50 97.54 L 94.80 97.78 L 95.10 98.03 L 95.40 98.27 L 95.71 98.52 L 96.01 98.76 L 96.31 99.01 L 96.61 99.25 L 96.92 99.50 L 97.22 99.75 L 97.52 99.99 L 97.82 100.24 L 98.13 100.48 L 98.43 100.73 L 98.73 100.97 L 99.03 101.22 L 99.34 101.46 L 99.64 101.71 L 99.94 101.95 L 100.24 102.20 L 100.55 102.44 L 100.85 102.69 L 101.15 102.93 L 101.45 103.18 L 101.76 103.43 L 102.06 103.67 L 102.36 103.92 L 102.67 104.16 L 102.97 104.41 L 103.27 104.65 L 103.57 104.90 L 103.88 105.14 L 104.18 105.39 L 104.48 105.63 L 104.78 105.88 L 105.09 106.12 L 105.39 106.37 L 105.69 106.61 L 105.99 106.86 L 106.30 107.10 L 106.60 107.35 L 106.90 107.60 L 107.20 107.84 L 107.51 108.09 L 107.81 108.33 L 108.11 108.58 L 108.41 108.82 L 108.72 109.07 L 109.02 109.31 L 109.32 109.56 L 109.62 109.80 L 109.93 110.05 L 110.23 110.29 L 110.53 110.54 L 110.83 110.78 L 111.14 111.03 L 111.44 111.28 L 111.74 111.52 L 112.04 111.77 L 112.35 112.01 L 112.65 112.26 L 112.95 112.50 L 113.25 112.75 L 113.56 112.99 L 113.86 113.24 L 114.16 113.48 L 114.46 113.73 L 114.77 113.97 L 115.07 114.22 L 115.37 114.46 L 115.68 114.71 L 115.98 114.95 L 116.28 115.20 L 116.58 115.45 L 116.89 115.69 L 117.19 115.94 L 117.49 116.18 L 117.79 116.43 L 118.10 116.67 L 118.40 116.92 L 118.70 117.16 L 119.00 117.41 L 119.31 117.65 L 119.61 117.90 L 119.91 118.14 L 120.21 118.39 L 120.52 118.63 L 120.82 118.88 L 121.12 119.13 L 121.42 119.37 L 121.73 119.62 L 122.03 119.86 L 122.33 120.11 L 122.63 120.35 L 122.94 120.60 L 123.24 120.84 L 123.54 121.09 L 123.84 121.33 L 124.15 121.58 L 124.45 121.82 L 124.75 122.07 L 125.05 122.31 L 125.36 122.56 L 125.66 122.81 L 125.96 123.05 L 126.26 123.30 L 126.57 123.54 L 126.87 123.79 L 127.17 124.03 L 127.47 124.28 L 127.78 124.52 L 128.08 124.77 L 128.38 125.01 L 128.69 125.26 L 128.99 125.50 L 129.29 125.75 L 129.59 125.99 L 129.90 126.24 L 130.20 126.48 L 130.50 126.73 L 130.80 126.98 L 131.11 127.22 L 131.41 127.47 L 131.71 127.71 L 132.01 127.96 L 132.32 128.20 L 132.62 128.45 L 132.92 128.69 L 133.22 128.94 L 133.53 129.18 L 133.83 129.43 L 134.13 129.67 L 134.43 129.92 L 134.74 130.16 L 135.04 130.41 L 135.34 130.66 L 135.64 130.90 L 135.95 131.15 L 136.25 131.39 L 136.55 131.64 L 136.85 131.88 L 137.16 132.13 L 137.46 132.37 L 137.76 132.62 L 138.06 132.86 L 138.37 133.11 L 138.67 133.35 L 138.97 133.60 L 139.27 133.84 L 139.58 134.09 L 139.88 134.34 L 140.18 134.58 L 140.48 134.83 L 140.79 135.07 L 141.09 135.32 L 141.39 135.56 L 141.70 135.81 L 142.00 136.05 L 142.30 136.30 L 142.60 136.54 L 142.91 136.79 L 143.21 137.03 L 143.51 137.28 L 143.81 137.52 L 144.12 137.77 L 144.42 138.01 L 144.72 138.26 L 145.02 138.51 L 145.33 138.75 L 145.63 139.00 L 145.93 139.24 L 146.23 139.49 L 146.54 139.73 L 146.84 139.98 L 147.14 140.22 L 147.44 140.47 L 147.75 140.71 L 148.05 140.96 L 148.35 141.20 L 148.65 141.45 L 148.96 141.69 L 149.26 141.94 L 149.56 142.19 L 149.86 142.43 L 150.17 142.68 L 150.47 142.92 L 150.77 143.17 L 151.07 143.41 L 151.38 143.66 L 151.68 143.90 L 151.98 144.15 L 152.28 144.39 L 152.59 144.64 L 152.89 144.88 L 153.19 145.13 L 153.49 145.37 L 153.80 145.62 L 154.10 145.86 L 154.40 146.11 L 154.71 146.36 L 155.01 146.60 L 155.31 146.85 L 155.61 147.09 L 155.92 147.34 L 156.22 147.58 L 156.52 147.83 L 156.82 148.07 L 157.13 148.32 L 157.43 148.56 L 157.73 148.81 L 158.03 149.05 L 158.34 149.30 L 158.64 149.54 L 158.94 149.79 L 159.24 150.04 L 159.55 150.28 L 159.85 150.53 L 160.15 150.53 L 160.45 150.28 L 160.76 150.04 L 161.06 149.79 L 161.36 149.54 L 161.66 149.30 L 161.97 149.05 L 162.27 148.81 L 162.57 148.56 L 162.87 148.32 L 163.18 148.07 L 163.48 147.83 L 163.78 147.58 L 164.08 147.34 L 164.39 147.09 L 164.69 146.85 L 164.99 146.60 L 165.29 146.36 L 165.60 146.11 L 165.90 145.86 L 166.20 145.62 L 166.51 145.37 L 166.81 145.13 L 167.11 144.88 L 167.41 144.64 L 167.72 144.39 L 168.02 144.15 L 168.32 143.90 L 168.62 143.66 L 168.93 143.41 L 169.23 143.17 L 169.53 142.92 L 169.83 142.68 L 170.14 142.43 L 170.44 142.19 L 170.74 141.94 L 171.04 141.69 L 171.35 141.45 L 171.65 141.20 L 171.95 140.96 L 172.25 140.71 L 172.56 140.47 L 172.86 140.22 L 173.16 139.98 L 173.46 139.73 L 173.77 139.49 L 174.07 139.24 L 174.37 139.00 L 174.67 138.75 L 174.98 138.51 L 175.28 138.26 L 175.58 138.01 L 175.88 137.77 L 176.19 137.52 L 176.49 137.28 L 176.79 137.03 L 177.09 136.79 L 177.40 136.54 L 177.70 136.30 L 178.00 136.05 L 178.30 135.81 L 178.61 135.56 L 178.91 135.32 L 179.21 135.07 L 179.52 134.83 L 179.82 134.58 L 180.12 134.34 L 180.42 134.09 L 180.73 133.84 L 181.03 133.60 L 181.33 133.35 L 181.63 133.11 L 181.94 132.86 L 182.24 132.62 L 182.54 132.37 L 182.84 132.13 L 183.15 131.88 L 183.45 131.64 L 183.75 131.39 L 184.05 131.15 L 184.36 130.90 L 184.66 130.66 L 184.96 130.41 L 185.26 130.16 L 185.57 129.92 L 185.87 129.67 L 186.17 129.43 L 186.47 129.18 L 186.78 128.94 L 187.08 128.69 L 187.38 128.45 L 187.68 128.20 L 187.99 127.96 L 188.29 127.71 L 188.59 127.47 L 188.89 127.22 L 189.20 126.98 L 189.50 126.73 L 189.80 126.48 L 190.10 126.24 L 190.41 125.99 L 190.71 125.75 L 191.01 125.50 L 191.31 125.26 L 191.62 125.01 L 191.92 124.77 L 192.22 124.52 L 192.53 124.28 L 192.83 124.03 L 193.13 123.79 L 193.43 123.54 L 193.74 123.30 L 194.04 123.05 L 194.34 122.81 L 194.64 122.56 L 194.95 122.31 L 195.25 122.07 L 195.55 121.82 L 195.85 121.58 L 196.16 121.33 L 196.46 121.09 L 196.76 120.84 L 197.06 120.60 L 197.37 120.35 L 197.67 120.11 L 197.97 119.86 L 198.27 119.62 L 198.58 119.37 L 198.88 119.13 L 199.18 118.88 L 199.48 118.63 L 199.79 118.39 L 200.09 118.14 L 200.39 117.90 L 200.69 117.65 L 201.00 117.41 L 201.30 117.16 L 201.60 116.92 L 201.90 116.67 L 202.21 116.43 L 202.51 116.18 L 202.81 115.94 L 203.11 115.69 L 203.42 115.45 L 203.72 115.20 L 204.02 114.95 L 204.32 114.71 L 204.63 114.46 L 204.93 114.22 L 205.23 113.97 L 205.54 113.73 L 205.84 113.48 L 206.14 113.24 L 206.44 112.99 L 206.75 112.75 L 207.05 112.50 L 207.35 112.26 L 207.65 112.01 L 207.96 111.77 L 208.26 111.52 L 208.56 111.28 L 208.86 111.03 L 209.17 110.78 L 209.47 110.54 L 209.77 110.29 L 210.07 110.05 L 210.38 109.80 L 210.68 109.56 L 210.98 109.31 L 211.28 109.07 L 211.59 108.82 L 211.89 108.58 L 212.19 108.33 L 212.49 108.09 L 212.80 107.84 L 213.10 107.60 L 213.40 107.35 L 213.70 107.10 L 214.01 106.86 L 214.31 106.61 L 214.61 106.37 L 214.91 106.12 L 215.22 105.88 L 215.52 105.63 L 215.82 105.39 L 216.12 105.14 L 216.43 104.90 L 216.73 104.65 L 217.03 104.41 L 217.33 104.16 L 217.64 103.92 L 217.94 103.67 L 218.24 103.43 L 218.55 103.18 L 218.85 102.93 L 219.15 102.69 L 219.45 102.44 L 219.76 102.20 L 220.06 101.95 L 220.36 101.71 L 220.66 101.46 L 220.97 101.22 L 221.27 100.97 L 221.57 100.73 L 221.87 100.48 L 222.18 100.24 L 222.48 99.99 L 222.78 99.75 L 223.08 99.50 L 223.39 99.25 L 223.69 99.01 L 223.99 98.76 L 224.29 98.52 L 224.60 98.27 L 224.90 98.03 L 225.20 97.78 L 225.50 97.54 L 225.81 97.29 L 226.11 97.05 L 226.41 96.80 L 226.71 96.56 L 227.02 96.31 L 227.32 96.07 L 227.62 95.82 L 227.92 95.57 L 228.23 95.33 L 228.53 95.08 L 228.83 94.84 L 229.13 94.59 L 229.44 94.35 L 229.74 94.10 L 230.04 93.86 L 230.34 93.61 L 230.65 93.37 L 230.95 93.12 L 231.25 92.88 L 231.56 92.63 L 231.86 92.39 L 232.16 92.14 L 232.46 91.90 L 232.77 91.65 L 233.07 91.40 L 233.37 91.16 L 233.67 90.91 L 233.98 90.67 L 234.28 90.42 L 234.58 90.18 L 234.88 89.93 L 235.19 89.69 L 235.49 89.44 L 235.79 89.20 L 236.09 88.95 L 236.40 88.71 L 236.70 88.46 L 237.00 88.22 L 237.30 87.97 L 237.61 87.72 L 237.91 87.48 L 238.21 87.23 L 238.51 86.99 L 238.82 86.74 L 239.12 86.50 L 239.42 86.25 L 239.72 86.01 L 240.03 85.76 L 240.33 85.52 L 240.63 85.27 L 240.93 85.03 L 241.24 84.78 L 241.54 84.54 L 241.84 84.29 L 242.14 84.04 L 242.45 83.80 L 242.75 83.55 L 243.05 83.31 L 243.35 83.06 L 243.66 82.82 L 243.96 82.57 L 244.26 82.33 L 244.57 82.08 L 244.87 81.84 L 245.17 81.59 L 245.47 81.35 L 245.78 81.10 L 246.08 80.86 L 246.38 80.61 L 246.68 80.37 L 246.99 80.12 L 247.29 79.87 L 247.59 79.63 L 247.89 79.38 L 248.20 79.14 L 248.50 78.89 L 248.80 78.65 L 249.10 78.40 L 249.41 78.16 L 249.71 77.91 L 250.01 77.67 L 250.31 77.42 L 250.62 77.18 L 250.92 76.93 L 251.22 76.69 L 251.52 76.44 L 251.83 76.19 L 252.13 75.95 L 252.43 75.70 L 252.73 75.46 L 253.04 75.21 L 253.34 74.97 L 253.64 74.72 L 253.94 74.48 L 254.25 74.23 L 254.55 73.99 L 254.85 73.74 L 255.15 73.50 L 255.46 73.25 L 255.76 73.01 L 256.06 72.76 L 256.36 72.51 L 256.67 72.27 L 256.97 72.02 L 257.27 71.78 L 257.58 71.53 L 257.88 71.29 L 258.18 71.04 L 258.48 70.80 L 258.79 70.55 L 259.09 70.31 L 259.39 70.06 L 259.69 69.82 L 260.00 69.57 L 260.30 69.33 L 260.60 69.08 L 260.90 68.84 L 261.21 68.59 L 261.51 68.34 L 261.81 68.10 L 262.11 67.85 L 262.42 67.61 L 262.72 67.36 L 263.02 67.12 L 263.32 66.87 L 263.63 66.63 L 263.93 66.38 L 264.23 66.14 L 264.53 65.89 L 264.84 65.65 L 265.14 65.40 L 265.44 65.16 L 265.74 64.91 L 266.05 64.66 L 266.35 64.42 L 266.65 64.17 L 266.95 63.93 L 267.26 63.68 L 267.56 63.44 L 267.86 63.19 L 268.16 62.95 L 268.47 62.70 L 268.77 62.46 L 269.07 62.21 L 269.37 61.97 L 269.68 61.72 L 269.98 61.48 L 270.28 61.23 L 270.59 60.99 L 270.89 60.74 L 271.19 60.49 L 271.49 60.25 L 271.80 60.00 L 272.10 59.76 L 272.40 59.51 L 272.70 59.27 L 273.01 59.02 L 273.31 58.78 L 273.61 58.53 L 273.91 58.29 L 274.22 58.04 L 274.52 57.80 L 274.82 57.55 L 275.12 57.31 L 275.43 57.06 L 275.73 56.81 L 276.03 56.57 L 276.33 56.32 L 276.64 56.08 L 276.94 55.83 L 277.24 55.59 L 277.54 55.34 L 277.85 55.10 L 278.15 54.85 L 278.45 54.61 L 278.75 54.36 L 279.06 54.12 L 279.36 53.87 L 279.66 53.63 L 279.96 53.38 L 280.27 53.13 L 280.57 52.89 L 280.87 52.64 L 281.17 52.40 L 281.48 52.15 L 281.78 51.91 L 282.08 51.66 L 282.38 51.42 L 282.69 51.17 L 282.99 50.93 L 283.29 50.68 L 283.60 50.44 L 283.90 50.19 L 284.20 49.95 L 284.50 49.70 L 284.81 49.46 L 285.11 49.21 L 285.41 48.96 L 285.71 48.72 L 286.02 48.47 L 286.32 48.23 L 286.62 47.98 L 286.92 47.74 L 287.23 47.49 L 287.53 47.25 L 287.83 47.00 L 288.13 46.76 L 288.44 46.51 L 288.74 46.27 L 289.04 46.02 L 289.34 45.78 L 289.65 45.53 L 289.95 45.28 L 290.25 45.04 L 290.55 44.79 L 290.86 44.55 L 291.16 44.30 L 291.46 44.06 L 291.76 43.81 L 292.07 43.57 L 292.37 43.32 L 292.67 43.08 L 292.97 42.83 L 293.28 42.59 L 293.58 42.34 L 293.88 42.10 L 294.18 41.85 L 294.49 41.60 L 294.79 41.36 L 295.09 41.11 L 295.39 40.87 L 295.70 40.62 L 296.00 40.38" fill="none" stroke="#7E8692" stroke-width="2.3" stroke-linecap="round" stroke-linejoin="round"/>
</svg>
