<svg xmlns="http://www.w3.org/2000/svg" viewBox="0 0 320 180" width="320" height="180">
  <rect width="320" height="180" fill="#F4F5F7"/>
  <path d="M 118.70 22.12 L 119.00 22.66 L 119.31 23.20 L 119.61 23.74 L 119.91 24.27 L 120.21 24.79 L 120.52 25.32 L 120.82 25.83 L 121.12 26.35 L 121.42 26.86 L 121.73 27.36 L 122.03 27.86 L 122.33 28.36 L 122.63 28.85 L 122.94 29.34 L 123.24 29.83 L 123.54 30.31 L 123.84 30.79 L 124.15 31.26 L 124.45 31.73 L 124.75 32.20 L 125.05 32.66 L 125.36 33.12 L 125.66 33.57 L 125.96 34.03 L 126.26 34.47 L 126.57 34.92 L 126.87 35.36 L 127.17 35.80 L 127.47 36.23 L 127.78 36.66 L 128.08 37.09 L 128.38 37.51 L 128.69 37.93 L 128.99 38.35 L 129.29 38.76 L 129.59 39.17 L 129.90 39.58 L 130.20 39.98 L 130.50 40.38 L 130.80 40.78 L 131.11 41.17 L 131.41 41.56 L 131.71 41.95 L 132.01 42.34 L 132.32 42.72 L 132.62 43.10 L 132.92 43.47 L 133.22 43.84 L 133.53 44.21 L 133.83 44.58 L 134.13 44.94 L 134.43 45.30 L 134.74 45.66 L 135.04 46.02 L 135.34 46.37 L 135.64 46.72 L 135.95 47.06 L 136.25 47.41 L 136.55 47.75 L 136.85 48.09 L 137.16 48.42 L 137.46 48.75 L 137.76 49.08 L 138.06 49.41 L 138.37 49.74 L 138.67 50.06 L 138.97 50.38 L 139.27 50.70 L 139.58 51.01 L 139.88 51.32 L 140.18 51.63 L 140.48 51.94 L 140.79 52.24 L 141.09 52.55 L 141.39 52.85 L 141.70 53.14 L 142.00 53.44 L 142.30 53.73 L 142.60 54.02 L 142.91 54.31 L 143.21 54.59 L 143.51 54.88 L 143.81 55.16 L 144.12 55.44 L 144.42 55.71 L 144.72 55.99 L 145.02 56.26 L 145.33 56.53 L 145.63 56.80 L 145.93 57.06 L 146.23 57.33 L 146.54 57.59 L 146.84 57.85 L 147.14 58.11 L 147.44 58.36 L 147.75 58.62 L 148.05 58.87 L 148.35 59.12 L 148.65 59.36 L 148.96 59.61 L 149.26 59.85 L 149.56 60.09 L 149.86 60.33 L 150.17 60.57 L 150.47 60.80 L 150.77 61.04 L 151.07 61.27 L 151.38 61.50 L 151.68 61.73 L 151.98 61.95 L 152.28 62.18 L 152.59 62.40 L 152.89 62.62 L 153.19 62.84 L 153.49 63.06 L 153.80 63.27 L 154.10 63.49 L 154.40 63.70 L 154.71 63.91 L 155.01 64.12 L 155.31 64.33 L 155.61 64.53 L 155.92 64.74 L 156.22 64.94 L 156.52 65.14 L 156.82 65.34 L 157.13 65.54 L 157.43 65.73 L 157.73 65.93 L 158.03 66.12 L 158.34 66.31 L 158.64 66.50 L 158.94 66.69 L 159.24 66.87 L 159.55 67.06 L 159.85 67.24 L 160.15 67.42 L 160.45 67.60 L 160.76 67.78 L 161.06 67.96 L 161.36 68.14 L 161.66 68.31 L 161.97 68.49 L 162.27 68.66 L 162.57 68.83 L 162.87 69.00 L 163.18 69.17 L 163.48 69.33 L 163.78 69.50 L 164.08 69.66 L 164.39 69.83 L 164.69 69.99 L 164.99 70.15 L 165.29 70.31 L 165.60 70.46 L 165.90 70.62 L 166.20 70.78 L 166.51 70.93 L 166.81 71.08 L 167.11 71.23 L 167.41 71.38 L 167.72 71.53 L 168.02 71.68 L 168.32 71.83 L 168.62 71.97 L 168.93 72.12 L 169.23 72.26 L 169.53 72.40 L 169.83 72.54 L 170.14 72.68 L 170.44 72.82 L 170.74 72.96 L 171.04 73.10 L 171.35 73.23 L 171.65 73.36 L 171.95 73.50 L 172.25 73.63 L 172.56 73.76 L 172.86 73.89 L 173.16 74.02 L 173.46 74.15 L 173.77 74.27 L 174.07 74.40 L 174.37 74.53 L 174.67 74.65 L 174.98 74.77 L 175.28 74.89 L 175.58 75.01 L 175.88 75.13 L 176.19 75.25 L 176.49 75.37 L 176.79 75.49 L 177.09 75.60 L 177.40 75.72 L 177.70 75.83 L 178.00 75.95 L 178.30 76.06 L 178.61 76.17 L 178.91 76.28 L 179.21 76.39 L 179.52 76.50 L 179.82 76.61 L 180.12 76.72 L 180.42 76.82 L 180.73 76.93 L 181.03 77.03 L 181.33 77.14 L 181.63 77.24 L 181.94 77.34 L 182.24 77.44 L 182.54 77.54 L 182.84 77.64 L 183.15 77.74 L 183.45 77.84 L 183.75 77.94 L 184.05 78.03 L 184.36 78.13 L 184.66 78.22 L 184.96 78.32 L 185.26 78.41 L 185.57 78.51 L 185.87 78.60 L 186.17 78.69 L 186.47 78.78 L 186.78 78.87 L 187.08 78.96 L 187.38 79.05 L 187.68 79.13 L 187.99 79.22 L 188.29 79.31 L 188.59 79.39 L 188.89 79.48 L 189.20 79.56 L 189.50 79.65 L 189.80 79.73 L 190.10 79.81 L 190.41 79.89 L 190.71 79.97 L 191.01 80.05 L 191.31 80.13 L 191.62 80.21 L 191.92 80.29 L 192.22 80.37 L 192.53 80.44 L 192.83 80.52 L 193.13 80.60 L 193.43 80.67 L 193.74 80.75 L 194.04 80.82 L 194.34 80.89 L 194.64 80.97 L 194.95 81.04 L 195.25 81.11 L 195.55 81.18 L 195.85 81.25 L 196.16 81.32 L 196.46 81.39 L 196.76 81.46 L 197.06 81.53 L 197.37 81.60 L 197.67 81.66 L 197.97 81.73 L 198.27 81.80 L 198.58 81.86 L 198.88 81.93 L 199.18 81.99 L 199.48 82.06 L 199.79 82.12 L 200.09 82.18 L 200.39 82.25 L 200.69 82.31 L 201.00 82.37 L 201.30 82.43 L 201.60 82.49 L 201.90 82.55 L 202.21 82.61 L 202.51 82.67 L 202.81 82.73 L 203.11 82.79 L 203.42 82.84 L 203.72 82.90 L 204.02 82.96 L 204.32 83.02 L 204.63 83.07 L 204.93 83.13 L 205.23 83.18 L 205.54 83.24 L 205.84 83.29 L 206.14 83.34 L 206.44 83.40 L 206.75 83.45 L 207.05 83.50 L 207.35 83.55 L 207.65 83.61 L 207.96 83.66 L 208.26 83.71 L 208.56 83.76 L 208.86 83.81 L 209.17 83.86 L 209.47 83.91 L 209.77 83.96 L 210.07 84.00 L 210.38 84.05 L 210.68 84.10 L 210.98 84.15 L 211.28 84.19 L 211.59 84.24 L 211.89 84.29 L 212.19 84.33 L 212.49 84.38 L 212.80 84.42 L 213.10 84.47 L 213.40 84.51 L 213.70 84.56 L 214.01 84.60 L 214.31 84.64 L 214.61 84.69 L 214.91 84.73 L 215.22 84.77 L 215.52 84.81 L 215.82 84.85 L 216.12 84.89 L 216.43 84.94 L 216.73 84.98 L 217.03 85.02 L 217.33 85.06 L 217.64 85.10 L 217.94 85.13 L 218.24 85.17 L 218.55 85.21 L 218.85 85.25 L 219.15 85.29 L 219.45 85.33 L 219.76 85.36 L 220.06 85.40 L 220.36 85.44 L 220.66 85.47 L 220.97 85.51 L 221.27 85.55 L 221.57 85.58 L 221.87 85.62 L 222.18 85.65 L 222.48 85.69 L 222.78 85.72 L 223.08 85.76 L 223.39 85.79 L 223.69 85.82 L 223.99 85.86 L 224.29 85.89 L 224.60 85.92 L 224.90 85.96 L 225.20 85.99 L 225.50 86.02 L 225.81 86.05 L 226.11 86.08 L 226.41 86.12 L 226.71 86.15 L 227.02 86.18 L 227.32 86.21 L 227.62 86.24 L 227.92 86.27 L 228.23 86.30 L 228.53 86.33 L 228.83 86.36 L 229.13 86.39 L 229.44 86.41 L 229.74 86.44 L 230.04 86.47 L 230.34 86.50 L 230.65 86.53 L 230.95 86.56 L 231.25 86.58 L 231.56 86.61 L 231.86 86.64 L 232.16 86.67 L 232.46 86.69 L 232.77 86.72 L 233.07 86.74 L 233.37 86.77 L 233.67 86.80 L 233.98 86.82 L 234.28 86.85 L 234.58 86.87 L 234.88 86.90 L 235.19 86.92 L 235.49 86.95 L 235.79 86.97 L 236.09 87.00 L 236.40 87.02 L 236.70 87.04 L 237.00 87.07 L 237.30 87.09 L 237.61 87.11 L 237.91 87.14 L 238.21 87.16 L 238.51 87.18 L 238.82 87.21 L 239.12 87.23 L 239.42 87.25 L 239.72 87.27 L 240.03 87.29 L 240.33 87.32 L 240.63 87.34 L 240.93 87.36 L 241.24 87.38 L 241.54 87.40 L 241.84 87.42 L 242.14 87.44 L 242.45 87.46 L 242.75 87.48 L 243.05 87.50 L 243.35 87.52 L 243.66 87.54 L 243.96 87.56 L 244.26 87.58 L 244.57 87.60 L 244.87 87.62 L 245.17 87.64 L 245.47 87.66 L 245.78 87.68 L 246.08 87.70 L 246.38 87.71 L 246.68 87.73 L 246.99 87.75 L 247.29 87.77 L 247.59 87.79 L 247.89 87.80 L 248.20 87.82 L 248.50 87.84 L 248.80 87.86 L 249.10 87.87 L 249.41 87.89 L 249.71 87.91 L 250.01 87.92 L 250.31 87.94 L 250.62 87.96 L 250.92 87.97 L 251.22 87.99 L 251.52 88.01 L 251.83 88.02 L 252.13 88.04 L 252.43 88.05 L 252.73 88.07 L 253.04 88.08 L 253.34 88.10 L 253.64 88.11 L 253.94 88.13 L 254.25 88.15 L 254.55 88.16 L 254.85 88.17 L 255.15 88.19 L 255.46 88.20 L 255.76 88.22 L 256.06 88.23 L 256.36 88.25 L 256.67 88.26 L 256.97 88.27 L 257.27 88.29 L 257.58 88.30 L 257.88 88.32 L 258.18 88.33 L 258.48 88.34 L 258.79 88.36 L 259.09 88.37 L 259.39 88.38 L 259.69 88.39 L 260.00 88.41 L 260.30 88.42 L 260.60 88.43 L 260.90 88.45 L 261.21 88.46 L 261.51 88.47 L 261.81 88.48 L 262.11 88.49 L 262.42 88.51 L 262.72 88.52 L 263.02 88.53 L 263.32 88.54 L 263.63 88.55 L 263.93 88.57 L 264.23 88.58 L 264.53 88.59 L 264.84 88.60 L 265.14 88.61 L 265.44 88.62 L 265.74 88.63 L 266.05 88.64 L 266.35 88.65 L 266.65 88.67 L 266.95 88.68 L 267.26 88.69 L 267.56 88.70 L 267.86 88.71 L 268.16 88.72 L 268.47 88.73 L 268.77 88.74 L 269.07 88.75 L 269.37 88.76 L 269.68 88.77 L 269.98 88.78 L 270.28 88.79 L 270.59 88.80 L 270.89 88.81 L 271.19 88.82 L 271.49 88.83 L 271.80 88.84 L 272.10 88.85 L 272.40 88.85 L 272.70 88.86 L 273.01 88.87 L 273.31 88.88 L 273.61 88.89 L 273.91 88.90 L 274.22 88.91 L 274.52 88.92 L 274.82 88.93 L 275.12 88.93 L 275.43 88.94 L 275.73 88.95 L 276.03 88.96 L 276.33 88.97 L 276.64 88.98 L 276.94 88.98 L 277.24 88.99 L 277.54 89.00 L 277.85 89.01 L 278.15 89.02 L 278.45 89.02 L 278.75 89.03 L 279.06 89.04 L 279.36 89.05 L 279.66 89.06 L 279.96 89.06 L 280.27 89.07 L 280.57 89.08 L 280.87 89.09 L 281.17 89.09 L 281.48 89.10 L 281.78 89.11 L 282.08 89.11 L 282.38 89.12 L 282.69 89.13 L 282.99 89.14 L 283.29 89.14 L 283.60 89.15 L 283.90 89.16 L 284.20 89.16 L 284.50 89.17 L 284.81 89.18 L 285.11 89.18 L 285.41 89.19 L 285.71 89.20 L 286.02 89.20 L 286.32 89.21 L 286.62 89.21 L 286.92 89.22 L 287.23 89.23 L 287.53 89.23 L 287.83 89.24 L 288.13 89.25 L 288.44 89.25 L 288.74 89.26 L 289.04 89.26 L 289.34 89.27 L 289.65 89.28 L 289.95 89.28 L 290.25 89.29 L 290.55 89.29 L 290.86 89.30 L 291.16 89.30 L 291.46 89.31 L 291.76 89.32 L 292.07 89.32 L 292.37 89.33 L 292.67 89.33 L 292.97 89.34 L 293.28 89.34 L 293.58 89.35 L 293.88 89.35 L 294.18 89.36 L 294.49 89.36 L 294.79 89.37 L 295.09 89.37 L 295.39 89.38 L 295.70 89.38 L 296.00 89.39" fill="none" stroke="#7E8692" stroke-width="2.3" stroke-linecap="round" stroke-linejoin="round"/>
</svg>
