<svg xmlns="http://www.w3.org/2000/svg" viewBox="0 0 320 180" width="320" height="180">
  <rect width="320" height="180" fill="#F4F5F7"/>
  <path d="M 18.00 93.60 L 18.24 93.61 L 18.47 93.61 L 18.71 93.62 L 18.95 93.62 L 19.18 93.63 L 19.42 93.64 L 19.66 93.64 L 19.89 93.65 L 20.13 93.65 L 20.37 93.66 L 20.61 93.67 L 20.84 93.67 L 21.08 93.68 L 21.32 93.69 L 21.55 93.69 L 21.79 93.70 L 22.03 93.71 L 22.26 93.71 L 22.50 93.72 L 22.74 93.72 L 22.97 93.73 L 23.21 93.74 L 23.45 93.74 L 23.68 93.75 L 23.92 93.76 L 24.16 93.76 L 24.40 93.77 L 24.63 93.78 L 24.87 93.78 L 25.11 93.79 L 25.34 93.80 L 25.58 93.80 L 25.82 93.81 L 26.05 93.82 L 26.29 93.82 L 26.53 93.83 L 26.76 93.84 L 27.00 93.84 L 27.24 93.85 L 27.47 93.86 L 27.71 93.86 L 27.95 93.87 L 28.19 93.88 L 28.42 93.89 L 28.66 93.89 L 28.90 93.90 L 29.13 93.91 L 29.37 93.91 L 29.61 93.92 L 29.84 93.93 L 30.08 93.93 L 30.32 93.94 L 30.55 93.95 L 30.79 93.96 L 31.03 93.96 L 31.26 93.97 L 31.50 93.98 L 31.74 93.99 L 31.97 93.99 L 32.21 94.00 L 32.45 94.01 L 32.69 94.02 L 32.92 94.02 L 33.16 94.03 L 33.40 94.04 L 33.63 94.05 L 33.87 94.05 L 34.11 94.06 L 34.34 94.07 L 34.58 94.08 L 34.82 94.08 L 35.05 94.09 L 35.29 94.10 L 35.53 94.11 L 35.76 94.11 L 36.00 94.12 L 36.24 94.13 L 36.48 94.14 L 36.71 94.15 L 36.95 94.15 L 37.19 94.16 L 37.42 94.17 L 37.66 94.18 L 37.90 94.19 L 38.13 94.19 L 38.37 94.20 L 38.61 94.21 L 38.84 94.22 L 39.08 94.23 L 39.32 94.24 L 39.55 94.24 L 39.79 94.25 L 40.03 94.26 L 40.27 94.27 L 40.50 94.28 L 40.74 94.29 L 40.98 94.29 L 41.21 94.30 L 41.45 94.31 L 41.69 94.32 L 41.92 94.33 L 42.16 94.34 L 42.40 94.35 L 42.63 94.36 L 42.87 94.36 L 43.11 94.37 L 43.34 94.38 L 43.58 94.39 L 43.82 94.40 L 44.06 94.41 L 44.29 94.42 L 44.53 94.43 L 44.77 94.44 L 45.00 94.45 L 45.24 94.45 L 45.48 94.46 L 45.71 94.47 L 45.95 94.48 L 46.19 94.49 L 46.42 94.50 L 46.66 94.51 L 46.90 94.52 L 47.13 94.53 L 47.37 94.54 L 47.61 94.55 L 47.84 94.56 L 48.08 94.57 L 48.32 94.58 L 48.56 94.59 L 48.79 94.60 L 49.03 94.61 L 49.27 94.62 L 49.50 94.63 L 49.74 94.64 L 49.98 94.65 L 50.21 94.66 L 50.45 94.67 L 50.69 94.68 L 50.92 94.69 L 51.16 94.70 L 51.40 94.71 L 51.63 94.72 L 51.87 94.73 L 52.11 94.74 L 52.35 94.75 L 52.58 94.76 L 52.82 94.77 L 53.06 94.78 L 53.29 94.79 L 53.53 94.80 L 53.77 94.81 L 54.00 94.82 L 54.24 94.83 L 54.48 94.84 L 54.71 94.86 L 54.95 94.87 L 55.19 94.88 L 55.42 94.89 L 55.66 94.90 L 55.90 94.91 L 56.14 94.92 L 56.37 94.93 L 56.61 94.94 L 56.85 94.96 L 57.08 94.97 L 57.32 94.98 L 57.56 94.99 L 57.79 95.00 L 58.03 95.01 L 58.27 95.02 L 58.50 95.04 L 58.74 95.05 L 58.98 95.06 L 59.21 95.07 L 59.45 95.08 L 59.69 95.10 L 59.92 95.11 L 60.16 95.12 L 60.40 95.13 L 60.64 95.14 L 60.87 95.16 L 61.11 95.17 L 61.35 95.18 L 61.58 95.19 L 61.82 95.21 L 62.06 95.22 L 62.29 95.23 L 62.53 95.24 L 62.77 95.26 L 63.00 95.27 L 63.24 95.28 L 63.48 95.30 L 63.71 95.31 L 63.95 95.32 L 64.19 95.34 L 64.43 95.35 L 64.66 95.36 L 64.90 95.38 L 65.14 95.39 L 65.37 95.40 L 65.61 95.42 L 65.85 95.43 L 66.08 95.44 L 66.32 95.46 L 66.56 95.47 L 66.79 95.48 L 67.03 95.50 L 67.27 95.51 L 67.50 95.53 L 67.74 95.54 L 67.98 95.56 L 68.22 95.57 L 68.45 95.58 L 68.69 95.60 L 68.93 95.61 L 69.16 95.63 L 69.40 95.64 L 69.64 95.66 L 69.87 95.67 L 70.11 95.69 L 70.35 95.70 L 70.58 95.72 L 70.82 95.73 L 71.06 95.75 L 71.29 95.76 L 71.53 95.78 L 71.77 95.79 L 72.01 95.81 L 72.24 95.83 L 72.48 95.84 L 72.72 95.86 L 72.95 95.87 L 73.19 95.89 L 73.43 95.90 L 73.66 95.92 L 73.90 95.94 L 74.14 95.95 L 74.37 95.97 L 74.61 95.99 L 74.85 96.00 L 75.08 96.02 L 75.32 96.04 L 75.56 96.05 L 75.79 96.07 L 76.03 96.09 L 76.27 96.11 L 76.51 96.12 L 76.74 96.14 L 76.98 96.16 L 77.22 96.18 L 77.45 96.19 L 77.69 96.21 L 77.93 96.23 L 78.16 96.25 L 78.40 96.26 L 78.64 96.28 L 78.87 96.30 L 79.11 96.32 L 79.35 96.34 L 79.58 96.36 L 79.82 96.38 L 80.06 96.39 L 80.30 96.41 L 80.53 96.43 L 80.77 96.45 L 81.01 96.47 L 81.24 96.49 L 81.48 96.51 L 81.72 96.53 L 81.95 96.55 L 82.19 96.57 L 82.43 96.59 L 82.66 96.61 L 82.90 96.63 L 83.14 96.65 L 83.37 96.67 L 83.61 96.69 L 83.85 96.71 L 84.09 96.73 L 84.32 96.75 L 84.56 96.78 L 84.80 96.80 L 85.03 96.82 L 85.27 96.84 L 85.51 96.86 L 85.74 96.88 L 85.98 96.91 L 86.22 96.93 L 86.45 96.95 L 86.69 96.97 L 86.93 97.00 L 87.16 97.02 L 87.40 97.04 L 87.64 97.06 L 87.87 97.09 L 88.11 97.11 L 88.35 97.13 L 88.59 97.16 L 88.82 97.18 L 89.06 97.21 L 89.30 97.23 L 89.53 97.25 L 89.77 97.28 L 90.01 97.30 L 90.24 97.33 L 90.48 97.35 L 90.72 97.38 L 90.95 97.40 L 91.19 97.43 L 91.43 97.45 L 91.66 97.48 L 91.90 97.51 L 92.14 97.53 L 92.38 97.56 L 92.61 97.59 L 92.85 97.61 L 93.09 97.64 L 93.32 97.67 L 93.56 97.69 L 93.80 97.72 L 94.03 97.75 L 94.27 97.78 L 94.51 97.81 L 94.74 97.83 L 94.98 97.86 L 95.22 97.89 L 95.45 97.92 L 95.69 97.95 L 95.93 97.98 L 96.17 98.01 L 96.40 98.04 L 96.64 98.07 L 96.88 98.10 L 97.11 98.13 L 97.35 98.16 L 97.59 98.19 L 97.82 98.22 L 98.06 98.25 L 98.30 98.28 L 98.53 98.32 L 98.77 98.35 L 99.01 98.38 L 99.24 98.41 L 99.48 98.45 L 99.72 98.48 L 99.95 98.51 L 100.19 98.55 L 100.43 98.58 L 100.67 98.62 L 100.90 98.65 L 101.14 98.68 L 101.38 98.72 L 101.61 98.76 L 101.85 98.79 L 102.09 98.83 L 102.32 98.86 L 102.56 98.90 L 102.80 98.94 L 103.03 98.97 L 103.27 99.01 L 103.51 99.05 L 103.74 99.09 L 103.98 99.13 L 104.22 99.16 L 104.46 99.20 L 104.69 99.24 L 104.93 99.28 L 105.17 99.32 L 105.40 99.36 L 105.64 99.40 L 105.88 99.45 L 106.11 99.49 L 106.35 99.53 L 106.59 99.57 L 106.82 99.61 L 107.06 99.66 L 107.30 99.70 L 107.53 99.74 L 107.77 99.79 L 108.01 99.83 L 108.25 99.88 L 108.48 99.92 L 108.72 99.97 L 108.96 100.01 L 109.19 100.06 L 109.43 100.11 L 109.67 100.16 L 109.90 100.20 L 110.14 100.25 L 110.38 100.30 L 110.61 100.35 L 110.85 100.40 L 111.09 100.45 L 111.32 100.50 L 111.56 100.55 L 111.80 100.61 L 112.04 100.66 L 112.27 100.71 L 112.51 100.76 L 112.75 100.82 L 112.98 100.87 L 113.22 100.93 L 113.46 100.98 L 113.69 101.04 L 113.93 101.10 L 114.17 101.15 L 114.40 101.21 L 114.64 101.27 L 114.88 101.33 L 115.11 101.39 L 115.35 101.45 L 115.59 101.51 L 115.82 101.57 L 116.06 101.63 L 116.30 101.70 L 116.54 101.76 L 116.77 101.83 L 117.01 101.89 L 117.25 101.96 L 117.48 102.02 L 117.72 102.09 L 117.96 102.16 L 118.19 102.23 L 118.43 102.30 L 118.67 102.37 L 118.90 102.44 L 119.14 102.51 L 119.38 102.58 L 119.61 102.66 L 119.85 102.73 L 120.09 102.81 L 120.33 102.88 L 120.56 102.96 L 120.80 103.04 L 121.04 103.12 L 121.27 103.20 L 121.51 103.28 L 121.75 103.36 L 121.98 103.45 L 122.22 103.53 L 122.46 103.62 L 122.69 103.70 L 122.93 103.79 L 123.17 103.88 L 123.40 103.97 L 123.64 104.06 L 123.88 104.15 L 124.12 104.25 L 124.35 104.34 L 124.59 104.44 L 124.83 104.53 L 125.06 104.63 L 125.30 104.73 L 125.54 104.83 L 125.77 104.94 L 126.01 105.04 L 126.25 105.15 L 126.48 105.25 L 126.72 105.36 L 126.96 105.47 L 127.19 105.58 L 127.43 105.70 L 127.67 105.81 L 127.90 105.93 L 128.14 106.05 L 128.38 106.17 L 128.62 106.29 L 128.85 106.41 L 129.09 106.54 L 129.33 106.67 L 129.56 106.80 L 129.80 106.93 L 130.04 107.06 L 130.27 107.20 L 130.51 107.33 L 130.75 107.48 L 130.98 107.62 L 131.22 107.76 L 131.46 107.91 L 131.69 108.06 L 131.93 108.21 L 132.17 108.37 L 132.41 108.53 L 132.64 108.69 L 132.88 108.85 L 133.12 109.01 L 133.35 109.18 L 133.59 109.36 L 133.83 109.53 L 134.06 109.71 L 134.30 109.89 L 134.54 110.08 L 134.77 110.26 L 135.01 110.46 L 135.25 110.65 L 135.48 110.85 L 135.72 111.06 L 135.96 111.26 L 136.20 111.47 L 136.43 111.69 L 136.67 111.91 L 136.91 112.14 L 137.14 112.36 L 137.38 112.60 L 137.62 112.84 L 137.85 113.08 L 138.09 113.33 L 138.33 113.59 L 138.56 113.85 L 138.80 114.11 L 139.04 114.39 L 139.27 114.67 L 139.51 114.95 L 139.75 115.24 L 139.98 115.54 L 140.22 115.85 L 140.46 116.16 L 140.70 116.48 L 140.93 116.81 L 141.17 117.15 L 141.41 117.49 L 141.64 117.85 L 141.88 118.21 L 142.12 118.59 L 142.35 118.97 L 142.59 119.36 L 142.83 119.77 L 143.06 120.18 L 143.30 120.61 L 143.54 121.05 L 143.77 121.51 L 144.01 121.97 L 144.25 122.45 L 144.49 122.95 L 144.72 123.46 L 144.96 123.99 L 145.20 124.53 L 145.43 125.09 L 145.67 125.67 L 145.91 126.27 L 146.14 126.89 L 146.38 127.53 L 146.62 128.20 L 146.85 128.89 L 147.09 129.60 L 147.33 130.34 L 147.56 131.11 L 147.80 131.91 L 148.04 132.74 L 148.28 133.60 L 148.51 134.50 L 148.75 135.44 L 148.99 136.41 L 149.22 137.43 L 149.46 138.50 L 149.70 139.61 L 149.93 140.78 L 150.17 142.00 L 150.41 143.29 L 150.64 144.64 L 150.88 146.06 L 151.12 147.55 L 151.35 149.13 L 151.59 150.79 L 151.83 152.56 L 152.07 154.42 L 152.30 156.41 L 152.54 158.51 L 152.78 160.76 L 153.01 163.16 L 153.25 165.73 L 153.49 168.48 L 153.72 171.44 L 153.96 174.64 L 154.20 178.09 L 154.43 181.84 L 154.67 185.92 L 154.91 190.38 L 155.14 195.28 L 155.38 200.68 L 155.62 206.66 L 155.85 213.33 L 156.09 220.80 L 156.33 229.24 L 156.57 238.84" fill="none" stroke="#7E8692" stroke-width="2.3" stroke-linecap="round" stroke-linejoin="round"/>
  <path d="M 163.43 -58.84 L 163.67 -49.24 L 163.91 -40.80 L 164.15 -33.33 L 164.38 -26.66 L 164.62 -20.68 L 164.86 -15.28 L 165.09 -10.38 L 165.33 -5.92 L 165.57 -1.84 L 165.80 1.91 L 166.04 5.36 L 166.28 8.56 L 166.51 11.52 L 166.75 14.27 L 166.99 16.84 L 167.22 19.24 L 167.46 21.49 L 167.70 23.59 L 167.93 25.58 L 168.17 27.44 L 168.41 29.21 L 168.65 30.87 L 168.88 32.45 L 169.12 33.94 L 169.36 35.36 L 169.59 36.71 L 169.83 38.00 L 170.07 39.22 L 170.30 40.39 L 170.54 41.50 L 170.78 42.57 L 171.01 43.59 L 171.25 44.56 L 171.49 45.50 L 171.72 46.40 L 171.96 47.26 L 172.20 48.09 L 172.44 48.89 L 172.67 49.66 L 172.91 50.40 L 173.15 51.11 L 173.38 51.80 L 173.62 52.47 L 173.86 53.11 L 174.09 53.73 L 174.33 54.33 L 174.57 54.91 L 174.80 55.47 L 175.04 56.01 L 175.28 56.54 L 175.51 57.05 L 175.75 57.55 L 175.99 58.03 L 176.23 58.49 L 176.46 58.95 L 176.70 59.39 L 176.94 59.82 L 177.17 60.23 L 177.41 60.64 L 177.65 61.03 L 177.88 61.41 L 178.12 61.79 L 178.36 62.15 L 178.59 62.51 L 178.83 62.85 L 179.07 63.19 L 179.30 63.52 L 179.54 63.84 L 179.78 64.15 L 180.02 64.46 L 180.25 64.76 L 180.49 65.05 L 180.73 65.33 L 180.96 65.61 L 181.20 65.89 L 181.44 66.15 L 181.67 66.41 L 181.91 66.67 L 182.15 66.92 L 182.38 67.16 L 182.62 67.40 L 182.86 67.64 L 183.09 67.86 L 183.33 68.09 L 183.57 68.31 L 183.80 68.53 L 184.04 68.74 L 184.28 68.94 L 184.52 69.15 L 184.75 69.35 L 184.99 69.54 L 185.23 69.74 L 185.46 69.92 L 185.70 70.11 L 185.94 70.29 L 186.17 70.47 L 186.41 70.64 L 186.65 70.82 L 186.88 70.99 L 187.12 71.15 L 187.36 71.31 L 187.59 71.47 L 187.83 71.63 L 188.07 71.79 L 188.31 71.94 L 188.54 72.09 L 188.78 72.24 L 189.02 72.38 L 189.25 72.52 L 189.49 72.67 L 189.73 72.80 L 189.96 72.94 L 190.20 73.07 L 190.44 73.20 L 190.67 73.33 L 190.91 73.46 L 191.15 73.59 L 191.38 73.71 L 191.62 73.83 L 191.86 73.95 L 192.10 74.07 L 192.33 74.19 L 192.57 74.30 L 192.81 74.42 L 193.04 74.53 L 193.28 74.64 L 193.52 74.75 L 193.75 74.85 L 193.99 74.96 L 194.23 75.06 L 194.46 75.17 L 194.70 75.27 L 194.94 75.37 L 195.17 75.47 L 195.41 75.56 L 195.65 75.66 L 195.88 75.75 L 196.12 75.85 L 196.36 75.94 L 196.60 76.03 L 196.83 76.12 L 197.07 76.21 L 197.31 76.30 L 197.54 76.38 L 197.78 76.47 L 198.02 76.55 L 198.25 76.64 L 198.49 76.72 L 198.73 76.80 L 198.96 76.88 L 199.20 76.96 L 199.44 77.04 L 199.67 77.12 L 199.91 77.19 L 200.15 77.27 L 200.39 77.34 L 200.62 77.42 L 200.86 77.49 L 201.10 77.56 L 201.33 77.63 L 201.57 77.70 L 201.81 77.77 L 202.04 77.84 L 202.28 77.91 L 202.52 77.98 L 202.75 78.04 L 202.99 78.11 L 203.23 78.17 L 203.46 78.24 L 203.70 78.30 L 203.94 78.37 L 204.18 78.43 L 204.41 78.49 L 204.65 78.55 L 204.89 78.61 L 205.12 78.67 L 205.36 78.73 L 205.60 78.79 L 205.83 78.85 L 206.07 78.90 L 206.31 78.96 L 206.54 79.02 L 206.78 79.07 L 207.02 79.13 L 207.25 79.18 L 207.49 79.24 L 207.73 79.29 L 207.96 79.34 L 208.20 79.39 L 208.44 79.45 L 208.68 79.50 L 208.91 79.55 L 209.15 79.60 L 209.39 79.65 L 209.62 79.70 L 209.86 79.75 L 210.10 79.80 L 210.33 79.84 L 210.57 79.89 L 210.81 79.94 L 211.04 79.99 L 211.28 80.03 L 211.52 80.08 L 211.75 80.12 L 211.99 80.17 L 212.23 80.21 L 212.47 80.26 L 212.70 80.30 L 212.94 80.34 L 213.18 80.39 L 213.41 80.43 L 213.65 80.47 L 213.89 80.51 L 214.12 80.55 L 214.36 80.60 L 214.60 80.64 L 214.83 80.68 L 215.07 80.72 L 215.31 80.76 L 215.54 80.80 L 215.78 80.84 L 216.02 80.87 L 216.26 80.91 L 216.49 80.95 L 216.73 80.99 L 216.97 81.03 L 217.20 81.06 L 217.44 81.10 L 217.68 81.14 L 217.91 81.17 L 218.15 81.21 L 218.39 81.24 L 218.62 81.28 L 218.86 81.32 L 219.10 81.35 L 219.33 81.38 L 219.57 81.42 L 219.81 81.45 L 220.05 81.49 L 220.28 81.52 L 220.52 81.55 L 220.76 81.59 L 220.99 81.62 L 221.23 81.65 L 221.47 81.68 L 221.70 81.72 L 221.94 81.75 L 222.18 81.78 L 222.41 81.81 L 222.65 81.84 L 222.89 81.87 L 223.12 81.90 L 223.36 81.93 L 223.60 81.96 L 223.83 81.99 L 224.07 82.02 L 224.31 82.05 L 224.55 82.08 L 224.78 82.11 L 225.02 82.14 L 225.26 82.17 L 225.49 82.19 L 225.73 82.22 L 225.97 82.25 L 226.20 82.28 L 226.44 82.31 L 226.68 82.33 L 226.91 82.36 L 227.15 82.39 L 227.39 82.41 L 227.62 82.44 L 227.86 82.47 L 228.10 82.49 L 228.34 82.52 L 228.57 82.55 L 228.81 82.57 L 229.05 82.60 L 229.28 82.62 L 229.52 82.65 L 229.76 82.67 L 229.99 82.70 L 230.23 82.72 L 230.47 82.75 L 230.70 82.77 L 230.94 82.79 L 231.18 82.82 L 231.41 82.84 L 231.65 82.87 L 231.89 82.89 L 232.13 82.91 L 232.36 82.94 L 232.60 82.96 L 232.84 82.98 L 233.07 83.00 L 233.31 83.03 L 233.55 83.05 L 233.78 83.07 L 234.02 83.09 L 234.26 83.12 L 234.49 83.14 L 234.73 83.16 L 234.97 83.18 L 235.20 83.20 L 235.44 83.22 L 235.68 83.25 L 235.91 83.27 L 236.15 83.29 L 236.39 83.31 L 236.63 83.33 L 236.86 83.35 L 237.10 83.37 L 237.34 83.39 L 237.57 83.41 L 237.81 83.43 L 238.05 83.45 L 238.28 83.47 L 238.52 83.49 L 238.76 83.51 L 238.99 83.53 L 239.23 83.55 L 239.47 83.57 L 239.70 83.59 L 239.94 83.61 L 240.18 83.62 L 240.42 83.64 L 240.65 83.66 L 240.89 83.68 L 241.13 83.70 L 241.36 83.72 L 241.60 83.74 L 241.84 83.75 L 242.07 83.77 L 242.31 83.79 L 242.55 83.81 L 242.78 83.82 L 243.02 83.84 L 243.26 83.86 L 243.49 83.88 L 243.73 83.89 L 243.97 83.91 L 244.21 83.93 L 244.44 83.95 L 244.68 83.96 L 244.92 83.98 L 245.15 84.00 L 245.39 84.01 L 245.63 84.03 L 245.86 84.05 L 246.10 84.06 L 246.34 84.08 L 246.57 84.10 L 246.81 84.11 L 247.05 84.13 L 247.28 84.14 L 247.52 84.16 L 247.76 84.17 L 247.99 84.19 L 248.23 84.21 L 248.47 84.22 L 248.71 84.24 L 248.94 84.25 L 249.18 84.27 L 249.42 84.28 L 249.65 84.30 L 249.89 84.31 L 250.13 84.33 L 250.36 84.34 L 250.60 84.36 L 250.84 84.37 L 251.07 84.39 L 251.31 84.40 L 251.55 84.42 L 251.78 84.43 L 252.02 84.44 L 252.26 84.46 L 252.50 84.47 L 252.73 84.49 L 252.97 84.50 L 253.21 84.52 L 253.44 84.53 L 253.68 84.54 L 253.92 84.56 L 254.15 84.57 L 254.39 84.58 L 254.63 84.60 L 254.86 84.61 L 255.10 84.62 L 255.34 84.64 L 255.57 84.65 L 255.81 84.66 L 256.05 84.68 L 256.29 84.69 L 256.52 84.70 L 256.76 84.72 L 257.00 84.73 L 257.23 84.74 L 257.47 84.76 L 257.71 84.77 L 257.94 84.78 L 258.18 84.79 L 258.42 84.81 L 258.65 84.82 L 258.89 84.83 L 259.13 84.84 L 259.36 84.86 L 259.60 84.87 L 259.84 84.88 L 260.08 84.89 L 260.31 84.90 L 260.55 84.92 L 260.79 84.93 L 261.02 84.94 L 261.26 84.95 L 261.50 84.96 L 261.73 84.98 L 261.97 84.99 L 262.21 85.00 L 262.44 85.01 L 262.68 85.02 L 262.92 85.03 L 263.15 85.04 L 263.39 85.06 L 263.63 85.07 L 263.86 85.08 L 264.10 85.09 L 264.34 85.10 L 264.58 85.11 L 264.81 85.12 L 265.05 85.13 L 265.29 85.14 L 265.52 85.16 L 265.76 85.17 L 266.00 85.18 L 266.23 85.19 L 266.47 85.20 L 266.71 85.21 L 266.94 85.22 L 267.18 85.23 L 267.42 85.24 L 267.65 85.25 L 267.89 85.26 L 268.13 85.27 L 268.37 85.28 L 268.60 85.29 L 268.84 85.30 L 269.08 85.31 L 269.31 85.32 L 269.55 85.33 L 269.79 85.34 L 270.02 85.35 L 270.26 85.36 L 270.50 85.37 L 270.73 85.38 L 270.97 85.39 L 271.21 85.40 L 271.44 85.41 L 271.68 85.42 L 271.92 85.43 L 272.16 85.44 L 272.39 85.45 L 272.63 85.46 L 272.87 85.47 L 273.10 85.48 L 273.34 85.49 L 273.58 85.50 L 273.81 85.51 L 274.05 85.52 L 274.29 85.53 L 274.52 85.54 L 274.76 85.55 L 275.00 85.55 L 275.23 85.56 L 275.47 85.57 L 275.71 85.58 L 275.94 85.59 L 276.18 85.60 L 276.42 85.61 L 276.66 85.62 L 276.89 85.63 L 277.13 85.64 L 277.37 85.64 L 277.60 85.65 L 277.84 85.66 L 278.08 85.67 L 278.31 85.68 L 278.55 85.69 L 278.79 85.70 L 279.02 85.71 L 279.26 85.71 L 279.50 85.72 L 279.73 85.73 L 279.97 85.74 L 280.21 85.75 L 280.45 85.76 L 280.68 85.76 L 280.92 85.77 L 281.16 85.78 L 281.39 85.79 L 281.63 85.80 L 281.87 85.81 L 282.10 85.81 L 282.34 85.82 L 282.58 85.83 L 282.81 85.84 L 283.05 85.85 L 283.29 85.85 L 283.52 85.86 L 283.76 85.87 L 284.00 85.88 L 284.24 85.89 L 284.47 85.89 L 284.71 85.90 L 284.95 85.91 L 285.18 85.92 L 285.42 85.92 L 285.66 85.93 L 285.89 85.94 L 286.13 85.95 L 286.37 85.95 L 286.60 85.96 L 286.84 85.97 L 287.08 85.98 L 287.31 85.98 L 287.55 85.99 L 287.79 86.00 L 288.03 86.01 L 288.26 86.01 L 288.50 86.02 L 288.74 86.03 L 288.97 86.04 L 289.21 86.04 L 289.45 86.05 L 289.68 86.06 L 289.92 86.07 L 290.16 86.07 L 290.39 86.08 L 290.63 86.09 L 290.87 86.09 L 291.10 86.10 L 291.34 86.11 L 291.58 86.11 L 291.81 86.12 L 292.05 86.13 L 292.29 86.14 L 292.53 86.14 L 292.76 86.15 L 293.00 86.16 L 293.24 86.16 L 293.47 86.17 L 293.71 86.18 L 293.95 86.18 L 294.18 86.19 L 294.42 86.20 L 294.66 86.20 L 294.89 86.21 L 295.13 86.22 L 295.37 86.22 L 295.60 86.23 L 295.84 86.24 L 296.08 86.24 L 296.32 86.25 L 296.55 86.26 L 296.79 86.26 L 297.03 86.27 L 297.26 86.28 L 297.50 86.28 L 297.74 86.29 L 297.97 86.29 L 298.21 86.30 L 298.45 86.31 L 298.68 86.31 L 298.92 86.32 L 299.16 86.33 L 299.39 86.33 L 299.63 86.34 L 299.87 86.35 L 300.11 86.35 L 300.34 86.36 L 300.58 86.36 L 300.82 86.37 L 301.05 86.38 L 301.29 86.38 L 301.53 86.39 L 301.76 86.39 L 302.00 86.40" fill="none" stroke="#7E8692" stroke-width="2.3" stroke-linecap="round" stroke-linejoin="round"/>
</svg>
