<svg xmlns="http://www.w3.org/2000/svg" viewBox="0 0 320 180" width="320" height="180">
  <rect width="320" height="180" fill="#F4F5F7"/>
  <path d="M 19.26 158.20 L 19.58 158.33 L 19.90 158.45 L 20.21 158.56 L 20.53 158.67 L 20.84 158.77 L 21.16 158.87 L 21.47 158.96 L 21.79 159.05 L 22.11 159.14 L 22.42 159.22 L 22.74 159.29 L 23.05 159.37 L 23.37 159.44 L 23.69 159.50 L 24.00 159.57 L 24.32 159.63 L 24.63 159.68 L 24.95 159.74 L 25.27 159.79 L 25.58 159.83 L 25.90 159.88 L 26.21 159.92 L 26.53 159.96 L 26.85 160.00 L 27.16 160.04 L 27.48 160.07 L 27.79 160.10 L 28.11 160.13 L 28.42 160.16 L 28.74 160.18 L 29.06 160.21 L 29.37 160.23 L 29.69 160.25 L 30.00 160.27 L 30.32 160.28 L 30.64 160.30 L 30.95 160.31 L 31.27 160.32 L 31.58 160.33 L 31.90 160.33 L 32.22 160.34 L 32.53 160.34 L 32.85 160.34 L 33.16 160.35 L 33.48 160.34 L 33.80 160.34 L 34.11 160.34 L 34.43 160.33 L 34.74 160.33 L 35.06 160.32 L 35.37 160.31 L 35.69 160.30 L 36.01 160.29 L 36.32 160.28 L 36.64 160.26 L 36.95 160.25 L 37.27 160.23 L 37.59 160.21 L 37.90 160.19 L 38.22 160.17 L 38.53 160.15 L 38.85 160.13 L 39.17 160.10 L 39.48 160.08 L 39.80 160.05 L 40.11 160.03 L 40.43 160.00 L 40.75 159.97 L 41.06 159.94 L 41.38 159.91 L 41.69 159.87 L 42.01 159.84 L 42.32 159.81 L 42.64 159.77 L 42.96 159.74 L 43.27 159.70 L 43.59 159.66 L 43.90 159.62 L 44.22 159.58 L 44.54 159.54 L 44.85 159.50 L 45.17 159.46 L 45.48 159.41 L 45.80 159.37 L 46.12 159.32 L 46.43 159.28 L 46.75 159.23 L 47.06 159.18 L 47.38 159.13 L 47.70 159.08 L 48.01 159.03 L 48.33 158.98 L 48.64 158.93 L 48.96 158.88 L 49.27 158.82 L 49.59 158.77 L 49.91 158.71 L 50.22 158.66 L 50.54 158.60 L 50.85 158.54 L 51.17 158.49 L 51.49 158.43 L 51.80 158.37 L 52.12 158.31 L 52.43 158.25 L 52.75 158.18 L 53.07 158.12 L 53.38 158.06 L 53.70 157.99 L 54.01 157.93 L 54.33 157.87 L 54.65 157.80 L 54.96 157.73 L 55.28 157.67 L 55.59 157.60 L 55.91 157.53 L 56.22 157.46 L 56.54 157.39 L 56.86 157.32 L 57.17 157.25 L 57.49 157.18 L 57.80 157.10 L 58.12 157.03 L 58.44 156.96 L 58.75 156.88 L 59.07 156.81 L 59.38 156.73 L 59.70 156.66 L 60.02 156.58 L 60.33 156.50 L 60.65 156.43 L 60.96 156.35 L 61.28 156.27 L 61.60 156.19 L 61.91 156.11 L 62.23 156.03 L 62.54 155.95 L 62.86 155.87 L 63.17 155.78 L 63.49 155.70 L 63.81 155.62 L 64.12 155.53 L 64.44 155.45 L 64.75 155.36 L 65.07 155.28 L 65.39 155.19 L 65.70 155.11 L 66.02 155.02 L 66.33 154.93 L 66.65 154.84 L 66.97 154.75 L 67.28 154.66 L 67.60 154.58 L 67.91 154.48 L 68.23 154.39 L 68.55 154.30 L 68.86 154.21 L 69.18 154.12 L 69.49 154.03 L 69.81 153.93 L 70.12 153.84 L 70.44 153.75 L 70.76 153.65 L 71.07 153.56 L 71.39 153.46 L 71.70 153.36 L 72.02 153.27 L 72.34 153.17 L 72.65 153.07 L 72.97 152.98 L 73.28 152.88 L 73.60 152.78 L 73.92 152.68 L 74.23 152.58 L 74.55 152.48 L 74.86 152.38 L 75.18 152.28 L 75.49 152.18 L 75.81 152.07 L 76.13 151.97 L 76.44 151.87 L 76.76 151.77 L 77.07 151.66 L 77.39 151.56 L 77.71 151.45 L 78.02 151.35 L 78.34 151.24 L 78.65 151.14 L 78.97 151.03 L 79.29 150.93 L 79.60 150.82 L 79.92 150.71 L 80.23 150.60 L 80.55 150.50 L 80.87 150.39 L 81.18 150.28 L 81.50 150.17 L 81.81 150.06 L 82.13 149.95 L 82.44 149.84 L 82.76 149.73 L 83.08 149.62 L 83.39 149.50 L 83.71 149.39 L 84.02 149.28 L 84.34 149.17 L 84.66 149.05 L 84.97 148.94 L 85.29 148.83 L 85.60 148.71 L 85.92 148.60 L 86.24 148.48 L 86.55 148.37 L 86.87 148.25 L 87.18 148.13 L 87.50 148.02 L 87.82 147.90 L 88.13 147.78 L 88.45 147.66 L 88.76 147.55 L 89.08 147.43 L 89.39 147.31 L 89.71 147.19 L 90.03 147.07 L 90.34 146.95 L 90.66 146.83 L 90.97 146.71 L 91.29 146.59 L 91.61 146.47 L 91.92 146.35 L 92.24 146.22 L 92.55 146.10 L 92.87 145.98 L 93.19 145.86 L 93.50 145.73 L 93.82 145.61 L 94.13 145.49 L 94.45 145.36 L 94.77 145.24 L 95.08 145.11 L 95.40 144.99 L 95.71 144.86 L 96.03 144.73 L 96.34 144.61 L 96.66 144.48 L 96.98 144.36 L 97.29 144.23 L 97.61 144.10 L 97.92 143.97 L 98.24 143.84 L 98.56 143.72 L 98.87 143.59 L 99.19 143.46 L 99.50 143.33 L 99.82 143.20 L 100.14 143.07 L 100.45 142.94 L 100.77 142.81 L 101.08 142.68 L 101.40 142.55 L 101.72 142.41 L 102.03 142.28 L 102.35 142.15 L 102.66 142.02 L 102.98 141.88 L 103.29 141.75 L 103.61 141.62 L 103.93 141.48 L 104.24 141.35 L 104.56 141.22 L 104.87 141.08 L 105.19 140.95 L 105.51 140.81 L 105.82 140.68 L 106.14 140.54 L 106.45 140.40 L 106.77 140.27 L 107.09 140.13 L 107.40 139.99 L 107.72 139.86 L 108.03 139.72 L 108.35 139.58 L 108.67 139.44 L 108.98 139.30 L 109.30 139.17 L 109.61 139.03 L 109.93 138.89 L 110.24 138.75 L 110.56 138.61 L 110.88 138.47 L 111.19 138.33 L 111.51 138.19 L 111.82 138.05 L 112.14 137.91 L 112.46 137.76 L 112.77 137.62 L 113.09 137.48 L 113.40 137.34 L 113.72 137.20 L 114.04 137.05 L 114.35 136.91 L 114.67 136.77 L 114.98 136.62 L 115.30 136.48 L 115.62 136.34 L 115.93 136.19 L 116.25 136.05 L 116.56 135.90 L 116.88 135.76 L 117.19 135.61 L 117.51 135.47 L 117.83 135.32 L 118.14 135.17 L 118.46 135.03 L 118.77 134.88 L 119.09 134.73 L 119.41 134.59 L 119.72 134.44 L 120.04 134.29 L 120.35 134.14 L 120.67 134.00 L 120.99 133.85 L 121.30 133.70 L 121.62 133.55 L 121.93 133.40 L 122.25 133.25 L 122.57 133.10 L 122.88 132.95 L 123.20 132.80 L 123.51 132.65 L 123.83 132.50 L 124.14 132.35 L 124.46 132.20 L 124.78 132.05 L 125.09 131.90 L 125.41 131.74 L 125.72 131.59 L 126.04 131.44 L 126.36 131.29 L 126.67 131.14 L 126.99 130.98 L 127.30 130.83 L 127.62 130.68 L 127.94 130.52 L 128.25 130.37 L 128.57 130.21 L 128.88 130.06 L 129.20 129.91 L 129.52 129.75 L 129.83 129.60 L 130.15 129.44 L 130.46 129.28 L 130.78 129.13 L 131.09 128.97 L 131.41 128.82 L 131.73 128.66 L 132.04 128.50 L 132.36 128.35 L 132.67 128.19 L 132.99 128.03 L 133.31 127.87 L 133.62 127.72 L 133.94 127.56 L 134.25 127.40 L 134.57 127.24 L 134.89 127.08 L 135.20 126.92 L 135.52 126.77 L 135.83 126.61 L 136.15 126.45 L 136.46 126.29 L 136.78 126.13 L 137.10 125.97 L 137.41 125.81 L 137.73 125.65 L 138.04 125.48 L 138.36 125.32 L 138.68 125.16 L 138.99 125.00 L 139.31 124.84 L 139.62 124.68 L 139.94 124.52 L 140.26 124.35 L 140.57 124.19 L 140.89 124.03 L 141.20 123.86 L 141.52 123.70 L 141.84 123.54 L 142.15 123.37 L 142.47 123.21 L 142.78 123.05 L 143.10 122.88 L 143.41 122.72 L 143.73 122.55 L 144.05 122.39 L 144.36 122.22 L 144.68 122.06 L 144.99 121.89 L 145.31 121.73 L 145.63 121.56 L 145.94 121.40 L 146.26 121.23 L 146.57 121.06 L 146.89 120.90 L 147.21 120.73 L 147.52 120.56 L 147.84 120.40 L 148.15 120.23 L 148.47 120.06 L 148.79 119.89 L 149.10 119.72 L 149.42 119.56 L 149.73 119.39 L 150.05 119.22 L 150.36 119.05 L 150.68 118.88 L 151.00 118.71 L 151.31 118.54 L 151.63 118.37 L 151.94 118.20 L 152.26 118.03 L 152.58 117.86 L 152.89 117.69 L 153.21 117.52 L 153.52 117.35 L 153.84 117.18 L 154.16 117.01 L 154.47 116.84 L 154.79 116.67 L 155.10 116.50 L 155.42 116.32 L 155.74 116.15 L 156.05 115.98 L 156.37 115.81 L 156.68 115.63 L 157.00 115.46 L 157.31 115.29 L 157.63 115.12 L 157.95 114.94 L 158.26 114.77 L 158.58 114.60 L 158.89 114.42 L 159.21 114.25 L 159.53 114.07 L 159.84 113.90 L 160.16 113.72 L 160.47 113.55 L 160.79 113.37 L 161.11 113.20 L 161.42 113.02 L 161.74 112.85 L 162.05 112.67 L 162.37 112.50 L 162.69 112.32 L 163.00 112.14 L 163.32 111.97 L 163.63 111.79 L 163.95 111.61 L 164.26 111.44 L 164.58 111.26 L 164.90 111.08 L 165.21 110.91 L 165.53 110.73 L 165.84 110.55 L 166.16 110.37 L 166.48 110.19 L 166.79 110.02 L 167.11 109.84 L 167.42 109.66 L 167.74 109.48 L 168.06 109.30 L 168.37 109.12 L 168.69 108.94 L 169.00 108.76 L 169.32 108.58 L 169.64 108.40 L 169.95 108.22 L 170.27 108.04 L 170.58 107.86 L 170.90 107.68 L 171.21 107.50 L 171.53 107.32 L 171.85 107.14 L 172.16 106.96 L 172.48 106.78 L 172.79 106.60 L 173.11 106.41 L 173.43 106.23 L 173.74 106.05 L 174.06 105.87 L 174.37 105.68 L 174.69 105.50 L 175.01 105.32 L 175.32 105.14 L 175.64 104.95 L 175.95 104.77 L 176.27 104.59 L 176.59 104.40 L 176.90 104.22 L 177.22 104.04 L 177.53 103.85 L 177.85 103.67 L 178.16 103.48 L 178.48 103.30 L 178.80 103.11 L 179.11 102.93 L 179.43 102.74 L 179.74 102.56 L 180.06 102.37 L 180.38 102.19 L 180.69 102.00 L 181.01 101.82 L 181.32 101.63 L 181.64 101.44 L 181.96 101.26 L 182.27 101.07 L 182.59 100.89 L 182.90 100.70 L 183.22 100.51 L 183.54 100.32 L 183.85 100.14 L 184.17 99.95 L 184.48 99.76 L 184.80 99.58 L 185.11 99.39 L 185.43 99.20 L 185.75 99.01 L 186.06 98.82 L 186.38 98.63 L 186.69 98.45 L 187.01 98.26 L 187.33 98.07 L 187.64 97.88 L 187.96 97.69 L 188.27 97.50 L 188.59 97.31 L 188.91 97.12 L 189.22 96.93 L 189.54 96.74 L 189.85 96.55 L 190.17 96.36 L 190.48 96.17 L 190.80 95.98 L 191.12 95.79 L 191.43 95.60 L 191.75 95.41 L 192.06 95.22 L 192.38 95.03 L 192.70 94.83 L 193.01 94.64 L 193.33 94.45 L 193.64 94.26 L 193.96 94.07 L 194.28 93.87 L 194.59 93.68 L 194.91 93.49 L 195.22 93.30 L 195.54 93.10 L 195.86 92.91 L 196.17 92.72 L 196.49 92.53 L 196.80 92.33 L 197.12 92.14 L 197.43 91.94 L 197.75 91.75 L 198.07 91.56 L 198.38 91.36 L 198.70 91.17 L 199.01 90.97 L 199.33 90.78 L 199.65 90.59 L 199.96 90.39 L 200.28 90.20 L 200.59 90.00 L 200.91 89.81 L 201.23 89.61 L 201.54 89.41 L 201.86 89.22 L 202.17 89.02 L 202.49 88.83 L 202.81 88.63 L 203.12 88.43 L 203.44 88.24 L 203.75 88.04 L 204.07 87.85 L 204.38 87.65 L 204.70 87.45 L 205.02 87.25 L 205.33 87.06 L 205.65 86.86 L 205.96 86.66 L 206.28 86.47 L 206.60 86.27 L 206.91 86.07 L 207.23 85.87 L 207.54 85.67 L 207.86 85.48 L 208.18 85.28 L 208.49 85.08 L 208.81 84.88 L 209.12 84.68 L 209.44 84.48 L 209.76 84.28 L 210.07 84.08 L 210.39 83.88 L 210.70 83.68 L 211.02 83.48 L 211.33 83.29 L 211.65 83.09 L 211.97 82.89 L 212.28 82.69 L 212.60 82.48 L 212.91 82.28 L 213.23 82.08 L 213.55 81.88 L 213.86 81.68 L 214.18 81.48 L 214.49 81.28 L 214.81 81.08 L 215.13 80.88 L 215.44 80.68 L 215.76 80.47 L 216.07 80.27 L 216.39 80.07 L 216.71 79.87 L 217.02 79.67 L 217.34 79.46 L 217.65 79.26 L 217.97 79.06 L 218.28 78.86 L 218.60 78.65 L 218.92 78.45 L 219.23 78.25 L 219.55 78.05 L 219.86 77.84 L 220.18 77.64 L 220.50 77.44 L 220.81 77.23 L 221.13 77.03 L 221.44 76.82 L 221.76 76.62 L 222.08 76.42 L 222.39 76.21 L 222.71 76.01 L 223.02 75.80 L 223.34 75.60 L 223.66 75.39 L 223.97 75.19 L 224.29 74.98 L 224.60 74.78 L 224.92 74.57 L 225.23 74.37 L 225.55 74.16 L 225.87 73.96 L 226.18 73.75 L 226.50 73.54 L 226.81 73.34 L 227.13 73.13 L 227.45 72.92 L 227.76 72.72 L 228.08 72.51 L 228.39 72.31 L 228.71 72.10 L 229.03 71.89 L 229.34 71.68 L 229.66 71.48 L 229.97 71.27 L 230.29 71.06 L 230.61 70.86 L 230.92 70.65 L 231.24 70.44 L 231.55 70.23 L 231.87 70.02 L 232.18 69.82 L 232.50 69.61 L 232.82 69.40 L 233.13 69.19 L 233.45 68.98 L 233.76 68.77 L 234.08 68.56 L 234.40 68.36 L 234.71 68.15 L 235.03 67.94 L 235.34 67.73 L 235.66 67.52 L 235.98 67.31 L 236.29 67.10 L 236.61 66.89 L 236.92 66.68 L 237.24 66.47 L 237.56 66.26 L 237.87 66.05 L 238.19 65.84 L 238.50 65.63 L 238.82 65.42 L 239.13 65.21 L 239.45 65.00 L 239.77 64.78 L 240.08 64.57 L 240.40 64.36 L 240.71 64.15 L 241.03 63.94 L 241.35 63.73 L 241.66 63.52 L 241.98 63.30 L 242.29 63.09 L 242.61 62.88 L 242.93 62.67 L 243.24 62.46 L 243.56 62.24 L 243.87 62.03 L 244.19 61.82 L 244.51 61.61 L 244.82 61.39 L 245.14 61.18 L 245.45 60.97 L 245.77 60.75 L 246.08 60.54 L 246.40 60.33 L 246.72 60.11 L 247.03 59.90 L 247.35 59.69 L 247.66 59.47 L 247.98 59.26 L 248.30 59.04 L 248.61 58.83 L 248.93 58.61 L 249.24 58.40 L 249.56 58.19 L 249.88 57.97 L 250.19 57.76 L 250.51 57.54 L 250.82 57.33 L 251.14 57.11 L 251.45 56.90 L 251.77 56.68 L 252.09 56.47 L 252.40 56.25 L 252.72 56.03 L 253.03 55.82 L 253.35 55.60 L 253.67 55.39 L 253.98 55.17 L 254.30 54.95 L 254.61 54.74 L 254.93 54.52 L 255.25 54.31 L 255.56 54.09 L 255.88 53.87 L 256.19 53.65 L 256.51 53.44 L 256.83 53.22 L 257.14 53.00 L 257.46 52.79 L 257.77 52.57 L 258.09 52.35 L 258.40 52.13 L 258.72 51.92 L 259.04 51.70 L 259.35 51.48 L 259.67 51.26 L 259.98 51.04 L 260.30 50.83 L 260.62 50.61 L 260.93 50.39 L 261.25 50.17 L 261.56 49.95 L 261.88 49.73 L 262.20 49.51 L 262.51 49.29 L 262.83 49.08 L 263.14 48.86 L 263.46 48.64 L 263.78 48.42 L 264.09 48.20 L 264.41 47.98 L 264.72 47.76 L 265.04 47.54 L 265.35 47.32 L 265.67 47.10 L 265.99 46.88 L 266.30 46.66 L 266.62 46.44 L 266.93 46.22 L 267.25 46.00 L 267.57 45.78 L 267.88 45.56 L 268.20 45.33 L 268.51 45.11 L 268.83 44.89 L 269.15 44.67 L 269.46 44.45 L 269.78 44.23 L 270.09 44.01 L 270.41 43.79 L 270.73 43.56 L 271.04 43.34 L 271.36 43.12 L 271.67 42.90 L 271.99 42.68 L 272.30 42.45 L 272.62 42.23 L 272.94 42.01 L 273.25 41.79 L 273.57 41.56 L 273.88 41.34 L 274.20 41.12 L 274.52 40.89 L 274.83 40.67 L 275.15 40.45 L 275.46 40.23 L 275.78 40.00 L 276.10 39.78 L 276.41 39.55 L 276.73 39.33 L 277.04 39.11 L 277.36 38.88 L 277.68 38.66 L 277.99 38.44 L 278.31 38.21 L 278.62 37.99 L 278.94 37.76 L 279.25 37.54 L 279.57 37.31 L 279.89 37.09 L 280.20 36.86 L 280.52 36.64 L 280.83 36.41 L 281.15 36.19 L 281.47 35.96 L 281.78 35.74 L 282.10 35.51 L 282.41 35.29 L 282.73 35.06 L 283.05 34.84 L 283.36 34.61 L 283.68 34.39 L 283.99 34.16 L 284.31 33.93 L 284.63 33.71 L 284.94 33.48 L 285.26 33.25 L 285.57 33.03 L 285.89 32.80 L 286.20 32.58 L 286.52 32.35 L 286.84 32.12 L 287.15 31.89 L 287.47 31.67 L 287.78 31.44 L 288.10 31.21 L 288.42 30.99 L 288.73 30.76 L 289.05 30.53 L 289.36 30.30 L 289.68 30.08 L 290.00 29.85 L 290.31 29.62 L 290.63 29.39 L 290.94 29.16 L 291.26 28.94 L 291.58 28.71 L 291.89 28.48 L 292.21 28.25 L 292.52 28.02 L 292.84 27.79 L 293.15 27.57 L 293.47 27.34 L 293.79 27.11 L 294.10 26.88 L 294.42 26.65 L 294.73 26.42 L 295.05 26.19 L 295.37 25.96 L 295.68 25.73 L 296.00 25.50 L 296.31 25.27 L 296.63 25.04 L 296.95 24.81 L 297.26 24.58 L 297.58 24.35 L 297.89 24.12 L 298.21 23.89 L 298.53 23.66 L 298.84 23.43 L 299.16 23.20 L 299.47 22.97 L 299.79 22.74 L 300.10 22.51 L 300.42 22.28 L 300.74 22.05 L 301.05 21.82 L 301.37 21.59 L 301.68 21.35 L 302.00 21.12" fill="none" stroke="#7E8692" stroke-width="2.3" stroke-linecap="round" stroke-linejoin="round"/>
</svg>
