<svg xmlns="http://www.w3.org/2000/svg" viewBox="0 0 320 180" width="320" height="180">
  <rect width="320" height="180" fill="#F4F5F7"/>
  <path d="M 18.00 104.41 L 18.18 104.41 L 18.36 104.42 L 18.53 104.42 L 18.71 104.42 L 18.89 104.43 L 19.07 104.43 L 19.24 104.43 L 19.42 104.44 L 19.60 104.44 L 19.78 104.45 L 19.95 104.45 L 20.13 104.46 L 20.31 104.46 L 20.49 104.47 L 20.66 104.47 L 20.84 104.48 L 21.02 104.48 L 21.20 104.49 L 21.37 104.50 L 21.55 104.50 L 21.73 104.51 L 21.91 104.52 L 22.09 104.52 L 22.26 104.53 L 22.44 104.54 L 22.62 104.55 L 22.80 104.56 L 22.97 104.56 L 23.15 104.57 L 23.33 104.58 L 23.51 104.59 L 23.68 104.60 L 23.86 104.61 L 24.04 104.62 L 24.22 104.63 L 24.39 104.64 L 24.57 104.65 L 24.75 104.66 L 24.93 104.67 L 25.10 104.68 L 25.28 104.69 L 25.46 104.71 L 25.64 104.72 L 25.81 104.73 L 25.99 104.74 L 26.17 104.76 L 26.35 104.77 L 26.53 104.78 L 26.70 104.79 L 26.88 104.81 L 27.06 104.82 L 27.24 104.84 L 27.41 104.85 L 27.59 104.87 L 27.77 104.88 L 27.95 104.90 L 28.12 104.91 L 28.30 104.93 L 28.48 104.94 L 28.66 104.96 L 28.83 104.98 L 29.01 104.99 L 29.19 105.01 L 29.37 105.03 L 29.54 105.04 L 29.72 105.06 L 29.90 105.08 L 30.08 105.10 L 30.26 105.12 L 30.43 105.14 L 30.61 105.15 L 30.79 105.17 L 30.97 105.19 L 31.14 105.21 L 31.32 105.23 L 31.50 105.25 L 31.68 105.28 L 31.85 105.30 L 32.03 105.32 L 32.21 105.34 L 32.39 105.36 L 32.56 105.38 L 32.74 105.41 L 32.92 105.43 L 33.10 105.45 L 33.27 105.48 L 33.45 105.50 L 33.63 105.52 L 33.81 105.55 L 33.98 105.57 L 34.16 105.60 L 34.34 105.62 L 34.52 105.65 L 34.70 105.67 L 34.87 105.70 L 35.05 105.73 L 35.23 105.75 L 35.41 105.78 L 35.58 105.81 L 35.76 105.84 L 35.94 105.87 L 36.12 105.89 L 36.29 105.92 L 36.47 105.95 L 36.65 105.98 L 36.83 106.01 L 37.00 106.04 L 37.18 106.07 L 37.36 106.10 L 37.54 106.14 L 37.71 106.17 L 37.89 106.20 L 38.07 106.23 L 38.25 106.27 L 38.43 106.30 L 38.60 106.33 L 38.78 106.37 L 38.96 106.40 L 39.14 106.44 L 39.31 106.47 L 39.49 106.51 L 39.67 106.54 L 39.85 106.58 L 40.02 106.62 L 40.20 106.65 L 40.38 106.69 L 40.56 106.73 L 40.73 106.77 L 40.91 106.81 L 41.09 106.85 L 41.27 106.89 L 41.44 106.93 L 41.62 106.97 L 41.80 107.01 L 41.98 107.05 L 42.16 107.09 L 42.33 107.13 L 42.51 107.18 L 42.69 107.22 L 42.87 107.27 L 43.04 107.31 L 43.22 107.36 L 43.40 107.40 L 43.58 107.45 L 43.75 107.49 L 43.93 107.54 L 44.11 107.59 L 44.29 107.64 L 44.46 107.68 L 44.64 107.73 L 44.82 107.78 L 45.00 107.83 L 45.17 107.88 L 45.35 107.94 L 45.53 107.99 L 45.71 108.04 L 45.88 108.09 L 46.06 108.15 L 46.24 108.20 L 46.42 108.26 L 46.60 108.31 L 46.77 108.37 L 46.95 108.42 L 47.13 108.48 L 47.31 108.54 L 47.48 108.60 L 47.66 108.66 L 47.84 108.72 L 48.02 108.78 L 48.19 108.84 L 48.37 108.90 L 48.55 108.96 L 48.73 109.03 L 48.90 109.09 L 49.08 109.16 L 49.26 109.22 L 49.44 109.29 L 49.61 109.36 L 49.79 109.42 L 49.97 109.49 L 50.15 109.56 L 50.33 109.63 L 50.50 109.70 L 50.68 109.77 L 50.86 109.85 L 51.04 109.92 L 51.21 109.99 L 51.39 110.07 L 51.57 110.14 L 51.75 110.22 L 51.92 110.30 L 52.10 110.38 L 52.28 110.46 L 52.46 110.54 L 52.63 110.62 L 52.81 110.70 L 52.99 110.79 L 53.17 110.87 L 53.34 110.96 L 53.52 111.04 L 53.70 111.13 L 53.88 111.22 L 54.06 111.31 L 54.23 111.40 L 54.41 111.49 L 54.59 111.58 L 54.77 111.68 L 54.94 111.77 L 55.12 111.87 L 55.30 111.97 L 55.48 112.06 L 55.65 112.16 L 55.83 112.27 L 56.01 112.37 L 56.19 112.47 L 56.36 112.58 L 56.54 112.68 L 56.72 112.79 L 56.90 112.90 L 57.07 113.01 L 57.25 113.12 L 57.43 113.24 L 57.61 113.35 L 57.78 113.47 L 57.96 113.58 L 58.14 113.70 L 58.32 113.82 L 58.50 113.95 L 58.67 114.07 L 58.85 114.20 L 59.03 114.32 L 59.21 114.45 L 59.38 114.59 L 59.56 114.72 L 59.74 114.85 L 59.92 114.99 L 60.09 115.13 L 60.27 115.27 L 60.45 115.41 L 60.63 115.55 L 60.80 115.70 L 60.98 115.85 L 61.16 116.00 L 61.34 116.15 L 61.51 116.31 L 61.69 116.46 L 61.87 116.62 L 62.05 116.79 L 62.23 116.95 L 62.40 117.12 L 62.58 117.28 L 62.76 117.46 L 62.94 117.63 L 63.11 117.81 L 63.29 117.99 L 63.47 118.17 L 63.65 118.35 L 63.82 118.54 L 64.00 118.73 L 64.18 118.93 L 64.36 119.12 L 64.53 119.32 L 64.71 119.53 L 64.89 119.73 L 65.07 119.94 L 65.24 120.16 L 65.42 120.37 L 65.60 120.59 L 65.78 120.82 L 65.95 121.05 L 66.13 121.28 L 66.31 121.51 L 66.49 121.75 L 66.67 122.00 L 66.84 122.25 L 67.02 122.50 L 67.20 122.76 L 67.38 123.02 L 67.55 123.29 L 67.73 123.56 L 67.91 123.83 L 68.09 124.11 L 68.26 124.40 L 68.44 124.69 L 68.62 124.99 L 68.80 125.29 L 68.97 125.60 L 69.15 125.92 L 69.33 126.24 L 69.51 126.57 L 69.68 126.90 L 69.86 127.24 L 70.04 127.59 L 70.22 127.95 L 70.40 128.31 L 70.57 128.68 L 70.75 129.06 L 70.93 129.44 L 71.11 129.84 L 71.28 130.24 L 71.46 130.65 L 71.64 131.07 L 71.82 131.50 L 71.99 131.94 L 72.17 132.39 L 72.35 132.85 L 72.53 133.32 L 72.70 133.81 L 72.88 134.30 L 73.06 134.80 L 73.24 135.32 L 73.41 135.85 L 73.59 136.40 L 73.77 136.96 L 73.95 137.53 L 74.13 138.12 L 74.30 138.72 L 74.48 139.34 L 74.66 139.97 L 74.84 140.62 L 75.01 141.30 L 75.19 141.99 L 75.37 142.69 L 75.55 143.42 L 75.72 144.17 L 75.90 144.95 L 76.08 145.74 L 76.26 146.56 L 76.43 147.41 L 76.61 148.28 L 76.79 149.18 L 76.97 150.11 L 77.14 151.07 L 77.32 152.07 L 77.50 153.09 L 77.68 154.15 L 77.85 155.25 L 78.03 156.39 L 78.21 157.57 L 78.39 158.79 L 78.57 160.06 L 78.74 161.38 L 78.92 162.75 L 79.10 164.18 L 79.28 165.66 L 79.45 167.20 L 79.63 168.82 L 79.81 170.50 L 79.99 172.25 L 80.16 174.08 L 80.34 176.00 L 80.52 178.01 L 80.70 180.12 L 80.87 182.33 L 81.05 184.66 L 81.23 187.11 L 81.41 189.68 L 81.58 192.40 L 81.76 195.28 L 81.94 198.32 L 82.12 201.55 L 82.30 204.97 L 82.47 208.62 L 82.65 212.50 L 82.83 216.65 L 83.01 221.09 L 83.18 225.86 L 83.36 230.99 L 83.54 236.53 L 83.72 242.52 L 83.89 249.02 L 84.07 256.10 L 84.25 263.85 L 84.43 272.36 L 84.60 281.75" fill="none" stroke="#7E8692" stroke-width="2.3" stroke-linecap="round" stroke-linejoin="round"/>
  <path d="M 91.53 -99.53 L 91.71 -90.36 L 91.89 -82.03 L 92.06 -74.44 L 92.24 -67.50 L 92.42 -61.11 L 92.60 -55.23 L 92.77 -49.79 L 92.95 -44.75 L 93.13 -40.06 L 93.31 -35.69 L 93.48 -31.60 L 93.66 -27.77 L 93.84 -24.18 L 94.02 -20.80 L 94.20 -17.62 L 94.37 -14.61 L 94.55 -11.77 L 94.73 -9.09 L 94.91 -6.54 L 95.08 -4.12 L 95.26 -1.82 L 95.44 0.37 L 95.62 2.45 L 95.79 4.44 L 95.97 6.34 L 96.15 8.15 L 96.33 9.89 L 96.50 11.56 L 96.68 13.15 L 96.86 14.68 L 97.04 16.15 L 97.21 17.56 L 97.39 18.92 L 97.57 20.23 L 97.75 21.49 L 97.92 22.70 L 98.10 23.87 L 98.28 25.00 L 98.46 26.09 L 98.64 27.14 L 98.81 28.16 L 98.99 29.15 L 99.17 30.10 L 99.35 31.02 L 99.52 31.92 L 99.70 32.78 L 99.88 33.62 L 100.06 34.44 L 100.23 35.23 L 100.41 36.00 L 100.59 36.74 L 100.77 37.47 L 100.94 38.17 L 101.12 38.86 L 101.30 39.52 L 101.48 40.17 L 101.65 40.81 L 101.83 41.42 L 102.01 42.02 L 102.19 42.60 L 102.37 43.17 L 102.54 43.73 L 102.72 44.27 L 102.90 44.80 L 103.08 45.31 L 103.25 45.81 L 103.43 46.31 L 103.61 46.79 L 103.79 47.25 L 103.96 47.71 L 104.14 48.16 L 104.32 48.60 L 104.50 49.02 L 104.67 49.44 L 104.85 49.85 L 105.03 50.25 L 105.21 50.65 L 105.38 51.03 L 105.56 51.41 L 105.74 51.77 L 105.92 52.14 L 106.10 52.49 L 106.27 52.83 L 106.45 53.17 L 106.63 53.51 L 106.81 53.83 L 106.98 54.15 L 107.16 54.47 L 107.34 54.78 L 107.52 55.08 L 107.69 55.37 L 107.87 55.66 L 108.05 55.95 L 108.23 56.23 L 108.40 56.51 L 108.58 56.78 L 108.76 57.04 L 108.94 57.30 L 109.11 57.56 L 109.29 57.81 L 109.47 58.06 L 109.65 58.30 L 109.82 58.54 L 110.00 58.77 L 110.18 59.01 L 110.36 59.23 L 110.54 59.46 L 110.71 59.68 L 110.89 59.89 L 111.07 60.10 L 111.25 60.31 L 111.42 60.52 L 111.60 60.72 L 111.78 60.92 L 111.96 61.12 L 112.13 61.31 L 112.31 61.50 L 112.49 61.69 L 112.67 61.87 L 112.84 62.05 L 113.02 62.23 L 113.20 62.41 L 113.38 62.58 L 113.55 62.75 L 113.73 62.92 L 113.91 63.09 L 114.09 63.25 L 114.27 63.41 L 114.44 63.57 L 114.62 63.73 L 114.80 63.88 L 114.98 64.03 L 115.15 64.18 L 115.33 64.33 L 115.51 64.48 L 115.69 64.62 L 115.86 64.76 L 116.04 64.90 L 116.22 65.04 L 116.40 65.18 L 116.57 65.31 L 116.75 65.44 L 116.93 65.58 L 117.11 65.70 L 117.28 65.83 L 117.46 65.96 L 117.64 66.08 L 117.82 66.20 L 117.99 66.32 L 118.17 66.44 L 118.35 66.56 L 118.53 66.68 L 118.71 66.79 L 118.88 66.90 L 119.06 67.02 L 119.24 67.13 L 119.42 67.23 L 119.59 67.34 L 119.77 67.45 L 119.95 67.55 L 120.13 67.66 L 120.30 67.76 L 120.48 67.86 L 120.66 67.96 L 120.84 68.06 L 121.01 68.15 L 121.19 68.25 L 121.37 68.34 L 121.55 68.44 L 121.72 68.53 L 121.90 68.62 L 122.08 68.71 L 122.26 68.80 L 122.44 68.89 L 122.61 68.98 L 122.79 69.06 L 122.97 69.15 L 123.15 69.23 L 123.32 69.32 L 123.50 69.40 L 123.68 69.48 L 123.86 69.56 L 124.03 69.64 L 124.21 69.72 L 124.39 69.80 L 124.57 69.87 L 124.74 69.95 L 124.92 70.02 L 125.10 70.10 L 125.28 70.17 L 125.45 70.24 L 125.63 70.31 L 125.81 70.39 L 125.99 70.46 L 126.17 70.52 L 126.34 70.59 L 126.52 70.66 L 126.70 70.73 L 126.88 70.79 L 127.05 70.86 L 127.23 70.92 L 127.41 70.99 L 127.59 71.05 L 127.76 71.11 L 127.94 71.17 L 128.12 71.24 L 128.30 71.30 L 128.47 71.36 L 128.65 71.42 L 128.83 71.47 L 129.01 71.53 L 129.18 71.59 L 129.36 71.65 L 129.54 71.70 L 129.72 71.76 L 129.89 71.81 L 130.07 71.87 L 130.25 71.92 L 130.43 71.97 L 130.61 72.02 L 130.78 72.08 L 130.96 72.13 L 131.14 72.18 L 131.32 72.23 L 131.49 72.28 L 131.67 72.33 L 131.85 72.37 L 132.03 72.42 L 132.20 72.47 L 132.38 72.52 L 132.56 72.56 L 132.74 72.61 L 132.91 72.66 L 133.09 72.70 L 133.27 72.74 L 133.45 72.79 L 133.62 72.83 L 133.80 72.87 L 133.98 72.92 L 134.16 72.96 L 134.34 73.00 L 134.51 73.04 L 134.69 73.08 L 134.87 73.12 L 135.05 73.16 L 135.22 73.20 L 135.40 73.24 L 135.58 73.28 L 135.76 73.32 L 135.93 73.36 L 136.11 73.39 L 136.29 73.43 L 136.47 73.47 L 136.64 73.50 L 136.82 73.54 L 137.00 73.57 L 137.18 73.61 L 137.35 73.64 L 137.53 73.68 L 137.71 73.71 L 137.89 73.74 L 138.07 73.78 L 138.24 73.81 L 138.42 73.84 L 138.60 73.87 L 138.78 73.90 L 138.95 73.93 L 139.13 73.96 L 139.31 73.99 L 139.49 74.02 L 139.66 74.05 L 139.84 74.08 L 140.02 74.11 L 140.20 74.14 L 140.37 74.17 L 140.55 74.20 L 140.73 74.22 L 140.91 74.25 L 141.08 74.28 L 141.26 74.31 L 141.44 74.33 L 141.62 74.36 L 141.79 74.38 L 141.97 74.41 L 142.15 74.43 L 142.33 74.46 L 142.51 74.48 L 142.68 74.51 L 142.86 74.53 L 143.04 74.55 L 143.22 74.58 L 143.39 74.60 L 143.57 74.62 L 143.75 74.64 L 143.93 74.67 L 144.10 74.69 L 144.28 74.71 L 144.46 74.73 L 144.64 74.75 L 144.81 74.77 L 144.99 74.79 L 145.17 74.81 L 145.35 74.83 L 145.52 74.85 L 145.70 74.87 L 145.88 74.89 L 146.06 74.91 L 146.24 74.92 L 146.41 74.94 L 146.59 74.96 L 146.77 74.98 L 146.95 74.99 L 147.12 75.01 L 147.30 75.03 L 147.48 75.04 L 147.66 75.06 L 147.83 75.08 L 148.01 75.09 L 148.19 75.11 L 148.37 75.12 L 148.54 75.14 L 148.72 75.15 L 148.90 75.17 L 149.08 75.18 L 149.25 75.19 L 149.43 75.21 L 149.61 75.22 L 149.79 75.23 L 149.96 75.25 L 150.14 75.26 L 150.32 75.27 L 150.50 75.28 L 150.68 75.30 L 150.85 75.31 L 151.03 75.32 L 151.21 75.33 L 151.39 75.34 L 151.56 75.35 L 151.74 75.36 L 151.92 75.37 L 152.10 75.38 L 152.27 75.39 L 152.45 75.40 L 152.63 75.41 L 152.81 75.42 L 152.98 75.43 L 153.16 75.44 L 153.34 75.45 L 153.52 75.45 L 153.69 75.46 L 153.87 75.47 L 154.05 75.48 L 154.23 75.48 L 154.41 75.49 L 154.58 75.50 L 154.76 75.51 L 154.94 75.51 L 155.12 75.52 L 155.29 75.52 L 155.47 75.53 L 155.65 75.53 L 155.83 75.54 L 156.00 75.55 L 156.18 75.55 L 156.36 75.55 L 156.54 75.56 L 156.71 75.56 L 156.89 75.57 L 157.07 75.57 L 157.25 75.57 L 157.42 75.58 L 157.60 75.58 L 157.78 75.58 L 157.96 75.59 L 158.14 75.59 L 158.31 75.59 L 158.49 75.59 L 158.67 75.59 L 158.85 75.60 L 159.02 75.60 L 159.20 75.60 L 159.38 75.60 L 159.56 75.60 L 159.73 75.60 L 159.91 75.60 L 160.09 75.60 L 160.27 75.60 L 160.44 75.60 L 160.62 75.60 L 160.80 75.60 L 160.98 75.60 L 161.15 75.60 L 161.33 75.59 L 161.51 75.59 L 161.69 75.59 L 161.86 75.59 L 162.04 75.59 L 162.22 75.58 L 162.40 75.58 L 162.58 75.58 L 162.75 75.57 L 162.93 75.57 L 163.11 75.57 L 163.29 75.56 L 163.46 75.56 L 163.64 75.55 L 163.82 75.55 L 164.00 75.55 L 164.17 75.54 L 164.35 75.53 L 164.53 75.53 L 164.71 75.52 L 164.88 75.52 L 165.06 75.51 L 165.24 75.51 L 165.42 75.50 L 165.59 75.49 L 165.77 75.48 L 165.95 75.48 L 166.13 75.47 L 166.31 75.46 L 166.48 75.45 L 166.66 75.45 L 166.84 75.44 L 167.02 75.43 L 167.19 75.42 L 167.37 75.41 L 167.55 75.40 L 167.73 75.39 L 167.90 75.38 L 168.08 75.37 L 168.26 75.36 L 168.44 75.35 L 168.61 75.34 L 168.79 75.33 L 168.97 75.32 L 169.15 75.31 L 169.32 75.30 L 169.50 75.28 L 169.68 75.27 L 169.86 75.26 L 170.04 75.25 L 170.21 75.23 L 170.39 75.22 L 170.57 75.21 L 170.75 75.19 L 170.92 75.18 L 171.10 75.17 L 171.28 75.15 L 171.46 75.14 L 171.63 75.12 L 171.81 75.11 L 171.99 75.09 L 172.17 75.08 L 172.34 75.06 L 172.52 75.04 L 172.70 75.03 L 172.88 75.01 L 173.05 74.99 L 173.23 74.98 L 173.41 74.96 L 173.59 74.94 L 173.76 74.92 L 173.94 74.91 L 174.12 74.89 L 174.30 74.87 L 174.48 74.85 L 174.65 74.83 L 174.83 74.81 L 175.01 74.79 L 175.19 74.77 L 175.36 74.75 L 175.54 74.73 L 175.72 74.71 L 175.90 74.69 L 176.07 74.67 L 176.25 74.64 L 176.43 74.62 L 176.61 74.60 L 176.78 74.58 L 176.96 74.55 L 177.14 74.53 L 177.32 74.51 L 177.49 74.48 L 177.67 74.46 L 177.85 74.43 L 178.03 74.41 L 178.21 74.38 L 178.38 74.36 L 178.56 74.33 L 178.74 74.31 L 178.92 74.28 L 179.09 74.25 L 179.27 74.22 L 179.45 74.20 L 179.63 74.17 L 179.80 74.14 L 179.98 74.11 L 180.16 74.08 L 180.34 74.05 L 180.51 74.02 L 180.69 73.99 L 180.87 73.96 L 181.05 73.93 L 181.22 73.90 L 181.40 73.87 L 181.58 73.84 L 181.76 73.81 L 181.93 73.78 L 182.11 73.74 L 182.29 73.71 L 182.47 73.68 L 182.65 73.64 L 182.82 73.61 L 183.00 73.57 L 183.18 73.54 L 183.36 73.50 L 183.53 73.47 L 183.71 73.43 L 183.89 73.39 L 184.07 73.36 L 184.24 73.32 L 184.42 73.28 L 184.60 73.24 L 184.78 73.20 L 184.95 73.16 L 185.13 73.12 L 185.31 73.08 L 185.49 73.04 L 185.66 73.00 L 185.84 72.96 L 186.02 72.92 L 186.20 72.87 L 186.38 72.83 L 186.55 72.79 L 186.73 72.74 L 186.91 72.70 L 187.09 72.66 L 187.26 72.61 L 187.44 72.56 L 187.62 72.52 L 187.80 72.47 L 187.97 72.42 L 188.15 72.37 L 188.33 72.33 L 188.51 72.28 L 188.68 72.23 L 188.86 72.18 L 189.04 72.13 L 189.22 72.08 L 189.39 72.02 L 189.57 71.97 L 189.75 71.92 L 189.93 71.87 L 190.11 71.81 L 190.28 71.76 L 190.46 71.70 L 190.64 71.65 L 190.82 71.59 L 190.99 71.53 L 191.17 71.47 L 191.35 71.42 L 191.53 71.36 L 191.70 71.30 L 191.88 71.24 L 192.06 71.17 L 192.24 71.11 L 192.41 71.05 L 192.59 70.99 L 192.77 70.92 L 192.95 70.86 L 193.12 70.79 L 193.30 70.73 L 193.48 70.66 L 193.66 70.59 L 193.83 70.52 L 194.01 70.46 L 194.19 70.39 L 194.37 70.31 L 194.55 70.24 L 194.72 70.17 L 194.90 70.10 L 195.08 70.02 L 195.26 69.95 L 195.43 69.87 L 195.61 69.80 L 195.79 69.72 L 195.97 69.64 L 196.14 69.56 L 196.32 69.48 L 196.50 69.40 L 196.68 69.32 L 196.85 69.23 L 197.03 69.15 L 197.21 69.06 L 197.39 68.98 L 197.56 68.89 L 197.74 68.80 L 197.92 68.71 L 198.10 68.62 L 198.28 68.53 L 198.45 68.44 L 198.63 68.34 L 198.81 68.25 L 198.99 68.15 L 199.16 68.06 L 199.34 67.96 L 199.52 67.86 L 199.70 67.76 L 199.87 67.66 L 200.05 67.55 L 200.23 67.45 L 200.41 67.34 L 200.58 67.23 L 200.76 67.13 L 200.94 67.02 L 201.12 66.90 L 201.29 66.79 L 201.47 66.68 L 201.65 66.56 L 201.83 66.44 L 202.01 66.32 L 202.18 66.20 L 202.36 66.08 L 202.54 65.96 L 202.72 65.83 L 202.89 65.70 L 203.07 65.58 L 203.25 65.44 L 203.43 65.31 L 203.60 65.18 L 203.78 65.04 L 203.96 64.90 L 204.14 64.76 L 204.31 64.62 L 204.49 64.48 L 204.67 64.33 L 204.85 64.18 L 205.02 64.03 L 205.20 63.88 L 205.38 63.73 L 205.56 63.57 L 205.73 63.41 L 205.91 63.25 L 206.09 63.09 L 206.27 62.92 L 206.45 62.75 L 206.62 62.58 L 206.80 62.41 L 206.98 62.23 L 207.16 62.05 L 207.33 61.87 L 207.51 61.69 L 207.69 61.50 L 207.87 61.31 L 208.04 61.12 L 208.22 60.92 L 208.40 60.72 L 208.58 60.52 L 208.75 60.31 L 208.93 60.10 L 209.11 59.89 L 209.29 59.68 L 209.46 59.46 L 209.64 59.23 L 209.82 59.01 L 210.00 58.77 L 210.18 58.54 L 210.35 58.30 L 210.53 58.06 L 210.71 57.81 L 210.89 57.56 L 211.06 57.30 L 211.24 57.04 L 211.42 56.78 L 211.60 56.51 L 211.77 56.23 L 211.95 55.95 L 212.13 55.66 L 212.31 55.37 L 212.48 55.08 L 212.66 54.78 L 212.84 54.47 L 213.02 54.15 L 213.19 53.83 L 213.37 53.51 L 213.55 53.17 L 213.73 52.83 L 213.90 52.49 L 214.08 52.14 L 214.26 51.77 L 214.44 51.41 L 214.62 51.03 L 214.79 50.65 L 214.97 50.25 L 215.15 49.85 L 215.33 49.44 L 215.50 49.02 L 215.68 48.60 L 215.86 48.16 L 216.04 47.71 L 216.21 47.25 L 216.39 46.79 L 216.57 46.31 L 216.75 45.81 L 216.92 45.31 L 217.10 44.80 L 217.28 44.27 L 217.46 43.73 L 217.63 43.17 L 217.81 42.60 L 217.99 42.02 L 218.17 41.42 L 218.35 40.81 L 218.52 40.17 L 218.70 39.52 L 218.88 38.86 L 219.06 38.17 L 219.23 37.47 L 219.41 36.74 L 219.59 36.00 L 219.77 35.23 L 219.94 34.44 L 220.12 33.62 L 220.30 32.78 L 220.48 31.92 L 220.65 31.02 L 220.83 30.10 L 221.01 29.15 L 221.19 28.16 L 221.36 27.14 L 221.54 26.09 L 221.72 25.00 L 221.90 23.87 L 222.08 22.70 L 222.25 21.49 L 222.43 20.23 L 222.61 18.92 L 222.79 17.56 L 222.96 16.15 L 223.14 14.68 L 223.32 13.15 L 223.50 11.56 L 223.67 9.89 L 223.85 8.15 L 224.03 6.34 L 224.21 4.44 L 224.38 2.45 L 224.56 0.37 L 224.74 -1.82 L 224.92 -4.12 L 225.09 -6.54 L 225.27 -9.09 L 225.45 -11.77 L 225.63 -14.61 L 225.80 -17.62 L 225.98 -20.80 L 226.16 -24.18 L 226.34 -27.77 L 226.52 -31.60 L 226.69 -35.69 L 226.87 -40.06 L 227.05 -44.75 L 227.23 -49.79 L 227.40 -55.23 L 227.58 -61.11 L 227.76 -67.50 L 227.94 -74.44 L 228.11 -82.03 L 228.29 -90.36 L 228.47 -99.53" fill="none" stroke="#7E8692" stroke-width="2.3" stroke-linecap="round" stroke-linejoin="round"/>
  <path d="M 235.40 281.75 L 235.57 272.36 L 235.75 263.85 L 235.93 256.10 L 236.11 249.02 L 236.28 242.52 L 236.46 236.53 L 236.64 230.99 L 236.82 225.86 L 236.99 221.09 L 237.17 216.65 L 237.35 212.50 L 237.53 208.62 L 237.70 204.97 L 237.88 201.55 L 238.06 198.32 L 238.24 195.28 L 238.42 192.40 L 238.59 189.68 L 238.77 187.11 L 238.95 184.66 L 239.13 182.33 L 239.30 180.12 L 239.48 178.01 L 239.66 176.00 L 239.84 174.08 L 240.01 172.25 L 240.19 170.50 L 240.37 168.82 L 240.55 167.20 L 240.72 165.66 L 240.90 164.18 L 241.08 162.75 L 241.26 161.38 L 241.43 160.06 L 241.61 158.79 L 241.79 157.57 L 241.97 156.39 L 242.15 155.25 L 242.32 154.15 L 242.50 153.09 L 242.68 152.07 L 242.86 151.07 L 243.03 150.11 L 243.21 149.18 L 243.39 148.28 L 243.57 147.41 L 243.74 146.56 L 243.92 145.74 L 244.10 144.95 L 244.28 144.17 L 244.45 143.42 L 244.63 142.69 L 244.81 141.99 L 244.99 141.30 L 245.16 140.62 L 245.34 139.97 L 245.52 139.34 L 245.70 138.72 L 245.87 138.12 L 246.05 137.53 L 246.23 136.96 L 246.41 136.40 L 246.59 135.85 L 246.76 135.32 L 246.94 134.80 L 247.12 134.30 L 247.30 133.81 L 247.47 133.32 L 247.65 132.85 L 247.83 132.39 L 248.01 131.94 L 248.18 131.50 L 248.36 131.07 L 248.54 130.65 L 248.72 130.24 L 248.89 129.84 L 249.07 129.44 L 249.25 129.06 L 249.43 128.68 L 249.60 128.31 L 249.78 127.95 L 249.96 127.59 L 250.14 127.24 L 250.32 126.90 L 250.49 126.57 L 250.67 126.24 L 250.85 125.92 L 251.03 125.60 L 251.20 125.29 L 251.38 124.99 L 251.56 124.69 L 251.74 124.40 L 251.91 124.11 L 252.09 123.83 L 252.27 123.56 L 252.45 123.29 L 252.62 123.02 L 252.80 122.76 L 252.98 122.50 L 253.16 122.25 L 253.33 122.00 L 253.51 121.75 L 253.69 121.51 L 253.87 121.28 L 254.05 121.05 L 254.22 120.82 L 254.40 120.59 L 254.58 120.37 L 254.76 120.16 L 254.93 119.94 L 255.11 119.73 L 255.29 119.53 L 255.47 119.32 L 255.64 119.12 L 255.82 118.93 L 256.00 118.73 L 256.18 118.54 L 256.35 118.35 L 256.53 118.17 L 256.71 117.99 L 256.89 117.81 L 257.06 117.63 L 257.24 117.46 L 257.42 117.28 L 257.60 117.12 L 257.77 116.95 L 257.95 116.79 L 258.13 116.62 L 258.31 116.46 L 258.49 116.31 L 258.66 116.15 L 258.84 116.00 L 259.02 115.85 L 259.20 115.70 L 259.37 115.55 L 259.55 115.41 L 259.73 115.27 L 259.91 115.13 L 260.08 114.99 L 260.26 114.85 L 260.44 114.72 L 260.62 114.59 L 260.79 114.45 L 260.97 114.32 L 261.15 114.20 L 261.33 114.07 L 261.50 113.95 L 261.68 113.82 L 261.86 113.70 L 262.04 113.58 L 262.22 113.47 L 262.39 113.35 L 262.57 113.24 L 262.75 113.12 L 262.93 113.01 L 263.10 112.90 L 263.28 112.79 L 263.46 112.68 L 263.64 112.58 L 263.81 112.47 L 263.99 112.37 L 264.17 112.27 L 264.35 112.16 L 264.52 112.06 L 264.70 111.97 L 264.88 111.87 L 265.06 111.77 L 265.23 111.68 L 265.41 111.58 L 265.59 111.49 L 265.77 111.40 L 265.94 111.31 L 266.12 111.22 L 266.30 111.13 L 266.48 111.04 L 266.66 110.96 L 266.83 110.87 L 267.01 110.79 L 267.19 110.70 L 267.37 110.62 L 267.54 110.54 L 267.72 110.46 L 267.90 110.38 L 268.08 110.30 L 268.25 110.22 L 268.43 110.14 L 268.61 110.07 L 268.79 109.99 L 268.96 109.92 L 269.14 109.85 L 269.32 109.77 L 269.50 109.70 L 269.67 109.63 L 269.85 109.56 L 270.03 109.49 L 270.21 109.42 L 270.39 109.36 L 270.56 109.29 L 270.74 109.22 L 270.92 109.16 L 271.10 109.09 L 271.27 109.03 L 271.45 108.96 L 271.63 108.90 L 271.81 108.84 L 271.98 108.78 L 272.16 108.72 L 272.34 108.66 L 272.52 108.60 L 272.69 108.54 L 272.87 108.48 L 273.05 108.42 L 273.23 108.37 L 273.40 108.31 L 273.58 108.26 L 273.76 108.20 L 273.94 108.15 L 274.12 108.09 L 274.29 108.04 L 274.47 107.99 L 274.65 107.94 L 274.83 107.88 L 275.00 107.83 L 275.18 107.78 L 275.36 107.73 L 275.54 107.68 L 275.71 107.64 L 275.89 107.59 L 276.07 107.54 L 276.25 107.49 L 276.42 107.45 L 276.60 107.40 L 276.78 107.36 L 276.96 107.31 L 277.13 107.27 L 277.31 107.22 L 277.49 107.18 L 277.67 107.13 L 277.84 107.09 L 278.02 107.05 L 278.20 107.01 L 278.38 106.97 L 278.56 106.93 L 278.73 106.89 L 278.91 106.85 L 279.09 106.81 L 279.27 106.77 L 279.44 106.73 L 279.62 106.69 L 279.80 106.65 L 279.98 106.62 L 280.15 106.58 L 280.33 106.54 L 280.51 106.51 L 280.69 106.47 L 280.86 106.44 L 281.04 106.40 L 281.22 106.37 L 281.40 106.33 L 281.57 106.30 L 281.75 106.27 L 281.93 106.23 L 282.11 106.20 L 282.29 106.17 L 282.46 106.14 L 282.64 106.10 L 282.82 106.07 L 283.00 106.04 L 283.17 106.01 L 283.35 105.98 L 283.53 105.95 L 283.71 105.92 L 283.88 105.89 L 284.06 105.87 L 284.24 105.84 L 284.42 105.81 L 284.59 105.78 L 284.77 105.75 L 284.95 105.73 L 285.13 105.70 L 285.30 105.67 L 285.48 105.65 L 285.66 105.62 L 285.84 105.60 L 286.02 105.57 L 286.19 105.55 L 286.37 105.52 L 286.55 105.50 L 286.73 105.48 L 286.90 105.45 L 287.08 105.43 L 287.26 105.41 L 287.44 105.38 L 287.61 105.36 L 287.79 105.34 L 287.97 105.32 L 288.15 105.30 L 288.32 105.28 L 288.50 105.25 L 288.68 105.23 L 288.86 105.21 L 289.03 105.19 L 289.21 105.17 L 289.39 105.15 L 289.57 105.14 L 289.74 105.12 L 289.92 105.10 L 290.10 105.08 L 290.28 105.06 L 290.46 105.04 L 290.63 105.03 L 290.81 105.01 L 290.99 104.99 L 291.17 104.98 L 291.34 104.96 L 291.52 104.94 L 291.70 104.93 L 291.88 104.91 L 292.05 104.90 L 292.23 104.88 L 292.41 104.87 L 292.59 104.85 L 292.76 104.84 L 292.94 104.82 L 293.12 104.81 L 293.30 104.79 L 293.47 104.78 L 293.65 104.77 L 293.83 104.76 L 294.01 104.74 L 294.19 104.73 L 294.36 104.72 L 294.54 104.71 L 294.72 104.69 L 294.90 104.68 L 295.07 104.67 L 295.25 104.66 L 295.43 104.65 L 295.61 104.64 L 295.78 104.63 L 295.96 104.62 L 296.14 104.61 L 296.32 104.60 L 296.49 104.59 L 296.67 104.58 L 296.85 104.57 L 297.03 104.56 L 297.20 104.56 L 297.38 104.55 L 297.56 104.54 L 297.74 104.53 L 297.91 104.52 L 298.09 104.52 L 298.27 104.51 L 298.45 104.50 L 298.63 104.50 L 298.80 104.49 L 298.98 104.48 L 299.16 104.48 L 299.34 104.47 L 299.51 104.47 L 299.69 104.46 L 299.87 104.46 L 300.05 104.45 L 300.22 104.45 L 300.40 104.44 L 300.58 104.44 L 300.76 104.43 L 300.93 104.43 L 301.11 104.43 L 301.29 104.42 L 301.47 104.42 L 301.64 104.42 L 301.82 104.41 L 302.00 104.41" fill="none" stroke="#7E8692" stroke-width="2.3" stroke-linecap="round" stroke-linejoin="round"/>
</svg>
