<svg xmlns="http://www.w3.org/2000/svg" viewBox="0 0 320 180" width="320" height="180">
  <rect width="320" height="180" fill="#F4F5F7"/>
  <path d="M 18.00 107.33 L 18.24 107.36 L 18.47 107.39 L 18.71 107.42 L 18.95 107.45 L 19.18 107.47 L 19.42 107.50 L 19.66 107.53 L 19.89 107.56 L 20.13 107.59 L 20.37 107.62 L 20.61 107.65 L 20.84 107.67 L 21.08 107.70 L 21.32 107.73 L 21.55 107.76 L 21.79 107.79 L 22.03 107.82 L 22.26 107.85 L 22.50 107.88 L 22.74 107.91 L 22.97 107.94 L 23.21 107.97 L 23.45 108.00 L 23.68 108.03 L 23.92 108.06 L 24.16 108.09 L 24.40 108.12 L 24.63 108.15 L 24.87 108.18 L 25.11 108.21 L 25.34 108.24 L 25.58 108.27 L 25.82 108.31 L 26.05 108.34 L 26.29 108.37 L 26.53 108.40 L 26.76 108.43 L 27.00 108.46 L 27.24 108.49 L 27.47 108.53 L 27.71 108.56 L 27.95 108.59 L 28.19 108.62 L 28.42 108.65 L 28.66 108.69 L 28.90 108.72 L 29.13 108.75 L 29.37 108.78 L 29.61 108.82 L 29.84 108.85 L 30.08 108.88 L 30.32 108.92 L 30.55 108.95 L 30.79 108.98 L 31.03 109.02 L 31.26 109.05 L 31.50 109.08 L 31.74 109.12 L 31.97 109.15 L 32.21 109.18 L 32.45 109.22 L 32.69 109.25 L 32.92 109.29 L 33.16 109.32 L 33.40 109.36 L 33.63 109.39 L 33.87 109.43 L 34.11 109.46 L 34.34 109.50 L 34.58 109.53 L 34.82 109.57 L 35.05 109.60 L 35.29 109.64 L 35.53 109.67 L 35.76 109.71 L 36.00 109.74 L 36.24 109.78 L 36.48 109.82 L 36.71 109.85 L 36.95 109.89 L 37.19 109.93 L 37.42 109.96 L 37.66 110.00 L 37.90 110.04 L 38.13 110.07 L 38.37 110.11 L 38.61 110.15 L 38.84 110.19 L 39.08 110.22 L 39.32 110.26 L 39.55 110.30 L 39.79 110.34 L 40.03 110.38 L 40.27 110.41 L 40.50 110.45 L 40.74 110.49 L 40.98 110.53 L 41.21 110.57 L 41.45 110.61 L 41.69 110.65 L 41.92 110.69 L 42.16 110.73 L 42.40 110.77 L 42.63 110.81 L 42.87 110.85 L 43.11 110.89 L 43.34 110.93 L 43.58 110.97 L 43.82 111.01 L 44.06 111.05 L 44.29 111.09 L 44.53 111.13 L 44.77 111.17 L 45.00 111.21 L 45.24 111.25 L 45.48 111.30 L 45.71 111.34 L 45.95 111.38 L 46.19 111.42 L 46.42 111.46 L 46.66 111.51 L 46.90 111.55 L 47.13 111.59 L 47.37 111.64 L 47.61 111.68 L 47.84 111.72 L 48.08 111.76 L 48.32 111.81 L 48.56 111.85 L 48.79 111.90 L 49.03 111.94 L 49.27 111.98 L 49.50 112.03 L 49.74 112.07 L 49.98 112.12 L 50.21 112.16 L 50.45 112.21 L 50.69 112.25 L 50.92 112.30 L 51.16 112.35 L 51.40 112.39 L 51.63 112.44 L 51.87 112.48 L 52.11 112.53 L 52.35 112.58 L 52.58 112.62 L 52.82 112.67 L 53.06 112.72 L 53.29 112.77 L 53.53 112.81 L 53.77 112.86 L 54.00 112.91 L 54.24 112.96 L 54.48 113.00 L 54.71 113.05 L 54.95 113.10 L 55.19 113.15 L 55.42 113.20 L 55.66 113.25 L 55.90 113.30 L 56.14 113.35 L 56.37 113.40 L 56.61 113.45 L 56.85 113.50 L 57.08 113.55 L 57.32 113.60 L 57.56 113.65 L 57.79 113.70 L 58.03 113.75 L 58.27 113.81 L 58.50 113.86 L 58.74 113.91 L 58.98 113.96 L 59.21 114.01 L 59.45 114.07 L 59.69 114.12 L 59.92 114.17 L 60.16 114.23 L 60.40 114.28 L 60.64 114.33 L 60.87 114.39 L 61.11 114.44 L 61.35 114.50 L 61.58 114.55 L 61.82 114.61 L 62.06 114.66 L 62.29 114.72 L 62.53 114.77 L 62.77 114.83 L 63.00 114.89 L 63.24 114.94 L 63.48 115.00 L 63.71 115.06 L 63.95 115.11 L 64.19 115.17 L 64.43 115.23 L 64.66 115.29 L 64.90 115.34 L 65.14 115.40 L 65.37 115.46 L 65.61 115.52 L 65.85 115.58 L 66.08 115.64 L 66.32 115.70 L 66.56 115.76 L 66.79 115.82 L 67.03 115.88 L 67.27 115.94 L 67.50 116.00 L 67.74 116.06 L 67.98 116.12 L 68.22 116.19 L 68.45 116.25 L 68.69 116.31 L 68.93 116.37 L 69.16 116.44 L 69.40 116.50 L 69.64 116.56 L 69.87 116.63 L 70.11 116.69 L 70.35 116.76 L 70.58 116.82 L 70.82 116.88 L 71.06 116.95 L 71.29 117.02 L 71.53 117.08 L 71.77 117.15 L 72.01 117.21 L 72.24 117.28 L 72.48 117.35 L 72.72 117.42 L 72.95 117.48 L 73.19 117.55 L 73.43 117.62 L 73.66 117.69 L 73.90 117.76 L 74.14 117.83 L 74.37 117.90 L 74.61 117.97 L 74.85 118.04 L 75.08 118.11 L 75.32 118.18 L 75.56 118.25 L 75.79 118.32 L 76.03 118.39 L 76.27 118.47 L 76.51 118.54 L 76.74 118.61 L 76.98 118.69 L 77.22 118.76 L 77.45 118.83 L 77.69 118.91 L 77.93 118.98 L 78.16 119.06 L 78.40 119.13 L 78.64 119.21 L 78.87 119.29 L 79.11 119.36 L 79.35 119.44 L 79.58 119.52 L 79.82 119.59 L 80.06 119.67 L 80.30 119.75 L 80.53 119.83 L 80.77 119.91 L 81.01 119.99 L 81.24 120.07 L 81.48 120.15 L 81.72 120.23 L 81.95 120.31 L 82.19 120.39 L 82.43 120.48 L 82.66 120.56 L 82.90 120.64 L 83.14 120.72 L 83.37 120.81 L 83.61 120.89 L 83.85 120.98 L 84.09 121.06 L 84.32 121.15 L 84.56 121.23 L 84.80 121.32 L 85.03 121.41 L 85.27 121.49 L 85.51 121.58 L 85.74 121.67 L 85.98 121.76 L 86.22 121.85 L 86.45 121.94 L 86.69 122.03 L 86.93 122.12 L 87.16 122.21 L 87.40 122.30 L 87.64 122.39 L 87.87 122.48 L 88.11 122.57 L 88.35 122.67 L 88.59 122.76 L 88.82 122.85 L 89.06 122.95 L 89.30 123.04 L 89.53 123.14 L 89.77 123.24 L 90.01 123.33 L 90.24 123.43 L 90.48 123.53 L 90.72 123.62 L 90.95 123.72 L 91.19 123.82 L 91.43 123.92 L 91.66 124.02 L 91.90 124.12 L 92.14 124.22 L 92.38 124.32 L 92.61 124.43 L 92.85 124.53 L 93.09 124.63 L 93.32 124.73 L 93.56 124.84 L 93.80 124.94 L 94.03 125.05 L 94.27 125.15 L 94.51 125.26 L 94.74 125.37 L 94.98 125.48 L 95.22 125.58 L 95.45 125.69 L 95.69 125.80 L 95.93 125.91 L 96.17 126.02 L 96.40 126.13 L 96.64 126.24 L 96.88 126.35 L 97.11 126.47 L 97.35 126.58 L 97.59 126.69 L 97.82 126.81 L 98.06 126.92 L 98.30 127.04 L 98.53 127.16 L 98.77 127.27 L 99.01 127.39 L 99.24 127.51 L 99.48 127.63 L 99.72 127.74 L 99.95 127.86 L 100.19 127.98 L 100.43 128.11 L 100.67 128.23 L 100.90 128.35 L 101.14 128.47 L 101.38 128.60 L 101.61 128.72 L 101.85 128.84 L 102.09 128.97 L 102.32 129.10 L 102.56 129.22 L 102.80 129.35 L 103.03 129.48 L 103.27 129.61 L 103.51 129.73 L 103.74 129.86 L 103.98 129.99 L 104.22 130.13 L 104.46 130.26 L 104.69 130.39 L 104.93 130.52 L 105.17 130.66 L 105.40 130.79 L 105.64 130.93 L 105.88 131.06 L 106.11 131.20 L 106.35 131.33 L 106.59 131.47 L 106.82 131.61 L 107.06 131.75 L 107.30 131.89 L 107.53 132.03 L 107.77 132.17 L 108.01 132.31 L 108.25 132.45 L 108.48 132.59 L 108.72 132.74 L 108.96 132.88 L 109.19 133.03 L 109.43 133.17 L 109.67 133.32 L 109.90 133.46 L 110.14 133.61 L 110.38 133.76 L 110.61 133.90 L 110.85 134.05 L 111.09 134.20 L 111.32 134.35 L 111.56 134.50 L 111.80 134.65 L 112.04 134.80 L 112.27 134.95 L 112.51 135.11 L 112.75 135.26 L 112.98 135.41 L 113.22 135.57 L 113.46 135.72 L 113.69 135.88 L 113.93 136.03 L 114.17 136.19 L 114.40 136.34 L 114.64 136.50 L 114.88 136.66 L 115.11 136.81 L 115.35 136.97 L 115.59 137.13 L 115.82 137.29 L 116.06 137.44 L 116.30 137.60 L 116.54 137.76 L 116.77 137.92 L 117.01 138.08 L 117.25 138.24 L 117.48 138.40 L 117.72 138.56 L 117.96 138.72 L 118.19 138.88 L 118.43 139.04 L 118.67 139.20 L 118.90 139.36 L 119.14 139.52 L 119.38 139.67 L 119.61 139.83 L 119.85 139.99 L 120.09 140.15 L 120.33 140.31 L 120.56 140.46 L 120.80 140.62 L 121.04 140.78 L 121.27 140.93 L 121.51 141.09 L 121.75 141.24 L 121.98 141.40 L 122.22 141.55 L 122.46 141.70 L 122.69 141.85 L 122.93 142.00 L 123.17 142.15 L 123.40 142.29 L 123.64 142.44 L 123.88 142.58 L 124.12 142.72 L 124.35 142.86 L 124.59 143.00 L 124.83 143.14 L 125.06 143.27 L 125.30 143.40 L 125.54 143.53 L 125.77 143.66 L 126.01 143.78 L 126.25 143.91 L 126.48 144.02 L 126.72 144.14 L 126.96 144.25 L 127.19 144.36 L 127.43 144.46 L 127.67 144.56 L 127.90 144.66 L 128.14 144.75 L 128.38 144.83 L 128.62 144.91 L 128.85 144.99 L 129.09 145.06 L 129.33 145.12 L 129.56 145.18 L 129.80 145.23 L 130.04 145.28 L 130.27 145.31 L 130.51 145.34 L 130.75 145.37 L 130.98 145.38 L 131.22 145.38 L 131.46 145.38 L 131.69 145.37 L 131.93 145.34 L 132.17 145.31 L 132.41 145.26 L 132.64 145.20 L 132.88 145.13 L 133.12 145.05 L 133.35 144.95 L 133.59 144.84 L 133.83 144.71 L 134.06 144.57 L 134.30 144.41 L 134.54 144.23 L 134.77 144.04 L 135.01 143.82 L 135.25 143.59 L 135.48 143.33 L 135.72 143.06 L 135.96 142.76 L 136.20 142.43 L 136.43 142.08 L 136.67 141.71 L 136.91 141.30 L 137.14 140.87 L 137.38 140.40 L 137.62 139.91 L 137.85 139.38 L 138.09 138.81 L 138.33 138.21 L 138.56 137.57 L 138.80 136.89 L 139.04 136.16 L 139.27 135.39 L 139.51 134.58 L 139.75 133.72 L 139.98 132.80 L 140.22 131.84 L 140.46 130.82 L 140.70 129.74 L 140.93 128.60 L 141.17 127.40 L 141.41 126.13 L 141.64 124.80 L 141.88 123.39 L 142.12 121.91 L 142.35 120.36 L 142.59 118.73 L 142.83 117.01 L 143.06 115.22 L 143.30 113.33 L 143.54 111.36 L 143.77 109.29 L 144.01 107.13 L 144.25 104.88 L 144.49 102.53 L 144.72 100.08 L 144.96 97.53 L 145.20 94.89 L 145.43 92.14 L 145.67 89.30 L 145.91 86.37 L 146.14 83.35 L 146.38 80.24 L 146.62 77.06 L 146.85 73.81 L 147.09 70.50 L 147.33 67.15 L 147.56 63.78 L 147.80 60.40 L 148.04 57.05 L 148.28 53.75 L 148.51 50.54 L 148.75 47.46 L 148.99 44.56 L 149.22 41.89 L 149.46 39.52 L 149.70 37.52 L 149.93 35.98 L 150.17 34.98 L 150.41 34.62 L 150.64 35.00 L 150.88 36.26 L 151.12 38.49 L 151.35 41.82 L 151.59 46.35 L 151.83 52.17 L 152.07 59.33 L 152.30 67.84 L 152.54 77.63 L 152.78 88.53 L 153.01 100.22 L 153.25 112.20 L 153.49 123.78 L 153.72 133.99 L 153.96 141.62 L 154.20 145.27 L 154.43 143.43 L 154.67 134.84 L 154.91 118.91 L 155.14 96.42 L 155.38 70.43 L 155.62 46.96 L 155.85 34.85 L 156.09 43.36 L 156.33 76.03 L 156.57 121.00 L 156.80 145.38 L 157.04 113.68 L 157.28 47.11 L 157.51 55.37 L 157.75 142.34 L 157.99 65.46 L 158.22 106.94 L 158.46 41.06 L 158.70 82.37 L 158.93 34.62 L 159.17 40.27 L 159.41 134.48 L 159.64 145.38 L 159.88 34.68 L 160.12 145.32 L 160.36 34.62 L 160.59 45.52 L 160.83 139.73 L 161.07 145.38 L 161.30 97.63 L 161.54 138.94 L 161.78 73.06 L 162.01 114.54 L 162.25 37.66 L 162.49 124.63 L 162.72 132.89 L 162.96 66.32 L 163.20 34.62 L 163.43 59.00 L 163.67 103.97 L 163.91 136.64 L 164.15 145.15 L 164.38 133.04 L 164.62 109.57 L 164.86 83.58 L 165.09 61.09 L 165.33 45.16 L 165.57 36.57 L 165.80 34.73 L 166.04 38.38 L 166.28 46.01 L 166.51 56.22 L 166.75 67.80 L 166.99 79.78 L 167.22 91.47 L 167.46 102.37 L 167.70 112.16 L 167.93 120.67 L 168.17 127.83 L 168.41 133.65 L 168.65 138.18 L 168.88 141.51 L 169.12 143.74 L 169.36 145.00 L 169.59 145.38 L 169.83 145.02 L 170.07 144.02 L 170.30 142.48 L 170.54 140.48 L 170.78 138.11 L 171.01 135.44 L 171.25 132.54 L 171.49 129.46 L 171.72 126.25 L 171.96 122.95 L 172.20 119.60 L 172.44 116.22 L 172.67 112.85 L 172.91 109.50 L 173.15 106.19 L 173.38 102.94 L 173.62 99.76 L 173.86 96.65 L 174.09 93.63 L 174.33 90.70 L 174.57 87.86 L 174.80 85.11 L 175.04 82.47 L 175.28 79.92 L 175.51 77.47 L 175.75 75.12 L 175.99 72.87 L 176.23 70.71 L 176.46 68.64 L 176.70 66.67 L 176.94 64.78 L 177.17 62.99 L 177.41 61.27 L 177.65 59.64 L 177.88 58.09 L 178.12 56.61 L 178.36 55.20 L 178.59 53.87 L 178.83 52.60 L 179.07 51.40 L 179.30 50.26 L 179.54 49.18 L 179.78 48.16 L 180.02 47.20 L 180.25 46.28 L 180.49 45.42 L 180.73 44.61 L 180.96 43.84 L 181.20 43.11 L 181.44 42.43 L 181.67 41.79 L 181.91 41.19 L 182.15 40.62 L 182.38 40.09 L 182.62 39.60 L 182.86 39.13 L 183.09 38.70 L 183.33 38.29 L 183.57 37.92 L 183.80 37.57 L 184.04 37.24 L 184.28 36.94 L 184.52 36.67 L 184.75 36.41 L 184.99 36.18 L 185.23 35.96 L 185.46 35.77 L 185.70 35.59 L 185.94 35.43 L 186.17 35.29 L 186.41 35.16 L 186.65 35.05 L 186.88 34.95 L 187.12 34.87 L 187.36 34.80 L 187.59 34.74 L 187.83 34.69 L 188.07 34.66 L 188.31 34.63 L 188.54 34.62 L 188.78 34.62 L 189.02 34.62 L 189.25 34.63 L 189.49 34.66 L 189.73 34.69 L 189.96 34.72 L 190.20 34.77 L 190.44 34.82 L 190.67 34.88 L 190.91 34.94 L 191.15 35.01 L 191.38 35.09 L 191.62 35.17 L 191.86 35.25 L 192.10 35.34 L 192.33 35.44 L 192.57 35.54 L 192.81 35.64 L 193.04 35.75 L 193.28 35.86 L 193.52 35.98 L 193.75 36.09 L 193.99 36.22 L 194.23 36.34 L 194.46 36.47 L 194.70 36.60 L 194.94 36.73 L 195.17 36.86 L 195.41 37.00 L 195.65 37.14 L 195.88 37.28 L 196.12 37.42 L 196.36 37.56 L 196.60 37.71 L 196.83 37.85 L 197.07 38.00 L 197.31 38.15 L 197.54 38.30 L 197.78 38.45 L 198.02 38.60 L 198.25 38.76 L 198.49 38.91 L 198.73 39.07 L 198.96 39.22 L 199.20 39.38 L 199.44 39.54 L 199.67 39.69 L 199.91 39.85 L 200.15 40.01 L 200.39 40.17 L 200.62 40.33 L 200.86 40.48 L 201.10 40.64 L 201.33 40.80 L 201.57 40.96 L 201.81 41.12 L 202.04 41.28 L 202.28 41.44 L 202.52 41.60 L 202.75 41.76 L 202.99 41.92 L 203.23 42.08 L 203.46 42.24 L 203.70 42.40 L 203.94 42.56 L 204.18 42.71 L 204.41 42.87 L 204.65 43.03 L 204.89 43.19 L 205.12 43.34 L 205.36 43.50 L 205.60 43.66 L 205.83 43.81 L 206.07 43.97 L 206.31 44.12 L 206.54 44.28 L 206.78 44.43 L 207.02 44.59 L 207.25 44.74 L 207.49 44.89 L 207.73 45.05 L 207.96 45.20 L 208.20 45.35 L 208.44 45.50 L 208.68 45.65 L 208.91 45.80 L 209.15 45.95 L 209.39 46.10 L 209.62 46.24 L 209.86 46.39 L 210.10 46.54 L 210.33 46.68 L 210.57 46.83 L 210.81 46.97 L 211.04 47.12 L 211.28 47.26 L 211.52 47.41 L 211.75 47.55 L 211.99 47.69 L 212.23 47.83 L 212.47 47.97 L 212.70 48.11 L 212.94 48.25 L 213.18 48.39 L 213.41 48.53 L 213.65 48.67 L 213.89 48.80 L 214.12 48.94 L 214.36 49.07 L 214.60 49.21 L 214.83 49.34 L 215.07 49.48 L 215.31 49.61 L 215.54 49.74 L 215.78 49.87 L 216.02 50.01 L 216.26 50.14 L 216.49 50.27 L 216.73 50.39 L 216.97 50.52 L 217.20 50.65 L 217.44 50.78 L 217.68 50.90 L 217.91 51.03 L 218.15 51.16 L 218.39 51.28 L 218.62 51.40 L 218.86 51.53 L 219.10 51.65 L 219.33 51.77 L 219.57 51.89 L 219.81 52.02 L 220.05 52.14 L 220.28 52.26 L 220.52 52.37 L 220.76 52.49 L 220.99 52.61 L 221.23 52.73 L 221.47 52.84 L 221.70 52.96 L 221.94 53.08 L 222.18 53.19 L 222.41 53.31 L 222.65 53.42 L 222.89 53.53 L 223.12 53.65 L 223.36 53.76 L 223.60 53.87 L 223.83 53.98 L 224.07 54.09 L 224.31 54.20 L 224.55 54.31 L 224.78 54.42 L 225.02 54.52 L 225.26 54.63 L 225.49 54.74 L 225.73 54.85 L 225.97 54.95 L 226.20 55.06 L 226.44 55.16 L 226.68 55.27 L 226.91 55.37 L 227.15 55.47 L 227.39 55.57 L 227.62 55.68 L 227.86 55.78 L 228.10 55.88 L 228.34 55.98 L 228.57 56.08 L 228.81 56.18 L 229.05 56.28 L 229.28 56.38 L 229.52 56.47 L 229.76 56.57 L 229.99 56.67 L 230.23 56.76 L 230.47 56.86 L 230.70 56.96 L 230.94 57.05 L 231.18 57.15 L 231.41 57.24 L 231.65 57.33 L 231.89 57.43 L 232.13 57.52 L 232.36 57.61 L 232.60 57.70 L 232.84 57.79 L 233.07 57.88 L 233.31 57.97 L 233.55 58.06 L 233.78 58.15 L 234.02 58.24 L 234.26 58.33 L 234.49 58.42 L 234.73 58.51 L 234.97 58.59 L 235.20 58.68 L 235.44 58.77 L 235.68 58.85 L 235.91 58.94 L 236.15 59.02 L 236.39 59.11 L 236.63 59.19 L 236.86 59.28 L 237.10 59.36 L 237.34 59.44 L 237.57 59.52 L 237.81 59.61 L 238.05 59.69 L 238.28 59.77 L 238.52 59.85 L 238.76 59.93 L 238.99 60.01 L 239.23 60.09 L 239.47 60.17 L 239.70 60.25 L 239.94 60.33 L 240.18 60.41 L 240.42 60.48 L 240.65 60.56 L 240.89 60.64 L 241.13 60.71 L 241.36 60.79 L 241.60 60.87 L 241.84 60.94 L 242.07 61.02 L 242.31 61.09 L 242.55 61.17 L 242.78 61.24 L 243.02 61.31 L 243.26 61.39 L 243.49 61.46 L 243.73 61.53 L 243.97 61.61 L 244.21 61.68 L 244.44 61.75 L 244.68 61.82 L 244.92 61.89 L 245.15 61.96 L 245.39 62.03 L 245.63 62.10 L 245.86 62.17 L 246.10 62.24 L 246.34 62.31 L 246.57 62.38 L 246.81 62.45 L 247.05 62.52 L 247.28 62.58 L 247.52 62.65 L 247.76 62.72 L 247.99 62.79 L 248.23 62.85 L 248.47 62.92 L 248.71 62.98 L 248.94 63.05 L 249.18 63.12 L 249.42 63.18 L 249.65 63.24 L 249.89 63.31 L 250.13 63.37 L 250.36 63.44 L 250.60 63.50 L 250.84 63.56 L 251.07 63.63 L 251.31 63.69 L 251.55 63.75 L 251.78 63.81 L 252.02 63.88 L 252.26 63.94 L 252.50 64.00 L 252.73 64.06 L 252.97 64.12 L 253.21 64.18 L 253.44 64.24 L 253.68 64.30 L 253.92 64.36 L 254.15 64.42 L 254.39 64.48 L 254.63 64.54 L 254.86 64.60 L 255.10 64.66 L 255.34 64.71 L 255.57 64.77 L 255.81 64.83 L 256.05 64.89 L 256.29 64.94 L 256.52 65.00 L 256.76 65.06 L 257.00 65.11 L 257.23 65.17 L 257.47 65.23 L 257.71 65.28 L 257.94 65.34 L 258.18 65.39 L 258.42 65.45 L 258.65 65.50 L 258.89 65.56 L 259.13 65.61 L 259.36 65.67 L 259.60 65.72 L 259.84 65.77 L 260.08 65.83 L 260.31 65.88 L 260.55 65.93 L 260.79 65.99 L 261.02 66.04 L 261.26 66.09 L 261.50 66.14 L 261.73 66.19 L 261.97 66.25 L 262.21 66.30 L 262.44 66.35 L 262.68 66.40 L 262.92 66.45 L 263.15 66.50 L 263.39 66.55 L 263.63 66.60 L 263.86 66.65 L 264.10 66.70 L 264.34 66.75 L 264.58 66.80 L 264.81 66.85 L 265.05 66.90 L 265.29 66.95 L 265.52 67.00 L 265.76 67.04 L 266.00 67.09 L 266.23 67.14 L 266.47 67.19 L 266.71 67.23 L 266.94 67.28 L 267.18 67.33 L 267.42 67.38 L 267.65 67.42 L 267.89 67.47 L 268.13 67.52 L 268.37 67.56 L 268.60 67.61 L 268.84 67.65 L 269.08 67.70 L 269.31 67.75 L 269.55 67.79 L 269.79 67.84 L 270.02 67.88 L 270.26 67.93 L 270.50 67.97 L 270.73 68.02 L 270.97 68.06 L 271.21 68.10 L 271.44 68.15 L 271.68 68.19 L 271.92 68.24 L 272.16 68.28 L 272.39 68.32 L 272.63 68.36 L 272.87 68.41 L 273.10 68.45 L 273.34 68.49 L 273.58 68.54 L 273.81 68.58 L 274.05 68.62 L 274.29 68.66 L 274.52 68.70 L 274.76 68.75 L 275.00 68.79 L 275.23 68.83 L 275.47 68.87 L 275.71 68.91 L 275.94 68.95 L 276.18 68.99 L 276.42 69.03 L 276.66 69.07 L 276.89 69.11 L 277.13 69.15 L 277.37 69.19 L 277.60 69.23 L 277.84 69.27 L 278.08 69.31 L 278.31 69.35 L 278.55 69.39 L 278.79 69.43 L 279.02 69.47 L 279.26 69.51 L 279.50 69.55 L 279.73 69.59 L 279.97 69.62 L 280.21 69.66 L 280.45 69.70 L 280.68 69.74 L 280.92 69.78 L 281.16 69.81 L 281.39 69.85 L 281.63 69.89 L 281.87 69.93 L 282.10 69.96 L 282.34 70.00 L 282.58 70.04 L 282.81 70.07 L 283.05 70.11 L 283.29 70.15 L 283.52 70.18 L 283.76 70.22 L 284.00 70.26 L 284.24 70.29 L 284.47 70.33 L 284.71 70.36 L 284.95 70.40 L 285.18 70.43 L 285.42 70.47 L 285.66 70.50 L 285.89 70.54 L 286.13 70.57 L 286.37 70.61 L 286.60 70.64 L 286.84 70.68 L 287.08 70.71 L 287.31 70.75 L 287.55 70.78 L 287.79 70.82 L 288.03 70.85 L 288.26 70.88 L 288.50 70.92 L 288.74 70.95 L 288.97 70.98 L 289.21 71.02 L 289.45 71.05 L 289.68 71.08 L 289.92 71.12 L 290.16 71.15 L 290.39 71.18 L 290.63 71.22 L 290.87 71.25 L 291.10 71.28 L 291.34 71.31 L 291.58 71.35 L 291.81 71.38 L 292.05 71.41 L 292.29 71.44 L 292.53 71.47 L 292.76 71.51 L 293.00 71.54 L 293.24 71.57 L 293.47 71.60 L 293.71 71.63 L 293.95 71.66 L 294.18 71.69 L 294.42 71.73 L 294.66 71.76 L 294.89 71.79 L 295.13 71.82 L 295.37 71.85 L 295.60 71.88 L 295.84 71.91 L 296.08 71.94 L 296.32 71.97 L 296.55 72.00 L 296.79 72.03 L 297.03 72.06 L 297.26 72.09 L 297.50 72.12 L 297.74 72.15 L 297.97 72.18 L 298.21 72.21 L 298.45 72.24 L 298.68 72.27 L 298.92 72.30 L 299.16 72.33 L 299.39 72.35 L 299.63 72.38 L 299.87 72.41 L 300.11 72.44 L 300.34 72.47 L 300.58 72.50 L 300.82 72.53 L 301.05 72.55 L 301.29 72.58 L 301.53 72.61 L 301.76 72.64 L 302.00 72.67" fill="none" stroke="#7E8692" stroke-width="2.3" stroke-linecap="round" stroke-linejoin="round"/>
</svg>
