<svg xmlns="http://www.w3.org/2000/svg" viewBox="0 0 320 180" width="320" height="180">
  <rect width="320" height="180" fill="none"/>
  <path d="M 24.00 142.20 L 24.30 142.19 L 24.61 142.17 L 24.91 142.16 L 25.21 142.14 L 25.51 142.12 L 25.82 142.11 L 26.12 142.09 L 26.42 142.08 L 26.72 142.06 L 27.03 142.04 L 27.33 142.03 L 27.63 142.01 L 27.93 141.99 L 28.24 141.98 L 28.54 141.96 L 28.84 141.94 L 29.14 141.93 L 29.45 141.91 L 29.75 141.89 L 30.05 141.87 L 30.35 141.86 L 30.66 141.84 L 30.96 141.82 L 31.26 141.80 L 31.56 141.79 L 31.87 141.77 L 32.17 141.75 L 32.47 141.73 L 32.77 141.71 L 33.08 141.69 L 33.38 141.67 L 33.68 141.66 L 33.98 141.64 L 34.29 141.62 L 34.59 141.60 L 34.89 141.58 L 35.19 141.56 L 35.50 141.54 L 35.80 141.52 L 36.10 141.50 L 36.40 141.48 L 36.71 141.46 L 37.01 141.44 L 37.31 141.42 L 37.62 141.40 L 37.92 141.37 L 38.22 141.35 L 38.52 141.33 L 38.83 141.31 L 39.13 141.29 L 39.43 141.27 L 39.73 141.24 L 40.04 141.22 L 40.34 141.20 L 40.64 141.18 L 40.94 141.15 L 41.25 141.13 L 41.55 141.11 L 41.85 141.09 L 42.15 141.06 L 42.46 141.04 L 42.76 141.02 L 43.06 140.99 L 43.36 140.97 L 43.67 140.94 L 43.97 140.92 L 44.27 140.89 L 44.57 140.87 L 44.88 140.84 L 45.18 140.82 L 45.48 140.79 L 45.78 140.77 L 46.09 140.74 L 46.39 140.72 L 46.69 140.69 L 46.99 140.66 L 47.30 140.64 L 47.60 140.61 L 47.90 140.58 L 48.20 140.55 L 48.51 140.53 L 48.81 140.50 L 49.11 140.47 L 49.41 140.44 L 49.72 140.41 L 50.02 140.38 L 50.32 140.36 L 50.63 140.33 L 50.93 140.30 L 51.23 140.27 L 51.53 140.24 L 51.84 140.21 L 52.14 140.18 L 52.44 140.15 L 52.74 140.11 L 53.05 140.08 L 53.35 140.05 L 53.65 140.02 L 53.95 139.99 L 54.26 139.96 L 54.56 139.92 L 54.86 139.89 L 55.16 139.86 L 55.47 139.82 L 55.77 139.79 L 56.07 139.76 L 56.37 139.72 L 56.68 139.69 L 56.98 139.65 L 57.28 139.62 L 57.58 139.58 L 57.89 139.54 L 58.19 139.51 L 58.49 139.47 L 58.79 139.43 L 59.10 139.40 L 59.40 139.36 L 59.70 139.32 L 60.00 139.28 L 60.31 139.25 L 60.61 139.21 L 60.91 139.17 L 61.21 139.13 L 61.52 139.09 L 61.82 139.05 L 62.12 139.01 L 62.42 138.96 L 62.73 138.92 L 63.03 138.88 L 63.33 138.84 L 63.64 138.80 L 63.94 138.75 L 64.24 138.71 L 64.54 138.67 L 64.85 138.62 L 65.15 138.58 L 65.45 138.53 L 65.75 138.49 L 66.06 138.44 L 66.36 138.39 L 66.66 138.35 L 66.96 138.30 L 67.27 138.25 L 67.57 138.20 L 67.87 138.15 L 68.17 138.10 L 68.48 138.05 L 68.78 138.00 L 69.08 137.95 L 69.38 137.90 L 69.69 137.85 L 69.99 137.80 L 70.29 137.74 L 70.59 137.69 L 70.90 137.64 L 71.20 137.58 L 71.50 137.53 L 71.80 137.47 L 72.11 137.41 L 72.41 137.36 L 72.71 137.30 L 73.01 137.24 L 73.32 137.18 L 73.62 137.12 L 73.92 137.06 L 74.22 137.00 L 74.53 136.94 L 74.83 136.88 L 75.13 136.82 L 75.43 136.75 L 75.74 136.69 L 76.04 136.63 L 76.34 136.56 L 76.65 136.49 L 76.95 136.43 L 77.25 136.36 L 77.55 136.29 L 77.86 136.22 L 78.16 136.15 L 78.46 136.08 L 78.76 136.01 L 79.07 135.94 L 79.37 135.87 L 79.67 135.79 L 79.97 135.72 L 80.28 135.64 L 80.58 135.57 L 80.88 135.49 L 81.18 135.41 L 81.49 135.33 L 81.79 135.25 L 82.09 135.17 L 82.39 135.09 L 82.70 135.01 L 83.00 134.92 L 83.30 134.84 L 83.60 134.75 L 83.91 134.67 L 84.21 134.58 L 84.51 134.49 L 84.81 134.40 L 85.12 134.31 L 85.42 134.22 L 85.72 134.12 L 86.02 134.03 L 86.33 133.93 L 86.63 133.84 L 86.93 133.74 L 87.23 133.64 L 87.54 133.54 L 87.84 133.44 L 88.14 133.33 L 88.44 133.23 L 88.75 133.12 L 89.05 133.02 L 89.35 132.91 L 89.66 132.80 L 89.96 132.69 L 90.26 132.58 L 90.56 132.46 L 90.87 132.35 L 91.17 132.23 L 91.47 132.11 L 91.77 131.99 L 92.08 131.87 L 92.38 131.74 L 92.68 131.62 L 92.98 131.49 L 93.29 131.36 L 93.59 131.23 L 93.89 131.10 L 94.19 130.97 L 94.50 130.83 L 94.80 130.69 L 95.10 130.55 L 95.40 130.41 L 95.71 130.27 L 96.01 130.12 L 96.31 129.98 L 96.61 129.83 L 96.92 129.67 L 97.22 129.52 L 97.52 129.36 L 97.82 129.20 L 98.13 129.04 L 98.43 128.88 L 98.73 128.71 L 99.03 128.55 L 99.34 128.38 L 99.64 128.20 L 99.94 128.03 L 100.24 127.85 L 100.55 127.67 L 100.85 127.48 L 101.15 127.29 L 101.45 127.10 L 101.76 126.91 L 102.06 126.71 L 102.36 126.52 L 102.67 126.31 L 102.97 126.11 L 103.27 125.90 L 103.57 125.69 L 103.88 125.47 L 104.18 125.25 L 104.48 125.03 L 104.78 124.80 L 105.09 124.57 L 105.39 124.34 L 105.69 124.10 L 105.99 123.86 L 106.30 123.61 L 106.60 123.36 L 106.90 123.11 L 107.20 122.85 L 107.51 122.58 L 107.81 122.32 L 108.11 122.04 L 108.41 121.77 L 108.72 121.48 L 109.02 121.20 L 109.32 120.90 L 109.62 120.61 L 109.93 120.30 L 110.23 119.99 L 110.53 119.68 L 110.83 119.36 L 111.14 119.03 L 111.44 118.70 L 111.74 118.36 L 112.04 118.02 L 112.35 117.66 L 112.65 117.30 L 112.95 116.94 L 113.25 116.57 L 113.56 116.19 L 113.86 115.80 L 114.16 115.40 L 114.46 115.00 L 114.77 114.59 L 115.07 114.17 L 115.37 113.74 L 115.68 113.30 L 115.98 112.86 L 116.28 112.40 L 116.58 111.94 L 116.89 111.46 L 117.19 110.98 L 117.49 110.48 L 117.79 109.98 L 118.10 109.46 L 118.40 108.93 L 118.70 108.39 L 119.00 107.84 L 119.31 107.28 L 119.61 106.70 L 119.91 106.11 L 120.21 105.51 L 120.52 104.89 L 120.82 104.26 L 121.12 103.61 L 121.42 102.95 L 121.73 102.27 L 122.03 101.58 L 122.33 100.87 L 122.63 100.14 L 122.94 99.39 L 123.24 98.63 L 123.54 97.85 L 123.84 97.04 L 124.15 96.22 L 124.45 95.38 L 124.75 94.51 L 125.05 93.62 L 125.36 92.71 L 125.66 91.77 L 125.96 90.81 L 126.26 89.82 L 126.57 88.81 L 126.87 87.76 L 127.17 86.69 L 127.47 85.59 L 127.78 84.46 L 128.08 83.29 L 128.38 82.09 L 128.69 80.86 L 128.99 79.59 L 129.29 78.28 L 129.59 76.93 L 129.90 75.55 L 130.20 74.12 L 130.50 72.64 L 130.80 71.12 L 131.11 69.55 L 131.41 67.93 L 131.71 66.26 L 132.01 64.54 L 132.32 62.75 L 132.62 60.91 L 132.92 59.01 L 133.22 57.04 L 133.53 55.00 L 133.83 52.90 L 134.13 50.71 L 134.43 48.45 L 134.74 46.11 L 135.04 43.68 L 135.34 41.17 L 135.64 38.56 L 135.95 35.84 L 136.25 33.03 L 136.55 30.11 L 136.85 27.06 L 137.16 23.90" fill="none" stroke="#5F6B7A" stroke-width="2.5" stroke-linecap="round" stroke-linejoin="round"/>
  <path d="M 182.84 23.90 L 183.15 27.06 L 183.45 30.11 L 183.75 33.03 L 184.05 35.84 L 184.36 38.56 L 184.66 41.17 L 184.96 43.68 L 185.26 46.11 L 185.57 48.45 L 185.87 50.71 L 186.17 52.90 L 186.47 55.00 L 186.78 57.04 L 187.08 59.01 L 187.38 60.91 L 187.68 62.75 L 187.99 64.54 L 188.29 66.26 L 188.59 67.93 L 188.89 69.55 L 189.20 71.12 L 189.50 72.64 L 189.80 74.12 L 190.10 75.55 L 190.41 76.93 L 190.71 78.28 L 191.01 79.59 L 191.31 80.86 L 191.62 82.09 L 191.92 83.29 L 192.22 84.46 L 192.53 85.59 L 192.83 86.69 L 193.13 87.76 L 193.43 88.81 L 193.74 89.82 L 194.04 90.81 L 194.34 91.77 L 194.64 92.71 L 194.95 93.62 L 195.25 94.51 L 195.55 95.38 L 195.85 96.22 L 196.16 97.04 L 196.46 97.85 L 196.76 98.63 L 197.06 99.39 L 197.37 100.14 L 197.67 100.87 L 197.97 101.58 L 198.27 102.27 L 198.58 102.95 L 198.88 103.61 L 199.18 104.26 L 199.48 104.89 L 199.79 105.51 L 200.09 106.11 L 200.39 106.70 L 200.69 107.28 L 201.00 107.84 L 201.30 108.39 L 201.60 108.93 L 201.90 109.46 L 202.21 109.98 L 202.51 110.48 L 202.81 110.98 L 203.11 111.46 L 203.42 111.94 L 203.72 112.40 L 204.02 112.86 L 204.32 113.30 L 204.63 113.74 L 204.93 114.17 L 205.23 114.59 L 205.54 115.00 L 205.84 115.40 L 206.14 115.80 L 206.44 116.19 L 206.75 116.57 L 207.05 116.94 L 207.35 117.30 L 207.65 117.66 L 207.96 118.02 L 208.26 118.36 L 208.56 118.70 L 208.86 119.03 L 209.17 119.36 L 209.47 119.68 L 209.77 119.99 L 210.07 120.30 L 210.38 120.61 L 210.68 120.90 L 210.98 121.20 L 211.28 121.48 L 211.59 121.77 L 211.89 122.04 L 212.19 122.32 L 212.49 122.58 L 212.80 122.85 L 213.10 123.11 L 213.40 123.36 L 213.70 123.61 L 214.01 123.86 L 214.31 124.10 L 214.61 124.34 L 214.91 124.57 L 215.22 124.80 L 215.52 125.03 L 215.82 125.25 L 216.12 125.47 L 216.43 125.69 L 216.73 125.90 L 217.03 126.11 L 217.33 126.31 L 217.64 126.52 L 217.94 126.71 L 218.24 126.91 L 218.55 127.10 L 218.85 127.29 L 219.15 127.48 L 219.45 127.67 L 219.76 127.85 L 220.06 128.03 L 220.36 128.20 L 220.66 128.38 L 220.97 128.55 L 221.27 128.71 L 221.57 128.88 L 221.87 129.04 L 222.18 129.20 L 222.48 129.36 L 222.78 129.52 L 223.08 129.67 L 223.39 129.83 L 223.69 129.98 L 223.99 130.12 L 224.29 130.27 L 224.60 130.41 L 224.90 130.55 L 225.20 130.69 L 225.50 130.83 L 225.81 130.97 L 226.11 131.10 L 226.41 131.23 L 226.71 131.36 L 227.02 131.49 L 227.32 131.62 L 227.62 131.74 L 227.92 131.87 L 228.23 131.99 L 228.53 132.11 L 228.83 132.23 L 229.13 132.35 L 229.44 132.46 L 229.74 132.58 L 230.04 132.69 L 230.34 132.80 L 230.65 132.91 L 230.95 133.02 L 231.25 133.12 L 231.56 133.23 L 231.86 133.33 L 232.16 133.44 L 232.46 133.54 L 232.77 133.64 L 233.07 133.74 L 233.37 133.84 L 233.67 133.93 L 233.98 134.03 L 234.28 134.12 L 234.58 134.22 L 234.88 134.31 L 235.19 134.40 L 235.49 134.49 L 235.79 134.58 L 236.09 134.67 L 236.40 134.75 L 236.70 134.84 L 237.00 134.92 L 237.30 135.01 L 237.61 135.09 L 237.91 135.17 L 238.21 135.25 L 238.51 135.33 L 238.82 135.41 L 239.12 135.49 L 239.42 135.57 L 239.72 135.64 L 240.03 135.72 L 240.33 135.79 L 240.63 135.87 L 240.93 135.94 L 241.24 136.01 L 241.54 136.08 L 241.84 136.15 L 242.14 136.22 L 242.45 136.29 L 242.75 136.36 L 243.05 136.43 L 243.35 136.49 L 243.66 136.56 L 243.96 136.63 L 244.26 136.69 L 244.57 136.75 L 244.87 136.82 L 245.17 136.88 L 245.47 136.94 L 245.78 137.00 L 246.08 137.06 L 246.38 137.12 L 246.68 137.18 L 246.99 137.24 L 247.29 137.30 L 247.59 137.36 L 247.89 137.41 L 248.20 137.47 L 248.50 137.53 L 248.80 137.58 L 249.10 137.64 L 249.41 137.69 L 249.71 137.74 L 250.01 137.80 L 250.31 137.85 L 250.62 137.90 L 250.92 137.95 L 251.22 138.00 L 251.52 138.05 L 251.83 138.10 L 252.13 138.15 L 252.43 138.20 L 252.73 138.25 L 253.04 138.30 L 253.34 138.35 L 253.64 138.39 L 253.94 138.44 L 254.25 138.49 L 254.55 138.53 L 254.85 138.58 L 255.15 138.62 L 255.46 138.67 L 255.76 138.71 L 256.06 138.75 L 256.36 138.80 L 256.67 138.84 L 256.97 138.88 L 257.27 138.92 L 257.58 138.96 L 257.88 139.01 L 258.18 139.05 L 258.48 139.09 L 258.79 139.13 L 259.09 139.17 L 259.39 139.21 L 259.69 139.25 L 260.00 139.28 L 260.30 139.32 L 260.60 139.36 L 260.90 139.40 L 261.21 139.43 L 261.51 139.47 L 261.81 139.51 L 262.11 139.54 L 262.42 139.58 L 262.72 139.62 L 263.02 139.65 L 263.32 139.69 L 263.63 139.72 L 263.93 139.76 L 264.23 139.79 L 264.53 139.82 L 264.84 139.86 L 265.14 139.89 L 265.44 139.92 L 265.74 139.96 L 266.05 139.99 L 266.35 140.02 L 266.65 140.05 L 266.95 140.08 L 267.26 140.11 L 267.56 140.15 L 267.86 140.18 L 268.16 140.21 L 268.47 140.24 L 268.77 140.27 L 269.07 140.30 L 269.37 140.33 L 269.68 140.36 L 269.98 140.38 L 270.28 140.41 L 270.59 140.44 L 270.89 140.47 L 271.19 140.50 L 271.49 140.53 L 271.80 140.55 L 272.10 140.58 L 272.40 140.61 L 272.70 140.64 L 273.01 140.66 L 273.31 140.69 L 273.61 140.72 L 273.91 140.74 L 274.22 140.77 L 274.52 140.79 L 274.82 140.82 L 275.12 140.84 L 275.43 140.87 L 275.73 140.89 L 276.03 140.92 L 276.33 140.94 L 276.64 140.97 L 276.94 140.99 L 277.24 141.02 L 277.54 141.04 L 277.85 141.06 L 278.15 141.09 L 278.45 141.11 L 278.75 141.13 L 279.06 141.15 L 279.36 141.18 L 279.66 141.20 L 279.96 141.22 L 280.27 141.24 L 280.57 141.27 L 280.87 141.29 L 281.17 141.31 L 281.48 141.33 L 281.78 141.35 L 282.08 141.37 L 282.38 141.40 L 282.69 141.42 L 282.99 141.44 L 283.29 141.46 L 283.60 141.48 L 283.90 141.50 L 284.20 141.52 L 284.50 141.54 L 284.81 141.56 L 285.11 141.58 L 285.41 141.60 L 285.71 141.62 L 286.02 141.64 L 286.32 141.66 L 286.62 141.67 L 286.92 141.69 L 287.23 141.71 L 287.53 141.73 L 287.83 141.75 L 288.13 141.77 L 288.44 141.79 L 288.74 141.80 L 289.04 141.82 L 289.34 141.84 L 289.65 141.86 L 289.95 141.87 L 290.25 141.89 L 290.55 141.91 L 290.86 141.93 L 291.16 141.94 L 291.46 141.96 L 291.76 141.98 L 292.07 141.99 L 292.37 142.01 L 292.67 142.03 L 292.97 142.04 L 293.28 142.06 L 293.58 142.08 L 293.88 142.09 L 294.18 142.11 L 294.49 142.12 L 294.79 142.14 L 295.09 142.16 L 295.39 142.17 L 295.70 142.19 L 296.00 142.20" fill="none" stroke="#5F6B7A" stroke-width="2.5" stroke-linecap="round" stroke-linejoin="round"/>
</svg>
