<svg xmlns="http://www.w3.org/2000/svg" viewBox="0 0 320 180" width="320" height="180">
  <rect width="320" height="180" fill="#F4F5F7"/>
  <path d="M 24.00 151.08 L 24.19 151.07 L 24.39 151.06 L 24.58 151.05 L 24.78 151.03 L 24.97 151.02 L 25.17 151.01 L 25.36 151.00 L 25.56 150.99 L 25.75 150.98 L 25.94 150.96 L 26.14 150.95 L 26.33 150.94 L 26.53 150.93 L 26.72 150.91 L 26.92 150.90 L 27.11 150.89 L 27.31 150.87 L 27.50 150.86 L 27.69 150.85 L 27.89 150.83 L 28.08 150.82 L 28.28 150.80 L 28.47 150.79 L 28.67 150.77 L 28.86 150.76 L 29.06 150.74 L 29.25 150.73 L 29.44 150.71 L 29.64 150.70 L 29.83 150.68 L 30.03 150.67 L 30.22 150.65 L 30.42 150.63 L 30.61 150.62 L 30.80 150.60 L 31.00 150.58 L 31.19 150.57 L 31.39 150.55 L 31.58 150.53 L 31.78 150.51 L 31.97 150.50 L 32.17 150.48 L 32.36 150.46 L 32.55 150.44 L 32.75 150.42 L 32.94 150.40 L 33.14 150.38 L 33.33 150.36 L 33.53 150.34 L 33.72 150.32 L 33.92 150.30 L 34.11 150.28 L 34.30 150.26 L 34.50 150.24 L 34.69 150.22 L 34.89 150.20 L 35.08 150.17 L 35.28 150.15 L 35.47 150.13 L 35.67 150.11 L 35.86 150.08 L 36.05 150.06 L 36.25 150.04 L 36.44 150.01 L 36.64 149.99 L 36.83 149.96 L 37.03 149.94 L 37.22 149.91 L 37.42 149.89 L 37.61 149.86 L 37.80 149.84 L 38.00 149.81 L 38.19 149.78 L 38.39 149.76 L 38.58 149.73 L 38.78 149.70 L 38.97 149.67 L 39.17 149.65 L 39.36 149.62 L 39.55 149.59 L 39.75 149.56 L 39.94 149.53 L 40.14 149.50 L 40.33 149.47 L 40.53 149.44 L 40.72 149.41 L 40.91 149.38 L 41.11 149.35 L 41.30 149.32 L 41.50 149.28 L 41.69 149.25 L 41.89 149.22 L 42.08 149.18 L 42.28 149.15 L 42.47 149.12 L 42.66 149.08 L 42.86 149.05 L 43.05 149.01 L 43.25 148.98 L 43.44 148.94 L 43.64 148.91 L 43.83 148.87 L 44.03 148.83 L 44.22 148.79 L 44.41 148.76 L 44.61 148.72 L 44.80 148.68 L 45.00 148.64 L 45.19 148.60 L 45.39 148.56 L 45.58 148.52 L 45.78 148.48 L 45.97 148.44 L 46.16 148.40 L 46.36 148.35 L 46.55 148.31 L 46.75 148.27 L 46.94 148.22 L 47.14 148.18 L 47.33 148.14 L 47.53 148.09 L 47.72 148.05 L 47.91 148.00 L 48.11 147.95 L 48.30 147.91 L 48.50 147.86 L 48.69 147.81 L 48.89 147.76 L 49.08 147.72 L 49.28 147.67 L 49.47 147.62 L 49.66 147.57 L 49.86 147.52 L 50.05 147.46 L 50.25 147.41 L 50.44 147.36 L 50.64 147.31 L 50.83 147.25 L 51.03 147.20 L 51.22 147.15 L 51.41 147.09 L 51.61 147.04 L 51.80 146.98 L 52.00 146.92 L 52.19 146.87 L 52.39 146.81 L 52.58 146.75 L 52.77 146.69 L 52.97 146.63 L 53.16 146.57 L 53.36 146.51 L 53.55 146.45 L 53.75 146.39 L 53.94 146.32 L 54.14 146.26 L 54.33 146.20 L 54.52 146.13 L 54.72 146.07 L 54.91 146.00 L 55.11 145.94 L 55.30 145.87 L 55.50 145.80 L 55.69 145.74 L 55.89 145.67 L 56.08 145.60 L 56.27 145.53 L 56.47 145.46 L 56.66 145.39 L 56.86 145.31 L 57.05 145.24 L 57.25 145.17 L 57.44 145.09 L 57.64 145.02 L 57.83 144.94 L 58.02 144.87 L 58.22 144.79 L 58.41 144.71 L 58.61 144.64 L 58.80 144.56 L 59.00 144.48 L 59.19 144.40 L 59.39 144.32 L 59.58 144.24 L 59.77 144.15 L 59.97 144.07 L 60.16 143.99 L 60.36 143.90 L 60.55 143.82 L 60.75 143.73 L 60.94 143.64 L 61.14 143.56 L 61.33 143.47 L 61.52 143.38 L 61.72 143.29 L 61.91 143.20 L 62.11 143.11 L 62.30 143.01 L 62.50 142.92 L 62.69 142.83 L 62.88 142.73 L 63.08 142.64 L 63.27 142.54 L 63.47 142.44 L 63.66 142.35 L 63.86 142.25 L 64.05 142.15 L 64.25 142.05 L 64.44 141.95 L 64.63 141.85 L 64.83 141.74 L 65.02 141.64 L 65.22 141.53 L 65.41 141.43 L 65.61 141.32 L 65.80 141.22 L 66.00 141.11 L 66.19 141.00 L 66.38 140.89 L 66.58 140.78 L 66.77 140.67 L 66.97 140.56 L 67.16 140.44 L 67.36 140.33 L 67.55 140.21 L 67.75 140.10 L 67.94 139.98 L 68.13 139.86 L 68.33 139.74 L 68.52 139.62 L 68.72 139.50 L 68.91 139.38 L 69.11 139.26 L 69.30 139.14 L 69.50 139.01 L 69.69 138.89 L 69.88 138.76 L 70.08 138.63 L 70.27 138.51 L 70.47 138.38 L 70.66 138.25 L 70.86 138.12 L 71.05 137.98 L 71.25 137.85 L 71.44 137.72 L 71.63 137.58 L 71.83 137.45 L 72.02 137.31 L 72.22 137.17 L 72.41 137.03 L 72.61 136.89 L 72.80 136.75 L 72.99 136.61 L 73.19 136.47 L 73.38 136.32 L 73.58 136.18 L 73.77 136.03 L 73.97 135.88 L 74.16 135.74 L 74.36 135.59 L 74.55 135.44 L 74.74 135.29 L 74.94 135.13 L 75.13 134.98 L 75.33 134.83 L 75.52 134.67 L 75.72 134.51 L 75.91 134.36 L 76.11 134.20 L 76.30 134.04 L 76.49 133.88 L 76.69 133.72 L 76.88 133.55 L 77.08 133.39 L 77.27 133.22 L 77.47 133.06 L 77.66 132.89 L 77.86 132.72 L 78.05 132.55 L 78.24 132.38 L 78.44 132.21 L 78.63 132.04 L 78.83 131.86 L 79.02 131.69 L 79.22 131.51 L 79.41 131.34 L 79.61 131.16 L 79.80 130.98 L 79.99 130.80 L 80.19 130.62 L 80.38 130.43 L 80.58 130.25 L 80.77 130.07 L 80.97 129.88 L 81.16 129.69 L 81.36 129.50 L 81.55 129.31 L 81.74 129.12 L 81.94 128.93 L 82.13 128.74 L 82.33 128.55 L 82.52 128.35 L 82.72 128.15 L 82.91 127.96 L 83.11 127.76 L 83.30 127.56 L 83.49 127.36 L 83.69 127.15 L 83.88 126.95 L 84.08 126.75 L 84.27 126.54 L 84.47 126.34 L 84.66 126.13 L 84.85 125.92 L 85.05 125.71 L 85.24 125.50 L 85.44 125.29 L 85.63 125.07 L 85.83 124.86 L 86.02 124.64 L 86.22 124.42 L 86.41 124.21 L 86.60 123.99 L 86.80 123.77 L 86.99 123.54 L 87.19 123.32 L 87.38 123.10 L 87.58 122.87 L 87.77 122.65 L 87.97 122.42 L 88.16 122.19 L 88.35 121.96 L 88.55 121.73 L 88.74 121.50 L 88.94 121.27 L 89.13 121.03 L 89.33 120.80 L 89.52 120.56 L 89.72 120.32 L 89.91 120.08 L 90.10 119.84 L 90.30 119.60 L 90.49 119.36 L 90.69 119.12 L 90.88 118.87 L 91.08 118.63 L 91.27 118.38 L 91.47 118.13 L 91.66 117.88 L 91.85 117.63 L 92.05 117.38 L 92.24 117.13 L 92.44 116.87 L 92.63 116.62 L 92.83 116.36 L 93.02 116.11 L 93.22 115.85 L 93.41 115.59 L 93.60 115.33 L 93.80 115.07 L 93.99 114.81 L 94.19 114.54 L 94.38 114.28 L 94.58 114.01 L 94.77 113.74 L 94.96 113.48 L 95.16 113.21 L 95.35 112.94 L 95.55 112.67 L 95.74 112.39 L 95.94 112.12 L 96.13 111.85 L 96.33 111.57 L 96.52 111.30 L 96.71 111.02 L 96.91 110.74 L 97.10 110.46 L 97.30 110.18 L 97.49 109.90 L 97.69 109.62 L 97.88 109.33 L 98.08 109.05 L 98.27 108.76 L 98.46 108.47 L 98.66 108.19 L 98.85 107.90 L 99.05 107.61 L 99.24 107.32 L 99.44 107.03 L 99.63 106.73 L 99.83 106.44 L 100.02 106.15 L 100.21 105.85 L 100.41 105.56 L 100.60 105.26 L 100.80 104.96 L 100.99 104.66 L 101.19 104.36 L 101.38 104.06 L 101.58 103.76 L 101.77 103.46 L 101.96 103.15 L 102.16 102.85 L 102.35 102.54 L 102.55 102.24 L 102.74 101.93 L 102.94 101.62 L 103.13 101.31 L 103.33 101.00 L 103.52 100.69 L 103.71 100.38 L 103.91 100.07 L 104.10 99.76 L 104.30 99.44 L 104.49 99.13 L 104.69 98.81 L 104.88 98.50 L 105.08 98.18 L 105.27 97.86 L 105.46 97.54 L 105.66 97.23 L 105.85 96.91 L 106.05 96.59 L 106.24 96.26 L 106.44 95.94 L 106.63 95.62 L 106.82 95.30 L 107.02 94.97 L 107.21 94.65 L 107.41 94.32 L 107.60 94.00 L 107.80 93.67 L 107.99 93.34 L 108.19 93.02 L 108.38 92.69 L 108.57 92.36 L 108.77 92.03 L 108.96 91.70 L 109.16 91.37 L 109.35 91.04 L 109.55 90.71 L 109.74 90.37 L 109.94 90.04 L 110.13 89.71 L 110.32 89.37 L 110.52 89.04 L 110.71 88.71 L 110.91 88.37 L 111.10 88.04 L 111.30 87.70 L 111.49 87.36 L 111.69 87.03 L 111.88 86.69 L 112.07 86.35 L 112.27 86.01 L 112.46 85.68 L 112.66 85.34 L 112.85 85.00 L 113.05 84.66 L 113.24 84.32 L 113.44 83.98 L 113.63 83.64 L 113.82 83.30 L 114.02 82.96 L 114.21 82.62 L 114.41 82.28 L 114.60 81.93 L 114.80 81.59 L 114.99 81.25 L 115.19 80.91 L 115.38 80.57 L 115.57 80.23 L 115.77 79.88 L 115.96 79.54 L 116.16 79.20 L 116.35 78.85 L 116.55 78.51 L 116.74 78.17 L 116.93 77.83 L 117.13 77.48 L 117.32 77.14 L 117.52 76.80 L 117.71 76.45 L 117.91 76.11 L 118.10 75.77 L 118.30 75.42 L 118.49 75.08 L 118.68 74.74 L 118.88 74.40 L 119.07 74.05 L 119.27 73.71 L 119.46 73.37 L 119.66 73.03 L 119.85 72.68 L 120.05 72.34 L 120.24 72.00 L 120.43 71.66 L 120.63 71.32 L 120.82 70.98 L 121.02 70.64 L 121.21 70.30 L 121.41 69.96 L 121.60 69.62 L 121.80 69.28 L 121.99 68.94 L 122.18 68.60 L 122.38 68.26 L 122.57 67.92 L 122.77 67.58 L 122.96 67.25 L 123.16 66.91 L 123.35 66.57 L 123.55 66.24 L 123.74 65.90 L 123.93 65.57 L 124.13 65.23 L 124.32 64.90 L 124.52 64.56 L 124.71 64.23 L 124.91 63.90 L 125.10 63.57 L 125.30 63.24 L 125.49 62.90 L 125.68 62.57 L 125.88 62.25 L 126.07 61.92 L 126.27 61.59 L 126.46 61.26 L 126.66 60.93 L 126.85 60.61 L 127.05 60.28 L 127.24 59.96 L 127.43 59.64 L 127.63 59.31 L 127.82 58.99 L 128.02 58.67 L 128.21 58.35 L 128.41 58.03 L 128.60 57.71 L 128.79 57.39 L 128.99 57.08 L 129.18 56.76 L 129.38 56.45 L 129.57 56.13 L 129.77 55.82 L 129.96 55.51 L 130.16 55.20 L 130.35 54.89 L 130.54 54.58 L 130.74 54.27 L 130.93 53.96 L 131.13 53.66 L 131.32 53.35 L 131.52 53.05 L 131.71 52.75 L 131.91 52.45 L 132.10 52.15 L 132.29 51.85 L 132.49 51.55 L 132.68 51.26 L 132.88 50.96 L 133.07 50.67 L 133.27 50.37 L 133.46 50.08 L 133.66 49.79 L 133.85 49.50 L 134.04 49.22 L 134.24 48.93 L 134.43 48.65 L 134.63 48.36 L 134.82 48.08 L 135.02 47.80 L 135.21 47.52 L 135.41 47.24 L 135.60 46.97 L 135.79 46.69 L 135.99 46.42 L 136.18 46.15 L 136.38 45.88 L 136.57 45.61 L 136.77 45.34 L 136.96 45.08 L 137.16 44.81 L 137.35 44.55 L 137.54 44.29 L 137.74 44.03 L 137.93 43.77 L 138.13 43.52 L 138.32 43.26 L 138.52 43.01 L 138.71 42.76 L 138.90 42.51 L 139.10 42.26 L 139.29 42.02 L 139.49 41.77 L 139.68 41.53 L 139.88 41.29 L 140.07 41.05 L 140.27 40.82 L 140.46 40.58 L 140.65 40.35 L 140.85 40.12 L 141.04 39.89 L 141.24 39.66 L 141.43 39.44 L 141.63 39.21 L 141.82 38.99 L 142.02 38.77 L 142.21 38.55 L 142.40 38.34 L 142.60 38.12 L 142.79 37.91 L 142.99 37.70 L 143.18 37.49 L 143.38 37.29 L 143.57 37.08 L 143.77 36.88 L 143.96 36.68 L 144.15 36.48 L 144.35 36.29 L 144.54 36.09 L 144.74 35.90 L 144.93 35.71 L 145.13 35.53 L 145.32 35.34 L 145.52 35.16 L 145.71 34.98 L 145.90 34.80 L 146.10 34.62 L 146.29 34.45 L 146.49 34.28 L 146.68 34.11 L 146.88 33.94 L 147.07 33.77 L 147.27 33.61 L 147.46 33.45 L 147.65 33.29 L 147.85 33.13 L 148.04 32.98 L 148.24 32.83 L 148.43 32.68 L 148.63 32.53 L 148.82 32.39 L 149.02 32.24 L 149.21 32.10 L 149.40 31.97 L 149.60 31.83 L 149.79 31.70 L 149.99 31.57 L 150.18 31.44 L 150.38 31.31 L 150.57 31.19 L 150.76 31.07 L 150.96 30.95 L 151.15 30.83 L 151.35 30.72 L 151.54 30.61 L 151.74 30.50 L 151.93 30.39 L 152.13 30.29 L 152.32 30.18 L 152.51 30.08 L 152.71 29.99 L 152.90 29.89 L 153.10 29.80 L 153.29 29.71 L 153.49 29.63 L 153.68 29.54 L 153.88 29.46 L 154.07 29.38 L 154.26 29.30 L 154.46 29.23 L 154.65 29.16 L 154.85 29.09 L 155.04 29.02 L 155.24 28.96 L 155.43 28.89 L 155.63 28.84 L 155.82 28.78 L 156.01 28.72 L 156.21 28.67 L 156.40 28.62 L 156.60 28.58 L 156.79 28.53 L 156.99 28.49 L 157.18 28.45 L 157.38 28.42 L 157.57 28.38 L 157.76 28.35 L 157.96 28.32 L 158.15 28.30 L 158.35 28.28 L 158.54 28.25 L 158.74 28.24 L 158.93 28.22 L 159.13 28.21 L 159.32 28.20 L 159.51 28.19 L 159.71 28.18 L 159.90 28.18 L 160.10 28.18 L 160.29 28.18 L 160.49 28.19 L 160.68 28.20 L 160.87 28.21 L 161.07 28.22 L 161.26 28.24 L 161.46 28.25 L 161.65 28.28 L 161.85 28.30 L 162.04 28.32 L 162.24 28.35 L 162.43 28.38 L 162.62 28.42 L 162.82 28.45 L 163.01 28.49 L 163.21 28.53 L 163.40 28.58 L 163.60 28.62 L 163.79 28.67 L 163.99 28.72 L 164.18 28.78 L 164.37 28.84 L 164.57 28.89 L 164.76 28.96 L 164.96 29.02 L 165.15 29.09 L 165.35 29.16 L 165.54 29.23 L 165.74 29.30 L 165.93 29.38 L 166.12 29.46 L 166.32 29.54 L 166.51 29.63 L 166.71 29.71 L 166.90 29.80 L 167.10 29.89 L 167.29 29.99 L 167.49 30.08 L 167.68 30.18 L 167.87 30.29 L 168.07 30.39 L 168.26 30.50 L 168.46 30.61 L 168.65 30.72 L 168.85 30.83 L 169.04 30.95 L 169.24 31.07 L 169.43 31.19 L 169.62 31.31 L 169.82 31.44 L 170.01 31.57 L 170.21 31.70 L 170.40 31.83 L 170.60 31.97 L 170.79 32.10 L 170.98 32.24 L 171.18 32.39 L 171.37 32.53 L 171.57 32.68 L 171.76 32.83 L 171.96 32.98 L 172.15 33.13 L 172.35 33.29 L 172.54 33.45 L 172.73 33.61 L 172.93 33.77 L 173.12 33.94 L 173.32 34.11 L 173.51 34.28 L 173.71 34.45 L 173.90 34.62 L 174.10 34.80 L 174.29 34.98 L 174.48 35.16 L 174.68 35.34 L 174.87 35.53 L 175.07 35.71 L 175.26 35.90 L 175.46 36.09 L 175.65 36.29 L 175.85 36.48 L 176.04 36.68 L 176.23 36.88 L 176.43 37.08 L 176.62 37.29 L 176.82 37.49 L 177.01 37.70 L 177.21 37.91 L 177.40 38.12 L 177.60 38.34 L 177.79 38.55 L 177.98 38.77 L 178.18 38.99 L 178.37 39.21 L 178.57 39.44 L 178.76 39.66 L 178.96 39.89 L 179.15 40.12 L 179.35 40.35 L 179.54 40.58 L 179.73 40.82 L 179.93 41.05 L 180.12 41.29 L 180.32 41.53 L 180.51 41.77 L 180.71 42.02 L 180.90 42.26 L 181.10 42.51 L 181.29 42.76 L 181.48 43.01 L 181.68 43.26 L 181.87 43.52 L 182.07 43.77 L 182.26 44.03 L 182.46 44.29 L 182.65 44.55 L 182.84 44.81 L 183.04 45.08 L 183.23 45.34 L 183.43 45.61 L 183.62 45.88 L 183.82 46.15 L 184.01 46.42 L 184.21 46.69 L 184.40 46.97 L 184.59 47.24 L 184.79 47.52 L 184.98 47.80 L 185.18 48.08 L 185.37 48.36 L 185.57 48.65 L 185.76 48.93 L 185.96 49.22 L 186.15 49.50 L 186.34 49.79 L 186.54 50.08 L 186.73 50.37 L 186.93 50.67 L 187.12 50.96 L 187.32 51.26 L 187.51 51.55 L 187.71 51.85 L 187.90 52.15 L 188.09 52.45 L 188.29 52.75 L 188.48 53.05 L 188.68 53.35 L 188.87 53.66 L 189.07 53.96 L 189.26 54.27 L 189.46 54.58 L 189.65 54.89 L 189.84 55.20 L 190.04 55.51 L 190.23 55.82 L 190.43 56.13 L 190.62 56.45 L 190.82 56.76 L 191.01 57.08 L 191.21 57.39 L 191.40 57.71 L 191.59 58.03 L 191.79 58.35 L 191.98 58.67 L 192.18 58.99 L 192.37 59.31 L 192.57 59.64 L 192.76 59.96 L 192.95 60.28 L 193.15 60.61 L 193.34 60.93 L 193.54 61.26 L 193.73 61.59 L 193.93 61.92 L 194.12 62.25 L 194.32 62.57 L 194.51 62.90 L 194.70 63.24 L 194.90 63.57 L 195.09 63.90 L 195.29 64.23 L 195.48 64.56 L 195.68 64.90 L 195.87 65.23 L 196.07 65.57 L 196.26 65.90 L 196.45 66.24 L 196.65 66.57 L 196.84 66.91 L 197.04 67.25 L 197.23 67.58 L 197.43 67.92 L 197.62 68.26 L 197.82 68.60 L 198.01 68.94 L 198.20 69.28 L 198.40 69.62 L 198.59 69.96 L 198.79 70.30 L 198.98 70.64 L 199.18 70.98 L 199.37 71.32 L 199.57 71.66 L 199.76 72.00 L 199.95 72.34 L 200.15 72.68 L 200.34 73.03 L 200.54 73.37 L 200.73 73.71 L 200.93 74.05 L 201.12 74.40 L 201.32 74.74 L 201.51 75.08 L 201.70 75.42 L 201.90 75.77 L 202.09 76.11 L 202.29 76.45 L 202.48 76.80 L 202.68 77.14 L 202.87 77.48 L 203.07 77.83 L 203.26 78.17 L 203.45 78.51 L 203.65 78.85 L 203.84 79.20 L 204.04 79.54 L 204.23 79.88 L 204.43 80.23 L 204.62 80.57 L 204.81 80.91 L 205.01 81.25 L 205.20 81.59 L 205.40 81.93 L 205.59 82.28 L 205.79 82.62 L 205.98 82.96 L 206.18 83.30 L 206.37 83.64 L 206.56 83.98 L 206.76 84.32 L 206.95 84.66 L 207.15 85.00 L 207.34 85.34 L 207.54 85.68 L 207.73 86.01 L 207.93 86.35 L 208.12 86.69 L 208.31 87.03 L 208.51 87.36 L 208.70 87.70 L 208.90 88.04 L 209.09 88.37 L 209.29 88.71 L 209.48 89.04 L 209.68 89.37 L 209.87 89.71 L 210.06 90.04 L 210.26 90.37 L 210.45 90.71 L 210.65 91.04 L 210.84 91.37 L 211.04 91.70 L 211.23 92.03 L 211.43 92.36 L 211.62 92.69 L 211.81 93.02 L 212.01 93.34 L 212.20 93.67 L 212.40 94.00 L 212.59 94.32 L 212.79 94.65 L 212.98 94.97 L 213.18 95.30 L 213.37 95.62 L 213.56 95.94 L 213.76 96.26 L 213.95 96.59 L 214.15 96.91 L 214.34 97.23 L 214.54 97.54 L 214.73 97.86 L 214.92 98.18 L 215.12 98.50 L 215.31 98.81 L 215.51 99.13 L 215.70 99.44 L 215.90 99.76 L 216.09 100.07 L 216.29 100.38 L 216.48 100.69 L 216.67 101.00 L 216.87 101.31 L 217.06 101.62 L 217.26 101.93 L 217.45 102.24 L 217.65 102.54 L 217.84 102.85 L 218.04 103.15 L 218.23 103.46 L 218.42 103.76 L 218.62 104.06 L 218.81 104.36 L 219.01 104.66 L 219.20 104.96 L 219.40 105.26 L 219.59 105.56 L 219.79 105.85 L 219.98 106.15 L 220.17 106.44 L 220.37 106.73 L 220.56 107.03 L 220.76 107.32 L 220.95 107.61 L 221.15 107.90 L 221.34 108.19 L 221.54 108.47 L 221.73 108.76 L 221.92 109.05 L 222.12 109.33 L 222.31 109.62 L 222.51 109.90 L 222.70 110.18 L 222.90 110.46 L 223.09 110.74 L 223.29 111.02 L 223.48 111.30 L 223.67 111.57 L 223.87 111.85 L 224.06 112.12 L 224.26 112.39 L 224.45 112.67 L 224.65 112.94 L 224.84 113.21 L 225.04 113.48 L 225.23 113.74 L 225.42 114.01 L 225.62 114.28 L 225.81 114.54 L 226.01 114.81 L 226.20 115.07 L 226.40 115.33 L 226.59 115.59 L 226.78 115.85 L 226.98 116.11 L 227.17 116.36 L 227.37 116.62 L 227.56 116.87 L 227.76 117.13 L 227.95 117.38 L 228.15 117.63 L 228.34 117.88 L 228.53 118.13 L 228.73 118.38 L 228.92 118.63 L 229.12 118.87 L 229.31 119.12 L 229.51 119.36 L 229.70 119.60 L 229.90 119.84 L 230.09 120.08 L 230.28 120.32 L 230.48 120.56 L 230.67 120.80 L 230.87 121.03 L 231.06 121.27 L 231.26 121.50 L 231.45 121.73 L 231.65 121.96 L 231.84 122.19 L 232.03 122.42 L 232.23 122.65 L 232.42 122.87 L 232.62 123.10 L 232.81 123.32 L 233.01 123.54 L 233.20 123.77 L 233.40 123.99 L 233.59 124.21 L 233.78 124.42 L 233.98 124.64 L 234.17 124.86 L 234.37 125.07 L 234.56 125.29 L 234.76 125.50 L 234.95 125.71 L 235.15 125.92 L 235.34 126.13 L 235.53 126.34 L 235.73 126.54 L 235.92 126.75 L 236.12 126.95 L 236.31 127.15 L 236.51 127.36 L 236.70 127.56 L 236.89 127.76 L 237.09 127.96 L 237.28 128.15 L 237.48 128.35 L 237.67 128.55 L 237.87 128.74 L 238.06 128.93 L 238.26 129.12 L 238.45 129.31 L 238.64 129.50 L 238.84 129.69 L 239.03 129.88 L 239.23 130.07 L 239.42 130.25 L 239.62 130.43 L 239.81 130.62 L 240.01 130.80 L 240.20 130.98 L 240.39 131.16 L 240.59 131.34 L 240.78 131.51 L 240.98 131.69 L 241.17 131.86 L 241.37 132.04 L 241.56 132.21 L 241.76 132.38 L 241.95 132.55 L 242.14 132.72 L 242.34 132.89 L 242.53 133.06 L 242.73 133.22 L 242.92 133.39 L 243.12 133.55 L 243.31 133.72 L 243.51 133.88 L 243.70 134.04 L 243.89 134.20 L 244.09 134.36 L 244.28 134.51 L 244.48 134.67 L 244.67 134.83 L 244.87 134.98 L 245.06 135.13 L 245.26 135.29 L 245.45 135.44 L 245.64 135.59 L 245.84 135.74 L 246.03 135.88 L 246.23 136.03 L 246.42 136.18 L 246.62 136.32 L 246.81 136.47 L 247.01 136.61 L 247.20 136.75 L 247.39 136.89 L 247.59 137.03 L 247.78 137.17 L 247.98 137.31 L 248.17 137.45 L 248.37 137.58 L 248.56 137.72 L 248.75 137.85 L 248.95 137.98 L 249.14 138.12 L 249.34 138.25 L 249.53 138.38 L 249.73 138.51 L 249.92 138.63 L 250.12 138.76 L 250.31 138.89 L 250.50 139.01 L 250.70 139.14 L 250.89 139.26 L 251.09 139.38 L 251.28 139.50 L 251.48 139.62 L 251.67 139.74 L 251.87 139.86 L 252.06 139.98 L 252.25 140.10 L 252.45 140.21 L 252.64 140.33 L 252.84 140.44 L 253.03 140.56 L 253.23 140.67 L 253.42 140.78 L 253.62 140.89 L 253.81 141.00 L 254.00 141.11 L 254.20 141.22 L 254.39 141.32 L 254.59 141.43 L 254.78 141.53 L 254.98 141.64 L 255.17 141.74 L 255.37 141.85 L 255.56 141.95 L 255.75 142.05 L 255.95 142.15 L 256.14 142.25 L 256.34 142.35 L 256.53 142.44 L 256.73 142.54 L 256.92 142.64 L 257.12 142.73 L 257.31 142.83 L 257.50 142.92 L 257.70 143.01 L 257.89 143.11 L 258.09 143.20 L 258.28 143.29 L 258.48 143.38 L 258.67 143.47 L 258.86 143.56 L 259.06 143.64 L 259.25 143.73 L 259.45 143.82 L 259.64 143.90 L 259.84 143.99 L 260.03 144.07 L 260.23 144.15 L 260.42 144.24 L 260.61 144.32 L 260.81 144.40 L 261.00 144.48 L 261.20 144.56 L 261.39 144.64 L 261.59 144.71 L 261.78 144.79 L 261.98 144.87 L 262.17 144.94 L 262.36 145.02 L 262.56 145.09 L 262.75 145.17 L 262.95 145.24 L 263.14 145.31 L 263.34 145.39 L 263.53 145.46 L 263.73 145.53 L 263.92 145.60 L 264.11 145.67 L 264.31 145.74 L 264.50 145.80 L 264.70 145.87 L 264.89 145.94 L 265.09 146.00 L 265.28 146.07 L 265.48 146.13 L 265.67 146.20 L 265.86 146.26 L 266.06 146.32 L 266.25 146.39 L 266.45 146.45 L 266.64 146.51 L 266.84 146.57 L 267.03 146.63 L 267.23 146.69 L 267.42 146.75 L 267.61 146.81 L 267.81 146.87 L 268.00 146.92 L 268.20 146.98 L 268.39 147.04 L 268.59 147.09 L 268.78 147.15 L 268.97 147.20 L 269.17 147.25 L 269.36 147.31 L 269.56 147.36 L 269.75 147.41 L 269.95 147.46 L 270.14 147.52 L 270.34 147.57 L 270.53 147.62 L 270.72 147.67 L 270.92 147.72 L 271.11 147.76 L 271.31 147.81 L 271.50 147.86 L 271.70 147.91 L 271.89 147.95 L 272.09 148.00 L 272.28 148.05 L 272.47 148.09 L 272.67 148.14 L 272.86 148.18 L 273.06 148.22 L 273.25 148.27 L 273.45 148.31 L 273.64 148.35 L 273.84 148.40 L 274.03 148.44 L 274.22 148.48 L 274.42 148.52 L 274.61 148.56 L 274.81 148.60 L 275.00 148.64 L 275.20 148.68 L 275.39 148.72 L 275.59 148.76 L 275.78 148.79 L 275.97 148.83 L 276.17 148.87 L 276.36 148.91 L 276.56 148.94 L 276.75 148.98 L 276.95 149.01 L 277.14 149.05 L 277.34 149.08 L 277.53 149.12 L 277.72 149.15 L 277.92 149.18 L 278.11 149.22 L 278.31 149.25 L 278.50 149.28 L 278.70 149.32 L 278.89 149.35 L 279.09 149.38 L 279.28 149.41 L 279.47 149.44 L 279.67 149.47 L 279.86 149.50 L 280.06 149.53 L 280.25 149.56 L 280.45 149.59 L 280.64 149.62 L 280.83 149.65 L 281.03 149.67 L 281.22 149.70 L 281.42 149.73 L 281.61 149.76 L 281.81 149.78 L 282.00 149.81 L 282.20 149.84 L 282.39 149.86 L 282.58 149.89 L 282.78 149.91 L 282.97 149.94 L 283.17 149.96 L 283.36 149.99 L 283.56 150.01 L 283.75 150.04 L 283.95 150.06 L 284.14 150.08 L 284.33 150.11 L 284.53 150.13 L 284.72 150.15 L 284.92 150.17 L 285.11 150.20 L 285.31 150.22 L 285.50 150.24 L 285.70 150.26 L 285.89 150.28 L 286.08 150.30 L 286.28 150.32 L 286.47 150.34 L 286.67 150.36 L 286.86 150.38 L 287.06 150.40 L 287.25 150.42 L 287.45 150.44 L 287.64 150.46 L 287.83 150.48 L 288.03 150.50 L 288.22 150.51 L 288.42 150.53 L 288.61 150.55 L 288.81 150.57 L 289.00 150.58 L 289.20 150.60 L 289.39 150.62 L 289.58 150.63 L 289.78 150.65 L 289.97 150.67 L 290.17 150.68 L 290.36 150.70 L 290.56 150.71 L 290.75 150.73 L 290.94 150.74 L 291.14 150.76 L 291.33 150.77 L 291.53 150.79 L 291.72 150.80 L 291.92 150.82 L 292.11 150.83 L 292.31 150.85 L 292.50 150.86 L 292.69 150.87 L 292.89 150.89 L 293.08 150.90 L 293.28 150.91 L 293.47 150.93 L 293.67 150.94 L 293.86 150.95 L 294.06 150.96 L 294.25 150.98 L 294.44 150.99 L 294.64 151.00 L 294.83 151.01 L 295.03 151.02 L 295.22 151.03 L 295.42 151.05 L 295.61 151.06 L 295.81 151.07 L 296.00 151.08" fill="none" stroke="#7E8692" stroke-width="2.3" stroke-linecap="round" stroke-linejoin="round"/>
</svg>
