<svg xmlns="http://www.w3.org/2000/svg" viewBox="0 0 320 180" width="320" height="180">
  <rect width="320" height="180" fill="none"/>
  <path d="M 24.00 95.67 L 24.30 95.68 L 24.61 95.69 L 24.91 95.70 L 25.21 95.72 L 25.51 95.73 L 25.82 95.74 L 26.12 95.76 L 26.42 95.77 L 26.72 95.78 L 27.03 95.80 L 27.33 95.81 L 27.63 95.82 L 27.93 95.84 L 28.24 95.85 L 28.54 95.86 L 28.84 95.88 L 29.14 95.89 L 29.45 95.90 L 29.75 95.92 L 30.05 95.93 L 30.35 95.94 L 30.66 95.96 L 30.96 95.97 L 31.26 95.99 L 31.56 96.00 L 31.87 96.01 L 32.17 96.03 L 32.47 96.04 L 32.77 96.06 L 33.08 96.07 L 33.38 96.09 L 33.68 96.10 L 33.98 96.12 L 34.29 96.13 L 34.59 96.15 L 34.89 96.16 L 35.19 96.17 L 35.50 96.19 L 35.80 96.21 L 36.10 96.22 L 36.40 96.24 L 36.71 96.25 L 37.01 96.27 L 37.31 96.28 L 37.62 96.30 L 37.92 96.31 L 38.22 96.33 L 38.52 96.34 L 38.83 96.36 L 39.13 96.38 L 39.43 96.39 L 39.73 96.41 L 40.04 96.42 L 40.34 96.44 L 40.64 96.46 L 40.94 96.47 L 41.25 96.49 L 41.55 96.51 L 41.85 96.52 L 42.15 96.54 L 42.46 96.56 L 42.76 96.57 L 43.06 96.59 L 43.36 96.61 L 43.67 96.62 L 43.97 96.64 L 44.27 96.66 L 44.57 96.68 L 44.88 96.69 L 45.18 96.71 L 45.48 96.73 L 45.78 96.75 L 46.09 96.77 L 46.39 96.78 L 46.69 96.80 L 46.99 96.82 L 47.30 96.84 L 47.60 96.86 L 47.90 96.87 L 48.20 96.89 L 48.51 96.91 L 48.81 96.93 L 49.11 96.95 L 49.41 96.97 L 49.72 96.99 L 50.02 97.01 L 50.32 97.03 L 50.63 97.05 L 50.93 97.07 L 51.23 97.09 L 51.53 97.11 L 51.84 97.12 L 52.14 97.14 L 52.44 97.17 L 52.74 97.19 L 53.05 97.21 L 53.35 97.23 L 53.65 97.25 L 53.95 97.27 L 54.26 97.29 L 54.56 97.31 L 54.86 97.33 L 55.16 97.35 L 55.47 97.37 L 55.77 97.39 L 56.07 97.42 L 56.37 97.44 L 56.68 97.46 L 56.98 97.48 L 57.28 97.50 L 57.58 97.52 L 57.89 97.55 L 58.19 97.57 L 58.49 97.59 L 58.79 97.61 L 59.10 97.64 L 59.40 97.66 L 59.70 97.68 L 60.00 97.71 L 60.31 97.73 L 60.61 97.75 L 60.91 97.78 L 61.21 97.80 L 61.52 97.83 L 61.82 97.85 L 62.12 97.87 L 62.42 97.90 L 62.73 97.92 L 63.03 97.95 L 63.33 97.97 L 63.64 98.00 L 63.94 98.02 L 64.24 98.05 L 64.54 98.07 L 64.85 98.10 L 65.15 98.12 L 65.45 98.15 L 65.75 98.18 L 66.06 98.20 L 66.36 98.23 L 66.66 98.26 L 66.96 98.28 L 67.27 98.31 L 67.57 98.34 L 67.87 98.37 L 68.17 98.39 L 68.48 98.42 L 68.78 98.45 L 69.08 98.48 L 69.38 98.50 L 69.69 98.53 L 69.99 98.56 L 70.29 98.59 L 70.59 98.62 L 70.90 98.65 L 71.20 98.68 L 71.50 98.71 L 71.80 98.74 L 72.11 98.77 L 72.41 98.80 L 72.71 98.83 L 73.01 98.86 L 73.32 98.89 L 73.62 98.92 L 73.92 98.95 L 74.22 98.98 L 74.53 99.02 L 74.83 99.05 L 75.13 99.08 L 75.43 99.11 L 75.74 99.15 L 76.04 99.18 L 76.34 99.21 L 76.65 99.25 L 76.95 99.28 L 77.25 99.31 L 77.55 99.35 L 77.86 99.38 L 78.16 99.42 L 78.46 99.45 L 78.76 99.49 L 79.07 99.52 L 79.37 99.56 L 79.67 99.59 L 79.97 99.63 L 80.28 99.67 L 80.58 99.70 L 80.88 99.74 L 81.18 99.78 L 81.49 99.82 L 81.79 99.85 L 82.09 99.89 L 82.39 99.93 L 82.70 99.97 L 83.00 100.01 L 83.30 100.05 L 83.60 100.09 L 83.91 100.13 L 84.21 100.17 L 84.51 100.21 L 84.81 100.25 L 85.12 100.29 L 85.42 100.33 L 85.72 100.38 L 86.02 100.42 L 86.33 100.46 L 86.63 100.50 L 86.93 100.55 L 87.23 100.59 L 87.54 100.64 L 87.84 100.68 L 88.14 100.72 L 88.44 100.77 L 88.75 100.82 L 89.05 100.86 L 89.35 100.91 L 89.66 100.96 L 89.96 101.00 L 90.26 101.05 L 90.56 101.10 L 90.87 101.15 L 91.17 101.20 L 91.47 101.25 L 91.77 101.30 L 92.08 101.35 L 92.38 101.40 L 92.68 101.45 L 92.98 101.50 L 93.29 101.55 L 93.59 101.60 L 93.89 101.66 L 94.19 101.71 L 94.50 101.77 L 94.80 101.82 L 95.10 101.87 L 95.40 101.93 L 95.71 101.99 L 96.01 102.04 L 96.31 102.10 L 96.61 102.16 L 96.92 102.22 L 97.22 102.28 L 97.52 102.33 L 97.82 102.39 L 98.13 102.46 L 98.43 102.52 L 98.73 102.58 L 99.03 102.64 L 99.34 102.70 L 99.64 102.77 L 99.94 102.83 L 100.24 102.90 L 100.55 102.96 L 100.85 103.03 L 101.15 103.10 L 101.45 103.16 L 101.76 103.23 L 102.06 103.30 L 102.36 103.37 L 102.67 103.44 L 102.97 103.51 L 103.27 103.58 L 103.57 103.66 L 103.88 103.73 L 104.18 103.81 L 104.48 103.88 L 104.78 103.96 L 105.09 104.03 L 105.39 104.11 L 105.69 104.19 L 105.99 104.27 L 106.30 104.35 L 106.60 104.43 L 106.90 104.51 L 107.20 104.60 L 107.51 104.68 L 107.81 104.77 L 108.11 104.85 L 108.41 104.94 L 108.72 105.03 L 109.02 105.12 L 109.32 105.21 L 109.62 105.30 L 109.93 105.39 L 110.23 105.48 L 110.53 105.58 L 110.83 105.67 L 111.14 105.77 L 111.44 105.87 L 111.74 105.97 L 112.04 106.07 L 112.35 106.17 L 112.65 106.28 L 112.95 106.38 L 113.25 106.49 L 113.56 106.59 L 113.86 106.70 L 114.16 106.81 L 114.46 106.92 L 114.77 107.04 L 115.07 107.15 L 115.37 107.27 L 115.68 107.39 L 115.98 107.51 L 116.28 107.63 L 116.58 107.75 L 116.89 107.87 L 117.19 108.00 L 117.49 108.13 L 117.79 108.26 L 118.10 108.39 L 118.40 108.52 L 118.70 108.66 L 119.00 108.80 L 119.31 108.94 L 119.61 109.08 L 119.91 109.22 L 120.21 109.37 L 120.52 109.52 L 120.82 109.67 L 121.12 109.82 L 121.42 109.98 L 121.73 110.14 L 122.03 110.30 L 122.33 110.46 L 122.63 110.62 L 122.94 110.79 L 123.24 110.96 L 123.54 111.14 L 123.84 111.32 L 124.15 111.50 L 124.45 111.68 L 124.75 111.86 L 125.05 112.05 L 125.36 112.25 L 125.66 112.44 L 125.96 112.64 L 126.26 112.84 L 126.57 113.05 L 126.87 113.26 L 127.17 113.48 L 127.47 113.69 L 127.78 113.92 L 128.08 114.14 L 128.38 114.37 L 128.69 114.61 L 128.99 114.85 L 129.29 115.10 L 129.59 115.34 L 129.90 115.60 L 130.20 115.86 L 130.50 116.12 L 130.80 116.40 L 131.11 116.67 L 131.41 116.95 L 131.71 117.24 L 132.01 117.54 L 132.32 117.84 L 132.62 118.15 L 132.92 118.46 L 133.22 118.78 L 133.53 119.11 L 133.83 119.45 L 134.13 119.79 L 134.43 120.14 L 134.74 120.50 L 135.04 120.87 L 135.34 121.25 L 135.64 121.64 L 135.95 122.04 L 136.25 122.45 L 136.55 122.87 L 136.85 123.30 L 137.16 123.74 L 137.46 124.19 L 137.76 124.66 L 138.06 125.13 L 138.37 125.62 L 138.67 126.13 L 138.97 126.65 L 139.27 127.18 L 139.58 127.74 L 139.88 128.30 L 140.18 128.89 L 140.48 129.49 L 140.79 130.11 L 141.09 130.75 L 141.39 131.42 L 141.70 132.10 L 142.00 132.81 L 142.30 133.54 L 142.60 134.30 L 142.91 135.08 L 143.21 135.89 L 143.51 136.74 L 143.81 137.61 L 144.12 138.52 L 144.42 139.46 L 144.72 140.44 L 145.02 141.46 L 145.33 142.52 L 145.63 143.62 L 145.93 144.78 L 146.23 145.98 L 146.54 147.24 L 146.84 148.56 L 147.14 149.93 L 147.44 151.38 L 147.75 152.89 L 148.05 154.49 L 148.35 156.16 L 148.65 157.92" fill="none" stroke="#5F6B7A" stroke-width="2.5" stroke-linecap="round" stroke-linejoin="round"/>
  <path d="M 171.35 22.08 L 171.65 23.84 L 171.95 25.51 L 172.25 27.11 L 172.56 28.62 L 172.86 30.07 L 173.16 31.44 L 173.46 32.76 L 173.77 34.02 L 174.07 35.22 L 174.37 36.38 L 174.67 37.48 L 174.98 38.54 L 175.28 39.56 L 175.58 40.54 L 175.88 41.48 L 176.19 42.39 L 176.49 43.26 L 176.79 44.11 L 177.09 44.92 L 177.40 45.70 L 177.70 46.46 L 178.00 47.19 L 178.30 47.90 L 178.61 48.58 L 178.91 49.25 L 179.21 49.89 L 179.52 50.51 L 179.82 51.11 L 180.12 51.70 L 180.42 52.26 L 180.73 52.82 L 181.03 53.35 L 181.33 53.87 L 181.63 54.38 L 181.94 54.87 L 182.24 55.34 L 182.54 55.81 L 182.84 56.26 L 183.15 56.70 L 183.45 57.13 L 183.75 57.55 L 184.05 57.96 L 184.36 58.36 L 184.66 58.75 L 184.96 59.13 L 185.26 59.50 L 185.57 59.86 L 185.87 60.21 L 186.17 60.55 L 186.47 60.89 L 186.78 61.22 L 187.08 61.54 L 187.38 61.85 L 187.68 62.16 L 187.99 62.46 L 188.29 62.76 L 188.59 63.05 L 188.89 63.33 L 189.20 63.60 L 189.50 63.88 L 189.80 64.14 L 190.10 64.40 L 190.41 64.66 L 190.71 64.90 L 191.01 65.15 L 191.31 65.39 L 191.62 65.63 L 191.92 65.86 L 192.22 66.08 L 192.53 66.31 L 192.83 66.52 L 193.13 66.74 L 193.43 66.95 L 193.74 67.16 L 194.04 67.36 L 194.34 67.56 L 194.64 67.75 L 194.95 67.95 L 195.25 68.14 L 195.55 68.32 L 195.85 68.50 L 196.16 68.68 L 196.46 68.86 L 196.76 69.04 L 197.06 69.21 L 197.37 69.38 L 197.67 69.54 L 197.97 69.70 L 198.27 69.86 L 198.58 70.02 L 198.88 70.18 L 199.18 70.33 L 199.48 70.48 L 199.79 70.63 L 200.09 70.78 L 200.39 70.92 L 200.69 71.06 L 201.00 71.20 L 201.30 71.34 L 201.60 71.48 L 201.90 71.61 L 202.21 71.74 L 202.51 71.87 L 202.81 72.00 L 203.11 72.13 L 203.42 72.25 L 203.72 72.37 L 204.02 72.49 L 204.32 72.61 L 204.63 72.73 L 204.93 72.85 L 205.23 72.96 L 205.54 73.08 L 205.84 73.19 L 206.14 73.30 L 206.44 73.41 L 206.75 73.51 L 207.05 73.62 L 207.35 73.72 L 207.65 73.83 L 207.96 73.93 L 208.26 74.03 L 208.56 74.13 L 208.86 74.23 L 209.17 74.33 L 209.47 74.42 L 209.77 74.52 L 210.07 74.61 L 210.38 74.70 L 210.68 74.79 L 210.98 74.88 L 211.28 74.97 L 211.59 75.06 L 211.89 75.15 L 212.19 75.23 L 212.49 75.32 L 212.80 75.40 L 213.10 75.49 L 213.40 75.57 L 213.70 75.65 L 214.01 75.73 L 214.31 75.81 L 214.61 75.89 L 214.91 75.97 L 215.22 76.04 L 215.52 76.12 L 215.82 76.19 L 216.12 76.27 L 216.43 76.34 L 216.73 76.42 L 217.03 76.49 L 217.33 76.56 L 217.64 76.63 L 217.94 76.70 L 218.24 76.77 L 218.55 76.84 L 218.85 76.90 L 219.15 76.97 L 219.45 77.04 L 219.76 77.10 L 220.06 77.17 L 220.36 77.23 L 220.66 77.30 L 220.97 77.36 L 221.27 77.42 L 221.57 77.48 L 221.87 77.54 L 222.18 77.61 L 222.48 77.67 L 222.78 77.72 L 223.08 77.78 L 223.39 77.84 L 223.69 77.90 L 223.99 77.96 L 224.29 78.01 L 224.60 78.07 L 224.90 78.13 L 225.20 78.18 L 225.50 78.23 L 225.81 78.29 L 226.11 78.34 L 226.41 78.40 L 226.71 78.45 L 227.02 78.50 L 227.32 78.55 L 227.62 78.60 L 227.92 78.65 L 228.23 78.70 L 228.53 78.75 L 228.83 78.80 L 229.13 78.85 L 229.44 78.90 L 229.74 78.95 L 230.04 79.00 L 230.34 79.04 L 230.65 79.09 L 230.95 79.14 L 231.25 79.18 L 231.56 79.23 L 231.86 79.28 L 232.16 79.32 L 232.46 79.36 L 232.77 79.41 L 233.07 79.45 L 233.37 79.50 L 233.67 79.54 L 233.98 79.58 L 234.28 79.62 L 234.58 79.67 L 234.88 79.71 L 235.19 79.75 L 235.49 79.79 L 235.79 79.83 L 236.09 79.87 L 236.40 79.91 L 236.70 79.95 L 237.00 79.99 L 237.30 80.03 L 237.61 80.07 L 237.91 80.11 L 238.21 80.15 L 238.51 80.18 L 238.82 80.22 L 239.12 80.26 L 239.42 80.30 L 239.72 80.33 L 240.03 80.37 L 240.33 80.41 L 240.63 80.44 L 240.93 80.48 L 241.24 80.51 L 241.54 80.55 L 241.84 80.58 L 242.14 80.62 L 242.45 80.65 L 242.75 80.69 L 243.05 80.72 L 243.35 80.75 L 243.66 80.79 L 243.96 80.82 L 244.26 80.85 L 244.57 80.89 L 244.87 80.92 L 245.17 80.95 L 245.47 80.98 L 245.78 81.02 L 246.08 81.05 L 246.38 81.08 L 246.68 81.11 L 246.99 81.14 L 247.29 81.17 L 247.59 81.20 L 247.89 81.23 L 248.20 81.26 L 248.50 81.29 L 248.80 81.32 L 249.10 81.35 L 249.41 81.38 L 249.71 81.41 L 250.01 81.44 L 250.31 81.47 L 250.62 81.50 L 250.92 81.52 L 251.22 81.55 L 251.52 81.58 L 251.83 81.61 L 252.13 81.63 L 252.43 81.66 L 252.73 81.69 L 253.04 81.72 L 253.34 81.74 L 253.64 81.77 L 253.94 81.80 L 254.25 81.82 L 254.55 81.85 L 254.85 81.88 L 255.15 81.90 L 255.46 81.93 L 255.76 81.95 L 256.06 81.98 L 256.36 82.00 L 256.67 82.03 L 256.97 82.05 L 257.27 82.08 L 257.58 82.10 L 257.88 82.13 L 258.18 82.15 L 258.48 82.17 L 258.79 82.20 L 259.09 82.22 L 259.39 82.25 L 259.69 82.27 L 260.00 82.29 L 260.30 82.32 L 260.60 82.34 L 260.90 82.36 L 261.21 82.39 L 261.51 82.41 L 261.81 82.43 L 262.11 82.45 L 262.42 82.48 L 262.72 82.50 L 263.02 82.52 L 263.32 82.54 L 263.63 82.56 L 263.93 82.58 L 264.23 82.61 L 264.53 82.63 L 264.84 82.65 L 265.14 82.67 L 265.44 82.69 L 265.74 82.71 L 266.05 82.73 L 266.35 82.75 L 266.65 82.77 L 266.95 82.79 L 267.26 82.81 L 267.56 82.83 L 267.86 82.86 L 268.16 82.88 L 268.47 82.89 L 268.77 82.91 L 269.07 82.93 L 269.37 82.95 L 269.68 82.97 L 269.98 82.99 L 270.28 83.01 L 270.59 83.03 L 270.89 83.05 L 271.19 83.07 L 271.49 83.09 L 271.80 83.11 L 272.10 83.13 L 272.40 83.14 L 272.70 83.16 L 273.01 83.18 L 273.31 83.20 L 273.61 83.22 L 273.91 83.23 L 274.22 83.25 L 274.52 83.27 L 274.82 83.29 L 275.12 83.31 L 275.43 83.32 L 275.73 83.34 L 276.03 83.36 L 276.33 83.38 L 276.64 83.39 L 276.94 83.41 L 277.24 83.43 L 277.54 83.44 L 277.85 83.46 L 278.15 83.48 L 278.45 83.49 L 278.75 83.51 L 279.06 83.53 L 279.36 83.54 L 279.66 83.56 L 279.96 83.58 L 280.27 83.59 L 280.57 83.61 L 280.87 83.62 L 281.17 83.64 L 281.48 83.66 L 281.78 83.67 L 282.08 83.69 L 282.38 83.70 L 282.69 83.72 L 282.99 83.73 L 283.29 83.75 L 283.60 83.76 L 283.90 83.78 L 284.20 83.79 L 284.50 83.81 L 284.81 83.83 L 285.11 83.84 L 285.41 83.85 L 285.71 83.87 L 286.02 83.88 L 286.32 83.90 L 286.62 83.91 L 286.92 83.93 L 287.23 83.94 L 287.53 83.96 L 287.83 83.97 L 288.13 83.99 L 288.44 84.00 L 288.74 84.01 L 289.04 84.03 L 289.34 84.04 L 289.65 84.06 L 289.95 84.07 L 290.25 84.08 L 290.55 84.10 L 290.86 84.11 L 291.16 84.12 L 291.46 84.14 L 291.76 84.15 L 292.07 84.16 L 292.37 84.18 L 292.67 84.19 L 292.97 84.20 L 293.28 84.22 L 293.58 84.23 L 293.88 84.24 L 294.18 84.26 L 294.49 84.27 L 294.79 84.28 L 295.09 84.30 L 295.39 84.31 L 295.70 84.32 L 296.00 84.33" fill="none" stroke="#5F6B7A" stroke-width="2.5" stroke-linecap="round" stroke-linejoin="round"/>
</svg>
