<svg xmlns="http://www.w3.org/2000/svg" viewBox="0 0 320 180" width="320" height="180">
  <rect width="320" height="180" fill="#F4F5F7"/>
  <path d="M 18.00 217.78 L 18.32 216.93 L 18.63 216.08 L 18.95 215.23 L 19.26 214.40 L 19.58 213.56 L 19.90 212.73 L 20.21 211.90 L 20.53 211.07 L 20.84 210.25 L 21.16 209.44 L 21.47 208.62 L 21.79 207.81 L 22.11 207.01 L 22.42 206.20 L 22.74 205.41 L 23.05 204.61 L 23.37 203.82 L 23.69 203.03 L 24.00 202.25 L 24.32 201.47 L 24.63 200.69 L 24.95 199.92 L 25.27 199.15 L 25.58 198.38 L 25.90 197.62 L 26.21 196.86 L 26.53 196.11 L 26.85 195.35 L 27.16 194.61 L 27.48 193.86 L 27.79 193.12 L 28.11 192.38 L 28.42 191.65 L 28.74 190.92 L 29.06 190.19 L 29.37 189.47 L 29.69 188.75 L 30.00 188.03 L 30.32 187.32 L 30.64 186.61 L 30.95 185.90 L 31.27 185.20 L 31.58 184.50 L 31.90 183.81 L 32.22 183.11 L 32.53 182.43 L 32.85 181.74 L 33.16 181.06 L 33.48 180.38 L 33.80 179.70 L 34.11 179.03 L 34.43 178.36 L 34.74 177.70 L 35.06 177.04 L 35.37 176.38 L 35.69 175.72 L 36.01 175.07 L 36.32 174.42 L 36.64 173.78 L 36.95 173.13 L 37.27 172.50 L 37.59 171.86 L 37.90 171.23 L 38.22 170.60 L 38.53 169.97 L 38.85 169.35 L 39.17 168.73 L 39.48 168.12 L 39.80 167.50 L 40.11 166.89 L 40.43 166.29 L 40.75 165.69 L 41.06 165.09 L 41.38 164.49 L 41.69 163.90 L 42.01 163.30 L 42.32 162.72 L 42.64 162.13 L 42.96 161.55 L 43.27 160.97 L 43.59 160.40 L 43.90 159.83 L 44.22 159.26 L 44.54 158.69 L 44.85 158.13 L 45.17 157.57 L 45.48 157.02 L 45.80 156.46 L 46.12 155.91 L 46.43 155.37 L 46.75 154.82 L 47.06 154.28 L 47.38 153.74 L 47.70 153.21 L 48.01 152.68 L 48.33 152.15 L 48.64 151.62 L 48.96 151.10 L 49.27 150.58 L 49.59 150.06 L 49.91 149.55 L 50.22 149.04 L 50.54 148.53 L 50.85 148.02 L 51.17 147.52 L 51.49 147.02 L 51.80 146.53 L 52.12 146.03 L 52.43 145.54 L 52.75 145.05 L 53.07 144.57 L 53.38 144.09 L 53.70 143.61 L 54.01 143.13 L 54.33 142.66 L 54.65 142.19 L 54.96 141.72 L 55.28 141.25 L 55.59 140.79 L 55.91 140.33 L 56.22 139.87 L 56.54 139.42 L 56.86 138.97 L 57.17 138.52 L 57.49 138.07 L 57.80 137.63 L 58.12 137.19 L 58.44 136.75 L 58.75 136.32 L 59.07 135.89 L 59.38 135.46 L 59.70 135.03 L 60.02 134.60 L 60.33 134.18 L 60.65 133.76 L 60.96 133.35 L 61.28 132.93 L 61.60 132.52 L 61.91 132.12 L 62.23 131.71 L 62.54 131.31 L 62.86 130.91 L 63.17 130.51 L 63.49 130.11 L 63.81 129.72 L 64.12 129.33 L 64.44 128.94 L 64.75 128.56 L 65.07 128.18 L 65.39 127.80 L 65.70 127.42 L 66.02 127.04 L 66.33 126.67 L 66.65 126.30 L 66.97 125.93 L 67.28 125.57 L 67.60 125.21 L 67.91 124.85 L 68.23 124.49 L 68.55 124.14 L 68.86 123.78 L 69.18 123.43 L 69.49 123.09 L 69.81 122.74 L 70.12 122.40 L 70.44 122.06 L 70.76 121.72 L 71.07 121.38 L 71.39 121.05 L 71.70 120.72 L 72.02 120.39 L 72.34 120.06 L 72.65 119.74 L 72.97 119.42 L 73.28 119.10 L 73.60 118.78 L 73.92 118.47 L 74.23 118.16 L 74.55 117.85 L 74.86 117.54 L 75.18 117.23 L 75.49 116.93 L 75.81 116.63 L 76.13 116.33 L 76.44 116.03 L 76.76 115.74 L 77.07 115.45 L 77.39 115.16 L 77.71 114.87 L 78.02 114.59 L 78.34 114.30 L 78.65 114.02 L 78.97 113.74 L 79.29 113.47 L 79.60 113.19 L 79.92 112.92 L 80.23 112.65 L 80.55 112.38 L 80.87 112.11 L 81.18 111.85 L 81.50 111.59 L 81.81 111.33 L 82.13 111.07 L 82.44 110.82 L 82.76 110.56 L 83.08 110.31 L 83.39 110.06 L 83.71 109.82 L 84.02 109.57 L 84.34 109.33 L 84.66 109.09 L 84.97 108.85 L 85.29 108.61 L 85.60 108.38 L 85.92 108.14 L 86.24 107.91 L 86.55 107.68 L 86.87 107.45 L 87.18 107.23 L 87.50 107.01 L 87.82 106.78 L 88.13 106.57 L 88.45 106.35 L 88.76 106.13 L 89.08 105.92 L 89.39 105.71 L 89.71 105.50 L 90.03 105.29 L 90.34 105.08 L 90.66 104.88 L 90.97 104.68 L 91.29 104.48 L 91.61 104.28 L 91.92 104.08 L 92.24 103.88 L 92.55 103.69 L 92.87 103.50 L 93.19 103.31 L 93.50 103.12 L 93.82 102.94 L 94.13 102.75 L 94.45 102.57 L 94.77 102.39 L 95.08 102.21 L 95.40 102.03 L 95.71 101.86 L 96.03 101.68 L 96.34 101.51 L 96.66 101.34 L 96.98 101.17 L 97.29 101.00 L 97.61 100.84 L 97.92 100.67 L 98.24 100.51 L 98.56 100.35 L 98.87 100.19 L 99.19 100.04 L 99.50 99.88 L 99.82 99.73 L 100.14 99.57 L 100.45 99.42 L 100.77 99.27 L 101.08 99.13 L 101.40 98.98 L 101.72 98.84 L 102.03 98.69 L 102.35 98.55 L 102.66 98.41 L 102.98 98.27 L 103.29 98.14 L 103.61 98.00 L 103.93 97.87 L 104.24 97.74 L 104.56 97.60 L 104.87 97.48 L 105.19 97.35 L 105.51 97.22 L 105.82 97.10 L 106.14 96.97 L 106.45 96.85 L 106.77 96.73 L 107.09 96.61 L 107.40 96.49 L 107.72 96.38 L 108.03 96.26 L 108.35 96.15 L 108.67 96.04 L 108.98 95.93 L 109.30 95.82 L 109.61 95.71 L 109.93 95.60 L 110.24 95.50 L 110.56 95.39 L 110.88 95.29 L 111.19 95.19 L 111.51 95.09 L 111.82 94.99 L 112.14 94.89 L 112.46 94.80 L 112.77 94.70 L 113.09 94.61 L 113.40 94.51 L 113.72 94.42 L 114.04 94.33 L 114.35 94.24 L 114.67 94.16 L 114.98 94.07 L 115.30 93.99 L 115.62 93.90 L 115.93 93.82 L 116.25 93.74 L 116.56 93.66 L 116.88 93.58 L 117.19 93.50 L 117.51 93.42 L 117.83 93.35 L 118.14 93.27 L 118.46 93.20 L 118.77 93.13 L 119.09 93.06 L 119.41 92.99 L 119.72 92.92 L 120.04 92.85 L 120.35 92.78 L 120.67 92.71 L 120.99 92.65 L 121.30 92.59 L 121.62 92.52 L 121.93 92.46 L 122.25 92.40 L 122.57 92.34 L 122.88 92.28 L 123.20 92.22 L 123.51 92.17 L 123.83 92.11 L 124.14 92.06 L 124.46 92.00 L 124.78 91.95 L 125.09 91.90 L 125.41 91.85 L 125.72 91.80 L 126.04 91.75 L 126.36 91.70 L 126.67 91.65 L 126.99 91.61 L 127.30 91.56 L 127.62 91.52 L 127.94 91.47 L 128.25 91.43 L 128.57 91.39 L 128.88 91.34 L 129.20 91.30 L 129.52 91.26 L 129.83 91.23 L 130.15 91.19 L 130.46 91.15 L 130.78 91.11 L 131.09 91.08 L 131.41 91.04 L 131.73 91.01 L 132.04 90.98 L 132.36 90.94 L 132.67 90.91 L 132.99 90.88 L 133.31 90.85 L 133.62 90.82 L 133.94 90.79 L 134.25 90.76 L 134.57 90.73 L 134.89 90.71 L 135.20 90.68 L 135.52 90.65 L 135.83 90.63 L 136.15 90.61 L 136.46 90.58 L 136.78 90.56 L 137.10 90.54 L 137.41 90.51 L 137.73 90.49 L 138.04 90.47 L 138.36 90.45 L 138.68 90.43 L 138.99 90.41 L 139.31 90.40 L 139.62 90.38 L 139.94 90.36 L 140.26 90.34 L 140.57 90.33 L 140.89 90.31 L 141.20 90.30 L 141.52 90.28 L 141.84 90.27 L 142.15 90.25 L 142.47 90.24 L 142.78 90.23 L 143.10 90.22 L 143.41 90.20 L 143.73 90.19 L 144.05 90.18 L 144.36 90.17 L 144.68 90.16 L 144.99 90.15 L 145.31 90.14 L 145.63 90.13 L 145.94 90.12 L 146.26 90.12 L 146.57 90.11 L 146.89 90.10 L 147.21 90.09 L 147.52 90.09 L 147.84 90.08 L 148.15 90.07 L 148.47 90.07 L 148.79 90.06 L 149.10 90.06 L 149.42 90.05 L 149.73 90.05 L 150.05 90.04 L 150.36 90.04 L 150.68 90.04 L 151.00 90.03 L 151.31 90.03 L 151.63 90.03 L 151.94 90.02 L 152.26 90.02 L 152.58 90.02 L 152.89 90.02 L 153.21 90.01 L 153.52 90.01 L 153.84 90.01 L 154.16 90.01 L 154.47 90.01 L 154.79 90.01 L 155.10 90.01 L 155.42 90.00 L 155.74 90.00 L 156.05 90.00 L 156.37 90.00 L 156.68 90.00 L 157.00 90.00 L 157.31 90.00 L 157.63 90.00 L 157.95 90.00 L 158.26 90.00 L 158.58 90.00 L 158.89 90.00 L 159.21 90.00 L 159.53 90.00 L 159.84 90.00 L 160.16 90.00 L 160.47 90.00 L 160.79 90.00 L 161.11 90.00 L 161.42 90.00 L 161.74 90.00 L 162.05 90.00 L 162.37 90.00 L 162.69 90.00 L 163.00 90.00 L 163.32 90.00 L 163.63 90.00 L 163.95 90.00 L 164.26 90.00 L 164.58 90.00 L 164.90 89.99 L 165.21 89.99 L 165.53 89.99 L 165.84 89.99 L 166.16 89.99 L 166.48 89.99 L 166.79 89.99 L 167.11 89.98 L 167.42 89.98 L 167.74 89.98 L 168.06 89.98 L 168.37 89.97 L 168.69 89.97 L 169.00 89.97 L 169.32 89.96 L 169.64 89.96 L 169.95 89.96 L 170.27 89.95 L 170.58 89.95 L 170.90 89.94 L 171.21 89.94 L 171.53 89.93 L 171.85 89.93 L 172.16 89.92 L 172.48 89.91 L 172.79 89.91 L 173.11 89.90 L 173.43 89.89 L 173.74 89.88 L 174.06 89.88 L 174.37 89.87 L 174.69 89.86 L 175.01 89.85 L 175.32 89.84 L 175.64 89.83 L 175.95 89.82 L 176.27 89.81 L 176.59 89.80 L 176.90 89.78 L 177.22 89.77 L 177.53 89.76 L 177.85 89.75 L 178.16 89.73 L 178.48 89.72 L 178.80 89.70 L 179.11 89.69 L 179.43 89.67 L 179.74 89.66 L 180.06 89.64 L 180.38 89.62 L 180.69 89.60 L 181.01 89.59 L 181.32 89.57 L 181.64 89.55 L 181.96 89.53 L 182.27 89.51 L 182.59 89.49 L 182.90 89.46 L 183.22 89.44 L 183.54 89.42 L 183.85 89.39 L 184.17 89.37 L 184.48 89.35 L 184.80 89.32 L 185.11 89.29 L 185.43 89.27 L 185.75 89.24 L 186.06 89.21 L 186.38 89.18 L 186.69 89.15 L 187.01 89.12 L 187.33 89.09 L 187.64 89.06 L 187.96 89.02 L 188.27 88.99 L 188.59 88.96 L 188.91 88.92 L 189.22 88.89 L 189.54 88.85 L 189.85 88.81 L 190.17 88.77 L 190.48 88.74 L 190.80 88.70 L 191.12 88.66 L 191.43 88.61 L 191.75 88.57 L 192.06 88.53 L 192.38 88.48 L 192.70 88.44 L 193.01 88.39 L 193.33 88.35 L 193.64 88.30 L 193.96 88.25 L 194.28 88.20 L 194.59 88.15 L 194.91 88.10 L 195.22 88.05 L 195.54 88.00 L 195.86 87.94 L 196.17 87.89 L 196.49 87.83 L 196.80 87.78 L 197.12 87.72 L 197.43 87.66 L 197.75 87.60 L 198.07 87.54 L 198.38 87.48 L 198.70 87.41 L 199.01 87.35 L 199.33 87.29 L 199.65 87.22 L 199.96 87.15 L 200.28 87.08 L 200.59 87.01 L 200.91 86.94 L 201.23 86.87 L 201.54 86.80 L 201.86 86.73 L 202.17 86.65 L 202.49 86.58 L 202.81 86.50 L 203.12 86.42 L 203.44 86.34 L 203.75 86.26 L 204.07 86.18 L 204.38 86.10 L 204.70 86.01 L 205.02 85.93 L 205.33 85.84 L 205.65 85.76 L 205.96 85.67 L 206.28 85.58 L 206.60 85.49 L 206.91 85.39 L 207.23 85.30 L 207.54 85.20 L 207.86 85.11 L 208.18 85.01 L 208.49 84.91 L 208.81 84.81 L 209.12 84.71 L 209.44 84.61 L 209.76 84.50 L 210.07 84.40 L 210.39 84.29 L 210.70 84.18 L 211.02 84.07 L 211.33 83.96 L 211.65 83.85 L 211.97 83.74 L 212.28 83.62 L 212.60 83.51 L 212.91 83.39 L 213.23 83.27 L 213.55 83.15 L 213.86 83.03 L 214.18 82.90 L 214.49 82.78 L 214.81 82.65 L 215.13 82.52 L 215.44 82.40 L 215.76 82.26 L 216.07 82.13 L 216.39 82.00 L 216.71 81.86 L 217.02 81.73 L 217.34 81.59 L 217.65 81.45 L 217.97 81.31 L 218.28 81.16 L 218.60 81.02 L 218.92 80.87 L 219.23 80.73 L 219.55 80.58 L 219.86 80.43 L 220.18 80.27 L 220.50 80.12 L 220.81 79.96 L 221.13 79.81 L 221.44 79.65 L 221.76 79.49 L 222.08 79.33 L 222.39 79.16 L 222.71 79.00 L 223.02 78.83 L 223.34 78.66 L 223.66 78.49 L 223.97 78.32 L 224.29 78.14 L 224.60 77.97 L 224.92 77.79 L 225.23 77.61 L 225.55 77.43 L 225.87 77.25 L 226.18 77.06 L 226.50 76.88 L 226.81 76.69 L 227.13 76.50 L 227.45 76.31 L 227.76 76.12 L 228.08 75.92 L 228.39 75.72 L 228.71 75.52 L 229.03 75.32 L 229.34 75.12 L 229.66 74.92 L 229.97 74.71 L 230.29 74.50 L 230.61 74.29 L 230.92 74.08 L 231.24 73.87 L 231.55 73.65 L 231.87 73.43 L 232.18 73.22 L 232.50 72.99 L 232.82 72.77 L 233.13 72.55 L 233.45 72.32 L 233.76 72.09 L 234.08 71.86 L 234.40 71.62 L 234.71 71.39 L 235.03 71.15 L 235.34 70.91 L 235.66 70.67 L 235.98 70.43 L 236.29 70.18 L 236.61 69.94 L 236.92 69.69 L 237.24 69.44 L 237.56 69.18 L 237.87 68.93 L 238.19 68.67 L 238.50 68.41 L 238.82 68.15 L 239.13 67.89 L 239.45 67.62 L 239.77 67.35 L 240.08 67.08 L 240.40 66.81 L 240.71 66.53 L 241.03 66.26 L 241.35 65.98 L 241.66 65.70 L 241.98 65.41 L 242.29 65.13 L 242.61 64.84 L 242.93 64.55 L 243.24 64.26 L 243.56 63.97 L 243.87 63.67 L 244.19 63.37 L 244.51 63.07 L 244.82 62.77 L 245.14 62.46 L 245.45 62.15 L 245.77 61.84 L 246.08 61.53 L 246.40 61.22 L 246.72 60.90 L 247.03 60.58 L 247.35 60.26 L 247.66 59.94 L 247.98 59.61 L 248.30 59.28 L 248.61 58.95 L 248.93 58.62 L 249.24 58.28 L 249.56 57.94 L 249.88 57.60 L 250.19 57.26 L 250.51 56.91 L 250.82 56.57 L 251.14 56.22 L 251.45 55.86 L 251.77 55.51 L 252.09 55.15 L 252.40 54.79 L 252.72 54.43 L 253.03 54.07 L 253.35 53.70 L 253.67 53.33 L 253.98 52.96 L 254.30 52.58 L 254.61 52.20 L 254.93 51.82 L 255.25 51.44 L 255.56 51.06 L 255.88 50.67 L 256.19 50.28 L 256.51 49.89 L 256.83 49.49 L 257.14 49.09 L 257.46 48.69 L 257.77 48.29 L 258.09 47.88 L 258.40 47.48 L 258.72 47.07 L 259.04 46.65 L 259.35 46.24 L 259.67 45.82 L 259.98 45.40 L 260.30 44.97 L 260.62 44.54 L 260.93 44.11 L 261.25 43.68 L 261.56 43.25 L 261.88 42.81 L 262.20 42.37 L 262.51 41.93 L 262.83 41.48 L 263.14 41.03 L 263.46 40.58 L 263.78 40.13 L 264.09 39.67 L 264.41 39.21 L 264.72 38.75 L 265.04 38.28 L 265.35 37.81 L 265.67 37.34 L 265.99 36.87 L 266.30 36.39 L 266.62 35.91 L 266.93 35.43 L 267.25 34.95 L 267.57 34.46 L 267.88 33.97 L 268.20 33.47 L 268.51 32.98 L 268.83 32.48 L 269.15 31.98 L 269.46 31.47 L 269.78 30.96 L 270.09 30.45 L 270.41 29.94 L 270.73 29.42 L 271.04 28.90 L 271.36 28.38 L 271.67 27.85 L 271.99 27.32 L 272.30 26.79 L 272.62 26.26 L 272.94 25.72 L 273.25 25.18 L 273.57 24.63 L 273.88 24.09 L 274.20 23.54 L 274.52 22.98 L 274.83 22.43 L 275.15 21.87 L 275.46 21.31 L 275.78 20.74 L 276.10 20.17 L 276.41 19.60 L 276.73 19.03 L 277.04 18.45 L 277.36 17.87 L 277.68 17.28 L 277.99 16.70 L 278.31 16.10 L 278.62 15.51 L 278.94 14.91 L 279.25 14.31 L 279.57 13.71 L 279.89 13.11 L 280.20 12.50 L 280.52 11.88 L 280.83 11.27 L 281.15 10.65 L 281.47 10.03 L 281.78 9.40 L 282.10 8.77 L 282.41 8.14 L 282.73 7.50 L 283.05 6.87 L 283.36 6.22 L 283.68 5.58 L 283.99 4.93 L 284.31 4.28 L 284.63 3.62 L 284.94 2.96 L 285.26 2.30 L 285.57 1.64 L 285.89 0.97 L 286.20 0.30 L 286.52 -0.38 L 286.84 -1.06 L 287.15 -1.74 L 287.47 -2.43 L 287.78 -3.11 L 288.10 -3.81 L 288.42 -4.50 L 288.73 -5.20 L 289.05 -5.90 L 289.36 -6.61 L 289.68 -7.32 L 290.00 -8.03 L 290.31 -8.75 L 290.63 -9.47 L 290.94 -10.19 L 291.26 -10.92 L 291.58 -11.65 L 291.89 -12.38 L 292.21 -13.12 L 292.52 -13.86 L 292.84 -14.61 L 293.15 -15.35 L 293.47 -16.11 L 293.79 -16.86 L 294.10 -17.62 L 294.42 -18.38 L 294.73 -19.15 L 295.05 -19.92 L 295.37 -20.69 L 295.68 -21.47 L 296.00 -22.25 L 296.31 -23.03 L 296.63 -23.82 L 296.95 -24.61 L 297.26 -25.41 L 297.58 -26.20 L 297.89 -27.01 L 298.21 -27.81 L 298.53 -28.62 L 298.84 -29.44 L 299.16 -30.25 L 299.47 -31.07 L 299.79 -31.90 L 300.10 -32.73 L 300.42 -33.56 L 300.74 -34.40 L 301.05 -35.23 L 301.37 -36.08 L 301.68 -36.93 L 302.00 -37.78" fill="none" stroke="#7E8692" stroke-width="2.3" stroke-linecap="round" stroke-linejoin="round"/>
</svg>
