<svg xmlns="http://www.w3.org/2000/svg" viewBox="0 0 320 180" width="320" height="180">
  <rect width="320" height="180" fill="#F4F5F7"/>
  <path d="M 24.68 101.95 L 24.91 96.17 L 25.13 90.35 L 25.36 84.52 L 25.59 78.69 L 25.81 72.90 L 26.04 67.16 L 26.27 61.48 L 26.50 55.90 L 26.72 50.40 L 26.95 45.01 L 27.18 39.73 L 27.40 34.56 L 27.63 29.52 L 27.86 24.60" fill="none" stroke="#7E8692" stroke-width="2.3" stroke-linecap="round" stroke-linejoin="round"/>
  <path d="M 82.08 22.17 L 82.30 22.70 L 82.53 23.23 L 82.76 23.75 L 82.98 24.27 L 83.21 24.79 L 83.44 25.30 L 83.66 25.82 L 83.89 26.33 L 84.12 26.84 L 84.34 27.34 L 84.57 27.85 L 84.80 28.35 L 85.02 28.85 L 85.25 29.35 L 85.48 29.84 L 85.70 30.33 L 85.93 30.82 L 86.16 31.31 L 86.39 31.80 L 86.61 32.28 L 86.84 32.77 L 87.07 33.24 L 87.29 33.72 L 87.52 34.20 L 87.75 34.67 L 87.97 35.14 L 88.20 35.61 L 88.43 36.08 L 88.65 36.54 L 88.88 37.00 L 89.11 37.46 L 89.33 37.92 L 89.56 38.38 L 89.79 38.83 L 90.02 39.28 L 90.24 39.73 L 90.47 40.18 L 90.70 40.62 L 90.92 41.07 L 91.15 41.51 L 91.38 41.95 L 91.60 42.39 L 91.83 42.82 L 92.06 43.25 L 92.28 43.68 L 92.51 44.11 L 92.74 44.54 L 92.96 44.97 L 93.19 45.39 L 93.42 45.81 L 93.64 46.23 L 93.87 46.65 L 94.10 47.06 L 94.33 47.48 L 94.55 47.89 L 94.78 48.30 L 95.01 48.70 L 95.23 49.11 L 95.46 49.51 L 95.69 49.92 L 95.91 50.32 L 96.14 50.71 L 96.37 51.11 L 96.59 51.50 L 96.82 51.90 L 97.05 52.29 L 97.27 52.68 L 97.50 53.06 L 97.73 53.45 L 97.95 53.83 L 98.18 54.21 L 98.41 54.59 L 98.64 54.97 L 98.86 55.35 L 99.09 55.72 L 99.32 56.10 L 99.54 56.47 L 99.77 56.84 L 100.00 57.20 L 100.22 57.57 L 100.45 57.93 L 100.68 58.30 L 100.90 58.66 L 101.13 59.02 L 101.36 59.37 L 101.58 59.73 L 101.81 60.08 L 102.04 60.44 L 102.27 60.79 L 102.49 61.14 L 102.72 61.48 L 102.95 61.83 L 103.17 62.18 L 103.40 62.52 L 103.63 62.86 L 103.85 63.20 L 104.08 63.54 L 104.31 63.87 L 104.53 64.21 L 104.76 64.54 L 104.99 64.87 L 105.21 65.20 L 105.44 65.53 L 105.67 65.86 L 105.89 66.19 L 106.12 66.51 L 106.35 66.83 L 106.58 67.15 L 106.80 67.47 L 107.03 67.79 L 107.26 68.11 L 107.48 68.42 L 107.71 68.74 L 107.94 69.05 L 108.16 69.36 L 108.39 69.67 L 108.62 69.98 L 108.84 70.28 L 109.07 70.59 L 109.30 70.89 L 109.52 71.20 L 109.75 71.50 L 109.98 71.80 L 110.21 72.09 L 110.43 72.39 L 110.66 72.69 L 110.89 72.98 L 111.11 73.27 L 111.34 73.57 L 111.57 73.86 L 111.79 74.14 L 112.02 74.43 L 112.25 74.72 L 112.47 75.00 L 112.70 75.29 L 112.93 75.57 L 113.15 75.85 L 113.38 76.13 L 113.61 76.41 L 113.83 76.68 L 114.06 76.96 L 114.29 77.24 L 114.52 77.51 L 114.74 77.78 L 114.97 78.05 L 115.20 78.32 L 115.42 78.59 L 115.65 78.86 L 115.88 79.12 L 116.10 79.39 L 116.33 79.65 L 116.56 79.91 L 116.78 80.18 L 117.01 80.44 L 117.24 80.69 L 117.46 80.95 L 117.69 81.21 L 117.92 81.46 L 118.15 81.72 L 118.37 81.97 L 118.60 82.22 L 118.83 82.47 L 119.05 82.72 L 119.28 82.97 L 119.51 83.22 L 119.73 83.47 L 119.96 83.71 L 120.19 83.95 L 120.41 84.20 L 120.64 84.44 L 120.87 84.68 L 121.09 84.92 L 121.32 85.16 L 121.55 85.40 L 121.77 85.63 L 122.00 85.87 L 122.23 86.10 L 122.46 86.34 L 122.68 86.57 L 122.91 86.80 L 123.14 87.03 L 123.36 87.26 L 123.59 87.49 L 123.82 87.72 L 124.04 87.94 L 124.27 88.17 L 124.50 88.39 L 124.72 88.61 L 124.95 88.84 L 125.18 89.06 L 125.40 89.28 L 125.63 89.50 L 125.86 89.72 L 126.09 89.93 L 126.31 90.15 L 126.54 90.37 L 126.77 90.58 L 126.99 90.79 L 127.22 91.01 L 127.45 91.22 L 127.67 91.43 L 127.90 91.64 L 128.13 91.85 L 128.35 92.06 L 128.58 92.26 L 128.81 92.47 L 129.03 92.67 L 129.26 92.88 L 129.49 93.08 L 129.71 93.29 L 129.94 93.49 L 130.17 93.69 L 130.40 93.89 L 130.62 94.09 L 130.85 94.29 L 131.08 94.48 L 131.30 94.68 L 131.53 94.88 L 131.76 95.07 L 131.98 95.26 L 132.21 95.46 L 132.44 95.65 L 132.66 95.84 L 132.89 96.03 L 133.12 96.22 L 133.34 96.41 L 133.57 96.60 L 133.80 96.79 L 134.03 96.97 L 134.25 97.16 L 134.48 97.34 L 134.71 97.53 L 134.93 97.71 L 135.16 97.90 L 135.39 98.08 L 135.61 98.26 L 135.84 98.44 L 136.07 98.62 L 136.29 98.80 L 136.52 98.98 L 136.75 99.15 L 136.97 99.33 L 137.20 99.51 L 137.43 99.68 L 137.65 99.85 L 137.88 100.03 L 138.11 100.20 L 138.34 100.37 L 138.56 100.54 L 138.79 100.72 L 139.02 100.89 L 139.24 101.05 L 139.47 101.22 L 139.70 101.39 L 139.92 101.56 L 140.15 101.72 L 140.38 101.89 L 140.60 102.05 L 140.83 102.22 L 141.06 102.38 L 141.28 102.55 L 141.51 102.71 L 141.74 102.87 L 141.96 103.03 L 142.19 103.19 L 142.42 103.35 L 142.65 103.51 L 142.87 103.67 L 143.10 103.82 L 143.33 103.98 L 143.55 104.14 L 143.78 104.29 L 144.01 104.45 L 144.23 104.60 L 144.46 104.76 L 144.69 104.91 L 144.91 105.06 L 145.14 105.21 L 145.37 105.37 L 145.59 105.52 L 145.82 105.67 L 146.05 105.81 L 146.28 105.96 L 146.50 106.11 L 146.73 106.26 L 146.96 106.41 L 147.18 106.55 L 147.41 106.70 L 147.64 106.84 L 147.86 106.99 L 148.09 107.13 L 148.32 107.27 L 148.54 107.42 L 148.77 107.56 L 149.00 107.70 L 149.22 107.84 L 149.45 107.98 L 149.68 108.12 L 149.90 108.26 L 150.13 108.40 L 150.36 108.54 L 150.59 108.68 L 150.81 108.81 L 151.04 108.95 L 151.27 109.08 L 151.49 109.22 L 151.72 109.36 L 151.95 109.49 L 152.17 109.62 L 152.40 109.76 L 152.63 109.89 L 152.85 110.02 L 153.08 110.15 L 153.31 110.28 L 153.53 110.41 L 153.76 110.54 L 153.99 110.67 L 154.22 110.80 L 154.44 110.93 L 154.67 111.06 L 154.90 111.19 L 155.12 111.31 L 155.35 111.44 L 155.58 111.57 L 155.80 111.69 L 156.03 111.82 L 156.26 111.94 L 156.48 112.06 L 156.71 112.19 L 156.94 112.31 L 157.16 112.43 L 157.39 112.55 L 157.62 112.68 L 157.84 112.80 L 158.07 112.92 L 158.30 113.04 L 158.53 113.16 L 158.75 113.28 L 158.98 113.39 L 159.21 113.51 L 159.43 113.63 L 159.66 113.75 L 159.89 113.86 L 160.11 113.98 L 160.34 114.10 L 160.57 114.21 L 160.79 114.33 L 161.02 114.44 L 161.25 114.56 L 161.47 114.67 L 161.70 114.78 L 161.93 114.89 L 162.16 115.01 L 162.38 115.12 L 162.61 115.23 L 162.84 115.34 L 163.06 115.45 L 163.29 115.56 L 163.52 115.67 L 163.74 115.78 L 163.97 115.89 L 164.20 116.00 L 164.42 116.11 L 164.65 116.21 L 164.88 116.32 L 165.10 116.43 L 165.33 116.53 L 165.56 116.64 L 165.78 116.74 L 166.01 116.85 L 166.24 116.95 L 166.47 117.06 L 166.69 117.16 L 166.92 117.27 L 167.15 117.37 L 167.37 117.47 L 167.60 117.57 L 167.83 117.68 L 168.05 117.78 L 168.28 117.88 L 168.51 117.98 L 168.73 118.08 L 168.96 118.18 L 169.19 118.28 L 169.41 118.38 L 169.64 118.48 L 169.87 118.58 L 170.10 118.67 L 170.32 118.77 L 170.55 118.87 L 170.78 118.97 L 171.00 119.06 L 171.23 119.16 L 171.46 119.25 L 171.68 119.35 L 171.91 119.44 L 172.14 119.54 L 172.36 119.63 L 172.59 119.73 L 172.82 119.82 L 173.04 119.92 L 173.27 120.01 L 173.50 120.10 L 173.72 120.19 L 173.95 120.29 L 174.18 120.38 L 174.41 120.47 L 174.63 120.56 L 174.86 120.65 L 175.09 120.74 L 175.31 120.83 L 175.54 120.92 L 175.77 121.01 L 175.99 121.10 L 176.22 121.19 L 176.45 121.27 L 176.67 121.36 L 176.90 121.45 L 177.13 121.54 L 177.35 121.62 L 177.58 121.71 L 177.81 121.80 L 178.04 121.88 L 178.26 121.97 L 178.49 122.05 L 178.72 122.14 L 178.94 122.22 L 179.17 122.31 L 179.40 122.39 L 179.62 122.48 L 179.85 122.56 L 180.08 122.64 L 180.30 122.73 L 180.53 122.81 L 180.76 122.89 L 180.98 122.97 L 181.21 123.05 L 181.44 123.14 L 181.66 123.22 L 181.89 123.30 L 182.12 123.38 L 182.35 123.46 L 182.57 123.54 L 182.80 123.62 L 183.03 123.70 L 183.25 123.78 L 183.48 123.85 L 183.71 123.93 L 183.93 124.01 L 184.16 124.09 L 184.39 124.17 L 184.61 124.24 L 184.84 124.32 L 185.07 124.40 L 185.29 124.47 L 185.52 124.55 L 185.75 124.63 L 185.97 124.70 L 186.20 124.78 L 186.43 124.85 L 186.66 124.93 L 186.88 125.00 L 187.11 125.08 L 187.34 125.15 L 187.56 125.22 L 187.79 125.30 L 188.02 125.37 L 188.24 125.44 L 188.47 125.52 L 188.70 125.59 L 188.92 125.66 L 189.15 125.73 L 189.38 125.80 L 189.60 125.88 L 189.83 125.95 L 190.06 126.02 L 190.29 126.09 L 190.51 126.16 L 190.74 126.23 L 190.97 126.30 L 191.19 126.37 L 191.42 126.44 L 191.65 126.51 L 191.87 126.58 L 192.10 126.65 L 192.33 126.71 L 192.55 126.78 L 192.78 126.85 L 193.01 126.92 L 193.23 126.99 L 193.46 127.05 L 193.69 127.12 L 193.91 127.19 L 194.14 127.25 L 194.37 127.32 L 194.60 127.39 L 194.82 127.45 L 195.05 127.52 L 195.28 127.58 L 195.50 127.65 L 195.73 127.71 L 195.96 127.78 L 196.18 127.84 L 196.41 127.91 L 196.64 127.97 L 196.86 128.03 L 197.09 128.10 L 197.32 128.16 L 197.54 128.22 L 197.77 128.29 L 198.00 128.35 L 198.23 128.41 L 198.45 128.47 L 198.68 128.54 L 198.91 128.60 L 199.13 128.66 L 199.36 128.72 L 199.59 128.78 L 199.81 128.84 L 200.04 128.90 L 200.27 128.96 L 200.49 129.03 L 200.72 129.09 L 200.95 129.15 L 201.17 129.20 L 201.40 129.26 L 201.63 129.32 L 201.85 129.38 L 202.08 129.44 L 202.31 129.50 L 202.54 129.56 L 202.76 129.62 L 202.99 129.68 L 203.22 129.73 L 203.44 129.79 L 203.67 129.85 L 203.90 129.91 L 204.12 129.96 L 204.35 130.02 L 204.58 130.08 L 204.80 130.13 L 205.03 130.19 L 205.26 130.25 L 205.48 130.30 L 205.71 130.36 L 205.94 130.41 L 206.17 130.47 L 206.39 130.52 L 206.62 130.58 L 206.85 130.63 L 207.07 130.69 L 207.30 130.74 L 207.53 130.80 L 207.75 130.85 L 207.98 130.91 L 208.21 130.96 L 208.43 131.01 L 208.66 131.07 L 208.89 131.12 L 209.11 131.17 L 209.34 131.23 L 209.57 131.28 L 209.79 131.33 L 210.02 131.38 L 210.25 131.43 L 210.48 131.49 L 210.70 131.54 L 210.93 131.59 L 211.16 131.64 L 211.38 131.69 L 211.61 131.74 L 211.84 131.80 L 212.06 131.85 L 212.29 131.90 L 212.52 131.95 L 212.74 132.00 L 212.97 132.05 L 213.20 132.10 L 213.42 132.15 L 213.65 132.20 L 213.88 132.25 L 214.11 132.30 L 214.33 132.34 L 214.56 132.39 L 214.79 132.44 L 215.01 132.49 L 215.24 132.54 L 215.47 132.59 L 215.69 132.64 L 215.92 132.68 L 216.15 132.73 L 216.37 132.78 L 216.60 132.83 L 216.83 132.87 L 217.05 132.92 L 217.28 132.97 L 217.51 133.02 L 217.73 133.06 L 217.96 133.11 L 218.19 133.16 L 218.42 133.20 L 218.64 133.25 L 218.87 133.29 L 219.10 133.34 L 219.32 133.39 L 219.55 133.43 L 219.78 133.48 L 220.00 133.52 L 220.23 133.57 L 220.46 133.61 L 220.68 133.66 L 220.91 133.70 L 221.14 133.75 L 221.36 133.79 L 221.59 133.83 L 221.82 133.88 L 222.05 133.92 L 222.27 133.97 L 222.50 134.01 L 222.73 134.05 L 222.95 134.10 L 223.18 134.14 L 223.41 134.18 L 223.63 134.23 L 223.86 134.27 L 224.09 134.31 L 224.31 134.35 L 224.54 134.40 L 224.77 134.44 L 224.99 134.48 L 225.22 134.52 L 225.45 134.57 L 225.67 134.61 L 225.90 134.65 L 226.13 134.69 L 226.36 134.73 L 226.58 134.77 L 226.81 134.81 L 227.04 134.85 L 227.26 134.90 L 227.49 134.94 L 227.72 134.98 L 227.94 135.02 L 228.17 135.06 L 228.40 135.10 L 228.62 135.14 L 228.85 135.18 L 229.08 135.22 L 229.30 135.26 L 229.53 135.30 L 229.76 135.34 L 229.98 135.38 L 230.21 135.41 L 230.44 135.45 L 230.67 135.49 L 230.89 135.53 L 231.12 135.57 L 231.35 135.61 L 231.57 135.65 L 231.80 135.69 L 232.03 135.72 L 232.25 135.76 L 232.48 135.80 L 232.71 135.84 L 232.93 135.88 L 233.16 135.91 L 233.39 135.95 L 233.61 135.99 L 233.84 136.03 L 234.07 136.06 L 234.30 136.10 L 234.52 136.14 L 234.75 136.17 L 234.98 136.21 L 235.20 136.25 L 235.43 136.28 L 235.66 136.32 L 235.88 136.36 L 236.11 136.39 L 236.34 136.43 L 236.56 136.46 L 236.79 136.50 L 237.02 136.53 L 237.24 136.57 L 237.47 136.61 L 237.70 136.64 L 237.92 136.68 L 238.15 136.71 L 238.38 136.75 L 238.61 136.78 L 238.83 136.82 L 239.06 136.85 L 239.29 136.89 L 239.51 136.92 L 239.74 136.95 L 239.97 136.99 L 240.19 137.02 L 240.42 137.06 L 240.65 137.09 L 240.87 137.12 L 241.10 137.16 L 241.33 137.19 L 241.55 137.23 L 241.78 137.26 L 242.01 137.29 L 242.24 137.33 L 242.46 137.36 L 242.69 137.39 L 242.92 137.42 L 243.14 137.46 L 243.37 137.49 L 243.60 137.52 L 243.82 137.56 L 244.05 137.59 L 244.28 137.62 L 244.50 137.65 L 244.73 137.68 L 244.96 137.72 L 245.18 137.75 L 245.41 137.78 L 245.64 137.81 L 245.86 137.84 L 246.09 137.88 L 246.32 137.91 L 246.55 137.94 L 246.77 137.97 L 247.00 138.00 L 247.23 138.03 L 247.45 138.06 L 247.68 138.09 L 247.91 138.12 L 248.13 138.16 L 248.36 138.19 L 248.59 138.22 L 248.81 138.25 L 249.04 138.28 L 249.27 138.31 L 249.49 138.34 L 249.72 138.37 L 249.95 138.40 L 250.18 138.43 L 250.40 138.46 L 250.63 138.49 L 250.86 138.52 L 251.08 138.55 L 251.31 138.58 L 251.54 138.61 L 251.76 138.63 L 251.99 138.66 L 252.22 138.69 L 252.44 138.72 L 252.67 138.75 L 252.90 138.78 L 253.12 138.81 L 253.35 138.84 L 253.58 138.87 L 253.80 138.89 L 254.03 138.92 L 254.26 138.95 L 254.49 138.98 L 254.71 139.01 L 254.94 139.04 L 255.17 139.06 L 255.39 139.09 L 255.62 139.12 L 255.85 139.15 L 256.07 139.17 L 256.30 139.20 L 256.53 139.23 L 256.75 139.26 L 256.98 139.28 L 257.21 139.31 L 257.43 139.34 L 257.66 139.37 L 257.89 139.39 L 258.12 139.42 L 258.34 139.45 L 258.57 139.47 L 258.80 139.50 L 259.02 139.53 L 259.25 139.55 L 259.48 139.58 L 259.70 139.61 L 259.93 139.63 L 260.16 139.66 L 260.38 139.69 L 260.61 139.71 L 260.84 139.74 L 261.06 139.76 L 261.29 139.79 L 261.52 139.82 L 261.74 139.84 L 261.97 139.87 L 262.20 139.89 L 262.43 139.92 L 262.65 139.94 L 262.88 139.97 L 263.11 139.99 L 263.33 140.02 L 263.56 140.04 L 263.79 140.07 L 264.01 140.09 L 264.24 140.12 L 264.47 140.14 L 264.69 140.17 L 264.92 140.19 L 265.15 140.22 L 265.37 140.24 L 265.60 140.27 L 265.83 140.29 L 266.06 140.32 L 266.28 140.34 L 266.51 140.36 L 266.74 140.39 L 266.96 140.41 L 267.19 140.44 L 267.42 140.46 L 267.64 140.48 L 267.87 140.51 L 268.10 140.53 L 268.32 140.56 L 268.55 140.58 L 268.78 140.60 L 269.00 140.63 L 269.23 140.65 L 269.46 140.67 L 269.68 140.70 L 269.91 140.72 L 270.14 140.74 L 270.37 140.77 L 270.59 140.79 L 270.82 140.81 L 271.05 140.83 L 271.27 140.86 L 271.50 140.88 L 271.73 140.90 L 271.95 140.93 L 272.18 140.95 L 272.41 140.97 L 272.63 140.99 L 272.86 141.02 L 273.09 141.04 L 273.31 141.06 L 273.54 141.08 L 273.77 141.10 L 273.99 141.13 L 274.22 141.15 L 274.45 141.17 L 274.68 141.19 L 274.90 141.21 L 275.13 141.24 L 275.36 141.26 L 275.58 141.28 L 275.81 141.30 L 276.04 141.32 L 276.26 141.34 L 276.49 141.37 L 276.72 141.39 L 276.94 141.41 L 277.17 141.43 L 277.40 141.45 L 277.62 141.47 L 277.85 141.49 L 278.08 141.51 L 278.31 141.53 L 278.53 141.56 L 278.76 141.58 L 278.99 141.60 L 279.21 141.62 L 279.44 141.64 L 279.67 141.66 L 279.89 141.68 L 280.12 141.70 L 280.35 141.72 L 280.57 141.74 L 280.80 141.76 L 281.03 141.78 L 281.25 141.80 L 281.48 141.82 L 281.71 141.84 L 281.93 141.86 L 282.16 141.88 L 282.39 141.90 L 282.62 141.92 L 282.84 141.94 L 283.07 141.96 L 283.30 141.98 L 283.52 142.00 L 283.75 142.02 L 283.98 142.04 L 284.20 142.06 L 284.43 142.08 L 284.66 142.10 L 284.88 142.12 L 285.11 142.14 L 285.34 142.15 L 285.56 142.17 L 285.79 142.19 L 286.02 142.21 L 286.25 142.23 L 286.47 142.25 L 286.70 142.27 L 286.93 142.29 L 287.15 142.31 L 287.38 142.33 L 287.61 142.34 L 287.83 142.36 L 288.06 142.38 L 288.29 142.40 L 288.51 142.42 L 288.74 142.44 L 288.97 142.46 L 289.19 142.47 L 289.42 142.49 L 289.65 142.51 L 289.87 142.53 L 290.10 142.55 L 290.33 142.56 L 290.56 142.58 L 290.78 142.60 L 291.01 142.62 L 291.24 142.64 L 291.46 142.65 L 291.69 142.67 L 291.92 142.69 L 292.14 142.71 L 292.37 142.72 L 292.60 142.74 L 292.82 142.76 L 293.05 142.78 L 293.28 142.80 L 293.50 142.81 L 293.73 142.83 L 293.96 142.85 L 294.19 142.86 L 294.41 142.88 L 294.64 142.90 L 294.87 142.92 L 295.09 142.93 L 295.32 142.95 L 295.55 142.97 L 295.77 142.98 L 296.00 143.00" fill="none" stroke="#7E8692" stroke-width="2.3" stroke-linecap="round" stroke-linejoin="round"/>
</svg>
