<svg xmlns="http://www.w3.org/2000/svg" viewBox="0 0 320 180" width="320" height="180">
  <rect width="320" height="180" fill="none"/>
  <path d="M 24.00 153.14 L 24.30 153.14 L 24.61 153.15 L 24.91 153.15 L 25.21 153.16 L 25.51 153.17 L 25.82 153.17 L 26.12 153.18 L 26.42 153.18 L 26.72 153.19 L 27.03 153.20 L 27.33 153.20 L 27.63 153.21 L 27.93 153.22 L 28.24 153.22 L 28.54 153.23 L 28.84 153.23 L 29.14 153.24 L 29.45 153.25 L 29.75 153.25 L 30.05 153.26 L 30.35 153.27 L 30.66 153.27 L 30.96 153.28 L 31.26 153.28 L 31.56 153.29 L 31.87 153.30 L 32.17 153.30 L 32.47 153.31 L 32.77 153.32 L 33.08 153.32 L 33.38 153.33 L 33.68 153.34 L 33.98 153.34 L 34.29 153.35 L 34.59 153.36 L 34.89 153.36 L 35.19 153.37 L 35.50 153.38 L 35.80 153.38 L 36.10 153.39 L 36.40 153.39 L 36.71 153.40 L 37.01 153.41 L 37.31 153.41 L 37.62 153.42 L 37.92 153.43 L 38.22 153.44 L 38.52 153.44 L 38.83 153.45 L 39.13 153.46 L 39.43 153.46 L 39.73 153.47 L 40.04 153.48 L 40.34 153.48 L 40.64 153.49 L 40.94 153.50 L 41.25 153.50 L 41.55 153.51 L 41.85 153.52 L 42.15 153.52 L 42.46 153.53 L 42.76 153.54 L 43.06 153.55 L 43.36 153.55 L 43.67 153.56 L 43.97 153.57 L 44.27 153.57 L 44.57 153.58 L 44.88 153.59 L 45.18 153.59 L 45.48 153.60 L 45.78 153.61 L 46.09 153.62 L 46.39 153.62 L 46.69 153.63 L 46.99 153.64 L 47.30 153.64 L 47.60 153.65 L 47.90 153.66 L 48.20 153.67 L 48.51 153.67 L 48.81 153.68 L 49.11 153.69 L 49.41 153.70 L 49.72 153.70 L 50.02 153.71 L 50.32 153.72 L 50.63 153.72 L 50.93 153.73 L 51.23 153.74 L 51.53 153.75 L 51.84 153.75 L 52.14 153.76 L 52.44 153.77 L 52.74 153.78 L 53.05 153.78 L 53.35 153.79 L 53.65 153.80 L 53.95 153.81 L 54.26 153.81 L 54.56 153.82 L 54.86 153.83 L 55.16 153.84 L 55.47 153.84 L 55.77 153.85 L 56.07 153.86 L 56.37 153.87 L 56.68 153.87 L 56.98 153.88 L 57.28 153.89 L 57.58 153.90 L 57.89 153.91 L 58.19 153.91 L 58.49 153.92 L 58.79 153.93 L 59.10 153.94 L 59.40 153.94 L 59.70 153.95 L 60.00 153.96 L 60.31 153.97 L 60.61 153.97 L 60.91 153.98 L 61.21 153.99 L 61.52 154.00 L 61.82 154.01 L 62.12 154.01 L 62.42 154.02 L 62.73 154.03 L 63.03 154.04 L 63.33 154.05 L 63.64 154.05 L 63.94 154.06 L 64.24 154.07 L 64.54 154.08 L 64.85 154.08 L 65.15 154.09 L 65.45 154.10 L 65.75 154.11 L 66.06 154.12 L 66.36 154.12 L 66.66 154.13 L 66.96 154.14 L 67.27 154.15 L 67.57 154.16 L 67.87 154.16 L 68.17 154.17 L 68.48 154.18 L 68.78 154.19 L 69.08 154.20 L 69.38 154.20 L 69.69 154.21 L 69.99 154.22 L 70.29 154.23 L 70.59 154.24 L 70.90 154.24 L 71.20 154.25 L 71.50 154.26 L 71.80 154.27 L 72.11 154.28 L 72.41 154.28 L 72.71 154.29 L 73.01 154.30 L 73.32 154.31 L 73.62 154.32 L 73.92 154.33 L 74.22 154.33 L 74.53 154.34 L 74.83 154.35 L 75.13 154.36 L 75.43 154.37 L 75.74 154.37 L 76.04 154.38 L 76.34 154.39 L 76.65 154.40 L 76.95 154.41 L 77.25 154.41 L 77.55 154.42 L 77.86 154.43 L 78.16 154.44 L 78.46 154.45 L 78.76 154.46 L 79.07 154.46 L 79.37 154.47 L 79.67 154.48 L 79.97 154.49 L 80.28 154.50 L 80.58 154.50 L 80.88 154.51 L 81.18 154.52 L 81.49 154.53 L 81.79 154.54 L 82.09 154.54 L 82.39 154.55 L 82.70 154.56 L 83.00 154.57 L 83.30 154.58 L 83.60 154.58 L 83.91 154.59 L 84.21 154.60 L 84.51 154.61 L 84.81 154.62 L 85.12 154.63 L 85.42 154.63 L 85.72 154.64 L 86.02 154.65 L 86.33 154.66 L 86.63 154.67 L 86.93 154.67 L 87.23 154.68 L 87.54 154.69 L 87.84 154.70 L 88.14 154.71 L 88.44 154.71 L 88.75 154.72 L 89.05 154.73 L 89.35 154.74 L 89.66 154.75 L 89.96 154.75 L 90.26 154.76 L 90.56 154.77 L 90.87 154.78 L 91.17 154.78 L 91.47 154.79 L 91.77 154.80 L 92.08 154.81 L 92.38 154.82 L 92.68 154.82 L 92.98 154.83 L 93.29 154.84 L 93.59 154.85 L 93.89 154.85 L 94.19 154.86 L 94.50 154.87 L 94.80 154.88 L 95.10 154.89 L 95.40 154.89 L 95.71 154.90 L 96.01 154.91 L 96.31 154.92 L 96.61 154.92 L 96.92 154.93 L 97.22 154.94 L 97.52 154.95 L 97.82 154.95 L 98.13 154.96 L 98.43 154.97 L 98.73 154.98 L 99.03 154.98 L 99.34 154.99 L 99.64 155.00 L 99.94 155.01 L 100.24 155.01 L 100.55 155.02 L 100.85 155.03 L 101.15 155.03 L 101.45 155.04 L 101.76 155.05 L 102.06 155.06 L 102.36 155.06 L 102.67 155.07 L 102.97 155.08 L 103.27 155.08 L 103.57 155.09 L 103.88 155.10 L 104.18 155.10 L 104.48 155.11 L 104.78 155.12 L 105.09 155.12 L 105.39 155.13 L 105.69 155.14 L 105.99 155.15 L 106.30 155.15 L 106.60 155.16 L 106.90 155.16 L 107.20 155.17 L 107.51 155.18 L 107.81 155.18 L 108.11 155.19 L 108.41 155.20 L 108.72 155.20 L 109.02 155.21 L 109.32 155.22 L 109.62 155.22 L 109.93 155.23 L 110.23 155.23 L 110.53 155.24 L 110.83 155.25 L 111.14 155.25 L 111.44 155.26 L 111.74 155.26 L 112.04 155.27 L 112.35 155.28 L 112.65 155.28 L 112.95 155.29 L 113.25 155.29 L 113.56 155.30 L 113.86 155.30 L 114.16 155.31 L 114.46 155.31 L 114.77 155.32 L 115.07 155.32 L 115.37 155.33 L 115.68 155.33 L 115.98 155.34 L 116.28 155.34 L 116.58 155.35 L 116.89 155.35 L 117.19 155.36 L 117.49 155.36 L 117.79 155.37 L 118.10 155.37 L 118.40 155.38 L 118.70 155.38 L 119.00 155.39 L 119.31 155.39 L 119.61 155.40 L 119.91 155.40 L 120.21 155.40 L 120.52 155.41 L 120.82 155.41 L 121.12 155.42 L 121.42 155.42 L 121.73 155.42 L 122.03 155.43 L 122.33 155.43 L 122.63 155.43 L 122.94 155.44 L 123.24 155.44 L 123.54 155.44 L 123.84 155.45 L 124.15 155.45 L 124.45 155.45 L 124.75 155.46 L 125.05 155.46 L 125.36 155.46 L 125.66 155.46 L 125.96 155.47 L 126.26 155.47 L 126.57 155.47 L 126.87 155.47 L 127.17 155.47 L 127.47 155.48 L 127.78 155.48 L 128.08 155.48 L 128.38 155.48 L 128.69 155.48 L 128.99 155.49 L 129.29 155.49 L 129.59 155.49 L 129.90 155.49 L 130.20 155.49 L 130.50 155.49 L 130.80 155.49 L 131.11 155.49 L 131.41 155.49 L 131.71 155.49 L 132.01 155.49 L 132.32 155.49 L 132.62 155.49 L 132.92 155.49 L 133.22 155.49 L 133.53 155.49 L 133.83 155.49 L 134.13 155.49 L 134.43 155.49 L 134.74 155.49 L 135.04 155.49 L 135.34 155.49 L 135.64 155.49 L 135.95 155.49 L 136.25 155.49 L 136.55 155.48 L 136.85 155.48 L 137.16 155.48 L 137.46 155.48 L 137.76 155.48 L 138.06 155.47 L 138.37 155.47 L 138.67 155.47 L 138.97 155.47 L 139.27 155.46 L 139.58 155.46 L 139.88 155.46 L 140.18 155.45 L 140.48 155.45 L 140.79 155.45 L 141.09 155.44 L 141.39 155.44 L 141.70 155.44 L 142.00 155.43 L 142.30 155.43 L 142.60 155.42 L 142.91 155.42 L 143.21 155.41 L 143.51 155.41 L 143.81 155.40 L 144.12 155.40 L 144.42 155.39 L 144.72 155.38 L 145.02 155.38 L 145.33 155.37 L 145.63 155.37 L 145.93 155.36 L 146.23 155.35 L 146.54 155.34 L 146.84 155.34 L 147.14 155.33 L 147.44 155.32 L 147.75 155.31 L 148.05 155.31 L 148.35 155.30 L 148.65 155.29 L 148.96 155.28 L 149.26 155.27 L 149.56 155.26 L 149.86 155.25 L 150.17 155.24 L 150.47 155.23 L 150.77 155.22 L 151.07 155.21 L 151.38 155.20 L 151.68 155.19 L 151.98 155.18 L 152.28 155.17 L 152.59 155.16 L 152.89 155.15 L 153.19 155.14 L 153.49 155.12 L 153.80 155.11 L 154.10 155.10 L 154.40 155.08 L 154.71 155.07 L 155.01 155.06 L 155.31 155.04 L 155.61 155.03 L 155.92 155.02 L 156.22 155.00 L 156.52 154.99 L 156.82 154.97 L 157.13 154.96 L 157.43 154.94 L 157.73 154.93 L 158.03 154.91 L 158.34 154.89 L 158.64 154.88 L 158.94 154.86 L 159.24 154.84 L 159.55 154.82 L 159.85 154.81 L 160.15 154.79 L 160.45 154.77 L 160.76 154.75 L 161.06 154.73 L 161.36 154.71 L 161.66 154.69 L 161.97 154.67 L 162.27 154.65 L 162.57 154.63 L 162.87 154.61 L 163.18 154.59 L 163.48 154.57 L 163.78 154.54 L 164.08 154.52 L 164.39 154.50 L 164.69 154.48 L 164.99 154.45 L 165.29 154.43 L 165.60 154.41 L 165.90 154.38 L 166.20 154.36 L 166.51 154.33 L 166.81 154.31 L 167.11 154.28 L 167.41 154.25 L 167.72 154.23 L 168.02 154.20 L 168.32 154.17 L 168.62 154.14 L 168.93 154.12 L 169.23 154.09 L 169.53 154.06 L 169.83 154.03 L 170.14 154.00 L 170.44 153.97 L 170.74 153.94 L 171.04 153.91 L 171.35 153.87 L 171.65 153.84 L 171.95 153.81 L 172.25 153.78 L 172.56 153.74 L 172.86 153.71 L 173.16 153.68 L 173.46 153.64 L 173.77 153.61 L 174.07 153.57 L 174.37 153.53 L 174.67 153.50 L 174.98 153.46 L 175.28 153.42 L 175.58 153.39 L 175.88 153.35 L 176.19 153.31 L 176.49 153.27 L 176.79 153.23 L 177.09 153.19 L 177.40 153.15 L 177.70 153.11 L 178.00 153.06 L 178.30 153.02 L 178.61 152.98 L 178.91 152.94 L 179.21 152.89 L 179.52 152.85 L 179.82 152.80 L 180.12 152.76 L 180.42 152.71 L 180.73 152.66 L 181.03 152.62 L 181.33 152.57 L 181.63 152.52 L 181.94 152.47 L 182.24 152.42 L 182.54 152.37 L 182.84 152.32 L 183.15 152.27 L 183.45 152.22 L 183.75 152.17 L 184.05 152.11 L 184.36 152.06 L 184.66 152.01 L 184.96 151.95 L 185.26 151.89 L 185.57 151.84 L 185.87 151.78 L 186.17 151.72 L 186.47 151.67 L 186.78 151.61 L 187.08 151.55 L 187.38 151.49 L 187.68 151.43 L 187.99 151.37 L 188.29 151.30 L 188.59 151.24 L 188.89 151.18 L 189.20 151.11 L 189.50 151.05 L 189.80 150.98 L 190.10 150.92 L 190.41 150.85 L 190.71 150.78 L 191.01 150.71 L 191.31 150.64 L 191.62 150.57 L 191.92 150.50 L 192.22 150.43 L 192.53 150.36 L 192.83 150.29 L 193.13 150.21 L 193.43 150.14 L 193.74 150.06 L 194.04 149.99 L 194.34 149.91 L 194.64 149.83 L 194.95 149.75 L 195.25 149.67 L 195.55 149.59 L 195.85 149.51 L 196.16 149.43 L 196.46 149.35 L 196.76 149.26 L 197.06 149.18 L 197.37 149.09 L 197.67 149.01 L 197.97 148.92 L 198.27 148.83 L 198.58 148.74 L 198.88 148.65 L 199.18 148.56 L 199.48 148.47 L 199.79 148.38 L 200.09 148.28 L 200.39 148.19 L 200.69 148.09 L 201.00 148.00 L 201.30 147.90 L 201.60 147.80 L 201.90 147.70 L 202.21 147.60 L 202.51 147.50 L 202.81 147.40 L 203.11 147.29 L 203.42 147.19 L 203.72 147.08 L 204.02 146.98 L 204.32 146.87 L 204.63 146.76 L 204.93 146.65 L 205.23 146.54 L 205.54 146.43 L 205.84 146.31 L 206.14 146.20 L 206.44 146.09 L 206.75 145.97 L 207.05 145.85 L 207.35 145.73 L 207.65 145.61 L 207.96 145.49 L 208.26 145.37 L 208.56 145.25 L 208.86 145.12 L 209.17 145.00 L 209.47 144.87 L 209.77 144.74 L 210.07 144.61 L 210.38 144.48 L 210.68 144.35 L 210.98 144.22 L 211.28 144.08 L 211.59 143.95 L 211.89 143.81 L 212.19 143.67 L 212.49 143.53 L 212.80 143.39 L 213.10 143.25 L 213.40 143.11 L 213.70 142.96 L 214.01 142.82 L 214.31 142.67 L 214.61 142.52 L 214.91 142.37 L 215.22 142.22 L 215.52 142.07 L 215.82 141.91 L 216.12 141.76 L 216.43 141.60 L 216.73 141.44 L 217.03 141.28 L 217.33 141.12 L 217.64 140.96 L 217.94 140.79 L 218.24 140.63 L 218.55 140.46 L 218.85 140.29 L 219.15 140.12 L 219.45 139.95 L 219.76 139.77 L 220.06 139.60 L 220.36 139.42 L 220.66 139.24 L 220.97 139.06 L 221.27 138.88 L 221.57 138.70 L 221.87 138.51 L 222.18 138.32 L 222.48 138.14 L 222.78 137.95 L 223.08 137.75 L 223.39 137.56 L 223.69 137.36 L 223.99 137.17 L 224.29 136.97 L 224.60 136.77 L 224.90 136.57 L 225.20 136.36 L 225.50 136.16 L 225.81 135.95 L 226.11 135.74 L 226.41 135.53 L 226.71 135.31 L 227.02 135.10 L 227.32 134.88 L 227.62 134.66 L 227.92 134.44 L 228.23 134.22 L 228.53 133.99 L 228.83 133.77 L 229.13 133.54 L 229.44 133.31 L 229.74 133.07 L 230.04 132.84 L 230.34 132.60 L 230.65 132.36 L 230.95 132.12 L 231.25 131.88 L 231.56 131.63 L 231.86 131.39 L 232.16 131.14 L 232.46 130.89 L 232.77 130.63 L 233.07 130.38 L 233.37 130.12 L 233.67 129.86 L 233.98 129.60 L 234.28 129.33 L 234.58 129.06 L 234.88 128.79 L 235.19 128.52 L 235.49 128.25 L 235.79 127.97 L 236.09 127.69 L 236.40 127.41 L 236.70 127.13 L 237.00 126.84 L 237.30 126.55 L 237.61 126.26 L 237.91 125.97 L 238.21 125.67 L 238.51 125.37 L 238.82 125.07 L 239.12 124.77 L 239.42 124.46 L 239.72 124.16 L 240.03 123.84 L 240.33 123.53 L 240.63 123.21 L 240.93 122.90 L 241.24 122.57 L 241.54 122.25 L 241.84 121.92 L 242.14 121.59 L 242.45 121.26 L 242.75 120.92 L 243.05 120.59 L 243.35 120.24 L 243.66 119.90 L 243.96 119.55 L 244.26 119.20 L 244.57 118.85 L 244.87 118.50 L 245.17 118.14 L 245.47 117.78 L 245.78 117.41 L 246.08 117.04 L 246.38 116.67 L 246.68 116.30 L 246.99 115.92 L 247.29 115.54 L 247.59 115.16 L 247.89 114.77 L 248.20 114.39 L 248.50 113.99 L 248.80 113.60 L 249.10 113.20 L 249.41 112.80 L 249.71 112.39 L 250.01 111.98 L 250.31 111.57 L 250.62 111.16 L 250.92 110.74 L 251.22 110.31 L 251.52 109.89 L 251.83 109.46 L 252.13 109.03 L 252.43 108.59 L 252.73 108.15 L 253.04 107.71 L 253.34 107.26 L 253.64 106.81 L 253.94 106.36 L 254.25 105.90 L 254.55 105.44 L 254.85 104.97 L 255.15 104.50 L 255.46 104.03 L 255.76 103.55 L 256.06 103.07 L 256.36 102.59 L 256.67 102.10 L 256.97 101.61 L 257.27 101.11 L 257.58 100.61 L 257.88 100.11 L 258.18 99.60 L 258.48 99.09 L 258.79 98.57 L 259.09 98.05 L 259.39 97.53 L 259.69 97.00 L 260.00 96.46 L 260.30 95.93 L 260.60 95.39 L 260.90 94.84 L 261.21 94.29 L 261.51 93.74 L 261.81 93.18 L 262.11 92.61 L 262.42 92.05 L 262.72 91.47 L 263.02 90.90 L 263.32 90.32 L 263.63 89.73 L 263.93 89.14 L 264.23 88.54 L 264.53 87.94 L 264.84 87.34 L 265.14 86.73 L 265.44 86.11 L 265.74 85.50 L 266.05 84.87 L 266.35 84.24 L 266.65 83.61 L 266.95 82.97 L 267.26 82.33 L 267.56 81.68 L 267.86 81.02 L 268.16 80.36 L 268.47 79.70 L 268.77 79.03 L 269.07 78.36 L 269.37 77.68 L 269.68 76.99 L 269.98 76.30 L 270.28 75.60 L 270.59 74.90 L 270.89 74.20 L 271.19 73.48 L 271.49 72.77 L 271.80 72.04 L 272.10 71.31 L 272.40 70.58 L 272.70 69.84 L 273.01 69.09 L 273.31 68.34 L 273.61 67.58 L 273.91 66.82 L 274.22 66.05 L 274.52 65.27 L 274.82 64.49 L 275.12 63.70 L 275.43 62.91 L 275.73 62.11 L 276.03 61.30 L 276.33 60.49 L 276.64 59.67 L 276.94 58.85 L 277.24 58.02 L 277.54 57.18 L 277.85 56.34 L 278.15 55.49 L 278.45 54.63 L 278.75 53.76 L 279.06 52.89 L 279.36 52.02 L 279.66 51.13 L 279.96 50.24 L 280.27 49.35 L 280.57 48.44 L 280.87 47.53 L 281.17 46.61 L 281.48 45.69 L 281.78 44.76 L 282.08 43.82 L 282.38 42.87 L 282.69 41.92 L 282.99 40.96 L 283.29 39.99 L 283.60 39.02 L 283.90 38.03 L 284.20 37.04 L 284.50 36.05 L 284.81 35.04 L 285.11 34.03 L 285.41 33.01 L 285.71 31.98 L 286.02 30.94 L 286.32 29.90 L 286.62 28.85 L 286.92 27.79 L 287.23 26.72 L 287.53 25.65 L 287.83 24.56 L 288.13 23.47 L 288.44 22.37" fill="none" stroke="#5F6B7A" stroke-width="2.5" stroke-linecap="round" stroke-linejoin="round"/>
</svg>
