<svg xmlns="http://www.w3.org/2000/svg" viewBox="0 0 320 180" width="320" height="180">
  <rect width="320" height="180" fill="none"/>
  <path d="M 24.00 46.20 L 24.17 47.79 L 24.34 49.32 L 24.51 50.80 L 24.68 52.22 L 24.85 53.60 L 25.02 54.93 L 25.19 56.22 L 25.36 57.47 L 25.53 58.67 L 25.70 59.84 L 25.87 60.98 L 26.04 62.08 L 26.21 63.14 L 26.38 64.17 L 26.55 65.18 L 26.72 66.15 L 26.89 67.10 L 27.06 68.02 L 27.23 68.92 L 27.40 69.79 L 27.57 70.64 L 27.74 71.46 L 27.91 72.26 L 28.08 73.05 L 28.25 73.81 L 28.42 74.55 L 28.59 75.28 L 28.76 75.98 L 28.93 76.67 L 29.10 77.34 L 29.27 78.00 L 29.44 78.64 L 29.61 79.27 L 29.78 79.88 L 29.95 80.47 L 30.12 81.06 L 30.29 81.63 L 30.46 82.19 L 30.63 82.73 L 30.80 83.26 L 30.97 83.79 L 31.14 84.30 L 31.31 84.80 L 31.48 85.29 L 31.65 85.77 L 31.82 86.24 L 31.99 86.70 L 32.17 87.15 L 32.34 87.59 L 32.51 88.02 L 32.68 88.44 L 32.85 88.86 L 33.02 89.27 L 33.19 89.67 L 33.36 90.06 L 33.53 90.45 L 33.70 90.82 L 33.87 91.19 L 34.04 91.56 L 34.21 91.92 L 34.38 92.27 L 34.55 92.61 L 34.72 92.95 L 34.89 93.28 L 35.06 93.61 L 35.23 93.93 L 35.40 94.24 L 35.57 94.55 L 35.74 94.86 L 35.91 95.16 L 36.08 95.45 L 36.25 95.74 L 36.42 96.03 L 36.59 96.31 L 36.76 96.58 L 36.93 96.85 L 37.10 97.12 L 37.27 97.38 L 37.44 97.64 L 37.61 97.89 L 37.78 98.14 L 37.95 98.39 L 38.12 98.63 L 38.29 98.87 L 38.46 99.11 L 38.63 99.34 L 38.80 99.57 L 38.97 99.79 L 39.14 100.01 L 39.31 100.23 L 39.48 100.44 L 39.65 100.65 L 39.82 100.86 L 39.99 101.07 L 40.16 101.27 L 40.33 101.47 L 40.50 101.67 L 40.67 101.86 L 40.84 102.05 L 41.01 102.24 L 41.18 102.43 L 41.35 102.61 L 41.52 102.79 L 41.69 102.97 L 41.86 103.14 L 42.03 103.32 L 42.20 103.49 L 42.37 103.66 L 42.54 103.82 L 42.71 103.99 L 42.88 104.15 L 43.05 104.31 L 43.22 104.47 L 43.39 104.62 L 43.56 104.78 L 43.73 104.93 L 43.90 105.08 L 44.07 105.23 L 44.24 105.37 L 44.41 105.52 L 44.58 105.66 L 44.75 105.80 L 44.92 105.94 L 45.09 106.08 L 45.26 106.21 L 45.43 106.35 L 45.60 106.48 L 45.77 106.61 L 45.94 106.74 L 46.11 106.87 L 46.28 106.99 L 46.45 107.12 L 46.62 107.24 L 46.79 107.36 L 46.96 107.48 L 47.13 107.60 L 47.30 107.72 L 47.47 107.83 L 47.64 107.95 L 47.81 108.06 L 47.98 108.17 L 48.16 108.28 L 48.33 108.39 L 48.50 108.50 L 48.67 108.61 L 48.84 108.71 L 49.01 108.82 L 49.18 108.92 L 49.35 109.02 L 49.52 109.12 L 49.69 109.22 L 49.86 109.32 L 50.03 109.42 L 50.20 109.52 L 50.37 109.61 L 50.54 109.71 L 50.71 109.80 L 50.88 109.89 L 51.05 109.98 L 51.22 110.07 L 51.39 110.16 L 51.56 110.25 L 51.73 110.34 L 51.90 110.43 L 52.07 110.51 L 52.24 110.60 L 52.41 110.68 L 52.58 110.76 L 52.75 110.85 L 52.92 110.93 L 53.09 111.01 L 53.26 111.09 L 53.43 111.17 L 53.60 111.24 L 53.77 111.32 L 53.94 111.40 L 54.11 111.47 L 54.28 111.55 L 54.45 111.62 L 54.62 111.70 L 54.79 111.77 L 54.96 111.84 L 55.13 111.91 L 55.30 111.98 L 55.47 112.05 L 55.64 112.12 L 55.81 112.19 L 55.98 112.26 L 56.15 112.32 L 56.32 112.39 L 56.49 112.45 L 56.66 112.52 L 56.83 112.58 L 57.00 112.65 L 57.17 112.71 L 57.34 112.77 L 57.51 112.84 L 57.68 112.90 L 57.85 112.96 L 58.02 113.02 L 58.19 113.08 L 58.36 113.14 L 58.53 113.19 L 58.70 113.25 L 58.87 113.31 L 59.04 113.37 L 59.21 113.42 L 59.38 113.48 L 59.55 113.53 L 59.72 113.59 L 59.89 113.64 L 60.06 113.70 L 60.23 113.75 L 60.40 113.80 L 60.57 113.85 L 60.74 113.91 L 60.91 113.96 L 61.08 114.01 L 61.25 114.06 L 61.42 114.11 L 61.59 114.16 L 61.76 114.21 L 61.93 114.25 L 62.10 114.30 L 62.27 114.35 L 62.44 114.40 L 62.61 114.44 L 62.78 114.49 L 62.95 114.53 L 63.12 114.58 L 63.29 114.62 L 63.46 114.67 L 63.63 114.71 L 63.80 114.76 L 63.97 114.80 L 64.15 114.84 L 64.32 114.89 L 64.49 114.93 L 64.66 114.97 L 64.83 115.01 L 65.00 115.05 L 65.17 115.09 L 65.34 115.13 L 65.51 115.17 L 65.68 115.21 L 65.85 115.25 L 66.02 115.29 L 66.19 115.33 L 66.36 115.37 L 66.53 115.40 L 66.70 115.44 L 66.87 115.48 L 67.04 115.52 L 67.21 115.55 L 67.38 115.59 L 67.55 115.62 L 67.72 115.66 L 67.89 115.69 L 68.06 115.73 L 68.23 115.76 L 68.40 115.80 L 68.57 115.83 L 68.74 115.87 L 68.91 115.90 L 69.08 115.93 L 69.25 115.96 L 69.42 116.00 L 69.59 116.03 L 69.76 116.06 L 69.93 116.09 L 70.10 116.12 L 70.27 116.15 L 70.44 116.19 L 70.61 116.22 L 70.78 116.25 L 70.95 116.28 L 71.12 116.31 L 71.29 116.33 L 71.46 116.36 L 71.63 116.39 L 71.80 116.42 L 71.97 116.45 L 72.14 116.48 L 72.31 116.51 L 72.48 116.53 L 72.65 116.56 L 72.82 116.59 L 72.99 116.61 L 73.16 116.64 L 73.33 116.67 L 73.50 116.69 L 73.67 116.72 L 73.84 116.75 L 74.01 116.77 L 74.18 116.80 L 74.35 116.82 L 74.52 116.85 L 74.69 116.87 L 74.86 116.89 L 75.03 116.92 L 75.20 116.94 L 75.37 116.97 L 75.54 116.99 L 75.71 117.01 L 75.88 117.04 L 76.05 117.06 L 76.22 117.08 L 76.39 117.10 L 76.56 117.13 L 76.73 117.15 L 76.90 117.17 L 77.07 117.19 L 77.24 117.21 L 77.41 117.23 L 77.58 117.25 L 77.75 117.27 L 77.92 117.30 L 78.09 117.32 L 78.26 117.34 L 78.43 117.36 L 78.60 117.38 L 78.77 117.40 L 78.94 117.41 L 79.11 117.43 L 79.28 117.45 L 79.45 117.47 L 79.62 117.49 L 79.79 117.51 L 79.96 117.53 L 80.14 117.55 L 80.31 117.56 L 80.48 117.58 L 80.65 117.60 L 80.82 117.62 L 80.99 117.63 L 81.16 117.65 L 81.33 117.67 L 81.50 117.68 L 81.67 117.70 L 81.84 117.72 L 82.01 117.73 L 82.18 117.75 L 82.35 117.77 L 82.52 117.78 L 82.69 117.80 L 82.86 117.81 L 83.03 117.83 L 83.20 117.84 L 83.37 117.86 L 83.54 117.87 L 83.71 117.89 L 83.88 117.90 L 84.05 117.92 L 84.22 117.93 L 84.39 117.95 L 84.56 117.96 L 84.73 117.97 L 84.90 117.99 L 85.07 118.00 L 85.24 118.01 L 85.41 118.03 L 85.58 118.04 L 85.75 118.05 L 85.92 118.07 L 86.09 118.08 L 86.26 118.09 L 86.43 118.10 L 86.60 118.12 L 86.77 118.13 L 86.94 118.14 L 87.11 118.15 L 87.28 118.16 L 87.45 118.17 L 87.62 118.19 L 87.79 118.20 L 87.96 118.21 L 88.13 118.22 L 88.30 118.23 L 88.47 118.24 L 88.64 118.25 L 88.81 118.26 L 88.98 118.27 L 89.15 118.28 L 89.32 118.29 L 89.49 118.30 L 89.66 118.31 L 89.83 118.32 L 90.00 118.33 L 90.17 118.34 L 90.34 118.35 L 90.51 118.36 L 90.68 118.37 L 90.85 118.38 L 91.02 118.39 L 91.19 118.40 L 91.36 118.41 L 91.53 118.41 L 91.70 118.42 L 91.87 118.43 L 92.04 118.44 L 92.21 118.45 L 92.38 118.45 L 92.55 118.46 L 92.72 118.47 L 92.89 118.48 L 93.06 118.49 L 93.23 118.49 L 93.40 118.50 L 93.57 118.51 L 93.74 118.51 L 93.91 118.52 L 94.08 118.53 L 94.25 118.53 L 94.42 118.54 L 94.59 118.55 L 94.76 118.55 L 94.93 118.56 L 95.10 118.57 L 95.27 118.57 L 95.44 118.58 L 95.61 118.58 L 95.78 118.59 L 95.95 118.60 L 96.13 118.60 L 96.30 118.61 L 96.47 118.61 L 96.64 118.62 L 96.81 118.62 L 96.98 118.63 L 97.15 118.63 L 97.32 118.64 L 97.49 118.64 L 97.66 118.65 L 97.83 118.65 L 98.00 118.66 L 98.17 118.66 L 98.34 118.66 L 98.51 118.67 L 98.68 118.67 L 98.85 118.68 L 99.02 118.68 L 99.19 118.68 L 99.36 118.69 L 99.53 118.69 L 99.70 118.69 L 99.87 118.70 L 100.04 118.70 L 100.21 118.70 L 100.38 118.71 L 100.55 118.71 L 100.72 118.71 L 100.89 118.72 L 101.06 118.72 L 101.23 118.72 L 101.40 118.72 L 101.57 118.73 L 101.74 118.73 L 101.91 118.73 L 102.08 118.73 L 102.25 118.73 L 102.42 118.74 L 102.59 118.74 L 102.76 118.74 L 102.93 118.74 L 103.10 118.74 L 103.27 118.74 L 103.44 118.75 L 103.61 118.75 L 103.78 118.75 L 103.95 118.75 L 104.12 118.75 L 104.29 118.75 L 104.46 118.75 L 104.63 118.75 L 104.80 118.75 L 104.97 118.75 L 105.14 118.75 L 105.31 118.76 L 105.48 118.76 L 105.65 118.76 L 105.82 118.76 L 105.99 118.76 L 106.16 118.76 L 106.33 118.76 L 106.50 118.76 L 106.67 118.76 L 106.84 118.75 L 107.01 118.75 L 107.18 118.75 L 107.35 118.75 L 107.52 118.75 L 107.69 118.75 L 107.86 118.75 L 108.03 118.75 L 108.20 118.75 L 108.37 118.75 L 108.54 118.75 L 108.71 118.75 L 108.88 118.74 L 109.05 118.74 L 109.22 118.74 L 109.39 118.74 L 109.56 118.74 L 109.73 118.74 L 109.90 118.73 L 110.07 118.73 L 110.24 118.73 L 110.41 118.73 L 110.58 118.73 L 110.75 118.72 L 110.92 118.72 L 111.09 118.72 L 111.26 118.72 L 111.43 118.71 L 111.60 118.71 L 111.77 118.71 L 111.94 118.70 L 112.12 118.70 L 112.29 118.70 L 112.46 118.70 L 112.63 118.69 L 112.80 118.69 L 112.97 118.69 L 113.14 118.68 L 113.31 118.68 L 113.48 118.68 L 113.65 118.67 L 113.82 118.67 L 113.99 118.66 L 114.16 118.66 L 114.33 118.66 L 114.50 118.65 L 114.67 118.65 L 114.84 118.64 L 115.01 118.64 L 115.18 118.64 L 115.35 118.63 L 115.52 118.63 L 115.69 118.62 L 115.86 118.62 L 116.03 118.61 L 116.20 118.61 L 116.37 118.60 L 116.54 118.60 L 116.71 118.59 L 116.88 118.59 L 117.05 118.58 L 117.22 118.58 L 117.39 118.57 L 117.56 118.57 L 117.73 118.56 L 117.90 118.55 L 118.07 118.55 L 118.24 118.54 L 118.41 118.54 L 118.58 118.53 L 118.75 118.53 L 118.92 118.52 L 119.09 118.51 L 119.26 118.51 L 119.43 118.50 L 119.60 118.49 L 119.77 118.49 L 119.94 118.48 L 120.11 118.48 L 120.28 118.47 L 120.45 118.46 L 120.62 118.45 L 120.79 118.45 L 120.96 118.44 L 121.13 118.43 L 121.30 118.43 L 121.47 118.42 L 121.64 118.41 L 121.81 118.40 L 121.98 118.40 L 122.15 118.39 L 122.32 118.38 L 122.49 118.37 L 122.66 118.37 L 122.83 118.36 L 123.00 118.35 L 123.17 118.34 L 123.34 118.33 L 123.51 118.33 L 123.68 118.32 L 123.85 118.31 L 124.02 118.30 L 124.19 118.29 L 124.36 118.28 L 124.53 118.28 L 124.70 118.27 L 124.87 118.26 L 125.04 118.25 L 125.21 118.24 L 125.38 118.23 L 125.55 118.22 L 125.72 118.21 L 125.89 118.20 L 126.06 118.20 L 126.23 118.19 L 126.40 118.18 L 126.57 118.17 L 126.74 118.16 L 126.91 118.15 L 127.08 118.14 L 127.25 118.13 L 127.42 118.12 L 127.59 118.11 L 127.76 118.10 L 127.93 118.09 L 128.11 118.08 L 128.28 118.07 L 128.45 118.06 L 128.62 118.05 L 128.79 118.04 L 128.96 118.03 L 129.13 118.02 L 129.30 118.00 L 129.47 117.99 L 129.64 117.98 L 129.81 117.97 L 129.98 117.96 L 130.15 117.95 L 130.32 117.94 L 130.49 117.93 L 130.66 117.92 L 130.83 117.90 L 131.00 117.89 L 131.17 117.88 L 131.34 117.87 L 131.51 117.86 L 131.68 117.85 L 131.85 117.83 L 132.02 117.82 L 132.19 117.81 L 132.36 117.80 L 132.53 117.79 L 132.70 117.77 L 132.87 117.76 L 133.04 117.75 L 133.21 117.74 L 133.38 117.72 L 133.55 117.71 L 133.72 117.70 L 133.89 117.69 L 134.06 117.67 L 134.23 117.66 L 134.40 117.65 L 134.57 117.63 L 134.74 117.62 L 134.91 117.61 L 135.08 117.59 L 135.25 117.58 L 135.42 117.57 L 135.59 117.55 L 135.76 117.54 L 135.93 117.52 L 136.10 117.51 L 136.27 117.50 L 136.44 117.48 L 136.61 117.47 L 136.78 117.45 L 136.95 117.44 L 137.12 117.43 L 137.29 117.41 L 137.46 117.40 L 137.63 117.38 L 137.80 117.37 L 137.97 117.35 L 138.14 117.34 L 138.31 117.32 L 138.48 117.31 L 138.65 117.29 L 138.82 117.28 L 138.99 117.26 L 139.16 117.25 L 139.33 117.23 L 139.50 117.22 L 139.67 117.20 L 139.84 117.18 L 140.01 117.17 L 140.18 117.15 L 140.35 117.14 L 140.52 117.12 L 140.69 117.11 L 140.86 117.09 L 141.03 117.07 L 141.20 117.06 L 141.37 117.04 L 141.54 117.02 L 141.71 117.01 L 141.88 116.99 L 142.05 116.97 L 142.22 116.96 L 142.39 116.94 L 142.56 116.92 L 142.73 116.91 L 142.90 116.89 L 143.07 116.87 L 143.24 116.85 L 143.41 116.84 L 143.58 116.82 L 143.75 116.80 L 143.92 116.78 L 144.10 116.77 L 144.27 116.75 L 144.44 116.73 L 144.61 116.71 L 144.78 116.69 L 144.95 116.68 L 145.12 116.66 L 145.29 116.64 L 145.46 116.62 L 145.63 116.60 L 145.80 116.58 L 145.97 116.56 L 146.14 116.55 L 146.31 116.53 L 146.48 116.51 L 146.65 116.49 L 146.82 116.47 L 146.99 116.45 L 147.16 116.43 L 147.33 116.41 L 147.50 116.39 L 147.67 116.37 L 147.84 116.35 L 148.01 116.33 L 148.18 116.31 L 148.35 116.29 L 148.52 116.27 L 148.69 116.25 L 148.86 116.23 L 149.03 116.21 L 149.20 116.19 L 149.37 116.17 L 149.54 116.15 L 149.71 116.13 L 149.88 116.11 L 150.05 116.09 L 150.22 116.07 L 150.39 116.04 L 150.56 116.02 L 150.73 116.00 L 150.90 115.98 L 151.07 115.96 L 151.24 115.94 L 151.41 115.92 L 151.58 115.89 L 151.75 115.87 L 151.92 115.85 L 152.09 115.83 L 152.26 115.81 L 152.43 115.78 L 152.60 115.76 L 152.77 115.74 L 152.94 115.72 L 153.11 115.69 L 153.28 115.67 L 153.45 115.65 L 153.62 115.62 L 153.79 115.60 L 153.96 115.58 L 154.13 115.56 L 154.30 115.53 L 154.47 115.51 L 154.64 115.48 L 154.81 115.46 L 154.98 115.44 L 155.15 115.41 L 155.32 115.39 L 155.49 115.37 L 155.66 115.34 L 155.83 115.32 L 156.00 115.29 L 156.17 115.27 L 156.34 115.24 L 156.51 115.22 L 156.68 115.19 L 156.85 115.17 L 157.02 115.14 L 157.19 115.12 L 157.36 115.09 L 157.53 115.07 L 157.70 115.04 L 157.87 115.02 L 158.04 114.99 L 158.21 114.97 L 158.38 114.94 L 158.55 114.91 L 158.72 114.89 L 158.89 114.86 L 159.06 114.84 L 159.23 114.81 L 159.40 114.78 L 159.57 114.76 L 159.74 114.73 L 159.91 114.70 L 160.09 114.68 L 160.26 114.65 L 160.43 114.62 L 160.60 114.60 L 160.77 114.57 L 160.94 114.54 L 161.11 114.51 L 161.28 114.49 L 161.45 114.46 L 161.62 114.43 L 161.79 114.40 L 161.96 114.37 L 162.13 114.35 L 162.30 114.32 L 162.47 114.29 L 162.64 114.26 L 162.81 114.23 L 162.98 114.20 L 163.15 114.17 L 163.32 114.14 L 163.49 114.12 L 163.66 114.09 L 163.83 114.06 L 164.00 114.03 L 164.17 114.00 L 164.34 113.97 L 164.51 113.94 L 164.68 113.91 L 164.85 113.88 L 165.02 113.85 L 165.19 113.82 L 165.36 113.79 L 165.53 113.76 L 165.70 113.73 L 165.87 113.70 L 166.04 113.66 L 166.21 113.63 L 166.38 113.60 L 166.55 113.57 L 166.72 113.54 L 166.89 113.51 L 167.06 113.48 L 167.23 113.45 L 167.40 113.41 L 167.57 113.38 L 167.74 113.35 L 167.91 113.32 L 168.08 113.28 L 168.25 113.25 L 168.42 113.22 L 168.59 113.19 L 168.76 113.15 L 168.93 113.12 L 169.10 113.09 L 169.27 113.05 L 169.44 113.02 L 169.61 112.99 L 169.78 112.95 L 169.95 112.92 L 170.12 112.89 L 170.29 112.85 L 170.46 112.82 L 170.63 112.78 L 170.80 112.75 L 170.97 112.72 L 171.14 112.68 L 171.31 112.65 L 171.48 112.61 L 171.65 112.58 L 171.82 112.54 L 171.99 112.50 L 172.16 112.47 L 172.33 112.43 L 172.50 112.40 L 172.67 112.36 L 172.84 112.33 L 173.01 112.29 L 173.18 112.25 L 173.35 112.22 L 173.52 112.18 L 173.69 112.14 L 173.86 112.11 L 174.03 112.07 L 174.20 112.03 L 174.37 112.00 L 174.54 111.96 L 174.71 111.92 L 174.88 111.88 L 175.05 111.85 L 175.22 111.81 L 175.39 111.77 L 175.56 111.73 L 175.73 111.69 L 175.90 111.65 L 176.08 111.62 L 176.25 111.58 L 176.42 111.54 L 176.59 111.50 L 176.76 111.46 L 176.93 111.42 L 177.10 111.38 L 177.27 111.34 L 177.44 111.30 L 177.61 111.26 L 177.78 111.22 L 177.95 111.18 L 178.12 111.14 L 178.29 111.10 L 178.46 111.06 L 178.63 111.02 L 178.80 110.98 L 178.97 110.94 L 179.14 110.89 L 179.31 110.85 L 179.48 110.81 L 179.65 110.77 L 179.82 110.73 L 179.99 110.68 L 180.16 110.64 L 180.33 110.60 L 180.50 110.56 L 180.67 110.51 L 180.84 110.47 L 181.01 110.43 L 181.18 110.39 L 181.35 110.34 L 181.52 110.30 L 181.69 110.25 L 181.86 110.21 L 182.03 110.17 L 182.20 110.12 L 182.37 110.08 L 182.54 110.03 L 182.71 109.99 L 182.88 109.94 L 183.05 109.90 L 183.22 109.85 L 183.39 109.81 L 183.56 109.76 L 183.73 109.72 L 183.90 109.67 L 184.07 109.62 L 184.24 109.58 L 184.41 109.53 L 184.58 109.49 L 184.75 109.44 L 184.92 109.39 L 185.09 109.34 L 185.26 109.30 L 185.43 109.25 L 185.60 109.20 L 185.77 109.15 L 185.94 109.11 L 186.11 109.06 L 186.28 109.01 L 186.45 108.96 L 186.62 108.91 L 186.79 108.86 L 186.96 108.81 L 187.13 108.77 L 187.30 108.72 L 187.47 108.67 L 187.64 108.62 L 187.81 108.57 L 187.98 108.52 L 188.15 108.47 L 188.32 108.42 L 188.49 108.37 L 188.66 108.31 L 188.83 108.26 L 189.00 108.21 L 189.17 108.16 L 189.34 108.11 L 189.51 108.06 L 189.68 108.01 L 189.85 107.95 L 190.02 107.90 L 190.19 107.85 L 190.36 107.80 L 190.53 107.74 L 190.70 107.69 L 190.87 107.64 L 191.04 107.58 L 191.21 107.53 L 191.38 107.47 L 191.55 107.42 L 191.72 107.37 L 191.89 107.31 L 192.07 107.26 L 192.24 107.20 L 192.41 107.15 L 192.58 107.09 L 192.75 107.04 L 192.92 106.98 L 193.09 106.92 L 193.26 106.87 L 193.43 106.81 L 193.60 106.75 L 193.77 106.70 L 193.94 106.64 L 194.11 106.58 L 194.28 106.53 L 194.45 106.47 L 194.62 106.41 L 194.79 106.35 L 194.96 106.29 L 195.13 106.24 L 195.30 106.18 L 195.47 106.12 L 195.64 106.06 L 195.81 106.00 L 195.98 105.94 L 196.15 105.88 L 196.32 105.82 L 196.49 105.76 L 196.66 105.70 L 196.83 105.64 L 197.00 105.58 L 197.17 105.52 L 197.34 105.46 L 197.51 105.39 L 197.68 105.33 L 197.85 105.27 L 198.02 105.21 L 198.19 105.14 L 198.36 105.08 L 198.53 105.02 L 198.70 104.96 L 198.87 104.89 L 199.04 104.83 L 199.21 104.77 L 199.38 104.70 L 199.55 104.64 L 199.72 104.57 L 199.89 104.51 L 200.06 104.44 L 200.23 104.38 L 200.40 104.31 L 200.57 104.25 L 200.74 104.18 L 200.91 104.11 L 201.08 104.05 L 201.25 103.98 L 201.42 103.91 L 201.59 103.85 L 201.76 103.78 L 201.93 103.71 L 202.10 103.64 L 202.27 103.57 L 202.44 103.51 L 202.61 103.44 L 202.78 103.37 L 202.95 103.30 L 203.12 103.23 L 203.29 103.16 L 203.46 103.09 L 203.63 103.02 L 203.80 102.95 L 203.97 102.88 L 204.14 102.81 L 204.31 102.74 L 204.48 102.66 L 204.65 102.59 L 204.82 102.52 L 204.99 102.45 L 205.16 102.37 L 205.33 102.30 L 205.50 102.23 L 205.67 102.15 L 205.84 102.08 L 206.01 102.01 L 206.18 101.93 L 206.35 101.86 L 206.52 101.78 L 206.69 101.71 L 206.86 101.63 L 207.03 101.56 L 207.20 101.48 L 207.37 101.41 L 207.54 101.33 L 207.71 101.25 L 207.88 101.17 L 208.06 101.10 L 208.23 101.02 L 208.40 100.94 L 208.57 100.86 L 208.74 100.79 L 208.91 100.71 L 209.08 100.63 L 209.25 100.55 L 209.42 100.47 L 209.59 100.39 L 209.76 100.31 L 209.93 100.23 L 210.10 100.15 L 210.27 100.07 L 210.44 99.98 L 210.61 99.90 L 210.78 99.82 L 210.95 99.74 L 211.12 99.66 L 211.29 99.57 L 211.46 99.49 L 211.63 99.41 L 211.80 99.32 L 211.97 99.24 L 212.14 99.15 L 212.31 99.07 L 212.48 98.98 L 212.65 98.90 L 212.82 98.81 L 212.99 98.73 L 213.16 98.64 L 213.33 98.55 L 213.50 98.47 L 213.67 98.38 L 213.84 98.29 L 214.01 98.20 L 214.18 98.11 L 214.35 98.02 L 214.52 97.94 L 214.69 97.85 L 214.86 97.76 L 215.03 97.67 L 215.20 97.58 L 215.37 97.49 L 215.54 97.39 L 215.71 97.30 L 215.88 97.21 L 216.05 97.12 L 216.22 97.03 L 216.39 96.93 L 216.56 96.84 L 216.73 96.75 L 216.90 96.65 L 217.07 96.56 L 217.24 96.47 L 217.41 96.37 L 217.58 96.28 L 217.75 96.18 L 217.92 96.08 L 218.09 95.99 L 218.26 95.89 L 218.43 95.79 L 218.60 95.70 L 218.77 95.60 L 218.94 95.50 L 219.11 95.40 L 219.28 95.30 L 219.45 95.20 L 219.62 95.10 L 219.79 95.00 L 219.96 94.90 L 220.13 94.80 L 220.30 94.70 L 220.47 94.60 L 220.64 94.50 L 220.81 94.40 L 220.98 94.29 L 221.15 94.19 L 221.32 94.09 L 221.49 93.98 L 221.66 93.88 L 221.83 93.78 L 222.00 93.67 L 222.17 93.57 L 222.34 93.46 L 222.51 93.35 L 222.68 93.25 L 222.85 93.14 L 223.02 93.03 L 223.19 92.93 L 223.36 92.82 L 223.53 92.71 L 223.70 92.60 L 223.87 92.49 L 224.05 92.38 L 224.22 92.27 L 224.39 92.16 L 224.56 92.05 L 224.73 91.94 L 224.90 91.83 L 225.07 91.71 L 225.24 91.60 L 225.41 91.49 L 225.58 91.37 L 225.75 91.26 L 225.92 91.15 L 226.09 91.03 L 226.26 90.92 L 226.43 90.80 L 226.60 90.68 L 226.77 90.57 L 226.94 90.45 L 227.11 90.33 L 227.28 90.21 L 227.45 90.10 L 227.62 89.98 L 227.79 89.86 L 227.96 89.74 L 228.13 89.62 L 228.30 89.50 L 228.47 89.38 L 228.64 89.26 L 228.81 89.13 L 228.98 89.01 L 229.15 88.89 L 229.32 88.76 L 229.49 88.64 L 229.66 88.52 L 229.83 88.39 L 230.00 88.27 L 230.17 88.14 L 230.34 88.01 L 230.51 87.89 L 230.68 87.76 L 230.85 87.63 L 231.02 87.50 L 231.19 87.38 L 231.36 87.25 L 231.53 87.12 L 231.70 86.99 L 231.87 86.86 L 232.04 86.73 L 232.21 86.59 L 232.38 86.46 L 232.55 86.33 L 232.72 86.20 L 232.89 86.06 L 233.06 85.93 L 233.23 85.79 L 233.40 85.66 L 233.57 85.52 L 233.74 85.39 L 233.91 85.25 L 234.08 85.11 L 234.25 84.97 L 234.42 84.84 L 234.59 84.70 L 234.76 84.56 L 234.93 84.42 L 235.10 84.28 L 235.27 84.14 L 235.44 84.00 L 235.61 83.85 L 235.78 83.71 L 235.95 83.57 L 236.12 83.42 L 236.29 83.28 L 236.46 83.14 L 236.63 82.99 L 236.80 82.84 L 236.97 82.70 L 237.14 82.55 L 237.31 82.40 L 237.48 82.25 L 237.65 82.11 L 237.82 81.96 L 237.99 81.81 L 238.16 81.66 L 238.33 81.50 L 238.50 81.35 L 238.67 81.20 L 238.84 81.05 L 239.01 80.89 L 239.18 80.74 L 239.35 80.59 L 239.52 80.43 L 239.69 80.28 L 239.86 80.12 L 240.04 79.96 L 240.21 79.80 L 240.38 79.65 L 240.55 79.49 L 240.72 79.33 L 240.89 79.17 L 241.06 79.01 L 241.23 78.85 L 241.40 78.68 L 241.57 78.52 L 241.74 78.36 L 241.91 78.19 L 242.08 78.03 L 242.25 77.87 L 242.42 77.70 L 242.59 77.53 L 242.76 77.37 L 242.93 77.20 L 243.10 77.03 L 243.27 76.86 L 243.44 76.69 L 243.61 76.52 L 243.78 76.35 L 243.95 76.18 L 244.12 76.01 L 244.29 75.83 L 244.46 75.66 L 244.63 75.49 L 244.80 75.31 L 244.97 75.14 L 245.14 74.96 L 245.31 74.78 L 245.48 74.60 L 245.65 74.43 L 245.82 74.25 L 245.99 74.07 L 246.16 73.89 L 246.33 73.71 L 246.50 73.52 L 246.67 73.34 L 246.84 73.16 L 247.01 72.97 L 247.18 72.79 L 247.35 72.60 L 247.52 72.42 L 247.69 72.23 L 247.86 72.04 L 248.03 71.85 L 248.20 71.66 L 248.37 71.47 L 248.54 71.28 L 248.71 71.09 L 248.88 70.90 L 249.05 70.71 L 249.22 70.51 L 249.39 70.32 L 249.56 70.12 L 249.73 69.93 L 249.90 69.73 L 250.07 69.53 L 250.24 69.34 L 250.41 69.14 L 250.58 68.94 L 250.75 68.74 L 250.92 68.53 L 251.09 68.33 L 251.26 68.13 L 251.43 67.93 L 251.60 67.72 L 251.77 67.52 L 251.94 67.31 L 252.11 67.10 L 252.28 66.89 L 252.45 66.69 L 252.62 66.48 L 252.79 66.27 L 252.96 66.05 L 253.13 65.84 L 253.30 65.63 L 253.47 65.42 L 253.64 65.20 L 253.81 64.99 L 253.98 64.77 L 254.15 64.55 L 254.32 64.34 L 254.49 64.12 L 254.66 63.90 L 254.83 63.68 L 255.00 63.45 L 255.17 63.23 L 255.34 63.01 L 255.51 62.79 L 255.68 62.56 L 255.85 62.33 L 256.03 62.11 L 256.20 61.88 L 256.37 61.65 L 256.54 61.42 L 256.71 61.19 L 256.88 60.96 L 257.05 60.73 L 257.22 60.50 L 257.39 60.26 L 257.56 60.03 L 257.73 59.79 L 257.90 59.55 L 258.07 59.32 L 258.24 59.08 L 258.41 58.84 L 258.58 58.60 L 258.75 58.35 L 258.92 58.11 L 259.09 57.87 L 259.26 57.62 L 259.43 57.38 L 259.60 57.13 L 259.77 56.88 L 259.94 56.64 L 260.11 56.39 L 260.28 56.14 L 260.45 55.88 L 260.62 55.63 L 260.79 55.38 L 260.96 55.12 L 261.13 54.87 L 261.30 54.61 L 261.47 54.35 L 261.64 54.10 L 261.81 53.84 L 261.98 53.57 L 262.15 53.31 L 262.32 53.05 L 262.49 52.79 L 262.66 52.52 L 262.83 52.26 L 263.00 51.99 L 263.17 51.72 L 263.34 51.45 L 263.51 51.18 L 263.68 50.91 L 263.85 50.64 L 264.02 50.36 L 264.19 50.09 L 264.36 49.81 L 264.53 49.54 L 264.70 49.26 L 264.87 48.98 L 265.04 48.70 L 265.21 48.42 L 265.38 48.13 L 265.55 47.85 L 265.72 47.57 L 265.89 47.28 L 266.06 46.99 L 266.23 46.70 L 266.40 46.41 L 266.57 46.12 L 266.74 45.83 L 266.91 45.54 L 267.08 45.24 L 267.25 44.95 L 267.42 44.65 L 267.59 44.35 L 267.76 44.06 L 267.93 43.76 L 268.10 43.45 L 268.27 43.15 L 268.44 42.85 L 268.61 42.54 L 268.78 42.24 L 268.95 41.93 L 269.12 41.62 L 269.29 41.31 L 269.46 41.00 L 269.63 40.69 L 269.80 40.37 L 269.97 40.06 L 270.14 39.74 L 270.31 39.42 L 270.48 39.10 L 270.65 38.78 L 270.82 38.46 L 270.99 38.14 L 271.16 37.81 L 271.33 37.49 L 271.50 37.16 L 271.67 36.83 L 271.84 36.50 L 272.02 36.17 L 272.19 35.84 L 272.36 35.50 L 272.53 35.17 L 272.70 34.83 L 272.87 34.50 L 273.04 34.16 L 273.21 33.82 L 273.38 33.47 L 273.55 33.13 L 273.72 32.78 L 273.89 32.44 L 274.06 32.09 L 274.23 31.74 L 274.40 31.39 L 274.57 31.04 L 274.74 30.69 L 274.91 30.33 L 275.08 29.97 L 275.25 29.62 L 275.42 29.26 L 275.59 28.90 L 275.76 28.53 L 275.93 28.17 L 276.10 27.80 L 276.27 27.44 L 276.44 27.07 L 276.61 26.70 L 276.78 26.33 L 276.95 25.96 L 277.12 25.58 L 277.29 25.21 L 277.46 24.83 L 277.63 24.45 L 277.80 24.07 L 277.97 23.69 L 278.14 23.30 L 278.31 22.92 L 278.48 22.53 L 278.65 22.14" fill="none" stroke="#5F6B7A" stroke-width="2.5" stroke-linecap="round" stroke-linejoin="round"/>
</svg>
