<svg xmlns="http://www.w3.org/2000/svg" viewBox="0 0 320 180" width="320" height="180">
  <rect width="320" height="180" fill="#F4F5F7"/>
  <path d="M 18.00 90.00 L 18.18 90.55 L 18.36 91.09 L 18.53 91.63 L 18.71 92.18 L 18.89 92.72 L 19.07 93.26 L 19.24 93.79 L 19.42 94.33 L 19.60 94.86 L 19.78 95.40 L 19.95 95.93 L 20.13 96.46 L 20.31 96.98 L 20.49 97.51 L 20.66 98.03 L 20.84 98.55 L 21.02 99.07 L 21.20 99.59 L 21.37 100.11 L 21.55 100.62 L 21.73 101.13 L 21.91 101.64 L 22.09 102.15 L 22.26 102.66 L 22.44 103.16 L 22.62 103.66 L 22.80 104.16 L 22.97 104.66 L 23.15 105.15 L 23.33 105.65 L 23.51 106.14 L 23.68 106.63 L 23.86 107.11 L 24.04 107.59 L 24.22 108.08 L 24.39 108.55 L 24.57 109.03 L 24.75 109.50 L 24.93 109.97 L 25.10 110.44 L 25.28 110.91 L 25.46 111.37 L 25.64 111.83 L 25.81 112.29 L 25.99 112.75 L 26.17 113.20 L 26.35 113.65 L 26.53 114.10 L 26.70 114.54 L 26.88 114.98 L 27.06 115.42 L 27.24 115.86 L 27.41 116.29 L 27.59 116.72 L 27.77 117.15 L 27.95 117.57 L 28.12 118.00 L 28.30 118.41 L 28.48 118.83 L 28.66 119.24 L 28.83 119.65 L 29.01 120.06 L 29.19 120.46 L 29.37 120.86 L 29.54 121.26 L 29.72 121.65 L 29.90 122.05 L 30.08 122.43 L 30.26 122.82 L 30.43 123.20 L 30.61 123.58 L 30.79 123.95 L 30.97 124.32 L 31.14 124.69 L 31.32 125.06 L 31.50 125.42 L 31.68 125.78 L 31.85 126.13 L 32.03 126.49 L 32.21 126.84 L 32.39 127.18 L 32.56 127.52 L 32.74 127.86 L 32.92 128.20 L 33.10 128.53 L 33.27 128.86 L 33.45 129.18 L 33.63 129.50 L 33.81 129.82 L 33.98 130.13 L 34.16 130.44 L 34.34 130.75 L 34.52 131.05 L 34.70 131.35 L 34.87 131.65 L 35.05 131.94 L 35.23 132.23 L 35.41 132.52 L 35.58 132.80 L 35.76 133.08 L 35.94 133.35 L 36.12 133.63 L 36.29 133.89 L 36.47 134.16 L 36.65 134.42 L 36.83 134.67 L 37.00 134.93 L 37.18 135.18 L 37.36 135.42 L 37.54 135.66 L 37.71 135.90 L 37.89 136.14 L 38.07 136.37 L 38.25 136.59 L 38.43 136.82 L 38.60 137.04 L 38.78 137.25 L 38.96 137.46 L 39.14 137.67 L 39.31 137.88 L 39.49 138.08 L 39.67 138.27 L 39.85 138.47 L 40.02 138.66 L 40.20 138.84 L 40.38 139.02 L 40.56 139.20 L 40.73 139.38 L 40.91 139.55 L 41.09 139.71 L 41.27 139.88 L 41.44 140.03 L 41.62 140.19 L 41.80 140.34 L 41.98 140.49 L 42.16 140.63 L 42.33 140.77 L 42.51 140.91 L 42.69 141.04 L 42.87 141.17 L 43.04 141.30 L 43.22 141.42 L 43.40 141.54 L 43.58 141.65 L 43.75 141.76 L 43.93 141.87 L 44.11 141.97 L 44.29 142.07 L 44.46 142.16 L 44.64 142.25 L 44.82 142.34 L 45.00 142.42 L 45.17 142.50 L 45.35 142.58 L 45.53 142.65 L 45.71 142.72 L 45.88 142.79 L 46.06 142.85 L 46.24 142.90 L 46.42 142.96 L 46.60 143.01 L 46.77 143.06 L 46.95 143.10 L 47.13 143.14 L 47.31 143.17 L 47.48 143.20 L 47.66 143.23 L 47.84 143.26 L 48.02 143.28 L 48.19 143.30 L 48.37 143.31 L 48.55 143.32 L 48.73 143.33 L 48.90 143.33 L 49.08 143.33 L 49.26 143.32 L 49.44 143.32 L 49.61 143.31 L 49.79 143.29 L 49.97 143.27 L 50.15 143.25 L 50.33 143.23 L 50.50 143.20 L 50.68 143.16 L 50.86 143.13 L 51.04 143.09 L 51.21 143.05 L 51.39 143.00 L 51.57 142.95 L 51.75 142.90 L 51.92 142.84 L 52.10 142.78 L 52.28 142.72 L 52.46 142.65 L 52.63 142.58 L 52.81 142.51 L 52.99 142.44 L 53.17 142.36 L 53.34 142.27 L 53.52 142.19 L 53.70 142.10 L 53.88 142.01 L 54.06 141.91 L 54.23 141.81 L 54.41 141.71 L 54.59 141.61 L 54.77 141.50 L 54.94 141.39 L 55.12 141.27 L 55.30 141.15 L 55.48 141.03 L 55.65 140.91 L 55.83 140.78 L 56.01 140.66 L 56.19 140.52 L 56.36 140.39 L 56.54 140.25 L 56.72 140.11 L 56.90 139.96 L 57.07 139.82 L 57.25 139.67 L 57.43 139.51 L 57.61 139.36 L 57.78 139.20 L 57.96 139.04 L 58.14 138.88 L 58.32 138.71 L 58.50 138.54 L 58.67 138.37 L 58.85 138.19 L 59.03 138.02 L 59.21 137.84 L 59.38 137.65 L 59.56 137.47 L 59.74 137.28 L 59.92 137.09 L 60.09 136.90 L 60.27 136.70 L 60.45 136.50 L 60.63 136.30 L 60.80 136.10 L 60.98 135.90 L 61.16 135.69 L 61.34 135.48 L 61.51 135.27 L 61.69 135.05 L 61.87 134.84 L 62.05 134.62 L 62.23 134.40 L 62.40 134.17 L 62.58 133.95 L 62.76 133.72 L 62.94 133.49 L 63.11 133.26 L 63.29 133.02 L 63.47 132.78 L 63.65 132.55 L 63.82 132.31 L 64.00 132.06 L 64.18 131.82 L 64.36 131.57 L 64.53 131.32 L 64.71 131.07 L 64.89 130.82 L 65.07 130.57 L 65.24 130.31 L 65.42 130.05 L 65.60 129.79 L 65.78 129.53 L 65.95 129.27 L 66.13 129.01 L 66.31 128.74 L 66.49 128.47 L 66.67 128.20 L 66.84 127.93 L 67.02 127.66 L 67.20 127.38 L 67.38 127.11 L 67.55 126.83 L 67.73 126.55 L 67.91 126.27 L 68.09 125.99 L 68.26 125.70 L 68.44 125.42 L 68.62 125.13 L 68.80 124.85 L 68.97 124.56 L 69.15 124.27 L 69.33 123.98 L 69.51 123.69 L 69.68 123.39 L 69.86 123.10 L 70.04 122.80 L 70.22 122.50 L 70.40 122.21 L 70.57 121.91 L 70.75 121.61 L 70.93 121.31 L 71.11 121.00 L 71.28 120.70 L 71.46 120.40 L 71.64 120.09 L 71.82 119.79 L 71.99 119.48 L 72.17 119.17 L 72.35 118.87 L 72.53 118.56 L 72.70 118.25 L 72.88 117.94 L 73.06 117.62 L 73.24 117.31 L 73.41 117.00 L 73.59 116.69 L 73.77 116.37 L 73.95 116.06 L 74.13 115.75 L 74.30 115.43 L 74.48 115.11 L 74.66 114.80 L 74.84 114.48 L 75.01 114.17 L 75.19 113.85 L 75.37 113.53 L 75.55 113.21 L 75.72 112.89 L 75.90 112.58 L 76.08 112.26 L 76.26 111.94 L 76.43 111.62 L 76.61 111.30 L 76.79 110.98 L 76.97 110.66 L 77.14 110.34 L 77.32 110.02 L 77.50 109.70 L 77.68 109.38 L 77.85 109.06 L 78.03 108.74 L 78.21 108.42 L 78.39 108.10 L 78.57 107.78 L 78.74 107.46 L 78.92 107.14 L 79.10 106.82 L 79.28 106.50 L 79.45 106.18 L 79.63 105.87 L 79.81 105.55 L 79.99 105.23 L 80.16 104.91 L 80.34 104.59 L 80.52 104.28 L 80.70 103.96 L 80.87 103.65 L 81.05 103.33 L 81.23 103.01 L 81.41 102.70 L 81.58 102.39 L 81.76 102.07 L 81.94 101.76 L 82.12 101.45 L 82.30 101.13 L 82.47 100.82 L 82.65 100.51 L 82.83 100.20 L 83.01 99.89 L 83.18 99.58 L 83.36 99.28 L 83.54 98.97 L 83.72 98.66 L 83.89 98.36 L 84.07 98.05 L 84.25 97.75 L 84.43 97.44 L 84.60 97.14 L 84.78 96.84 L 84.96 96.54 L 85.14 96.24 L 85.31 95.94 L 85.49 95.65 L 85.67 95.35 L 85.85 95.05 L 86.03 94.76 L 86.20 94.47 L 86.38 94.17 L 86.56 93.88 L 86.74 93.59 L 86.91 93.30 L 87.09 93.02 L 87.27 92.73 L 87.45 92.44 L 87.62 92.16 L 87.80 91.88 L 87.98 91.59 L 88.16 91.31 L 88.33 91.04 L 88.51 90.76 L 88.69 90.48 L 88.87 90.21 L 89.04 89.93 L 89.22 89.66 L 89.40 89.39 L 89.58 89.12 L 89.75 88.85 L 89.93 88.58 L 90.11 88.32 L 90.29 88.05 L 90.47 87.79 L 90.64 87.53 L 90.82 87.27 L 91.00 87.01 L 91.18 86.76 L 91.35 86.50 L 91.53 86.25 L 91.71 86.00 L 91.89 85.75 L 92.06 85.50 L 92.24 85.25 L 92.42 85.01 L 92.60 84.76 L 92.77 84.52 L 92.95 84.28 L 93.13 84.04 L 93.31 83.81 L 93.48 83.57 L 93.66 83.34 L 93.84 83.11 L 94.02 82.88 L 94.20 82.65 L 94.37 82.42 L 94.55 82.20 L 94.73 81.98 L 94.91 81.76 L 95.08 81.54 L 95.26 81.32 L 95.44 81.11 L 95.62 80.89 L 95.79 80.68 L 95.97 80.47 L 96.15 80.26 L 96.33 80.06 L 96.50 79.86 L 96.68 79.65 L 96.86 79.45 L 97.04 79.26 L 97.21 79.06 L 97.39 78.87 L 97.57 78.67 L 97.75 78.48 L 97.92 78.29 L 98.10 78.11 L 98.28 77.92 L 98.46 77.74 L 98.64 77.56 L 98.81 77.38 L 98.99 77.21 L 99.17 77.03 L 99.35 76.86 L 99.52 76.69 L 99.70 76.52 L 99.88 76.36 L 100.06 76.19 L 100.23 76.03 L 100.41 75.87 L 100.59 75.71 L 100.77 75.56 L 100.94 75.40 L 101.12 75.25 L 101.30 75.10 L 101.48 74.96 L 101.65 74.81 L 101.83 74.67 L 102.01 74.53 L 102.19 74.39 L 102.37 74.25 L 102.54 74.12 L 102.72 73.98 L 102.90 73.85 L 103.08 73.73 L 103.25 73.60 L 103.43 73.47 L 103.61 73.35 L 103.79 73.23 L 103.96 73.11 L 104.14 73.00 L 104.32 72.89 L 104.50 72.77 L 104.67 72.67 L 104.85 72.56 L 105.03 72.45 L 105.21 72.35 L 105.38 72.25 L 105.56 72.15 L 105.74 72.05 L 105.92 71.96 L 106.10 71.87 L 106.27 71.78 L 106.45 71.69 L 106.63 71.60 L 106.81 71.52 L 106.98 71.44 L 107.16 71.36 L 107.34 71.28 L 107.52 71.20 L 107.69 71.13 L 107.87 71.06 L 108.05 70.99 L 108.23 70.92 L 108.40 70.86 L 108.58 70.80 L 108.76 70.73 L 108.94 70.68 L 109.11 70.62 L 109.29 70.56 L 109.47 70.51 L 109.65 70.46 L 109.82 70.41 L 110.00 70.37 L 110.18 70.32 L 110.36 70.28 L 110.54 70.24 L 110.71 70.20 L 110.89 70.16 L 111.07 70.13 L 111.25 70.10 L 111.42 70.07 L 111.60 70.04 L 111.78 70.01 L 111.96 69.99 L 112.13 69.96 L 112.31 69.94 L 112.49 69.93 L 112.67 69.91 L 112.84 69.89 L 113.02 69.88 L 113.20 69.87 L 113.38 69.86 L 113.55 69.85 L 113.73 69.85 L 113.91 69.84 L 114.09 69.84 L 114.27 69.84 L 114.44 69.85 L 114.62 69.85 L 114.80 69.86 L 114.98 69.86 L 115.15 69.87 L 115.33 69.88 L 115.51 69.90 L 115.69 69.91 L 115.86 69.93 L 116.04 69.95 L 116.22 69.97 L 116.40 69.99 L 116.57 70.01 L 116.75 70.04 L 116.93 70.06 L 117.11 70.09 L 117.28 70.12 L 117.46 70.15 L 117.64 70.19 L 117.82 70.22 L 117.99 70.26 L 118.17 70.30 L 118.35 70.34 L 118.53 70.38 L 118.71 70.42 L 118.88 70.47 L 119.06 70.51 L 119.24 70.56 L 119.42 70.61 L 119.59 70.66 L 119.77 70.71 L 119.95 70.77 L 120.13 70.82 L 120.30 70.88 L 120.48 70.94 L 120.66 71.00 L 120.84 71.06 L 121.01 71.12 L 121.19 71.18 L 121.37 71.25 L 121.55 71.31 L 121.72 71.38 L 121.90 71.45 L 122.08 71.52 L 122.26 71.59 L 122.44 71.67 L 122.61 71.74 L 122.79 71.81 L 122.97 71.89 L 123.15 71.97 L 123.32 72.05 L 123.50 72.13 L 123.68 72.21 L 123.86 72.29 L 124.03 72.38 L 124.21 72.46 L 124.39 72.55 L 124.57 72.63 L 124.74 72.72 L 124.92 72.81 L 125.10 72.90 L 125.28 72.99 L 125.45 73.08 L 125.63 73.18 L 125.81 73.27 L 125.99 73.37 L 126.17 73.46 L 126.34 73.56 L 126.52 73.66 L 126.70 73.75 L 126.88 73.85 L 127.05 73.95 L 127.23 74.06 L 127.41 74.16 L 127.59 74.26 L 127.76 74.36 L 127.94 74.47 L 128.12 74.57 L 128.30 74.68 L 128.47 74.79 L 128.65 74.89 L 128.83 75.00 L 129.01 75.11 L 129.18 75.22 L 129.36 75.33 L 129.54 75.44 L 129.72 75.55 L 129.89 75.66 L 130.07 75.78 L 130.25 75.89 L 130.43 76.00 L 130.61 76.12 L 130.78 76.23 L 130.96 76.34 L 131.14 76.46 L 131.32 76.58 L 131.49 76.69 L 131.67 76.81 L 131.85 76.93 L 132.03 77.04 L 132.20 77.16 L 132.38 77.28 L 132.56 77.40 L 132.74 77.52 L 132.91 77.63 L 133.09 77.75 L 133.27 77.87 L 133.45 77.99 L 133.62 78.11 L 133.80 78.23 L 133.98 78.35 L 134.16 78.47 L 134.34 78.59 L 134.51 78.71 L 134.69 78.83 L 134.87 78.96 L 135.05 79.08 L 135.22 79.20 L 135.40 79.32 L 135.58 79.44 L 135.76 79.56 L 135.93 79.68 L 136.11 79.80 L 136.29 79.92 L 136.47 80.05 L 136.64 80.17 L 136.82 80.29 L 137.00 80.41 L 137.18 80.53 L 137.35 80.65 L 137.53 80.77 L 137.71 80.89 L 137.89 81.01 L 138.07 81.13 L 138.24 81.25 L 138.42 81.37 L 138.60 81.49 L 138.78 81.60 L 138.95 81.72 L 139.13 81.84 L 139.31 81.96 L 139.49 82.08 L 139.66 82.19 L 139.84 82.31 L 140.02 82.43 L 140.20 82.54 L 140.37 82.66 L 140.55 82.77 L 140.73 82.89 L 140.91 83.00 L 141.08 83.12 L 141.26 83.23 L 141.44 83.34 L 141.62 83.45 L 141.79 83.56 L 141.97 83.68 L 142.15 83.79 L 142.33 83.90 L 142.51 84.01 L 142.68 84.11 L 142.86 84.22 L 143.04 84.33 L 143.22 84.44 L 143.39 84.54 L 143.57 84.65 L 143.75 84.75 L 143.93 84.86 L 144.10 84.96 L 144.28 85.06 L 144.46 85.17 L 144.64 85.27 L 144.81 85.37 L 144.99 85.47 L 145.17 85.57 L 145.35 85.66 L 145.52 85.76 L 145.70 85.86 L 145.88 85.95 L 146.06 86.05 L 146.24 86.14 L 146.41 86.23 L 146.59 86.33 L 146.77 86.42 L 146.95 86.51 L 147.12 86.60 L 147.30 86.68 L 147.48 86.77 L 147.66 86.86 L 147.83 86.94 L 148.01 87.03 L 148.19 87.11 L 148.37 87.19 L 148.54 87.27 L 148.72 87.35 L 148.90 87.43 L 149.08 87.51 L 149.25 87.59 L 149.43 87.67 L 149.61 87.74 L 149.79 87.81 L 149.96 87.89 L 150.14 87.96 L 150.32 88.03 L 150.50 88.10 L 150.68 88.17 L 150.85 88.23 L 151.03 88.30 L 151.21 88.37 L 151.39 88.43 L 151.56 88.49 L 151.74 88.55 L 151.92 88.61 L 152.10 88.67 L 152.27 88.73 L 152.45 88.79 L 152.63 88.84 L 152.81 88.90 L 152.98 88.95 L 153.16 89.00 L 153.34 89.05 L 153.52 89.10 L 153.69 89.15 L 153.87 89.20 L 154.05 89.24 L 154.23 89.29 L 154.41 89.33 L 154.58 89.37 L 154.76 89.41 L 154.94 89.45 L 155.12 89.49 L 155.29 89.52 L 155.47 89.56 L 155.65 89.59 L 155.83 89.62 L 156.00 89.66 L 156.18 89.69 L 156.36 89.71 L 156.54 89.74 L 156.71 89.77 L 156.89 89.79 L 157.07 89.81 L 157.25 89.84 L 157.42 89.86 L 157.60 89.88 L 157.78 89.89 L 157.96 89.91 L 158.14 89.92 L 158.31 89.94 L 158.49 89.95 L 158.67 89.96 L 158.85 89.97 L 159.02 89.98 L 159.20 89.99 L 159.38 89.99 L 159.56 90.00 L 159.73 90.00 L 159.91 90.00 L 160.09 90.00 L 160.27 90.00 L 160.44 90.00 L 160.62 89.99 L 160.80 89.99 L 160.98 89.98 L 161.15 89.97 L 161.33 89.96 L 161.51 89.95 L 161.69 89.94 L 161.86 89.92 L 162.04 89.91 L 162.22 89.89 L 162.40 89.88 L 162.58 89.86 L 162.75 89.84 L 162.93 89.81 L 163.11 89.79 L 163.29 89.77 L 163.46 89.74 L 163.64 89.71 L 163.82 89.69 L 164.00 89.66 L 164.17 89.62 L 164.35 89.59 L 164.53 89.56 L 164.71 89.52 L 164.88 89.49 L 165.06 89.45 L 165.24 89.41 L 165.42 89.37 L 165.59 89.33 L 165.77 89.29 L 165.95 89.24 L 166.13 89.20 L 166.31 89.15 L 166.48 89.10 L 166.66 89.05 L 166.84 89.00 L 167.02 88.95 L 167.19 88.90 L 167.37 88.84 L 167.55 88.79 L 167.73 88.73 L 167.90 88.67 L 168.08 88.61 L 168.26 88.55 L 168.44 88.49 L 168.61 88.43 L 168.79 88.37 L 168.97 88.30 L 169.15 88.23 L 169.32 88.17 L 169.50 88.10 L 169.68 88.03 L 169.86 87.96 L 170.04 87.89 L 170.21 87.81 L 170.39 87.74 L 170.57 87.67 L 170.75 87.59 L 170.92 87.51 L 171.10 87.43 L 171.28 87.35 L 171.46 87.27 L 171.63 87.19 L 171.81 87.11 L 171.99 87.03 L 172.17 86.94 L 172.34 86.86 L 172.52 86.77 L 172.70 86.68 L 172.88 86.60 L 173.05 86.51 L 173.23 86.42 L 173.41 86.33 L 173.59 86.23 L 173.76 86.14 L 173.94 86.05 L 174.12 85.95 L 174.30 85.86 L 174.48 85.76 L 174.65 85.66 L 174.83 85.57 L 175.01 85.47 L 175.19 85.37 L 175.36 85.27 L 175.54 85.17 L 175.72 85.06 L 175.90 84.96 L 176.07 84.86 L 176.25 84.75 L 176.43 84.65 L 176.61 84.54 L 176.78 84.44 L 176.96 84.33 L 177.14 84.22 L 177.32 84.11 L 177.49 84.01 L 177.67 83.90 L 177.85 83.79 L 178.03 83.68 L 178.21 83.56 L 178.38 83.45 L 178.56 83.34 L 178.74 83.23 L 178.92 83.12 L 179.09 83.00 L 179.27 82.89 L 179.45 82.77 L 179.63 82.66 L 179.80 82.54 L 179.98 82.43 L 180.16 82.31 L 180.34 82.19 L 180.51 82.08 L 180.69 81.96 L 180.87 81.84 L 181.05 81.72 L 181.22 81.60 L 181.40 81.49 L 181.58 81.37 L 181.76 81.25 L 181.93 81.13 L 182.11 81.01 L 182.29 80.89 L 182.47 80.77 L 182.65 80.65 L 182.82 80.53 L 183.00 80.41 L 183.18 80.29 L 183.36 80.17 L 183.53 80.05 L 183.71 79.92 L 183.89 79.80 L 184.07 79.68 L 184.24 79.56 L 184.42 79.44 L 184.60 79.32 L 184.78 79.20 L 184.95 79.08 L 185.13 78.96 L 185.31 78.83 L 185.49 78.71 L 185.66 78.59 L 185.84 78.47 L 186.02 78.35 L 186.20 78.23 L 186.38 78.11 L 186.55 77.99 L 186.73 77.87 L 186.91 77.75 L 187.09 77.63 L 187.26 77.52 L 187.44 77.40 L 187.62 77.28 L 187.80 77.16 L 187.97 77.04 L 188.15 76.93 L 188.33 76.81 L 188.51 76.69 L 188.68 76.58 L 188.86 76.46 L 189.04 76.34 L 189.22 76.23 L 189.39 76.12 L 189.57 76.00 L 189.75 75.89 L 189.93 75.78 L 190.11 75.66 L 190.28 75.55 L 190.46 75.44 L 190.64 75.33 L 190.82 75.22 L 190.99 75.11 L 191.17 75.00 L 191.35 74.89 L 191.53 74.79 L 191.70 74.68 L 191.88 74.57 L 192.06 74.47 L 192.24 74.36 L 192.41 74.26 L 192.59 74.16 L 192.77 74.06 L 192.95 73.95 L 193.12 73.85 L 193.30 73.75 L 193.48 73.66 L 193.66 73.56 L 193.83 73.46 L 194.01 73.37 L 194.19 73.27 L 194.37 73.18 L 194.55 73.08 L 194.72 72.99 L 194.90 72.90 L 195.08 72.81 L 195.26 72.72 L 195.43 72.63 L 195.61 72.55 L 195.79 72.46 L 195.97 72.38 L 196.14 72.29 L 196.32 72.21 L 196.50 72.13 L 196.68 72.05 L 196.85 71.97 L 197.03 71.89 L 197.21 71.81 L 197.39 71.74 L 197.56 71.67 L 197.74 71.59 L 197.92 71.52 L 198.10 71.45 L 198.28 71.38 L 198.45 71.31 L 198.63 71.25 L 198.81 71.18 L 198.99 71.12 L 199.16 71.06 L 199.34 71.00 L 199.52 70.94 L 199.70 70.88 L 199.87 70.82 L 200.05 70.77 L 200.23 70.71 L 200.41 70.66 L 200.58 70.61 L 200.76 70.56 L 200.94 70.51 L 201.12 70.47 L 201.29 70.42 L 201.47 70.38 L 201.65 70.34 L 201.83 70.30 L 202.01 70.26 L 202.18 70.22 L 202.36 70.19 L 202.54 70.15 L 202.72 70.12 L 202.89 70.09 L 203.07 70.06 L 203.25 70.04 L 203.43 70.01 L 203.60 69.99 L 203.78 69.97 L 203.96 69.95 L 204.14 69.93 L 204.31 69.91 L 204.49 69.90 L 204.67 69.88 L 204.85 69.87 L 205.02 69.86 L 205.20 69.86 L 205.38 69.85 L 205.56 69.85 L 205.73 69.84 L 205.91 69.84 L 206.09 69.84 L 206.27 69.85 L 206.45 69.85 L 206.62 69.86 L 206.80 69.87 L 206.98 69.88 L 207.16 69.89 L 207.33 69.91 L 207.51 69.93 L 207.69 69.94 L 207.87 69.96 L 208.04 69.99 L 208.22 70.01 L 208.40 70.04 L 208.58 70.07 L 208.75 70.10 L 208.93 70.13 L 209.11 70.16 L 209.29 70.20 L 209.46 70.24 L 209.64 70.28 L 209.82 70.32 L 210.00 70.37 L 210.18 70.41 L 210.35 70.46 L 210.53 70.51 L 210.71 70.56 L 210.89 70.62 L 211.06 70.68 L 211.24 70.73 L 211.42 70.80 L 211.60 70.86 L 211.77 70.92 L 211.95 70.99 L 212.13 71.06 L 212.31 71.13 L 212.48 71.20 L 212.66 71.28 L 212.84 71.36 L 213.02 71.44 L 213.19 71.52 L 213.37 71.60 L 213.55 71.69 L 213.73 71.78 L 213.90 71.87 L 214.08 71.96 L 214.26 72.05 L 214.44 72.15 L 214.62 72.25 L 214.79 72.35 L 214.97 72.45 L 215.15 72.56 L 215.33 72.67 L 215.50 72.77 L 215.68 72.89 L 215.86 73.00 L 216.04 73.11 L 216.21 73.23 L 216.39 73.35 L 216.57 73.47 L 216.75 73.60 L 216.92 73.73 L 217.10 73.85 L 217.28 73.98 L 217.46 74.12 L 217.63 74.25 L 217.81 74.39 L 217.99 74.53 L 218.17 74.67 L 218.35 74.81 L 218.52 74.96 L 218.70 75.10 L 218.88 75.25 L 219.06 75.40 L 219.23 75.56 L 219.41 75.71 L 219.59 75.87 L 219.77 76.03 L 219.94 76.19 L 220.12 76.36 L 220.30 76.52 L 220.48 76.69 L 220.65 76.86 L 220.83 77.03 L 221.01 77.21 L 221.19 77.38 L 221.36 77.56 L 221.54 77.74 L 221.72 77.92 L 221.90 78.11 L 222.08 78.29 L 222.25 78.48 L 222.43 78.67 L 222.61 78.87 L 222.79 79.06 L 222.96 79.26 L 223.14 79.45 L 223.32 79.65 L 223.50 79.86 L 223.67 80.06 L 223.85 80.26 L 224.03 80.47 L 224.21 80.68 L 224.38 80.89 L 224.56 81.11 L 224.74 81.32 L 224.92 81.54 L 225.09 81.76 L 225.27 81.98 L 225.45 82.20 L 225.63 82.42 L 225.80 82.65 L 225.98 82.88 L 226.16 83.11 L 226.34 83.34 L 226.52 83.57 L 226.69 83.81 L 226.87 84.04 L 227.05 84.28 L 227.23 84.52 L 227.40 84.76 L 227.58 85.01 L 227.76 85.25 L 227.94 85.50 L 228.11 85.75 L 228.29 86.00 L 228.47 86.25 L 228.65 86.50 L 228.82 86.76 L 229.00 87.01 L 229.18 87.27 L 229.36 87.53 L 229.53 87.79 L 229.71 88.05 L 229.89 88.32 L 230.07 88.58 L 230.25 88.85 L 230.42 89.12 L 230.60 89.39 L 230.78 89.66 L 230.96 89.93 L 231.13 90.21 L 231.31 90.48 L 231.49 90.76 L 231.67 91.04 L 231.84 91.31 L 232.02 91.59 L 232.20 91.88 L 232.38 92.16 L 232.55 92.44 L 232.73 92.73 L 232.91 93.02 L 233.09 93.30 L 233.26 93.59 L 233.44 93.88 L 233.62 94.17 L 233.80 94.47 L 233.97 94.76 L 234.15 95.05 L 234.33 95.35 L 234.51 95.65 L 234.69 95.94 L 234.86 96.24 L 235.04 96.54 L 235.22 96.84 L 235.40 97.14 L 235.57 97.44 L 235.75 97.75 L 235.93 98.05 L 236.11 98.36 L 236.28 98.66 L 236.46 98.97 L 236.64 99.28 L 236.82 99.58 L 236.99 99.89 L 237.17 100.20 L 237.35 100.51 L 237.53 100.82 L 237.70 101.13 L 237.88 101.45 L 238.06 101.76 L 238.24 102.07 L 238.42 102.39 L 238.59 102.70 L 238.77 103.01 L 238.95 103.33 L 239.13 103.65 L 239.30 103.96 L 239.48 104.28 L 239.66 104.59 L 239.84 104.91 L 240.01 105.23 L 240.19 105.55 L 240.37 105.87 L 240.55 106.18 L 240.72 106.50 L 240.90 106.82 L 241.08 107.14 L 241.26 107.46 L 241.43 107.78 L 241.61 108.10 L 241.79 108.42 L 241.97 108.74 L 242.15 109.06 L 242.32 109.38 L 242.50 109.70 L 242.68 110.02 L 242.86 110.34 L 243.03 110.66 L 243.21 110.98 L 243.39 111.30 L 243.57 111.62 L 243.74 111.94 L 243.92 112.26 L 244.10 112.58 L 244.28 112.89 L 244.45 113.21 L 244.63 113.53 L 244.81 113.85 L 244.99 114.17 L 245.16 114.48 L 245.34 114.80 L 245.52 115.11 L 245.70 115.43 L 245.87 115.75 L 246.05 116.06 L 246.23 116.37 L 246.41 116.69 L 246.59 117.00 L 246.76 117.31 L 246.94 117.62 L 247.12 117.94 L 247.30 118.25 L 247.47 118.56 L 247.65 118.87 L 247.83 119.17 L 248.01 119.48 L 248.18 119.79 L 248.36 120.09 L 248.54 120.40 L 248.72 120.70 L 248.89 121.00 L 249.07 121.31 L 249.25 121.61 L 249.43 121.91 L 249.60 122.21 L 249.78 122.50 L 249.96 122.80 L 250.14 123.10 L 250.32 123.39 L 250.49 123.69 L 250.67 123.98 L 250.85 124.27 L 251.03 124.56 L 251.20 124.85 L 251.38 125.13 L 251.56 125.42 L 251.74 125.70 L 251.91 125.99 L 252.09 126.27 L 252.27 126.55 L 252.45 126.83 L 252.62 127.11 L 252.80 127.38 L 252.98 127.66 L 253.16 127.93 L 253.33 128.20 L 253.51 128.47 L 253.69 128.74 L 253.87 129.01 L 254.05 129.27 L 254.22 129.53 L 254.40 129.79 L 254.58 130.05 L 254.76 130.31 L 254.93 130.57 L 255.11 130.82 L 255.29 131.07 L 255.47 131.32 L 255.64 131.57 L 255.82 131.82 L 256.00 132.06 L 256.18 132.31 L 256.35 132.55 L 256.53 132.78 L 256.71 133.02 L 256.89 133.26 L 257.06 133.49 L 257.24 133.72 L 257.42 133.95 L 257.60 134.17 L 257.77 134.40 L 257.95 134.62 L 258.13 134.84 L 258.31 135.05 L 258.49 135.27 L 258.66 135.48 L 258.84 135.69 L 259.02 135.90 L 259.20 136.10 L 259.37 136.30 L 259.55 136.50 L 259.73 136.70 L 259.91 136.90 L 260.08 137.09 L 260.26 137.28 L 260.44 137.47 L 260.62 137.65 L 260.79 137.84 L 260.97 138.02 L 261.15 138.19 L 261.33 138.37 L 261.50 138.54 L 261.68 138.71 L 261.86 138.88 L 262.04 139.04 L 262.22 139.20 L 262.39 139.36 L 262.57 139.51 L 262.75 139.67 L 262.93 139.82 L 263.10 139.96 L 263.28 140.11 L 263.46 140.25 L 263.64 140.39 L 263.81 140.52 L 263.99 140.66 L 264.17 140.78 L 264.35 140.91 L 264.52 141.03 L 264.70 141.15 L 264.88 141.27 L 265.06 141.39 L 265.23 141.50 L 265.41 141.61 L 265.59 141.71 L 265.77 141.81 L 265.94 141.91 L 266.12 142.01 L 266.30 142.10 L 266.48 142.19 L 266.66 142.27 L 266.83 142.36 L 267.01 142.44 L 267.19 142.51 L 267.37 142.58 L 267.54 142.65 L 267.72 142.72 L 267.90 142.78 L 268.08 142.84 L 268.25 142.90 L 268.43 142.95 L 268.61 143.00 L 268.79 143.05 L 268.96 143.09 L 269.14 143.13 L 269.32 143.16 L 269.50 143.20 L 269.67 143.23 L 269.85 143.25 L 270.03 143.27 L 270.21 143.29 L 270.39 143.31 L 270.56 143.32 L 270.74 143.32 L 270.92 143.33 L 271.10 143.33 L 271.27 143.33 L 271.45 143.32 L 271.63 143.31 L 271.81 143.30 L 271.98 143.28 L 272.16 143.26 L 272.34 143.23 L 272.52 143.20 L 272.69 143.17 L 272.87 143.14 L 273.05 143.10 L 273.23 143.06 L 273.40 143.01 L 273.58 142.96 L 273.76 142.90 L 273.94 142.85 L 274.12 142.79 L 274.29 142.72 L 274.47 142.65 L 274.65 142.58 L 274.83 142.50 L 275.00 142.42 L 275.18 142.34 L 275.36 142.25 L 275.54 142.16 L 275.71 142.07 L 275.89 141.97 L 276.07 141.87 L 276.25 141.76 L 276.42 141.65 L 276.60 141.54 L 276.78 141.42 L 276.96 141.30 L 277.13 141.17 L 277.31 141.04 L 277.49 140.91 L 277.67 140.77 L 277.84 140.63 L 278.02 140.49 L 278.20 140.34 L 278.38 140.19 L 278.56 140.03 L 278.73 139.88 L 278.91 139.71 L 279.09 139.55 L 279.27 139.38 L 279.44 139.20 L 279.62 139.02 L 279.80 138.84 L 279.98 138.66 L 280.15 138.47 L 280.33 138.27 L 280.51 138.08 L 280.69 137.88 L 280.86 137.67 L 281.04 137.46 L 281.22 137.25 L 281.40 137.04 L 281.57 136.82 L 281.75 136.59 L 281.93 136.37 L 282.11 136.14 L 282.29 135.90 L 282.46 135.66 L 282.64 135.42 L 282.82 135.18 L 283.00 134.93 L 283.17 134.67 L 283.35 134.42 L 283.53 134.16 L 283.71 133.89 L 283.88 133.63 L 284.06 133.35 L 284.24 133.08 L 284.42 132.80 L 284.59 132.52 L 284.77 132.23 L 284.95 131.94 L 285.13 131.65 L 285.30 131.35 L 285.48 131.05 L 285.66 130.75 L 285.84 130.44 L 286.02 130.13 L 286.19 129.82 L 286.37 129.50 L 286.55 129.18 L 286.73 128.86 L 286.90 128.53 L 287.08 128.20 L 287.26 127.86 L 287.44 127.52 L 287.61 127.18 L 287.79 126.84 L 287.97 126.49 L 288.15 126.13 L 288.32 125.78 L 288.50 125.42 L 288.68 125.06 L 288.86 124.69 L 289.03 124.32 L 289.21 123.95 L 289.39 123.58 L 289.57 123.20 L 289.74 122.82 L 289.92 122.43 L 290.10 122.05 L 290.28 121.65 L 290.46 121.26 L 290.63 120.86 L 290.81 120.46 L 290.99 120.06 L 291.17 119.65 L 291.34 119.24 L 291.52 118.83 L 291.70 118.41 L 291.88 118.00 L 292.05 117.57 L 292.23 117.15 L 292.41 116.72 L 292.59 116.29 L 292.76 115.86 L 292.94 115.42 L 293.12 114.98 L 293.30 114.54 L 293.47 114.10 L 293.65 113.65 L 293.83 113.20 L 294.01 112.75 L 294.19 112.29 L 294.36 111.83 L 294.54 111.37 L 294.72 110.91 L 294.90 110.44 L 295.07 109.97 L 295.25 109.50 L 295.43 109.03 L 295.61 108.55 L 295.78 108.08 L 295.96 107.59 L 296.14 107.11 L 296.32 106.63 L 296.49 106.14 L 296.67 105.65 L 296.85 105.15 L 297.03 104.66 L 297.20 104.16 L 297.38 103.66 L 297.56 103.16 L 297.74 102.66 L 297.91 102.15 L 298.09 101.64 L 298.27 101.13 L 298.45 100.62 L 298.63 100.11 L 298.80 99.59 L 298.98 99.07 L 299.16 98.55 L 299.34 98.03 L 299.51 97.51 L 299.69 96.98 L 299.87 96.46 L 300.05 95.93 L 300.22 95.40 L 300.40 94.86 L 300.58 94.33 L 300.76 93.79 L 300.93 93.26 L 301.11 92.72 L 301.29 92.18 L 301.47 91.63 L 301.64 91.09 L 301.82 90.55 L 302.00 90.00" fill="none" stroke="#7E8692" stroke-width="2.3" stroke-linecap="round" stroke-linejoin="round"/>
</svg>
