<svg xmlns="http://www.w3.org/2000/svg" viewBox="0 0 320 180" width="320" height="180">
  <rect width="320" height="180" fill="#F4F5F7"/>
  <path d="M 18.00 147.15 L 18.32 147.10 L 18.63 147.06 L 18.95 147.02 L 19.26 146.98 L 19.58 146.93 L 19.90 146.89 L 20.21 146.85 L 20.53 146.81 L 20.84 146.76 L 21.16 146.72 L 21.47 146.68 L 21.79 146.63 L 22.11 146.59 L 22.42 146.55 L 22.74 146.50 L 23.05 146.46 L 23.37 146.42 L 23.69 146.37 L 24.00 146.33 L 24.32 146.29 L 24.63 146.24 L 24.95 146.20 L 25.27 146.15 L 25.58 146.11 L 25.90 146.07 L 26.21 146.02 L 26.53 145.98 L 26.85 145.93 L 27.16 145.89 L 27.48 145.85 L 27.79 145.80 L 28.11 145.76 L 28.42 145.71 L 28.74 145.67 L 29.06 145.62 L 29.37 145.58 L 29.69 145.53 L 30.00 145.49 L 30.32 145.44 L 30.64 145.40 L 30.95 145.35 L 31.27 145.31 L 31.58 145.26 L 31.90 145.22 L 32.22 145.17 L 32.53 145.13 L 32.85 145.08 L 33.16 145.04 L 33.48 144.99 L 33.80 144.94 L 34.11 144.90 L 34.43 144.85 L 34.74 144.81 L 35.06 144.76 L 35.37 144.71 L 35.69 144.67 L 36.01 144.62 L 36.32 144.57 L 36.64 144.53 L 36.95 144.48 L 37.27 144.43 L 37.59 144.39 L 37.90 144.34 L 38.22 144.29 L 38.53 144.25 L 38.85 144.20 L 39.17 144.15 L 39.48 144.11 L 39.80 144.06 L 40.11 144.01 L 40.43 143.96 L 40.75 143.92 L 41.06 143.87 L 41.38 143.82 L 41.69 143.77 L 42.01 143.72 L 42.32 143.68 L 42.64 143.63 L 42.96 143.58 L 43.27 143.53 L 43.59 143.48 L 43.90 143.44 L 44.22 143.39 L 44.54 143.34 L 44.85 143.29 L 45.17 143.24 L 45.48 143.19 L 45.80 143.14 L 46.12 143.09 L 46.43 143.05 L 46.75 143.00 L 47.06 142.95 L 47.38 142.90 L 47.70 142.85 L 48.01 142.80 L 48.33 142.75 L 48.64 142.70 L 48.96 142.65 L 49.27 142.60 L 49.59 142.55 L 49.91 142.50 L 50.22 142.45 L 50.54 142.40 L 50.85 142.35 L 51.17 142.30 L 51.49 142.25 L 51.80 142.20 L 52.12 142.14 L 52.43 142.09 L 52.75 142.04 L 53.07 141.99 L 53.38 141.94 L 53.70 141.89 L 54.01 141.84 L 54.33 141.79 L 54.65 141.73 L 54.96 141.68 L 55.28 141.63 L 55.59 141.58 L 55.91 141.53 L 56.22 141.47 L 56.54 141.42 L 56.86 141.37 L 57.17 141.32 L 57.49 141.26 L 57.80 141.21 L 58.12 141.16 L 58.44 141.11 L 58.75 141.05 L 59.07 141.00 L 59.38 140.95 L 59.70 140.89 L 60.02 140.84 L 60.33 140.79 L 60.65 140.73 L 60.96 140.68 L 61.28 140.62 L 61.60 140.57 L 61.91 140.52 L 62.23 140.46 L 62.54 140.41 L 62.86 140.35 L 63.17 140.30 L 63.49 140.24 L 63.81 140.19 L 64.12 140.13 L 64.44 140.08 L 64.75 140.02 L 65.07 139.97 L 65.39 139.91 L 65.70 139.86 L 66.02 139.80 L 66.33 139.75 L 66.65 139.69 L 66.97 139.63 L 67.28 139.58 L 67.60 139.52 L 67.91 139.46 L 68.23 139.41 L 68.55 139.35 L 68.86 139.29 L 69.18 139.24 L 69.49 139.18 L 69.81 139.12 L 70.12 139.07 L 70.44 139.01 L 70.76 138.95 L 71.07 138.89 L 71.39 138.83 L 71.70 138.78 L 72.02 138.72 L 72.34 138.66 L 72.65 138.60 L 72.97 138.54 L 73.28 138.48 L 73.60 138.42 L 73.92 138.37 L 74.23 138.31 L 74.55 138.25 L 74.86 138.19 L 75.18 138.13 L 75.49 138.07 L 75.81 138.01 L 76.13 137.95 L 76.44 137.89 L 76.76 137.83 L 77.07 137.77 L 77.39 137.71 L 77.71 137.64 L 78.02 137.58 L 78.34 137.52 L 78.65 137.46 L 78.97 137.40 L 79.29 137.34 L 79.60 137.28 L 79.92 137.21 L 80.23 137.15 L 80.55 137.09 L 80.87 137.03 L 81.18 136.96 L 81.50 136.90 L 81.81 136.84 L 82.13 136.78 L 82.44 136.71 L 82.76 136.65 L 83.08 136.58 L 83.39 136.52 L 83.71 136.46 L 84.02 136.39 L 84.34 136.33 L 84.66 136.26 L 84.97 136.20 L 85.29 136.13 L 85.60 136.07 L 85.92 136.00 L 86.24 135.94 L 86.55 135.87 L 86.87 135.81 L 87.18 135.74 L 87.50 135.67 L 87.82 135.61 L 88.13 135.54 L 88.45 135.47 L 88.76 135.41 L 89.08 135.34 L 89.39 135.27 L 89.71 135.21 L 90.03 135.14 L 90.34 135.07 L 90.66 135.00 L 90.97 134.93 L 91.29 134.86 L 91.61 134.80 L 91.92 134.73 L 92.24 134.66 L 92.55 134.59 L 92.87 134.52 L 93.19 134.45 L 93.50 134.38 L 93.82 134.31 L 94.13 134.24 L 94.45 134.17 L 94.77 134.09 L 95.08 134.02 L 95.40 133.95 L 95.71 133.88 L 96.03 133.81 L 96.34 133.74 L 96.66 133.66 L 96.98 133.59 L 97.29 133.52 L 97.61 133.44 L 97.92 133.37 L 98.24 133.30 L 98.56 133.22 L 98.87 133.15 L 99.19 133.07 L 99.50 133.00 L 99.82 132.93 L 100.14 132.85 L 100.45 132.77 L 100.77 132.70 L 101.08 132.62 L 101.40 132.55 L 101.72 132.47 L 102.03 132.39 L 102.35 132.32 L 102.66 132.24 L 102.98 132.16 L 103.29 132.08 L 103.61 132.00 L 103.93 131.93 L 104.24 131.85 L 104.56 131.77 L 104.87 131.69 L 105.19 131.61 L 105.51 131.53 L 105.82 131.45 L 106.14 131.37 L 106.45 131.29 L 106.77 131.20 L 107.09 131.12 L 107.40 131.04 L 107.72 130.96 L 108.03 130.88 L 108.35 130.79 L 108.67 130.71 L 108.98 130.63 L 109.30 130.54 L 109.61 130.46 L 109.93 130.37 L 110.24 130.29 L 110.56 130.20 L 110.88 130.12 L 111.19 130.03 L 111.51 129.94 L 111.82 129.86 L 112.14 129.77 L 112.46 129.68 L 112.77 129.59 L 113.09 129.51 L 113.40 129.42 L 113.72 129.33 L 114.04 129.24 L 114.35 129.15 L 114.67 129.06 L 114.98 128.97 L 115.30 128.87 L 115.62 128.78 L 115.93 128.69 L 116.25 128.60 L 116.56 128.50 L 116.88 128.41 L 117.19 128.32 L 117.51 128.22 L 117.83 128.13 L 118.14 128.03 L 118.46 127.94 L 118.77 127.84 L 119.09 127.74 L 119.41 127.65 L 119.72 127.55 L 120.04 127.45 L 120.35 127.35 L 120.67 127.25 L 120.99 127.15 L 121.30 127.05 L 121.62 126.95 L 121.93 126.85 L 122.25 126.75 L 122.57 126.64 L 122.88 126.54 L 123.20 126.44 L 123.51 126.33 L 123.83 126.23 L 124.14 126.12 L 124.46 126.01 L 124.78 125.91 L 125.09 125.80 L 125.41 125.69 L 125.72 125.58 L 126.04 125.47 L 126.36 125.36 L 126.67 125.25 L 126.99 125.14 L 127.30 125.03 L 127.62 124.91 L 127.94 124.80 L 128.25 124.68 L 128.57 124.57 L 128.88 124.45 L 129.20 124.34 L 129.52 124.22 L 129.83 124.10 L 130.15 123.98 L 130.46 123.86 L 130.78 123.74 L 131.09 123.62 L 131.41 123.49 L 131.73 123.37 L 132.04 123.25 L 132.36 123.12 L 132.67 122.99 L 132.99 122.87 L 133.31 122.74 L 133.62 122.61 L 133.94 122.48 L 134.25 122.34 L 134.57 122.21 L 134.89 122.08 L 135.20 121.94 L 135.52 121.81 L 135.83 121.67 L 136.15 121.53 L 136.46 121.39 L 136.78 121.25 L 137.10 121.11 L 137.41 120.96 L 137.73 120.82 L 138.04 120.67 L 138.36 120.52 L 138.68 120.37 L 138.99 120.22 L 139.31 120.07 L 139.62 119.92 L 139.94 119.76 L 140.26 119.61 L 140.57 119.45 L 140.89 119.29 L 141.20 119.12 L 141.52 118.96 L 141.84 118.79 L 142.15 118.63 L 142.47 118.46 L 142.78 118.28 L 143.10 118.11 L 143.41 117.93 L 143.73 117.76 L 144.05 117.57 L 144.36 117.39 L 144.68 117.21 L 144.99 117.02 L 145.31 116.83 L 145.63 116.63 L 145.94 116.44 L 146.26 116.24 L 146.57 116.03 L 146.89 115.83 L 147.21 115.62 L 147.52 115.41 L 147.84 115.19 L 148.15 114.97 L 148.47 114.75 L 148.79 114.52 L 149.10 114.29 L 149.42 114.05 L 149.73 113.81 L 150.05 113.56 L 150.36 113.31 L 150.68 113.05 L 151.00 112.79 L 151.31 112.52 L 151.63 112.24 L 151.94 111.96 L 152.26 111.67 L 152.58 111.37 L 152.89 111.06 L 153.21 110.74 L 153.52 110.42 L 153.84 110.08 L 154.16 109.73 L 154.47 109.37 L 154.79 108.99 L 155.10 108.60 L 155.42 108.19 L 155.74 107.76 L 156.05 107.31 L 156.37 106.84 L 156.68 106.34 L 157.00 105.80 L 157.31 105.22 L 157.63 104.60 L 157.95 103.92 L 158.26 103.17 L 158.58 102.32 L 158.89 101.33 L 159.21 100.12 L 159.53 98.54 L 159.84 95.92 L 160.16 84.08 L 160.47 81.46 L 160.79 79.88 L 161.11 78.67 L 161.42 77.68 L 161.74 76.83 L 162.05 76.08 L 162.37 75.40 L 162.69 74.78 L 163.00 74.20 L 163.32 73.66 L 163.63 73.16 L 163.95 72.69 L 164.26 72.24 L 164.58 71.81 L 164.90 71.40 L 165.21 71.01 L 165.53 70.63 L 165.84 70.27 L 166.16 69.92 L 166.48 69.58 L 166.79 69.26 L 167.11 68.94 L 167.42 68.63 L 167.74 68.33 L 168.06 68.04 L 168.37 67.76 L 168.69 67.48 L 169.00 67.21 L 169.32 66.95 L 169.64 66.69 L 169.95 66.44 L 170.27 66.19 L 170.58 65.95 L 170.90 65.71 L 171.21 65.48 L 171.53 65.25 L 171.85 65.03 L 172.16 64.81 L 172.48 64.59 L 172.79 64.38 L 173.11 64.17 L 173.43 63.97 L 173.74 63.76 L 174.06 63.56 L 174.37 63.37 L 174.69 63.17 L 175.01 62.98 L 175.32 62.79 L 175.64 62.61 L 175.95 62.43 L 176.27 62.24 L 176.59 62.07 L 176.90 61.89 L 177.22 61.72 L 177.53 61.54 L 177.85 61.37 L 178.16 61.21 L 178.48 61.04 L 178.80 60.88 L 179.11 60.71 L 179.43 60.55 L 179.74 60.39 L 180.06 60.24 L 180.38 60.08 L 180.69 59.93 L 181.01 59.78 L 181.32 59.63 L 181.64 59.48 L 181.96 59.33 L 182.27 59.18 L 182.59 59.04 L 182.90 58.89 L 183.22 58.75 L 183.54 58.61 L 183.85 58.47 L 184.17 58.33 L 184.48 58.19 L 184.80 58.06 L 185.11 57.92 L 185.43 57.79 L 185.75 57.66 L 186.06 57.52 L 186.38 57.39 L 186.69 57.26 L 187.01 57.13 L 187.33 57.01 L 187.64 56.88 L 187.96 56.75 L 188.27 56.63 L 188.59 56.51 L 188.91 56.38 L 189.22 56.26 L 189.54 56.14 L 189.85 56.02 L 190.17 55.90 L 190.48 55.78 L 190.80 55.66 L 191.12 55.55 L 191.43 55.43 L 191.75 55.32 L 192.06 55.20 L 192.38 55.09 L 192.70 54.97 L 193.01 54.86 L 193.33 54.75 L 193.64 54.64 L 193.96 54.53 L 194.28 54.42 L 194.59 54.31 L 194.91 54.20 L 195.22 54.09 L 195.54 53.99 L 195.86 53.88 L 196.17 53.77 L 196.49 53.67 L 196.80 53.56 L 197.12 53.46 L 197.43 53.36 L 197.75 53.25 L 198.07 53.15 L 198.38 53.05 L 198.70 52.95 L 199.01 52.85 L 199.33 52.75 L 199.65 52.65 L 199.96 52.55 L 200.28 52.45 L 200.59 52.35 L 200.91 52.26 L 201.23 52.16 L 201.54 52.06 L 201.86 51.97 L 202.17 51.87 L 202.49 51.78 L 202.81 51.68 L 203.12 51.59 L 203.44 51.50 L 203.75 51.40 L 204.07 51.31 L 204.38 51.22 L 204.70 51.13 L 205.02 51.03 L 205.33 50.94 L 205.65 50.85 L 205.96 50.76 L 206.28 50.67 L 206.60 50.58 L 206.91 50.49 L 207.23 50.41 L 207.54 50.32 L 207.86 50.23 L 208.18 50.14 L 208.49 50.06 L 208.81 49.97 L 209.12 49.88 L 209.44 49.80 L 209.76 49.71 L 210.07 49.63 L 210.39 49.54 L 210.70 49.46 L 211.02 49.37 L 211.33 49.29 L 211.65 49.21 L 211.97 49.12 L 212.28 49.04 L 212.60 48.96 L 212.91 48.88 L 213.23 48.80 L 213.55 48.71 L 213.86 48.63 L 214.18 48.55 L 214.49 48.47 L 214.81 48.39 L 215.13 48.31 L 215.44 48.23 L 215.76 48.15 L 216.07 48.07 L 216.39 48.00 L 216.71 47.92 L 217.02 47.84 L 217.34 47.76 L 217.65 47.68 L 217.97 47.61 L 218.28 47.53 L 218.60 47.45 L 218.92 47.38 L 219.23 47.30 L 219.55 47.23 L 219.86 47.15 L 220.18 47.07 L 220.50 47.00 L 220.81 46.93 L 221.13 46.85 L 221.44 46.78 L 221.76 46.70 L 222.08 46.63 L 222.39 46.56 L 222.71 46.48 L 223.02 46.41 L 223.34 46.34 L 223.66 46.26 L 223.97 46.19 L 224.29 46.12 L 224.60 46.05 L 224.92 45.98 L 225.23 45.91 L 225.55 45.83 L 225.87 45.76 L 226.18 45.69 L 226.50 45.62 L 226.81 45.55 L 227.13 45.48 L 227.45 45.41 L 227.76 45.34 L 228.08 45.27 L 228.39 45.20 L 228.71 45.14 L 229.03 45.07 L 229.34 45.00 L 229.66 44.93 L 229.97 44.86 L 230.29 44.79 L 230.61 44.73 L 230.92 44.66 L 231.24 44.59 L 231.55 44.53 L 231.87 44.46 L 232.18 44.39 L 232.50 44.33 L 232.82 44.26 L 233.13 44.19 L 233.45 44.13 L 233.76 44.06 L 234.08 44.00 L 234.40 43.93 L 234.71 43.87 L 235.03 43.80 L 235.34 43.74 L 235.66 43.67 L 235.98 43.61 L 236.29 43.54 L 236.61 43.48 L 236.92 43.42 L 237.24 43.35 L 237.56 43.29 L 237.87 43.22 L 238.19 43.16 L 238.50 43.10 L 238.82 43.04 L 239.13 42.97 L 239.45 42.91 L 239.77 42.85 L 240.08 42.79 L 240.40 42.72 L 240.71 42.66 L 241.03 42.60 L 241.35 42.54 L 241.66 42.48 L 241.98 42.42 L 242.29 42.36 L 242.61 42.29 L 242.93 42.23 L 243.24 42.17 L 243.56 42.11 L 243.87 42.05 L 244.19 41.99 L 244.51 41.93 L 244.82 41.87 L 245.14 41.81 L 245.45 41.75 L 245.77 41.69 L 246.08 41.63 L 246.40 41.58 L 246.72 41.52 L 247.03 41.46 L 247.35 41.40 L 247.66 41.34 L 247.98 41.28 L 248.30 41.22 L 248.61 41.17 L 248.93 41.11 L 249.24 41.05 L 249.56 40.99 L 249.88 40.93 L 250.19 40.88 L 250.51 40.82 L 250.82 40.76 L 251.14 40.71 L 251.45 40.65 L 251.77 40.59 L 252.09 40.54 L 252.40 40.48 L 252.72 40.42 L 253.03 40.37 L 253.35 40.31 L 253.67 40.25 L 253.98 40.20 L 254.30 40.14 L 254.61 40.09 L 254.93 40.03 L 255.25 39.98 L 255.56 39.92 L 255.88 39.87 L 256.19 39.81 L 256.51 39.76 L 256.83 39.70 L 257.14 39.65 L 257.46 39.59 L 257.77 39.54 L 258.09 39.48 L 258.40 39.43 L 258.72 39.38 L 259.04 39.32 L 259.35 39.27 L 259.67 39.21 L 259.98 39.16 L 260.30 39.11 L 260.62 39.05 L 260.93 39.00 L 261.25 38.95 L 261.56 38.89 L 261.88 38.84 L 262.20 38.79 L 262.51 38.74 L 262.83 38.68 L 263.14 38.63 L 263.46 38.58 L 263.78 38.53 L 264.09 38.47 L 264.41 38.42 L 264.72 38.37 L 265.04 38.32 L 265.35 38.27 L 265.67 38.21 L 265.99 38.16 L 266.30 38.11 L 266.62 38.06 L 266.93 38.01 L 267.25 37.96 L 267.57 37.91 L 267.88 37.86 L 268.20 37.80 L 268.51 37.75 L 268.83 37.70 L 269.15 37.65 L 269.46 37.60 L 269.78 37.55 L 270.09 37.50 L 270.41 37.45 L 270.73 37.40 L 271.04 37.35 L 271.36 37.30 L 271.67 37.25 L 271.99 37.20 L 272.30 37.15 L 272.62 37.10 L 272.94 37.05 L 273.25 37.00 L 273.57 36.95 L 273.88 36.91 L 274.20 36.86 L 274.52 36.81 L 274.83 36.76 L 275.15 36.71 L 275.46 36.66 L 275.78 36.61 L 276.10 36.56 L 276.41 36.52 L 276.73 36.47 L 277.04 36.42 L 277.36 36.37 L 277.68 36.32 L 277.99 36.28 L 278.31 36.23 L 278.62 36.18 L 278.94 36.13 L 279.25 36.08 L 279.57 36.04 L 279.89 35.99 L 280.20 35.94 L 280.52 35.89 L 280.83 35.85 L 281.15 35.80 L 281.47 35.75 L 281.78 35.71 L 282.10 35.66 L 282.41 35.61 L 282.73 35.57 L 283.05 35.52 L 283.36 35.47 L 283.68 35.43 L 283.99 35.38 L 284.31 35.33 L 284.63 35.29 L 284.94 35.24 L 285.26 35.19 L 285.57 35.15 L 285.89 35.10 L 286.20 35.06 L 286.52 35.01 L 286.84 34.96 L 287.15 34.92 L 287.47 34.87 L 287.78 34.83 L 288.10 34.78 L 288.42 34.74 L 288.73 34.69 L 289.05 34.65 L 289.36 34.60 L 289.68 34.56 L 290.00 34.51 L 290.31 34.47 L 290.63 34.42 L 290.94 34.38 L 291.26 34.33 L 291.58 34.29 L 291.89 34.24 L 292.21 34.20 L 292.52 34.15 L 292.84 34.11 L 293.15 34.07 L 293.47 34.02 L 293.79 33.98 L 294.10 33.93 L 294.42 33.89 L 294.73 33.85 L 295.05 33.80 L 295.37 33.76 L 295.68 33.71 L 296.00 33.67 L 296.31 33.63 L 296.63 33.58 L 296.95 33.54 L 297.26 33.50 L 297.58 33.45 L 297.89 33.41 L 298.21 33.37 L 298.53 33.32 L 298.84 33.28 L 299.16 33.24 L 299.47 33.19 L 299.79 33.15 L 300.10 33.11 L 300.42 33.07 L 300.74 33.02 L 301.05 32.98 L 301.37 32.94 L 301.68 32.90 L 302.00 32.85" fill="none" stroke="#7E8692" stroke-width="2.3" stroke-linecap="round" stroke-linejoin="round"/>
</svg>
