<svg xmlns="http://www.w3.org/2000/svg" viewBox="0 0 320 180" width="320" height="180">
  <rect width="320" height="180" fill="#F4F5F7"/>
  <path d="M 18.00 138.49 L 18.20 138.38 L 18.41 138.27 L 18.61 138.17 L 18.81 138.06 L 19.02 137.95 L 19.22 137.84 L 19.42 137.74 L 19.62 137.63 L 19.83 137.53 L 20.03 137.42 L 20.23 137.32 L 20.44 137.21 L 20.64 137.11 L 20.84 137.01 L 21.05 136.91 L 21.25 136.81 L 21.45 136.71 L 21.65 136.61 L 21.86 136.51 L 22.06 136.41 L 22.26 136.31 L 22.47 136.21 L 22.67 136.12 L 22.87 136.02 L 23.08 135.93 L 23.28 135.83 L 23.48 135.74 L 23.68 135.64 L 23.89 135.55 L 24.09 135.46 L 24.29 135.37 L 24.50 135.28 L 24.70 135.19 L 24.90 135.10 L 25.11 135.01 L 25.31 134.92 L 25.51 134.83 L 25.71 134.74 L 25.92 134.66 L 26.12 134.57 L 26.32 134.48 L 26.53 134.40 L 26.73 134.31 L 26.93 134.23 L 27.14 134.15 L 27.34 134.06 L 27.54 133.98 L 27.74 133.90 L 27.95 133.82 L 28.15 133.74 L 28.35 133.66 L 28.56 133.58 L 28.76 133.50 L 28.96 133.43 L 29.17 133.35 L 29.37 133.27 L 29.57 133.20 L 29.77 133.12 L 29.98 133.05 L 30.18 132.97 L 30.38 132.90 L 30.59 132.83 L 30.79 132.75 L 30.99 132.68 L 31.20 132.61 L 31.40 132.54 L 31.60 132.47 L 31.80 132.40 L 32.01 132.33 L 32.21 132.27 L 32.41 132.20 L 32.62 132.13 L 32.82 132.07 L 33.02 132.00 L 33.23 131.94 L 33.43 131.87 L 33.63 131.81 L 33.83 131.74 L 34.04 131.68 L 34.24 131.62 L 34.44 131.56 L 34.65 131.50 L 34.85 131.44 L 35.05 131.38 L 35.26 131.32 L 35.46 131.26 L 35.66 131.20 L 35.86 131.14 L 36.07 131.09 L 36.27 131.03 L 36.47 130.98 L 36.68 130.92 L 36.88 130.87 L 37.08 130.81 L 37.29 130.76 L 37.49 130.71 L 37.69 130.65 L 37.89 130.60 L 38.10 130.55 L 38.30 130.50 L 38.50 130.45 L 38.71 130.40 L 38.91 130.35 L 39.11 130.30 L 39.32 130.26 L 39.52 130.21 L 39.72 130.16 L 39.92 130.12 L 40.13 130.07 L 40.33 130.03 L 40.53 129.98 L 40.74 129.94 L 40.94 129.89 L 41.14 129.85 L 41.35 129.81 L 41.55 129.77 L 41.75 129.73 L 41.95 129.69 L 42.16 129.64 L 42.36 129.61 L 42.56 129.57 L 42.77 129.53 L 42.97 129.49 L 43.17 129.45 L 43.38 129.41 L 43.58 129.38 L 43.78 129.34 L 43.98 129.31 L 44.19 129.27 L 44.39 129.24 L 44.59 129.20 L 44.80 129.17 L 45.00 129.13 L 45.20 129.10 L 45.41 129.07 L 45.61 129.04 L 45.81 129.01 L 46.01 128.98 L 46.22 128.95 L 46.42 128.92 L 46.62 128.89 L 46.83 128.86 L 47.03 128.83 L 47.23 128.80 L 47.44 128.77 L 47.64 128.75 L 47.84 128.72 L 48.04 128.69 L 48.25 128.67 L 48.45 128.64 L 48.65 128.62 L 48.86 128.59 L 49.06 128.57 L 49.26 128.54 L 49.47 128.52 L 49.67 128.50 L 49.87 128.48 L 50.07 128.45 L 50.28 128.43 L 50.48 128.41 L 50.68 128.39 L 50.89 128.37 L 51.09 128.35 L 51.29 128.33 L 51.50 128.31 L 51.70 128.29 L 51.90 128.27 L 52.10 128.26 L 52.31 128.24 L 52.51 128.22 L 52.71 128.20 L 52.92 128.19 L 53.12 128.17 L 53.32 128.15 L 53.53 128.14 L 53.73 128.12 L 53.93 128.11 L 54.13 128.09 L 54.34 128.08 L 54.54 128.07 L 54.74 128.05 L 54.95 128.04 L 55.15 128.03 L 55.35 128.01 L 55.56 128.00 L 55.76 127.99 L 55.96 127.98 L 56.16 127.97 L 56.37 127.96 L 56.57 127.95 L 56.77 127.94 L 56.98 127.93 L 57.18 127.92 L 57.38 127.91 L 57.59 127.90 L 57.79 127.89 L 57.99 127.88 L 58.19 127.87 L 58.40 127.86 L 58.60 127.86 L 58.80 127.85 L 59.01 127.84 L 59.21 127.83 L 59.41 127.83 L 59.62 127.82 L 59.82 127.81 L 60.02 127.81 L 60.22 127.80 L 60.43 127.80 L 60.63 127.79 L 60.83 127.78 L 61.04 127.78 L 61.24 127.77 L 61.44 127.77 L 61.65 127.77 L 61.85 127.76 L 62.05 127.76 L 62.25 127.75 L 62.46 127.75 L 62.66 127.75 L 62.86 127.74 L 63.07 127.74 L 63.27 127.74 L 63.47 127.73 L 63.68 127.73 L 63.88 127.73 L 64.08 127.73 L 64.28 127.72 L 64.49 127.72 L 64.69 127.72 L 64.89 127.72 L 65.10 127.72 L 65.30 127.71 L 65.50 127.71 L 65.71 127.71 L 65.91 127.71 L 66.11 127.71 L 66.31 127.71 L 66.52 127.71 L 66.72 127.70 L 66.92 127.70 L 67.13 127.70 L 67.33 127.70 L 67.53 127.70 L 67.74 127.70 L 67.94 127.70 L 68.14 127.70 L 68.34 127.70 L 68.55 127.70 L 68.75 127.70 L 68.95 127.70 L 69.16 127.70 L 69.36 127.70 L 69.56 127.70 L 69.77 127.70 L 69.97 127.70 L 70.17 127.70 L 70.37 127.70 L 70.58 127.70 L 70.78 127.70 L 70.98 127.70 L 71.19 127.70 L 71.39 127.70 L 71.59 127.70 L 71.80 127.70 L 72.00 127.70 L 72.20 127.70 L 72.40 127.70 L 72.61 127.70 L 72.81 127.70 L 73.01 127.70 L 73.22 127.70 L 73.42 127.70 L 73.62 127.70 L 73.83 127.70 L 74.03 127.70 L 74.23 127.70 L 74.43 127.69 L 74.64 127.69 L 74.84 127.69 L 75.04 127.69 L 75.25 127.69 L 75.45 127.69 L 75.65 127.69 L 75.86 127.69 L 76.06 127.69 L 76.26 127.68 L 76.46 127.68 L 76.67 127.68 L 76.87 127.68 L 77.07 127.68 L 77.28 127.68 L 77.48 127.67 L 77.68 127.67 L 77.89 127.67 L 78.09 127.67 L 78.29 127.66 L 78.49 127.66 L 78.70 127.66 L 78.90 127.65 L 79.10 127.65 L 79.31 127.65 L 79.51 127.64 L 79.71 127.64 L 79.92 127.63 L 80.12 127.63 L 80.32 127.62 L 80.52 127.62 L 80.73 127.61 L 80.93 127.61 L 81.13 127.60 L 81.34 127.60 L 81.54 127.59 L 81.74 127.58 L 81.95 127.58 L 82.15 127.57 L 82.35 127.56 L 82.55 127.56 L 82.76 127.55 L 82.96 127.54 L 83.16 127.53 L 83.37 127.53 L 83.57 127.52 L 83.77 127.51 L 83.98 127.50 L 84.18 127.49 L 84.38 127.48 L 84.58 127.47 L 84.79 127.46 L 84.99 127.45 L 85.19 127.44 L 85.40 127.43 L 85.60 127.42 L 85.80 127.41 L 86.01 127.40 L 86.21 127.38 L 86.41 127.37 L 86.61 127.36 L 86.82 127.34 L 87.02 127.33 L 87.22 127.32 L 87.43 127.30 L 87.63 127.29 L 87.83 127.27 L 88.04 127.26 L 88.24 127.24 L 88.44 127.23 L 88.64 127.21 L 88.85 127.19 L 89.05 127.18 L 89.25 127.16 L 89.46 127.14 L 89.66 127.12 L 89.86 127.11 L 90.07 127.09 L 90.27 127.07 L 90.47 127.05 L 90.67 127.03 L 90.88 127.01 L 91.08 126.99 L 91.28 126.97 L 91.49 126.94 L 91.69 126.92 L 91.89 126.90 L 92.10 126.88 L 92.30 126.85 L 92.50 126.83 L 92.70 126.81 L 92.91 126.78 L 93.11 126.76 L 93.31 126.73 L 93.52 126.71 L 93.72 126.68 L 93.92 126.65 L 94.13 126.62 L 94.33 126.60 L 94.53 126.57 L 94.73 126.54 L 94.94 126.51 L 95.14 126.48 L 95.34 126.45 L 95.55 126.42 L 95.75 126.39 L 95.95 126.36 L 96.16 126.33 L 96.36 126.30 L 96.56 126.26 L 96.76 126.23 L 96.97 126.20 L 97.17 126.16 L 97.37 126.13 L 97.58 126.09 L 97.78 126.06 L 97.98 126.02 L 98.19 125.98 L 98.39 125.95 L 98.59 125.91 L 98.79 125.87 L 99.00 125.83 L 99.20 125.79 L 99.40 125.75 L 99.61 125.71 L 99.81 125.67 L 100.01 125.63 L 100.22 125.59 L 100.42 125.55 L 100.62 125.50 L 100.82 125.46 L 101.03 125.42 L 101.23 125.37 L 101.43 125.33 L 101.64 125.28 L 101.84 125.23 L 102.04 125.19 L 102.25 125.14 L 102.45 125.09 L 102.65 125.04 L 102.85 125.00 L 103.06 124.95 L 103.26 124.90 L 103.46 124.85 L 103.67 124.79 L 103.87 124.74 L 104.07 124.69 L 104.28 124.64 L 104.48 124.58 L 104.68 124.53 L 104.88 124.48 L 105.09 124.42 L 105.29 124.37 L 105.49 124.31 L 105.70 124.25 L 105.90 124.20 L 106.10 124.14 L 106.31 124.08 L 106.51 124.02 L 106.71 123.96 L 106.91 123.90 L 107.12 123.84 L 107.32 123.78 L 107.52 123.72 L 107.73 123.65 L 107.93 123.59 L 108.13 123.53 L 108.34 123.46 L 108.54 123.40 L 108.74 123.33 L 108.94 123.26 L 109.15 123.20 L 109.35 123.13 L 109.55 123.06 L 109.76 122.99 L 109.96 122.93 L 110.16 122.86 L 110.37 122.78 L 110.57 122.71 L 110.77 122.64 L 110.97 122.57 L 111.18 122.50 L 111.38 122.42 L 111.58 122.35 L 111.79 122.28 L 111.99 122.20 L 112.19 122.12 L 112.40 122.05 L 112.60 121.97 L 112.80 121.89 L 113.01 121.81 L 113.21 121.74 L 113.41 121.66 L 113.61 121.58 L 113.82 121.50 L 114.02 121.41 L 114.22 121.33 L 114.43 121.25 L 114.63 121.17 L 114.83 121.08 L 115.04 121.00 L 115.24 120.91 L 115.44 120.83 L 115.64 120.74 L 115.85 120.65 L 116.05 120.57 L 116.25 120.48 L 116.46 120.39 L 116.66 120.30 L 116.86 120.21 L 117.07 120.12 L 117.27 120.03 L 117.47 119.94 L 117.67 119.85 L 117.88 119.75 L 118.08 119.66 L 118.28 119.56 L 118.49 119.47 L 118.69 119.37 L 118.89 119.28 L 119.10 119.18 L 119.30 119.08 L 119.50 118.99 L 119.70 118.89 L 119.91 118.79 L 120.11 118.69 L 120.31 118.59 L 120.52 118.49 L 120.72 118.39 L 120.92 118.28 L 121.13 118.18 L 121.33 118.08 L 121.53 117.97 L 121.73 117.87 L 121.94 117.77 L 122.14 117.66 L 122.34 117.55 L 122.55 117.45 L 122.75 117.34 L 122.95 117.23 L 123.16 117.12 L 123.36 117.01 L 123.56 116.90 L 123.76 116.79 L 123.97 116.68 L 124.17 116.57 L 124.37 116.46 L 124.58 116.35 L 124.78 116.23 L 124.98 116.12 L 125.19 116.00 L 125.39 115.89 L 125.59 115.77 L 125.79 115.66 L 126.00 115.54 L 126.20 115.42 L 126.40 115.30 L 126.61 115.19 L 126.81 115.07 L 127.01 114.95 L 127.22 114.83 L 127.42 114.71 L 127.62 114.59 L 127.82 114.46 L 128.03 114.34 L 128.23 114.22 L 128.43 114.09 L 128.64 113.97 L 128.84 113.85 L 129.04 113.72 L 129.25 113.59 L 129.45 113.47 L 129.65 113.34 L 129.85 113.21 L 130.06 113.09 L 130.26 112.96 L 130.46 112.83 L 130.67 112.70 L 130.87 112.57 L 131.07 112.44 L 131.28 112.31 L 131.48 112.18 L 131.68 112.04 L 131.88 111.91 L 132.09 111.78 L 132.29 111.65 L 132.49 111.51 L 132.70 111.38 L 132.90 111.24 L 133.10 111.11 L 133.31 110.97 L 133.51 110.83 L 133.71 110.70 L 133.91 110.56 L 134.12 110.42 L 134.32 110.28 L 134.52 110.14 L 134.73 110.00 L 134.93 109.86 L 135.13 109.72 L 135.34 109.58 L 135.54 109.44 L 135.74 109.30 L 135.94 109.16 L 136.15 109.01 L 136.35 108.87 L 136.55 108.73 L 136.76 108.58 L 136.96 108.44 L 137.16 108.29 L 137.37 108.15 L 137.57 108.00 L 137.77 107.85 L 137.97 107.71 L 138.18 107.56 L 138.38 107.41 L 138.58 107.27 L 138.79 107.12 L 138.99 106.97 L 139.19 106.82 L 139.40 106.67 L 139.60 106.52 L 139.80 106.37 L 140.00 106.22 L 140.21 106.07 L 140.41 105.91 L 140.61 105.76 L 140.82 105.61 L 141.02 105.46 L 141.22 105.30 L 141.43 105.15 L 141.63 105.00 L 141.83 104.84 L 142.03 104.69 L 142.24 104.53 L 142.44 104.38 L 142.64 104.22 L 142.85 104.06 L 143.05 103.91 L 143.25 103.75 L 143.46 103.59 L 143.66 103.44 L 143.86 103.28 L 144.06 103.12 L 144.27 102.96 L 144.47 102.80 L 144.67 102.64 L 144.88 102.48 L 145.08 102.32 L 145.28 102.16 L 145.49 102.00 L 145.69 101.84 L 145.89 101.68 L 146.09 101.52 L 146.30 101.36 L 146.50 101.20 L 146.70 101.03 L 146.91 100.87 L 147.11 100.71 L 147.31 100.55 L 147.52 100.38 L 147.72 100.22 L 147.92 100.05 L 148.12 99.89 L 148.33 99.73 L 148.53 99.56 L 148.73 99.40 L 148.94 99.23 L 149.14 99.07 L 149.34 98.90 L 149.55 98.74 L 149.75 98.57 L 149.95 98.40 L 150.15 98.24 L 150.36 98.07 L 150.56 97.90 L 150.76 97.74 L 150.97 97.57 L 151.17 97.40 L 151.37 97.24 L 151.58 97.07 L 151.78 96.90 L 151.98 96.73 L 152.18 96.56 L 152.39 96.39 L 152.59 96.23 L 152.79 96.06 L 153.00 95.89 L 153.20 95.72 L 153.40 95.55 L 153.61 95.38 L 153.81 95.21 L 154.01 95.04 L 154.21 94.87 L 154.42 94.70 L 154.62 94.53 L 154.82 94.36 L 155.03 94.19 L 155.23 94.02 L 155.43 93.85 L 155.64 93.68 L 155.84 93.51 L 156.04 93.34 L 156.24 93.17 L 156.45 93.00 L 156.65 92.83 L 156.85 92.66 L 157.06 92.49 L 157.26 92.31 L 157.46 92.14 L 157.67 91.97 L 157.87 91.80 L 158.07 91.63 L 158.27 91.46 L 158.48 91.29 L 158.68 91.11 L 158.88 90.94 L 159.09 90.77 L 159.29 90.60 L 159.49 90.43 L 159.70 90.26 L 159.90 90.09 L 160.10 89.91 L 160.30 89.74 L 160.51 89.57 L 160.71 89.40 L 160.91 89.23 L 161.12 89.06 L 161.32 88.89 L 161.52 88.71 L 161.73 88.54 L 161.93 88.37 L 162.13 88.20 L 162.33 88.03 L 162.54 87.86 L 162.74 87.69 L 162.94 87.51 L 163.15 87.34 L 163.35 87.17 L 163.55 87.00 L 163.76 86.83 L 163.96 86.66 L 164.16 86.49 L 164.36 86.32 L 164.57 86.15 L 164.77 85.98 L 164.97 85.81 L 165.18 85.64 L 165.38 85.47 L 165.58 85.30 L 165.79 85.13 L 165.99 84.96 L 166.19 84.79 L 166.39 84.62 L 166.60 84.45 L 166.80 84.28 L 167.00 84.11 L 167.21 83.94 L 167.41 83.77 L 167.61 83.61 L 167.82 83.44 L 168.02 83.27 L 168.22 83.10 L 168.42 82.93 L 168.63 82.76 L 168.83 82.60 L 169.03 82.43 L 169.24 82.26 L 169.44 82.10 L 169.64 81.93 L 169.85 81.76 L 170.05 81.60 L 170.25 81.43 L 170.45 81.26 L 170.66 81.10 L 170.86 80.93 L 171.06 80.77 L 171.27 80.60 L 171.47 80.44 L 171.67 80.27 L 171.88 80.11 L 172.08 79.95 L 172.28 79.78 L 172.48 79.62 L 172.69 79.45 L 172.89 79.29 L 173.09 79.13 L 173.30 78.97 L 173.50 78.80 L 173.70 78.64 L 173.91 78.48 L 174.11 78.32 L 174.31 78.16 L 174.51 78.00 L 174.72 77.84 L 174.92 77.68 L 175.12 77.52 L 175.33 77.36 L 175.53 77.20 L 175.73 77.04 L 175.94 76.88 L 176.14 76.72 L 176.34 76.56 L 176.54 76.41 L 176.75 76.25 L 176.95 76.09 L 177.15 75.94 L 177.36 75.78 L 177.56 75.62 L 177.76 75.47 L 177.97 75.31 L 178.17 75.16 L 178.37 75.00 L 178.57 74.85 L 178.78 74.70 L 178.98 74.54 L 179.18 74.39 L 179.39 74.24 L 179.59 74.09 L 179.79 73.93 L 180.00 73.78 L 180.20 73.63 L 180.40 73.48 L 180.60 73.33 L 180.81 73.18 L 181.01 73.03 L 181.21 72.88 L 181.42 72.73 L 181.62 72.59 L 181.82 72.44 L 182.03 72.29 L 182.23 72.15 L 182.43 72.00 L 182.63 71.85 L 182.84 71.71 L 183.04 71.56 L 183.24 71.42 L 183.45 71.27 L 183.65 71.13 L 183.85 70.99 L 184.06 70.84 L 184.26 70.70 L 184.46 70.56 L 184.66 70.42 L 184.87 70.28 L 185.07 70.14 L 185.27 70.00 L 185.48 69.86 L 185.68 69.72 L 185.88 69.58 L 186.09 69.44 L 186.29 69.30 L 186.49 69.17 L 186.69 69.03 L 186.90 68.89 L 187.10 68.76 L 187.30 68.62 L 187.51 68.49 L 187.71 68.35 L 187.91 68.22 L 188.12 68.09 L 188.32 67.96 L 188.52 67.82 L 188.72 67.69 L 188.93 67.56 L 189.13 67.43 L 189.33 67.30 L 189.54 67.17 L 189.74 67.04 L 189.94 66.91 L 190.15 66.79 L 190.35 66.66 L 190.55 66.53 L 190.75 66.41 L 190.96 66.28 L 191.16 66.15 L 191.36 66.03 L 191.57 65.91 L 191.77 65.78 L 191.97 65.66 L 192.18 65.54 L 192.38 65.41 L 192.58 65.29 L 192.78 65.17 L 192.99 65.05 L 193.19 64.93 L 193.39 64.81 L 193.60 64.70 L 193.80 64.58 L 194.00 64.46 L 194.21 64.34 L 194.41 64.23 L 194.61 64.11 L 194.81 64.00 L 195.02 63.88 L 195.22 63.77 L 195.42 63.65 L 195.63 63.54 L 195.83 63.43 L 196.03 63.32 L 196.24 63.21 L 196.44 63.10 L 196.64 62.99 L 196.84 62.88 L 197.05 62.77 L 197.25 62.66 L 197.45 62.55 L 197.66 62.45 L 197.86 62.34 L 198.06 62.23 L 198.27 62.13 L 198.47 62.03 L 198.67 61.92 L 198.87 61.82 L 199.08 61.72 L 199.28 61.61 L 199.48 61.51 L 199.69 61.41 L 199.89 61.31 L 200.09 61.21 L 200.30 61.11 L 200.50 61.01 L 200.70 60.92 L 200.90 60.82 L 201.11 60.72 L 201.31 60.63 L 201.51 60.53 L 201.72 60.44 L 201.92 60.34 L 202.12 60.25 L 202.33 60.15 L 202.53 60.06 L 202.73 59.97 L 202.93 59.88 L 203.14 59.79 L 203.34 59.70 L 203.54 59.61 L 203.75 59.52 L 203.95 59.43 L 204.15 59.35 L 204.36 59.26 L 204.56 59.17 L 204.76 59.09 L 204.96 59.00 L 205.17 58.92 L 205.37 58.83 L 205.57 58.75 L 205.78 58.67 L 205.98 58.59 L 206.18 58.50 L 206.39 58.42 L 206.59 58.34 L 206.79 58.26 L 206.99 58.19 L 207.20 58.11 L 207.40 58.03 L 207.60 57.95 L 207.81 57.88 L 208.01 57.80 L 208.21 57.72 L 208.42 57.65 L 208.62 57.58 L 208.82 57.50 L 209.03 57.43 L 209.23 57.36 L 209.43 57.29 L 209.63 57.22 L 209.84 57.14 L 210.04 57.07 L 210.24 57.01 L 210.45 56.94 L 210.65 56.87 L 210.85 56.80 L 211.06 56.74 L 211.26 56.67 L 211.46 56.60 L 211.66 56.54 L 211.87 56.47 L 212.07 56.41 L 212.27 56.35 L 212.48 56.28 L 212.68 56.22 L 212.88 56.16 L 213.09 56.10 L 213.29 56.04 L 213.49 55.98 L 213.69 55.92 L 213.90 55.86 L 214.10 55.80 L 214.30 55.75 L 214.51 55.69 L 214.71 55.63 L 214.91 55.58 L 215.12 55.52 L 215.32 55.47 L 215.52 55.42 L 215.72 55.36 L 215.93 55.31 L 216.13 55.26 L 216.33 55.21 L 216.54 55.15 L 216.74 55.10 L 216.94 55.05 L 217.15 55.00 L 217.35 54.96 L 217.55 54.91 L 217.75 54.86 L 217.96 54.81 L 218.16 54.77 L 218.36 54.72 L 218.57 54.67 L 218.77 54.63 L 218.97 54.58 L 219.18 54.54 L 219.38 54.50 L 219.58 54.45 L 219.78 54.41 L 219.99 54.37 L 220.19 54.33 L 220.39 54.29 L 220.60 54.25 L 220.80 54.21 L 221.00 54.17 L 221.21 54.13 L 221.41 54.09 L 221.61 54.05 L 221.81 54.02 L 222.02 53.98 L 222.22 53.94 L 222.42 53.91 L 222.63 53.87 L 222.83 53.84 L 223.03 53.80 L 223.24 53.77 L 223.44 53.74 L 223.64 53.70 L 223.84 53.67 L 224.05 53.64 L 224.25 53.61 L 224.45 53.58 L 224.66 53.55 L 224.86 53.52 L 225.06 53.49 L 225.27 53.46 L 225.47 53.43 L 225.67 53.40 L 225.87 53.38 L 226.08 53.35 L 226.28 53.32 L 226.48 53.29 L 226.69 53.27 L 226.89 53.24 L 227.09 53.22 L 227.30 53.19 L 227.50 53.17 L 227.70 53.15 L 227.90 53.12 L 228.11 53.10 L 228.31 53.08 L 228.51 53.06 L 228.72 53.03 L 228.92 53.01 L 229.12 52.99 L 229.33 52.97 L 229.53 52.95 L 229.73 52.93 L 229.93 52.91 L 230.14 52.89 L 230.34 52.88 L 230.54 52.86 L 230.75 52.84 L 230.95 52.82 L 231.15 52.81 L 231.36 52.79 L 231.56 52.77 L 231.76 52.76 L 231.96 52.74 L 232.17 52.73 L 232.37 52.71 L 232.57 52.70 L 232.78 52.68 L 232.98 52.67 L 233.18 52.66 L 233.39 52.64 L 233.59 52.63 L 233.79 52.62 L 233.99 52.60 L 234.20 52.59 L 234.40 52.58 L 234.60 52.57 L 234.81 52.56 L 235.01 52.55 L 235.21 52.54 L 235.42 52.53 L 235.62 52.52 L 235.82 52.51 L 236.02 52.50 L 236.23 52.49 L 236.43 52.48 L 236.63 52.47 L 236.84 52.47 L 237.04 52.46 L 237.24 52.45 L 237.45 52.44 L 237.65 52.44 L 237.85 52.43 L 238.05 52.42 L 238.26 52.42 L 238.46 52.41 L 238.66 52.40 L 238.87 52.40 L 239.07 52.39 L 239.27 52.39 L 239.48 52.38 L 239.68 52.38 L 239.88 52.37 L 240.08 52.37 L 240.29 52.36 L 240.49 52.36 L 240.69 52.35 L 240.90 52.35 L 241.10 52.35 L 241.30 52.34 L 241.51 52.34 L 241.71 52.34 L 241.91 52.33 L 242.11 52.33 L 242.32 52.33 L 242.52 52.33 L 242.72 52.32 L 242.93 52.32 L 243.13 52.32 L 243.33 52.32 L 243.54 52.32 L 243.74 52.32 L 243.94 52.31 L 244.14 52.31 L 244.35 52.31 L 244.55 52.31 L 244.75 52.31 L 244.96 52.31 L 245.16 52.31 L 245.36 52.31 L 245.57 52.31 L 245.77 52.30 L 245.97 52.30 L 246.17 52.30 L 246.38 52.30 L 246.58 52.30 L 246.78 52.30 L 246.99 52.30 L 247.19 52.30 L 247.39 52.30 L 247.60 52.30 L 247.80 52.30 L 248.00 52.30 L 248.20 52.30 L 248.41 52.30 L 248.61 52.30 L 248.81 52.30 L 249.02 52.30 L 249.22 52.30 L 249.42 52.30 L 249.63 52.30 L 249.83 52.30 L 250.03 52.30 L 250.23 52.30 L 250.44 52.30 L 250.64 52.30 L 250.84 52.30 L 251.05 52.30 L 251.25 52.30 L 251.45 52.30 L 251.66 52.30 L 251.86 52.30 L 252.06 52.30 L 252.26 52.30 L 252.47 52.30 L 252.67 52.30 L 252.87 52.30 L 253.08 52.30 L 253.28 52.30 L 253.48 52.29 L 253.69 52.29 L 253.89 52.29 L 254.09 52.29 L 254.29 52.29 L 254.50 52.29 L 254.70 52.29 L 254.90 52.28 L 255.11 52.28 L 255.31 52.28 L 255.51 52.28 L 255.72 52.28 L 255.92 52.27 L 256.12 52.27 L 256.32 52.27 L 256.53 52.27 L 256.73 52.26 L 256.93 52.26 L 257.14 52.26 L 257.34 52.25 L 257.54 52.25 L 257.75 52.25 L 257.95 52.24 L 258.15 52.24 L 258.35 52.23 L 258.56 52.23 L 258.76 52.23 L 258.96 52.22 L 259.17 52.22 L 259.37 52.21 L 259.57 52.20 L 259.78 52.20 L 259.98 52.19 L 260.18 52.19 L 260.38 52.18 L 260.59 52.17 L 260.79 52.17 L 260.99 52.16 L 261.20 52.15 L 261.40 52.14 L 261.60 52.14 L 261.81 52.13 L 262.01 52.12 L 262.21 52.11 L 262.41 52.10 L 262.62 52.09 L 262.82 52.08 L 263.02 52.07 L 263.23 52.06 L 263.43 52.05 L 263.63 52.04 L 263.84 52.03 L 264.04 52.02 L 264.24 52.01 L 264.44 52.00 L 264.65 51.99 L 264.85 51.97 L 265.05 51.96 L 265.26 51.95 L 265.46 51.93 L 265.66 51.92 L 265.87 51.91 L 266.07 51.89 L 266.27 51.88 L 266.47 51.86 L 266.68 51.85 L 266.88 51.83 L 267.08 51.81 L 267.29 51.80 L 267.49 51.78 L 267.69 51.76 L 267.90 51.74 L 268.10 51.73 L 268.30 51.71 L 268.50 51.69 L 268.71 51.67 L 268.91 51.65 L 269.11 51.63 L 269.32 51.61 L 269.52 51.59 L 269.72 51.57 L 269.93 51.55 L 270.13 51.52 L 270.33 51.50 L 270.53 51.48 L 270.74 51.46 L 270.94 51.43 L 271.14 51.41 L 271.35 51.38 L 271.55 51.36 L 271.75 51.33 L 271.96 51.31 L 272.16 51.28 L 272.36 51.25 L 272.56 51.23 L 272.77 51.20 L 272.97 51.17 L 273.17 51.14 L 273.38 51.11 L 273.58 51.08 L 273.78 51.05 L 273.99 51.02 L 274.19 50.99 L 274.39 50.96 L 274.59 50.93 L 274.80 50.90 L 275.00 50.87 L 275.20 50.83 L 275.41 50.80 L 275.61 50.76 L 275.81 50.73 L 276.02 50.69 L 276.22 50.66 L 276.42 50.62 L 276.62 50.59 L 276.83 50.55 L 277.03 50.51 L 277.23 50.47 L 277.44 50.43 L 277.64 50.39 L 277.84 50.36 L 278.05 50.31 L 278.25 50.27 L 278.45 50.23 L 278.65 50.19 L 278.86 50.15 L 279.06 50.11 L 279.26 50.06 L 279.47 50.02 L 279.67 49.97 L 279.87 49.93 L 280.08 49.88 L 280.28 49.84 L 280.48 49.79 L 280.68 49.74 L 280.89 49.70 L 281.09 49.65 L 281.29 49.60 L 281.50 49.55 L 281.70 49.50 L 281.90 49.45 L 282.11 49.40 L 282.31 49.35 L 282.51 49.29 L 282.71 49.24 L 282.92 49.19 L 283.12 49.13 L 283.32 49.08 L 283.53 49.02 L 283.73 48.97 L 283.93 48.91 L 284.14 48.86 L 284.34 48.80 L 284.54 48.74 L 284.74 48.68 L 284.95 48.62 L 285.15 48.56 L 285.35 48.50 L 285.56 48.44 L 285.76 48.38 L 285.96 48.32 L 286.17 48.26 L 286.37 48.19 L 286.57 48.13 L 286.77 48.06 L 286.98 48.00 L 287.18 47.93 L 287.38 47.87 L 287.59 47.80 L 287.79 47.73 L 287.99 47.67 L 288.20 47.60 L 288.40 47.53 L 288.60 47.46 L 288.80 47.39 L 289.01 47.32 L 289.21 47.25 L 289.41 47.17 L 289.62 47.10 L 289.82 47.03 L 290.02 46.95 L 290.23 46.88 L 290.43 46.80 L 290.63 46.73 L 290.83 46.65 L 291.04 46.57 L 291.24 46.50 L 291.44 46.42 L 291.65 46.34 L 291.85 46.26 L 292.05 46.18 L 292.26 46.10 L 292.46 46.02 L 292.66 45.94 L 292.86 45.85 L 293.07 45.77 L 293.27 45.69 L 293.47 45.60 L 293.68 45.52 L 293.88 45.43 L 294.08 45.34 L 294.29 45.26 L 294.49 45.17 L 294.69 45.08 L 294.89 44.99 L 295.10 44.90 L 295.30 44.81 L 295.50 44.72 L 295.71 44.63 L 295.91 44.54 L 296.11 44.45 L 296.32 44.36 L 296.52 44.26 L 296.72 44.17 L 296.92 44.07 L 297.13 43.98 L 297.33 43.88 L 297.53 43.79 L 297.74 43.69 L 297.94 43.59 L 298.14 43.49 L 298.35 43.39 L 298.55 43.29 L 298.75 43.19 L 298.95 43.09 L 299.16 42.99 L 299.36 42.89 L 299.56 42.79 L 299.77 42.68 L 299.97 42.58 L 300.17 42.47 L 300.38 42.37 L 300.58 42.26 L 300.78 42.16 L 300.98 42.05 L 301.19 41.94 L 301.39 41.83 L 301.59 41.73 L 301.80 41.62 L 302.00 41.51" fill="none" stroke="#7E8692" stroke-width="2.3" stroke-linecap="round" stroke-linejoin="round"/>
</svg>
