<svg xmlns="http://www.w3.org/2000/svg" viewBox="0 0 320 180" width="320" height="180">
  <rect width="320" height="180" fill="#F4F5F7"/>
  <path d="M 24.00 143.97 L 24.30 143.93 L 24.61 143.89 L 24.91 143.85 L 25.21 143.81 L 25.51 143.77 L 25.82 143.73 L 26.12 143.69 L 26.42 143.65 L 26.72 143.61 L 27.03 143.57 L 27.33 143.53 L 27.63 143.49 L 27.93 143.45 L 28.24 143.41 L 28.54 143.36 L 28.84 143.32 L 29.14 143.28 L 29.45 143.24 L 29.75 143.20 L 30.05 143.16 L 30.35 143.12 L 30.66 143.08 L 30.96 143.03 L 31.26 142.99 L 31.56 142.95 L 31.87 142.91 L 32.17 142.87 L 32.47 142.83 L 32.77 142.79 L 33.08 142.74 L 33.38 142.70 L 33.68 142.66 L 33.98 142.62 L 34.29 142.58 L 34.59 142.53 L 34.89 142.49 L 35.19 142.45 L 35.50 142.41 L 35.80 142.36 L 36.10 142.32 L 36.40 142.28 L 36.71 142.24 L 37.01 142.19 L 37.31 142.15 L 37.62 142.11 L 37.92 142.06 L 38.22 142.02 L 38.52 141.98 L 38.83 141.93 L 39.13 141.89 L 39.43 141.85 L 39.73 141.80 L 40.04 141.76 L 40.34 141.72 L 40.64 141.67 L 40.94 141.63 L 41.25 141.59 L 41.55 141.54 L 41.85 141.50 L 42.15 141.45 L 42.46 141.41 L 42.76 141.37 L 43.06 141.32 L 43.36 141.28 L 43.67 141.23 L 43.97 141.19 L 44.27 141.14 L 44.57 141.10 L 44.88 141.06 L 45.18 141.01 L 45.48 140.97 L 45.78 140.92 L 46.09 140.88 L 46.39 140.83 L 46.69 140.79 L 46.99 140.74 L 47.30 140.69 L 47.60 140.65 L 47.90 140.60 L 48.20 140.56 L 48.51 140.51 L 48.81 140.47 L 49.11 140.42 L 49.41 140.38 L 49.72 140.33 L 50.02 140.28 L 50.32 140.24 L 50.63 140.19 L 50.93 140.14 L 51.23 140.10 L 51.53 140.05 L 51.84 140.01 L 52.14 139.96 L 52.44 139.91 L 52.74 139.86 L 53.05 139.82 L 53.35 139.77 L 53.65 139.72 L 53.95 139.68 L 54.26 139.63 L 54.56 139.58 L 54.86 139.53 L 55.16 139.49 L 55.47 139.44 L 55.77 139.39 L 56.07 139.34 L 56.37 139.30 L 56.68 139.25 L 56.98 139.20 L 57.28 139.15 L 57.58 139.10 L 57.89 139.05 L 58.19 139.01 L 58.49 138.96 L 58.79 138.91 L 59.10 138.86 L 59.40 138.81 L 59.70 138.76 L 60.00 138.71 L 60.31 138.66 L 60.61 138.61 L 60.91 138.57 L 61.21 138.52 L 61.52 138.47 L 61.82 138.42 L 62.12 138.37 L 62.42 138.32 L 62.73 138.27 L 63.03 138.22 L 63.33 138.17 L 63.64 138.12 L 63.94 138.07 L 64.24 138.02 L 64.54 137.96 L 64.85 137.91 L 65.15 137.86 L 65.45 137.81 L 65.75 137.76 L 66.06 137.71 L 66.36 137.66 L 66.66 137.61 L 66.96 137.56 L 67.27 137.50 L 67.57 137.45 L 67.87 137.40 L 68.17 137.35 L 68.48 137.30 L 68.78 137.24 L 69.08 137.19 L 69.38 137.14 L 69.69 137.09 L 69.99 137.03 L 70.29 136.98 L 70.59 136.93 L 70.90 136.88 L 71.20 136.82 L 71.50 136.77 L 71.80 136.72 L 72.11 136.66 L 72.41 136.61 L 72.71 136.56 L 73.01 136.50 L 73.32 136.45 L 73.62 136.39 L 73.92 136.34 L 74.22 136.28 L 74.53 136.23 L 74.83 136.18 L 75.13 136.12 L 75.43 136.07 L 75.74 136.01 L 76.04 135.96 L 76.34 135.90 L 76.65 135.85 L 76.95 135.79 L 77.25 135.73 L 77.55 135.68 L 77.86 135.62 L 78.16 135.57 L 78.46 135.51 L 78.76 135.45 L 79.07 135.40 L 79.37 135.34 L 79.67 135.28 L 79.97 135.23 L 80.28 135.17 L 80.58 135.11 L 80.88 135.06 L 81.18 135.00 L 81.49 134.94 L 81.79 134.88 L 82.09 134.82 L 82.39 134.77 L 82.70 134.71 L 83.00 134.65 L 83.30 134.59 L 83.60 134.53 L 83.91 134.47 L 84.21 134.41 L 84.51 134.36 L 84.81 134.30 L 85.12 134.24 L 85.42 134.18 L 85.72 134.12 L 86.02 134.06 L 86.33 134.00 L 86.63 133.94 L 86.93 133.88 L 87.23 133.82 L 87.54 133.75 L 87.84 133.69 L 88.14 133.63 L 88.44 133.57 L 88.75 133.51 L 89.05 133.45 L 89.35 133.39 L 89.66 133.32 L 89.96 133.26 L 90.26 133.20 L 90.56 133.14 L 90.87 133.07 L 91.17 133.01 L 91.47 132.95 L 91.77 132.88 L 92.08 132.82 L 92.38 132.76 L 92.68 132.69 L 92.98 132.63 L 93.29 132.57 L 93.59 132.50 L 93.89 132.44 L 94.19 132.37 L 94.50 132.31 L 94.80 132.24 L 95.10 132.18 L 95.40 132.11 L 95.71 132.04 L 96.01 131.98 L 96.31 131.91 L 96.61 131.85 L 96.92 131.78 L 97.22 131.71 L 97.52 131.64 L 97.82 131.58 L 98.13 131.51 L 98.43 131.44 L 98.73 131.37 L 99.03 131.31 L 99.34 131.24 L 99.64 131.17 L 99.94 131.10 L 100.24 131.03 L 100.55 130.96 L 100.85 130.89 L 101.15 130.82 L 101.45 130.75 L 101.76 130.68 L 102.06 130.61 L 102.36 130.54 L 102.67 130.47 L 102.97 130.40 L 103.27 130.33 L 103.57 130.25 L 103.88 130.18 L 104.18 130.11 L 104.48 130.04 L 104.78 129.96 L 105.09 129.89 L 105.39 129.82 L 105.69 129.74 L 105.99 129.67 L 106.30 129.60 L 106.60 129.52 L 106.90 129.45 L 107.20 129.37 L 107.51 129.30 L 107.81 129.22 L 108.11 129.15 L 108.41 129.07 L 108.72 128.99 L 109.02 128.92 L 109.32 128.84 L 109.62 128.76 L 109.93 128.68 L 110.23 128.61 L 110.53 128.53 L 110.83 128.45 L 111.14 128.37 L 111.44 128.29 L 111.74 128.21 L 112.04 128.13 L 112.35 128.05 L 112.65 127.97 L 112.95 127.89 L 113.25 127.81 L 113.56 127.72 L 113.86 127.64 L 114.16 127.56 L 114.46 127.48 L 114.77 127.39 L 115.07 127.31 L 115.37 127.23 L 115.68 127.14 L 115.98 127.06 L 116.28 126.97 L 116.58 126.89 L 116.89 126.80 L 117.19 126.71 L 117.49 126.63 L 117.79 126.54 L 118.10 126.45 L 118.40 126.37 L 118.70 126.28 L 119.00 126.19 L 119.31 126.10 L 119.61 126.01 L 119.91 125.92 L 120.21 125.83 L 120.52 125.74 L 120.82 125.65 L 121.12 125.55 L 121.42 125.46 L 121.73 125.37 L 122.03 125.28 L 122.33 125.18 L 122.63 125.09 L 122.94 124.99 L 123.24 124.90 L 123.54 124.80 L 123.84 124.70 L 124.15 124.61 L 124.45 124.51 L 124.75 124.41 L 125.05 124.31 L 125.36 124.21 L 125.66 124.11 L 125.96 124.01 L 126.26 123.91 L 126.57 123.81 L 126.87 123.71 L 127.17 123.60 L 127.47 123.50 L 127.78 123.40 L 128.08 123.29 L 128.38 123.19 L 128.69 123.08 L 128.99 122.97 L 129.29 122.87 L 129.59 122.76 L 129.90 122.65 L 130.20 122.54 L 130.50 122.43 L 130.80 122.32 L 131.11 122.21 L 131.41 122.09 L 131.71 121.98 L 132.01 121.86 L 132.32 121.75 L 132.62 121.63 L 132.92 121.52 L 133.22 121.40 L 133.53 121.28 L 133.83 121.16 L 134.13 121.04 L 134.43 120.92 L 134.74 120.80 L 135.04 120.67 L 135.34 120.55 L 135.64 120.42 L 135.95 120.30 L 136.25 120.17 L 136.55 120.04 L 136.85 119.91 L 137.16 119.78 L 137.46 119.65 L 137.76 119.51 L 138.06 119.38 L 138.37 119.24 L 138.67 119.11 L 138.97 118.97 L 139.27 118.83 L 139.58 118.69 L 139.88 118.54 L 140.18 118.40 L 140.48 118.26 L 140.79 118.11 L 141.09 117.96 L 141.39 117.81 L 141.70 117.66 L 142.00 117.51 L 142.30 117.35 L 142.60 117.19 L 142.91 117.04 L 143.21 116.88 L 143.51 116.71 L 143.81 116.55 L 144.12 116.38 L 144.42 116.21 L 144.72 116.04 L 145.02 115.87 L 145.33 115.69 L 145.63 115.52 L 145.93 115.34 L 146.23 115.15 L 146.54 114.97 L 146.84 114.78 L 147.14 114.59 L 147.44 114.39 L 147.75 114.20 L 148.05 114.00 L 148.35 113.79 L 148.65 113.58 L 148.96 113.37 L 149.26 113.16 L 149.56 112.94 L 149.86 112.71 L 150.17 112.48 L 150.47 112.25 L 150.77 112.01 L 151.07 111.77 L 151.38 111.52 L 151.68 111.27 L 151.98 111.01 L 152.28 110.74 L 152.59 110.46 L 152.89 110.18 L 153.19 109.89 L 153.49 109.59 L 153.80 109.28 L 154.10 108.96 L 154.40 108.63 L 154.71 108.29 L 155.01 107.94 L 155.31 107.57 L 155.61 107.18 L 155.92 106.78 L 156.22 106.35 L 156.52 105.90 L 156.82 105.43 L 157.13 104.92 L 157.43 104.38 L 157.73 103.79 L 158.03 103.15 L 158.34 102.44 L 158.64 101.63 L 158.94 100.70 L 159.24 99.56 L 159.55 98.07 L 159.85 95.59 L 160.15 84.41 L 160.45 81.93 L 160.76 80.44 L 161.06 79.30 L 161.36 78.37 L 161.66 77.56 L 161.97 76.85 L 162.27 76.21 L 162.57 75.62 L 162.87 75.08 L 163.18 74.57 L 163.48 74.10 L 163.78 73.65 L 164.08 73.22 L 164.39 72.82 L 164.69 72.43 L 164.99 72.06 L 165.29 71.71 L 165.60 71.37 L 165.90 71.04 L 166.20 70.72 L 166.51 70.41 L 166.81 70.11 L 167.11 69.82 L 167.41 69.54 L 167.72 69.26 L 168.02 68.99 L 168.32 68.73 L 168.62 68.48 L 168.93 68.23 L 169.23 67.99 L 169.53 67.75 L 169.83 67.52 L 170.14 67.29 L 170.44 67.06 L 170.74 66.84 L 171.04 66.63 L 171.35 66.42 L 171.65 66.21 L 171.95 66.00 L 172.25 65.80 L 172.56 65.61 L 172.86 65.41 L 173.16 65.22 L 173.46 65.03 L 173.77 64.85 L 174.07 64.66 L 174.37 64.48 L 174.67 64.31 L 174.98 64.13 L 175.28 63.96 L 175.58 63.79 L 175.88 63.62 L 176.19 63.45 L 176.49 63.29 L 176.79 63.12 L 177.09 62.96 L 177.40 62.81 L 177.70 62.65 L 178.00 62.49 L 178.30 62.34 L 178.61 62.19 L 178.91 62.04 L 179.21 61.89 L 179.52 61.74 L 179.82 61.60 L 180.12 61.46 L 180.42 61.31 L 180.73 61.17 L 181.03 61.03 L 181.33 60.89 L 181.63 60.76 L 181.94 60.62 L 182.24 60.49 L 182.54 60.35 L 182.84 60.22 L 183.15 60.09 L 183.45 59.96 L 183.75 59.83 L 184.05 59.70 L 184.36 59.58 L 184.66 59.45 L 184.96 59.33 L 185.26 59.20 L 185.57 59.08 L 185.87 58.96 L 186.17 58.84 L 186.47 58.72 L 186.78 58.60 L 187.08 58.48 L 187.38 58.37 L 187.68 58.25 L 187.99 58.14 L 188.29 58.02 L 188.59 57.91 L 188.89 57.79 L 189.20 57.68 L 189.50 57.57 L 189.80 57.46 L 190.10 57.35 L 190.41 57.24 L 190.71 57.13 L 191.01 57.03 L 191.31 56.92 L 191.62 56.81 L 191.92 56.71 L 192.22 56.60 L 192.53 56.50 L 192.83 56.40 L 193.13 56.29 L 193.43 56.19 L 193.74 56.09 L 194.04 55.99 L 194.34 55.89 L 194.64 55.79 L 194.95 55.69 L 195.25 55.59 L 195.55 55.49 L 195.85 55.39 L 196.16 55.30 L 196.46 55.20 L 196.76 55.10 L 197.06 55.01 L 197.37 54.91 L 197.67 54.82 L 197.97 54.72 L 198.27 54.63 L 198.58 54.54 L 198.88 54.45 L 199.18 54.35 L 199.48 54.26 L 199.79 54.17 L 200.09 54.08 L 200.39 53.99 L 200.69 53.90 L 201.00 53.81 L 201.30 53.72 L 201.60 53.63 L 201.90 53.55 L 202.21 53.46 L 202.51 53.37 L 202.81 53.29 L 203.11 53.20 L 203.42 53.11 L 203.72 53.03 L 204.02 52.94 L 204.32 52.86 L 204.63 52.77 L 204.93 52.69 L 205.23 52.61 L 205.54 52.52 L 205.84 52.44 L 206.14 52.36 L 206.44 52.28 L 206.75 52.19 L 207.05 52.11 L 207.35 52.03 L 207.65 51.95 L 207.96 51.87 L 208.26 51.79 L 208.56 51.71 L 208.86 51.63 L 209.17 51.55 L 209.47 51.47 L 209.77 51.39 L 210.07 51.32 L 210.38 51.24 L 210.68 51.16 L 210.98 51.08 L 211.28 51.01 L 211.59 50.93 L 211.89 50.85 L 212.19 50.78 L 212.49 50.70 L 212.80 50.63 L 213.10 50.55 L 213.40 50.48 L 213.70 50.40 L 214.01 50.33 L 214.31 50.26 L 214.61 50.18 L 214.91 50.11 L 215.22 50.04 L 215.52 49.96 L 215.82 49.89 L 216.12 49.82 L 216.43 49.75 L 216.73 49.67 L 217.03 49.60 L 217.33 49.53 L 217.64 49.46 L 217.94 49.39 L 218.24 49.32 L 218.55 49.25 L 218.85 49.18 L 219.15 49.11 L 219.45 49.04 L 219.76 48.97 L 220.06 48.90 L 220.36 48.83 L 220.66 48.76 L 220.97 48.69 L 221.27 48.63 L 221.57 48.56 L 221.87 48.49 L 222.18 48.42 L 222.48 48.36 L 222.78 48.29 L 223.08 48.22 L 223.39 48.15 L 223.69 48.09 L 223.99 48.02 L 224.29 47.96 L 224.60 47.89 L 224.90 47.82 L 225.20 47.76 L 225.50 47.69 L 225.81 47.63 L 226.11 47.56 L 226.41 47.50 L 226.71 47.43 L 227.02 47.37 L 227.32 47.31 L 227.62 47.24 L 227.92 47.18 L 228.23 47.12 L 228.53 47.05 L 228.83 46.99 L 229.13 46.93 L 229.44 46.86 L 229.74 46.80 L 230.04 46.74 L 230.34 46.68 L 230.65 46.61 L 230.95 46.55 L 231.25 46.49 L 231.56 46.43 L 231.86 46.37 L 232.16 46.31 L 232.46 46.25 L 232.77 46.18 L 233.07 46.12 L 233.37 46.06 L 233.67 46.00 L 233.98 45.94 L 234.28 45.88 L 234.58 45.82 L 234.88 45.76 L 235.19 45.70 L 235.49 45.64 L 235.79 45.59 L 236.09 45.53 L 236.40 45.47 L 236.70 45.41 L 237.00 45.35 L 237.30 45.29 L 237.61 45.23 L 237.91 45.18 L 238.21 45.12 L 238.51 45.06 L 238.82 45.00 L 239.12 44.94 L 239.42 44.89 L 239.72 44.83 L 240.03 44.77 L 240.33 44.72 L 240.63 44.66 L 240.93 44.60 L 241.24 44.55 L 241.54 44.49 L 241.84 44.43 L 242.14 44.38 L 242.45 44.32 L 242.75 44.27 L 243.05 44.21 L 243.35 44.15 L 243.66 44.10 L 243.96 44.04 L 244.26 43.99 L 244.57 43.93 L 244.87 43.88 L 245.17 43.82 L 245.47 43.77 L 245.78 43.72 L 246.08 43.66 L 246.38 43.61 L 246.68 43.55 L 246.99 43.50 L 247.29 43.44 L 247.59 43.39 L 247.89 43.34 L 248.20 43.28 L 248.50 43.23 L 248.80 43.18 L 249.10 43.12 L 249.41 43.07 L 249.71 43.02 L 250.01 42.97 L 250.31 42.91 L 250.62 42.86 L 250.92 42.81 L 251.22 42.76 L 251.52 42.70 L 251.83 42.65 L 252.13 42.60 L 252.43 42.55 L 252.73 42.50 L 253.04 42.44 L 253.34 42.39 L 253.64 42.34 L 253.94 42.29 L 254.25 42.24 L 254.55 42.19 L 254.85 42.14 L 255.15 42.09 L 255.46 42.04 L 255.76 41.98 L 256.06 41.93 L 256.36 41.88 L 256.67 41.83 L 256.97 41.78 L 257.27 41.73 L 257.58 41.68 L 257.88 41.63 L 258.18 41.58 L 258.48 41.53 L 258.79 41.48 L 259.09 41.43 L 259.39 41.39 L 259.69 41.34 L 260.00 41.29 L 260.30 41.24 L 260.60 41.19 L 260.90 41.14 L 261.21 41.09 L 261.51 41.04 L 261.81 40.99 L 262.11 40.95 L 262.42 40.90 L 262.72 40.85 L 263.02 40.80 L 263.32 40.75 L 263.63 40.70 L 263.93 40.66 L 264.23 40.61 L 264.53 40.56 L 264.84 40.51 L 265.14 40.47 L 265.44 40.42 L 265.74 40.37 L 266.05 40.32 L 266.35 40.28 L 266.65 40.23 L 266.95 40.18 L 267.26 40.14 L 267.56 40.09 L 267.86 40.04 L 268.16 39.99 L 268.47 39.95 L 268.77 39.90 L 269.07 39.86 L 269.37 39.81 L 269.68 39.76 L 269.98 39.72 L 270.28 39.67 L 270.59 39.62 L 270.89 39.58 L 271.19 39.53 L 271.49 39.49 L 271.80 39.44 L 272.10 39.40 L 272.40 39.35 L 272.70 39.31 L 273.01 39.26 L 273.31 39.21 L 273.61 39.17 L 273.91 39.12 L 274.22 39.08 L 274.52 39.03 L 274.82 38.99 L 275.12 38.94 L 275.43 38.90 L 275.73 38.86 L 276.03 38.81 L 276.33 38.77 L 276.64 38.72 L 276.94 38.68 L 277.24 38.63 L 277.54 38.59 L 277.85 38.55 L 278.15 38.50 L 278.45 38.46 L 278.75 38.41 L 279.06 38.37 L 279.36 38.33 L 279.66 38.28 L 279.96 38.24 L 280.27 38.20 L 280.57 38.15 L 280.87 38.11 L 281.17 38.07 L 281.48 38.02 L 281.78 37.98 L 282.08 37.94 L 282.38 37.89 L 282.69 37.85 L 282.99 37.81 L 283.29 37.76 L 283.60 37.72 L 283.90 37.68 L 284.20 37.64 L 284.50 37.59 L 284.81 37.55 L 285.11 37.51 L 285.41 37.47 L 285.71 37.42 L 286.02 37.38 L 286.32 37.34 L 286.62 37.30 L 286.92 37.26 L 287.23 37.21 L 287.53 37.17 L 287.83 37.13 L 288.13 37.09 L 288.44 37.05 L 288.74 37.01 L 289.04 36.97 L 289.34 36.92 L 289.65 36.88 L 289.95 36.84 L 290.25 36.80 L 290.55 36.76 L 290.86 36.72 L 291.16 36.68 L 291.46 36.64 L 291.76 36.59 L 292.07 36.55 L 292.37 36.51 L 292.67 36.47 L 292.97 36.43 L 293.28 36.39 L 293.58 36.35 L 293.88 36.31 L 294.18 36.27 L 294.49 36.23 L 294.79 36.19 L 295.09 36.15 L 295.39 36.11 L 295.70 36.07 L 296.00 36.03" fill="none" stroke="#7E8692" stroke-width="2.3" stroke-linecap="round" stroke-linejoin="round"/>
</svg>
