<svg xmlns="http://www.w3.org/2000/svg" viewBox="0 0 320 180" width="320" height="180">
  <rect width="320" height="180" fill="#F4F5F7"/>
  <path d="M 24.00 146.63 L 24.30 146.63 L 24.61 146.63 L 24.91 146.63 L 25.21 146.63 L 25.51 146.63 L 25.82 146.62 L 26.12 146.62 L 26.42 146.62 L 26.72 146.62 L 27.03 146.62 L 27.33 146.62 L 27.63 146.62 L 27.93 146.62 L 28.24 146.62 L 28.54 146.62 L 28.84 146.62 L 29.14 146.62 L 29.45 146.61 L 29.75 146.61 L 30.05 146.61 L 30.35 146.61 L 30.66 146.61 L 30.96 146.61 L 31.26 146.61 L 31.56 146.61 L 31.87 146.61 L 32.17 146.61 L 32.47 146.60 L 32.77 146.60 L 33.08 146.60 L 33.38 146.60 L 33.68 146.60 L 33.98 146.60 L 34.29 146.60 L 34.59 146.60 L 34.89 146.59 L 35.19 146.59 L 35.50 146.59 L 35.80 146.59 L 36.10 146.59 L 36.40 146.59 L 36.71 146.59 L 37.01 146.58 L 37.31 146.58 L 37.62 146.58 L 37.92 146.58 L 38.22 146.58 L 38.52 146.58 L 38.83 146.58 L 39.13 146.57 L 39.43 146.57 L 39.73 146.57 L 40.04 146.57 L 40.34 146.57 L 40.64 146.57 L 40.94 146.56 L 41.25 146.56 L 41.55 146.56 L 41.85 146.56 L 42.15 146.56 L 42.46 146.55 L 42.76 146.55 L 43.06 146.55 L 43.36 146.55 L 43.67 146.55 L 43.97 146.54 L 44.27 146.54 L 44.57 146.54 L 44.88 146.54 L 45.18 146.53 L 45.48 146.53 L 45.78 146.53 L 46.09 146.53 L 46.39 146.52 L 46.69 146.52 L 46.99 146.52 L 47.30 146.52 L 47.60 146.51 L 47.90 146.51 L 48.20 146.51 L 48.51 146.51 L 48.81 146.50 L 49.11 146.50 L 49.41 146.50 L 49.72 146.49 L 50.02 146.49 L 50.32 146.49 L 50.63 146.48 L 50.93 146.48 L 51.23 146.48 L 51.53 146.47 L 51.84 146.47 L 52.14 146.47 L 52.44 146.46 L 52.74 146.46 L 53.05 146.46 L 53.35 146.45 L 53.65 146.45 L 53.95 146.45 L 54.26 146.44 L 54.56 146.44 L 54.86 146.43 L 55.16 146.43 L 55.47 146.43 L 55.77 146.42 L 56.07 146.42 L 56.37 146.41 L 56.68 146.41 L 56.98 146.40 L 57.28 146.40 L 57.58 146.39 L 57.89 146.39 L 58.19 146.38 L 58.49 146.38 L 58.79 146.37 L 59.10 146.37 L 59.40 146.36 L 59.70 146.36 L 60.00 146.35 L 60.31 146.35 L 60.61 146.34 L 60.91 146.33 L 61.21 146.33 L 61.52 146.32 L 61.82 146.32 L 62.12 146.31 L 62.42 146.30 L 62.73 146.30 L 63.03 146.29 L 63.33 146.28 L 63.64 146.28 L 63.94 146.27 L 64.24 146.26 L 64.54 146.26 L 64.85 146.25 L 65.15 146.24 L 65.45 146.23 L 65.75 146.23 L 66.06 146.22 L 66.36 146.21 L 66.66 146.20 L 66.96 146.19 L 67.27 146.18 L 67.57 146.18 L 67.87 146.17 L 68.17 146.16 L 68.48 146.15 L 68.78 146.14 L 69.08 146.13 L 69.38 146.12 L 69.69 146.11 L 69.99 146.10 L 70.29 146.09 L 70.59 146.08 L 70.90 146.07 L 71.20 146.06 L 71.50 146.05 L 71.80 146.04 L 72.11 146.03 L 72.41 146.01 L 72.71 146.00 L 73.01 145.99 L 73.32 145.98 L 73.62 145.97 L 73.92 145.95 L 74.22 145.94 L 74.53 145.93 L 74.83 145.92 L 75.13 145.90 L 75.43 145.89 L 75.74 145.87 L 76.04 145.86 L 76.34 145.85 L 76.65 145.83 L 76.95 145.82 L 77.25 145.80 L 77.55 145.79 L 77.86 145.77 L 78.16 145.75 L 78.46 145.74 L 78.76 145.72 L 79.07 145.70 L 79.37 145.69 L 79.67 145.67 L 79.97 145.65 L 80.28 145.63 L 80.58 145.62 L 80.88 145.60 L 81.18 145.58 L 81.49 145.56 L 81.79 145.54 L 82.09 145.52 L 82.39 145.50 L 82.70 145.48 L 83.00 145.46 L 83.30 145.44 L 83.60 145.41 L 83.91 145.39 L 84.21 145.37 L 84.51 145.35 L 84.81 145.32 L 85.12 145.30 L 85.42 145.27 L 85.72 145.25 L 86.02 145.22 L 86.33 145.20 L 86.63 145.17 L 86.93 145.15 L 87.23 145.12 L 87.54 145.09 L 87.84 145.06 L 88.14 145.04 L 88.44 145.01 L 88.75 144.98 L 89.05 144.95 L 89.35 144.92 L 89.66 144.89 L 89.96 144.86 L 90.26 144.82 L 90.56 144.79 L 90.87 144.76 L 91.17 144.72 L 91.47 144.69 L 91.77 144.65 L 92.08 144.62 L 92.38 144.58 L 92.68 144.55 L 92.98 144.51 L 93.29 144.47 L 93.59 144.43 L 93.89 144.39 L 94.19 144.35 L 94.50 144.31 L 94.80 144.27 L 95.10 144.23 L 95.40 144.19 L 95.71 144.14 L 96.01 144.10 L 96.31 144.05 L 96.61 144.01 L 96.92 143.96 L 97.22 143.91 L 97.52 143.87 L 97.82 143.82 L 98.13 143.77 L 98.43 143.72 L 98.73 143.66 L 99.03 143.61 L 99.34 143.56 L 99.64 143.50 L 99.94 143.45 L 100.24 143.39 L 100.55 143.34 L 100.85 143.28 L 101.15 143.22 L 101.45 143.16 L 101.76 143.10 L 102.06 143.04 L 102.36 142.97 L 102.67 142.91 L 102.97 142.84 L 103.27 142.78 L 103.57 142.71 L 103.88 142.64 L 104.18 142.57 L 104.48 142.50 L 104.78 142.43 L 105.09 142.36 L 105.39 142.28 L 105.69 142.21 L 105.99 142.13 L 106.30 142.05 L 106.60 141.97 L 106.90 141.89 L 107.20 141.81 L 107.51 141.72 L 107.81 141.64 L 108.11 141.55 L 108.41 141.47 L 108.72 141.38 L 109.02 141.29 L 109.32 141.19 L 109.62 141.10 L 109.93 141.01 L 110.23 140.91 L 110.53 140.81 L 110.83 140.71 L 111.14 140.61 L 111.44 140.51 L 111.74 140.40 L 112.04 140.30 L 112.35 140.19 L 112.65 140.08 L 112.95 139.97 L 113.25 139.86 L 113.56 139.74 L 113.86 139.62 L 114.16 139.51 L 114.46 139.38 L 114.77 139.26 L 115.07 139.14 L 115.37 139.01 L 115.68 138.88 L 115.98 138.75 L 116.28 138.62 L 116.58 138.49 L 116.89 138.35 L 117.19 138.21 L 117.49 138.07 L 117.79 137.93 L 118.10 137.79 L 118.40 137.64 L 118.70 137.49 L 119.00 137.34 L 119.31 137.19 L 119.61 137.03 L 119.91 136.87 L 120.21 136.71 L 120.52 136.55 L 120.82 136.38 L 121.12 136.22 L 121.42 136.05 L 121.73 135.87 L 122.03 135.70 L 122.33 135.52 L 122.63 135.34 L 122.94 135.16 L 123.24 134.97 L 123.54 134.79 L 123.84 134.59 L 124.15 134.40 L 124.45 134.21 L 124.75 134.01 L 125.05 133.80 L 125.36 133.60 L 125.66 133.39 L 125.96 133.18 L 126.26 132.97 L 126.57 132.75 L 126.87 132.54 L 127.17 132.31 L 127.47 132.09 L 127.78 131.86 L 128.08 131.63 L 128.38 131.40 L 128.69 131.16 L 128.99 130.92 L 129.29 130.68 L 129.59 130.43 L 129.90 130.18 L 130.20 129.93 L 130.50 129.68 L 130.80 129.42 L 131.11 129.16 L 131.41 128.89 L 131.71 128.62 L 132.01 128.35 L 132.32 128.08 L 132.62 127.80 L 132.92 127.52 L 133.22 127.23 L 133.53 126.94 L 133.83 126.65 L 134.13 126.36 L 134.43 126.06 L 134.74 125.76 L 135.04 125.45 L 135.34 125.14 L 135.64 124.83 L 135.95 124.51 L 136.25 124.20 L 136.55 123.87 L 136.85 123.55 L 137.16 123.22 L 137.46 122.89 L 137.76 122.55 L 138.06 122.21 L 138.37 121.87 L 138.67 121.52 L 138.97 121.17 L 139.27 120.82 L 139.58 120.46 L 139.88 120.10 L 140.18 119.74 L 140.48 119.37 L 140.79 119.00 L 141.09 118.62 L 141.39 118.25 L 141.70 117.87 L 142.00 117.48 L 142.30 117.09 L 142.60 116.70 L 142.91 116.31 L 143.21 115.91 L 143.51 115.51 L 143.81 115.11 L 144.12 114.70 L 144.42 114.29 L 144.72 113.88 L 145.02 113.46 L 145.33 113.04 L 145.63 112.62 L 145.93 112.20 L 146.23 111.77 L 146.54 111.34 L 146.84 110.90 L 147.14 110.46 L 147.44 110.02 L 147.75 109.58 L 148.05 109.14 L 148.35 108.69 L 148.65 108.24 L 148.96 107.78 L 149.26 107.33 L 149.56 106.87 L 149.86 106.41 L 150.17 105.95 L 150.47 105.48 L 150.77 105.01 L 151.07 104.54 L 151.38 104.07 L 151.68 103.60 L 151.98 103.12 L 152.28 102.64 L 152.59 102.16 L 152.89 101.68 L 153.19 101.20 L 153.49 100.71 L 153.80 100.22 L 154.10 99.74 L 154.40 99.25 L 154.71 98.75 L 155.01 98.26 L 155.31 97.77 L 155.61 97.27 L 155.92 96.78 L 156.22 96.28 L 156.52 95.78 L 156.82 95.28 L 157.13 94.78 L 157.43 94.28 L 157.73 93.78 L 158.03 93.27 L 158.34 92.77 L 158.64 92.27 L 158.94 91.76 L 159.24 91.26 L 159.55 90.76 L 159.85 90.25 L 160.15 89.75 L 160.45 89.24 L 160.76 88.74 L 161.06 88.24 L 161.36 87.73 L 161.66 87.23 L 161.97 86.73 L 162.27 86.22 L 162.57 85.72 L 162.87 85.22 L 163.18 84.72 L 163.48 84.22 L 163.78 83.72 L 164.08 83.22 L 164.39 82.73 L 164.69 82.23 L 164.99 81.74 L 165.29 81.25 L 165.60 80.75 L 165.90 80.26 L 166.20 79.78 L 166.51 79.29 L 166.81 78.80 L 167.11 78.32 L 167.41 77.84 L 167.72 77.36 L 168.02 76.88 L 168.32 76.40 L 168.62 75.93 L 168.93 75.46 L 169.23 74.99 L 169.53 74.52 L 169.83 74.05 L 170.14 73.59 L 170.44 73.13 L 170.74 72.67 L 171.04 72.22 L 171.35 71.76 L 171.65 71.31 L 171.95 70.86 L 172.25 70.42 L 172.56 69.98 L 172.86 69.54 L 173.16 69.10 L 173.46 68.66 L 173.77 68.23 L 174.07 67.80 L 174.37 67.38 L 174.67 66.96 L 174.98 66.54 L 175.28 66.12 L 175.58 65.71 L 175.88 65.30 L 176.19 64.89 L 176.49 64.49 L 176.79 64.09 L 177.09 63.69 L 177.40 63.30 L 177.70 62.91 L 178.00 62.52 L 178.30 62.13 L 178.61 61.75 L 178.91 61.38 L 179.21 61.00 L 179.52 60.63 L 179.82 60.26 L 180.12 59.90 L 180.42 59.54 L 180.73 59.18 L 181.03 58.83 L 181.33 58.48 L 181.63 58.13 L 181.94 57.79 L 182.24 57.45 L 182.54 57.11 L 182.84 56.78 L 183.15 56.45 L 183.45 56.13 L 183.75 55.80 L 184.05 55.49 L 184.36 55.17 L 184.66 54.86 L 184.96 54.55 L 185.26 54.24 L 185.57 53.94 L 185.87 53.64 L 186.17 53.35 L 186.47 53.06 L 186.78 52.77 L 187.08 52.48 L 187.38 52.20 L 187.68 51.92 L 187.99 51.65 L 188.29 51.38 L 188.59 51.11 L 188.89 50.84 L 189.20 50.58 L 189.50 50.32 L 189.80 50.07 L 190.10 49.82 L 190.41 49.57 L 190.71 49.32 L 191.01 49.08 L 191.31 48.84 L 191.62 48.60 L 191.92 48.37 L 192.22 48.14 L 192.53 47.91 L 192.83 47.69 L 193.13 47.46 L 193.43 47.25 L 193.74 47.03 L 194.04 46.82 L 194.34 46.61 L 194.64 46.40 L 194.95 46.20 L 195.25 45.99 L 195.55 45.79 L 195.85 45.60 L 196.16 45.41 L 196.46 45.21 L 196.76 45.03 L 197.06 44.84 L 197.37 44.66 L 197.67 44.48 L 197.97 44.30 L 198.27 44.13 L 198.58 43.95 L 198.88 43.78 L 199.18 43.62 L 199.48 43.45 L 199.79 43.29 L 200.09 43.13 L 200.39 42.97 L 200.69 42.81 L 201.00 42.66 L 201.30 42.51 L 201.60 42.36 L 201.90 42.21 L 202.21 42.07 L 202.51 41.93 L 202.81 41.79 L 203.11 41.65 L 203.42 41.51 L 203.72 41.38 L 204.02 41.25 L 204.32 41.12 L 204.63 40.99 L 204.93 40.86 L 205.23 40.74 L 205.54 40.62 L 205.84 40.49 L 206.14 40.38 L 206.44 40.26 L 206.75 40.14 L 207.05 40.03 L 207.35 39.92 L 207.65 39.81 L 207.96 39.70 L 208.26 39.60 L 208.56 39.49 L 208.86 39.39 L 209.17 39.29 L 209.47 39.19 L 209.77 39.09 L 210.07 38.99 L 210.38 38.90 L 210.68 38.81 L 210.98 38.71 L 211.28 38.62 L 211.59 38.53 L 211.89 38.45 L 212.19 38.36 L 212.49 38.28 L 212.80 38.19 L 213.10 38.11 L 213.40 38.03 L 213.70 37.95 L 214.01 37.87 L 214.31 37.79 L 214.61 37.72 L 214.91 37.64 L 215.22 37.57 L 215.52 37.50 L 215.82 37.43 L 216.12 37.36 L 216.43 37.29 L 216.73 37.22 L 217.03 37.16 L 217.33 37.09 L 217.64 37.03 L 217.94 36.96 L 218.24 36.90 L 218.55 36.84 L 218.85 36.78 L 219.15 36.72 L 219.45 36.66 L 219.76 36.61 L 220.06 36.55 L 220.36 36.50 L 220.66 36.44 L 220.97 36.39 L 221.27 36.34 L 221.57 36.28 L 221.87 36.23 L 222.18 36.18 L 222.48 36.13 L 222.78 36.09 L 223.08 36.04 L 223.39 35.99 L 223.69 35.95 L 223.99 35.90 L 224.29 35.86 L 224.60 35.81 L 224.90 35.77 L 225.20 35.73 L 225.50 35.69 L 225.81 35.65 L 226.11 35.61 L 226.41 35.57 L 226.71 35.53 L 227.02 35.49 L 227.32 35.45 L 227.62 35.42 L 227.92 35.38 L 228.23 35.35 L 228.53 35.31 L 228.83 35.28 L 229.13 35.24 L 229.44 35.21 L 229.74 35.18 L 230.04 35.14 L 230.34 35.11 L 230.65 35.08 L 230.95 35.05 L 231.25 35.02 L 231.56 34.99 L 231.86 34.96 L 232.16 34.94 L 232.46 34.91 L 232.77 34.88 L 233.07 34.85 L 233.37 34.83 L 233.67 34.80 L 233.98 34.78 L 234.28 34.75 L 234.58 34.73 L 234.88 34.70 L 235.19 34.68 L 235.49 34.65 L 235.79 34.63 L 236.09 34.61 L 236.40 34.59 L 236.70 34.56 L 237.00 34.54 L 237.30 34.52 L 237.61 34.50 L 237.91 34.48 L 238.21 34.46 L 238.51 34.44 L 238.82 34.42 L 239.12 34.40 L 239.42 34.38 L 239.72 34.37 L 240.03 34.35 L 240.33 34.33 L 240.63 34.31 L 240.93 34.30 L 241.24 34.28 L 241.54 34.26 L 241.84 34.25 L 242.14 34.23 L 242.45 34.21 L 242.75 34.20 L 243.05 34.18 L 243.35 34.17 L 243.66 34.15 L 243.96 34.14 L 244.26 34.13 L 244.57 34.11 L 244.87 34.10 L 245.17 34.08 L 245.47 34.07 L 245.78 34.06 L 246.08 34.05 L 246.38 34.03 L 246.68 34.02 L 246.99 34.01 L 247.29 34.00 L 247.59 33.99 L 247.89 33.97 L 248.20 33.96 L 248.50 33.95 L 248.80 33.94 L 249.10 33.93 L 249.41 33.92 L 249.71 33.91 L 250.01 33.90 L 250.31 33.89 L 250.62 33.88 L 250.92 33.87 L 251.22 33.86 L 251.52 33.85 L 251.83 33.84 L 252.13 33.83 L 252.43 33.82 L 252.73 33.82 L 253.04 33.81 L 253.34 33.80 L 253.64 33.79 L 253.94 33.78 L 254.25 33.77 L 254.55 33.77 L 254.85 33.76 L 255.15 33.75 L 255.46 33.74 L 255.76 33.74 L 256.06 33.73 L 256.36 33.72 L 256.67 33.72 L 256.97 33.71 L 257.27 33.70 L 257.58 33.70 L 257.88 33.69 L 258.18 33.68 L 258.48 33.68 L 258.79 33.67 L 259.09 33.67 L 259.39 33.66 L 259.69 33.65 L 260.00 33.65 L 260.30 33.64 L 260.60 33.64 L 260.90 33.63 L 261.21 33.63 L 261.51 33.62 L 261.81 33.62 L 262.11 33.61 L 262.42 33.61 L 262.72 33.60 L 263.02 33.60 L 263.32 33.59 L 263.63 33.59 L 263.93 33.58 L 264.23 33.58 L 264.53 33.57 L 264.84 33.57 L 265.14 33.57 L 265.44 33.56 L 265.74 33.56 L 266.05 33.55 L 266.35 33.55 L 266.65 33.55 L 266.95 33.54 L 267.26 33.54 L 267.56 33.54 L 267.86 33.53 L 268.16 33.53 L 268.47 33.53 L 268.77 33.52 L 269.07 33.52 L 269.37 33.52 L 269.68 33.51 L 269.98 33.51 L 270.28 33.51 L 270.59 33.50 L 270.89 33.50 L 271.19 33.50 L 271.49 33.49 L 271.80 33.49 L 272.10 33.49 L 272.40 33.49 L 272.70 33.48 L 273.01 33.48 L 273.31 33.48 L 273.61 33.48 L 273.91 33.47 L 274.22 33.47 L 274.52 33.47 L 274.82 33.47 L 275.12 33.46 L 275.43 33.46 L 275.73 33.46 L 276.03 33.46 L 276.33 33.45 L 276.64 33.45 L 276.94 33.45 L 277.24 33.45 L 277.54 33.45 L 277.85 33.44 L 278.15 33.44 L 278.45 33.44 L 278.75 33.44 L 279.06 33.44 L 279.36 33.43 L 279.66 33.43 L 279.96 33.43 L 280.27 33.43 L 280.57 33.43 L 280.87 33.43 L 281.17 33.42 L 281.48 33.42 L 281.78 33.42 L 282.08 33.42 L 282.38 33.42 L 282.69 33.42 L 282.99 33.42 L 283.29 33.41 L 283.60 33.41 L 283.90 33.41 L 284.20 33.41 L 284.50 33.41 L 284.81 33.41 L 285.11 33.41 L 285.41 33.40 L 285.71 33.40 L 286.02 33.40 L 286.32 33.40 L 286.62 33.40 L 286.92 33.40 L 287.23 33.40 L 287.53 33.40 L 287.83 33.39 L 288.13 33.39 L 288.44 33.39 L 288.74 33.39 L 289.04 33.39 L 289.34 33.39 L 289.65 33.39 L 289.95 33.39 L 290.25 33.39 L 290.55 33.39 L 290.86 33.38 L 291.16 33.38 L 291.46 33.38 L 291.76 33.38 L 292.07 33.38 L 292.37 33.38 L 292.67 33.38 L 292.97 33.38 L 293.28 33.38 L 293.58 33.38 L 293.88 33.38 L 294.18 33.38 L 294.49 33.37 L 294.79 33.37 L 295.09 33.37 L 295.39 33.37 L 295.70 33.37 L 296.00 33.37" fill="none" stroke="#7E8692" stroke-width="2.3" stroke-linecap="round" stroke-linejoin="round"/>
</svg>
