<svg xmlns="http://www.w3.org/2000/svg" viewBox="0 0 320 180" width="320" height="180">
  <rect width="320" height="180" fill="none"/>
  <path d="M 41.89 141.68 L 42.08 138.85 L 42.28 136.77 L 42.47 135.04 L 42.66 133.53 L 42.86 132.18 L 43.05 130.94 L 43.25 129.80 L 43.44 128.72 L 43.64 127.71 L 43.83 126.75 L 44.03 125.83 L 44.22 124.95 L 44.41 124.11 L 44.61 123.30 L 44.80 122.51 L 45.00 121.76 L 45.19 121.02 L 45.39 120.31 L 45.58 119.61 L 45.78 118.94 L 45.97 118.28 L 46.16 117.64 L 46.36 117.01 L 46.55 116.39 L 46.75 115.79 L 46.94 115.20 L 47.14 114.63 L 47.33 114.06 L 47.53 113.50 L 47.72 112.96 L 47.91 112.42 L 48.11 111.90 L 48.30 111.38 L 48.50 110.87 L 48.69 110.36 L 48.89 109.87 L 49.08 109.38 L 49.28 108.90 L 49.47 108.43 L 49.66 107.96 L 49.86 107.50 L 50.05 107.05 L 50.25 106.60 L 50.44 106.16 L 50.64 105.72 L 50.83 105.29 L 51.03 104.86 L 51.22 104.44 L 51.41 104.02 L 51.61 103.61 L 51.80 103.20 L 52.00 102.80 L 52.19 102.40 L 52.39 102.00 L 52.58 101.61 L 52.77 101.23 L 52.97 100.84 L 53.16 100.47 L 53.36 100.09 L 53.55 99.72 L 53.75 99.35 L 53.94 98.99 L 54.14 98.63 L 54.33 98.27 L 54.52 97.91 L 54.72 97.56 L 54.91 97.22 L 55.11 96.87 L 55.30 96.53 L 55.50 96.19 L 55.69 95.85 L 55.89 95.52 L 56.08 95.19 L 56.27 94.86 L 56.47 94.54 L 56.66 94.21 L 56.86 93.89 L 57.05 93.57 L 57.25 93.26 L 57.44 92.95 L 57.64 92.64 L 57.83 92.33 L 58.02 92.02 L 58.22 91.72 L 58.41 91.42 L 58.61 91.12 L 58.80 90.82 L 59.00 90.53 L 59.19 90.23 L 59.39 89.94 L 59.58 89.66 L 59.77 89.37 L 59.97 89.08 L 60.16 88.80 L 60.36 88.52 L 60.55 88.24 L 60.75 87.97 L 60.94 87.69 L 61.14 87.42 L 61.33 87.14 L 61.52 86.88 L 61.72 86.61 L 61.91 86.34 L 62.11 86.08 L 62.30 85.81 L 62.50 85.55 L 62.69 85.29 L 62.88 85.03 L 63.08 84.78 L 63.27 84.52 L 63.47 84.27 L 63.66 84.02 L 63.86 83.77 L 64.05 83.52 L 64.25 83.27 L 64.44 83.02 L 64.63 82.78 L 64.83 82.54 L 65.02 82.29 L 65.22 82.05 L 65.41 81.81 L 65.61 81.58 L 65.80 81.34 L 66.00 81.11 L 66.19 80.87 L 66.38 80.64 L 66.58 80.41 L 66.77 80.18 L 66.97 79.95 L 67.16 79.72 L 67.36 79.50 L 67.55 79.27 L 67.75 79.05 L 67.94 78.83 L 68.13 78.60 L 68.33 78.38 L 68.52 78.17 L 68.72 77.95 L 68.91 77.73 L 69.11 77.52 L 69.30 77.30 L 69.50 77.09 L 69.69 76.88 L 69.88 76.66 L 70.08 76.45 L 70.27 76.25 L 70.47 76.04 L 70.66 75.83 L 70.86 75.63 L 71.05 75.42 L 71.25 75.22 L 71.44 75.01 L 71.63 74.81 L 71.83 74.61 L 72.02 74.41 L 72.22 74.21 L 72.41 74.02 L 72.61 73.82 L 72.80 73.62 L 72.99 73.43 L 73.19 73.24 L 73.38 73.04 L 73.58 72.85 L 73.77 72.66 L 73.97 72.47 L 74.16 72.28 L 74.36 72.09 L 74.55 71.90 L 74.74 71.72 L 74.94 71.53 L 75.13 71.35 L 75.33 71.16 L 75.52 70.98 L 75.72 70.80 L 75.91 70.62 L 76.11 70.44 L 76.30 70.26 L 76.49 70.08 L 76.69 69.90 L 76.88 69.72 L 77.08 69.55 L 77.27 69.37 L 77.47 69.20 L 77.66 69.02 L 77.86 68.85 L 78.05 68.68 L 78.24 68.51 L 78.44 68.34 L 78.63 68.17 L 78.83 68.00 L 79.02 67.83 L 79.22 67.66 L 79.41 67.49 L 79.61 67.33 L 79.80 67.16 L 79.99 67.00 L 80.19 66.83 L 80.38 66.67 L 80.58 66.51 L 80.77 66.35 L 80.97 66.18 L 81.16 66.02 L 81.36 65.86 L 81.55 65.71 L 81.74 65.55 L 81.94 65.39 L 82.13 65.23 L 82.33 65.08 L 82.52 64.92 L 82.72 64.77 L 82.91 64.61 L 83.11 64.46 L 83.30 64.31 L 83.49 64.15 L 83.69 64.00 L 83.88 63.85 L 84.08 63.70 L 84.27 63.55 L 84.47 63.40 L 84.66 63.26 L 84.85 63.11 L 85.05 62.96 L 85.24 62.81 L 85.44 62.67 L 85.63 62.52 L 85.83 62.38 L 86.02 62.24 L 86.22 62.09 L 86.41 61.95 L 86.60 61.81 L 86.80 61.67 L 86.99 61.53 L 87.19 61.39 L 87.38 61.25 L 87.58 61.11 L 87.77 60.97 L 87.97 60.83 L 88.16 60.70 L 88.35 60.56 L 88.55 60.42 L 88.74 60.29 L 88.94 60.15 L 89.13 60.02 L 89.33 59.89 L 89.52 59.75 L 89.72 59.62 L 89.91 59.49 L 90.10 59.36 L 90.30 59.23 L 90.49 59.10 L 90.69 58.97 L 90.88 58.84 L 91.08 58.71 L 91.27 58.58 L 91.47 58.45 L 91.66 58.33 L 91.85 58.20 L 92.05 58.07 L 92.24 57.95 L 92.44 57.82 L 92.63 57.70 L 92.83 57.58 L 93.02 57.45 L 93.22 57.33 L 93.41 57.21 L 93.60 57.09 L 93.80 56.96 L 93.99 56.84 L 94.19 56.72 L 94.38 56.60 L 94.58 56.49 L 94.77 56.37 L 94.96 56.25 L 95.16 56.13 L 95.35 56.01 L 95.55 55.90 L 95.74 55.78 L 95.94 55.67 L 96.13 55.55 L 96.33 55.44 L 96.52 55.32 L 96.71 55.21 L 96.91 55.10 L 97.10 54.98 L 97.30 54.87 L 97.49 54.76 L 97.69 54.65 L 97.88 54.54 L 98.08 54.43 L 98.27 54.32 L 98.46 54.21 L 98.66 54.10 L 98.85 53.99 L 99.05 53.88 L 99.24 53.78 L 99.44 53.67 L 99.63 53.56 L 99.83 53.46 L 100.02 53.35 L 100.21 53.25 L 100.41 53.14 L 100.60 53.04 L 100.80 52.93 L 100.99 52.83 L 101.19 52.73 L 101.38 52.63 L 101.58 52.52 L 101.77 52.42 L 101.96 52.32 L 102.16 52.22 L 102.35 52.12 L 102.55 52.02 L 102.74 51.92 L 102.94 51.82 L 103.13 51.73 L 103.33 51.63 L 103.52 51.53 L 103.71 51.43 L 103.91 51.34 L 104.10 51.24 L 104.30 51.14 L 104.49 51.05 L 104.69 50.95 L 104.88 50.86 L 105.08 50.77 L 105.27 50.67 L 105.46 50.58 L 105.66 50.49 L 105.85 50.39 L 106.05 50.30 L 106.24 50.21 L 106.44 50.12 L 106.63 50.03 L 106.82 49.94 L 107.02 49.85 L 107.21 49.76 L 107.41 49.67 L 107.60 49.58 L 107.80 49.49 L 107.99 49.41 L 108.19 49.32 L 108.38 49.23 L 108.57 49.15 L 108.77 49.06 L 108.96 48.97 L 109.16 48.89 L 109.35 48.80 L 109.55 48.72 L 109.74 48.63 L 109.94 48.55 L 110.13 48.47 L 110.32 48.38 L 110.52 48.30 L 110.71 48.22 L 110.91 48.14 L 111.10 48.06 L 111.30 47.97 L 111.49 47.89 L 111.69 47.81 L 111.88 47.73 L 112.07 47.65 L 112.27 47.58 L 112.46 47.50 L 112.66 47.42 L 112.85 47.34 L 113.05 47.26 L 113.24 47.19 L 113.44 47.11 L 113.63 47.03 L 113.82 46.96 L 114.02 46.88 L 114.21 46.81 L 114.41 46.73 L 114.60 46.66 L 114.80 46.58 L 114.99 46.51 L 115.19 46.43 L 115.38 46.36 L 115.57 46.29 L 115.77 46.22 L 115.96 46.14 L 116.16 46.07 L 116.35 46.00 L 116.55 45.93 L 116.74 45.86 L 116.93 45.79 L 117.13 45.72 L 117.32 45.65 L 117.52 45.58 L 117.71 45.51 L 117.91 45.45 L 118.10 45.38 L 118.30 45.31 L 118.49 45.24 L 118.68 45.18 L 118.88 45.11 L 119.07 45.04 L 119.27 44.98 L 119.46 44.91 L 119.66 44.85 L 119.85 44.78 L 120.05 44.72 L 120.24 44.65 L 120.43 44.59 L 120.63 44.53 L 120.82 44.46 L 121.02 44.40 L 121.21 44.34 L 121.41 44.28 L 121.60 44.21 L 121.80 44.15 L 121.99 44.09 L 122.18 44.03 L 122.38 43.97 L 122.57 43.91 L 122.77 43.85 L 122.96 43.79 L 123.16 43.73 L 123.35 43.68 L 123.55 43.62 L 123.74 43.56 L 123.93 43.50 L 124.13 43.45 L 124.32 43.39 L 124.52 43.33 L 124.71 43.28 L 124.91 43.22 L 125.10 43.17 L 125.30 43.11 L 125.49 43.06 L 125.68 43.00 L 125.88 42.95 L 126.07 42.89 L 126.27 42.84 L 126.46 42.79 L 126.66 42.73 L 126.85 42.68 L 127.05 42.63 L 127.24 42.58 L 127.43 42.53 L 127.63 42.48 L 127.82 42.42 L 128.02 42.37 L 128.21 42.32 L 128.41 42.27 L 128.60 42.23 L 128.79 42.18 L 128.99 42.13 L 129.18 42.08 L 129.38 42.03 L 129.57 41.98 L 129.77 41.94 L 129.96 41.89 L 130.16 41.84 L 130.35 41.79 L 130.54 41.75 L 130.74 41.70 L 130.93 41.66 L 131.13 41.61 L 131.32 41.57 L 131.52 41.52 L 131.71 41.48 L 131.91 41.43 L 132.10 41.39 L 132.29 41.35 L 132.49 41.30 L 132.68 41.26 L 132.88 41.22 L 133.07 41.18 L 133.27 41.14 L 133.46 41.09 L 133.66 41.05 L 133.85 41.01 L 134.04 40.97 L 134.24 40.93 L 134.43 40.89 L 134.63 40.85 L 134.82 40.81 L 135.02 40.78 L 135.21 40.74 L 135.41 40.70 L 135.60 40.66 L 135.79 40.62 L 135.99 40.59 L 136.18 40.55 L 136.38 40.51 L 136.57 40.48 L 136.77 40.44 L 136.96 40.40 L 137.16 40.37 L 137.35 40.33 L 137.54 40.30 L 137.74 40.27 L 137.93 40.23 L 138.13 40.20 L 138.32 40.16 L 138.52 40.13 L 138.71 40.10 L 138.90 40.06 L 139.10 40.03 L 139.29 40.00 L 139.49 39.97 L 139.68 39.94 L 139.88 39.91 L 140.07 39.88 L 140.27 39.85 L 140.46 39.82 L 140.65 39.79 L 140.85 39.76 L 141.04 39.73 L 141.24 39.70 L 141.43 39.67 L 141.63 39.64 L 141.82 39.61 L 142.02 39.59 L 142.21 39.56 L 142.40 39.53 L 142.60 39.50 L 142.79 39.48 L 142.99 39.45 L 143.18 39.43 L 143.38 39.40 L 143.57 39.37 L 143.77 39.35 L 143.96 39.33 L 144.15 39.30 L 144.35 39.28 L 144.54 39.25 L 144.74 39.23 L 144.93 39.21 L 145.13 39.18 L 145.32 39.16 L 145.52 39.14 L 145.71 39.12 L 145.90 39.10 L 146.10 39.07 L 146.29 39.05 L 146.49 39.03 L 146.68 39.01 L 146.88 38.99 L 147.07 38.97 L 147.27 38.95 L 147.46 38.93 L 147.65 38.91 L 147.85 38.90 L 148.04 38.88 L 148.24 38.86 L 148.43 38.84 L 148.63 38.82 L 148.82 38.81 L 149.02 38.79 L 149.21 38.77 L 149.40 38.76 L 149.60 38.74 L 149.79 38.73 L 149.99 38.71 L 150.18 38.70 L 150.38 38.68 L 150.57 38.67 L 150.76 38.65 L 150.96 38.64 L 151.15 38.62 L 151.35 38.61 L 151.54 38.60 L 151.74 38.59 L 151.93 38.57 L 152.13 38.56 L 152.32 38.55 L 152.51 38.54 L 152.71 38.53 L 152.90 38.52 L 153.10 38.51 L 153.29 38.50 L 153.49 38.49 L 153.68 38.48 L 153.88 38.47 L 154.07 38.46 L 154.26 38.45 L 154.46 38.44 L 154.65 38.43 L 154.85 38.42 L 155.04 38.42 L 155.24 38.41 L 155.43 38.40 L 155.63 38.39 L 155.82 38.39 L 156.01 38.38 L 156.21 38.38 L 156.40 38.37 L 156.60 38.37 L 156.79 38.36 L 156.99 38.36 L 157.18 38.35 L 157.38 38.35 L 157.57 38.34 L 157.76 38.34 L 157.96 38.34 L 158.15 38.33 L 158.35 38.33 L 158.54 38.33 L 158.74 38.33 L 158.93 38.32 L 159.13 38.32 L 159.32 38.32 L 159.51 38.32 L 159.71 38.32 L 159.90 38.32 L 160.10 38.32 L 160.29 38.32 L 160.49 38.32 L 160.68 38.32 L 160.87 38.32 L 161.07 38.32 L 161.26 38.33 L 161.46 38.33 L 161.65 38.33 L 161.85 38.33 L 162.04 38.34 L 162.24 38.34 L 162.43 38.34 L 162.62 38.35 L 162.82 38.35 L 163.01 38.36 L 163.21 38.36 L 163.40 38.37 L 163.60 38.37 L 163.79 38.38 L 163.99 38.38 L 164.18 38.39 L 164.37 38.39 L 164.57 38.40 L 164.76 38.41 L 164.96 38.42 L 165.15 38.42 L 165.35 38.43 L 165.54 38.44 L 165.74 38.45 L 165.93 38.46 L 166.12 38.47 L 166.32 38.48 L 166.51 38.49 L 166.71 38.50 L 166.90 38.51 L 167.10 38.52 L 167.29 38.53 L 167.49 38.54 L 167.68 38.55 L 167.87 38.56 L 168.07 38.57 L 168.26 38.59 L 168.46 38.60 L 168.65 38.61 L 168.85 38.62 L 169.04 38.64 L 169.24 38.65 L 169.43 38.67 L 169.62 38.68 L 169.82 38.70 L 170.01 38.71 L 170.21 38.73 L 170.40 38.74 L 170.60 38.76 L 170.79 38.77 L 170.98 38.79 L 171.18 38.81 L 171.37 38.82 L 171.57 38.84 L 171.76 38.86 L 171.96 38.88 L 172.15 38.90 L 172.35 38.91 L 172.54 38.93 L 172.73 38.95 L 172.93 38.97 L 173.12 38.99 L 173.32 39.01 L 173.51 39.03 L 173.71 39.05 L 173.90 39.07 L 174.10 39.10 L 174.29 39.12 L 174.48 39.14 L 174.68 39.16 L 174.87 39.18 L 175.07 39.21 L 175.26 39.23 L 175.46 39.25 L 175.65 39.28 L 175.85 39.30 L 176.04 39.33 L 176.23 39.35 L 176.43 39.37 L 176.62 39.40 L 176.82 39.43 L 177.01 39.45 L 177.21 39.48 L 177.40 39.50 L 177.60 39.53 L 177.79 39.56 L 177.98 39.59 L 178.18 39.61 L 178.37 39.64 L 178.57 39.67 L 178.76 39.70 L 178.96 39.73 L 179.15 39.76 L 179.35 39.79 L 179.54 39.82 L 179.73 39.85 L 179.93 39.88 L 180.12 39.91 L 180.32 39.94 L 180.51 39.97 L 180.71 40.00 L 180.90 40.03 L 181.10 40.06 L 181.29 40.10 L 181.48 40.13 L 181.68 40.16 L 181.87 40.20 L 182.07 40.23 L 182.26 40.27 L 182.46 40.30 L 182.65 40.33 L 182.84 40.37 L 183.04 40.40 L 183.23 40.44 L 183.43 40.48 L 183.62 40.51 L 183.82 40.55 L 184.01 40.59 L 184.21 40.62 L 184.40 40.66 L 184.59 40.70 L 184.79 40.74 L 184.98 40.78 L 185.18 40.81 L 185.37 40.85 L 185.57 40.89 L 185.76 40.93 L 185.96 40.97 L 186.15 41.01 L 186.34 41.05 L 186.54 41.09 L 186.73 41.14 L 186.93 41.18 L 187.12 41.22 L 187.32 41.26 L 187.51 41.30 L 187.71 41.35 L 187.90 41.39 L 188.09 41.43 L 188.29 41.48 L 188.48 41.52 L 188.68 41.57 L 188.87 41.61 L 189.07 41.66 L 189.26 41.70 L 189.46 41.75 L 189.65 41.79 L 189.84 41.84 L 190.04 41.89 L 190.23 41.94 L 190.43 41.98 L 190.62 42.03 L 190.82 42.08 L 191.01 42.13 L 191.21 42.18 L 191.40 42.23 L 191.59 42.27 L 191.79 42.32 L 191.98 42.37 L 192.18 42.42 L 192.37 42.48 L 192.57 42.53 L 192.76 42.58 L 192.95 42.63 L 193.15 42.68 L 193.34 42.73 L 193.54 42.79 L 193.73 42.84 L 193.93 42.89 L 194.12 42.95 L 194.32 43.00 L 194.51 43.06 L 194.70 43.11 L 194.90 43.17 L 195.09 43.22 L 195.29 43.28 L 195.48 43.33 L 195.68 43.39 L 195.87 43.45 L 196.07 43.50 L 196.26 43.56 L 196.45 43.62 L 196.65 43.68 L 196.84 43.73 L 197.04 43.79 L 197.23 43.85 L 197.43 43.91 L 197.62 43.97 L 197.82 44.03 L 198.01 44.09 L 198.20 44.15 L 198.40 44.21 L 198.59 44.28 L 198.79 44.34 L 198.98 44.40 L 199.18 44.46 L 199.37 44.53 L 199.57 44.59 L 199.76 44.65 L 199.95 44.72 L 200.15 44.78 L 200.34 44.85 L 200.54 44.91 L 200.73 44.98 L 200.93 45.04 L 201.12 45.11 L 201.32 45.18 L 201.51 45.24 L 201.70 45.31 L 201.90 45.38 L 202.09 45.45 L 202.29 45.51 L 202.48 45.58 L 202.68 45.65 L 202.87 45.72 L 203.07 45.79 L 203.26 45.86 L 203.45 45.93 L 203.65 46.00 L 203.84 46.07 L 204.04 46.14 L 204.23 46.22 L 204.43 46.29 L 204.62 46.36 L 204.81 46.43 L 205.01 46.51 L 205.20 46.58 L 205.40 46.66 L 205.59 46.73 L 205.79 46.81 L 205.98 46.88 L 206.18 46.96 L 206.37 47.03 L 206.56 47.11 L 206.76 47.19 L 206.95 47.26 L 207.15 47.34 L 207.34 47.42 L 207.54 47.50 L 207.73 47.58 L 207.93 47.65 L 208.12 47.73 L 208.31 47.81 L 208.51 47.89 L 208.70 47.97 L 208.90 48.06 L 209.09 48.14 L 209.29 48.22 L 209.48 48.30 L 209.68 48.38 L 209.87 48.47 L 210.06 48.55 L 210.26 48.63 L 210.45 48.72 L 210.65 48.80 L 210.84 48.89 L 211.04 48.97 L 211.23 49.06 L 211.43 49.15 L 211.62 49.23 L 211.81 49.32 L 212.01 49.41 L 212.20 49.49 L 212.40 49.58 L 212.59 49.67 L 212.79 49.76 L 212.98 49.85 L 213.18 49.94 L 213.37 50.03 L 213.56 50.12 L 213.76 50.21 L 213.95 50.30 L 214.15 50.39 L 214.34 50.49 L 214.54 50.58 L 214.73 50.67 L 214.92 50.77 L 215.12 50.86 L 215.31 50.95 L 215.51 51.05 L 215.70 51.14 L 215.90 51.24 L 216.09 51.34 L 216.29 51.43 L 216.48 51.53 L 216.67 51.63 L 216.87 51.73 L 217.06 51.82 L 217.26 51.92 L 217.45 52.02 L 217.65 52.12 L 217.84 52.22 L 218.04 52.32 L 218.23 52.42 L 218.42 52.52 L 218.62 52.63 L 218.81 52.73 L 219.01 52.83 L 219.20 52.93 L 219.40 53.04 L 219.59 53.14 L 219.79 53.25 L 219.98 53.35 L 220.17 53.46 L 220.37 53.56 L 220.56 53.67 L 220.76 53.78 L 220.95 53.88 L 221.15 53.99 L 221.34 54.10 L 221.54 54.21 L 221.73 54.32 L 221.92 54.43 L 222.12 54.54 L 222.31 54.65 L 222.51 54.76 L 222.70 54.87 L 222.90 54.98 L 223.09 55.10 L 223.29 55.21 L 223.48 55.32 L 223.67 55.44 L 223.87 55.55 L 224.06 55.67 L 224.26 55.78 L 224.45 55.90 L 224.65 56.01 L 224.84 56.13 L 225.04 56.25 L 225.23 56.37 L 225.42 56.49 L 225.62 56.60 L 225.81 56.72 L 226.01 56.84 L 226.20 56.96 L 226.40 57.09 L 226.59 57.21 L 226.78 57.33 L 226.98 57.45 L 227.17 57.58 L 227.37 57.70 L 227.56 57.82 L 227.76 57.95 L 227.95 58.07 L 228.15 58.20 L 228.34 58.33 L 228.53 58.45 L 228.73 58.58 L 228.92 58.71 L 229.12 58.84 L 229.31 58.97 L 229.51 59.10 L 229.70 59.23 L 229.90 59.36 L 230.09 59.49 L 230.28 59.62 L 230.48 59.75 L 230.67 59.89 L 230.87 60.02 L 231.06 60.15 L 231.26 60.29 L 231.45 60.42 L 231.65 60.56 L 231.84 60.70 L 232.03 60.83 L 232.23 60.97 L 232.42 61.11 L 232.62 61.25 L 232.81 61.39 L 233.01 61.53 L 233.20 61.67 L 233.40 61.81 L 233.59 61.95 L 233.78 62.09 L 233.98 62.24 L 234.17 62.38 L 234.37 62.52 L 234.56 62.67 L 234.76 62.81 L 234.95 62.96 L 235.15 63.11 L 235.34 63.26 L 235.53 63.40 L 235.73 63.55 L 235.92 63.70 L 236.12 63.85 L 236.31 64.00 L 236.51 64.15 L 236.70 64.31 L 236.89 64.46 L 237.09 64.61 L 237.28 64.77 L 237.48 64.92 L 237.67 65.08 L 237.87 65.23 L 238.06 65.39 L 238.26 65.55 L 238.45 65.71 L 238.64 65.86 L 238.84 66.02 L 239.03 66.18 L 239.23 66.35 L 239.42 66.51 L 239.62 66.67 L 239.81 66.83 L 240.01 67.00 L 240.20 67.16 L 240.39 67.33 L 240.59 67.49 L 240.78 67.66 L 240.98 67.83 L 241.17 68.00 L 241.37 68.17 L 241.56 68.34 L 241.76 68.51 L 241.95 68.68 L 242.14 68.85 L 242.34 69.02 L 242.53 69.20 L 242.73 69.37 L 242.92 69.55 L 243.12 69.72 L 243.31 69.90 L 243.51 70.08 L 243.70 70.26 L 243.89 70.44 L 244.09 70.62 L 244.28 70.80 L 244.48 70.98 L 244.67 71.16 L 244.87 71.35 L 245.06 71.53 L 245.26 71.72 L 245.45 71.90 L 245.64 72.09 L 245.84 72.28 L 246.03 72.47 L 246.23 72.66 L 246.42 72.85 L 246.62 73.04 L 246.81 73.24 L 247.01 73.43 L 247.20 73.62 L 247.39 73.82 L 247.59 74.02 L 247.78 74.21 L 247.98 74.41 L 248.17 74.61 L 248.37 74.81 L 248.56 75.01 L 248.75 75.22 L 248.95 75.42 L 249.14 75.63 L 249.34 75.83 L 249.53 76.04 L 249.73 76.25 L 249.92 76.45 L 250.12 76.66 L 250.31 76.88 L 250.50 77.09 L 250.70 77.30 L 250.89 77.52 L 251.09 77.73 L 251.28 77.95 L 251.48 78.17 L 251.67 78.38 L 251.87 78.60 L 252.06 78.83 L 252.25 79.05 L 252.45 79.27 L 252.64 79.50 L 252.84 79.72 L 253.03 79.95 L 253.23 80.18 L 253.42 80.41 L 253.62 80.64 L 253.81 80.87 L 254.00 81.11 L 254.20 81.34 L 254.39 81.58 L 254.59 81.81 L 254.78 82.05 L 254.98 82.29 L 255.17 82.54 L 255.37 82.78 L 255.56 83.02 L 255.75 83.27 L 255.95 83.52 L 256.14 83.77 L 256.34 84.02 L 256.53 84.27 L 256.73 84.52 L 256.92 84.78 L 257.12 85.03 L 257.31 85.29 L 257.50 85.55 L 257.70 85.81 L 257.89 86.08 L 258.09 86.34 L 258.28 86.61 L 258.48 86.88 L 258.67 87.14 L 258.86 87.42 L 259.06 87.69 L 259.25 87.97 L 259.45 88.24 L 259.64 88.52 L 259.84 88.80 L 260.03 89.08 L 260.23 89.37 L 260.42 89.66 L 260.61 89.94 L 260.81 90.23 L 261.00 90.53 L 261.20 90.82 L 261.39 91.12 L 261.59 91.42 L 261.78 91.72 L 261.98 92.02 L 262.17 92.33 L 262.36 92.64 L 262.56 92.95 L 262.75 93.26 L 262.95 93.57 L 263.14 93.89 L 263.34 94.21 L 263.53 94.54 L 263.73 94.86 L 263.92 95.19 L 264.11 95.52 L 264.31 95.85 L 264.50 96.19 L 264.70 96.53 L 264.89 96.87 L 265.09 97.22 L 265.28 97.56 L 265.48 97.91 L 265.67 98.27 L 265.86 98.63 L 266.06 98.99 L 266.25 99.35 L 266.45 99.72 L 266.64 100.09 L 266.84 100.47 L 267.03 100.84 L 267.23 101.23 L 267.42 101.61 L 267.61 102.00 L 267.81 102.40 L 268.00 102.80 L 268.20 103.20 L 268.39 103.61 L 268.59 104.02 L 268.78 104.44 L 268.97 104.86 L 269.17 105.29 L 269.36 105.72 L 269.56 106.16 L 269.75 106.60 L 269.95 107.05 L 270.14 107.50 L 270.34 107.96 L 270.53 108.43 L 270.72 108.90 L 270.92 109.38 L 271.11 109.87 L 271.31 110.36 L 271.50 110.87 L 271.70 111.38 L 271.89 111.90 L 272.09 112.42 L 272.28 112.96 L 272.47 113.50 L 272.67 114.06 L 272.86 114.63 L 273.06 115.20 L 273.25 115.79 L 273.45 116.39 L 273.64 117.01 L 273.84 117.64 L 274.03 118.28 L 274.22 118.94 L 274.42 119.61 L 274.61 120.31 L 274.81 121.02 L 275.00 121.76 L 275.20 122.51 L 275.39 123.30 L 275.59 124.11 L 275.78 124.95 L 275.97 125.83 L 276.17 126.75 L 276.36 127.71 L 276.56 128.72 L 276.75 129.80 L 276.95 130.94 L 277.14 132.18 L 277.34 133.53 L 277.53 135.04 L 277.72 136.77 L 277.92 138.85 L 278.11 141.68" fill="none" stroke="#5F6B7A" stroke-width="2.5" stroke-linecap="round" stroke-linejoin="round"/>
</svg>
