<svg xmlns="http://www.w3.org/2000/svg" viewBox="0 0 320 180" width="320" height="180">
  <rect width="320" height="180" fill="#F4F5F7"/>
  <path d="M 24.00 152.96 L 24.30 149.02 L 24.61 147.39 L 24.91 146.14 L 25.21 145.08 L 25.51 144.15 L 25.82 143.31 L 26.12 142.54 L 26.42 141.82 L 26.72 141.14 L 27.03 140.50 L 27.33 139.90 L 27.63 139.32 L 27.93 138.76 L 28.24 138.22 L 28.54 137.70 L 28.84 137.20 L 29.14 136.72 L 29.45 136.25 L 29.75 135.79 L 30.05 135.34 L 30.35 134.91 L 30.66 134.48 L 30.96 134.07 L 31.26 133.66 L 31.56 133.26 L 31.87 132.87 L 32.17 132.49 L 32.47 132.12 L 32.77 131.75 L 33.08 131.38 L 33.38 131.03 L 33.68 130.68 L 33.98 130.33 L 34.29 129.99 L 34.59 129.65 L 34.89 129.32 L 35.19 129.00 L 35.50 128.68 L 35.80 128.36 L 36.10 128.05 L 36.40 127.74 L 36.71 127.43 L 37.01 127.13 L 37.31 126.83 L 37.62 126.53 L 37.92 126.24 L 38.22 125.95 L 38.52 125.67 L 38.83 125.38 L 39.13 125.10 L 39.43 124.83 L 39.73 124.55 L 40.04 124.28 L 40.34 124.01 L 40.64 123.74 L 40.94 123.48 L 41.25 123.22 L 41.55 122.96 L 41.85 122.70 L 42.15 122.45 L 42.46 122.19 L 42.76 121.94 L 43.06 121.69 L 43.36 121.44 L 43.67 121.20 L 43.97 120.96 L 44.27 120.71 L 44.57 120.47 L 44.88 120.24 L 45.18 120.00 L 45.48 119.77 L 45.78 119.53 L 46.09 119.30 L 46.39 119.07 L 46.69 118.84 L 46.99 118.62 L 47.30 118.39 L 47.60 118.17 L 47.90 117.95 L 48.20 117.72 L 48.51 117.50 L 48.81 117.29 L 49.11 117.07 L 49.41 116.85 L 49.72 116.64 L 50.02 116.43 L 50.32 116.21 L 50.63 116.00 L 50.93 115.79 L 51.23 115.59 L 51.53 115.38 L 51.84 115.17 L 52.14 114.97 L 52.44 114.76 L 52.74 114.56 L 53.05 114.36 L 53.35 114.16 L 53.65 113.96 L 53.95 113.76 L 54.26 113.56 L 54.56 113.37 L 54.86 113.17 L 55.16 112.98 L 55.47 112.78 L 55.77 112.59 L 56.07 112.40 L 56.37 112.21 L 56.68 112.02 L 56.98 111.83 L 57.28 111.64 L 57.58 111.45 L 57.89 111.27 L 58.19 111.08 L 58.49 110.90 L 58.79 110.71 L 59.10 110.53 L 59.40 110.35 L 59.70 110.17 L 60.00 109.98 L 60.31 109.80 L 60.61 109.62 L 60.91 109.45 L 61.21 109.27 L 61.52 109.09 L 61.82 108.91 L 62.12 108.74 L 62.42 108.56 L 62.73 108.39 L 63.03 108.22 L 63.33 108.04 L 63.64 107.87 L 63.94 107.70 L 64.24 107.53 L 64.54 107.36 L 64.85 107.19 L 65.15 107.02 L 65.45 106.85 L 65.75 106.68 L 66.06 106.51 L 66.36 106.35 L 66.66 106.18 L 66.96 106.01 L 67.27 105.85 L 67.57 105.69 L 67.87 105.52 L 68.17 105.36 L 68.48 105.20 L 68.78 105.03 L 69.08 104.87 L 69.38 104.71 L 69.69 104.55 L 69.99 104.39 L 70.29 104.23 L 70.59 104.07 L 70.90 103.91 L 71.20 103.75 L 71.50 103.60 L 71.80 103.44 L 72.11 103.28 L 72.41 103.13 L 72.71 102.97 L 73.01 102.82 L 73.32 102.66 L 73.62 102.51 L 73.92 102.36 L 74.22 102.20 L 74.53 102.05 L 74.83 101.90 L 75.13 101.75 L 75.43 101.59 L 75.74 101.44 L 76.04 101.29 L 76.34 101.14 L 76.65 100.99 L 76.95 100.84 L 77.25 100.70 L 77.55 100.55 L 77.86 100.40 L 78.16 100.25 L 78.46 100.10 L 78.76 99.96 L 79.07 99.81 L 79.37 99.67 L 79.67 99.52 L 79.97 99.38 L 80.28 99.23 L 80.58 99.09 L 80.88 98.94 L 81.18 98.80 L 81.49 98.66 L 81.79 98.51 L 82.09 98.37 L 82.39 98.23 L 82.70 98.09 L 83.00 97.95 L 83.30 97.81 L 83.60 97.66 L 83.91 97.52 L 84.21 97.38 L 84.51 97.25 L 84.81 97.11 L 85.12 96.97 L 85.42 96.83 L 85.72 96.69 L 86.02 96.55 L 86.33 96.42 L 86.63 96.28 L 86.93 96.14 L 87.23 96.01 L 87.54 95.87 L 87.84 95.73 L 88.14 95.60 L 88.44 95.46 L 88.75 95.33 L 89.05 95.19 L 89.35 95.06 L 89.66 94.93 L 89.96 94.79 L 90.26 94.66 L 90.56 94.53 L 90.87 94.39 L 91.17 94.26 L 91.47 94.13 L 91.77 94.00 L 92.08 93.87 L 92.38 93.73 L 92.68 93.60 L 92.98 93.47 L 93.29 93.34 L 93.59 93.21 L 93.89 93.08 L 94.19 92.95 L 94.50 92.82 L 94.80 92.70 L 95.10 92.57 L 95.40 92.44 L 95.71 92.31 L 96.01 92.18 L 96.31 92.05 L 96.61 91.93 L 96.92 91.80 L 97.22 91.67 L 97.52 91.55 L 97.82 91.42 L 98.13 91.29 L 98.43 91.17 L 98.73 91.04 L 99.03 90.92 L 99.34 90.79 L 99.64 90.67 L 99.94 90.54 L 100.24 90.42 L 100.55 90.30 L 100.85 90.17 L 101.15 90.05 L 101.45 89.93 L 101.76 89.80 L 102.06 89.68 L 102.36 89.56 L 102.67 89.44 L 102.97 89.31 L 103.27 89.19 L 103.57 89.07 L 103.88 88.95 L 104.18 88.83 L 104.48 88.71 L 104.78 88.59 L 105.09 88.47 L 105.39 88.35 L 105.69 88.23 L 105.99 88.11 L 106.30 87.99 L 106.60 87.87 L 106.90 87.75 L 107.20 87.63 L 107.51 87.51 L 107.81 87.39 L 108.11 87.27 L 108.41 87.15 L 108.72 87.04 L 109.02 86.92 L 109.32 86.80 L 109.62 86.68 L 109.93 86.57 L 110.23 86.45 L 110.53 86.33 L 110.83 86.22 L 111.14 86.10 L 111.44 85.99 L 111.74 85.87 L 112.04 85.75 L 112.35 85.64 L 112.65 85.52 L 112.95 85.41 L 113.25 85.29 L 113.56 85.18 L 113.86 85.07 L 114.16 84.95 L 114.46 84.84 L 114.77 84.72 L 115.07 84.61 L 115.37 84.50 L 115.68 84.38 L 115.98 84.27 L 116.28 84.16 L 116.58 84.04 L 116.89 83.93 L 117.19 83.82 L 117.49 83.71 L 117.79 83.60 L 118.10 83.48 L 118.40 83.37 L 118.70 83.26 L 119.00 83.15 L 119.31 83.04 L 119.61 82.93 L 119.91 82.82 L 120.21 82.71 L 120.52 82.60 L 120.82 82.49 L 121.12 82.38 L 121.42 82.27 L 121.73 82.16 L 122.03 82.05 L 122.33 81.94 L 122.63 81.83 L 122.94 81.72 L 123.24 81.61 L 123.54 81.50 L 123.84 81.39 L 124.15 81.28 L 124.45 81.18 L 124.75 81.07 L 125.05 80.96 L 125.36 80.85 L 125.66 80.74 L 125.96 80.64 L 126.26 80.53 L 126.57 80.42 L 126.87 80.32 L 127.17 80.21 L 127.47 80.10 L 127.78 80.00 L 128.08 79.89 L 128.38 79.78 L 128.69 79.68 L 128.99 79.57 L 129.29 79.47 L 129.59 79.36 L 129.90 79.26 L 130.20 79.15 L 130.50 79.05 L 130.80 78.94 L 131.11 78.84 L 131.41 78.73 L 131.71 78.63 L 132.01 78.52 L 132.32 78.42 L 132.62 78.31 L 132.92 78.21 L 133.22 78.11 L 133.53 78.00 L 133.83 77.90 L 134.13 77.80 L 134.43 77.69 L 134.74 77.59 L 135.04 77.49 L 135.34 77.38 L 135.64 77.28 L 135.95 77.18 L 136.25 77.08 L 136.55 76.97 L 136.85 76.87 L 137.16 76.77 L 137.46 76.67 L 137.76 76.57 L 138.06 76.47 L 138.37 76.36 L 138.67 76.26 L 138.97 76.16 L 139.27 76.06 L 139.58 75.96 L 139.88 75.86 L 140.18 75.76 L 140.48 75.66 L 140.79 75.56 L 141.09 75.46 L 141.39 75.36 L 141.70 75.26 L 142.00 75.16 L 142.30 75.06 L 142.60 74.96 L 142.91 74.86 L 143.21 74.76 L 143.51 74.66 L 143.81 74.56 L 144.12 74.46 L 144.42 74.36 L 144.72 74.27 L 145.02 74.17 L 145.33 74.07 L 145.63 73.97 L 145.93 73.87 L 146.23 73.77 L 146.54 73.68 L 146.84 73.58 L 147.14 73.48 L 147.44 73.38 L 147.75 73.28 L 148.05 73.19 L 148.35 73.09 L 148.65 72.99 L 148.96 72.90 L 149.26 72.80 L 149.56 72.70 L 149.86 72.61 L 150.17 72.51 L 150.47 72.41 L 150.77 72.32 L 151.07 72.22 L 151.38 72.12 L 151.68 72.03 L 151.98 71.93 L 152.28 71.84 L 152.59 71.74 L 152.89 71.65 L 153.19 71.55 L 153.49 71.46 L 153.80 71.36 L 154.10 71.27 L 154.40 71.17 L 154.71 71.08 L 155.01 70.98 L 155.31 70.89 L 155.61 70.79 L 155.92 70.70 L 156.22 70.60 L 156.52 70.51 L 156.82 70.41 L 157.13 70.32 L 157.43 70.23 L 157.73 70.13 L 158.03 70.04 L 158.34 69.95 L 158.64 69.85 L 158.94 69.76 L 159.24 69.67 L 159.55 69.57 L 159.85 69.48 L 160.15 69.39 L 160.45 69.29 L 160.76 69.20 L 161.06 69.11 L 161.36 69.02 L 161.66 68.92 L 161.97 68.83 L 162.27 68.74 L 162.57 68.65 L 162.87 68.56 L 163.18 68.46 L 163.48 68.37 L 163.78 68.28 L 164.08 68.19 L 164.39 68.10 L 164.69 68.01 L 164.99 67.91 L 165.29 67.82 L 165.60 67.73 L 165.90 67.64 L 166.20 67.55 L 166.51 67.46 L 166.81 67.37 L 167.11 67.28 L 167.41 67.19 L 167.72 67.10 L 168.02 67.01 L 168.32 66.92 L 168.62 66.83 L 168.93 66.74 L 169.23 66.65 L 169.53 66.56 L 169.83 66.47 L 170.14 66.38 L 170.44 66.29 L 170.74 66.20 L 171.04 66.11 L 171.35 66.02 L 171.65 65.93 L 171.95 65.84 L 172.25 65.75 L 172.56 65.66 L 172.86 65.57 L 173.16 65.48 L 173.46 65.40 L 173.77 65.31 L 174.07 65.22 L 174.37 65.13 L 174.67 65.04 L 174.98 64.95 L 175.28 64.87 L 175.58 64.78 L 175.88 64.69 L 176.19 64.60 L 176.49 64.51 L 176.79 64.43 L 177.09 64.34 L 177.40 64.25 L 177.70 64.16 L 178.00 64.08 L 178.30 63.99 L 178.61 63.90 L 178.91 63.81 L 179.21 63.73 L 179.52 63.64 L 179.82 63.55 L 180.12 63.47 L 180.42 63.38 L 180.73 63.29 L 181.03 63.21 L 181.33 63.12 L 181.63 63.03 L 181.94 62.95 L 182.24 62.86 L 182.54 62.78 L 182.84 62.69 L 183.15 62.60 L 183.45 62.52 L 183.75 62.43 L 184.05 62.35 L 184.36 62.26 L 184.66 62.18 L 184.96 62.09 L 185.26 62.01 L 185.57 61.92 L 185.87 61.83 L 186.17 61.75 L 186.47 61.66 L 186.78 61.58 L 187.08 61.49 L 187.38 61.41 L 187.68 61.33 L 187.99 61.24 L 188.29 61.16 L 188.59 61.07 L 188.89 60.99 L 189.20 60.90 L 189.50 60.82 L 189.80 60.73 L 190.10 60.65 L 190.41 60.57 L 190.71 60.48 L 191.01 60.40 L 191.31 60.31 L 191.62 60.23 L 191.92 60.15 L 192.22 60.06 L 192.53 59.98 L 192.83 59.90 L 193.13 59.81 L 193.43 59.73 L 193.74 59.65 L 194.04 59.56 L 194.34 59.48 L 194.64 59.40 L 194.95 59.31 L 195.25 59.23 L 195.55 59.15 L 195.85 59.07 L 196.16 58.98 L 196.46 58.90 L 196.76 58.82 L 197.06 58.74 L 197.37 58.65 L 197.67 58.57 L 197.97 58.49 L 198.27 58.41 L 198.58 58.33 L 198.88 58.24 L 199.18 58.16 L 199.48 58.08 L 199.79 58.00 L 200.09 57.92 L 200.39 57.83 L 200.69 57.75 L 201.00 57.67 L 201.30 57.59 L 201.60 57.51 L 201.90 57.43 L 202.21 57.35 L 202.51 57.27 L 202.81 57.18 L 203.11 57.10 L 203.42 57.02 L 203.72 56.94 L 204.02 56.86 L 204.32 56.78 L 204.63 56.70 L 204.93 56.62 L 205.23 56.54 L 205.54 56.46 L 205.84 56.38 L 206.14 56.30 L 206.44 56.22 L 206.75 56.14 L 207.05 56.06 L 207.35 55.98 L 207.65 55.90 L 207.96 55.82 L 208.26 55.74 L 208.56 55.66 L 208.86 55.58 L 209.17 55.50 L 209.47 55.42 L 209.77 55.34 L 210.07 55.26 L 210.38 55.18 L 210.68 55.10 L 210.98 55.02 L 211.28 54.94 L 211.59 54.86 L 211.89 54.78 L 212.19 54.70 L 212.49 54.63 L 212.80 54.55 L 213.10 54.47 L 213.40 54.39 L 213.70 54.31 L 214.01 54.23 L 214.31 54.15 L 214.61 54.07 L 214.91 54.00 L 215.22 53.92 L 215.52 53.84 L 215.82 53.76 L 216.12 53.68 L 216.43 53.60 L 216.73 53.53 L 217.03 53.45 L 217.33 53.37 L 217.64 53.29 L 217.94 53.21 L 218.24 53.14 L 218.55 53.06 L 218.85 52.98 L 219.15 52.90 L 219.45 52.83 L 219.76 52.75 L 220.06 52.67 L 220.36 52.59 L 220.66 52.52 L 220.97 52.44 L 221.27 52.36 L 221.57 52.29 L 221.87 52.21 L 222.18 52.13 L 222.48 52.05 L 222.78 51.98 L 223.08 51.90 L 223.39 51.82 L 223.69 51.75 L 223.99 51.67 L 224.29 51.59 L 224.60 51.52 L 224.90 51.44 L 225.20 51.36 L 225.50 51.29 L 225.81 51.21 L 226.11 51.14 L 226.41 51.06 L 226.71 50.98 L 227.02 50.91 L 227.32 50.83 L 227.62 50.76 L 227.92 50.68 L 228.23 50.60 L 228.53 50.53 L 228.83 50.45 L 229.13 50.38 L 229.44 50.30 L 229.74 50.22 L 230.04 50.15 L 230.34 50.07 L 230.65 50.00 L 230.95 49.92 L 231.25 49.85 L 231.56 49.77 L 231.86 49.70 L 232.16 49.62 L 232.46 49.55 L 232.77 49.47 L 233.07 49.40 L 233.37 49.32 L 233.67 49.25 L 233.98 49.17 L 234.28 49.10 L 234.58 49.02 L 234.88 48.95 L 235.19 48.87 L 235.49 48.80 L 235.79 48.73 L 236.09 48.65 L 236.40 48.58 L 236.70 48.50 L 237.00 48.43 L 237.30 48.35 L 237.61 48.28 L 237.91 48.21 L 238.21 48.13 L 238.51 48.06 L 238.82 47.98 L 239.12 47.91 L 239.42 47.84 L 239.72 47.76 L 240.03 47.69 L 240.33 47.61 L 240.63 47.54 L 240.93 47.47 L 241.24 47.39 L 241.54 47.32 L 241.84 47.25 L 242.14 47.17 L 242.45 47.10 L 242.75 47.03 L 243.05 46.95 L 243.35 46.88 L 243.66 46.81 L 243.96 46.73 L 244.26 46.66 L 244.57 46.59 L 244.87 46.51 L 245.17 46.44 L 245.47 46.37 L 245.78 46.30 L 246.08 46.22 L 246.38 46.15 L 246.68 46.08 L 246.99 46.01 L 247.29 45.93 L 247.59 45.86 L 247.89 45.79 L 248.20 45.72 L 248.50 45.64 L 248.80 45.57 L 249.10 45.50 L 249.41 45.43 L 249.71 45.35 L 250.01 45.28 L 250.31 45.21 L 250.62 45.14 L 250.92 45.07 L 251.22 44.99 L 251.52 44.92 L 251.83 44.85 L 252.13 44.78 L 252.43 44.71 L 252.73 44.64 L 253.04 44.56 L 253.34 44.49 L 253.64 44.42 L 253.94 44.35 L 254.25 44.28 L 254.55 44.21 L 254.85 44.14 L 255.15 44.06 L 255.46 43.99 L 255.76 43.92 L 256.06 43.85 L 256.36 43.78 L 256.67 43.71 L 256.97 43.64 L 257.27 43.57 L 257.58 43.50 L 257.88 43.42 L 258.18 43.35 L 258.48 43.28 L 258.79 43.21 L 259.09 43.14 L 259.39 43.07 L 259.69 43.00 L 260.00 42.93 L 260.30 42.86 L 260.60 42.79 L 260.90 42.72 L 261.21 42.65 L 261.51 42.58 L 261.81 42.51 L 262.11 42.44 L 262.42 42.37 L 262.72 42.30 L 263.02 42.23 L 263.32 42.16 L 263.63 42.09 L 263.93 42.02 L 264.23 41.95 L 264.53 41.88 L 264.84 41.81 L 265.14 41.74 L 265.44 41.67 L 265.74 41.60 L 266.05 41.53 L 266.35 41.46 L 266.65 41.39 L 266.95 41.32 L 267.26 41.25 L 267.56 41.18 L 267.86 41.11 L 268.16 41.04 L 268.47 40.97 L 268.77 40.90 L 269.07 40.83 L 269.37 40.76 L 269.68 40.70 L 269.98 40.63 L 270.28 40.56 L 270.59 40.49 L 270.89 40.42 L 271.19 40.35 L 271.49 40.28 L 271.80 40.21 L 272.10 40.14 L 272.40 40.07 L 272.70 40.01 L 273.01 39.94 L 273.31 39.87 L 273.61 39.80 L 273.91 39.73 L 274.22 39.66 L 274.52 39.59 L 274.82 39.53 L 275.12 39.46 L 275.43 39.39 L 275.73 39.32 L 276.03 39.25 L 276.33 39.18 L 276.64 39.12 L 276.94 39.05 L 277.24 38.98 L 277.54 38.91 L 277.85 38.84 L 278.15 38.78 L 278.45 38.71 L 278.75 38.64 L 279.06 38.57 L 279.36 38.50 L 279.66 38.44 L 279.96 38.37 L 280.27 38.30 L 280.57 38.23 L 280.87 38.17 L 281.17 38.10 L 281.48 38.03 L 281.78 37.96 L 282.08 37.90 L 282.38 37.83 L 282.69 37.76 L 282.99 37.69 L 283.29 37.63 L 283.60 37.56 L 283.90 37.49 L 284.20 37.42 L 284.50 37.36 L 284.81 37.29 L 285.11 37.22 L 285.41 37.16 L 285.71 37.09 L 286.02 37.02 L 286.32 36.96 L 286.62 36.89 L 286.92 36.82 L 287.23 36.75 L 287.53 36.69 L 287.83 36.62 L 288.13 36.55 L 288.44 36.49 L 288.74 36.42 L 289.04 36.35 L 289.34 36.29 L 289.65 36.22 L 289.95 36.16 L 290.25 36.09 L 290.55 36.02 L 290.86 35.96 L 291.16 35.89 L 291.46 35.82 L 291.76 35.76 L 292.07 35.69 L 292.37 35.63 L 292.67 35.56 L 292.97 35.49 L 293.28 35.43 L 293.58 35.36 L 293.88 35.29 L 294.18 35.23 L 294.49 35.16 L 294.79 35.10 L 295.09 35.03 L 295.39 34.97 L 295.70 34.90 L 296.00 34.83" fill="none" stroke="#7E8692" stroke-width="2.3" stroke-linecap="round" stroke-linejoin="round"/>
</svg>
