<svg xmlns="http://www.w3.org/2000/svg" viewBox="0 0 320 180" width="320" height="180">
  <rect width="320" height="180" fill="#F4F5F7"/>
  <path d="M 18.00 161.56 L 18.32 161.17 L 18.63 160.79 L 18.95 160.40 L 19.26 160.02 L 19.58 159.64 L 19.90 159.26 L 20.21 158.89 L 20.53 158.51 L 20.84 158.14 L 21.16 157.77 L 21.47 157.41 L 21.79 157.04 L 22.11 156.68 L 22.42 156.32 L 22.74 155.96 L 23.05 155.60 L 23.37 155.24 L 23.69 154.89 L 24.00 154.53 L 24.32 154.18 L 24.63 153.83 L 24.95 153.49 L 25.27 153.14 L 25.58 152.80 L 25.90 152.46 L 26.21 152.12 L 26.53 151.78 L 26.85 151.44 L 27.16 151.11 L 27.48 150.78 L 27.79 150.44 L 28.11 150.12 L 28.42 149.79 L 28.74 149.46 L 29.06 149.14 L 29.37 148.81 L 29.69 148.49 L 30.00 148.17 L 30.32 147.86 L 30.64 147.54 L 30.95 147.23 L 31.27 146.91 L 31.58 146.60 L 31.90 146.29 L 32.22 145.99 L 32.53 145.68 L 32.85 145.38 L 33.16 145.07 L 33.48 144.77 L 33.80 144.47 L 34.11 144.17 L 34.43 143.88 L 34.74 143.58 L 35.06 143.29 L 35.37 142.99 L 35.69 142.70 L 36.01 142.41 L 36.32 142.13 L 36.64 141.84 L 36.95 141.56 L 37.27 141.27 L 37.59 140.99 L 37.90 140.71 L 38.22 140.43 L 38.53 140.15 L 38.85 139.88 L 39.17 139.60 L 39.48 139.33 L 39.80 139.06 L 40.11 138.79 L 40.43 138.52 L 40.75 138.25 L 41.06 137.99 L 41.38 137.72 L 41.69 137.46 L 42.01 137.19 L 42.32 136.93 L 42.64 136.67 L 42.96 136.42 L 43.27 136.16 L 43.59 135.90 L 43.90 135.65 L 44.22 135.40 L 44.54 135.15 L 44.85 134.89 L 45.17 134.65 L 45.48 134.40 L 45.80 134.15 L 46.12 133.91 L 46.43 133.66 L 46.75 133.42 L 47.06 133.18 L 47.38 132.94 L 47.70 132.70 L 48.01 132.46 L 48.33 132.22 L 48.64 131.99 L 48.96 131.75 L 49.27 131.52 L 49.59 131.29 L 49.91 131.06 L 50.22 130.83 L 50.54 130.60 L 50.85 130.37 L 51.17 130.15 L 51.49 129.92 L 51.80 129.70 L 52.12 129.48 L 52.43 129.26 L 52.75 129.03 L 53.07 128.82 L 53.38 128.60 L 53.70 128.38 L 54.01 128.16 L 54.33 127.95 L 54.65 127.74 L 54.96 127.52 L 55.28 127.31 L 55.59 127.10 L 55.91 126.89 L 56.22 126.68 L 56.54 126.48 L 56.86 126.27 L 57.17 126.06 L 57.49 125.86 L 57.80 125.66 L 58.12 125.45 L 58.44 125.25 L 58.75 125.05 L 59.07 124.85 L 59.38 124.65 L 59.70 124.46 L 60.02 124.26 L 60.33 124.07 L 60.65 123.87 L 60.96 123.68 L 61.28 123.49 L 61.60 123.29 L 61.91 123.10 L 62.23 122.91 L 62.54 122.72 L 62.86 122.54 L 63.17 122.35 L 63.49 122.16 L 63.81 121.98 L 64.12 121.80 L 64.44 121.61 L 64.75 121.43 L 65.07 121.25 L 65.39 121.07 L 65.70 120.89 L 66.02 120.71 L 66.33 120.53 L 66.65 120.36 L 66.97 120.18 L 67.28 120.00 L 67.60 119.83 L 67.91 119.66 L 68.23 119.48 L 68.55 119.31 L 68.86 119.14 L 69.18 118.97 L 69.49 118.80 L 69.81 118.63 L 70.12 118.47 L 70.44 118.30 L 70.76 118.13 L 71.07 117.97 L 71.39 117.80 L 71.70 117.64 L 72.02 117.48 L 72.34 117.31 L 72.65 117.15 L 72.97 116.99 L 73.28 116.83 L 73.60 116.67 L 73.92 116.51 L 74.23 116.36 L 74.55 116.20 L 74.86 116.04 L 75.18 115.89 L 75.49 115.73 L 75.81 115.58 L 76.13 115.43 L 76.44 115.28 L 76.76 115.12 L 77.07 114.97 L 77.39 114.82 L 77.71 114.67 L 78.02 114.52 L 78.34 114.38 L 78.65 114.23 L 78.97 114.08 L 79.29 113.94 L 79.60 113.79 L 79.92 113.65 L 80.23 113.50 L 80.55 113.36 L 80.87 113.22 L 81.18 113.07 L 81.50 112.93 L 81.81 112.79 L 82.13 112.65 L 82.44 112.51 L 82.76 112.37 L 83.08 112.24 L 83.39 112.10 L 83.71 111.96 L 84.02 111.83 L 84.34 111.69 L 84.66 111.56 L 84.97 111.42 L 85.29 111.29 L 85.60 111.15 L 85.92 111.02 L 86.24 110.89 L 86.55 110.76 L 86.87 110.63 L 87.18 110.50 L 87.50 110.37 L 87.82 110.24 L 88.13 110.11 L 88.45 109.98 L 88.76 109.86 L 89.08 109.73 L 89.39 109.60 L 89.71 109.48 L 90.03 109.35 L 90.34 109.23 L 90.66 109.10 L 90.97 108.98 L 91.29 108.86 L 91.61 108.73 L 91.92 108.61 L 92.24 108.49 L 92.55 108.37 L 92.87 108.25 L 93.19 108.13 L 93.50 108.01 L 93.82 107.89 L 94.13 107.78 L 94.45 107.66 L 94.77 107.54 L 95.08 107.42 L 95.40 107.31 L 95.71 107.19 L 96.03 107.08 L 96.34 106.96 L 96.66 106.85 L 96.98 106.73 L 97.29 106.62 L 97.61 106.51 L 97.92 106.40 L 98.24 106.28 L 98.56 106.17 L 98.87 106.06 L 99.19 105.95 L 99.50 105.84 L 99.82 105.73 L 100.14 105.62 L 100.45 105.52 L 100.77 105.41 L 101.08 105.30 L 101.40 105.19 L 101.72 105.09 L 102.03 104.98 L 102.35 104.87 L 102.66 104.77 L 102.98 104.66 L 103.29 104.56 L 103.61 104.45 L 103.93 104.35 L 104.24 104.25 L 104.56 104.14 L 104.87 104.04 L 105.19 103.94 L 105.51 103.84 L 105.82 103.73 L 106.14 103.63 L 106.45 103.53 L 106.77 103.43 L 107.09 103.33 L 107.40 103.23 L 107.72 103.13 L 108.03 103.03 L 108.35 102.94 L 108.67 102.84 L 108.98 102.74 L 109.30 102.64 L 109.61 102.55 L 109.93 102.45 L 110.24 102.35 L 110.56 102.26 L 110.88 102.16 L 111.19 102.07 L 111.51 101.97 L 111.82 101.88 L 112.14 101.78 L 112.46 101.69 L 112.77 101.59 L 113.09 101.50 L 113.40 101.41 L 113.72 101.32 L 114.04 101.22 L 114.35 101.13 L 114.67 101.04 L 114.98 100.95 L 115.30 100.86 L 115.62 100.77 L 115.93 100.68 L 116.25 100.59 L 116.56 100.50 L 116.88 100.41 L 117.19 100.32 L 117.51 100.23 L 117.83 100.14 L 118.14 100.05 L 118.46 99.97 L 118.77 99.88 L 119.09 99.79 L 119.41 99.70 L 119.72 99.62 L 120.04 99.53 L 120.35 99.44 L 120.67 99.36 L 120.99 99.27 L 121.30 99.19 L 121.62 99.10 L 121.93 99.02 L 122.25 98.93 L 122.57 98.85 L 122.88 98.76 L 123.20 98.68 L 123.51 98.59 L 123.83 98.51 L 124.14 98.43 L 124.46 98.34 L 124.78 98.26 L 125.09 98.18 L 125.41 98.10 L 125.72 98.02 L 126.04 97.93 L 126.36 97.85 L 126.67 97.77 L 126.99 97.69 L 127.30 97.61 L 127.62 97.53 L 127.94 97.45 L 128.25 97.37 L 128.57 97.29 L 128.88 97.21 L 129.20 97.13 L 129.52 97.05 L 129.83 96.97 L 130.15 96.89 L 130.46 96.81 L 130.78 96.73 L 131.09 96.65 L 131.41 96.57 L 131.73 96.50 L 132.04 96.42 L 132.36 96.34 L 132.67 96.26 L 132.99 96.19 L 133.31 96.11 L 133.62 96.03 L 133.94 95.95 L 134.25 95.88 L 134.57 95.80 L 134.89 95.73 L 135.20 95.65 L 135.52 95.57 L 135.83 95.50 L 136.15 95.42 L 136.46 95.35 L 136.78 95.27 L 137.10 95.19 L 137.41 95.12 L 137.73 95.04 L 138.04 94.97 L 138.36 94.90 L 138.68 94.82 L 138.99 94.75 L 139.31 94.67 L 139.62 94.60 L 139.94 94.52 L 140.26 94.45 L 140.57 94.38 L 140.89 94.30 L 141.20 94.23 L 141.52 94.16 L 141.84 94.08 L 142.15 94.01 L 142.47 93.94 L 142.78 93.86 L 143.10 93.79 L 143.41 93.72 L 143.73 93.65 L 144.05 93.57 L 144.36 93.50 L 144.68 93.43 L 144.99 93.36 L 145.31 93.28 L 145.63 93.21 L 145.94 93.14 L 146.26 93.07 L 146.57 93.00 L 146.89 92.92 L 147.21 92.85 L 147.52 92.78 L 147.84 92.71 L 148.15 92.64 L 148.47 92.57 L 148.79 92.50 L 149.10 92.43 L 149.42 92.35 L 149.73 92.28 L 150.05 92.21 L 150.36 92.14 L 150.68 92.07 L 151.00 92.00 L 151.31 91.93 L 151.63 91.86 L 151.94 91.79 L 152.26 91.72 L 152.58 91.65 L 152.89 91.58 L 153.21 91.51 L 153.52 91.44 L 153.84 91.37 L 154.16 91.30 L 154.47 91.22 L 154.79 91.15 L 155.10 91.08 L 155.42 91.01 L 155.74 90.94 L 156.05 90.87 L 156.37 90.80 L 156.68 90.73 L 157.00 90.66 L 157.31 90.59 L 157.63 90.52 L 157.95 90.45 L 158.26 90.38 L 158.58 90.31 L 158.89 90.24 L 159.21 90.17 L 159.53 90.10 L 159.84 90.03 L 160.16 89.97 L 160.47 89.90 L 160.79 89.83 L 161.11 89.76 L 161.42 89.69 L 161.74 89.62 L 162.05 89.55 L 162.37 89.48 L 162.69 89.41 L 163.00 89.34 L 163.32 89.27 L 163.63 89.20 L 163.95 89.13 L 164.26 89.06 L 164.58 88.99 L 164.90 88.92 L 165.21 88.85 L 165.53 88.78 L 165.84 88.70 L 166.16 88.63 L 166.48 88.56 L 166.79 88.49 L 167.11 88.42 L 167.42 88.35 L 167.74 88.28 L 168.06 88.21 L 168.37 88.14 L 168.69 88.07 L 169.00 88.00 L 169.32 87.93 L 169.64 87.86 L 169.95 87.79 L 170.27 87.72 L 170.58 87.65 L 170.90 87.57 L 171.21 87.50 L 171.53 87.43 L 171.85 87.36 L 172.16 87.29 L 172.48 87.22 L 172.79 87.15 L 173.11 87.08 L 173.43 87.00 L 173.74 86.93 L 174.06 86.86 L 174.37 86.79 L 174.69 86.72 L 175.01 86.64 L 175.32 86.57 L 175.64 86.50 L 175.95 86.43 L 176.27 86.35 L 176.59 86.28 L 176.90 86.21 L 177.22 86.14 L 177.53 86.06 L 177.85 85.99 L 178.16 85.92 L 178.48 85.84 L 178.80 85.77 L 179.11 85.70 L 179.43 85.62 L 179.74 85.55 L 180.06 85.48 L 180.38 85.40 L 180.69 85.33 L 181.01 85.25 L 181.32 85.18 L 181.64 85.10 L 181.96 85.03 L 182.27 84.96 L 182.59 84.88 L 182.90 84.81 L 183.22 84.73 L 183.54 84.65 L 183.85 84.58 L 184.17 84.50 L 184.48 84.43 L 184.80 84.35 L 185.11 84.27 L 185.43 84.20 L 185.75 84.12 L 186.06 84.05 L 186.38 83.97 L 186.69 83.89 L 187.01 83.81 L 187.33 83.74 L 187.64 83.66 L 187.96 83.58 L 188.27 83.50 L 188.59 83.43 L 188.91 83.35 L 189.22 83.27 L 189.54 83.19 L 189.85 83.11 L 190.17 83.03 L 190.48 82.95 L 190.80 82.87 L 191.12 82.79 L 191.43 82.71 L 191.75 82.63 L 192.06 82.55 L 192.38 82.47 L 192.70 82.39 L 193.01 82.31 L 193.33 82.23 L 193.64 82.15 L 193.96 82.07 L 194.28 81.98 L 194.59 81.90 L 194.91 81.82 L 195.22 81.74 L 195.54 81.66 L 195.86 81.57 L 196.17 81.49 L 196.49 81.41 L 196.80 81.32 L 197.12 81.24 L 197.43 81.15 L 197.75 81.07 L 198.07 80.98 L 198.38 80.90 L 198.70 80.81 L 199.01 80.73 L 199.33 80.64 L 199.65 80.56 L 199.96 80.47 L 200.28 80.38 L 200.59 80.30 L 200.91 80.21 L 201.23 80.12 L 201.54 80.03 L 201.86 79.95 L 202.17 79.86 L 202.49 79.77 L 202.81 79.68 L 203.12 79.59 L 203.44 79.50 L 203.75 79.41 L 204.07 79.32 L 204.38 79.23 L 204.70 79.14 L 205.02 79.05 L 205.33 78.96 L 205.65 78.87 L 205.96 78.78 L 206.28 78.68 L 206.60 78.59 L 206.91 78.50 L 207.23 78.41 L 207.54 78.31 L 207.86 78.22 L 208.18 78.12 L 208.49 78.03 L 208.81 77.93 L 209.12 77.84 L 209.44 77.74 L 209.76 77.65 L 210.07 77.55 L 210.39 77.45 L 210.70 77.36 L 211.02 77.26 L 211.33 77.16 L 211.65 77.06 L 211.97 76.97 L 212.28 76.87 L 212.60 76.77 L 212.91 76.67 L 213.23 76.57 L 213.55 76.47 L 213.86 76.37 L 214.18 76.27 L 214.49 76.16 L 214.81 76.06 L 215.13 75.96 L 215.44 75.86 L 215.76 75.75 L 216.07 75.65 L 216.39 75.55 L 216.71 75.44 L 217.02 75.34 L 217.34 75.23 L 217.65 75.13 L 217.97 75.02 L 218.28 74.91 L 218.60 74.81 L 218.92 74.70 L 219.23 74.59 L 219.55 74.48 L 219.86 74.38 L 220.18 74.27 L 220.50 74.16 L 220.81 74.05 L 221.13 73.94 L 221.44 73.83 L 221.76 73.72 L 222.08 73.60 L 222.39 73.49 L 222.71 73.38 L 223.02 73.27 L 223.34 73.15 L 223.66 73.04 L 223.97 72.92 L 224.29 72.81 L 224.60 72.69 L 224.92 72.58 L 225.23 72.46 L 225.55 72.34 L 225.87 72.22 L 226.18 72.11 L 226.50 71.99 L 226.81 71.87 L 227.13 71.75 L 227.45 71.63 L 227.76 71.51 L 228.08 71.39 L 228.39 71.27 L 228.71 71.14 L 229.03 71.02 L 229.34 70.90 L 229.66 70.77 L 229.97 70.65 L 230.29 70.52 L 230.61 70.40 L 230.92 70.27 L 231.24 70.14 L 231.55 70.02 L 231.87 69.89 L 232.18 69.76 L 232.50 69.63 L 232.82 69.50 L 233.13 69.37 L 233.45 69.24 L 233.76 69.11 L 234.08 68.98 L 234.40 68.85 L 234.71 68.71 L 235.03 68.58 L 235.34 68.44 L 235.66 68.31 L 235.98 68.17 L 236.29 68.04 L 236.61 67.90 L 236.92 67.76 L 237.24 67.63 L 237.56 67.49 L 237.87 67.35 L 238.19 67.21 L 238.50 67.07 L 238.82 66.93 L 239.13 66.78 L 239.45 66.64 L 239.77 66.50 L 240.08 66.35 L 240.40 66.21 L 240.71 66.06 L 241.03 65.92 L 241.35 65.77 L 241.66 65.62 L 241.98 65.48 L 242.29 65.33 L 242.61 65.18 L 242.93 65.03 L 243.24 64.88 L 243.56 64.72 L 243.87 64.57 L 244.19 64.42 L 244.51 64.27 L 244.82 64.11 L 245.14 63.96 L 245.45 63.80 L 245.77 63.64 L 246.08 63.49 L 246.40 63.33 L 246.72 63.17 L 247.03 63.01 L 247.35 62.85 L 247.66 62.69 L 247.98 62.52 L 248.30 62.36 L 248.61 62.20 L 248.93 62.03 L 249.24 61.87 L 249.56 61.70 L 249.88 61.53 L 250.19 61.37 L 250.51 61.20 L 250.82 61.03 L 251.14 60.86 L 251.45 60.69 L 251.77 60.52 L 252.09 60.34 L 252.40 60.17 L 252.72 60.00 L 253.03 59.82 L 253.35 59.64 L 253.67 59.47 L 253.98 59.29 L 254.30 59.11 L 254.61 58.93 L 254.93 58.75 L 255.25 58.57 L 255.56 58.39 L 255.88 58.20 L 256.19 58.02 L 256.51 57.84 L 256.83 57.65 L 257.14 57.46 L 257.46 57.28 L 257.77 57.09 L 258.09 56.90 L 258.40 56.71 L 258.72 56.51 L 259.04 56.32 L 259.35 56.13 L 259.67 55.93 L 259.98 55.74 L 260.30 55.54 L 260.62 55.35 L 260.93 55.15 L 261.25 54.95 L 261.56 54.75 L 261.88 54.55 L 262.20 54.34 L 262.51 54.14 L 262.83 53.94 L 263.14 53.73 L 263.46 53.52 L 263.78 53.32 L 264.09 53.11 L 264.41 52.90 L 264.72 52.69 L 265.04 52.48 L 265.35 52.26 L 265.67 52.05 L 265.99 51.84 L 266.30 51.62 L 266.62 51.40 L 266.93 51.18 L 267.25 50.97 L 267.57 50.74 L 267.88 50.52 L 268.20 50.30 L 268.51 50.08 L 268.83 49.85 L 269.15 49.63 L 269.46 49.40 L 269.78 49.17 L 270.09 48.94 L 270.41 48.71 L 270.73 48.48 L 271.04 48.25 L 271.36 48.01 L 271.67 47.78 L 271.99 47.54 L 272.30 47.30 L 272.62 47.06 L 272.94 46.82 L 273.25 46.58 L 273.57 46.34 L 273.88 46.09 L 274.20 45.85 L 274.52 45.60 L 274.83 45.35 L 275.15 45.11 L 275.46 44.85 L 275.78 44.60 L 276.10 44.35 L 276.41 44.10 L 276.73 43.84 L 277.04 43.58 L 277.36 43.33 L 277.68 43.07 L 277.99 42.81 L 278.31 42.54 L 278.62 42.28 L 278.94 42.01 L 279.25 41.75 L 279.57 41.48 L 279.89 41.21 L 280.20 40.94 L 280.52 40.67 L 280.83 40.40 L 281.15 40.12 L 281.47 39.85 L 281.78 39.57 L 282.10 39.29 L 282.41 39.01 L 282.73 38.73 L 283.05 38.44 L 283.36 38.16 L 283.68 37.87 L 283.99 37.59 L 284.31 37.30 L 284.63 37.01 L 284.94 36.71 L 285.26 36.42 L 285.57 36.12 L 285.89 35.83 L 286.20 35.53 L 286.52 35.23 L 286.84 34.93 L 287.15 34.62 L 287.47 34.32 L 287.78 34.01 L 288.10 33.71 L 288.42 33.40 L 288.73 33.09 L 289.05 32.77 L 289.36 32.46 L 289.68 32.14 L 290.00 31.83 L 290.31 31.51 L 290.63 31.19 L 290.94 30.86 L 291.26 30.54 L 291.58 30.21 L 291.89 29.88 L 292.21 29.56 L 292.52 29.22 L 292.84 28.89 L 293.15 28.56 L 293.47 28.22 L 293.79 27.88 L 294.10 27.54 L 294.42 27.20 L 294.73 26.86 L 295.05 26.51 L 295.37 26.17 L 295.68 25.82 L 296.00 25.47 L 296.31 25.11 L 296.63 24.76 L 296.95 24.40 L 297.26 24.04 L 297.58 23.68 L 297.89 23.32 L 298.21 22.96 L 298.53 22.59 L 298.84 22.23 L 299.16 21.86 L 299.47 21.49 L 299.79 21.11 L 300.10 20.74 L 300.42 20.36 L 300.74 19.98 L 301.05 19.60 L 301.37 19.21 L 301.68 18.83 L 302.00 18.44" fill="none" stroke="#7E8692" stroke-width="2.3" stroke-linecap="round" stroke-linejoin="round"/>
</svg>
