<svg xmlns="http://www.w3.org/2000/svg" viewBox="0 0 320 180" width="320" height="180">
  <rect width="320" height="180" fill="#F4F5F7"/>
  <path d="M 18.00 152.24 L 18.32 151.82 L 18.63 151.41 L 18.95 151.00 L 19.26 150.59 L 19.58 150.18 L 19.90 149.78 L 20.21 149.38 L 20.53 148.97 L 20.84 148.57 L 21.16 148.18 L 21.47 147.78 L 21.79 147.39 L 22.11 146.99 L 22.42 146.60 L 22.74 146.21 L 23.05 145.83 L 23.37 145.44 L 23.69 145.06 L 24.00 144.67 L 24.32 144.29 L 24.63 143.92 L 24.95 143.54 L 25.27 143.16 L 25.58 142.79 L 25.90 142.42 L 26.21 142.05 L 26.53 141.68 L 26.85 141.32 L 27.16 140.95 L 27.48 140.59 L 27.79 140.23 L 28.11 139.87 L 28.42 139.51 L 28.74 139.16 L 29.06 138.80 L 29.37 138.45 L 29.69 138.10 L 30.00 137.75 L 30.32 137.40 L 30.64 137.06 L 30.95 136.71 L 31.27 136.37 L 31.58 136.03 L 31.90 135.69 L 32.22 135.35 L 32.53 135.02 L 32.85 134.69 L 33.16 134.35 L 33.48 134.02 L 33.80 133.69 L 34.11 133.37 L 34.43 133.04 L 34.74 132.72 L 35.06 132.39 L 35.37 132.07 L 35.69 131.75 L 36.01 131.44 L 36.32 131.12 L 36.64 130.81 L 36.95 130.49 L 37.27 130.18 L 37.59 129.87 L 37.90 129.57 L 38.22 129.26 L 38.53 128.95 L 38.85 128.65 L 39.17 128.35 L 39.48 128.05 L 39.80 127.75 L 40.11 127.45 L 40.43 127.16 L 40.75 126.87 L 41.06 126.57 L 41.38 126.28 L 41.69 125.99 L 42.01 125.71 L 42.32 125.42 L 42.64 125.14 L 42.96 124.85 L 43.27 124.57 L 43.59 124.29 L 43.90 124.01 L 44.22 123.74 L 44.54 123.46 L 44.85 123.19 L 45.17 122.91 L 45.48 122.64 L 45.80 122.37 L 46.12 122.11 L 46.43 121.84 L 46.75 121.57 L 47.06 121.31 L 47.38 121.05 L 47.70 120.79 L 48.01 120.53 L 48.33 120.27 L 48.64 120.02 L 48.96 119.76 L 49.27 119.51 L 49.59 119.26 L 49.91 119.01 L 50.22 118.76 L 50.54 118.51 L 50.85 118.26 L 51.17 118.02 L 51.49 117.77 L 51.80 117.53 L 52.12 117.29 L 52.43 117.05 L 52.75 116.82 L 53.07 116.58 L 53.38 116.34 L 53.70 116.11 L 54.01 115.88 L 54.33 115.65 L 54.65 115.42 L 54.96 115.19 L 55.28 114.96 L 55.59 114.74 L 55.91 114.52 L 56.22 114.29 L 56.54 114.07 L 56.86 113.85 L 57.17 113.63 L 57.49 113.42 L 57.80 113.20 L 58.12 112.99 L 58.44 112.77 L 58.75 112.56 L 59.07 112.35 L 59.38 112.14 L 59.70 111.93 L 60.02 111.73 L 60.33 111.52 L 60.65 111.32 L 60.96 111.11 L 61.28 110.91 L 61.60 110.71 L 61.91 110.51 L 62.23 110.32 L 62.54 110.12 L 62.86 109.93 L 63.17 109.73 L 63.49 109.54 L 63.81 109.35 L 64.12 109.16 L 64.44 108.97 L 64.75 108.78 L 65.07 108.60 L 65.39 108.41 L 65.70 108.23 L 66.02 108.04 L 66.33 107.86 L 66.65 107.68 L 66.97 107.50 L 67.28 107.33 L 67.60 107.15 L 67.91 106.97 L 68.23 106.80 L 68.55 106.63 L 68.86 106.46 L 69.18 106.28 L 69.49 106.12 L 69.81 105.95 L 70.12 105.78 L 70.44 105.61 L 70.76 105.45 L 71.07 105.29 L 71.39 105.12 L 71.70 104.96 L 72.02 104.80 L 72.34 104.64 L 72.65 104.49 L 72.97 104.33 L 73.28 104.17 L 73.60 104.02 L 73.92 103.87 L 74.23 103.71 L 74.55 103.56 L 74.86 103.41 L 75.18 103.26 L 75.49 103.12 L 75.81 102.97 L 76.13 102.83 L 76.44 102.68 L 76.76 102.54 L 77.07 102.40 L 77.39 102.25 L 77.71 102.11 L 78.02 101.98 L 78.34 101.84 L 78.65 101.70 L 78.97 101.56 L 79.29 101.43 L 79.60 101.30 L 79.92 101.16 L 80.23 101.03 L 80.55 100.90 L 80.87 100.77 L 81.18 100.64 L 81.50 100.52 L 81.81 100.39 L 82.13 100.26 L 82.44 100.14 L 82.76 100.02 L 83.08 99.89 L 83.39 99.77 L 83.71 99.65 L 84.02 99.53 L 84.34 99.41 L 84.66 99.30 L 84.97 99.18 L 85.29 99.06 L 85.60 98.95 L 85.92 98.84 L 86.24 98.72 L 86.55 98.61 L 86.87 98.50 L 87.18 98.39 L 87.50 98.28 L 87.82 98.18 L 88.13 98.07 L 88.45 97.96 L 88.76 97.86 L 89.08 97.75 L 89.39 97.65 L 89.71 97.55 L 90.03 97.45 L 90.34 97.35 L 90.66 97.25 L 90.97 97.15 L 91.29 97.05 L 91.61 96.95 L 91.92 96.86 L 92.24 96.76 L 92.55 96.67 L 92.87 96.58 L 93.19 96.48 L 93.50 96.39 L 93.82 96.30 L 94.13 96.21 L 94.45 96.12 L 94.77 96.03 L 95.08 95.95 L 95.40 95.86 L 95.71 95.78 L 96.03 95.69 L 96.34 95.61 L 96.66 95.52 L 96.98 95.44 L 97.29 95.36 L 97.61 95.28 L 97.92 95.20 L 98.24 95.12 L 98.56 95.04 L 98.87 94.96 L 99.19 94.89 L 99.50 94.81 L 99.82 94.74 L 100.14 94.66 L 100.45 94.59 L 100.77 94.52 L 101.08 94.45 L 101.40 94.37 L 101.72 94.30 L 102.03 94.23 L 102.35 94.17 L 102.66 94.10 L 102.98 94.03 L 103.29 93.96 L 103.61 93.90 L 103.93 93.83 L 104.24 93.77 L 104.56 93.70 L 104.87 93.64 L 105.19 93.58 L 105.51 93.52 L 105.82 93.46 L 106.14 93.40 L 106.45 93.34 L 106.77 93.28 L 107.09 93.22 L 107.40 93.16 L 107.72 93.11 L 108.03 93.05 L 108.35 93.00 L 108.67 92.94 L 108.98 92.89 L 109.30 92.83 L 109.61 92.78 L 109.93 92.73 L 110.24 92.68 L 110.56 92.63 L 110.88 92.58 L 111.19 92.53 L 111.51 92.48 L 111.82 92.43 L 112.14 92.38 L 112.46 92.34 L 112.77 92.29 L 113.09 92.24 L 113.40 92.20 L 113.72 92.15 L 114.04 92.11 L 114.35 92.07 L 114.67 92.02 L 114.98 91.98 L 115.30 91.94 L 115.62 91.90 L 115.93 91.86 L 116.25 91.82 L 116.56 91.78 L 116.88 91.74 L 117.19 91.70 L 117.51 91.67 L 117.83 91.63 L 118.14 91.59 L 118.46 91.56 L 118.77 91.52 L 119.09 91.49 L 119.41 91.45 L 119.72 91.42 L 120.04 91.39 L 120.35 91.35 L 120.67 91.32 L 120.99 91.29 L 121.30 91.26 L 121.62 91.23 L 121.93 91.20 L 122.25 91.17 L 122.57 91.14 L 122.88 91.11 L 123.20 91.08 L 123.51 91.06 L 123.83 91.03 L 124.14 91.00 L 124.46 90.98 L 124.78 90.95 L 125.09 90.92 L 125.41 90.90 L 125.72 90.88 L 126.04 90.85 L 126.36 90.83 L 126.67 90.80 L 126.99 90.78 L 127.30 90.76 L 127.62 90.74 L 127.94 90.72 L 128.25 90.70 L 128.57 90.68 L 128.88 90.65 L 129.20 90.64 L 129.52 90.62 L 129.83 90.60 L 130.15 90.58 L 130.46 90.56 L 130.78 90.54 L 131.09 90.52 L 131.41 90.51 L 131.73 90.49 L 132.04 90.48 L 132.36 90.46 L 132.67 90.44 L 132.99 90.43 L 133.31 90.41 L 133.62 90.40 L 133.94 90.38 L 134.25 90.37 L 134.57 90.36 L 134.89 90.34 L 135.20 90.33 L 135.52 90.32 L 135.83 90.31 L 136.15 90.29 L 136.46 90.28 L 136.78 90.27 L 137.10 90.26 L 137.41 90.25 L 137.73 90.24 L 138.04 90.23 L 138.36 90.22 L 138.68 90.21 L 138.99 90.20 L 139.31 90.19 L 139.62 90.18 L 139.94 90.18 L 140.26 90.17 L 140.57 90.16 L 140.89 90.15 L 141.20 90.14 L 141.52 90.14 L 141.84 90.13 L 142.15 90.12 L 142.47 90.12 L 142.78 90.11 L 143.10 90.10 L 143.41 90.10 L 143.73 90.09 L 144.05 90.09 L 144.36 90.08 L 144.68 90.08 L 144.99 90.07 L 145.31 90.07 L 145.63 90.06 L 145.94 90.06 L 146.26 90.06 L 146.57 90.05 L 146.89 90.05 L 147.21 90.05 L 147.52 90.04 L 147.84 90.04 L 148.15 90.04 L 148.47 90.03 L 148.79 90.03 L 149.10 90.03 L 149.42 90.03 L 149.73 90.02 L 150.05 90.02 L 150.36 90.02 L 150.68 90.02 L 151.00 90.02 L 151.31 90.01 L 151.63 90.01 L 151.94 90.01 L 152.26 90.01 L 152.58 90.01 L 152.89 90.01 L 153.21 90.01 L 153.52 90.01 L 153.84 90.01 L 154.16 90.00 L 154.47 90.00 L 154.79 90.00 L 155.10 90.00 L 155.42 90.00 L 155.74 90.00 L 156.05 90.00 L 156.37 90.00 L 156.68 90.00 L 157.00 90.00 L 157.31 90.00 L 157.63 90.00 L 157.95 90.00 L 158.26 90.00 L 158.58 90.00 L 158.89 90.00 L 159.21 90.00 L 159.53 90.00 L 159.84 90.00 L 160.16 90.00 L 160.47 90.00 L 160.79 90.00 L 161.11 90.00 L 161.42 90.00 L 161.74 90.00 L 162.05 90.00 L 162.37 90.00 L 162.69 90.00 L 163.00 90.00 L 163.32 90.00 L 163.63 90.00 L 163.95 90.00 L 164.26 90.00 L 164.58 90.00 L 164.90 90.00 L 165.21 90.00 L 165.53 90.00 L 165.84 90.00 L 166.16 89.99 L 166.48 89.99 L 166.79 89.99 L 167.11 89.99 L 167.42 89.99 L 167.74 89.99 L 168.06 89.99 L 168.37 89.99 L 168.69 89.99 L 169.00 89.98 L 169.32 89.98 L 169.64 89.98 L 169.95 89.98 L 170.27 89.98 L 170.58 89.97 L 170.90 89.97 L 171.21 89.97 L 171.53 89.97 L 171.85 89.96 L 172.16 89.96 L 172.48 89.96 L 172.79 89.95 L 173.11 89.95 L 173.43 89.95 L 173.74 89.94 L 174.06 89.94 L 174.37 89.94 L 174.69 89.93 L 175.01 89.93 L 175.32 89.92 L 175.64 89.92 L 175.95 89.91 L 176.27 89.91 L 176.59 89.90 L 176.90 89.90 L 177.22 89.89 L 177.53 89.88 L 177.85 89.88 L 178.16 89.87 L 178.48 89.86 L 178.80 89.86 L 179.11 89.85 L 179.43 89.84 L 179.74 89.83 L 180.06 89.82 L 180.38 89.82 L 180.69 89.81 L 181.01 89.80 L 181.32 89.79 L 181.64 89.78 L 181.96 89.77 L 182.27 89.76 L 182.59 89.75 L 182.90 89.74 L 183.22 89.73 L 183.54 89.72 L 183.85 89.71 L 184.17 89.69 L 184.48 89.68 L 184.80 89.67 L 185.11 89.66 L 185.43 89.64 L 185.75 89.63 L 186.06 89.62 L 186.38 89.60 L 186.69 89.59 L 187.01 89.57 L 187.33 89.56 L 187.64 89.54 L 187.96 89.52 L 188.27 89.51 L 188.59 89.49 L 188.91 89.48 L 189.22 89.46 L 189.54 89.44 L 189.85 89.42 L 190.17 89.40 L 190.48 89.38 L 190.80 89.36 L 191.12 89.35 L 191.43 89.32 L 191.75 89.30 L 192.06 89.28 L 192.38 89.26 L 192.70 89.24 L 193.01 89.22 L 193.33 89.20 L 193.64 89.17 L 193.96 89.15 L 194.28 89.12 L 194.59 89.10 L 194.91 89.08 L 195.22 89.05 L 195.54 89.02 L 195.86 89.00 L 196.17 88.97 L 196.49 88.94 L 196.80 88.92 L 197.12 88.89 L 197.43 88.86 L 197.75 88.83 L 198.07 88.80 L 198.38 88.77 L 198.70 88.74 L 199.01 88.71 L 199.33 88.68 L 199.65 88.65 L 199.96 88.61 L 200.28 88.58 L 200.59 88.55 L 200.91 88.51 L 201.23 88.48 L 201.54 88.44 L 201.86 88.41 L 202.17 88.37 L 202.49 88.33 L 202.81 88.30 L 203.12 88.26 L 203.44 88.22 L 203.75 88.18 L 204.07 88.14 L 204.38 88.10 L 204.70 88.06 L 205.02 88.02 L 205.33 87.98 L 205.65 87.93 L 205.96 87.89 L 206.28 87.85 L 206.60 87.80 L 206.91 87.76 L 207.23 87.71 L 207.54 87.66 L 207.86 87.62 L 208.18 87.57 L 208.49 87.52 L 208.81 87.47 L 209.12 87.42 L 209.44 87.37 L 209.76 87.32 L 210.07 87.27 L 210.39 87.22 L 210.70 87.17 L 211.02 87.11 L 211.33 87.06 L 211.65 87.00 L 211.97 86.95 L 212.28 86.89 L 212.60 86.84 L 212.91 86.78 L 213.23 86.72 L 213.55 86.66 L 213.86 86.60 L 214.18 86.54 L 214.49 86.48 L 214.81 86.42 L 215.13 86.36 L 215.44 86.30 L 215.76 86.23 L 216.07 86.17 L 216.39 86.10 L 216.71 86.04 L 217.02 85.97 L 217.34 85.90 L 217.65 85.83 L 217.97 85.77 L 218.28 85.70 L 218.60 85.63 L 218.92 85.55 L 219.23 85.48 L 219.55 85.41 L 219.86 85.34 L 220.18 85.26 L 220.50 85.19 L 220.81 85.11 L 221.13 85.04 L 221.44 84.96 L 221.76 84.88 L 222.08 84.80 L 222.39 84.72 L 222.71 84.64 L 223.02 84.56 L 223.34 84.48 L 223.66 84.39 L 223.97 84.31 L 224.29 84.22 L 224.60 84.14 L 224.92 84.05 L 225.23 83.97 L 225.55 83.88 L 225.87 83.79 L 226.18 83.70 L 226.50 83.61 L 226.81 83.52 L 227.13 83.42 L 227.45 83.33 L 227.76 83.24 L 228.08 83.14 L 228.39 83.05 L 228.71 82.95 L 229.03 82.85 L 229.34 82.75 L 229.66 82.65 L 229.97 82.55 L 230.29 82.45 L 230.61 82.35 L 230.92 82.25 L 231.24 82.14 L 231.55 82.04 L 231.87 81.93 L 232.18 81.82 L 232.50 81.72 L 232.82 81.61 L 233.13 81.50 L 233.45 81.39 L 233.76 81.28 L 234.08 81.16 L 234.40 81.05 L 234.71 80.94 L 235.03 80.82 L 235.34 80.70 L 235.66 80.59 L 235.98 80.47 L 236.29 80.35 L 236.61 80.23 L 236.92 80.11 L 237.24 79.98 L 237.56 79.86 L 237.87 79.74 L 238.19 79.61 L 238.50 79.48 L 238.82 79.36 L 239.13 79.23 L 239.45 79.10 L 239.77 78.97 L 240.08 78.84 L 240.40 78.70 L 240.71 78.57 L 241.03 78.44 L 241.35 78.30 L 241.66 78.16 L 241.98 78.02 L 242.29 77.89 L 242.61 77.75 L 242.93 77.60 L 243.24 77.46 L 243.56 77.32 L 243.87 77.17 L 244.19 77.03 L 244.51 76.88 L 244.82 76.74 L 245.14 76.59 L 245.45 76.44 L 245.77 76.29 L 246.08 76.13 L 246.40 75.98 L 246.72 75.83 L 247.03 75.67 L 247.35 75.51 L 247.66 75.36 L 247.98 75.20 L 248.30 75.04 L 248.61 74.88 L 248.93 74.71 L 249.24 74.55 L 249.56 74.39 L 249.88 74.22 L 250.19 74.05 L 250.51 73.88 L 250.82 73.72 L 251.14 73.54 L 251.45 73.37 L 251.77 73.20 L 252.09 73.03 L 252.40 72.85 L 252.72 72.67 L 253.03 72.50 L 253.35 72.32 L 253.67 72.14 L 253.98 71.96 L 254.30 71.77 L 254.61 71.59 L 254.93 71.40 L 255.25 71.22 L 255.56 71.03 L 255.88 70.84 L 256.19 70.65 L 256.51 70.46 L 256.83 70.27 L 257.14 70.07 L 257.46 69.88 L 257.77 69.68 L 258.09 69.49 L 258.40 69.29 L 258.72 69.09 L 259.04 68.89 L 259.35 68.68 L 259.67 68.48 L 259.98 68.27 L 260.30 68.07 L 260.62 67.86 L 260.93 67.65 L 261.25 67.44 L 261.56 67.23 L 261.88 67.01 L 262.20 66.80 L 262.51 66.58 L 262.83 66.37 L 263.14 66.15 L 263.46 65.93 L 263.78 65.71 L 264.09 65.48 L 264.41 65.26 L 264.72 65.04 L 265.04 64.81 L 265.35 64.58 L 265.67 64.35 L 265.99 64.12 L 266.30 63.89 L 266.62 63.66 L 266.93 63.42 L 267.25 63.18 L 267.57 62.95 L 267.88 62.71 L 268.20 62.47 L 268.51 62.23 L 268.83 61.98 L 269.15 61.74 L 269.46 61.49 L 269.78 61.24 L 270.09 60.99 L 270.41 60.74 L 270.73 60.49 L 271.04 60.24 L 271.36 59.98 L 271.67 59.73 L 271.99 59.47 L 272.30 59.21 L 272.62 58.95 L 272.94 58.69 L 273.25 58.43 L 273.57 58.16 L 273.88 57.89 L 274.20 57.63 L 274.52 57.36 L 274.83 57.09 L 275.15 56.81 L 275.46 56.54 L 275.78 56.26 L 276.10 55.99 L 276.41 55.71 L 276.73 55.43 L 277.04 55.15 L 277.36 54.86 L 277.68 54.58 L 277.99 54.29 L 278.31 54.01 L 278.62 53.72 L 278.94 53.43 L 279.25 53.13 L 279.57 52.84 L 279.89 52.55 L 280.20 52.25 L 280.52 51.95 L 280.83 51.65 L 281.15 51.35 L 281.47 51.05 L 281.78 50.74 L 282.10 50.43 L 282.41 50.13 L 282.73 49.82 L 283.05 49.51 L 283.36 49.19 L 283.68 48.88 L 283.99 48.56 L 284.31 48.25 L 284.63 47.93 L 284.94 47.61 L 285.26 47.28 L 285.57 46.96 L 285.89 46.63 L 286.20 46.31 L 286.52 45.98 L 286.84 45.65 L 287.15 45.31 L 287.47 44.98 L 287.78 44.65 L 288.10 44.31 L 288.42 43.97 L 288.73 43.63 L 289.05 43.29 L 289.36 42.94 L 289.68 42.60 L 290.00 42.25 L 290.31 41.90 L 290.63 41.55 L 290.94 41.20 L 291.26 40.84 L 291.58 40.49 L 291.89 40.13 L 292.21 39.77 L 292.52 39.41 L 292.84 39.05 L 293.15 38.68 L 293.47 38.32 L 293.79 37.95 L 294.10 37.58 L 294.42 37.21 L 294.73 36.84 L 295.05 36.46 L 295.37 36.08 L 295.68 35.71 L 296.00 35.33 L 296.31 34.94 L 296.63 34.56 L 296.95 34.17 L 297.26 33.79 L 297.58 33.40 L 297.89 33.01 L 298.21 32.61 L 298.53 32.22 L 298.84 31.82 L 299.16 31.43 L 299.47 31.03 L 299.79 30.62 L 300.10 30.22 L 300.42 29.82 L 300.74 29.41 L 301.05 29.00 L 301.37 28.59 L 301.68 28.18 L 302.00 27.76" fill="none" stroke="#7E8692" stroke-width="2.3" stroke-linecap="round" stroke-linejoin="round"/>
</svg>
