<svg xmlns="http://www.w3.org/2000/svg" viewBox="0 0 320 180" width="320" height="180">
  <rect width="320" height="180" fill="#F4F5F7"/>
  <path d="M 24.00 76.51 L 24.23 76.51 L 24.45 76.51 L 24.68 76.51 L 24.91 76.51 L 25.13 76.51 L 25.36 76.51 L 25.59 76.52 L 25.81 76.52 L 26.04 76.52 L 26.27 76.52 L 26.50 76.52 L 26.72 76.52 L 26.95 76.52 L 27.18 76.52 L 27.40 76.52 L 27.63 76.52 L 27.86 76.53 L 28.08 76.53 L 28.31 76.53 L 28.54 76.53 L 28.76 76.53 L 28.99 76.53 L 29.22 76.53 L 29.44 76.53 L 29.67 76.53 L 29.90 76.53 L 30.13 76.54 L 30.35 76.54 L 30.58 76.54 L 30.81 76.54 L 31.03 76.54 L 31.26 76.54 L 31.49 76.54 L 31.71 76.54 L 31.94 76.54 L 32.17 76.55 L 32.39 76.55 L 32.62 76.55 L 32.85 76.55 L 33.07 76.55 L 33.30 76.55 L 33.53 76.55 L 33.75 76.55 L 33.98 76.56 L 34.21 76.56 L 34.44 76.56 L 34.66 76.56 L 34.89 76.56 L 35.12 76.56 L 35.34 76.56 L 35.57 76.56 L 35.80 76.57 L 36.02 76.57 L 36.25 76.57 L 36.48 76.57 L 36.70 76.57 L 36.93 76.57 L 37.16 76.57 L 37.38 76.57 L 37.61 76.58 L 37.84 76.58 L 38.07 76.58 L 38.29 76.58 L 38.52 76.58 L 38.75 76.58 L 38.97 76.58 L 39.20 76.59 L 39.43 76.59 L 39.65 76.59 L 39.88 76.59 L 40.11 76.59 L 40.33 76.59 L 40.56 76.60 L 40.79 76.60 L 41.01 76.60 L 41.24 76.60 L 41.47 76.60 L 41.69 76.60 L 41.92 76.60 L 42.15 76.61 L 42.38 76.61 L 42.60 76.61 L 42.83 76.61 L 43.06 76.61 L 43.28 76.61 L 43.51 76.62 L 43.74 76.62 L 43.96 76.62 L 44.19 76.62 L 44.42 76.62 L 44.64 76.63 L 44.87 76.63 L 45.10 76.63 L 45.32 76.63 L 45.55 76.63 L 45.78 76.63 L 46.01 76.64 L 46.23 76.64 L 46.46 76.64 L 46.69 76.64 L 46.91 76.64 L 47.14 76.65 L 47.37 76.65 L 47.59 76.65 L 47.82 76.65 L 48.05 76.65 L 48.27 76.66 L 48.50 76.66 L 48.73 76.66 L 48.95 76.66 L 49.18 76.66 L 49.41 76.67 L 49.63 76.67 L 49.86 76.67 L 50.09 76.67 L 50.32 76.67 L 50.54 76.68 L 50.77 76.68 L 51.00 76.68 L 51.22 76.68 L 51.45 76.69 L 51.68 76.69 L 51.90 76.69 L 52.13 76.69 L 52.36 76.69 L 52.58 76.70 L 52.81 76.70 L 53.04 76.70 L 53.26 76.70 L 53.49 76.71 L 53.72 76.71 L 53.94 76.71 L 54.17 76.71 L 54.40 76.72 L 54.63 76.72 L 54.85 76.72 L 55.08 76.72 L 55.31 76.73 L 55.53 76.73 L 55.76 76.73 L 55.99 76.73 L 56.21 76.74 L 56.44 76.74 L 56.67 76.74 L 56.89 76.74 L 57.12 76.75 L 57.35 76.75 L 57.57 76.75 L 57.80 76.76 L 58.03 76.76 L 58.26 76.76 L 58.48 76.76 L 58.71 76.77 L 58.94 76.77 L 59.16 76.77 L 59.39 76.78 L 59.62 76.78 L 59.84 76.78 L 60.07 76.78 L 60.30 76.79 L 60.52 76.79 L 60.75 76.79 L 60.98 76.80 L 61.20 76.80 L 61.43 76.80 L 61.66 76.81 L 61.88 76.81 L 62.11 76.81 L 62.34 76.82 L 62.57 76.82 L 62.79 76.82 L 63.02 76.82 L 63.25 76.83 L 63.47 76.83 L 63.70 76.83 L 63.93 76.84 L 64.15 76.84 L 64.38 76.85 L 64.61 76.85 L 64.83 76.85 L 65.06 76.86 L 65.29 76.86 L 65.51 76.86 L 65.74 76.87 L 65.97 76.87 L 66.20 76.87 L 66.42 76.88 L 66.65 76.88 L 66.88 76.88 L 67.10 76.89 L 67.33 76.89 L 67.56 76.90 L 67.78 76.90 L 68.01 76.90 L 68.24 76.91 L 68.46 76.91 L 68.69 76.92 L 68.92 76.92 L 69.14 76.92 L 69.37 76.93 L 69.60 76.93 L 69.82 76.94 L 70.05 76.94 L 70.28 76.94 L 70.51 76.95 L 70.73 76.95 L 70.96 76.96 L 71.19 76.96 L 71.41 76.97 L 71.64 76.97 L 71.87 76.97 L 72.09 76.98 L 72.32 76.98 L 72.55 76.99 L 72.77 76.99 L 73.00 77.00 L 73.23 77.00 L 73.45 77.01 L 73.68 77.01 L 73.91 77.02 L 74.14 77.02 L 74.36 77.03 L 74.59 77.03 L 74.82 77.03 L 75.04 77.04 L 75.27 77.04 L 75.50 77.05 L 75.72 77.05 L 75.95 77.06 L 76.18 77.06 L 76.40 77.07 L 76.63 77.08 L 76.86 77.08 L 77.08 77.09 L 77.31 77.09 L 77.54 77.10 L 77.76 77.10 L 77.99 77.11 L 78.22 77.11 L 78.45 77.12 L 78.67 77.12 L 78.90 77.13 L 79.13 77.13 L 79.35 77.14 L 79.58 77.15 L 79.81 77.15 L 80.03 77.16 L 80.26 77.16 L 80.49 77.17 L 80.71 77.17 L 80.94 77.18 L 81.17 77.19 L 81.39 77.19 L 81.62 77.20 L 81.85 77.20 L 82.08 77.21 L 82.30 77.22 L 82.53 77.22 L 82.76 77.23 L 82.98 77.23 L 83.21 77.24 L 83.44 77.25 L 83.66 77.25 L 83.89 77.26 L 84.12 77.27 L 84.34 77.27 L 84.57 77.28 L 84.80 77.29 L 85.02 77.29 L 85.25 77.30 L 85.48 77.31 L 85.70 77.31 L 85.93 77.32 L 86.16 77.33 L 86.39 77.33 L 86.61 77.34 L 86.84 77.35 L 87.07 77.36 L 87.29 77.36 L 87.52 77.37 L 87.75 77.38 L 87.97 77.38 L 88.20 77.39 L 88.43 77.40 L 88.65 77.41 L 88.88 77.41 L 89.11 77.42 L 89.33 77.43 L 89.56 77.44 L 89.79 77.44 L 90.02 77.45 L 90.24 77.46 L 90.47 77.47 L 90.70 77.48 L 90.92 77.48 L 91.15 77.49 L 91.38 77.50 L 91.60 77.51 L 91.83 77.52 L 92.06 77.53 L 92.28 77.53 L 92.51 77.54 L 92.74 77.55 L 92.96 77.56 L 93.19 77.57 L 93.42 77.58 L 93.64 77.58 L 93.87 77.59 L 94.10 77.60 L 94.33 77.61 L 94.55 77.62 L 94.78 77.63 L 95.01 77.64 L 95.23 77.65 L 95.46 77.66 L 95.69 77.66 L 95.91 77.67 L 96.14 77.68 L 96.37 77.69 L 96.59 77.70 L 96.82 77.71 L 97.05 77.72 L 97.27 77.73 L 97.50 77.74 L 97.73 77.75 L 97.95 77.76 L 98.18 77.77 L 98.41 77.78 L 98.64 77.79 L 98.86 77.80 L 99.09 77.81 L 99.32 77.82 L 99.54 77.83 L 99.77 77.84 L 100.00 77.85 L 100.22 77.86 L 100.45 77.87 L 100.68 77.88 L 100.90 77.89 L 101.13 77.90 L 101.36 77.91 L 101.58 77.93 L 101.81 77.94 L 102.04 77.95 L 102.27 77.96 L 102.49 77.97 L 102.72 77.98 L 102.95 77.99 L 103.17 78.00 L 103.40 78.02 L 103.63 78.03 L 103.85 78.04 L 104.08 78.05 L 104.31 78.06 L 104.53 78.07 L 104.76 78.08 L 104.99 78.10 L 105.21 78.11 L 105.44 78.12 L 105.67 78.13 L 105.89 78.15 L 106.12 78.16 L 106.35 78.17 L 106.58 78.18 L 106.80 78.19 L 107.03 78.21 L 107.26 78.22 L 107.48 78.23 L 107.71 78.25 L 107.94 78.26 L 108.16 78.27 L 108.39 78.28 L 108.62 78.30 L 108.84 78.31 L 109.07 78.32 L 109.30 78.34 L 109.52 78.35 L 109.75 78.36 L 109.98 78.38 L 110.21 78.39 L 110.43 78.40 L 110.66 78.42 L 110.89 78.43 L 111.11 78.45 L 111.34 78.46 L 111.57 78.47 L 111.79 78.49 L 112.02 78.50 L 112.25 78.52 L 112.47 78.53 L 112.70 78.55 L 112.93 78.56 L 113.15 78.57 L 113.38 78.59 L 113.61 78.60 L 113.83 78.62 L 114.06 78.63 L 114.29 78.65 L 114.52 78.66 L 114.74 78.68 L 114.97 78.69 L 115.20 78.71 L 115.42 78.73 L 115.65 78.74 L 115.88 78.76 L 116.10 78.77 L 116.33 78.79 L 116.56 78.80 L 116.78 78.82 L 117.01 78.84 L 117.24 78.85 L 117.46 78.87 L 117.69 78.88 L 117.92 78.90 L 118.15 78.92 L 118.37 78.93 L 118.60 78.95 L 118.83 78.97 L 119.05 78.98 L 119.28 79.00 L 119.51 79.02 L 119.73 79.03 L 119.96 79.05 L 120.19 79.07 L 120.41 79.09 L 120.64 79.10 L 120.87 79.12 L 121.09 79.14 L 121.32 79.16 L 121.55 79.17 L 121.77 79.19 L 122.00 79.21 L 122.23 79.23 L 122.46 79.25 L 122.68 79.26 L 122.91 79.28 L 123.14 79.30 L 123.36 79.32 L 123.59 79.34 L 123.82 79.36 L 124.04 79.37 L 124.27 79.39 L 124.50 79.41 L 124.72 79.43 L 124.95 79.45 L 125.18 79.47 L 125.40 79.49 L 125.63 79.51 L 125.86 79.53 L 126.09 79.55 L 126.31 79.57 L 126.54 79.58 L 126.77 79.60 L 126.99 79.62 L 127.22 79.64 L 127.45 79.66 L 127.67 79.68 L 127.90 79.70 L 128.13 79.72 L 128.35 79.74 L 128.58 79.76 L 128.81 79.78 L 129.03 79.81 L 129.26 79.83 L 129.49 79.85 L 129.71 79.87 L 129.94 79.89 L 130.17 79.91 L 130.40 79.93 L 130.62 79.95 L 130.85 79.97 L 131.08 79.99 L 131.30 80.01 L 131.53 80.04 L 131.76 80.06 L 131.98 80.08 L 132.21 80.10 L 132.44 80.12 L 132.66 80.14 L 132.89 80.17 L 133.12 80.19 L 133.34 80.21 L 133.57 80.23 L 133.80 80.25 L 134.03 80.28 L 134.25 80.30 L 134.48 80.32 L 134.71 80.34 L 134.93 80.37 L 135.16 80.39 L 135.39 80.41 L 135.61 80.43 L 135.84 80.46 L 136.07 80.48 L 136.29 80.50 L 136.52 80.53 L 136.75 80.55 L 136.97 80.57 L 137.20 80.60 L 137.43 80.62 L 137.65 80.64 L 137.88 80.67 L 138.11 80.69 L 138.34 80.71 L 138.56 80.74 L 138.79 80.76 L 139.02 80.78 L 139.24 80.81 L 139.47 80.83 L 139.70 80.86 L 139.92 80.88 L 140.15 80.90 L 140.38 80.93 L 140.60 80.95 L 140.83 80.98 L 141.06 81.00 L 141.28 81.03 L 141.51 81.05 L 141.74 81.07 L 141.96 81.10 L 142.19 81.12 L 142.42 81.15 L 142.65 81.17 L 142.87 81.20 L 143.10 81.22 L 143.33 81.25 L 143.55 81.27 L 143.78 81.30 L 144.01 81.32 L 144.23 81.35 L 144.46 81.37 L 144.69 81.40 L 144.91 81.43 L 145.14 81.45 L 145.37 81.48 L 145.59 81.50 L 145.82 81.53 L 146.05 81.55 L 146.28 81.58 L 146.50 81.61 L 146.73 81.63 L 146.96 81.66 L 147.18 81.68 L 147.41 81.71 L 147.64 81.73 L 147.86 81.76 L 148.09 81.79 L 148.32 81.81 L 148.54 81.84 L 148.77 81.87 L 149.00 81.89 L 149.22 81.92 L 149.45 81.94 L 149.68 81.97 L 149.90 82.00 L 150.13 82.02 L 150.36 82.05 L 150.59 82.08 L 150.81 82.10 L 151.04 82.13 L 151.27 82.16 L 151.49 82.18 L 151.72 82.21 L 151.95 82.24 L 152.17 82.26 L 152.40 82.29 L 152.63 82.32 L 152.85 82.34 L 153.08 82.37 L 153.31 82.40 L 153.53 82.42 L 153.76 82.45 L 153.99 82.48 L 154.22 82.51 L 154.44 82.53 L 154.67 82.56 L 154.90 82.59 L 155.12 82.61 L 155.35 82.64 L 155.58 82.67 L 155.80 82.70 L 156.03 82.72 L 156.26 82.75 L 156.48 82.78 L 156.71 82.80 L 156.94 82.83 L 157.16 82.86 L 157.39 82.89 L 157.62 82.91 L 157.84 82.94 L 158.07 82.97 L 158.30 83.00 L 158.53 83.02 L 158.75 83.05 L 158.98 83.08 L 159.21 83.10 L 159.43 83.13 L 159.66 83.16 L 159.89 83.19 L 160.11 83.21 L 160.34 83.24 L 160.57 83.27 L 160.79 83.30 L 161.02 83.32 L 161.25 83.35 L 161.47 83.38 L 161.70 83.40 L 161.93 83.43 L 162.16 83.46 L 162.38 83.49 L 162.61 83.51 L 162.84 83.54 L 163.06 83.57 L 163.29 83.60 L 163.52 83.62 L 163.74 83.65 L 163.97 83.68 L 164.20 83.70 L 164.42 83.73 L 164.65 83.76 L 164.88 83.79 L 165.10 83.81 L 165.33 83.84 L 165.56 83.87 L 165.78 83.89 L 166.01 83.92 L 166.24 83.95 L 166.47 83.98 L 166.69 84.00 L 166.92 84.03 L 167.15 84.06 L 167.37 84.08 L 167.60 84.11 L 167.83 84.14 L 168.05 84.16 L 168.28 84.19 L 168.51 84.22 L 168.73 84.24 L 168.96 84.27 L 169.19 84.30 L 169.41 84.32 L 169.64 84.35 L 169.87 84.38 L 170.10 84.40 L 170.32 84.43 L 170.55 84.46 L 170.78 84.48 L 171.00 84.51 L 171.23 84.53 L 171.46 84.56 L 171.68 84.59 L 171.91 84.61 L 172.14 84.64 L 172.36 84.67 L 172.59 84.69 L 172.82 84.72 L 173.04 84.74 L 173.27 84.77 L 173.50 84.79 L 173.72 84.82 L 173.95 84.85 L 174.18 84.87 L 174.41 84.90 L 174.63 84.92 L 174.86 84.95 L 175.09 84.97 L 175.31 85.00 L 175.54 85.03 L 175.77 85.05 L 175.99 85.08 L 176.22 85.10 L 176.45 85.13 L 176.67 85.15 L 176.90 85.18 L 177.13 85.20 L 177.35 85.23 L 177.58 85.25 L 177.81 85.28 L 178.04 85.30 L 178.26 85.33 L 178.49 85.35 L 178.72 85.37 L 178.94 85.40 L 179.17 85.42 L 179.40 85.45 L 179.62 85.47 L 179.85 85.50 L 180.08 85.52 L 180.30 85.54 L 180.53 85.57 L 180.76 85.59 L 180.98 85.62 L 181.21 85.64 L 181.44 85.66 L 181.66 85.69 L 181.89 85.71 L 182.12 85.73 L 182.35 85.76 L 182.57 85.78 L 182.80 85.80 L 183.03 85.83 L 183.25 85.85 L 183.48 85.87 L 183.71 85.90 L 183.93 85.92 L 184.16 85.94 L 184.39 85.97 L 184.61 85.99 L 184.84 86.01 L 185.07 86.03 L 185.29 86.06 L 185.52 86.08 L 185.75 86.10 L 185.97 86.12 L 186.20 86.15 L 186.43 86.17 L 186.66 86.19 L 186.88 86.21 L 187.11 86.23 L 187.34 86.26 L 187.56 86.28 L 187.79 86.30 L 188.02 86.32 L 188.24 86.34 L 188.47 86.36 L 188.70 86.39 L 188.92 86.41 L 189.15 86.43 L 189.38 86.45 L 189.60 86.47 L 189.83 86.49 L 190.06 86.51 L 190.29 86.53 L 190.51 86.55 L 190.74 86.57 L 190.97 86.59 L 191.19 86.62 L 191.42 86.64 L 191.65 86.66 L 191.87 86.68 L 192.10 86.70 L 192.33 86.72 L 192.55 86.74 L 192.78 86.76 L 193.01 86.78 L 193.23 86.80 L 193.46 86.82 L 193.69 86.83 L 193.91 86.85 L 194.14 86.87 L 194.37 86.89 L 194.60 86.91 L 194.82 86.93 L 195.05 86.95 L 195.28 86.97 L 195.50 86.99 L 195.73 87.01 L 195.96 87.03 L 196.18 87.04 L 196.41 87.06 L 196.64 87.08 L 196.86 87.10 L 197.09 87.12 L 197.32 87.14 L 197.54 87.15 L 197.77 87.17 L 198.00 87.19 L 198.23 87.21 L 198.45 87.23 L 198.68 87.24 L 198.91 87.26 L 199.13 87.28 L 199.36 87.30 L 199.59 87.31 L 199.81 87.33 L 200.04 87.35 L 200.27 87.37 L 200.49 87.38 L 200.72 87.40 L 200.95 87.42 L 201.17 87.43 L 201.40 87.45 L 201.63 87.47 L 201.85 87.48 L 202.08 87.50 L 202.31 87.52 L 202.54 87.53 L 202.76 87.55 L 202.99 87.56 L 203.22 87.58 L 203.44 87.60 L 203.67 87.61 L 203.90 87.63 L 204.12 87.64 L 204.35 87.66 L 204.58 87.67 L 204.80 87.69 L 205.03 87.71 L 205.26 87.72 L 205.48 87.74 L 205.71 87.75 L 205.94 87.77 L 206.17 87.78 L 206.39 87.80 L 206.62 87.81 L 206.85 87.83 L 207.07 87.84 L 207.30 87.85 L 207.53 87.87 L 207.75 87.88 L 207.98 87.90 L 208.21 87.91 L 208.43 87.93 L 208.66 87.94 L 208.89 87.95 L 209.11 87.97 L 209.34 87.98 L 209.57 88.00 L 209.79 88.01 L 210.02 88.02 L 210.25 88.04 L 210.48 88.05 L 210.70 88.06 L 210.93 88.08 L 211.16 88.09 L 211.38 88.10 L 211.61 88.12 L 211.84 88.13 L 212.06 88.14 L 212.29 88.15 L 212.52 88.17 L 212.74 88.18 L 212.97 88.19 L 213.20 88.21 L 213.42 88.22 L 213.65 88.23 L 213.88 88.24 L 214.11 88.25 L 214.33 88.27 L 214.56 88.28 L 214.79 88.29 L 215.01 88.30 L 215.24 88.32 L 215.47 88.33 L 215.69 88.34 L 215.92 88.35 L 216.15 88.36 L 216.37 88.37 L 216.60 88.38 L 216.83 88.40 L 217.05 88.41 L 217.28 88.42 L 217.51 88.43 L 217.73 88.44 L 217.96 88.45 L 218.19 88.46 L 218.42 88.47 L 218.64 88.49 L 218.87 88.50 L 219.10 88.51 L 219.32 88.52 L 219.55 88.53 L 219.78 88.54 L 220.00 88.55 L 220.23 88.56 L 220.46 88.57 L 220.68 88.58 L 220.91 88.59 L 221.14 88.60 L 221.36 88.61 L 221.59 88.62 L 221.82 88.63 L 222.05 88.64 L 222.27 88.65 L 222.50 88.66 L 222.73 88.67 L 222.95 88.68 L 223.18 88.69 L 223.41 88.70 L 223.63 88.71 L 223.86 88.72 L 224.09 88.73 L 224.31 88.74 L 224.54 88.74 L 224.77 88.75 L 224.99 88.76 L 225.22 88.77 L 225.45 88.78 L 225.67 88.79 L 225.90 88.80 L 226.13 88.81 L 226.36 88.82 L 226.58 88.82 L 226.81 88.83 L 227.04 88.84 L 227.26 88.85 L 227.49 88.86 L 227.72 88.87 L 227.94 88.87 L 228.17 88.88 L 228.40 88.89 L 228.62 88.90 L 228.85 88.91 L 229.08 88.92 L 229.30 88.92 L 229.53 88.93 L 229.76 88.94 L 229.98 88.95 L 230.21 88.96 L 230.44 88.96 L 230.67 88.97 L 230.89 88.98 L 231.12 88.99 L 231.35 88.99 L 231.57 89.00 L 231.80 89.01 L 232.03 89.02 L 232.25 89.02 L 232.48 89.03 L 232.71 89.04 L 232.93 89.04 L 233.16 89.05 L 233.39 89.06 L 233.61 89.07 L 233.84 89.07 L 234.07 89.08 L 234.30 89.09 L 234.52 89.09 L 234.75 89.10 L 234.98 89.11 L 235.20 89.11 L 235.43 89.12 L 235.66 89.13 L 235.88 89.13 L 236.11 89.14 L 236.34 89.15 L 236.56 89.15 L 236.79 89.16 L 237.02 89.17 L 237.24 89.17 L 237.47 89.18 L 237.70 89.18 L 237.92 89.19 L 238.15 89.20 L 238.38 89.20 L 238.61 89.21 L 238.83 89.21 L 239.06 89.22 L 239.29 89.23 L 239.51 89.23 L 239.74 89.24 L 239.97 89.24 L 240.19 89.25 L 240.42 89.25 L 240.65 89.26 L 240.87 89.27 L 241.10 89.27 L 241.33 89.28 L 241.55 89.28 L 241.78 89.29 L 242.01 89.29 L 242.24 89.30 L 242.46 89.30 L 242.69 89.31 L 242.92 89.31 L 243.14 89.32 L 243.37 89.32 L 243.60 89.33 L 243.82 89.34 L 244.05 89.34 L 244.28 89.35 L 244.50 89.35 L 244.73 89.36 L 244.96 89.36 L 245.18 89.37 L 245.41 89.37 L 245.64 89.37 L 245.86 89.38 L 246.09 89.38 L 246.32 89.39 L 246.55 89.39 L 246.77 89.40 L 247.00 89.40 L 247.23 89.41 L 247.45 89.41 L 247.68 89.42 L 247.91 89.42 L 248.13 89.43 L 248.36 89.43 L 248.59 89.43 L 248.81 89.44 L 249.04 89.44 L 249.27 89.45 L 249.49 89.45 L 249.72 89.46 L 249.95 89.46 L 250.18 89.46 L 250.40 89.47 L 250.63 89.47 L 250.86 89.48 L 251.08 89.48 L 251.31 89.48 L 251.54 89.49 L 251.76 89.49 L 251.99 89.50 L 252.22 89.50 L 252.44 89.50 L 252.67 89.51 L 252.90 89.51 L 253.12 89.52 L 253.35 89.52 L 253.58 89.52 L 253.80 89.53 L 254.03 89.53 L 254.26 89.53 L 254.49 89.54 L 254.71 89.54 L 254.94 89.54 L 255.17 89.55 L 255.39 89.55 L 255.62 89.55 L 255.85 89.56 L 256.07 89.56 L 256.30 89.57 L 256.53 89.57 L 256.75 89.57 L 256.98 89.58 L 257.21 89.58 L 257.43 89.58 L 257.66 89.58 L 257.89 89.59 L 258.12 89.59 L 258.34 89.59 L 258.57 89.60 L 258.80 89.60 L 259.02 89.60 L 259.25 89.61 L 259.48 89.61 L 259.70 89.61 L 259.93 89.62 L 260.16 89.62 L 260.38 89.62 L 260.61 89.62 L 260.84 89.63 L 261.06 89.63 L 261.29 89.63 L 261.52 89.64 L 261.74 89.64 L 261.97 89.64 L 262.20 89.64 L 262.43 89.65 L 262.65 89.65 L 262.88 89.65 L 263.11 89.66 L 263.33 89.66 L 263.56 89.66 L 263.79 89.66 L 264.01 89.67 L 264.24 89.67 L 264.47 89.67 L 264.69 89.67 L 264.92 89.68 L 265.15 89.68 L 265.37 89.68 L 265.60 89.68 L 265.83 89.69 L 266.06 89.69 L 266.28 89.69 L 266.51 89.69 L 266.74 89.70 L 266.96 89.70 L 267.19 89.70 L 267.42 89.70 L 267.64 89.71 L 267.87 89.71 L 268.10 89.71 L 268.32 89.71 L 268.55 89.71 L 268.78 89.72 L 269.00 89.72 L 269.23 89.72 L 269.46 89.72 L 269.68 89.73 L 269.91 89.73 L 270.14 89.73 L 270.37 89.73 L 270.59 89.73 L 270.82 89.74 L 271.05 89.74 L 271.27 89.74 L 271.50 89.74 L 271.73 89.74 L 271.95 89.75 L 272.18 89.75 L 272.41 89.75 L 272.63 89.75 L 272.86 89.75 L 273.09 89.76 L 273.31 89.76 L 273.54 89.76 L 273.77 89.76 L 273.99 89.76 L 274.22 89.77 L 274.45 89.77 L 274.68 89.77 L 274.90 89.77 L 275.13 89.77 L 275.36 89.77 L 275.58 89.78 L 275.81 89.78 L 276.04 89.78 L 276.26 89.78 L 276.49 89.78 L 276.72 89.79 L 276.94 89.79 L 277.17 89.79 L 277.40 89.79 L 277.62 89.79 L 277.85 89.79 L 278.08 89.80 L 278.31 89.80 L 278.53 89.80 L 278.76 89.80 L 278.99 89.80 L 279.21 89.80 L 279.44 89.80 L 279.67 89.81 L 279.89 89.81 L 280.12 89.81 L 280.35 89.81 L 280.57 89.81 L 280.80 89.81 L 281.03 89.82 L 281.25 89.82 L 281.48 89.82 L 281.71 89.82 L 281.93 89.82 L 282.16 89.82 L 282.39 89.82 L 282.62 89.83 L 282.84 89.83 L 283.07 89.83 L 283.30 89.83 L 283.52 89.83 L 283.75 89.83 L 283.98 89.83 L 284.20 89.83 L 284.43 89.84 L 284.66 89.84 L 284.88 89.84 L 285.11 89.84 L 285.34 89.84 L 285.56 89.84 L 285.79 89.84 L 286.02 89.84 L 286.25 89.85 L 286.47 89.85 L 286.70 89.85 L 286.93 89.85 L 287.15 89.85 L 287.38 89.85 L 287.61 89.85 L 287.83 89.85 L 288.06 89.86 L 288.29 89.86 L 288.51 89.86 L 288.74 89.86 L 288.97 89.86 L 289.19 89.86 L 289.42 89.86 L 289.65 89.86 L 289.87 89.86 L 290.10 89.87 L 290.33 89.87 L 290.56 89.87 L 290.78 89.87 L 291.01 89.87 L 291.24 89.87 L 291.46 89.87 L 291.69 89.87 L 291.92 89.87 L 292.14 89.87 L 292.37 89.88 L 292.60 89.88 L 292.82 89.88 L 293.05 89.88 L 293.28 89.88 L 293.50 89.88 L 293.73 89.88 L 293.96 89.88 L 294.19 89.88 L 294.41 89.88 L 294.64 89.89 L 294.87 89.89 L 295.09 89.89 L 295.32 89.89 L 295.55 89.89 L 295.77 89.89 L 296.00 89.89" fill="none" stroke="#7E8692" stroke-width="2.3" stroke-linecap="round" stroke-linejoin="round"/>
</svg>
