<svg xmlns="http://www.w3.org/2000/svg" viewBox="0 0 320 180" width="320" height="180">
  <rect width="320" height="180" fill="#F4F5F7"/>
  <path d="M 104.53 22.50 L 104.76 23.38 L 104.99 24.24 L 105.21 25.08 L 105.44 25.92 L 105.67 26.74 L 105.89 27.54 L 106.12 28.33 L 106.35 29.11 L 106.58 29.88 L 106.80 30.63 L 107.03 31.37 L 107.26 32.10 L 107.48 32.81 L 107.71 33.52 L 107.94 34.21 L 108.16 34.89 L 108.39 35.56 L 108.62 36.22 L 108.84 36.86 L 109.07 37.50 L 109.30 38.13 L 109.52 38.74 L 109.75 39.35 L 109.98 39.95 L 110.21 40.53 L 110.43 41.11 L 110.66 41.68 L 110.89 42.24 L 111.11 42.79 L 111.34 43.33 L 111.57 43.86 L 111.79 44.38 L 112.02 44.90 L 112.25 45.41 L 112.47 45.91 L 112.70 46.40 L 112.93 46.88 L 113.15 47.36 L 113.38 47.83 L 113.61 48.29 L 113.83 48.74 L 114.06 49.19 L 114.29 49.63 L 114.52 50.06 L 114.74 50.48 L 114.97 50.90 L 115.20 51.32 L 115.42 51.72 L 115.65 52.12 L 115.88 52.52 L 116.10 52.90 L 116.33 53.29 L 116.56 53.66 L 116.78 54.03 L 117.01 54.40 L 117.24 54.76 L 117.46 55.11 L 117.69 55.46 L 117.92 55.80 L 118.15 56.14 L 118.37 56.47 L 118.60 56.80 L 118.83 57.12 L 119.05 57.44 L 119.28 57.75 L 119.51 58.06 L 119.73 58.36 L 119.96 58.66 L 120.19 58.95 L 120.41 59.24 L 120.64 59.53 L 120.87 59.81 L 121.09 60.09 L 121.32 60.36 L 121.55 60.63 L 121.77 60.89 L 122.00 61.15 L 122.23 61.41 L 122.46 61.66 L 122.68 61.91 L 122.91 62.16 L 123.14 62.40 L 123.36 62.64 L 123.59 62.88 L 123.82 63.11 L 124.04 63.34 L 124.27 63.56 L 124.50 63.78 L 124.72 64.00 L 124.95 64.22 L 125.18 64.43 L 125.40 64.64 L 125.63 64.84 L 125.86 65.04 L 126.09 65.24 L 126.31 65.44 L 126.54 65.64 L 126.77 65.83 L 126.99 66.02 L 127.22 66.20 L 127.45 66.38 L 127.67 66.56 L 127.90 66.74 L 128.13 66.92 L 128.35 67.09 L 128.58 67.26 L 128.81 67.43 L 129.03 67.59 L 129.26 67.76 L 129.49 67.92 L 129.71 68.07 L 129.94 68.23 L 130.17 68.38 L 130.40 68.53 L 130.62 68.68 L 130.85 68.83 L 131.08 68.97 L 131.30 69.12 L 131.53 69.26 L 131.76 69.40 L 131.98 69.53 L 132.21 69.67 L 132.44 69.80 L 132.66 69.93 L 132.89 70.06 L 133.12 70.19 L 133.34 70.31 L 133.57 70.43 L 133.80 70.56 L 134.03 70.67 L 134.25 70.79 L 134.48 70.91 L 134.71 71.02 L 134.93 71.14 L 135.16 71.25 L 135.39 71.36 L 135.61 71.46 L 135.84 71.57 L 136.07 71.67 L 136.29 71.78 L 136.52 71.88 L 136.75 71.98 L 136.97 72.08 L 137.20 72.17 L 137.43 72.27 L 137.65 72.36 L 137.88 72.45 L 138.11 72.54 L 138.34 72.63 L 138.56 72.72 L 138.79 72.81 L 139.02 72.89 L 139.24 72.98 L 139.47 73.06 L 139.70 73.14 L 139.92 73.22 L 140.15 73.30 L 140.38 73.38 L 140.60 73.46 L 140.83 73.53 L 141.06 73.61 L 141.28 73.68 L 141.51 73.75 L 141.74 73.82 L 141.96 73.89 L 142.19 73.96 L 142.42 74.02 L 142.65 74.09 L 142.87 74.16 L 143.10 74.22 L 143.33 74.28 L 143.55 74.34 L 143.78 74.40 L 144.01 74.46 L 144.23 74.52 L 144.46 74.58 L 144.69 74.63 L 144.91 74.69 L 145.14 74.74 L 145.37 74.80 L 145.59 74.85 L 145.82 74.90 L 146.05 74.95 L 146.28 75.00 L 146.50 75.05 L 146.73 75.09 L 146.96 75.14 L 147.18 75.19 L 147.41 75.23 L 147.64 75.27 L 147.86 75.32 L 148.09 75.36 L 148.32 75.40 L 148.54 75.44 L 148.77 75.48 L 149.00 75.52 L 149.22 75.55 L 149.45 75.59 L 149.68 75.62 L 149.90 75.66 L 150.13 75.69 L 150.36 75.73 L 150.59 75.76 L 150.81 75.79 L 151.04 75.82 L 151.27 75.85 L 151.49 75.88 L 151.72 75.91 L 151.95 75.93 L 152.17 75.96 L 152.40 75.98 L 152.63 76.01 L 152.85 76.03 L 153.08 76.06 L 153.31 76.08 L 153.53 76.10 L 153.76 76.12 L 153.99 76.14 L 154.22 76.16 L 154.44 76.18 L 154.67 76.20 L 154.90 76.21 L 155.12 76.23 L 155.35 76.25 L 155.58 76.26 L 155.80 76.27 L 156.03 76.29 L 156.26 76.30 L 156.48 76.31 L 156.71 76.32 L 156.94 76.33 L 157.16 76.34 L 157.39 76.35 L 157.62 76.36 L 157.84 76.37 L 158.07 76.37 L 158.30 76.38 L 158.53 76.38 L 158.75 76.39 L 158.98 76.39 L 159.21 76.40 L 159.43 76.40 L 159.66 76.40 L 159.89 76.40 L 160.11 76.40 L 160.34 76.40 L 160.57 76.40 L 160.79 76.40 L 161.02 76.39 L 161.25 76.39 L 161.47 76.38 L 161.70 76.38 L 161.93 76.37 L 162.16 76.37 L 162.38 76.36 L 162.61 76.35 L 162.84 76.34 L 163.06 76.33 L 163.29 76.32 L 163.52 76.31 L 163.74 76.30 L 163.97 76.29 L 164.20 76.27 L 164.42 76.26 L 164.65 76.25 L 164.88 76.23 L 165.10 76.21 L 165.33 76.20 L 165.56 76.18 L 165.78 76.16 L 166.01 76.14 L 166.24 76.12 L 166.47 76.10 L 166.69 76.08 L 166.92 76.06 L 167.15 76.03 L 167.37 76.01 L 167.60 75.98 L 167.83 75.96 L 168.05 75.93 L 168.28 75.91 L 168.51 75.88 L 168.73 75.85 L 168.96 75.82 L 169.19 75.79 L 169.41 75.76 L 169.64 75.73 L 169.87 75.69 L 170.10 75.66 L 170.32 75.62 L 170.55 75.59 L 170.78 75.55 L 171.00 75.52 L 171.23 75.48 L 171.46 75.44 L 171.68 75.40 L 171.91 75.36 L 172.14 75.32 L 172.36 75.27 L 172.59 75.23 L 172.82 75.19 L 173.04 75.14 L 173.27 75.09 L 173.50 75.05 L 173.72 75.00 L 173.95 74.95 L 174.18 74.90 L 174.41 74.85 L 174.63 74.80 L 174.86 74.74 L 175.09 74.69 L 175.31 74.63 L 175.54 74.58 L 175.77 74.52 L 175.99 74.46 L 176.22 74.40 L 176.45 74.34 L 176.67 74.28 L 176.90 74.22 L 177.13 74.16 L 177.35 74.09 L 177.58 74.02 L 177.81 73.96 L 178.04 73.89 L 178.26 73.82 L 178.49 73.75 L 178.72 73.68 L 178.94 73.61 L 179.17 73.53 L 179.40 73.46 L 179.62 73.38 L 179.85 73.30 L 180.08 73.22 L 180.30 73.14 L 180.53 73.06 L 180.76 72.98 L 180.98 72.89 L 181.21 72.81 L 181.44 72.72 L 181.66 72.63 L 181.89 72.54 L 182.12 72.45 L 182.35 72.36 L 182.57 72.27 L 182.80 72.17 L 183.03 72.08 L 183.25 71.98 L 183.48 71.88 L 183.71 71.78 L 183.93 71.67 L 184.16 71.57 L 184.39 71.46 L 184.61 71.36 L 184.84 71.25 L 185.07 71.14 L 185.29 71.02 L 185.52 70.91 L 185.75 70.79 L 185.97 70.67 L 186.20 70.56 L 186.43 70.43 L 186.66 70.31 L 186.88 70.19 L 187.11 70.06 L 187.34 69.93 L 187.56 69.80 L 187.79 69.67 L 188.02 69.53 L 188.24 69.40 L 188.47 69.26 L 188.70 69.12 L 188.92 68.97 L 189.15 68.83 L 189.38 68.68 L 189.60 68.53 L 189.83 68.38 L 190.06 68.23 L 190.29 68.07 L 190.51 67.92 L 190.74 67.76 L 190.97 67.59 L 191.19 67.43 L 191.42 67.26 L 191.65 67.09 L 191.87 66.92 L 192.10 66.74 L 192.33 66.56 L 192.55 66.38 L 192.78 66.20 L 193.01 66.02 L 193.23 65.83 L 193.46 65.64 L 193.69 65.44 L 193.91 65.24 L 194.14 65.04 L 194.37 64.84 L 194.60 64.64 L 194.82 64.43 L 195.05 64.22 L 195.28 64.00 L 195.50 63.78 L 195.73 63.56 L 195.96 63.34 L 196.18 63.11 L 196.41 62.88 L 196.64 62.64 L 196.86 62.40 L 197.09 62.16 L 197.32 61.91 L 197.54 61.66 L 197.77 61.41 L 198.00 61.15 L 198.23 60.89 L 198.45 60.63 L 198.68 60.36 L 198.91 60.09 L 199.13 59.81 L 199.36 59.53 L 199.59 59.24 L 199.81 58.95 L 200.04 58.66 L 200.27 58.36 L 200.49 58.06 L 200.72 57.75 L 200.95 57.44 L 201.17 57.12 L 201.40 56.80 L 201.63 56.47 L 201.85 56.14 L 202.08 55.80 L 202.31 55.46 L 202.54 55.11 L 202.76 54.76 L 202.99 54.40 L 203.22 54.03 L 203.44 53.66 L 203.67 53.29 L 203.90 52.90 L 204.12 52.52 L 204.35 52.12 L 204.58 51.72 L 204.80 51.32 L 205.03 50.90 L 205.26 50.48 L 205.48 50.06 L 205.71 49.63 L 205.94 49.19 L 206.17 48.74 L 206.39 48.29 L 206.62 47.83 L 206.85 47.36 L 207.07 46.88 L 207.30 46.40 L 207.53 45.91 L 207.75 45.41 L 207.98 44.90 L 208.21 44.38 L 208.43 43.86 L 208.66 43.33 L 208.89 42.79 L 209.11 42.24 L 209.34 41.68 L 209.57 41.11 L 209.79 40.53 L 210.02 39.95 L 210.25 39.35 L 210.48 38.74 L 210.70 38.13 L 210.93 37.50 L 211.16 36.86 L 211.38 36.22 L 211.61 35.56 L 211.84 34.89 L 212.06 34.21 L 212.29 33.52 L 212.52 32.81 L 212.74 32.10 L 212.97 31.37 L 213.20 30.63 L 213.42 29.88 L 213.65 29.11 L 213.88 28.33 L 214.11 27.54 L 214.33 26.74 L 214.56 25.92 L 214.79 25.08 L 215.01 24.24 L 215.24 23.38 L 215.47 22.50" fill="none" stroke="#7E8692" stroke-width="2.3" stroke-linecap="round" stroke-linejoin="round"/>
</svg>
