<svg xmlns="http://www.w3.org/2000/svg" viewBox="0 0 320 180" width="320" height="180">
  <rect width="320" height="180" fill="none"/>
  <path d="M 25.21 154.41 L 25.51 154.53 L 25.82 154.65 L 26.12 154.75 L 26.42 154.85 L 26.72 154.95 L 27.03 155.04 L 27.33 155.13 L 27.63 155.22 L 27.93 155.30 L 28.24 155.37 L 28.54 155.44 L 28.84 155.51 L 29.14 155.58 L 29.45 155.64 L 29.75 155.70 L 30.05 155.76 L 30.35 155.81 L 30.66 155.86 L 30.96 155.91 L 31.26 155.96 L 31.56 156.00 L 31.87 156.04 L 32.17 156.08 L 32.47 156.11 L 32.77 156.15 L 33.08 156.18 L 33.38 156.21 L 33.68 156.24 L 33.98 156.26 L 34.29 156.29 L 34.59 156.31 L 34.89 156.33 L 35.19 156.35 L 35.50 156.36 L 35.80 156.38 L 36.10 156.39 L 36.40 156.40 L 36.71 156.41 L 37.01 156.42 L 37.31 156.43 L 37.62 156.43 L 37.92 156.43 L 38.22 156.44 L 38.52 156.44 L 38.83 156.44 L 39.13 156.43 L 39.43 156.43 L 39.73 156.43 L 40.04 156.42 L 40.34 156.41 L 40.64 156.40 L 40.94 156.39 L 41.25 156.38 L 41.55 156.37 L 41.85 156.36 L 42.15 156.34 L 42.46 156.33 L 42.76 156.31 L 43.06 156.29 L 43.36 156.27 L 43.67 156.25 L 43.97 156.23 L 44.27 156.21 L 44.57 156.19 L 44.88 156.16 L 45.18 156.14 L 45.48 156.11 L 45.78 156.08 L 46.09 156.05 L 46.39 156.02 L 46.69 155.99 L 46.99 155.96 L 47.30 155.93 L 47.60 155.90 L 47.90 155.86 L 48.20 155.83 L 48.51 155.79 L 48.81 155.75 L 49.11 155.72 L 49.41 155.68 L 49.72 155.64 L 50.02 155.60 L 50.32 155.56 L 50.63 155.51 L 50.93 155.47 L 51.23 155.43 L 51.53 155.38 L 51.84 155.34 L 52.14 155.29 L 52.44 155.24 L 52.74 155.20 L 53.05 155.15 L 53.35 155.10 L 53.65 155.05 L 53.95 155.00 L 54.26 154.95 L 54.56 154.90 L 54.86 154.84 L 55.16 154.79 L 55.47 154.74 L 55.77 154.68 L 56.07 154.63 L 56.37 154.57 L 56.68 154.51 L 56.98 154.45 L 57.28 154.40 L 57.58 154.34 L 57.89 154.28 L 58.19 154.22 L 58.49 154.16 L 58.79 154.09 L 59.10 154.03 L 59.40 153.97 L 59.70 153.91 L 60.00 153.84 L 60.31 153.78 L 60.61 153.71 L 60.91 153.65 L 61.21 153.58 L 61.52 153.51 L 61.82 153.45 L 62.12 153.38 L 62.42 153.31 L 62.73 153.24 L 63.03 153.17 L 63.33 153.10 L 63.64 153.03 L 63.94 152.95 L 64.24 152.88 L 64.54 152.81 L 64.85 152.74 L 65.15 152.66 L 65.45 152.59 L 65.75 152.51 L 66.06 152.44 L 66.36 152.36 L 66.66 152.28 L 66.96 152.21 L 67.27 152.13 L 67.57 152.05 L 67.87 151.97 L 68.17 151.89 L 68.48 151.81 L 68.78 151.73 L 69.08 151.65 L 69.38 151.57 L 69.69 151.49 L 69.99 151.41 L 70.29 151.32 L 70.59 151.24 L 70.90 151.16 L 71.20 151.07 L 71.50 150.99 L 71.80 150.90 L 72.11 150.82 L 72.41 150.73 L 72.71 150.64 L 73.01 150.56 L 73.32 150.47 L 73.62 150.38 L 73.92 150.29 L 74.22 150.20 L 74.53 150.11 L 74.83 150.03 L 75.13 149.93 L 75.43 149.84 L 75.74 149.75 L 76.04 149.66 L 76.34 149.57 L 76.65 149.48 L 76.95 149.38 L 77.25 149.29 L 77.55 149.20 L 77.86 149.10 L 78.16 149.01 L 78.46 148.91 L 78.76 148.82 L 79.07 148.72 L 79.37 148.63 L 79.67 148.53 L 79.97 148.43 L 80.28 148.33 L 80.58 148.24 L 80.88 148.14 L 81.18 148.04 L 81.49 147.94 L 81.79 147.84 L 82.09 147.74 L 82.39 147.64 L 82.70 147.54 L 83.00 147.44 L 83.30 147.34 L 83.60 147.24 L 83.91 147.13 L 84.21 147.03 L 84.51 146.93 L 84.81 146.83 L 85.12 146.72 L 85.42 146.62 L 85.72 146.51 L 86.02 146.41 L 86.33 146.30 L 86.63 146.20 L 86.93 146.09 L 87.23 145.99 L 87.54 145.88 L 87.84 145.77 L 88.14 145.66 L 88.44 145.56 L 88.75 145.45 L 89.05 145.34 L 89.35 145.23 L 89.66 145.12 L 89.96 145.01 L 90.26 144.90 L 90.56 144.79 L 90.87 144.68 L 91.17 144.57 L 91.47 144.46 L 91.77 144.35 L 92.08 144.24 L 92.38 144.13 L 92.68 144.01 L 92.98 143.90 L 93.29 143.79 L 93.59 143.67 L 93.89 143.56 L 94.19 143.45 L 94.50 143.33 L 94.80 143.22 L 95.10 143.10 L 95.40 142.99 L 95.71 142.87 L 96.01 142.75 L 96.31 142.64 L 96.61 142.52 L 96.92 142.40 L 97.22 142.29 L 97.52 142.17 L 97.82 142.05 L 98.13 141.93 L 98.43 141.81 L 98.73 141.69 L 99.03 141.57 L 99.34 141.46 L 99.64 141.34 L 99.94 141.22 L 100.24 141.09 L 100.55 140.97 L 100.85 140.85 L 101.15 140.73 L 101.45 140.61 L 101.76 140.49 L 102.06 140.37 L 102.36 140.24 L 102.67 140.12 L 102.97 140.00 L 103.27 139.87 L 103.57 139.75 L 103.88 139.63 L 104.18 139.50 L 104.48 139.38 L 104.78 139.25 L 105.09 139.13 L 105.39 139.00 L 105.69 138.88 L 105.99 138.75 L 106.30 138.62 L 106.60 138.50 L 106.90 138.37 L 107.20 138.24 L 107.51 138.12 L 107.81 137.99 L 108.11 137.86 L 108.41 137.73 L 108.72 137.60 L 109.02 137.47 L 109.32 137.35 L 109.62 137.22 L 109.93 137.09 L 110.23 136.96 L 110.53 136.83 L 110.83 136.70 L 111.14 136.57 L 111.44 136.43 L 111.74 136.30 L 112.04 136.17 L 112.35 136.04 L 112.65 135.91 L 112.95 135.78 L 113.25 135.64 L 113.56 135.51 L 113.86 135.38 L 114.16 135.24 L 114.46 135.11 L 114.77 134.98 L 115.07 134.84 L 115.37 134.71 L 115.68 134.57 L 115.98 134.44 L 116.28 134.30 L 116.58 134.17 L 116.89 134.03 L 117.19 133.90 L 117.49 133.76 L 117.79 133.63 L 118.10 133.49 L 118.40 133.35 L 118.70 133.22 L 119.00 133.08 L 119.31 132.94 L 119.61 132.80 L 119.91 132.66 L 120.21 132.53 L 120.52 132.39 L 120.82 132.25 L 121.12 132.11 L 121.42 131.97 L 121.73 131.83 L 122.03 131.69 L 122.33 131.55 L 122.63 131.41 L 122.94 131.27 L 123.24 131.13 L 123.54 130.99 L 123.84 130.85 L 124.15 130.71 L 124.45 130.57 L 124.75 130.42 L 125.05 130.28 L 125.36 130.14 L 125.66 130.00 L 125.96 129.86 L 126.26 129.71 L 126.57 129.57 L 126.87 129.43 L 127.17 129.28 L 127.47 129.14 L 127.78 128.99 L 128.08 128.85 L 128.38 128.71 L 128.69 128.56 L 128.99 128.42 L 129.29 128.27 L 129.59 128.13 L 129.90 127.98 L 130.20 127.83 L 130.50 127.69 L 130.80 127.54 L 131.11 127.40 L 131.41 127.25 L 131.71 127.10 L 132.01 126.95 L 132.32 126.81 L 132.62 126.66 L 132.92 126.51 L 133.22 126.36 L 133.53 126.22 L 133.83 126.07 L 134.13 125.92 L 134.43 125.77 L 134.74 125.62 L 135.04 125.47 L 135.34 125.32 L 135.64 125.17 L 135.95 125.02 L 136.25 124.87 L 136.55 124.72 L 136.85 124.57 L 137.16 124.42 L 137.46 124.27 L 137.76 124.12 L 138.06 123.97 L 138.37 123.82 L 138.67 123.67 L 138.97 123.51 L 139.27 123.36 L 139.58 123.21 L 139.88 123.06 L 140.18 122.90 L 140.48 122.75 L 140.79 122.60 L 141.09 122.44 L 141.39 122.29 L 141.70 122.14 L 142.00 121.98 L 142.30 121.83 L 142.60 121.67 L 142.91 121.52 L 143.21 121.37 L 143.51 121.21 L 143.81 121.06 L 144.12 120.90 L 144.42 120.75 L 144.72 120.59 L 145.02 120.43 L 145.33 120.28 L 145.63 120.12 L 145.93 119.96 L 146.23 119.81 L 146.54 119.65 L 146.84 119.49 L 147.14 119.34 L 147.44 119.18 L 147.75 119.02 L 148.05 118.86 L 148.35 118.71 L 148.65 118.55 L 148.96 118.39 L 149.26 118.23 L 149.56 118.07 L 149.86 117.91 L 150.17 117.76 L 150.47 117.60 L 150.77 117.44 L 151.07 117.28 L 151.38 117.12 L 151.68 116.96 L 151.98 116.80 L 152.28 116.64 L 152.59 116.48 L 152.89 116.32 L 153.19 116.15 L 153.49 115.99 L 153.80 115.83 L 154.10 115.67 L 154.40 115.51 L 154.71 115.35 L 155.01 115.19 L 155.31 115.02 L 155.61 114.86 L 155.92 114.70 L 156.22 114.54 L 156.52 114.37 L 156.82 114.21 L 157.13 114.05 L 157.43 113.88 L 157.73 113.72 L 158.03 113.56 L 158.34 113.39 L 158.64 113.23 L 158.94 113.06 L 159.24 112.90 L 159.55 112.74 L 159.85 112.57 L 160.15 112.41 L 160.45 112.24 L 160.76 112.08 L 161.06 111.91 L 161.36 111.74 L 161.66 111.58 L 161.97 111.41 L 162.27 111.25 L 162.57 111.08 L 162.87 110.91 L 163.18 110.75 L 163.48 110.58 L 163.78 110.41 L 164.08 110.25 L 164.39 110.08 L 164.69 109.91 L 164.99 109.74 L 165.29 109.58 L 165.60 109.41 L 165.90 109.24 L 166.20 109.07 L 166.51 108.90 L 166.81 108.74 L 167.11 108.57 L 167.41 108.40 L 167.72 108.23 L 168.02 108.06 L 168.32 107.89 L 168.62 107.72 L 168.93 107.55 L 169.23 107.38 L 169.53 107.21 L 169.83 107.04 L 170.14 106.87 L 170.44 106.70 L 170.74 106.53 L 171.04 106.36 L 171.35 106.19 L 171.65 106.02 L 171.95 105.84 L 172.25 105.67 L 172.56 105.50 L 172.86 105.33 L 173.16 105.16 L 173.46 104.99 L 173.77 104.81 L 174.07 104.64 L 174.37 104.47 L 174.67 104.30 L 174.98 104.12 L 175.28 103.95 L 175.58 103.78 L 175.88 103.60 L 176.19 103.43 L 176.49 103.26 L 176.79 103.08 L 177.09 102.91 L 177.40 102.73 L 177.70 102.56 L 178.00 102.39 L 178.30 102.21 L 178.61 102.04 L 178.91 101.86 L 179.21 101.69 L 179.52 101.51 L 179.82 101.34 L 180.12 101.16 L 180.42 100.98 L 180.73 100.81 L 181.03 100.63 L 181.33 100.46 L 181.63 100.28 L 181.94 100.10 L 182.24 99.93 L 182.54 99.75 L 182.84 99.57 L 183.15 99.40 L 183.45 99.22 L 183.75 99.04 L 184.05 98.87 L 184.36 98.69 L 184.66 98.51 L 184.96 98.33 L 185.26 98.15 L 185.57 97.98 L 185.87 97.80 L 186.17 97.62 L 186.47 97.44 L 186.78 97.26 L 187.08 97.08 L 187.38 96.91 L 187.68 96.73 L 187.99 96.55 L 188.29 96.37 L 188.59 96.19 L 188.89 96.01 L 189.20 95.83 L 189.50 95.65 L 189.80 95.47 L 190.10 95.29 L 190.41 95.11 L 190.71 94.93 L 191.01 94.75 L 191.31 94.57 L 191.62 94.38 L 191.92 94.20 L 192.22 94.02 L 192.53 93.84 L 192.83 93.66 L 193.13 93.48 L 193.43 93.30 L 193.74 93.11 L 194.04 92.93 L 194.34 92.75 L 194.64 92.57 L 194.95 92.38 L 195.25 92.20 L 195.55 92.02 L 195.85 91.84 L 196.16 91.65 L 196.46 91.47 L 196.76 91.29 L 197.06 91.10 L 197.37 90.92 L 197.67 90.74 L 197.97 90.55 L 198.27 90.37 L 198.58 90.18 L 198.88 90.00 L 199.18 89.82 L 199.48 89.63 L 199.79 89.45 L 200.09 89.26 L 200.39 89.08 L 200.69 88.89 L 201.00 88.71 L 201.30 88.52 L 201.60 88.34 L 201.90 88.15 L 202.21 87.96 L 202.51 87.78 L 202.81 87.59 L 203.11 87.41 L 203.42 87.22 L 203.72 87.03 L 204.02 86.85 L 204.32 86.66 L 204.63 86.47 L 204.93 86.29 L 205.23 86.10 L 205.54 85.91 L 205.84 85.73 L 206.14 85.54 L 206.44 85.35 L 206.75 85.16 L 207.05 84.98 L 207.35 84.79 L 207.65 84.60 L 207.96 84.41 L 208.26 84.22 L 208.56 84.04 L 208.86 83.85 L 209.17 83.66 L 209.47 83.47 L 209.77 83.28 L 210.07 83.09 L 210.38 82.90 L 210.68 82.71 L 210.98 82.52 L 211.28 82.33 L 211.59 82.14 L 211.89 81.95 L 212.19 81.76 L 212.49 81.57 L 212.80 81.38 L 213.10 81.19 L 213.40 81.00 L 213.70 80.81 L 214.01 80.62 L 214.31 80.43 L 214.61 80.24 L 214.91 80.05 L 215.22 79.86 L 215.52 79.67 L 215.82 79.48 L 216.12 79.28 L 216.43 79.09 L 216.73 78.90 L 217.03 78.71 L 217.33 78.52 L 217.64 78.33 L 217.94 78.13 L 218.24 77.94 L 218.55 77.75 L 218.85 77.56 L 219.15 77.36 L 219.45 77.17 L 219.76 76.98 L 220.06 76.78 L 220.36 76.59 L 220.66 76.40 L 220.97 76.20 L 221.27 76.01 L 221.57 75.82 L 221.87 75.62 L 222.18 75.43 L 222.48 75.24 L 222.78 75.04 L 223.08 74.85 L 223.39 74.65 L 223.69 74.46 L 223.99 74.26 L 224.29 74.07 L 224.60 73.87 L 224.90 73.68 L 225.20 73.48 L 225.50 73.29 L 225.81 73.09 L 226.11 72.90 L 226.41 72.70 L 226.71 72.51 L 227.02 72.31 L 227.32 72.11 L 227.62 71.92 L 227.92 71.72 L 228.23 71.53 L 228.53 71.33 L 228.83 71.13 L 229.13 70.94 L 229.44 70.74 L 229.74 70.54 L 230.04 70.35 L 230.34 70.15 L 230.65 69.95 L 230.95 69.76 L 231.25 69.56 L 231.56 69.36 L 231.86 69.16 L 232.16 68.96 L 232.46 68.77 L 232.77 68.57 L 233.07 68.37 L 233.37 68.17 L 233.67 67.97 L 233.98 67.78 L 234.28 67.58 L 234.58 67.38 L 234.88 67.18 L 235.19 66.98 L 235.49 66.78 L 235.79 66.58 L 236.09 66.38 L 236.40 66.18 L 236.70 65.99 L 237.00 65.79 L 237.30 65.59 L 237.61 65.39 L 237.91 65.19 L 238.21 64.99 L 238.51 64.79 L 238.82 64.59 L 239.12 64.39 L 239.42 64.19 L 239.72 63.99 L 240.03 63.79 L 240.33 63.58 L 240.63 63.38 L 240.93 63.18 L 241.24 62.98 L 241.54 62.78 L 241.84 62.58 L 242.14 62.38 L 242.45 62.18 L 242.75 61.97 L 243.05 61.77 L 243.35 61.57 L 243.66 61.37 L 243.96 61.17 L 244.26 60.97 L 244.57 60.76 L 244.87 60.56 L 245.17 60.36 L 245.47 60.16 L 245.78 59.95 L 246.08 59.75 L 246.38 59.55 L 246.68 59.34 L 246.99 59.14 L 247.29 58.94 L 247.59 58.74 L 247.89 58.53 L 248.20 58.33 L 248.50 58.12 L 248.80 57.92 L 249.10 57.72 L 249.41 57.51 L 249.71 57.31 L 250.01 57.11 L 250.31 56.90 L 250.62 56.70 L 250.92 56.49 L 251.22 56.29 L 251.52 56.08 L 251.83 55.88 L 252.13 55.67 L 252.43 55.47 L 252.73 55.26 L 253.04 55.06 L 253.34 54.85 L 253.64 54.65 L 253.94 54.44 L 254.25 54.24 L 254.55 54.03 L 254.85 53.83 L 255.15 53.62 L 255.46 53.41 L 255.76 53.21 L 256.06 53.00 L 256.36 52.80 L 256.67 52.59 L 256.97 52.38 L 257.27 52.18 L 257.58 51.97 L 257.88 51.76 L 258.18 51.56 L 258.48 51.35 L 258.79 51.14 L 259.09 50.93 L 259.39 50.73 L 259.69 50.52 L 260.00 50.31 L 260.30 50.11 L 260.60 49.90 L 260.90 49.69 L 261.21 49.48 L 261.51 49.27 L 261.81 49.07 L 262.11 48.86 L 262.42 48.65 L 262.72 48.44 L 263.02 48.23 L 263.32 48.02 L 263.63 47.82 L 263.93 47.61 L 264.23 47.40 L 264.53 47.19 L 264.84 46.98 L 265.14 46.77 L 265.44 46.56 L 265.74 46.35 L 266.05 46.14 L 266.35 45.93 L 266.65 45.72 L 266.95 45.51 L 267.26 45.30 L 267.56 45.09 L 267.86 44.88 L 268.16 44.67 L 268.47 44.46 L 268.77 44.25 L 269.07 44.04 L 269.37 43.83 L 269.68 43.62 L 269.98 43.41 L 270.28 43.20 L 270.59 42.99 L 270.89 42.78 L 271.19 42.57 L 271.49 42.36 L 271.80 42.15 L 272.10 41.93 L 272.40 41.72 L 272.70 41.51 L 273.01 41.30 L 273.31 41.09 L 273.61 40.88 L 273.91 40.66 L 274.22 40.45 L 274.52 40.24 L 274.82 40.03 L 275.12 39.82 L 275.43 39.60 L 275.73 39.39 L 276.03 39.18 L 276.33 38.97 L 276.64 38.75 L 276.94 38.54 L 277.24 38.33 L 277.54 38.11 L 277.85 37.90 L 278.15 37.69 L 278.45 37.48 L 278.75 37.26 L 279.06 37.05 L 279.36 36.83 L 279.66 36.62 L 279.96 36.41 L 280.27 36.19 L 280.57 35.98 L 280.87 35.77 L 281.17 35.55 L 281.48 35.34 L 281.78 35.12 L 282.08 34.91 L 282.38 34.69 L 282.69 34.48 L 282.99 34.26 L 283.29 34.05 L 283.60 33.84 L 283.90 33.62 L 284.20 33.41 L 284.50 33.19 L 284.81 32.97 L 285.11 32.76 L 285.41 32.54 L 285.71 32.33 L 286.02 32.11 L 286.32 31.90 L 286.62 31.68 L 286.92 31.47 L 287.23 31.25 L 287.53 31.03 L 287.83 30.82 L 288.13 30.60 L 288.44 30.39 L 288.74 30.17 L 289.04 29.95 L 289.34 29.74 L 289.65 29.52 L 289.95 29.30 L 290.25 29.09 L 290.55 28.87 L 290.86 28.65 L 291.16 28.44 L 291.46 28.22 L 291.76 28.00 L 292.07 27.78 L 292.37 27.57 L 292.67 27.35 L 292.97 27.13 L 293.28 26.91 L 293.58 26.70 L 293.88 26.48 L 294.18 26.26 L 294.49 26.04 L 294.79 25.82 L 295.09 25.61 L 295.39 25.39 L 295.70 25.17 L 296.00 24.95" fill="none" stroke="#5F6B7A" stroke-width="2.5" stroke-linecap="round" stroke-linejoin="round"/>
</svg>
