<svg xmlns="http://www.w3.org/2000/svg" viewBox="0 0 320 180" width="320" height="180">
  <rect width="320" height="180" fill="none"/>
  <path d="M 27.33 153.75 L 27.63 153.75 L 27.93 153.75 L 28.24 153.75 L 28.54 153.75 L 28.84 153.75 L 29.14 153.75 L 29.45 153.75 L 29.75 153.75 L 30.05 153.75 L 30.35 153.75 L 30.66 153.75 L 30.96 153.75 L 31.26 153.75 L 31.56 153.75 L 31.87 153.75 L 32.17 153.75 L 32.47 153.75 L 32.77 153.75 L 33.08 153.75 L 33.38 153.75 L 33.68 153.75 L 33.98 153.75 L 34.29 153.75 L 34.59 153.75 L 34.89 153.75 L 35.19 153.75 L 35.50 153.75 L 35.80 153.75 L 36.10 153.75 L 36.40 153.75 L 36.71 153.75 L 37.01 153.75 L 37.31 153.75 L 37.62 153.75 L 37.92 153.75 L 38.22 153.75 L 38.52 153.75 L 38.83 153.75 L 39.13 153.75 L 39.43 153.75 L 39.73 153.75 L 40.04 153.75 L 40.34 153.75 L 40.64 153.75 L 40.94 153.75 L 41.25 153.75 L 41.55 153.75 L 41.85 153.75 L 42.15 153.75 L 42.46 153.75 L 42.76 153.75 L 43.06 153.75 L 43.36 153.75 L 43.67 153.75 L 43.97 153.75 L 44.27 153.75 L 44.57 153.75 L 44.88 153.75 L 45.18 153.75 L 45.48 153.75 L 45.78 153.75 L 46.09 153.75 L 46.39 153.75 L 46.69 153.75 L 46.99 153.75 L 47.30 153.75 L 47.60 153.75 L 47.90 153.75 L 48.20 153.75 L 48.51 153.75 L 48.81 153.75 L 49.11 153.75 L 49.41 153.75 L 49.72 153.75 L 50.02 153.75 L 50.32 153.75 L 50.63 153.75 L 50.93 153.75 L 51.23 153.75 L 51.53 153.75 L 51.84 153.75 L 52.14 153.75 L 52.44 153.75 L 52.74 153.75 L 53.05 153.75 L 53.35 153.75 L 53.65 153.75 L 53.95 153.75 L 54.26 153.75 L 54.56 153.75 L 54.86 153.75 L 55.16 153.75 L 55.47 153.75 L 55.77 153.75 L 56.07 153.75 L 56.37 153.75 L 56.68 153.75 L 56.98 153.75 L 57.28 153.75 L 57.58 153.75 L 57.89 153.75 L 58.19 153.75 L 58.49 153.75 L 58.79 153.75 L 59.10 153.75 L 59.40 153.75 L 59.70 153.75 L 60.00 153.75 L 60.31 153.75 L 60.61 153.75 L 60.91 153.75 L 61.21 153.75 L 61.52 153.75 L 61.82 153.75 L 62.12 153.75 L 62.42 153.75 L 62.73 153.75 L 63.03 153.75 L 63.33 153.75 L 63.64 153.75 L 63.94 153.75 L 64.24 153.75 L 64.54 153.75 L 64.85 153.75 L 65.15 153.75 L 65.45 153.75 L 65.75 153.75 L 66.06 153.75" fill="none" stroke="#5F6B7A" stroke-width="2.5" stroke-linecap="round" stroke-linejoin="round"/>
  <path d="M 72.71 132.50 L 73.01 132.50 L 73.32 132.50 L 73.62 132.50 L 73.92 132.50 L 74.22 132.50 L 74.53 132.50 L 74.83 132.50 L 75.13 132.50 L 75.43 132.50 L 75.74 132.50 L 76.04 132.50 L 76.34 132.50 L 76.65 132.50 L 76.95 132.50 L 77.25 132.50 L 77.55 132.50 L 77.86 132.50 L 78.16 132.50 L 78.46 132.50 L 78.76 132.50 L 79.07 132.50 L 79.37 132.50 L 79.67 132.50 L 79.97 132.50 L 80.28 132.50 L 80.58 132.50 L 80.88 132.50 L 81.18 132.50 L 81.49 132.50 L 81.79 132.50 L 82.09 132.50 L 82.39 132.50 L 82.70 132.50 L 83.00 132.50 L 83.30 132.50 L 83.60 132.50 L 83.91 132.50 L 84.21 132.50 L 84.51 132.50 L 84.81 132.50 L 85.12 132.50 L 85.42 132.50 L 85.72 132.50 L 86.02 132.50 L 86.33 132.50 L 86.63 132.50 L 86.93 132.50 L 87.23 132.50 L 87.54 132.50 L 87.84 132.50 L 88.14 132.50 L 88.44 132.50 L 88.75 132.50 L 89.05 132.50 L 89.35 132.50 L 89.66 132.50 L 89.96 132.50 L 90.26 132.50 L 90.56 132.50 L 90.87 132.50 L 91.17 132.50 L 91.47 132.50 L 91.77 132.50 L 92.08 132.50 L 92.38 132.50 L 92.68 132.50 L 92.98 132.50 L 93.29 132.50 L 93.59 132.50 L 93.89 132.50 L 94.19 132.50 L 94.50 132.50 L 94.80 132.50 L 95.10 132.50 L 95.40 132.50 L 95.71 132.50 L 96.01 132.50 L 96.31 132.50 L 96.61 132.50 L 96.92 132.50 L 97.22 132.50 L 97.52 132.50 L 97.82 132.50 L 98.13 132.50 L 98.43 132.50 L 98.73 132.50 L 99.03 132.50 L 99.34 132.50 L 99.64 132.50 L 99.94 132.50 L 100.24 132.50 L 100.55 132.50 L 100.85 132.50 L 101.15 132.50 L 101.45 132.50 L 101.76 132.50 L 102.06 132.50 L 102.36 132.50 L 102.67 132.50 L 102.97 132.50 L 103.27 132.50 L 103.57 132.50 L 103.88 132.50 L 104.18 132.50 L 104.48 132.50 L 104.78 132.50 L 105.09 132.50 L 105.39 132.50 L 105.69 132.50 L 105.99 132.50 L 106.30 132.50 L 106.60 132.50 L 106.90 132.50 L 107.20 132.50 L 107.51 132.50 L 107.81 132.50 L 108.11 132.50 L 108.41 132.50 L 108.72 132.50 L 109.02 132.50 L 109.32 132.50 L 109.62 132.50 L 109.93 132.50 L 110.23 132.50 L 110.53 132.50 L 110.83 132.50 L 111.14 132.50" fill="none" stroke="#5F6B7A" stroke-width="2.5" stroke-linecap="round" stroke-linejoin="round"/>
  <path d="M 118.10 111.25 L 118.40 111.25 L 118.70 111.25 L 119.00 111.25 L 119.31 111.25 L 119.61 111.25 L 119.91 111.25 L 120.21 111.25 L 120.52 111.25 L 120.82 111.25 L 121.12 111.25 L 121.42 111.25 L 121.73 111.25 L 122.03 111.25 L 122.33 111.25 L 122.63 111.25 L 122.94 111.25 L 123.24 111.25 L 123.54 111.25 L 123.84 111.25 L 124.15 111.25 L 124.45 111.25 L 124.75 111.25 L 125.05 111.25 L 125.36 111.25 L 125.66 111.25 L 125.96 111.25 L 126.26 111.25 L 126.57 111.25 L 126.87 111.25 L 127.17 111.25 L 127.47 111.25 L 127.78 111.25 L 128.08 111.25 L 128.38 111.25 L 128.69 111.25 L 128.99 111.25 L 129.29 111.25 L 129.59 111.25 L 129.90 111.25 L 130.20 111.25 L 130.50 111.25 L 130.80 111.25 L 131.11 111.25 L 131.41 111.25 L 131.71 111.25 L 132.01 111.25 L 132.32 111.25 L 132.62 111.25 L 132.92 111.25 L 133.22 111.25 L 133.53 111.25 L 133.83 111.25 L 134.13 111.25 L 134.43 111.25 L 134.74 111.25 L 135.04 111.25 L 135.34 111.25 L 135.64 111.25 L 135.95 111.25 L 136.25 111.25 L 136.55 111.25 L 136.85 111.25 L 137.16 111.25 L 137.46 111.25 L 137.76 111.25 L 138.06 111.25 L 138.37 111.25 L 138.67 111.25 L 138.97 111.25 L 139.27 111.25 L 139.58 111.25 L 139.88 111.25 L 140.18 111.25 L 140.48 111.25 L 140.79 111.25 L 141.09 111.25 L 141.39 111.25 L 141.70 111.25 L 142.00 111.25 L 142.30 111.25 L 142.60 111.25 L 142.91 111.25 L 143.21 111.25 L 143.51 111.25 L 143.81 111.25 L 144.12 111.25 L 144.42 111.25 L 144.72 111.25 L 145.02 111.25 L 145.33 111.25 L 145.63 111.25 L 145.93 111.25 L 146.23 111.25 L 146.54 111.25 L 146.84 111.25 L 147.14 111.25 L 147.44 111.25 L 147.75 111.25 L 148.05 111.25 L 148.35 111.25 L 148.65 111.25 L 148.96 111.25 L 149.26 111.25 L 149.56 111.25 L 149.86 111.25 L 150.17 111.25 L 150.47 111.25 L 150.77 111.25 L 151.07 111.25 L 151.38 111.25 L 151.68 111.25 L 151.98 111.25 L 152.28 111.25 L 152.59 111.25 L 152.89 111.25 L 153.19 111.25 L 153.49 111.25 L 153.80 111.25 L 154.10 111.25 L 154.40 111.25 L 154.71 111.25 L 155.01 111.25 L 155.31 111.25 L 155.61 111.25 L 155.92 111.25 L 156.22 111.25 L 156.52 111.25" fill="none" stroke="#5F6B7A" stroke-width="2.5" stroke-linecap="round" stroke-linejoin="round"/>
  <path d="M 163.48 90.00 L 163.78 90.00 L 164.08 90.00 L 164.39 90.00 L 164.69 90.00 L 164.99 90.00 L 165.29 90.00 L 165.60 90.00 L 165.90 90.00 L 166.20 90.00 L 166.51 90.00 L 166.81 90.00 L 167.11 90.00 L 167.41 90.00 L 167.72 90.00 L 168.02 90.00 L 168.32 90.00 L 168.62 90.00 L 168.93 90.00 L 169.23 90.00 L 169.53 90.00 L 169.83 90.00 L 170.14 90.00 L 170.44 90.00 L 170.74 90.00 L 171.04 90.00 L 171.35 90.00 L 171.65 90.00 L 171.95 90.00 L 172.25 90.00 L 172.56 90.00 L 172.86 90.00 L 173.16 90.00 L 173.46 90.00 L 173.77 90.00 L 174.07 90.00 L 174.37 90.00 L 174.67 90.00 L 174.98 90.00 L 175.28 90.00 L 175.58 90.00 L 175.88 90.00 L 176.19 90.00 L 176.49 90.00 L 176.79 90.00 L 177.09 90.00 L 177.40 90.00 L 177.70 90.00 L 178.00 90.00 L 178.30 90.00 L 178.61 90.00 L 178.91 90.00 L 179.21 90.00 L 179.52 90.00 L 179.82 90.00 L 180.12 90.00 L 180.42 90.00 L 180.73 90.00 L 181.03 90.00 L 181.33 90.00 L 181.63 90.00 L 181.94 90.00 L 182.24 90.00 L 182.54 90.00 L 182.84 90.00 L 183.15 90.00 L 183.45 90.00 L 183.75 90.00 L 184.05 90.00 L 184.36 90.00 L 184.66 90.00 L 184.96 90.00 L 185.26 90.00 L 185.57 90.00 L 185.87 90.00 L 186.17 90.00 L 186.47 90.00 L 186.78 90.00 L 187.08 90.00 L 187.38 90.00 L 187.68 90.00 L 187.99 90.00 L 188.29 90.00 L 188.59 90.00 L 188.89 90.00 L 189.20 90.00 L 189.50 90.00 L 189.80 90.00 L 190.10 90.00 L 190.41 90.00 L 190.71 90.00 L 191.01 90.00 L 191.31 90.00 L 191.62 90.00 L 191.92 90.00 L 192.22 90.00 L 192.53 90.00 L 192.83 90.00 L 193.13 90.00 L 193.43 90.00 L 193.74 90.00 L 194.04 90.00 L 194.34 90.00 L 194.64 90.00 L 194.95 90.00 L 195.25 90.00 L 195.55 90.00 L 195.85 90.00 L 196.16 90.00 L 196.46 90.00 L 196.76 90.00 L 197.06 90.00 L 197.37 90.00 L 197.67 90.00 L 197.97 90.00 L 198.27 90.00 L 198.58 90.00 L 198.88 90.00 L 199.18 90.00 L 199.48 90.00 L 199.79 90.00 L 200.09 90.00 L 200.39 90.00 L 200.69 90.00 L 201.00 90.00 L 201.30 90.00 L 201.60 90.00 L 201.90 90.00" fill="none" stroke="#5F6B7A" stroke-width="2.5" stroke-linecap="round" stroke-linejoin="round"/>
  <path d="M 208.86 68.75 L 209.17 68.75 L 209.47 68.75 L 209.77 68.75 L 210.07 68.75 L 210.38 68.75 L 210.68 68.75 L 210.98 68.75 L 211.28 68.75 L 211.59 68.75 L 211.89 68.75 L 212.19 68.75 L 212.49 68.75 L 212.80 68.75 L 213.10 68.75 L 213.40 68.75 L 213.70 68.75 L 214.01 68.75 L 214.31 68.75 L 214.61 68.75 L 214.91 68.75 L 215.22 68.75 L 215.52 68.75 L 215.82 68.75 L 216.12 68.75 L 216.43 68.75 L 216.73 68.75 L 217.03 68.75 L 217.33 68.75 L 217.64 68.75 L 217.94 68.75 L 218.24 68.75 L 218.55 68.75 L 218.85 68.75 L 219.15 68.75 L 219.45 68.75 L 219.76 68.75 L 220.06 68.75 L 220.36 68.75 L 220.66 68.75 L 220.97 68.75 L 221.27 68.75 L 221.57 68.75 L 221.87 68.75 L 222.18 68.75 L 222.48 68.75 L 222.78 68.75 L 223.08 68.75 L 223.39 68.75 L 223.69 68.75 L 223.99 68.75 L 224.29 68.75 L 224.60 68.75 L 224.90 68.75 L 225.20 68.75 L 225.50 68.75 L 225.81 68.75 L 226.11 68.75 L 226.41 68.75 L 226.71 68.75 L 227.02 68.75 L 227.32 68.75 L 227.62 68.75 L 227.92 68.75 L 228.23 68.75 L 228.53 68.75 L 228.83 68.75 L 229.13 68.75 L 229.44 68.75 L 229.74 68.75 L 230.04 68.75 L 230.34 68.75 L 230.65 68.75 L 230.95 68.75 L 231.25 68.75 L 231.56 68.75 L 231.86 68.75 L 232.16 68.75 L 232.46 68.75 L 232.77 68.75 L 233.07 68.75 L 233.37 68.75 L 233.67 68.75 L 233.98 68.75 L 234.28 68.75 L 234.58 68.75 L 234.88 68.75 L 235.19 68.75 L 235.49 68.75 L 235.79 68.75 L 236.09 68.75 L 236.40 68.75 L 236.70 68.75 L 237.00 68.75 L 237.30 68.75 L 237.61 68.75 L 237.91 68.75 L 238.21 68.75 L 238.51 68.75 L 238.82 68.75 L 239.12 68.75 L 239.42 68.75 L 239.72 68.75 L 240.03 68.75 L 240.33 68.75 L 240.63 68.75 L 240.93 68.75 L 241.24 68.75 L 241.54 68.75 L 241.84 68.75 L 242.14 68.75 L 242.45 68.75 L 242.75 68.75 L 243.05 68.75 L 243.35 68.75 L 243.66 68.75 L 243.96 68.75 L 244.26 68.75 L 244.57 68.75 L 244.87 68.75 L 245.17 68.75 L 245.47 68.75 L 245.78 68.75 L 246.08 68.75 L 246.38 68.75 L 246.68 68.75 L 246.99 68.75 L 247.29 68.75" fill="none" stroke="#5F6B7A" stroke-width="2.5" stroke-linecap="round" stroke-linejoin="round"/>
  <path d="M 253.94 47.50 L 254.25 47.50 L 254.55 47.50 L 254.85 47.50 L 255.15 47.50 L 255.46 47.50 L 255.76 47.50 L 256.06 47.50 L 256.36 47.50 L 256.67 47.50 L 256.97 47.50 L 257.27 47.50 L 257.58 47.50 L 257.88 47.50 L 258.18 47.50 L 258.48 47.50 L 258.79 47.50 L 259.09 47.50 L 259.39 47.50 L 259.69 47.50 L 260.00 47.50 L 260.30 47.50 L 260.60 47.50 L 260.90 47.50 L 261.21 47.50 L 261.51 47.50 L 261.81 47.50 L 262.11 47.50 L 262.42 47.50 L 262.72 47.50 L 263.02 47.50 L 263.32 47.50 L 263.63 47.50 L 263.93 47.50 L 264.23 47.50 L 264.53 47.50 L 264.84 47.50 L 265.14 47.50 L 265.44 47.50 L 265.74 47.50 L 266.05 47.50 L 266.35 47.50 L 266.65 47.50 L 266.95 47.50 L 267.26 47.50 L 267.56 47.50 L 267.86 47.50 L 268.16 47.50 L 268.47 47.50 L 268.77 47.50 L 269.07 47.50 L 269.37 47.50 L 269.68 47.50 L 269.98 47.50 L 270.28 47.50 L 270.59 47.50 L 270.89 47.50 L 271.19 47.50 L 271.49 47.50 L 271.80 47.50 L 272.10 47.50 L 272.40 47.50 L 272.70 47.50 L 273.01 47.50 L 273.31 47.50 L 273.61 47.50 L 273.91 47.50 L 274.22 47.50 L 274.52 47.50 L 274.82 47.50 L 275.12 47.50 L 275.43 47.50 L 275.73 47.50 L 276.03 47.50 L 276.33 47.50 L 276.64 47.50 L 276.94 47.50 L 277.24 47.50 L 277.54 47.50 L 277.85 47.50 L 278.15 47.50 L 278.45 47.50 L 278.75 47.50 L 279.06 47.50 L 279.36 47.50 L 279.66 47.50 L 279.96 47.50 L 280.27 47.50 L 280.57 47.50 L 280.87 47.50 L 281.17 47.50 L 281.48 47.50 L 281.78 47.50 L 282.08 47.50 L 282.38 47.50 L 282.69 47.50 L 282.99 47.50 L 283.29 47.50 L 283.60 47.50 L 283.90 47.50 L 284.20 47.50 L 284.50 47.50 L 284.81 47.50 L 285.11 47.50 L 285.41 47.50 L 285.71 47.50 L 286.02 47.50 L 286.32 47.50 L 286.62 47.50 L 286.92 47.50 L 287.23 47.50 L 287.53 47.50 L 287.83 47.50 L 288.13 47.50 L 288.44 47.50 L 288.74 47.50 L 289.04 47.50 L 289.34 47.50 L 289.65 47.50 L 289.95 47.50 L 290.25 47.50 L 290.55 47.50 L 290.86 47.50 L 291.16 47.50 L 291.46 47.50 L 291.76 47.50 L 292.07 47.50 L 292.37 47.50 L 292.67 47.50" fill="none" stroke="#5F6B7A" stroke-width="2.5" stroke-linecap="round" stroke-linejoin="round"/>
</svg>
