<svg xmlns="http://www.w3.org/2000/svg" viewBox="0 0 320 180" width="320" height="180">
  <rect width="320" height="180" fill="#F4F5F7"/>
  <path d="M 19.26 150.11 L 19.58 147.82 L 19.90 145.69 L 20.21 143.72 L 20.53 141.88 L 20.84 140.16 L 21.16 138.53 L 21.47 137.00 L 21.79 135.54 L 22.11 134.16 L 22.42 132.85 L 22.74 131.59 L 23.05 130.39 L 23.37 129.24 L 23.69 128.13 L 24.00 127.07 L 24.32 126.05 L 24.63 125.06 L 24.95 124.11 L 25.27 123.19 L 25.58 122.29 L 25.90 121.43 L 26.21 120.59 L 26.53 119.78 L 26.85 118.99 L 27.16 118.22 L 27.48 117.47 L 27.79 116.75 L 28.11 116.04 L 28.42 115.35 L 28.74 114.67 L 29.06 114.01 L 29.37 113.37 L 29.69 112.74 L 30.00 112.13 L 30.32 111.52 L 30.64 110.94 L 30.95 110.36 L 31.27 109.79 L 31.58 109.24 L 31.90 108.70 L 32.22 108.17 L 32.53 107.65 L 32.85 107.13 L 33.16 106.63 L 33.48 106.14 L 33.80 105.65 L 34.11 105.17 L 34.43 104.70 L 34.74 104.24 L 35.06 103.79 L 35.37 103.34 L 35.69 102.90 L 36.01 102.47 L 36.32 102.05 L 36.64 101.63 L 36.95 101.21 L 37.27 100.81 L 37.59 100.41 L 37.90 100.01 L 38.22 99.62 L 38.53 99.24 L 38.85 98.86 L 39.17 98.48 L 39.48 98.11 L 39.80 97.75 L 40.11 97.39 L 40.43 97.04 L 40.75 96.69 L 41.06 96.34 L 41.38 96.00 L 41.69 95.66 L 42.01 95.33 L 42.32 95.00 L 42.64 94.67 L 42.96 94.35 L 43.27 94.03 L 43.59 93.72 L 43.90 93.41 L 44.22 93.10 L 44.54 92.80 L 44.85 92.49 L 45.17 92.20 L 45.48 91.90 L 45.80 91.61 L 46.12 91.32 L 46.43 91.04 L 46.75 90.76 L 47.06 90.48 L 47.38 90.20 L 47.70 89.93 L 48.01 89.65 L 48.33 89.39 L 48.64 89.12 L 48.96 88.86 L 49.27 88.59 L 49.59 88.34 L 49.91 88.08 L 50.22 87.83 L 50.54 87.57 L 50.85 87.32 L 51.17 87.08 L 51.49 86.83 L 51.80 86.59 L 52.12 86.35 L 52.43 86.11 L 52.75 85.87 L 53.07 85.64 L 53.38 85.41 L 53.70 85.18 L 54.01 84.95 L 54.33 84.72 L 54.65 84.50 L 54.96 84.27 L 55.28 84.05 L 55.59 83.83 L 55.91 83.61 L 56.22 83.40 L 56.54 83.18 L 56.86 82.97 L 57.17 82.76 L 57.49 82.55 L 57.80 82.34 L 58.12 82.13 L 58.44 81.93 L 58.75 81.72 L 59.07 81.52 L 59.38 81.32 L 59.70 81.12 L 60.02 80.93 L 60.33 80.73 L 60.65 80.53 L 60.96 80.34 L 61.28 80.15 L 61.60 79.96 L 61.91 79.77 L 62.23 79.58 L 62.54 79.39 L 62.86 79.21 L 63.17 79.02 L 63.49 78.84 L 63.81 78.66 L 64.12 78.48 L 64.44 78.30 L 64.75 78.12 L 65.07 77.94 L 65.39 77.76 L 65.70 77.59 L 66.02 77.41 L 66.33 77.24 L 66.65 77.07 L 66.97 76.90 L 67.28 76.73 L 67.60 76.56 L 67.91 76.39 L 68.23 76.22 L 68.55 76.06 L 68.86 75.89 L 69.18 75.73 L 69.49 75.57 L 69.81 75.41 L 70.12 75.24 L 70.44 75.08 L 70.76 74.93 L 71.07 74.77 L 71.39 74.61 L 71.70 74.45 L 72.02 74.30 L 72.34 74.14 L 72.65 73.99 L 72.97 73.84 L 73.28 73.68 L 73.60 73.53 L 73.92 73.38 L 74.23 73.23 L 74.55 73.08 L 74.86 72.94 L 75.18 72.79 L 75.49 72.64 L 75.81 72.50 L 76.13 72.35 L 76.44 72.21 L 76.76 72.06 L 77.07 71.92 L 77.39 71.78 L 77.71 71.64 L 78.02 71.50 L 78.34 71.36 L 78.65 71.22 L 78.97 71.08 L 79.29 70.94 L 79.60 70.81 L 79.92 70.67 L 80.23 70.53 L 80.55 70.40 L 80.87 70.26 L 81.18 70.13 L 81.50 70.00 L 81.81 69.87 L 82.13 69.73 L 82.44 69.60 L 82.76 69.47 L 83.08 69.34 L 83.39 69.21 L 83.71 69.08 L 84.02 68.96 L 84.34 68.83 L 84.66 68.70 L 84.97 68.57 L 85.29 68.45 L 85.60 68.32 L 85.92 68.20 L 86.24 68.07 L 86.55 67.95 L 86.87 67.83 L 87.18 67.71 L 87.50 67.58 L 87.82 67.46 L 88.13 67.34 L 88.45 67.22 L 88.76 67.10 L 89.08 66.98 L 89.39 66.86 L 89.71 66.74 L 90.03 66.63 L 90.34 66.51 L 90.66 66.39 L 90.97 66.28 L 91.29 66.16 L 91.61 66.04 L 91.92 65.93 L 92.24 65.82 L 92.55 65.70 L 92.87 65.59 L 93.19 65.47 L 93.50 65.36 L 93.82 65.25 L 94.13 65.14 L 94.45 65.03 L 94.77 64.92 L 95.08 64.81 L 95.40 64.70 L 95.71 64.59 L 96.03 64.48 L 96.34 64.37 L 96.66 64.26 L 96.98 64.15 L 97.29 64.05 L 97.61 63.94 L 97.92 63.83 L 98.24 63.73 L 98.56 63.62 L 98.87 63.52 L 99.19 63.41 L 99.50 63.31 L 99.82 63.20 L 100.14 63.10 L 100.45 63.00 L 100.77 62.89 L 101.08 62.79 L 101.40 62.69 L 101.72 62.59 L 102.03 62.48 L 102.35 62.38 L 102.66 62.28 L 102.98 62.18 L 103.29 62.08 L 103.61 61.98 L 103.93 61.88 L 104.24 61.78 L 104.56 61.69 L 104.87 61.59 L 105.19 61.49 L 105.51 61.39 L 105.82 61.30 L 106.14 61.20 L 106.45 61.10 L 106.77 61.01 L 107.09 60.91 L 107.40 60.82 L 107.72 60.72 L 108.03 60.63 L 108.35 60.53 L 108.67 60.44 L 108.98 60.34 L 109.30 60.25 L 109.61 60.16 L 109.93 60.06 L 110.24 59.97 L 110.56 59.88 L 110.88 59.79 L 111.19 59.69 L 111.51 59.60 L 111.82 59.51 L 112.14 59.42 L 112.46 59.33 L 112.77 59.24 L 113.09 59.15 L 113.40 59.06 L 113.72 58.97 L 114.04 58.88 L 114.35 58.79 L 114.67 58.71 L 114.98 58.62 L 115.30 58.53 L 115.62 58.44 L 115.93 58.35 L 116.25 58.27 L 116.56 58.18 L 116.88 58.09 L 117.19 58.01 L 117.51 57.92 L 117.83 57.84 L 118.14 57.75 L 118.46 57.67 L 118.77 57.58 L 119.09 57.50 L 119.41 57.41 L 119.72 57.33 L 120.04 57.24 L 120.35 57.16 L 120.67 57.08 L 120.99 56.99 L 121.30 56.91 L 121.62 56.83 L 121.93 56.75 L 122.25 56.66 L 122.57 56.58 L 122.88 56.50 L 123.20 56.42 L 123.51 56.34 L 123.83 56.26 L 124.14 56.18 L 124.46 56.09 L 124.78 56.01 L 125.09 55.93 L 125.41 55.85 L 125.72 55.77 L 126.04 55.70 L 126.36 55.62 L 126.67 55.54 L 126.99 55.46 L 127.30 55.38 L 127.62 55.30 L 127.94 55.22 L 128.25 55.15 L 128.57 55.07 L 128.88 54.99 L 129.20 54.91 L 129.52 54.84 L 129.83 54.76 L 130.15 54.68 L 130.46 54.61 L 130.78 54.53 L 131.09 54.46 L 131.41 54.38 L 131.73 54.31 L 132.04 54.23 L 132.36 54.15 L 132.67 54.08 L 132.99 54.01 L 133.31 53.93 L 133.62 53.86 L 133.94 53.78 L 134.25 53.71 L 134.57 53.64 L 134.89 53.56 L 135.20 53.49 L 135.52 53.42 L 135.83 53.34 L 136.15 53.27 L 136.46 53.20 L 136.78 53.13 L 137.10 53.05 L 137.41 52.98 L 137.73 52.91 L 138.04 52.84 L 138.36 52.77 L 138.68 52.70 L 138.99 52.62 L 139.31 52.55 L 139.62 52.48 L 139.94 52.41 L 140.26 52.34 L 140.57 52.27 L 140.89 52.20 L 141.20 52.13 L 141.52 52.06 L 141.84 51.99 L 142.15 51.92 L 142.47 51.86 L 142.78 51.79 L 143.10 51.72 L 143.41 51.65 L 143.73 51.58 L 144.05 51.51 L 144.36 51.44 L 144.68 51.38 L 144.99 51.31 L 145.31 51.24 L 145.63 51.17 L 145.94 51.11 L 146.26 51.04 L 146.57 50.97 L 146.89 50.91 L 147.21 50.84 L 147.52 50.77 L 147.84 50.71 L 148.15 50.64 L 148.47 50.57 L 148.79 50.51 L 149.10 50.44 L 149.42 50.38 L 149.73 50.31 L 150.05 50.25 L 150.36 50.18 L 150.68 50.12 L 151.00 50.05 L 151.31 49.99 L 151.63 49.92 L 151.94 49.86 L 152.26 49.80 L 152.58 49.73 L 152.89 49.67 L 153.21 49.60 L 153.52 49.54 L 153.84 49.48 L 154.16 49.41 L 154.47 49.35 L 154.79 49.29 L 155.10 49.23 L 155.42 49.16 L 155.74 49.10 L 156.05 49.04 L 156.37 48.98 L 156.68 48.91 L 157.00 48.85 L 157.31 48.79 L 157.63 48.73 L 157.95 48.67 L 158.26 48.61 L 158.58 48.54 L 158.89 48.48 L 159.21 48.42 L 159.53 48.36 L 159.84 48.30 L 160.16 48.24 L 160.47 48.18 L 160.79 48.12 L 161.11 48.06 L 161.42 48.00 L 161.74 47.94 L 162.05 47.88 L 162.37 47.82 L 162.69 47.76 L 163.00 47.70 L 163.32 47.64 L 163.63 47.58 L 163.95 47.52 L 164.26 47.46 L 164.58 47.41 L 164.90 47.35 L 165.21 47.29 L 165.53 47.23 L 165.84 47.17 L 166.16 47.11 L 166.48 47.06 L 166.79 47.00 L 167.11 46.94 L 167.42 46.88 L 167.74 46.82 L 168.06 46.77 L 168.37 46.71 L 168.69 46.65 L 169.00 46.60 L 169.32 46.54 L 169.64 46.48 L 169.95 46.42 L 170.27 46.37 L 170.58 46.31 L 170.90 46.25 L 171.21 46.20 L 171.53 46.14 L 171.85 46.09 L 172.16 46.03 L 172.48 45.97 L 172.79 45.92 L 173.11 45.86 L 173.43 45.81 L 173.74 45.75 L 174.06 45.70 L 174.37 45.64 L 174.69 45.59 L 175.01 45.53 L 175.32 45.48 L 175.64 45.42 L 175.95 45.37 L 176.27 45.31 L 176.59 45.26 L 176.90 45.20 L 177.22 45.15 L 177.53 45.10 L 177.85 45.04 L 178.16 44.99 L 178.48 44.93 L 178.80 44.88 L 179.11 44.83 L 179.43 44.77 L 179.74 44.72 L 180.06 44.67 L 180.38 44.61 L 180.69 44.56 L 181.01 44.51 L 181.32 44.46 L 181.64 44.40 L 181.96 44.35 L 182.27 44.30 L 182.59 44.25 L 182.90 44.19 L 183.22 44.14 L 183.54 44.09 L 183.85 44.04 L 184.17 43.98 L 184.48 43.93 L 184.80 43.88 L 185.11 43.83 L 185.43 43.78 L 185.75 43.73 L 186.06 43.67 L 186.38 43.62 L 186.69 43.57 L 187.01 43.52 L 187.33 43.47 L 187.64 43.42 L 187.96 43.37 L 188.27 43.32 L 188.59 43.27 L 188.91 43.22 L 189.22 43.17 L 189.54 43.12 L 189.85 43.07 L 190.17 43.02 L 190.48 42.97 L 190.80 42.92 L 191.12 42.87 L 191.43 42.82 L 191.75 42.77 L 192.06 42.72 L 192.38 42.67 L 192.70 42.62 L 193.01 42.57 L 193.33 42.52 L 193.64 42.47 L 193.96 42.42 L 194.28 42.37 L 194.59 42.32 L 194.91 42.27 L 195.22 42.23 L 195.54 42.18 L 195.86 42.13 L 196.17 42.08 L 196.49 42.03 L 196.80 41.98 L 197.12 41.93 L 197.43 41.89 L 197.75 41.84 L 198.07 41.79 L 198.38 41.74 L 198.70 41.69 L 199.01 41.65 L 199.33 41.60 L 199.65 41.55 L 199.96 41.50 L 200.28 41.46 L 200.59 41.41 L 200.91 41.36 L 201.23 41.31 L 201.54 41.27 L 201.86 41.22 L 202.17 41.17 L 202.49 41.13 L 202.81 41.08 L 203.12 41.03 L 203.44 40.99 L 203.75 40.94 L 204.07 40.89 L 204.38 40.85 L 204.70 40.80 L 205.02 40.75 L 205.33 40.71 L 205.65 40.66 L 205.96 40.62 L 206.28 40.57 L 206.60 40.52 L 206.91 40.48 L 207.23 40.43 L 207.54 40.39 L 207.86 40.34 L 208.18 40.30 L 208.49 40.25 L 208.81 40.21 L 209.12 40.16 L 209.44 40.12 L 209.76 40.07 L 210.07 40.03 L 210.39 39.98 L 210.70 39.94 L 211.02 39.89 L 211.33 39.85 L 211.65 39.80 L 211.97 39.76 L 212.28 39.71 L 212.60 39.67 L 212.91 39.62 L 213.23 39.58 L 213.55 39.54 L 213.86 39.49 L 214.18 39.45 L 214.49 39.40 L 214.81 39.36 L 215.13 39.31 L 215.44 39.27 L 215.76 39.23 L 216.07 39.18 L 216.39 39.14 L 216.71 39.10 L 217.02 39.05 L 217.34 39.01 L 217.65 38.97 L 217.97 38.92 L 218.28 38.88 L 218.60 38.84 L 218.92 38.79 L 219.23 38.75 L 219.55 38.71 L 219.86 38.66 L 220.18 38.62 L 220.50 38.58 L 220.81 38.54 L 221.13 38.49 L 221.44 38.45 L 221.76 38.41 L 222.08 38.37 L 222.39 38.32 L 222.71 38.28 L 223.02 38.24 L 223.34 38.20 L 223.66 38.16 L 223.97 38.11 L 224.29 38.07 L 224.60 38.03 L 224.92 37.99 L 225.23 37.95 L 225.55 37.90 L 225.87 37.86 L 226.18 37.82 L 226.50 37.78 L 226.81 37.74 L 227.13 37.70 L 227.45 37.66 L 227.76 37.61 L 228.08 37.57 L 228.39 37.53 L 228.71 37.49 L 229.03 37.45 L 229.34 37.41 L 229.66 37.37 L 229.97 37.33 L 230.29 37.29 L 230.61 37.25 L 230.92 37.21 L 231.24 37.16 L 231.55 37.12 L 231.87 37.08 L 232.18 37.04 L 232.50 37.00 L 232.82 36.96 L 233.13 36.92 L 233.45 36.88 L 233.76 36.84 L 234.08 36.80 L 234.40 36.76 L 234.71 36.72 L 235.03 36.68 L 235.34 36.64 L 235.66 36.60 L 235.98 36.56 L 236.29 36.52 L 236.61 36.48 L 236.92 36.44 L 237.24 36.40 L 237.56 36.36 L 237.87 36.33 L 238.19 36.29 L 238.50 36.25 L 238.82 36.21 L 239.13 36.17 L 239.45 36.13 L 239.77 36.09 L 240.08 36.05 L 240.40 36.01 L 240.71 35.97 L 241.03 35.93 L 241.35 35.90 L 241.66 35.86 L 241.98 35.82 L 242.29 35.78 L 242.61 35.74 L 242.93 35.70 L 243.24 35.66 L 243.56 35.63 L 243.87 35.59 L 244.19 35.55 L 244.51 35.51 L 244.82 35.47 L 245.14 35.43 L 245.45 35.40 L 245.77 35.36 L 246.08 35.32 L 246.40 35.28 L 246.72 35.24 L 247.03 35.21 L 247.35 35.17 L 247.66 35.13 L 247.98 35.09 L 248.30 35.06 L 248.61 35.02 L 248.93 34.98 L 249.24 34.94 L 249.56 34.91 L 249.88 34.87 L 250.19 34.83 L 250.51 34.79 L 250.82 34.76 L 251.14 34.72 L 251.45 34.68 L 251.77 34.65 L 252.09 34.61 L 252.40 34.57 L 252.72 34.53 L 253.03 34.50 L 253.35 34.46 L 253.67 34.42 L 253.98 34.39 L 254.30 34.35 L 254.61 34.31 L 254.93 34.28 L 255.25 34.24 L 255.56 34.20 L 255.88 34.17 L 256.19 34.13 L 256.51 34.10 L 256.83 34.06 L 257.14 34.02 L 257.46 33.99 L 257.77 33.95 L 258.09 33.91 L 258.40 33.88 L 258.72 33.84 L 259.04 33.81 L 259.35 33.77 L 259.67 33.73 L 259.98 33.70 L 260.30 33.66 L 260.62 33.63 L 260.93 33.59 L 261.25 33.56 L 261.56 33.52 L 261.88 33.48 L 262.20 33.45 L 262.51 33.41 L 262.83 33.38 L 263.14 33.34 L 263.46 33.31 L 263.78 33.27 L 264.09 33.24 L 264.41 33.20 L 264.72 33.17 L 265.04 33.13 L 265.35 33.10 L 265.67 33.06 L 265.99 33.03 L 266.30 32.99 L 266.62 32.96 L 266.93 32.92 L 267.25 32.89 L 267.57 32.85 L 267.88 32.82 L 268.20 32.78 L 268.51 32.75 L 268.83 32.71 L 269.15 32.68 L 269.46 32.64 L 269.78 32.61 L 270.09 32.58 L 270.41 32.54 L 270.73 32.51 L 271.04 32.47 L 271.36 32.44 L 271.67 32.40 L 271.99 32.37 L 272.30 32.34 L 272.62 32.30 L 272.94 32.27 L 273.25 32.23 L 273.57 32.20 L 273.88 32.17 L 274.20 32.13 L 274.52 32.10 L 274.83 32.07 L 275.15 32.03 L 275.46 32.00 L 275.78 31.96 L 276.10 31.93 L 276.41 31.90 L 276.73 31.86 L 277.04 31.83 L 277.36 31.80 L 277.68 31.76 L 277.99 31.73 L 278.31 31.70 L 278.62 31.66 L 278.94 31.63 L 279.25 31.60 L 279.57 31.56 L 279.89 31.53 L 280.20 31.50 L 280.52 31.46 L 280.83 31.43 L 281.15 31.40 L 281.47 31.37 L 281.78 31.33 L 282.10 31.30 L 282.41 31.27 L 282.73 31.23 L 283.05 31.20 L 283.36 31.17 L 283.68 31.14 L 283.99 31.10 L 284.31 31.07 L 284.63 31.04 L 284.94 31.01 L 285.26 30.97 L 285.57 30.94 L 285.89 30.91 L 286.20 30.88 L 286.52 30.84 L 286.84 30.81 L 287.15 30.78 L 287.47 30.75 L 287.78 30.72 L 288.10 30.68 L 288.42 30.65 L 288.73 30.62 L 289.05 30.59 L 289.36 30.55 L 289.68 30.52 L 290.00 30.49 L 290.31 30.46 L 290.63 30.43 L 290.94 30.40 L 291.26 30.36 L 291.58 30.33 L 291.89 30.30 L 292.21 30.27 L 292.52 30.24 L 292.84 30.21 L 293.15 30.17 L 293.47 30.14 L 293.79 30.11 L 294.10 30.08 L 294.42 30.05 L 294.73 30.02 L 295.05 29.99 L 295.37 29.95 L 295.68 29.92 L 296.00 29.89 L 296.31 29.86 L 296.63 29.83 L 296.95 29.80 L 297.26 29.77 L 297.58 29.74 L 297.89 29.71 L 298.21 29.67 L 298.53 29.64 L 298.84 29.61 L 299.16 29.58 L 299.47 29.55 L 299.79 29.52 L 300.10 29.49 L 300.42 29.46 L 300.74 29.43 L 301.05 29.40 L 301.37 29.37 L 301.68 29.34 L 302.00 29.31" fill="none" stroke="#7E8692" stroke-width="2.3" stroke-linecap="round" stroke-linejoin="round"/>
</svg>
