<svg xmlns="http://www.w3.org/2000/svg" viewBox="0 0 320 180" width="320" height="180">
  <rect width="320" height="180" fill="#F4F5F7"/>
  <path d="M 24.00 93.20 L 24.23 93.20 L 24.45 93.21 L 24.68 93.21 L 24.91 93.22 L 25.13 93.22 L 25.36 93.23 L 25.59 93.23 L 25.81 93.24 L 26.04 93.24 L 26.27 93.25 L 26.50 93.25 L 26.72 93.26 L 26.95 93.26 L 27.18 93.27 L 27.40 93.27 L 27.63 93.28 L 27.86 93.28 L 28.08 93.29 L 28.31 93.29 L 28.54 93.30 L 28.76 93.30 L 28.99 93.31 L 29.22 93.31 L 29.44 93.32 L 29.67 93.32 L 29.90 93.33 L 30.13 93.33 L 30.35 93.34 L 30.58 93.34 L 30.81 93.35 L 31.03 93.35 L 31.26 93.36 L 31.49 93.36 L 31.71 93.37 L 31.94 93.37 L 32.17 93.38 L 32.39 93.38 L 32.62 93.39 L 32.85 93.39 L 33.07 93.40 L 33.30 93.40 L 33.53 93.41 L 33.75 93.42 L 33.98 93.42 L 34.21 93.43 L 34.44 93.43 L 34.66 93.44 L 34.89 93.44 L 35.12 93.45 L 35.34 93.45 L 35.57 93.46 L 35.80 93.46 L 36.02 93.47 L 36.25 93.47 L 36.48 93.48 L 36.70 93.49 L 36.93 93.49 L 37.16 93.50 L 37.38 93.50 L 37.61 93.51 L 37.84 93.51 L 38.07 93.52 L 38.29 93.52 L 38.52 93.53 L 38.75 93.54 L 38.97 93.54 L 39.20 93.55 L 39.43 93.55 L 39.65 93.56 L 39.88 93.56 L 40.11 93.57 L 40.33 93.58 L 40.56 93.58 L 40.79 93.59 L 41.01 93.59 L 41.24 93.60 L 41.47 93.60 L 41.69 93.61 L 41.92 93.62 L 42.15 93.62 L 42.38 93.63 L 42.60 93.63 L 42.83 93.64 L 43.06 93.65 L 43.28 93.65 L 43.51 93.66 L 43.74 93.66 L 43.96 93.67 L 44.19 93.68 L 44.42 93.68 L 44.64 93.69 L 44.87 93.69 L 45.10 93.70 L 45.32 93.71 L 45.55 93.71 L 45.78 93.72 L 46.01 93.72 L 46.23 93.73 L 46.46 93.74 L 46.69 93.74 L 46.91 93.75 L 47.14 93.76 L 47.37 93.76 L 47.59 93.77 L 47.82 93.78 L 48.05 93.78 L 48.27 93.79 L 48.50 93.79 L 48.73 93.80 L 48.95 93.81 L 49.18 93.81 L 49.41 93.82 L 49.63 93.83 L 49.86 93.83 L 50.09 93.84 L 50.32 93.85 L 50.54 93.85 L 50.77 93.86 L 51.00 93.87 L 51.22 93.87 L 51.45 93.88 L 51.68 93.89 L 51.90 93.89 L 52.13 93.90 L 52.36 93.91 L 52.58 93.91 L 52.81 93.92 L 53.04 93.93 L 53.26 93.93 L 53.49 93.94 L 53.72 93.95 L 53.94 93.95 L 54.17 93.96 L 54.40 93.97 L 54.63 93.97 L 54.85 93.98 L 55.08 93.99 L 55.31 94.00 L 55.53 94.00 L 55.76 94.01 L 55.99 94.02 L 56.21 94.02 L 56.44 94.03 L 56.67 94.04 L 56.89 94.04 L 57.12 94.05 L 57.35 94.06 L 57.57 94.07 L 57.80 94.07 L 58.03 94.08 L 58.26 94.09 L 58.48 94.10 L 58.71 94.10 L 58.94 94.11 L 59.16 94.12 L 59.39 94.12 L 59.62 94.13 L 59.84 94.14 L 60.07 94.15 L 60.30 94.15 L 60.52 94.16 L 60.75 94.17 L 60.98 94.18 L 61.20 94.18 L 61.43 94.19 L 61.66 94.20 L 61.88 94.21 L 62.11 94.22 L 62.34 94.22 L 62.57 94.23 L 62.79 94.24 L 63.02 94.25 L 63.25 94.25 L 63.47 94.26 L 63.70 94.27 L 63.93 94.28 L 64.15 94.29 L 64.38 94.29 L 64.61 94.30 L 64.83 94.31 L 65.06 94.32 L 65.29 94.32 L 65.51 94.33 L 65.74 94.34 L 65.97 94.35 L 66.20 94.36 L 66.42 94.37 L 66.65 94.37 L 66.88 94.38 L 67.10 94.39 L 67.33 94.40 L 67.56 94.41 L 67.78 94.41 L 68.01 94.42 L 68.24 94.43 L 68.46 94.44 L 68.69 94.45 L 68.92 94.46 L 69.14 94.46 L 69.37 94.47 L 69.60 94.48 L 69.82 94.49 L 70.05 94.50 L 70.28 94.51 L 70.51 94.52 L 70.73 94.52 L 70.96 94.53 L 71.19 94.54 L 71.41 94.55 L 71.64 94.56 L 71.87 94.57 L 72.09 94.58 L 72.32 94.58 L 72.55 94.59 L 72.77 94.60 L 73.00 94.61 L 73.23 94.62 L 73.45 94.63 L 73.68 94.64 L 73.91 94.65 L 74.14 94.66 L 74.36 94.66 L 74.59 94.67 L 74.82 94.68 L 75.04 94.69 L 75.27 94.70 L 75.50 94.71 L 75.72 94.72 L 75.95 94.73 L 76.18 94.74 L 76.40 94.75 L 76.63 94.76 L 76.86 94.76 L 77.08 94.77 L 77.31 94.78 L 77.54 94.79 L 77.76 94.80 L 77.99 94.81 L 78.22 94.82 L 78.45 94.83 L 78.67 94.84 L 78.90 94.85 L 79.13 94.86 L 79.35 94.87 L 79.58 94.88 L 79.81 94.89 L 80.03 94.90 L 80.26 94.91 L 80.49 94.92 L 80.71 94.93 L 80.94 94.94 L 81.17 94.95 L 81.39 94.96 L 81.62 94.97 L 81.85 94.98 L 82.08 94.98 L 82.30 94.99 L 82.53 95.00 L 82.76 95.01 L 82.98 95.02 L 83.21 95.03 L 83.44 95.04 L 83.66 95.05 L 83.89 95.06 L 84.12 95.07 L 84.34 95.08 L 84.57 95.10 L 84.80 95.11 L 85.02 95.12 L 85.25 95.13 L 85.48 95.14 L 85.70 95.15 L 85.93 95.16 L 86.16 95.17 L 86.39 95.18 L 86.61 95.19 L 86.84 95.20 L 87.07 95.21 L 87.29 95.22 L 87.52 95.23 L 87.75 95.24 L 87.97 95.25 L 88.20 95.26 L 88.43 95.27 L 88.65 95.28 L 88.88 95.29 L 89.11 95.30 L 89.33 95.31 L 89.56 95.32 L 89.79 95.33 L 90.02 95.35 L 90.24 95.36 L 90.47 95.37 L 90.70 95.38 L 90.92 95.39 L 91.15 95.40 L 91.38 95.41 L 91.60 95.42 L 91.83 95.43 L 92.06 95.44 L 92.28 95.45 L 92.51 95.46 L 92.74 95.48 L 92.96 95.49 L 93.19 95.50 L 93.42 95.51 L 93.64 95.52 L 93.87 95.53 L 94.10 95.54 L 94.33 95.55 L 94.55 95.56 L 94.78 95.57 L 95.01 95.59 L 95.23 95.60 L 95.46 95.61 L 95.69 95.62 L 95.91 95.63 L 96.14 95.64 L 96.37 95.65 L 96.59 95.66 L 96.82 95.68 L 97.05 95.69 L 97.27 95.70 L 97.50 95.71 L 97.73 95.72 L 97.95 95.73 L 98.18 95.74 L 98.41 95.75 L 98.64 95.77 L 98.86 95.78 L 99.09 95.79 L 99.32 95.80 L 99.54 95.81 L 99.77 95.82 L 100.00 95.83 L 100.22 95.84 L 100.45 95.86 L 100.68 95.87 L 100.90 95.88 L 101.13 95.89 L 101.36 95.90 L 101.58 95.91 L 101.81 95.92 L 102.04 95.94 L 102.27 95.95 L 102.49 95.96 L 102.72 95.97 L 102.95 95.98 L 103.17 95.99 L 103.40 96.00 L 103.63 96.01 L 103.85 96.03 L 104.08 96.04 L 104.31 96.05 L 104.53 96.06 L 104.76 96.07 L 104.99 96.08 L 105.21 96.09 L 105.44 96.10 L 105.67 96.12 L 105.89 96.13 L 106.12 96.14 L 106.35 96.15 L 106.58 96.16 L 106.80 96.17 L 107.03 96.18 L 107.26 96.19 L 107.48 96.20 L 107.71 96.22 L 107.94 96.23 L 108.16 96.24 L 108.39 96.25 L 108.62 96.26 L 108.84 96.27 L 109.07 96.28 L 109.30 96.29 L 109.52 96.30 L 109.75 96.31 L 109.98 96.32 L 110.21 96.33 L 110.43 96.34 L 110.66 96.35 L 110.89 96.36 L 111.11 96.37 L 111.34 96.39 L 111.57 96.40 L 111.79 96.41 L 112.02 96.42 L 112.25 96.43 L 112.47 96.44 L 112.70 96.45 L 112.93 96.46 L 113.15 96.47 L 113.38 96.47 L 113.61 96.48 L 113.83 96.49 L 114.06 96.50 L 114.29 96.51 L 114.52 96.52 L 114.74 96.53 L 114.97 96.54 L 115.20 96.55 L 115.42 96.56 L 115.65 96.57 L 115.88 96.58 L 116.10 96.58 L 116.33 96.59 L 116.56 96.60 L 116.78 96.61 L 117.01 96.62 L 117.24 96.63 L 117.46 96.63 L 117.69 96.64 L 117.92 96.65 L 118.15 96.66 L 118.37 96.66 L 118.60 96.67 L 118.83 96.68 L 119.05 96.68 L 119.28 96.69 L 119.51 96.70 L 119.73 96.70 L 119.96 96.71 L 120.19 96.72 L 120.41 96.72 L 120.64 96.73 L 120.87 96.73 L 121.09 96.74 L 121.32 96.74 L 121.55 96.75 L 121.77 96.75 L 122.00 96.76 L 122.23 96.76 L 122.46 96.77 L 122.68 96.77 L 122.91 96.77 L 123.14 96.78 L 123.36 96.78 L 123.59 96.78 L 123.82 96.79 L 124.04 96.79 L 124.27 96.79 L 124.50 96.79 L 124.72 96.80 L 124.95 96.80 L 125.18 96.80 L 125.40 96.80 L 125.63 96.80 L 125.86 96.80 L 126.09 96.80 L 126.31 96.80 L 126.54 96.80 L 126.77 96.80 L 126.99 96.80 L 127.22 96.80 L 127.45 96.79 L 127.67 96.79 L 127.90 96.79 L 128.13 96.79 L 128.35 96.78 L 128.58 96.78 L 128.81 96.77 L 129.03 96.77 L 129.26 96.77 L 129.49 96.76 L 129.71 96.75 L 129.94 96.75 L 130.17 96.74 L 130.40 96.74 L 130.62 96.73 L 130.85 96.72 L 131.08 96.71 L 131.30 96.70 L 131.53 96.69 L 131.76 96.68 L 131.98 96.67 L 132.21 96.66 L 132.44 96.65 L 132.66 96.64 L 132.89 96.63 L 133.12 96.62 L 133.34 96.60 L 133.57 96.59 L 133.80 96.58 L 134.03 96.56 L 134.25 96.55 L 134.48 96.53 L 134.71 96.51 L 134.93 96.50 L 135.16 96.48 L 135.39 96.46 L 135.61 96.44 L 135.84 96.42 L 136.07 96.40 L 136.29 96.38 L 136.52 96.36 L 136.75 96.34 L 136.97 96.31 L 137.20 96.29 L 137.43 96.27 L 137.65 96.24 L 137.88 96.22 L 138.11 96.19 L 138.34 96.16 L 138.56 96.14 L 138.79 96.11 L 139.02 96.08 L 139.24 96.05 L 139.47 96.02 L 139.70 95.99 L 139.92 95.95 L 140.15 95.92 L 140.38 95.89 L 140.60 95.85 L 140.83 95.82 L 141.06 95.78 L 141.28 95.75 L 141.51 95.71 L 141.74 95.67 L 141.96 95.63 L 142.19 95.59 L 142.42 95.55 L 142.65 95.51 L 142.87 95.46 L 143.10 95.42 L 143.33 95.38 L 143.55 95.33 L 143.78 95.29 L 144.01 95.24 L 144.23 95.19 L 144.46 95.14 L 144.69 95.09 L 144.91 95.04 L 145.14 94.99 L 145.37 94.94 L 145.59 94.89 L 145.82 94.83 L 146.05 94.78 L 146.28 94.72 L 146.50 94.66 L 146.73 94.61 L 146.96 94.55 L 147.18 94.49 L 147.41 94.43 L 147.64 94.37 L 147.86 94.31 L 148.09 94.24 L 148.32 94.18 L 148.54 94.12 L 148.77 94.05 L 149.00 93.98 L 149.22 93.92 L 149.45 93.85 L 149.68 93.78 L 149.90 93.71 L 150.13 93.64 L 150.36 93.57 L 150.59 93.50 L 150.81 93.42 L 151.04 93.35 L 151.27 93.28 L 151.49 93.20 L 151.72 93.13 L 151.95 93.05 L 152.17 92.97 L 152.40 92.90 L 152.63 92.82 L 152.85 92.74 L 153.08 92.66 L 153.31 92.58 L 153.53 92.50 L 153.76 92.41 L 153.99 92.33 L 154.22 92.25 L 154.44 92.17 L 154.67 92.08 L 154.90 92.00 L 155.12 91.91 L 155.35 91.83 L 155.58 91.74 L 155.80 91.65 L 156.03 91.57 L 156.26 91.48 L 156.48 91.39 L 156.71 91.30 L 156.94 91.22 L 157.16 91.13 L 157.39 91.04 L 157.62 90.95 L 157.84 90.86 L 158.07 90.77 L 158.30 90.68 L 158.53 90.59 L 158.75 90.50 L 158.98 90.41 L 159.21 90.32 L 159.43 90.23 L 159.66 90.14 L 159.89 90.05 L 160.11 89.95 L 160.34 89.86 L 160.57 89.77 L 160.79 89.68 L 161.02 89.59 L 161.25 89.50 L 161.47 89.41 L 161.70 89.32 L 161.93 89.23 L 162.16 89.14 L 162.38 89.05 L 162.61 88.96 L 162.84 88.87 L 163.06 88.78 L 163.29 88.70 L 163.52 88.61 L 163.74 88.52 L 163.97 88.43 L 164.20 88.35 L 164.42 88.26 L 164.65 88.17 L 164.88 88.09 L 165.10 88.00 L 165.33 87.92 L 165.56 87.83 L 165.78 87.75 L 166.01 87.67 L 166.24 87.59 L 166.47 87.50 L 166.69 87.42 L 166.92 87.34 L 167.15 87.26 L 167.37 87.18 L 167.60 87.10 L 167.83 87.03 L 168.05 86.95 L 168.28 86.87 L 168.51 86.80 L 168.73 86.72 L 168.96 86.65 L 169.19 86.58 L 169.41 86.50 L 169.64 86.43 L 169.87 86.36 L 170.10 86.29 L 170.32 86.22 L 170.55 86.15 L 170.78 86.08 L 171.00 86.02 L 171.23 85.95 L 171.46 85.88 L 171.68 85.82 L 171.91 85.76 L 172.14 85.69 L 172.36 85.63 L 172.59 85.57 L 172.82 85.51 L 173.04 85.45 L 173.27 85.39 L 173.50 85.34 L 173.72 85.28 L 173.95 85.22 L 174.18 85.17 L 174.41 85.11 L 174.63 85.06 L 174.86 85.01 L 175.09 84.96 L 175.31 84.91 L 175.54 84.86 L 175.77 84.81 L 175.99 84.76 L 176.22 84.71 L 176.45 84.67 L 176.67 84.62 L 176.90 84.58 L 177.13 84.54 L 177.35 84.49 L 177.58 84.45 L 177.81 84.41 L 178.04 84.37 L 178.26 84.33 L 178.49 84.29 L 178.72 84.25 L 178.94 84.22 L 179.17 84.18 L 179.40 84.15 L 179.62 84.11 L 179.85 84.08 L 180.08 84.05 L 180.30 84.01 L 180.53 83.98 L 180.76 83.95 L 180.98 83.92 L 181.21 83.89 L 181.44 83.86 L 181.66 83.84 L 181.89 83.81 L 182.12 83.78 L 182.35 83.76 L 182.57 83.73 L 182.80 83.71 L 183.03 83.69 L 183.25 83.66 L 183.48 83.64 L 183.71 83.62 L 183.93 83.60 L 184.16 83.58 L 184.39 83.56 L 184.61 83.54 L 184.84 83.52 L 185.07 83.50 L 185.29 83.49 L 185.52 83.47 L 185.75 83.45 L 185.97 83.44 L 186.20 83.42 L 186.43 83.41 L 186.66 83.40 L 186.88 83.38 L 187.11 83.37 L 187.34 83.36 L 187.56 83.35 L 187.79 83.34 L 188.02 83.33 L 188.24 83.32 L 188.47 83.31 L 188.70 83.30 L 188.92 83.29 L 189.15 83.28 L 189.38 83.27 L 189.60 83.26 L 189.83 83.26 L 190.06 83.25 L 190.29 83.25 L 190.51 83.24 L 190.74 83.23 L 190.97 83.23 L 191.19 83.23 L 191.42 83.22 L 191.65 83.22 L 191.87 83.21 L 192.10 83.21 L 192.33 83.21 L 192.55 83.21 L 192.78 83.20 L 193.01 83.20 L 193.23 83.20 L 193.46 83.20 L 193.69 83.20 L 193.91 83.20 L 194.14 83.20 L 194.37 83.20 L 194.60 83.20 L 194.82 83.20 L 195.05 83.20 L 195.28 83.20 L 195.50 83.21 L 195.73 83.21 L 195.96 83.21 L 196.18 83.21 L 196.41 83.22 L 196.64 83.22 L 196.86 83.22 L 197.09 83.23 L 197.32 83.23 L 197.54 83.23 L 197.77 83.24 L 198.00 83.24 L 198.23 83.25 L 198.45 83.25 L 198.68 83.26 L 198.91 83.26 L 199.13 83.27 L 199.36 83.27 L 199.59 83.28 L 199.81 83.28 L 200.04 83.29 L 200.27 83.30 L 200.49 83.30 L 200.72 83.31 L 200.95 83.32 L 201.17 83.32 L 201.40 83.33 L 201.63 83.34 L 201.85 83.34 L 202.08 83.35 L 202.31 83.36 L 202.54 83.37 L 202.76 83.37 L 202.99 83.38 L 203.22 83.39 L 203.44 83.40 L 203.67 83.41 L 203.90 83.42 L 204.12 83.42 L 204.35 83.43 L 204.58 83.44 L 204.80 83.45 L 205.03 83.46 L 205.26 83.47 L 205.48 83.48 L 205.71 83.49 L 205.94 83.50 L 206.17 83.51 L 206.39 83.52 L 206.62 83.53 L 206.85 83.53 L 207.07 83.54 L 207.30 83.55 L 207.53 83.56 L 207.75 83.57 L 207.98 83.58 L 208.21 83.59 L 208.43 83.60 L 208.66 83.61 L 208.89 83.63 L 209.11 83.64 L 209.34 83.65 L 209.57 83.66 L 209.79 83.67 L 210.02 83.68 L 210.25 83.69 L 210.48 83.70 L 210.70 83.71 L 210.93 83.72 L 211.16 83.73 L 211.38 83.74 L 211.61 83.75 L 211.84 83.76 L 212.06 83.77 L 212.29 83.78 L 212.52 83.80 L 212.74 83.81 L 212.97 83.82 L 213.20 83.83 L 213.42 83.84 L 213.65 83.85 L 213.88 83.86 L 214.11 83.87 L 214.33 83.88 L 214.56 83.90 L 214.79 83.91 L 215.01 83.92 L 215.24 83.93 L 215.47 83.94 L 215.69 83.95 L 215.92 83.96 L 216.15 83.97 L 216.37 83.99 L 216.60 84.00 L 216.83 84.01 L 217.05 84.02 L 217.28 84.03 L 217.51 84.04 L 217.73 84.05 L 217.96 84.06 L 218.19 84.08 L 218.42 84.09 L 218.64 84.10 L 218.87 84.11 L 219.10 84.12 L 219.32 84.13 L 219.55 84.14 L 219.78 84.16 L 220.00 84.17 L 220.23 84.18 L 220.46 84.19 L 220.68 84.20 L 220.91 84.21 L 221.14 84.22 L 221.36 84.23 L 221.59 84.25 L 221.82 84.26 L 222.05 84.27 L 222.27 84.28 L 222.50 84.29 L 222.73 84.30 L 222.95 84.31 L 223.18 84.32 L 223.41 84.34 L 223.63 84.35 L 223.86 84.36 L 224.09 84.37 L 224.31 84.38 L 224.54 84.39 L 224.77 84.40 L 224.99 84.41 L 225.22 84.43 L 225.45 84.44 L 225.67 84.45 L 225.90 84.46 L 226.13 84.47 L 226.36 84.48 L 226.58 84.49 L 226.81 84.50 L 227.04 84.51 L 227.26 84.52 L 227.49 84.54 L 227.72 84.55 L 227.94 84.56 L 228.17 84.57 L 228.40 84.58 L 228.62 84.59 L 228.85 84.60 L 229.08 84.61 L 229.30 84.62 L 229.53 84.63 L 229.76 84.64 L 229.98 84.65 L 230.21 84.67 L 230.44 84.68 L 230.67 84.69 L 230.89 84.70 L 231.12 84.71 L 231.35 84.72 L 231.57 84.73 L 231.80 84.74 L 232.03 84.75 L 232.25 84.76 L 232.48 84.77 L 232.71 84.78 L 232.93 84.79 L 233.16 84.80 L 233.39 84.81 L 233.61 84.82 L 233.84 84.83 L 234.07 84.84 L 234.30 84.85 L 234.52 84.86 L 234.75 84.87 L 234.98 84.88 L 235.20 84.89 L 235.43 84.90 L 235.66 84.92 L 235.88 84.93 L 236.11 84.94 L 236.34 84.95 L 236.56 84.96 L 236.79 84.97 L 237.02 84.98 L 237.24 84.99 L 237.47 85.00 L 237.70 85.01 L 237.92 85.02 L 238.15 85.02 L 238.38 85.03 L 238.61 85.04 L 238.83 85.05 L 239.06 85.06 L 239.29 85.07 L 239.51 85.08 L 239.74 85.09 L 239.97 85.10 L 240.19 85.11 L 240.42 85.12 L 240.65 85.13 L 240.87 85.14 L 241.10 85.15 L 241.33 85.16 L 241.55 85.17 L 241.78 85.18 L 242.01 85.19 L 242.24 85.20 L 242.46 85.21 L 242.69 85.22 L 242.92 85.23 L 243.14 85.24 L 243.37 85.24 L 243.60 85.25 L 243.82 85.26 L 244.05 85.27 L 244.28 85.28 L 244.50 85.29 L 244.73 85.30 L 244.96 85.31 L 245.18 85.32 L 245.41 85.33 L 245.64 85.34 L 245.86 85.34 L 246.09 85.35 L 246.32 85.36 L 246.55 85.37 L 246.77 85.38 L 247.00 85.39 L 247.23 85.40 L 247.45 85.41 L 247.68 85.42 L 247.91 85.42 L 248.13 85.43 L 248.36 85.44 L 248.59 85.45 L 248.81 85.46 L 249.04 85.47 L 249.27 85.48 L 249.49 85.48 L 249.72 85.49 L 249.95 85.50 L 250.18 85.51 L 250.40 85.52 L 250.63 85.53 L 250.86 85.54 L 251.08 85.54 L 251.31 85.55 L 251.54 85.56 L 251.76 85.57 L 251.99 85.58 L 252.22 85.59 L 252.44 85.59 L 252.67 85.60 L 252.90 85.61 L 253.12 85.62 L 253.35 85.63 L 253.58 85.63 L 253.80 85.64 L 254.03 85.65 L 254.26 85.66 L 254.49 85.67 L 254.71 85.68 L 254.94 85.68 L 255.17 85.69 L 255.39 85.70 L 255.62 85.71 L 255.85 85.71 L 256.07 85.72 L 256.30 85.73 L 256.53 85.74 L 256.75 85.75 L 256.98 85.75 L 257.21 85.76 L 257.43 85.77 L 257.66 85.78 L 257.89 85.78 L 258.12 85.79 L 258.34 85.80 L 258.57 85.81 L 258.80 85.82 L 259.02 85.82 L 259.25 85.83 L 259.48 85.84 L 259.70 85.85 L 259.93 85.85 L 260.16 85.86 L 260.38 85.87 L 260.61 85.88 L 260.84 85.88 L 261.06 85.89 L 261.29 85.90 L 261.52 85.90 L 261.74 85.91 L 261.97 85.92 L 262.20 85.93 L 262.43 85.93 L 262.65 85.94 L 262.88 85.95 L 263.11 85.96 L 263.33 85.96 L 263.56 85.97 L 263.79 85.98 L 264.01 85.98 L 264.24 85.99 L 264.47 86.00 L 264.69 86.00 L 264.92 86.01 L 265.15 86.02 L 265.37 86.03 L 265.60 86.03 L 265.83 86.04 L 266.06 86.05 L 266.28 86.05 L 266.51 86.06 L 266.74 86.07 L 266.96 86.07 L 267.19 86.08 L 267.42 86.09 L 267.64 86.09 L 267.87 86.10 L 268.10 86.11 L 268.32 86.11 L 268.55 86.12 L 268.78 86.13 L 269.00 86.13 L 269.23 86.14 L 269.46 86.15 L 269.68 86.15 L 269.91 86.16 L 270.14 86.17 L 270.37 86.17 L 270.59 86.18 L 270.82 86.19 L 271.05 86.19 L 271.27 86.20 L 271.50 86.21 L 271.73 86.21 L 271.95 86.22 L 272.18 86.22 L 272.41 86.23 L 272.63 86.24 L 272.86 86.24 L 273.09 86.25 L 273.31 86.26 L 273.54 86.26 L 273.77 86.27 L 273.99 86.28 L 274.22 86.28 L 274.45 86.29 L 274.68 86.29 L 274.90 86.30 L 275.13 86.31 L 275.36 86.31 L 275.58 86.32 L 275.81 86.32 L 276.04 86.33 L 276.26 86.34 L 276.49 86.34 L 276.72 86.35 L 276.94 86.35 L 277.17 86.36 L 277.40 86.37 L 277.62 86.37 L 277.85 86.38 L 278.08 86.38 L 278.31 86.39 L 278.53 86.40 L 278.76 86.40 L 278.99 86.41 L 279.21 86.41 L 279.44 86.42 L 279.67 86.42 L 279.89 86.43 L 280.12 86.44 L 280.35 86.44 L 280.57 86.45 L 280.80 86.45 L 281.03 86.46 L 281.25 86.46 L 281.48 86.47 L 281.71 86.48 L 281.93 86.48 L 282.16 86.49 L 282.39 86.49 L 282.62 86.50 L 282.84 86.50 L 283.07 86.51 L 283.30 86.51 L 283.52 86.52 L 283.75 86.53 L 283.98 86.53 L 284.20 86.54 L 284.43 86.54 L 284.66 86.55 L 284.88 86.55 L 285.11 86.56 L 285.34 86.56 L 285.56 86.57 L 285.79 86.57 L 286.02 86.58 L 286.25 86.58 L 286.47 86.59 L 286.70 86.60 L 286.93 86.60 L 287.15 86.61 L 287.38 86.61 L 287.61 86.62 L 287.83 86.62 L 288.06 86.63 L 288.29 86.63 L 288.51 86.64 L 288.74 86.64 L 288.97 86.65 L 289.19 86.65 L 289.42 86.66 L 289.65 86.66 L 289.87 86.67 L 290.10 86.67 L 290.33 86.68 L 290.56 86.68 L 290.78 86.69 L 291.01 86.69 L 291.24 86.70 L 291.46 86.70 L 291.69 86.71 L 291.92 86.71 L 292.14 86.72 L 292.37 86.72 L 292.60 86.73 L 292.82 86.73 L 293.05 86.74 L 293.28 86.74 L 293.50 86.75 L 293.73 86.75 L 293.96 86.76 L 294.19 86.76 L 294.41 86.77 L 294.64 86.77 L 294.87 86.78 L 295.09 86.78 L 295.32 86.79 L 295.55 86.79 L 295.77 86.80 L 296.00 86.80" fill="none" stroke="#7E8692" stroke-width="2.3" stroke-linecap="round" stroke-linejoin="round"/>
</svg>
