<svg xmlns="http://www.w3.org/2000/svg" viewBox="0 0 320 180" width="320" height="180">
  <rect width="320" height="180" fill="none"/>
  <path d="M 24.00 112.86 L 24.19 112.89 L 24.39 112.91 L 24.58 112.94 L 24.78 112.97 L 24.97 113.00 L 25.17 113.03 L 25.36 113.06 L 25.56 113.09 L 25.75 113.12 L 25.94 113.15 L 26.14 113.18 L 26.33 113.21 L 26.53 113.24 L 26.72 113.27 L 26.92 113.30 L 27.11 113.33 L 27.31 113.36 L 27.50 113.39 L 27.69 113.42 L 27.89 113.45 L 28.08 113.48 L 28.28 113.51 L 28.47 113.54 L 28.67 113.57 L 28.86 113.60 L 29.06 113.63 L 29.25 113.66 L 29.44 113.69 L 29.64 113.72 L 29.83 113.75 L 30.03 113.78 L 30.22 113.82 L 30.42 113.85 L 30.61 113.88 L 30.80 113.91 L 31.00 113.94 L 31.19 113.97 L 31.39 114.00 L 31.58 114.03 L 31.78 114.07 L 31.97 114.10 L 32.17 114.13 L 32.36 114.16 L 32.55 114.19 L 32.75 114.23 L 32.94 114.26 L 33.14 114.29 L 33.33 114.32 L 33.53 114.35 L 33.72 114.39 L 33.92 114.42 L 34.11 114.45 L 34.30 114.49 L 34.50 114.52 L 34.69 114.55 L 34.89 114.58 L 35.08 114.62 L 35.28 114.65 L 35.47 114.68 L 35.67 114.72 L 35.86 114.75 L 36.05 114.78 L 36.25 114.82 L 36.44 114.85 L 36.64 114.88 L 36.83 114.92 L 37.03 114.95 L 37.22 114.98 L 37.42 115.02 L 37.61 115.05 L 37.80 115.09 L 38.00 115.12 L 38.19 115.16 L 38.39 115.19 L 38.58 115.22 L 38.78 115.26 L 38.97 115.29 L 39.17 115.33 L 39.36 115.36 L 39.55 115.40 L 39.75 115.43 L 39.94 115.47 L 40.14 115.50 L 40.33 115.54 L 40.53 115.57 L 40.72 115.61 L 40.91 115.64 L 41.11 115.68 L 41.30 115.72 L 41.50 115.75 L 41.69 115.79 L 41.89 115.82 L 42.08 115.86 L 42.28 115.90 L 42.47 115.93 L 42.66 115.97 L 42.86 116.00 L 43.05 116.04 L 43.25 116.08 L 43.44 116.11 L 43.64 116.15 L 43.83 116.19 L 44.03 116.23 L 44.22 116.26 L 44.41 116.30 L 44.61 116.34 L 44.80 116.37 L 45.00 116.41 L 45.19 116.45 L 45.39 116.49 L 45.58 116.52 L 45.78 116.56 L 45.97 116.60 L 46.16 116.64 L 46.36 116.68 L 46.55 116.71 L 46.75 116.75 L 46.94 116.79 L 47.14 116.83 L 47.33 116.87 L 47.53 116.91 L 47.72 116.95 L 47.91 116.98 L 48.11 117.02 L 48.30 117.06 L 48.50 117.10 L 48.69 117.14 L 48.89 117.18 L 49.08 117.22 L 49.28 117.26 L 49.47 117.30 L 49.66 117.34 L 49.86 117.38 L 50.05 117.42 L 50.25 117.46 L 50.44 117.50 L 50.64 117.54 L 50.83 117.58 L 51.03 117.62 L 51.22 117.66 L 51.41 117.70 L 51.61 117.74 L 51.80 117.78 L 52.00 117.82 L 52.19 117.86 L 52.39 117.91 L 52.58 117.95 L 52.77 117.99 L 52.97 118.03 L 53.16 118.07 L 53.36 118.11 L 53.55 118.16 L 53.75 118.20 L 53.94 118.24 L 54.14 118.28 L 54.33 118.32 L 54.52 118.37 L 54.72 118.41 L 54.91 118.45 L 55.11 118.49 L 55.30 118.54 L 55.50 118.58 L 55.69 118.62 L 55.89 118.67 L 56.08 118.71 L 56.27 118.75 L 56.47 118.80 L 56.66 118.84 L 56.86 118.88 L 57.05 118.93 L 57.25 118.97 L 57.44 119.02 L 57.64 119.06 L 57.83 119.10 L 58.02 119.15 L 58.22 119.19 L 58.41 119.24 L 58.61 119.28 L 58.80 119.33 L 59.00 119.37 L 59.19 119.42 L 59.39 119.46 L 59.58 119.51 L 59.77 119.55 L 59.97 119.60 L 60.16 119.64 L 60.36 119.69 L 60.55 119.74 L 60.75 119.78 L 60.94 119.83 L 61.14 119.87 L 61.33 119.92 L 61.52 119.97 L 61.72 120.01 L 61.91 120.06 L 62.11 120.11 L 62.30 120.15 L 62.50 120.20 L 62.69 120.25 L 62.88 120.30 L 63.08 120.34 L 63.27 120.39 L 63.47 120.44 L 63.66 120.49 L 63.86 120.53 L 64.05 120.58 L 64.25 120.63 L 64.44 120.68 L 64.63 120.73 L 64.83 120.78 L 65.02 120.83 L 65.22 120.87 L 65.41 120.92 L 65.61 120.97 L 65.80 121.02 L 66.00 121.07 L 66.19 121.12 L 66.38 121.17 L 66.58 121.22 L 66.77 121.27 L 66.97 121.32 L 67.16 121.37 L 67.36 121.42 L 67.55 121.47 L 67.75 121.52 L 67.94 121.57 L 68.13 121.62 L 68.33 121.67 L 68.52 121.72 L 68.72 121.77 L 68.91 121.83 L 69.11 121.88 L 69.30 121.93 L 69.50 121.98 L 69.69 122.03 L 69.88 122.08 L 70.08 122.14 L 70.27 122.19 L 70.47 122.24 L 70.66 122.29 L 70.86 122.35 L 71.05 122.40 L 71.25 122.45 L 71.44 122.50 L 71.63 122.56 L 71.83 122.61 L 72.02 122.66 L 72.22 122.72 L 72.41 122.77 L 72.61 122.82 L 72.80 122.88 L 72.99 122.93 L 73.19 122.99 L 73.38 123.04 L 73.58 123.10 L 73.77 123.15 L 73.97 123.20 L 74.16 123.26 L 74.36 123.31 L 74.55 123.37 L 74.74 123.42 L 74.94 123.48 L 75.13 123.54 L 75.33 123.59 L 75.52 123.65 L 75.72 123.70 L 75.91 123.76 L 76.11 123.82 L 76.30 123.87 L 76.49 123.93 L 76.69 123.98 L 76.88 124.04 L 77.08 124.10 L 77.27 124.16 L 77.47 124.21 L 77.66 124.27 L 77.86 124.33 L 78.05 124.38 L 78.24 124.44 L 78.44 124.50 L 78.63 124.56 L 78.83 124.62 L 79.02 124.67 L 79.22 124.73 L 79.41 124.79 L 79.61 124.85 L 79.80 124.91 L 79.99 124.97 L 80.19 125.03 L 80.38 125.09 L 80.58 125.15 L 80.77 125.20 L 80.97 125.26 L 81.16 125.32 L 81.36 125.38 L 81.55 125.44 L 81.74 125.50 L 81.94 125.56 L 82.13 125.62 L 82.33 125.69 L 82.52 125.75 L 82.72 125.81 L 82.91 125.87 L 83.11 125.93 L 83.30 125.99 L 83.49 126.05 L 83.69 126.11 L 83.88 126.17 L 84.08 126.24 L 84.27 126.30 L 84.47 126.36 L 84.66 126.42 L 84.85 126.48 L 85.05 126.55 L 85.24 126.61 L 85.44 126.67 L 85.63 126.73 L 85.83 126.80 L 86.02 126.86 L 86.22 126.92 L 86.41 126.99 L 86.60 127.05 L 86.80 127.11 L 86.99 127.18 L 87.19 127.24 L 87.38 127.30 L 87.58 127.37 L 87.77 127.43 L 87.97 127.50 L 88.16 127.56 L 88.35 127.63 L 88.55 127.69 L 88.74 127.76 L 88.94 127.82 L 89.13 127.89 L 89.33 127.95 L 89.52 128.02 L 89.72 128.08 L 89.91 128.15 L 90.10 128.21 L 90.30 128.28 L 90.49 128.34 L 90.69 128.41 L 90.88 128.48 L 91.08 128.54 L 91.27 128.61 L 91.47 128.67 L 91.66 128.74 L 91.85 128.81 L 92.05 128.87 L 92.24 128.94 L 92.44 129.01 L 92.63 129.07 L 92.83 129.14 L 93.02 129.21 L 93.22 129.28 L 93.41 129.34 L 93.60 129.41 L 93.80 129.48 L 93.99 129.55 L 94.19 129.61 L 94.38 129.68 L 94.58 129.75 L 94.77 129.82 L 94.96 129.88 L 95.16 129.95 L 95.35 130.02 L 95.55 130.09 L 95.74 130.16 L 95.94 130.23 L 96.13 130.29 L 96.33 130.36 L 96.52 130.43 L 96.71 130.50 L 96.91 130.57 L 97.10 130.64 L 97.30 130.71 L 97.49 130.78 L 97.69 130.84 L 97.88 130.91 L 98.08 130.98 L 98.27 131.05 L 98.46 131.12 L 98.66 131.19 L 98.85 131.26 L 99.05 131.33 L 99.24 131.40 L 99.44 131.47 L 99.63 131.54 L 99.83 131.61 L 100.02 131.67 L 100.21 131.74 L 100.41 131.81 L 100.60 131.88 L 100.80 131.95 L 100.99 132.02 L 101.19 132.09 L 101.38 132.16 L 101.58 132.23 L 101.77 132.30 L 101.96 132.37 L 102.16 132.44 L 102.35 132.51 L 102.55 132.58 L 102.74 132.65 L 102.94 132.72 L 103.13 132.79 L 103.33 132.85 L 103.52 132.92 L 103.71 132.99 L 103.91 133.06 L 104.10 133.13 L 104.30 133.20 L 104.49 133.27 L 104.69 133.34 L 104.88 133.41 L 105.08 133.47 L 105.27 133.54 L 105.46 133.61 L 105.66 133.68 L 105.85 133.75 L 106.05 133.82 L 106.24 133.88 L 106.44 133.95 L 106.63 134.02 L 106.82 134.09 L 107.02 134.16 L 107.21 134.22 L 107.41 134.29 L 107.60 134.36 L 107.80 134.42 L 107.99 134.49 L 108.19 134.56 L 108.38 134.62 L 108.57 134.69 L 108.77 134.76 L 108.96 134.82 L 109.16 134.89 L 109.35 134.95 L 109.55 135.02 L 109.74 135.08 L 109.94 135.15 L 110.13 135.21 L 110.32 135.28 L 110.52 135.34 L 110.71 135.41 L 110.91 135.47 L 111.10 135.53 L 111.30 135.60 L 111.49 135.66 L 111.69 135.72 L 111.88 135.78 L 112.07 135.84 L 112.27 135.90 L 112.46 135.97 L 112.66 136.03 L 112.85 136.09 L 113.05 136.15 L 113.24 136.21 L 113.44 136.26 L 113.63 136.32 L 113.82 136.38 L 114.02 136.44 L 114.21 136.50 L 114.41 136.55 L 114.60 136.61 L 114.80 136.67 L 114.99 136.72 L 115.19 136.78 L 115.38 136.83 L 115.57 136.88 L 115.77 136.94 L 115.96 136.99 L 116.16 137.04 L 116.35 137.09 L 116.55 137.15 L 116.74 137.20 L 116.93 137.25 L 117.13 137.29 L 117.32 137.34 L 117.52 137.39 L 117.71 137.44 L 117.91 137.48 L 118.10 137.53 L 118.30 137.58 L 118.49 137.62 L 118.68 137.66 L 118.88 137.71 L 119.07 137.75 L 119.27 137.79 L 119.46 137.83 L 119.66 137.87 L 119.85 137.91 L 120.05 137.95 L 120.24 137.98 L 120.43 138.02 L 120.63 138.05 L 120.82 138.09 L 121.02 138.12 L 121.21 138.15 L 121.41 138.18 L 121.60 138.21 L 121.80 138.24 L 121.99 138.27 L 122.18 138.30 L 122.38 138.32 L 122.57 138.35 L 122.77 138.37 L 122.96 138.39 L 123.16 138.42 L 123.35 138.44 L 123.55 138.45 L 123.74 138.47 L 123.93 138.49 L 124.13 138.50 L 124.32 138.52 L 124.52 138.53 L 124.71 138.54 L 124.91 138.55 L 125.10 138.55 L 125.30 138.56 L 125.49 138.57 L 125.68 138.57 L 125.88 138.57 L 126.07 138.57 L 126.27 138.57 L 126.46 138.57 L 126.66 138.56 L 126.85 138.56 L 127.05 138.55 L 127.24 138.54 L 127.43 138.53 L 127.63 138.51 L 127.82 138.50 L 128.02 138.48 L 128.21 138.46 L 128.41 138.44 L 128.60 138.42 L 128.79 138.39 L 128.99 138.37 L 129.18 138.34 L 129.38 138.31 L 129.57 138.27 L 129.77 138.24 L 129.96 138.20 L 130.16 138.16 L 130.35 138.12 L 130.54 138.08 L 130.74 138.03 L 130.93 137.98 L 131.13 137.93 L 131.32 137.88 L 131.52 137.82 L 131.71 137.76 L 131.91 137.70 L 132.10 137.64 L 132.29 137.57 L 132.49 137.50 L 132.68 137.43 L 132.88 137.36 L 133.07 137.28 L 133.27 137.20 L 133.46 137.12 L 133.66 137.03 L 133.85 136.94 L 134.04 136.85 L 134.24 136.76 L 134.43 136.66 L 134.63 136.56 L 134.82 136.46 L 135.02 136.35 L 135.21 136.24 L 135.41 136.13 L 135.60 136.02 L 135.79 135.90 L 135.99 135.77 L 136.18 135.65 L 136.38 135.52 L 136.57 135.39 L 136.77 135.25 L 136.96 135.11 L 137.16 134.97 L 137.35 134.82 L 137.54 134.67 L 137.74 134.52 L 137.93 134.36 L 138.13 134.20 L 138.32 134.04 L 138.52 133.87 L 138.71 133.70 L 138.90 133.52 L 139.10 133.34 L 139.29 133.15 L 139.49 132.97 L 139.68 132.78 L 139.88 132.58 L 140.07 132.38 L 140.27 132.18 L 140.46 131.97 L 140.65 131.75 L 140.85 131.54 L 141.04 131.32 L 141.24 131.09 L 141.43 130.86 L 141.63 130.63 L 141.82 130.39 L 142.02 130.15 L 142.21 129.90 L 142.40 129.65 L 142.60 129.40 L 142.79 129.14 L 142.99 128.87 L 143.18 128.61 L 143.38 128.33 L 143.57 128.05 L 143.77 127.77 L 143.96 127.49 L 144.15 127.19 L 144.35 126.90 L 144.54 126.60 L 144.74 126.29 L 144.93 125.98 L 145.13 125.67 L 145.32 125.35 L 145.52 125.03 L 145.71 124.70 L 145.90 124.37 L 146.10 124.03 L 146.29 123.69 L 146.49 123.34 L 146.68 122.99 L 146.88 122.63 L 147.07 122.27 L 147.27 121.91 L 147.46 121.54 L 147.65 121.16 L 147.85 120.79 L 148.04 120.40 L 148.24 120.02 L 148.43 119.62 L 148.63 119.23 L 148.82 118.82 L 149.02 118.42 L 149.21 118.01 L 149.40 117.59 L 149.60 117.18 L 149.79 116.75 L 149.99 116.33 L 150.18 115.89 L 150.38 115.46 L 150.57 115.02 L 150.76 114.57 L 150.96 114.12 L 151.15 113.67 L 151.35 113.22 L 151.54 112.76 L 151.74 112.29 L 151.93 111.82 L 152.13 111.35 L 152.32 110.88 L 152.51 110.40 L 152.71 109.92 L 152.90 109.43 L 153.10 108.94 L 153.29 108.45 L 153.49 107.95 L 153.68 107.45 L 153.88 106.95 L 154.07 106.44 L 154.26 105.93 L 154.46 105.42 L 154.65 104.91 L 154.85 104.39 L 155.04 103.87 L 155.24 103.35 L 155.43 102.82 L 155.63 102.30 L 155.82 101.77 L 156.01 101.23 L 156.21 100.70 L 156.40 100.16 L 156.60 99.62 L 156.79 99.08 L 156.99 98.54 L 157.18 98.00 L 157.38 97.45 L 157.57 96.91 L 157.76 96.36 L 157.96 95.81 L 158.15 95.26 L 158.35 94.71 L 158.54 94.16 L 158.74 93.61 L 158.93 93.05 L 159.13 92.50 L 159.32 91.94 L 159.51 91.39 L 159.71 90.83 L 159.90 90.28 L 160.10 89.72 L 160.29 89.17 L 160.49 88.61 L 160.68 88.06 L 160.87 87.50 L 161.07 86.95 L 161.26 86.39 L 161.46 85.84 L 161.65 85.29 L 161.85 84.74 L 162.04 84.19 L 162.24 83.64 L 162.43 83.09 L 162.62 82.55 L 162.82 82.00 L 163.01 81.46 L 163.21 80.92 L 163.40 80.38 L 163.60 79.84 L 163.79 79.30 L 163.99 78.77 L 164.18 78.23 L 164.37 77.70 L 164.57 77.18 L 164.76 76.65 L 164.96 76.13 L 165.15 75.61 L 165.35 75.09 L 165.54 74.58 L 165.74 74.07 L 165.93 73.56 L 166.12 73.05 L 166.32 72.55 L 166.51 72.05 L 166.71 71.55 L 166.90 71.06 L 167.10 70.57 L 167.29 70.08 L 167.49 69.60 L 167.68 69.12 L 167.87 68.65 L 168.07 68.18 L 168.26 67.71 L 168.46 67.24 L 168.65 66.78 L 168.85 66.33 L 169.04 65.88 L 169.24 65.43 L 169.43 64.98 L 169.62 64.54 L 169.82 64.11 L 170.01 63.67 L 170.21 63.25 L 170.40 62.82 L 170.60 62.41 L 170.79 61.99 L 170.98 61.58 L 171.18 61.18 L 171.37 60.77 L 171.57 60.38 L 171.76 59.98 L 171.96 59.60 L 172.15 59.21 L 172.35 58.84 L 172.54 58.46 L 172.73 58.09 L 172.93 57.73 L 173.12 57.37 L 173.32 57.01 L 173.51 56.66 L 173.71 56.31 L 173.90 55.97 L 174.10 55.63 L 174.29 55.30 L 174.48 54.97 L 174.68 54.65 L 174.87 54.33 L 175.07 54.02 L 175.26 53.71 L 175.46 53.40 L 175.65 53.10 L 175.85 52.81 L 176.04 52.51 L 176.23 52.23 L 176.43 51.95 L 176.62 51.67 L 176.82 51.39 L 177.01 51.13 L 177.21 50.86 L 177.40 50.60 L 177.60 50.35 L 177.79 50.10 L 177.98 49.85 L 178.18 49.61 L 178.37 49.37 L 178.57 49.14 L 178.76 48.91 L 178.96 48.68 L 179.15 48.46 L 179.35 48.25 L 179.54 48.03 L 179.73 47.82 L 179.93 47.62 L 180.12 47.42 L 180.32 47.22 L 180.51 47.03 L 180.71 46.85 L 180.90 46.66 L 181.10 46.48 L 181.29 46.30 L 181.48 46.13 L 181.68 45.96 L 181.87 45.80 L 182.07 45.64 L 182.26 45.48 L 182.46 45.33 L 182.65 45.18 L 182.84 45.03 L 183.04 44.89 L 183.23 44.75 L 183.43 44.61 L 183.62 44.48 L 183.82 44.35 L 184.01 44.23 L 184.21 44.10 L 184.40 43.98 L 184.59 43.87 L 184.79 43.76 L 184.98 43.65 L 185.18 43.54 L 185.37 43.44 L 185.57 43.34 L 185.76 43.24 L 185.96 43.15 L 186.15 43.06 L 186.34 42.97 L 186.54 42.88 L 186.73 42.80 L 186.93 42.72 L 187.12 42.64 L 187.32 42.57 L 187.51 42.50 L 187.71 42.43 L 187.90 42.36 L 188.09 42.30 L 188.29 42.24 L 188.48 42.18 L 188.68 42.12 L 188.87 42.07 L 189.07 42.02 L 189.26 41.97 L 189.46 41.92 L 189.65 41.88 L 189.84 41.84 L 190.04 41.80 L 190.23 41.76 L 190.43 41.73 L 190.62 41.69 L 190.82 41.66 L 191.01 41.63 L 191.21 41.61 L 191.40 41.58 L 191.59 41.56 L 191.79 41.54 L 191.98 41.52 L 192.18 41.50 L 192.37 41.49 L 192.57 41.47 L 192.76 41.46 L 192.95 41.45 L 193.15 41.44 L 193.34 41.44 L 193.54 41.43 L 193.73 41.43 L 193.93 41.43 L 194.12 41.43 L 194.32 41.43 L 194.51 41.43 L 194.70 41.44 L 194.90 41.45 L 195.09 41.45 L 195.29 41.46 L 195.48 41.47 L 195.68 41.48 L 195.87 41.50 L 196.07 41.51 L 196.26 41.53 L 196.45 41.55 L 196.65 41.56 L 196.84 41.58 L 197.04 41.61 L 197.23 41.63 L 197.43 41.65 L 197.62 41.68 L 197.82 41.70 L 198.01 41.73 L 198.20 41.76 L 198.40 41.79 L 198.59 41.82 L 198.79 41.85 L 198.98 41.88 L 199.18 41.91 L 199.37 41.95 L 199.57 41.98 L 199.76 42.02 L 199.95 42.05 L 200.15 42.09 L 200.34 42.13 L 200.54 42.17 L 200.73 42.21 L 200.93 42.25 L 201.12 42.29 L 201.32 42.34 L 201.51 42.38 L 201.70 42.42 L 201.90 42.47 L 202.09 42.52 L 202.29 42.56 L 202.48 42.61 L 202.68 42.66 L 202.87 42.71 L 203.07 42.75 L 203.26 42.80 L 203.45 42.85 L 203.65 42.91 L 203.84 42.96 L 204.04 43.01 L 204.23 43.06 L 204.43 43.12 L 204.62 43.17 L 204.81 43.22 L 205.01 43.28 L 205.20 43.33 L 205.40 43.39 L 205.59 43.45 L 205.79 43.50 L 205.98 43.56 L 206.18 43.62 L 206.37 43.68 L 206.56 43.74 L 206.76 43.79 L 206.95 43.85 L 207.15 43.91 L 207.34 43.97 L 207.54 44.03 L 207.73 44.10 L 207.93 44.16 L 208.12 44.22 L 208.31 44.28 L 208.51 44.34 L 208.70 44.40 L 208.90 44.47 L 209.09 44.53 L 209.29 44.59 L 209.48 44.66 L 209.68 44.72 L 209.87 44.79 L 210.06 44.85 L 210.26 44.92 L 210.45 44.98 L 210.65 45.05 L 210.84 45.11 L 211.04 45.18 L 211.23 45.24 L 211.43 45.31 L 211.62 45.38 L 211.81 45.44 L 212.01 45.51 L 212.20 45.58 L 212.40 45.64 L 212.59 45.71 L 212.79 45.78 L 212.98 45.84 L 213.18 45.91 L 213.37 45.98 L 213.56 46.05 L 213.76 46.12 L 213.95 46.18 L 214.15 46.25 L 214.34 46.32 L 214.54 46.39 L 214.73 46.46 L 214.92 46.53 L 215.12 46.59 L 215.31 46.66 L 215.51 46.73 L 215.70 46.80 L 215.90 46.87 L 216.09 46.94 L 216.29 47.01 L 216.48 47.08 L 216.67 47.15 L 216.87 47.21 L 217.06 47.28 L 217.26 47.35 L 217.45 47.42 L 217.65 47.49 L 217.84 47.56 L 218.04 47.63 L 218.23 47.70 L 218.42 47.77 L 218.62 47.84 L 218.81 47.91 L 219.01 47.98 L 219.20 48.05 L 219.40 48.12 L 219.59 48.19 L 219.79 48.26 L 219.98 48.33 L 220.17 48.39 L 220.37 48.46 L 220.56 48.53 L 220.76 48.60 L 220.95 48.67 L 221.15 48.74 L 221.34 48.81 L 221.54 48.88 L 221.73 48.95 L 221.92 49.02 L 222.12 49.09 L 222.31 49.16 L 222.51 49.22 L 222.70 49.29 L 222.90 49.36 L 223.09 49.43 L 223.29 49.50 L 223.48 49.57 L 223.67 49.64 L 223.87 49.71 L 224.06 49.77 L 224.26 49.84 L 224.45 49.91 L 224.65 49.98 L 224.84 50.05 L 225.04 50.12 L 225.23 50.18 L 225.42 50.25 L 225.62 50.32 L 225.81 50.39 L 226.01 50.45 L 226.20 50.52 L 226.40 50.59 L 226.59 50.66 L 226.78 50.72 L 226.98 50.79 L 227.17 50.86 L 227.37 50.93 L 227.56 50.99 L 227.76 51.06 L 227.95 51.13 L 228.15 51.19 L 228.34 51.26 L 228.53 51.33 L 228.73 51.39 L 228.92 51.46 L 229.12 51.52 L 229.31 51.59 L 229.51 51.66 L 229.70 51.72 L 229.90 51.79 L 230.09 51.85 L 230.28 51.92 L 230.48 51.98 L 230.67 52.05 L 230.87 52.11 L 231.06 52.18 L 231.26 52.24 L 231.45 52.31 L 231.65 52.37 L 231.84 52.44 L 232.03 52.50 L 232.23 52.57 L 232.42 52.63 L 232.62 52.70 L 232.81 52.76 L 233.01 52.82 L 233.20 52.89 L 233.40 52.95 L 233.59 53.01 L 233.78 53.08 L 233.98 53.14 L 234.17 53.20 L 234.37 53.27 L 234.56 53.33 L 234.76 53.39 L 234.95 53.45 L 235.15 53.52 L 235.34 53.58 L 235.53 53.64 L 235.73 53.70 L 235.92 53.76 L 236.12 53.83 L 236.31 53.89 L 236.51 53.95 L 236.70 54.01 L 236.89 54.07 L 237.09 54.13 L 237.28 54.19 L 237.48 54.25 L 237.67 54.31 L 237.87 54.38 L 238.06 54.44 L 238.26 54.50 L 238.45 54.56 L 238.64 54.62 L 238.84 54.68 L 239.03 54.74 L 239.23 54.80 L 239.42 54.85 L 239.62 54.91 L 239.81 54.97 L 240.01 55.03 L 240.20 55.09 L 240.39 55.15 L 240.59 55.21 L 240.78 55.27 L 240.98 55.33 L 241.17 55.38 L 241.37 55.44 L 241.56 55.50 L 241.76 55.56 L 241.95 55.62 L 242.14 55.67 L 242.34 55.73 L 242.53 55.79 L 242.73 55.84 L 242.92 55.90 L 243.12 55.96 L 243.31 56.02 L 243.51 56.07 L 243.70 56.13 L 243.89 56.18 L 244.09 56.24 L 244.28 56.30 L 244.48 56.35 L 244.67 56.41 L 244.87 56.46 L 245.06 56.52 L 245.26 56.58 L 245.45 56.63 L 245.64 56.69 L 245.84 56.74 L 246.03 56.80 L 246.23 56.85 L 246.42 56.90 L 246.62 56.96 L 246.81 57.01 L 247.01 57.07 L 247.20 57.12 L 247.39 57.18 L 247.59 57.23 L 247.78 57.28 L 247.98 57.34 L 248.17 57.39 L 248.37 57.44 L 248.56 57.50 L 248.75 57.55 L 248.95 57.60 L 249.14 57.65 L 249.34 57.71 L 249.53 57.76 L 249.73 57.81 L 249.92 57.86 L 250.12 57.92 L 250.31 57.97 L 250.50 58.02 L 250.70 58.07 L 250.89 58.12 L 251.09 58.17 L 251.28 58.23 L 251.48 58.28 L 251.67 58.33 L 251.87 58.38 L 252.06 58.43 L 252.25 58.48 L 252.45 58.53 L 252.64 58.58 L 252.84 58.63 L 253.03 58.68 L 253.23 58.73 L 253.42 58.78 L 253.62 58.83 L 253.81 58.88 L 254.00 58.93 L 254.20 58.98 L 254.39 59.03 L 254.59 59.08 L 254.78 59.13 L 254.98 59.17 L 255.17 59.22 L 255.37 59.27 L 255.56 59.32 L 255.75 59.37 L 255.95 59.42 L 256.14 59.47 L 256.34 59.51 L 256.53 59.56 L 256.73 59.61 L 256.92 59.66 L 257.12 59.70 L 257.31 59.75 L 257.50 59.80 L 257.70 59.85 L 257.89 59.89 L 258.09 59.94 L 258.28 59.99 L 258.48 60.03 L 258.67 60.08 L 258.86 60.13 L 259.06 60.17 L 259.25 60.22 L 259.45 60.26 L 259.64 60.31 L 259.84 60.36 L 260.03 60.40 L 260.23 60.45 L 260.42 60.49 L 260.61 60.54 L 260.81 60.58 L 261.00 60.63 L 261.20 60.67 L 261.39 60.72 L 261.59 60.76 L 261.78 60.81 L 261.98 60.85 L 262.17 60.90 L 262.36 60.94 L 262.56 60.98 L 262.75 61.03 L 262.95 61.07 L 263.14 61.12 L 263.34 61.16 L 263.53 61.20 L 263.73 61.25 L 263.92 61.29 L 264.11 61.33 L 264.31 61.38 L 264.50 61.42 L 264.70 61.46 L 264.89 61.51 L 265.09 61.55 L 265.28 61.59 L 265.48 61.63 L 265.67 61.68 L 265.86 61.72 L 266.06 61.76 L 266.25 61.80 L 266.45 61.84 L 266.64 61.89 L 266.84 61.93 L 267.03 61.97 L 267.23 62.01 L 267.42 62.05 L 267.61 62.09 L 267.81 62.14 L 268.00 62.18 L 268.20 62.22 L 268.39 62.26 L 268.59 62.30 L 268.78 62.34 L 268.97 62.38 L 269.17 62.42 L 269.36 62.46 L 269.56 62.50 L 269.75 62.54 L 269.95 62.58 L 270.14 62.62 L 270.34 62.66 L 270.53 62.70 L 270.72 62.74 L 270.92 62.78 L 271.11 62.82 L 271.31 62.86 L 271.50 62.90 L 271.70 62.94 L 271.89 62.98 L 272.09 63.02 L 272.28 63.05 L 272.47 63.09 L 272.67 63.13 L 272.86 63.17 L 273.06 63.21 L 273.25 63.25 L 273.45 63.29 L 273.64 63.32 L 273.84 63.36 L 274.03 63.40 L 274.22 63.44 L 274.42 63.48 L 274.61 63.51 L 274.81 63.55 L 275.00 63.59 L 275.20 63.63 L 275.39 63.66 L 275.59 63.70 L 275.78 63.74 L 275.97 63.77 L 276.17 63.81 L 276.36 63.85 L 276.56 63.89 L 276.75 63.92 L 276.95 63.96 L 277.14 64.00 L 277.34 64.03 L 277.53 64.07 L 277.72 64.10 L 277.92 64.14 L 278.11 64.18 L 278.31 64.21 L 278.50 64.25 L 278.70 64.28 L 278.89 64.32 L 279.09 64.36 L 279.28 64.39 L 279.47 64.43 L 279.67 64.46 L 279.86 64.50 L 280.06 64.53 L 280.25 64.57 L 280.45 64.60 L 280.64 64.64 L 280.83 64.67 L 281.03 64.71 L 281.22 64.74 L 281.42 64.78 L 281.61 64.81 L 281.81 64.84 L 282.00 64.88 L 282.20 64.91 L 282.39 64.95 L 282.58 64.98 L 282.78 65.02 L 282.97 65.05 L 283.17 65.08 L 283.36 65.12 L 283.56 65.15 L 283.75 65.18 L 283.95 65.22 L 284.14 65.25 L 284.33 65.28 L 284.53 65.32 L 284.72 65.35 L 284.92 65.38 L 285.11 65.42 L 285.31 65.45 L 285.50 65.48 L 285.70 65.51 L 285.89 65.55 L 286.08 65.58 L 286.28 65.61 L 286.47 65.65 L 286.67 65.68 L 286.86 65.71 L 287.06 65.74 L 287.25 65.77 L 287.45 65.81 L 287.64 65.84 L 287.83 65.87 L 288.03 65.90 L 288.22 65.93 L 288.42 65.97 L 288.61 66.00 L 288.81 66.03 L 289.00 66.06 L 289.20 66.09 L 289.39 66.12 L 289.58 66.15 L 289.78 66.18 L 289.97 66.22 L 290.17 66.25 L 290.36 66.28 L 290.56 66.31 L 290.75 66.34 L 290.94 66.37 L 291.14 66.40 L 291.33 66.43 L 291.53 66.46 L 291.72 66.49 L 291.92 66.52 L 292.11 66.55 L 292.31 66.58 L 292.50 66.61 L 292.69 66.64 L 292.89 66.67 L 293.08 66.70 L 293.28 66.73 L 293.47 66.76 L 293.67 66.79 L 293.86 66.82 L 294.06 66.85 L 294.25 66.88 L 294.44 66.91 L 294.64 66.94 L 294.83 66.97 L 295.03 67.00 L 295.22 67.03 L 295.42 67.06 L 295.61 67.09 L 295.81 67.11 L 296.00 67.14" fill="none" stroke="#5F6B7A" stroke-width="2.5" stroke-linecap="round" stroke-linejoin="round"/>
</svg>
