<svg xmlns="http://www.w3.org/2000/svg" viewBox="0 0 320 180" width="320" height="180">
  <rect width="320" height="180" fill="#F4F5F7"/>
  <path d="M 24.00 149.34 L 24.30 146.82 L 24.61 145.78 L 24.91 144.97 L 25.21 144.30 L 25.51 143.70 L 25.82 143.16 L 26.12 142.67 L 26.42 142.20 L 26.72 141.77 L 27.03 141.36 L 27.33 140.97 L 27.63 140.59 L 27.93 140.23 L 28.24 139.89 L 28.54 139.55 L 28.84 139.23 L 29.14 138.92 L 29.45 138.61 L 29.75 138.32 L 30.05 138.03 L 30.35 137.75 L 30.66 137.47 L 30.96 137.20 L 31.26 136.94 L 31.56 136.68 L 31.87 136.43 L 32.17 136.18 L 32.47 135.94 L 32.77 135.70 L 33.08 135.46 L 33.38 135.23 L 33.68 135.00 L 33.98 134.78 L 34.29 134.55 L 34.59 134.33 L 34.89 134.12 L 35.19 133.91 L 35.50 133.70 L 35.80 133.49 L 36.10 133.28 L 36.40 133.08 L 36.71 132.88 L 37.01 132.68 L 37.31 132.49 L 37.62 132.29 L 37.92 132.10 L 38.22 131.91 L 38.52 131.72 L 38.83 131.54 L 39.13 131.35 L 39.43 131.17 L 39.73 130.99 L 40.04 130.81 L 40.34 130.63 L 40.64 130.46 L 40.94 130.28 L 41.25 130.11 L 41.55 129.94 L 41.85 129.77 L 42.15 129.60 L 42.46 129.43 L 42.76 129.26 L 43.06 129.10 L 43.36 128.93 L 43.67 128.77 L 43.97 128.61 L 44.27 128.45 L 44.57 128.29 L 44.88 128.13 L 45.18 127.97 L 45.48 127.82 L 45.78 127.66 L 46.09 127.51 L 46.39 127.36 L 46.69 127.20 L 46.99 127.05 L 47.30 126.90 L 47.60 126.75 L 47.90 126.60 L 48.20 126.45 L 48.51 126.31 L 48.81 126.16 L 49.11 126.01 L 49.41 125.87 L 49.72 125.73 L 50.02 125.58 L 50.32 125.44 L 50.63 125.30 L 50.93 125.16 L 51.23 125.02 L 51.53 124.88 L 51.84 124.74 L 52.14 124.60 L 52.44 124.46 L 52.74 124.33 L 53.05 124.19 L 53.35 124.05 L 53.65 123.92 L 53.95 123.78 L 54.26 123.65 L 54.56 123.52 L 54.86 123.38 L 55.16 123.25 L 55.47 123.12 L 55.77 122.99 L 56.07 122.86 L 56.37 122.73 L 56.68 122.60 L 56.98 122.47 L 57.28 122.34 L 57.58 122.21 L 57.89 122.09 L 58.19 121.96 L 58.49 121.83 L 58.79 121.71 L 59.10 121.58 L 59.40 121.46 L 59.70 121.33 L 60.00 121.21 L 60.31 121.08 L 60.61 120.96 L 60.91 120.84 L 61.21 120.71 L 61.52 120.59 L 61.82 120.47 L 62.12 120.35 L 62.42 120.23 L 62.73 120.11 L 63.03 119.99 L 63.33 119.87 L 63.64 119.75 L 63.94 119.63 L 64.24 119.51 L 64.54 119.39 L 64.85 119.28 L 65.15 119.16 L 65.45 119.04 L 65.75 118.92 L 66.06 118.81 L 66.36 118.69 L 66.66 118.58 L 66.96 118.46 L 67.27 118.35 L 67.57 118.23 L 67.87 118.12 L 68.17 118.00 L 68.48 117.89 L 68.78 117.77 L 69.08 117.66 L 69.38 117.55 L 69.69 117.44 L 69.99 117.32 L 70.29 117.21 L 70.59 117.10 L 70.90 116.99 L 71.20 116.88 L 71.50 116.77 L 71.80 116.66 L 72.11 116.55 L 72.41 116.44 L 72.71 116.33 L 73.01 116.22 L 73.32 116.11 L 73.62 116.00 L 73.92 115.89 L 74.22 115.78 L 74.53 115.67 L 74.83 115.57 L 75.13 115.46 L 75.43 115.35 L 75.74 115.24 L 76.04 115.14 L 76.34 115.03 L 76.65 114.92 L 76.95 114.82 L 77.25 114.71 L 77.55 114.61 L 77.86 114.50 L 78.16 114.39 L 78.46 114.29 L 78.76 114.18 L 79.07 114.08 L 79.37 113.97 L 79.67 113.87 L 79.97 113.77 L 80.28 113.66 L 80.58 113.56 L 80.88 113.46 L 81.18 113.35 L 81.49 113.25 L 81.79 113.15 L 82.09 113.04 L 82.39 112.94 L 82.70 112.84 L 83.00 112.74 L 83.30 112.64 L 83.60 112.53 L 83.91 112.43 L 84.21 112.33 L 84.51 112.23 L 84.81 112.13 L 85.12 112.03 L 85.42 111.93 L 85.72 111.83 L 86.02 111.73 L 86.33 111.63 L 86.63 111.53 L 86.93 111.43 L 87.23 111.33 L 87.54 111.23 L 87.84 111.13 L 88.14 111.03 L 88.44 110.93 L 88.75 110.83 L 89.05 110.73 L 89.35 110.64 L 89.66 110.54 L 89.96 110.44 L 90.26 110.34 L 90.56 110.24 L 90.87 110.15 L 91.17 110.05 L 91.47 109.95 L 91.77 109.85 L 92.08 109.76 L 92.38 109.66 L 92.68 109.56 L 92.98 109.47 L 93.29 109.37 L 93.59 109.27 L 93.89 109.18 L 94.19 109.08 L 94.50 108.98 L 94.80 108.89 L 95.10 108.79 L 95.40 108.70 L 95.71 108.60 L 96.01 108.51 L 96.31 108.41 L 96.61 108.32 L 96.92 108.22 L 97.22 108.13 L 97.52 108.03 L 97.82 107.94 L 98.13 107.84 L 98.43 107.75 L 98.73 107.65 L 99.03 107.56 L 99.34 107.47 L 99.64 107.37 L 99.94 107.28 L 100.24 107.19 L 100.55 107.09 L 100.85 107.00 L 101.15 106.91 L 101.45 106.81 L 101.76 106.72 L 102.06 106.63 L 102.36 106.53 L 102.67 106.44 L 102.97 106.35 L 103.27 106.26 L 103.57 106.16 L 103.88 106.07 L 104.18 105.98 L 104.48 105.89 L 104.78 105.79 L 105.09 105.70 L 105.39 105.61 L 105.69 105.52 L 105.99 105.43 L 106.30 105.34 L 106.60 105.24 L 106.90 105.15 L 107.20 105.06 L 107.51 104.97 L 107.81 104.88 L 108.11 104.79 L 108.41 104.70 L 108.72 104.61 L 109.02 104.52 L 109.32 104.43 L 109.62 104.33 L 109.93 104.24 L 110.23 104.15 L 110.53 104.06 L 110.83 103.97 L 111.14 103.88 L 111.44 103.79 L 111.74 103.70 L 112.04 103.61 L 112.35 103.52 L 112.65 103.43 L 112.95 103.34 L 113.25 103.26 L 113.56 103.17 L 113.86 103.08 L 114.16 102.99 L 114.46 102.90 L 114.77 102.81 L 115.07 102.72 L 115.37 102.63 L 115.68 102.54 L 115.98 102.45 L 116.28 102.36 L 116.58 102.28 L 116.89 102.19 L 117.19 102.10 L 117.49 102.01 L 117.79 101.92 L 118.10 101.83 L 118.40 101.74 L 118.70 101.66 L 119.00 101.57 L 119.31 101.48 L 119.61 101.39 L 119.91 101.30 L 120.21 101.22 L 120.52 101.13 L 120.82 101.04 L 121.12 100.95 L 121.42 100.86 L 121.73 100.78 L 122.03 100.69 L 122.33 100.60 L 122.63 100.51 L 122.94 100.43 L 123.24 100.34 L 123.54 100.25 L 123.84 100.17 L 124.15 100.08 L 124.45 99.99 L 124.75 99.90 L 125.05 99.82 L 125.36 99.73 L 125.66 99.64 L 125.96 99.56 L 126.26 99.47 L 126.57 99.38 L 126.87 99.30 L 127.17 99.21 L 127.47 99.12 L 127.78 99.04 L 128.08 98.95 L 128.38 98.86 L 128.69 98.78 L 128.99 98.69 L 129.29 98.60 L 129.59 98.52 L 129.90 98.43 L 130.20 98.35 L 130.50 98.26 L 130.80 98.17 L 131.11 98.09 L 131.41 98.00 L 131.71 97.92 L 132.01 97.83 L 132.32 97.74 L 132.62 97.66 L 132.92 97.57 L 133.22 97.49 L 133.53 97.40 L 133.83 97.32 L 134.13 97.23 L 134.43 97.14 L 134.74 97.06 L 135.04 96.97 L 135.34 96.89 L 135.64 96.80 L 135.95 96.72 L 136.25 96.63 L 136.55 96.55 L 136.85 96.46 L 137.16 96.38 L 137.46 96.29 L 137.76 96.21 L 138.06 96.12 L 138.37 96.03 L 138.67 95.95 L 138.97 95.86 L 139.27 95.78 L 139.58 95.69 L 139.88 95.61 L 140.18 95.52 L 140.48 95.44 L 140.79 95.35 L 141.09 95.27 L 141.39 95.18 L 141.70 95.10 L 142.00 95.02 L 142.30 94.93 L 142.60 94.85 L 142.91 94.76 L 143.21 94.68 L 143.51 94.59 L 143.81 94.51 L 144.12 94.42 L 144.42 94.34 L 144.72 94.25 L 145.02 94.17 L 145.33 94.08 L 145.63 94.00 L 145.93 93.92 L 146.23 93.83 L 146.54 93.75 L 146.84 93.66 L 147.14 93.58 L 147.44 93.49 L 147.75 93.41 L 148.05 93.32 L 148.35 93.24 L 148.65 93.16 L 148.96 93.07 L 149.26 92.99 L 149.56 92.90 L 149.86 92.82 L 150.17 92.73 L 150.47 92.65 L 150.77 92.57 L 151.07 92.48 L 151.38 92.40 L 151.68 92.31 L 151.98 92.23 L 152.28 92.14 L 152.59 92.06 L 152.89 91.98 L 153.19 91.89 L 153.49 91.81 L 153.80 91.72 L 154.10 91.64 L 154.40 91.56 L 154.71 91.47 L 155.01 91.39 L 155.31 91.30 L 155.61 91.22 L 155.92 91.13 L 156.22 91.05 L 156.52 90.97 L 156.82 90.88 L 157.13 90.80 L 157.43 90.71 L 157.73 90.63 L 158.03 90.55 L 158.34 90.46 L 158.64 90.38 L 158.94 90.29 L 159.24 90.21 L 159.55 90.13 L 159.85 90.04 L 160.15 89.96 L 160.45 89.87 L 160.76 89.79 L 161.06 89.71 L 161.36 89.62 L 161.66 89.54 L 161.97 89.45 L 162.27 89.37 L 162.57 89.29 L 162.87 89.20 L 163.18 89.12 L 163.48 89.03 L 163.78 88.95 L 164.08 88.87 L 164.39 88.78 L 164.69 88.70 L 164.99 88.61 L 165.29 88.53 L 165.60 88.44 L 165.90 88.36 L 166.20 88.28 L 166.51 88.19 L 166.81 88.11 L 167.11 88.02 L 167.41 87.94 L 167.72 87.86 L 168.02 87.77 L 168.32 87.69 L 168.62 87.60 L 168.93 87.52 L 169.23 87.43 L 169.53 87.35 L 169.83 87.27 L 170.14 87.18 L 170.44 87.10 L 170.74 87.01 L 171.04 86.93 L 171.35 86.84 L 171.65 86.76 L 171.95 86.68 L 172.25 86.59 L 172.56 86.51 L 172.86 86.42 L 173.16 86.34 L 173.46 86.25 L 173.77 86.17 L 174.07 86.08 L 174.37 86.00 L 174.67 85.92 L 174.98 85.83 L 175.28 85.75 L 175.58 85.66 L 175.88 85.58 L 176.19 85.49 L 176.49 85.41 L 176.79 85.32 L 177.09 85.24 L 177.40 85.15 L 177.70 85.07 L 178.00 84.98 L 178.30 84.90 L 178.61 84.82 L 178.91 84.73 L 179.21 84.65 L 179.52 84.56 L 179.82 84.48 L 180.12 84.39 L 180.42 84.31 L 180.73 84.22 L 181.03 84.14 L 181.33 84.05 L 181.63 83.97 L 181.94 83.88 L 182.24 83.79 L 182.54 83.71 L 182.84 83.62 L 183.15 83.54 L 183.45 83.45 L 183.75 83.37 L 184.05 83.28 L 184.36 83.20 L 184.66 83.11 L 184.96 83.03 L 185.26 82.94 L 185.57 82.86 L 185.87 82.77 L 186.17 82.68 L 186.47 82.60 L 186.78 82.51 L 187.08 82.43 L 187.38 82.34 L 187.68 82.26 L 187.99 82.17 L 188.29 82.08 L 188.59 82.00 L 188.89 81.91 L 189.20 81.83 L 189.50 81.74 L 189.80 81.65 L 190.10 81.57 L 190.41 81.48 L 190.71 81.40 L 191.01 81.31 L 191.31 81.22 L 191.62 81.14 L 191.92 81.05 L 192.22 80.96 L 192.53 80.88 L 192.83 80.79 L 193.13 80.70 L 193.43 80.62 L 193.74 80.53 L 194.04 80.44 L 194.34 80.36 L 194.64 80.27 L 194.95 80.18 L 195.25 80.10 L 195.55 80.01 L 195.85 79.92 L 196.16 79.83 L 196.46 79.75 L 196.76 79.66 L 197.06 79.57 L 197.37 79.49 L 197.67 79.40 L 197.97 79.31 L 198.27 79.22 L 198.58 79.14 L 198.88 79.05 L 199.18 78.96 L 199.48 78.87 L 199.79 78.78 L 200.09 78.70 L 200.39 78.61 L 200.69 78.52 L 201.00 78.43 L 201.30 78.34 L 201.60 78.26 L 201.90 78.17 L 202.21 78.08 L 202.51 77.99 L 202.81 77.90 L 203.11 77.81 L 203.42 77.72 L 203.72 77.64 L 204.02 77.55 L 204.32 77.46 L 204.63 77.37 L 204.93 77.28 L 205.23 77.19 L 205.54 77.10 L 205.84 77.01 L 206.14 76.92 L 206.44 76.83 L 206.75 76.74 L 207.05 76.66 L 207.35 76.57 L 207.65 76.48 L 207.96 76.39 L 208.26 76.30 L 208.56 76.21 L 208.86 76.12 L 209.17 76.03 L 209.47 75.94 L 209.77 75.85 L 210.07 75.76 L 210.38 75.67 L 210.68 75.57 L 210.98 75.48 L 211.28 75.39 L 211.59 75.30 L 211.89 75.21 L 212.19 75.12 L 212.49 75.03 L 212.80 74.94 L 213.10 74.85 L 213.40 74.76 L 213.70 74.66 L 214.01 74.57 L 214.31 74.48 L 214.61 74.39 L 214.91 74.30 L 215.22 74.21 L 215.52 74.11 L 215.82 74.02 L 216.12 73.93 L 216.43 73.84 L 216.73 73.74 L 217.03 73.65 L 217.33 73.56 L 217.64 73.47 L 217.94 73.37 L 218.24 73.28 L 218.55 73.19 L 218.85 73.09 L 219.15 73.00 L 219.45 72.91 L 219.76 72.81 L 220.06 72.72 L 220.36 72.63 L 220.66 72.53 L 220.97 72.44 L 221.27 72.35 L 221.57 72.25 L 221.87 72.16 L 222.18 72.06 L 222.48 71.97 L 222.78 71.87 L 223.08 71.78 L 223.39 71.68 L 223.69 71.59 L 223.99 71.49 L 224.29 71.40 L 224.60 71.30 L 224.90 71.21 L 225.20 71.11 L 225.50 71.02 L 225.81 70.92 L 226.11 70.82 L 226.41 70.73 L 226.71 70.63 L 227.02 70.53 L 227.32 70.44 L 227.62 70.34 L 227.92 70.24 L 228.23 70.15 L 228.53 70.05 L 228.83 69.95 L 229.13 69.85 L 229.44 69.76 L 229.74 69.66 L 230.04 69.56 L 230.34 69.46 L 230.65 69.36 L 230.95 69.27 L 231.25 69.17 L 231.56 69.07 L 231.86 68.97 L 232.16 68.87 L 232.46 68.77 L 232.77 68.67 L 233.07 68.57 L 233.37 68.47 L 233.67 68.37 L 233.98 68.27 L 234.28 68.17 L 234.58 68.07 L 234.88 67.97 L 235.19 67.87 L 235.49 67.77 L 235.79 67.67 L 236.09 67.57 L 236.40 67.47 L 236.70 67.36 L 237.00 67.26 L 237.30 67.16 L 237.61 67.06 L 237.91 66.96 L 238.21 66.85 L 238.51 66.75 L 238.82 66.65 L 239.12 66.54 L 239.42 66.44 L 239.72 66.34 L 240.03 66.23 L 240.33 66.13 L 240.63 66.03 L 240.93 65.92 L 241.24 65.82 L 241.54 65.71 L 241.84 65.61 L 242.14 65.50 L 242.45 65.39 L 242.75 65.29 L 243.05 65.18 L 243.35 65.08 L 243.66 64.97 L 243.96 64.86 L 244.26 64.76 L 244.57 64.65 L 244.87 64.54 L 245.17 64.43 L 245.47 64.33 L 245.78 64.22 L 246.08 64.11 L 246.38 64.00 L 246.68 63.89 L 246.99 63.78 L 247.29 63.67 L 247.59 63.56 L 247.89 63.45 L 248.20 63.34 L 248.50 63.23 L 248.80 63.12 L 249.10 63.01 L 249.41 62.90 L 249.71 62.79 L 250.01 62.68 L 250.31 62.56 L 250.62 62.45 L 250.92 62.34 L 251.22 62.23 L 251.52 62.11 L 251.83 62.00 L 252.13 61.88 L 252.43 61.77 L 252.73 61.65 L 253.04 61.54 L 253.34 61.42 L 253.64 61.31 L 253.94 61.19 L 254.25 61.08 L 254.55 60.96 L 254.85 60.84 L 255.15 60.72 L 255.46 60.61 L 255.76 60.49 L 256.06 60.37 L 256.36 60.25 L 256.67 60.13 L 256.97 60.01 L 257.27 59.89 L 257.58 59.77 L 257.88 59.65 L 258.18 59.53 L 258.48 59.41 L 258.79 59.29 L 259.09 59.16 L 259.39 59.04 L 259.69 58.92 L 260.00 58.79 L 260.30 58.67 L 260.60 58.54 L 260.90 58.42 L 261.21 58.29 L 261.51 58.17 L 261.81 58.04 L 262.11 57.91 L 262.42 57.79 L 262.72 57.66 L 263.02 57.53 L 263.32 57.40 L 263.63 57.27 L 263.93 57.14 L 264.23 57.01 L 264.53 56.88 L 264.84 56.75 L 265.14 56.62 L 265.44 56.48 L 265.74 56.35 L 266.05 56.22 L 266.35 56.08 L 266.65 55.95 L 266.95 55.81 L 267.26 55.67 L 267.56 55.54 L 267.86 55.40 L 268.16 55.26 L 268.47 55.12 L 268.77 54.98 L 269.07 54.84 L 269.37 54.70 L 269.68 54.56 L 269.98 54.42 L 270.28 54.27 L 270.59 54.13 L 270.89 53.99 L 271.19 53.84 L 271.49 53.69 L 271.80 53.55 L 272.10 53.40 L 272.40 53.25 L 272.70 53.10 L 273.01 52.95 L 273.31 52.80 L 273.61 52.64 L 273.91 52.49 L 274.22 52.34 L 274.52 52.18 L 274.82 52.03 L 275.12 51.87 L 275.43 51.71 L 275.73 51.55 L 276.03 51.39 L 276.33 51.23 L 276.64 51.07 L 276.94 50.90 L 277.24 50.74 L 277.54 50.57 L 277.85 50.40 L 278.15 50.23 L 278.45 50.06 L 278.75 49.89 L 279.06 49.72 L 279.36 49.54 L 279.66 49.37 L 279.96 49.19 L 280.27 49.01 L 280.57 48.83 L 280.87 48.65 L 281.17 48.46 L 281.48 48.28 L 281.78 48.09 L 282.08 47.90 L 282.38 47.71 L 282.69 47.51 L 282.99 47.32 L 283.29 47.12 L 283.60 46.92 L 283.90 46.72 L 284.20 46.51 L 284.50 46.30 L 284.81 46.09 L 285.11 45.88 L 285.41 45.67 L 285.71 45.45 L 286.02 45.22 L 286.32 45.00 L 286.62 44.77 L 286.92 44.54 L 287.23 44.30 L 287.53 44.06 L 287.83 43.82 L 288.13 43.57 L 288.44 43.32 L 288.74 43.06 L 289.04 42.80 L 289.34 42.53 L 289.65 42.25 L 289.95 41.97 L 290.25 41.68 L 290.55 41.39 L 290.86 41.08 L 291.16 40.77 L 291.46 40.45 L 291.76 40.11 L 292.07 39.77 L 292.37 39.41 L 292.67 39.03 L 292.97 38.64 L 293.28 38.23 L 293.58 37.80 L 293.88 37.33 L 294.18 36.84 L 294.49 36.30 L 294.79 35.70 L 295.09 35.03 L 295.39 34.22 L 295.70 33.18 L 296.00 30.66" fill="none" stroke="#7E8692" stroke-width="2.3" stroke-linecap="round" stroke-linejoin="round"/>
</svg>
