<svg xmlns="http://www.w3.org/2000/svg" viewBox="0 0 320 180" width="320" height="180">
  <rect width="320" height="180" fill="#F4F5F7"/>
  <path d="M 18.00 152.46 L 18.32 151.77 L 18.63 151.08 L 18.95 150.40 L 19.26 149.73 L 19.58 149.06 L 19.90 148.40 L 20.21 147.74 L 20.53 147.09 L 20.84 146.45 L 21.16 145.81 L 21.47 145.18 L 21.79 144.55 L 22.11 143.93 L 22.42 143.32 L 22.74 142.71 L 23.05 142.10 L 23.37 141.51 L 23.69 140.91 L 24.00 140.33 L 24.32 139.74 L 24.63 139.17 L 24.95 138.60 L 25.27 138.03 L 25.58 137.47 L 25.90 136.92 L 26.21 136.37 L 26.53 135.82 L 26.85 135.28 L 27.16 134.75 L 27.48 134.22 L 27.79 133.69 L 28.11 133.17 L 28.42 132.66 L 28.74 132.15 L 29.06 131.64 L 29.37 131.14 L 29.69 130.65 L 30.00 130.16 L 30.32 129.67 L 30.64 129.19 L 30.95 128.72 L 31.27 128.24 L 31.58 127.78 L 31.90 127.32 L 32.22 126.86 L 32.53 126.40 L 32.85 125.96 L 33.16 125.51 L 33.48 125.07 L 33.80 124.64 L 34.11 124.20 L 34.43 123.78 L 34.74 123.35 L 35.06 122.94 L 35.37 122.52 L 35.69 122.11 L 36.01 121.71 L 36.32 121.30 L 36.64 120.91 L 36.95 120.51 L 37.27 120.12 L 37.59 119.74 L 37.90 119.35 L 38.22 118.98 L 38.53 118.60 L 38.85 118.23 L 39.17 117.87 L 39.48 117.50 L 39.80 117.15 L 40.11 116.79 L 40.43 116.44 L 40.75 116.09 L 41.06 115.75 L 41.38 115.41 L 41.69 115.07 L 42.01 114.74 L 42.32 114.41 L 42.64 114.08 L 42.96 113.76 L 43.27 113.44 L 43.59 113.13 L 43.90 112.81 L 44.22 112.51 L 44.54 112.20 L 44.85 111.90 L 45.17 111.60 L 45.48 111.30 L 45.80 111.01 L 46.12 110.72 L 46.43 110.44 L 46.75 110.15 L 47.06 109.88 L 47.38 109.60 L 47.70 109.33 L 48.01 109.06 L 48.33 108.79 L 48.64 108.52 L 48.96 108.26 L 49.27 108.00 L 49.59 107.75 L 49.91 107.50 L 50.22 107.25 L 50.54 107.00 L 50.85 106.76 L 51.17 106.52 L 51.49 106.28 L 51.80 106.04 L 52.12 105.81 L 52.43 105.58 L 52.75 105.35 L 53.07 105.13 L 53.38 104.90 L 53.70 104.68 L 54.01 104.47 L 54.33 104.25 L 54.65 104.04 L 54.96 103.83 L 55.28 103.63 L 55.59 103.42 L 55.91 103.22 L 56.22 103.02 L 56.54 102.82 L 56.86 102.63 L 57.17 102.44 L 57.49 102.25 L 57.80 102.06 L 58.12 101.87 L 58.44 101.69 L 58.75 101.51 L 59.07 101.33 L 59.38 101.16 L 59.70 100.98 L 60.02 100.81 L 60.33 100.64 L 60.65 100.47 L 60.96 100.31 L 61.28 100.14 L 61.60 99.98 L 61.91 99.82 L 62.23 99.67 L 62.54 99.51 L 62.86 99.36 L 63.17 99.21 L 63.49 99.06 L 63.81 98.91 L 64.12 98.76 L 64.44 98.62 L 64.75 98.48 L 65.07 98.34 L 65.39 98.20 L 65.70 98.07 L 66.02 97.93 L 66.33 97.80 L 66.65 97.67 L 66.97 97.54 L 67.28 97.41 L 67.60 97.29 L 67.91 97.16 L 68.23 97.04 L 68.55 96.92 L 68.86 96.80 L 69.18 96.69 L 69.49 96.57 L 69.81 96.46 L 70.12 96.34 L 70.44 96.23 L 70.76 96.12 L 71.07 96.02 L 71.39 95.91 L 71.70 95.81 L 72.02 95.70 L 72.34 95.60 L 72.65 95.50 L 72.97 95.40 L 73.28 95.30 L 73.60 95.21 L 73.92 95.11 L 74.23 95.02 L 74.55 94.93 L 74.86 94.84 L 75.18 94.75 L 75.49 94.66 L 75.81 94.58 L 76.13 94.49 L 76.44 94.41 L 76.76 94.32 L 77.07 94.24 L 77.39 94.16 L 77.71 94.08 L 78.02 94.01 L 78.34 93.93 L 78.65 93.85 L 78.97 93.78 L 79.29 93.71 L 79.60 93.63 L 79.92 93.56 L 80.23 93.49 L 80.55 93.42 L 80.87 93.36 L 81.18 93.29 L 81.50 93.23 L 81.81 93.16 L 82.13 93.10 L 82.44 93.04 L 82.76 92.97 L 83.08 92.91 L 83.39 92.85 L 83.71 92.80 L 84.02 92.74 L 84.34 92.68 L 84.66 92.63 L 84.97 92.57 L 85.29 92.52 L 85.60 92.47 L 85.92 92.41 L 86.24 92.36 L 86.55 92.31 L 86.87 92.26 L 87.18 92.21 L 87.50 92.17 L 87.82 92.12 L 88.13 92.07 L 88.45 92.03 L 88.76 91.98 L 89.08 91.94 L 89.39 91.90 L 89.71 91.86 L 90.03 91.81 L 90.34 91.77 L 90.66 91.73 L 90.97 91.70 L 91.29 91.66 L 91.61 91.62 L 91.92 91.58 L 92.24 91.55 L 92.55 91.51 L 92.87 91.47 L 93.19 91.44 L 93.50 91.41 L 93.82 91.37 L 94.13 91.34 L 94.45 91.31 L 94.77 91.28 L 95.08 91.25 L 95.40 91.22 L 95.71 91.19 L 96.03 91.16 L 96.34 91.13 L 96.66 91.10 L 96.98 91.08 L 97.29 91.05 L 97.61 91.02 L 97.92 91.00 L 98.24 90.97 L 98.56 90.95 L 98.87 90.92 L 99.19 90.90 L 99.50 90.88 L 99.82 90.85 L 100.14 90.83 L 100.45 90.81 L 100.77 90.79 L 101.08 90.77 L 101.40 90.75 L 101.72 90.73 L 102.03 90.71 L 102.35 90.69 L 102.66 90.67 L 102.98 90.65 L 103.29 90.63 L 103.61 90.62 L 103.93 90.60 L 104.24 90.58 L 104.56 90.57 L 104.87 90.55 L 105.19 90.54 L 105.51 90.52 L 105.82 90.50 L 106.14 90.49 L 106.45 90.48 L 106.77 90.46 L 107.09 90.45 L 107.40 90.44 L 107.72 90.42 L 108.03 90.41 L 108.35 90.40 L 108.67 90.39 L 108.98 90.37 L 109.30 90.36 L 109.61 90.35 L 109.93 90.34 L 110.24 90.33 L 110.56 90.32 L 110.88 90.31 L 111.19 90.30 L 111.51 90.29 L 111.82 90.28 L 112.14 90.27 L 112.46 90.26 L 112.77 90.25 L 113.09 90.25 L 113.40 90.24 L 113.72 90.23 L 114.04 90.22 L 114.35 90.21 L 114.67 90.21 L 114.98 90.20 L 115.30 90.19 L 115.62 90.19 L 115.93 90.18 L 116.25 90.17 L 116.56 90.17 L 116.88 90.16 L 117.19 90.16 L 117.51 90.15 L 117.83 90.14 L 118.14 90.14 L 118.46 90.13 L 118.77 90.13 L 119.09 90.12 L 119.41 90.12 L 119.72 90.11 L 120.04 90.11 L 120.35 90.11 L 120.67 90.10 L 120.99 90.10 L 121.30 90.09 L 121.62 90.09 L 121.93 90.09 L 122.25 90.08 L 122.57 90.08 L 122.88 90.08 L 123.20 90.07 L 123.51 90.07 L 123.83 90.07 L 124.14 90.06 L 124.46 90.06 L 124.78 90.06 L 125.09 90.06 L 125.41 90.05 L 125.72 90.05 L 126.04 90.05 L 126.36 90.05 L 126.67 90.04 L 126.99 90.04 L 127.30 90.04 L 127.62 90.04 L 127.94 90.04 L 128.25 90.03 L 128.57 90.03 L 128.88 90.03 L 129.20 90.03 L 129.52 90.03 L 129.83 90.03 L 130.15 90.03 L 130.46 90.02 L 130.78 90.02 L 131.09 90.02 L 131.41 90.02 L 131.73 90.02 L 132.04 90.02 L 132.36 90.02 L 132.67 90.02 L 132.99 90.02 L 133.31 90.01 L 133.62 90.01 L 133.94 90.01 L 134.25 90.01 L 134.57 90.01 L 134.89 90.01 L 135.20 90.01 L 135.52 90.01 L 135.83 90.01 L 136.15 90.01 L 136.46 90.01 L 136.78 90.01 L 137.10 90.01 L 137.41 90.01 L 137.73 90.01 L 138.04 90.01 L 138.36 90.01 L 138.68 90.00 L 138.99 90.00 L 139.31 90.00 L 139.62 90.00 L 139.94 90.00 L 140.26 90.00 L 140.57 90.00 L 140.89 90.00 L 141.20 90.00 L 141.52 90.00 L 141.84 90.00 L 142.15 90.00 L 142.47 90.00 L 142.78 90.00 L 143.10 90.00 L 143.41 90.00 L 143.73 90.00 L 144.05 90.00 L 144.36 90.00 L 144.68 90.00 L 144.99 90.00 L 145.31 90.00 L 145.63 90.00 L 145.94 90.00 L 146.26 90.00 L 146.57 90.00 L 146.89 90.00 L 147.21 90.00 L 147.52 90.00 L 147.84 90.00 L 148.15 90.00 L 148.47 90.00 L 148.79 90.00 L 149.10 90.00 L 149.42 90.00 L 149.73 90.00 L 150.05 90.00 L 150.36 90.00 L 150.68 90.00 L 151.00 90.00 L 151.31 90.00 L 151.63 90.00 L 151.94 90.00 L 152.26 90.00 L 152.58 90.00 L 152.89 90.00 L 153.21 90.00 L 153.52 90.00 L 153.84 90.00 L 154.16 90.00 L 154.47 90.00 L 154.79 90.00 L 155.10 90.00 L 155.42 90.00 L 155.74 90.00 L 156.05 90.00 L 156.37 90.00 L 156.68 90.00 L 157.00 90.00 L 157.31 90.00 L 157.63 90.00 L 157.95 90.00 L 158.26 90.00 L 158.58 90.00 L 158.89 90.00 L 159.21 90.00 L 159.53 90.00 L 159.84 90.00 L 160.16 90.00 L 160.47 90.00 L 160.79 90.00 L 161.11 90.00 L 161.42 90.00 L 161.74 90.00 L 162.05 90.00 L 162.37 90.00 L 162.69 90.00 L 163.00 90.00 L 163.32 90.00 L 163.63 90.00 L 163.95 90.00 L 164.26 90.00 L 164.58 90.00 L 164.90 90.00 L 165.21 90.00 L 165.53 90.00 L 165.84 90.00 L 166.16 90.00 L 166.48 90.00 L 166.79 90.00 L 167.11 90.00 L 167.42 90.00 L 167.74 90.00 L 168.06 90.00 L 168.37 90.00 L 168.69 90.00 L 169.00 90.00 L 169.32 90.00 L 169.64 90.00 L 169.95 90.00 L 170.27 90.00 L 170.58 90.00 L 170.90 90.00 L 171.21 90.00 L 171.53 90.00 L 171.85 90.00 L 172.16 90.00 L 172.48 90.00 L 172.79 90.00 L 173.11 90.00 L 173.43 90.00 L 173.74 90.00 L 174.06 90.00 L 174.37 90.00 L 174.69 90.00 L 175.01 90.00 L 175.32 90.00 L 175.64 90.00 L 175.95 90.00 L 176.27 90.00 L 176.59 90.00 L 176.90 90.00 L 177.22 90.00 L 177.53 90.00 L 177.85 90.00 L 178.16 90.00 L 178.48 90.00 L 178.80 90.00 L 179.11 90.00 L 179.43 90.00 L 179.74 90.00 L 180.06 90.00 L 180.38 90.00 L 180.69 90.00 L 181.01 90.00 L 181.32 90.00 L 181.64 89.99 L 181.96 89.99 L 182.27 89.99 L 182.59 89.99 L 182.90 89.99 L 183.22 89.99 L 183.54 89.99 L 183.85 89.99 L 184.17 89.99 L 184.48 89.99 L 184.80 89.99 L 185.11 89.99 L 185.43 89.99 L 185.75 89.99 L 186.06 89.99 L 186.38 89.99 L 186.69 89.99 L 187.01 89.98 L 187.33 89.98 L 187.64 89.98 L 187.96 89.98 L 188.27 89.98 L 188.59 89.98 L 188.91 89.98 L 189.22 89.98 L 189.54 89.98 L 189.85 89.97 L 190.17 89.97 L 190.48 89.97 L 190.80 89.97 L 191.12 89.97 L 191.43 89.97 L 191.75 89.97 L 192.06 89.96 L 192.38 89.96 L 192.70 89.96 L 193.01 89.96 L 193.33 89.96 L 193.64 89.95 L 193.96 89.95 L 194.28 89.95 L 194.59 89.95 L 194.91 89.94 L 195.22 89.94 L 195.54 89.94 L 195.86 89.94 L 196.17 89.93 L 196.49 89.93 L 196.80 89.93 L 197.12 89.92 L 197.43 89.92 L 197.75 89.92 L 198.07 89.91 L 198.38 89.91 L 198.70 89.91 L 199.01 89.90 L 199.33 89.90 L 199.65 89.89 L 199.96 89.89 L 200.28 89.89 L 200.59 89.88 L 200.91 89.88 L 201.23 89.87 L 201.54 89.87 L 201.86 89.86 L 202.17 89.86 L 202.49 89.85 L 202.81 89.84 L 203.12 89.84 L 203.44 89.83 L 203.75 89.83 L 204.07 89.82 L 204.38 89.81 L 204.70 89.81 L 205.02 89.80 L 205.33 89.79 L 205.65 89.79 L 205.96 89.78 L 206.28 89.77 L 206.60 89.76 L 206.91 89.75 L 207.23 89.75 L 207.54 89.74 L 207.86 89.73 L 208.18 89.72 L 208.49 89.71 L 208.81 89.70 L 209.12 89.69 L 209.44 89.68 L 209.76 89.67 L 210.07 89.66 L 210.39 89.65 L 210.70 89.64 L 211.02 89.63 L 211.33 89.61 L 211.65 89.60 L 211.97 89.59 L 212.28 89.58 L 212.60 89.56 L 212.91 89.55 L 213.23 89.54 L 213.55 89.52 L 213.86 89.51 L 214.18 89.50 L 214.49 89.48 L 214.81 89.46 L 215.13 89.45 L 215.44 89.43 L 215.76 89.42 L 216.07 89.40 L 216.39 89.38 L 216.71 89.37 L 217.02 89.35 L 217.34 89.33 L 217.65 89.31 L 217.97 89.29 L 218.28 89.27 L 218.60 89.25 L 218.92 89.23 L 219.23 89.21 L 219.55 89.19 L 219.86 89.17 L 220.18 89.15 L 220.50 89.12 L 220.81 89.10 L 221.13 89.08 L 221.44 89.05 L 221.76 89.03 L 222.08 89.00 L 222.39 88.98 L 222.71 88.95 L 223.02 88.92 L 223.34 88.90 L 223.66 88.87 L 223.97 88.84 L 224.29 88.81 L 224.60 88.78 L 224.92 88.75 L 225.23 88.72 L 225.55 88.69 L 225.87 88.66 L 226.18 88.63 L 226.50 88.59 L 226.81 88.56 L 227.13 88.53 L 227.45 88.49 L 227.76 88.45 L 228.08 88.42 L 228.39 88.38 L 228.71 88.34 L 229.03 88.30 L 229.34 88.27 L 229.66 88.23 L 229.97 88.19 L 230.29 88.14 L 230.61 88.10 L 230.92 88.06 L 231.24 88.02 L 231.55 87.97 L 231.87 87.93 L 232.18 87.88 L 232.50 87.83 L 232.82 87.79 L 233.13 87.74 L 233.45 87.69 L 233.76 87.64 L 234.08 87.59 L 234.40 87.53 L 234.71 87.48 L 235.03 87.43 L 235.34 87.37 L 235.66 87.32 L 235.98 87.26 L 236.29 87.20 L 236.61 87.15 L 236.92 87.09 L 237.24 87.03 L 237.56 86.96 L 237.87 86.90 L 238.19 86.84 L 238.50 86.77 L 238.82 86.71 L 239.13 86.64 L 239.45 86.58 L 239.77 86.51 L 240.08 86.44 L 240.40 86.37 L 240.71 86.29 L 241.03 86.22 L 241.35 86.15 L 241.66 86.07 L 241.98 85.99 L 242.29 85.92 L 242.61 85.84 L 242.93 85.76 L 243.24 85.68 L 243.56 85.59 L 243.87 85.51 L 244.19 85.42 L 244.51 85.34 L 244.82 85.25 L 245.14 85.16 L 245.45 85.07 L 245.77 84.98 L 246.08 84.89 L 246.40 84.79 L 246.72 84.70 L 247.03 84.60 L 247.35 84.50 L 247.66 84.40 L 247.98 84.30 L 248.30 84.19 L 248.61 84.09 L 248.93 83.98 L 249.24 83.88 L 249.56 83.77 L 249.88 83.66 L 250.19 83.54 L 250.51 83.43 L 250.82 83.31 L 251.14 83.20 L 251.45 83.08 L 251.77 82.96 L 252.09 82.84 L 252.40 82.71 L 252.72 82.59 L 253.03 82.46 L 253.35 82.33 L 253.67 82.20 L 253.98 82.07 L 254.30 81.93 L 254.61 81.80 L 254.93 81.66 L 255.25 81.52 L 255.56 81.38 L 255.88 81.24 L 256.19 81.09 L 256.51 80.94 L 256.83 80.79 L 257.14 80.64 L 257.46 80.49 L 257.77 80.33 L 258.09 80.18 L 258.40 80.02 L 258.72 79.86 L 259.04 79.69 L 259.35 79.53 L 259.67 79.36 L 259.98 79.19 L 260.30 79.02 L 260.62 78.84 L 260.93 78.67 L 261.25 78.49 L 261.56 78.31 L 261.88 78.13 L 262.20 77.94 L 262.51 77.75 L 262.83 77.56 L 263.14 77.37 L 263.46 77.18 L 263.78 76.98 L 264.09 76.78 L 264.41 76.58 L 264.72 76.37 L 265.04 76.17 L 265.35 75.96 L 265.67 75.75 L 265.99 75.53 L 266.30 75.32 L 266.62 75.10 L 266.93 74.87 L 267.25 74.65 L 267.57 74.42 L 267.88 74.19 L 268.20 73.96 L 268.51 73.72 L 268.83 73.48 L 269.15 73.24 L 269.46 73.00 L 269.78 72.75 L 270.09 72.50 L 270.41 72.25 L 270.73 72.00 L 271.04 71.74 L 271.36 71.48 L 271.67 71.21 L 271.99 70.94 L 272.30 70.67 L 272.62 70.40 L 272.94 70.12 L 273.25 69.85 L 273.57 69.56 L 273.88 69.28 L 274.20 68.99 L 274.52 68.70 L 274.83 68.40 L 275.15 68.10 L 275.46 67.80 L 275.78 67.49 L 276.10 67.19 L 276.41 66.87 L 276.73 66.56 L 277.04 66.24 L 277.36 65.92 L 277.68 65.59 L 277.99 65.26 L 278.31 64.93 L 278.62 64.59 L 278.94 64.25 L 279.25 63.91 L 279.57 63.56 L 279.89 63.21 L 280.20 62.85 L 280.52 62.50 L 280.83 62.13 L 281.15 61.77 L 281.47 61.40 L 281.78 61.02 L 282.10 60.65 L 282.41 60.26 L 282.73 59.88 L 283.05 59.49 L 283.36 59.09 L 283.68 58.70 L 283.99 58.29 L 284.31 57.89 L 284.63 57.48 L 284.94 57.06 L 285.26 56.65 L 285.57 56.22 L 285.89 55.80 L 286.20 55.36 L 286.52 54.93 L 286.84 54.49 L 287.15 54.04 L 287.47 53.60 L 287.78 53.14 L 288.10 52.68 L 288.42 52.22 L 288.73 51.76 L 289.05 51.28 L 289.36 50.81 L 289.68 50.33 L 290.00 49.84 L 290.31 49.35 L 290.63 48.86 L 290.94 48.36 L 291.26 47.85 L 291.58 47.34 L 291.89 46.83 L 292.21 46.31 L 292.52 45.78 L 292.84 45.25 L 293.15 44.72 L 293.47 44.18 L 293.79 43.63 L 294.10 43.08 L 294.42 42.53 L 294.73 41.97 L 295.05 41.40 L 295.37 40.83 L 295.68 40.26 L 296.00 39.67 L 296.31 39.09 L 296.63 38.49 L 296.95 37.90 L 297.26 37.29 L 297.58 36.68 L 297.89 36.07 L 298.21 35.45 L 298.53 34.82 L 298.84 34.19 L 299.16 33.55 L 299.47 32.91 L 299.79 32.26 L 300.10 31.60 L 300.42 30.94 L 300.74 30.27 L 301.05 29.60 L 301.37 28.92 L 301.68 28.23 L 302.00 27.54" fill="none" stroke="#7E8692" stroke-width="2.3" stroke-linecap="round" stroke-linejoin="round"/>
</svg>
