<svg xmlns="http://www.w3.org/2000/svg" viewBox="0 0 320 180" width="320" height="180">
  <rect width="320" height="180" fill="#F4F5F7"/>
  <path d="M 18.00 75.72 L 18.24 75.72 L 18.47 75.72 L 18.71 75.72 L 18.95 75.72 L 19.18 75.72 L 19.42 75.72 L 19.66 75.72 L 19.89 75.72 L 20.13 75.72 L 20.37 75.73 L 20.61 75.73 L 20.84 75.73 L 21.08 75.73 L 21.32 75.73 L 21.55 75.73 L 21.79 75.73 L 22.03 75.73 L 22.26 75.73 L 22.50 75.73 L 22.74 75.74 L 22.97 75.74 L 23.21 75.74 L 23.45 75.74 L 23.68 75.74 L 23.92 75.74 L 24.16 75.74 L 24.40 75.74 L 24.63 75.74 L 24.87 75.75 L 25.11 75.75 L 25.34 75.75 L 25.58 75.75 L 25.82 75.75 L 26.05 75.75 L 26.29 75.75 L 26.53 75.75 L 26.76 75.76 L 27.00 75.76 L 27.24 75.76 L 27.47 75.76 L 27.71 75.76 L 27.95 75.76 L 28.19 75.76 L 28.42 75.76 L 28.66 75.77 L 28.90 75.77 L 29.13 75.77 L 29.37 75.77 L 29.61 75.77 L 29.84 75.77 L 30.08 75.77 L 30.32 75.77 L 30.55 75.78 L 30.79 75.78 L 31.03 75.78 L 31.26 75.78 L 31.50 75.78 L 31.74 75.78 L 31.97 75.78 L 32.21 75.79 L 32.45 75.79 L 32.69 75.79 L 32.92 75.79 L 33.16 75.79 L 33.40 75.79 L 33.63 75.80 L 33.87 75.80 L 34.11 75.80 L 34.34 75.80 L 34.58 75.80 L 34.82 75.80 L 35.05 75.81 L 35.29 75.81 L 35.53 75.81 L 35.76 75.81 L 36.00 75.81 L 36.24 75.81 L 36.48 75.81 L 36.71 75.82 L 36.95 75.82 L 37.19 75.82 L 37.42 75.82 L 37.66 75.82 L 37.90 75.83 L 38.13 75.83 L 38.37 75.83 L 38.61 75.83 L 38.84 75.83 L 39.08 75.83 L 39.32 75.84 L 39.55 75.84 L 39.79 75.84 L 40.03 75.84 L 40.27 75.84 L 40.50 75.85 L 40.74 75.85 L 40.98 75.85 L 41.21 75.85 L 41.45 75.85 L 41.69 75.86 L 41.92 75.86 L 42.16 75.86 L 42.40 75.86 L 42.63 75.86 L 42.87 75.87 L 43.11 75.87 L 43.34 75.87 L 43.58 75.87 L 43.82 75.87 L 44.06 75.88 L 44.29 75.88 L 44.53 75.88 L 44.77 75.88 L 45.00 75.89 L 45.24 75.89 L 45.48 75.89 L 45.71 75.89 L 45.95 75.89 L 46.19 75.90 L 46.42 75.90 L 46.66 75.90 L 46.90 75.90 L 47.13 75.91 L 47.37 75.91 L 47.61 75.91 L 47.84 75.91 L 48.08 75.92 L 48.32 75.92 L 48.56 75.92 L 48.79 75.92 L 49.03 75.93 L 49.27 75.93 L 49.50 75.93 L 49.74 75.93 L 49.98 75.94 L 50.21 75.94 L 50.45 75.94 L 50.69 75.94 L 50.92 75.95 L 51.16 75.95 L 51.40 75.95 L 51.63 75.96 L 51.87 75.96 L 52.11 75.96 L 52.35 75.96 L 52.58 75.97 L 52.82 75.97 L 53.06 75.97 L 53.29 75.98 L 53.53 75.98 L 53.77 75.98 L 54.00 75.98 L 54.24 75.99 L 54.48 75.99 L 54.71 75.99 L 54.95 76.00 L 55.19 76.00 L 55.42 76.00 L 55.66 76.01 L 55.90 76.01 L 56.14 76.01 L 56.37 76.02 L 56.61 76.02 L 56.85 76.02 L 57.08 76.03 L 57.32 76.03 L 57.56 76.03 L 57.79 76.04 L 58.03 76.04 L 58.27 76.04 L 58.50 76.05 L 58.74 76.05 L 58.98 76.05 L 59.21 76.06 L 59.45 76.06 L 59.69 76.06 L 59.92 76.07 L 60.16 76.07 L 60.40 76.08 L 60.64 76.08 L 60.87 76.08 L 61.11 76.09 L 61.35 76.09 L 61.58 76.09 L 61.82 76.10 L 62.06 76.10 L 62.29 76.11 L 62.53 76.11 L 62.77 76.11 L 63.00 76.12 L 63.24 76.12 L 63.48 76.13 L 63.71 76.13 L 63.95 76.13 L 64.19 76.14 L 64.43 76.14 L 64.66 76.15 L 64.90 76.15 L 65.14 76.15 L 65.37 76.16 L 65.61 76.16 L 65.85 76.17 L 66.08 76.17 L 66.32 76.18 L 66.56 76.18 L 66.79 76.19 L 67.03 76.19 L 67.27 76.19 L 67.50 76.20 L 67.74 76.20 L 67.98 76.21 L 68.22 76.21 L 68.45 76.22 L 68.69 76.22 L 68.93 76.23 L 69.16 76.23 L 69.40 76.24 L 69.64 76.24 L 69.87 76.25 L 70.11 76.25 L 70.35 76.26 L 70.58 76.26 L 70.82 76.27 L 71.06 76.27 L 71.29 76.28 L 71.53 76.28 L 71.77 76.29 L 72.01 76.29 L 72.24 76.30 L 72.48 76.30 L 72.72 76.31 L 72.95 76.31 L 73.19 76.32 L 73.43 76.33 L 73.66 76.33 L 73.90 76.34 L 74.14 76.34 L 74.37 76.35 L 74.61 76.35 L 74.85 76.36 L 75.08 76.37 L 75.32 76.37 L 75.56 76.38 L 75.79 76.38 L 76.03 76.39 L 76.27 76.40 L 76.51 76.40 L 76.74 76.41 L 76.98 76.41 L 77.22 76.42 L 77.45 76.43 L 77.69 76.43 L 77.93 76.44 L 78.16 76.44 L 78.40 76.45 L 78.64 76.46 L 78.87 76.46 L 79.11 76.47 L 79.35 76.48 L 79.58 76.48 L 79.82 76.49 L 80.06 76.50 L 80.30 76.50 L 80.53 76.51 L 80.77 76.52 L 81.01 76.52 L 81.24 76.53 L 81.48 76.54 L 81.72 76.55 L 81.95 76.55 L 82.19 76.56 L 82.43 76.57 L 82.66 76.57 L 82.90 76.58 L 83.14 76.59 L 83.37 76.60 L 83.61 76.60 L 83.85 76.61 L 84.09 76.62 L 84.32 76.63 L 84.56 76.63 L 84.80 76.64 L 85.03 76.65 L 85.27 76.66 L 85.51 76.67 L 85.74 76.67 L 85.98 76.68 L 86.22 76.69 L 86.45 76.70 L 86.69 76.71 L 86.93 76.71 L 87.16 76.72 L 87.40 76.73 L 87.64 76.74 L 87.87 76.75 L 88.11 76.76 L 88.35 76.77 L 88.59 76.77 L 88.82 76.78 L 89.06 76.79 L 89.30 76.80 L 89.53 76.81 L 89.77 76.82 L 90.01 76.83 L 90.24 76.84 L 90.48 76.84 L 90.72 76.85 L 90.95 76.86 L 91.19 76.87 L 91.43 76.88 L 91.66 76.89 L 91.90 76.90 L 92.14 76.91 L 92.38 76.92 L 92.61 76.93 L 92.85 76.94 L 93.09 76.95 L 93.32 76.96 L 93.56 76.97 L 93.80 76.98 L 94.03 76.99 L 94.27 77.00 L 94.51 77.01 L 94.74 77.02 L 94.98 77.03 L 95.22 77.04 L 95.45 77.05 L 95.69 77.06 L 95.93 77.07 L 96.17 77.08 L 96.40 77.09 L 96.64 77.10 L 96.88 77.11 L 97.11 77.13 L 97.35 77.14 L 97.59 77.15 L 97.82 77.16 L 98.06 77.17 L 98.30 77.18 L 98.53 77.19 L 98.77 77.20 L 99.01 77.22 L 99.24 77.23 L 99.48 77.24 L 99.72 77.25 L 99.95 77.26 L 100.19 77.27 L 100.43 77.29 L 100.67 77.30 L 100.90 77.31 L 101.14 77.32 L 101.38 77.33 L 101.61 77.35 L 101.85 77.36 L 102.09 77.37 L 102.32 77.38 L 102.56 77.40 L 102.80 77.41 L 103.03 77.42 L 103.27 77.43 L 103.51 77.45 L 103.74 77.46 L 103.98 77.47 L 104.22 77.49 L 104.46 77.50 L 104.69 77.51 L 104.93 77.53 L 105.17 77.54 L 105.40 77.55 L 105.64 77.57 L 105.88 77.58 L 106.11 77.59 L 106.35 77.61 L 106.59 77.62 L 106.82 77.64 L 107.06 77.65 L 107.30 77.66 L 107.53 77.68 L 107.77 77.69 L 108.01 77.71 L 108.25 77.72 L 108.48 77.74 L 108.72 77.75 L 108.96 77.77 L 109.19 77.78 L 109.43 77.80 L 109.67 77.81 L 109.90 77.83 L 110.14 77.84 L 110.38 77.86 L 110.61 77.87 L 110.85 77.89 L 111.09 77.90 L 111.32 77.92 L 111.56 77.93 L 111.80 77.95 L 112.04 77.97 L 112.27 77.98 L 112.51 78.00 L 112.75 78.01 L 112.98 78.03 L 113.22 78.05 L 113.46 78.06 L 113.69 78.08 L 113.93 78.10 L 114.17 78.11 L 114.40 78.13 L 114.64 78.15 L 114.88 78.16 L 115.11 78.18 L 115.35 78.20 L 115.59 78.21 L 115.82 78.23 L 116.06 78.25 L 116.30 78.27 L 116.54 78.28 L 116.77 78.30 L 117.01 78.32 L 117.25 78.34 L 117.48 78.35 L 117.72 78.37 L 117.96 78.39 L 118.19 78.41 L 118.43 78.43 L 118.67 78.44 L 118.90 78.46 L 119.14 78.48 L 119.38 78.50 L 119.61 78.52 L 119.85 78.54 L 120.09 78.56 L 120.33 78.58 L 120.56 78.59 L 120.80 78.61 L 121.04 78.63 L 121.27 78.65 L 121.51 78.67 L 121.75 78.69 L 121.98 78.71 L 122.22 78.73 L 122.46 78.75 L 122.69 78.77 L 122.93 78.79 L 123.17 78.81 L 123.40 78.83 L 123.64 78.85 L 123.88 78.87 L 124.12 78.89 L 124.35 78.91 L 124.59 78.93 L 124.83 78.95 L 125.06 78.97 L 125.30 78.99 L 125.54 79.01 L 125.77 79.03 L 126.01 79.06 L 126.25 79.08 L 126.48 79.10 L 126.72 79.12 L 126.96 79.14 L 127.19 79.16 L 127.43 79.18 L 127.67 79.21 L 127.90 79.23 L 128.14 79.25 L 128.38 79.27 L 128.62 79.29 L 128.85 79.32 L 129.09 79.34 L 129.33 79.36 L 129.56 79.38 L 129.80 79.40 L 130.04 79.43 L 130.27 79.45 L 130.51 79.47 L 130.75 79.50 L 130.98 79.52 L 131.22 79.54 L 131.46 79.56 L 131.69 79.59 L 131.93 79.61 L 132.17 79.63 L 132.41 79.66 L 132.64 79.68 L 132.88 79.70 L 133.12 79.73 L 133.35 79.75 L 133.59 79.78 L 133.83 79.80 L 134.06 79.82 L 134.30 79.85 L 134.54 79.87 L 134.77 79.90 L 135.01 79.92 L 135.25 79.94 L 135.48 79.97 L 135.72 79.99 L 135.96 80.02 L 136.20 80.04 L 136.43 80.07 L 136.67 80.09 L 136.91 80.12 L 137.14 80.14 L 137.38 80.17 L 137.62 80.19 L 137.85 80.22 L 138.09 80.24 L 138.33 80.27 L 138.56 80.29 L 138.80 80.32 L 139.04 80.34 L 139.27 80.37 L 139.51 80.39 L 139.75 80.42 L 139.98 80.45 L 140.22 80.47 L 140.46 80.50 L 140.70 80.52 L 140.93 80.55 L 141.17 80.58 L 141.41 80.60 L 141.64 80.63 L 141.88 80.65 L 142.12 80.68 L 142.35 80.71 L 142.59 80.73 L 142.83 80.76 L 143.06 80.79 L 143.30 80.81 L 143.54 80.84 L 143.77 80.87 L 144.01 80.89 L 144.25 80.92 L 144.49 80.95 L 144.72 80.98 L 144.96 81.00 L 145.20 81.03 L 145.43 81.06 L 145.67 81.08 L 145.91 81.11 L 146.14 81.14 L 146.38 81.17 L 146.62 81.19 L 146.85 81.22 L 147.09 81.25 L 147.33 81.28 L 147.56 81.30 L 147.80 81.33 L 148.04 81.36 L 148.28 81.39 L 148.51 81.41 L 148.75 81.44 L 148.99 81.47 L 149.22 81.50 L 149.46 81.53 L 149.70 81.55 L 149.93 81.58 L 150.17 81.61 L 150.41 81.64 L 150.64 81.67 L 150.88 81.70 L 151.12 81.72 L 151.35 81.75 L 151.59 81.78 L 151.83 81.81 L 152.07 81.84 L 152.30 81.87 L 152.54 81.89 L 152.78 81.92 L 153.01 81.95 L 153.25 81.98 L 153.49 82.01 L 153.72 82.04 L 153.96 82.07 L 154.20 82.09 L 154.43 82.12 L 154.67 82.15 L 154.91 82.18 L 155.14 82.21 L 155.38 82.24 L 155.62 82.27 L 155.85 82.29 L 156.09 82.32 L 156.33 82.35 L 156.57 82.38 L 156.80 82.41 L 157.04 82.44 L 157.28 82.47 L 157.51 82.50 L 157.75 82.53 L 157.99 82.55 L 158.22 82.58 L 158.46 82.61 L 158.70 82.64 L 158.93 82.67 L 159.17 82.70 L 159.41 82.73 L 159.64 82.76 L 159.88 82.79 L 160.12 82.81 L 160.36 82.84 L 160.59 82.87 L 160.83 82.90 L 161.07 82.93 L 161.30 82.96 L 161.54 82.99 L 161.78 83.02 L 162.01 83.05 L 162.25 83.07 L 162.49 83.10 L 162.72 83.13 L 162.96 83.16 L 163.20 83.19 L 163.43 83.22 L 163.67 83.25 L 163.91 83.28 L 164.15 83.31 L 164.38 83.33 L 164.62 83.36 L 164.86 83.39 L 165.09 83.42 L 165.33 83.45 L 165.57 83.48 L 165.80 83.51 L 166.04 83.53 L 166.28 83.56 L 166.51 83.59 L 166.75 83.62 L 166.99 83.65 L 167.22 83.68 L 167.46 83.71 L 167.70 83.73 L 167.93 83.76 L 168.17 83.79 L 168.41 83.82 L 168.65 83.85 L 168.88 83.88 L 169.12 83.90 L 169.36 83.93 L 169.59 83.96 L 169.83 83.99 L 170.07 84.02 L 170.30 84.05 L 170.54 84.07 L 170.78 84.10 L 171.01 84.13 L 171.25 84.16 L 171.49 84.19 L 171.72 84.21 L 171.96 84.24 L 172.20 84.27 L 172.44 84.30 L 172.67 84.32 L 172.91 84.35 L 173.15 84.38 L 173.38 84.41 L 173.62 84.43 L 173.86 84.46 L 174.09 84.49 L 174.33 84.52 L 174.57 84.54 L 174.80 84.57 L 175.04 84.60 L 175.28 84.62 L 175.51 84.65 L 175.75 84.68 L 175.99 84.71 L 176.23 84.73 L 176.46 84.76 L 176.70 84.79 L 176.94 84.81 L 177.17 84.84 L 177.41 84.87 L 177.65 84.89 L 177.88 84.92 L 178.12 84.95 L 178.36 84.97 L 178.59 85.00 L 178.83 85.02 L 179.07 85.05 L 179.30 85.08 L 179.54 85.10 L 179.78 85.13 L 180.02 85.15 L 180.25 85.18 L 180.49 85.21 L 180.73 85.23 L 180.96 85.26 L 181.20 85.28 L 181.44 85.31 L 181.67 85.33 L 181.91 85.36 L 182.15 85.38 L 182.38 85.41 L 182.62 85.43 L 182.86 85.46 L 183.09 85.48 L 183.33 85.51 L 183.57 85.53 L 183.80 85.56 L 184.04 85.58 L 184.28 85.61 L 184.52 85.63 L 184.75 85.66 L 184.99 85.68 L 185.23 85.70 L 185.46 85.73 L 185.70 85.75 L 185.94 85.78 L 186.17 85.80 L 186.41 85.82 L 186.65 85.85 L 186.88 85.87 L 187.12 85.90 L 187.36 85.92 L 187.59 85.94 L 187.83 85.97 L 188.07 85.99 L 188.31 86.01 L 188.54 86.04 L 188.78 86.06 L 189.02 86.08 L 189.25 86.10 L 189.49 86.13 L 189.73 86.15 L 189.96 86.17 L 190.20 86.20 L 190.44 86.22 L 190.67 86.24 L 190.91 86.26 L 191.15 86.28 L 191.38 86.31 L 191.62 86.33 L 191.86 86.35 L 192.10 86.37 L 192.33 86.39 L 192.57 86.42 L 192.81 86.44 L 193.04 86.46 L 193.28 86.48 L 193.52 86.50 L 193.75 86.52 L 193.99 86.54 L 194.23 86.57 L 194.46 86.59 L 194.70 86.61 L 194.94 86.63 L 195.17 86.65 L 195.41 86.67 L 195.65 86.69 L 195.88 86.71 L 196.12 86.73 L 196.36 86.75 L 196.60 86.77 L 196.83 86.79 L 197.07 86.81 L 197.31 86.83 L 197.54 86.85 L 197.78 86.87 L 198.02 86.89 L 198.25 86.91 L 198.49 86.93 L 198.73 86.95 L 198.96 86.97 L 199.20 86.99 L 199.44 87.01 L 199.67 87.02 L 199.91 87.04 L 200.15 87.06 L 200.39 87.08 L 200.62 87.10 L 200.86 87.12 L 201.10 87.14 L 201.33 87.16 L 201.57 87.17 L 201.81 87.19 L 202.04 87.21 L 202.28 87.23 L 202.52 87.25 L 202.75 87.26 L 202.99 87.28 L 203.23 87.30 L 203.46 87.32 L 203.70 87.33 L 203.94 87.35 L 204.18 87.37 L 204.41 87.39 L 204.65 87.40 L 204.89 87.42 L 205.12 87.44 L 205.36 87.45 L 205.60 87.47 L 205.83 87.49 L 206.07 87.50 L 206.31 87.52 L 206.54 87.54 L 206.78 87.55 L 207.02 87.57 L 207.25 87.59 L 207.49 87.60 L 207.73 87.62 L 207.96 87.63 L 208.20 87.65 L 208.44 87.67 L 208.68 87.68 L 208.91 87.70 L 209.15 87.71 L 209.39 87.73 L 209.62 87.74 L 209.86 87.76 L 210.10 87.77 L 210.33 87.79 L 210.57 87.80 L 210.81 87.82 L 211.04 87.83 L 211.28 87.85 L 211.52 87.86 L 211.75 87.88 L 211.99 87.89 L 212.23 87.91 L 212.47 87.92 L 212.70 87.94 L 212.94 87.95 L 213.18 87.96 L 213.41 87.98 L 213.65 87.99 L 213.89 88.01 L 214.12 88.02 L 214.36 88.03 L 214.60 88.05 L 214.83 88.06 L 215.07 88.07 L 215.31 88.09 L 215.54 88.10 L 215.78 88.11 L 216.02 88.13 L 216.26 88.14 L 216.49 88.15 L 216.73 88.17 L 216.97 88.18 L 217.20 88.19 L 217.44 88.20 L 217.68 88.22 L 217.91 88.23 L 218.15 88.24 L 218.39 88.25 L 218.62 88.27 L 218.86 88.28 L 219.10 88.29 L 219.33 88.30 L 219.57 88.31 L 219.81 88.33 L 220.05 88.34 L 220.28 88.35 L 220.52 88.36 L 220.76 88.37 L 220.99 88.38 L 221.23 88.40 L 221.47 88.41 L 221.70 88.42 L 221.94 88.43 L 222.18 88.44 L 222.41 88.45 L 222.65 88.46 L 222.89 88.47 L 223.12 88.49 L 223.36 88.50 L 223.60 88.51 L 223.83 88.52 L 224.07 88.53 L 224.31 88.54 L 224.55 88.55 L 224.78 88.56 L 225.02 88.57 L 225.26 88.58 L 225.49 88.59 L 225.73 88.60 L 225.97 88.61 L 226.20 88.62 L 226.44 88.63 L 226.68 88.64 L 226.91 88.65 L 227.15 88.66 L 227.39 88.67 L 227.62 88.68 L 227.86 88.69 L 228.10 88.70 L 228.34 88.71 L 228.57 88.72 L 228.81 88.73 L 229.05 88.74 L 229.28 88.75 L 229.52 88.76 L 229.76 88.76 L 229.99 88.77 L 230.23 88.78 L 230.47 88.79 L 230.70 88.80 L 230.94 88.81 L 231.18 88.82 L 231.41 88.83 L 231.65 88.83 L 231.89 88.84 L 232.13 88.85 L 232.36 88.86 L 232.60 88.87 L 232.84 88.88 L 233.07 88.89 L 233.31 88.89 L 233.55 88.90 L 233.78 88.91 L 234.02 88.92 L 234.26 88.93 L 234.49 88.93 L 234.73 88.94 L 234.97 88.95 L 235.20 88.96 L 235.44 88.97 L 235.68 88.97 L 235.91 88.98 L 236.15 88.99 L 236.39 89.00 L 236.63 89.00 L 236.86 89.01 L 237.10 89.02 L 237.34 89.03 L 237.57 89.03 L 237.81 89.04 L 238.05 89.05 L 238.28 89.05 L 238.52 89.06 L 238.76 89.07 L 238.99 89.08 L 239.23 89.08 L 239.47 89.09 L 239.70 89.10 L 239.94 89.10 L 240.18 89.11 L 240.42 89.12 L 240.65 89.12 L 240.89 89.13 L 241.13 89.14 L 241.36 89.14 L 241.60 89.15 L 241.84 89.16 L 242.07 89.16 L 242.31 89.17 L 242.55 89.17 L 242.78 89.18 L 243.02 89.19 L 243.26 89.19 L 243.49 89.20 L 243.73 89.20 L 243.97 89.21 L 244.21 89.22 L 244.44 89.22 L 244.68 89.23 L 244.92 89.23 L 245.15 89.24 L 245.39 89.25 L 245.63 89.25 L 245.86 89.26 L 246.10 89.26 L 246.34 89.27 L 246.57 89.27 L 246.81 89.28 L 247.05 89.29 L 247.28 89.29 L 247.52 89.30 L 247.76 89.30 L 247.99 89.31 L 248.23 89.31 L 248.47 89.32 L 248.71 89.32 L 248.94 89.33 L 249.18 89.33 L 249.42 89.34 L 249.65 89.34 L 249.89 89.35 L 250.13 89.35 L 250.36 89.36 L 250.60 89.36 L 250.84 89.37 L 251.07 89.37 L 251.31 89.38 L 251.55 89.38 L 251.78 89.39 L 252.02 89.39 L 252.26 89.40 L 252.50 89.40 L 252.73 89.41 L 252.97 89.41 L 253.21 89.41 L 253.44 89.42 L 253.68 89.42 L 253.92 89.43 L 254.15 89.43 L 254.39 89.44 L 254.63 89.44 L 254.86 89.45 L 255.10 89.45 L 255.34 89.45 L 255.57 89.46 L 255.81 89.46 L 256.05 89.47 L 256.29 89.47 L 256.52 89.47 L 256.76 89.48 L 257.00 89.48 L 257.23 89.49 L 257.47 89.49 L 257.71 89.49 L 257.94 89.50 L 258.18 89.50 L 258.42 89.51 L 258.65 89.51 L 258.89 89.51 L 259.13 89.52 L 259.36 89.52 L 259.60 89.52 L 259.84 89.53 L 260.08 89.53 L 260.31 89.54 L 260.55 89.54 L 260.79 89.54 L 261.02 89.55 L 261.26 89.55 L 261.50 89.55 L 261.73 89.56 L 261.97 89.56 L 262.21 89.56 L 262.44 89.57 L 262.68 89.57 L 262.92 89.57 L 263.15 89.58 L 263.39 89.58 L 263.63 89.58 L 263.86 89.59 L 264.10 89.59 L 264.34 89.59 L 264.58 89.60 L 264.81 89.60 L 265.05 89.60 L 265.29 89.61 L 265.52 89.61 L 265.76 89.61 L 266.00 89.62 L 266.23 89.62 L 266.47 89.62 L 266.71 89.62 L 266.94 89.63 L 267.18 89.63 L 267.42 89.63 L 267.65 89.64 L 267.89 89.64 L 268.13 89.64 L 268.37 89.64 L 268.60 89.65 L 268.84 89.65 L 269.08 89.65 L 269.31 89.66 L 269.55 89.66 L 269.79 89.66 L 270.02 89.66 L 270.26 89.67 L 270.50 89.67 L 270.73 89.67 L 270.97 89.67 L 271.21 89.68 L 271.44 89.68 L 271.68 89.68 L 271.92 89.68 L 272.16 89.69 L 272.39 89.69 L 272.63 89.69 L 272.87 89.69 L 273.10 89.70 L 273.34 89.70 L 273.58 89.70 L 273.81 89.70 L 274.05 89.71 L 274.29 89.71 L 274.52 89.71 L 274.76 89.71 L 275.00 89.71 L 275.23 89.72 L 275.47 89.72 L 275.71 89.72 L 275.94 89.72 L 276.18 89.73 L 276.42 89.73 L 276.66 89.73 L 276.89 89.73 L 277.13 89.73 L 277.37 89.74 L 277.60 89.74 L 277.84 89.74 L 278.08 89.74 L 278.31 89.74 L 278.55 89.75 L 278.79 89.75 L 279.02 89.75 L 279.26 89.75 L 279.50 89.75 L 279.73 89.76 L 279.97 89.76 L 280.21 89.76 L 280.45 89.76 L 280.68 89.76 L 280.92 89.77 L 281.16 89.77 L 281.39 89.77 L 281.63 89.77 L 281.87 89.77 L 282.10 89.77 L 282.34 89.78 L 282.58 89.78 L 282.81 89.78 L 283.05 89.78 L 283.29 89.78 L 283.52 89.79 L 283.76 89.79 L 284.00 89.79 L 284.24 89.79 L 284.47 89.79 L 284.71 89.79 L 284.95 89.79 L 285.18 89.80 L 285.42 89.80 L 285.66 89.80 L 285.89 89.80 L 286.13 89.80 L 286.37 89.80 L 286.60 89.81 L 286.84 89.81 L 287.08 89.81 L 287.31 89.81 L 287.55 89.81 L 287.79 89.81 L 288.03 89.82 L 288.26 89.82 L 288.50 89.82 L 288.74 89.82 L 288.97 89.82 L 289.21 89.82 L 289.45 89.82 L 289.68 89.83 L 289.92 89.83 L 290.16 89.83 L 290.39 89.83 L 290.63 89.83 L 290.87 89.83 L 291.10 89.83 L 291.34 89.83 L 291.58 89.84 L 291.81 89.84 L 292.05 89.84 L 292.29 89.84 L 292.53 89.84 L 292.76 89.84 L 293.00 89.84 L 293.24 89.84 L 293.47 89.85 L 293.71 89.85 L 293.95 89.85 L 294.18 89.85 L 294.42 89.85 L 294.66 89.85 L 294.89 89.85 L 295.13 89.85 L 295.37 89.86 L 295.60 89.86 L 295.84 89.86 L 296.08 89.86 L 296.32 89.86 L 296.55 89.86 L 296.79 89.86 L 297.03 89.86 L 297.26 89.86 L 297.50 89.87 L 297.74 89.87 L 297.97 89.87 L 298.21 89.87 L 298.45 89.87 L 298.68 89.87 L 298.92 89.87 L 299.16 89.87 L 299.39 89.87 L 299.63 89.87 L 299.87 89.88 L 300.11 89.88 L 300.34 89.88 L 300.58 89.88 L 300.82 89.88 L 301.05 89.88 L 301.29 89.88 L 301.53 89.88 L 301.76 89.88 L 302.00 89.88" fill="none" stroke="#7E8692" stroke-width="2.3" stroke-linecap="round" stroke-linejoin="round"/>
</svg>
