<svg xmlns="http://www.w3.org/2000/svg" viewBox="0 0 320 180" width="320" height="180">
  <rect width="320" height="180" fill="none"/>
  <path d="M 24.00 43.06 L 24.30 43.23 L 24.61 43.39 L 24.91 43.56 L 25.21 43.72 L 25.51 43.89 L 25.82 44.05 L 26.12 44.22 L 26.42 44.38 L 26.72 44.55 L 27.03 44.71 L 27.33 44.88 L 27.63 45.04 L 27.93 45.21 L 28.24 45.37 L 28.54 45.54 L 28.84 45.70 L 29.14 45.87 L 29.45 46.04 L 29.75 46.20 L 30.05 46.37 L 30.35 46.54 L 30.66 46.70 L 30.96 46.87 L 31.26 47.04 L 31.56 47.20 L 31.87 47.37 L 32.17 47.54 L 32.47 47.70 L 32.77 47.87 L 33.08 48.04 L 33.38 48.21 L 33.68 48.38 L 33.98 48.54 L 34.29 48.71 L 34.59 48.88 L 34.89 49.05 L 35.19 49.22 L 35.50 49.39 L 35.80 49.56 L 36.10 49.72 L 36.40 49.89 L 36.71 50.06 L 37.01 50.23 L 37.31 50.40 L 37.62 50.57 L 37.92 50.74 L 38.22 50.91 L 38.52 51.08 L 38.83 51.25 L 39.13 51.42 L 39.43 51.59 L 39.73 51.76 L 40.04 51.94 L 40.34 52.11 L 40.64 52.28 L 40.94 52.45 L 41.25 52.62 L 41.55 52.79 L 41.85 52.96 L 42.15 53.14 L 42.46 53.31 L 42.76 53.48 L 43.06 53.65 L 43.36 53.82 L 43.67 54.00 L 43.97 54.17 L 44.27 54.34 L 44.57 54.52 L 44.88 54.69 L 45.18 54.86 L 45.48 55.04 L 45.78 55.21 L 46.09 55.38 L 46.39 55.56 L 46.69 55.73 L 46.99 55.91 L 47.30 56.08 L 47.60 56.26 L 47.90 56.43 L 48.20 56.61 L 48.51 56.78 L 48.81 56.96 L 49.11 57.13 L 49.41 57.31 L 49.72 57.48 L 50.02 57.66 L 50.32 57.83 L 50.63 58.01 L 50.93 58.19 L 51.23 58.36 L 51.53 58.54 L 51.84 58.72 L 52.14 58.89 L 52.44 59.07 L 52.74 59.25 L 53.05 59.43 L 53.35 59.60 L 53.65 59.78 L 53.95 59.96 L 54.26 60.14 L 54.56 60.32 L 54.86 60.49 L 55.16 60.67 L 55.47 60.85 L 55.77 61.03 L 56.07 61.21 L 56.37 61.39 L 56.68 61.57 L 56.98 61.75 L 57.28 61.93 L 57.58 62.11 L 57.89 62.29 L 58.19 62.47 L 58.49 62.65 L 58.79 62.83 L 59.10 63.01 L 59.40 63.19 L 59.70 63.38 L 60.00 63.56 L 60.31 63.74 L 60.61 63.92 L 60.91 64.10 L 61.21 64.29 L 61.52 64.47 L 61.82 64.65 L 62.12 64.83 L 62.42 65.02 L 62.73 65.20 L 63.03 65.38 L 63.33 65.57 L 63.64 65.75 L 63.94 65.93 L 64.24 66.12 L 64.54 66.30 L 64.85 66.49 L 65.15 66.67 L 65.45 66.86 L 65.75 67.04 L 66.06 67.23 L 66.36 67.41 L 66.66 67.60 L 66.96 67.79 L 67.27 67.97 L 67.57 68.16 L 67.87 68.34 L 68.17 68.53 L 68.48 68.72 L 68.78 68.91 L 69.08 69.09 L 69.38 69.28 L 69.69 69.47 L 69.99 69.66 L 70.29 69.84 L 70.59 70.03 L 70.90 70.22 L 71.20 70.41 L 71.50 70.60 L 71.80 70.79 L 72.11 70.98 L 72.41 71.17 L 72.71 71.36 L 73.01 71.55 L 73.32 71.74 L 73.62 71.93 L 73.92 72.12 L 74.22 72.31 L 74.53 72.50 L 74.83 72.69 L 75.13 72.89 L 75.43 73.08 L 75.74 73.27 L 76.04 73.46 L 76.34 73.66 L 76.65 73.85 L 76.95 74.04 L 77.25 74.23 L 77.55 74.43 L 77.86 74.62 L 78.16 74.82 L 78.46 75.01 L 78.76 75.20 L 79.07 75.40 L 79.37 75.59 L 79.67 75.79 L 79.97 75.99 L 80.28 76.18 L 80.58 76.38 L 80.88 76.57 L 81.18 76.77 L 81.49 76.97 L 81.79 77.16 L 82.09 77.36 L 82.39 77.56 L 82.70 77.76 L 83.00 77.95 L 83.30 78.15 L 83.60 78.35 L 83.91 78.55 L 84.21 78.75 L 84.51 78.95 L 84.81 79.15 L 85.12 79.35 L 85.42 79.55 L 85.72 79.75 L 86.02 79.95 L 86.33 80.15 L 86.63 80.35 L 86.93 80.55 L 87.23 80.76 L 87.54 80.96 L 87.84 81.16 L 88.14 81.36 L 88.44 81.57 L 88.75 81.77 L 89.05 81.97 L 89.35 82.18 L 89.66 82.38 L 89.96 82.58 L 90.26 82.79 L 90.56 82.99 L 90.87 83.20 L 91.17 83.41 L 91.47 83.61 L 91.77 83.82 L 92.08 84.02 L 92.38 84.23 L 92.68 84.44 L 92.98 84.65 L 93.29 84.85 L 93.59 85.06 L 93.89 85.27 L 94.19 85.48 L 94.50 85.69 L 94.80 85.90 L 95.10 86.11 L 95.40 86.32 L 95.71 86.53 L 96.01 86.74 L 96.31 86.95 L 96.61 87.16 L 96.92 87.37 L 97.22 87.58 L 97.52 87.79 L 97.82 88.01 L 98.13 88.22 L 98.43 88.43 L 98.73 88.65 L 99.03 88.86 L 99.34 89.08 L 99.64 89.29 L 99.94 89.51 L 100.24 89.72 L 100.55 89.94 L 100.85 90.15 L 101.15 90.37 L 101.45 90.59 L 101.76 90.80 L 102.06 91.02 L 102.36 91.24 L 102.67 91.46 L 102.97 91.68 L 103.27 91.90 L 103.57 92.12 L 103.88 92.34 L 104.18 92.56 L 104.48 92.78 L 104.78 93.00 L 105.09 93.22 L 105.39 93.44 L 105.69 93.67 L 105.99 93.89 L 106.30 94.11 L 106.60 94.33 L 106.90 94.56 L 107.20 94.78 L 107.51 95.01 L 107.81 95.23 L 108.11 95.46 L 108.41 95.69 L 108.72 95.91 L 109.02 96.14 L 109.32 96.37 L 109.62 96.60 L 109.93 96.82 L 110.23 97.05 L 110.53 97.28 L 110.83 97.51 L 111.14 97.74 L 111.44 97.97 L 111.74 98.21 L 112.04 98.44 L 112.35 98.67 L 112.65 98.90 L 112.95 99.14 L 113.25 99.37 L 113.56 99.60 L 113.86 99.84 L 114.16 100.07 L 114.46 100.31 L 114.77 100.55 L 115.07 100.78 L 115.37 101.02 L 115.68 101.26 L 115.98 101.50 L 116.28 101.74 L 116.58 101.98 L 116.89 102.22 L 117.19 102.46 L 117.49 102.70 L 117.79 102.94 L 118.10 103.18 L 118.40 103.42 L 118.70 103.67 L 119.00 103.91 L 119.31 104.16 L 119.61 104.40 L 119.91 104.65 L 120.21 104.90 L 120.52 105.14 L 120.82 105.39 L 121.12 105.64 L 121.42 105.89 L 121.73 106.14 L 122.03 106.39 L 122.33 106.64 L 122.63 106.89 L 122.94 107.14 L 123.24 107.40 L 123.54 107.65 L 123.84 107.91 L 124.15 108.16 L 124.45 108.42 L 124.75 108.67 L 125.05 108.93 L 125.36 109.19 L 125.66 109.45 L 125.96 109.71 L 126.26 109.97 L 126.57 110.23 L 126.87 110.49 L 127.17 110.76 L 127.47 111.02 L 127.78 111.28 L 128.08 111.55 L 128.38 111.82 L 128.69 112.08 L 128.99 112.35 L 129.29 112.62 L 129.59 112.89 L 129.90 113.16 L 130.20 113.43 L 130.50 113.70 L 130.80 113.98 L 131.11 114.25 L 131.41 114.53 L 131.71 114.80 L 132.01 115.08 L 132.32 115.36 L 132.62 115.64 L 132.92 115.92 L 133.22 116.20 L 133.53 116.48 L 133.83 116.77 L 134.13 117.05 L 134.43 117.34 L 134.74 117.62 L 135.04 117.91 L 135.34 118.20 L 135.64 118.49 L 135.95 118.78 L 136.25 119.07 L 136.55 119.37 L 136.85 119.66 L 137.16 119.96 L 137.46 120.26 L 137.76 120.56 L 138.06 120.86 L 138.37 121.16 L 138.67 121.46 L 138.97 121.77 L 139.27 122.07 L 139.58 122.38 L 139.88 122.69 L 140.18 123.00 L 140.48 123.31 L 140.79 123.63 L 141.09 123.94 L 141.39 124.26 L 141.70 124.58 L 142.00 124.90 L 142.30 125.22 L 142.60 125.55 L 142.91 125.87 L 143.21 126.20 L 143.51 126.53 L 143.81 126.86 L 144.12 127.20 L 144.42 127.54 L 144.72 127.87 L 145.02 128.21 L 145.33 128.56 L 145.63 128.90 L 145.93 129.25 L 146.23 129.60 L 146.54 129.96 L 146.84 130.31 L 147.14 130.67 L 147.44 131.03 L 147.75 131.40 L 148.05 131.76 L 148.35 132.13 L 148.65 132.51 L 148.96 132.88 L 149.26 133.26 L 149.56 133.65 L 149.86 134.04 L 150.17 134.43 L 150.47 134.82 L 150.77 135.22 L 151.07 135.63 L 151.38 136.04 L 151.68 136.45 L 151.98 136.87 L 152.28 137.29 L 152.59 137.72 L 152.89 138.16 L 153.19 138.60 L 153.49 139.05 L 153.80 139.50 L 154.10 139.96 L 154.40 140.44 L 154.71 140.91 L 155.01 141.40 L 155.31 141.90 L 155.61 142.41 L 155.92 142.93 L 156.22 143.47 L 156.52 144.01 L 156.82 144.58 L 157.13 145.16 L 157.43 145.77 L 157.73 146.39 L 158.03 147.05 L 158.34 147.74 L 158.64 148.48 L 158.94 149.27 L 159.24 150.14 L 159.55 151.14 L 159.85 152.43 L 160.15 152.43 L 160.45 151.14 L 160.76 150.14 L 161.06 149.27 L 161.36 148.48 L 161.66 147.74 L 161.97 147.05 L 162.27 146.39 L 162.57 145.77 L 162.87 145.16 L 163.18 144.58 L 163.48 144.01 L 163.78 143.47 L 164.08 142.93 L 164.39 142.41 L 164.69 141.90 L 164.99 141.40 L 165.29 140.91 L 165.60 140.44 L 165.90 139.96 L 166.20 139.50 L 166.51 139.05 L 166.81 138.60 L 167.11 138.16 L 167.41 137.72 L 167.72 137.29 L 168.02 136.87 L 168.32 136.45 L 168.62 136.04 L 168.93 135.63 L 169.23 135.22 L 169.53 134.82 L 169.83 134.43 L 170.14 134.04 L 170.44 133.65 L 170.74 133.26 L 171.04 132.88 L 171.35 132.51 L 171.65 132.13 L 171.95 131.76 L 172.25 131.40 L 172.56 131.03 L 172.86 130.67 L 173.16 130.31 L 173.46 129.96 L 173.77 129.60 L 174.07 129.25 L 174.37 128.90 L 174.67 128.56 L 174.98 128.21 L 175.28 127.87 L 175.58 127.54 L 175.88 127.20 L 176.19 126.86 L 176.49 126.53 L 176.79 126.20 L 177.09 125.87 L 177.40 125.55 L 177.70 125.22 L 178.00 124.90 L 178.30 124.58 L 178.61 124.26 L 178.91 123.94 L 179.21 123.63 L 179.52 123.31 L 179.82 123.00 L 180.12 122.69 L 180.42 122.38 L 180.73 122.07 L 181.03 121.77 L 181.33 121.46 L 181.63 121.16 L 181.94 120.86 L 182.24 120.56 L 182.54 120.26 L 182.84 119.96 L 183.15 119.66 L 183.45 119.37 L 183.75 119.07 L 184.05 118.78 L 184.36 118.49 L 184.66 118.20 L 184.96 117.91 L 185.26 117.62 L 185.57 117.34 L 185.87 117.05 L 186.17 116.77 L 186.47 116.48 L 186.78 116.20 L 187.08 115.92 L 187.38 115.64 L 187.68 115.36 L 187.99 115.08 L 188.29 114.80 L 188.59 114.53 L 188.89 114.25 L 189.20 113.98 L 189.50 113.70 L 189.80 113.43 L 190.10 113.16 L 190.41 112.89 L 190.71 112.62 L 191.01 112.35 L 191.31 112.08 L 191.62 111.82 L 191.92 111.55 L 192.22 111.28 L 192.53 111.02 L 192.83 110.76 L 193.13 110.49 L 193.43 110.23 L 193.74 109.97 L 194.04 109.71 L 194.34 109.45 L 194.64 109.19 L 194.95 108.93 L 195.25 108.67 L 195.55 108.42 L 195.85 108.16 L 196.16 107.91 L 196.46 107.65 L 196.76 107.40 L 197.06 107.14 L 197.37 106.89 L 197.67 106.64 L 197.97 106.39 L 198.27 106.14 L 198.58 105.89 L 198.88 105.64 L 199.18 105.39 L 199.48 105.14 L 199.79 104.90 L 200.09 104.65 L 200.39 104.40 L 200.69 104.16 L 201.00 103.91 L 201.30 103.67 L 201.60 103.42 L 201.90 103.18 L 202.21 102.94 L 202.51 102.70 L 202.81 102.46 L 203.11 102.22 L 203.42 101.98 L 203.72 101.74 L 204.02 101.50 L 204.32 101.26 L 204.63 101.02 L 204.93 100.78 L 205.23 100.55 L 205.54 100.31 L 205.84 100.07 L 206.14 99.84 L 206.44 99.60 L 206.75 99.37 L 207.05 99.14 L 207.35 98.90 L 207.65 98.67 L 207.96 98.44 L 208.26 98.21 L 208.56 97.97 L 208.86 97.74 L 209.17 97.51 L 209.47 97.28 L 209.77 97.05 L 210.07 96.82 L 210.38 96.60 L 210.68 96.37 L 210.98 96.14 L 211.28 95.91 L 211.59 95.69 L 211.89 95.46 L 212.19 95.23 L 212.49 95.01 L 212.80 94.78 L 213.10 94.56 L 213.40 94.33 L 213.70 94.11 L 214.01 93.89 L 214.31 93.67 L 214.61 93.44 L 214.91 93.22 L 215.22 93.00 L 215.52 92.78 L 215.82 92.56 L 216.12 92.34 L 216.43 92.12 L 216.73 91.90 L 217.03 91.68 L 217.33 91.46 L 217.64 91.24 L 217.94 91.02 L 218.24 90.80 L 218.55 90.59 L 218.85 90.37 L 219.15 90.15 L 219.45 89.94 L 219.76 89.72 L 220.06 89.51 L 220.36 89.29 L 220.66 89.08 L 220.97 88.86 L 221.27 88.65 L 221.57 88.43 L 221.87 88.22 L 222.18 88.01 L 222.48 87.79 L 222.78 87.58 L 223.08 87.37 L 223.39 87.16 L 223.69 86.95 L 223.99 86.74 L 224.29 86.53 L 224.60 86.32 L 224.90 86.11 L 225.20 85.90 L 225.50 85.69 L 225.81 85.48 L 226.11 85.27 L 226.41 85.06 L 226.71 84.85 L 227.02 84.65 L 227.32 84.44 L 227.62 84.23 L 227.92 84.02 L 228.23 83.82 L 228.53 83.61 L 228.83 83.41 L 229.13 83.20 L 229.44 82.99 L 229.74 82.79 L 230.04 82.58 L 230.34 82.38 L 230.65 82.18 L 230.95 81.97 L 231.25 81.77 L 231.56 81.57 L 231.86 81.36 L 232.16 81.16 L 232.46 80.96 L 232.77 80.76 L 233.07 80.55 L 233.37 80.35 L 233.67 80.15 L 233.98 79.95 L 234.28 79.75 L 234.58 79.55 L 234.88 79.35 L 235.19 79.15 L 235.49 78.95 L 235.79 78.75 L 236.09 78.55 L 236.40 78.35 L 236.70 78.15 L 237.00 77.95 L 237.30 77.76 L 237.61 77.56 L 237.91 77.36 L 238.21 77.16 L 238.51 76.97 L 238.82 76.77 L 239.12 76.57 L 239.42 76.38 L 239.72 76.18 L 240.03 75.99 L 240.33 75.79 L 240.63 75.59 L 240.93 75.40 L 241.24 75.20 L 241.54 75.01 L 241.84 74.82 L 242.14 74.62 L 242.45 74.43 L 242.75 74.23 L 243.05 74.04 L 243.35 73.85 L 243.66 73.66 L 243.96 73.46 L 244.26 73.27 L 244.57 73.08 L 244.87 72.89 L 245.17 72.69 L 245.47 72.50 L 245.78 72.31 L 246.08 72.12 L 246.38 71.93 L 246.68 71.74 L 246.99 71.55 L 247.29 71.36 L 247.59 71.17 L 247.89 70.98 L 248.20 70.79 L 248.50 70.60 L 248.80 70.41 L 249.10 70.22 L 249.41 70.03 L 249.71 69.84 L 250.01 69.66 L 250.31 69.47 L 250.62 69.28 L 250.92 69.09 L 251.22 68.91 L 251.52 68.72 L 251.83 68.53 L 252.13 68.34 L 252.43 68.16 L 252.73 67.97 L 253.04 67.79 L 253.34 67.60 L 253.64 67.41 L 253.94 67.23 L 254.25 67.04 L 254.55 66.86 L 254.85 66.67 L 255.15 66.49 L 255.46 66.30 L 255.76 66.12 L 256.06 65.93 L 256.36 65.75 L 256.67 65.57 L 256.97 65.38 L 257.27 65.20 L 257.58 65.02 L 257.88 64.83 L 258.18 64.65 L 258.48 64.47 L 258.79 64.29 L 259.09 64.10 L 259.39 63.92 L 259.69 63.74 L 260.00 63.56 L 260.30 63.38 L 260.60 63.19 L 260.90 63.01 L 261.21 62.83 L 261.51 62.65 L 261.81 62.47 L 262.11 62.29 L 262.42 62.11 L 262.72 61.93 L 263.02 61.75 L 263.32 61.57 L 263.63 61.39 L 263.93 61.21 L 264.23 61.03 L 264.53 60.85 L 264.84 60.67 L 265.14 60.49 L 265.44 60.32 L 265.74 60.14 L 266.05 59.96 L 266.35 59.78 L 266.65 59.60 L 266.95 59.43 L 267.26 59.25 L 267.56 59.07 L 267.86 58.89 L 268.16 58.72 L 268.47 58.54 L 268.77 58.36 L 269.07 58.19 L 269.37 58.01 L 269.68 57.83 L 269.98 57.66 L 270.28 57.48 L 270.59 57.31 L 270.89 57.13 L 271.19 56.96 L 271.49 56.78 L 271.80 56.61 L 272.10 56.43 L 272.40 56.26 L 272.70 56.08 L 273.01 55.91 L 273.31 55.73 L 273.61 55.56 L 273.91 55.38 L 274.22 55.21 L 274.52 55.04 L 274.82 54.86 L 275.12 54.69 L 275.43 54.52 L 275.73 54.34 L 276.03 54.17 L 276.33 54.00 L 276.64 53.82 L 276.94 53.65 L 277.24 53.48 L 277.54 53.31 L 277.85 53.14 L 278.15 52.96 L 278.45 52.79 L 278.75 52.62 L 279.06 52.45 L 279.36 52.28 L 279.66 52.11 L 279.96 51.94 L 280.27 51.76 L 280.57 51.59 L 280.87 51.42 L 281.17 51.25 L 281.48 51.08 L 281.78 50.91 L 282.08 50.74 L 282.38 50.57 L 282.69 50.40 L 282.99 50.23 L 283.29 50.06 L 283.60 49.89 L 283.90 49.72 L 284.20 49.56 L 284.50 49.39 L 284.81 49.22 L 285.11 49.05 L 285.41 48.88 L 285.71 48.71 L 286.02 48.54 L 286.32 48.38 L 286.62 48.21 L 286.92 48.04 L 287.23 47.87 L 287.53 47.70 L 287.83 47.54 L 288.13 47.37 L 288.44 47.20 L 288.74 47.04 L 289.04 46.87 L 289.34 46.70 L 289.65 46.54 L 289.95 46.37 L 290.25 46.20 L 290.55 46.04 L 290.86 45.87 L 291.16 45.70 L 291.46 45.54 L 291.76 45.37 L 292.07 45.21 L 292.37 45.04 L 292.67 44.88 L 292.97 44.71 L 293.28 44.55 L 293.58 44.38 L 293.88 44.22 L 294.18 44.05 L 294.49 43.89 L 294.79 43.72 L 295.09 43.56 L 295.39 43.39 L 295.70 43.23 L 296.00 43.06" fill="none" stroke="#5F6B7A" stroke-width="2.5" stroke-linecap="round" stroke-linejoin="round"/>
</svg>
