<svg xmlns="http://www.w3.org/2000/svg" viewBox="0 0 320 180" width="320" height="180">
  <rect width="320" height="180" fill="#F4F5F7"/>
  <path d="M 18.00 89.10 L 18.24 89.10 L 18.47 89.09 L 18.71 89.09 L 18.95 89.09 L 19.18 89.08 L 19.42 89.08 L 19.66 89.08 L 19.89 89.08 L 20.13 89.07 L 20.37 89.07 L 20.61 89.07 L 20.84 89.06 L 21.08 89.06 L 21.32 89.06 L 21.55 89.05 L 21.79 89.05 L 22.03 89.05 L 22.26 89.04 L 22.50 89.04 L 22.74 89.04 L 22.97 89.03 L 23.21 89.03 L 23.45 89.03 L 23.68 89.02 L 23.92 89.02 L 24.16 89.02 L 24.40 89.01 L 24.63 89.01 L 24.87 89.01 L 25.11 89.00 L 25.34 89.00 L 25.58 89.00 L 25.82 88.99 L 26.05 88.99 L 26.29 88.98 L 26.53 88.98 L 26.76 88.98 L 27.00 88.97 L 27.24 88.97 L 27.47 88.97 L 27.71 88.96 L 27.95 88.96 L 28.19 88.96 L 28.42 88.95 L 28.66 88.95 L 28.90 88.94 L 29.13 88.94 L 29.37 88.94 L 29.61 88.93 L 29.84 88.93 L 30.08 88.92 L 30.32 88.92 L 30.55 88.92 L 30.79 88.91 L 31.03 88.91 L 31.26 88.90 L 31.50 88.90 L 31.74 88.90 L 31.97 88.89 L 32.21 88.89 L 32.45 88.88 L 32.69 88.88 L 32.92 88.88 L 33.16 88.87 L 33.40 88.87 L 33.63 88.86 L 33.87 88.86 L 34.11 88.85 L 34.34 88.85 L 34.58 88.85 L 34.82 88.84 L 35.05 88.84 L 35.29 88.83 L 35.53 88.83 L 35.76 88.82 L 36.00 88.82 L 36.24 88.82 L 36.48 88.81 L 36.71 88.81 L 36.95 88.80 L 37.19 88.80 L 37.42 88.79 L 37.66 88.79 L 37.90 88.78 L 38.13 88.78 L 38.37 88.77 L 38.61 88.77 L 38.84 88.76 L 39.08 88.76 L 39.32 88.75 L 39.55 88.75 L 39.79 88.74 L 40.03 88.74 L 40.27 88.73 L 40.50 88.73 L 40.74 88.72 L 40.98 88.72 L 41.21 88.71 L 41.45 88.71 L 41.69 88.70 L 41.92 88.70 L 42.16 88.69 L 42.40 88.69 L 42.63 88.68 L 42.87 88.68 L 43.11 88.67 L 43.34 88.67 L 43.58 88.66 L 43.82 88.66 L 44.06 88.65 L 44.29 88.64 L 44.53 88.64 L 44.77 88.63 L 45.00 88.63 L 45.24 88.62 L 45.48 88.62 L 45.71 88.61 L 45.95 88.60 L 46.19 88.60 L 46.42 88.59 L 46.66 88.59 L 46.90 88.58 L 47.13 88.58 L 47.37 88.57 L 47.61 88.56 L 47.84 88.56 L 48.08 88.55 L 48.32 88.55 L 48.56 88.54 L 48.79 88.53 L 49.03 88.53 L 49.27 88.52 L 49.50 88.51 L 49.74 88.51 L 49.98 88.50 L 50.21 88.49 L 50.45 88.49 L 50.69 88.48 L 50.92 88.47 L 51.16 88.47 L 51.40 88.46 L 51.63 88.45 L 51.87 88.45 L 52.11 88.44 L 52.35 88.43 L 52.58 88.43 L 52.82 88.42 L 53.06 88.41 L 53.29 88.41 L 53.53 88.40 L 53.77 88.39 L 54.00 88.38 L 54.24 88.38 L 54.48 88.37 L 54.71 88.36 L 54.95 88.36 L 55.19 88.35 L 55.42 88.34 L 55.66 88.33 L 55.90 88.33 L 56.14 88.32 L 56.37 88.31 L 56.61 88.30 L 56.85 88.29 L 57.08 88.29 L 57.32 88.28 L 57.56 88.27 L 57.79 88.26 L 58.03 88.25 L 58.27 88.25 L 58.50 88.24 L 58.74 88.23 L 58.98 88.22 L 59.21 88.21 L 59.45 88.20 L 59.69 88.20 L 59.92 88.19 L 60.16 88.18 L 60.40 88.17 L 60.64 88.16 L 60.87 88.15 L 61.11 88.14 L 61.35 88.14 L 61.58 88.13 L 61.82 88.12 L 62.06 88.11 L 62.29 88.10 L 62.53 88.09 L 62.77 88.08 L 63.00 88.07 L 63.24 88.06 L 63.48 88.05 L 63.71 88.04 L 63.95 88.03 L 64.19 88.02 L 64.43 88.01 L 64.66 88.00 L 64.90 87.99 L 65.14 87.98 L 65.37 87.97 L 65.61 87.96 L 65.85 87.95 L 66.08 87.94 L 66.32 87.93 L 66.56 87.92 L 66.79 87.91 L 67.03 87.90 L 67.27 87.89 L 67.50 87.88 L 67.74 87.87 L 67.98 87.86 L 68.22 87.85 L 68.45 87.83 L 68.69 87.82 L 68.93 87.81 L 69.16 87.80 L 69.40 87.79 L 69.64 87.78 L 69.87 87.77 L 70.11 87.75 L 70.35 87.74 L 70.58 87.73 L 70.82 87.72 L 71.06 87.71 L 71.29 87.69 L 71.53 87.68 L 71.77 87.67 L 72.01 87.66 L 72.24 87.64 L 72.48 87.63 L 72.72 87.62 L 72.95 87.60 L 73.19 87.59 L 73.43 87.58 L 73.66 87.57 L 73.90 87.55 L 74.14 87.54 L 74.37 87.52 L 74.61 87.51 L 74.85 87.50 L 75.08 87.48 L 75.32 87.47 L 75.56 87.45 L 75.79 87.44 L 76.03 87.43 L 76.27 87.41 L 76.51 87.40 L 76.74 87.38 L 76.98 87.37 L 77.22 87.35 L 77.45 87.34 L 77.69 87.32 L 77.93 87.31 L 78.16 87.29 L 78.40 87.27 L 78.64 87.26 L 78.87 87.24 L 79.11 87.23 L 79.35 87.21 L 79.58 87.19 L 79.82 87.18 L 80.06 87.16 L 80.30 87.14 L 80.53 87.13 L 80.77 87.11 L 81.01 87.09 L 81.24 87.07 L 81.48 87.06 L 81.72 87.04 L 81.95 87.02 L 82.19 87.00 L 82.43 86.98 L 82.66 86.97 L 82.90 86.95 L 83.14 86.93 L 83.37 86.91 L 83.61 86.89 L 83.85 86.87 L 84.09 86.85 L 84.32 86.83 L 84.56 86.81 L 84.80 86.79 L 85.03 86.77 L 85.27 86.75 L 85.51 86.73 L 85.74 86.71 L 85.98 86.69 L 86.22 86.67 L 86.45 86.64 L 86.69 86.62 L 86.93 86.60 L 87.16 86.58 L 87.40 86.56 L 87.64 86.53 L 87.87 86.51 L 88.11 86.49 L 88.35 86.47 L 88.59 86.44 L 88.82 86.42 L 89.06 86.39 L 89.30 86.37 L 89.53 86.35 L 89.77 86.32 L 90.01 86.30 L 90.24 86.27 L 90.48 86.25 L 90.72 86.22 L 90.95 86.19 L 91.19 86.17 L 91.43 86.14 L 91.66 86.11 L 91.90 86.09 L 92.14 86.06 L 92.38 86.03 L 92.61 86.00 L 92.85 85.98 L 93.09 85.95 L 93.32 85.92 L 93.56 85.89 L 93.80 85.86 L 94.03 85.83 L 94.27 85.80 L 94.51 85.77 L 94.74 85.74 L 94.98 85.71 L 95.22 85.68 L 95.45 85.64 L 95.69 85.61 L 95.93 85.58 L 96.17 85.55 L 96.40 85.51 L 96.64 85.48 L 96.88 85.45 L 97.11 85.41 L 97.35 85.38 L 97.59 85.34 L 97.82 85.31 L 98.06 85.27 L 98.30 85.23 L 98.53 85.20 L 98.77 85.16 L 99.01 85.12 L 99.24 85.08 L 99.48 85.05 L 99.72 85.01 L 99.95 84.97 L 100.19 84.93 L 100.43 84.89 L 100.67 84.85 L 100.90 84.80 L 101.14 84.76 L 101.38 84.72 L 101.61 84.68 L 101.85 84.63 L 102.09 84.59 L 102.32 84.54 L 102.56 84.50 L 102.80 84.45 L 103.03 84.41 L 103.27 84.36 L 103.51 84.31 L 103.74 84.27 L 103.98 84.22 L 104.22 84.17 L 104.46 84.12 L 104.69 84.07 L 104.93 84.02 L 105.17 83.96 L 105.40 83.91 L 105.64 83.86 L 105.88 83.80 L 106.11 83.75 L 106.35 83.70 L 106.59 83.64 L 106.82 83.58 L 107.06 83.52 L 107.30 83.47 L 107.53 83.41 L 107.77 83.35 L 108.01 83.29 L 108.25 83.22 L 108.48 83.16 L 108.72 83.10 L 108.96 83.03 L 109.19 82.97 L 109.43 82.90 L 109.67 82.84 L 109.90 82.77 L 110.14 82.70 L 110.38 82.63 L 110.61 82.56 L 110.85 82.49 L 111.09 82.41 L 111.32 82.34 L 111.56 82.27 L 111.80 82.19 L 112.04 82.11 L 112.27 82.03 L 112.51 81.95 L 112.75 81.87 L 112.98 81.79 L 113.22 81.71 L 113.46 81.62 L 113.69 81.54 L 113.93 81.45 L 114.17 81.36 L 114.40 81.27 L 114.64 81.18 L 114.88 81.09 L 115.11 80.99 L 115.35 80.90 L 115.59 80.80 L 115.82 80.70 L 116.06 80.60 L 116.30 80.50 L 116.54 80.39 L 116.77 80.29 L 117.01 80.18 L 117.25 80.07 L 117.48 79.96 L 117.72 79.85 L 117.96 79.73 L 118.19 79.62 L 118.43 79.50 L 118.67 79.38 L 118.90 79.25 L 119.14 79.13 L 119.38 79.00 L 119.61 78.87 L 119.85 78.74 L 120.09 78.61 L 120.33 78.47 L 120.56 78.33 L 120.80 78.19 L 121.04 78.05 L 121.27 77.90 L 121.51 77.75 L 121.75 77.60 L 121.98 77.44 L 122.22 77.29 L 122.46 77.12 L 122.69 76.96 L 122.93 76.79 L 123.17 76.62 L 123.40 76.45 L 123.64 76.27 L 123.88 76.09 L 124.12 75.91 L 124.35 75.72 L 124.59 75.53 L 124.83 75.33 L 125.06 75.13 L 125.30 74.93 L 125.54 74.72 L 125.77 74.51 L 126.01 74.29 L 126.25 74.07 L 126.48 73.84 L 126.72 73.61 L 126.96 73.38 L 127.19 73.14 L 127.43 72.89 L 127.67 72.64 L 127.90 72.38 L 128.14 72.12 L 128.38 71.85 L 128.62 71.58 L 128.85 71.29 L 129.09 71.01 L 129.33 70.71 L 129.56 70.41 L 129.80 70.10 L 130.04 69.79 L 130.27 69.46 L 130.51 69.13 L 130.75 68.79 L 130.98 68.44 L 131.22 68.09 L 131.46 67.72 L 131.69 67.35 L 131.93 66.97 L 132.17 66.57 L 132.41 66.17 L 132.64 65.75 L 132.88 65.33 L 133.12 64.89 L 133.35 64.44 L 133.59 63.98 L 133.83 63.51 L 134.06 63.02 L 134.30 62.52 L 134.54 62.01 L 134.77 61.48 L 135.01 60.94 L 135.25 60.38 L 135.48 59.80 L 135.72 59.21 L 135.96 58.60 L 136.20 57.98 L 136.43 57.33 L 136.67 56.66 L 136.91 55.97 L 137.14 55.27 L 137.38 54.53 L 137.62 53.78 L 137.85 53.00 L 138.09 52.20 L 138.33 51.37 L 138.56 50.51 L 138.80 49.62 L 139.04 48.70 L 139.27 47.75 L 139.51 46.77 L 139.75 45.75 L 139.98 44.70 L 140.22 43.61 L 140.46 42.48 L 140.70 41.30 L 140.93 40.09 L 141.17 38.82 L 141.41 37.51 L 141.64 36.15 L 141.88 34.73 L 142.12 33.26 L 142.35 31.72 L 142.59 30.12 L 142.83 28.46 L 143.06 26.73 L 143.30 24.92 L 143.54 23.03 L 143.77 21.07 L 144.01 19.01 L 144.25 16.86 L 144.49 14.61 L 144.72 12.25 L 144.96 9.78 L 145.20 7.19 L 145.43 4.48 L 145.67 1.63 L 145.91 -1.37 L 146.14 -4.52 L 146.38 -7.83 L 146.62 -11.33 L 146.85 -15.01 L 147.09 -18.90 L 147.33 -23.01 L 147.56 -27.36 L 147.80 -31.96 L 148.04 -36.83 L 148.28 -42.01 L 148.51 -47.51 L 148.75 -53.36 L 148.99 -59.59 L 149.22 -66.24 L 149.46 -73.34 L 149.70 -80.94 L 149.93 -89.08 L 150.17 -97.81 L 150.41 -107.20 L 150.64 -117.31 L 150.88 -128.22 L 151.12 -140.02 L 151.35 -152.79 L 151.59 -166.66 L 151.83 -181.76" fill="none" stroke="#7E8692" stroke-width="2.3" stroke-linecap="round" stroke-linejoin="round"/>
  <path d="M 168.17 -181.76 L 168.41 -166.66 L 168.65 -152.79 L 168.88 -140.02 L 169.12 -128.22 L 169.36 -117.31 L 169.59 -107.20 L 169.83 -97.81 L 170.07 -89.08 L 170.30 -80.94 L 170.54 -73.34 L 170.78 -66.24 L 171.01 -59.59 L 171.25 -53.36 L 171.49 -47.51 L 171.72 -42.01 L 171.96 -36.83 L 172.20 -31.96 L 172.44 -27.36 L 172.67 -23.01 L 172.91 -18.90 L 173.15 -15.01 L 173.38 -11.33 L 173.62 -7.83 L 173.86 -4.52 L 174.09 -1.37 L 174.33 1.63 L 174.57 4.48 L 174.80 7.19 L 175.04 9.78 L 175.28 12.25 L 175.51 14.61 L 175.75 16.86 L 175.99 19.01 L 176.23 21.07 L 176.46 23.03 L 176.70 24.92 L 176.94 26.73 L 177.17 28.46 L 177.41 30.12 L 177.65 31.72 L 177.88 33.26 L 178.12 34.73 L 178.36 36.15 L 178.59 37.51 L 178.83 38.82 L 179.07 40.09 L 179.30 41.30 L 179.54 42.48 L 179.78 43.61 L 180.02 44.70 L 180.25 45.75 L 180.49 46.77 L 180.73 47.75 L 180.96 48.70 L 181.20 49.62 L 181.44 50.51 L 181.67 51.37 L 181.91 52.20 L 182.15 53.00 L 182.38 53.78 L 182.62 54.53 L 182.86 55.27 L 183.09 55.97 L 183.33 56.66 L 183.57 57.33 L 183.80 57.98 L 184.04 58.60 L 184.28 59.21 L 184.52 59.80 L 184.75 60.38 L 184.99 60.94 L 185.23 61.48 L 185.46 62.01 L 185.70 62.52 L 185.94 63.02 L 186.17 63.51 L 186.41 63.98 L 186.65 64.44 L 186.88 64.89 L 187.12 65.33 L 187.36 65.75 L 187.59 66.17 L 187.83 66.57 L 188.07 66.97 L 188.31 67.35 L 188.54 67.72 L 188.78 68.09 L 189.02 68.44 L 189.25 68.79 L 189.49 69.13 L 189.73 69.46 L 189.96 69.79 L 190.20 70.10 L 190.44 70.41 L 190.67 70.71 L 190.91 71.01 L 191.15 71.29 L 191.38 71.58 L 191.62 71.85 L 191.86 72.12 L 192.10 72.38 L 192.33 72.64 L 192.57 72.89 L 192.81 73.14 L 193.04 73.38 L 193.28 73.61 L 193.52 73.84 L 193.75 74.07 L 193.99 74.29 L 194.23 74.51 L 194.46 74.72 L 194.70 74.93 L 194.94 75.13 L 195.17 75.33 L 195.41 75.53 L 195.65 75.72 L 195.88 75.91 L 196.12 76.09 L 196.36 76.27 L 196.60 76.45 L 196.83 76.62 L 197.07 76.79 L 197.31 76.96 L 197.54 77.12 L 197.78 77.29 L 198.02 77.44 L 198.25 77.60 L 198.49 77.75 L 198.73 77.90 L 198.96 78.05 L 199.20 78.19 L 199.44 78.33 L 199.67 78.47 L 199.91 78.61 L 200.15 78.74 L 200.39 78.87 L 200.62 79.00 L 200.86 79.13 L 201.10 79.25 L 201.33 79.38 L 201.57 79.50 L 201.81 79.62 L 202.04 79.73 L 202.28 79.85 L 202.52 79.96 L 202.75 80.07 L 202.99 80.18 L 203.23 80.29 L 203.46 80.39 L 203.70 80.50 L 203.94 80.60 L 204.18 80.70 L 204.41 80.80 L 204.65 80.90 L 204.89 80.99 L 205.12 81.09 L 205.36 81.18 L 205.60 81.27 L 205.83 81.36 L 206.07 81.45 L 206.31 81.54 L 206.54 81.62 L 206.78 81.71 L 207.02 81.79 L 207.25 81.87 L 207.49 81.95 L 207.73 82.03 L 207.96 82.11 L 208.20 82.19 L 208.44 82.27 L 208.68 82.34 L 208.91 82.41 L 209.15 82.49 L 209.39 82.56 L 209.62 82.63 L 209.86 82.70 L 210.10 82.77 L 210.33 82.84 L 210.57 82.90 L 210.81 82.97 L 211.04 83.03 L 211.28 83.10 L 211.52 83.16 L 211.75 83.22 L 211.99 83.29 L 212.23 83.35 L 212.47 83.41 L 212.70 83.47 L 212.94 83.52 L 213.18 83.58 L 213.41 83.64 L 213.65 83.70 L 213.89 83.75 L 214.12 83.80 L 214.36 83.86 L 214.60 83.91 L 214.83 83.96 L 215.07 84.02 L 215.31 84.07 L 215.54 84.12 L 215.78 84.17 L 216.02 84.22 L 216.26 84.27 L 216.49 84.31 L 216.73 84.36 L 216.97 84.41 L 217.20 84.45 L 217.44 84.50 L 217.68 84.54 L 217.91 84.59 L 218.15 84.63 L 218.39 84.68 L 218.62 84.72 L 218.86 84.76 L 219.10 84.80 L 219.33 84.85 L 219.57 84.89 L 219.81 84.93 L 220.05 84.97 L 220.28 85.01 L 220.52 85.05 L 220.76 85.08 L 220.99 85.12 L 221.23 85.16 L 221.47 85.20 L 221.70 85.23 L 221.94 85.27 L 222.18 85.31 L 222.41 85.34 L 222.65 85.38 L 222.89 85.41 L 223.12 85.45 L 223.36 85.48 L 223.60 85.51 L 223.83 85.55 L 224.07 85.58 L 224.31 85.61 L 224.55 85.64 L 224.78 85.68 L 225.02 85.71 L 225.26 85.74 L 225.49 85.77 L 225.73 85.80 L 225.97 85.83 L 226.20 85.86 L 226.44 85.89 L 226.68 85.92 L 226.91 85.95 L 227.15 85.98 L 227.39 86.00 L 227.62 86.03 L 227.86 86.06 L 228.10 86.09 L 228.34 86.11 L 228.57 86.14 L 228.81 86.17 L 229.05 86.19 L 229.28 86.22 L 229.52 86.25 L 229.76 86.27 L 229.99 86.30 L 230.23 86.32 L 230.47 86.35 L 230.70 86.37 L 230.94 86.39 L 231.18 86.42 L 231.41 86.44 L 231.65 86.47 L 231.89 86.49 L 232.13 86.51 L 232.36 86.53 L 232.60 86.56 L 232.84 86.58 L 233.07 86.60 L 233.31 86.62 L 233.55 86.64 L 233.78 86.67 L 234.02 86.69 L 234.26 86.71 L 234.49 86.73 L 234.73 86.75 L 234.97 86.77 L 235.20 86.79 L 235.44 86.81 L 235.68 86.83 L 235.91 86.85 L 236.15 86.87 L 236.39 86.89 L 236.63 86.91 L 236.86 86.93 L 237.10 86.95 L 237.34 86.97 L 237.57 86.98 L 237.81 87.00 L 238.05 87.02 L 238.28 87.04 L 238.52 87.06 L 238.76 87.07 L 238.99 87.09 L 239.23 87.11 L 239.47 87.13 L 239.70 87.14 L 239.94 87.16 L 240.18 87.18 L 240.42 87.19 L 240.65 87.21 L 240.89 87.23 L 241.13 87.24 L 241.36 87.26 L 241.60 87.27 L 241.84 87.29 L 242.07 87.31 L 242.31 87.32 L 242.55 87.34 L 242.78 87.35 L 243.02 87.37 L 243.26 87.38 L 243.49 87.40 L 243.73 87.41 L 243.97 87.43 L 244.21 87.44 L 244.44 87.45 L 244.68 87.47 L 244.92 87.48 L 245.15 87.50 L 245.39 87.51 L 245.63 87.52 L 245.86 87.54 L 246.10 87.55 L 246.34 87.57 L 246.57 87.58 L 246.81 87.59 L 247.05 87.60 L 247.28 87.62 L 247.52 87.63 L 247.76 87.64 L 247.99 87.66 L 248.23 87.67 L 248.47 87.68 L 248.71 87.69 L 248.94 87.71 L 249.18 87.72 L 249.42 87.73 L 249.65 87.74 L 249.89 87.75 L 250.13 87.77 L 250.36 87.78 L 250.60 87.79 L 250.84 87.80 L 251.07 87.81 L 251.31 87.82 L 251.55 87.83 L 251.78 87.85 L 252.02 87.86 L 252.26 87.87 L 252.50 87.88 L 252.73 87.89 L 252.97 87.90 L 253.21 87.91 L 253.44 87.92 L 253.68 87.93 L 253.92 87.94 L 254.15 87.95 L 254.39 87.96 L 254.63 87.97 L 254.86 87.98 L 255.10 87.99 L 255.34 88.00 L 255.57 88.01 L 255.81 88.02 L 256.05 88.03 L 256.29 88.04 L 256.52 88.05 L 256.76 88.06 L 257.00 88.07 L 257.23 88.08 L 257.47 88.09 L 257.71 88.10 L 257.94 88.11 L 258.18 88.12 L 258.42 88.13 L 258.65 88.14 L 258.89 88.14 L 259.13 88.15 L 259.36 88.16 L 259.60 88.17 L 259.84 88.18 L 260.08 88.19 L 260.31 88.20 L 260.55 88.20 L 260.79 88.21 L 261.02 88.22 L 261.26 88.23 L 261.50 88.24 L 261.73 88.25 L 261.97 88.25 L 262.21 88.26 L 262.44 88.27 L 262.68 88.28 L 262.92 88.29 L 263.15 88.29 L 263.39 88.30 L 263.63 88.31 L 263.86 88.32 L 264.10 88.33 L 264.34 88.33 L 264.58 88.34 L 264.81 88.35 L 265.05 88.36 L 265.29 88.36 L 265.52 88.37 L 265.76 88.38 L 266.00 88.38 L 266.23 88.39 L 266.47 88.40 L 266.71 88.41 L 266.94 88.41 L 267.18 88.42 L 267.42 88.43 L 267.65 88.43 L 267.89 88.44 L 268.13 88.45 L 268.37 88.45 L 268.60 88.46 L 268.84 88.47 L 269.08 88.47 L 269.31 88.48 L 269.55 88.49 L 269.79 88.49 L 270.02 88.50 L 270.26 88.51 L 270.50 88.51 L 270.73 88.52 L 270.97 88.53 L 271.21 88.53 L 271.44 88.54 L 271.68 88.55 L 271.92 88.55 L 272.16 88.56 L 272.39 88.56 L 272.63 88.57 L 272.87 88.58 L 273.10 88.58 L 273.34 88.59 L 273.58 88.59 L 273.81 88.60 L 274.05 88.60 L 274.29 88.61 L 274.52 88.62 L 274.76 88.62 L 275.00 88.63 L 275.23 88.63 L 275.47 88.64 L 275.71 88.64 L 275.94 88.65 L 276.18 88.66 L 276.42 88.66 L 276.66 88.67 L 276.89 88.67 L 277.13 88.68 L 277.37 88.68 L 277.60 88.69 L 277.84 88.69 L 278.08 88.70 L 278.31 88.70 L 278.55 88.71 L 278.79 88.71 L 279.02 88.72 L 279.26 88.72 L 279.50 88.73 L 279.73 88.73 L 279.97 88.74 L 280.21 88.74 L 280.45 88.75 L 280.68 88.75 L 280.92 88.76 L 281.16 88.76 L 281.39 88.77 L 281.63 88.77 L 281.87 88.78 L 282.10 88.78 L 282.34 88.79 L 282.58 88.79 L 282.81 88.80 L 283.05 88.80 L 283.29 88.81 L 283.52 88.81 L 283.76 88.82 L 284.00 88.82 L 284.24 88.82 L 284.47 88.83 L 284.71 88.83 L 284.95 88.84 L 285.18 88.84 L 285.42 88.85 L 285.66 88.85 L 285.89 88.85 L 286.13 88.86 L 286.37 88.86 L 286.60 88.87 L 286.84 88.87 L 287.08 88.88 L 287.31 88.88 L 287.55 88.88 L 287.79 88.89 L 288.03 88.89 L 288.26 88.90 L 288.50 88.90 L 288.74 88.90 L 288.97 88.91 L 289.21 88.91 L 289.45 88.92 L 289.68 88.92 L 289.92 88.92 L 290.16 88.93 L 290.39 88.93 L 290.63 88.94 L 290.87 88.94 L 291.10 88.94 L 291.34 88.95 L 291.58 88.95 L 291.81 88.96 L 292.05 88.96 L 292.29 88.96 L 292.53 88.97 L 292.76 88.97 L 293.00 88.97 L 293.24 88.98 L 293.47 88.98 L 293.71 88.98 L 293.95 88.99 L 294.18 88.99 L 294.42 89.00 L 294.66 89.00 L 294.89 89.00 L 295.13 89.01 L 295.37 89.01 L 295.60 89.01 L 295.84 89.02 L 296.08 89.02 L 296.32 89.02 L 296.55 89.03 L 296.79 89.03 L 297.03 89.03 L 297.26 89.04 L 297.50 89.04 L 297.74 89.04 L 297.97 89.05 L 298.21 89.05 L 298.45 89.05 L 298.68 89.06 L 298.92 89.06 L 299.16 89.06 L 299.39 89.07 L 299.63 89.07 L 299.87 89.07 L 300.11 89.08 L 300.34 89.08 L 300.58 89.08 L 300.82 89.08 L 301.05 89.09 L 301.29 89.09 L 301.53 89.09 L 301.76 89.10 L 302.00 89.10" fill="none" stroke="#7E8692" stroke-width="2.3" stroke-linecap="round" stroke-linejoin="round"/>
</svg>
