<svg xmlns="http://www.w3.org/2000/svg" viewBox="0 0 320 180" width="320" height="180">
  <rect width="320" height="180" fill="#F4F5F7"/>
  <path d="M 24.00 44.44 L 24.30 44.88 L 24.61 45.33 L 24.91 45.77 L 25.21 46.21 L 25.51 46.65 L 25.82 47.09 L 26.12 47.53 L 26.42 47.97 L 26.72 48.40 L 27.03 48.84 L 27.33 49.27 L 27.63 49.71 L 27.93 50.14 L 28.24 50.57 L 28.54 51.00 L 28.84 51.43 L 29.14 51.86 L 29.45 52.29 L 29.75 52.71 L 30.05 53.14 L 30.35 53.56 L 30.66 53.99 L 30.96 54.41 L 31.26 54.83 L 31.56 55.25 L 31.87 55.67 L 32.17 56.09 L 32.47 56.51 L 32.77 56.92 L 33.08 57.34 L 33.38 57.75 L 33.68 58.17 L 33.98 58.58 L 34.29 58.99 L 34.59 59.40 L 34.89 59.81 L 35.19 60.22 L 35.50 60.63 L 35.80 61.03 L 36.10 61.44 L 36.40 61.84 L 36.71 62.25 L 37.01 62.65 L 37.31 63.05 L 37.62 63.45 L 37.92 63.85 L 38.22 64.25 L 38.52 64.65 L 38.83 65.05 L 39.13 65.44 L 39.43 65.84 L 39.73 66.23 L 40.04 66.62 L 40.34 67.01 L 40.64 67.41 L 40.94 67.80 L 41.25 68.18 L 41.55 68.57 L 41.85 68.96 L 42.15 69.34 L 42.46 69.73 L 42.76 70.11 L 43.06 70.50 L 43.36 70.88 L 43.67 71.26 L 43.97 71.64 L 44.27 72.02 L 44.57 72.40 L 44.88 72.77 L 45.18 73.15 L 45.48 73.52 L 45.78 73.90 L 46.09 74.27 L 46.39 74.64 L 46.69 75.01 L 46.99 75.38 L 47.30 75.75 L 47.60 76.12 L 47.90 76.49 L 48.20 76.85 L 48.51 77.22 L 48.81 77.58 L 49.11 77.95 L 49.41 78.31 L 49.72 78.67 L 50.02 79.03 L 50.32 79.39 L 50.63 79.75 L 50.93 80.10 L 51.23 80.46 L 51.53 80.82 L 51.84 81.17 L 52.14 81.52 L 52.44 81.88 L 52.74 82.23 L 53.05 82.58 L 53.35 82.93 L 53.65 83.28 L 53.95 83.62 L 54.26 83.97 L 54.56 84.31 L 54.86 84.66 L 55.16 85.00 L 55.47 85.34 L 55.77 85.69 L 56.07 86.03 L 56.37 86.37 L 56.68 86.70 L 56.98 87.04 L 57.28 87.38 L 57.58 87.71 L 57.89 88.05 L 58.19 88.38 L 58.49 88.71 L 58.79 89.04 L 59.10 89.38 L 59.40 89.70 L 59.70 90.03 L 60.00 90.36 L 60.31 90.69 L 60.61 91.01 L 60.91 91.34 L 61.21 91.66 L 61.52 91.98 L 61.82 92.30 L 62.12 92.63 L 62.42 92.95 L 62.73 93.26 L 63.03 93.58 L 63.33 93.90 L 63.64 94.21 L 63.94 94.53 L 64.24 94.84 L 64.54 95.15 L 64.85 95.47 L 65.15 95.78 L 65.45 96.09 L 65.75 96.40 L 66.06 96.70 L 66.36 97.01 L 66.66 97.32 L 66.96 97.62 L 67.27 97.92 L 67.57 98.23 L 67.87 98.53 L 68.17 98.83 L 68.48 99.13 L 68.78 99.43 L 69.08 99.73 L 69.38 100.02 L 69.69 100.32 L 69.99 100.61 L 70.29 100.91 L 70.59 101.20 L 70.90 101.49 L 71.20 101.78 L 71.50 102.07 L 71.80 102.36 L 72.11 102.65 L 72.41 102.94 L 72.71 103.22 L 73.01 103.51 L 73.32 103.79 L 73.62 104.07 L 73.92 104.36 L 74.22 104.64 L 74.53 104.92 L 74.83 105.20 L 75.13 105.47 L 75.43 105.75 L 75.74 106.03 L 76.04 106.30 L 76.34 106.58 L 76.65 106.85 L 76.95 107.12 L 77.25 107.39 L 77.55 107.66 L 77.86 107.93 L 78.16 108.20 L 78.46 108.47 L 78.76 108.73 L 79.07 109.00 L 79.37 109.26 L 79.67 109.53 L 79.97 109.79 L 80.28 110.05 L 80.58 110.31 L 80.88 110.57 L 81.18 110.83 L 81.49 111.08 L 81.79 111.34 L 82.09 111.60 L 82.39 111.85 L 82.70 112.10 L 83.00 112.36 L 83.30 112.61 L 83.60 112.86 L 83.91 113.11 L 84.21 113.36 L 84.51 113.60 L 84.81 113.85 L 85.12 114.09 L 85.42 114.34 L 85.72 114.58 L 86.02 114.83 L 86.33 115.07 L 86.63 115.31 L 86.93 115.55 L 87.23 115.78 L 87.54 116.02 L 87.84 116.26 L 88.14 116.49 L 88.44 116.73 L 88.75 116.96 L 89.05 117.19 L 89.35 117.43 L 89.66 117.66 L 89.96 117.89 L 90.26 118.11 L 90.56 118.34 L 90.87 118.57 L 91.17 118.79 L 91.47 119.02 L 91.77 119.24 L 92.08 119.47 L 92.38 119.69 L 92.68 119.91 L 92.98 120.13 L 93.29 120.35 L 93.59 120.56 L 93.89 120.78 L 94.19 121.00 L 94.50 121.21 L 94.80 121.42 L 95.10 121.64 L 95.40 121.85 L 95.71 122.06 L 96.01 122.27 L 96.31 122.48 L 96.61 122.69 L 96.92 122.89 L 97.22 123.10 L 97.52 123.30 L 97.82 123.51 L 98.13 123.71 L 98.43 123.91 L 98.73 124.11 L 99.03 124.31 L 99.34 124.51 L 99.64 124.71 L 99.94 124.91 L 100.24 125.10 L 100.55 125.30 L 100.85 125.49 L 101.15 125.68 L 101.45 125.88 L 101.76 126.07 L 102.06 126.26 L 102.36 126.45 L 102.67 126.63 L 102.97 126.82 L 103.27 127.01 L 103.57 127.19 L 103.88 127.38 L 104.18 127.56 L 104.48 127.74 L 104.78 127.92 L 105.09 128.10 L 105.39 128.28 L 105.69 128.46 L 105.99 128.64 L 106.30 128.81 L 106.60 128.99 L 106.90 129.16 L 107.20 129.34 L 107.51 129.51 L 107.81 129.68 L 108.11 129.85 L 108.41 130.02 L 108.72 130.19 L 109.02 130.35 L 109.32 130.52 L 109.62 130.69 L 109.93 130.85 L 110.23 131.01 L 110.53 131.17 L 110.83 131.34 L 111.14 131.50 L 111.44 131.66 L 111.74 131.81 L 112.04 131.97 L 112.35 132.13 L 112.65 132.28 L 112.95 132.44 L 113.25 132.59 L 113.56 132.74 L 113.86 132.89 L 114.16 133.04 L 114.46 133.19 L 114.77 133.34 L 115.07 133.49 L 115.37 133.64 L 115.68 133.78 L 115.98 133.93 L 116.28 134.07 L 116.58 134.21 L 116.89 134.35 L 117.19 134.49 L 117.49 134.63 L 117.79 134.77 L 118.10 134.91 L 118.40 135.05 L 118.70 135.18 L 119.00 135.32 L 119.31 135.45 L 119.61 135.58 L 119.91 135.71 L 120.21 135.85 L 120.52 135.97 L 120.82 136.10 L 121.12 136.23 L 121.42 136.36 L 121.73 136.48 L 122.03 136.61 L 122.33 136.73 L 122.63 136.85 L 122.94 136.98 L 123.24 137.10 L 123.54 137.22 L 123.84 137.34 L 124.15 137.45 L 124.45 137.57 L 124.75 137.69 L 125.05 137.80 L 125.36 137.91 L 125.66 138.03 L 125.96 138.14 L 126.26 138.25 L 126.57 138.36 L 126.87 138.47 L 127.17 138.58 L 127.47 138.68 L 127.78 138.79 L 128.08 138.89 L 128.38 139.00 L 128.69 139.10 L 128.99 139.20 L 129.29 139.30 L 129.59 139.40 L 129.90 139.50 L 130.20 139.60 L 130.50 139.70 L 130.80 139.79 L 131.11 139.89 L 131.41 139.98 L 131.71 140.07 L 132.01 140.17 L 132.32 140.26 L 132.62 140.35 L 132.92 140.44 L 133.22 140.53 L 133.53 140.61 L 133.83 140.70 L 134.13 140.78 L 134.43 140.87 L 134.74 140.95 L 135.04 141.03 L 135.34 141.11 L 135.64 141.19 L 135.95 141.27 L 136.25 141.35 L 136.55 141.43 L 136.85 141.50 L 137.16 141.58 L 137.46 141.65 L 137.76 141.73 L 138.06 141.80 L 138.37 141.87 L 138.67 141.94 L 138.97 142.01 L 139.27 142.08 L 139.58 142.15 L 139.88 142.21 L 140.18 142.28 L 140.48 142.34 L 140.79 142.41 L 141.09 142.47 L 141.39 142.53 L 141.70 142.59 L 142.00 142.65 L 142.30 142.71 L 142.60 142.76 L 142.91 142.82 L 143.21 142.88 L 143.51 142.93 L 143.81 142.98 L 144.12 143.04 L 144.42 143.09 L 144.72 143.14 L 145.02 143.19 L 145.33 143.24 L 145.63 143.28 L 145.93 143.33 L 146.23 143.38 L 146.54 143.42 L 146.84 143.46 L 147.14 143.51 L 147.44 143.55 L 147.75 143.59 L 148.05 143.63 L 148.35 143.67 L 148.65 143.70 L 148.96 143.74 L 149.26 143.78 L 149.56 143.81 L 149.86 143.84 L 150.17 143.88 L 150.47 143.91 L 150.77 143.94 L 151.07 143.97 L 151.38 144.00 L 151.68 144.03 L 151.98 144.05 L 152.28 144.08 L 152.59 144.10 L 152.89 144.13 L 153.19 144.15 L 153.49 144.17 L 153.80 144.19 L 154.10 144.21 L 154.40 144.23 L 154.71 144.25 L 155.01 144.27 L 155.31 144.28 L 155.61 144.30 L 155.92 144.31 L 156.22 144.32 L 156.52 144.33 L 156.82 144.35 L 157.13 144.36 L 157.43 144.36 L 157.73 144.37 L 158.03 144.38 L 158.34 144.39 L 158.64 144.39 L 158.94 144.39 L 159.24 144.40 L 159.55 144.40 L 159.85 144.40 L 160.15 144.40 L 160.45 144.40 L 160.76 144.40 L 161.06 144.39 L 161.36 144.39 L 161.66 144.39 L 161.97 144.38 L 162.27 144.37 L 162.57 144.36 L 162.87 144.36 L 163.18 144.35 L 163.48 144.33 L 163.78 144.32 L 164.08 144.31 L 164.39 144.30 L 164.69 144.28 L 164.99 144.27 L 165.29 144.25 L 165.60 144.23 L 165.90 144.21 L 166.20 144.19 L 166.51 144.17 L 166.81 144.15 L 167.11 144.13 L 167.41 144.10 L 167.72 144.08 L 168.02 144.05 L 168.32 144.03 L 168.62 144.00 L 168.93 143.97 L 169.23 143.94 L 169.53 143.91 L 169.83 143.88 L 170.14 143.84 L 170.44 143.81 L 170.74 143.78 L 171.04 143.74 L 171.35 143.70 L 171.65 143.67 L 171.95 143.63 L 172.25 143.59 L 172.56 143.55 L 172.86 143.51 L 173.16 143.46 L 173.46 143.42 L 173.77 143.38 L 174.07 143.33 L 174.37 143.28 L 174.67 143.24 L 174.98 143.19 L 175.28 143.14 L 175.58 143.09 L 175.88 143.04 L 176.19 142.98 L 176.49 142.93 L 176.79 142.88 L 177.09 142.82 L 177.40 142.76 L 177.70 142.71 L 178.00 142.65 L 178.30 142.59 L 178.61 142.53 L 178.91 142.47 L 179.21 142.41 L 179.52 142.34 L 179.82 142.28 L 180.12 142.21 L 180.42 142.15 L 180.73 142.08 L 181.03 142.01 L 181.33 141.94 L 181.63 141.87 L 181.94 141.80 L 182.24 141.73 L 182.54 141.65 L 182.84 141.58 L 183.15 141.50 L 183.45 141.43 L 183.75 141.35 L 184.05 141.27 L 184.36 141.19 L 184.66 141.11 L 184.96 141.03 L 185.26 140.95 L 185.57 140.87 L 185.87 140.78 L 186.17 140.70 L 186.47 140.61 L 186.78 140.53 L 187.08 140.44 L 187.38 140.35 L 187.68 140.26 L 187.99 140.17 L 188.29 140.07 L 188.59 139.98 L 188.89 139.89 L 189.20 139.79 L 189.50 139.70 L 189.80 139.60 L 190.10 139.50 L 190.41 139.40 L 190.71 139.30 L 191.01 139.20 L 191.31 139.10 L 191.62 139.00 L 191.92 138.89 L 192.22 138.79 L 192.53 138.68 L 192.83 138.58 L 193.13 138.47 L 193.43 138.36 L 193.74 138.25 L 194.04 138.14 L 194.34 138.03 L 194.64 137.91 L 194.95 137.80 L 195.25 137.69 L 195.55 137.57 L 195.85 137.45 L 196.16 137.34 L 196.46 137.22 L 196.76 137.10 L 197.06 136.98 L 197.37 136.85 L 197.67 136.73 L 197.97 136.61 L 198.27 136.48 L 198.58 136.36 L 198.88 136.23 L 199.18 136.10 L 199.48 135.97 L 199.79 135.85 L 200.09 135.71 L 200.39 135.58 L 200.69 135.45 L 201.00 135.32 L 201.30 135.18 L 201.60 135.05 L 201.90 134.91 L 202.21 134.77 L 202.51 134.63 L 202.81 134.49 L 203.11 134.35 L 203.42 134.21 L 203.72 134.07 L 204.02 133.93 L 204.32 133.78 L 204.63 133.64 L 204.93 133.49 L 205.23 133.34 L 205.54 133.19 L 205.84 133.04 L 206.14 132.89 L 206.44 132.74 L 206.75 132.59 L 207.05 132.44 L 207.35 132.28 L 207.65 132.13 L 207.96 131.97 L 208.26 131.81 L 208.56 131.66 L 208.86 131.50 L 209.17 131.34 L 209.47 131.17 L 209.77 131.01 L 210.07 130.85 L 210.38 130.69 L 210.68 130.52 L 210.98 130.35 L 211.28 130.19 L 211.59 130.02 L 211.89 129.85 L 212.19 129.68 L 212.49 129.51 L 212.80 129.34 L 213.10 129.16 L 213.40 128.99 L 213.70 128.81 L 214.01 128.64 L 214.31 128.46 L 214.61 128.28 L 214.91 128.10 L 215.22 127.92 L 215.52 127.74 L 215.82 127.56 L 216.12 127.38 L 216.43 127.19 L 216.73 127.01 L 217.03 126.82 L 217.33 126.63 L 217.64 126.45 L 217.94 126.26 L 218.24 126.07 L 218.55 125.88 L 218.85 125.68 L 219.15 125.49 L 219.45 125.30 L 219.76 125.10 L 220.06 124.91 L 220.36 124.71 L 220.66 124.51 L 220.97 124.31 L 221.27 124.11 L 221.57 123.91 L 221.87 123.71 L 222.18 123.51 L 222.48 123.30 L 222.78 123.10 L 223.08 122.89 L 223.39 122.69 L 223.69 122.48 L 223.99 122.27 L 224.29 122.06 L 224.60 121.85 L 224.90 121.64 L 225.20 121.42 L 225.50 121.21 L 225.81 121.00 L 226.11 120.78 L 226.41 120.56 L 226.71 120.35 L 227.02 120.13 L 227.32 119.91 L 227.62 119.69 L 227.92 119.47 L 228.23 119.24 L 228.53 119.02 L 228.83 118.79 L 229.13 118.57 L 229.44 118.34 L 229.74 118.11 L 230.04 117.89 L 230.34 117.66 L 230.65 117.43 L 230.95 117.19 L 231.25 116.96 L 231.56 116.73 L 231.86 116.49 L 232.16 116.26 L 232.46 116.02 L 232.77 115.78 L 233.07 115.55 L 233.37 115.31 L 233.67 115.07 L 233.98 114.83 L 234.28 114.58 L 234.58 114.34 L 234.88 114.09 L 235.19 113.85 L 235.49 113.60 L 235.79 113.36 L 236.09 113.11 L 236.40 112.86 L 236.70 112.61 L 237.00 112.36 L 237.30 112.10 L 237.61 111.85 L 237.91 111.60 L 238.21 111.34 L 238.51 111.08 L 238.82 110.83 L 239.12 110.57 L 239.42 110.31 L 239.72 110.05 L 240.03 109.79 L 240.33 109.53 L 240.63 109.26 L 240.93 109.00 L 241.24 108.73 L 241.54 108.47 L 241.84 108.20 L 242.14 107.93 L 242.45 107.66 L 242.75 107.39 L 243.05 107.12 L 243.35 106.85 L 243.66 106.58 L 243.96 106.30 L 244.26 106.03 L 244.57 105.75 L 244.87 105.47 L 245.17 105.20 L 245.47 104.92 L 245.78 104.64 L 246.08 104.36 L 246.38 104.07 L 246.68 103.79 L 246.99 103.51 L 247.29 103.22 L 247.59 102.94 L 247.89 102.65 L 248.20 102.36 L 248.50 102.07 L 248.80 101.78 L 249.10 101.49 L 249.41 101.20 L 249.71 100.91 L 250.01 100.61 L 250.31 100.32 L 250.62 100.02 L 250.92 99.73 L 251.22 99.43 L 251.52 99.13 L 251.83 98.83 L 252.13 98.53 L 252.43 98.23 L 252.73 97.92 L 253.04 97.62 L 253.34 97.32 L 253.64 97.01 L 253.94 96.70 L 254.25 96.40 L 254.55 96.09 L 254.85 95.78 L 255.15 95.47 L 255.46 95.15 L 255.76 94.84 L 256.06 94.53 L 256.36 94.21 L 256.67 93.90 L 256.97 93.58 L 257.27 93.26 L 257.58 92.95 L 257.88 92.63 L 258.18 92.30 L 258.48 91.98 L 258.79 91.66 L 259.09 91.34 L 259.39 91.01 L 259.69 90.69 L 260.00 90.36 L 260.30 90.03 L 260.60 89.70 L 260.90 89.38 L 261.21 89.04 L 261.51 88.71 L 261.81 88.38 L 262.11 88.05 L 262.42 87.71 L 262.72 87.38 L 263.02 87.04 L 263.32 86.70 L 263.63 86.37 L 263.93 86.03 L 264.23 85.69 L 264.53 85.34 L 264.84 85.00 L 265.14 84.66 L 265.44 84.31 L 265.74 83.97 L 266.05 83.62 L 266.35 83.28 L 266.65 82.93 L 266.95 82.58 L 267.26 82.23 L 267.56 81.88 L 267.86 81.52 L 268.16 81.17 L 268.47 80.82 L 268.77 80.46 L 269.07 80.10 L 269.37 79.75 L 269.68 79.39 L 269.98 79.03 L 270.28 78.67 L 270.59 78.31 L 270.89 77.95 L 271.19 77.58 L 271.49 77.22 L 271.80 76.85 L 272.10 76.49 L 272.40 76.12 L 272.70 75.75 L 273.01 75.38 L 273.31 75.01 L 273.61 74.64 L 273.91 74.27 L 274.22 73.90 L 274.52 73.52 L 274.82 73.15 L 275.12 72.77 L 275.43 72.40 L 275.73 72.02 L 276.03 71.64 L 276.33 71.26 L 276.64 70.88 L 276.94 70.50 L 277.24 70.11 L 277.54 69.73 L 277.85 69.34 L 278.15 68.96 L 278.45 68.57 L 278.75 68.18 L 279.06 67.80 L 279.36 67.41 L 279.66 67.01 L 279.96 66.62 L 280.27 66.23 L 280.57 65.84 L 280.87 65.44 L 281.17 65.05 L 281.48 64.65 L 281.78 64.25 L 282.08 63.85 L 282.38 63.45 L 282.69 63.05 L 282.99 62.65 L 283.29 62.25 L 283.60 61.84 L 283.90 61.44 L 284.20 61.03 L 284.50 60.63 L 284.81 60.22 L 285.11 59.81 L 285.41 59.40 L 285.71 58.99 L 286.02 58.58 L 286.32 58.17 L 286.62 57.75 L 286.92 57.34 L 287.23 56.92 L 287.53 56.51 L 287.83 56.09 L 288.13 55.67 L 288.44 55.25 L 288.74 54.83 L 289.04 54.41 L 289.34 53.99 L 289.65 53.56 L 289.95 53.14 L 290.25 52.71 L 290.55 52.29 L 290.86 51.86 L 291.16 51.43 L 291.46 51.00 L 291.76 50.57 L 292.07 50.14 L 292.37 49.71 L 292.67 49.27 L 292.97 48.84 L 293.28 48.40 L 293.58 47.97 L 293.88 47.53 L 294.18 47.09 L 294.49 46.65 L 294.79 46.21 L 295.09 45.77 L 295.39 45.33 L 295.70 44.88 L 296.00 44.44" fill="none" stroke="#7E8692" stroke-width="2.3" stroke-linecap="round" stroke-linejoin="round"/>
</svg>
