<svg xmlns="http://www.w3.org/2000/svg" viewBox="0 0 320 180" width="320" height="180">
  <rect width="320" height="180" fill="#F4F5F7"/>
  <path d="M 81.72 -178.96 L 81.95 -174.24 L 82.19 -169.62 L 82.43 -165.10 L 82.66 -160.67 L 82.90 -156.33 L 83.14 -152.07 L 83.37 -147.90 L 83.61 -143.82 L 83.85 -139.82 L 84.09 -135.90 L 84.32 -132.06 L 84.56 -128.29 L 84.80 -124.60 L 85.03 -120.99 L 85.27 -117.45 L 85.51 -113.97 L 85.74 -110.57 L 85.98 -107.23 L 86.22 -103.96 L 86.45 -100.75 L 86.69 -97.61 L 86.93 -94.53 L 87.16 -91.51 L 87.40 -88.55 L 87.64 -85.64 L 87.87 -82.79 L 88.11 -80.00 L 88.35 -77.26 L 88.59 -74.58 L 88.82 -71.94 L 89.06 -69.36 L 89.30 -66.83 L 89.53 -64.34 L 89.77 -61.90 L 90.01 -59.51 L 90.24 -57.17 L 90.48 -54.87 L 90.72 -52.61 L 90.95 -50.39 L 91.19 -48.22 L 91.43 -46.09 L 91.66 -44.00 L 91.90 -41.94 L 92.14 -39.93 L 92.38 -37.95 L 92.61 -36.01 L 92.85 -34.11 L 93.09 -32.24 L 93.32 -30.41 L 93.56 -28.61 L 93.80 -26.84 L 94.03 -25.11 L 94.27 -23.40 L 94.51 -21.73 L 94.74 -20.09 L 94.98 -18.48 L 95.22 -16.90 L 95.45 -15.35 L 95.69 -13.82 L 95.93 -12.33 L 96.17 -10.86 L 96.40 -9.41 L 96.64 -7.99 L 96.88 -6.60 L 97.11 -5.23 L 97.35 -3.89 L 97.59 -2.57 L 97.82 -1.28 L 98.06 -0.00 L 98.30 1.25 L 98.53 2.48 L 98.77 3.68 L 99.01 4.87 L 99.24 6.03 L 99.48 7.18 L 99.72 8.30 L 99.95 9.41 L 100.19 10.49 L 100.43 11.56 L 100.67 12.61 L 100.90 13.64 L 101.14 14.65 L 101.38 15.64 L 101.61 16.62 L 101.85 17.58 L 102.09 18.53 L 102.32 19.46 L 102.56 20.37 L 102.80 21.27 L 103.03 22.15 L 103.27 23.02 L 103.51 23.87 L 103.74 24.71 L 103.98 25.53 L 104.22 26.34 L 104.46 27.14 L 104.69 27.92 L 104.93 28.69 L 105.17 29.45 L 105.40 30.19 L 105.64 30.93 L 105.88 31.65 L 106.11 32.36 L 106.35 33.05 L 106.59 33.74 L 106.82 34.41 L 107.06 35.08 L 107.30 35.73 L 107.53 36.37 L 107.77 37.00 L 108.01 37.62 L 108.25 38.24 L 108.48 38.84 L 108.72 39.43 L 108.96 40.01 L 109.19 40.58 L 109.43 41.15 L 109.67 41.70 L 109.90 42.25 L 110.14 42.78 L 110.38 43.31 L 110.61 43.83 L 110.85 44.34 L 111.09 44.85 L 111.32 45.34 L 111.56 45.83 L 111.80 46.31 L 112.04 46.79 L 112.27 47.25 L 112.51 47.71 L 112.75 48.16 L 112.98 48.60 L 113.22 49.04 L 113.46 49.47 L 113.69 49.89 L 113.93 50.31 L 114.17 50.72 L 114.40 51.13 L 114.64 51.52 L 114.88 51.92 L 115.11 52.30 L 115.35 52.68 L 115.59 53.06 L 115.82 53.42 L 116.06 53.79 L 116.30 54.14 L 116.54 54.50 L 116.77 54.84 L 117.01 55.18 L 117.25 55.52 L 117.48 55.85 L 117.72 56.18 L 117.96 56.50 L 118.19 56.82 L 118.43 57.13 L 118.67 57.43 L 118.90 57.74 L 119.14 58.03 L 119.38 58.33 L 119.61 58.62 L 119.85 58.90 L 120.09 59.18 L 120.33 59.46 L 120.56 59.73 L 120.80 60.00 L 121.04 60.26 L 121.27 60.52 L 121.51 60.78 L 121.75 61.03 L 121.98 61.28 L 122.22 61.53 L 122.46 61.77 L 122.69 62.01 L 122.93 62.24 L 123.17 62.47 L 123.40 62.70 L 123.64 62.92 L 123.88 63.14 L 124.12 63.36 L 124.35 63.58 L 124.59 63.79 L 124.83 64.00 L 125.06 64.20 L 125.30 64.40 L 125.54 64.60 L 125.77 64.80 L 126.01 64.99 L 126.25 65.19 L 126.48 65.37 L 126.72 65.56 L 126.96 65.74 L 127.19 65.92 L 127.43 66.10 L 127.67 66.27 L 127.90 66.45 L 128.14 66.62 L 128.38 66.78 L 128.62 66.95 L 128.85 67.11 L 129.09 67.27 L 129.33 67.43 L 129.56 67.58 L 129.80 67.74 L 130.04 67.89 L 130.27 68.04 L 130.51 68.18 L 130.75 68.33 L 130.98 68.47 L 131.22 68.61 L 131.46 68.75 L 131.69 68.89 L 131.93 69.02 L 132.17 69.15 L 132.41 69.28 L 132.64 69.41 L 132.88 69.54 L 133.12 69.66 L 133.35 69.79 L 133.59 69.91 L 133.83 70.03 L 134.06 70.14 L 134.30 70.26 L 134.54 70.37 L 134.77 70.48 L 135.01 70.60 L 135.25 70.70 L 135.48 70.81 L 135.72 70.92 L 135.96 71.02 L 136.20 71.12 L 136.43 71.22 L 136.67 71.32 L 136.91 71.42 L 137.14 71.52 L 137.38 71.61 L 137.62 71.71 L 137.85 71.80 L 138.09 71.89 L 138.33 71.98 L 138.56 72.07 L 138.80 72.15 L 139.04 72.24 L 139.27 72.32 L 139.51 72.40 L 139.75 72.48 L 139.98 72.56 L 140.22 72.64 L 140.46 72.72 L 140.70 72.79 L 140.93 72.87 L 141.17 72.94 L 141.41 73.01 L 141.64 73.09 L 141.88 73.15 L 142.12 73.22 L 142.35 73.29 L 142.59 73.36 L 142.83 73.42 L 143.06 73.49 L 143.30 73.55 L 143.54 73.61 L 143.77 73.67 L 144.01 73.73 L 144.25 73.79 L 144.49 73.85 L 144.72 73.90 L 144.96 73.96 L 145.20 74.01 L 145.43 74.06 L 145.67 74.12 L 145.91 74.17 L 146.14 74.22 L 146.38 74.27 L 146.62 74.31 L 146.85 74.36 L 147.09 74.41 L 147.33 74.45 L 147.56 74.50 L 147.80 74.54 L 148.04 74.58 L 148.28 74.62 L 148.51 74.66 L 148.75 74.70 L 148.99 74.74 L 149.22 74.78 L 149.46 74.82 L 149.70 74.85 L 149.93 74.89 L 150.17 74.92 L 150.41 74.95 L 150.64 74.99 L 150.88 75.02 L 151.12 75.05 L 151.35 75.08 L 151.59 75.11 L 151.83 75.13 L 152.07 75.16 L 152.30 75.19 L 152.54 75.21 L 152.78 75.24 L 153.01 75.26 L 153.25 75.28 L 153.49 75.31 L 153.72 75.33 L 153.96 75.35 L 154.20 75.37 L 154.43 75.39 L 154.67 75.40 L 154.91 75.42 L 155.14 75.44 L 155.38 75.45 L 155.62 75.47 L 155.85 75.48 L 156.09 75.49 L 156.33 75.51 L 156.57 75.52 L 156.80 75.53 L 157.04 75.54 L 157.28 75.55 L 157.51 75.56 L 157.75 75.57 L 157.99 75.57 L 158.22 75.58 L 158.46 75.58 L 158.70 75.59 L 158.93 75.59 L 159.17 75.60 L 159.41 75.60 L 159.64 75.60 L 159.88 75.60 L 160.12 75.60 L 160.36 75.60 L 160.59 75.60 L 160.83 75.60 L 161.07 75.59 L 161.30 75.59 L 161.54 75.58 L 161.78 75.58 L 162.01 75.57 L 162.25 75.57 L 162.49 75.56 L 162.72 75.55 L 162.96 75.54 L 163.20 75.53 L 163.43 75.52 L 163.67 75.51 L 163.91 75.49 L 164.15 75.48 L 164.38 75.47 L 164.62 75.45 L 164.86 75.44 L 165.09 75.42 L 165.33 75.40 L 165.57 75.39 L 165.80 75.37 L 166.04 75.35 L 166.28 75.33 L 166.51 75.31 L 166.75 75.28 L 166.99 75.26 L 167.22 75.24 L 167.46 75.21 L 167.70 75.19 L 167.93 75.16 L 168.17 75.13 L 168.41 75.11 L 168.65 75.08 L 168.88 75.05 L 169.12 75.02 L 169.36 74.99 L 169.59 74.95 L 169.83 74.92 L 170.07 74.89 L 170.30 74.85 L 170.54 74.82 L 170.78 74.78 L 171.01 74.74 L 171.25 74.70 L 171.49 74.66 L 171.72 74.62 L 171.96 74.58 L 172.20 74.54 L 172.44 74.50 L 172.67 74.45 L 172.91 74.41 L 173.15 74.36 L 173.38 74.31 L 173.62 74.27 L 173.86 74.22 L 174.09 74.17 L 174.33 74.12 L 174.57 74.06 L 174.80 74.01 L 175.04 73.96 L 175.28 73.90 L 175.51 73.85 L 175.75 73.79 L 175.99 73.73 L 176.23 73.67 L 176.46 73.61 L 176.70 73.55 L 176.94 73.49 L 177.17 73.42 L 177.41 73.36 L 177.65 73.29 L 177.88 73.22 L 178.12 73.15 L 178.36 73.09 L 178.59 73.01 L 178.83 72.94 L 179.07 72.87 L 179.30 72.79 L 179.54 72.72 L 179.78 72.64 L 180.02 72.56 L 180.25 72.48 L 180.49 72.40 L 180.73 72.32 L 180.96 72.24 L 181.20 72.15 L 181.44 72.07 L 181.67 71.98 L 181.91 71.89 L 182.15 71.80 L 182.38 71.71 L 182.62 71.61 L 182.86 71.52 L 183.09 71.42 L 183.33 71.32 L 183.57 71.22 L 183.80 71.12 L 184.04 71.02 L 184.28 70.92 L 184.52 70.81 L 184.75 70.70 L 184.99 70.60 L 185.23 70.48 L 185.46 70.37 L 185.70 70.26 L 185.94 70.14 L 186.17 70.03 L 186.41 69.91 L 186.65 69.79 L 186.88 69.66 L 187.12 69.54 L 187.36 69.41 L 187.59 69.28 L 187.83 69.15 L 188.07 69.02 L 188.31 68.89 L 188.54 68.75 L 188.78 68.61 L 189.02 68.47 L 189.25 68.33 L 189.49 68.18 L 189.73 68.04 L 189.96 67.89 L 190.20 67.74 L 190.44 67.58 L 190.67 67.43 L 190.91 67.27 L 191.15 67.11 L 191.38 66.95 L 191.62 66.78 L 191.86 66.62 L 192.10 66.45 L 192.33 66.27 L 192.57 66.10 L 192.81 65.92 L 193.04 65.74 L 193.28 65.56 L 193.52 65.37 L 193.75 65.19 L 193.99 64.99 L 194.23 64.80 L 194.46 64.60 L 194.70 64.40 L 194.94 64.20 L 195.17 64.00 L 195.41 63.79 L 195.65 63.58 L 195.88 63.36 L 196.12 63.14 L 196.36 62.92 L 196.60 62.70 L 196.83 62.47 L 197.07 62.24 L 197.31 62.01 L 197.54 61.77 L 197.78 61.53 L 198.02 61.28 L 198.25 61.03 L 198.49 60.78 L 198.73 60.52 L 198.96 60.26 L 199.20 60.00 L 199.44 59.73 L 199.67 59.46 L 199.91 59.18 L 200.15 58.90 L 200.39 58.62 L 200.62 58.33 L 200.86 58.03 L 201.10 57.74 L 201.33 57.43 L 201.57 57.13 L 201.81 56.82 L 202.04 56.50 L 202.28 56.18 L 202.52 55.85 L 202.75 55.52 L 202.99 55.18 L 203.23 54.84 L 203.46 54.50 L 203.70 54.14 L 203.94 53.79 L 204.18 53.42 L 204.41 53.06 L 204.65 52.68 L 204.89 52.30 L 205.12 51.92 L 205.36 51.52 L 205.60 51.13 L 205.83 50.72 L 206.07 50.31 L 206.31 49.89 L 206.54 49.47 L 206.78 49.04 L 207.02 48.60 L 207.25 48.16 L 207.49 47.71 L 207.73 47.25 L 207.96 46.79 L 208.20 46.31 L 208.44 45.83 L 208.68 45.34 L 208.91 44.85 L 209.15 44.34 L 209.39 43.83 L 209.62 43.31 L 209.86 42.78 L 210.10 42.25 L 210.33 41.70 L 210.57 41.15 L 210.81 40.58 L 211.04 40.01 L 211.28 39.43 L 211.52 38.84 L 211.75 38.24 L 211.99 37.62 L 212.23 37.00 L 212.47 36.37 L 212.70 35.73 L 212.94 35.08 L 213.18 34.41 L 213.41 33.74 L 213.65 33.05 L 213.89 32.36 L 214.12 31.65 L 214.36 30.93 L 214.60 30.19 L 214.83 29.45 L 215.07 28.69 L 215.31 27.92 L 215.54 27.14 L 215.78 26.34 L 216.02 25.53 L 216.26 24.71 L 216.49 23.87 L 216.73 23.02 L 216.97 22.15 L 217.20 21.27 L 217.44 20.37 L 217.68 19.46 L 217.91 18.53 L 218.15 17.58 L 218.39 16.62 L 218.62 15.64 L 218.86 14.65 L 219.10 13.64 L 219.33 12.61 L 219.57 11.56 L 219.81 10.49 L 220.05 9.41 L 220.28 8.30 L 220.52 7.18 L 220.76 6.03 L 220.99 4.87 L 221.23 3.68 L 221.47 2.48 L 221.70 1.25 L 221.94 -0.00 L 222.18 -1.28 L 222.41 -2.57 L 222.65 -3.89 L 222.89 -5.23 L 223.12 -6.60 L 223.36 -7.99 L 223.60 -9.41 L 223.83 -10.86 L 224.07 -12.33 L 224.31 -13.82 L 224.55 -15.35 L 224.78 -16.90 L 225.02 -18.48 L 225.26 -20.09 L 225.49 -21.73 L 225.73 -23.40 L 225.97 -25.11 L 226.20 -26.84 L 226.44 -28.61 L 226.68 -30.41 L 226.91 -32.24 L 227.15 -34.11 L 227.39 -36.01 L 227.62 -37.95 L 227.86 -39.93 L 228.10 -41.94 L 228.34 -44.00 L 228.57 -46.09 L 228.81 -48.22 L 229.05 -50.39 L 229.28 -52.61 L 229.52 -54.87 L 229.76 -57.17 L 229.99 -59.51 L 230.23 -61.90 L 230.47 -64.34 L 230.70 -66.83 L 230.94 -69.36 L 231.18 -71.94 L 231.41 -74.58 L 231.65 -77.26 L 231.89 -80.00 L 232.13 -82.79 L 232.36 -85.64 L 232.60 -88.55 L 232.84 -91.51 L 233.07 -94.53 L 233.31 -97.61 L 233.55 -100.75 L 233.78 -103.96 L 234.02 -107.23 L 234.26 -110.57 L 234.49 -113.97 L 234.73 -117.45 L 234.97 -120.99 L 235.20 -124.60 L 235.44 -128.29 L 235.68 -132.06 L 235.91 -135.90 L 236.15 -139.82 L 236.39 -143.82 L 236.63 -147.90 L 236.86 -152.07 L 237.10 -156.33 L 237.34 -160.67 L 237.57 -165.10 L 237.81 -169.62 L 238.05 -174.24 L 238.28 -178.96" fill="none" stroke="#7E8692" stroke-width="2.3" stroke-linecap="round" stroke-linejoin="round"/>
</svg>
