<svg xmlns="http://www.w3.org/2000/svg" viewBox="0 0 320 180" width="320" height="180">
  <rect width="320" height="180" fill="#F4F5F7"/>
  <path d="M 18.00 90.67 L 18.32 90.67 L 18.63 90.68 L 18.95 90.68 L 19.26 90.68 L 19.58 90.69 L 19.90 90.69 L 20.21 90.70 L 20.53 90.70 L 20.84 90.71 L 21.16 90.71 L 21.47 90.72 L 21.79 90.72 L 22.11 90.73 L 22.42 90.73 L 22.74 90.74 L 23.05 90.74 L 23.37 90.75 L 23.69 90.75 L 24.00 90.76 L 24.32 90.76 L 24.63 90.77 L 24.95 90.77 L 25.27 90.78 L 25.58 90.79 L 25.90 90.79 L 26.21 90.80 L 26.53 90.80 L 26.85 90.81 L 27.16 90.81 L 27.48 90.82 L 27.79 90.83 L 28.11 90.83 L 28.42 90.84 L 28.74 90.84 L 29.06 90.85 L 29.37 90.86 L 29.69 90.86 L 30.00 90.87 L 30.32 90.88 L 30.64 90.88 L 30.95 90.89 L 31.27 90.89 L 31.58 90.90 L 31.90 90.91 L 32.22 90.91 L 32.53 90.92 L 32.85 90.93 L 33.16 90.94 L 33.48 90.94 L 33.80 90.95 L 34.11 90.96 L 34.43 90.96 L 34.74 90.97 L 35.06 90.98 L 35.37 90.99 L 35.69 90.99 L 36.01 91.00 L 36.32 91.01 L 36.64 91.02 L 36.95 91.02 L 37.27 91.03 L 37.59 91.04 L 37.90 91.05 L 38.22 91.06 L 38.53 91.07 L 38.85 91.07 L 39.17 91.08 L 39.48 91.09 L 39.80 91.10 L 40.11 91.11 L 40.43 91.12 L 40.75 91.13 L 41.06 91.13 L 41.38 91.14 L 41.69 91.15 L 42.01 91.16 L 42.32 91.17 L 42.64 91.18 L 42.96 91.19 L 43.27 91.20 L 43.59 91.21 L 43.90 91.22 L 44.22 91.23 L 44.54 91.24 L 44.85 91.25 L 45.17 91.26 L 45.48 91.27 L 45.80 91.28 L 46.12 91.29 L 46.43 91.30 L 46.75 91.31 L 47.06 91.33 L 47.38 91.34 L 47.70 91.35 L 48.01 91.36 L 48.33 91.37 L 48.64 91.38 L 48.96 91.39 L 49.27 91.41 L 49.59 91.42 L 49.91 91.43 L 50.22 91.44 L 50.54 91.46 L 50.85 91.47 L 51.17 91.48 L 51.49 91.49 L 51.80 91.51 L 52.12 91.52 L 52.43 91.53 L 52.75 91.55 L 53.07 91.56 L 53.38 91.57 L 53.70 91.59 L 54.01 91.60 L 54.33 91.62 L 54.65 91.63 L 54.96 91.65 L 55.28 91.66 L 55.59 91.68 L 55.91 91.69 L 56.22 91.71 L 56.54 91.72 L 56.86 91.74 L 57.17 91.76 L 57.49 91.77 L 57.80 91.79 L 58.12 91.81 L 58.44 91.82 L 58.75 91.84 L 59.07 91.86 L 59.38 91.87 L 59.70 91.89 L 60.02 91.91 L 60.33 91.93 L 60.65 91.95 L 60.96 91.97 L 61.28 91.98 L 61.60 92.00 L 61.91 92.02 L 62.23 92.04 L 62.54 92.06 L 62.86 92.08 L 63.17 92.10 L 63.49 92.12 L 63.81 92.14 L 64.12 92.17 L 64.44 92.19 L 64.75 92.21 L 65.07 92.23 L 65.39 92.25 L 65.70 92.28 L 66.02 92.30 L 66.33 92.32 L 66.65 92.35 L 66.97 92.37 L 67.28 92.39 L 67.60 92.42 L 67.91 92.44 L 68.23 92.47 L 68.55 92.50 L 68.86 92.52 L 69.18 92.55 L 69.49 92.57 L 69.81 92.60 L 70.12 92.63 L 70.44 92.66 L 70.76 92.69 L 71.07 92.71 L 71.39 92.74 L 71.70 92.77 L 72.02 92.80 L 72.34 92.83 L 72.65 92.86 L 72.97 92.90 L 73.28 92.93 L 73.60 92.96 L 73.92 92.99 L 74.23 93.03 L 74.55 93.06 L 74.86 93.09 L 75.18 93.13 L 75.49 93.16 L 75.81 93.20 L 76.13 93.24 L 76.44 93.27 L 76.76 93.31 L 77.07 93.35 L 77.39 93.39 L 77.71 93.43 L 78.02 93.46 L 78.34 93.51 L 78.65 93.55 L 78.97 93.59 L 79.29 93.63 L 79.60 93.67 L 79.92 93.72 L 80.23 93.76 L 80.55 93.81 L 80.87 93.85 L 81.18 93.90 L 81.50 93.95 L 81.81 93.99 L 82.13 94.04 L 82.44 94.09 L 82.76 94.14 L 83.08 94.19 L 83.39 94.25 L 83.71 94.30 L 84.02 94.35 L 84.34 94.41 L 84.66 94.46 L 84.97 94.52 L 85.29 94.58 L 85.60 94.64 L 85.92 94.70 L 86.24 94.76 L 86.55 94.82 L 86.87 94.88 L 87.18 94.94 L 87.50 95.01 L 87.82 95.08 L 88.13 95.14 L 88.45 95.21 L 88.76 95.28 L 89.08 95.35 L 89.39 95.42 L 89.71 95.50 L 90.03 95.57 L 90.34 95.65 L 90.66 95.73 L 90.97 95.80 L 91.29 95.88 L 91.61 95.97 L 91.92 96.05 L 92.24 96.14 L 92.55 96.22 L 92.87 96.31 L 93.19 96.40 L 93.50 96.49 L 93.82 96.58 L 94.13 96.68 L 94.45 96.78 L 94.77 96.88 L 95.08 96.98 L 95.40 97.08 L 95.71 97.18 L 96.03 97.29 L 96.34 97.40 L 96.66 97.51 L 96.98 97.63 L 97.29 97.74 L 97.61 97.86 L 97.92 97.98 L 98.24 98.10 L 98.56 98.23 L 98.87 98.36 L 99.19 98.49 L 99.50 98.62 L 99.82 98.76 L 100.14 98.90 L 100.45 99.04 L 100.77 99.19 L 101.08 99.33 L 101.40 99.49 L 101.72 99.64 L 102.03 99.80 L 102.35 99.96 L 102.66 100.13 L 102.98 100.30 L 103.29 100.47 L 103.61 100.65 L 103.93 100.83 L 104.24 101.01 L 104.56 101.20 L 104.87 101.39 L 105.19 101.59 L 105.51 101.80 L 105.82 102.00 L 106.14 102.22 L 106.45 102.43 L 106.77 102.66 L 107.09 102.88 L 107.40 103.12 L 107.72 103.36 L 108.03 103.60 L 108.35 103.85 L 108.67 104.11 L 108.98 104.37 L 109.30 104.64 L 109.61 104.92 L 109.93 105.21 L 110.24 105.50 L 110.56 105.80 L 110.88 106.10 L 111.19 106.42 L 111.51 106.74 L 111.82 107.07 L 112.14 107.41 L 112.46 107.76 L 112.77 108.12 L 113.09 108.49 L 113.40 108.87 L 113.72 109.26 L 114.04 109.66 L 114.35 110.07 L 114.67 110.49 L 114.98 110.92 L 115.30 111.37 L 115.62 111.83 L 115.93 112.30 L 116.25 112.79 L 116.56 113.29 L 116.88 113.81 L 117.19 114.34 L 117.51 114.88 L 117.83 115.45 L 118.14 116.03 L 118.46 116.63 L 118.77 117.24 L 119.09 117.88 L 119.41 118.54 L 119.72 119.21 L 120.04 119.91 L 120.35 120.63 L 120.67 121.38 L 120.99 122.14 L 121.30 122.94 L 121.62 123.76 L 121.93 124.60 L 122.25 125.48 L 122.57 126.39 L 122.88 127.32 L 123.20 128.29 L 123.51 129.30 L 123.83 130.33 L 124.14 131.41 L 124.46 132.52 L 124.78 133.68 L 125.09 134.88 L 125.41 136.12 L 125.72 137.40 L 126.04 138.74 L 126.36 140.12 L 126.67 141.56 L 126.99 143.06 L 127.30 144.61 L 127.62 146.22 L 127.94 147.90 L 128.25 149.65 L 128.57 151.47 L 128.88 153.36 L 129.20 155.33 L 129.52 157.38 L 129.83 159.52 L 130.15 161.75 L 130.46 164.07 L 130.78 166.50 L 131.09 169.04 L 131.41 171.69 L 131.73 174.46 L 132.04 177.35 L 132.36 180.38 L 132.67 183.55 L 132.99 186.87 L 133.31 190.35 L 133.62 194.00 L 133.94 197.83 L 134.25 201.85 L 134.57 206.07 L 134.89 210.50 L 135.20 215.17 L 135.52 220.07 L 135.83 225.24 L 136.15 230.69 L 136.46 236.43 L 136.78 242.49 L 137.10 248.89 L 137.41 255.65 L 137.73 262.79 L 138.04 270.36 L 138.36 278.38 L 138.68 286.87 L 138.99 295.89 L 139.31 305.46 L 139.62 315.64 L 139.94 326.47 L 140.26 338.00 L 140.57 350.30 L 140.89 363.42 L 141.20 377.44" fill="none" stroke="#7E8692" stroke-width="2.3" stroke-linecap="round" stroke-linejoin="round"/>
  <path d="M 178.80 -197.44 L 179.11 -183.42 L 179.43 -170.30 L 179.74 -158.00 L 180.06 -146.47 L 180.38 -135.64 L 180.69 -125.46 L 181.01 -115.89 L 181.32 -106.87 L 181.64 -98.38 L 181.96 -90.36 L 182.27 -82.79 L 182.59 -75.65 L 182.90 -68.89 L 183.22 -62.49 L 183.54 -56.43 L 183.85 -50.69 L 184.17 -45.24 L 184.48 -40.07 L 184.80 -35.17 L 185.11 -30.50 L 185.43 -26.07 L 185.75 -21.85 L 186.06 -17.83 L 186.38 -14.00 L 186.69 -10.35 L 187.01 -6.87 L 187.33 -3.55 L 187.64 -0.38 L 187.96 2.65 L 188.27 5.54 L 188.59 8.31 L 188.91 10.96 L 189.22 13.50 L 189.54 15.93 L 189.85 18.25 L 190.17 20.48 L 190.48 22.62 L 190.80 24.67 L 191.12 26.64 L 191.43 28.53 L 191.75 30.35 L 192.06 32.10 L 192.38 33.78 L 192.70 35.39 L 193.01 36.94 L 193.33 38.44 L 193.64 39.88 L 193.96 41.26 L 194.28 42.60 L 194.59 43.88 L 194.91 45.12 L 195.22 46.32 L 195.54 47.48 L 195.86 48.59 L 196.17 49.67 L 196.49 50.70 L 196.80 51.71 L 197.12 52.68 L 197.43 53.61 L 197.75 54.52 L 198.07 55.40 L 198.38 56.24 L 198.70 57.06 L 199.01 57.86 L 199.33 58.62 L 199.65 59.37 L 199.96 60.09 L 200.28 60.79 L 200.59 61.46 L 200.91 62.12 L 201.23 62.76 L 201.54 63.37 L 201.86 63.97 L 202.17 64.55 L 202.49 65.12 L 202.81 65.66 L 203.12 66.19 L 203.44 66.71 L 203.75 67.21 L 204.07 67.70 L 204.38 68.17 L 204.70 68.63 L 205.02 69.08 L 205.33 69.51 L 205.65 69.93 L 205.96 70.34 L 206.28 70.74 L 206.60 71.13 L 206.91 71.51 L 207.23 71.88 L 207.54 72.24 L 207.86 72.59 L 208.18 72.93 L 208.49 73.26 L 208.81 73.58 L 209.12 73.90 L 209.44 74.20 L 209.76 74.50 L 210.07 74.79 L 210.39 75.08 L 210.70 75.36 L 211.02 75.63 L 211.33 75.89 L 211.65 76.15 L 211.97 76.40 L 212.28 76.64 L 212.60 76.88 L 212.91 77.12 L 213.23 77.34 L 213.55 77.57 L 213.86 77.78 L 214.18 78.00 L 214.49 78.20 L 214.81 78.41 L 215.13 78.61 L 215.44 78.80 L 215.76 78.99 L 216.07 79.17 L 216.39 79.35 L 216.71 79.53 L 217.02 79.70 L 217.34 79.87 L 217.65 80.04 L 217.97 80.20 L 218.28 80.36 L 218.60 80.51 L 218.92 80.67 L 219.23 80.81 L 219.55 80.96 L 219.86 81.10 L 220.18 81.24 L 220.50 81.38 L 220.81 81.51 L 221.13 81.64 L 221.44 81.77 L 221.76 81.90 L 222.08 82.02 L 222.39 82.14 L 222.71 82.26 L 223.02 82.37 L 223.34 82.49 L 223.66 82.60 L 223.97 82.71 L 224.29 82.82 L 224.60 82.92 L 224.92 83.02 L 225.23 83.12 L 225.55 83.22 L 225.87 83.32 L 226.18 83.42 L 226.50 83.51 L 226.81 83.60 L 227.13 83.69 L 227.45 83.78 L 227.76 83.86 L 228.08 83.95 L 228.39 84.03 L 228.71 84.12 L 229.03 84.20 L 229.34 84.27 L 229.66 84.35 L 229.97 84.43 L 230.29 84.50 L 230.61 84.58 L 230.92 84.65 L 231.24 84.72 L 231.55 84.79 L 231.87 84.86 L 232.18 84.92 L 232.50 84.99 L 232.82 85.06 L 233.13 85.12 L 233.45 85.18 L 233.76 85.24 L 234.08 85.30 L 234.40 85.36 L 234.71 85.42 L 235.03 85.48 L 235.34 85.54 L 235.66 85.59 L 235.98 85.65 L 236.29 85.70 L 236.61 85.75 L 236.92 85.81 L 237.24 85.86 L 237.56 85.91 L 237.87 85.96 L 238.19 86.01 L 238.50 86.05 L 238.82 86.10 L 239.13 86.15 L 239.45 86.19 L 239.77 86.24 L 240.08 86.28 L 240.40 86.33 L 240.71 86.37 L 241.03 86.41 L 241.35 86.45 L 241.66 86.49 L 241.98 86.54 L 242.29 86.57 L 242.61 86.61 L 242.93 86.65 L 243.24 86.69 L 243.56 86.73 L 243.87 86.76 L 244.19 86.80 L 244.51 86.84 L 244.82 86.87 L 245.14 86.91 L 245.45 86.94 L 245.77 86.97 L 246.08 87.01 L 246.40 87.04 L 246.72 87.07 L 247.03 87.10 L 247.35 87.14 L 247.66 87.17 L 247.98 87.20 L 248.30 87.23 L 248.61 87.26 L 248.93 87.29 L 249.24 87.31 L 249.56 87.34 L 249.88 87.37 L 250.19 87.40 L 250.51 87.43 L 250.82 87.45 L 251.14 87.48 L 251.45 87.50 L 251.77 87.53 L 252.09 87.56 L 252.40 87.58 L 252.72 87.61 L 253.03 87.63 L 253.35 87.65 L 253.67 87.68 L 253.98 87.70 L 254.30 87.72 L 254.61 87.75 L 254.93 87.77 L 255.25 87.79 L 255.56 87.81 L 255.88 87.83 L 256.19 87.86 L 256.51 87.88 L 256.83 87.90 L 257.14 87.92 L 257.46 87.94 L 257.77 87.96 L 258.09 87.98 L 258.40 88.00 L 258.72 88.02 L 259.04 88.03 L 259.35 88.05 L 259.67 88.07 L 259.98 88.09 L 260.30 88.11 L 260.62 88.13 L 260.93 88.14 L 261.25 88.16 L 261.56 88.18 L 261.88 88.19 L 262.20 88.21 L 262.51 88.23 L 262.83 88.24 L 263.14 88.26 L 263.46 88.28 L 263.78 88.29 L 264.09 88.31 L 264.41 88.32 L 264.72 88.34 L 265.04 88.35 L 265.35 88.37 L 265.67 88.38 L 265.99 88.40 L 266.30 88.41 L 266.62 88.43 L 266.93 88.44 L 267.25 88.45 L 267.57 88.47 L 267.88 88.48 L 268.20 88.49 L 268.51 88.51 L 268.83 88.52 L 269.15 88.53 L 269.46 88.54 L 269.78 88.56 L 270.09 88.57 L 270.41 88.58 L 270.73 88.59 L 271.04 88.61 L 271.36 88.62 L 271.67 88.63 L 271.99 88.64 L 272.30 88.65 L 272.62 88.66 L 272.94 88.67 L 273.25 88.69 L 273.57 88.70 L 273.88 88.71 L 274.20 88.72 L 274.52 88.73 L 274.83 88.74 L 275.15 88.75 L 275.46 88.76 L 275.78 88.77 L 276.10 88.78 L 276.41 88.79 L 276.73 88.80 L 277.04 88.81 L 277.36 88.82 L 277.68 88.83 L 277.99 88.84 L 278.31 88.85 L 278.62 88.86 L 278.94 88.87 L 279.25 88.87 L 279.57 88.88 L 279.89 88.89 L 280.20 88.90 L 280.52 88.91 L 280.83 88.92 L 281.15 88.93 L 281.47 88.93 L 281.78 88.94 L 282.10 88.95 L 282.41 88.96 L 282.73 88.97 L 283.05 88.98 L 283.36 88.98 L 283.68 88.99 L 283.99 89.00 L 284.31 89.01 L 284.63 89.01 L 284.94 89.02 L 285.26 89.03 L 285.57 89.04 L 285.89 89.04 L 286.20 89.05 L 286.52 89.06 L 286.84 89.06 L 287.15 89.07 L 287.47 89.08 L 287.78 89.09 L 288.10 89.09 L 288.42 89.10 L 288.73 89.11 L 289.05 89.11 L 289.36 89.12 L 289.68 89.12 L 290.00 89.13 L 290.31 89.14 L 290.63 89.14 L 290.94 89.15 L 291.26 89.16 L 291.58 89.16 L 291.89 89.17 L 292.21 89.17 L 292.52 89.18 L 292.84 89.19 L 293.15 89.19 L 293.47 89.20 L 293.79 89.20 L 294.10 89.21 L 294.42 89.21 L 294.73 89.22 L 295.05 89.23 L 295.37 89.23 L 295.68 89.24 L 296.00 89.24 L 296.31 89.25 L 296.63 89.25 L 296.95 89.26 L 297.26 89.26 L 297.58 89.27 L 297.89 89.27 L 298.21 89.28 L 298.53 89.28 L 298.84 89.29 L 299.16 89.29 L 299.47 89.30 L 299.79 89.30 L 300.10 89.31 L 300.42 89.31 L 300.74 89.32 L 301.05 89.32 L 301.37 89.32 L 301.68 89.33 L 302.00 89.33" fill="none" stroke="#7E8692" stroke-width="2.3" stroke-linecap="round" stroke-linejoin="round"/>
</svg>
