<svg xmlns="http://www.w3.org/2000/svg" viewBox="0 0 320 180" width="320" height="180">
  <rect width="320" height="180" fill="#F4F5F7"/>
  <path d="M 18.00 89.15 L 18.24 89.15 L 18.47 89.15 L 18.71 89.14 L 18.95 89.14 L 19.18 89.14 L 19.42 89.14 L 19.66 89.13 L 19.89 89.13 L 20.13 89.13 L 20.37 89.13 L 20.61 89.12 L 20.84 89.12 L 21.08 89.12 L 21.32 89.11 L 21.55 89.11 L 21.79 89.11 L 22.03 89.11 L 22.26 89.10 L 22.50 89.10 L 22.74 89.10 L 22.97 89.09 L 23.21 89.09 L 23.45 89.09 L 23.68 89.09 L 23.92 89.08 L 24.16 89.08 L 24.40 89.08 L 24.63 89.07 L 24.87 89.07 L 25.11 89.07 L 25.34 89.06 L 25.58 89.06 L 25.82 89.06 L 26.05 89.05 L 26.29 89.05 L 26.53 89.05 L 26.76 89.05 L 27.00 89.04 L 27.24 89.04 L 27.47 89.04 L 27.71 89.03 L 27.95 89.03 L 28.19 89.03 L 28.42 89.02 L 28.66 89.02 L 28.90 89.02 L 29.13 89.01 L 29.37 89.01 L 29.61 89.01 L 29.84 89.00 L 30.08 89.00 L 30.32 89.00 L 30.55 88.99 L 30.79 88.99 L 31.03 88.99 L 31.26 88.98 L 31.50 88.98 L 31.74 88.98 L 31.97 88.97 L 32.21 88.97 L 32.45 88.96 L 32.69 88.96 L 32.92 88.96 L 33.16 88.95 L 33.40 88.95 L 33.63 88.95 L 33.87 88.94 L 34.11 88.94 L 34.34 88.94 L 34.58 88.93 L 34.82 88.93 L 35.05 88.92 L 35.29 88.92 L 35.53 88.92 L 35.76 88.91 L 36.00 88.91 L 36.24 88.91 L 36.48 88.90 L 36.71 88.90 L 36.95 88.89 L 37.19 88.89 L 37.42 88.89 L 37.66 88.88 L 37.90 88.88 L 38.13 88.87 L 38.37 88.87 L 38.61 88.87 L 38.84 88.86 L 39.08 88.86 L 39.32 88.85 L 39.55 88.85 L 39.79 88.84 L 40.03 88.84 L 40.27 88.84 L 40.50 88.83 L 40.74 88.83 L 40.98 88.82 L 41.21 88.82 L 41.45 88.82 L 41.69 88.81 L 41.92 88.81 L 42.16 88.80 L 42.40 88.80 L 42.63 88.79 L 42.87 88.79 L 43.11 88.78 L 43.34 88.78 L 43.58 88.77 L 43.82 88.77 L 44.06 88.77 L 44.29 88.76 L 44.53 88.76 L 44.77 88.75 L 45.00 88.75 L 45.24 88.74 L 45.48 88.74 L 45.71 88.73 L 45.95 88.73 L 46.19 88.72 L 46.42 88.72 L 46.66 88.71 L 46.90 88.71 L 47.13 88.70 L 47.37 88.70 L 47.61 88.69 L 47.84 88.69 L 48.08 88.68 L 48.32 88.68 L 48.56 88.67 L 48.79 88.67 L 49.03 88.66 L 49.27 88.66 L 49.50 88.65 L 49.74 88.65 L 49.98 88.64 L 50.21 88.64 L 50.45 88.63 L 50.69 88.63 L 50.92 88.62 L 51.16 88.62 L 51.40 88.61 L 51.63 88.60 L 51.87 88.60 L 52.11 88.59 L 52.35 88.59 L 52.58 88.58 L 52.82 88.58 L 53.06 88.57 L 53.29 88.57 L 53.53 88.56 L 53.77 88.55 L 54.00 88.55 L 54.24 88.54 L 54.48 88.54 L 54.71 88.53 L 54.95 88.52 L 55.19 88.52 L 55.42 88.51 L 55.66 88.51 L 55.90 88.50 L 56.14 88.49 L 56.37 88.49 L 56.61 88.48 L 56.85 88.48 L 57.08 88.47 L 57.32 88.46 L 57.56 88.46 L 57.79 88.45 L 58.03 88.44 L 58.27 88.44 L 58.50 88.43 L 58.74 88.42 L 58.98 88.42 L 59.21 88.41 L 59.45 88.40 L 59.69 88.40 L 59.92 88.39 L 60.16 88.38 L 60.40 88.38 L 60.64 88.37 L 60.87 88.36 L 61.11 88.36 L 61.35 88.35 L 61.58 88.34 L 61.82 88.34 L 62.06 88.33 L 62.29 88.32 L 62.53 88.31 L 62.77 88.31 L 63.00 88.30 L 63.24 88.29 L 63.48 88.28 L 63.71 88.28 L 63.95 88.27 L 64.19 88.26 L 64.43 88.25 L 64.66 88.25 L 64.90 88.24 L 65.14 88.23 L 65.37 88.22 L 65.61 88.22 L 65.85 88.21 L 66.08 88.20 L 66.32 88.19 L 66.56 88.18 L 66.79 88.18 L 67.03 88.17 L 67.27 88.16 L 67.50 88.15 L 67.74 88.14 L 67.98 88.13 L 68.22 88.13 L 68.45 88.12 L 68.69 88.11 L 68.93 88.10 L 69.16 88.09 L 69.40 88.08 L 69.64 88.07 L 69.87 88.07 L 70.11 88.06 L 70.35 88.05 L 70.58 88.04 L 70.82 88.03 L 71.06 88.02 L 71.29 88.01 L 71.53 88.00 L 71.77 87.99 L 72.01 87.98 L 72.24 87.97 L 72.48 87.97 L 72.72 87.96 L 72.95 87.95 L 73.19 87.94 L 73.43 87.93 L 73.66 87.92 L 73.90 87.91 L 74.14 87.90 L 74.37 87.89 L 74.61 87.88 L 74.85 87.87 L 75.08 87.86 L 75.32 87.85 L 75.56 87.84 L 75.79 87.83 L 76.03 87.82 L 76.27 87.81 L 76.51 87.80 L 76.74 87.78 L 76.98 87.77 L 77.22 87.76 L 77.45 87.75 L 77.69 87.74 L 77.93 87.73 L 78.16 87.72 L 78.40 87.71 L 78.64 87.70 L 78.87 87.69 L 79.11 87.67 L 79.35 87.66 L 79.58 87.65 L 79.82 87.64 L 80.06 87.63 L 80.30 87.62 L 80.53 87.60 L 80.77 87.59 L 81.01 87.58 L 81.24 87.57 L 81.48 87.56 L 81.72 87.54 L 81.95 87.53 L 82.19 87.52 L 82.43 87.51 L 82.66 87.49 L 82.90 87.48 L 83.14 87.47 L 83.37 87.46 L 83.61 87.44 L 83.85 87.43 L 84.09 87.42 L 84.32 87.40 L 84.56 87.39 L 84.80 87.38 L 85.03 87.36 L 85.27 87.35 L 85.51 87.33 L 85.74 87.32 L 85.98 87.31 L 86.22 87.29 L 86.45 87.28 L 86.69 87.26 L 86.93 87.25 L 87.16 87.24 L 87.40 87.22 L 87.64 87.21 L 87.87 87.19 L 88.11 87.18 L 88.35 87.16 L 88.59 87.15 L 88.82 87.13 L 89.06 87.12 L 89.30 87.10 L 89.53 87.09 L 89.77 87.07 L 90.01 87.05 L 90.24 87.04 L 90.48 87.02 L 90.72 87.01 L 90.95 86.99 L 91.19 86.97 L 91.43 86.96 L 91.66 86.94 L 91.90 86.92 L 92.14 86.91 L 92.38 86.89 L 92.61 86.87 L 92.85 86.85 L 93.09 86.84 L 93.32 86.82 L 93.56 86.80 L 93.80 86.78 L 94.03 86.77 L 94.27 86.75 L 94.51 86.73 L 94.74 86.71 L 94.98 86.69 L 95.22 86.67 L 95.45 86.66 L 95.69 86.64 L 95.93 86.62 L 96.17 86.60 L 96.40 86.58 L 96.64 86.56 L 96.88 86.54 L 97.11 86.52 L 97.35 86.50 L 97.59 86.48 L 97.82 86.46 L 98.06 86.44 L 98.30 86.42 L 98.53 86.40 L 98.77 86.38 L 99.01 86.36 L 99.24 86.33 L 99.48 86.31 L 99.72 86.29 L 99.95 86.27 L 100.19 86.25 L 100.43 86.23 L 100.67 86.20 L 100.90 86.18 L 101.14 86.16 L 101.38 86.14 L 101.61 86.11 L 101.85 86.09 L 102.09 86.07 L 102.32 86.04 L 102.56 86.02 L 102.80 86.00 L 103.03 85.97 L 103.27 85.95 L 103.51 85.92 L 103.74 85.90 L 103.98 85.87 L 104.22 85.85 L 104.46 85.82 L 104.69 85.80 L 104.93 85.77 L 105.17 85.75 L 105.40 85.72 L 105.64 85.69 L 105.88 85.67 L 106.11 85.64 L 106.35 85.61 L 106.59 85.59 L 106.82 85.56 L 107.06 85.53 L 107.30 85.51 L 107.53 85.48 L 107.77 85.45 L 108.01 85.42 L 108.25 85.39 L 108.48 85.36 L 108.72 85.33 L 108.96 85.31 L 109.19 85.28 L 109.43 85.25 L 109.67 85.22 L 109.90 85.19 L 110.14 85.16 L 110.38 85.13 L 110.61 85.09 L 110.85 85.06 L 111.09 85.03 L 111.32 85.00 L 111.56 84.97 L 111.80 84.94 L 112.04 84.90 L 112.27 84.87 L 112.51 84.84 L 112.75 84.80 L 112.98 84.77 L 113.22 84.74 L 113.46 84.70 L 113.69 84.67 L 113.93 84.64 L 114.17 84.60 L 114.40 84.57 L 114.64 84.53 L 114.88 84.49 L 115.11 84.46 L 115.35 84.42 L 115.59 84.39 L 115.82 84.35 L 116.06 84.31 L 116.30 84.28 L 116.54 84.24 L 116.77 84.20 L 117.01 84.16 L 117.25 84.12 L 117.48 84.08 L 117.72 84.05 L 117.96 84.01 L 118.19 83.97 L 118.43 83.93 L 118.67 83.89 L 118.90 83.85 L 119.14 83.81 L 119.38 83.76 L 119.61 83.72 L 119.85 83.68 L 120.09 83.64 L 120.33 83.60 L 120.56 83.55 L 120.80 83.51 L 121.04 83.47 L 121.27 83.42 L 121.51 83.38 L 121.75 83.34 L 121.98 83.29 L 122.22 83.25 L 122.46 83.20 L 122.69 83.16 L 122.93 83.11 L 123.17 83.07 L 123.40 83.02 L 123.64 82.97 L 123.88 82.93 L 124.12 82.88 L 124.35 82.83 L 124.59 82.78 L 124.83 82.73 L 125.06 82.69 L 125.30 82.64 L 125.54 82.59 L 125.77 82.54 L 126.01 82.49 L 126.25 82.44 L 126.48 82.39 L 126.72 82.34 L 126.96 82.28 L 127.19 82.23 L 127.43 82.18 L 127.67 82.13 L 127.90 82.08 L 128.14 82.02 L 128.38 81.97 L 128.62 81.92 L 128.85 81.86 L 129.09 81.81 L 129.33 81.76 L 129.56 81.70 L 129.80 81.65 L 130.04 81.59 L 130.27 81.54 L 130.51 81.48 L 130.75 81.42 L 130.98 81.37 L 131.22 81.31 L 131.46 81.25 L 131.69 81.20 L 131.93 81.14 L 132.17 81.08 L 132.41 81.02 L 132.64 80.97 L 132.88 80.91 L 133.12 80.85 L 133.35 80.79 L 133.59 80.73 L 133.83 80.67 L 134.06 80.61 L 134.30 80.55 L 134.54 80.49 L 134.77 80.43 L 135.01 80.37 L 135.25 80.31 L 135.48 80.25 L 135.72 80.19 L 135.96 80.13 L 136.20 80.07 L 136.43 80.01 L 136.67 79.94 L 136.91 79.88 L 137.14 79.82 L 137.38 79.76 L 137.62 79.70 L 137.85 79.63 L 138.09 79.57 L 138.33 79.51 L 138.56 79.45 L 138.80 79.39 L 139.04 79.32 L 139.27 79.26 L 139.51 79.20 L 139.75 79.14 L 139.98 79.07 L 140.22 79.01 L 140.46 78.95 L 140.70 78.89 L 140.93 78.82 L 141.17 78.76 L 141.41 78.70 L 141.64 78.64 L 141.88 78.58 L 142.12 78.51 L 142.35 78.45 L 142.59 78.39 L 142.83 78.33 L 143.06 78.27 L 143.30 78.21 L 143.54 78.15 L 143.77 78.09 L 144.01 78.03 L 144.25 77.97 L 144.49 77.91 L 144.72 77.85 L 144.96 77.79 L 145.20 77.73 L 145.43 77.68 L 145.67 77.62 L 145.91 77.56 L 146.14 77.50 L 146.38 77.45 L 146.62 77.39 L 146.85 77.34 L 147.09 77.28 L 147.33 77.23 L 147.56 77.17 L 147.80 77.12 L 148.04 77.07 L 148.28 77.02 L 148.51 76.97 L 148.75 76.91 L 148.99 76.86 L 149.22 76.82 L 149.46 76.77 L 149.70 76.72 L 149.93 76.67 L 150.17 76.63 L 150.41 76.58 L 150.64 76.54 L 150.88 76.49 L 151.12 76.45 L 151.35 76.41 L 151.59 76.36 L 151.83 76.32 L 152.07 76.29 L 152.30 76.25 L 152.54 76.21 L 152.78 76.17 L 153.01 76.14 L 153.25 76.10 L 153.49 76.07 L 153.72 76.04 L 153.96 76.01 L 154.20 75.97 L 154.43 75.95 L 154.67 75.92 L 154.91 75.89 L 155.14 75.86 L 155.38 75.84 L 155.62 75.82 L 155.85 75.79 L 156.09 75.77 L 156.33 75.75 L 156.57 75.73 L 156.80 75.72 L 157.04 75.70 L 157.28 75.68 L 157.51 75.67 L 157.75 75.66 L 157.99 75.65 L 158.22 75.64 L 158.46 75.63 L 158.70 75.62 L 158.93 75.61 L 159.17 75.61 L 159.41 75.60 L 159.64 75.60 L 159.88 75.60 L 160.12 75.60 L 160.36 75.60 L 160.59 75.60 L 160.83 75.61 L 161.07 75.61 L 161.30 75.62 L 161.54 75.63 L 161.78 75.64 L 162.01 75.65 L 162.25 75.66 L 162.49 75.67 L 162.72 75.68 L 162.96 75.70 L 163.20 75.72 L 163.43 75.73 L 163.67 75.75 L 163.91 75.77 L 164.15 75.79 L 164.38 75.82 L 164.62 75.84 L 164.86 75.86 L 165.09 75.89 L 165.33 75.92 L 165.57 75.95 L 165.80 75.97 L 166.04 76.01 L 166.28 76.04 L 166.51 76.07 L 166.75 76.10 L 166.99 76.14 L 167.22 76.17 L 167.46 76.21 L 167.70 76.25 L 167.93 76.29 L 168.17 76.32 L 168.41 76.36 L 168.65 76.41 L 168.88 76.45 L 169.12 76.49 L 169.36 76.54 L 169.59 76.58 L 169.83 76.63 L 170.07 76.67 L 170.30 76.72 L 170.54 76.77 L 170.78 76.82 L 171.01 76.86 L 171.25 76.91 L 171.49 76.97 L 171.72 77.02 L 171.96 77.07 L 172.20 77.12 L 172.44 77.17 L 172.67 77.23 L 172.91 77.28 L 173.15 77.34 L 173.38 77.39 L 173.62 77.45 L 173.86 77.50 L 174.09 77.56 L 174.33 77.62 L 174.57 77.68 L 174.80 77.73 L 175.04 77.79 L 175.28 77.85 L 175.51 77.91 L 175.75 77.97 L 175.99 78.03 L 176.23 78.09 L 176.46 78.15 L 176.70 78.21 L 176.94 78.27 L 177.17 78.33 L 177.41 78.39 L 177.65 78.45 L 177.88 78.51 L 178.12 78.58 L 178.36 78.64 L 178.59 78.70 L 178.83 78.76 L 179.07 78.82 L 179.30 78.89 L 179.54 78.95 L 179.78 79.01 L 180.02 79.07 L 180.25 79.14 L 180.49 79.20 L 180.73 79.26 L 180.96 79.32 L 181.20 79.39 L 181.44 79.45 L 181.67 79.51 L 181.91 79.57 L 182.15 79.63 L 182.38 79.70 L 182.62 79.76 L 182.86 79.82 L 183.09 79.88 L 183.33 79.94 L 183.57 80.01 L 183.80 80.07 L 184.04 80.13 L 184.28 80.19 L 184.52 80.25 L 184.75 80.31 L 184.99 80.37 L 185.23 80.43 L 185.46 80.49 L 185.70 80.55 L 185.94 80.61 L 186.17 80.67 L 186.41 80.73 L 186.65 80.79 L 186.88 80.85 L 187.12 80.91 L 187.36 80.97 L 187.59 81.02 L 187.83 81.08 L 188.07 81.14 L 188.31 81.20 L 188.54 81.25 L 188.78 81.31 L 189.02 81.37 L 189.25 81.42 L 189.49 81.48 L 189.73 81.54 L 189.96 81.59 L 190.20 81.65 L 190.44 81.70 L 190.67 81.76 L 190.91 81.81 L 191.15 81.86 L 191.38 81.92 L 191.62 81.97 L 191.86 82.02 L 192.10 82.08 L 192.33 82.13 L 192.57 82.18 L 192.81 82.23 L 193.04 82.28 L 193.28 82.34 L 193.52 82.39 L 193.75 82.44 L 193.99 82.49 L 194.23 82.54 L 194.46 82.59 L 194.70 82.64 L 194.94 82.69 L 195.17 82.73 L 195.41 82.78 L 195.65 82.83 L 195.88 82.88 L 196.12 82.93 L 196.36 82.97 L 196.60 83.02 L 196.83 83.07 L 197.07 83.11 L 197.31 83.16 L 197.54 83.20 L 197.78 83.25 L 198.02 83.29 L 198.25 83.34 L 198.49 83.38 L 198.73 83.42 L 198.96 83.47 L 199.20 83.51 L 199.44 83.55 L 199.67 83.60 L 199.91 83.64 L 200.15 83.68 L 200.39 83.72 L 200.62 83.76 L 200.86 83.81 L 201.10 83.85 L 201.33 83.89 L 201.57 83.93 L 201.81 83.97 L 202.04 84.01 L 202.28 84.05 L 202.52 84.08 L 202.75 84.12 L 202.99 84.16 L 203.23 84.20 L 203.46 84.24 L 203.70 84.28 L 203.94 84.31 L 204.18 84.35 L 204.41 84.39 L 204.65 84.42 L 204.89 84.46 L 205.12 84.49 L 205.36 84.53 L 205.60 84.57 L 205.83 84.60 L 206.07 84.64 L 206.31 84.67 L 206.54 84.70 L 206.78 84.74 L 207.02 84.77 L 207.25 84.80 L 207.49 84.84 L 207.73 84.87 L 207.96 84.90 L 208.20 84.94 L 208.44 84.97 L 208.68 85.00 L 208.91 85.03 L 209.15 85.06 L 209.39 85.09 L 209.62 85.13 L 209.86 85.16 L 210.10 85.19 L 210.33 85.22 L 210.57 85.25 L 210.81 85.28 L 211.04 85.31 L 211.28 85.33 L 211.52 85.36 L 211.75 85.39 L 211.99 85.42 L 212.23 85.45 L 212.47 85.48 L 212.70 85.51 L 212.94 85.53 L 213.18 85.56 L 213.41 85.59 L 213.65 85.61 L 213.89 85.64 L 214.12 85.67 L 214.36 85.69 L 214.60 85.72 L 214.83 85.75 L 215.07 85.77 L 215.31 85.80 L 215.54 85.82 L 215.78 85.85 L 216.02 85.87 L 216.26 85.90 L 216.49 85.92 L 216.73 85.95 L 216.97 85.97 L 217.20 86.00 L 217.44 86.02 L 217.68 86.04 L 217.91 86.07 L 218.15 86.09 L 218.39 86.11 L 218.62 86.14 L 218.86 86.16 L 219.10 86.18 L 219.33 86.20 L 219.57 86.23 L 219.81 86.25 L 220.05 86.27 L 220.28 86.29 L 220.52 86.31 L 220.76 86.33 L 220.99 86.36 L 221.23 86.38 L 221.47 86.40 L 221.70 86.42 L 221.94 86.44 L 222.18 86.46 L 222.41 86.48 L 222.65 86.50 L 222.89 86.52 L 223.12 86.54 L 223.36 86.56 L 223.60 86.58 L 223.83 86.60 L 224.07 86.62 L 224.31 86.64 L 224.55 86.66 L 224.78 86.67 L 225.02 86.69 L 225.26 86.71 L 225.49 86.73 L 225.73 86.75 L 225.97 86.77 L 226.20 86.78 L 226.44 86.80 L 226.68 86.82 L 226.91 86.84 L 227.15 86.85 L 227.39 86.87 L 227.62 86.89 L 227.86 86.91 L 228.10 86.92 L 228.34 86.94 L 228.57 86.96 L 228.81 86.97 L 229.05 86.99 L 229.28 87.01 L 229.52 87.02 L 229.76 87.04 L 229.99 87.05 L 230.23 87.07 L 230.47 87.09 L 230.70 87.10 L 230.94 87.12 L 231.18 87.13 L 231.41 87.15 L 231.65 87.16 L 231.89 87.18 L 232.13 87.19 L 232.36 87.21 L 232.60 87.22 L 232.84 87.24 L 233.07 87.25 L 233.31 87.26 L 233.55 87.28 L 233.78 87.29 L 234.02 87.31 L 234.26 87.32 L 234.49 87.33 L 234.73 87.35 L 234.97 87.36 L 235.20 87.38 L 235.44 87.39 L 235.68 87.40 L 235.91 87.42 L 236.15 87.43 L 236.39 87.44 L 236.63 87.46 L 236.86 87.47 L 237.10 87.48 L 237.34 87.49 L 237.57 87.51 L 237.81 87.52 L 238.05 87.53 L 238.28 87.54 L 238.52 87.56 L 238.76 87.57 L 238.99 87.58 L 239.23 87.59 L 239.47 87.60 L 239.70 87.62 L 239.94 87.63 L 240.18 87.64 L 240.42 87.65 L 240.65 87.66 L 240.89 87.67 L 241.13 87.69 L 241.36 87.70 L 241.60 87.71 L 241.84 87.72 L 242.07 87.73 L 242.31 87.74 L 242.55 87.75 L 242.78 87.76 L 243.02 87.77 L 243.26 87.78 L 243.49 87.80 L 243.73 87.81 L 243.97 87.82 L 244.21 87.83 L 244.44 87.84 L 244.68 87.85 L 244.92 87.86 L 245.15 87.87 L 245.39 87.88 L 245.63 87.89 L 245.86 87.90 L 246.10 87.91 L 246.34 87.92 L 246.57 87.93 L 246.81 87.94 L 247.05 87.95 L 247.28 87.96 L 247.52 87.97 L 247.76 87.97 L 247.99 87.98 L 248.23 87.99 L 248.47 88.00 L 248.71 88.01 L 248.94 88.02 L 249.18 88.03 L 249.42 88.04 L 249.65 88.05 L 249.89 88.06 L 250.13 88.07 L 250.36 88.07 L 250.60 88.08 L 250.84 88.09 L 251.07 88.10 L 251.31 88.11 L 251.55 88.12 L 251.78 88.13 L 252.02 88.13 L 252.26 88.14 L 252.50 88.15 L 252.73 88.16 L 252.97 88.17 L 253.21 88.18 L 253.44 88.18 L 253.68 88.19 L 253.92 88.20 L 254.15 88.21 L 254.39 88.22 L 254.63 88.22 L 254.86 88.23 L 255.10 88.24 L 255.34 88.25 L 255.57 88.25 L 255.81 88.26 L 256.05 88.27 L 256.29 88.28 L 256.52 88.28 L 256.76 88.29 L 257.00 88.30 L 257.23 88.31 L 257.47 88.31 L 257.71 88.32 L 257.94 88.33 L 258.18 88.34 L 258.42 88.34 L 258.65 88.35 L 258.89 88.36 L 259.13 88.36 L 259.36 88.37 L 259.60 88.38 L 259.84 88.38 L 260.08 88.39 L 260.31 88.40 L 260.55 88.40 L 260.79 88.41 L 261.02 88.42 L 261.26 88.42 L 261.50 88.43 L 261.73 88.44 L 261.97 88.44 L 262.21 88.45 L 262.44 88.46 L 262.68 88.46 L 262.92 88.47 L 263.15 88.48 L 263.39 88.48 L 263.63 88.49 L 263.86 88.49 L 264.10 88.50 L 264.34 88.51 L 264.58 88.51 L 264.81 88.52 L 265.05 88.52 L 265.29 88.53 L 265.52 88.54 L 265.76 88.54 L 266.00 88.55 L 266.23 88.55 L 266.47 88.56 L 266.71 88.57 L 266.94 88.57 L 267.18 88.58 L 267.42 88.58 L 267.65 88.59 L 267.89 88.59 L 268.13 88.60 L 268.37 88.60 L 268.60 88.61 L 268.84 88.62 L 269.08 88.62 L 269.31 88.63 L 269.55 88.63 L 269.79 88.64 L 270.02 88.64 L 270.26 88.65 L 270.50 88.65 L 270.73 88.66 L 270.97 88.66 L 271.21 88.67 L 271.44 88.67 L 271.68 88.68 L 271.92 88.68 L 272.16 88.69 L 272.39 88.69 L 272.63 88.70 L 272.87 88.70 L 273.10 88.71 L 273.34 88.71 L 273.58 88.72 L 273.81 88.72 L 274.05 88.73 L 274.29 88.73 L 274.52 88.74 L 274.76 88.74 L 275.00 88.75 L 275.23 88.75 L 275.47 88.76 L 275.71 88.76 L 275.94 88.77 L 276.18 88.77 L 276.42 88.77 L 276.66 88.78 L 276.89 88.78 L 277.13 88.79 L 277.37 88.79 L 277.60 88.80 L 277.84 88.80 L 278.08 88.81 L 278.31 88.81 L 278.55 88.82 L 278.79 88.82 L 279.02 88.82 L 279.26 88.83 L 279.50 88.83 L 279.73 88.84 L 279.97 88.84 L 280.21 88.84 L 280.45 88.85 L 280.68 88.85 L 280.92 88.86 L 281.16 88.86 L 281.39 88.87 L 281.63 88.87 L 281.87 88.87 L 282.10 88.88 L 282.34 88.88 L 282.58 88.89 L 282.81 88.89 L 283.05 88.89 L 283.29 88.90 L 283.52 88.90 L 283.76 88.91 L 284.00 88.91 L 284.24 88.91 L 284.47 88.92 L 284.71 88.92 L 284.95 88.92 L 285.18 88.93 L 285.42 88.93 L 285.66 88.94 L 285.89 88.94 L 286.13 88.94 L 286.37 88.95 L 286.60 88.95 L 286.84 88.95 L 287.08 88.96 L 287.31 88.96 L 287.55 88.96 L 287.79 88.97 L 288.03 88.97 L 288.26 88.98 L 288.50 88.98 L 288.74 88.98 L 288.97 88.99 L 289.21 88.99 L 289.45 88.99 L 289.68 89.00 L 289.92 89.00 L 290.16 89.00 L 290.39 89.01 L 290.63 89.01 L 290.87 89.01 L 291.10 89.02 L 291.34 89.02 L 291.58 89.02 L 291.81 89.03 L 292.05 89.03 L 292.29 89.03 L 292.53 89.04 L 292.76 89.04 L 293.00 89.04 L 293.24 89.05 L 293.47 89.05 L 293.71 89.05 L 293.95 89.05 L 294.18 89.06 L 294.42 89.06 L 294.66 89.06 L 294.89 89.07 L 295.13 89.07 L 295.37 89.07 L 295.60 89.08 L 295.84 89.08 L 296.08 89.08 L 296.32 89.09 L 296.55 89.09 L 296.79 89.09 L 297.03 89.09 L 297.26 89.10 L 297.50 89.10 L 297.74 89.10 L 297.97 89.11 L 298.21 89.11 L 298.45 89.11 L 298.68 89.11 L 298.92 89.12 L 299.16 89.12 L 299.39 89.12 L 299.63 89.13 L 299.87 89.13 L 300.11 89.13 L 300.34 89.13 L 300.58 89.14 L 300.82 89.14 L 301.05 89.14 L 301.29 89.14 L 301.53 89.15 L 301.76 89.15 L 302.00 89.15" fill="none" stroke="#7E8692" stroke-width="2.3" stroke-linecap="round" stroke-linejoin="round"/>
</svg>
