<svg xmlns="http://www.w3.org/2000/svg" viewBox="0 0 320 180" width="320" height="180">
  <rect width="320" height="180" fill="#F4F5F7"/>
  <path d="M 18.00 41.76 L 18.32 42.23 L 18.63 42.70 L 18.95 43.17 L 19.26 43.64 L 19.58 44.10 L 19.90 44.57 L 20.21 45.03 L 20.53 45.49 L 20.84 45.96 L 21.16 46.42 L 21.47 46.88 L 21.79 47.34 L 22.11 47.79 L 22.42 48.25 L 22.74 48.71 L 23.05 49.16 L 23.37 49.61 L 23.69 50.07 L 24.00 50.52 L 24.32 50.97 L 24.63 51.42 L 24.95 51.87 L 25.27 52.31 L 25.58 52.76 L 25.90 53.21 L 26.21 53.65 L 26.53 54.09 L 26.85 54.54 L 27.16 54.98 L 27.48 55.42 L 27.79 55.86 L 28.11 56.29 L 28.42 56.73 L 28.74 57.17 L 29.06 57.60 L 29.37 58.03 L 29.69 58.47 L 30.00 58.90 L 30.32 59.33 L 30.64 59.76 L 30.95 60.19 L 31.27 60.61 L 31.58 61.04 L 31.90 61.47 L 32.22 61.89 L 32.53 62.31 L 32.85 62.74 L 33.16 63.16 L 33.48 63.58 L 33.80 64.00 L 34.11 64.41 L 34.43 64.83 L 34.74 65.25 L 35.06 65.66 L 35.37 66.08 L 35.69 66.49 L 36.01 66.90 L 36.32 67.31 L 36.64 67.72 L 36.95 68.13 L 37.27 68.54 L 37.59 68.94 L 37.90 69.35 L 38.22 69.75 L 38.53 70.16 L 38.85 70.56 L 39.17 70.96 L 39.48 71.36 L 39.80 71.76 L 40.11 72.16 L 40.43 72.55 L 40.75 72.95 L 41.06 73.35 L 41.38 73.74 L 41.69 74.13 L 42.01 74.52 L 42.32 74.92 L 42.64 75.31 L 42.96 75.69 L 43.27 76.08 L 43.59 76.47 L 43.90 76.85 L 44.22 77.24 L 44.54 77.62 L 44.85 78.00 L 45.17 78.39 L 45.48 78.77 L 45.80 79.14 L 46.12 79.52 L 46.43 79.90 L 46.75 80.28 L 47.06 80.65 L 47.38 81.03 L 47.70 81.40 L 48.01 81.77 L 48.33 82.14 L 48.64 82.51 L 48.96 82.88 L 49.27 83.25 L 49.59 83.61 L 49.91 83.98 L 50.22 84.34 L 50.54 84.71 L 50.85 85.07 L 51.17 85.43 L 51.49 85.79 L 51.80 86.15 L 52.12 86.51 L 52.43 86.87 L 52.75 87.22 L 53.07 87.58 L 53.38 87.93 L 53.70 88.29 L 54.01 88.64 L 54.33 88.99 L 54.65 89.34 L 54.96 89.69 L 55.28 90.04 L 55.59 90.38 L 55.91 90.73 L 56.22 91.07 L 56.54 91.42 L 56.86 91.76 L 57.17 92.10 L 57.49 92.44 L 57.80 92.78 L 58.12 93.12 L 58.44 93.46 L 58.75 93.79 L 59.07 94.13 L 59.38 94.46 L 59.70 94.79 L 60.02 95.13 L 60.33 95.46 L 60.65 95.79 L 60.96 96.12 L 61.28 96.44 L 61.60 96.77 L 61.91 97.10 L 62.23 97.42 L 62.54 97.75 L 62.86 98.07 L 63.17 98.39 L 63.49 98.71 L 63.81 99.03 L 64.12 99.35 L 64.44 99.67 L 64.75 99.98 L 65.07 100.30 L 65.39 100.61 L 65.70 100.93 L 66.02 101.24 L 66.33 101.55 L 66.65 101.86 L 66.97 102.17 L 67.28 102.48 L 67.60 102.78 L 67.91 103.09 L 68.23 103.39 L 68.55 103.70 L 68.86 104.00 L 69.18 104.30 L 69.49 104.60 L 69.81 104.90 L 70.12 105.20 L 70.44 105.50 L 70.76 105.80 L 71.07 106.09 L 71.39 106.38 L 71.70 106.68 L 72.02 106.97 L 72.34 107.26 L 72.65 107.55 L 72.97 107.84 L 73.28 108.13 L 73.60 108.42 L 73.92 108.70 L 74.23 108.99 L 74.55 109.27 L 74.86 109.55 L 75.18 109.84 L 75.49 110.12 L 75.81 110.40 L 76.13 110.68 L 76.44 110.95 L 76.76 111.23 L 77.07 111.50 L 77.39 111.78 L 77.71 112.05 L 78.02 112.33 L 78.34 112.60 L 78.65 112.87 L 78.97 113.14 L 79.29 113.40 L 79.60 113.67 L 79.92 113.94 L 80.23 114.20 L 80.55 114.47 L 80.87 114.73 L 81.18 114.99 L 81.50 115.25 L 81.81 115.51 L 82.13 115.77 L 82.44 116.03 L 82.76 116.29 L 83.08 116.54 L 83.39 116.80 L 83.71 117.05 L 84.02 117.30 L 84.34 117.55 L 84.66 117.80 L 84.97 118.05 L 85.29 118.30 L 85.60 118.55 L 85.92 118.79 L 86.24 119.04 L 86.55 119.28 L 86.87 119.53 L 87.18 119.77 L 87.50 120.01 L 87.82 120.25 L 88.13 120.49 L 88.45 120.73 L 88.76 120.96 L 89.08 121.20 L 89.39 121.43 L 89.71 121.67 L 90.03 121.90 L 90.34 122.13 L 90.66 122.36 L 90.97 122.59 L 91.29 122.82 L 91.61 123.05 L 91.92 123.27 L 92.24 123.50 L 92.55 123.72 L 92.87 123.95 L 93.19 124.17 L 93.50 124.39 L 93.82 124.61 L 94.13 124.83 L 94.45 125.05 L 94.77 125.26 L 95.08 125.48 L 95.40 125.69 L 95.71 125.91 L 96.03 126.12 L 96.34 126.33 L 96.66 126.54 L 96.98 126.75 L 97.29 126.96 L 97.61 127.17 L 97.92 127.37 L 98.24 127.58 L 98.56 127.78 L 98.87 127.99 L 99.19 128.19 L 99.50 128.39 L 99.82 128.59 L 100.14 128.79 L 100.45 128.99 L 100.77 129.18 L 101.08 129.38 L 101.40 129.57 L 101.72 129.77 L 102.03 129.96 L 102.35 130.15 L 102.66 130.34 L 102.98 130.53 L 103.29 130.72 L 103.61 130.91 L 103.93 131.10 L 104.24 131.28 L 104.56 131.47 L 104.87 131.65 L 105.19 131.83 L 105.51 132.01 L 105.82 132.19 L 106.14 132.37 L 106.45 132.55 L 106.77 132.73 L 107.09 132.90 L 107.40 133.08 L 107.72 133.25 L 108.03 133.43 L 108.35 133.60 L 108.67 133.77 L 108.98 133.94 L 109.30 134.11 L 109.61 134.27 L 109.93 134.44 L 110.24 134.61 L 110.56 134.77 L 110.88 134.93 L 111.19 135.10 L 111.51 135.26 L 111.82 135.42 L 112.14 135.58 L 112.46 135.74 L 112.77 135.89 L 113.09 136.05 L 113.40 136.20 L 113.72 136.36 L 114.04 136.51 L 114.35 136.66 L 114.67 136.81 L 114.98 136.96 L 115.30 137.11 L 115.62 137.26 L 115.93 137.41 L 116.25 137.55 L 116.56 137.70 L 116.88 137.84 L 117.19 137.98 L 117.51 138.12 L 117.83 138.26 L 118.14 138.40 L 118.46 138.54 L 118.77 138.68 L 119.09 138.82 L 119.41 138.95 L 119.72 139.08 L 120.04 139.22 L 120.35 139.35 L 120.67 139.48 L 120.99 139.61 L 121.30 139.74 L 121.62 139.87 L 121.93 139.99 L 122.25 140.12 L 122.57 140.24 L 122.88 140.37 L 123.20 140.49 L 123.51 140.61 L 123.83 140.73 L 124.14 140.85 L 124.46 140.97 L 124.78 141.09 L 125.09 141.20 L 125.41 141.32 L 125.72 141.43 L 126.04 141.55 L 126.36 141.66 L 126.67 141.77 L 126.99 141.88 L 127.30 141.99 L 127.62 142.10 L 127.94 142.20 L 128.25 142.31 L 128.57 142.41 L 128.88 142.52 L 129.20 142.62 L 129.52 142.72 L 129.83 142.82 L 130.15 142.92 L 130.46 143.02 L 130.78 143.12 L 131.09 143.21 L 131.41 143.31 L 131.73 143.40 L 132.04 143.50 L 132.36 143.59 L 132.67 143.68 L 132.99 143.77 L 133.31 143.86 L 133.62 143.95 L 133.94 144.03 L 134.25 144.12 L 134.57 144.21 L 134.89 144.29 L 135.20 144.37 L 135.52 144.45 L 135.83 144.53 L 136.15 144.61 L 136.46 144.69 L 136.78 144.77 L 137.10 144.85 L 137.41 144.92 L 137.73 145.00 L 138.04 145.07 L 138.36 145.14 L 138.68 145.21 L 138.99 145.28 L 139.31 145.35 L 139.62 145.42 L 139.94 145.49 L 140.26 145.55 L 140.57 145.62 L 140.89 145.68 L 141.20 145.75 L 141.52 145.81 L 141.84 145.87 L 142.15 145.93 L 142.47 145.99 L 142.78 146.04 L 143.10 146.10 L 143.41 146.16 L 143.73 146.21 L 144.05 146.26 L 144.36 146.32 L 144.68 146.37 L 144.99 146.42 L 145.31 146.47 L 145.63 146.52 L 145.94 146.56 L 146.26 146.61 L 146.57 146.65 L 146.89 146.70 L 147.21 146.74 L 147.52 146.78 L 147.84 146.82 L 148.15 146.86 L 148.47 146.90 L 148.79 146.94 L 149.10 146.98 L 149.42 147.01 L 149.73 147.05 L 150.05 147.08 L 150.36 147.11 L 150.68 147.14 L 151.00 147.17 L 151.31 147.20 L 151.63 147.23 L 151.94 147.26 L 152.26 147.29 L 152.58 147.31 L 152.89 147.33 L 153.21 147.36 L 153.52 147.38 L 153.84 147.40 L 154.16 147.42 L 154.47 147.44 L 154.79 147.46 L 155.10 147.47 L 155.42 147.49 L 155.74 147.50 L 156.05 147.52 L 156.37 147.53 L 156.68 147.54 L 157.00 147.55 L 157.31 147.56 L 157.63 147.57 L 157.95 147.58 L 158.26 147.58 L 158.58 147.59 L 158.89 147.59 L 159.21 147.60 L 159.53 147.60 L 159.84 147.60 L 160.16 147.60 L 160.47 147.60 L 160.79 147.60 L 161.11 147.59 L 161.42 147.59 L 161.74 147.58 L 162.05 147.58 L 162.37 147.57 L 162.69 147.56 L 163.00 147.55 L 163.32 147.54 L 163.63 147.53 L 163.95 147.52 L 164.26 147.50 L 164.58 147.49 L 164.90 147.47 L 165.21 147.46 L 165.53 147.44 L 165.84 147.42 L 166.16 147.40 L 166.48 147.38 L 166.79 147.36 L 167.11 147.33 L 167.42 147.31 L 167.74 147.29 L 168.06 147.26 L 168.37 147.23 L 168.69 147.20 L 169.00 147.17 L 169.32 147.14 L 169.64 147.11 L 169.95 147.08 L 170.27 147.05 L 170.58 147.01 L 170.90 146.98 L 171.21 146.94 L 171.53 146.90 L 171.85 146.86 L 172.16 146.82 L 172.48 146.78 L 172.79 146.74 L 173.11 146.70 L 173.43 146.65 L 173.74 146.61 L 174.06 146.56 L 174.37 146.52 L 174.69 146.47 L 175.01 146.42 L 175.32 146.37 L 175.64 146.32 L 175.95 146.26 L 176.27 146.21 L 176.59 146.16 L 176.90 146.10 L 177.22 146.04 L 177.53 145.99 L 177.85 145.93 L 178.16 145.87 L 178.48 145.81 L 178.80 145.75 L 179.11 145.68 L 179.43 145.62 L 179.74 145.55 L 180.06 145.49 L 180.38 145.42 L 180.69 145.35 L 181.01 145.28 L 181.32 145.21 L 181.64 145.14 L 181.96 145.07 L 182.27 145.00 L 182.59 144.92 L 182.90 144.85 L 183.22 144.77 L 183.54 144.69 L 183.85 144.61 L 184.17 144.53 L 184.48 144.45 L 184.80 144.37 L 185.11 144.29 L 185.43 144.21 L 185.75 144.12 L 186.06 144.03 L 186.38 143.95 L 186.69 143.86 L 187.01 143.77 L 187.33 143.68 L 187.64 143.59 L 187.96 143.50 L 188.27 143.40 L 188.59 143.31 L 188.91 143.21 L 189.22 143.12 L 189.54 143.02 L 189.85 142.92 L 190.17 142.82 L 190.48 142.72 L 190.80 142.62 L 191.12 142.52 L 191.43 142.41 L 191.75 142.31 L 192.06 142.20 L 192.38 142.10 L 192.70 141.99 L 193.01 141.88 L 193.33 141.77 L 193.64 141.66 L 193.96 141.55 L 194.28 141.43 L 194.59 141.32 L 194.91 141.20 L 195.22 141.09 L 195.54 140.97 L 195.86 140.85 L 196.17 140.73 L 196.49 140.61 L 196.80 140.49 L 197.12 140.37 L 197.43 140.24 L 197.75 140.12 L 198.07 139.99 L 198.38 139.87 L 198.70 139.74 L 199.01 139.61 L 199.33 139.48 L 199.65 139.35 L 199.96 139.22 L 200.28 139.08 L 200.59 138.95 L 200.91 138.82 L 201.23 138.68 L 201.54 138.54 L 201.86 138.40 L 202.17 138.26 L 202.49 138.12 L 202.81 137.98 L 203.12 137.84 L 203.44 137.70 L 203.75 137.55 L 204.07 137.41 L 204.38 137.26 L 204.70 137.11 L 205.02 136.96 L 205.33 136.81 L 205.65 136.66 L 205.96 136.51 L 206.28 136.36 L 206.60 136.20 L 206.91 136.05 L 207.23 135.89 L 207.54 135.74 L 207.86 135.58 L 208.18 135.42 L 208.49 135.26 L 208.81 135.10 L 209.12 134.93 L 209.44 134.77 L 209.76 134.61 L 210.07 134.44 L 210.39 134.27 L 210.70 134.11 L 211.02 133.94 L 211.33 133.77 L 211.65 133.60 L 211.97 133.43 L 212.28 133.25 L 212.60 133.08 L 212.91 132.90 L 213.23 132.73 L 213.55 132.55 L 213.86 132.37 L 214.18 132.19 L 214.49 132.01 L 214.81 131.83 L 215.13 131.65 L 215.44 131.47 L 215.76 131.28 L 216.07 131.10 L 216.39 130.91 L 216.71 130.72 L 217.02 130.53 L 217.34 130.34 L 217.65 130.15 L 217.97 129.96 L 218.28 129.77 L 218.60 129.57 L 218.92 129.38 L 219.23 129.18 L 219.55 128.99 L 219.86 128.79 L 220.18 128.59 L 220.50 128.39 L 220.81 128.19 L 221.13 127.99 L 221.44 127.78 L 221.76 127.58 L 222.08 127.37 L 222.39 127.17 L 222.71 126.96 L 223.02 126.75 L 223.34 126.54 L 223.66 126.33 L 223.97 126.12 L 224.29 125.91 L 224.60 125.69 L 224.92 125.48 L 225.23 125.26 L 225.55 125.05 L 225.87 124.83 L 226.18 124.61 L 226.50 124.39 L 226.81 124.17 L 227.13 123.95 L 227.45 123.72 L 227.76 123.50 L 228.08 123.27 L 228.39 123.05 L 228.71 122.82 L 229.03 122.59 L 229.34 122.36 L 229.66 122.13 L 229.97 121.90 L 230.29 121.67 L 230.61 121.43 L 230.92 121.20 L 231.24 120.96 L 231.55 120.73 L 231.87 120.49 L 232.18 120.25 L 232.50 120.01 L 232.82 119.77 L 233.13 119.53 L 233.45 119.28 L 233.76 119.04 L 234.08 118.79 L 234.40 118.55 L 234.71 118.30 L 235.03 118.05 L 235.34 117.80 L 235.66 117.55 L 235.98 117.30 L 236.29 117.05 L 236.61 116.80 L 236.92 116.54 L 237.24 116.29 L 237.56 116.03 L 237.87 115.77 L 238.19 115.51 L 238.50 115.25 L 238.82 114.99 L 239.13 114.73 L 239.45 114.47 L 239.77 114.20 L 240.08 113.94 L 240.40 113.67 L 240.71 113.40 L 241.03 113.14 L 241.35 112.87 L 241.66 112.60 L 241.98 112.33 L 242.29 112.05 L 242.61 111.78 L 242.93 111.50 L 243.24 111.23 L 243.56 110.95 L 243.87 110.68 L 244.19 110.40 L 244.51 110.12 L 244.82 109.84 L 245.14 109.55 L 245.45 109.27 L 245.77 108.99 L 246.08 108.70 L 246.40 108.42 L 246.72 108.13 L 247.03 107.84 L 247.35 107.55 L 247.66 107.26 L 247.98 106.97 L 248.30 106.68 L 248.61 106.38 L 248.93 106.09 L 249.24 105.80 L 249.56 105.50 L 249.88 105.20 L 250.19 104.90 L 250.51 104.60 L 250.82 104.30 L 251.14 104.00 L 251.45 103.70 L 251.77 103.39 L 252.09 103.09 L 252.40 102.78 L 252.72 102.48 L 253.03 102.17 L 253.35 101.86 L 253.67 101.55 L 253.98 101.24 L 254.30 100.93 L 254.61 100.61 L 254.93 100.30 L 255.25 99.98 L 255.56 99.67 L 255.88 99.35 L 256.19 99.03 L 256.51 98.71 L 256.83 98.39 L 257.14 98.07 L 257.46 97.75 L 257.77 97.42 L 258.09 97.10 L 258.40 96.77 L 258.72 96.44 L 259.04 96.12 L 259.35 95.79 L 259.67 95.46 L 259.98 95.13 L 260.30 94.79 L 260.62 94.46 L 260.93 94.13 L 261.25 93.79 L 261.56 93.46 L 261.88 93.12 L 262.20 92.78 L 262.51 92.44 L 262.83 92.10 L 263.14 91.76 L 263.46 91.42 L 263.78 91.07 L 264.09 90.73 L 264.41 90.38 L 264.72 90.04 L 265.04 89.69 L 265.35 89.34 L 265.67 88.99 L 265.99 88.64 L 266.30 88.29 L 266.62 87.93 L 266.93 87.58 L 267.25 87.22 L 267.57 86.87 L 267.88 86.51 L 268.20 86.15 L 268.51 85.79 L 268.83 85.43 L 269.15 85.07 L 269.46 84.71 L 269.78 84.34 L 270.09 83.98 L 270.41 83.61 L 270.73 83.25 L 271.04 82.88 L 271.36 82.51 L 271.67 82.14 L 271.99 81.77 L 272.30 81.40 L 272.62 81.03 L 272.94 80.65 L 273.25 80.28 L 273.57 79.90 L 273.88 79.52 L 274.20 79.14 L 274.52 78.77 L 274.83 78.39 L 275.15 78.00 L 275.46 77.62 L 275.78 77.24 L 276.10 76.85 L 276.41 76.47 L 276.73 76.08 L 277.04 75.69 L 277.36 75.31 L 277.68 74.92 L 277.99 74.52 L 278.31 74.13 L 278.62 73.74 L 278.94 73.35 L 279.25 72.95 L 279.57 72.55 L 279.89 72.16 L 280.20 71.76 L 280.52 71.36 L 280.83 70.96 L 281.15 70.56 L 281.47 70.16 L 281.78 69.75 L 282.10 69.35 L 282.41 68.94 L 282.73 68.54 L 283.05 68.13 L 283.36 67.72 L 283.68 67.31 L 283.99 66.90 L 284.31 66.49 L 284.63 66.08 L 284.94 65.66 L 285.26 65.25 L 285.57 64.83 L 285.89 64.41 L 286.20 64.00 L 286.52 63.58 L 286.84 63.16 L 287.15 62.74 L 287.47 62.31 L 287.78 61.89 L 288.10 61.47 L 288.42 61.04 L 288.73 60.61 L 289.05 60.19 L 289.36 59.76 L 289.68 59.33 L 290.00 58.90 L 290.31 58.47 L 290.63 58.03 L 290.94 57.60 L 291.26 57.17 L 291.58 56.73 L 291.89 56.29 L 292.21 55.86 L 292.52 55.42 L 292.84 54.98 L 293.15 54.54 L 293.47 54.09 L 293.79 53.65 L 294.10 53.21 L 294.42 52.76 L 294.73 52.31 L 295.05 51.87 L 295.37 51.42 L 295.68 50.97 L 296.00 50.52 L 296.31 50.07 L 296.63 49.61 L 296.95 49.16 L 297.26 48.71 L 297.58 48.25 L 297.89 47.79 L 298.21 47.34 L 298.53 46.88 L 298.84 46.42 L 299.16 45.96 L 299.47 45.49 L 299.79 45.03 L 300.10 44.57 L 300.42 44.10 L 300.74 43.64 L 301.05 43.17 L 301.37 42.70 L 301.68 42.23 L 302.00 41.76" fill="none" stroke="#7E8692" stroke-width="2.3" stroke-linecap="round" stroke-linejoin="round"/>
</svg>
