<svg xmlns="http://www.w3.org/2000/svg" viewBox="0 0 320 180" width="320" height="180">
  <rect width="320" height="180" fill="#F4F5F7"/>
  <path d="M 24.00 67.33 L 24.23 67.31 L 24.45 67.29 L 24.68 67.27 L 24.91 67.25 L 25.13 67.23 L 25.36 67.21 L 25.59 67.19 L 25.81 67.17 L 26.04 67.15 L 26.27 67.13 L 26.50 67.11 L 26.72 67.08 L 26.95 67.06 L 27.18 67.04 L 27.40 67.02 L 27.63 67.00 L 27.86 66.98 L 28.08 66.96 L 28.31 66.93 L 28.54 66.91 L 28.76 66.89 L 28.99 66.87 L 29.22 66.84 L 29.44 66.82 L 29.67 66.80 L 29.90 66.78 L 30.13 66.75 L 30.35 66.73 L 30.58 66.71 L 30.81 66.69 L 31.03 66.66 L 31.26 66.64 L 31.49 66.62 L 31.71 66.59 L 31.94 66.57 L 32.17 66.54 L 32.39 66.52 L 32.62 66.50 L 32.85 66.47 L 33.07 66.45 L 33.30 66.42 L 33.53 66.40 L 33.75 66.37 L 33.98 66.35 L 34.21 66.32 L 34.44 66.30 L 34.66 66.27 L 34.89 66.25 L 35.12 66.22 L 35.34 66.20 L 35.57 66.17 L 35.80 66.15 L 36.02 66.12 L 36.25 66.10 L 36.48 66.07 L 36.70 66.04 L 36.93 66.02 L 37.16 65.99 L 37.38 65.96 L 37.61 65.94 L 37.84 65.91 L 38.07 65.88 L 38.29 65.86 L 38.52 65.83 L 38.75 65.80 L 38.97 65.77 L 39.20 65.75 L 39.43 65.72 L 39.65 65.69 L 39.88 65.66 L 40.11 65.63 L 40.33 65.60 L 40.56 65.58 L 40.79 65.55 L 41.01 65.52 L 41.24 65.49 L 41.47 65.46 L 41.69 65.43 L 41.92 65.40 L 42.15 65.37 L 42.38 65.34 L 42.60 65.31 L 42.83 65.28 L 43.06 65.25 L 43.28 65.22 L 43.51 65.19 L 43.74 65.16 L 43.96 65.13 L 44.19 65.10 L 44.42 65.06 L 44.64 65.03 L 44.87 65.00 L 45.10 64.97 L 45.32 64.94 L 45.55 64.90 L 45.78 64.87 L 46.01 64.84 L 46.23 64.81 L 46.46 64.77 L 46.69 64.74 L 46.91 64.71 L 47.14 64.67 L 47.37 64.64 L 47.59 64.61 L 47.82 64.57 L 48.05 64.54 L 48.27 64.50 L 48.50 64.47 L 48.73 64.43 L 48.95 64.40 L 49.18 64.36 L 49.41 64.33 L 49.63 64.29 L 49.86 64.25 L 50.09 64.22 L 50.32 64.18 L 50.54 64.14 L 50.77 64.11 L 51.00 64.07 L 51.22 64.03 L 51.45 63.99 L 51.68 63.96 L 51.90 63.92 L 52.13 63.88 L 52.36 63.84 L 52.58 63.80 L 52.81 63.76 L 53.04 63.72 L 53.26 63.69 L 53.49 63.65 L 53.72 63.61 L 53.94 63.57 L 54.17 63.52 L 54.40 63.48 L 54.63 63.44 L 54.85 63.40 L 55.08 63.36 L 55.31 63.32 L 55.53 63.28 L 55.76 63.23 L 55.99 63.19 L 56.21 63.15 L 56.44 63.10 L 56.67 63.06 L 56.89 63.02 L 57.12 62.97 L 57.35 62.93 L 57.57 62.88 L 57.80 62.84 L 58.03 62.79 L 58.26 62.75 L 58.48 62.70 L 58.71 62.66 L 58.94 62.61 L 59.16 62.56 L 59.39 62.52 L 59.62 62.47 L 59.84 62.42 L 60.07 62.37 L 60.30 62.32 L 60.52 62.28 L 60.75 62.23 L 60.98 62.18 L 61.20 62.13 L 61.43 62.08 L 61.66 62.03 L 61.88 61.98 L 62.11 61.92 L 62.34 61.87 L 62.57 61.82 L 62.79 61.77 L 63.02 61.72 L 63.25 61.66 L 63.47 61.61 L 63.70 61.56 L 63.93 61.50 L 64.15 61.45 L 64.38 61.39 L 64.61 61.34 L 64.83 61.28 L 65.06 61.22 L 65.29 61.17 L 65.51 61.11 L 65.74 61.05 L 65.97 60.99 L 66.20 60.94 L 66.42 60.88 L 66.65 60.82 L 66.88 60.76 L 67.10 60.70 L 67.33 60.64 L 67.56 60.58 L 67.78 60.51 L 68.01 60.45 L 68.24 60.39 L 68.46 60.33 L 68.69 60.26 L 68.92 60.20 L 69.14 60.13 L 69.37 60.07 L 69.60 60.00 L 69.82 59.94 L 70.05 59.87 L 70.28 59.80 L 70.51 59.74 L 70.73 59.67 L 70.96 59.60 L 71.19 59.53 L 71.41 59.46 L 71.64 59.39 L 71.87 59.32 L 72.09 59.24 L 72.32 59.17 L 72.55 59.10 L 72.77 59.03 L 73.00 58.95 L 73.23 58.88 L 73.45 58.80 L 73.68 58.72 L 73.91 58.65 L 74.14 58.57 L 74.36 58.49 L 74.59 58.41 L 74.82 58.33 L 75.04 58.25 L 75.27 58.17 L 75.50 58.09 L 75.72 58.01 L 75.95 57.92 L 76.18 57.84 L 76.40 57.75 L 76.63 57.67 L 76.86 57.58 L 77.08 57.49 L 77.31 57.41 L 77.54 57.32 L 77.76 57.23 L 77.99 57.14 L 78.22 57.05 L 78.45 56.95 L 78.67 56.86 L 78.90 56.77 L 79.13 56.67 L 79.35 56.57 L 79.58 56.48 L 79.81 56.38 L 80.03 56.28 L 80.26 56.18 L 80.49 56.08 L 80.71 55.98 L 80.94 55.88 L 81.17 55.77 L 81.39 55.67 L 81.62 55.56 L 81.85 55.45 L 82.08 55.35 L 82.30 55.24 L 82.53 55.13 L 82.76 55.01 L 82.98 54.90 L 83.21 54.79 L 83.44 54.67 L 83.66 54.56 L 83.89 54.44 L 84.12 54.32 L 84.34 54.20 L 84.57 54.08 L 84.80 53.95 L 85.02 53.83 L 85.25 53.70 L 85.48 53.58 L 85.70 53.45 L 85.93 53.32 L 86.16 53.19 L 86.39 53.06 L 86.61 52.92 L 86.84 52.78 L 87.07 52.65 L 87.29 52.51 L 87.52 52.37 L 87.75 52.22 L 87.97 52.08 L 88.20 51.93 L 88.43 51.79 L 88.65 51.64 L 88.88 51.49 L 89.11 51.33 L 89.33 51.18 L 89.56 51.02 L 89.79 50.86 L 90.02 50.70 L 90.24 50.54 L 90.47 50.37 L 90.70 50.20 L 90.92 50.04 L 91.15 49.86 L 91.38 49.69 L 91.60 49.51 L 91.83 49.34 L 92.06 49.15 L 92.28 48.97 L 92.51 48.79 L 92.74 48.60 L 92.96 48.41 L 93.19 48.21 L 93.42 48.02 L 93.64 47.82 L 93.87 47.62 L 94.10 47.41 L 94.33 47.20 L 94.55 46.99 L 94.78 46.78 L 95.01 46.56 L 95.23 46.34 L 95.46 46.12 L 95.69 45.89 L 95.91 45.66 L 96.14 45.43 L 96.37 45.19 L 96.59 44.95 L 96.82 44.71 L 97.05 44.46 L 97.27 44.21 L 97.50 43.95 L 97.73 43.69 L 97.95 43.42 L 98.18 43.16 L 98.41 42.88 L 98.64 42.60 L 98.86 42.32 L 99.09 42.03 L 99.32 41.74 L 99.54 41.45 L 99.77 41.14 L 100.00 40.84 L 100.22 40.52 L 100.45 40.20 L 100.68 39.88 L 100.90 39.55 L 101.13 39.21 L 101.36 38.87 L 101.58 38.52 L 101.81 38.17 L 102.04 37.80 L 102.27 37.44 L 102.49 37.06 L 102.72 36.68 L 102.95 36.29 L 103.17 35.89 L 103.40 35.48 L 103.63 35.07 L 103.85 34.64 L 104.08 34.21 L 104.31 33.77 L 104.53 33.32 L 104.76 32.86 L 104.99 32.39 L 105.21 31.91 L 105.44 31.42 L 105.67 30.91 L 105.89 30.40 L 106.12 29.88 L 106.35 29.34 L 106.58 28.79 L 106.80 28.23 L 107.03 27.65 L 107.26 27.06 L 107.48 26.46 L 107.71 25.84 L 107.94 25.20 L 108.16 24.55 L 108.39 23.88 L 108.62 23.20 L 108.84 22.49" fill="none" stroke="#7E8692" stroke-width="2.3" stroke-linecap="round" stroke-linejoin="round"/>
  <path d="M 137.43 157.33 L 137.65 155.75 L 137.88 154.23 L 138.11 152.78 L 138.34 151.37 L 138.56 150.02 L 138.79 148.71 L 139.02 147.45 L 139.24 146.23 L 139.47 145.06 L 139.70 143.92 L 139.92 142.82 L 140.15 141.76 L 140.38 140.73 L 140.60 139.73 L 140.83 138.76 L 141.06 137.82 L 141.28 136.91 L 141.51 136.02 L 141.74 135.16 L 141.96 134.33 L 142.19 133.52 L 142.42 132.73 L 142.65 131.96 L 142.87 131.21 L 143.10 130.48 L 143.33 129.78 L 143.55 129.09 L 143.78 128.41 L 144.01 127.76 L 144.23 127.12 L 144.46 126.50 L 144.69 125.89 L 144.91 125.29 L 145.14 124.72 L 145.37 124.15 L 145.59 123.60 L 145.82 123.06 L 146.05 122.53 L 146.28 122.01 L 146.50 121.51 L 146.73 121.01 L 146.96 120.53 L 147.18 120.06 L 147.41 119.60 L 147.64 119.14 L 147.86 118.70 L 148.09 118.26 L 148.32 117.84 L 148.54 117.42 L 148.77 117.01 L 149.00 116.61 L 149.22 116.22 L 149.45 115.84 L 149.68 115.46 L 149.90 115.09 L 150.13 114.72 L 150.36 114.37 L 150.59 114.02 L 150.81 113.67 L 151.04 113.33 L 151.27 113.00 L 151.49 112.68 L 151.72 112.36 L 151.95 112.04 L 152.17 111.73 L 152.40 111.43 L 152.63 111.13 L 152.85 110.84 L 153.08 110.55 L 153.31 110.27 L 153.53 109.99 L 153.76 109.71 L 153.99 109.44 L 154.22 109.18 L 154.44 108.92 L 154.67 108.66 L 154.90 108.40 L 155.12 108.16 L 155.35 107.91 L 155.58 107.67 L 155.80 107.43 L 156.03 107.20 L 156.26 106.96 L 156.48 106.74 L 156.71 106.51 L 156.94 106.29 L 157.16 106.07 L 157.39 105.86 L 157.62 105.65 L 157.84 105.44 L 158.07 105.24 L 158.30 105.03 L 158.53 104.83 L 158.75 104.64 L 158.98 104.44 L 159.21 104.25 L 159.43 104.06 L 159.66 103.87 L 159.89 103.69 L 160.11 103.51 L 160.34 103.33 L 160.57 103.15 L 160.79 102.98 L 161.02 102.81 L 161.25 102.64 L 161.47 102.47 L 161.70 102.30 L 161.93 102.14 L 162.16 101.98 L 162.38 101.82 L 162.61 101.66 L 162.84 101.51 L 163.06 101.35 L 163.29 101.20 L 163.52 101.05 L 163.74 100.90 L 163.97 100.76 L 164.20 100.61 L 164.42 100.47 L 164.65 100.33 L 164.88 100.19 L 165.10 100.05 L 165.33 99.91 L 165.56 99.78 L 165.78 99.65 L 166.01 99.51 L 166.24 99.38 L 166.47 99.25 L 166.69 99.13 L 166.92 99.00 L 167.15 98.88 L 167.37 98.75 L 167.60 98.63 L 167.83 98.51 L 168.05 98.39 L 168.28 98.27 L 168.51 98.16 L 168.73 98.04 L 168.96 97.93 L 169.19 97.81 L 169.41 97.70 L 169.64 97.59 L 169.87 97.48 L 170.10 97.37 L 170.32 97.27 L 170.55 97.16 L 170.78 97.05 L 171.00 96.95 L 171.23 96.85 L 171.46 96.74 L 171.68 96.64 L 171.91 96.54 L 172.14 96.44 L 172.36 96.35 L 172.59 96.25 L 172.82 96.15 L 173.04 96.06 L 173.27 95.96 L 173.50 95.87 L 173.72 95.78 L 173.95 95.69 L 174.18 95.60 L 174.41 95.51 L 174.63 95.42 L 174.86 95.33 L 175.09 95.24 L 175.31 95.15 L 175.54 95.07 L 175.77 94.98 L 175.99 94.90 L 176.22 94.81 L 176.45 94.73 L 176.67 94.65 L 176.90 94.57 L 177.13 94.49 L 177.35 94.41 L 177.58 94.33 L 177.81 94.25 L 178.04 94.17 L 178.26 94.10 L 178.49 94.02 L 178.72 93.94 L 178.94 93.87 L 179.17 93.79 L 179.40 93.72 L 179.62 93.65 L 179.85 93.57 L 180.08 93.50 L 180.30 93.43 L 180.53 93.36 L 180.76 93.29 L 180.98 93.22 L 181.21 93.15 L 181.44 93.08 L 181.66 93.01 L 181.89 92.95 L 182.12 92.88 L 182.35 92.81 L 182.57 92.75 L 182.80 92.68 L 183.03 92.62 L 183.25 92.55 L 183.48 92.49 L 183.71 92.43 L 183.93 92.36 L 184.16 92.30 L 184.39 92.24 L 184.61 92.18 L 184.84 92.12 L 185.07 92.06 L 185.29 92.00 L 185.52 91.94 L 185.75 91.88 L 185.97 91.82 L 186.20 91.76 L 186.43 91.70 L 186.66 91.65 L 186.88 91.59 L 187.11 91.53 L 187.34 91.48 L 187.56 91.42 L 187.79 91.37 L 188.02 91.31 L 188.24 91.26 L 188.47 91.20 L 188.70 91.15 L 188.92 91.10 L 189.15 91.04 L 189.38 90.99 L 189.60 90.94 L 189.83 90.89 L 190.06 90.84 L 190.29 90.79 L 190.51 90.74 L 190.74 90.69 L 190.97 90.64 L 191.19 90.59 L 191.42 90.54 L 191.65 90.49 L 191.87 90.44 L 192.10 90.39 L 192.33 90.34 L 192.55 90.30 L 192.78 90.25 L 193.01 90.20 L 193.23 90.15 L 193.46 90.11 L 193.69 90.06 L 193.91 90.02 L 194.14 89.97 L 194.37 89.93 L 194.60 89.88 L 194.82 89.84 L 195.05 89.79 L 195.28 89.75 L 195.50 89.71 L 195.73 89.66 L 195.96 89.62 L 196.18 89.58 L 196.41 89.53 L 196.64 89.49 L 196.86 89.45 L 197.09 89.41 L 197.32 89.37 L 197.54 89.33 L 197.77 89.29 L 198.00 89.24 L 198.23 89.20 L 198.45 89.16 L 198.68 89.12 L 198.91 89.08 L 199.13 89.05 L 199.36 89.01 L 199.59 88.97 L 199.81 88.93 L 200.04 88.89 L 200.27 88.85 L 200.49 88.81 L 200.72 88.78 L 200.95 88.74 L 201.17 88.70 L 201.40 88.67 L 201.63 88.63 L 201.85 88.59 L 202.08 88.56 L 202.31 88.52 L 202.54 88.48 L 202.76 88.45 L 202.99 88.41 L 203.22 88.38 L 203.44 88.34 L 203.67 88.31 L 203.90 88.27 L 204.12 88.24 L 204.35 88.20 L 204.58 88.17 L 204.80 88.14 L 205.03 88.10 L 205.26 88.07 L 205.48 88.03 L 205.71 88.00 L 205.94 87.97 L 206.17 87.94 L 206.39 87.90 L 206.62 87.87 L 206.85 87.84 L 207.07 87.81 L 207.30 87.78 L 207.53 87.74 L 207.75 87.71 L 207.98 87.68 L 208.21 87.65 L 208.43 87.62 L 208.66 87.59 L 208.89 87.56 L 209.11 87.53 L 209.34 87.50 L 209.57 87.47 L 209.79 87.44 L 210.02 87.41 L 210.25 87.38 L 210.48 87.35 L 210.70 87.32 L 210.93 87.29 L 211.16 87.26 L 211.38 87.23 L 211.61 87.20 L 211.84 87.17 L 212.06 87.15 L 212.29 87.12 L 212.52 87.09 L 212.74 87.06 L 212.97 87.03 L 213.20 87.01 L 213.42 86.98 L 213.65 86.95 L 213.88 86.92 L 214.11 86.90 L 214.33 86.87 L 214.56 86.84 L 214.79 86.82 L 215.01 86.79 L 215.24 86.76 L 215.47 86.74 L 215.69 86.71 L 215.92 86.68 L 216.15 86.66 L 216.37 86.63 L 216.60 86.61 L 216.83 86.58 L 217.05 86.56 L 217.28 86.53 L 217.51 86.51 L 217.73 86.48 L 217.96 86.46 L 218.19 86.43 L 218.42 86.41 L 218.64 86.38 L 218.87 86.36 L 219.10 86.33 L 219.32 86.31 L 219.55 86.29 L 219.78 86.26 L 220.00 86.24 L 220.23 86.21 L 220.46 86.19 L 220.68 86.17 L 220.91 86.14 L 221.14 86.12 L 221.36 86.10 L 221.59 86.07 L 221.82 86.05 L 222.05 86.03 L 222.27 86.01 L 222.50 85.98 L 222.73 85.96 L 222.95 85.94 L 223.18 85.92 L 223.41 85.89 L 223.63 85.87 L 223.86 85.85 L 224.09 85.83 L 224.31 85.81 L 224.54 85.78 L 224.77 85.76 L 224.99 85.74 L 225.22 85.72 L 225.45 85.70 L 225.67 85.68 L 225.90 85.66 L 226.13 85.64 L 226.36 85.62 L 226.58 85.59 L 226.81 85.57 L 227.04 85.55 L 227.26 85.53 L 227.49 85.51 L 227.72 85.49 L 227.94 85.47 L 228.17 85.45 L 228.40 85.43 L 228.62 85.41 L 228.85 85.39 L 229.08 85.37 L 229.30 85.35 L 229.53 85.33 L 229.76 85.31 L 229.98 85.29 L 230.21 85.27 L 230.44 85.25 L 230.67 85.24 L 230.89 85.22 L 231.12 85.20 L 231.35 85.18 L 231.57 85.16 L 231.80 85.14 L 232.03 85.12 L 232.25 85.10 L 232.48 85.09 L 232.71 85.07 L 232.93 85.05 L 233.16 85.03 L 233.39 85.01 L 233.61 84.99 L 233.84 84.98 L 234.07 84.96 L 234.30 84.94 L 234.52 84.92 L 234.75 84.90 L 234.98 84.89 L 235.20 84.87 L 235.43 84.85 L 235.66 84.83 L 235.88 84.82 L 236.11 84.80 L 236.34 84.78 L 236.56 84.76 L 236.79 84.75 L 237.02 84.73 L 237.24 84.71 L 237.47 84.70 L 237.70 84.68 L 237.92 84.66 L 238.15 84.65 L 238.38 84.63 L 238.61 84.61 L 238.83 84.60 L 239.06 84.58 L 239.29 84.56 L 239.51 84.55 L 239.74 84.53 L 239.97 84.51 L 240.19 84.50 L 240.42 84.48 L 240.65 84.47 L 240.87 84.45 L 241.10 84.43 L 241.33 84.42 L 241.55 84.40 L 241.78 84.39 L 242.01 84.37 L 242.24 84.36 L 242.46 84.34 L 242.69 84.33 L 242.92 84.31 L 243.14 84.29 L 243.37 84.28 L 243.60 84.26 L 243.82 84.25 L 244.05 84.23 L 244.28 84.22 L 244.50 84.20 L 244.73 84.19 L 244.96 84.17 L 245.18 84.16 L 245.41 84.14 L 245.64 84.13 L 245.86 84.12 L 246.09 84.10 L 246.32 84.09 L 246.55 84.07 L 246.77 84.06 L 247.00 84.04 L 247.23 84.03 L 247.45 84.01 L 247.68 84.00 L 247.91 83.99 L 248.13 83.97 L 248.36 83.96 L 248.59 83.94 L 248.81 83.93 L 249.04 83.92 L 249.27 83.90 L 249.49 83.89 L 249.72 83.87 L 249.95 83.86 L 250.18 83.85 L 250.40 83.83 L 250.63 83.82 L 250.86 83.81 L 251.08 83.79 L 251.31 83.78 L 251.54 83.77 L 251.76 83.75 L 251.99 83.74 L 252.22 83.73 L 252.44 83.71 L 252.67 83.70 L 252.90 83.69 L 253.12 83.67 L 253.35 83.66 L 253.58 83.65 L 253.80 83.64 L 254.03 83.62 L 254.26 83.61 L 254.49 83.60 L 254.71 83.59 L 254.94 83.57 L 255.17 83.56 L 255.39 83.55 L 255.62 83.53 L 255.85 83.52 L 256.07 83.51 L 256.30 83.50 L 256.53 83.49 L 256.75 83.47 L 256.98 83.46 L 257.21 83.45 L 257.43 83.44 L 257.66 83.42 L 257.89 83.41 L 258.12 83.40 L 258.34 83.39 L 258.57 83.38 L 258.80 83.36 L 259.02 83.35 L 259.25 83.34 L 259.48 83.33 L 259.70 83.32 L 259.93 83.31 L 260.16 83.29 L 260.38 83.28 L 260.61 83.27 L 260.84 83.26 L 261.06 83.25 L 261.29 83.24 L 261.52 83.22 L 261.74 83.21 L 261.97 83.20 L 262.20 83.19 L 262.43 83.18 L 262.65 83.17 L 262.88 83.16 L 263.11 83.15 L 263.33 83.13 L 263.56 83.12 L 263.79 83.11 L 264.01 83.10 L 264.24 83.09 L 264.47 83.08 L 264.69 83.07 L 264.92 83.06 L 265.15 83.05 L 265.37 83.04 L 265.60 83.02 L 265.83 83.01 L 266.06 83.00 L 266.28 82.99 L 266.51 82.98 L 266.74 82.97 L 266.96 82.96 L 267.19 82.95 L 267.42 82.94 L 267.64 82.93 L 267.87 82.92 L 268.10 82.91 L 268.32 82.90 L 268.55 82.89 L 268.78 82.88 L 269.00 82.87 L 269.23 82.86 L 269.46 82.85 L 269.68 82.84 L 269.91 82.83 L 270.14 82.82 L 270.37 82.81 L 270.59 82.80 L 270.82 82.79 L 271.05 82.78 L 271.27 82.77 L 271.50 82.76 L 271.73 82.75 L 271.95 82.74 L 272.18 82.73 L 272.41 82.72 L 272.63 82.71 L 272.86 82.70 L 273.09 82.69 L 273.31 82.68 L 273.54 82.67 L 273.77 82.66 L 273.99 82.65 L 274.22 82.64 L 274.45 82.63 L 274.68 82.62 L 274.90 82.61 L 275.13 82.60 L 275.36 82.59 L 275.58 82.58 L 275.81 82.57 L 276.04 82.56 L 276.26 82.55 L 276.49 82.55 L 276.72 82.54 L 276.94 82.53 L 277.17 82.52 L 277.40 82.51 L 277.62 82.50 L 277.85 82.49 L 278.08 82.48 L 278.31 82.47 L 278.53 82.46 L 278.76 82.45 L 278.99 82.45 L 279.21 82.44 L 279.44 82.43 L 279.67 82.42 L 279.89 82.41 L 280.12 82.40 L 280.35 82.39 L 280.57 82.38 L 280.80 82.37 L 281.03 82.37 L 281.25 82.36 L 281.48 82.35 L 281.71 82.34 L 281.93 82.33 L 282.16 82.32 L 282.39 82.31 L 282.62 82.30 L 282.84 82.30 L 283.07 82.29 L 283.30 82.28 L 283.52 82.27 L 283.75 82.26 L 283.98 82.25 L 284.20 82.25 L 284.43 82.24 L 284.66 82.23 L 284.88 82.22 L 285.11 82.21 L 285.34 82.20 L 285.56 82.20 L 285.79 82.19 L 286.02 82.18 L 286.25 82.17 L 286.47 82.16 L 286.70 82.15 L 286.93 82.15 L 287.15 82.14 L 287.38 82.13 L 287.61 82.12 L 287.83 82.11 L 288.06 82.11 L 288.29 82.10 L 288.51 82.09 L 288.74 82.08 L 288.97 82.07 L 289.19 82.07 L 289.42 82.06 L 289.65 82.05 L 289.87 82.04 L 290.10 82.04 L 290.33 82.03 L 290.56 82.02 L 290.78 82.01 L 291.01 82.00 L 291.24 82.00 L 291.46 81.99 L 291.69 81.98 L 291.92 81.97 L 292.14 81.97 L 292.37 81.96 L 292.60 81.95 L 292.82 81.94 L 293.05 81.94 L 293.28 81.93 L 293.50 81.92 L 293.73 81.91 L 293.96 81.91 L 294.19 81.90 L 294.41 81.89 L 294.64 81.88 L 294.87 81.88 L 295.09 81.87 L 295.32 81.86 L 295.55 81.85 L 295.77 81.85 L 296.00 81.84" fill="none" stroke="#7E8692" stroke-width="2.3" stroke-linecap="round" stroke-linejoin="round"/>
</svg>
