<svg xmlns="http://www.w3.org/2000/svg" viewBox="0 0 320 180" width="320" height="180">
  <rect width="320" height="180" fill="#F4F5F7"/>
  <path d="M 18.00 66.00 L 18.32 66.00 L 18.63 66.00 L 18.95 66.00 L 19.26 66.00 L 19.58 66.00 L 19.90 66.00 L 20.21 66.00 L 20.53 66.00 L 20.84 66.00 L 21.16 66.00 L 21.47 66.00 L 21.79 66.00 L 22.11 66.00 L 22.42 66.00 L 22.74 66.00 L 23.05 66.00 L 23.37 66.00 L 23.69 66.00 L 24.00 66.00 L 24.32 66.00 L 24.63 66.00 L 24.95 66.00 L 25.27 66.00 L 25.58 66.00 L 25.90 66.00 L 26.21 66.00 L 26.53 66.00 L 26.85 66.00 L 27.16 66.00 L 27.48 66.00 L 27.79 66.00 L 28.11 66.00 L 28.42 66.00 L 28.74 66.00 L 29.06 66.00 L 29.37 66.00 L 29.69 66.00 L 30.00 66.00 L 30.32 66.00 L 30.64 66.00 L 30.95 66.00 L 31.27 66.00 L 31.58 66.00 L 31.90 66.00 L 32.22 66.00 L 32.53 66.00 L 32.85 66.00 L 33.16 66.00 L 33.48 66.00 L 33.80 66.00 L 34.11 66.00 L 34.43 66.00 L 34.74 66.00 L 35.06 66.00 L 35.37 66.00 L 35.69 66.00 L 36.01 66.00 L 36.32 66.00 L 36.64 66.00 L 36.95 66.00 L 37.27 66.00 L 37.59 66.00 L 37.90 66.00 L 38.22 66.00 L 38.53 66.00 L 38.85 66.00 L 39.17 66.00 L 39.48 66.00 L 39.80 66.00 L 40.11 66.00 L 40.43 66.00 L 40.75 66.00 L 41.06 66.00 L 41.38 66.00 L 41.69 66.00 L 42.01 66.00 L 42.32 66.00 L 42.64 66.00 L 42.96 66.00 L 43.27 66.00 L 43.59 66.00 L 43.90 66.00 L 44.22 66.00 L 44.54 66.00 L 44.85 66.00 L 45.17 66.00 L 45.48 66.00 L 45.80 66.00 L 46.12 66.00 L 46.43 66.00 L 46.75 66.00 L 47.06 66.00 L 47.38 66.00 L 47.70 66.00 L 48.01 66.00 L 48.33 66.00 L 48.64 66.00 L 48.96 66.00 L 49.27 66.00 L 49.59 66.00 L 49.91 66.00 L 50.22 66.00 L 50.54 66.00 L 50.85 66.00 L 51.17 66.00 L 51.49 66.00 L 51.80 66.00 L 52.12 66.00 L 52.43 66.00 L 52.75 66.00 L 53.07 66.00 L 53.38 66.00 L 53.70 66.00 L 54.01 66.00 L 54.33 66.00 L 54.65 66.00 L 54.96 66.00 L 55.28 66.00 L 55.59 66.00 L 55.91 66.00 L 56.22 66.00 L 56.54 66.00 L 56.86 66.00 L 57.17 66.00 L 57.49 66.00 L 57.80 66.00 L 58.12 66.00 L 58.44 66.00 L 58.75 66.00 L 59.07 66.00 L 59.38 66.00 L 59.70 66.00 L 60.02 66.00 L 60.33 66.00 L 60.65 66.00 L 60.96 66.00 L 61.28 66.00 L 61.60 66.00 L 61.91 66.00 L 62.23 66.00 L 62.54 66.00 L 62.86 66.00 L 63.17 66.00 L 63.49 66.00 L 63.81 66.00 L 64.12 66.00 L 64.44 66.00 L 64.75 66.00 L 65.07 66.00 L 65.39 66.00 L 65.70 66.00 L 66.02 66.00 L 66.33 66.00 L 66.65 66.00 L 66.97 66.00 L 67.28 66.00 L 67.60 66.00 L 67.91 66.00 L 68.23 66.00 L 68.55 66.00 L 68.86 66.00 L 69.18 66.00 L 69.49 66.00 L 69.81 66.00 L 70.12 66.00 L 70.44 66.00 L 70.76 66.00 L 71.07 66.00 L 71.39 66.00 L 71.70 66.00 L 72.02 66.00 L 72.34 66.00 L 72.65 66.00 L 72.97 66.00 L 73.28 66.00 L 73.60 66.00 L 73.92 66.00 L 74.23 66.00 L 74.55 66.00 L 74.86 66.00 L 75.18 66.00 L 75.49 66.00 L 75.81 66.00 L 76.13 66.00 L 76.44 66.00 L 76.76 66.00 L 77.07 66.00 L 77.39 66.00 L 77.71 66.00 L 78.02 66.00 L 78.34 66.00 L 78.65 66.00 L 78.97 66.00 L 79.29 66.00 L 79.60 66.00 L 79.92 66.00 L 80.23 66.00 L 80.55 66.00 L 80.87 66.00 L 81.18 66.00 L 81.50 66.00 L 81.81 66.00 L 82.13 66.00 L 82.44 66.00 L 82.76 66.00 L 83.08 66.00 L 83.39 66.00 L 83.71 66.00 L 84.02 66.00 L 84.34 66.00 L 84.66 66.00 L 84.97 66.00 L 85.29 66.00 L 85.60 66.00 L 85.92 66.00 L 86.24 66.00 L 86.55 66.00 L 86.87 66.00 L 87.18 66.00 L 87.50 66.00 L 87.82 66.00 L 88.13 66.00 L 88.45 66.00 L 88.76 66.00 L 89.08 66.00 L 89.39 66.00 L 89.71 66.00 L 90.03 66.00 L 90.34 66.00 L 90.66 66.00 L 90.97 66.00 L 91.29 66.00 L 91.61 66.00 L 91.92 66.00 L 92.24 66.00 L 92.55 66.00 L 92.87 66.00 L 93.19 66.00 L 93.50 66.00 L 93.82 66.00 L 94.13 66.00 L 94.45 66.00 L 94.77 66.00 L 95.08 66.00 L 95.40 66.00 L 95.71 66.00 L 96.03 66.00 L 96.34 66.00 L 96.66 66.00 L 96.98 66.00 L 97.29 66.00 L 97.61 66.00 L 97.92 66.00 L 98.24 66.00 L 98.56 66.00 L 98.87 66.00 L 99.19 66.00 L 99.50 66.00 L 99.82 66.00 L 100.14 66.00 L 100.45 66.00 L 100.77 66.00 L 101.08 66.00 L 101.40 66.00 L 101.72 66.00 L 102.03 66.00 L 102.35 66.00 L 102.66 66.00 L 102.98 66.00 L 103.29 66.00 L 103.61 66.00 L 103.93 66.00 L 104.24 66.00 L 104.56 66.00 L 104.87 66.00 L 105.19 66.00 L 105.51 66.00 L 105.82 66.00 L 106.14 66.00 L 106.45 66.00 L 106.77 66.00 L 107.09 66.00 L 107.40 66.00 L 107.72 66.00 L 108.03 66.00 L 108.35 66.00 L 108.67 66.00 L 108.98 66.00 L 109.30 66.00 L 109.61 66.00 L 109.93 66.00 L 110.24 66.00 L 110.56 66.00 L 110.88 66.00 L 111.19 66.00 L 111.51 66.00 L 111.82 66.00 L 112.14 66.00 L 112.46 66.00 L 112.77 66.00 L 113.09 66.00 L 113.40 66.00 L 113.72 66.00 L 114.04 66.00 L 114.35 66.00 L 114.67 66.00 L 114.98 66.00 L 115.30 66.00 L 115.62 66.00 L 115.93 66.00 L 116.25 66.00 L 116.56 66.00 L 116.88 66.00 L 117.19 66.00 L 117.51 66.00 L 117.83 66.00 L 118.14 66.00 L 118.46 66.00 L 118.77 66.00 L 119.09 66.00 L 119.41 66.00 L 119.72 66.00 L 120.04 66.00 L 120.35 66.00 L 120.67 66.00 L 120.99 66.00 L 121.30 66.00 L 121.62 66.00 L 121.93 66.00 L 122.25 66.00 L 122.57 66.00 L 122.88 66.00 L 123.20 66.00 L 123.51 66.00 L 123.83 66.00 L 124.14 66.00 L 124.46 66.00 L 124.78 66.00 L 125.09 66.00 L 125.41 66.00 L 125.72 66.00 L 126.04 66.00 L 126.36 66.00 L 126.67 66.00 L 126.99 66.00 L 127.30 66.00 L 127.62 66.00 L 127.94 66.00 L 128.25 66.00 L 128.57 66.00 L 128.88 66.00 L 129.20 66.00 L 129.52 66.00 L 129.83 66.00 L 130.15 66.00 L 130.46 66.00 L 130.78 66.00 L 131.09 66.00 L 131.41 66.00 L 131.73 66.00 L 132.04 66.00 L 132.36 66.00 L 132.67 66.00 L 132.99 66.00 L 133.31 66.00 L 133.62 66.00 L 133.94 66.00 L 134.25 66.00 L 134.57 66.00 L 134.89 66.00 L 135.20 66.00 L 135.52 66.00 L 135.83 66.00 L 136.15 66.00 L 136.46 66.00 L 136.78 66.00 L 137.10 66.00 L 137.41 66.00 L 137.73 66.00 L 138.04 66.00 L 138.36 66.00 L 138.68 66.00 L 138.99 66.00 L 139.31 66.00 L 139.62 66.00 L 139.94 66.00 L 140.26 66.00 L 140.57 66.00 L 140.89 66.00 L 141.20 66.00 L 141.52 66.00 L 141.84 66.00 L 142.15 66.00 L 142.47 66.00 L 142.78 66.00 L 143.10 66.00 L 143.41 66.00 L 143.73 66.00 L 144.05 66.00 L 144.36 66.00 L 144.68 66.00 L 144.99 66.00 L 145.31 66.00 L 145.63 66.00 L 145.94 66.00 L 146.26 66.00 L 146.57 66.00 L 146.89 66.00 L 147.21 66.00 L 147.52 66.00 L 147.84 66.00 L 148.15 66.00 L 148.47 66.00 L 148.79 66.00 L 149.10 66.00 L 149.42 66.00 L 149.73 66.00 L 150.05 66.00 L 150.36 66.00 L 150.68 66.00 L 151.00 66.00 L 151.31 66.00 L 151.63 66.00 L 151.94 66.00 L 152.26 66.00 L 152.58 66.00 L 152.89 66.00 L 153.21 66.00 L 153.52 66.00 L 153.84 66.00 L 154.16 66.00 L 154.47 66.00 L 154.79 66.00 L 155.10 66.00 L 155.42 66.00 L 155.74 66.00 L 156.05 66.00 L 156.37 66.00 L 156.68 66.00 L 157.00 66.00 L 157.31 66.00 L 157.63 66.00 L 157.95 66.00 L 158.26 66.00 L 158.58 66.00 L 158.89 66.00 L 159.21 66.00 L 159.53 66.00 L 159.84 66.00 L 160.16 66.00 L 160.47 66.00 L 160.79 66.00 L 161.11 66.00 L 161.42 66.00 L 161.74 66.00 L 162.05 66.00 L 162.37 66.00 L 162.69 66.00 L 163.00 66.00 L 163.32 66.00 L 163.63 66.00 L 163.95 66.00 L 164.26 66.00 L 164.58 66.00 L 164.90 66.00 L 165.21 66.00 L 165.53 66.00 L 165.84 66.00 L 166.16 66.00 L 166.48 66.00 L 166.79 66.00 L 167.11 66.00 L 167.42 66.00 L 167.74 66.00 L 168.06 66.00 L 168.37 66.00 L 168.69 66.00 L 169.00 66.00 L 169.32 66.00 L 169.64 66.00 L 169.95 66.00 L 170.27 66.00 L 170.58 66.00 L 170.90 66.00 L 171.21 66.00 L 171.53 66.00 L 171.85 66.00 L 172.16 66.00 L 172.48 66.00 L 172.79 66.00 L 173.11 66.00 L 173.43 66.00 L 173.74 66.00 L 174.06 66.00 L 174.37 66.00 L 174.69 66.00 L 175.01 66.00 L 175.32 66.00 L 175.64 66.00 L 175.95 66.00 L 176.27 66.00 L 176.59 66.00 L 176.90 66.00 L 177.22 66.00 L 177.53 66.00 L 177.85 66.00 L 178.16 66.00 L 178.48 66.00 L 178.80 66.00 L 179.11 66.00 L 179.43 66.00 L 179.74 66.00 L 180.06 66.00 L 180.38 66.00 L 180.69 66.00 L 181.01 66.00 L 181.32 66.00 L 181.64 66.00 L 181.96 66.00 L 182.27 66.00 L 182.59 66.00 L 182.90 66.00 L 183.22 66.00 L 183.54 66.00 L 183.85 66.00 L 184.17 66.00 L 184.48 66.00 L 184.80 66.00 L 185.11 66.00 L 185.43 66.00 L 185.75 66.00 L 186.06 66.00 L 186.38 66.00 L 186.69 66.00 L 187.01 66.00 L 187.33 66.00 L 187.64 66.00 L 187.96 66.00 L 188.27 66.00 L 188.59 66.00 L 188.91 66.00 L 189.22 66.00 L 189.54 66.00 L 189.85 66.00 L 190.17 66.00 L 190.48 66.00 L 190.80 66.00 L 191.12 66.00 L 191.43 66.00 L 191.75 66.00 L 192.06 66.00 L 192.38 66.00 L 192.70 66.00 L 193.01 66.00 L 193.33 66.00 L 193.64 66.00 L 193.96 66.00 L 194.28 66.00 L 194.59 66.00 L 194.91 66.00 L 195.22 66.00 L 195.54 66.00 L 195.86 66.00 L 196.17 66.00 L 196.49 66.00 L 196.80 66.00 L 197.12 66.00 L 197.43 66.00 L 197.75 66.00 L 198.07 66.00 L 198.38 66.00 L 198.70 66.00 L 199.01 66.00 L 199.33 66.00 L 199.65 66.00 L 199.96 66.00 L 200.28 66.00 L 200.59 66.00 L 200.91 66.00 L 201.23 66.00 L 201.54 66.00 L 201.86 66.00 L 202.17 66.00 L 202.49 66.00 L 202.81 66.00 L 203.12 66.00 L 203.44 66.00 L 203.75 66.00 L 204.07 66.00 L 204.38 66.00 L 204.70 66.00 L 205.02 66.00 L 205.33 66.00 L 205.65 66.00 L 205.96 66.00 L 206.28 66.00 L 206.60 66.00 L 206.91 66.00 L 207.23 66.00 L 207.54 66.00 L 207.86 66.00 L 208.18 66.00 L 208.49 66.00 L 208.81 66.00 L 209.12 66.00 L 209.44 66.00 L 209.76 66.00 L 210.07 66.00 L 210.39 66.00 L 210.70 66.00 L 211.02 66.00 L 211.33 66.00 L 211.65 66.00 L 211.97 66.00 L 212.28 66.00 L 212.60 66.00 L 212.91 66.00 L 213.23 66.00 L 213.55 66.00 L 213.86 66.00 L 214.18 66.00 L 214.49 66.00 L 214.81 66.00 L 215.13 66.00 L 215.44 66.00 L 215.76 66.00 L 216.07 66.00 L 216.39 66.00 L 216.71 66.00 L 217.02 66.00 L 217.34 66.00 L 217.65 66.00 L 217.97 66.00 L 218.28 66.00 L 218.60 66.00 L 218.92 66.00 L 219.23 66.00 L 219.55 66.00 L 219.86 66.00 L 220.18 66.00 L 220.50 66.00 L 220.81 66.00 L 221.13 66.00 L 221.44 66.00 L 221.76 66.00 L 222.08 66.00 L 222.39 66.00 L 222.71 66.00 L 223.02 66.00 L 223.34 66.00 L 223.66 66.00 L 223.97 66.00 L 224.29 66.00 L 224.60 66.00 L 224.92 66.00 L 225.23 66.00 L 225.55 66.00 L 225.87 66.00 L 226.18 66.00 L 226.50 66.00 L 226.81 66.00 L 227.13 66.00 L 227.45 66.00 L 227.76 66.00 L 228.08 66.00 L 228.39 66.00 L 228.71 66.00 L 229.03 66.00 L 229.34 66.00 L 229.66 66.00 L 229.97 66.00 L 230.29 66.00 L 230.61 66.00 L 230.92 66.00 L 231.24 66.00 L 231.55 66.00 L 231.87 66.00 L 232.18 66.00 L 232.50 66.00 L 232.82 66.00 L 233.13 66.00 L 233.45 66.00 L 233.76 66.00 L 234.08 66.00 L 234.40 66.00 L 234.71 66.00 L 235.03 66.00 L 235.34 66.00 L 235.66 66.00 L 235.98 66.00 L 236.29 66.00 L 236.61 66.00 L 236.92 66.00 L 237.24 66.00 L 237.56 66.00 L 237.87 66.00 L 238.19 66.00 L 238.50 66.00 L 238.82 66.00 L 239.13 66.00 L 239.45 66.00 L 239.77 66.00 L 240.08 66.00 L 240.40 66.00 L 240.71 66.00 L 241.03 66.00 L 241.35 66.00 L 241.66 66.00 L 241.98 66.00 L 242.29 66.00 L 242.61 66.00 L 242.93 66.00 L 243.24 66.00 L 243.56 66.00 L 243.87 66.00 L 244.19 66.00 L 244.51 66.00 L 244.82 66.00 L 245.14 66.00 L 245.45 66.00 L 245.77 66.00 L 246.08 66.00 L 246.40 66.00 L 246.72 66.00 L 247.03 66.00 L 247.35 66.00 L 247.66 66.00 L 247.98 66.00 L 248.30 66.00 L 248.61 66.00 L 248.93 66.00 L 249.24 66.00 L 249.56 66.00 L 249.88 66.00 L 250.19 66.00 L 250.51 66.00 L 250.82 66.00 L 251.14 66.00 L 251.45 66.00 L 251.77 66.00 L 252.09 66.00 L 252.40 66.00 L 252.72 66.00 L 253.03 66.00 L 253.35 66.00 L 253.67 66.00 L 253.98 66.00 L 254.30 66.00 L 254.61 66.00 L 254.93 66.00 L 255.25 66.00 L 255.56 66.00 L 255.88 66.00 L 256.19 66.00 L 256.51 66.00 L 256.83 66.00 L 257.14 66.00 L 257.46 66.00 L 257.77 66.00 L 258.09 66.00 L 258.40 66.00 L 258.72 66.00 L 259.04 66.00 L 259.35 66.00 L 259.67 66.00 L 259.98 66.00 L 260.30 66.00 L 260.62 66.00 L 260.93 66.00 L 261.25 66.00 L 261.56 66.00 L 261.88 66.00 L 262.20 66.00 L 262.51 66.00 L 262.83 66.00 L 263.14 66.00 L 263.46 66.00 L 263.78 66.00 L 264.09 66.00 L 264.41 66.00 L 264.72 66.00 L 265.04 66.00 L 265.35 66.00 L 265.67 66.00 L 265.99 66.00 L 266.30 66.00 L 266.62 66.00 L 266.93 66.00 L 267.25 66.00 L 267.57 66.00 L 267.88 66.00 L 268.20 66.00 L 268.51 66.00 L 268.83 66.00 L 269.15 66.00 L 269.46 66.00 L 269.78 66.00 L 270.09 66.00 L 270.41 66.00 L 270.73 66.00 L 271.04 66.00 L 271.36 66.00 L 271.67 66.00 L 271.99 66.00 L 272.30 66.00 L 272.62 66.00 L 272.94 66.00 L 273.25 66.00 L 273.57 66.00 L 273.88 66.00 L 274.20 66.00 L 274.52 66.00 L 274.83 66.00 L 275.15 66.00 L 275.46 66.00 L 275.78 66.00 L 276.10 66.00 L 276.41 66.00 L 276.73 66.00 L 277.04 66.00 L 277.36 66.00 L 277.68 66.00 L 277.99 66.00 L 278.31 66.00 L 278.62 66.00 L 278.94 66.00 L 279.25 66.00 L 279.57 66.00 L 279.89 66.00 L 280.20 66.00 L 280.52 66.00 L 280.83 66.00 L 281.15 66.00 L 281.47 66.00 L 281.78 66.00 L 282.10 66.00 L 282.41 66.00 L 282.73 66.00 L 283.05 66.00 L 283.36 66.00 L 283.68 66.00 L 283.99 66.00 L 284.31 66.00 L 284.63 66.00 L 284.94 66.00 L 285.26 66.00 L 285.57 66.00 L 285.89 66.00 L 286.20 66.00 L 286.52 66.00 L 286.84 66.00 L 287.15 66.00 L 287.47 66.00 L 287.78 66.00 L 288.10 66.00 L 288.42 66.00 L 288.73 66.00 L 289.05 66.00 L 289.36 66.00 L 289.68 66.00 L 290.00 66.00 L 290.31 66.00 L 290.63 66.00 L 290.94 66.00 L 291.26 66.00 L 291.58 66.00 L 291.89 66.00 L 292.21 66.00 L 292.52 66.00 L 292.84 66.00 L 293.15 66.00 L 293.47 66.00 L 293.79 66.00 L 294.10 66.00 L 294.42 66.00 L 294.73 66.00 L 295.05 66.00 L 295.37 66.00 L 295.68 66.00 L 296.00 66.00 L 296.31 66.00 L 296.63 66.00 L 296.95 66.00 L 297.26 66.00 L 297.58 66.00 L 297.89 66.00 L 298.21 66.00 L 298.53 66.00 L 298.84 66.00 L 299.16 66.00 L 299.47 66.00 L 299.79 66.00 L 300.10 66.00 L 300.42 66.00 L 300.74 66.00 L 301.05 66.00 L 301.37 66.00 L 301.68 66.00 L 302.00 66.00" fill="none" stroke="#7E8692" stroke-width="2.3" stroke-linecap="round" stroke-linejoin="round"/>
</svg>
