<svg xmlns="http://www.w3.org/2000/svg" viewBox="0 0 320 180" width="320" height="180">
  <rect width="320" height="180" fill="none"/>
  <path d="M 25.21 146.77 L 25.51 144.60 L 25.82 142.60 L 26.12 140.74 L 26.42 139.00 L 26.72 137.37 L 27.03 135.84 L 27.33 134.39 L 27.63 133.01 L 27.93 131.71 L 28.24 130.47 L 28.54 129.28 L 28.84 128.15 L 29.14 127.06 L 29.45 126.02 L 29.75 125.01 L 30.05 124.05 L 30.35 123.11 L 30.66 122.21 L 30.96 121.34 L 31.26 120.50 L 31.56 119.68 L 31.87 118.89 L 32.17 118.12 L 32.47 117.38 L 32.77 116.65 L 33.08 115.95 L 33.38 115.26 L 33.68 114.59 L 33.98 113.94 L 34.29 113.30 L 34.59 112.68 L 34.89 112.07 L 35.19 111.48 L 35.50 110.90 L 35.80 110.33 L 36.10 109.77 L 36.40 109.23 L 36.71 108.70 L 37.01 108.17 L 37.31 107.66 L 37.62 107.16 L 37.92 106.66 L 38.22 106.18 L 38.52 105.71 L 38.83 105.24 L 39.13 104.78 L 39.43 104.33 L 39.73 103.89 L 40.04 103.45 L 40.34 103.02 L 40.64 102.60 L 40.94 102.19 L 41.25 101.78 L 41.55 101.38 L 41.85 100.98 L 42.15 100.59 L 42.46 100.21 L 42.76 99.83 L 43.06 99.45 L 43.36 99.09 L 43.67 98.72 L 43.97 98.37 L 44.27 98.01 L 44.57 97.66 L 44.88 97.32 L 45.18 96.98 L 45.48 96.65 L 45.78 96.31 L 46.09 95.99 L 46.39 95.67 L 46.69 95.35 L 46.99 95.03 L 47.30 94.72 L 47.60 94.41 L 47.90 94.11 L 48.20 93.81 L 48.51 93.51 L 48.81 93.22 L 49.11 92.93 L 49.41 92.64 L 49.72 92.36 L 50.02 92.08 L 50.32 91.80 L 50.63 91.52 L 50.93 91.25 L 51.23 90.98 L 51.53 90.71 L 51.84 90.45 L 52.14 90.19 L 52.44 89.93 L 52.74 89.67 L 53.05 89.42 L 53.35 89.17 L 53.65 88.92 L 53.95 88.67 L 54.26 88.43 L 54.56 88.19 L 54.86 87.95 L 55.16 87.71 L 55.47 87.47 L 55.77 87.24 L 56.07 87.01 L 56.37 86.78 L 56.68 86.55 L 56.98 86.33 L 57.28 86.10 L 57.58 85.88 L 57.89 85.66 L 58.19 85.44 L 58.49 85.23 L 58.79 85.01 L 59.10 84.80 L 59.40 84.59 L 59.70 84.38 L 60.00 84.17 L 60.31 83.97 L 60.61 83.76 L 60.91 83.56 L 61.21 83.36 L 61.52 83.16 L 61.82 82.96 L 62.12 82.77 L 62.42 82.57 L 62.73 82.38 L 63.03 82.18 L 63.33 81.99 L 63.64 81.80 L 63.94 81.62 L 64.24 81.43 L 64.54 81.24 L 64.85 81.06 L 65.15 80.88 L 65.45 80.70 L 65.75 80.52 L 66.06 80.34 L 66.36 80.16 L 66.66 79.98 L 66.96 79.81 L 67.27 79.63 L 67.57 79.46 L 67.87 79.29 L 68.17 79.12 L 68.48 78.95 L 68.78 78.78 L 69.08 78.61 L 69.38 78.44 L 69.69 78.28 L 69.99 78.11 L 70.29 77.95 L 70.59 77.79 L 70.90 77.63 L 71.20 77.47 L 71.50 77.31 L 71.80 77.15 L 72.11 76.99 L 72.41 76.83 L 72.71 76.68 L 73.01 76.52 L 73.32 76.37 L 73.62 76.22 L 73.92 76.06 L 74.22 75.91 L 74.53 75.76 L 74.83 75.61 L 75.13 75.47 L 75.43 75.32 L 75.74 75.17 L 76.04 75.02 L 76.34 74.88 L 76.65 74.73 L 76.95 74.59 L 77.25 74.45 L 77.55 74.31 L 77.86 74.16 L 78.16 74.02 L 78.46 73.88 L 78.76 73.75 L 79.07 73.61 L 79.37 73.47 L 79.67 73.33 L 79.97 73.20 L 80.28 73.06 L 80.58 72.93 L 80.88 72.79 L 81.18 72.66 L 81.49 72.53 L 81.79 72.39 L 82.09 72.26 L 82.39 72.13 L 82.70 72.00 L 83.00 71.87 L 83.30 71.74 L 83.60 71.62 L 83.91 71.49 L 84.21 71.36 L 84.51 71.23 L 84.81 71.11 L 85.12 70.98 L 85.42 70.86 L 85.72 70.74 L 86.02 70.61 L 86.33 70.49 L 86.63 70.37 L 86.93 70.25 L 87.23 70.12 L 87.54 70.00 L 87.84 69.88 L 88.14 69.76 L 88.44 69.65 L 88.75 69.53 L 89.05 69.41 L 89.35 69.29 L 89.66 69.18 L 89.96 69.06 L 90.26 68.94 L 90.56 68.83 L 90.87 68.71 L 91.17 68.60 L 91.47 68.49 L 91.77 68.37 L 92.08 68.26 L 92.38 68.15 L 92.68 68.04 L 92.98 67.92 L 93.29 67.81 L 93.59 67.70 L 93.89 67.59 L 94.19 67.48 L 94.50 67.38 L 94.80 67.27 L 95.10 67.16 L 95.40 67.05 L 95.71 66.94 L 96.01 66.84 L 96.31 66.73 L 96.61 66.63 L 96.92 66.52 L 97.22 66.41 L 97.52 66.31 L 97.82 66.21 L 98.13 66.10 L 98.43 66.00 L 98.73 65.90 L 99.03 65.79 L 99.34 65.69 L 99.64 65.59 L 99.94 65.49 L 100.24 65.39 L 100.55 65.29 L 100.85 65.19 L 101.15 65.09 L 101.45 64.99 L 101.76 64.89 L 102.06 64.79 L 102.36 64.69 L 102.67 64.59 L 102.97 64.50 L 103.27 64.40 L 103.57 64.30 L 103.88 64.21 L 104.18 64.11 L 104.48 64.01 L 104.78 63.92 L 105.09 63.82 L 105.39 63.73 L 105.69 63.63 L 105.99 63.54 L 106.30 63.45 L 106.60 63.35 L 106.90 63.26 L 107.20 63.17 L 107.51 63.07 L 107.81 62.98 L 108.11 62.89 L 108.41 62.80 L 108.72 62.71 L 109.02 62.62 L 109.32 62.53 L 109.62 62.44 L 109.93 62.35 L 110.23 62.26 L 110.53 62.17 L 110.83 62.08 L 111.14 61.99 L 111.44 61.90 L 111.74 61.81 L 112.04 61.73 L 112.35 61.64 L 112.65 61.55 L 112.95 61.46 L 113.25 61.38 L 113.56 61.29 L 113.86 61.21 L 114.16 61.12 L 114.46 61.03 L 114.77 60.95 L 115.07 60.86 L 115.37 60.78 L 115.68 60.70 L 115.98 60.61 L 116.28 60.53 L 116.58 60.44 L 116.89 60.36 L 117.19 60.28 L 117.49 60.19 L 117.79 60.11 L 118.10 60.03 L 118.40 59.95 L 118.70 59.87 L 119.00 59.79 L 119.31 59.70 L 119.61 59.62 L 119.91 59.54 L 120.21 59.46 L 120.52 59.38 L 120.82 59.30 L 121.12 59.22 L 121.42 59.14 L 121.73 59.06 L 122.03 58.98 L 122.33 58.91 L 122.63 58.83 L 122.94 58.75 L 123.24 58.67 L 123.54 58.59 L 123.84 58.52 L 124.15 58.44 L 124.45 58.36 L 124.75 58.28 L 125.05 58.21 L 125.36 58.13 L 125.66 58.05 L 125.96 57.98 L 126.26 57.90 L 126.57 57.83 L 126.87 57.75 L 127.17 57.68 L 127.47 57.60 L 127.78 57.53 L 128.08 57.45 L 128.38 57.38 L 128.69 57.30 L 128.99 57.23 L 129.29 57.16 L 129.59 57.08 L 129.90 57.01 L 130.20 56.94 L 130.50 56.86 L 130.80 56.79 L 131.11 56.72 L 131.41 56.65 L 131.71 56.57 L 132.01 56.50 L 132.32 56.43 L 132.62 56.36 L 132.92 56.29 L 133.22 56.22 L 133.53 56.15 L 133.83 56.08 L 134.13 56.01 L 134.43 55.93 L 134.74 55.86 L 135.04 55.79 L 135.34 55.73 L 135.64 55.66 L 135.95 55.59 L 136.25 55.52 L 136.55 55.45 L 136.85 55.38 L 137.16 55.31 L 137.46 55.24 L 137.76 55.17 L 138.06 55.11 L 138.37 55.04 L 138.67 54.97 L 138.97 54.90 L 139.27 54.84 L 139.58 54.77 L 139.88 54.70 L 140.18 54.63 L 140.48 54.57 L 140.79 54.50 L 141.09 54.43 L 141.39 54.37 L 141.70 54.30 L 142.00 54.24 L 142.30 54.17 L 142.60 54.10 L 142.91 54.04 L 143.21 53.97 L 143.51 53.91 L 143.81 53.84 L 144.12 53.78 L 144.42 53.72 L 144.72 53.65 L 145.02 53.59 L 145.33 53.52 L 145.63 53.46 L 145.93 53.39 L 146.23 53.33 L 146.54 53.27 L 146.84 53.20 L 147.14 53.14 L 147.44 53.08 L 147.75 53.02 L 148.05 52.95 L 148.35 52.89 L 148.65 52.83 L 148.96 52.77 L 149.26 52.70 L 149.56 52.64 L 149.86 52.58 L 150.17 52.52 L 150.47 52.46 L 150.77 52.39 L 151.07 52.33 L 151.38 52.27 L 151.68 52.21 L 151.98 52.15 L 152.28 52.09 L 152.59 52.03 L 152.89 51.97 L 153.19 51.91 L 153.49 51.85 L 153.80 51.79 L 154.10 51.73 L 154.40 51.67 L 154.71 51.61 L 155.01 51.55 L 155.31 51.49 L 155.61 51.43 L 155.92 51.37 L 156.22 51.31 L 156.52 51.25 L 156.82 51.20 L 157.13 51.14 L 157.43 51.08 L 157.73 51.02 L 158.03 50.96 L 158.34 50.91 L 158.64 50.85 L 158.94 50.79 L 159.24 50.73 L 159.55 50.67 L 159.85 50.62 L 160.15 50.56 L 160.45 50.50 L 160.76 50.45 L 161.06 50.39 L 161.36 50.33 L 161.66 50.28 L 161.97 50.22 L 162.27 50.16 L 162.57 50.11 L 162.87 50.05 L 163.18 49.99 L 163.48 49.94 L 163.78 49.88 L 164.08 49.83 L 164.39 49.77 L 164.69 49.72 L 164.99 49.66 L 165.29 49.61 L 165.60 49.55 L 165.90 49.50 L 166.20 49.44 L 166.51 49.39 L 166.81 49.33 L 167.11 49.28 L 167.41 49.22 L 167.72 49.17 L 168.02 49.11 L 168.32 49.06 L 168.62 49.01 L 168.93 48.95 L 169.23 48.90 L 169.53 48.85 L 169.83 48.79 L 170.14 48.74 L 170.44 48.69 L 170.74 48.63 L 171.04 48.58 L 171.35 48.53 L 171.65 48.47 L 171.95 48.42 L 172.25 48.37 L 172.56 48.32 L 172.86 48.26 L 173.16 48.21 L 173.46 48.16 L 173.77 48.11 L 174.07 48.05 L 174.37 48.00 L 174.67 47.95 L 174.98 47.90 L 175.28 47.85 L 175.58 47.80 L 175.88 47.74 L 176.19 47.69 L 176.49 47.64 L 176.79 47.59 L 177.09 47.54 L 177.40 47.49 L 177.70 47.44 L 178.00 47.39 L 178.30 47.34 L 178.61 47.29 L 178.91 47.24 L 179.21 47.19 L 179.52 47.14 L 179.82 47.09 L 180.12 47.04 L 180.42 46.99 L 180.73 46.94 L 181.03 46.89 L 181.33 46.84 L 181.63 46.79 L 181.94 46.74 L 182.24 46.69 L 182.54 46.64 L 182.84 46.59 L 183.15 46.54 L 183.45 46.49 L 183.75 46.44 L 184.05 46.39 L 184.36 46.35 L 184.66 46.30 L 184.96 46.25 L 185.26 46.20 L 185.57 46.15 L 185.87 46.10 L 186.17 46.06 L 186.47 46.01 L 186.78 45.96 L 187.08 45.91 L 187.38 45.86 L 187.68 45.82 L 187.99 45.77 L 188.29 45.72 L 188.59 45.67 L 188.89 45.63 L 189.20 45.58 L 189.50 45.53 L 189.80 45.48 L 190.10 45.44 L 190.41 45.39 L 190.71 45.34 L 191.01 45.30 L 191.31 45.25 L 191.62 45.20 L 191.92 45.16 L 192.22 45.11 L 192.53 45.06 L 192.83 45.02 L 193.13 44.97 L 193.43 44.93 L 193.74 44.88 L 194.04 44.83 L 194.34 44.79 L 194.64 44.74 L 194.95 44.70 L 195.25 44.65 L 195.55 44.60 L 195.85 44.56 L 196.16 44.51 L 196.46 44.47 L 196.76 44.42 L 197.06 44.38 L 197.37 44.33 L 197.67 44.29 L 197.97 44.24 L 198.27 44.20 L 198.58 44.15 L 198.88 44.11 L 199.18 44.06 L 199.48 44.02 L 199.79 43.98 L 200.09 43.93 L 200.39 43.89 L 200.69 43.84 L 201.00 43.80 L 201.30 43.75 L 201.60 43.71 L 201.90 43.67 L 202.21 43.62 L 202.51 43.58 L 202.81 43.53 L 203.11 43.49 L 203.42 43.45 L 203.72 43.40 L 204.02 43.36 L 204.32 43.32 L 204.63 43.27 L 204.93 43.23 L 205.23 43.19 L 205.54 43.14 L 205.84 43.10 L 206.14 43.06 L 206.44 43.02 L 206.75 42.97 L 207.05 42.93 L 207.35 42.89 L 207.65 42.84 L 207.96 42.80 L 208.26 42.76 L 208.56 42.72 L 208.86 42.67 L 209.17 42.63 L 209.47 42.59 L 209.77 42.55 L 210.07 42.51 L 210.38 42.46 L 210.68 42.42 L 210.98 42.38 L 211.28 42.34 L 211.59 42.30 L 211.89 42.26 L 212.19 42.21 L 212.49 42.17 L 212.80 42.13 L 213.10 42.09 L 213.40 42.05 L 213.70 42.01 L 214.01 41.97 L 214.31 41.92 L 214.61 41.88 L 214.91 41.84 L 215.22 41.80 L 215.52 41.76 L 215.82 41.72 L 216.12 41.68 L 216.43 41.64 L 216.73 41.60 L 217.03 41.56 L 217.33 41.52 L 217.64 41.48 L 217.94 41.44 L 218.24 41.40 L 218.55 41.36 L 218.85 41.32 L 219.15 41.28 L 219.45 41.24 L 219.76 41.20 L 220.06 41.16 L 220.36 41.12 L 220.66 41.08 L 220.97 41.04 L 221.27 41.00 L 221.57 40.96 L 221.87 40.92 L 222.18 40.88 L 222.48 40.84 L 222.78 40.80 L 223.08 40.76 L 223.39 40.72 L 223.69 40.68 L 223.99 40.64 L 224.29 40.60 L 224.60 40.56 L 224.90 40.52 L 225.20 40.49 L 225.50 40.45 L 225.81 40.41 L 226.11 40.37 L 226.41 40.33 L 226.71 40.29 L 227.02 40.25 L 227.32 40.21 L 227.62 40.18 L 227.92 40.14 L 228.23 40.10 L 228.53 40.06 L 228.83 40.02 L 229.13 39.99 L 229.44 39.95 L 229.74 39.91 L 230.04 39.87 L 230.34 39.83 L 230.65 39.79 L 230.95 39.76 L 231.25 39.72 L 231.56 39.68 L 231.86 39.64 L 232.16 39.61 L 232.46 39.57 L 232.77 39.53 L 233.07 39.49 L 233.37 39.46 L 233.67 39.42 L 233.98 39.38 L 234.28 39.34 L 234.58 39.31 L 234.88 39.27 L 235.19 39.23 L 235.49 39.20 L 235.79 39.16 L 236.09 39.12 L 236.40 39.09 L 236.70 39.05 L 237.00 39.01 L 237.30 38.97 L 237.61 38.94 L 237.91 38.90 L 238.21 38.86 L 238.51 38.83 L 238.82 38.79 L 239.12 38.76 L 239.42 38.72 L 239.72 38.68 L 240.03 38.65 L 240.33 38.61 L 240.63 38.57 L 240.93 38.54 L 241.24 38.50 L 241.54 38.47 L 241.84 38.43 L 242.14 38.39 L 242.45 38.36 L 242.75 38.32 L 243.05 38.29 L 243.35 38.25 L 243.66 38.22 L 243.96 38.18 L 244.26 38.14 L 244.57 38.11 L 244.87 38.07 L 245.17 38.04 L 245.47 38.00 L 245.78 37.97 L 246.08 37.93 L 246.38 37.90 L 246.68 37.86 L 246.99 37.83 L 247.29 37.79 L 247.59 37.76 L 247.89 37.72 L 248.20 37.69 L 248.50 37.65 L 248.80 37.62 L 249.10 37.58 L 249.41 37.55 L 249.71 37.51 L 250.01 37.48 L 250.31 37.44 L 250.62 37.41 L 250.92 37.37 L 251.22 37.34 L 251.52 37.30 L 251.83 37.27 L 252.13 37.24 L 252.43 37.20 L 252.73 37.17 L 253.04 37.13 L 253.34 37.10 L 253.64 37.06 L 253.94 37.03 L 254.25 37.00 L 254.55 36.96 L 254.85 36.93 L 255.15 36.89 L 255.46 36.86 L 255.76 36.83 L 256.06 36.79 L 256.36 36.76 L 256.67 36.73 L 256.97 36.69 L 257.27 36.66 L 257.58 36.62 L 257.88 36.59 L 258.18 36.56 L 258.48 36.52 L 258.79 36.49 L 259.09 36.46 L 259.39 36.42 L 259.69 36.39 L 260.00 36.36 L 260.30 36.32 L 260.60 36.29 L 260.90 36.26 L 261.21 36.22 L 261.51 36.19 L 261.81 36.16 L 262.11 36.13 L 262.42 36.09 L 262.72 36.06 L 263.02 36.03 L 263.32 35.99 L 263.63 35.96 L 263.93 35.93 L 264.23 35.90 L 264.53 35.86 L 264.84 35.83 L 265.14 35.80 L 265.44 35.77 L 265.74 35.73 L 266.05 35.70 L 266.35 35.67 L 266.65 35.64 L 266.95 35.60 L 267.26 35.57 L 267.56 35.54 L 267.86 35.51 L 268.16 35.48 L 268.47 35.44 L 268.77 35.41 L 269.07 35.38 L 269.37 35.35 L 269.68 35.32 L 269.98 35.28 L 270.28 35.25 L 270.59 35.22 L 270.89 35.19 L 271.19 35.16 L 271.49 35.12 L 271.80 35.09 L 272.10 35.06 L 272.40 35.03 L 272.70 35.00 L 273.01 34.97 L 273.31 34.94 L 273.61 34.90 L 273.91 34.87 L 274.22 34.84 L 274.52 34.81 L 274.82 34.78 L 275.12 34.75 L 275.43 34.72 L 275.73 34.69 L 276.03 34.65 L 276.33 34.62 L 276.64 34.59 L 276.94 34.56 L 277.24 34.53 L 277.54 34.50 L 277.85 34.47 L 278.15 34.44 L 278.45 34.41 L 278.75 34.38 L 279.06 34.34 L 279.36 34.31 L 279.66 34.28 L 279.96 34.25 L 280.27 34.22 L 280.57 34.19 L 280.87 34.16 L 281.17 34.13 L 281.48 34.10 L 281.78 34.07 L 282.08 34.04 L 282.38 34.01 L 282.69 33.98 L 282.99 33.95 L 283.29 33.92 L 283.60 33.89 L 283.90 33.86 L 284.20 33.83 L 284.50 33.80 L 284.81 33.77 L 285.11 33.74 L 285.41 33.71 L 285.71 33.68 L 286.02 33.65 L 286.32 33.62 L 286.62 33.59 L 286.92 33.56 L 287.23 33.53 L 287.53 33.50 L 287.83 33.47 L 288.13 33.44 L 288.44 33.41 L 288.74 33.38 L 289.04 33.35 L 289.34 33.32 L 289.65 33.29 L 289.95 33.26 L 290.25 33.23 L 290.55 33.20 L 290.86 33.17 L 291.16 33.14 L 291.46 33.11 L 291.76 33.08 L 292.07 33.05 L 292.37 33.03 L 292.67 33.00 L 292.97 32.97 L 293.28 32.94 L 293.58 32.91 L 293.88 32.88 L 294.18 32.85 L 294.49 32.82 L 294.79 32.79 L 295.09 32.76 L 295.39 32.73 L 295.70 32.71 L 296.00 32.68" fill="none" stroke="#5F6B7A" stroke-width="2.5" stroke-linecap="round" stroke-linejoin="round"/>
</svg>
