<svg xmlns="http://www.w3.org/2000/svg" viewBox="0 0 320 180" width="320" height="180">
  <rect width="320" height="180" fill="#F4F5F7"/>
  <path d="M 24.00 150.57 L 24.15 149.31 L 24.30 147.95 L 24.45 146.50 L 24.60 144.96 L 24.76 143.35 L 24.91 141.67 L 25.06 139.93 L 25.21 138.13 L 25.36 136.30 L 25.51 134.42 L 25.66 132.51 L 25.81 130.58 L 25.97 128.62 L 26.12 126.65 L 26.27 124.67 L 26.42 122.67 L 26.57 120.68 L 26.72 118.68 L 26.87 116.68 L 27.02 114.69 L 27.18 112.71 L 27.33 110.73 L 27.48 108.77 L 27.63 106.82 L 27.78 104.89 L 27.93 102.98 L 28.08 101.08 L 28.23 99.21 L 28.38 97.36 L 28.54 95.53 L 28.69 93.72 L 28.84 91.93 L 28.99 90.18 L 29.14 88.44 L 29.29 86.73 L 29.44 85.05 L 29.59 83.40 L 29.75 81.77 L 29.90 80.17 L 30.05 78.59 L 30.20 77.04 L 30.35 75.52 L 30.50 74.03 L 30.65 72.57 L 30.80 71.13 L 30.95 69.72 L 31.11 68.34 L 31.26 66.98 L 31.41 65.65 L 31.56 64.35 L 31.71 63.08 L 31.86 61.83 L 32.01 60.60 L 32.16 59.41 L 32.32 58.24 L 32.47 57.09 L 32.62 55.97 L 32.77 54.87 L 32.92 53.80 L 33.07 52.75 L 33.22 51.73 L 33.37 50.73 L 33.53 49.76 L 33.68 48.80 L 33.83 47.87 L 33.98 46.97 L 34.13 46.08 L 34.28 45.22 L 34.43 44.37 L 34.58 43.55 L 34.73 42.75 L 34.89 41.97 L 35.04 41.21 L 35.19 40.47 L 35.34 39.75 L 35.49 39.05 L 35.64 38.37 L 35.79 37.70 L 35.94 37.06 L 36.10 36.43 L 36.25 35.82 L 36.40 35.23 L 36.55 34.65 L 36.70 34.09 L 36.85 33.55 L 37.00 33.02 L 37.15 32.51 L 37.31 32.02 L 37.46 31.54 L 37.61 31.08 L 37.76 30.63 L 37.91 30.19 L 38.06 29.77 L 38.21 29.37 L 38.36 28.97 L 38.51 28.59 L 38.67 28.23 L 38.82 27.88 L 38.97 27.54 L 39.12 27.21 L 39.27 26.89 L 39.42 26.59 L 39.57 26.30 L 39.72 26.02 L 39.88 25.75 L 40.03 25.50 L 40.18 25.25 L 40.33 25.02 L 40.48 24.79 L 40.63 24.58 L 40.78 24.38 L 40.93 24.18 L 41.09 24.00 L 41.24 23.83 L 41.39 23.66 L 41.54 23.51 L 41.69 23.36 L 41.84 23.23 L 41.99 23.10 L 42.14 22.98 L 42.29 22.87 L 42.45 22.76 L 42.60 22.67 L 42.75 22.58 L 42.90 22.50 L 43.05 22.43 L 43.20 22.37 L 43.35 22.31 L 43.50 22.26 L 43.66 22.22 L 43.81 22.18 L 43.96 22.15 L 44.11 22.13 L 44.26 22.12 L 44.41 22.11 L 44.56 22.10 L 44.71 22.11 L 44.86 22.12 L 45.02 22.13 L 45.17 22.15 L 45.32 22.18 L 45.47 22.21 L 45.62 22.25 L 45.77 22.29 L 45.92 22.34 L 46.07 22.39 L 46.23 22.45 L 46.38 22.51 L 46.53 22.58 L 46.68 22.65 L 46.83 22.73 L 46.98 22.81 L 47.13 22.90 L 47.28 22.99 L 47.44 23.08 L 47.59 23.18 L 47.74 23.28 L 47.89 23.39 L 48.04 23.50 L 48.19 23.61 L 48.34 23.73 L 48.49 23.85 L 48.64 23.98 L 48.80 24.11 L 48.95 24.24 L 49.10 24.37 L 49.25 24.51 L 49.40 24.65 L 49.55 24.80 L 49.70 24.95 L 49.85 25.10 L 50.01 25.25 L 50.16 25.41 L 50.31 25.57 L 50.46 25.73 L 50.61 25.89 L 50.76 26.06 L 50.91 26.23 L 51.06 26.40 L 51.22 26.58 L 51.37 26.75 L 51.52 26.93 L 51.67 27.11 L 51.82 27.30 L 51.97 27.48 L 52.12 27.67 L 52.27 27.86 L 52.42 28.05 L 52.58 28.25 L 52.73 28.44 L 52.88 28.64 L 53.03 28.84 L 53.18 29.04 L 53.33 29.25 L 53.48 29.45 L 53.63 29.66 L 53.79 29.87 L 53.94 30.08 L 54.09 30.29 L 54.24 30.50 L 54.39 30.71 L 54.54 30.93 L 54.69 31.14 L 54.84 31.36 L 54.99 31.58 L 55.15 31.80 L 55.30 32.02 L 55.45 32.25 L 55.60 32.47 L 55.75 32.70 L 55.90 32.92 L 56.05 33.15 L 56.20 33.38 L 56.36 33.61 L 56.51 33.84 L 56.66 34.07 L 56.81 34.30 L 56.96 34.54 L 57.11 34.77 L 57.26 35.00 L 57.41 35.24 L 57.57 35.48 L 57.72 35.71 L 57.87 35.95 L 58.02 36.19 L 58.17 36.43 L 58.32 36.67 L 58.47 36.91 L 58.62 37.15 L 58.77 37.39 L 58.93 37.63 L 59.08 37.87 L 59.23 38.12 L 59.38 38.36 L 59.53 38.60 L 59.68 38.85 L 59.83 39.09 L 59.98 39.34 L 60.14 39.58 L 60.29 39.83 L 60.44 40.08 L 60.59 40.32 L 60.74 40.57 L 60.89 40.82 L 61.04 41.06 L 61.19 41.31 L 61.35 41.56 L 61.50 41.81 L 61.65 42.05 L 61.80 42.30 L 61.95 42.55 L 62.10 42.80 L 62.25 43.05 L 62.40 43.30 L 62.55 43.55 L 62.71 43.80 L 62.86 44.05 L 63.01 44.30 L 63.16 44.55 L 63.31 44.79 L 63.46 45.04 L 63.61 45.29 L 63.76 45.54 L 63.92 45.79 L 64.07 46.04 L 64.22 46.29 L 64.37 46.54 L 64.52 46.79 L 64.67 47.04 L 64.82 47.29 L 64.97 47.54 L 65.13 47.79 L 65.28 48.04 L 65.43 48.29 L 65.58 48.53 L 65.73 48.78 L 65.88 49.03 L 66.03 49.28 L 66.18 49.53 L 66.33 49.78 L 66.49 50.02 L 66.64 50.27 L 66.79 50.52 L 66.94 50.77 L 67.09 51.01 L 67.24 51.26 L 67.39 51.51 L 67.54 51.75 L 67.70 52.00 L 67.85 52.25 L 68.00 52.49 L 68.15 52.74 L 68.30 52.98 L 68.45 53.23 L 68.60 53.47 L 68.75 53.72 L 68.90 53.96 L 69.06 54.20 L 69.21 54.45 L 69.36 54.69 L 69.51 54.93 L 69.66 55.18 L 69.81 55.42 L 69.96 55.66 L 70.11 55.90 L 70.27 56.14 L 70.42 56.38 L 70.57 56.62 L 70.72 56.86 L 70.87 57.10 L 71.02 57.34 L 71.17 57.58 L 71.32 57.82 L 71.48 58.06 L 71.63 58.30 L 71.78 58.53 L 71.93 58.77 L 72.08 59.01 L 72.23 59.24 L 72.38 59.48 L 72.53 59.72 L 72.68 59.95 L 72.84 60.18 L 72.99 60.42 L 73.14 60.65 L 73.29 60.89 L 73.44 61.12 L 73.59 61.35 L 73.74 61.58 L 73.89 61.82 L 74.05 62.05 L 74.20 62.28 L 74.35 62.51 L 74.50 62.74 L 74.65 62.97 L 74.80 63.20 L 74.95 63.43 L 75.10 63.65 L 75.26 63.88 L 75.41 64.11 L 75.56 64.34 L 75.71 64.56 L 75.86 64.79 L 76.01 65.01 L 76.16 65.24 L 76.31 65.46 L 76.46 65.69 L 76.62 65.91 L 76.77 66.13 L 76.92 66.36 L 77.07 66.58 L 77.22 66.80 L 77.37 67.02 L 77.52 67.24 L 77.67 67.46 L 77.83 67.68 L 77.98 67.90 L 78.13 68.12 L 78.28 68.34 L 78.43 68.55 L 78.58 68.77 L 78.73 68.99 L 78.88 69.20 L 79.04 69.42 L 79.19 69.64 L 79.34 69.85 L 79.49 70.06 L 79.64 70.28 L 79.79 70.49 L 79.94 70.70 L 80.09 70.92 L 80.24 71.13 L 80.40 71.34 L 80.55 71.55 L 80.70 71.76 L 80.85 71.97 L 81.00 72.18 L 81.15 72.39 L 81.30 72.60 L 81.45 72.81 L 81.61 73.01 L 81.76 73.22 L 81.91 73.43 L 82.06 73.63 L 82.21 73.84 L 82.36 74.04 L 82.51 74.25 L 82.66 74.45 L 82.81 74.65 L 82.97 74.86 L 83.12 75.06 L 83.27 75.26 L 83.42 75.46 L 83.57 75.66 L 83.72 75.86 L 83.87 76.06 L 84.02 76.26 L 84.18 76.46 L 84.33 76.66 L 84.48 76.86 L 84.63 77.05 L 84.78 77.25 L 84.93 77.45 L 85.08 77.64 L 85.23 77.84 L 85.39 78.03 L 85.54 78.23 L 85.69 78.42 L 85.84 78.61 L 85.99 78.81 L 86.14 79.00 L 86.29 79.19 L 86.44 79.38 L 86.59 79.57 L 86.75 79.76 L 86.90 79.95 L 87.05 80.14 L 87.20 80.33 L 87.35 80.52 L 87.50 80.71 L 87.65 80.89 L 87.80 81.08 L 87.96 81.27 L 88.11 81.45 L 88.26 81.64 L 88.41 81.82 L 88.56 82.01 L 88.71 82.19 L 88.86 82.37 L 89.01 82.56 L 89.17 82.74 L 89.32 82.92 L 89.47 83.10 L 89.62 83.28 L 89.77 83.46 L 89.92 83.64 L 90.07 83.82 L 90.22 84.00 L 90.37 84.18 L 90.53 84.36 L 90.68 84.54 L 90.83 84.71 L 90.98 84.89 L 91.13 85.07 L 91.28 85.24 L 91.43 85.42 L 91.58 85.59 L 91.74 85.77 L 91.89 85.94 L 92.04 86.11 L 92.19 86.29 L 92.34 86.46 L 92.49 86.63 L 92.64 86.80 L 92.79 86.97 L 92.94 87.14 L 93.10 87.31 L 93.25 87.48 L 93.40 87.65 L 93.55 87.82 L 93.70 87.99 L 93.85 88.16 L 94.00 88.32 L 94.15 88.49 L 94.31 88.66 L 94.46 88.82 L 94.61 88.99 L 94.76 89.15 L 94.91 89.32 L 95.06 89.48 L 95.21 89.65 L 95.36 89.81 L 95.52 89.97 L 95.67 90.13 L 95.82 90.30 L 95.97 90.46 L 96.12 90.62 L 96.27 90.78 L 96.42 90.94 L 96.57 91.10 L 96.72 91.26 L 96.88 91.42 L 97.03 91.57 L 97.18 91.73 L 97.33 91.89 L 97.48 92.05 L 97.63 92.20 L 97.78 92.36 L 97.93 92.51 L 98.09 92.67 L 98.24 92.82 L 98.39 92.98 L 98.54 93.13 L 98.69 93.28 L 98.84 93.44 L 98.99 93.59 L 99.14 93.74 L 99.30 93.89 L 99.45 94.05 L 99.60 94.20 L 99.75 94.35 L 99.90 94.50 L 100.05 94.65 L 100.20 94.80 L 100.35 94.94 L 100.50 95.09 L 100.66 95.24 L 100.81 95.39 L 100.96 95.54 L 101.11 95.68 L 101.26 95.83 L 101.41 95.97 L 101.56 96.12 L 101.71 96.26 L 101.87 96.41 L 102.02 96.55 L 102.17 96.70 L 102.32 96.84 L 102.47 96.98 L 102.62 97.13 L 102.77 97.27 L 102.92 97.41 L 103.08 97.55 L 103.23 97.69 L 103.38 97.83 L 103.53 97.97 L 103.68 98.11 L 103.83 98.25 L 103.98 98.39 L 104.13 98.53 L 104.28 98.67 L 104.44 98.81 L 104.59 98.94 L 104.74 99.08 L 104.89 99.22 L 105.04 99.35 L 105.19 99.49 L 105.34 99.63 L 105.49 99.76 L 105.65 99.90 L 105.80 100.03 L 105.95 100.17 L 106.10 100.30 L 106.25 100.43 L 106.40 100.56 L 106.55 100.70 L 106.70 100.83 L 106.85 100.96 L 107.01 101.09 L 107.16 101.22 L 107.31 101.35 L 107.46 101.49 L 107.61 101.62 L 107.76 101.74 L 107.91 101.87 L 108.06 102.00 L 108.22 102.13 L 108.37 102.26 L 108.52 102.39 L 108.67 102.51 L 108.82 102.64 L 108.97 102.77 L 109.12 102.89 L 109.27 103.02 L 109.43 103.15 L 109.58 103.27 L 109.73 103.40 L 109.88 103.52 L 110.03 103.65 L 110.18 103.77 L 110.33 103.89 L 110.48 104.02 L 110.63 104.14 L 110.79 104.26 L 110.94 104.38 L 111.09 104.51 L 111.24 104.63 L 111.39 104.75 L 111.54 104.87 L 111.69 104.99 L 111.84 105.11 L 112.00 105.23 L 112.15 105.35 L 112.30 105.47 L 112.45 105.59 L 112.60 105.70 L 112.75 105.82 L 112.90 105.94 L 113.05 106.06 L 113.21 106.18 L 113.36 106.29 L 113.51 106.41 L 113.66 106.52 L 113.81 106.64 L 113.96 106.76 L 114.11 106.87 L 114.26 106.99 L 114.41 107.10 L 114.57 107.21 L 114.72 107.33 L 114.87 107.44 L 115.02 107.56 L 115.17 107.67 L 115.32 107.78 L 115.47 107.89 L 115.62 108.01 L 115.78 108.12 L 115.93 108.23 L 116.08 108.34 L 116.23 108.45 L 116.38 108.56 L 116.53 108.67 L 116.68 108.78 L 116.83 108.89 L 116.98 109.00 L 117.14 109.11 L 117.29 109.22 L 117.44 109.32 L 117.59 109.43 L 117.74 109.54 L 117.89 109.65 L 118.04 109.76 L 118.19 109.86 L 118.35 109.97 L 118.50 110.07 L 118.65 110.18 L 118.80 110.29 L 118.95 110.39 L 119.10 110.50 L 119.25 110.60 L 119.40 110.71 L 119.56 110.81 L 119.71 110.91 L 119.86 111.02 L 120.01 111.12 L 120.16 111.22 L 120.31 111.33 L 120.46 111.43 L 120.61 111.53 L 120.76 111.63 L 120.92 111.73 L 121.07 111.84 L 121.22 111.94 L 121.37 112.04 L 121.52 112.14 L 121.67 112.24 L 121.82 112.34 L 121.97 112.44 L 122.13 112.54 L 122.28 112.64 L 122.43 112.73 L 122.58 112.83 L 122.73 112.93 L 122.88 113.03 L 123.03 113.13 L 123.18 113.22 L 123.34 113.32 L 123.49 113.42 L 123.64 113.52 L 123.79 113.61 L 123.94 113.71 L 124.09 113.80 L 124.24 113.90 L 124.39 113.99 L 124.54 114.09 L 124.70 114.18 L 124.85 114.28 L 125.00 114.37 L 125.15 114.47 L 125.30 114.56 L 125.45 114.65 L 125.60 114.75 L 125.75 114.84 L 125.91 114.93 L 126.06 115.03 L 126.21 115.12 L 126.36 115.21 L 126.51 115.30 L 126.66 115.39 L 126.81 115.48 L 126.96 115.58 L 127.12 115.67 L 127.27 115.76 L 127.42 115.85 L 127.57 115.94 L 127.72 116.03 L 127.87 116.12 L 128.02 116.21 L 128.17 116.29 L 128.32 116.38 L 128.48 116.47 L 128.63 116.56 L 128.78 116.65 L 128.93 116.74 L 129.08 116.82 L 129.23 116.91 L 129.38 117.00 L 129.53 117.08 L 129.69 117.17 L 129.84 117.26 L 129.99 117.34 L 130.14 117.43 L 130.29 117.52 L 130.44 117.60 L 130.59 117.69 L 130.74 117.77 L 130.89 117.86 L 131.05 117.94 L 131.20 118.02 L 131.35 118.11 L 131.50 118.19 L 131.65 118.28 L 131.80 118.36 L 131.95 118.44 L 132.10 118.53 L 132.26 118.61 L 132.41 118.69 L 132.56 118.77 L 132.71 118.86 L 132.86 118.94 L 133.01 119.02 L 133.16 119.10 L 133.31 119.18 L 133.47 119.26 L 133.62 119.34 L 133.77 119.42 L 133.92 119.50 L 134.07 119.58 L 134.22 119.66 L 134.37 119.74 L 134.52 119.82 L 134.67 119.90 L 134.83 119.98 L 134.98 120.06 L 135.13 120.14 L 135.28 120.22 L 135.43 120.30 L 135.58 120.37 L 135.73 120.45 L 135.88 120.53 L 136.04 120.61 L 136.19 120.68 L 136.34 120.76 L 136.49 120.84 L 136.64 120.91 L 136.79 120.99 L 136.94 121.07 L 137.09 121.14 L 137.25 121.22 L 137.40 121.29 L 137.55 121.37 L 137.70 121.44 L 137.85 121.52 L 138.00 121.59 L 138.15 121.67 L 138.30 121.74 L 138.45 121.82 L 138.61 121.89 L 138.76 121.96 L 138.91 122.04 L 139.06 122.11 L 139.21 122.18 L 139.36 122.26 L 139.51 122.33 L 139.66 122.40 L 139.82 122.47 L 139.97 122.55 L 140.12 122.62 L 140.27 122.69 L 140.42 122.76 L 140.57 122.83 L 140.72 122.90 L 140.87 122.98 L 141.03 123.05 L 141.18 123.12 L 141.33 123.19 L 141.48 123.26 L 141.63 123.33 L 141.78 123.40 L 141.93 123.47 L 142.08 123.54 L 142.23 123.61 L 142.39 123.68 L 142.54 123.75 L 142.69 123.81 L 142.84 123.88 L 142.99 123.95 L 143.14 124.02 L 143.29 124.09 L 143.44 124.16 L 143.60 124.22 L 143.75 124.29 L 143.90 124.36 L 144.05 124.43 L 144.20 124.49 L 144.35 124.56 L 144.50 124.63 L 144.65 124.69 L 144.80 124.76 L 144.96 124.83 L 145.11 124.89 L 145.26 124.96 L 145.41 125.02 L 145.56 125.09 L 145.71 125.15 L 145.86 125.22 L 146.01 125.28 L 146.17 125.35 L 146.32 125.41 L 146.47 125.48 L 146.62 125.54 L 146.77 125.61 L 146.92 125.67 L 147.07 125.73 L 147.22 125.80 L 147.38 125.86 L 147.53 125.92 L 147.68 125.99 L 147.83 126.05 L 147.98 126.11 L 148.13 126.18 L 148.28 126.24 L 148.43 126.30 L 148.58 126.36 L 148.74 126.43 L 148.89 126.49 L 149.04 126.55 L 149.19 126.61 L 149.34 126.67 L 149.49 126.73 L 149.64 126.79 L 149.79 126.86 L 149.95 126.92 L 150.10 126.98 L 150.25 127.04 L 150.40 127.10 L 150.55 127.16 L 150.70 127.22 L 150.85 127.28 L 151.00 127.34 L 151.16 127.40 L 151.31 127.46 L 151.46 127.52 L 151.61 127.58 L 151.76 127.63 L 151.91 127.69 L 152.06 127.75 L 152.21 127.81 L 152.36 127.87 L 152.52 127.93 L 152.67 127.98 L 152.82 128.04 L 152.97 128.10 L 153.12 128.16 L 153.27 128.22 L 153.42 128.27 L 153.57 128.33 L 153.73 128.39 L 153.88 128.44 L 154.03 128.50 L 154.18 128.56 L 154.33 128.61 L 154.48 128.67 L 154.63 128.73 L 154.78 128.78 L 154.93 128.84 L 155.09 128.89 L 155.24 128.95 L 155.39 129.00 L 155.54 129.06 L 155.69 129.12 L 155.84 129.17 L 155.99 129.23 L 156.14 129.28 L 156.30 129.33 L 156.45 129.39 L 156.60 129.44 L 156.75 129.50 L 156.90 129.55 L 157.05 129.61 L 157.20 129.66 L 157.35 129.71 L 157.51 129.77 L 157.66 129.82 L 157.81 129.87 L 157.96 129.93 L 158.11 129.98 L 158.26 130.03 L 158.41 130.09 L 158.56 130.14 L 158.71 130.19 L 158.87 130.24 L 159.02 130.30 L 159.17 130.35 L 159.32 130.40 L 159.47 130.45 L 159.62 130.50 L 159.77 130.55 L 159.92 130.61 L 160.08 130.66 L 160.23 130.71 L 160.38 130.76 L 160.53 130.81 L 160.68 130.86 L 160.83 130.91 L 160.98 130.96 L 161.13 131.01 L 161.29 131.06 L 161.44 131.11 L 161.59 131.16 L 161.74 131.21 L 161.89 131.26 L 162.04 131.31 L 162.19 131.36 L 162.34 131.41 L 162.49 131.46 L 162.65 131.51 L 162.80 131.56 L 162.95 131.61 L 163.10 131.66 L 163.25 131.71 L 163.40 131.75 L 163.55 131.80 L 163.70 131.85 L 163.86 131.90 L 164.01 131.95 L 164.16 132.00 L 164.31 132.04 L 164.46 132.09 L 164.61 132.14 L 164.76 132.19 L 164.91 132.23 L 165.07 132.28 L 165.22 132.33 L 165.37 132.38 L 165.52 132.42 L 165.67 132.47 L 165.82 132.52 L 165.97 132.56 L 166.12 132.61 L 166.27 132.66 L 166.43 132.70 L 166.58 132.75 L 166.73 132.79 L 166.88 132.84 L 167.03 132.89 L 167.18 132.93 L 167.33 132.98 L 167.48 133.02 L 167.64 133.07 L 167.79 133.11 L 167.94 133.16 L 168.09 133.20 L 168.24 133.25 L 168.39 133.29 L 168.54 133.34 L 168.69 133.38 L 168.84 133.43 L 169.00 133.47 L 169.15 133.52 L 169.30 133.56 L 169.45 133.60 L 169.60 133.65 L 169.75 133.69 L 169.90 133.74 L 170.05 133.78 L 170.21 133.82 L 170.36 133.87 L 170.51 133.91 L 170.66 133.95 L 170.81 134.00 L 170.96 134.04 L 171.11 134.08 L 171.26 134.13 L 171.42 134.17 L 171.57 134.21 L 171.72 134.25 L 171.87 134.30 L 172.02 134.34 L 172.17 134.38 L 172.32 134.42 L 172.47 134.46 L 172.62 134.51 L 172.78 134.55 L 172.93 134.59 L 173.08 134.63 L 173.23 134.67 L 173.38 134.71 L 173.53 134.76 L 173.68 134.80 L 173.83 134.84 L 173.99 134.88 L 174.14 134.92 L 174.29 134.96 L 174.44 135.00 L 174.59 135.04 L 174.74 135.08 L 174.89 135.12 L 175.04 135.16 L 175.20 135.20 L 175.35 135.24 L 175.50 135.28 L 175.65 135.32 L 175.80 135.36 L 175.95 135.40 L 176.10 135.44 L 176.25 135.48 L 176.40 135.52 L 176.56 135.56 L 176.71 135.60 L 176.86 135.64 L 177.01 135.68 L 177.16 135.72 L 177.31 135.76 L 177.46 135.80 L 177.61 135.83 L 177.77 135.87 L 177.92 135.91 L 178.07 135.95 L 178.22 135.99 L 178.37 136.03 L 178.52 136.07 L 178.67 136.10 L 178.82 136.14 L 178.97 136.18 L 179.13 136.22 L 179.28 136.25 L 179.43 136.29 L 179.58 136.33 L 179.73 136.37 L 179.88 136.41 L 180.03 136.44 L 180.18 136.48 L 180.34 136.52 L 180.49 136.55 L 180.64 136.59 L 180.79 136.63 L 180.94 136.66 L 181.09 136.70 L 181.24 136.74 L 181.39 136.77 L 181.55 136.81 L 181.70 136.85 L 181.85 136.88 L 182.00 136.92 L 182.15 136.96 L 182.30 136.99 L 182.45 137.03 L 182.60 137.06 L 182.75 137.10 L 182.91 137.14 L 183.06 137.17 L 183.21 137.21 L 183.36 137.24 L 183.51 137.28 L 183.66 137.31 L 183.81 137.35 L 183.96 137.38 L 184.12 137.42 L 184.27 137.45 L 184.42 137.49 L 184.57 137.52 L 184.72 137.56 L 184.87 137.59 L 185.02 137.63 L 185.17 137.66 L 185.33 137.70 L 185.48 137.73 L 185.63 137.76 L 185.78 137.80 L 185.93 137.83 L 186.08 137.87 L 186.23 137.90 L 186.38 137.93 L 186.53 137.97 L 186.69 138.00 L 186.84 138.04 L 186.99 138.07 L 187.14 138.10 L 187.29 138.14 L 187.44 138.17 L 187.59 138.20 L 187.74 138.24 L 187.90 138.27 L 188.05 138.30 L 188.20 138.33 L 188.35 138.37 L 188.50 138.40 L 188.65 138.43 L 188.80 138.47 L 188.95 138.50 L 189.11 138.53 L 189.26 138.56 L 189.41 138.60 L 189.56 138.63 L 189.71 138.66 L 189.86 138.69 L 190.01 138.72 L 190.16 138.76 L 190.31 138.79 L 190.47 138.82 L 190.62 138.85 L 190.77 138.88 L 190.92 138.92 L 191.07 138.95 L 191.22 138.98 L 191.37 139.01 L 191.52 139.04 L 191.68 139.07 L 191.83 139.10 L 191.98 139.13 L 192.13 139.17 L 192.28 139.20 L 192.43 139.23 L 192.58 139.26 L 192.73 139.29 L 192.88 139.32 L 193.04 139.35 L 193.19 139.38 L 193.34 139.41 L 193.49 139.44 L 193.64 139.47 L 193.79 139.50 L 193.94 139.53 L 194.09 139.56 L 194.25 139.59 L 194.40 139.62 L 194.55 139.65 L 194.70 139.68 L 194.85 139.71 L 195.00 139.74 L 195.15 139.77 L 195.30 139.80 L 195.46 139.83 L 195.61 139.86 L 195.76 139.89 L 195.91 139.92 L 196.06 139.95 L 196.21 139.98 L 196.36 140.01 L 196.51 140.04 L 196.66 140.07 L 196.82 140.09 L 196.97 140.12 L 197.12 140.15 L 197.27 140.18 L 197.42 140.21 L 197.57 140.24 L 197.72 140.27 L 197.87 140.30 L 198.03 140.32 L 198.18 140.35 L 198.33 140.38 L 198.48 140.41 L 198.63 140.44 L 198.78 140.47 L 198.93 140.49 L 199.08 140.52 L 199.24 140.55 L 199.39 140.58 L 199.54 140.61 L 199.69 140.63 L 199.84 140.66 L 199.99 140.69 L 200.14 140.72 L 200.29 140.74 L 200.44 140.77 L 200.60 140.80 L 200.75 140.83 L 200.90 140.85 L 201.05 140.88 L 201.20 140.91 L 201.35 140.94 L 201.50 140.96 L 201.65 140.99 L 201.81 141.02 L 201.96 141.04 L 202.11 141.07 L 202.26 141.10 L 202.41 141.12 L 202.56 141.15 L 202.71 141.18 L 202.86 141.20 L 203.02 141.23 L 203.17 141.26 L 203.32 141.28 L 203.47 141.31 L 203.62 141.33 L 203.77 141.36 L 203.92 141.39 L 204.07 141.41 L 204.22 141.44 L 204.38 141.47 L 204.53 141.49 L 204.68 141.52 L 204.83 141.54 L 204.98 141.57 L 205.13 141.59 L 205.28 141.62 L 205.43 141.65 L 205.59 141.67 L 205.74 141.70 L 205.89 141.72 L 206.04 141.75 L 206.19 141.77 L 206.34 141.80 L 206.49 141.82 L 206.64 141.85 L 206.79 141.87 L 206.95 141.90 L 207.10 141.92 L 207.25 141.95 L 207.40 141.97 L 207.55 142.00 L 207.70 142.02 L 207.85 142.05 L 208.00 142.07 L 208.16 142.10 L 208.31 142.12 L 208.46 142.15 L 208.61 142.17 L 208.76 142.19 L 208.91 142.22 L 209.06 142.24 L 209.21 142.27 L 209.37 142.29 L 209.52 142.32 L 209.67 142.34 L 209.82 142.36 L 209.97 142.39 L 210.12 142.41 L 210.27 142.44 L 210.42 142.46 L 210.57 142.48 L 210.73 142.51 L 210.88 142.53 L 211.03 142.55 L 211.18 142.58 L 211.33 142.60 L 211.48 142.62 L 211.63 142.65 L 211.78 142.67 L 211.94 142.69 L 212.09 142.72 L 212.24 142.74 L 212.39 142.76 L 212.54 142.79 L 212.69 142.81 L 212.84 142.83 L 212.99 142.86 L 213.15 142.88 L 213.30 142.90 L 213.45 142.92 L 213.60 142.95 L 213.75 142.97 L 213.90 142.99 L 214.05 143.02 L 214.20 143.04 L 214.35 143.06 L 214.51 143.08 L 214.66 143.11 L 214.81 143.13 L 214.96 143.15 L 215.11 143.17 L 215.26 143.20 L 215.41 143.22 L 215.56 143.24 L 215.72 143.26 L 215.87 143.28 L 216.02 143.31 L 216.17 143.33 L 216.32 143.35 L 216.47 143.37 L 216.62 143.39 L 216.77 143.42 L 216.92 143.44 L 217.08 143.46 L 217.23 143.48 L 217.38 143.50 L 217.53 143.52 L 217.68 143.54 L 217.83 143.57 L 217.98 143.59 L 218.13 143.61 L 218.29 143.63 L 218.44 143.65 L 218.59 143.67 L 218.74 143.69 L 218.89 143.72 L 219.04 143.74 L 219.19 143.76 L 219.34 143.78 L 219.50 143.80 L 219.65 143.82 L 219.80 143.84 L 219.95 143.86 L 220.10 143.88 L 220.25 143.90 L 220.40 143.92 L 220.55 143.95 L 220.70 143.97 L 220.86 143.99 L 221.01 144.01 L 221.16 144.03 L 221.31 144.05 L 221.46 144.07 L 221.61 144.09 L 221.76 144.11 L 221.91 144.13 L 222.07 144.15 L 222.22 144.17 L 222.37 144.19 L 222.52 144.21 L 222.67 144.23 L 222.82 144.25 L 222.97 144.27 L 223.12 144.29 L 223.28 144.31 L 223.43 144.33 L 223.58 144.35 L 223.73 144.37 L 223.88 144.39 L 224.03 144.41 L 224.18 144.43 L 224.33 144.45 L 224.48 144.47 L 224.64 144.49 L 224.79 144.51 L 224.94 144.53 L 225.09 144.55 L 225.24 144.57 L 225.39 144.59 L 225.54 144.60 L 225.69 144.62 L 225.85 144.64 L 226.00 144.66 L 226.15 144.68 L 226.30 144.70 L 226.45 144.72 L 226.60 144.74 L 226.75 144.76 L 226.90 144.78 L 227.06 144.80 L 227.21 144.81 L 227.36 144.83 L 227.51 144.85 L 227.66 144.87 L 227.81 144.89 L 227.96 144.91 L 228.11 144.93 L 228.26 144.95 L 228.42 144.96 L 228.57 144.98 L 228.72 145.00 L 228.87 145.02 L 229.02 145.04 L 229.17 145.06 L 229.32 145.08 L 229.47 145.09 L 229.63 145.11 L 229.78 145.13 L 229.93 145.15 L 230.08 145.17 L 230.23 145.18 L 230.38 145.20 L 230.53 145.22 L 230.68 145.24 L 230.83 145.26 L 230.99 145.27 L 231.14 145.29 L 231.29 145.31 L 231.44 145.33 L 231.59 145.35 L 231.74 145.36 L 231.89 145.38 L 232.04 145.40 L 232.20 145.42 L 232.35 145.43 L 232.50 145.45 L 232.65 145.47 L 232.80 145.49 L 232.95 145.50 L 233.10 145.52 L 233.25 145.54 L 233.41 145.56 L 233.56 145.57 L 233.71 145.59 L 233.86 145.61 L 234.01 145.63 L 234.16 145.64 L 234.31 145.66 L 234.46 145.68 L 234.61 145.69 L 234.77 145.71 L 234.92 145.73 L 235.07 145.75 L 235.22 145.76 L 235.37 145.78 L 235.52 145.80 L 235.67 145.81 L 235.82 145.83 L 235.98 145.85 L 236.13 145.86 L 236.28 145.88 L 236.43 145.90 L 236.58 145.91 L 236.73 145.93 L 236.88 145.95 L 237.03 145.96 L 237.19 145.98 L 237.34 146.00 L 237.49 146.01 L 237.64 146.03 L 237.79 146.05 L 237.94 146.06 L 238.09 146.08 L 238.24 146.10 L 238.39 146.11 L 238.55 146.13 L 238.70 146.14 L 238.85 146.16 L 239.00 146.18 L 239.15 146.19 L 239.30 146.21 L 239.45 146.23 L 239.60 146.24 L 239.76 146.26 L 239.91 146.27 L 240.06 146.29 L 240.21 146.30 L 240.36 146.32 L 240.51 146.34 L 240.66 146.35 L 240.81 146.37 L 240.96 146.38 L 241.12 146.40 L 241.27 146.42 L 241.42 146.43 L 241.57 146.45 L 241.72 146.46 L 241.87 146.48 L 242.02 146.49 L 242.17 146.51 L 242.33 146.52 L 242.48 146.54 L 242.63 146.56 L 242.78 146.57 L 242.93 146.59 L 243.08 146.60 L 243.23 146.62 L 243.38 146.63 L 243.54 146.65 L 243.69 146.66 L 243.84 146.68 L 243.99 146.69 L 244.14 146.71 L 244.29 146.72 L 244.44 146.74 L 244.59 146.75 L 244.74 146.77 L 244.90 146.78 L 245.05 146.80 L 245.20 146.81 L 245.35 146.83 L 245.50 146.84 L 245.65 146.86 L 245.80 146.87 L 245.95 146.89 L 246.11 146.90 L 246.26 146.92 L 246.41 146.93 L 246.56 146.95 L 246.71 146.96 L 246.86 146.97 L 247.01 146.99 L 247.16 147.00 L 247.32 147.02 L 247.47 147.03 L 247.62 147.05 L 247.77 147.06 L 247.92 147.08 L 248.07 147.09 L 248.22 147.10 L 248.37 147.12 L 248.52 147.13 L 248.68 147.15 L 248.83 147.16 L 248.98 147.18 L 249.13 147.19 L 249.28 147.20 L 249.43 147.22 L 249.58 147.23 L 249.73 147.25 L 249.89 147.26 L 250.04 147.27 L 250.19 147.29 L 250.34 147.30 L 250.49 147.32 L 250.64 147.33 L 250.79 147.34 L 250.94 147.36 L 251.10 147.37 L 251.25 147.39 L 251.40 147.40 L 251.55 147.41 L 251.70 147.43 L 251.85 147.44 L 252.00 147.45 L 252.15 147.47 L 252.30 147.48 L 252.46 147.50 L 252.61 147.51 L 252.76 147.52 L 252.91 147.54 L 253.06 147.55 L 253.21 147.56 L 253.36 147.58 L 253.51 147.59 L 253.67 147.60 L 253.82 147.62 L 253.97 147.63 L 254.12 147.64 L 254.27 147.66 L 254.42 147.67 L 254.57 147.68 L 254.72 147.70 L 254.87 147.71 L 255.03 147.72 L 255.18 147.74 L 255.33 147.75 L 255.48 147.76 L 255.63 147.78 L 255.78 147.79 L 255.93 147.80 L 256.08 147.81 L 256.24 147.83 L 256.39 147.84 L 256.54 147.85 L 256.69 147.87 L 256.84 147.88 L 256.99 147.89 L 257.14 147.90 L 257.29 147.92 L 257.45 147.93 L 257.60 147.94 L 257.75 147.96 L 257.90 147.97 L 258.05 147.98 L 258.20 147.99 L 258.35 148.01 L 258.50 148.02 L 258.65 148.03 L 258.81 148.04 L 258.96 148.06 L 259.11 148.07 L 259.26 148.08 L 259.41 148.09 L 259.56 148.11 L 259.71 148.12 L 259.86 148.13 L 260.02 148.14 L 260.17 148.16 L 260.32 148.17 L 260.47 148.18 L 260.62 148.19 L 260.77 148.21 L 260.92 148.22 L 261.07 148.23 L 261.23 148.24 L 261.38 148.25 L 261.53 148.27 L 261.68 148.28 L 261.83 148.29 L 261.98 148.30 L 262.13 148.31 L 262.28 148.33 L 262.43 148.34 L 262.59 148.35 L 262.74 148.36 L 262.89 148.37 L 263.04 148.39 L 263.19 148.40 L 263.34 148.41 L 263.49 148.42 L 263.64 148.43 L 263.80 148.45 L 263.95 148.46 L 264.10 148.47 L 264.25 148.48 L 264.40 148.49 L 264.55 148.50 L 264.70 148.52 L 264.85 148.53 L 265.01 148.54 L 265.16 148.55 L 265.31 148.56 L 265.46 148.57 L 265.61 148.59 L 265.76 148.60 L 265.91 148.61 L 266.06 148.62 L 266.21 148.63 L 266.37 148.64 L 266.52 148.65 L 266.67 148.67 L 266.82 148.68 L 266.97 148.69 L 267.12 148.70 L 267.27 148.71 L 267.42 148.72 L 267.58 148.73 L 267.73 148.75 L 267.88 148.76 L 268.03 148.77 L 268.18 148.78 L 268.33 148.79 L 268.48 148.80 L 268.63 148.81 L 268.78 148.82 L 268.94 148.83 L 269.09 148.85 L 269.24 148.86 L 269.39 148.87 L 269.54 148.88 L 269.69 148.89 L 269.84 148.90 L 269.99 148.91 L 270.15 148.92 L 270.30 148.93 L 270.45 148.94 L 270.60 148.96 L 270.75 148.97 L 270.90 148.98 L 271.05 148.99 L 271.20 149.00 L 271.36 149.01 L 271.51 149.02 L 271.66 149.03 L 271.81 149.04 L 271.96 149.05 L 272.11 149.06 L 272.26 149.07 L 272.41 149.08 L 272.56 149.09 L 272.72 149.11 L 272.87 149.12 L 273.02 149.13 L 273.17 149.14 L 273.32 149.15 L 273.47 149.16 L 273.62 149.17 L 273.77 149.18 L 273.93 149.19 L 274.08 149.20 L 274.23 149.21 L 274.38 149.22 L 274.53 149.23 L 274.68 149.24 L 274.83 149.25 L 274.98 149.26 L 275.14 149.27 L 275.29 149.28 L 275.44 149.29 L 275.59 149.30 L 275.74 149.31 L 275.89 149.32 L 276.04 149.33 L 276.19 149.34 L 276.34 149.35 L 276.50 149.36 L 276.65 149.37 L 276.80 149.38 L 276.95 149.39 L 277.10 149.40 L 277.25 149.41 L 277.40 149.42 L 277.55 149.43 L 277.71 149.44 L 277.86 149.45 L 278.01 149.46 L 278.16 149.47 L 278.31 149.48 L 278.46 149.49 L 278.61 149.50 L 278.76 149.51 L 278.91 149.52 L 279.07 149.53 L 279.22 149.54 L 279.37 149.55 L 279.52 149.56 L 279.67 149.57 L 279.82 149.58 L 279.97 149.59 L 280.12 149.60 L 280.28 149.61 L 280.43 149.62 L 280.58 149.63 L 280.73 149.64 L 280.88 149.65 L 281.03 149.66 L 281.18 149.67 L 281.33 149.68 L 281.49 149.69 L 281.64 149.70 L 281.79 149.71 L 281.94 149.72 L 282.09 149.73 L 282.24 149.74 L 282.39 149.75 L 282.54 149.75 L 282.69 149.76 L 282.85 149.77 L 283.00 149.78 L 283.15 149.79 L 283.30 149.80 L 283.45 149.81 L 283.60 149.82 L 283.75 149.83 L 283.90 149.84 L 284.06 149.85 L 284.21 149.86 L 284.36 149.87 L 284.51 149.88 L 284.66 149.89 L 284.81 149.89 L 284.96 149.90 L 285.11 149.91 L 285.27 149.92 L 285.42 149.93 L 285.57 149.94 L 285.72 149.95 L 285.87 149.96 L 286.02 149.97 L 286.17 149.98 L 286.32 149.99 L 286.47 149.99 L 286.63 150.00 L 286.78 150.01 L 286.93 150.02 L 287.08 150.03 L 287.23 150.04 L 287.38 150.05 L 287.53 150.06 L 287.68 150.07 L 287.84 150.07 L 287.99 150.08 L 288.14 150.09 L 288.29 150.10 L 288.44 150.11 L 288.59 150.12 L 288.74 150.13 L 288.89 150.14 L 289.05 150.15 L 289.20 150.15 L 289.35 150.16 L 289.50 150.17 L 289.65 150.18 L 289.80 150.19 L 289.95 150.20 L 290.10 150.21 L 290.25 150.21 L 290.41 150.22 L 290.56 150.23 L 290.71 150.24 L 290.86 150.25 L 291.01 150.26 L 291.16 150.27 L 291.31 150.27 L 291.46 150.28 L 291.62 150.29 L 291.77 150.30 L 291.92 150.31 L 292.07 150.32 L 292.22 150.33 L 292.37 150.33 L 292.52 150.34 L 292.67 150.35 L 292.82 150.36 L 292.98 150.37 L 293.13 150.38 L 293.28 150.38 L 293.43 150.39 L 293.58 150.40 L 293.73 150.41 L 293.88 150.42 L 294.03 150.43 L 294.19 150.43 L 294.34 150.44 L 294.49 150.45 L 294.64 150.46 L 294.79 150.47 L 294.94 150.47 L 295.09 150.48 L 295.24 150.49 L 295.40 150.50 L 295.55 150.51 L 295.70 150.52 L 295.85 150.52 L 296.00 150.53" fill="none" stroke="#7E8692" stroke-width="2.3" stroke-linecap="round" stroke-linejoin="round"/>
</svg>
