<svg xmlns="http://www.w3.org/2000/svg" viewBox="0 0 320 180" width="320" height="180">
  <rect width="320" height="180" fill="#F4F5F7"/>
  <path d="M 24.00 144.55 L 24.19 144.53 L 24.39 144.51 L 24.58 144.49 L 24.78 144.47 L 24.97 144.45 L 25.17 144.43 L 25.36 144.41 L 25.56 144.39 L 25.75 144.37 L 25.94 144.35 L 26.14 144.33 L 26.33 144.30 L 26.53 144.28 L 26.72 144.26 L 26.92 144.24 L 27.11 144.22 L 27.31 144.20 L 27.50 144.18 L 27.69 144.16 L 27.89 144.14 L 28.08 144.12 L 28.28 144.10 L 28.47 144.07 L 28.67 144.05 L 28.86 144.03 L 29.06 144.01 L 29.25 143.99 L 29.44 143.97 L 29.64 143.94 L 29.83 143.92 L 30.03 143.90 L 30.22 143.88 L 30.42 143.85 L 30.61 143.83 L 30.80 143.81 L 31.00 143.79 L 31.19 143.76 L 31.39 143.74 L 31.58 143.72 L 31.78 143.70 L 31.97 143.67 L 32.17 143.65 L 32.36 143.63 L 32.55 143.60 L 32.75 143.58 L 32.94 143.56 L 33.14 143.53 L 33.33 143.51 L 33.53 143.49 L 33.72 143.46 L 33.92 143.44 L 34.11 143.41 L 34.30 143.39 L 34.50 143.36 L 34.69 143.34 L 34.89 143.32 L 35.08 143.29 L 35.28 143.27 L 35.47 143.24 L 35.67 143.22 L 35.86 143.19 L 36.05 143.17 L 36.25 143.14 L 36.44 143.12 L 36.64 143.09 L 36.83 143.06 L 37.03 143.04 L 37.22 143.01 L 37.42 142.99 L 37.61 142.96 L 37.80 142.93 L 38.00 142.91 L 38.19 142.88 L 38.39 142.85 L 38.58 142.83 L 38.78 142.80 L 38.97 142.77 L 39.17 142.75 L 39.36 142.72 L 39.55 142.69 L 39.75 142.67 L 39.94 142.64 L 40.14 142.61 L 40.33 142.58 L 40.53 142.56 L 40.72 142.53 L 40.91 142.50 L 41.11 142.47 L 41.30 142.44 L 41.50 142.41 L 41.69 142.39 L 41.89 142.36 L 42.08 142.33 L 42.28 142.30 L 42.47 142.27 L 42.66 142.24 L 42.86 142.21 L 43.05 142.18 L 43.25 142.15 L 43.44 142.12 L 43.64 142.09 L 43.83 142.06 L 44.03 142.03 L 44.22 142.00 L 44.41 141.97 L 44.61 141.94 L 44.80 141.91 L 45.00 141.88 L 45.19 141.85 L 45.39 141.82 L 45.58 141.79 L 45.78 141.76 L 45.97 141.72 L 46.16 141.69 L 46.36 141.66 L 46.55 141.63 L 46.75 141.60 L 46.94 141.56 L 47.14 141.53 L 47.33 141.50 L 47.53 141.47 L 47.72 141.43 L 47.91 141.40 L 48.11 141.37 L 48.30 141.33 L 48.50 141.30 L 48.69 141.27 L 48.89 141.23 L 49.08 141.20 L 49.28 141.16 L 49.47 141.13 L 49.66 141.10 L 49.86 141.06 L 50.05 141.03 L 50.25 140.99 L 50.44 140.96 L 50.64 140.92 L 50.83 140.89 L 51.03 140.85 L 51.22 140.81 L 51.41 140.78 L 51.61 140.74 L 51.80 140.71 L 52.00 140.67 L 52.19 140.63 L 52.39 140.60 L 52.58 140.56 L 52.77 140.52 L 52.97 140.49 L 53.16 140.45 L 53.36 140.41 L 53.55 140.37 L 53.75 140.33 L 53.94 140.30 L 54.14 140.26 L 54.33 140.22 L 54.52 140.18 L 54.72 140.14 L 54.91 140.10 L 55.11 140.06 L 55.30 140.02 L 55.50 139.98 L 55.69 139.94 L 55.89 139.90 L 56.08 139.86 L 56.27 139.82 L 56.47 139.78 L 56.66 139.74 L 56.86 139.70 L 57.05 139.66 L 57.25 139.62 L 57.44 139.58 L 57.64 139.53 L 57.83 139.49 L 58.02 139.45 L 58.22 139.41 L 58.41 139.36 L 58.61 139.32 L 58.80 139.28 L 59.00 139.23 L 59.19 139.19 L 59.39 139.15 L 59.58 139.10 L 59.77 139.06 L 59.97 139.01 L 60.16 138.97 L 60.36 138.92 L 60.55 138.88 L 60.75 138.83 L 60.94 138.79 L 61.14 138.74 L 61.33 138.70 L 61.52 138.65 L 61.72 138.60 L 61.91 138.56 L 62.11 138.51 L 62.30 138.46 L 62.50 138.41 L 62.69 138.37 L 62.88 138.32 L 63.08 138.27 L 63.27 138.22 L 63.47 138.17 L 63.66 138.12 L 63.86 138.07 L 64.05 138.03 L 64.25 137.98 L 64.44 137.93 L 64.63 137.88 L 64.83 137.82 L 65.02 137.77 L 65.22 137.72 L 65.41 137.67 L 65.61 137.62 L 65.80 137.57 L 66.00 137.52 L 66.19 137.46 L 66.38 137.41 L 66.58 137.36 L 66.77 137.30 L 66.97 137.25 L 67.16 137.20 L 67.36 137.14 L 67.55 137.09 L 67.75 137.03 L 67.94 136.98 L 68.13 136.92 L 68.33 136.87 L 68.52 136.81 L 68.72 136.76 L 68.91 136.70 L 69.11 136.64 L 69.30 136.58 L 69.50 136.53 L 69.69 136.47 L 69.88 136.41 L 70.08 136.35 L 70.27 136.29 L 70.47 136.24 L 70.66 136.18 L 70.86 136.12 L 71.05 136.06 L 71.25 136.00 L 71.44 135.94 L 71.63 135.87 L 71.83 135.81 L 72.02 135.75 L 72.22 135.69 L 72.41 135.63 L 72.61 135.57 L 72.80 135.50 L 72.99 135.44 L 73.19 135.38 L 73.38 135.31 L 73.58 135.25 L 73.77 135.18 L 73.97 135.12 L 74.16 135.05 L 74.36 134.99 L 74.55 134.92 L 74.74 134.85 L 74.94 134.79 L 75.13 134.72 L 75.33 134.65 L 75.52 134.58 L 75.72 134.51 L 75.91 134.45 L 76.11 134.38 L 76.30 134.31 L 76.49 134.24 L 76.69 134.17 L 76.88 134.10 L 77.08 134.02 L 77.27 133.95 L 77.47 133.88 L 77.66 133.81 L 77.86 133.74 L 78.05 133.66 L 78.24 133.59 L 78.44 133.51 L 78.63 133.44 L 78.83 133.36 L 79.02 133.29 L 79.22 133.21 L 79.41 133.14 L 79.61 133.06 L 79.80 132.98 L 79.99 132.91 L 80.19 132.83 L 80.38 132.75 L 80.58 132.67 L 80.77 132.59 L 80.97 132.51 L 81.16 132.43 L 81.36 132.35 L 81.55 132.27 L 81.74 132.19 L 81.94 132.10 L 82.13 132.02 L 82.33 131.94 L 82.52 131.85 L 82.72 131.77 L 82.91 131.68 L 83.11 131.60 L 83.30 131.51 L 83.49 131.43 L 83.69 131.34 L 83.88 131.25 L 84.08 131.17 L 84.27 131.08 L 84.47 130.99 L 84.66 130.90 L 84.85 130.81 L 85.05 130.72 L 85.24 130.63 L 85.44 130.54 L 85.63 130.44 L 85.83 130.35 L 86.02 130.26 L 86.22 130.16 L 86.41 130.07 L 86.60 129.97 L 86.80 129.88 L 86.99 129.78 L 87.19 129.69 L 87.38 129.59 L 87.58 129.49 L 87.77 129.39 L 87.97 129.29 L 88.16 129.19 L 88.35 129.09 L 88.55 128.99 L 88.74 128.89 L 88.94 128.79 L 89.13 128.68 L 89.33 128.58 L 89.52 128.48 L 89.72 128.37 L 89.91 128.27 L 90.10 128.16 L 90.30 128.05 L 90.49 127.95 L 90.69 127.84 L 90.88 127.73 L 91.08 127.62 L 91.27 127.51 L 91.47 127.40 L 91.66 127.29 L 91.85 127.18 L 92.05 127.06 L 92.24 126.95 L 92.44 126.83 L 92.63 126.72 L 92.83 126.60 L 93.02 126.49 L 93.22 126.37 L 93.41 126.25 L 93.60 126.13 L 93.80 126.01 L 93.99 125.89 L 94.19 125.77 L 94.38 125.65 L 94.58 125.53 L 94.77 125.40 L 94.96 125.28 L 95.16 125.15 L 95.35 125.03 L 95.55 124.90 L 95.74 124.77 L 95.94 124.65 L 96.13 124.52 L 96.33 124.39 L 96.52 124.26 L 96.71 124.13 L 96.91 123.99 L 97.10 123.86 L 97.30 123.73 L 97.49 123.59 L 97.69 123.45 L 97.88 123.32 L 98.08 123.18 L 98.27 123.04 L 98.46 122.90 L 98.66 122.76 L 98.85 122.62 L 99.05 122.48 L 99.24 122.33 L 99.44 122.19 L 99.63 122.04 L 99.83 121.90 L 100.02 121.75 L 100.21 121.60 L 100.41 121.45 L 100.60 121.30 L 100.80 121.15 L 100.99 121.00 L 101.19 120.85 L 101.38 120.69 L 101.58 120.54 L 101.77 120.38 L 101.96 120.23 L 102.16 120.07 L 102.35 119.91 L 102.55 119.75 L 102.74 119.59 L 102.94 119.43 L 103.13 119.26 L 103.33 119.10 L 103.52 118.93 L 103.71 118.77 L 103.91 118.60 L 104.10 118.43 L 104.30 118.26 L 104.49 118.09 L 104.69 117.91 L 104.88 117.74 L 105.08 117.57 L 105.27 117.39 L 105.46 117.21 L 105.66 117.04 L 105.85 116.86 L 106.05 116.68 L 106.24 116.49 L 106.44 116.31 L 106.63 116.13 L 106.82 115.94 L 107.02 115.75 L 107.21 115.57 L 107.41 115.38 L 107.60 115.19 L 107.80 114.99 L 107.99 114.80 L 108.19 114.61 L 108.38 114.41 L 108.57 114.21 L 108.77 114.01 L 108.96 113.81 L 109.16 113.61 L 109.35 113.41 L 109.55 113.21 L 109.74 113.00 L 109.94 112.79 L 110.13 112.59 L 110.32 112.38 L 110.52 112.17 L 110.71 111.95 L 110.91 111.74 L 111.10 111.52 L 111.30 111.31 L 111.49 111.09 L 111.69 110.87 L 111.88 110.65 L 112.07 110.43 L 112.27 110.20 L 112.46 109.98 L 112.66 109.75 L 112.85 109.52 L 113.05 109.29 L 113.24 109.06 L 113.44 108.82 L 113.63 108.59 L 113.82 108.35 L 114.02 108.11 L 114.21 107.87 L 114.41 107.63 L 114.60 107.39 L 114.80 107.15 L 114.99 106.90 L 115.19 106.65 L 115.38 106.40 L 115.57 106.15 L 115.77 105.90 L 115.96 105.64 L 116.16 105.39 L 116.35 105.13 L 116.55 104.87 L 116.74 104.61 L 116.93 104.34 L 117.13 104.08 L 117.32 103.81 L 117.52 103.54 L 117.71 103.27 L 117.91 103.00 L 118.10 102.73 L 118.30 102.45 L 118.49 102.18 L 118.68 101.90 L 118.88 101.62 L 119.07 101.33 L 119.27 101.05 L 119.46 100.76 L 119.66 100.47 L 119.85 100.18 L 120.05 99.89 L 120.24 99.60 L 120.43 99.30 L 120.63 99.00 L 120.82 98.70 L 121.02 98.40 L 121.21 98.10 L 121.41 97.79 L 121.60 97.48 L 121.80 97.17 L 121.99 96.86 L 122.18 96.55 L 122.38 96.24 L 122.57 95.92 L 122.77 95.60 L 122.96 95.28 L 123.16 94.95 L 123.35 94.63 L 123.55 94.30 L 123.74 93.97 L 123.93 93.64 L 124.13 93.31 L 124.32 92.97 L 124.52 92.64 L 124.71 92.30 L 124.91 91.96 L 125.10 91.61 L 125.30 91.27 L 125.49 90.92 L 125.68 90.57 L 125.88 90.22 L 126.07 89.87 L 126.27 89.51 L 126.46 89.15 L 126.66 88.80 L 126.85 88.43 L 127.05 88.07 L 127.24 87.71 L 127.43 87.34 L 127.63 86.97 L 127.82 86.60 L 128.02 86.22 L 128.21 85.85 L 128.41 85.47 L 128.60 85.09 L 128.79 84.71 L 128.99 84.33 L 129.18 83.94 L 129.38 83.55 L 129.57 83.17 L 129.77 82.77 L 129.96 82.38 L 130.16 81.99 L 130.35 81.59 L 130.54 81.19 L 130.74 80.79 L 130.93 80.39 L 131.13 79.98 L 131.32 79.58 L 131.52 79.17 L 131.71 78.76 L 131.91 78.35 L 132.10 77.93 L 132.29 77.52 L 132.49 77.10 L 132.68 76.68 L 132.88 76.26 L 133.07 75.84 L 133.27 75.42 L 133.46 74.99 L 133.66 74.56 L 133.85 74.14 L 134.04 73.70 L 134.24 73.27 L 134.43 72.84 L 134.63 72.41 L 134.82 71.97 L 135.02 71.53 L 135.21 71.09 L 135.41 70.65 L 135.60 70.21 L 135.79 69.77 L 135.99 69.32 L 136.18 68.88 L 136.38 68.43 L 136.57 67.99 L 136.77 67.54 L 136.96 67.09 L 137.16 66.64 L 137.35 66.19 L 137.54 65.73 L 137.74 65.28 L 137.93 64.83 L 138.13 64.37 L 138.32 63.92 L 138.52 63.46 L 138.71 63.00 L 138.90 62.55 L 139.10 62.09 L 139.29 61.63 L 139.49 61.17 L 139.68 60.71 L 139.88 60.26 L 140.07 59.80 L 140.27 59.34 L 140.46 58.88 L 140.65 58.42 L 140.85 57.96 L 141.04 57.50 L 141.24 57.04 L 141.43 56.58 L 141.63 56.13 L 141.82 55.67 L 142.02 55.21 L 142.21 54.75 L 142.40 54.30 L 142.60 53.84 L 142.79 53.39 L 142.99 52.94 L 143.18 52.49 L 143.38 52.03 L 143.57 51.58 L 143.77 51.14 L 143.96 50.69 L 144.15 50.24 L 144.35 49.80 L 144.54 49.36 L 144.74 48.92 L 144.93 48.48 L 145.13 48.04 L 145.32 47.61 L 145.52 47.17 L 145.71 46.74 L 145.90 46.32 L 146.10 45.89 L 146.29 45.47 L 146.49 45.05 L 146.68 44.63 L 146.88 44.21 L 147.07 43.80 L 147.27 43.39 L 147.46 42.99 L 147.65 42.58 L 147.85 42.19 L 148.04 41.79 L 148.24 41.40 L 148.43 41.01 L 148.63 40.63 L 148.82 40.24 L 149.02 39.87 L 149.21 39.50 L 149.40 39.13 L 149.60 38.76 L 149.79 38.40 L 149.99 38.05 L 150.18 37.70 L 150.38 37.35 L 150.57 37.01 L 150.76 36.68 L 150.96 36.35 L 151.15 36.02 L 151.35 35.70 L 151.54 35.39 L 151.74 35.08 L 151.93 34.77 L 152.13 34.48 L 152.32 34.18 L 152.51 33.90 L 152.71 33.62 L 152.90 33.34 L 153.10 33.08 L 153.29 32.81 L 153.49 32.56 L 153.68 32.31 L 153.88 32.07 L 154.07 31.83 L 154.26 31.60 L 154.46 31.38 L 154.65 31.17 L 154.85 30.96 L 155.04 30.76 L 155.24 30.56 L 155.43 30.37 L 155.63 30.20 L 155.82 30.02 L 156.01 29.86 L 156.21 29.70 L 156.40 29.55 L 156.60 29.41 L 156.79 29.27 L 156.99 29.15 L 157.18 29.03 L 157.38 28.91 L 157.57 28.81 L 157.76 28.71 L 157.96 28.63 L 158.15 28.55 L 158.35 28.47 L 158.54 28.41 L 158.74 28.35 L 158.93 28.30 L 159.13 28.26 L 159.32 28.23 L 159.51 28.21 L 159.71 28.19 L 159.90 28.18 L 160.10 28.18 L 160.29 28.19 L 160.49 28.21 L 160.68 28.23 L 160.87 28.26 L 161.07 28.30 L 161.26 28.35 L 161.46 28.41 L 161.65 28.47 L 161.85 28.55 L 162.04 28.63 L 162.24 28.71 L 162.43 28.81 L 162.62 28.91 L 162.82 29.03 L 163.01 29.15 L 163.21 29.27 L 163.40 29.41 L 163.60 29.55 L 163.79 29.70 L 163.99 29.86 L 164.18 30.02 L 164.37 30.20 L 164.57 30.37 L 164.76 30.56 L 164.96 30.76 L 165.15 30.96 L 165.35 31.17 L 165.54 31.38 L 165.74 31.60 L 165.93 31.83 L 166.12 32.07 L 166.32 32.31 L 166.51 32.56 L 166.71 32.81 L 166.90 33.08 L 167.10 33.34 L 167.29 33.62 L 167.49 33.90 L 167.68 34.18 L 167.87 34.48 L 168.07 34.77 L 168.26 35.08 L 168.46 35.39 L 168.65 35.70 L 168.85 36.02 L 169.04 36.35 L 169.24 36.68 L 169.43 37.01 L 169.62 37.35 L 169.82 37.70 L 170.01 38.05 L 170.21 38.40 L 170.40 38.76 L 170.60 39.13 L 170.79 39.50 L 170.98 39.87 L 171.18 40.24 L 171.37 40.63 L 171.57 41.01 L 171.76 41.40 L 171.96 41.79 L 172.15 42.19 L 172.35 42.58 L 172.54 42.99 L 172.73 43.39 L 172.93 43.80 L 173.12 44.21 L 173.32 44.63 L 173.51 45.05 L 173.71 45.47 L 173.90 45.89 L 174.10 46.32 L 174.29 46.74 L 174.48 47.17 L 174.68 47.61 L 174.87 48.04 L 175.07 48.48 L 175.26 48.92 L 175.46 49.36 L 175.65 49.80 L 175.85 50.24 L 176.04 50.69 L 176.23 51.14 L 176.43 51.58 L 176.62 52.03 L 176.82 52.49 L 177.01 52.94 L 177.21 53.39 L 177.40 53.84 L 177.60 54.30 L 177.79 54.75 L 177.98 55.21 L 178.18 55.67 L 178.37 56.13 L 178.57 56.58 L 178.76 57.04 L 178.96 57.50 L 179.15 57.96 L 179.35 58.42 L 179.54 58.88 L 179.73 59.34 L 179.93 59.80 L 180.12 60.26 L 180.32 60.71 L 180.51 61.17 L 180.71 61.63 L 180.90 62.09 L 181.10 62.55 L 181.29 63.00 L 181.48 63.46 L 181.68 63.92 L 181.87 64.37 L 182.07 64.83 L 182.26 65.28 L 182.46 65.73 L 182.65 66.19 L 182.84 66.64 L 183.04 67.09 L 183.23 67.54 L 183.43 67.99 L 183.62 68.43 L 183.82 68.88 L 184.01 69.32 L 184.21 69.77 L 184.40 70.21 L 184.59 70.65 L 184.79 71.09 L 184.98 71.53 L 185.18 71.97 L 185.37 72.41 L 185.57 72.84 L 185.76 73.27 L 185.96 73.70 L 186.15 74.14 L 186.34 74.56 L 186.54 74.99 L 186.73 75.42 L 186.93 75.84 L 187.12 76.26 L 187.32 76.68 L 187.51 77.10 L 187.71 77.52 L 187.90 77.93 L 188.09 78.35 L 188.29 78.76 L 188.48 79.17 L 188.68 79.58 L 188.87 79.98 L 189.07 80.39 L 189.26 80.79 L 189.46 81.19 L 189.65 81.59 L 189.84 81.99 L 190.04 82.38 L 190.23 82.77 L 190.43 83.17 L 190.62 83.55 L 190.82 83.94 L 191.01 84.33 L 191.21 84.71 L 191.40 85.09 L 191.59 85.47 L 191.79 85.85 L 191.98 86.22 L 192.18 86.60 L 192.37 86.97 L 192.57 87.34 L 192.76 87.71 L 192.95 88.07 L 193.15 88.43 L 193.34 88.80 L 193.54 89.15 L 193.73 89.51 L 193.93 89.87 L 194.12 90.22 L 194.32 90.57 L 194.51 90.92 L 194.70 91.27 L 194.90 91.61 L 195.09 91.96 L 195.29 92.30 L 195.48 92.64 L 195.68 92.97 L 195.87 93.31 L 196.07 93.64 L 196.26 93.97 L 196.45 94.30 L 196.65 94.63 L 196.84 94.95 L 197.04 95.28 L 197.23 95.60 L 197.43 95.92 L 197.62 96.24 L 197.82 96.55 L 198.01 96.86 L 198.20 97.17 L 198.40 97.48 L 198.59 97.79 L 198.79 98.10 L 198.98 98.40 L 199.18 98.70 L 199.37 99.00 L 199.57 99.30 L 199.76 99.60 L 199.95 99.89 L 200.15 100.18 L 200.34 100.47 L 200.54 100.76 L 200.73 101.05 L 200.93 101.33 L 201.12 101.62 L 201.32 101.90 L 201.51 102.18 L 201.70 102.45 L 201.90 102.73 L 202.09 103.00 L 202.29 103.27 L 202.48 103.54 L 202.68 103.81 L 202.87 104.08 L 203.07 104.34 L 203.26 104.61 L 203.45 104.87 L 203.65 105.13 L 203.84 105.39 L 204.04 105.64 L 204.23 105.90 L 204.43 106.15 L 204.62 106.40 L 204.81 106.65 L 205.01 106.90 L 205.20 107.15 L 205.40 107.39 L 205.59 107.63 L 205.79 107.87 L 205.98 108.11 L 206.18 108.35 L 206.37 108.59 L 206.56 108.82 L 206.76 109.06 L 206.95 109.29 L 207.15 109.52 L 207.34 109.75 L 207.54 109.98 L 207.73 110.20 L 207.93 110.43 L 208.12 110.65 L 208.31 110.87 L 208.51 111.09 L 208.70 111.31 L 208.90 111.52 L 209.09 111.74 L 209.29 111.95 L 209.48 112.17 L 209.68 112.38 L 209.87 112.59 L 210.06 112.79 L 210.26 113.00 L 210.45 113.21 L 210.65 113.41 L 210.84 113.61 L 211.04 113.81 L 211.23 114.01 L 211.43 114.21 L 211.62 114.41 L 211.81 114.61 L 212.01 114.80 L 212.20 114.99 L 212.40 115.19 L 212.59 115.38 L 212.79 115.57 L 212.98 115.75 L 213.18 115.94 L 213.37 116.13 L 213.56 116.31 L 213.76 116.49 L 213.95 116.68 L 214.15 116.86 L 214.34 117.04 L 214.54 117.21 L 214.73 117.39 L 214.92 117.57 L 215.12 117.74 L 215.31 117.91 L 215.51 118.09 L 215.70 118.26 L 215.90 118.43 L 216.09 118.60 L 216.29 118.77 L 216.48 118.93 L 216.67 119.10 L 216.87 119.26 L 217.06 119.43 L 217.26 119.59 L 217.45 119.75 L 217.65 119.91 L 217.84 120.07 L 218.04 120.23 L 218.23 120.38 L 218.42 120.54 L 218.62 120.69 L 218.81 120.85 L 219.01 121.00 L 219.20 121.15 L 219.40 121.30 L 219.59 121.45 L 219.79 121.60 L 219.98 121.75 L 220.17 121.90 L 220.37 122.04 L 220.56 122.19 L 220.76 122.33 L 220.95 122.48 L 221.15 122.62 L 221.34 122.76 L 221.54 122.90 L 221.73 123.04 L 221.92 123.18 L 222.12 123.32 L 222.31 123.45 L 222.51 123.59 L 222.70 123.73 L 222.90 123.86 L 223.09 123.99 L 223.29 124.13 L 223.48 124.26 L 223.67 124.39 L 223.87 124.52 L 224.06 124.65 L 224.26 124.77 L 224.45 124.90 L 224.65 125.03 L 224.84 125.15 L 225.04 125.28 L 225.23 125.40 L 225.42 125.53 L 225.62 125.65 L 225.81 125.77 L 226.01 125.89 L 226.20 126.01 L 226.40 126.13 L 226.59 126.25 L 226.78 126.37 L 226.98 126.49 L 227.17 126.60 L 227.37 126.72 L 227.56 126.83 L 227.76 126.95 L 227.95 127.06 L 228.15 127.18 L 228.34 127.29 L 228.53 127.40 L 228.73 127.51 L 228.92 127.62 L 229.12 127.73 L 229.31 127.84 L 229.51 127.95 L 229.70 128.05 L 229.90 128.16 L 230.09 128.27 L 230.28 128.37 L 230.48 128.48 L 230.67 128.58 L 230.87 128.68 L 231.06 128.79 L 231.26 128.89 L 231.45 128.99 L 231.65 129.09 L 231.84 129.19 L 232.03 129.29 L 232.23 129.39 L 232.42 129.49 L 232.62 129.59 L 232.81 129.69 L 233.01 129.78 L 233.20 129.88 L 233.40 129.97 L 233.59 130.07 L 233.78 130.16 L 233.98 130.26 L 234.17 130.35 L 234.37 130.44 L 234.56 130.54 L 234.76 130.63 L 234.95 130.72 L 235.15 130.81 L 235.34 130.90 L 235.53 130.99 L 235.73 131.08 L 235.92 131.17 L 236.12 131.25 L 236.31 131.34 L 236.51 131.43 L 236.70 131.51 L 236.89 131.60 L 237.09 131.68 L 237.28 131.77 L 237.48 131.85 L 237.67 131.94 L 237.87 132.02 L 238.06 132.10 L 238.26 132.19 L 238.45 132.27 L 238.64 132.35 L 238.84 132.43 L 239.03 132.51 L 239.23 132.59 L 239.42 132.67 L 239.62 132.75 L 239.81 132.83 L 240.01 132.91 L 240.20 132.98 L 240.39 133.06 L 240.59 133.14 L 240.78 133.21 L 240.98 133.29 L 241.17 133.36 L 241.37 133.44 L 241.56 133.51 L 241.76 133.59 L 241.95 133.66 L 242.14 133.74 L 242.34 133.81 L 242.53 133.88 L 242.73 133.95 L 242.92 134.02 L 243.12 134.10 L 243.31 134.17 L 243.51 134.24 L 243.70 134.31 L 243.89 134.38 L 244.09 134.45 L 244.28 134.51 L 244.48 134.58 L 244.67 134.65 L 244.87 134.72 L 245.06 134.79 L 245.26 134.85 L 245.45 134.92 L 245.64 134.99 L 245.84 135.05 L 246.03 135.12 L 246.23 135.18 L 246.42 135.25 L 246.62 135.31 L 246.81 135.38 L 247.01 135.44 L 247.20 135.50 L 247.39 135.57 L 247.59 135.63 L 247.78 135.69 L 247.98 135.75 L 248.17 135.81 L 248.37 135.87 L 248.56 135.94 L 248.75 136.00 L 248.95 136.06 L 249.14 136.12 L 249.34 136.18 L 249.53 136.24 L 249.73 136.29 L 249.92 136.35 L 250.12 136.41 L 250.31 136.47 L 250.50 136.53 L 250.70 136.58 L 250.89 136.64 L 251.09 136.70 L 251.28 136.76 L 251.48 136.81 L 251.67 136.87 L 251.87 136.92 L 252.06 136.98 L 252.25 137.03 L 252.45 137.09 L 252.64 137.14 L 252.84 137.20 L 253.03 137.25 L 253.23 137.30 L 253.42 137.36 L 253.62 137.41 L 253.81 137.46 L 254.00 137.52 L 254.20 137.57 L 254.39 137.62 L 254.59 137.67 L 254.78 137.72 L 254.98 137.77 L 255.17 137.82 L 255.37 137.88 L 255.56 137.93 L 255.75 137.98 L 255.95 138.03 L 256.14 138.07 L 256.34 138.12 L 256.53 138.17 L 256.73 138.22 L 256.92 138.27 L 257.12 138.32 L 257.31 138.37 L 257.50 138.41 L 257.70 138.46 L 257.89 138.51 L 258.09 138.56 L 258.28 138.60 L 258.48 138.65 L 258.67 138.70 L 258.86 138.74 L 259.06 138.79 L 259.25 138.83 L 259.45 138.88 L 259.64 138.92 L 259.84 138.97 L 260.03 139.01 L 260.23 139.06 L 260.42 139.10 L 260.61 139.15 L 260.81 139.19 L 261.00 139.23 L 261.20 139.28 L 261.39 139.32 L 261.59 139.36 L 261.78 139.41 L 261.98 139.45 L 262.17 139.49 L 262.36 139.53 L 262.56 139.58 L 262.75 139.62 L 262.95 139.66 L 263.14 139.70 L 263.34 139.74 L 263.53 139.78 L 263.73 139.82 L 263.92 139.86 L 264.11 139.90 L 264.31 139.94 L 264.50 139.98 L 264.70 140.02 L 264.89 140.06 L 265.09 140.10 L 265.28 140.14 L 265.48 140.18 L 265.67 140.22 L 265.86 140.26 L 266.06 140.30 L 266.25 140.33 L 266.45 140.37 L 266.64 140.41 L 266.84 140.45 L 267.03 140.49 L 267.23 140.52 L 267.42 140.56 L 267.61 140.60 L 267.81 140.63 L 268.00 140.67 L 268.20 140.71 L 268.39 140.74 L 268.59 140.78 L 268.78 140.81 L 268.97 140.85 L 269.17 140.89 L 269.36 140.92 L 269.56 140.96 L 269.75 140.99 L 269.95 141.03 L 270.14 141.06 L 270.34 141.10 L 270.53 141.13 L 270.72 141.16 L 270.92 141.20 L 271.11 141.23 L 271.31 141.27 L 271.50 141.30 L 271.70 141.33 L 271.89 141.37 L 272.09 141.40 L 272.28 141.43 L 272.47 141.47 L 272.67 141.50 L 272.86 141.53 L 273.06 141.56 L 273.25 141.60 L 273.45 141.63 L 273.64 141.66 L 273.84 141.69 L 274.03 141.72 L 274.22 141.76 L 274.42 141.79 L 274.61 141.82 L 274.81 141.85 L 275.00 141.88 L 275.20 141.91 L 275.39 141.94 L 275.59 141.97 L 275.78 142.00 L 275.97 142.03 L 276.17 142.06 L 276.36 142.09 L 276.56 142.12 L 276.75 142.15 L 276.95 142.18 L 277.14 142.21 L 277.34 142.24 L 277.53 142.27 L 277.72 142.30 L 277.92 142.33 L 278.11 142.36 L 278.31 142.39 L 278.50 142.41 L 278.70 142.44 L 278.89 142.47 L 279.09 142.50 L 279.28 142.53 L 279.47 142.56 L 279.67 142.58 L 279.86 142.61 L 280.06 142.64 L 280.25 142.67 L 280.45 142.69 L 280.64 142.72 L 280.83 142.75 L 281.03 142.77 L 281.22 142.80 L 281.42 142.83 L 281.61 142.85 L 281.81 142.88 L 282.00 142.91 L 282.20 142.93 L 282.39 142.96 L 282.58 142.99 L 282.78 143.01 L 282.97 143.04 L 283.17 143.06 L 283.36 143.09 L 283.56 143.12 L 283.75 143.14 L 283.95 143.17 L 284.14 143.19 L 284.33 143.22 L 284.53 143.24 L 284.72 143.27 L 284.92 143.29 L 285.11 143.32 L 285.31 143.34 L 285.50 143.36 L 285.70 143.39 L 285.89 143.41 L 286.08 143.44 L 286.28 143.46 L 286.47 143.49 L 286.67 143.51 L 286.86 143.53 L 287.06 143.56 L 287.25 143.58 L 287.45 143.60 L 287.64 143.63 L 287.83 143.65 L 288.03 143.67 L 288.22 143.70 L 288.42 143.72 L 288.61 143.74 L 288.81 143.76 L 289.00 143.79 L 289.20 143.81 L 289.39 143.83 L 289.58 143.85 L 289.78 143.88 L 289.97 143.90 L 290.17 143.92 L 290.36 143.94 L 290.56 143.97 L 290.75 143.99 L 290.94 144.01 L 291.14 144.03 L 291.33 144.05 L 291.53 144.07 L 291.72 144.10 L 291.92 144.12 L 292.11 144.14 L 292.31 144.16 L 292.50 144.18 L 292.69 144.20 L 292.89 144.22 L 293.08 144.24 L 293.28 144.26 L 293.47 144.28 L 293.67 144.30 L 293.86 144.33 L 294.06 144.35 L 294.25 144.37 L 294.44 144.39 L 294.64 144.41 L 294.83 144.43 L 295.03 144.45 L 295.22 144.47 L 295.42 144.49 L 295.61 144.51 L 295.81 144.53 L 296.00 144.55" fill="none" stroke="#7E8692" stroke-width="2.3" stroke-linecap="round" stroke-linejoin="round"/>
</svg>
