<svg xmlns="http://www.w3.org/2000/svg" viewBox="0 0 320 180" width="320" height="180">
  <rect width="320" height="180" fill="#F4F5F7"/>
  <path d="M 18.00 66.00 L 18.24 65.98 L 18.47 65.96 L 18.71 65.94 L 18.95 65.91 L 19.18 65.89 L 19.42 65.87 L 19.66 65.85 L 19.89 65.83 L 20.13 65.80 L 20.37 65.78 L 20.61 65.76 L 20.84 65.74 L 21.08 65.71 L 21.32 65.69 L 21.55 65.67 L 21.79 65.65 L 22.03 65.62 L 22.26 65.60 L 22.50 65.58 L 22.74 65.55 L 22.97 65.53 L 23.21 65.51 L 23.45 65.48 L 23.68 65.46 L 23.92 65.43 L 24.16 65.41 L 24.40 65.39 L 24.63 65.36 L 24.87 65.34 L 25.11 65.31 L 25.34 65.29 L 25.58 65.26 L 25.82 65.24 L 26.05 65.21 L 26.29 65.19 L 26.53 65.16 L 26.76 65.14 L 27.00 65.11 L 27.24 65.09 L 27.47 65.06 L 27.71 65.04 L 27.95 65.01 L 28.19 64.98 L 28.42 64.96 L 28.66 64.93 L 28.90 64.91 L 29.13 64.88 L 29.37 64.85 L 29.61 64.83 L 29.84 64.80 L 30.08 64.77 L 30.32 64.74 L 30.55 64.72 L 30.79 64.69 L 31.03 64.66 L 31.26 64.63 L 31.50 64.61 L 31.74 64.58 L 31.97 64.55 L 32.21 64.52 L 32.45 64.49 L 32.69 64.46 L 32.92 64.44 L 33.16 64.41 L 33.40 64.38 L 33.63 64.35 L 33.87 64.32 L 34.11 64.29 L 34.34 64.26 L 34.58 64.23 L 34.82 64.20 L 35.05 64.17 L 35.29 64.14 L 35.53 64.11 L 35.76 64.08 L 36.00 64.05 L 36.24 64.02 L 36.48 63.99 L 36.71 63.95 L 36.95 63.92 L 37.19 63.89 L 37.42 63.86 L 37.66 63.83 L 37.90 63.79 L 38.13 63.76 L 38.37 63.73 L 38.61 63.70 L 38.84 63.66 L 39.08 63.63 L 39.32 63.60 L 39.55 63.56 L 39.79 63.53 L 40.03 63.50 L 40.27 63.46 L 40.50 63.43 L 40.74 63.39 L 40.98 63.36 L 41.21 63.32 L 41.45 63.29 L 41.69 63.25 L 41.92 63.22 L 42.16 63.18 L 42.40 63.15 L 42.63 63.11 L 42.87 63.08 L 43.11 63.04 L 43.34 63.00 L 43.58 62.97 L 43.82 62.93 L 44.06 62.89 L 44.29 62.85 L 44.53 62.82 L 44.77 62.78 L 45.00 62.74 L 45.24 62.70 L 45.48 62.66 L 45.71 62.62 L 45.95 62.58 L 46.19 62.54 L 46.42 62.51 L 46.66 62.47 L 46.90 62.43 L 47.13 62.38 L 47.37 62.34 L 47.61 62.30 L 47.84 62.26 L 48.08 62.22 L 48.32 62.18 L 48.56 62.14 L 48.79 62.10 L 49.03 62.05 L 49.27 62.01 L 49.50 61.97 L 49.74 61.92 L 49.98 61.88 L 50.21 61.84 L 50.45 61.79 L 50.69 61.75 L 50.92 61.70 L 51.16 61.66 L 51.40 61.61 L 51.63 61.57 L 51.87 61.52 L 52.11 61.48 L 52.35 61.43 L 52.58 61.38 L 52.82 61.34 L 53.06 61.29 L 53.29 61.24 L 53.53 61.19 L 53.77 61.15 L 54.00 61.10 L 54.24 61.05 L 54.48 61.00 L 54.71 60.95 L 54.95 60.90 L 55.19 60.85 L 55.42 60.80 L 55.66 60.75 L 55.90 60.70 L 56.14 60.64 L 56.37 60.59 L 56.61 60.54 L 56.85 60.49 L 57.08 60.43 L 57.32 60.38 L 57.56 60.33 L 57.79 60.27 L 58.03 60.22 L 58.27 60.16 L 58.50 60.11 L 58.74 60.05 L 58.98 60.00 L 59.21 59.94 L 59.45 59.88 L 59.69 59.83 L 59.92 59.77 L 60.16 59.71 L 60.40 59.65 L 60.64 59.59 L 60.87 59.53 L 61.11 59.47 L 61.35 59.41 L 61.58 59.35 L 61.82 59.29 L 62.06 59.23 L 62.29 59.16 L 62.53 59.10 L 62.77 59.04 L 63.00 58.97 L 63.24 58.91 L 63.48 58.85 L 63.71 58.78 L 63.95 58.71 L 64.19 58.65 L 64.43 58.58 L 64.66 58.51 L 64.90 58.45 L 65.14 58.38 L 65.37 58.31 L 65.61 58.24 L 65.85 58.17 L 66.08 58.10 L 66.32 58.03 L 66.56 57.96 L 66.79 57.88 L 67.03 57.81 L 67.27 57.74 L 67.50 57.66 L 67.74 57.59 L 67.98 57.51 L 68.22 57.44 L 68.45 57.36 L 68.69 57.28 L 68.93 57.20 L 69.16 57.12 L 69.40 57.04 L 69.64 56.96 L 69.87 56.88 L 70.11 56.80 L 70.35 56.72 L 70.58 56.64 L 70.82 56.55 L 71.06 56.47 L 71.29 56.38 L 71.53 56.30 L 71.77 56.21 L 72.01 56.12 L 72.24 56.04 L 72.48 55.95 L 72.72 55.86 L 72.95 55.77 L 73.19 55.67 L 73.43 55.58 L 73.66 55.49 L 73.90 55.39 L 74.14 55.30 L 74.37 55.20 L 74.61 55.11 L 74.85 55.01 L 75.08 54.91 L 75.32 54.81 L 75.56 54.71 L 75.79 54.61 L 76.03 54.51 L 76.27 54.40 L 76.51 54.30 L 76.74 54.19 L 76.98 54.09 L 77.22 53.98 L 77.45 53.87 L 77.69 53.76 L 77.93 53.65 L 78.16 53.54 L 78.40 53.42 L 78.64 53.31 L 78.87 53.19 L 79.11 53.07 L 79.35 52.96 L 79.58 52.84 L 79.82 52.72 L 80.06 52.59 L 80.30 52.47 L 80.53 52.35 L 80.77 52.22 L 81.01 52.09 L 81.24 51.96 L 81.48 51.83 L 81.72 51.70 L 81.95 51.57 L 82.19 51.44 L 82.43 51.30 L 82.66 51.16 L 82.90 51.02 L 83.14 50.88 L 83.37 50.74 L 83.61 50.60 L 83.85 50.45 L 84.09 50.30 L 84.32 50.15 L 84.56 50.00 L 84.80 49.85 L 85.03 49.70 L 85.27 49.54 L 85.51 49.38 L 85.74 49.22 L 85.98 49.06 L 86.22 48.89 L 86.45 48.73 L 86.69 48.56 L 86.93 48.39 L 87.16 48.22 L 87.40 48.04 L 87.64 47.86 L 87.87 47.68 L 88.11 47.50 L 88.35 47.32 L 88.59 47.13 L 88.82 46.94 L 89.06 46.75 L 89.30 46.56 L 89.53 46.36 L 89.77 46.16 L 90.01 45.96 L 90.24 45.75 L 90.48 45.55 L 90.72 45.34 L 90.95 45.12 L 91.19 44.91 L 91.43 44.69 L 91.66 44.46 L 91.90 44.24 L 92.14 44.01 L 92.38 43.77 L 92.61 43.54 L 92.85 43.30 L 93.09 43.05 L 93.32 42.81 L 93.56 42.56 L 93.80 42.30 L 94.03 42.04 L 94.27 41.78 L 94.51 41.51 L 94.74 41.24 L 94.98 40.96 L 95.22 40.68 L 95.45 40.40 L 95.69 40.11 L 95.93 39.82 L 96.17 39.52 L 96.40 39.21 L 96.64 38.90 L 96.88 38.59 L 97.11 38.27 L 97.35 37.94 L 97.59 37.61 L 97.82 37.27 L 98.06 36.93 L 98.30 36.58 L 98.53 36.23 L 98.77 35.86 L 99.01 35.49 L 99.24 35.12 L 99.48 34.73 L 99.72 34.34 L 99.95 33.95 L 100.19 33.54 L 100.43 33.13 L 100.67 32.70 L 100.90 32.27 L 101.14 31.83 L 101.38 31.39 L 101.61 30.93 L 101.85 30.46 L 102.09 29.98 L 102.32 29.50 L 102.56 29.00 L 102.80 28.49 L 103.03 27.97 L 103.27 27.44 L 103.51 26.90 L 103.74 26.34 L 103.98 25.77 L 104.22 25.19 L 104.46 24.59 L 104.69 23.98 L 104.93 23.36 L 105.17 22.72 L 105.40 22.06 L 105.64 21.39 L 105.88 20.70 L 106.11 19.99 L 106.35 19.27 L 106.59 18.52 L 106.82 17.76 L 107.06 16.97 L 107.30 16.17 L 107.53 15.34 L 107.77 14.48 L 108.01 13.61 L 108.25 12.70 L 108.48 11.77 L 108.72 10.81 L 108.96 9.83 L 109.19 8.81 L 109.43 7.76 L 109.67 6.68 L 109.90 5.56 L 110.14 4.40 L 110.38 3.21 L 110.61 1.97 L 110.85 0.70 L 111.09 -0.63 L 111.32 -2.00 L 111.56 -3.42 L 111.80 -4.89 L 112.04 -6.42 L 112.27 -8.01 L 112.51 -9.66 L 112.75 -11.38 L 112.98 -13.17 L 113.22 -15.03 L 113.46 -16.98 L 113.69 -19.01 L 113.93 -21.13 L 114.17 -23.34 L 114.40 -25.66 L 114.64 -28.10 L 114.88 -30.65 L 115.11 -33.33 L 115.35 -36.15 L 115.59 -39.12 L 115.82 -42.25 L 116.06 -45.56 L 116.30 -49.06 L 116.54 -52.77 L 116.77 -56.70 L 117.01 -60.89 L 117.25 -65.34 L 117.48 -70.10 L 117.72 -75.19 L 117.96 -80.65 L 118.19 -86.52 L 118.43 -92.84 L 118.67 -99.69 L 118.90 -107.10 L 119.14 -115.18 L 119.38 -124.00 L 119.61 -133.68 L 119.85 -144.34 L 120.09 -156.15 L 120.33 -169.30" fill="none" stroke="#7E8692" stroke-width="2.3" stroke-linecap="round" stroke-linejoin="round"/>
  <path d="M 128.14 356.34 L 128.38 339.20 L 128.62 324.03 L 128.85 310.51 L 129.09 298.38 L 129.33 287.45 L 129.56 277.54 L 129.80 268.51 L 130.04 260.26 L 130.27 252.68 L 130.51 245.70 L 130.75 239.25 L 130.98 233.28 L 131.22 227.72 L 131.46 222.54 L 131.69 217.70 L 131.93 213.17 L 132.17 208.93 L 132.41 204.93 L 132.64 201.17 L 132.88 197.62 L 133.12 194.26 L 133.35 191.09 L 133.59 188.08 L 133.83 185.22 L 134.06 182.51 L 134.30 179.92 L 134.54 177.46 L 134.77 175.11 L 135.01 172.87 L 135.25 170.73 L 135.48 168.68 L 135.72 166.71 L 135.96 164.83 L 136.20 163.02 L 136.43 161.29 L 136.67 159.62 L 136.91 158.01 L 137.14 156.47 L 137.38 154.98 L 137.62 153.55 L 137.85 152.17 L 138.09 150.83 L 138.33 149.54 L 138.56 148.30 L 138.80 147.09 L 139.04 145.93 L 139.27 144.80 L 139.51 143.71 L 139.75 142.65 L 139.98 141.63 L 140.22 140.63 L 140.46 139.67 L 140.70 138.73 L 140.93 137.82 L 141.17 136.93 L 141.41 136.07 L 141.64 135.24 L 141.88 134.43 L 142.12 133.64 L 142.35 132.87 L 142.59 132.12 L 142.83 131.39 L 143.06 130.67 L 143.30 129.98 L 143.54 129.30 L 143.77 128.64 L 144.01 128.00 L 144.25 127.37 L 144.49 126.76 L 144.72 126.16 L 144.96 125.57 L 145.20 125.00 L 145.43 124.44 L 145.67 123.90 L 145.91 123.36 L 146.14 122.84 L 146.38 122.33 L 146.62 121.83 L 146.85 121.34 L 147.09 120.86 L 147.33 120.39 L 147.56 119.93 L 147.80 119.48 L 148.04 119.04 L 148.28 118.60 L 148.51 118.18 L 148.75 117.76 L 148.99 117.35 L 149.22 116.95 L 149.46 116.56 L 149.70 116.18 L 149.93 115.80 L 150.17 115.43 L 150.41 115.06 L 150.64 114.71 L 150.88 114.36 L 151.12 114.01 L 151.35 113.67 L 151.59 113.34 L 151.83 113.01 L 152.07 112.69 L 152.30 112.37 L 152.54 112.06 L 152.78 111.76 L 153.01 111.46 L 153.25 111.16 L 153.49 110.87 L 153.72 110.59 L 153.96 110.30 L 154.20 110.03 L 154.43 109.76 L 154.67 109.49 L 154.91 109.22 L 155.14 108.96 L 155.38 108.71 L 155.62 108.46 L 155.85 108.21 L 156.09 107.96 L 156.33 107.72 L 156.57 107.48 L 156.80 107.25 L 157.04 107.02 L 157.28 106.79 L 157.51 106.57 L 157.75 106.35 L 157.99 106.13 L 158.22 105.92 L 158.46 105.71 L 158.70 105.50 L 158.93 105.29 L 159.17 105.09 L 159.41 104.89 L 159.64 104.69 L 159.88 104.50 L 160.12 104.30 L 160.36 104.11 L 160.59 103.93 L 160.83 103.74 L 161.07 103.56 L 161.30 103.38 L 161.54 103.20 L 161.78 103.03 L 162.01 102.85 L 162.25 102.68 L 162.49 102.51 L 162.72 102.35 L 162.96 102.18 L 163.20 102.02 L 163.43 101.86 L 163.67 101.70 L 163.91 101.54 L 164.15 101.39 L 164.38 101.24 L 164.62 101.08 L 164.86 100.93 L 165.09 100.79 L 165.33 100.64 L 165.57 100.50 L 165.80 100.35 L 166.04 100.21 L 166.28 100.07 L 166.51 99.93 L 166.75 99.80 L 166.99 99.66 L 167.22 99.53 L 167.46 99.40 L 167.70 99.27 L 167.93 99.14 L 168.17 99.01 L 168.41 98.88 L 168.65 98.76 L 168.88 98.64 L 169.12 98.51 L 169.36 98.39 L 169.59 98.27 L 169.83 98.15 L 170.07 98.04 L 170.30 97.92 L 170.54 97.81 L 170.78 97.69 L 171.01 97.58 L 171.25 97.47 L 171.49 97.36 L 171.72 97.25 L 171.96 97.14 L 172.20 97.03 L 172.44 96.93 L 172.67 96.82 L 172.91 96.72 L 173.15 96.62 L 173.38 96.52 L 173.62 96.41 L 173.86 96.31 L 174.09 96.22 L 174.33 96.12 L 174.57 96.02 L 174.80 95.92 L 175.04 95.83 L 175.28 95.73 L 175.51 95.64 L 175.75 95.55 L 175.99 95.46 L 176.23 95.37 L 176.46 95.28 L 176.70 95.19 L 176.94 95.10 L 177.17 95.01 L 177.41 94.92 L 177.65 94.84 L 177.88 94.75 L 178.12 94.67 L 178.36 94.58 L 178.59 94.50 L 178.83 94.42 L 179.07 94.34 L 179.30 94.26 L 179.54 94.18 L 179.78 94.10 L 180.02 94.02 L 180.25 93.94 L 180.49 93.86 L 180.73 93.78 L 180.96 93.71 L 181.20 93.63 L 181.44 93.56 L 181.67 93.48 L 181.91 93.41 L 182.15 93.34 L 182.38 93.26 L 182.62 93.19 L 182.86 93.12 L 183.09 93.05 L 183.33 92.98 L 183.57 92.91 L 183.80 92.84 L 184.04 92.77 L 184.28 92.70 L 184.52 92.64 L 184.75 92.57 L 184.99 92.50 L 185.23 92.44 L 185.46 92.37 L 185.70 92.31 L 185.94 92.24 L 186.17 92.18 L 186.41 92.11 L 186.65 92.05 L 186.88 91.99 L 187.12 91.93 L 187.36 91.87 L 187.59 91.80 L 187.83 91.74 L 188.07 91.68 L 188.31 91.62 L 188.54 91.56 L 188.78 91.51 L 189.02 91.45 L 189.25 91.39 L 189.49 91.33 L 189.73 91.27 L 189.96 91.22 L 190.20 91.16 L 190.44 91.11 L 190.67 91.05 L 190.91 91.00 L 191.15 90.94 L 191.38 90.89 L 191.62 90.83 L 191.86 90.78 L 192.10 90.73 L 192.33 90.67 L 192.57 90.62 L 192.81 90.57 L 193.04 90.52 L 193.28 90.46 L 193.52 90.41 L 193.75 90.36 L 193.99 90.31 L 194.23 90.26 L 194.46 90.21 L 194.70 90.16 L 194.94 90.12 L 195.17 90.07 L 195.41 90.02 L 195.65 89.97 L 195.88 89.92 L 196.12 89.87 L 196.36 89.83 L 196.60 89.78 L 196.83 89.73 L 197.07 89.69 L 197.31 89.64 L 197.54 89.60 L 197.78 89.55 L 198.02 89.51 L 198.25 89.46 L 198.49 89.42 L 198.73 89.37 L 198.96 89.33 L 199.20 89.29 L 199.44 89.24 L 199.67 89.20 L 199.91 89.16 L 200.15 89.12 L 200.39 89.07 L 200.62 89.03 L 200.86 88.99 L 201.10 88.95 L 201.33 88.91 L 201.57 88.87 L 201.81 88.83 L 202.04 88.78 L 202.28 88.74 L 202.52 88.70 L 202.75 88.67 L 202.99 88.63 L 203.23 88.59 L 203.46 88.55 L 203.70 88.51 L 203.94 88.47 L 204.18 88.43 L 204.41 88.39 L 204.65 88.36 L 204.89 88.32 L 205.12 88.28 L 205.36 88.24 L 205.60 88.21 L 205.83 88.17 L 206.07 88.13 L 206.31 88.10 L 206.54 88.06 L 206.78 88.03 L 207.02 87.99 L 207.25 87.95 L 207.49 87.92 L 207.73 87.88 L 207.96 87.85 L 208.20 87.81 L 208.44 87.78 L 208.68 87.75 L 208.91 87.71 L 209.15 87.68 L 209.39 87.64 L 209.62 87.61 L 209.86 87.58 L 210.10 87.54 L 210.33 87.51 L 210.57 87.48 L 210.81 87.45 L 211.04 87.41 L 211.28 87.38 L 211.52 87.35 L 211.75 87.32 L 211.99 87.29 L 212.23 87.25 L 212.47 87.22 L 212.70 87.19 L 212.94 87.16 L 213.18 87.13 L 213.41 87.10 L 213.65 87.07 L 213.89 87.04 L 214.12 87.01 L 214.36 86.98 L 214.60 86.95 L 214.83 86.92 L 215.07 86.89 L 215.31 86.86 L 215.54 86.83 L 215.78 86.80 L 216.02 86.77 L 216.26 86.74 L 216.49 86.71 L 216.73 86.69 L 216.97 86.66 L 217.20 86.63 L 217.44 86.60 L 217.68 86.57 L 217.91 86.54 L 218.15 86.52 L 218.39 86.49 L 218.62 86.46 L 218.86 86.44 L 219.10 86.41 L 219.33 86.38 L 219.57 86.35 L 219.81 86.33 L 220.05 86.30 L 220.28 86.27 L 220.52 86.25 L 220.76 86.22 L 220.99 86.20 L 221.23 86.17 L 221.47 86.14 L 221.70 86.12 L 221.94 86.09 L 222.18 86.07 L 222.41 86.04 L 222.65 86.02 L 222.89 85.99 L 223.12 85.97 L 223.36 85.94 L 223.60 85.92 L 223.83 85.89 L 224.07 85.87 L 224.31 85.84 L 224.55 85.82 L 224.78 85.80 L 225.02 85.77 L 225.26 85.75 L 225.49 85.72 L 225.73 85.70 L 225.97 85.68 L 226.20 85.65 L 226.44 85.63 L 226.68 85.61 L 226.91 85.58 L 227.15 85.56 L 227.39 85.54 L 227.62 85.51 L 227.86 85.49 L 228.10 85.47 L 228.34 85.45 L 228.57 85.42 L 228.81 85.40 L 229.05 85.38 L 229.28 85.36 L 229.52 85.34 L 229.76 85.31 L 229.99 85.29 L 230.23 85.27 L 230.47 85.25 L 230.70 85.23 L 230.94 85.21 L 231.18 85.18 L 231.41 85.16 L 231.65 85.14 L 231.89 85.12 L 232.13 85.10 L 232.36 85.08 L 232.60 85.06 L 232.84 85.04 L 233.07 85.02 L 233.31 85.00 L 233.55 84.98 L 233.78 84.96 L 234.02 84.94 L 234.26 84.92 L 234.49 84.90 L 234.73 84.88 L 234.97 84.86 L 235.20 84.84 L 235.44 84.82 L 235.68 84.80 L 235.91 84.78 L 236.15 84.76 L 236.39 84.74 L 236.63 84.72 L 236.86 84.70 L 237.10 84.68 L 237.34 84.66 L 237.57 84.64 L 237.81 84.62 L 238.05 84.60 L 238.28 84.59 L 238.52 84.57 L 238.76 84.55 L 238.99 84.53 L 239.23 84.51 L 239.47 84.49 L 239.70 84.47 L 239.94 84.46 L 240.18 84.44 L 240.42 84.42 L 240.65 84.40 L 240.89 84.38 L 241.13 84.37 L 241.36 84.35 L 241.60 84.33 L 241.84 84.31 L 242.07 84.30 L 242.31 84.28 L 242.55 84.26 L 242.78 84.24 L 243.02 84.23 L 243.26 84.21 L 243.49 84.19 L 243.73 84.17 L 243.97 84.16 L 244.21 84.14 L 244.44 84.12 L 244.68 84.11 L 244.92 84.09 L 245.15 84.07 L 245.39 84.06 L 245.63 84.04 L 245.86 84.02 L 246.10 84.01 L 246.34 83.99 L 246.57 83.98 L 246.81 83.96 L 247.05 83.94 L 247.28 83.93 L 247.52 83.91 L 247.76 83.89 L 247.99 83.88 L 248.23 83.86 L 248.47 83.85 L 248.71 83.83 L 248.94 83.82 L 249.18 83.80 L 249.42 83.78 L 249.65 83.77 L 249.89 83.75 L 250.13 83.74 L 250.36 83.72 L 250.60 83.71 L 250.84 83.69 L 251.07 83.68 L 251.31 83.66 L 251.55 83.65 L 251.78 83.63 L 252.02 83.62 L 252.26 83.60 L 252.50 83.59 L 252.73 83.57 L 252.97 83.56 L 253.21 83.54 L 253.44 83.53 L 253.68 83.51 L 253.92 83.50 L 254.15 83.49 L 254.39 83.47 L 254.63 83.46 L 254.86 83.44 L 255.10 83.43 L 255.34 83.41 L 255.57 83.40 L 255.81 83.39 L 256.05 83.37 L 256.29 83.36 L 256.52 83.34 L 256.76 83.33 L 257.00 83.32 L 257.23 83.30 L 257.47 83.29 L 257.71 83.28 L 257.94 83.26 L 258.18 83.25 L 258.42 83.23 L 258.65 83.22 L 258.89 83.21 L 259.13 83.19 L 259.36 83.18 L 259.60 83.17 L 259.84 83.15 L 260.08 83.14 L 260.31 83.13 L 260.55 83.11 L 260.79 83.10 L 261.02 83.09 L 261.26 83.08 L 261.50 83.06 L 261.73 83.05 L 261.97 83.04 L 262.21 83.02 L 262.44 83.01 L 262.68 83.00 L 262.92 82.99 L 263.15 82.97 L 263.39 82.96 L 263.63 82.95 L 263.86 82.94 L 264.10 82.92 L 264.34 82.91 L 264.58 82.90 L 264.81 82.89 L 265.05 82.87 L 265.29 82.86 L 265.52 82.85 L 265.76 82.84 L 266.00 82.83 L 266.23 82.81 L 266.47 82.80 L 266.71 82.79 L 266.94 82.78 L 267.18 82.77 L 267.42 82.75 L 267.65 82.74 L 267.89 82.73 L 268.13 82.72 L 268.37 82.71 L 268.60 82.69 L 268.84 82.68 L 269.08 82.67 L 269.31 82.66 L 269.55 82.65 L 269.79 82.64 L 270.02 82.63 L 270.26 82.61 L 270.50 82.60 L 270.73 82.59 L 270.97 82.58 L 271.21 82.57 L 271.44 82.56 L 271.68 82.55 L 271.92 82.54 L 272.16 82.52 L 272.39 82.51 L 272.63 82.50 L 272.87 82.49 L 273.10 82.48 L 273.34 82.47 L 273.58 82.46 L 273.81 82.45 L 274.05 82.44 L 274.29 82.43 L 274.52 82.41 L 274.76 82.40 L 275.00 82.39 L 275.23 82.38 L 275.47 82.37 L 275.71 82.36 L 275.94 82.35 L 276.18 82.34 L 276.42 82.33 L 276.66 82.32 L 276.89 82.31 L 277.13 82.30 L 277.37 82.29 L 277.60 82.28 L 277.84 82.27 L 278.08 82.26 L 278.31 82.25 L 278.55 82.24 L 278.79 82.23 L 279.02 82.22 L 279.26 82.21 L 279.50 82.20 L 279.73 82.19 L 279.97 82.18 L 280.21 82.17 L 280.45 82.16 L 280.68 82.15 L 280.92 82.14 L 281.16 82.13 L 281.39 82.12 L 281.63 82.11 L 281.87 82.10 L 282.10 82.09 L 282.34 82.08 L 282.58 82.07 L 282.81 82.06 L 283.05 82.05 L 283.29 82.04 L 283.52 82.03 L 283.76 82.02 L 284.00 82.01 L 284.24 82.00 L 284.47 81.99 L 284.71 81.98 L 284.95 81.97 L 285.18 81.96 L 285.42 81.95 L 285.66 81.94 L 285.89 81.93 L 286.13 81.93 L 286.37 81.92 L 286.60 81.91 L 286.84 81.90 L 287.08 81.89 L 287.31 81.88 L 287.55 81.87 L 287.79 81.86 L 288.03 81.85 L 288.26 81.84 L 288.50 81.83 L 288.74 81.83 L 288.97 81.82 L 289.21 81.81 L 289.45 81.80 L 289.68 81.79 L 289.92 81.78 L 290.16 81.77 L 290.39 81.76 L 290.63 81.75 L 290.87 81.75 L 291.10 81.74 L 291.34 81.73 L 291.58 81.72 L 291.81 81.71 L 292.05 81.70 L 292.29 81.69 L 292.53 81.68 L 292.76 81.68 L 293.00 81.67 L 293.24 81.66 L 293.47 81.65 L 293.71 81.64 L 293.95 81.63 L 294.18 81.63 L 294.42 81.62 L 294.66 81.61 L 294.89 81.60 L 295.13 81.59 L 295.37 81.58 L 295.60 81.58 L 295.84 81.57 L 296.08 81.56 L 296.32 81.55 L 296.55 81.54 L 296.79 81.53 L 297.03 81.53 L 297.26 81.52 L 297.50 81.51 L 297.74 81.50 L 297.97 81.49 L 298.21 81.49 L 298.45 81.48 L 298.68 81.47 L 298.92 81.46 L 299.16 81.45 L 299.39 81.45 L 299.63 81.44 L 299.87 81.43 L 300.11 81.42 L 300.34 81.41 L 300.58 81.41 L 300.82 81.40 L 301.05 81.39 L 301.29 81.38 L 301.53 81.38 L 301.76 81.37 L 302.00 81.36" fill="none" stroke="#7E8692" stroke-width="2.3" stroke-linecap="round" stroke-linejoin="round"/>
</svg>
