<svg xmlns="http://www.w3.org/2000/svg" viewBox="0 0 320 180" width="320" height="180">
  <rect width="320" height="180" fill="none"/>
  <path d="M 24.00 90.63 L 24.30 90.63 L 24.61 90.64 L 24.91 90.64 L 25.21 90.65 L 25.51 90.65 L 25.82 90.66 L 26.12 90.66 L 26.42 90.66 L 26.72 90.67 L 27.03 90.67 L 27.33 90.68 L 27.63 90.68 L 27.93 90.69 L 28.24 90.69 L 28.54 90.70 L 28.84 90.70 L 29.14 90.71 L 29.45 90.71 L 29.75 90.72 L 30.05 90.72 L 30.35 90.73 L 30.66 90.73 L 30.96 90.74 L 31.26 90.74 L 31.56 90.75 L 31.87 90.75 L 32.17 90.76 L 32.47 90.76 L 32.77 90.77 L 33.08 90.77 L 33.38 90.78 L 33.68 90.79 L 33.98 90.79 L 34.29 90.80 L 34.59 90.80 L 34.89 90.81 L 35.19 90.81 L 35.50 90.82 L 35.80 90.83 L 36.10 90.83 L 36.40 90.84 L 36.71 90.85 L 37.01 90.85 L 37.31 90.86 L 37.62 90.86 L 37.92 90.87 L 38.22 90.88 L 38.52 90.88 L 38.83 90.89 L 39.13 90.90 L 39.43 90.90 L 39.73 90.91 L 40.04 90.92 L 40.34 90.92 L 40.64 90.93 L 40.94 90.94 L 41.25 90.95 L 41.55 90.95 L 41.85 90.96 L 42.15 90.97 L 42.46 90.98 L 42.76 90.98 L 43.06 90.99 L 43.36 91.00 L 43.67 91.01 L 43.97 91.01 L 44.27 91.02 L 44.57 91.03 L 44.88 91.04 L 45.18 91.05 L 45.48 91.05 L 45.78 91.06 L 46.09 91.07 L 46.39 91.08 L 46.69 91.09 L 46.99 91.10 L 47.30 91.11 L 47.60 91.12 L 47.90 91.12 L 48.20 91.13 L 48.51 91.14 L 48.81 91.15 L 49.11 91.16 L 49.41 91.17 L 49.72 91.18 L 50.02 91.19 L 50.32 91.20 L 50.63 91.21 L 50.93 91.22 L 51.23 91.23 L 51.53 91.24 L 51.84 91.25 L 52.14 91.26 L 52.44 91.27 L 52.74 91.28 L 53.05 91.29 L 53.35 91.31 L 53.65 91.32 L 53.95 91.33 L 54.26 91.34 L 54.56 91.35 L 54.86 91.36 L 55.16 91.37 L 55.47 91.39 L 55.77 91.40 L 56.07 91.41 L 56.37 91.42 L 56.68 91.44 L 56.98 91.45 L 57.28 91.46 L 57.58 91.47 L 57.89 91.49 L 58.19 91.50 L 58.49 91.51 L 58.79 91.53 L 59.10 91.54 L 59.40 91.56 L 59.70 91.57 L 60.00 91.58 L 60.31 91.60 L 60.61 91.61 L 60.91 91.63 L 61.21 91.64 L 61.52 91.66 L 61.82 91.67 L 62.12 91.69 L 62.42 91.70 L 62.73 91.72 L 63.03 91.74 L 63.33 91.75 L 63.64 91.77 L 63.94 91.79 L 64.24 91.80 L 64.54 91.82 L 64.85 91.84 L 65.15 91.86 L 65.45 91.87 L 65.75 91.89 L 66.06 91.91 L 66.36 91.93 L 66.66 91.95 L 66.96 91.97 L 67.27 91.99 L 67.57 92.01 L 67.87 92.03 L 68.17 92.05 L 68.48 92.07 L 68.78 92.09 L 69.08 92.11 L 69.38 92.13 L 69.69 92.15 L 69.99 92.17 L 70.29 92.19 L 70.59 92.22 L 70.90 92.24 L 71.20 92.26 L 71.50 92.29 L 71.80 92.31 L 72.11 92.33 L 72.41 92.36 L 72.71 92.38 L 73.01 92.41 L 73.32 92.43 L 73.62 92.46 L 73.92 92.48 L 74.22 92.51 L 74.53 92.54 L 74.83 92.56 L 75.13 92.59 L 75.43 92.62 L 75.74 92.65 L 76.04 92.68 L 76.34 92.71 L 76.65 92.73 L 76.95 92.76 L 77.25 92.80 L 77.55 92.83 L 77.86 92.86 L 78.16 92.89 L 78.46 92.92 L 78.76 92.95 L 79.07 92.99 L 79.37 93.02 L 79.67 93.06 L 79.97 93.09 L 80.28 93.13 L 80.58 93.16 L 80.88 93.20 L 81.18 93.23 L 81.49 93.27 L 81.79 93.31 L 82.09 93.35 L 82.39 93.39 L 82.70 93.43 L 83.00 93.47 L 83.30 93.51 L 83.60 93.55 L 83.91 93.59 L 84.21 93.64 L 84.51 93.68 L 84.81 93.73 L 85.12 93.77 L 85.42 93.82 L 85.72 93.86 L 86.02 93.91 L 86.33 93.96 L 86.63 94.01 L 86.93 94.06 L 87.23 94.11 L 87.54 94.16 L 87.84 94.22 L 88.14 94.27 L 88.44 94.32 L 88.75 94.38 L 89.05 94.43 L 89.35 94.49 L 89.66 94.55 L 89.96 94.61 L 90.26 94.67 L 90.56 94.73 L 90.87 94.79 L 91.17 94.86 L 91.47 94.92 L 91.77 94.99 L 92.08 95.05 L 92.38 95.12 L 92.68 95.19 L 92.98 95.26 L 93.29 95.33 L 93.59 95.41 L 93.89 95.48 L 94.19 95.56 L 94.50 95.64 L 94.80 95.71 L 95.10 95.79 L 95.40 95.88 L 95.71 95.96 L 96.01 96.04 L 96.31 96.13 L 96.61 96.22 L 96.92 96.31 L 97.22 96.40 L 97.52 96.49 L 97.82 96.59 L 98.13 96.69 L 98.43 96.79 L 98.73 96.89 L 99.03 96.99 L 99.34 97.09 L 99.64 97.20 L 99.94 97.31 L 100.24 97.42 L 100.55 97.54 L 100.85 97.65 L 101.15 97.77 L 101.45 97.89 L 101.76 98.02 L 102.06 98.14 L 102.36 98.27 L 102.67 98.40 L 102.97 98.54 L 103.27 98.68 L 103.57 98.82 L 103.88 98.96 L 104.18 99.11 L 104.48 99.25 L 104.78 99.41 L 105.09 99.56 L 105.39 99.72 L 105.69 99.89 L 105.99 100.05 L 106.30 100.23 L 106.60 100.40 L 106.90 100.58 L 107.20 100.76 L 107.51 100.95 L 107.81 101.14 L 108.11 101.34 L 108.41 101.54 L 108.72 101.74 L 109.02 101.95 L 109.32 102.17 L 109.62 102.39 L 109.93 102.61 L 110.23 102.85 L 110.53 103.08 L 110.83 103.33 L 111.14 103.58 L 111.44 103.83 L 111.74 104.09 L 112.04 104.36 L 112.35 104.64 L 112.65 104.92 L 112.95 105.21 L 113.25 105.51 L 113.56 105.81 L 113.86 106.12 L 114.16 106.45 L 114.46 106.78 L 114.77 107.11 L 115.07 107.46 L 115.37 107.82 L 115.68 108.19 L 115.98 108.56 L 116.28 108.95 L 116.58 109.35 L 116.89 109.76 L 117.19 110.18 L 117.49 110.62 L 117.79 111.06 L 118.10 111.52 L 118.40 112.00 L 118.70 112.48 L 119.00 112.99 L 119.31 113.50 L 119.61 114.03 L 119.91 114.58 L 120.21 115.15 L 120.52 115.73 L 120.82 116.33 L 121.12 116.95 L 121.42 117.59 L 121.73 118.25 L 122.03 118.93 L 122.33 119.63 L 122.63 120.36 L 122.94 121.11 L 123.24 121.88 L 123.54 122.68 L 123.84 123.51 L 124.15 124.37 L 124.45 125.25 L 124.75 126.17 L 125.05 127.11 L 125.36 128.09 L 125.66 129.11 L 125.96 130.16 L 126.26 131.25 L 126.57 132.38 L 126.87 133.55 L 127.17 134.77 L 127.47 136.03 L 127.78 137.34 L 128.08 138.70 L 128.38 140.11 L 128.69 141.58 L 128.99 143.10 L 129.29 144.69 L 129.59 146.33 L 129.90 148.05 L 130.20 149.84 L 130.50 151.70 L 130.80 153.63 L 131.11 155.65 L 131.41 157.76" fill="none" stroke="#5F6B7A" stroke-width="2.5" stroke-linecap="round" stroke-linejoin="round"/>
  <path d="M 188.59 22.24 L 188.89 24.35 L 189.20 26.37 L 189.50 28.30 L 189.80 30.16 L 190.10 31.95 L 190.41 33.67 L 190.71 35.31 L 191.01 36.90 L 191.31 38.42 L 191.62 39.89 L 191.92 41.30 L 192.22 42.66 L 192.53 43.97 L 192.83 45.23 L 193.13 46.45 L 193.43 47.62 L 193.74 48.75 L 194.04 49.84 L 194.34 50.89 L 194.64 51.91 L 194.95 52.89 L 195.25 53.83 L 195.55 54.75 L 195.85 55.63 L 196.16 56.49 L 196.46 57.32 L 196.76 58.12 L 197.06 58.89 L 197.37 59.64 L 197.67 60.37 L 197.97 61.07 L 198.27 61.75 L 198.58 62.41 L 198.88 63.05 L 199.18 63.67 L 199.48 64.27 L 199.79 64.85 L 200.09 65.42 L 200.39 65.97 L 200.69 66.50 L 201.00 67.01 L 201.30 67.52 L 201.60 68.00 L 201.90 68.48 L 202.21 68.94 L 202.51 69.38 L 202.81 69.82 L 203.11 70.24 L 203.42 70.65 L 203.72 71.05 L 204.02 71.44 L 204.32 71.81 L 204.63 72.18 L 204.93 72.54 L 205.23 72.89 L 205.54 73.22 L 205.84 73.55 L 206.14 73.88 L 206.44 74.19 L 206.75 74.49 L 207.05 74.79 L 207.35 75.08 L 207.65 75.36 L 207.96 75.64 L 208.26 75.91 L 208.56 76.17 L 208.86 76.42 L 209.17 76.67 L 209.47 76.92 L 209.77 77.15 L 210.07 77.39 L 210.38 77.61 L 210.68 77.83 L 210.98 78.05 L 211.28 78.26 L 211.59 78.46 L 211.89 78.66 L 212.19 78.86 L 212.49 79.05 L 212.80 79.24 L 213.10 79.42 L 213.40 79.60 L 213.70 79.77 L 214.01 79.95 L 214.31 80.11 L 214.61 80.28 L 214.91 80.44 L 215.22 80.59 L 215.52 80.75 L 215.82 80.89 L 216.12 81.04 L 216.43 81.18 L 216.73 81.32 L 217.03 81.46 L 217.33 81.60 L 217.64 81.73 L 217.94 81.86 L 218.24 81.98 L 218.55 82.11 L 218.85 82.23 L 219.15 82.35 L 219.45 82.46 L 219.76 82.58 L 220.06 82.69 L 220.36 82.80 L 220.66 82.91 L 220.97 83.01 L 221.27 83.11 L 221.57 83.21 L 221.87 83.31 L 222.18 83.41 L 222.48 83.51 L 222.78 83.60 L 223.08 83.69 L 223.39 83.78 L 223.69 83.87 L 223.99 83.96 L 224.29 84.04 L 224.60 84.12 L 224.90 84.21 L 225.20 84.29 L 225.50 84.36 L 225.81 84.44 L 226.11 84.52 L 226.41 84.59 L 226.71 84.67 L 227.02 84.74 L 227.32 84.81 L 227.62 84.88 L 227.92 84.95 L 228.23 85.01 L 228.53 85.08 L 228.83 85.14 L 229.13 85.21 L 229.44 85.27 L 229.74 85.33 L 230.04 85.39 L 230.34 85.45 L 230.65 85.51 L 230.95 85.57 L 231.25 85.62 L 231.56 85.68 L 231.86 85.73 L 232.16 85.78 L 232.46 85.84 L 232.77 85.89 L 233.07 85.94 L 233.37 85.99 L 233.67 86.04 L 233.98 86.09 L 234.28 86.14 L 234.58 86.18 L 234.88 86.23 L 235.19 86.27 L 235.49 86.32 L 235.79 86.36 L 236.09 86.41 L 236.40 86.45 L 236.70 86.49 L 237.00 86.53 L 237.30 86.57 L 237.61 86.61 L 237.91 86.65 L 238.21 86.69 L 238.51 86.73 L 238.82 86.77 L 239.12 86.80 L 239.42 86.84 L 239.72 86.87 L 240.03 86.91 L 240.33 86.94 L 240.63 86.98 L 240.93 87.01 L 241.24 87.05 L 241.54 87.08 L 241.84 87.11 L 242.14 87.14 L 242.45 87.17 L 242.75 87.20 L 243.05 87.24 L 243.35 87.27 L 243.66 87.29 L 243.96 87.32 L 244.26 87.35 L 244.57 87.38 L 244.87 87.41 L 245.17 87.44 L 245.47 87.46 L 245.78 87.49 L 246.08 87.52 L 246.38 87.54 L 246.68 87.57 L 246.99 87.59 L 247.29 87.62 L 247.59 87.64 L 247.89 87.67 L 248.20 87.69 L 248.50 87.71 L 248.80 87.74 L 249.10 87.76 L 249.41 87.78 L 249.71 87.81 L 250.01 87.83 L 250.31 87.85 L 250.62 87.87 L 250.92 87.89 L 251.22 87.91 L 251.52 87.93 L 251.83 87.95 L 252.13 87.97 L 252.43 87.99 L 252.73 88.01 L 253.04 88.03 L 253.34 88.05 L 253.64 88.07 L 253.94 88.09 L 254.25 88.11 L 254.55 88.13 L 254.85 88.14 L 255.15 88.16 L 255.46 88.18 L 255.76 88.20 L 256.06 88.21 L 256.36 88.23 L 256.67 88.25 L 256.97 88.26 L 257.27 88.28 L 257.58 88.30 L 257.88 88.31 L 258.18 88.33 L 258.48 88.34 L 258.79 88.36 L 259.09 88.37 L 259.39 88.39 L 259.69 88.40 L 260.00 88.42 L 260.30 88.43 L 260.60 88.44 L 260.90 88.46 L 261.21 88.47 L 261.51 88.49 L 261.81 88.50 L 262.11 88.51 L 262.42 88.53 L 262.72 88.54 L 263.02 88.55 L 263.32 88.56 L 263.63 88.58 L 263.93 88.59 L 264.23 88.60 L 264.53 88.61 L 264.84 88.63 L 265.14 88.64 L 265.44 88.65 L 265.74 88.66 L 266.05 88.67 L 266.35 88.68 L 266.65 88.69 L 266.95 88.71 L 267.26 88.72 L 267.56 88.73 L 267.86 88.74 L 268.16 88.75 L 268.47 88.76 L 268.77 88.77 L 269.07 88.78 L 269.37 88.79 L 269.68 88.80 L 269.98 88.81 L 270.28 88.82 L 270.59 88.83 L 270.89 88.84 L 271.19 88.85 L 271.49 88.86 L 271.80 88.87 L 272.10 88.88 L 272.40 88.88 L 272.70 88.89 L 273.01 88.90 L 273.31 88.91 L 273.61 88.92 L 273.91 88.93 L 274.22 88.94 L 274.52 88.95 L 274.82 88.95 L 275.12 88.96 L 275.43 88.97 L 275.73 88.98 L 276.03 88.99 L 276.33 88.99 L 276.64 89.00 L 276.94 89.01 L 277.24 89.02 L 277.54 89.02 L 277.85 89.03 L 278.15 89.04 L 278.45 89.05 L 278.75 89.05 L 279.06 89.06 L 279.36 89.07 L 279.66 89.08 L 279.96 89.08 L 280.27 89.09 L 280.57 89.10 L 280.87 89.10 L 281.17 89.11 L 281.48 89.12 L 281.78 89.12 L 282.08 89.13 L 282.38 89.14 L 282.69 89.14 L 282.99 89.15 L 283.29 89.15 L 283.60 89.16 L 283.90 89.17 L 284.20 89.17 L 284.50 89.18 L 284.81 89.19 L 285.11 89.19 L 285.41 89.20 L 285.71 89.20 L 286.02 89.21 L 286.32 89.21 L 286.62 89.22 L 286.92 89.23 L 287.23 89.23 L 287.53 89.24 L 287.83 89.24 L 288.13 89.25 L 288.44 89.25 L 288.74 89.26 L 289.04 89.26 L 289.34 89.27 L 289.65 89.27 L 289.95 89.28 L 290.25 89.28 L 290.55 89.29 L 290.86 89.29 L 291.16 89.30 L 291.46 89.30 L 291.76 89.31 L 292.07 89.31 L 292.37 89.32 L 292.67 89.32 L 292.97 89.33 L 293.28 89.33 L 293.58 89.34 L 293.88 89.34 L 294.18 89.34 L 294.49 89.35 L 294.79 89.35 L 295.09 89.36 L 295.39 89.36 L 295.70 89.37 L 296.00 89.37" fill="none" stroke="#5F6B7A" stroke-width="2.5" stroke-linecap="round" stroke-linejoin="round"/>
</svg>
