<svg xmlns="http://www.w3.org/2000/svg" viewBox="0 0 320 180" width="320" height="180">
  <rect width="320" height="180" fill="#F4F5F7"/>
  <path d="M 24.00 151.82 L 24.19 151.82 L 24.39 151.82 L 24.58 151.82 L 24.78 151.82 L 24.97 151.82 L 25.17 151.82 L 25.36 151.82 L 25.56 151.82 L 25.75 151.82 L 25.94 151.82 L 26.14 151.82 L 26.33 151.82 L 26.53 151.82 L 26.72 151.82 L 26.92 151.82 L 27.11 151.82 L 27.31 151.82 L 27.50 151.82 L 27.69 151.82 L 27.89 151.82 L 28.08 151.82 L 28.28 151.82 L 28.47 151.82 L 28.67 151.82 L 28.86 151.82 L 29.06 151.82 L 29.25 151.82 L 29.44 151.82 L 29.64 151.82 L 29.83 151.82 L 30.03 151.82 L 30.22 151.82 L 30.42 151.82 L 30.61 151.82 L 30.80 151.82 L 31.00 151.82 L 31.19 151.82 L 31.39 151.82 L 31.58 151.82 L 31.78 151.82 L 31.97 151.82 L 32.17 151.82 L 32.36 151.82 L 32.55 151.82 L 32.75 151.82 L 32.94 151.82 L 33.14 151.82 L 33.33 151.82 L 33.53 151.82 L 33.72 151.82 L 33.92 151.82 L 34.11 151.82 L 34.30 151.82 L 34.50 151.82 L 34.69 151.82 L 34.89 151.82 L 35.08 151.82 L 35.28 151.82 L 35.47 151.82 L 35.67 151.82 L 35.86 151.82 L 36.05 151.82 L 36.25 151.82 L 36.44 151.82 L 36.64 151.82 L 36.83 151.82 L 37.03 151.82 L 37.22 151.82 L 37.42 151.82 L 37.61 151.82 L 37.80 151.82 L 38.00 151.82 L 38.19 151.82 L 38.39 151.82 L 38.58 151.82 L 38.78 151.82 L 38.97 151.82 L 39.17 151.82 L 39.36 151.82 L 39.55 151.82 L 39.75 151.82 L 39.94 151.82 L 40.14 151.82 L 40.33 151.82 L 40.53 151.82 L 40.72 151.82 L 40.91 151.82 L 41.11 151.82 L 41.30 151.82 L 41.50 151.82 L 41.69 151.82 L 41.89 151.82 L 42.08 151.82 L 42.28 151.82 L 42.47 151.82 L 42.66 151.82 L 42.86 151.82 L 43.05 151.82 L 43.25 151.82 L 43.44 151.82 L 43.64 151.82 L 43.83 151.82 L 44.03 151.82 L 44.22 151.82 L 44.41 151.82 L 44.61 151.82 L 44.80 151.82 L 45.00 151.82 L 45.19 151.82 L 45.39 151.82 L 45.58 151.82 L 45.78 151.82 L 45.97 151.82 L 46.16 151.82 L 46.36 151.82 L 46.55 151.82 L 46.75 151.82 L 46.94 151.82 L 47.14 151.82 L 47.33 151.82 L 47.53 151.82 L 47.72 151.82 L 47.91 151.82 L 48.11 151.82 L 48.30 151.82 L 48.50 151.82 L 48.69 151.82 L 48.89 151.82 L 49.08 151.82 L 49.28 151.82 L 49.47 151.82 L 49.66 151.82 L 49.86 151.82 L 50.05 151.82 L 50.25 151.82 L 50.44 151.82 L 50.64 151.82 L 50.83 151.82 L 51.03 151.82 L 51.22 151.82 L 51.41 151.82 L 51.61 151.82 L 51.80 151.82 L 52.00 151.82 L 52.19 151.82 L 52.39 151.82 L 52.58 151.82 L 52.77 151.82 L 52.97 151.82 L 53.16 151.82 L 53.36 151.82 L 53.55 151.82 L 53.75 151.82 L 53.94 151.82 L 54.14 151.82 L 54.33 151.82 L 54.52 151.82 L 54.72 151.82 L 54.91 151.82 L 55.11 151.82 L 55.30 151.82 L 55.50 151.82 L 55.69 151.82 L 55.89 151.82 L 56.08 151.82 L 56.27 151.82 L 56.47 151.82 L 56.66 151.82 L 56.86 151.82 L 57.05 151.82 L 57.25 151.82 L 57.44 151.82 L 57.64 151.82 L 57.83 151.82 L 58.02 151.82 L 58.22 151.82 L 58.41 151.82 L 58.61 151.82 L 58.80 151.82 L 59.00 151.82 L 59.19 151.82 L 59.39 151.82 L 59.58 151.82 L 59.77 151.82 L 59.97 151.82 L 60.16 151.82 L 60.36 151.82 L 60.55 151.82 L 60.75 151.82 L 60.94 151.82 L 61.14 151.82 L 61.33 151.82 L 61.52 151.82 L 61.72 151.82 L 61.91 151.82 L 62.11 151.82 L 62.30 151.82 L 62.50 151.82 L 62.69 151.82 L 62.88 151.82 L 63.08 151.82 L 63.27 151.82 L 63.47 151.82 L 63.66 151.82 L 63.86 151.82 L 64.05 151.82 L 64.25 151.82 L 64.44 151.82 L 64.63 151.82 L 64.83 151.82 L 65.02 151.82 L 65.22 151.82 L 65.41 151.82 L 65.61 151.82 L 65.80 151.82 L 66.00 151.82 L 66.19 151.82 L 66.38 151.82 L 66.58 151.82 L 66.77 151.82 L 66.97 151.82 L 67.16 151.82 L 67.36 151.82 L 67.55 151.82 L 67.75 151.82 L 67.94 151.82 L 68.13 151.82 L 68.33 151.82 L 68.52 151.82 L 68.72 151.82 L 68.91 151.82 L 69.11 151.82 L 69.30 151.82 L 69.50 151.82 L 69.69 151.82 L 69.88 151.82 L 70.08 151.82 L 70.27 151.82 L 70.47 151.82 L 70.66 151.82 L 70.86 151.82 L 71.05 151.82 L 71.25 151.82 L 71.44 151.82 L 71.63 151.82 L 71.83 151.82 L 72.02 151.82 L 72.22 151.82 L 72.41 151.82 L 72.61 151.82 L 72.80 151.82 L 72.99 151.82 L 73.19 151.82 L 73.38 151.82 L 73.58 151.82 L 73.77 151.82 L 73.97 151.82 L 74.16 151.82 L 74.36 151.82 L 74.55 151.82 L 74.74 151.82 L 74.94 151.82 L 75.13 151.82 L 75.33 151.82 L 75.52 151.82 L 75.72 151.82 L 75.91 151.82 L 76.11 151.82 L 76.30 151.82 L 76.49 151.82 L 76.69 151.82 L 76.88 151.82 L 77.08 151.82 L 77.27 151.82 L 77.47 151.82 L 77.66 151.82 L 77.86 151.82 L 78.05 151.82 L 78.24 151.82 L 78.44 151.82 L 78.63 151.82 L 78.83 151.82 L 79.02 151.82 L 79.22 151.82 L 79.41 151.82 L 79.61 151.82 L 79.80 151.82 L 79.99 151.82 L 80.19 151.82 L 80.38 151.82 L 80.58 151.82 L 80.77 151.82 L 80.97 151.82 L 81.16 151.82 L 81.36 151.82 L 81.55 151.82 L 81.74 151.82 L 81.94 151.82 L 82.13 151.82 L 82.33 151.82 L 82.52 151.82 L 82.72 151.82 L 82.91 151.82 L 83.11 151.82 L 83.30 151.82 L 83.49 151.82 L 83.69 151.82 L 83.88 151.82 L 84.08 151.82 L 84.27 151.82 L 84.47 151.82 L 84.66 151.82 L 84.85 151.82 L 85.05 151.82 L 85.24 151.82 L 85.44 151.82 L 85.63 151.82 L 85.83 151.82 L 86.02 151.82 L 86.22 151.82 L 86.41 151.82 L 86.60 151.82 L 86.80 151.82 L 86.99 151.82 L 87.19 151.82 L 87.38 151.82 L 87.58 151.82 L 87.77 151.82 L 87.97 151.82 L 88.16 151.82 L 88.35 151.82 L 88.55 151.82 L 88.74 151.81 L 88.94 151.81 L 89.13 151.81 L 89.33 151.81 L 89.52 151.81 L 89.72 151.81 L 89.91 151.81 L 90.10 151.81 L 90.30 151.81 L 90.49 151.81 L 90.69 151.81 L 90.88 151.81 L 91.08 151.81 L 91.27 151.81 L 91.47 151.81 L 91.66 151.81 L 91.85 151.81 L 92.05 151.81 L 92.24 151.81 L 92.44 151.81 L 92.63 151.81 L 92.83 151.81 L 93.02 151.81 L 93.22 151.80 L 93.41 151.80 L 93.60 151.80 L 93.80 151.80 L 93.99 151.80 L 94.19 151.80 L 94.38 151.80 L 94.58 151.80 L 94.77 151.80 L 94.96 151.80 L 95.16 151.79 L 95.35 151.79 L 95.55 151.79 L 95.74 151.79 L 95.94 151.79 L 96.13 151.79 L 96.33 151.78 L 96.52 151.78 L 96.71 151.78 L 96.91 151.78 L 97.10 151.78 L 97.30 151.78 L 97.49 151.77 L 97.69 151.77 L 97.88 151.77 L 98.08 151.77 L 98.27 151.76 L 98.46 151.76 L 98.66 151.76 L 98.85 151.75 L 99.05 151.75 L 99.24 151.75 L 99.44 151.74 L 99.63 151.74 L 99.83 151.74 L 100.02 151.73 L 100.21 151.73 L 100.41 151.72 L 100.60 151.72 L 100.80 151.72 L 100.99 151.71 L 101.19 151.71 L 101.38 151.70 L 101.58 151.69 L 101.77 151.69 L 101.96 151.68 L 102.16 151.68 L 102.35 151.67 L 102.55 151.66 L 102.74 151.66 L 102.94 151.65 L 103.13 151.64 L 103.33 151.64 L 103.52 151.63 L 103.71 151.62 L 103.91 151.61 L 104.10 151.60 L 104.30 151.59 L 104.49 151.59 L 104.69 151.58 L 104.88 151.57 L 105.08 151.56 L 105.27 151.55 L 105.46 151.53 L 105.66 151.52 L 105.85 151.51 L 106.05 151.50 L 106.24 151.49 L 106.44 151.47 L 106.63 151.46 L 106.82 151.45 L 107.02 151.43 L 107.21 151.42 L 107.41 151.40 L 107.60 151.39 L 107.80 151.37 L 107.99 151.36 L 108.19 151.34 L 108.38 151.32 L 108.57 151.30 L 108.77 151.29 L 108.96 151.27 L 109.16 151.25 L 109.35 151.23 L 109.55 151.21 L 109.74 151.19 L 109.94 151.16 L 110.13 151.14 L 110.32 151.12 L 110.52 151.09 L 110.71 151.07 L 110.91 151.05 L 111.10 151.02 L 111.30 150.99 L 111.49 150.97 L 111.69 150.94 L 111.88 150.91 L 112.07 150.88 L 112.27 150.85 L 112.46 150.82 L 112.66 150.79 L 112.85 150.76 L 113.05 150.73 L 113.24 150.69 L 113.44 150.66 L 113.63 150.62 L 113.82 150.59 L 114.02 150.55 L 114.21 150.51 L 114.41 150.47 L 114.60 150.43 L 114.80 150.39 L 114.99 150.35 L 115.19 150.31 L 115.38 150.27 L 115.57 150.22 L 115.77 150.18 L 115.96 150.13 L 116.16 150.08 L 116.35 150.03 L 116.55 149.99 L 116.74 149.94 L 116.93 149.88 L 117.13 149.83 L 117.32 149.78 L 117.52 149.72 L 117.71 149.67 L 117.91 149.61 L 118.10 149.55 L 118.30 149.50 L 118.49 149.44 L 118.68 149.37 L 118.88 149.31 L 119.07 149.25 L 119.27 149.18 L 119.46 149.12 L 119.66 149.05 L 119.85 148.98 L 120.05 148.91 L 120.24 148.84 L 120.43 148.77 L 120.63 148.70 L 120.82 148.62 L 121.02 148.55 L 121.21 148.47 L 121.41 148.39 L 121.60 148.31 L 121.80 148.23 L 121.99 148.15 L 122.18 148.06 L 122.38 147.98 L 122.57 147.89 L 122.77 147.81 L 122.96 147.72 L 123.16 147.63 L 123.35 147.53 L 123.55 147.44 L 123.74 147.35 L 123.93 147.25 L 124.13 147.15 L 124.32 147.05 L 124.52 146.95 L 124.71 146.85 L 124.91 146.75 L 125.10 146.64 L 125.30 146.54 L 125.49 146.43 L 125.68 146.32 L 125.88 146.21 L 126.07 146.09 L 126.27 145.98 L 126.46 145.87 L 126.66 145.75 L 126.85 145.63 L 127.05 145.51 L 127.24 145.39 L 127.43 145.27 L 127.63 145.14 L 127.82 145.01 L 128.02 144.89 L 128.21 144.76 L 128.41 144.63 L 128.60 144.49 L 128.79 144.36 L 128.99 144.23 L 129.18 144.09 L 129.38 143.95 L 129.57 143.81 L 129.77 143.67 L 129.96 143.52 L 130.16 143.38 L 130.35 143.23 L 130.54 143.08 L 130.74 142.93 L 130.93 142.78 L 131.13 142.63 L 131.32 142.48 L 131.52 142.32 L 131.71 142.16 L 131.91 142.00 L 132.10 141.84 L 132.29 141.68 L 132.49 141.52 L 132.68 141.35 L 132.88 141.18 L 133.07 141.02 L 133.27 140.85 L 133.46 140.67 L 133.66 140.50 L 133.85 140.33 L 134.04 140.15 L 134.24 139.97 L 134.43 139.79 L 134.63 139.61 L 134.82 139.43 L 135.02 139.24 L 135.21 139.06 L 135.41 138.87 L 135.60 138.68 L 135.79 138.49 L 135.99 138.30 L 136.18 138.11 L 136.38 137.91 L 136.57 137.72 L 136.77 137.52 L 136.96 137.32 L 137.16 137.12 L 137.35 136.92 L 137.54 136.71 L 137.74 136.51 L 137.93 136.30 L 138.13 136.09 L 138.32 135.88 L 138.52 135.67 L 138.71 135.46 L 138.90 135.25 L 139.10 135.03 L 139.29 134.82 L 139.49 134.60 L 139.68 134.38 L 139.88 134.16 L 140.07 133.94 L 140.27 133.71 L 140.46 133.49 L 140.65 133.26 L 140.85 133.04 L 141.04 132.81 L 141.24 132.58 L 141.43 132.35 L 141.63 132.12 L 141.82 131.88 L 142.02 131.65 L 142.21 131.41 L 142.40 131.18 L 142.60 130.94 L 142.79 130.70 L 142.99 130.46 L 143.18 130.21 L 143.38 129.97 L 143.57 129.73 L 143.77 129.48 L 143.96 129.24 L 144.15 128.99 L 144.35 128.74 L 144.54 128.49 L 144.74 128.24 L 144.93 127.99 L 145.13 127.73 L 145.32 127.48 L 145.52 127.23 L 145.71 126.97 L 145.90 126.71 L 146.10 126.45 L 146.29 126.20 L 146.49 125.94 L 146.68 125.67 L 146.88 125.41 L 147.07 125.15 L 147.27 124.89 L 147.46 124.62 L 147.65 124.36 L 147.85 124.09 L 148.04 123.82 L 148.24 123.56 L 148.43 123.29 L 148.63 123.02 L 148.82 122.75 L 149.02 122.48 L 149.21 122.20 L 149.40 121.93 L 149.60 121.66 L 149.79 121.38 L 149.99 121.11 L 150.18 120.83 L 150.38 120.56 L 150.57 120.28 L 150.76 120.00 L 150.96 119.73 L 151.15 119.45 L 151.35 119.17 L 151.54 118.89 L 151.74 118.61 L 151.93 118.33 L 152.13 118.04 L 152.32 117.76 L 152.51 117.48 L 152.71 117.20 L 152.90 116.91 L 153.10 116.63 L 153.29 116.34 L 153.49 116.06 L 153.68 115.77 L 153.88 115.49 L 154.07 115.20 L 154.26 114.91 L 154.46 114.63 L 154.65 114.34 L 154.85 114.05 L 155.04 113.76 L 155.24 113.47 L 155.43 113.18 L 155.63 112.89 L 155.82 112.61 L 156.01 112.32 L 156.21 112.03 L 156.40 111.73 L 156.60 111.44 L 156.79 111.15 L 156.99 110.86 L 157.18 110.57 L 157.38 110.28 L 157.57 109.99 L 157.76 109.70 L 157.96 109.40 L 158.15 109.11 L 158.35 108.82 L 158.54 108.53 L 158.74 108.24 L 158.93 107.94 L 159.13 107.65 L 159.32 107.36 L 159.51 107.07 L 159.71 106.77 L 159.90 106.48 L 160.10 106.19 L 160.29 105.90 L 160.49 105.60 L 160.68 105.31 L 160.87 105.02 L 161.07 104.73 L 161.26 104.43 L 161.46 104.14 L 161.65 103.85 L 161.85 103.56 L 162.04 103.26 L 162.24 102.97 L 162.43 102.68 L 162.62 102.39 L 162.82 102.10 L 163.01 101.81 L 163.21 101.52 L 163.40 101.22 L 163.60 100.93 L 163.79 100.64 L 163.99 100.35 L 164.18 100.06 L 164.37 99.77 L 164.57 99.48 L 164.76 99.19 L 164.96 98.91 L 165.15 98.62 L 165.35 98.33 L 165.54 98.04 L 165.74 97.75 L 165.93 97.46 L 166.12 97.18 L 166.32 96.89 L 166.51 96.60 L 166.71 96.32 L 166.90 96.03 L 167.10 95.75 L 167.29 95.46 L 167.49 95.18 L 167.68 94.89 L 167.87 94.61 L 168.07 94.33 L 168.26 94.04 L 168.46 93.76 L 168.65 93.48 L 168.85 93.20 L 169.04 92.92 L 169.24 92.63 L 169.43 92.35 L 169.62 92.07 L 169.82 91.80 L 170.01 91.52 L 170.21 91.24 L 170.40 90.96 L 170.60 90.68 L 170.79 90.41 L 170.98 90.13 L 171.18 89.85 L 171.37 89.58 L 171.57 89.31 L 171.76 89.03 L 171.96 88.76 L 172.15 88.48 L 172.35 88.21 L 172.54 87.94 L 172.73 87.67 L 172.93 87.40 L 173.12 87.13 L 173.32 86.86 L 173.51 86.59 L 173.71 86.32 L 173.90 86.06 L 174.10 85.79 L 174.29 85.52 L 174.48 85.26 L 174.68 84.99 L 174.87 84.73 L 175.07 84.47 L 175.26 84.20 L 175.46 83.94 L 175.65 83.68 L 175.85 83.42 L 176.04 83.16 L 176.23 82.90 L 176.43 82.64 L 176.62 82.38 L 176.82 82.12 L 177.01 81.87 L 177.21 81.61 L 177.40 81.36 L 177.60 81.10 L 177.79 80.85 L 177.98 80.59 L 178.18 80.34 L 178.37 80.09 L 178.57 79.84 L 178.76 79.59 L 178.96 79.34 L 179.15 79.09 L 179.35 78.84 L 179.54 78.60 L 179.73 78.35 L 179.93 78.10 L 180.12 77.86 L 180.32 77.62 L 180.51 77.37 L 180.71 77.13 L 180.90 76.89 L 181.10 76.65 L 181.29 76.41 L 181.48 76.17 L 181.68 75.93 L 181.87 75.69 L 182.07 75.45 L 182.26 75.22 L 182.46 74.98 L 182.65 74.75 L 182.84 74.51 L 183.04 74.28 L 183.23 74.05 L 183.43 73.82 L 183.62 73.59 L 183.82 73.36 L 184.01 73.13 L 184.21 72.90 L 184.40 72.67 L 184.59 72.44 L 184.79 72.22 L 184.98 71.99 L 185.18 71.77 L 185.37 71.55 L 185.57 71.32 L 185.76 71.10 L 185.96 70.88 L 186.15 70.66 L 186.34 70.44 L 186.54 70.22 L 186.73 70.00 L 186.93 69.79 L 187.12 69.57 L 187.32 69.36 L 187.51 69.14 L 187.71 68.93 L 187.90 68.72 L 188.09 68.50 L 188.29 68.29 L 188.48 68.08 L 188.68 67.87 L 188.87 67.66 L 189.07 67.46 L 189.26 67.25 L 189.46 67.04 L 189.65 66.84 L 189.84 66.63 L 190.04 66.43 L 190.23 66.23 L 190.43 66.02 L 190.62 65.82 L 190.82 65.62 L 191.01 65.42 L 191.21 65.22 L 191.40 65.03 L 191.59 64.83 L 191.79 64.63 L 191.98 64.44 L 192.18 64.24 L 192.37 64.05 L 192.57 63.86 L 192.76 63.66 L 192.95 63.47 L 193.15 63.28 L 193.34 63.09 L 193.54 62.90 L 193.73 62.71 L 193.93 62.53 L 194.12 62.34 L 194.32 62.15 L 194.51 61.97 L 194.70 61.79 L 194.90 61.60 L 195.09 61.42 L 195.29 61.24 L 195.48 61.06 L 195.68 60.88 L 195.87 60.70 L 196.07 60.52 L 196.26 60.34 L 196.45 60.16 L 196.65 59.99 L 196.84 59.81 L 197.04 59.64 L 197.23 59.46 L 197.43 59.29 L 197.62 59.12 L 197.82 58.95 L 198.01 58.78 L 198.20 58.61 L 198.40 58.44 L 198.59 58.27 L 198.79 58.10 L 198.98 57.94 L 199.18 57.77 L 199.37 57.61 L 199.57 57.44 L 199.76 57.28 L 199.95 57.12 L 200.15 56.95 L 200.34 56.79 L 200.54 56.63 L 200.73 56.47 L 200.93 56.31 L 201.12 56.15 L 201.32 56.00 L 201.51 55.84 L 201.70 55.68 L 201.90 55.53 L 202.09 55.37 L 202.29 55.22 L 202.48 55.07 L 202.68 54.92 L 202.87 54.76 L 203.07 54.61 L 203.26 54.46 L 203.45 54.31 L 203.65 54.17 L 203.84 54.02 L 204.04 53.87 L 204.23 53.72 L 204.43 53.58 L 204.62 53.43 L 204.81 53.29 L 205.01 53.15 L 205.20 53.00 L 205.40 52.86 L 205.59 52.72 L 205.79 52.58 L 205.98 52.44 L 206.18 52.30 L 206.37 52.16 L 206.56 52.02 L 206.76 51.89 L 206.95 51.75 L 207.15 51.61 L 207.34 51.48 L 207.54 51.34 L 207.73 51.21 L 207.93 51.08 L 208.12 50.94 L 208.31 50.81 L 208.51 50.68 L 208.70 50.55 L 208.90 50.42 L 209.09 50.29 L 209.29 50.16 L 209.48 50.04 L 209.68 49.91 L 209.87 49.78 L 210.06 49.66 L 210.26 49.53 L 210.45 49.41 L 210.65 49.28 L 210.84 49.16 L 211.04 49.04 L 211.23 48.92 L 211.43 48.80 L 211.62 48.68 L 211.81 48.56 L 212.01 48.44 L 212.20 48.32 L 212.40 48.20 L 212.59 48.08 L 212.79 47.96 L 212.98 47.85 L 213.18 47.73 L 213.37 47.62 L 213.56 47.50 L 213.76 47.39 L 213.95 47.28 L 214.15 47.16 L 214.34 47.05 L 214.54 46.94 L 214.73 46.83 L 214.92 46.72 L 215.12 46.61 L 215.31 46.50 L 215.51 46.39 L 215.70 46.29 L 215.90 46.18 L 216.09 46.07 L 216.29 45.97 L 216.48 45.86 L 216.67 45.76 L 216.87 45.65 L 217.06 45.55 L 217.26 45.44 L 217.45 45.34 L 217.65 45.24 L 217.84 45.14 L 218.04 45.04 L 218.23 44.94 L 218.42 44.84 L 218.62 44.74 L 218.81 44.64 L 219.01 44.54 L 219.20 44.44 L 219.40 44.35 L 219.59 44.25 L 219.79 44.15 L 219.98 44.06 L 220.17 43.96 L 220.37 43.87 L 220.56 43.77 L 220.76 43.68 L 220.95 43.59 L 221.15 43.50 L 221.34 43.40 L 221.54 43.31 L 221.73 43.22 L 221.92 43.13 L 222.12 43.04 L 222.31 42.95 L 222.51 42.86 L 222.70 42.77 L 222.90 42.69 L 223.09 42.60 L 223.29 42.51 L 223.48 42.43 L 223.67 42.34 L 223.87 42.25 L 224.06 42.17 L 224.26 42.09 L 224.45 42.00 L 224.65 41.92 L 224.84 41.83 L 225.04 41.75 L 225.23 41.67 L 225.42 41.59 L 225.62 41.51 L 225.81 41.43 L 226.01 41.35 L 226.20 41.27 L 226.40 41.19 L 226.59 41.11 L 226.78 41.03 L 226.98 40.95 L 227.17 40.87 L 227.37 40.80 L 227.56 40.72 L 227.76 40.64 L 227.95 40.57 L 228.15 40.49 L 228.34 40.42 L 228.53 40.34 L 228.73 40.27 L 228.92 40.20 L 229.12 40.12 L 229.31 40.05 L 229.51 39.98 L 229.70 39.91 L 229.90 39.83 L 230.09 39.76 L 230.28 39.69 L 230.48 39.62 L 230.67 39.55 L 230.87 39.48 L 231.06 39.41 L 231.26 39.35 L 231.45 39.28 L 231.65 39.21 L 231.84 39.14 L 232.03 39.07 L 232.23 39.01 L 232.42 38.94 L 232.62 38.88 L 232.81 38.81 L 233.01 38.74 L 233.20 38.68 L 233.40 38.62 L 233.59 38.55 L 233.78 38.49 L 233.98 38.42 L 234.17 38.36 L 234.37 38.30 L 234.56 38.24 L 234.76 38.18 L 234.95 38.11 L 235.15 38.05 L 235.34 37.99 L 235.53 37.93 L 235.73 37.87 L 235.92 37.81 L 236.12 37.75 L 236.31 37.69 L 236.51 37.64 L 236.70 37.58 L 236.89 37.52 L 237.09 37.46 L 237.28 37.40 L 237.48 37.35 L 237.67 37.29 L 237.87 37.23 L 238.06 37.18 L 238.26 37.12 L 238.45 37.07 L 238.64 37.01 L 238.84 36.96 L 239.03 36.90 L 239.23 36.85 L 239.42 36.80 L 239.62 36.74 L 239.81 36.69 L 240.01 36.64 L 240.20 36.59 L 240.39 36.53 L 240.59 36.48 L 240.78 36.43 L 240.98 36.38 L 241.17 36.33 L 241.37 36.28 L 241.56 36.23 L 241.76 36.18 L 241.95 36.13 L 242.14 36.08 L 242.34 36.03 L 242.53 35.98 L 242.73 35.93 L 242.92 35.88 L 243.12 35.84 L 243.31 35.79 L 243.51 35.74 L 243.70 35.70 L 243.89 35.65 L 244.09 35.60 L 244.28 35.56 L 244.48 35.51 L 244.67 35.46 L 244.87 35.42 L 245.06 35.37 L 245.26 35.33 L 245.45 35.28 L 245.64 35.24 L 245.84 35.20 L 246.03 35.15 L 246.23 35.11 L 246.42 35.07 L 246.62 35.02 L 246.81 34.98 L 247.01 34.94 L 247.20 34.90 L 247.39 34.85 L 247.59 34.81 L 247.78 34.77 L 247.98 34.73 L 248.17 34.69 L 248.37 34.65 L 248.56 34.61 L 248.75 34.57 L 248.95 34.53 L 249.14 34.49 L 249.34 34.45 L 249.53 34.41 L 249.73 34.37 L 249.92 34.33 L 250.12 34.29 L 250.31 34.26 L 250.50 34.22 L 250.70 34.18 L 250.89 34.14 L 251.09 34.11 L 251.28 34.07 L 251.48 34.03 L 251.67 33.99 L 251.87 33.96 L 252.06 33.92 L 252.25 33.89 L 252.45 33.85 L 252.64 33.82 L 252.84 33.78 L 253.03 33.74 L 253.23 33.71 L 253.42 33.68 L 253.62 33.64 L 253.81 33.61 L 254.00 33.57 L 254.20 33.54 L 254.39 33.51 L 254.59 33.47 L 254.78 33.44 L 254.98 33.41 L 255.17 33.37 L 255.37 33.34 L 255.56 33.31 L 255.75 33.28 L 255.95 33.24 L 256.14 33.21 L 256.34 33.18 L 256.53 33.15 L 256.73 33.12 L 256.92 33.09 L 257.12 33.06 L 257.31 33.03 L 257.50 32.99 L 257.70 32.96 L 257.89 32.93 L 258.09 32.90 L 258.28 32.87 L 258.48 32.85 L 258.67 32.82 L 258.86 32.79 L 259.06 32.76 L 259.25 32.73 L 259.45 32.70 L 259.64 32.67 L 259.84 32.64 L 260.03 32.62 L 260.23 32.59 L 260.42 32.56 L 260.61 32.53 L 260.81 32.51 L 261.00 32.48 L 261.20 32.45 L 261.39 32.42 L 261.59 32.40 L 261.78 32.37 L 261.98 32.34 L 262.17 32.32 L 262.36 32.29 L 262.56 32.27 L 262.75 32.24 L 262.95 32.21 L 263.14 32.19 L 263.34 32.16 L 263.53 32.14 L 263.73 32.11 L 263.92 32.09 L 264.11 32.06 L 264.31 32.04 L 264.50 32.02 L 264.70 31.99 L 264.89 31.97 L 265.09 31.94 L 265.28 31.92 L 265.48 31.90 L 265.67 31.87 L 265.86 31.85 L 266.06 31.83 L 266.25 31.80 L 266.45 31.78 L 266.64 31.76 L 266.84 31.73 L 267.03 31.71 L 267.23 31.69 L 267.42 31.67 L 267.61 31.65 L 267.81 31.62 L 268.00 31.60 L 268.20 31.58 L 268.39 31.56 L 268.59 31.54 L 268.78 31.52 L 268.97 31.50 L 269.17 31.47 L 269.36 31.45 L 269.56 31.43 L 269.75 31.41 L 269.95 31.39 L 270.14 31.37 L 270.34 31.35 L 270.53 31.33 L 270.72 31.31 L 270.92 31.29 L 271.11 31.27 L 271.31 31.25 L 271.50 31.23 L 271.70 31.21 L 271.89 31.19 L 272.09 31.18 L 272.28 31.16 L 272.47 31.14 L 272.67 31.12 L 272.86 31.10 L 273.06 31.08 L 273.25 31.06 L 273.45 31.04 L 273.64 31.03 L 273.84 31.01 L 274.03 30.99 L 274.22 30.97 L 274.42 30.96 L 274.61 30.94 L 274.81 30.92 L 275.00 30.90 L 275.20 30.89 L 275.39 30.87 L 275.59 30.85 L 275.78 30.83 L 275.97 30.82 L 276.17 30.80 L 276.36 30.78 L 276.56 30.77 L 276.75 30.75 L 276.95 30.74 L 277.14 30.72 L 277.34 30.70 L 277.53 30.69 L 277.72 30.67 L 277.92 30.66 L 278.11 30.64 L 278.31 30.62 L 278.50 30.61 L 278.70 30.59 L 278.89 30.58 L 279.09 30.56 L 279.28 30.55 L 279.47 30.53 L 279.67 30.52 L 279.86 30.50 L 280.06 30.49 L 280.25 30.47 L 280.45 30.46 L 280.64 30.44 L 280.83 30.43 L 281.03 30.42 L 281.22 30.40 L 281.42 30.39 L 281.61 30.37 L 281.81 30.36 L 282.00 30.35 L 282.20 30.33 L 282.39 30.32 L 282.58 30.30 L 282.78 30.29 L 282.97 30.28 L 283.17 30.26 L 283.36 30.25 L 283.56 30.24 L 283.75 30.22 L 283.95 30.21 L 284.14 30.20 L 284.33 30.19 L 284.53 30.17 L 284.72 30.16 L 284.92 30.15 L 285.11 30.14 L 285.31 30.12 L 285.50 30.11 L 285.70 30.10 L 285.89 30.09 L 286.08 30.07 L 286.28 30.06 L 286.47 30.05 L 286.67 30.04 L 286.86 30.03 L 287.06 30.01 L 287.25 30.00 L 287.45 29.99 L 287.64 29.98 L 287.83 29.97 L 288.03 29.96 L 288.22 29.95 L 288.42 29.93 L 288.61 29.92 L 288.81 29.91 L 289.00 29.90 L 289.20 29.89 L 289.39 29.88 L 289.58 29.87 L 289.78 29.86 L 289.97 29.85 L 290.17 29.84 L 290.36 29.83 L 290.56 29.82 L 290.75 29.81 L 290.94 29.79 L 291.14 29.78 L 291.33 29.77 L 291.53 29.76 L 291.72 29.75 L 291.92 29.74 L 292.11 29.73 L 292.31 29.72 L 292.50 29.71 L 292.69 29.70 L 292.89 29.69 L 293.08 29.69 L 293.28 29.68 L 293.47 29.67 L 293.67 29.66 L 293.86 29.65 L 294.06 29.64 L 294.25 29.63 L 294.44 29.62 L 294.64 29.61 L 294.83 29.60 L 295.03 29.59 L 295.22 29.58 L 295.42 29.57 L 295.61 29.57 L 295.81 29.56 L 296.00 29.55" fill="none" stroke="#7E8692" stroke-width="2.3" stroke-linecap="round" stroke-linejoin="round"/>
</svg>
