<svg xmlns="http://www.w3.org/2000/svg" viewBox="0 0 320 180" width="320" height="180">
  <rect width="320" height="180" fill="#F4F5F7"/>
  <path d="M 24.00 90.00 L 24.17 90.52 L 24.34 91.03 L 24.51 91.54 L 24.68 92.06 L 24.85 92.57 L 25.02 93.08 L 25.19 93.58 L 25.36 94.09 L 25.53 94.59 L 25.70 95.10 L 25.87 95.60 L 26.04 96.10 L 26.21 96.59 L 26.38 97.09 L 26.55 97.59 L 26.72 98.08 L 26.89 98.57 L 27.06 99.06 L 27.23 99.55 L 27.40 100.03 L 27.57 100.52 L 27.74 101.00 L 27.91 101.48 L 28.08 101.95 L 28.25 102.43 L 28.42 102.90 L 28.59 103.38 L 28.76 103.85 L 28.93 104.31 L 29.10 104.78 L 29.27 105.24 L 29.44 105.70 L 29.61 106.16 L 29.78 106.62 L 29.95 107.07 L 30.12 107.52 L 30.29 107.97 L 30.46 108.42 L 30.63 108.87 L 30.80 109.31 L 30.97 109.75 L 31.14 110.19 L 31.31 110.62 L 31.48 111.05 L 31.65 111.48 L 31.82 111.91 L 31.99 112.34 L 32.17 112.76 L 32.34 113.18 L 32.51 113.60 L 32.68 114.01 L 32.85 114.42 L 33.02 114.83 L 33.19 115.24 L 33.36 115.64 L 33.53 116.04 L 33.70 116.44 L 33.87 116.84 L 34.04 117.23 L 34.21 117.62 L 34.38 118.00 L 34.55 118.39 L 34.72 118.77 L 34.89 119.15 L 35.06 119.52 L 35.23 119.90 L 35.40 120.27 L 35.57 120.63 L 35.74 120.99 L 35.91 121.36 L 36.08 121.71 L 36.25 122.07 L 36.42 122.42 L 36.59 122.77 L 36.76 123.11 L 36.93 123.45 L 37.10 123.79 L 37.27 124.13 L 37.44 124.46 L 37.61 124.79 L 37.78 125.11 L 37.95 125.44 L 38.12 125.76 L 38.29 126.07 L 38.46 126.39 L 38.63 126.70 L 38.80 127.00 L 38.97 127.31 L 39.14 127.61 L 39.31 127.90 L 39.48 128.20 L 39.65 128.49 L 39.82 128.77 L 39.99 129.06 L 40.16 129.34 L 40.33 129.61 L 40.50 129.89 L 40.67 130.16 L 40.84 130.42 L 41.01 130.69 L 41.18 130.95 L 41.35 131.20 L 41.52 131.45 L 41.69 131.70 L 41.86 131.95 L 42.03 132.19 L 42.20 132.43 L 42.37 132.67 L 42.54 132.90 L 42.71 133.13 L 42.88 133.35 L 43.05 133.57 L 43.22 133.79 L 43.39 134.00 L 43.56 134.21 L 43.73 134.42 L 43.90 134.63 L 44.07 134.83 L 44.24 135.02 L 44.41 135.22 L 44.58 135.41 L 44.75 135.59 L 44.92 135.77 L 45.09 135.95 L 45.26 136.13 L 45.43 136.30 L 45.60 136.47 L 45.77 136.63 L 45.94 136.79 L 46.11 136.95 L 46.28 137.10 L 46.45 137.25 L 46.62 137.40 L 46.79 137.54 L 46.96 137.68 L 47.13 137.82 L 47.30 137.95 L 47.47 138.08 L 47.64 138.21 L 47.81 138.33 L 47.98 138.45 L 48.16 138.56 L 48.33 138.67 L 48.50 138.78 L 48.67 138.88 L 48.84 138.98 L 49.01 139.08 L 49.18 139.17 L 49.35 139.26 L 49.52 139.35 L 49.69 139.43 L 49.86 139.51 L 50.03 139.59 L 50.20 139.66 L 50.37 139.73 L 50.54 139.79 L 50.71 139.85 L 50.88 139.91 L 51.05 139.97 L 51.22 140.02 L 51.39 140.06 L 51.56 140.11 L 51.73 140.15 L 51.90 140.19 L 52.07 140.22 L 52.24 140.25 L 52.41 140.28 L 52.58 140.30 L 52.75 140.32 L 52.92 140.34 L 53.09 140.35 L 53.26 140.36 L 53.43 140.36 L 53.60 140.37 L 53.77 140.37 L 53.94 140.36 L 54.11 140.35 L 54.28 140.34 L 54.45 140.33 L 54.62 140.31 L 54.79 140.29 L 54.96 140.27 L 55.13 140.24 L 55.30 140.21 L 55.47 140.18 L 55.64 140.14 L 55.81 140.10 L 55.98 140.06 L 56.15 140.01 L 56.32 139.96 L 56.49 139.91 L 56.66 139.85 L 56.83 139.79 L 57.00 139.73 L 57.17 139.66 L 57.34 139.59 L 57.51 139.52 L 57.68 139.45 L 57.85 139.37 L 58.02 139.29 L 58.19 139.20 L 58.36 139.12 L 58.53 139.03 L 58.70 138.93 L 58.87 138.84 L 59.04 138.74 L 59.21 138.64 L 59.38 138.53 L 59.55 138.42 L 59.72 138.31 L 59.89 138.20 L 60.06 138.08 L 60.23 137.96 L 60.40 137.84 L 60.57 137.72 L 60.74 137.59 L 60.91 137.46 L 61.08 137.32 L 61.25 137.19 L 61.42 137.05 L 61.59 136.91 L 61.76 136.76 L 61.93 136.62 L 62.10 136.47 L 62.27 136.32 L 62.44 136.16 L 62.61 136.00 L 62.78 135.84 L 62.95 135.68 L 63.12 135.52 L 63.29 135.35 L 63.46 135.18 L 63.63 135.01 L 63.80 134.83 L 63.97 134.65 L 64.15 134.47 L 64.32 134.29 L 64.49 134.11 L 64.66 133.92 L 64.83 133.73 L 65.00 133.54 L 65.17 133.35 L 65.34 133.15 L 65.51 132.95 L 65.68 132.75 L 65.85 132.55 L 66.02 132.34 L 66.19 132.14 L 66.36 131.93 L 66.53 131.72 L 66.70 131.50 L 66.87 131.29 L 67.04 131.07 L 67.21 130.85 L 67.38 130.63 L 67.55 130.41 L 67.72 130.18 L 67.89 129.96 L 68.06 129.73 L 68.23 129.50 L 68.40 129.26 L 68.57 129.03 L 68.74 128.79 L 68.91 128.55 L 69.08 128.31 L 69.25 128.07 L 69.42 127.83 L 69.59 127.58 L 69.76 127.34 L 69.93 127.09 L 70.10 126.84 L 70.27 126.59 L 70.44 126.33 L 70.61 126.08 L 70.78 125.82 L 70.95 125.56 L 71.12 125.31 L 71.29 125.05 L 71.46 124.78 L 71.63 124.52 L 71.80 124.25 L 71.97 123.99 L 72.14 123.72 L 72.31 123.45 L 72.48 123.18 L 72.65 122.91 L 72.82 122.64 L 72.99 122.36 L 73.16 122.09 L 73.33 121.81 L 73.50 121.54 L 73.67 121.26 L 73.84 120.98 L 74.01 120.70 L 74.18 120.42 L 74.35 120.14 L 74.52 119.85 L 74.69 119.57 L 74.86 119.28 L 75.03 119.00 L 75.20 118.71 L 75.37 118.42 L 75.54 118.13 L 75.71 117.84 L 75.88 117.55 L 76.05 117.26 L 76.22 116.97 L 76.39 116.68 L 76.56 116.38 L 76.73 116.09 L 76.90 115.80 L 77.07 115.50 L 77.24 115.21 L 77.41 114.91 L 77.58 114.61 L 77.75 114.32 L 77.92 114.02 L 78.09 113.72 L 78.26 113.42 L 78.43 113.12 L 78.60 112.82 L 78.77 112.52 L 78.94 112.22 L 79.11 111.92 L 79.28 111.62 L 79.45 111.32 L 79.62 111.02 L 79.79 110.72 L 79.96 110.42 L 80.14 110.12 L 80.31 109.81 L 80.48 109.51 L 80.65 109.21 L 80.82 108.91 L 80.99 108.61 L 81.16 108.30 L 81.33 108.00 L 81.50 107.70 L 81.67 107.40 L 81.84 107.09 L 82.01 106.79 L 82.18 106.49 L 82.35 106.19 L 82.52 105.89 L 82.69 105.59 L 82.86 105.29 L 83.03 104.98 L 83.20 104.68 L 83.37 104.38 L 83.54 104.08 L 83.71 103.78 L 83.88 103.48 L 84.05 103.19 L 84.22 102.89 L 84.39 102.59 L 84.56 102.29 L 84.73 101.99 L 84.90 101.70 L 85.07 101.40 L 85.24 101.11 L 85.41 100.81 L 85.58 100.52 L 85.75 100.22 L 85.92 99.93 L 86.09 99.63 L 86.26 99.34 L 86.43 99.05 L 86.60 98.76 L 86.77 98.47 L 86.94 98.18 L 87.11 97.89 L 87.28 97.60 L 87.45 97.32 L 87.62 97.03 L 87.79 96.75 L 87.96 96.46 L 88.13 96.18 L 88.30 95.89 L 88.47 95.61 L 88.64 95.33 L 88.81 95.05 L 88.98 94.77 L 89.15 94.49 L 89.32 94.22 L 89.49 93.94 L 89.66 93.67 L 89.83 93.39 L 90.00 93.12 L 90.17 92.85 L 90.34 92.58 L 90.51 92.31 L 90.68 92.04 L 90.85 91.77 L 91.02 91.51 L 91.19 91.24 L 91.36 90.98 L 91.53 90.72 L 91.70 90.45 L 91.87 90.19 L 92.04 89.94 L 92.21 89.68 L 92.38 89.42 L 92.55 89.17 L 92.72 88.91 L 92.89 88.66 L 93.06 88.41 L 93.23 88.16 L 93.40 87.91 L 93.57 87.67 L 93.74 87.42 L 93.91 87.18 L 94.08 86.94 L 94.25 86.70 L 94.42 86.46 L 94.59 86.22 L 94.76 85.98 L 94.93 85.75 L 95.10 85.52 L 95.27 85.29 L 95.44 85.06 L 95.61 84.83 L 95.78 84.60 L 95.95 84.38 L 96.13 84.15 L 96.30 83.93 L 96.47 83.71 L 96.64 83.49 L 96.81 83.27 L 96.98 83.06 L 97.15 82.85 L 97.32 82.63 L 97.49 82.42 L 97.66 82.22 L 97.83 82.01 L 98.00 81.80 L 98.17 81.60 L 98.34 81.40 L 98.51 81.20 L 98.68 81.00 L 98.85 80.81 L 99.02 80.61 L 99.19 80.42 L 99.36 80.23 L 99.53 80.04 L 99.70 79.85 L 99.87 79.67 L 100.04 79.48 L 100.21 79.30 L 100.38 79.12 L 100.55 78.95 L 100.72 78.77 L 100.89 78.60 L 101.06 78.42 L 101.23 78.25 L 101.40 78.08 L 101.57 77.92 L 101.74 77.75 L 101.91 77.59 L 102.08 77.43 L 102.25 77.27 L 102.42 77.12 L 102.59 76.96 L 102.76 76.81 L 102.93 76.66 L 103.10 76.51 L 103.27 76.36 L 103.44 76.22 L 103.61 76.07 L 103.78 75.93 L 103.95 75.79 L 104.12 75.65 L 104.29 75.52 L 104.46 75.39 L 104.63 75.26 L 104.80 75.13 L 104.97 75.00 L 105.14 74.87 L 105.31 74.75 L 105.48 74.63 L 105.65 74.51 L 105.82 74.39 L 105.99 74.28 L 106.16 74.16 L 106.33 74.05 L 106.50 73.94 L 106.67 73.84 L 106.84 73.73 L 107.01 73.63 L 107.18 73.53 L 107.35 73.43 L 107.52 73.33 L 107.69 73.24 L 107.86 73.14 L 108.03 73.05 L 108.20 72.96 L 108.37 72.87 L 108.54 72.79 L 108.71 72.71 L 108.88 72.62 L 109.05 72.55 L 109.22 72.47 L 109.39 72.39 L 109.56 72.32 L 109.73 72.25 L 109.90 72.18 L 110.07 72.11 L 110.24 72.05 L 110.41 71.98 L 110.58 71.92 L 110.75 71.86 L 110.92 71.80 L 111.09 71.75 L 111.26 71.70 L 111.43 71.64 L 111.60 71.59 L 111.77 71.55 L 111.94 71.50 L 112.12 71.46 L 112.29 71.41 L 112.46 71.37 L 112.63 71.34 L 112.80 71.30 L 112.97 71.27 L 113.14 71.23 L 113.31 71.20 L 113.48 71.17 L 113.65 71.15 L 113.82 71.12 L 113.99 71.10 L 114.16 71.08 L 114.33 71.06 L 114.50 71.04 L 114.67 71.02 L 114.84 71.01 L 115.01 71.00 L 115.18 70.99 L 115.35 70.98 L 115.52 70.97 L 115.69 70.97 L 115.86 70.96 L 116.03 70.96 L 116.20 70.96 L 116.37 70.97 L 116.54 70.97 L 116.71 70.97 L 116.88 70.98 L 117.05 70.99 L 117.22 71.00 L 117.39 71.01 L 117.56 71.03 L 117.73 71.04 L 117.90 71.06 L 118.07 71.08 L 118.24 71.10 L 118.41 71.12 L 118.58 71.15 L 118.75 71.17 L 118.92 71.20 L 119.09 71.23 L 119.26 71.26 L 119.43 71.29 L 119.60 71.32 L 119.77 71.36 L 119.94 71.39 L 120.11 71.43 L 120.28 71.47 L 120.45 71.51 L 120.62 71.55 L 120.79 71.60 L 120.96 71.64 L 121.13 71.69 L 121.30 71.73 L 121.47 71.78 L 121.64 71.83 L 121.81 71.89 L 121.98 71.94 L 122.15 72.00 L 122.32 72.05 L 122.49 72.11 L 122.66 72.17 L 122.83 72.23 L 123.00 72.29 L 123.17 72.35 L 123.34 72.42 L 123.51 72.48 L 123.68 72.55 L 123.85 72.61 L 124.02 72.68 L 124.19 72.75 L 124.36 72.82 L 124.53 72.90 L 124.70 72.97 L 124.87 73.05 L 125.04 73.12 L 125.21 73.20 L 125.38 73.28 L 125.55 73.35 L 125.72 73.43 L 125.89 73.52 L 126.06 73.60 L 126.23 73.68 L 126.40 73.77 L 126.57 73.85 L 126.74 73.94 L 126.91 74.02 L 127.08 74.11 L 127.25 74.20 L 127.42 74.29 L 127.59 74.38 L 127.76 74.47 L 127.93 74.56 L 128.11 74.66 L 128.28 74.75 L 128.45 74.85 L 128.62 74.94 L 128.79 75.04 L 128.96 75.14 L 129.13 75.23 L 129.30 75.33 L 129.47 75.43 L 129.64 75.53 L 129.81 75.63 L 129.98 75.73 L 130.15 75.84 L 130.32 75.94 L 130.49 76.04 L 130.66 76.14 L 130.83 76.25 L 131.00 76.35 L 131.17 76.46 L 131.34 76.57 L 131.51 76.67 L 131.68 76.78 L 131.85 76.89 L 132.02 76.99 L 132.19 77.10 L 132.36 77.21 L 132.53 77.32 L 132.70 77.43 L 132.87 77.54 L 133.04 77.65 L 133.21 77.76 L 133.38 77.87 L 133.55 77.98 L 133.72 78.10 L 133.89 78.21 L 134.06 78.32 L 134.23 78.43 L 134.40 78.55 L 134.57 78.66 L 134.74 78.77 L 134.91 78.89 L 135.08 79.00 L 135.25 79.11 L 135.42 79.23 L 135.59 79.34 L 135.76 79.46 L 135.93 79.57 L 136.10 79.68 L 136.27 79.80 L 136.44 79.91 L 136.61 80.03 L 136.78 80.14 L 136.95 80.26 L 137.12 80.37 L 137.29 80.48 L 137.46 80.60 L 137.63 80.71 L 137.80 80.83 L 137.97 80.94 L 138.14 81.05 L 138.31 81.17 L 138.48 81.28 L 138.65 81.39 L 138.82 81.51 L 138.99 81.62 L 139.16 81.73 L 139.33 81.85 L 139.50 81.96 L 139.67 82.07 L 139.84 82.18 L 140.01 82.29 L 140.18 82.41 L 140.35 82.52 L 140.52 82.63 L 140.69 82.74 L 140.86 82.85 L 141.03 82.96 L 141.20 83.07 L 141.37 83.17 L 141.54 83.28 L 141.71 83.39 L 141.88 83.50 L 142.05 83.60 L 142.22 83.71 L 142.39 83.82 L 142.56 83.92 L 142.73 84.03 L 142.90 84.13 L 143.07 84.24 L 143.24 84.34 L 143.41 84.44 L 143.58 84.54 L 143.75 84.65 L 143.92 84.75 L 144.10 84.85 L 144.27 84.95 L 144.44 85.04 L 144.61 85.14 L 144.78 85.24 L 144.95 85.34 L 145.12 85.43 L 145.29 85.53 L 145.46 85.62 L 145.63 85.72 L 145.80 85.81 L 145.97 85.90 L 146.14 86.00 L 146.31 86.09 L 146.48 86.18 L 146.65 86.27 L 146.82 86.35 L 146.99 86.44 L 147.16 86.53 L 147.33 86.62 L 147.50 86.70 L 147.67 86.78 L 147.84 86.87 L 148.01 86.95 L 148.18 87.03 L 148.35 87.11 L 148.52 87.19 L 148.69 87.27 L 148.86 87.35 L 149.03 87.43 L 149.20 87.50 L 149.37 87.58 L 149.54 87.65 L 149.71 87.72 L 149.88 87.79 L 150.05 87.87 L 150.22 87.94 L 150.39 88.00 L 150.56 88.07 L 150.73 88.14 L 150.90 88.20 L 151.07 88.27 L 151.24 88.33 L 151.41 88.40 L 151.58 88.46 L 151.75 88.52 L 151.92 88.58 L 152.09 88.63 L 152.26 88.69 L 152.43 88.75 L 152.60 88.80 L 152.77 88.85 L 152.94 88.91 L 153.11 88.96 L 153.28 89.01 L 153.45 89.06 L 153.62 89.10 L 153.79 89.15 L 153.96 89.20 L 154.13 89.24 L 154.30 89.28 L 154.47 89.32 L 154.64 89.37 L 154.81 89.40 L 154.98 89.44 L 155.15 89.48 L 155.32 89.52 L 155.49 89.55 L 155.66 89.58 L 155.83 89.61 L 156.00 89.65 L 156.17 89.67 L 156.34 89.70 L 156.51 89.73 L 156.68 89.76 L 156.85 89.78 L 157.02 89.80 L 157.19 89.82 L 157.36 89.85 L 157.53 89.86 L 157.70 89.88 L 157.87 89.90 L 158.04 89.91 L 158.21 89.93 L 158.38 89.94 L 158.55 89.95 L 158.72 89.96 L 158.89 89.97 L 159.06 89.98 L 159.23 89.99 L 159.40 89.99 L 159.57 90.00 L 159.74 90.00 L 159.91 90.00 L 160.09 90.00 L 160.26 90.00 L 160.43 90.00 L 160.60 89.99 L 160.77 89.99 L 160.94 89.98 L 161.11 89.97 L 161.28 89.96 L 161.45 89.95 L 161.62 89.94 L 161.79 89.93 L 161.96 89.91 L 162.13 89.90 L 162.30 89.88 L 162.47 89.86 L 162.64 89.85 L 162.81 89.82 L 162.98 89.80 L 163.15 89.78 L 163.32 89.76 L 163.49 89.73 L 163.66 89.70 L 163.83 89.67 L 164.00 89.65 L 164.17 89.61 L 164.34 89.58 L 164.51 89.55 L 164.68 89.52 L 164.85 89.48 L 165.02 89.44 L 165.19 89.40 L 165.36 89.37 L 165.53 89.32 L 165.70 89.28 L 165.87 89.24 L 166.04 89.20 L 166.21 89.15 L 166.38 89.10 L 166.55 89.06 L 166.72 89.01 L 166.89 88.96 L 167.06 88.91 L 167.23 88.85 L 167.40 88.80 L 167.57 88.75 L 167.74 88.69 L 167.91 88.63 L 168.08 88.58 L 168.25 88.52 L 168.42 88.46 L 168.59 88.40 L 168.76 88.33 L 168.93 88.27 L 169.10 88.20 L 169.27 88.14 L 169.44 88.07 L 169.61 88.00 L 169.78 87.94 L 169.95 87.87 L 170.12 87.79 L 170.29 87.72 L 170.46 87.65 L 170.63 87.58 L 170.80 87.50 L 170.97 87.43 L 171.14 87.35 L 171.31 87.27 L 171.48 87.19 L 171.65 87.11 L 171.82 87.03 L 171.99 86.95 L 172.16 86.87 L 172.33 86.78 L 172.50 86.70 L 172.67 86.62 L 172.84 86.53 L 173.01 86.44 L 173.18 86.35 L 173.35 86.27 L 173.52 86.18 L 173.69 86.09 L 173.86 86.00 L 174.03 85.90 L 174.20 85.81 L 174.37 85.72 L 174.54 85.62 L 174.71 85.53 L 174.88 85.43 L 175.05 85.34 L 175.22 85.24 L 175.39 85.14 L 175.56 85.04 L 175.73 84.95 L 175.90 84.85 L 176.08 84.75 L 176.25 84.65 L 176.42 84.54 L 176.59 84.44 L 176.76 84.34 L 176.93 84.24 L 177.10 84.13 L 177.27 84.03 L 177.44 83.92 L 177.61 83.82 L 177.78 83.71 L 177.95 83.60 L 178.12 83.50 L 178.29 83.39 L 178.46 83.28 L 178.63 83.17 L 178.80 83.07 L 178.97 82.96 L 179.14 82.85 L 179.31 82.74 L 179.48 82.63 L 179.65 82.52 L 179.82 82.41 L 179.99 82.29 L 180.16 82.18 L 180.33 82.07 L 180.50 81.96 L 180.67 81.85 L 180.84 81.73 L 181.01 81.62 L 181.18 81.51 L 181.35 81.39 L 181.52 81.28 L 181.69 81.17 L 181.86 81.05 L 182.03 80.94 L 182.20 80.83 L 182.37 80.71 L 182.54 80.60 L 182.71 80.48 L 182.88 80.37 L 183.05 80.26 L 183.22 80.14 L 183.39 80.03 L 183.56 79.91 L 183.73 79.80 L 183.90 79.68 L 184.07 79.57 L 184.24 79.46 L 184.41 79.34 L 184.58 79.23 L 184.75 79.11 L 184.92 79.00 L 185.09 78.89 L 185.26 78.77 L 185.43 78.66 L 185.60 78.55 L 185.77 78.43 L 185.94 78.32 L 186.11 78.21 L 186.28 78.10 L 186.45 77.98 L 186.62 77.87 L 186.79 77.76 L 186.96 77.65 L 187.13 77.54 L 187.30 77.43 L 187.47 77.32 L 187.64 77.21 L 187.81 77.10 L 187.98 76.99 L 188.15 76.89 L 188.32 76.78 L 188.49 76.67 L 188.66 76.57 L 188.83 76.46 L 189.00 76.35 L 189.17 76.25 L 189.34 76.14 L 189.51 76.04 L 189.68 75.94 L 189.85 75.84 L 190.02 75.73 L 190.19 75.63 L 190.36 75.53 L 190.53 75.43 L 190.70 75.33 L 190.87 75.23 L 191.04 75.14 L 191.21 75.04 L 191.38 74.94 L 191.55 74.85 L 191.72 74.75 L 191.89 74.66 L 192.07 74.56 L 192.24 74.47 L 192.41 74.38 L 192.58 74.29 L 192.75 74.20 L 192.92 74.11 L 193.09 74.02 L 193.26 73.94 L 193.43 73.85 L 193.60 73.77 L 193.77 73.68 L 193.94 73.60 L 194.11 73.52 L 194.28 73.43 L 194.45 73.35 L 194.62 73.28 L 194.79 73.20 L 194.96 73.12 L 195.13 73.05 L 195.30 72.97 L 195.47 72.90 L 195.64 72.82 L 195.81 72.75 L 195.98 72.68 L 196.15 72.61 L 196.32 72.55 L 196.49 72.48 L 196.66 72.42 L 196.83 72.35 L 197.00 72.29 L 197.17 72.23 L 197.34 72.17 L 197.51 72.11 L 197.68 72.05 L 197.85 72.00 L 198.02 71.94 L 198.19 71.89 L 198.36 71.83 L 198.53 71.78 L 198.70 71.73 L 198.87 71.69 L 199.04 71.64 L 199.21 71.60 L 199.38 71.55 L 199.55 71.51 L 199.72 71.47 L 199.89 71.43 L 200.06 71.39 L 200.23 71.36 L 200.40 71.32 L 200.57 71.29 L 200.74 71.26 L 200.91 71.23 L 201.08 71.20 L 201.25 71.17 L 201.42 71.15 L 201.59 71.12 L 201.76 71.10 L 201.93 71.08 L 202.10 71.06 L 202.27 71.04 L 202.44 71.03 L 202.61 71.01 L 202.78 71.00 L 202.95 70.99 L 203.12 70.98 L 203.29 70.97 L 203.46 70.97 L 203.63 70.97 L 203.80 70.96 L 203.97 70.96 L 204.14 70.96 L 204.31 70.97 L 204.48 70.97 L 204.65 70.98 L 204.82 70.99 L 204.99 71.00 L 205.16 71.01 L 205.33 71.02 L 205.50 71.04 L 205.67 71.06 L 205.84 71.08 L 206.01 71.10 L 206.18 71.12 L 206.35 71.15 L 206.52 71.17 L 206.69 71.20 L 206.86 71.23 L 207.03 71.27 L 207.20 71.30 L 207.37 71.34 L 207.54 71.37 L 207.71 71.41 L 207.88 71.46 L 208.06 71.50 L 208.23 71.55 L 208.40 71.59 L 208.57 71.64 L 208.74 71.70 L 208.91 71.75 L 209.08 71.80 L 209.25 71.86 L 209.42 71.92 L 209.59 71.98 L 209.76 72.05 L 209.93 72.11 L 210.10 72.18 L 210.27 72.25 L 210.44 72.32 L 210.61 72.39 L 210.78 72.47 L 210.95 72.55 L 211.12 72.62 L 211.29 72.71 L 211.46 72.79 L 211.63 72.87 L 211.80 72.96 L 211.97 73.05 L 212.14 73.14 L 212.31 73.24 L 212.48 73.33 L 212.65 73.43 L 212.82 73.53 L 212.99 73.63 L 213.16 73.73 L 213.33 73.84 L 213.50 73.94 L 213.67 74.05 L 213.84 74.16 L 214.01 74.28 L 214.18 74.39 L 214.35 74.51 L 214.52 74.63 L 214.69 74.75 L 214.86 74.87 L 215.03 75.00 L 215.20 75.13 L 215.37 75.26 L 215.54 75.39 L 215.71 75.52 L 215.88 75.65 L 216.05 75.79 L 216.22 75.93 L 216.39 76.07 L 216.56 76.22 L 216.73 76.36 L 216.90 76.51 L 217.07 76.66 L 217.24 76.81 L 217.41 76.96 L 217.58 77.12 L 217.75 77.27 L 217.92 77.43 L 218.09 77.59 L 218.26 77.75 L 218.43 77.92 L 218.60 78.08 L 218.77 78.25 L 218.94 78.42 L 219.11 78.60 L 219.28 78.77 L 219.45 78.95 L 219.62 79.12 L 219.79 79.30 L 219.96 79.48 L 220.13 79.67 L 220.30 79.85 L 220.47 80.04 L 220.64 80.23 L 220.81 80.42 L 220.98 80.61 L 221.15 80.81 L 221.32 81.00 L 221.49 81.20 L 221.66 81.40 L 221.83 81.60 L 222.00 81.80 L 222.17 82.01 L 222.34 82.22 L 222.51 82.42 L 222.68 82.63 L 222.85 82.85 L 223.02 83.06 L 223.19 83.27 L 223.36 83.49 L 223.53 83.71 L 223.70 83.93 L 223.87 84.15 L 224.05 84.38 L 224.22 84.60 L 224.39 84.83 L 224.56 85.06 L 224.73 85.29 L 224.90 85.52 L 225.07 85.75 L 225.24 85.98 L 225.41 86.22 L 225.58 86.46 L 225.75 86.70 L 225.92 86.94 L 226.09 87.18 L 226.26 87.42 L 226.43 87.67 L 226.60 87.91 L 226.77 88.16 L 226.94 88.41 L 227.11 88.66 L 227.28 88.91 L 227.45 89.17 L 227.62 89.42 L 227.79 89.68 L 227.96 89.94 L 228.13 90.19 L 228.30 90.45 L 228.47 90.72 L 228.64 90.98 L 228.81 91.24 L 228.98 91.51 L 229.15 91.77 L 229.32 92.04 L 229.49 92.31 L 229.66 92.58 L 229.83 92.85 L 230.00 93.12 L 230.17 93.39 L 230.34 93.67 L 230.51 93.94 L 230.68 94.22 L 230.85 94.49 L 231.02 94.77 L 231.19 95.05 L 231.36 95.33 L 231.53 95.61 L 231.70 95.89 L 231.87 96.18 L 232.04 96.46 L 232.21 96.75 L 232.38 97.03 L 232.55 97.32 L 232.72 97.60 L 232.89 97.89 L 233.06 98.18 L 233.23 98.47 L 233.40 98.76 L 233.57 99.05 L 233.74 99.34 L 233.91 99.63 L 234.08 99.93 L 234.25 100.22 L 234.42 100.52 L 234.59 100.81 L 234.76 101.11 L 234.93 101.40 L 235.10 101.70 L 235.27 101.99 L 235.44 102.29 L 235.61 102.59 L 235.78 102.89 L 235.95 103.19 L 236.12 103.48 L 236.29 103.78 L 236.46 104.08 L 236.63 104.38 L 236.80 104.68 L 236.97 104.98 L 237.14 105.29 L 237.31 105.59 L 237.48 105.89 L 237.65 106.19 L 237.82 106.49 L 237.99 106.79 L 238.16 107.09 L 238.33 107.40 L 238.50 107.70 L 238.67 108.00 L 238.84 108.30 L 239.01 108.61 L 239.18 108.91 L 239.35 109.21 L 239.52 109.51 L 239.69 109.81 L 239.86 110.12 L 240.04 110.42 L 240.21 110.72 L 240.38 111.02 L 240.55 111.32 L 240.72 111.62 L 240.89 111.92 L 241.06 112.22 L 241.23 112.52 L 241.40 112.82 L 241.57 113.12 L 241.74 113.42 L 241.91 113.72 L 242.08 114.02 L 242.25 114.32 L 242.42 114.61 L 242.59 114.91 L 242.76 115.21 L 242.93 115.50 L 243.10 115.80 L 243.27 116.09 L 243.44 116.38 L 243.61 116.68 L 243.78 116.97 L 243.95 117.26 L 244.12 117.55 L 244.29 117.84 L 244.46 118.13 L 244.63 118.42 L 244.80 118.71 L 244.97 119.00 L 245.14 119.28 L 245.31 119.57 L 245.48 119.85 L 245.65 120.14 L 245.82 120.42 L 245.99 120.70 L 246.16 120.98 L 246.33 121.26 L 246.50 121.54 L 246.67 121.81 L 246.84 122.09 L 247.01 122.36 L 247.18 122.64 L 247.35 122.91 L 247.52 123.18 L 247.69 123.45 L 247.86 123.72 L 248.03 123.99 L 248.20 124.25 L 248.37 124.52 L 248.54 124.78 L 248.71 125.05 L 248.88 125.31 L 249.05 125.56 L 249.22 125.82 L 249.39 126.08 L 249.56 126.33 L 249.73 126.59 L 249.90 126.84 L 250.07 127.09 L 250.24 127.34 L 250.41 127.58 L 250.58 127.83 L 250.75 128.07 L 250.92 128.31 L 251.09 128.55 L 251.26 128.79 L 251.43 129.03 L 251.60 129.26 L 251.77 129.50 L 251.94 129.73 L 252.11 129.96 L 252.28 130.18 L 252.45 130.41 L 252.62 130.63 L 252.79 130.85 L 252.96 131.07 L 253.13 131.29 L 253.30 131.50 L 253.47 131.72 L 253.64 131.93 L 253.81 132.14 L 253.98 132.34 L 254.15 132.55 L 254.32 132.75 L 254.49 132.95 L 254.66 133.15 L 254.83 133.35 L 255.00 133.54 L 255.17 133.73 L 255.34 133.92 L 255.51 134.11 L 255.68 134.29 L 255.85 134.47 L 256.03 134.65 L 256.20 134.83 L 256.37 135.01 L 256.54 135.18 L 256.71 135.35 L 256.88 135.52 L 257.05 135.68 L 257.22 135.84 L 257.39 136.00 L 257.56 136.16 L 257.73 136.32 L 257.90 136.47 L 258.07 136.62 L 258.24 136.76 L 258.41 136.91 L 258.58 137.05 L 258.75 137.19 L 258.92 137.32 L 259.09 137.46 L 259.26 137.59 L 259.43 137.72 L 259.60 137.84 L 259.77 137.96 L 259.94 138.08 L 260.11 138.20 L 260.28 138.31 L 260.45 138.42 L 260.62 138.53 L 260.79 138.64 L 260.96 138.74 L 261.13 138.84 L 261.30 138.93 L 261.47 139.03 L 261.64 139.12 L 261.81 139.20 L 261.98 139.29 L 262.15 139.37 L 262.32 139.45 L 262.49 139.52 L 262.66 139.59 L 262.83 139.66 L 263.00 139.73 L 263.17 139.79 L 263.34 139.85 L 263.51 139.91 L 263.68 139.96 L 263.85 140.01 L 264.02 140.06 L 264.19 140.10 L 264.36 140.14 L 264.53 140.18 L 264.70 140.21 L 264.87 140.24 L 265.04 140.27 L 265.21 140.29 L 265.38 140.31 L 265.55 140.33 L 265.72 140.34 L 265.89 140.35 L 266.06 140.36 L 266.23 140.37 L 266.40 140.37 L 266.57 140.36 L 266.74 140.36 L 266.91 140.35 L 267.08 140.34 L 267.25 140.32 L 267.42 140.30 L 267.59 140.28 L 267.76 140.25 L 267.93 140.22 L 268.10 140.19 L 268.27 140.15 L 268.44 140.11 L 268.61 140.06 L 268.78 140.02 L 268.95 139.97 L 269.12 139.91 L 269.29 139.85 L 269.46 139.79 L 269.63 139.73 L 269.80 139.66 L 269.97 139.59 L 270.14 139.51 L 270.31 139.43 L 270.48 139.35 L 270.65 139.26 L 270.82 139.17 L 270.99 139.08 L 271.16 138.98 L 271.33 138.88 L 271.50 138.78 L 271.67 138.67 L 271.84 138.56 L 272.02 138.45 L 272.19 138.33 L 272.36 138.21 L 272.53 138.08 L 272.70 137.95 L 272.87 137.82 L 273.04 137.68 L 273.21 137.54 L 273.38 137.40 L 273.55 137.25 L 273.72 137.10 L 273.89 136.95 L 274.06 136.79 L 274.23 136.63 L 274.40 136.47 L 274.57 136.30 L 274.74 136.13 L 274.91 135.95 L 275.08 135.77 L 275.25 135.59 L 275.42 135.41 L 275.59 135.22 L 275.76 135.02 L 275.93 134.83 L 276.10 134.63 L 276.27 134.42 L 276.44 134.21 L 276.61 134.00 L 276.78 133.79 L 276.95 133.57 L 277.12 133.35 L 277.29 133.13 L 277.46 132.90 L 277.63 132.67 L 277.80 132.43 L 277.97 132.19 L 278.14 131.95 L 278.31 131.70 L 278.48 131.45 L 278.65 131.20 L 278.82 130.95 L 278.99 130.69 L 279.16 130.42 L 279.33 130.16 L 279.50 129.89 L 279.67 129.61 L 279.84 129.34 L 280.01 129.06 L 280.18 128.77 L 280.35 128.49 L 280.52 128.20 L 280.69 127.90 L 280.86 127.61 L 281.03 127.31 L 281.20 127.00 L 281.37 126.70 L 281.54 126.39 L 281.71 126.07 L 281.88 125.76 L 282.05 125.44 L 282.22 125.11 L 282.39 124.79 L 282.56 124.46 L 282.73 124.13 L 282.90 123.79 L 283.07 123.45 L 283.24 123.11 L 283.41 122.77 L 283.58 122.42 L 283.75 122.07 L 283.92 121.71 L 284.09 121.36 L 284.26 120.99 L 284.43 120.63 L 284.60 120.27 L 284.77 119.90 L 284.94 119.52 L 285.11 119.15 L 285.28 118.77 L 285.45 118.39 L 285.62 118.00 L 285.79 117.62 L 285.96 117.23 L 286.13 116.84 L 286.30 116.44 L 286.47 116.04 L 286.64 115.64 L 286.81 115.24 L 286.98 114.83 L 287.15 114.42 L 287.32 114.01 L 287.49 113.60 L 287.66 113.18 L 287.83 112.76 L 288.01 112.34 L 288.18 111.91 L 288.35 111.48 L 288.52 111.05 L 288.69 110.62 L 288.86 110.19 L 289.03 109.75 L 289.20 109.31 L 289.37 108.87 L 289.54 108.42 L 289.71 107.97 L 289.88 107.52 L 290.05 107.07 L 290.22 106.62 L 290.39 106.16 L 290.56 105.70 L 290.73 105.24 L 290.90 104.78 L 291.07 104.31 L 291.24 103.85 L 291.41 103.38 L 291.58 102.90 L 291.75 102.43 L 291.92 101.95 L 292.09 101.48 L 292.26 101.00 L 292.43 100.52 L 292.60 100.03 L 292.77 99.55 L 292.94 99.06 L 293.11 98.57 L 293.28 98.08 L 293.45 97.59 L 293.62 97.09 L 293.79 96.59 L 293.96 96.10 L 294.13 95.60 L 294.30 95.10 L 294.47 94.59 L 294.64 94.09 L 294.81 93.58 L 294.98 93.08 L 295.15 92.57 L 295.32 92.06 L 295.49 91.54 L 295.66 91.03 L 295.83 90.52 L 296.00 90.00" fill="none" stroke="#7E8692" stroke-width="2.3" stroke-linecap="round" stroke-linejoin="round"/>
</svg>
