<svg xmlns="http://www.w3.org/2000/svg" viewBox="0 0 320 180" width="320" height="180">
  <rect width="320" height="180" fill="#F4F5F7"/>
  <path d="M 18.00 152.83 L 18.32 150.16 L 18.63 149.06 L 18.95 148.21 L 19.26 147.49 L 19.58 146.86 L 19.90 146.29 L 20.21 145.76 L 20.53 145.27 L 20.84 144.81 L 21.16 144.38 L 21.47 143.96 L 21.79 143.57 L 22.11 143.19 L 22.42 142.82 L 22.74 142.47 L 23.05 142.13 L 23.37 141.80 L 23.69 141.47 L 24.00 141.16 L 24.32 140.85 L 24.63 140.56 L 24.95 140.27 L 25.27 139.98 L 25.58 139.70 L 25.90 139.43 L 26.21 139.16 L 26.53 138.90 L 26.85 138.64 L 27.16 138.39 L 27.48 138.14 L 27.79 137.89 L 28.11 137.65 L 28.42 137.41 L 28.74 137.17 L 29.06 136.94 L 29.37 136.71 L 29.69 136.49 L 30.00 136.27 L 30.32 136.05 L 30.64 135.83 L 30.95 135.61 L 31.27 135.40 L 31.58 135.19 L 31.90 134.99 L 32.22 134.78 L 32.53 134.58 L 32.85 134.38 L 33.16 134.18 L 33.48 133.98 L 33.80 133.79 L 34.11 133.59 L 34.43 133.40 L 34.74 133.21 L 35.06 133.02 L 35.37 132.84 L 35.69 132.65 L 36.01 132.47 L 36.32 132.29 L 36.64 132.11 L 36.95 131.93 L 37.27 131.75 L 37.59 131.57 L 37.90 131.40 L 38.22 131.22 L 38.53 131.05 L 38.85 130.88 L 39.17 130.71 L 39.48 130.54 L 39.80 130.37 L 40.11 130.21 L 40.43 130.04 L 40.75 129.88 L 41.06 129.71 L 41.38 129.55 L 41.69 129.39 L 42.01 129.23 L 42.32 129.07 L 42.64 128.91 L 42.96 128.75 L 43.27 128.60 L 43.59 128.44 L 43.90 128.29 L 44.22 128.13 L 44.54 127.98 L 44.85 127.83 L 45.17 127.68 L 45.48 127.53 L 45.80 127.37 L 46.12 127.23 L 46.43 127.08 L 46.75 126.93 L 47.06 126.78 L 47.38 126.64 L 47.70 126.49 L 48.01 126.34 L 48.33 126.20 L 48.64 126.06 L 48.96 125.91 L 49.27 125.77 L 49.59 125.63 L 49.91 125.49 L 50.22 125.35 L 50.54 125.21 L 50.85 125.07 L 51.17 124.93 L 51.49 124.79 L 51.80 124.65 L 52.12 124.52 L 52.43 124.38 L 52.75 124.24 L 53.07 124.11 L 53.38 123.97 L 53.70 123.84 L 54.01 123.70 L 54.33 123.57 L 54.65 123.44 L 54.96 123.31 L 55.28 123.17 L 55.59 123.04 L 55.91 122.91 L 56.22 122.78 L 56.54 122.65 L 56.86 122.52 L 57.17 122.39 L 57.49 122.26 L 57.80 122.13 L 58.12 122.01 L 58.44 121.88 L 58.75 121.75 L 59.07 121.62 L 59.38 121.50 L 59.70 121.37 L 60.02 121.25 L 60.33 121.12 L 60.65 121.00 L 60.96 120.87 L 61.28 120.75 L 61.60 120.63 L 61.91 120.50 L 62.23 120.38 L 62.54 120.26 L 62.86 120.13 L 63.17 120.01 L 63.49 119.89 L 63.81 119.77 L 64.12 119.65 L 64.44 119.53 L 64.75 119.41 L 65.07 119.29 L 65.39 119.17 L 65.70 119.05 L 66.02 118.93 L 66.33 118.81 L 66.65 118.69 L 66.97 118.58 L 67.28 118.46 L 67.60 118.34 L 67.91 118.22 L 68.23 118.11 L 68.55 117.99 L 68.86 117.87 L 69.18 117.76 L 69.49 117.64 L 69.81 117.53 L 70.12 117.41 L 70.44 117.30 L 70.76 117.18 L 71.07 117.07 L 71.39 116.96 L 71.70 116.84 L 72.02 116.73 L 72.34 116.61 L 72.65 116.50 L 72.97 116.39 L 73.28 116.28 L 73.60 116.16 L 73.92 116.05 L 74.23 115.94 L 74.55 115.83 L 74.86 115.72 L 75.18 115.61 L 75.49 115.50 L 75.81 115.39 L 76.13 115.27 L 76.44 115.16 L 76.76 115.05 L 77.07 114.95 L 77.39 114.84 L 77.71 114.73 L 78.02 114.62 L 78.34 114.51 L 78.65 114.40 L 78.97 114.29 L 79.29 114.18 L 79.60 114.07 L 79.92 113.97 L 80.23 113.86 L 80.55 113.75 L 80.87 113.64 L 81.18 113.54 L 81.50 113.43 L 81.81 113.32 L 82.13 113.22 L 82.44 113.11 L 82.76 113.00 L 83.08 112.90 L 83.39 112.79 L 83.71 112.69 L 84.02 112.58 L 84.34 112.48 L 84.66 112.37 L 84.97 112.27 L 85.29 112.16 L 85.60 112.06 L 85.92 111.95 L 86.24 111.85 L 86.55 111.74 L 86.87 111.64 L 87.18 111.54 L 87.50 111.43 L 87.82 111.33 L 88.13 111.23 L 88.45 111.12 L 88.76 111.02 L 89.08 110.92 L 89.39 110.82 L 89.71 110.71 L 90.03 110.61 L 90.34 110.51 L 90.66 110.41 L 90.97 110.30 L 91.29 110.20 L 91.61 110.10 L 91.92 110.00 L 92.24 109.90 L 92.55 109.80 L 92.87 109.70 L 93.19 109.60 L 93.50 109.49 L 93.82 109.39 L 94.13 109.29 L 94.45 109.19 L 94.77 109.09 L 95.08 108.99 L 95.40 108.89 L 95.71 108.79 L 96.03 108.69 L 96.34 108.59 L 96.66 108.49 L 96.98 108.39 L 97.29 108.30 L 97.61 108.20 L 97.92 108.10 L 98.24 108.00 L 98.56 107.90 L 98.87 107.80 L 99.19 107.70 L 99.50 107.60 L 99.82 107.51 L 100.14 107.41 L 100.45 107.31 L 100.77 107.21 L 101.08 107.11 L 101.40 107.02 L 101.72 106.92 L 102.03 106.82 L 102.35 106.72 L 102.66 106.63 L 102.98 106.53 L 103.29 106.43 L 103.61 106.33 L 103.93 106.24 L 104.24 106.14 L 104.56 106.04 L 104.87 105.95 L 105.19 105.85 L 105.51 105.75 L 105.82 105.66 L 106.14 105.56 L 106.45 105.47 L 106.77 105.37 L 107.09 105.27 L 107.40 105.18 L 107.72 105.08 L 108.03 104.99 L 108.35 104.89 L 108.67 104.80 L 108.98 104.70 L 109.30 104.60 L 109.61 104.51 L 109.93 104.41 L 110.24 104.32 L 110.56 104.22 L 110.88 104.13 L 111.19 104.03 L 111.51 103.94 L 111.82 103.85 L 112.14 103.75 L 112.46 103.66 L 112.77 103.56 L 113.09 103.47 L 113.40 103.37 L 113.72 103.28 L 114.04 103.19 L 114.35 103.09 L 114.67 103.00 L 114.98 102.90 L 115.30 102.81 L 115.62 102.72 L 115.93 102.62 L 116.25 102.53 L 116.56 102.44 L 116.88 102.34 L 117.19 102.25 L 117.51 102.16 L 117.83 102.06 L 118.14 101.97 L 118.46 101.88 L 118.77 101.78 L 119.09 101.69 L 119.41 101.60 L 119.72 101.50 L 120.04 101.41 L 120.35 101.32 L 120.67 101.23 L 120.99 101.13 L 121.30 101.04 L 121.62 100.95 L 121.93 100.86 L 122.25 100.76 L 122.57 100.67 L 122.88 100.58 L 123.20 100.49 L 123.51 100.39 L 123.83 100.30 L 124.14 100.21 L 124.46 100.12 L 124.78 100.03 L 125.09 99.93 L 125.41 99.84 L 125.72 99.75 L 126.04 99.66 L 126.36 99.57 L 126.67 99.48 L 126.99 99.39 L 127.30 99.29 L 127.62 99.20 L 127.94 99.11 L 128.25 99.02 L 128.57 98.93 L 128.88 98.84 L 129.20 98.75 L 129.52 98.65 L 129.83 98.56 L 130.15 98.47 L 130.46 98.38 L 130.78 98.29 L 131.09 98.20 L 131.41 98.11 L 131.73 98.02 L 132.04 97.93 L 132.36 97.84 L 132.67 97.75 L 132.99 97.66 L 133.31 97.56 L 133.62 97.47 L 133.94 97.38 L 134.25 97.29 L 134.57 97.20 L 134.89 97.11 L 135.20 97.02 L 135.52 96.93 L 135.83 96.84 L 136.15 96.75 L 136.46 96.66 L 136.78 96.57 L 137.10 96.48 L 137.41 96.39 L 137.73 96.30 L 138.04 96.21 L 138.36 96.12 L 138.68 96.03 L 138.99 95.94 L 139.31 95.85 L 139.62 95.76 L 139.94 95.67 L 140.26 95.58 L 140.57 95.49 L 140.89 95.40 L 141.20 95.31 L 141.52 95.22 L 141.84 95.13 L 142.15 95.04 L 142.47 94.95 L 142.78 94.86 L 143.10 94.77 L 143.41 94.68 L 143.73 94.59 L 144.05 94.50 L 144.36 94.41 L 144.68 94.32 L 144.99 94.23 L 145.31 94.15 L 145.63 94.06 L 145.94 93.97 L 146.26 93.88 L 146.57 93.79 L 146.89 93.70 L 147.21 93.61 L 147.52 93.52 L 147.84 93.43 L 148.15 93.34 L 148.47 93.25 L 148.79 93.16 L 149.10 93.07 L 149.42 92.98 L 149.73 92.89 L 150.05 92.81 L 150.36 92.72 L 150.68 92.63 L 151.00 92.54 L 151.31 92.45 L 151.63 92.36 L 151.94 92.27 L 152.26 92.18 L 152.58 92.09 L 152.89 92.00 L 153.21 91.91 L 153.52 91.82 L 153.84 91.74 L 154.16 91.65 L 154.47 91.56 L 154.79 91.47 L 155.10 91.38 L 155.42 91.29 L 155.74 91.20 L 156.05 91.11 L 156.37 91.02 L 156.68 90.93 L 157.00 90.85 L 157.31 90.76 L 157.63 90.67 L 157.95 90.58 L 158.26 90.49 L 158.58 90.40 L 158.89 90.31 L 159.21 90.22 L 159.53 90.13 L 159.84 90.04 L 160.16 89.96 L 160.47 89.87 L 160.79 89.78 L 161.11 89.69 L 161.42 89.60 L 161.74 89.51 L 162.05 89.42 L 162.37 89.33 L 162.69 89.24 L 163.00 89.15 L 163.32 89.07 L 163.63 88.98 L 163.95 88.89 L 164.26 88.80 L 164.58 88.71 L 164.90 88.62 L 165.21 88.53 L 165.53 88.44 L 165.84 88.35 L 166.16 88.26 L 166.48 88.18 L 166.79 88.09 L 167.11 88.00 L 167.42 87.91 L 167.74 87.82 L 168.06 87.73 L 168.37 87.64 L 168.69 87.55 L 169.00 87.46 L 169.32 87.37 L 169.64 87.28 L 169.95 87.19 L 170.27 87.11 L 170.58 87.02 L 170.90 86.93 L 171.21 86.84 L 171.53 86.75 L 171.85 86.66 L 172.16 86.57 L 172.48 86.48 L 172.79 86.39 L 173.11 86.30 L 173.43 86.21 L 173.74 86.12 L 174.06 86.03 L 174.37 85.94 L 174.69 85.85 L 175.01 85.77 L 175.32 85.68 L 175.64 85.59 L 175.95 85.50 L 176.27 85.41 L 176.59 85.32 L 176.90 85.23 L 177.22 85.14 L 177.53 85.05 L 177.85 84.96 L 178.16 84.87 L 178.48 84.78 L 178.80 84.69 L 179.11 84.60 L 179.43 84.51 L 179.74 84.42 L 180.06 84.33 L 180.38 84.24 L 180.69 84.15 L 181.01 84.06 L 181.32 83.97 L 181.64 83.88 L 181.96 83.79 L 182.27 83.70 L 182.59 83.61 L 182.90 83.52 L 183.22 83.43 L 183.54 83.34 L 183.85 83.25 L 184.17 83.16 L 184.48 83.07 L 184.80 82.98 L 185.11 82.89 L 185.43 82.80 L 185.75 82.71 L 186.06 82.62 L 186.38 82.53 L 186.69 82.44 L 187.01 82.34 L 187.33 82.25 L 187.64 82.16 L 187.96 82.07 L 188.27 81.98 L 188.59 81.89 L 188.91 81.80 L 189.22 81.71 L 189.54 81.62 L 189.85 81.53 L 190.17 81.44 L 190.48 81.35 L 190.80 81.25 L 191.12 81.16 L 191.43 81.07 L 191.75 80.98 L 192.06 80.89 L 192.38 80.80 L 192.70 80.71 L 193.01 80.61 L 193.33 80.52 L 193.64 80.43 L 193.96 80.34 L 194.28 80.25 L 194.59 80.16 L 194.91 80.07 L 195.22 79.97 L 195.54 79.88 L 195.86 79.79 L 196.17 79.70 L 196.49 79.61 L 196.80 79.51 L 197.12 79.42 L 197.43 79.33 L 197.75 79.24 L 198.07 79.14 L 198.38 79.05 L 198.70 78.96 L 199.01 78.87 L 199.33 78.77 L 199.65 78.68 L 199.96 78.59 L 200.28 78.50 L 200.59 78.40 L 200.91 78.31 L 201.23 78.22 L 201.54 78.12 L 201.86 78.03 L 202.17 77.94 L 202.49 77.84 L 202.81 77.75 L 203.12 77.66 L 203.44 77.56 L 203.75 77.47 L 204.07 77.38 L 204.38 77.28 L 204.70 77.19 L 205.02 77.10 L 205.33 77.00 L 205.65 76.91 L 205.96 76.81 L 206.28 76.72 L 206.60 76.63 L 206.91 76.53 L 207.23 76.44 L 207.54 76.34 L 207.86 76.25 L 208.18 76.15 L 208.49 76.06 L 208.81 75.97 L 209.12 75.87 L 209.44 75.78 L 209.76 75.68 L 210.07 75.59 L 210.39 75.49 L 210.70 75.40 L 211.02 75.30 L 211.33 75.20 L 211.65 75.11 L 211.97 75.01 L 212.28 74.92 L 212.60 74.82 L 212.91 74.73 L 213.23 74.63 L 213.55 74.53 L 213.86 74.44 L 214.18 74.34 L 214.49 74.25 L 214.81 74.15 L 215.13 74.05 L 215.44 73.96 L 215.76 73.86 L 216.07 73.76 L 216.39 73.67 L 216.71 73.57 L 217.02 73.47 L 217.34 73.37 L 217.65 73.28 L 217.97 73.18 L 218.28 73.08 L 218.60 72.98 L 218.92 72.89 L 219.23 72.79 L 219.55 72.69 L 219.86 72.59 L 220.18 72.49 L 220.50 72.40 L 220.81 72.30 L 221.13 72.20 L 221.44 72.10 L 221.76 72.00 L 222.08 71.90 L 222.39 71.80 L 222.71 71.70 L 223.02 71.61 L 223.34 71.51 L 223.66 71.41 L 223.97 71.31 L 224.29 71.21 L 224.60 71.11 L 224.92 71.01 L 225.23 70.91 L 225.55 70.81 L 225.87 70.71 L 226.18 70.61 L 226.50 70.51 L 226.81 70.40 L 227.13 70.30 L 227.45 70.20 L 227.76 70.10 L 228.08 70.00 L 228.39 69.90 L 228.71 69.80 L 229.03 69.70 L 229.34 69.59 L 229.66 69.49 L 229.97 69.39 L 230.29 69.29 L 230.61 69.18 L 230.92 69.08 L 231.24 68.98 L 231.55 68.88 L 231.87 68.77 L 232.18 68.67 L 232.50 68.57 L 232.82 68.46 L 233.13 68.36 L 233.45 68.26 L 233.76 68.15 L 234.08 68.05 L 234.40 67.94 L 234.71 67.84 L 235.03 67.73 L 235.34 67.63 L 235.66 67.52 L 235.98 67.42 L 236.29 67.31 L 236.61 67.21 L 236.92 67.10 L 237.24 67.00 L 237.56 66.89 L 237.87 66.78 L 238.19 66.68 L 238.50 66.57 L 238.82 66.46 L 239.13 66.36 L 239.45 66.25 L 239.77 66.14 L 240.08 66.03 L 240.40 65.93 L 240.71 65.82 L 241.03 65.71 L 241.35 65.60 L 241.66 65.49 L 241.98 65.38 L 242.29 65.27 L 242.61 65.16 L 242.93 65.05 L 243.24 64.95 L 243.56 64.84 L 243.87 64.73 L 244.19 64.61 L 244.51 64.50 L 244.82 64.39 L 245.14 64.28 L 245.45 64.17 L 245.77 64.06 L 246.08 63.95 L 246.40 63.84 L 246.72 63.72 L 247.03 63.61 L 247.35 63.50 L 247.66 63.39 L 247.98 63.27 L 248.30 63.16 L 248.61 63.04 L 248.93 62.93 L 249.24 62.82 L 249.56 62.70 L 249.88 62.59 L 250.19 62.47 L 250.51 62.36 L 250.82 62.24 L 251.14 62.13 L 251.45 62.01 L 251.77 61.89 L 252.09 61.78 L 252.40 61.66 L 252.72 61.54 L 253.03 61.42 L 253.35 61.31 L 253.67 61.19 L 253.98 61.07 L 254.30 60.95 L 254.61 60.83 L 254.93 60.71 L 255.25 60.59 L 255.56 60.47 L 255.88 60.35 L 256.19 60.23 L 256.51 60.11 L 256.83 59.99 L 257.14 59.87 L 257.46 59.74 L 257.77 59.62 L 258.09 59.50 L 258.40 59.37 L 258.72 59.25 L 259.04 59.13 L 259.35 59.00 L 259.67 58.88 L 259.98 58.75 L 260.30 58.63 L 260.62 58.50 L 260.93 58.38 L 261.25 58.25 L 261.56 58.12 L 261.88 57.99 L 262.20 57.87 L 262.51 57.74 L 262.83 57.61 L 263.14 57.48 L 263.46 57.35 L 263.78 57.22 L 264.09 57.09 L 264.41 56.96 L 264.72 56.83 L 265.04 56.69 L 265.35 56.56 L 265.67 56.43 L 265.99 56.30 L 266.30 56.16 L 266.62 56.03 L 266.93 55.89 L 267.25 55.76 L 267.57 55.62 L 267.88 55.48 L 268.20 55.35 L 268.51 55.21 L 268.83 55.07 L 269.15 54.93 L 269.46 54.79 L 269.78 54.65 L 270.09 54.51 L 270.41 54.37 L 270.73 54.23 L 271.04 54.09 L 271.36 53.94 L 271.67 53.80 L 271.99 53.66 L 272.30 53.51 L 272.62 53.36 L 272.94 53.22 L 273.25 53.07 L 273.57 52.92 L 273.88 52.77 L 274.20 52.63 L 274.52 52.47 L 274.83 52.32 L 275.15 52.17 L 275.46 52.02 L 275.78 51.87 L 276.10 51.71 L 276.41 51.56 L 276.73 51.40 L 277.04 51.25 L 277.36 51.09 L 277.68 50.93 L 277.99 50.77 L 278.31 50.61 L 278.62 50.45 L 278.94 50.29 L 279.25 50.12 L 279.57 49.96 L 279.89 49.79 L 280.20 49.63 L 280.52 49.46 L 280.83 49.29 L 281.15 49.12 L 281.47 48.95 L 281.78 48.78 L 282.10 48.60 L 282.41 48.43 L 282.73 48.25 L 283.05 48.07 L 283.36 47.89 L 283.68 47.71 L 283.99 47.53 L 284.31 47.35 L 284.63 47.16 L 284.94 46.98 L 285.26 46.79 L 285.57 46.60 L 285.89 46.41 L 286.20 46.21 L 286.52 46.02 L 286.84 45.82 L 287.15 45.62 L 287.47 45.42 L 287.78 45.22 L 288.10 45.01 L 288.42 44.81 L 288.73 44.60 L 289.05 44.39 L 289.36 44.17 L 289.68 43.95 L 290.00 43.73 L 290.31 43.51 L 290.63 43.29 L 290.94 43.06 L 291.26 42.83 L 291.58 42.59 L 291.89 42.35 L 292.21 42.11 L 292.52 41.86 L 292.84 41.61 L 293.15 41.36 L 293.47 41.10 L 293.79 40.84 L 294.10 40.57 L 294.42 40.30 L 294.73 40.02 L 295.05 39.73 L 295.37 39.44 L 295.68 39.15 L 296.00 38.84 L 296.31 38.53 L 296.63 38.20 L 296.95 37.87 L 297.26 37.53 L 297.58 37.18 L 297.89 36.81 L 298.21 36.43 L 298.53 36.04 L 298.84 35.62 L 299.16 35.19 L 299.47 34.73 L 299.79 34.24 L 300.10 33.71 L 300.42 33.14 L 300.74 32.51 L 301.05 31.79 L 301.37 30.94 L 301.68 29.84 L 302.00 27.17" fill="none" stroke="#7E8692" stroke-width="2.3" stroke-linecap="round" stroke-linejoin="round"/>
</svg>
