<svg xmlns="http://www.w3.org/2000/svg" viewBox="0 0 320 180" width="320" height="180">
  <rect width="320" height="180" fill="#F4F5F7"/>
  <path d="M 59.38 -220.24 L 59.70 -217.75 L 60.02 -215.29 L 60.33 -212.85 L 60.65 -210.42 L 60.96 -208.02 L 61.28 -205.63 L 61.60 -203.27 L 61.91 -200.92 L 62.23 -198.59 L 62.54 -196.28 L 62.86 -193.99 L 63.17 -191.72 L 63.49 -189.46 L 63.81 -187.23 L 64.12 -185.01 L 64.44 -182.81 L 64.75 -180.62 L 65.07 -178.46 L 65.39 -176.31 L 65.70 -174.18 L 66.02 -172.06 L 66.33 -169.97 L 66.65 -167.89 L 66.97 -165.82 L 67.28 -163.77 L 67.60 -161.74 L 67.91 -159.73 L 68.23 -157.73 L 68.55 -155.75 L 68.86 -153.78 L 69.18 -151.83 L 69.49 -149.89 L 69.81 -147.97 L 70.12 -146.07 L 70.44 -144.18 L 70.76 -142.31 L 71.07 -140.45 L 71.39 -138.60 L 71.70 -136.77 L 72.02 -134.96 L 72.34 -133.16 L 72.65 -131.37 L 72.97 -129.60 L 73.28 -127.84 L 73.60 -126.10 L 73.92 -124.37 L 74.23 -122.65 L 74.55 -120.95 L 74.86 -119.26 L 75.18 -117.59 L 75.49 -115.93 L 75.81 -114.28 L 76.13 -112.65 L 76.44 -111.02 L 76.76 -109.41 L 77.07 -107.82 L 77.39 -106.24 L 77.71 -104.66 L 78.02 -103.11 L 78.34 -101.56 L 78.65 -100.03 L 78.97 -98.51 L 79.29 -97.00 L 79.60 -95.50 L 79.92 -94.02 L 80.23 -92.54 L 80.55 -91.08 L 80.87 -89.63 L 81.18 -88.20 L 81.50 -86.77 L 81.81 -85.36 L 82.13 -83.95 L 82.44 -82.56 L 82.76 -81.18 L 83.08 -79.81 L 83.39 -78.45 L 83.71 -77.10 L 84.02 -75.76 L 84.34 -74.44 L 84.66 -73.12 L 84.97 -71.82 L 85.29 -70.52 L 85.60 -69.24 L 85.92 -67.96 L 86.24 -66.70 L 86.55 -65.44 L 86.87 -64.20 L 87.18 -62.97 L 87.50 -61.74 L 87.82 -60.53 L 88.13 -59.32 L 88.45 -58.13 L 88.76 -56.94 L 89.08 -55.77 L 89.39 -54.60 L 89.71 -53.44 L 90.03 -52.29 L 90.34 -51.16 L 90.66 -50.03 L 90.97 -48.91 L 91.29 -47.79 L 91.61 -46.69 L 91.92 -45.60 L 92.24 -44.51 L 92.55 -43.44 L 92.87 -42.37 L 93.19 -41.31 L 93.50 -40.26 L 93.82 -39.21 L 94.13 -38.18 L 94.45 -37.15 L 94.77 -36.14 L 95.08 -35.13 L 95.40 -34.13 L 95.71 -33.13 L 96.03 -32.15 L 96.34 -31.17 L 96.66 -30.20 L 96.98 -29.24 L 97.29 -28.28 L 97.61 -27.34 L 97.92 -26.40 L 98.24 -25.47 L 98.56 -24.54 L 98.87 -23.63 L 99.19 -22.72 L 99.50 -21.81 L 99.82 -20.92 L 100.14 -20.03 L 100.45 -19.15 L 100.77 -18.28 L 101.08 -17.41 L 101.40 -16.55 L 101.72 -15.70 L 102.03 -14.85 L 102.35 -14.01 L 102.66 -13.18 L 102.98 -12.35 L 103.29 -11.54 L 103.61 -10.72 L 103.93 -9.92 L 104.24 -9.12 L 104.56 -8.32 L 104.87 -7.54 L 105.19 -6.76 L 105.51 -5.98 L 105.82 -5.21 L 106.14 -4.45 L 106.45 -3.70 L 106.77 -2.95 L 107.09 -2.20 L 107.40 -1.46 L 107.72 -0.73 L 108.03 -0.01 L 108.35 0.71 L 108.67 1.43 L 108.98 2.14 L 109.30 2.84 L 109.61 3.54 L 109.93 4.23 L 110.24 4.92 L 110.56 5.60 L 110.88 6.27 L 111.19 6.94 L 111.51 7.61 L 111.82 8.27 L 112.14 8.92 L 112.46 9.57 L 112.77 10.21 L 113.09 10.85 L 113.40 11.49 L 113.72 12.11 L 114.04 12.74 L 114.35 13.36 L 114.67 13.97 L 114.98 14.58 L 115.30 15.18 L 115.62 15.78 L 115.93 16.37 L 116.25 16.96 L 116.56 17.55 L 116.88 18.13 L 117.19 18.70 L 117.51 19.27 L 117.83 19.84 L 118.14 20.40 L 118.46 20.96 L 118.77 21.51 L 119.09 22.06 L 119.41 22.60 L 119.72 23.14 L 120.04 23.68 L 120.35 24.21 L 120.67 24.73 L 120.99 25.26 L 121.30 25.78 L 121.62 26.29 L 121.93 26.80 L 122.25 27.30 L 122.57 27.81 L 122.88 28.30 L 123.20 28.80 L 123.51 29.29 L 123.83 29.77 L 124.14 30.26 L 124.46 30.73 L 124.78 31.21 L 125.09 31.68 L 125.41 32.15 L 125.72 32.61 L 126.04 33.07 L 126.36 33.52 L 126.67 33.98 L 126.99 34.42 L 127.30 34.87 L 127.62 35.31 L 127.94 35.75 L 128.25 36.18 L 128.57 36.61 L 128.88 37.04 L 129.20 37.46 L 129.52 37.88 L 129.83 38.30 L 130.15 38.71 L 130.46 39.13 L 130.78 39.53 L 131.09 39.94 L 131.41 40.34 L 131.73 40.73 L 132.04 41.13 L 132.36 41.52 L 132.67 41.91 L 132.99 42.29 L 133.31 42.67 L 133.62 43.05 L 133.94 43.43 L 134.25 43.80 L 134.57 44.17 L 134.89 44.54 L 135.20 44.90 L 135.52 45.26 L 135.83 45.62 L 136.15 45.98 L 136.46 46.33 L 136.78 46.68 L 137.10 47.02 L 137.41 47.37 L 137.73 47.71 L 138.04 48.05 L 138.36 48.38 L 138.68 48.72 L 138.99 49.05 L 139.31 49.38 L 139.62 49.70 L 139.94 50.02 L 140.26 50.34 L 140.57 50.66 L 140.89 50.98 L 141.20 51.29 L 141.52 51.60 L 141.84 51.90 L 142.15 52.21 L 142.47 52.51 L 142.78 52.81 L 143.10 53.11 L 143.41 53.40 L 143.73 53.70 L 144.05 53.99 L 144.36 54.28 L 144.68 54.56 L 144.99 54.85 L 145.31 55.13 L 145.63 55.41 L 145.94 55.68 L 146.26 55.96 L 146.57 56.23 L 146.89 56.50 L 147.21 56.77 L 147.52 57.03 L 147.84 57.30 L 148.15 57.56 L 148.47 57.82 L 148.79 58.08 L 149.10 58.33 L 149.42 58.59 L 149.73 58.84 L 150.05 59.09 L 150.36 59.33 L 150.68 59.58 L 151.00 59.82 L 151.31 60.07 L 151.63 60.30 L 151.94 60.54 L 152.26 60.78 L 152.58 61.01 L 152.89 61.24 L 153.21 61.47 L 153.52 61.70 L 153.84 61.93 L 154.16 62.15 L 154.47 62.38 L 154.79 62.60 L 155.10 62.82 L 155.42 63.03 L 155.74 63.25 L 156.05 63.46 L 156.37 63.68 L 156.68 63.89 L 157.00 64.10 L 157.31 64.30 L 157.63 64.51 L 157.95 64.71 L 158.26 64.92 L 158.58 65.12 L 158.89 65.32 L 159.21 65.51 L 159.53 65.71 L 159.84 65.90 L 160.16 66.10 L 160.47 66.29 L 160.79 66.48 L 161.11 66.67 L 161.42 66.85 L 161.74 67.04 L 162.05 67.22 L 162.37 67.40 L 162.69 67.58 L 163.00 67.76 L 163.32 67.94 L 163.63 68.12 L 163.95 68.29 L 164.26 68.47 L 164.58 68.64 L 164.90 68.81 L 165.21 68.98 L 165.53 69.15 L 165.84 69.32 L 166.16 69.48 L 166.48 69.64 L 166.79 69.81 L 167.11 69.97 L 167.42 70.13 L 167.74 70.29 L 168.06 70.45 L 168.37 70.60 L 168.69 70.76 L 169.00 70.91 L 169.32 71.07 L 169.64 71.22 L 169.95 71.37 L 170.27 71.52 L 170.58 71.66 L 170.90 71.81 L 171.21 71.96 L 171.53 72.10 L 171.85 72.24 L 172.16 72.39 L 172.48 72.53 L 172.79 72.67 L 173.11 72.81 L 173.43 72.94 L 173.74 73.08 L 174.06 73.22 L 174.37 73.35 L 174.69 73.48 L 175.01 73.61 L 175.32 73.75 L 175.64 73.88 L 175.95 74.01 L 176.27 74.13 L 176.59 74.26 L 176.90 74.39 L 177.22 74.51 L 177.53 74.64 L 177.85 74.76 L 178.16 74.88 L 178.48 75.00 L 178.80 75.12 L 179.11 75.24 L 179.43 75.36 L 179.74 75.48 L 180.06 75.59 L 180.38 75.71 L 180.69 75.82 L 181.01 75.93 L 181.32 76.05 L 181.64 76.16 L 181.96 76.27 L 182.27 76.38 L 182.59 76.49 L 182.90 76.60 L 183.22 76.70 L 183.54 76.81 L 183.85 76.92 L 184.17 77.02 L 184.48 77.12 L 184.80 77.23 L 185.11 77.33 L 185.43 77.43 L 185.75 77.53 L 186.06 77.63 L 186.38 77.73 L 186.69 77.83 L 187.01 77.93 L 187.33 78.02 L 187.64 78.12 L 187.96 78.21 L 188.27 78.31 L 188.59 78.40 L 188.91 78.49 L 189.22 78.59 L 189.54 78.68 L 189.85 78.77 L 190.17 78.86 L 190.48 78.95 L 190.80 79.04 L 191.12 79.12 L 191.43 79.21 L 191.75 79.30 L 192.06 79.38 L 192.38 79.47 L 192.70 79.55 L 193.01 79.64 L 193.33 79.72 L 193.64 79.80 L 193.96 79.88 L 194.28 79.96 L 194.59 80.04 L 194.91 80.12 L 195.22 80.20 L 195.54 80.28 L 195.86 80.36 L 196.17 80.44 L 196.49 80.51 L 196.80 80.59 L 197.12 80.66 L 197.43 80.74 L 197.75 80.81 L 198.07 80.89 L 198.38 80.96 L 198.70 81.03 L 199.01 81.10 L 199.33 81.17 L 199.65 81.25 L 199.96 81.32 L 200.28 81.38 L 200.59 81.45 L 200.91 81.52 L 201.23 81.59 L 201.54 81.66 L 201.86 81.72 L 202.17 81.79 L 202.49 81.86 L 202.81 81.92 L 203.12 81.99 L 203.44 82.05 L 203.75 82.11 L 204.07 82.18 L 204.38 82.24 L 204.70 82.30 L 205.02 82.36 L 205.33 82.42 L 205.65 82.48 L 205.96 82.54 L 206.28 82.60 L 206.60 82.66 L 206.91 82.72 L 207.23 82.78 L 207.54 82.84 L 207.86 82.90 L 208.18 82.95 L 208.49 83.01 L 208.81 83.06 L 209.12 83.12 L 209.44 83.18 L 209.76 83.23 L 210.07 83.28 L 210.39 83.34 L 210.70 83.39 L 211.02 83.44 L 211.33 83.50 L 211.65 83.55 L 211.97 83.60 L 212.28 83.65 L 212.60 83.70 L 212.91 83.75 L 213.23 83.80 L 213.55 83.85 L 213.86 83.90 L 214.18 83.95 L 214.49 84.00 L 214.81 84.05 L 215.13 84.09 L 215.44 84.14 L 215.76 84.19 L 216.07 84.24 L 216.39 84.28 L 216.71 84.33 L 217.02 84.37 L 217.34 84.42 L 217.65 84.46 L 217.97 84.51 L 218.28 84.55 L 218.60 84.59 L 218.92 84.64 L 219.23 84.68 L 219.55 84.72 L 219.86 84.77 L 220.18 84.81 L 220.50 84.85 L 220.81 84.89 L 221.13 84.93 L 221.44 84.97 L 221.76 85.01 L 222.08 85.05 L 222.39 85.09 L 222.71 85.13 L 223.02 85.17 L 223.34 85.21 L 223.66 85.25 L 223.97 85.28 L 224.29 85.32 L 224.60 85.36 L 224.92 85.40 L 225.23 85.43 L 225.55 85.47 L 225.87 85.51 L 226.18 85.54 L 226.50 85.58 L 226.81 85.61 L 227.13 85.65 L 227.45 85.68 L 227.76 85.72 L 228.08 85.75 L 228.39 85.79 L 228.71 85.82 L 229.03 85.85 L 229.34 85.89 L 229.66 85.92 L 229.97 85.95 L 230.29 85.98 L 230.61 86.02 L 230.92 86.05 L 231.24 86.08 L 231.55 86.11 L 231.87 86.14 L 232.18 86.17 L 232.50 86.20 L 232.82 86.23 L 233.13 86.26 L 233.45 86.29 L 233.76 86.32 L 234.08 86.35 L 234.40 86.38 L 234.71 86.41 L 235.03 86.44 L 235.34 86.47 L 235.66 86.50 L 235.98 86.53 L 236.29 86.55 L 236.61 86.58 L 236.92 86.61 L 237.24 86.64 L 237.56 86.66 L 237.87 86.69 L 238.19 86.72 L 238.50 86.74 L 238.82 86.77 L 239.13 86.79 L 239.45 86.82 L 239.77 86.84 L 240.08 86.87 L 240.40 86.89 L 240.71 86.92 L 241.03 86.94 L 241.35 86.97 L 241.66 86.99 L 241.98 87.02 L 242.29 87.04 L 242.61 87.06 L 242.93 87.09 L 243.24 87.11 L 243.56 87.13 L 243.87 87.16 L 244.19 87.18 L 244.51 87.20 L 244.82 87.23 L 245.14 87.25 L 245.45 87.27 L 245.77 87.29 L 246.08 87.31 L 246.40 87.33 L 246.72 87.36 L 247.03 87.38 L 247.35 87.40 L 247.66 87.42 L 247.98 87.44 L 248.30 87.46 L 248.61 87.48 L 248.93 87.50 L 249.24 87.52 L 249.56 87.54 L 249.88 87.56 L 250.19 87.58 L 250.51 87.60 L 250.82 87.62 L 251.14 87.64 L 251.45 87.66 L 251.77 87.67 L 252.09 87.69 L 252.40 87.71 L 252.72 87.73 L 253.03 87.75 L 253.35 87.77 L 253.67 87.78 L 253.98 87.80 L 254.30 87.82 L 254.61 87.84 L 254.93 87.85 L 255.25 87.87 L 255.56 87.89 L 255.88 87.91 L 256.19 87.92 L 256.51 87.94 L 256.83 87.96 L 257.14 87.97 L 257.46 87.99 L 257.77 88.00 L 258.09 88.02 L 258.40 88.04 L 258.72 88.05 L 259.04 88.07 L 259.35 88.08 L 259.67 88.10 L 259.98 88.11 L 260.30 88.13 L 260.62 88.14 L 260.93 88.16 L 261.25 88.17 L 261.56 88.19 L 261.88 88.20 L 262.20 88.22 L 262.51 88.23 L 262.83 88.24 L 263.14 88.26 L 263.46 88.27 L 263.78 88.29 L 264.09 88.30 L 264.41 88.31 L 264.72 88.33 L 265.04 88.34 L 265.35 88.35 L 265.67 88.37 L 265.99 88.38 L 266.30 88.39 L 266.62 88.41 L 266.93 88.42 L 267.25 88.43 L 267.57 88.44 L 267.88 88.46 L 268.20 88.47 L 268.51 88.48 L 268.83 88.49 L 269.15 88.51 L 269.46 88.52 L 269.78 88.53 L 270.09 88.54 L 270.41 88.55 L 270.73 88.56 L 271.04 88.58 L 271.36 88.59 L 271.67 88.60 L 271.99 88.61 L 272.30 88.62 L 272.62 88.63 L 272.94 88.64 L 273.25 88.65 L 273.57 88.66 L 273.88 88.68 L 274.20 88.69 L 274.52 88.70 L 274.83 88.71 L 275.15 88.72 L 275.46 88.73 L 275.78 88.74 L 276.10 88.75 L 276.41 88.76 L 276.73 88.77 L 277.04 88.78 L 277.36 88.79 L 277.68 88.80 L 277.99 88.81 L 278.31 88.82 L 278.62 88.83 L 278.94 88.84 L 279.25 88.84 L 279.57 88.85 L 279.89 88.86 L 280.20 88.87 L 280.52 88.88 L 280.83 88.89 L 281.15 88.90 L 281.47 88.91 L 281.78 88.92 L 282.10 88.92 L 282.41 88.93 L 282.73 88.94 L 283.05 88.95 L 283.36 88.96 L 283.68 88.97 L 283.99 88.98 L 284.31 88.98 L 284.63 88.99 L 284.94 89.00 L 285.26 89.01 L 285.57 89.02 L 285.89 89.02 L 286.20 89.03 L 286.52 89.04 L 286.84 89.05 L 287.15 89.05 L 287.47 89.06 L 287.78 89.07 L 288.10 89.08 L 288.42 89.08 L 288.73 89.09 L 289.05 89.10 L 289.36 89.11 L 289.68 89.11 L 290.00 89.12 L 290.31 89.13 L 290.63 89.13 L 290.94 89.14 L 291.26 89.15 L 291.58 89.16 L 291.89 89.16 L 292.21 89.17 L 292.52 89.18 L 292.84 89.18 L 293.15 89.19 L 293.47 89.19 L 293.79 89.20 L 294.10 89.21 L 294.42 89.21 L 294.73 89.22 L 295.05 89.23 L 295.37 89.23 L 295.68 89.24 L 296.00 89.25 L 296.31 89.25 L 296.63 89.26 L 296.95 89.26 L 297.26 89.27 L 297.58 89.27 L 297.89 89.28 L 298.21 89.29 L 298.53 89.29 L 298.84 89.30 L 299.16 89.30 L 299.47 89.31 L 299.79 89.31 L 300.10 89.32 L 300.42 89.33 L 300.74 89.33 L 301.05 89.34 L 301.37 89.34 L 301.68 89.35 L 302.00 89.35" fill="none" stroke="#7E8692" stroke-width="2.3" stroke-linecap="round" stroke-linejoin="round"/>
</svg>
