<svg xmlns="http://www.w3.org/2000/svg" viewBox="0 0 320 180" width="320" height="180">
  <rect width="320" height="180" fill="#F4F5F7"/>
  <path d="M 24.00 146.67 L 24.30 146.54 L 24.61 146.41 L 24.91 146.29 L 25.21 146.16 L 25.51 146.04 L 25.82 145.91 L 26.12 145.78 L 26.42 145.66 L 26.72 145.53 L 27.03 145.41 L 27.33 145.28 L 27.63 145.15 L 27.93 145.03 L 28.24 144.90 L 28.54 144.78 L 28.84 144.65 L 29.14 144.52 L 29.45 144.40 L 29.75 144.27 L 30.05 144.15 L 30.35 144.02 L 30.66 143.89 L 30.96 143.77 L 31.26 143.64 L 31.56 143.52 L 31.87 143.39 L 32.17 143.26 L 32.47 143.14 L 32.77 143.01 L 33.08 142.88 L 33.38 142.76 L 33.68 142.63 L 33.98 142.51 L 34.29 142.38 L 34.59 142.25 L 34.89 142.13 L 35.19 142.00 L 35.50 141.88 L 35.80 141.75 L 36.10 141.62 L 36.40 141.50 L 36.71 141.37 L 37.01 141.25 L 37.31 141.12 L 37.62 140.99 L 37.92 140.87 L 38.22 140.74 L 38.52 140.62 L 38.83 140.49 L 39.13 140.36 L 39.43 140.24 L 39.73 140.11 L 40.04 139.99 L 40.34 139.86 L 40.64 139.73 L 40.94 139.61 L 41.25 139.48 L 41.55 139.35 L 41.85 139.23 L 42.15 139.10 L 42.46 138.98 L 42.76 138.85 L 43.06 138.72 L 43.36 138.60 L 43.67 138.47 L 43.97 138.35 L 44.27 138.22 L 44.57 138.09 L 44.88 137.97 L 45.18 137.84 L 45.48 137.72 L 45.78 137.59 L 46.09 137.46 L 46.39 137.34 L 46.69 137.21 L 46.99 137.09 L 47.30 136.96 L 47.60 136.83 L 47.90 136.71 L 48.20 136.58 L 48.51 136.46 L 48.81 136.33 L 49.11 136.20 L 49.41 136.08 L 49.72 135.95 L 50.02 135.82 L 50.32 135.70 L 50.63 135.57 L 50.93 135.45 L 51.23 135.32 L 51.53 135.19 L 51.84 135.07 L 52.14 134.94 L 52.44 134.82 L 52.74 134.69 L 53.05 134.56 L 53.35 134.44 L 53.65 134.31 L 53.95 134.19 L 54.26 134.06 L 54.56 133.93 L 54.86 133.81 L 55.16 133.68 L 55.47 133.56 L 55.77 133.43 L 56.07 133.30 L 56.37 133.18 L 56.68 133.05 L 56.98 132.93 L 57.28 132.80 L 57.58 132.67 L 57.89 132.55 L 58.19 132.42 L 58.49 132.30 L 58.79 132.17 L 59.10 132.04 L 59.40 131.92 L 59.70 131.79 L 60.00 131.66 L 60.31 131.54 L 60.61 131.41 L 60.91 131.29 L 61.21 131.16 L 61.52 131.03 L 61.82 130.91 L 62.12 130.78 L 62.42 130.66 L 62.73 130.53 L 63.03 130.40 L 63.33 130.28 L 63.64 130.15 L 63.94 130.03 L 64.24 129.90 L 64.54 129.77 L 64.85 129.65 L 65.15 129.52 L 65.45 129.40 L 65.75 129.27 L 66.06 129.14 L 66.36 129.02 L 66.66 128.89 L 66.96 128.77 L 67.27 128.64 L 67.57 128.51 L 67.87 128.39 L 68.17 128.26 L 68.48 128.13 L 68.78 128.01 L 69.08 127.88 L 69.38 127.76 L 69.69 127.63 L 69.99 127.50 L 70.29 127.38 L 70.59 127.25 L 70.90 127.13 L 71.20 127.00 L 71.50 126.87 L 71.80 126.75 L 72.11 126.62 L 72.41 126.50 L 72.71 126.37 L 73.01 126.24 L 73.32 126.12 L 73.62 125.99 L 73.92 125.87 L 74.22 125.74 L 74.53 125.61 L 74.83 125.49 L 75.13 125.36 L 75.43 125.24 L 75.74 125.11 L 76.04 124.98 L 76.34 124.86 L 76.65 124.73 L 76.95 124.61 L 77.25 124.48 L 77.55 124.35 L 77.86 124.23 L 78.16 124.10 L 78.46 123.97 L 78.76 123.85 L 79.07 123.72 L 79.37 123.60 L 79.67 123.47 L 79.97 123.34 L 80.28 123.22 L 80.58 123.09 L 80.88 122.97 L 81.18 122.84 L 81.49 122.71 L 81.79 122.59 L 82.09 122.46 L 82.39 122.34 L 82.70 122.21 L 83.00 122.08 L 83.30 121.96 L 83.60 121.83 L 83.91 121.71 L 84.21 121.58 L 84.51 121.45 L 84.81 121.33 L 85.12 121.20 L 85.42 121.08 L 85.72 120.95 L 86.02 120.82 L 86.33 120.70 L 86.63 120.57 L 86.93 120.44 L 87.23 120.32 L 87.54 120.19 L 87.84 120.07 L 88.14 119.94 L 88.44 119.81 L 88.75 119.69 L 89.05 119.56 L 89.35 119.44 L 89.66 119.31 L 89.96 119.18 L 90.26 119.06 L 90.56 118.93 L 90.87 118.81 L 91.17 118.68 L 91.47 118.55 L 91.77 118.43 L 92.08 118.30 L 92.38 118.18 L 92.68 118.05 L 92.98 117.92 L 93.29 117.80 L 93.59 117.67 L 93.89 117.55 L 94.19 117.42 L 94.50 117.29 L 94.80 117.17 L 95.10 117.04 L 95.40 116.92 L 95.71 116.79 L 96.01 116.66 L 96.31 116.54 L 96.61 116.41 L 96.92 116.28 L 97.22 116.16 L 97.52 116.03 L 97.82 115.91 L 98.13 115.78 L 98.43 115.65 L 98.73 115.53 L 99.03 115.40 L 99.34 115.28 L 99.64 115.15 L 99.94 115.02 L 100.24 114.90 L 100.55 114.77 L 100.85 114.65 L 101.15 114.52 L 101.45 114.39 L 101.76 114.27 L 102.06 114.14 L 102.36 114.02 L 102.67 113.89 L 102.97 113.76 L 103.27 113.64 L 103.57 113.51 L 103.88 113.39 L 104.18 113.26 L 104.48 113.13 L 104.78 113.01 L 105.09 112.88 L 105.39 112.75 L 105.69 112.63 L 105.99 112.50 L 106.30 112.38 L 106.60 112.25 L 106.90 112.12 L 107.20 112.00 L 107.51 111.87 L 107.81 111.75 L 108.11 111.62 L 108.41 111.49 L 108.72 111.37 L 109.02 111.24 L 109.32 111.12 L 109.62 110.99 L 109.93 110.86 L 110.23 110.74 L 110.53 110.61 L 110.83 110.49 L 111.14 110.36 L 111.44 110.23 L 111.74 110.11 L 112.04 109.98 L 112.35 109.86 L 112.65 109.73 L 112.95 109.60 L 113.25 109.48 L 113.56 109.35 L 113.86 109.23 L 114.16 109.10 L 114.46 108.97 L 114.77 108.85 L 115.07 108.72 L 115.37 108.59 L 115.68 108.47 L 115.98 108.34 L 116.28 108.22 L 116.58 108.09 L 116.89 107.96 L 117.19 107.84 L 117.49 107.71 L 117.79 107.59 L 118.10 107.46 L 118.40 107.33 L 118.70 107.21 L 119.00 107.08 L 119.31 106.96 L 119.61 106.83 L 119.91 106.70 L 120.21 106.58 L 120.52 106.45 L 120.82 106.33 L 121.12 106.20 L 121.42 106.07 L 121.73 105.95 L 122.03 105.82 L 122.33 105.70 L 122.63 105.57 L 122.94 105.44 L 123.24 105.32 L 123.54 105.19 L 123.84 105.06 L 124.15 104.94 L 124.45 104.81 L 124.75 104.69 L 125.05 104.56 L 125.36 104.43 L 125.66 104.31 L 125.96 104.18 L 126.26 104.06 L 126.57 103.93 L 126.87 103.80 L 127.17 103.68 L 127.47 103.55 L 127.78 103.43 L 128.08 103.30 L 128.38 103.17 L 128.69 103.05 L 128.99 102.92 L 129.29 102.80 L 129.59 102.67 L 129.90 102.54 L 130.20 102.42 L 130.50 102.29 L 130.80 102.17 L 131.11 102.04 L 131.41 101.91 L 131.71 101.79 L 132.01 101.66 L 132.32 101.54 L 132.62 101.41 L 132.92 101.28 L 133.22 101.16 L 133.53 101.03 L 133.83 100.90 L 134.13 100.78 L 134.43 100.65 L 134.74 100.53 L 135.04 100.40 L 135.34 100.27 L 135.64 100.15 L 135.95 100.02 L 136.25 99.90 L 136.55 99.77 L 136.85 99.64 L 137.16 99.52 L 137.46 99.39 L 137.76 99.27 L 138.06 99.14 L 138.37 99.01 L 138.67 98.89 L 138.97 98.76 L 139.27 98.64 L 139.58 98.51 L 139.88 98.38 L 140.18 98.26 L 140.48 98.13 L 140.79 98.01 L 141.09 97.88 L 141.39 97.75 L 141.70 97.63 L 142.00 97.50 L 142.30 97.37 L 142.60 97.25 L 142.91 97.12 L 143.21 97.00 L 143.51 96.87 L 143.81 96.74 L 144.12 96.62 L 144.42 96.49 L 144.72 96.37 L 145.02 96.24 L 145.33 96.11 L 145.63 95.99 L 145.93 95.86 L 146.23 95.74 L 146.54 95.61 L 146.84 95.48 L 147.14 95.36 L 147.44 95.23 L 147.75 95.11 L 148.05 94.98 L 148.35 94.85 L 148.65 94.73 L 148.96 94.60 L 149.26 94.48 L 149.56 94.35 L 149.86 94.22 L 150.17 94.10 L 150.47 93.97 L 150.77 93.85 L 151.07 93.72 L 151.38 93.59 L 151.68 93.47 L 151.98 93.34 L 152.28 93.21 L 152.59 93.09 L 152.89 92.96 L 153.19 92.84 L 153.49 92.71 L 153.80 92.58 L 154.10 92.46 L 154.40 92.33 L 154.71 92.21 L 155.01 92.08 L 155.31 91.95 L 155.61 91.83 L 155.92 91.70 L 156.22 91.58 L 156.52 91.45 L 156.82 91.32 L 157.13 91.20 L 157.43 91.07 L 157.73 90.95 L 158.03 90.82 L 158.34 90.69 L 158.64 90.57 L 158.94 90.44 L 159.24 90.32 L 159.55 90.19 L 159.85 90.06 L 160.15 89.94 L 160.45 89.81 L 160.76 89.68 L 161.06 89.56 L 161.36 89.43 L 161.66 89.31 L 161.97 89.18 L 162.27 89.05 L 162.57 88.93 L 162.87 88.80 L 163.18 88.68 L 163.48 88.55 L 163.78 88.42 L 164.08 88.30 L 164.39 88.17 L 164.69 88.05 L 164.99 87.92 L 165.29 87.79 L 165.60 87.67 L 165.90 87.54 L 166.20 87.42 L 166.51 87.29 L 166.81 87.16 L 167.11 87.04 L 167.41 86.91 L 167.72 86.79 L 168.02 86.66 L 168.32 86.53 L 168.62 86.41 L 168.93 86.28 L 169.23 86.15 L 169.53 86.03 L 169.83 85.90 L 170.14 85.78 L 170.44 85.65 L 170.74 85.52 L 171.04 85.40 L 171.35 85.27 L 171.65 85.15 L 171.95 85.02 L 172.25 84.89 L 172.56 84.77 L 172.86 84.64 L 173.16 84.52 L 173.46 84.39 L 173.77 84.26 L 174.07 84.14 L 174.37 84.01 L 174.67 83.89 L 174.98 83.76 L 175.28 83.63 L 175.58 83.51 L 175.88 83.38 L 176.19 83.26 L 176.49 83.13 L 176.79 83.00 L 177.09 82.88 L 177.40 82.75 L 177.70 82.63 L 178.00 82.50 L 178.30 82.37 L 178.61 82.25 L 178.91 82.12 L 179.21 81.99 L 179.52 81.87 L 179.82 81.74 L 180.12 81.62 L 180.42 81.49 L 180.73 81.36 L 181.03 81.24 L 181.33 81.11 L 181.63 80.99 L 181.94 80.86 L 182.24 80.73 L 182.54 80.61 L 182.84 80.48 L 183.15 80.36 L 183.45 80.23 L 183.75 80.10 L 184.05 79.98 L 184.36 79.85 L 184.66 79.73 L 184.96 79.60 L 185.26 79.47 L 185.57 79.35 L 185.87 79.22 L 186.17 79.10 L 186.47 78.97 L 186.78 78.84 L 187.08 78.72 L 187.38 78.59 L 187.68 78.46 L 187.99 78.34 L 188.29 78.21 L 188.59 78.09 L 188.89 77.96 L 189.20 77.83 L 189.50 77.71 L 189.80 77.58 L 190.10 77.46 L 190.41 77.33 L 190.71 77.20 L 191.01 77.08 L 191.31 76.95 L 191.62 76.83 L 191.92 76.70 L 192.22 76.57 L 192.53 76.45 L 192.83 76.32 L 193.13 76.20 L 193.43 76.07 L 193.74 75.94 L 194.04 75.82 L 194.34 75.69 L 194.64 75.57 L 194.95 75.44 L 195.25 75.31 L 195.55 75.19 L 195.85 75.06 L 196.16 74.94 L 196.46 74.81 L 196.76 74.68 L 197.06 74.56 L 197.37 74.43 L 197.67 74.30 L 197.97 74.18 L 198.27 74.05 L 198.58 73.93 L 198.88 73.80 L 199.18 73.67 L 199.48 73.55 L 199.79 73.42 L 200.09 73.30 L 200.39 73.17 L 200.69 73.04 L 201.00 72.92 L 201.30 72.79 L 201.60 72.67 L 201.90 72.54 L 202.21 72.41 L 202.51 72.29 L 202.81 72.16 L 203.11 72.04 L 203.42 71.91 L 203.72 71.78 L 204.02 71.66 L 204.32 71.53 L 204.63 71.41 L 204.93 71.28 L 205.23 71.15 L 205.54 71.03 L 205.84 70.90 L 206.14 70.77 L 206.44 70.65 L 206.75 70.52 L 207.05 70.40 L 207.35 70.27 L 207.65 70.14 L 207.96 70.02 L 208.26 69.89 L 208.56 69.77 L 208.86 69.64 L 209.17 69.51 L 209.47 69.39 L 209.77 69.26 L 210.07 69.14 L 210.38 69.01 L 210.68 68.88 L 210.98 68.76 L 211.28 68.63 L 211.59 68.51 L 211.89 68.38 L 212.19 68.25 L 212.49 68.13 L 212.80 68.00 L 213.10 67.88 L 213.40 67.75 L 213.70 67.62 L 214.01 67.50 L 214.31 67.37 L 214.61 67.25 L 214.91 67.12 L 215.22 66.99 L 215.52 66.87 L 215.82 66.74 L 216.12 66.61 L 216.43 66.49 L 216.73 66.36 L 217.03 66.24 L 217.33 66.11 L 217.64 65.98 L 217.94 65.86 L 218.24 65.73 L 218.55 65.61 L 218.85 65.48 L 219.15 65.35 L 219.45 65.23 L 219.76 65.10 L 220.06 64.98 L 220.36 64.85 L 220.66 64.72 L 220.97 64.60 L 221.27 64.47 L 221.57 64.35 L 221.87 64.22 L 222.18 64.09 L 222.48 63.97 L 222.78 63.84 L 223.08 63.72 L 223.39 63.59 L 223.69 63.46 L 223.99 63.34 L 224.29 63.21 L 224.60 63.08 L 224.90 62.96 L 225.20 62.83 L 225.50 62.71 L 225.81 62.58 L 226.11 62.45 L 226.41 62.33 L 226.71 62.20 L 227.02 62.08 L 227.32 61.95 L 227.62 61.82 L 227.92 61.70 L 228.23 61.57 L 228.53 61.45 L 228.83 61.32 L 229.13 61.19 L 229.44 61.07 L 229.74 60.94 L 230.04 60.82 L 230.34 60.69 L 230.65 60.56 L 230.95 60.44 L 231.25 60.31 L 231.56 60.19 L 231.86 60.06 L 232.16 59.93 L 232.46 59.81 L 232.77 59.68 L 233.07 59.56 L 233.37 59.43 L 233.67 59.30 L 233.98 59.18 L 234.28 59.05 L 234.58 58.92 L 234.88 58.80 L 235.19 58.67 L 235.49 58.55 L 235.79 58.42 L 236.09 58.29 L 236.40 58.17 L 236.70 58.04 L 237.00 57.92 L 237.30 57.79 L 237.61 57.66 L 237.91 57.54 L 238.21 57.41 L 238.51 57.29 L 238.82 57.16 L 239.12 57.03 L 239.42 56.91 L 239.72 56.78 L 240.03 56.66 L 240.33 56.53 L 240.63 56.40 L 240.93 56.28 L 241.24 56.15 L 241.54 56.03 L 241.84 55.90 L 242.14 55.77 L 242.45 55.65 L 242.75 55.52 L 243.05 55.39 L 243.35 55.27 L 243.66 55.14 L 243.96 55.02 L 244.26 54.89 L 244.57 54.76 L 244.87 54.64 L 245.17 54.51 L 245.47 54.39 L 245.78 54.26 L 246.08 54.13 L 246.38 54.01 L 246.68 53.88 L 246.99 53.76 L 247.29 53.63 L 247.59 53.50 L 247.89 53.38 L 248.20 53.25 L 248.50 53.13 L 248.80 53.00 L 249.10 52.87 L 249.41 52.75 L 249.71 52.62 L 250.01 52.50 L 250.31 52.37 L 250.62 52.24 L 250.92 52.12 L 251.22 51.99 L 251.52 51.87 L 251.83 51.74 L 252.13 51.61 L 252.43 51.49 L 252.73 51.36 L 253.04 51.23 L 253.34 51.11 L 253.64 50.98 L 253.94 50.86 L 254.25 50.73 L 254.55 50.60 L 254.85 50.48 L 255.15 50.35 L 255.46 50.23 L 255.76 50.10 L 256.06 49.97 L 256.36 49.85 L 256.67 49.72 L 256.97 49.60 L 257.27 49.47 L 257.58 49.34 L 257.88 49.22 L 258.18 49.09 L 258.48 48.97 L 258.79 48.84 L 259.09 48.71 L 259.39 48.59 L 259.69 48.46 L 260.00 48.34 L 260.30 48.21 L 260.60 48.08 L 260.90 47.96 L 261.21 47.83 L 261.51 47.70 L 261.81 47.58 L 262.11 47.45 L 262.42 47.33 L 262.72 47.20 L 263.02 47.07 L 263.32 46.95 L 263.63 46.82 L 263.93 46.70 L 264.23 46.57 L 264.53 46.44 L 264.84 46.32 L 265.14 46.19 L 265.44 46.07 L 265.74 45.94 L 266.05 45.81 L 266.35 45.69 L 266.65 45.56 L 266.95 45.44 L 267.26 45.31 L 267.56 45.18 L 267.86 45.06 L 268.16 44.93 L 268.47 44.81 L 268.77 44.68 L 269.07 44.55 L 269.37 44.43 L 269.68 44.30 L 269.98 44.18 L 270.28 44.05 L 270.59 43.92 L 270.89 43.80 L 271.19 43.67 L 271.49 43.54 L 271.80 43.42 L 272.10 43.29 L 272.40 43.17 L 272.70 43.04 L 273.01 42.91 L 273.31 42.79 L 273.61 42.66 L 273.91 42.54 L 274.22 42.41 L 274.52 42.28 L 274.82 42.16 L 275.12 42.03 L 275.43 41.91 L 275.73 41.78 L 276.03 41.65 L 276.33 41.53 L 276.64 41.40 L 276.94 41.28 L 277.24 41.15 L 277.54 41.02 L 277.85 40.90 L 278.15 40.77 L 278.45 40.65 L 278.75 40.52 L 279.06 40.39 L 279.36 40.27 L 279.66 40.14 L 279.96 40.01 L 280.27 39.89 L 280.57 39.76 L 280.87 39.64 L 281.17 39.51 L 281.48 39.38 L 281.78 39.26 L 282.08 39.13 L 282.38 39.01 L 282.69 38.88 L 282.99 38.75 L 283.29 38.63 L 283.60 38.50 L 283.90 38.38 L 284.20 38.25 L 284.50 38.12 L 284.81 38.00 L 285.11 37.87 L 285.41 37.75 L 285.71 37.62 L 286.02 37.49 L 286.32 37.37 L 286.62 37.24 L 286.92 37.12 L 287.23 36.99 L 287.53 36.86 L 287.83 36.74 L 288.13 36.61 L 288.44 36.48 L 288.74 36.36 L 289.04 36.23 L 289.34 36.11 L 289.65 35.98 L 289.95 35.85 L 290.25 35.73 L 290.55 35.60 L 290.86 35.48 L 291.16 35.35 L 291.46 35.22 L 291.76 35.10 L 292.07 34.97 L 292.37 34.85 L 292.67 34.72 L 292.97 34.59 L 293.28 34.47 L 293.58 34.34 L 293.88 34.22 L 294.18 34.09 L 294.49 33.96 L 294.79 33.84 L 295.09 33.71 L 295.39 33.59 L 295.70 33.46 L 296.00 33.33" fill="none" stroke="#7E8692" stroke-width="2.3" stroke-linecap="round" stroke-linejoin="round"/>
</svg>
