<svg xmlns="http://www.w3.org/2000/svg" viewBox="0 0 320 180" width="320" height="180">
  <rect width="320" height="180" fill="#F4F5F7"/>
  <path d="M 24.00 90.00 L 24.30 90.00 L 24.61 90.00 L 24.91 90.00 L 25.21 90.00 L 25.51 90.00 L 25.82 90.00 L 26.12 90.00 L 26.42 90.00 L 26.72 90.00 L 27.03 90.00 L 27.33 90.00 L 27.63 90.00 L 27.93 90.00 L 28.24 90.00 L 28.54 90.00 L 28.84 90.00 L 29.14 90.00 L 29.45 90.00 L 29.75 90.00 L 30.05 90.00 L 30.35 90.00 L 30.66 90.00 L 30.96 90.00 L 31.26 90.00 L 31.56 90.00 L 31.87 90.00 L 32.17 90.00 L 32.47 90.00 L 32.77 90.00 L 33.08 90.00 L 33.38 90.00 L 33.68 90.00 L 33.98 90.00 L 34.29 90.00 L 34.59 90.00 L 34.89 90.00 L 35.19 90.00 L 35.50 90.00 L 35.80 90.00 L 36.10 90.00 L 36.40 90.00 L 36.71 90.00 L 37.01 90.00 L 37.31 90.00 L 37.62 90.00 L 37.92 90.00 L 38.22 90.00 L 38.52 90.00 L 38.83 90.00 L 39.13 90.00 L 39.43 90.00 L 39.73 90.00 L 40.04 90.00 L 40.34 90.00 L 40.64 90.00 L 40.94 90.00 L 41.25 90.00 L 41.55 90.00 L 41.85 90.00 L 42.15 90.00 L 42.46 90.00 L 42.76 90.00 L 43.06 90.00 L 43.36 90.00 L 43.67 90.00 L 43.97 90.00 L 44.27 90.00 L 44.57 90.00 L 44.88 90.00 L 45.18 90.00 L 45.48 90.00 L 45.78 90.00 L 46.09 90.00 L 46.39 90.00 L 46.69 90.00 L 46.99 90.00 L 47.30 90.00 L 47.60 90.00 L 47.90 90.00 L 48.20 90.00 L 48.51 90.00 L 48.81 90.00 L 49.11 90.00 L 49.41 90.00 L 49.72 90.00 L 50.02 90.00 L 50.32 90.00 L 50.63 90.00 L 50.93 90.00 L 51.23 90.00 L 51.53 90.00 L 51.84 90.00 L 52.14 90.00 L 52.44 90.00 L 52.74 90.00 L 53.05 90.00 L 53.35 90.00 L 53.65 90.00 L 53.95 90.00 L 54.26 90.00 L 54.56 90.00 L 54.86 90.00 L 55.16 90.00 L 55.47 90.00 L 55.77 90.00 L 56.07 90.00 L 56.37 90.00 L 56.68 90.00 L 56.98 90.00 L 57.28 90.00 L 57.58 90.00 L 57.89 90.00 L 58.19 90.00 L 58.49 90.00 L 58.79 90.00 L 59.10 90.00 L 59.40 90.00 L 59.70 90.00 L 60.00 90.00 L 60.31 90.00 L 60.61 90.00 L 60.91 90.00 L 61.21 90.00 L 61.52 90.00 L 61.82 90.00 L 62.12 90.00 L 62.42 90.00 L 62.73 90.00 L 63.03 90.00 L 63.33 90.00 L 63.64 90.00 L 63.94 90.00 L 64.24 90.00 L 64.54 90.00 L 64.85 90.00 L 65.15 90.00 L 65.45 90.00 L 65.75 90.00 L 66.06 90.00 L 66.36 90.00 L 66.66 90.00 L 66.96 90.00 L 67.27 90.00 L 67.57 90.00 L 67.87 90.00 L 68.17 90.00 L 68.48 90.00 L 68.78 90.00 L 69.08 90.00 L 69.38 90.00 L 69.69 90.00 L 69.99 90.00 L 70.29 90.00 L 70.59 90.00 L 70.90 90.00 L 71.20 90.00 L 71.50 90.00 L 71.80 90.00 L 72.11 90.00 L 72.41 90.00 L 72.71 90.00 L 73.01 90.00 L 73.32 90.00 L 73.62 90.00 L 73.92 90.00 L 74.22 90.00 L 74.53 90.00 L 74.83 90.00 L 75.13 90.00 L 75.43 90.00 L 75.74 90.00 L 76.04 90.00 L 76.34 90.00 L 76.65 90.00 L 76.95 90.00 L 77.25 90.00 L 77.55 90.00 L 77.86 90.00 L 78.16 90.00 L 78.46 90.00 L 78.76 90.00 L 79.07 90.00 L 79.37 90.00 L 79.67 90.00 L 79.97 90.00 L 80.28 90.00 L 80.58 90.00 L 80.88 90.00 L 81.18 90.00 L 81.49 90.00 L 81.79 90.00 L 82.09 90.00 L 82.39 90.00 L 82.70 90.00 L 83.00 90.00 L 83.30 90.00 L 83.60 90.00 L 83.91 90.00 L 84.21 90.00 L 84.51 90.00 L 84.81 90.00 L 85.12 90.00 L 85.42 90.00 L 85.72 90.00 L 86.02 90.00 L 86.33 90.00 L 86.63 90.00 L 86.93 90.00 L 87.23 90.00 L 87.54 90.00 L 87.84 90.00 L 88.14 90.00 L 88.44 90.00 L 88.75 90.00 L 89.05 90.00 L 89.35 90.00 L 89.66 90.00 L 89.96 90.00 L 90.26 90.00 L 90.56 90.00 L 90.87 90.00 L 91.17 90.00 L 91.47 90.00 L 91.77 90.00 L 92.08 90.00 L 92.38 90.00 L 92.68 90.00 L 92.98 90.00 L 93.29 90.00 L 93.59 90.00 L 93.89 90.00 L 94.19 90.00 L 94.50 90.00 L 94.80 90.00 L 95.10 90.00 L 95.40 90.00 L 95.71 90.00 L 96.01 90.00 L 96.31 90.00 L 96.61 90.00 L 96.92 90.00 L 97.22 90.00 L 97.52 90.00 L 97.82 90.00 L 98.13 90.00 L 98.43 90.00 L 98.73 90.00 L 99.03 90.00 L 99.34 90.00 L 99.64 90.00 L 99.94 90.00 L 100.24 90.00 L 100.55 90.00 L 100.85 90.00 L 101.15 90.00 L 101.45 90.00 L 101.76 90.00 L 102.06 90.00 L 102.36 90.00 L 102.67 90.00 L 102.97 90.00 L 103.27 90.00 L 103.57 90.00 L 103.88 90.00 L 104.18 90.00 L 104.48 90.00 L 104.78 90.00 L 105.09 90.00 L 105.39 90.00 L 105.69 90.00 L 105.99 90.00 L 106.30 90.00 L 106.60 90.00 L 106.90 90.00 L 107.20 90.00 L 107.51 90.00 L 107.81 90.00 L 108.11 90.00 L 108.41 90.00 L 108.72 90.00 L 109.02 90.00 L 109.32 90.00 L 109.62 90.00 L 109.93 90.00 L 110.23 90.00 L 110.53 90.00 L 110.83 90.00 L 111.14 90.00 L 111.44 90.00 L 111.74 90.00 L 112.04 90.00 L 112.35 90.00 L 112.65 90.00 L 112.95 90.00 L 113.25 90.00 L 113.56 90.00 L 113.86 90.00 L 114.16 90.00 L 114.46 90.00 L 114.77 90.00 L 115.07 90.00 L 115.37 90.00 L 115.68 90.00 L 115.98 90.00 L 116.28 90.00 L 116.58 90.00 L 116.89 90.00 L 117.19 90.00 L 117.49 90.00 L 117.79 90.00 L 118.10 90.00 L 118.40 90.00 L 118.70 90.00 L 119.00 90.00 L 119.31 90.00 L 119.61 90.00 L 119.91 90.00 L 120.21 90.00 L 120.52 90.00 L 120.82 90.00 L 121.12 90.00 L 121.42 90.00 L 121.73 90.00 L 122.03 90.00 L 122.33 90.00 L 122.63 90.00 L 122.94 90.00 L 123.24 90.00 L 123.54 90.00 L 123.84 90.00 L 124.15 90.00 L 124.45 90.00 L 124.75 90.00 L 125.05 90.00 L 125.36 90.00 L 125.66 90.00 L 125.96 90.00 L 126.26 90.00 L 126.57 90.00 L 126.87 90.00 L 127.17 90.00 L 127.47 90.00 L 127.78 90.00 L 128.08 90.00 L 128.38 90.00 L 128.69 90.00 L 128.99 90.00 L 129.29 90.00 L 129.59 90.00 L 129.90 90.00 L 130.20 90.00 L 130.50 90.00 L 130.80 90.00 L 131.11 90.00 L 131.41 90.00 L 131.71 90.00 L 132.01 90.00 L 132.32 90.00 L 132.62 90.00 L 132.92 90.00 L 133.22 90.00 L 133.53 90.00 L 133.83 90.00 L 134.13 90.00 L 134.43 90.00 L 134.74 90.00 L 135.04 90.00 L 135.34 90.00 L 135.64 90.00 L 135.95 90.00 L 136.25 90.00 L 136.55 90.00 L 136.85 90.00 L 137.16 90.00 L 137.46 90.00 L 137.76 90.00 L 138.06 90.00 L 138.37 90.00 L 138.67 90.00 L 138.97 90.00 L 139.27 90.00 L 139.58 90.00 L 139.88 90.00 L 140.18 90.00 L 140.48 90.00 L 140.79 90.00 L 141.09 90.00 L 141.39 90.00 L 141.70 90.00 L 142.00 90.00 L 142.30 90.00 L 142.60 90.00 L 142.91 90.00 L 143.21 90.00 L 143.51 90.00 L 143.81 90.00 L 144.12 90.00 L 144.42 90.00 L 144.72 90.00 L 145.02 90.00 L 145.33 90.00 L 145.63 90.00 L 145.93 90.00 L 146.23 90.00 L 146.54 90.00 L 146.84 90.00 L 147.14 90.00 L 147.44 90.00 L 147.75 90.00 L 148.05 90.00 L 148.35 90.00 L 148.65 90.00 L 148.96 90.00 L 149.26 90.00 L 149.56 90.00 L 149.86 90.00 L 150.17 90.00 L 150.47 90.00 L 150.77 90.00 L 151.07 90.00 L 151.38 90.00 L 151.68 90.00 L 151.98 90.00 L 152.28 90.00 L 152.59 90.00 L 152.89 90.00 L 153.19 90.00 L 153.49 90.00 L 153.80 90.00 L 154.10 90.00 L 154.40 90.00 L 154.71 90.00 L 155.01 90.00 L 155.31 90.00 L 155.61 90.00 L 155.92 90.00 L 156.22 90.00 L 156.52 90.00 L 156.82 90.00 L 157.13 90.00 L 157.43 90.00 L 157.73 90.00 L 158.03 90.00 L 158.34 90.00 L 158.64 90.00 L 158.94 90.00 L 159.24 90.00 L 159.55 90.00 L 159.85 90.00 L 160.15 90.00 L 160.45 90.00 L 160.76 90.00 L 161.06 90.00 L 161.36 90.00 L 161.66 90.00 L 161.97 90.00 L 162.27 90.00 L 162.57 90.00 L 162.87 90.00 L 163.18 90.00 L 163.48 90.00 L 163.78 90.00 L 164.08 90.00 L 164.39 90.00 L 164.69 90.00 L 164.99 90.00 L 165.29 90.00 L 165.60 90.00 L 165.90 90.00 L 166.20 90.00 L 166.51 90.00 L 166.81 90.00 L 167.11 90.00 L 167.41 90.00 L 167.72 90.00 L 168.02 90.00 L 168.32 90.00 L 168.62 90.00 L 168.93 90.00 L 169.23 90.00 L 169.53 90.00 L 169.83 90.00 L 170.14 90.00 L 170.44 90.00 L 170.74 90.00 L 171.04 90.00 L 171.35 90.00 L 171.65 90.00 L 171.95 90.00 L 172.25 90.00 L 172.56 90.00 L 172.86 90.00 L 173.16 90.00 L 173.46 90.00 L 173.77 90.00 L 174.07 90.00 L 174.37 90.00 L 174.67 90.00 L 174.98 90.00 L 175.28 90.00 L 175.58 90.00 L 175.88 90.00 L 176.19 90.00 L 176.49 90.00 L 176.79 90.00 L 177.09 90.00 L 177.40 90.00 L 177.70 90.00 L 178.00 90.00 L 178.30 90.00 L 178.61 90.00 L 178.91 90.00 L 179.21 90.00 L 179.52 90.00 L 179.82 90.00 L 180.12 90.00 L 180.42 90.00 L 180.73 90.00 L 181.03 90.00 L 181.33 90.00 L 181.63 90.00 L 181.94 90.00 L 182.24 90.00 L 182.54 90.00 L 182.84 90.00 L 183.15 90.00 L 183.45 90.00 L 183.75 90.00 L 184.05 90.00 L 184.36 90.00 L 184.66 90.00 L 184.96 90.00 L 185.26 90.00 L 185.57 90.00 L 185.87 90.00 L 186.17 90.00 L 186.47 90.00 L 186.78 90.00 L 187.08 90.00 L 187.38 90.00 L 187.68 90.00 L 187.99 90.00 L 188.29 90.00 L 188.59 90.00 L 188.89 90.00 L 189.20 90.00 L 189.50 90.00 L 189.80 90.00 L 190.10 90.00 L 190.41 90.00 L 190.71 90.00 L 191.01 90.00 L 191.31 90.00 L 191.62 90.00 L 191.92 90.00 L 192.22 90.00 L 192.53 90.00 L 192.83 90.00 L 193.13 90.00 L 193.43 90.00 L 193.74 90.00 L 194.04 90.00 L 194.34 90.00 L 194.64 90.00 L 194.95 90.00 L 195.25 90.00 L 195.55 90.00 L 195.85 90.00 L 196.16 90.00 L 196.46 90.00 L 196.76 90.00 L 197.06 90.00 L 197.37 90.00 L 197.67 90.00 L 197.97 90.00 L 198.27 90.00 L 198.58 90.00 L 198.88 90.00 L 199.18 90.00 L 199.48 90.00 L 199.79 90.00 L 200.09 90.00 L 200.39 90.00 L 200.69 90.00 L 201.00 90.00 L 201.30 90.00 L 201.60 90.00 L 201.90 90.00 L 202.21 90.00 L 202.51 90.00 L 202.81 90.00 L 203.11 90.00 L 203.42 90.00 L 203.72 90.00 L 204.02 90.00 L 204.32 90.00 L 204.63 90.00 L 204.93 90.00 L 205.23 90.00 L 205.54 90.00 L 205.84 90.00 L 206.14 90.00 L 206.44 90.00 L 206.75 90.00 L 207.05 90.00 L 207.35 90.00 L 207.65 90.00 L 207.96 90.00 L 208.26 90.00 L 208.56 90.00 L 208.86 90.00 L 209.17 90.00 L 209.47 90.00 L 209.77 90.00 L 210.07 90.00 L 210.38 90.00 L 210.68 90.00 L 210.98 90.00 L 211.28 90.00 L 211.59 90.00 L 211.89 90.00 L 212.19 90.00 L 212.49 90.00 L 212.80 90.00 L 213.10 90.00 L 213.40 90.00 L 213.70 90.00 L 214.01 90.00 L 214.31 90.00 L 214.61 90.00 L 214.91 90.00 L 215.22 90.00 L 215.52 90.00 L 215.82 90.00 L 216.12 90.00 L 216.43 90.00 L 216.73 90.00 L 217.03 90.00 L 217.33 90.00 L 217.64 90.00 L 217.94 90.00 L 218.24 90.00 L 218.55 90.00 L 218.85 90.00 L 219.15 90.00 L 219.45 90.00 L 219.76 90.00 L 220.06 90.00 L 220.36 90.00 L 220.66 90.00 L 220.97 90.00 L 221.27 90.00 L 221.57 90.00 L 221.87 90.00 L 222.18 90.00 L 222.48 90.00 L 222.78 90.00 L 223.08 90.00 L 223.39 90.00 L 223.69 90.00 L 223.99 90.00 L 224.29 90.00 L 224.60 90.00 L 224.90 90.00 L 225.20 90.00 L 225.50 90.00 L 225.81 90.00 L 226.11 90.00 L 226.41 90.00 L 226.71 90.00 L 227.02 90.00 L 227.32 90.00 L 227.62 90.00 L 227.92 90.00 L 228.23 90.00 L 228.53 90.00 L 228.83 90.00 L 229.13 90.00 L 229.44 90.00 L 229.74 90.00 L 230.04 90.00 L 230.34 90.00 L 230.65 90.00 L 230.95 90.00 L 231.25 90.00 L 231.56 90.00 L 231.86 90.00 L 232.16 90.00 L 232.46 90.00 L 232.77 90.00 L 233.07 90.00 L 233.37 90.00 L 233.67 90.00 L 233.98 90.00 L 234.28 90.00 L 234.58 90.00 L 234.88 90.00 L 235.19 90.00 L 235.49 90.00 L 235.79 90.00 L 236.09 90.00 L 236.40 90.00 L 236.70 90.00 L 237.00 90.00 L 237.30 90.00 L 237.61 90.00 L 237.91 90.00 L 238.21 90.00 L 238.51 90.00 L 238.82 90.00 L 239.12 90.00 L 239.42 90.00 L 239.72 90.00 L 240.03 90.00 L 240.33 90.00 L 240.63 90.00 L 240.93 90.00 L 241.24 90.00 L 241.54 90.00 L 241.84 90.00 L 242.14 90.00 L 242.45 90.00 L 242.75 90.00 L 243.05 90.00 L 243.35 90.00 L 243.66 90.00 L 243.96 90.00 L 244.26 90.00 L 244.57 90.00 L 244.87 90.00 L 245.17 90.00 L 245.47 90.00 L 245.78 90.00 L 246.08 90.00 L 246.38 90.00 L 246.68 90.00 L 246.99 90.00 L 247.29 90.00 L 247.59 90.00 L 247.89 90.00 L 248.20 90.00 L 248.50 90.00 L 248.80 90.00 L 249.10 90.00 L 249.41 90.00 L 249.71 90.00 L 250.01 90.00 L 250.31 90.00 L 250.62 90.00 L 250.92 90.00 L 251.22 90.00 L 251.52 90.00 L 251.83 90.00 L 252.13 90.00 L 252.43 90.00 L 252.73 90.00 L 253.04 90.00 L 253.34 90.00 L 253.64 90.00 L 253.94 90.00 L 254.25 90.00 L 254.55 90.00 L 254.85 90.00 L 255.15 90.00 L 255.46 90.00 L 255.76 90.00 L 256.06 90.00 L 256.36 90.00 L 256.67 90.00 L 256.97 90.00 L 257.27 90.00 L 257.58 90.00 L 257.88 90.00 L 258.18 90.00 L 258.48 90.00 L 258.79 90.00 L 259.09 90.00 L 259.39 90.00 L 259.69 90.00 L 260.00 90.00 L 260.30 90.00 L 260.60 90.00 L 260.90 90.00 L 261.21 90.00 L 261.51 90.00 L 261.81 90.00 L 262.11 90.00 L 262.42 90.00 L 262.72 90.00 L 263.02 90.00 L 263.32 90.00 L 263.63 90.00 L 263.93 90.00 L 264.23 90.00 L 264.53 90.00 L 264.84 90.00 L 265.14 90.00 L 265.44 90.00 L 265.74 90.00 L 266.05 90.00 L 266.35 90.00 L 266.65 90.00 L 266.95 90.00 L 267.26 90.00 L 267.56 90.00 L 267.86 90.00 L 268.16 90.00 L 268.47 90.00 L 268.77 90.00 L 269.07 90.00 L 269.37 90.00 L 269.68 90.00 L 269.98 90.00 L 270.28 90.00 L 270.59 90.00 L 270.89 90.00 L 271.19 90.00 L 271.49 90.00 L 271.80 90.00 L 272.10 90.00 L 272.40 90.00 L 272.70 90.00 L 273.01 90.00 L 273.31 90.00 L 273.61 90.00 L 273.91 90.00 L 274.22 90.00 L 274.52 90.00 L 274.82 90.00 L 275.12 90.00 L 275.43 90.00 L 275.73 90.00 L 276.03 90.00 L 276.33 90.00 L 276.64 90.00 L 276.94 90.00 L 277.24 90.00 L 277.54 90.00 L 277.85 90.00 L 278.15 90.00 L 278.45 90.00 L 278.75 90.00 L 279.06 90.00 L 279.36 90.00 L 279.66 90.00 L 279.96 90.00 L 280.27 90.00 L 280.57 90.00 L 280.87 90.00 L 281.17 90.00 L 281.48 90.00 L 281.78 90.00 L 282.08 90.00 L 282.38 90.00 L 282.69 90.00 L 282.99 90.00 L 283.29 90.00 L 283.60 90.00 L 283.90 90.00 L 284.20 90.00 L 284.50 90.00 L 284.81 90.00 L 285.11 90.00 L 285.41 90.00 L 285.71 90.00 L 286.02 90.00 L 286.32 90.00 L 286.62 90.00 L 286.92 90.00 L 287.23 90.00 L 287.53 90.00 L 287.83 90.00 L 288.13 90.00 L 288.44 90.00 L 288.74 90.00 L 289.04 90.00 L 289.34 90.00 L 289.65 90.00 L 289.95 90.00 L 290.25 90.00 L 290.55 90.00 L 290.86 90.00 L 291.16 90.00 L 291.46 90.00 L 291.76 90.00 L 292.07 90.00 L 292.37 90.00 L 292.67 90.00 L 292.97 90.00 L 293.28 90.00 L 293.58 90.00 L 293.88 90.00 L 294.18 90.00 L 294.49 90.00 L 294.79 90.00 L 295.09 90.00 L 295.39 90.00 L 295.70 90.00 L 296.00 90.00" fill="none" stroke="#7E8692" stroke-width="2.3" stroke-linecap="round" stroke-linejoin="round"/>
</svg>
