<svg xmlns="http://www.w3.org/2000/svg" viewBox="0 0 320 180" width="320" height="180">
  <rect width="320" height="180" fill="#F4F5F7"/>
  <path d="M 18.00 96.00 L 18.32 96.01 L 18.63 96.03 L 18.95 96.04 L 19.26 96.05 L 19.58 96.07 L 19.90 96.08 L 20.21 96.09 L 20.53 96.11 L 20.84 96.12 L 21.16 96.14 L 21.47 96.15 L 21.79 96.16 L 22.11 96.18 L 22.42 96.19 L 22.74 96.21 L 23.05 96.22 L 23.37 96.24 L 23.69 96.25 L 24.00 96.26 L 24.32 96.28 L 24.63 96.29 L 24.95 96.31 L 25.27 96.32 L 25.58 96.34 L 25.90 96.35 L 26.21 96.37 L 26.53 96.38 L 26.85 96.40 L 27.16 96.41 L 27.48 96.43 L 27.79 96.44 L 28.11 96.46 L 28.42 96.48 L 28.74 96.49 L 29.06 96.51 L 29.37 96.52 L 29.69 96.54 L 30.00 96.55 L 30.32 96.57 L 30.64 96.59 L 30.95 96.60 L 31.27 96.62 L 31.58 96.63 L 31.90 96.65 L 32.22 96.67 L 32.53 96.68 L 32.85 96.70 L 33.16 96.72 L 33.48 96.73 L 33.80 96.75 L 34.11 96.77 L 34.43 96.78 L 34.74 96.80 L 35.06 96.82 L 35.37 96.84 L 35.69 96.85 L 36.01 96.87 L 36.32 96.89 L 36.64 96.91 L 36.95 96.92 L 37.27 96.94 L 37.59 96.96 L 37.90 96.98 L 38.22 97.00 L 38.53 97.01 L 38.85 97.03 L 39.17 97.05 L 39.48 97.07 L 39.80 97.09 L 40.11 97.11 L 40.43 97.13 L 40.75 97.14 L 41.06 97.16 L 41.38 97.18 L 41.69 97.20 L 42.01 97.22 L 42.32 97.24 L 42.64 97.26 L 42.96 97.28 L 43.27 97.30 L 43.59 97.32 L 43.90 97.34 L 44.22 97.36 L 44.54 97.38 L 44.85 97.40 L 45.17 97.42 L 45.48 97.44 L 45.80 97.46 L 46.12 97.48 L 46.43 97.50 L 46.75 97.52 L 47.06 97.54 L 47.38 97.57 L 47.70 97.59 L 48.01 97.61 L 48.33 97.63 L 48.64 97.65 L 48.96 97.67 L 49.27 97.69 L 49.59 97.72 L 49.91 97.74 L 50.22 97.76 L 50.54 97.78 L 50.85 97.81 L 51.17 97.83 L 51.49 97.85 L 51.80 97.87 L 52.12 97.90 L 52.43 97.92 L 52.75 97.94 L 53.07 97.97 L 53.38 97.99 L 53.70 98.01 L 54.01 98.04 L 54.33 98.06 L 54.65 98.09 L 54.96 98.11 L 55.28 98.14 L 55.59 98.16 L 55.91 98.19 L 56.22 98.21 L 56.54 98.24 L 56.86 98.26 L 57.17 98.29 L 57.49 98.31 L 57.80 98.34 L 58.12 98.36 L 58.44 98.39 L 58.75 98.41 L 59.07 98.44 L 59.38 98.47 L 59.70 98.49 L 60.02 98.52 L 60.33 98.55 L 60.65 98.58 L 60.96 98.60 L 61.28 98.63 L 61.60 98.66 L 61.91 98.69 L 62.23 98.71 L 62.54 98.74 L 62.86 98.77 L 63.17 98.80 L 63.49 98.83 L 63.81 98.86 L 64.12 98.89 L 64.44 98.92 L 64.75 98.95 L 65.07 98.98 L 65.39 99.01 L 65.70 99.04 L 66.02 99.07 L 66.33 99.10 L 66.65 99.13 L 66.97 99.16 L 67.28 99.19 L 67.60 99.22 L 67.91 99.25 L 68.23 99.28 L 68.55 99.32 L 68.86 99.35 L 69.18 99.38 L 69.49 99.41 L 69.81 99.45 L 70.12 99.48 L 70.44 99.51 L 70.76 99.55 L 71.07 99.58 L 71.39 99.61 L 71.70 99.65 L 72.02 99.68 L 72.34 99.72 L 72.65 99.75 L 72.97 99.79 L 73.28 99.83 L 73.60 99.86 L 73.92 99.90 L 74.23 99.93 L 74.55 99.97 L 74.86 100.01 L 75.18 100.04 L 75.49 100.08 L 75.81 100.12 L 76.13 100.16 L 76.44 100.20 L 76.76 100.24 L 77.07 100.27 L 77.39 100.31 L 77.71 100.35 L 78.02 100.39 L 78.34 100.43 L 78.65 100.47 L 78.97 100.51 L 79.29 100.56 L 79.60 100.60 L 79.92 100.64 L 80.23 100.68 L 80.55 100.72 L 80.87 100.77 L 81.18 100.81 L 81.50 100.85 L 81.81 100.90 L 82.13 100.94 L 82.44 100.99 L 82.76 101.03 L 83.08 101.08 L 83.39 101.12 L 83.71 101.17 L 84.02 101.21 L 84.34 101.26 L 84.66 101.31 L 84.97 101.36 L 85.29 101.40 L 85.60 101.45 L 85.92 101.50 L 86.24 101.55 L 86.55 101.60 L 86.87 101.65 L 87.18 101.70 L 87.50 101.75 L 87.82 101.80 L 88.13 101.85 L 88.45 101.91 L 88.76 101.96 L 89.08 102.01 L 89.39 102.07 L 89.71 102.12 L 90.03 102.18 L 90.34 102.23 L 90.66 102.29 L 90.97 102.34 L 91.29 102.40 L 91.61 102.46 L 91.92 102.52 L 92.24 102.57 L 92.55 102.63 L 92.87 102.69 L 93.19 102.75 L 93.50 102.81 L 93.82 102.87 L 94.13 102.94 L 94.45 103.00 L 94.77 103.06 L 95.08 103.12 L 95.40 103.19 L 95.71 103.25 L 96.03 103.32 L 96.34 103.38 L 96.66 103.45 L 96.98 103.52 L 97.29 103.59 L 97.61 103.66 L 97.92 103.73 L 98.24 103.80 L 98.56 103.87 L 98.87 103.94 L 99.19 104.01 L 99.50 104.08 L 99.82 104.16 L 100.14 104.23 L 100.45 104.31 L 100.77 104.38 L 101.08 104.46 L 101.40 104.54 L 101.72 104.62 L 102.03 104.70 L 102.35 104.78 L 102.66 104.86 L 102.98 104.94 L 103.29 105.03 L 103.61 105.11 L 103.93 105.19 L 104.24 105.28 L 104.56 105.37 L 104.87 105.46 L 105.19 105.54 L 105.51 105.63 L 105.82 105.73 L 106.14 105.82 L 106.45 105.91 L 106.77 106.01 L 107.09 106.10 L 107.40 106.20 L 107.72 106.30 L 108.03 106.40 L 108.35 106.50 L 108.67 106.60 L 108.98 106.70 L 109.30 106.80 L 109.61 106.91 L 109.93 107.02 L 110.24 107.12 L 110.56 107.23 L 110.88 107.34 L 111.19 107.46 L 111.51 107.57 L 111.82 107.69 L 112.14 107.80 L 112.46 107.92 L 112.77 108.04 L 113.09 108.16 L 113.40 108.28 L 113.72 108.41 L 114.04 108.54 L 114.35 108.66 L 114.67 108.79 L 114.98 108.93 L 115.30 109.06 L 115.62 109.20 L 115.93 109.33 L 116.25 109.47 L 116.56 109.61 L 116.88 109.76 L 117.19 109.90 L 117.51 110.05 L 117.83 110.20 L 118.14 110.35 L 118.46 110.51 L 118.77 110.67 L 119.09 110.83 L 119.41 110.99 L 119.72 111.15 L 120.04 111.32 L 120.35 111.49 L 120.67 111.66 L 120.99 111.84 L 121.30 112.02 L 121.62 112.20 L 121.93 112.38 L 122.25 112.57 L 122.57 112.76 L 122.88 112.95 L 123.20 113.15 L 123.51 113.35 L 123.83 113.55 L 124.14 113.76 L 124.46 113.97 L 124.78 114.19 L 125.09 114.41 L 125.41 114.63 L 125.72 114.86 L 126.04 115.09 L 126.36 115.32 L 126.67 115.56 L 126.99 115.81 L 127.30 116.06 L 127.62 116.31 L 127.94 116.57 L 128.25 116.84 L 128.57 117.11 L 128.88 117.38 L 129.20 117.66 L 129.52 117.95 L 129.83 118.24 L 130.15 118.54 L 130.46 118.84 L 130.78 119.16 L 131.09 119.48 L 131.41 119.80 L 131.73 120.13 L 132.04 120.47 L 132.36 120.82 L 132.67 121.18 L 132.99 121.54 L 133.31 121.92 L 133.62 122.30 L 133.94 122.69 L 134.25 123.09 L 134.57 123.50 L 134.89 123.92 L 135.20 124.36 L 135.52 124.80 L 135.83 125.25 L 136.15 125.72 L 136.46 126.20 L 136.78 126.69 L 137.10 127.20 L 137.41 127.72 L 137.73 128.26 L 138.04 128.81 L 138.36 129.37 L 138.68 129.96 L 138.99 130.56 L 139.31 131.18 L 139.62 131.81 L 139.94 132.47 L 140.26 133.15 L 140.57 133.85 L 140.89 134.58 L 141.20 135.33 L 141.52 136.10 L 141.84 136.90 L 142.15 137.73 L 142.47 138.59 L 142.78 139.49 L 143.10 140.41 L 143.41 141.37 L 143.73 142.37 L 144.05 143.41 L 144.36 144.48 L 144.68 145.61 L 144.99 146.78 L 145.31 148.00 L 145.63 149.27 L 145.94 150.61 L 146.26 152.00 L 146.57 153.46 L 146.89 154.99 L 147.21 156.59 L 147.52 158.28 L 147.84 160.05 L 148.15 161.92 L 148.47 163.89 L 148.79 165.97 L 149.10 168.17 L 149.42 170.51 L 149.73 172.98 L 150.05 175.62 L 150.36 178.43 L 150.68 181.42 L 151.00 184.63 L 151.31 188.07 L 151.63 191.77 L 151.94 195.76 L 152.26 200.08 L 152.58 204.77 L 152.89 209.87 L 153.21 215.44 L 153.52 221.56 L 153.84 228.31 L 154.16 235.78 L 154.47 244.11 L 154.79 253.45 L 155.10 264.00 L 155.42 276.00 L 155.74 289.78 L 156.05 305.76 L 156.37 324.52 L 156.68 346.86 L 157.00 373.89" fill="none" stroke="#7E8692" stroke-width="2.3" stroke-linecap="round" stroke-linejoin="round"/>
  <path d="M 163.00 -193.89 L 163.32 -166.86 L 163.63 -144.52 L 163.95 -125.76 L 164.26 -109.78 L 164.58 -96.00 L 164.90 -84.00 L 165.21 -73.45 L 165.53 -64.11 L 165.84 -55.78 L 166.16 -48.31 L 166.48 -41.56 L 166.79 -35.44 L 167.11 -29.87 L 167.42 -24.77 L 167.74 -20.08 L 168.06 -15.76 L 168.37 -11.77 L 168.69 -8.07 L 169.00 -4.63 L 169.32 -1.42 L 169.64 1.57 L 169.95 4.38 L 170.27 7.02 L 170.58 9.49 L 170.90 11.83 L 171.21 14.03 L 171.53 16.11 L 171.85 18.08 L 172.16 19.95 L 172.48 21.72 L 172.79 23.41 L 173.11 25.01 L 173.43 26.54 L 173.74 28.00 L 174.06 29.39 L 174.37 30.73 L 174.69 32.00 L 175.01 33.22 L 175.32 34.39 L 175.64 35.52 L 175.95 36.59 L 176.27 37.63 L 176.59 38.63 L 176.90 39.59 L 177.22 40.51 L 177.53 41.41 L 177.85 42.27 L 178.16 43.10 L 178.48 43.90 L 178.80 44.67 L 179.11 45.42 L 179.43 46.15 L 179.74 46.85 L 180.06 47.53 L 180.38 48.19 L 180.69 48.82 L 181.01 49.44 L 181.32 50.04 L 181.64 50.63 L 181.96 51.19 L 182.27 51.74 L 182.59 52.28 L 182.90 52.80 L 183.22 53.31 L 183.54 53.80 L 183.85 54.28 L 184.17 54.75 L 184.48 55.20 L 184.80 55.64 L 185.11 56.08 L 185.43 56.50 L 185.75 56.91 L 186.06 57.31 L 186.38 57.70 L 186.69 58.08 L 187.01 58.46 L 187.33 58.82 L 187.64 59.18 L 187.96 59.53 L 188.27 59.87 L 188.59 60.20 L 188.91 60.52 L 189.22 60.84 L 189.54 61.16 L 189.85 61.46 L 190.17 61.76 L 190.48 62.05 L 190.80 62.34 L 191.12 62.62 L 191.43 62.89 L 191.75 63.16 L 192.06 63.43 L 192.38 63.69 L 192.70 63.94 L 193.01 64.19 L 193.33 64.44 L 193.64 64.68 L 193.96 64.91 L 194.28 65.14 L 194.59 65.37 L 194.91 65.59 L 195.22 65.81 L 195.54 66.03 L 195.86 66.24 L 196.17 66.45 L 196.49 66.65 L 196.80 66.85 L 197.12 67.05 L 197.43 67.24 L 197.75 67.43 L 198.07 67.62 L 198.38 67.80 L 198.70 67.98 L 199.01 68.16 L 199.33 68.34 L 199.65 68.51 L 199.96 68.68 L 200.28 68.85 L 200.59 69.01 L 200.91 69.17 L 201.23 69.33 L 201.54 69.49 L 201.86 69.65 L 202.17 69.80 L 202.49 69.95 L 202.81 70.10 L 203.12 70.24 L 203.44 70.39 L 203.75 70.53 L 204.07 70.67 L 204.38 70.80 L 204.70 70.94 L 205.02 71.07 L 205.33 71.21 L 205.65 71.34 L 205.96 71.46 L 206.28 71.59 L 206.60 71.72 L 206.91 71.84 L 207.23 71.96 L 207.54 72.08 L 207.86 72.20 L 208.18 72.31 L 208.49 72.43 L 208.81 72.54 L 209.12 72.66 L 209.44 72.77 L 209.76 72.88 L 210.07 72.98 L 210.39 73.09 L 210.70 73.20 L 211.02 73.30 L 211.33 73.40 L 211.65 73.50 L 211.97 73.60 L 212.28 73.70 L 212.60 73.80 L 212.91 73.90 L 213.23 73.99 L 213.55 74.09 L 213.86 74.18 L 214.18 74.27 L 214.49 74.37 L 214.81 74.46 L 215.13 74.54 L 215.44 74.63 L 215.76 74.72 L 216.07 74.81 L 216.39 74.89 L 216.71 74.97 L 217.02 75.06 L 217.34 75.14 L 217.65 75.22 L 217.97 75.30 L 218.28 75.38 L 218.60 75.46 L 218.92 75.54 L 219.23 75.62 L 219.55 75.69 L 219.86 75.77 L 220.18 75.84 L 220.50 75.92 L 220.81 75.99 L 221.13 76.06 L 221.44 76.13 L 221.76 76.20 L 222.08 76.27 L 222.39 76.34 L 222.71 76.41 L 223.02 76.48 L 223.34 76.55 L 223.66 76.62 L 223.97 76.68 L 224.29 76.75 L 224.60 76.81 L 224.92 76.88 L 225.23 76.94 L 225.55 77.00 L 225.87 77.06 L 226.18 77.13 L 226.50 77.19 L 226.81 77.25 L 227.13 77.31 L 227.45 77.37 L 227.76 77.43 L 228.08 77.48 L 228.39 77.54 L 228.71 77.60 L 229.03 77.66 L 229.34 77.71 L 229.66 77.77 L 229.97 77.82 L 230.29 77.88 L 230.61 77.93 L 230.92 77.99 L 231.24 78.04 L 231.55 78.09 L 231.87 78.15 L 232.18 78.20 L 232.50 78.25 L 232.82 78.30 L 233.13 78.35 L 233.45 78.40 L 233.76 78.45 L 234.08 78.50 L 234.40 78.55 L 234.71 78.60 L 235.03 78.64 L 235.34 78.69 L 235.66 78.74 L 235.98 78.79 L 236.29 78.83 L 236.61 78.88 L 236.92 78.92 L 237.24 78.97 L 237.56 79.01 L 237.87 79.06 L 238.19 79.10 L 238.50 79.15 L 238.82 79.19 L 239.13 79.23 L 239.45 79.28 L 239.77 79.32 L 240.08 79.36 L 240.40 79.40 L 240.71 79.44 L 241.03 79.49 L 241.35 79.53 L 241.66 79.57 L 241.98 79.61 L 242.29 79.65 L 242.61 79.69 L 242.93 79.73 L 243.24 79.76 L 243.56 79.80 L 243.87 79.84 L 244.19 79.88 L 244.51 79.92 L 244.82 79.96 L 245.14 79.99 L 245.45 80.03 L 245.77 80.07 L 246.08 80.10 L 246.40 80.14 L 246.72 80.17 L 247.03 80.21 L 247.35 80.25 L 247.66 80.28 L 247.98 80.32 L 248.30 80.35 L 248.61 80.39 L 248.93 80.42 L 249.24 80.45 L 249.56 80.49 L 249.88 80.52 L 250.19 80.55 L 250.51 80.59 L 250.82 80.62 L 251.14 80.65 L 251.45 80.68 L 251.77 80.72 L 252.09 80.75 L 252.40 80.78 L 252.72 80.81 L 253.03 80.84 L 253.35 80.87 L 253.67 80.90 L 253.98 80.93 L 254.30 80.96 L 254.61 80.99 L 254.93 81.02 L 255.25 81.05 L 255.56 81.08 L 255.88 81.11 L 256.19 81.14 L 256.51 81.17 L 256.83 81.20 L 257.14 81.23 L 257.46 81.26 L 257.77 81.29 L 258.09 81.31 L 258.40 81.34 L 258.72 81.37 L 259.04 81.40 L 259.35 81.42 L 259.67 81.45 L 259.98 81.48 L 260.30 81.51 L 260.62 81.53 L 260.93 81.56 L 261.25 81.59 L 261.56 81.61 L 261.88 81.64 L 262.20 81.66 L 262.51 81.69 L 262.83 81.71 L 263.14 81.74 L 263.46 81.76 L 263.78 81.79 L 264.09 81.81 L 264.41 81.84 L 264.72 81.86 L 265.04 81.89 L 265.35 81.91 L 265.67 81.94 L 265.99 81.96 L 266.30 81.99 L 266.62 82.01 L 266.93 82.03 L 267.25 82.06 L 267.57 82.08 L 267.88 82.10 L 268.20 82.13 L 268.51 82.15 L 268.83 82.17 L 269.15 82.19 L 269.46 82.22 L 269.78 82.24 L 270.09 82.26 L 270.41 82.28 L 270.73 82.31 L 271.04 82.33 L 271.36 82.35 L 271.67 82.37 L 271.99 82.39 L 272.30 82.41 L 272.62 82.43 L 272.94 82.46 L 273.25 82.48 L 273.57 82.50 L 273.88 82.52 L 274.20 82.54 L 274.52 82.56 L 274.83 82.58 L 275.15 82.60 L 275.46 82.62 L 275.78 82.64 L 276.10 82.66 L 276.41 82.68 L 276.73 82.70 L 277.04 82.72 L 277.36 82.74 L 277.68 82.76 L 277.99 82.78 L 278.31 82.80 L 278.62 82.82 L 278.94 82.84 L 279.25 82.86 L 279.57 82.87 L 279.89 82.89 L 280.20 82.91 L 280.52 82.93 L 280.83 82.95 L 281.15 82.97 L 281.47 82.99 L 281.78 83.00 L 282.10 83.02 L 282.41 83.04 L 282.73 83.06 L 283.05 83.08 L 283.36 83.09 L 283.68 83.11 L 283.99 83.13 L 284.31 83.15 L 284.63 83.16 L 284.94 83.18 L 285.26 83.20 L 285.57 83.22 L 285.89 83.23 L 286.20 83.25 L 286.52 83.27 L 286.84 83.28 L 287.15 83.30 L 287.47 83.32 L 287.78 83.33 L 288.10 83.35 L 288.42 83.37 L 288.73 83.38 L 289.05 83.40 L 289.36 83.41 L 289.68 83.43 L 290.00 83.45 L 290.31 83.46 L 290.63 83.48 L 290.94 83.49 L 291.26 83.51 L 291.58 83.52 L 291.89 83.54 L 292.21 83.56 L 292.52 83.57 L 292.84 83.59 L 293.15 83.60 L 293.47 83.62 L 293.79 83.63 L 294.10 83.65 L 294.42 83.66 L 294.73 83.68 L 295.05 83.69 L 295.37 83.71 L 295.68 83.72 L 296.00 83.74 L 296.31 83.75 L 296.63 83.76 L 296.95 83.78 L 297.26 83.79 L 297.58 83.81 L 297.89 83.82 L 298.21 83.84 L 298.53 83.85 L 298.84 83.86 L 299.16 83.88 L 299.47 83.89 L 299.79 83.91 L 300.10 83.92 L 300.42 83.93 L 300.74 83.95 L 301.05 83.96 L 301.37 83.97 L 301.68 83.99 L 302.00 84.00" fill="none" stroke="#7E8692" stroke-width="2.3" stroke-linecap="round" stroke-linejoin="round"/>
</svg>
