<svg xmlns="http://www.w3.org/2000/svg" viewBox="0 0 320 180" width="320" height="180">
  <rect width="320" height="180" fill="#F4F5F7"/>
  <path d="M 18.00 148.17 L 18.32 148.15 L 18.63 148.13 L 18.95 148.11 L 19.26 148.09 L 19.58 148.08 L 19.90 148.06 L 20.21 148.04 L 20.53 148.02 L 20.84 148.00 L 21.16 147.98 L 21.47 147.96 L 21.79 147.94 L 22.11 147.93 L 22.42 147.91 L 22.74 147.89 L 23.05 147.87 L 23.37 147.85 L 23.69 147.83 L 24.00 147.81 L 24.32 147.79 L 24.63 147.77 L 24.95 147.75 L 25.27 147.73 L 25.58 147.71 L 25.90 147.69 L 26.21 147.67 L 26.53 147.65 L 26.85 147.63 L 27.16 147.61 L 27.48 147.59 L 27.79 147.57 L 28.11 147.55 L 28.42 147.52 L 28.74 147.50 L 29.06 147.48 L 29.37 147.46 L 29.69 147.44 L 30.00 147.42 L 30.32 147.40 L 30.64 147.38 L 30.95 147.35 L 31.27 147.33 L 31.58 147.31 L 31.90 147.29 L 32.22 147.27 L 32.53 147.24 L 32.85 147.22 L 33.16 147.20 L 33.48 147.18 L 33.80 147.15 L 34.11 147.13 L 34.43 147.11 L 34.74 147.08 L 35.06 147.06 L 35.37 147.04 L 35.69 147.02 L 36.01 146.99 L 36.32 146.97 L 36.64 146.94 L 36.95 146.92 L 37.27 146.90 L 37.59 146.87 L 37.90 146.85 L 38.22 146.82 L 38.53 146.80 L 38.85 146.78 L 39.17 146.75 L 39.48 146.73 L 39.80 146.70 L 40.11 146.68 L 40.43 146.65 L 40.75 146.63 L 41.06 146.60 L 41.38 146.58 L 41.69 146.55 L 42.01 146.52 L 42.32 146.50 L 42.64 146.47 L 42.96 146.45 L 43.27 146.42 L 43.59 146.39 L 43.90 146.37 L 44.22 146.34 L 44.54 146.31 L 44.85 146.29 L 45.17 146.26 L 45.48 146.23 L 45.80 146.20 L 46.12 146.18 L 46.43 146.15 L 46.75 146.12 L 47.06 146.09 L 47.38 146.07 L 47.70 146.04 L 48.01 146.01 L 48.33 145.98 L 48.64 145.95 L 48.96 145.92 L 49.27 145.89 L 49.59 145.86 L 49.91 145.84 L 50.22 145.81 L 50.54 145.78 L 50.85 145.75 L 51.17 145.72 L 51.49 145.69 L 51.80 145.66 L 52.12 145.63 L 52.43 145.60 L 52.75 145.56 L 53.07 145.53 L 53.38 145.50 L 53.70 145.47 L 54.01 145.44 L 54.33 145.41 L 54.65 145.38 L 54.96 145.34 L 55.28 145.31 L 55.59 145.28 L 55.91 145.25 L 56.22 145.21 L 56.54 145.18 L 56.86 145.15 L 57.17 145.11 L 57.49 145.08 L 57.80 145.05 L 58.12 145.01 L 58.44 144.98 L 58.75 144.95 L 59.07 144.91 L 59.38 144.88 L 59.70 144.84 L 60.02 144.81 L 60.33 144.77 L 60.65 144.74 L 60.96 144.70 L 61.28 144.66 L 61.60 144.63 L 61.91 144.59 L 62.23 144.56 L 62.54 144.52 L 62.86 144.48 L 63.17 144.44 L 63.49 144.41 L 63.81 144.37 L 64.12 144.33 L 64.44 144.29 L 64.75 144.25 L 65.07 144.22 L 65.39 144.18 L 65.70 144.14 L 66.02 144.10 L 66.33 144.06 L 66.65 144.02 L 66.97 143.98 L 67.28 143.94 L 67.60 143.90 L 67.91 143.86 L 68.23 143.82 L 68.55 143.78 L 68.86 143.73 L 69.18 143.69 L 69.49 143.65 L 69.81 143.61 L 70.12 143.57 L 70.44 143.52 L 70.76 143.48 L 71.07 143.44 L 71.39 143.39 L 71.70 143.35 L 72.02 143.30 L 72.34 143.26 L 72.65 143.21 L 72.97 143.17 L 73.28 143.12 L 73.60 143.08 L 73.92 143.03 L 74.23 142.99 L 74.55 142.94 L 74.86 142.89 L 75.18 142.84 L 75.49 142.80 L 75.81 142.75 L 76.13 142.70 L 76.44 142.65 L 76.76 142.60 L 77.07 142.55 L 77.39 142.50 L 77.71 142.45 L 78.02 142.40 L 78.34 142.35 L 78.65 142.30 L 78.97 142.25 L 79.29 142.20 L 79.60 142.15 L 79.92 142.09 L 80.23 142.04 L 80.55 141.99 L 80.87 141.93 L 81.18 141.88 L 81.50 141.83 L 81.81 141.77 L 82.13 141.72 L 82.44 141.66 L 82.76 141.60 L 83.08 141.55 L 83.39 141.49 L 83.71 141.43 L 84.02 141.38 L 84.34 141.32 L 84.66 141.26 L 84.97 141.20 L 85.29 141.14 L 85.60 141.08 L 85.92 141.02 L 86.24 140.96 L 86.55 140.90 L 86.87 140.84 L 87.18 140.78 L 87.50 140.72 L 87.82 140.65 L 88.13 140.59 L 88.45 140.53 L 88.76 140.46 L 89.08 140.40 L 89.39 140.33 L 89.71 140.26 L 90.03 140.20 L 90.34 140.13 L 90.66 140.06 L 90.97 140.00 L 91.29 139.93 L 91.61 139.86 L 91.92 139.79 L 92.24 139.72 L 92.55 139.65 L 92.87 139.58 L 93.19 139.51 L 93.50 139.43 L 93.82 139.36 L 94.13 139.29 L 94.45 139.21 L 94.77 139.14 L 95.08 139.06 L 95.40 138.99 L 95.71 138.91 L 96.03 138.83 L 96.34 138.75 L 96.66 138.68 L 96.98 138.60 L 97.29 138.52 L 97.61 138.44 L 97.92 138.36 L 98.24 138.27 L 98.56 138.19 L 98.87 138.11 L 99.19 138.02 L 99.50 137.94 L 99.82 137.85 L 100.14 137.77 L 100.45 137.68 L 100.77 137.59 L 101.08 137.50 L 101.40 137.41 L 101.72 137.32 L 102.03 137.23 L 102.35 137.14 L 102.66 137.05 L 102.98 136.96 L 103.29 136.86 L 103.61 136.77 L 103.93 136.67 L 104.24 136.58 L 104.56 136.48 L 104.87 136.38 L 105.19 136.28 L 105.51 136.18 L 105.82 136.08 L 106.14 135.98 L 106.45 135.87 L 106.77 135.77 L 107.09 135.67 L 107.40 135.56 L 107.72 135.45 L 108.03 135.34 L 108.35 135.24 L 108.67 135.13 L 108.98 135.02 L 109.30 134.90 L 109.61 134.79 L 109.93 134.68 L 110.24 134.56 L 110.56 134.44 L 110.88 134.33 L 111.19 134.21 L 111.51 134.09 L 111.82 133.97 L 112.14 133.85 L 112.46 133.72 L 112.77 133.60 L 113.09 133.47 L 113.40 133.35 L 113.72 133.22 L 114.04 133.09 L 114.35 132.96 L 114.67 132.82 L 114.98 132.69 L 115.30 132.56 L 115.62 132.42 L 115.93 132.28 L 116.25 132.14 L 116.56 132.00 L 116.88 131.86 L 117.19 131.72 L 117.51 131.57 L 117.83 131.43 L 118.14 131.28 L 118.46 131.13 L 118.77 130.98 L 119.09 130.83 L 119.41 130.67 L 119.72 130.52 L 120.04 130.36 L 120.35 130.20 L 120.67 130.04 L 120.99 129.88 L 121.30 129.71 L 121.62 129.55 L 121.93 129.38 L 122.25 129.21 L 122.57 129.04 L 122.88 128.87 L 123.20 128.69 L 123.51 128.52 L 123.83 128.34 L 124.14 128.16 L 124.46 127.97 L 124.78 127.79 L 125.09 127.60 L 125.41 127.41 L 125.72 127.22 L 126.04 127.03 L 126.36 126.84 L 126.67 126.64 L 126.99 126.44 L 127.30 126.24 L 127.62 126.03 L 127.94 125.83 L 128.25 125.62 L 128.57 125.41 L 128.88 125.20 L 129.20 124.98 L 129.52 124.76 L 129.83 124.54 L 130.15 124.32 L 130.46 124.10 L 130.78 123.87 L 131.09 123.64 L 131.41 123.40 L 131.73 123.17 L 132.04 122.93 L 132.36 122.69 L 132.67 122.45 L 132.99 122.20 L 133.31 121.95 L 133.62 121.70 L 133.94 121.45 L 134.25 121.19 L 134.57 120.93 L 134.89 120.67 L 135.20 120.40 L 135.52 120.13 L 135.83 119.86 L 136.15 119.59 L 136.46 119.31 L 136.78 119.03 L 137.10 118.74 L 137.41 118.46 L 137.73 118.17 L 138.04 117.87 L 138.36 117.58 L 138.68 117.28 L 138.99 116.97 L 139.31 116.67 L 139.62 116.36 L 139.94 116.05 L 140.26 115.73 L 140.57 115.41 L 140.89 115.09 L 141.20 114.76 L 141.52 114.43 L 141.84 114.10 L 142.15 113.76 L 142.47 113.42 L 142.78 113.08 L 143.10 112.74 L 143.41 112.39 L 143.73 112.03 L 144.05 111.68 L 144.36 111.32 L 144.68 110.95 L 144.99 110.59 L 145.31 110.22 L 145.63 109.84 L 145.94 109.47 L 146.26 109.09 L 146.57 108.70 L 146.89 108.32 L 147.21 107.93 L 147.52 107.53 L 147.84 107.14 L 148.15 106.74 L 148.47 106.33 L 148.79 105.93 L 149.10 105.52 L 149.42 105.11 L 149.73 104.69 L 150.05 104.27 L 150.36 103.85 L 150.68 103.43 L 151.00 103.00 L 151.31 102.57 L 151.63 102.14 L 151.94 101.71 L 152.26 101.27 L 152.58 100.83 L 152.89 100.39 L 153.21 99.94 L 153.52 99.50 L 153.84 99.05 L 154.16 98.60 L 154.47 98.14 L 154.79 97.69 L 155.10 97.23 L 155.42 96.77 L 155.74 96.31 L 156.05 95.85 L 156.37 95.39 L 156.68 94.92 L 157.00 94.46 L 157.31 93.99 L 157.63 93.53 L 157.95 93.06 L 158.26 92.59 L 158.58 92.12 L 158.89 91.65 L 159.21 91.18 L 159.53 90.71 L 159.84 90.24 L 160.16 89.76 L 160.47 89.29 L 160.79 88.82 L 161.11 88.35 L 161.42 87.88 L 161.74 87.41 L 162.05 86.94 L 162.37 86.47 L 162.69 86.01 L 163.00 85.54 L 163.32 85.08 L 163.63 84.61 L 163.95 84.15 L 164.26 83.69 L 164.58 83.23 L 164.90 82.77 L 165.21 82.31 L 165.53 81.86 L 165.84 81.40 L 166.16 80.95 L 166.48 80.50 L 166.79 80.06 L 167.11 79.61 L 167.42 79.17 L 167.74 78.73 L 168.06 78.29 L 168.37 77.86 L 168.69 77.43 L 169.00 77.00 L 169.32 76.57 L 169.64 76.15 L 169.95 75.73 L 170.27 75.31 L 170.58 74.89 L 170.90 74.48 L 171.21 74.07 L 171.53 73.67 L 171.85 73.26 L 172.16 72.86 L 172.48 72.47 L 172.79 72.07 L 173.11 71.68 L 173.43 71.30 L 173.74 70.91 L 174.06 70.53 L 174.37 70.16 L 174.69 69.78 L 175.01 69.41 L 175.32 69.05 L 175.64 68.68 L 175.95 68.32 L 176.27 67.97 L 176.59 67.61 L 176.90 67.26 L 177.22 66.92 L 177.53 66.58 L 177.85 66.24 L 178.16 65.90 L 178.48 65.57 L 178.80 65.24 L 179.11 64.91 L 179.43 64.59 L 179.74 64.27 L 180.06 63.95 L 180.38 63.64 L 180.69 63.33 L 181.01 63.03 L 181.32 62.72 L 181.64 62.42 L 181.96 62.13 L 182.27 61.83 L 182.59 61.54 L 182.90 61.26 L 183.22 60.97 L 183.54 60.69 L 183.85 60.41 L 184.17 60.14 L 184.48 59.87 L 184.80 59.60 L 185.11 59.33 L 185.43 59.07 L 185.75 58.81 L 186.06 58.55 L 186.38 58.30 L 186.69 58.05 L 187.01 57.80 L 187.33 57.55 L 187.64 57.31 L 187.96 57.07 L 188.27 56.83 L 188.59 56.60 L 188.91 56.36 L 189.22 56.13 L 189.54 55.90 L 189.85 55.68 L 190.17 55.46 L 190.48 55.24 L 190.80 55.02 L 191.12 54.80 L 191.43 54.59 L 191.75 54.38 L 192.06 54.17 L 192.38 53.97 L 192.70 53.76 L 193.01 53.56 L 193.33 53.36 L 193.64 53.16 L 193.96 52.97 L 194.28 52.78 L 194.59 52.59 L 194.91 52.40 L 195.22 52.21 L 195.54 52.03 L 195.86 51.84 L 196.17 51.66 L 196.49 51.48 L 196.80 51.31 L 197.12 51.13 L 197.43 50.96 L 197.75 50.79 L 198.07 50.62 L 198.38 50.45 L 198.70 50.29 L 199.01 50.12 L 199.33 49.96 L 199.65 49.80 L 199.96 49.64 L 200.28 49.48 L 200.59 49.33 L 200.91 49.17 L 201.23 49.02 L 201.54 48.87 L 201.86 48.72 L 202.17 48.57 L 202.49 48.43 L 202.81 48.28 L 203.12 48.14 L 203.44 48.00 L 203.75 47.86 L 204.07 47.72 L 204.38 47.58 L 204.70 47.44 L 205.02 47.31 L 205.33 47.18 L 205.65 47.04 L 205.96 46.91 L 206.28 46.78 L 206.60 46.65 L 206.91 46.53 L 207.23 46.40 L 207.54 46.28 L 207.86 46.15 L 208.18 46.03 L 208.49 45.91 L 208.81 45.79 L 209.12 45.67 L 209.44 45.56 L 209.76 45.44 L 210.07 45.32 L 210.39 45.21 L 210.70 45.10 L 211.02 44.98 L 211.33 44.87 L 211.65 44.76 L 211.97 44.66 L 212.28 44.55 L 212.60 44.44 L 212.91 44.33 L 213.23 44.23 L 213.55 44.13 L 213.86 44.02 L 214.18 43.92 L 214.49 43.82 L 214.81 43.72 L 215.13 43.62 L 215.44 43.52 L 215.76 43.42 L 216.07 43.33 L 216.39 43.23 L 216.71 43.14 L 217.02 43.04 L 217.34 42.95 L 217.65 42.86 L 217.97 42.77 L 218.28 42.68 L 218.60 42.59 L 218.92 42.50 L 219.23 42.41 L 219.55 42.32 L 219.86 42.23 L 220.18 42.15 L 220.50 42.06 L 220.81 41.98 L 221.13 41.89 L 221.44 41.81 L 221.76 41.73 L 222.08 41.64 L 222.39 41.56 L 222.71 41.48 L 223.02 41.40 L 223.34 41.32 L 223.66 41.25 L 223.97 41.17 L 224.29 41.09 L 224.60 41.01 L 224.92 40.94 L 225.23 40.86 L 225.55 40.79 L 225.87 40.71 L 226.18 40.64 L 226.50 40.57 L 226.81 40.49 L 227.13 40.42 L 227.45 40.35 L 227.76 40.28 L 228.08 40.21 L 228.39 40.14 L 228.71 40.07 L 229.03 40.00 L 229.34 39.94 L 229.66 39.87 L 229.97 39.80 L 230.29 39.74 L 230.61 39.67 L 230.92 39.60 L 231.24 39.54 L 231.55 39.47 L 231.87 39.41 L 232.18 39.35 L 232.50 39.28 L 232.82 39.22 L 233.13 39.16 L 233.45 39.10 L 233.76 39.04 L 234.08 38.98 L 234.40 38.92 L 234.71 38.86 L 235.03 38.80 L 235.34 38.74 L 235.66 38.68 L 235.98 38.62 L 236.29 38.57 L 236.61 38.51 L 236.92 38.45 L 237.24 38.40 L 237.56 38.34 L 237.87 38.28 L 238.19 38.23 L 238.50 38.17 L 238.82 38.12 L 239.13 38.07 L 239.45 38.01 L 239.77 37.96 L 240.08 37.91 L 240.40 37.85 L 240.71 37.80 L 241.03 37.75 L 241.35 37.70 L 241.66 37.65 L 241.98 37.60 L 242.29 37.55 L 242.61 37.50 L 242.93 37.45 L 243.24 37.40 L 243.56 37.35 L 243.87 37.30 L 244.19 37.25 L 244.51 37.20 L 244.82 37.16 L 245.14 37.11 L 245.45 37.06 L 245.77 37.01 L 246.08 36.97 L 246.40 36.92 L 246.72 36.88 L 247.03 36.83 L 247.35 36.79 L 247.66 36.74 L 247.98 36.70 L 248.30 36.65 L 248.61 36.61 L 248.93 36.56 L 249.24 36.52 L 249.56 36.48 L 249.88 36.43 L 250.19 36.39 L 250.51 36.35 L 250.82 36.31 L 251.14 36.27 L 251.45 36.22 L 251.77 36.18 L 252.09 36.14 L 252.40 36.10 L 252.72 36.06 L 253.03 36.02 L 253.35 35.98 L 253.67 35.94 L 253.98 35.90 L 254.30 35.86 L 254.61 35.82 L 254.93 35.78 L 255.25 35.75 L 255.56 35.71 L 255.88 35.67 L 256.19 35.63 L 256.51 35.59 L 256.83 35.56 L 257.14 35.52 L 257.46 35.48 L 257.77 35.44 L 258.09 35.41 L 258.40 35.37 L 258.72 35.34 L 259.04 35.30 L 259.35 35.26 L 259.67 35.23 L 259.98 35.19 L 260.30 35.16 L 260.62 35.12 L 260.93 35.09 L 261.25 35.05 L 261.56 35.02 L 261.88 34.99 L 262.20 34.95 L 262.51 34.92 L 262.83 34.89 L 263.14 34.85 L 263.46 34.82 L 263.78 34.79 L 264.09 34.75 L 264.41 34.72 L 264.72 34.69 L 265.04 34.66 L 265.35 34.62 L 265.67 34.59 L 265.99 34.56 L 266.30 34.53 L 266.62 34.50 L 266.93 34.47 L 267.25 34.44 L 267.57 34.40 L 267.88 34.37 L 268.20 34.34 L 268.51 34.31 L 268.83 34.28 L 269.15 34.25 L 269.46 34.22 L 269.78 34.19 L 270.09 34.16 L 270.41 34.14 L 270.73 34.11 L 271.04 34.08 L 271.36 34.05 L 271.67 34.02 L 271.99 33.99 L 272.30 33.96 L 272.62 33.93 L 272.94 33.91 L 273.25 33.88 L 273.57 33.85 L 273.88 33.82 L 274.20 33.80 L 274.52 33.77 L 274.83 33.74 L 275.15 33.71 L 275.46 33.69 L 275.78 33.66 L 276.10 33.63 L 276.41 33.61 L 276.73 33.58 L 277.04 33.55 L 277.36 33.53 L 277.68 33.50 L 277.99 33.48 L 278.31 33.45 L 278.62 33.42 L 278.94 33.40 L 279.25 33.37 L 279.57 33.35 L 279.89 33.32 L 280.20 33.30 L 280.52 33.27 L 280.83 33.25 L 281.15 33.22 L 281.47 33.20 L 281.78 33.18 L 282.10 33.15 L 282.41 33.13 L 282.73 33.10 L 283.05 33.08 L 283.36 33.06 L 283.68 33.03 L 283.99 33.01 L 284.31 32.98 L 284.63 32.96 L 284.94 32.94 L 285.26 32.92 L 285.57 32.89 L 285.89 32.87 L 286.20 32.85 L 286.52 32.82 L 286.84 32.80 L 287.15 32.78 L 287.47 32.76 L 287.78 32.73 L 288.10 32.71 L 288.42 32.69 L 288.73 32.67 L 289.05 32.65 L 289.36 32.62 L 289.68 32.60 L 290.00 32.58 L 290.31 32.56 L 290.63 32.54 L 290.94 32.52 L 291.26 32.50 L 291.58 32.48 L 291.89 32.45 L 292.21 32.43 L 292.52 32.41 L 292.84 32.39 L 293.15 32.37 L 293.47 32.35 L 293.79 32.33 L 294.10 32.31 L 294.42 32.29 L 294.73 32.27 L 295.05 32.25 L 295.37 32.23 L 295.68 32.21 L 296.00 32.19 L 296.31 32.17 L 296.63 32.15 L 296.95 32.13 L 297.26 32.11 L 297.58 32.09 L 297.89 32.07 L 298.21 32.06 L 298.53 32.04 L 298.84 32.02 L 299.16 32.00 L 299.47 31.98 L 299.79 31.96 L 300.10 31.94 L 300.42 31.92 L 300.74 31.91 L 301.05 31.89 L 301.37 31.87 L 301.68 31.85 L 302.00 31.83" fill="none" stroke="#7E8692" stroke-width="2.3" stroke-linecap="round" stroke-linejoin="round"/>
</svg>
