<svg xmlns="http://www.w3.org/2000/svg" viewBox="0 0 320 180" width="320" height="180">
  <rect width="320" height="180" fill="#F4F5F7"/>
  <path d="M 24.00 141.00 L 24.23 140.90 L 24.45 140.81 L 24.68 140.71 L 24.91 140.61 L 25.13 140.52 L 25.36 140.42 L 25.59 140.32 L 25.81 140.23 L 26.04 140.13 L 26.27 140.03 L 26.50 139.94 L 26.72 139.84 L 26.95 139.74 L 27.18 139.65 L 27.40 139.55 L 27.63 139.45 L 27.86 139.36 L 28.08 139.26 L 28.31 139.16 L 28.54 139.07 L 28.76 138.97 L 28.99 138.87 L 29.22 138.78 L 29.44 138.68 L 29.67 138.58 L 29.90 138.49 L 30.13 138.39 L 30.35 138.29 L 30.58 138.20 L 30.81 138.10 L 31.03 138.00 L 31.26 137.90 L 31.49 137.81 L 31.71 137.71 L 31.94 137.61 L 32.17 137.52 L 32.39 137.42 L 32.62 137.32 L 32.85 137.22 L 33.07 137.13 L 33.30 137.03 L 33.53 136.93 L 33.75 136.84 L 33.98 136.74 L 34.21 136.64 L 34.44 136.54 L 34.66 136.45 L 34.89 136.35 L 35.12 136.25 L 35.34 136.15 L 35.57 136.06 L 35.80 135.96 L 36.02 135.86 L 36.25 135.76 L 36.48 135.67 L 36.70 135.57 L 36.93 135.47 L 37.16 135.37 L 37.38 135.28 L 37.61 135.18 L 37.84 135.08 L 38.07 134.98 L 38.29 134.88 L 38.52 134.79 L 38.75 134.69 L 38.97 134.59 L 39.20 134.49 L 39.43 134.39 L 39.65 134.30 L 39.88 134.20 L 40.11 134.10 L 40.33 134.00 L 40.56 133.90 L 40.79 133.81 L 41.01 133.71 L 41.24 133.61 L 41.47 133.51 L 41.69 133.41 L 41.92 133.32 L 42.15 133.22 L 42.38 133.12 L 42.60 133.02 L 42.83 132.92 L 43.06 132.82 L 43.28 132.73 L 43.51 132.63 L 43.74 132.53 L 43.96 132.43 L 44.19 132.33 L 44.42 132.23 L 44.64 132.13 L 44.87 132.04 L 45.10 131.94 L 45.32 131.84 L 45.55 131.74 L 45.78 131.64 L 46.01 131.54 L 46.23 131.44 L 46.46 131.34 L 46.69 131.25 L 46.91 131.15 L 47.14 131.05 L 47.37 130.95 L 47.59 130.85 L 47.82 130.75 L 48.05 130.65 L 48.27 130.55 L 48.50 130.45 L 48.73 130.35 L 48.95 130.25 L 49.18 130.16 L 49.41 130.06 L 49.63 129.96 L 49.86 129.86 L 50.09 129.76 L 50.32 129.66 L 50.54 129.56 L 50.77 129.46 L 51.00 129.36 L 51.22 129.26 L 51.45 129.16 L 51.68 129.06 L 51.90 128.96 L 52.13 128.86 L 52.36 128.76 L 52.58 128.66 L 52.81 128.56 L 53.04 128.46 L 53.26 128.36 L 53.49 128.26 L 53.72 128.16 L 53.94 128.06 L 54.17 127.96 L 54.40 127.86 L 54.63 127.76 L 54.85 127.66 L 55.08 127.56 L 55.31 127.46 L 55.53 127.36 L 55.76 127.26 L 55.99 127.16 L 56.21 127.06 L 56.44 126.96 L 56.67 126.86 L 56.89 126.76 L 57.12 126.66 L 57.35 126.56 L 57.57 126.46 L 57.80 126.35 L 58.03 126.25 L 58.26 126.15 L 58.48 126.05 L 58.71 125.95 L 58.94 125.85 L 59.16 125.75 L 59.39 125.65 L 59.62 125.55 L 59.84 125.45 L 60.07 125.34 L 60.30 125.24 L 60.52 125.14 L 60.75 125.04 L 60.98 124.94 L 61.20 124.84 L 61.43 124.74 L 61.66 124.63 L 61.88 124.53 L 62.11 124.43 L 62.34 124.33 L 62.57 124.23 L 62.79 124.13 L 63.02 124.02 L 63.25 123.92 L 63.47 123.82 L 63.70 123.72 L 63.93 123.62 L 64.15 123.51 L 64.38 123.41 L 64.61 123.31 L 64.83 123.21 L 65.06 123.11 L 65.29 123.00 L 65.51 122.90 L 65.74 122.80 L 65.97 122.70 L 66.20 122.59 L 66.42 122.49 L 66.65 122.39 L 66.88 122.28 L 67.10 122.18 L 67.33 122.08 L 67.56 121.98 L 67.78 121.87 L 68.01 121.77 L 68.24 121.67 L 68.46 121.56 L 68.69 121.46 L 68.92 121.36 L 69.14 121.25 L 69.37 121.15 L 69.60 121.05 L 69.82 120.94 L 70.05 120.84 L 70.28 120.73 L 70.51 120.63 L 70.73 120.53 L 70.96 120.42 L 71.19 120.32 L 71.41 120.22 L 71.64 120.11 L 71.87 120.01 L 72.09 119.90 L 72.32 119.80 L 72.55 119.69 L 72.77 119.59 L 73.00 119.48 L 73.23 119.38 L 73.45 119.28 L 73.68 119.17 L 73.91 119.07 L 74.14 118.96 L 74.36 118.86 L 74.59 118.75 L 74.82 118.65 L 75.04 118.54 L 75.27 118.43 L 75.50 118.33 L 75.72 118.22 L 75.95 118.12 L 76.18 118.01 L 76.40 117.91 L 76.63 117.80 L 76.86 117.70 L 77.08 117.59 L 77.31 117.48 L 77.54 117.38 L 77.76 117.27 L 77.99 117.16 L 78.22 117.06 L 78.45 116.95 L 78.67 116.85 L 78.90 116.74 L 79.13 116.63 L 79.35 116.53 L 79.58 116.42 L 79.81 116.31 L 80.03 116.20 L 80.26 116.10 L 80.49 115.99 L 80.71 115.88 L 80.94 115.77 L 81.17 115.67 L 81.39 115.56 L 81.62 115.45 L 81.85 115.34 L 82.08 115.24 L 82.30 115.13 L 82.53 115.02 L 82.76 114.91 L 82.98 114.80 L 83.21 114.69 L 83.44 114.59 L 83.66 114.48 L 83.89 114.37 L 84.12 114.26 L 84.34 114.15 L 84.57 114.04 L 84.80 113.93 L 85.02 113.82 L 85.25 113.71 L 85.48 113.60 L 85.70 113.49 L 85.93 113.38 L 86.16 113.27 L 86.39 113.16 L 86.61 113.05 L 86.84 112.94 L 87.07 112.83 L 87.29 112.72 L 87.52 112.61 L 87.75 112.50 L 87.97 112.39 L 88.20 112.28 L 88.43 112.17 L 88.65 112.06 L 88.88 111.95 L 89.11 111.83 L 89.33 111.72 L 89.56 111.61 L 89.79 111.50 L 90.02 111.39 L 90.24 111.27 L 90.47 111.16 L 90.70 111.05 L 90.92 110.94 L 91.15 110.82 L 91.38 110.71 L 91.60 110.60 L 91.83 110.49 L 92.06 110.37 L 92.28 110.26 L 92.51 110.14 L 92.74 110.03 L 92.96 109.92 L 93.19 109.80 L 93.42 109.69 L 93.64 109.57 L 93.87 109.46 L 94.10 109.34 L 94.33 109.23 L 94.55 109.11 L 94.78 109.00 L 95.01 108.88 L 95.23 108.77 L 95.46 108.65 L 95.69 108.54 L 95.91 108.42 L 96.14 108.30 L 96.37 108.19 L 96.59 108.07 L 96.82 107.95 L 97.05 107.84 L 97.27 107.72 L 97.50 107.60 L 97.73 107.48 L 97.95 107.37 L 98.18 107.25 L 98.41 107.13 L 98.64 107.01 L 98.86 106.89 L 99.09 106.77 L 99.32 106.65 L 99.54 106.53 L 99.77 106.41 L 100.00 106.30 L 100.22 106.18 L 100.45 106.05 L 100.68 105.93 L 100.90 105.81 L 101.13 105.69 L 101.36 105.57 L 101.58 105.45 L 101.81 105.33 L 102.04 105.21 L 102.27 105.08 L 102.49 104.96 L 102.72 104.84 L 102.95 104.72 L 103.17 104.59 L 103.40 104.47 L 103.63 104.35 L 103.85 104.22 L 104.08 104.10 L 104.31 103.97 L 104.53 103.85 L 104.76 103.72 L 104.99 103.60 L 105.21 103.47 L 105.44 103.35 L 105.67 103.22 L 105.89 103.10 L 106.12 102.97 L 106.35 102.84 L 106.58 102.71 L 106.80 102.59 L 107.03 102.46 L 107.26 102.33 L 107.48 102.20 L 107.71 102.07 L 107.94 101.94 L 108.16 101.81 L 108.39 101.68 L 108.62 101.55 L 108.84 101.42 L 109.07 101.29 L 109.30 101.16 L 109.52 101.03 L 109.75 100.90 L 109.98 100.76 L 110.21 100.63 L 110.43 100.50 L 110.66 100.36 L 110.89 100.23 L 111.11 100.10 L 111.34 99.96 L 111.57 99.83 L 111.79 99.69 L 112.02 99.55 L 112.25 99.42 L 112.47 99.28 L 112.70 99.14 L 112.93 99.01 L 113.15 98.87 L 113.38 98.73 L 113.61 98.59 L 113.83 98.45 L 114.06 98.31 L 114.29 98.17 L 114.52 98.03 L 114.74 97.89 L 114.97 97.74 L 115.20 97.60 L 115.42 97.46 L 115.65 97.31 L 115.88 97.17 L 116.10 97.02 L 116.33 96.88 L 116.56 96.73 L 116.78 96.59 L 117.01 96.44 L 117.24 96.29 L 117.46 96.14 L 117.69 95.99 L 117.92 95.84 L 118.15 95.69 L 118.37 95.54 L 118.60 95.39 L 118.83 95.24 L 119.05 95.09 L 119.28 94.93 L 119.51 94.78 L 119.73 94.62 L 119.96 94.47 L 120.19 94.31 L 120.41 94.15 L 120.64 94.00 L 120.87 93.84 L 121.09 93.68 L 121.32 93.52 L 121.55 93.36 L 121.77 93.19 L 122.00 93.03 L 122.23 92.87 L 122.46 92.70 L 122.68 92.54 L 122.91 92.37 L 123.14 92.20 L 123.36 92.03 L 123.59 91.86 L 123.82 91.69 L 124.04 91.52 L 124.27 91.35 L 124.50 91.18 L 124.72 91.00 L 124.95 90.83 L 125.18 90.65 L 125.40 90.47 L 125.63 90.29 L 125.86 90.11 L 126.09 89.93 L 126.31 89.75 L 126.54 89.57 L 126.77 89.38 L 126.99 89.19 L 127.22 89.01 L 127.45 88.82 L 127.67 88.63 L 127.90 88.44 L 128.13 88.24 L 128.35 88.05 L 128.58 87.85 L 128.81 87.65 L 129.03 87.45 L 129.26 87.25 L 129.49 87.05 L 129.71 86.85 L 129.94 86.64 L 130.17 86.43 L 130.40 86.22 L 130.62 86.01 L 130.85 85.80 L 131.08 85.58 L 131.30 85.37 L 131.53 85.15 L 131.76 84.93 L 131.98 84.70 L 132.21 84.48 L 132.44 84.25 L 132.66 84.02 L 132.89 83.79 L 133.12 83.55 L 133.34 83.31 L 133.57 83.08 L 133.80 82.83 L 134.03 82.59 L 134.25 82.34 L 134.48 82.09 L 134.71 81.84 L 134.93 81.58 L 135.16 81.32 L 135.39 81.06 L 135.61 80.79 L 135.84 80.53 L 136.07 80.25 L 136.29 79.98 L 136.52 79.70 L 136.75 79.42 L 136.97 79.13 L 137.20 78.84 L 137.43 78.54 L 137.65 78.24 L 137.88 77.94 L 138.11 77.63 L 138.34 77.32 L 138.56 77.01 L 138.79 76.68 L 139.02 76.36 L 139.24 76.03 L 139.47 75.69 L 139.70 75.35 L 139.92 75.00 L 140.15 74.65 L 140.38 74.29 L 140.60 73.92 L 140.83 73.55 L 141.06 73.17 L 141.28 72.78 L 141.51 72.39 L 141.74 71.98 L 141.96 71.58 L 142.19 71.16 L 142.42 70.73 L 142.65 70.30 L 142.87 69.85 L 143.10 69.40 L 143.33 68.94 L 143.55 68.46 L 143.78 67.98 L 144.01 67.49 L 144.23 66.98 L 144.46 66.46 L 144.69 65.93 L 144.91 65.38 L 145.14 64.82 L 145.37 64.25 L 145.59 63.66 L 145.82 63.06 L 146.05 62.44 L 146.28 61.80 L 146.50 61.14 L 146.73 60.47 L 146.96 59.77 L 147.18 59.05 L 147.41 58.31 L 147.64 57.55 L 147.86 56.76 L 148.09 55.94 L 148.32 55.09 L 148.54 54.22 L 148.77 53.31 L 149.00 52.37 L 149.22 51.40 L 149.45 50.39 L 149.68 49.33 L 149.90 48.23 L 150.13 47.09 L 150.36 45.90 L 150.59 44.65 L 150.81 43.35 L 151.04 41.98 L 151.27 40.55 L 151.49 39.05 L 151.72 37.47 L 151.95 35.80 L 152.17 34.05 L 152.40 32.20 L 152.63 30.23 L 152.85 28.15 L 153.08 25.94 L 153.31 23.58" fill="none" stroke="#7E8692" stroke-width="2.3" stroke-linecap="round" stroke-linejoin="round"/>
  <path d="M 166.69 156.42 L 166.92 154.06 L 167.15 151.85 L 167.37 149.77 L 167.60 147.80 L 167.83 145.95 L 168.05 144.20 L 168.28 142.53 L 168.51 140.95 L 168.73 139.45 L 168.96 138.02 L 169.19 136.65 L 169.41 135.35 L 169.64 134.10 L 169.87 132.91 L 170.10 131.77 L 170.32 130.67 L 170.55 129.61 L 170.78 128.60 L 171.00 127.63 L 171.23 126.69 L 171.46 125.78 L 171.68 124.91 L 171.91 124.06 L 172.14 123.24 L 172.36 122.45 L 172.59 121.69 L 172.82 120.95 L 173.04 120.23 L 173.27 119.53 L 173.50 118.86 L 173.72 118.20 L 173.95 117.56 L 174.18 116.94 L 174.41 116.34 L 174.63 115.75 L 174.86 115.18 L 175.09 114.62 L 175.31 114.07 L 175.54 113.54 L 175.77 113.02 L 175.99 112.51 L 176.22 112.02 L 176.45 111.54 L 176.67 111.06 L 176.90 110.60 L 177.13 110.15 L 177.35 109.70 L 177.58 109.27 L 177.81 108.84 L 178.04 108.42 L 178.26 108.02 L 178.49 107.61 L 178.72 107.22 L 178.94 106.83 L 179.17 106.45 L 179.40 106.08 L 179.62 105.71 L 179.85 105.35 L 180.08 105.00 L 180.30 104.65 L 180.53 104.31 L 180.76 103.97 L 180.98 103.64 L 181.21 103.32 L 181.44 102.99 L 181.66 102.68 L 181.89 102.37 L 182.12 102.06 L 182.35 101.76 L 182.57 101.46 L 182.80 101.16 L 183.03 100.87 L 183.25 100.58 L 183.48 100.30 L 183.71 100.02 L 183.93 99.75 L 184.16 99.47 L 184.39 99.21 L 184.61 98.94 L 184.84 98.68 L 185.07 98.42 L 185.29 98.16 L 185.52 97.91 L 185.75 97.66 L 185.97 97.41 L 186.20 97.17 L 186.43 96.92 L 186.66 96.69 L 186.88 96.45 L 187.11 96.21 L 187.34 95.98 L 187.56 95.75 L 187.79 95.52 L 188.02 95.30 L 188.24 95.07 L 188.47 94.85 L 188.70 94.63 L 188.92 94.42 L 189.15 94.20 L 189.38 93.99 L 189.60 93.78 L 189.83 93.57 L 190.06 93.36 L 190.29 93.15 L 190.51 92.95 L 190.74 92.75 L 190.97 92.55 L 191.19 92.35 L 191.42 92.15 L 191.65 91.95 L 191.87 91.76 L 192.10 91.56 L 192.33 91.37 L 192.55 91.18 L 192.78 90.99 L 193.01 90.81 L 193.23 90.62 L 193.46 90.43 L 193.69 90.25 L 193.91 90.07 L 194.14 89.89 L 194.37 89.71 L 194.60 89.53 L 194.82 89.35 L 195.05 89.17 L 195.28 89.00 L 195.50 88.82 L 195.73 88.65 L 195.96 88.48 L 196.18 88.31 L 196.41 88.14 L 196.64 87.97 L 196.86 87.80 L 197.09 87.63 L 197.32 87.46 L 197.54 87.30 L 197.77 87.13 L 198.00 86.97 L 198.23 86.81 L 198.45 86.64 L 198.68 86.48 L 198.91 86.32 L 199.13 86.16 L 199.36 86.00 L 199.59 85.85 L 199.81 85.69 L 200.04 85.53 L 200.27 85.38 L 200.49 85.22 L 200.72 85.07 L 200.95 84.91 L 201.17 84.76 L 201.40 84.61 L 201.63 84.46 L 201.85 84.31 L 202.08 84.16 L 202.31 84.01 L 202.54 83.86 L 202.76 83.71 L 202.99 83.56 L 203.22 83.41 L 203.44 83.27 L 203.67 83.12 L 203.90 82.98 L 204.12 82.83 L 204.35 82.69 L 204.58 82.54 L 204.80 82.40 L 205.03 82.26 L 205.26 82.11 L 205.48 81.97 L 205.71 81.83 L 205.94 81.69 L 206.17 81.55 L 206.39 81.41 L 206.62 81.27 L 206.85 81.13 L 207.07 80.99 L 207.30 80.86 L 207.53 80.72 L 207.75 80.58 L 207.98 80.45 L 208.21 80.31 L 208.43 80.17 L 208.66 80.04 L 208.89 79.90 L 209.11 79.77 L 209.34 79.64 L 209.57 79.50 L 209.79 79.37 L 210.02 79.24 L 210.25 79.10 L 210.48 78.97 L 210.70 78.84 L 210.93 78.71 L 211.16 78.58 L 211.38 78.45 L 211.61 78.32 L 211.84 78.19 L 212.06 78.06 L 212.29 77.93 L 212.52 77.80 L 212.74 77.67 L 212.97 77.54 L 213.20 77.41 L 213.42 77.29 L 213.65 77.16 L 213.88 77.03 L 214.11 76.90 L 214.33 76.78 L 214.56 76.65 L 214.79 76.53 L 215.01 76.40 L 215.24 76.28 L 215.47 76.15 L 215.69 76.03 L 215.92 75.90 L 216.15 75.78 L 216.37 75.65 L 216.60 75.53 L 216.83 75.41 L 217.05 75.28 L 217.28 75.16 L 217.51 75.04 L 217.73 74.92 L 217.96 74.79 L 218.19 74.67 L 218.42 74.55 L 218.64 74.43 L 218.87 74.31 L 219.10 74.19 L 219.32 74.07 L 219.55 73.95 L 219.78 73.82 L 220.00 73.70 L 220.23 73.59 L 220.46 73.47 L 220.68 73.35 L 220.91 73.23 L 221.14 73.11 L 221.36 72.99 L 221.59 72.87 L 221.82 72.75 L 222.05 72.63 L 222.27 72.52 L 222.50 72.40 L 222.73 72.28 L 222.95 72.16 L 223.18 72.05 L 223.41 71.93 L 223.63 71.81 L 223.86 71.70 L 224.09 71.58 L 224.31 71.46 L 224.54 71.35 L 224.77 71.23 L 224.99 71.12 L 225.22 71.00 L 225.45 70.89 L 225.67 70.77 L 225.90 70.66 L 226.13 70.54 L 226.36 70.43 L 226.58 70.31 L 226.81 70.20 L 227.04 70.08 L 227.26 69.97 L 227.49 69.86 L 227.72 69.74 L 227.94 69.63 L 228.17 69.51 L 228.40 69.40 L 228.62 69.29 L 228.85 69.18 L 229.08 69.06 L 229.30 68.95 L 229.53 68.84 L 229.76 68.73 L 229.98 68.61 L 230.21 68.50 L 230.44 68.39 L 230.67 68.28 L 230.89 68.17 L 231.12 68.05 L 231.35 67.94 L 231.57 67.83 L 231.80 67.72 L 232.03 67.61 L 232.25 67.50 L 232.48 67.39 L 232.71 67.28 L 232.93 67.17 L 233.16 67.06 L 233.39 66.95 L 233.61 66.84 L 233.84 66.73 L 234.07 66.62 L 234.30 66.51 L 234.52 66.40 L 234.75 66.29 L 234.98 66.18 L 235.20 66.07 L 235.43 65.96 L 235.66 65.85 L 235.88 65.74 L 236.11 65.63 L 236.34 65.52 L 236.56 65.41 L 236.79 65.31 L 237.02 65.20 L 237.24 65.09 L 237.47 64.98 L 237.70 64.87 L 237.92 64.76 L 238.15 64.66 L 238.38 64.55 L 238.61 64.44 L 238.83 64.33 L 239.06 64.23 L 239.29 64.12 L 239.51 64.01 L 239.74 63.90 L 239.97 63.80 L 240.19 63.69 L 240.42 63.58 L 240.65 63.47 L 240.87 63.37 L 241.10 63.26 L 241.33 63.15 L 241.55 63.05 L 241.78 62.94 L 242.01 62.84 L 242.24 62.73 L 242.46 62.62 L 242.69 62.52 L 242.92 62.41 L 243.14 62.30 L 243.37 62.20 L 243.60 62.09 L 243.82 61.99 L 244.05 61.88 L 244.28 61.78 L 244.50 61.67 L 244.73 61.57 L 244.96 61.46 L 245.18 61.35 L 245.41 61.25 L 245.64 61.14 L 245.86 61.04 L 246.09 60.93 L 246.32 60.83 L 246.55 60.72 L 246.77 60.62 L 247.00 60.52 L 247.23 60.41 L 247.45 60.31 L 247.68 60.20 L 247.91 60.10 L 248.13 59.99 L 248.36 59.89 L 248.59 59.78 L 248.81 59.68 L 249.04 59.58 L 249.27 59.47 L 249.49 59.37 L 249.72 59.27 L 249.95 59.16 L 250.18 59.06 L 250.40 58.95 L 250.63 58.85 L 250.86 58.75 L 251.08 58.64 L 251.31 58.54 L 251.54 58.44 L 251.76 58.33 L 251.99 58.23 L 252.22 58.13 L 252.44 58.02 L 252.67 57.92 L 252.90 57.82 L 253.12 57.72 L 253.35 57.61 L 253.58 57.51 L 253.80 57.41 L 254.03 57.30 L 254.26 57.20 L 254.49 57.10 L 254.71 57.00 L 254.94 56.89 L 255.17 56.79 L 255.39 56.69 L 255.62 56.59 L 255.85 56.49 L 256.07 56.38 L 256.30 56.28 L 256.53 56.18 L 256.75 56.08 L 256.98 55.98 L 257.21 55.87 L 257.43 55.77 L 257.66 55.67 L 257.89 55.57 L 258.12 55.47 L 258.34 55.37 L 258.57 55.26 L 258.80 55.16 L 259.02 55.06 L 259.25 54.96 L 259.48 54.86 L 259.70 54.76 L 259.93 54.66 L 260.16 54.55 L 260.38 54.45 L 260.61 54.35 L 260.84 54.25 L 261.06 54.15 L 261.29 54.05 L 261.52 53.95 L 261.74 53.85 L 261.97 53.75 L 262.20 53.65 L 262.43 53.54 L 262.65 53.44 L 262.88 53.34 L 263.11 53.24 L 263.33 53.14 L 263.56 53.04 L 263.79 52.94 L 264.01 52.84 L 264.24 52.74 L 264.47 52.64 L 264.69 52.54 L 264.92 52.44 L 265.15 52.34 L 265.37 52.24 L 265.60 52.14 L 265.83 52.04 L 266.06 51.94 L 266.28 51.84 L 266.51 51.74 L 266.74 51.64 L 266.96 51.54 L 267.19 51.44 L 267.42 51.34 L 267.64 51.24 L 267.87 51.14 L 268.10 51.04 L 268.32 50.94 L 268.55 50.84 L 268.78 50.74 L 269.00 50.64 L 269.23 50.54 L 269.46 50.44 L 269.68 50.34 L 269.91 50.24 L 270.14 50.14 L 270.37 50.04 L 270.59 49.94 L 270.82 49.84 L 271.05 49.75 L 271.27 49.65 L 271.50 49.55 L 271.73 49.45 L 271.95 49.35 L 272.18 49.25 L 272.41 49.15 L 272.63 49.05 L 272.86 48.95 L 273.09 48.85 L 273.31 48.75 L 273.54 48.66 L 273.77 48.56 L 273.99 48.46 L 274.22 48.36 L 274.45 48.26 L 274.68 48.16 L 274.90 48.06 L 275.13 47.96 L 275.36 47.87 L 275.58 47.77 L 275.81 47.67 L 276.04 47.57 L 276.26 47.47 L 276.49 47.37 L 276.72 47.27 L 276.94 47.18 L 277.17 47.08 L 277.40 46.98 L 277.62 46.88 L 277.85 46.78 L 278.08 46.68 L 278.31 46.59 L 278.53 46.49 L 278.76 46.39 L 278.99 46.29 L 279.21 46.19 L 279.44 46.10 L 279.67 46.00 L 279.89 45.90 L 280.12 45.80 L 280.35 45.70 L 280.57 45.61 L 280.80 45.51 L 281.03 45.41 L 281.25 45.31 L 281.48 45.21 L 281.71 45.12 L 281.93 45.02 L 282.16 44.92 L 282.39 44.82 L 282.62 44.72 L 282.84 44.63 L 283.07 44.53 L 283.30 44.43 L 283.52 44.33 L 283.75 44.24 L 283.98 44.14 L 284.20 44.04 L 284.43 43.94 L 284.66 43.85 L 284.88 43.75 L 285.11 43.65 L 285.34 43.55 L 285.56 43.46 L 285.79 43.36 L 286.02 43.26 L 286.25 43.16 L 286.47 43.07 L 286.70 42.97 L 286.93 42.87 L 287.15 42.78 L 287.38 42.68 L 287.61 42.58 L 287.83 42.48 L 288.06 42.39 L 288.29 42.29 L 288.51 42.19 L 288.74 42.10 L 288.97 42.00 L 289.19 41.90 L 289.42 41.80 L 289.65 41.71 L 289.87 41.61 L 290.10 41.51 L 290.33 41.42 L 290.56 41.32 L 290.78 41.22 L 291.01 41.13 L 291.24 41.03 L 291.46 40.93 L 291.69 40.84 L 291.92 40.74 L 292.14 40.64 L 292.37 40.55 L 292.60 40.45 L 292.82 40.35 L 293.05 40.26 L 293.28 40.16 L 293.50 40.06 L 293.73 39.97 L 293.96 39.87 L 294.19 39.77 L 294.41 39.68 L 294.64 39.58 L 294.87 39.48 L 295.09 39.39 L 295.32 39.29 L 295.55 39.19 L 295.77 39.10 L 296.00 39.00" fill="none" stroke="#7E8692" stroke-width="2.3" stroke-linecap="round" stroke-linejoin="round"/>
</svg>
