<svg xmlns="http://www.w3.org/2000/svg" viewBox="0 0 320 180" width="320" height="180">
  <rect width="320" height="180" fill="#F4F5F7"/>
  <path d="M 18.00 156.49 L 18.32 156.49 L 18.63 156.48 L 18.95 156.48 L 19.26 156.48 L 19.58 156.48 L 19.90 156.48 L 20.21 156.47 L 20.53 156.47 L 20.84 156.47 L 21.16 156.47 L 21.47 156.46 L 21.79 156.46 L 22.11 156.46 L 22.42 156.46 L 22.74 156.46 L 23.05 156.45 L 23.37 156.45 L 23.69 156.45 L 24.00 156.45 L 24.32 156.44 L 24.63 156.44 L 24.95 156.44 L 25.27 156.44 L 25.58 156.43 L 25.90 156.43 L 26.21 156.43 L 26.53 156.43 L 26.85 156.42 L 27.16 156.42 L 27.48 156.42 L 27.79 156.41 L 28.11 156.41 L 28.42 156.41 L 28.74 156.41 L 29.06 156.40 L 29.37 156.40 L 29.69 156.40 L 30.00 156.39 L 30.32 156.39 L 30.64 156.39 L 30.95 156.38 L 31.27 156.38 L 31.58 156.38 L 31.90 156.38 L 32.22 156.37 L 32.53 156.37 L 32.85 156.37 L 33.16 156.36 L 33.48 156.36 L 33.80 156.36 L 34.11 156.35 L 34.43 156.35 L 34.74 156.34 L 35.06 156.34 L 35.37 156.34 L 35.69 156.33 L 36.01 156.33 L 36.32 156.33 L 36.64 156.32 L 36.95 156.32 L 37.27 156.31 L 37.59 156.31 L 37.90 156.31 L 38.22 156.30 L 38.53 156.30 L 38.85 156.29 L 39.17 156.29 L 39.48 156.29 L 39.80 156.28 L 40.11 156.28 L 40.43 156.27 L 40.75 156.27 L 41.06 156.26 L 41.38 156.26 L 41.69 156.26 L 42.01 156.25 L 42.32 156.25 L 42.64 156.24 L 42.96 156.24 L 43.27 156.23 L 43.59 156.23 L 43.90 156.22 L 44.22 156.22 L 44.54 156.21 L 44.85 156.21 L 45.17 156.20 L 45.48 156.20 L 45.80 156.19 L 46.12 156.19 L 46.43 156.18 L 46.75 156.18 L 47.06 156.17 L 47.38 156.17 L 47.70 156.16 L 48.01 156.15 L 48.33 156.15 L 48.64 156.14 L 48.96 156.14 L 49.27 156.13 L 49.59 156.13 L 49.91 156.12 L 50.22 156.11 L 50.54 156.11 L 50.85 156.10 L 51.17 156.10 L 51.49 156.09 L 51.80 156.08 L 52.12 156.08 L 52.43 156.07 L 52.75 156.06 L 53.07 156.06 L 53.38 156.05 L 53.70 156.04 L 54.01 156.04 L 54.33 156.03 L 54.65 156.02 L 54.96 156.01 L 55.28 156.01 L 55.59 156.00 L 55.91 155.99 L 56.22 155.99 L 56.54 155.98 L 56.86 155.97 L 57.17 155.96 L 57.49 155.95 L 57.80 155.95 L 58.12 155.94 L 58.44 155.93 L 58.75 155.92 L 59.07 155.91 L 59.38 155.91 L 59.70 155.90 L 60.02 155.89 L 60.33 155.88 L 60.65 155.87 L 60.96 155.86 L 61.28 155.85 L 61.60 155.85 L 61.91 155.84 L 62.23 155.83 L 62.54 155.82 L 62.86 155.81 L 63.17 155.80 L 63.49 155.79 L 63.81 155.78 L 64.12 155.77 L 64.44 155.76 L 64.75 155.75 L 65.07 155.74 L 65.39 155.73 L 65.70 155.72 L 66.02 155.71 L 66.33 155.70 L 66.65 155.69 L 66.97 155.68 L 67.28 155.67 L 67.60 155.66 L 67.91 155.64 L 68.23 155.63 L 68.55 155.62 L 68.86 155.61 L 69.18 155.60 L 69.49 155.59 L 69.81 155.58 L 70.12 155.56 L 70.44 155.55 L 70.76 155.54 L 71.07 155.53 L 71.39 155.51 L 71.70 155.50 L 72.02 155.49 L 72.34 155.48 L 72.65 155.46 L 72.97 155.45 L 73.28 155.44 L 73.60 155.42 L 73.92 155.41 L 74.23 155.40 L 74.55 155.38 L 74.86 155.37 L 75.18 155.35 L 75.49 155.34 L 75.81 155.33 L 76.13 155.31 L 76.44 155.30 L 76.76 155.28 L 77.07 155.27 L 77.39 155.25 L 77.71 155.24 L 78.02 155.22 L 78.34 155.20 L 78.65 155.19 L 78.97 155.17 L 79.29 155.16 L 79.60 155.14 L 79.92 155.12 L 80.23 155.11 L 80.55 155.09 L 80.87 155.07 L 81.18 155.05 L 81.50 155.04 L 81.81 155.02 L 82.13 155.00 L 82.44 154.98 L 82.76 154.96 L 83.08 154.95 L 83.39 154.93 L 83.71 154.91 L 84.02 154.89 L 84.34 154.87 L 84.66 154.85 L 84.97 154.83 L 85.29 154.81 L 85.60 154.79 L 85.92 154.77 L 86.24 154.75 L 86.55 154.73 L 86.87 154.71 L 87.18 154.69 L 87.50 154.67 L 87.82 154.65 L 88.13 154.62 L 88.45 154.60 L 88.76 154.58 L 89.08 154.56 L 89.39 154.53 L 89.71 154.51 L 90.03 154.49 L 90.34 154.47 L 90.66 154.44 L 90.97 154.42 L 91.29 154.39 L 91.61 154.37 L 91.92 154.34 L 92.24 154.32 L 92.55 154.29 L 92.87 154.27 L 93.19 154.24 L 93.50 154.22 L 93.82 154.19 L 94.13 154.17 L 94.45 154.14 L 94.77 154.11 L 95.08 154.08 L 95.40 154.06 L 95.71 154.03 L 96.03 154.00 L 96.34 153.97 L 96.66 153.94 L 96.98 153.91 L 97.29 153.89 L 97.61 153.86 L 97.92 153.83 L 98.24 153.80 L 98.56 153.77 L 98.87 153.74 L 99.19 153.70 L 99.50 153.67 L 99.82 153.64 L 100.14 153.61 L 100.45 153.58 L 100.77 153.54 L 101.08 153.51 L 101.40 153.48 L 101.72 153.44 L 102.03 153.41 L 102.35 153.38 L 102.66 153.34 L 102.98 153.31 L 103.29 153.27 L 103.61 153.24 L 103.93 153.20 L 104.24 153.16 L 104.56 153.13 L 104.87 153.09 L 105.19 153.05 L 105.51 153.01 L 105.82 152.98 L 106.14 152.94 L 106.45 152.90 L 106.77 152.86 L 107.09 152.82 L 107.40 152.78 L 107.72 152.74 L 108.03 152.70 L 108.35 152.66 L 108.67 152.62 L 108.98 152.57 L 109.30 152.53 L 109.61 152.49 L 109.93 152.45 L 110.24 152.40 L 110.56 152.36 L 110.88 152.31 L 111.19 152.27 L 111.51 152.22 L 111.82 152.18 L 112.14 152.13 L 112.46 152.08 L 112.77 152.04 L 113.09 151.99 L 113.40 151.94 L 113.72 151.89 L 114.04 151.84 L 114.35 151.80 L 114.67 151.75 L 114.98 151.70 L 115.30 151.64 L 115.62 151.59 L 115.93 151.54 L 116.25 151.49 L 116.56 151.44 L 116.88 151.38 L 117.19 151.33 L 117.51 151.28 L 117.83 151.22 L 118.14 151.17 L 118.46 151.11 L 118.77 151.06 L 119.09 151.00 L 119.41 150.94 L 119.72 150.88 L 120.04 150.83 L 120.35 150.77 L 120.67 150.71 L 120.99 150.65 L 121.30 150.59 L 121.62 150.53 L 121.93 150.47 L 122.25 150.40 L 122.57 150.34 L 122.88 150.28 L 123.20 150.22 L 123.51 150.15 L 123.83 150.09 L 124.14 150.02 L 124.46 149.96 L 124.78 149.89 L 125.09 149.82 L 125.41 149.76 L 125.72 149.69 L 126.04 149.62 L 126.36 149.55 L 126.67 149.48 L 126.99 149.41 L 127.30 149.34 L 127.62 149.27 L 127.94 149.20 L 128.25 149.12 L 128.57 149.05 L 128.88 148.98 L 129.20 148.90 L 129.52 148.83 L 129.83 148.75 L 130.15 148.67 L 130.46 148.60 L 130.78 148.52 L 131.09 148.44 L 131.41 148.36 L 131.73 148.28 L 132.04 148.20 L 132.36 148.12 L 132.67 148.04 L 132.99 147.96 L 133.31 147.87 L 133.62 147.79 L 133.94 147.70 L 134.25 147.62 L 134.57 147.53 L 134.89 147.45 L 135.20 147.36 L 135.52 147.27 L 135.83 147.18 L 136.15 147.10 L 136.46 147.01 L 136.78 146.92 L 137.10 146.82 L 137.41 146.73 L 137.73 146.64 L 138.04 146.55 L 138.36 146.45 L 138.68 146.36 L 138.99 146.26 L 139.31 146.17 L 139.62 146.07 L 139.94 145.97 L 140.26 145.87 L 140.57 145.77 L 140.89 145.67 L 141.20 145.57 L 141.52 145.47 L 141.84 145.37 L 142.15 145.27 L 142.47 145.16 L 142.78 145.06 L 143.10 144.95 L 143.41 144.85 L 143.73 144.74 L 144.05 144.63 L 144.36 144.53 L 144.68 144.42 L 144.99 144.31 L 145.31 144.20 L 145.63 144.09 L 145.94 143.97 L 146.26 143.86 L 146.57 143.75 L 146.89 143.63 L 147.21 143.52 L 147.52 143.40 L 147.84 143.29 L 148.15 143.17 L 148.47 143.05 L 148.79 142.93 L 149.10 142.81 L 149.42 142.69 L 149.73 142.57 L 150.05 142.45 L 150.36 142.32 L 150.68 142.20 L 151.00 142.08 L 151.31 141.95 L 151.63 141.82 L 151.94 141.70 L 152.26 141.57 L 152.58 141.44 L 152.89 141.31 L 153.21 141.18 L 153.52 141.05 L 153.84 140.92 L 154.16 140.79 L 154.47 140.65 L 154.79 140.52 L 155.10 140.38 L 155.42 140.25 L 155.74 140.11 L 156.05 139.97 L 156.37 139.83 L 156.68 139.69 L 157.00 139.55 L 157.31 139.41 L 157.63 139.27 L 157.95 139.13 L 158.26 138.99 L 158.58 138.84 L 158.89 138.70 L 159.21 138.55 L 159.53 138.40 L 159.84 138.26 L 160.16 138.11 L 160.47 137.96 L 160.79 137.81 L 161.11 137.66 L 161.42 137.51 L 161.74 137.35 L 162.05 137.20 L 162.37 137.05 L 162.69 136.89 L 163.00 136.74 L 163.32 136.58 L 163.63 136.42 L 163.95 136.26 L 164.26 136.11 L 164.58 135.95 L 164.90 135.78 L 165.21 135.62 L 165.53 135.46 L 165.84 135.30 L 166.16 135.13 L 166.48 134.97 L 166.79 134.80 L 167.11 134.64 L 167.42 134.47 L 167.74 134.30 L 168.06 134.13 L 168.37 133.96 L 168.69 133.79 L 169.00 133.62 L 169.32 133.45 L 169.64 133.28 L 169.95 133.10 L 170.27 132.93 L 170.58 132.75 L 170.90 132.58 L 171.21 132.40 L 171.53 132.22 L 171.85 132.05 L 172.16 131.87 L 172.48 131.69 L 172.79 131.51 L 173.11 131.32 L 173.43 131.14 L 173.74 130.96 L 174.06 130.77 L 174.37 130.59 L 174.69 130.40 L 175.01 130.22 L 175.32 130.03 L 175.64 129.84 L 175.95 129.65 L 176.27 129.47 L 176.59 129.28 L 176.90 129.08 L 177.22 128.89 L 177.53 128.70 L 177.85 128.51 L 178.16 128.31 L 178.48 128.12 L 178.80 127.92 L 179.11 127.73 L 179.43 127.53 L 179.74 127.33 L 180.06 127.14 L 180.38 126.94 L 180.69 126.74 L 181.01 126.54 L 181.32 126.33 L 181.64 126.13 L 181.96 125.93 L 182.27 125.73 L 182.59 125.52 L 182.90 125.32 L 183.22 125.11 L 183.54 124.91 L 183.85 124.70 L 184.17 124.49 L 184.48 124.28 L 184.80 124.08 L 185.11 123.87 L 185.43 123.66 L 185.75 123.44 L 186.06 123.23 L 186.38 123.02 L 186.69 122.81 L 187.01 122.59 L 187.33 122.38 L 187.64 122.16 L 187.96 121.95 L 188.27 121.73 L 188.59 121.52 L 188.91 121.30 L 189.22 121.08 L 189.54 120.86 L 189.85 120.64 L 190.17 120.42 L 190.48 120.20 L 190.80 119.98 L 191.12 119.76 L 191.43 119.54 L 191.75 119.31 L 192.06 119.09 L 192.38 118.86 L 192.70 118.64 L 193.01 118.41 L 193.33 118.19 L 193.64 117.96 L 193.96 117.73 L 194.28 117.50 L 194.59 117.28 L 194.91 117.05 L 195.22 116.82 L 195.54 116.59 L 195.86 116.36 L 196.17 116.12 L 196.49 115.89 L 196.80 115.66 L 197.12 115.43 L 197.43 115.19 L 197.75 114.96 L 198.07 114.72 L 198.38 114.49 L 198.70 114.25 L 199.01 114.02 L 199.33 113.78 L 199.65 113.54 L 199.96 113.30 L 200.28 113.06 L 200.59 112.83 L 200.91 112.59 L 201.23 112.35 L 201.54 112.11 L 201.86 111.86 L 202.17 111.62 L 202.49 111.38 L 202.81 111.14 L 203.12 110.89 L 203.44 110.65 L 203.75 110.41 L 204.07 110.16 L 204.38 109.92 L 204.70 109.67 L 205.02 109.43 L 205.33 109.18 L 205.65 108.93 L 205.96 108.69 L 206.28 108.44 L 206.60 108.19 L 206.91 107.94 L 207.23 107.69 L 207.54 107.44 L 207.86 107.19 L 208.18 106.94 L 208.49 106.69 L 208.81 106.44 L 209.12 106.19 L 209.44 105.94 L 209.76 105.68 L 210.07 105.43 L 210.39 105.18 L 210.70 104.92 L 211.02 104.67 L 211.33 104.41 L 211.65 104.16 L 211.97 103.90 L 212.28 103.65 L 212.60 103.39 L 212.91 103.14 L 213.23 102.88 L 213.55 102.62 L 213.86 102.36 L 214.18 102.10 L 214.49 101.85 L 214.81 101.59 L 215.13 101.33 L 215.44 101.07 L 215.76 100.81 L 216.07 100.55 L 216.39 100.29 L 216.71 100.03 L 217.02 99.77 L 217.34 99.50 L 217.65 99.24 L 217.97 98.98 L 218.28 98.72 L 218.60 98.45 L 218.92 98.19 L 219.23 97.93 L 219.55 97.66 L 219.86 97.40 L 220.18 97.13 L 220.50 96.87 L 220.81 96.60 L 221.13 96.34 L 221.44 96.07 L 221.76 95.81 L 222.08 95.54 L 222.39 95.27 L 222.71 95.01 L 223.02 94.74 L 223.34 94.47 L 223.66 94.20 L 223.97 93.93 L 224.29 93.67 L 224.60 93.40 L 224.92 93.13 L 225.23 92.86 L 225.55 92.59 L 225.87 92.32 L 226.18 92.05 L 226.50 91.78 L 226.81 91.51 L 227.13 91.24 L 227.45 90.97 L 227.76 90.69 L 228.08 90.42 L 228.39 90.15 L 228.71 89.88 L 229.03 89.60 L 229.34 89.33 L 229.66 89.06 L 229.97 88.79 L 230.29 88.51 L 230.61 88.24 L 230.92 87.96 L 231.24 87.69 L 231.55 87.42 L 231.87 87.14 L 232.18 86.87 L 232.50 86.59 L 232.82 86.32 L 233.13 86.04 L 233.45 85.77 L 233.76 85.49 L 234.08 85.21 L 234.40 84.94 L 234.71 84.66 L 235.03 84.38 L 235.34 84.11 L 235.66 83.83 L 235.98 83.55 L 236.29 83.27 L 236.61 83.00 L 236.92 82.72 L 237.24 82.44 L 237.56 82.16 L 237.87 81.88 L 238.19 81.60 L 238.50 81.33 L 238.82 81.05 L 239.13 80.77 L 239.45 80.49 L 239.77 80.21 L 240.08 79.93 L 240.40 79.65 L 240.71 79.37 L 241.03 79.09 L 241.35 78.81 L 241.66 78.53 L 241.98 78.25 L 242.29 77.96 L 242.61 77.68 L 242.93 77.40 L 243.24 77.12 L 243.56 76.84 L 243.87 76.56 L 244.19 76.27 L 244.51 75.99 L 244.82 75.71 L 245.14 75.43 L 245.45 75.14 L 245.77 74.86 L 246.08 74.58 L 246.40 74.30 L 246.72 74.01 L 247.03 73.73 L 247.35 73.45 L 247.66 73.16 L 247.98 72.88 L 248.30 72.60 L 248.61 72.31 L 248.93 72.03 L 249.24 71.74 L 249.56 71.46 L 249.88 71.17 L 250.19 70.89 L 250.51 70.60 L 250.82 70.32 L 251.14 70.03 L 251.45 69.75 L 251.77 69.46 L 252.09 69.18 L 252.40 68.89 L 252.72 68.61 L 253.03 68.32 L 253.35 68.04 L 253.67 67.75 L 253.98 67.46 L 254.30 67.18 L 254.61 66.89 L 254.93 66.60 L 255.25 66.32 L 255.56 66.03 L 255.88 65.74 L 256.19 65.46 L 256.51 65.17 L 256.83 64.88 L 257.14 64.60 L 257.46 64.31 L 257.77 64.02 L 258.09 63.73 L 258.40 63.45 L 258.72 63.16 L 259.04 62.87 L 259.35 62.58 L 259.67 62.30 L 259.98 62.01 L 260.30 61.72 L 260.62 61.43 L 260.93 61.14 L 261.25 60.85 L 261.56 60.57 L 261.88 60.28 L 262.20 59.99 L 262.51 59.70 L 262.83 59.41 L 263.14 59.12 L 263.46 58.83 L 263.78 58.54 L 264.09 58.25 L 264.41 57.97 L 264.72 57.68 L 265.04 57.39 L 265.35 57.10 L 265.67 56.81 L 265.99 56.52 L 266.30 56.23 L 266.62 55.94 L 266.93 55.65 L 267.25 55.36 L 267.57 55.07 L 267.88 54.78 L 268.20 54.49 L 268.51 54.20 L 268.83 53.91 L 269.15 53.62 L 269.46 53.33 L 269.78 53.04 L 270.09 52.75 L 270.41 52.45 L 270.73 52.16 L 271.04 51.87 L 271.36 51.58 L 271.67 51.29 L 271.99 51.00 L 272.30 50.71 L 272.62 50.42 L 272.94 50.13 L 273.25 49.84 L 273.57 49.55 L 273.88 49.25 L 274.20 48.96 L 274.52 48.67 L 274.83 48.38 L 275.15 48.09 L 275.46 47.80 L 275.78 47.50 L 276.10 47.21 L 276.41 46.92 L 276.73 46.63 L 277.04 46.34 L 277.36 46.05 L 277.68 45.75 L 277.99 45.46 L 278.31 45.17 L 278.62 44.88 L 278.94 44.59 L 279.25 44.29 L 279.57 44.00 L 279.89 43.71 L 280.20 43.42 L 280.52 43.12 L 280.83 42.83 L 281.15 42.54 L 281.47 42.25 L 281.78 41.95 L 282.10 41.66 L 282.41 41.37 L 282.73 41.08 L 283.05 40.78 L 283.36 40.49 L 283.68 40.20 L 283.99 39.90 L 284.31 39.61 L 284.63 39.32 L 284.94 39.03 L 285.26 38.73 L 285.57 38.44 L 285.89 38.15 L 286.20 37.85 L 286.52 37.56 L 286.84 37.27 L 287.15 36.97 L 287.47 36.68 L 287.78 36.39 L 288.10 36.09 L 288.42 35.80 L 288.73 35.51 L 289.05 35.21 L 289.36 34.92 L 289.68 34.63 L 290.00 34.33 L 290.31 34.04 L 290.63 33.75 L 290.94 33.45 L 291.26 33.16 L 291.58 32.86 L 291.89 32.57 L 292.21 32.28 L 292.52 31.98 L 292.84 31.69 L 293.15 31.39 L 293.47 31.10 L 293.79 30.81 L 294.10 30.51 L 294.42 30.22 L 294.73 29.92 L 295.05 29.63 L 295.37 29.34 L 295.68 29.04 L 296.00 28.75 L 296.31 28.45 L 296.63 28.16 L 296.95 27.87 L 297.26 27.57 L 297.58 27.28 L 297.89 26.98 L 298.21 26.69 L 298.53 26.39 L 298.84 26.10 L 299.16 25.81 L 299.47 25.51 L 299.79 25.22 L 300.10 24.92 L 300.42 24.63 L 300.74 24.33 L 301.05 24.04 L 301.37 23.74 L 301.68 23.45 L 302.00 23.15" fill="none" stroke="#7E8692" stroke-width="2.3" stroke-linecap="round" stroke-linejoin="round"/>
</svg>
