<svg xmlns="http://www.w3.org/2000/svg" viewBox="0 0 320 180" width="320" height="180">
  <rect width="320" height="180" fill="none"/>
  <path d="M 24.00 41.32 L 24.30 42.24 L 24.61 43.16 L 24.91 44.08 L 25.21 44.98 L 25.51 45.88 L 25.82 46.78 L 26.12 47.67 L 26.42 48.55 L 26.72 49.43 L 27.03 50.30 L 27.33 51.16 L 27.63 52.02 L 27.93 52.87 L 28.24 53.72 L 28.54 54.56 L 28.84 55.40 L 29.14 56.23 L 29.45 57.05 L 29.75 57.87 L 30.05 58.68 L 30.35 59.49 L 30.66 60.29 L 30.96 61.09 L 31.26 61.88 L 31.56 62.66 L 31.87 63.44 L 32.17 64.21 L 32.47 64.98 L 32.77 65.74 L 33.08 66.50 L 33.38 67.25 L 33.68 68.00 L 33.98 68.74 L 34.29 69.48 L 34.59 70.21 L 34.89 70.93 L 35.19 71.65 L 35.50 72.37 L 35.80 73.08 L 36.10 73.78 L 36.40 74.48 L 36.71 75.17 L 37.01 75.86 L 37.31 76.55 L 37.62 77.23 L 37.92 77.90 L 38.22 78.57 L 38.52 79.23 L 38.83 79.89 L 39.13 80.55 L 39.43 81.20 L 39.73 81.84 L 40.04 82.48 L 40.34 83.12 L 40.64 83.75 L 40.94 84.37 L 41.25 84.99 L 41.55 85.61 L 41.85 86.22 L 42.15 86.82 L 42.46 87.43 L 42.76 88.02 L 43.06 88.61 L 43.36 89.20 L 43.67 89.79 L 43.97 90.36 L 44.27 90.94 L 44.57 91.51 L 44.88 92.07 L 45.18 92.63 L 45.48 93.19 L 45.78 93.74 L 46.09 94.29 L 46.39 94.83 L 46.69 95.37 L 46.99 95.91 L 47.30 96.44 L 47.60 96.96 L 47.90 97.49 L 48.20 98.00 L 48.51 98.52 L 48.81 99.03 L 49.11 99.53 L 49.41 100.03 L 49.72 100.53 L 50.02 101.02 L 50.32 101.51 L 50.63 102.00 L 50.93 102.48 L 51.23 102.96 L 51.53 103.43 L 51.84 103.90 L 52.14 104.36 L 52.44 104.82 L 52.74 105.28 L 53.05 105.73 L 53.35 106.18 L 53.65 106.63 L 53.95 107.07 L 54.26 107.51 L 54.56 107.94 L 54.86 108.37 L 55.16 108.80 L 55.47 109.23 L 55.77 109.65 L 56.07 110.06 L 56.37 110.47 L 56.68 110.88 L 56.98 111.29 L 57.28 111.69 L 57.58 112.09 L 57.89 112.48 L 58.19 112.87 L 58.49 113.26 L 58.79 113.65 L 59.10 114.03 L 59.40 114.40 L 59.70 114.78 L 60.00 115.15 L 60.31 115.52 L 60.61 115.88 L 60.91 116.24 L 61.21 116.60 L 61.52 116.95 L 61.82 117.30 L 62.12 117.65 L 62.42 117.99 L 62.73 118.34 L 63.03 118.67 L 63.33 119.01 L 63.64 119.34 L 63.94 119.67 L 64.24 120.00 L 64.54 120.32 L 64.85 120.64 L 65.15 120.95 L 65.45 121.27 L 65.75 121.58 L 66.06 121.89 L 66.36 122.19 L 66.66 122.49 L 66.96 122.79 L 67.27 123.09 L 67.57 123.38 L 67.87 123.67 L 68.17 123.96 L 68.48 124.24 L 68.78 124.52 L 69.08 124.80 L 69.38 125.08 L 69.69 125.35 L 69.99 125.62 L 70.29 125.89 L 70.59 126.15 L 70.90 126.42 L 71.20 126.67 L 71.50 126.93 L 71.80 127.19 L 72.11 127.44 L 72.41 127.69 L 72.71 127.93 L 73.01 128.18 L 73.32 128.42 L 73.62 128.66 L 73.92 128.90 L 74.22 129.13 L 74.53 129.36 L 74.83 129.59 L 75.13 129.82 L 75.43 130.04 L 75.74 130.26 L 76.04 130.48 L 76.34 130.70 L 76.65 130.92 L 76.95 131.13 L 77.25 131.34 L 77.55 131.55 L 77.86 131.75 L 78.16 131.96 L 78.46 132.16 L 78.76 132.36 L 79.07 132.55 L 79.37 132.75 L 79.67 132.94 L 79.97 133.13 L 80.28 133.32 L 80.58 133.50 L 80.88 133.69 L 81.18 133.87 L 81.49 134.05 L 81.79 134.23 L 82.09 134.40 L 82.39 134.58 L 82.70 134.75 L 83.00 134.92 L 83.30 135.08 L 83.60 135.25 L 83.91 135.41 L 84.21 135.57 L 84.51 135.73 L 84.81 135.89 L 85.12 136.05 L 85.42 136.20 L 85.72 136.35 L 86.02 136.50 L 86.33 136.65 L 86.63 136.80 L 86.93 136.94 L 87.23 137.09 L 87.54 137.23 L 87.84 137.37 L 88.14 137.51 L 88.44 137.64 L 88.75 137.78 L 89.05 137.91 L 89.35 138.04 L 89.66 138.17 L 89.96 138.30 L 90.26 138.42 L 90.56 138.55 L 90.87 138.67 L 91.17 138.79 L 91.47 138.91 L 91.77 139.03 L 92.08 139.15 L 92.38 139.26 L 92.68 139.37 L 92.98 139.49 L 93.29 139.60 L 93.59 139.70 L 93.89 139.81 L 94.19 139.92 L 94.50 140.02 L 94.80 140.13 L 95.10 140.23 L 95.40 140.33 L 95.71 140.43 L 96.01 140.52 L 96.31 140.62 L 96.61 140.71 L 96.92 140.81 L 97.22 140.90 L 97.52 140.99 L 97.82 141.08 L 98.13 141.17 L 98.43 141.25 L 98.73 141.34 L 99.03 141.42 L 99.34 141.51 L 99.64 141.59 L 99.94 141.67 L 100.24 141.75 L 100.55 141.83 L 100.85 141.90 L 101.15 141.98 L 101.45 142.05 L 101.76 142.13 L 102.06 142.20 L 102.36 142.27 L 102.67 142.34 L 102.97 142.41 L 103.27 142.48 L 103.57 142.54 L 103.88 142.61 L 104.18 142.68 L 104.48 142.74 L 104.78 142.80 L 105.09 142.86 L 105.39 142.92 L 105.69 142.98 L 105.99 143.04 L 106.30 143.10 L 106.60 143.16 L 106.90 143.21 L 107.20 143.27 L 107.51 143.32 L 107.81 143.37 L 108.11 143.43 L 108.41 143.48 L 108.72 143.53 L 109.02 143.58 L 109.32 143.62 L 109.62 143.67 L 109.93 143.72 L 110.23 143.77 L 110.53 143.81 L 110.83 143.85 L 111.14 143.90 L 111.44 143.94 L 111.74 143.98 L 112.04 144.02 L 112.35 144.06 L 112.65 144.10 L 112.95 144.14 L 113.25 144.18 L 113.56 144.22 L 113.86 144.25 L 114.16 144.29 L 114.46 144.33 L 114.77 144.36 L 115.07 144.39 L 115.37 144.43 L 115.68 144.46 L 115.98 144.49 L 116.28 144.52 L 116.58 144.55 L 116.89 144.58 L 117.19 144.61 L 117.49 144.64 L 117.79 144.67 L 118.10 144.70 L 118.40 144.72 L 118.70 144.75 L 119.00 144.77 L 119.31 144.80 L 119.61 144.82 L 119.91 144.85 L 120.21 144.87 L 120.52 144.90 L 120.82 144.92 L 121.12 144.94 L 121.42 144.96 L 121.73 144.98 L 122.03 145.00 L 122.33 145.02 L 122.63 145.04 L 122.94 145.06 L 123.24 145.08 L 123.54 145.10 L 123.84 145.12 L 124.15 145.13 L 124.45 145.15 L 124.75 145.17 L 125.05 145.18 L 125.36 145.20 L 125.66 145.21 L 125.96 145.23 L 126.26 145.24 L 126.57 145.26 L 126.87 145.27 L 127.17 145.28 L 127.47 145.30 L 127.78 145.31 L 128.08 145.32 L 128.38 145.33 L 128.69 145.34 L 128.99 145.35 L 129.29 145.37 L 129.59 145.38 L 129.90 145.39 L 130.20 145.40 L 130.50 145.41 L 130.80 145.41 L 131.11 145.42 L 131.41 145.43 L 131.71 145.44 L 132.01 145.45 L 132.32 145.46 L 132.62 145.46 L 132.92 145.47 L 133.22 145.48 L 133.53 145.49 L 133.83 145.49 L 134.13 145.50 L 134.43 145.51 L 134.74 145.51 L 135.04 145.52 L 135.34 145.52 L 135.64 145.53 L 135.95 145.53 L 136.25 145.54 L 136.55 145.54 L 136.85 145.55 L 137.16 145.55 L 137.46 145.56 L 137.76 145.56 L 138.06 145.57 L 138.37 145.57 L 138.67 145.57 L 138.97 145.58 L 139.27 145.58 L 139.58 145.58 L 139.88 145.59 L 140.18 145.59 L 140.48 145.59 L 140.79 145.59 L 141.09 145.60 L 141.39 145.60 L 141.70 145.60 L 142.00 145.60 L 142.30 145.61 L 142.60 145.61 L 142.91 145.61 L 143.21 145.61 L 143.51 145.61 L 143.81 145.62 L 144.12 145.62 L 144.42 145.62 L 144.72 145.62 L 145.02 145.62 L 145.33 145.62 L 145.63 145.62 L 145.93 145.62 L 146.23 145.63 L 146.54 145.63 L 146.84 145.63 L 147.14 145.63 L 147.44 145.63 L 147.75 145.63 L 148.05 145.63 L 148.35 145.63 L 148.65 145.63 L 148.96 145.63 L 149.26 145.63 L 149.56 145.63 L 149.86 145.63 L 150.17 145.63 L 150.47 145.63 L 150.77 145.63 L 151.07 145.63 L 151.38 145.63 L 151.68 145.63 L 151.98 145.64 L 152.28 145.64 L 152.59 145.64 L 152.89 145.64 L 153.19 145.64 L 153.49 145.64 L 153.80 145.64 L 154.10 145.64 L 154.40 145.64 L 154.71 145.64 L 155.01 145.64 L 155.31 145.64 L 155.61 145.64 L 155.92 145.64 L 156.22 145.64 L 156.52 145.64 L 156.82 145.64 L 157.13 145.64 L 157.43 145.64 L 157.73 145.64 L 158.03 145.64 L 158.34 145.64 L 158.64 145.64 L 158.94 145.64 L 159.24 145.64 L 159.55 145.64 L 159.85 145.64 L 160.15 145.64 L 160.45 145.64 L 160.76 145.64 L 161.06 145.64 L 161.36 145.64 L 161.66 145.64 L 161.97 145.64 L 162.27 145.64 L 162.57 145.64 L 162.87 145.64 L 163.18 145.64 L 163.48 145.64 L 163.78 145.64 L 164.08 145.64 L 164.39 145.64 L 164.69 145.64 L 164.99 145.64 L 165.29 145.64 L 165.60 145.64 L 165.90 145.64 L 166.20 145.64 L 166.51 145.64 L 166.81 145.64 L 167.11 145.64 L 167.41 145.64 L 167.72 145.64 L 168.02 145.64 L 168.32 145.63 L 168.62 145.63 L 168.93 145.63 L 169.23 145.63 L 169.53 145.63 L 169.83 145.63 L 170.14 145.63 L 170.44 145.63 L 170.74 145.63 L 171.04 145.63 L 171.35 145.63 L 171.65 145.63 L 171.95 145.63 L 172.25 145.63 L 172.56 145.63 L 172.86 145.63 L 173.16 145.63 L 173.46 145.63 L 173.77 145.63 L 174.07 145.62 L 174.37 145.62 L 174.67 145.62 L 174.98 145.62 L 175.28 145.62 L 175.58 145.62 L 175.88 145.62 L 176.19 145.62 L 176.49 145.61 L 176.79 145.61 L 177.09 145.61 L 177.40 145.61 L 177.70 145.61 L 178.00 145.60 L 178.30 145.60 L 178.61 145.60 L 178.91 145.60 L 179.21 145.59 L 179.52 145.59 L 179.82 145.59 L 180.12 145.59 L 180.42 145.58 L 180.73 145.58 L 181.03 145.58 L 181.33 145.57 L 181.63 145.57 L 181.94 145.57 L 182.24 145.56 L 182.54 145.56 L 182.84 145.55 L 183.15 145.55 L 183.45 145.54 L 183.75 145.54 L 184.05 145.53 L 184.36 145.53 L 184.66 145.52 L 184.96 145.52 L 185.26 145.51 L 185.57 145.51 L 185.87 145.50 L 186.17 145.49 L 186.47 145.49 L 186.78 145.48 L 187.08 145.47 L 187.38 145.46 L 187.68 145.46 L 187.99 145.45 L 188.29 145.44 L 188.59 145.43 L 188.89 145.42 L 189.20 145.41 L 189.50 145.41 L 189.80 145.40 L 190.10 145.39 L 190.41 145.38 L 190.71 145.37 L 191.01 145.35 L 191.31 145.34 L 191.62 145.33 L 191.92 145.32 L 192.22 145.31 L 192.53 145.30 L 192.83 145.28 L 193.13 145.27 L 193.43 145.26 L 193.74 145.24 L 194.04 145.23 L 194.34 145.21 L 194.64 145.20 L 194.95 145.18 L 195.25 145.17 L 195.55 145.15 L 195.85 145.13 L 196.16 145.12 L 196.46 145.10 L 196.76 145.08 L 197.06 145.06 L 197.37 145.04 L 197.67 145.02 L 197.97 145.00 L 198.27 144.98 L 198.58 144.96 L 198.88 144.94 L 199.18 144.92 L 199.48 144.90 L 199.79 144.87 L 200.09 144.85 L 200.39 144.82 L 200.69 144.80 L 201.00 144.77 L 201.30 144.75 L 201.60 144.72 L 201.90 144.70 L 202.21 144.67 L 202.51 144.64 L 202.81 144.61 L 203.11 144.58 L 203.42 144.55 L 203.72 144.52 L 204.02 144.49 L 204.32 144.46 L 204.63 144.43 L 204.93 144.39 L 205.23 144.36 L 205.54 144.33 L 205.84 144.29 L 206.14 144.25 L 206.44 144.22 L 206.75 144.18 L 207.05 144.14 L 207.35 144.10 L 207.65 144.06 L 207.96 144.02 L 208.26 143.98 L 208.56 143.94 L 208.86 143.90 L 209.17 143.85 L 209.47 143.81 L 209.77 143.77 L 210.07 143.72 L 210.38 143.67 L 210.68 143.62 L 210.98 143.58 L 211.28 143.53 L 211.59 143.48 L 211.89 143.43 L 212.19 143.37 L 212.49 143.32 L 212.80 143.27 L 213.10 143.21 L 213.40 143.16 L 213.70 143.10 L 214.01 143.04 L 214.31 142.98 L 214.61 142.92 L 214.91 142.86 L 215.22 142.80 L 215.52 142.74 L 215.82 142.68 L 216.12 142.61 L 216.43 142.54 L 216.73 142.48 L 217.03 142.41 L 217.33 142.34 L 217.64 142.27 L 217.94 142.20 L 218.24 142.13 L 218.55 142.05 L 218.85 141.98 L 219.15 141.90 L 219.45 141.83 L 219.76 141.75 L 220.06 141.67 L 220.36 141.59 L 220.66 141.51 L 220.97 141.42 L 221.27 141.34 L 221.57 141.25 L 221.87 141.17 L 222.18 141.08 L 222.48 140.99 L 222.78 140.90 L 223.08 140.81 L 223.39 140.71 L 223.69 140.62 L 223.99 140.52 L 224.29 140.43 L 224.60 140.33 L 224.90 140.23 L 225.20 140.13 L 225.50 140.02 L 225.81 139.92 L 226.11 139.81 L 226.41 139.70 L 226.71 139.60 L 227.02 139.49 L 227.32 139.37 L 227.62 139.26 L 227.92 139.15 L 228.23 139.03 L 228.53 138.91 L 228.83 138.79 L 229.13 138.67 L 229.44 138.55 L 229.74 138.42 L 230.04 138.30 L 230.34 138.17 L 230.65 138.04 L 230.95 137.91 L 231.25 137.78 L 231.56 137.64 L 231.86 137.51 L 232.16 137.37 L 232.46 137.23 L 232.77 137.09 L 233.07 136.94 L 233.37 136.80 L 233.67 136.65 L 233.98 136.50 L 234.28 136.35 L 234.58 136.20 L 234.88 136.05 L 235.19 135.89 L 235.49 135.73 L 235.79 135.57 L 236.09 135.41 L 236.40 135.25 L 236.70 135.08 L 237.00 134.92 L 237.30 134.75 L 237.61 134.58 L 237.91 134.40 L 238.21 134.23 L 238.51 134.05 L 238.82 133.87 L 239.12 133.69 L 239.42 133.50 L 239.72 133.32 L 240.03 133.13 L 240.33 132.94 L 240.63 132.75 L 240.93 132.55 L 241.24 132.36 L 241.54 132.16 L 241.84 131.96 L 242.14 131.75 L 242.45 131.55 L 242.75 131.34 L 243.05 131.13 L 243.35 130.92 L 243.66 130.70 L 243.96 130.48 L 244.26 130.26 L 244.57 130.04 L 244.87 129.82 L 245.17 129.59 L 245.47 129.36 L 245.78 129.13 L 246.08 128.90 L 246.38 128.66 L 246.68 128.42 L 246.99 128.18 L 247.29 127.93 L 247.59 127.69 L 247.89 127.44 L 248.20 127.19 L 248.50 126.93 L 248.80 126.67 L 249.10 126.42 L 249.41 126.15 L 249.71 125.89 L 250.01 125.62 L 250.31 125.35 L 250.62 125.08 L 250.92 124.80 L 251.22 124.52 L 251.52 124.24 L 251.83 123.96 L 252.13 123.67 L 252.43 123.38 L 252.73 123.09 L 253.04 122.79 L 253.34 122.49 L 253.64 122.19 L 253.94 121.89 L 254.25 121.58 L 254.55 121.27 L 254.85 120.95 L 255.15 120.64 L 255.46 120.32 L 255.76 120.00 L 256.06 119.67 L 256.36 119.34 L 256.67 119.01 L 256.97 118.67 L 257.27 118.34 L 257.58 117.99 L 257.88 117.65 L 258.18 117.30 L 258.48 116.95 L 258.79 116.60 L 259.09 116.24 L 259.39 115.88 L 259.69 115.52 L 260.00 115.15 L 260.30 114.78 L 260.60 114.40 L 260.90 114.03 L 261.21 113.65 L 261.51 113.26 L 261.81 112.87 L 262.11 112.48 L 262.42 112.09 L 262.72 111.69 L 263.02 111.29 L 263.32 110.88 L 263.63 110.47 L 263.93 110.06 L 264.23 109.65 L 264.53 109.23 L 264.84 108.80 L 265.14 108.37 L 265.44 107.94 L 265.74 107.51 L 266.05 107.07 L 266.35 106.63 L 266.65 106.18 L 266.95 105.73 L 267.26 105.28 L 267.56 104.82 L 267.86 104.36 L 268.16 103.90 L 268.47 103.43 L 268.77 102.96 L 269.07 102.48 L 269.37 102.00 L 269.68 101.51 L 269.98 101.02 L 270.28 100.53 L 270.59 100.03 L 270.89 99.53 L 271.19 99.03 L 271.49 98.52 L 271.80 98.00 L 272.10 97.49 L 272.40 96.96 L 272.70 96.44 L 273.01 95.91 L 273.31 95.37 L 273.61 94.83 L 273.91 94.29 L 274.22 93.74 L 274.52 93.19 L 274.82 92.63 L 275.12 92.07 L 275.43 91.51 L 275.73 90.94 L 276.03 90.36 L 276.33 89.79 L 276.64 89.20 L 276.94 88.61 L 277.24 88.02 L 277.54 87.43 L 277.85 86.82 L 278.15 86.22 L 278.45 85.61 L 278.75 84.99 L 279.06 84.37 L 279.36 83.75 L 279.66 83.12 L 279.96 82.48 L 280.27 81.84 L 280.57 81.20 L 280.87 80.55 L 281.17 79.89 L 281.48 79.23 L 281.78 78.57 L 282.08 77.90 L 282.38 77.23 L 282.69 76.55 L 282.99 75.86 L 283.29 75.17 L 283.60 74.48 L 283.90 73.78 L 284.20 73.08 L 284.50 72.37 L 284.81 71.65 L 285.11 70.93 L 285.41 70.21 L 285.71 69.48 L 286.02 68.74 L 286.32 68.00 L 286.62 67.25 L 286.92 66.50 L 287.23 65.74 L 287.53 64.98 L 287.83 64.21 L 288.13 63.44 L 288.44 62.66 L 288.74 61.88 L 289.04 61.09 L 289.34 60.29 L 289.65 59.49 L 289.95 58.68 L 290.25 57.87 L 290.55 57.05 L 290.86 56.23 L 291.16 55.40 L 291.46 54.56 L 291.76 53.72 L 292.07 52.87 L 292.37 52.02 L 292.67 51.16 L 292.97 50.30 L 293.28 49.43 L 293.58 48.55 L 293.88 47.67 L 294.18 46.78 L 294.49 45.88 L 294.79 44.98 L 295.09 44.08 L 295.39 43.16 L 295.70 42.24 L 296.00 41.32" fill="none" stroke="#5F6B7A" stroke-width="2.5" stroke-linecap="round" stroke-linejoin="round"/>
</svg>
