<svg xmlns="http://www.w3.org/2000/svg" viewBox="0 0 320 180" width="320" height="180">
  <rect width="320" height="180" fill="#F4F5F7"/>
  <path d="M 18.00 90.00 L 18.20 89.48 L 18.41 88.97 L 18.61 88.45 L 18.81 87.93 L 19.02 87.41 L 19.22 86.90 L 19.42 86.38 L 19.62 85.86 L 19.83 85.35 L 20.03 84.83 L 20.23 84.32 L 20.44 83.80 L 20.64 83.29 L 20.84 82.78 L 21.05 82.26 L 21.25 81.75 L 21.45 81.24 L 21.65 80.73 L 21.86 80.22 L 22.06 79.71 L 22.26 79.20 L 22.47 78.69 L 22.67 78.18 L 22.87 77.68 L 23.08 77.17 L 23.28 76.67 L 23.48 76.17 L 23.68 75.67 L 23.89 75.16 L 24.09 74.67 L 24.29 74.17 L 24.50 73.67 L 24.70 73.18 L 24.90 72.68 L 25.11 72.19 L 25.31 71.70 L 25.51 71.21 L 25.71 70.72 L 25.92 70.23 L 26.12 69.75 L 26.32 69.26 L 26.53 68.78 L 26.73 68.30 L 26.93 67.82 L 27.14 67.35 L 27.34 66.87 L 27.54 66.40 L 27.74 65.93 L 27.95 65.46 L 28.15 64.99 L 28.35 64.53 L 28.56 64.06 L 28.76 63.60 L 28.96 63.14 L 29.17 62.69 L 29.37 62.23 L 29.57 61.78 L 29.77 61.33 L 29.98 60.88 L 30.18 60.44 L 30.38 60.00 L 30.59 59.55 L 30.79 59.12 L 30.99 58.68 L 31.20 58.25 L 31.40 57.82 L 31.60 57.39 L 31.80 56.96 L 32.01 56.54 L 32.21 56.12 L 32.41 55.71 L 32.62 55.29 L 32.82 54.88 L 33.02 54.47 L 33.23 54.07 L 33.43 53.66 L 33.63 53.26 L 33.83 52.87 L 34.04 52.47 L 34.24 52.08 L 34.44 51.69 L 34.65 51.31 L 34.85 50.93 L 35.05 50.55 L 35.26 50.17 L 35.46 49.80 L 35.66 49.43 L 35.86 49.07 L 36.07 48.70 L 36.27 48.34 L 36.47 47.99 L 36.68 47.64 L 36.88 47.29 L 37.08 46.94 L 37.29 46.60 L 37.49 46.26 L 37.69 45.93 L 37.89 45.60 L 38.10 45.27 L 38.30 44.94 L 38.50 44.62 L 38.71 44.31 L 38.91 43.99 L 39.11 43.68 L 39.32 43.38 L 39.52 43.08 L 39.72 42.78 L 39.92 42.48 L 40.13 42.19 L 40.33 41.91 L 40.53 41.62 L 40.74 41.34 L 40.94 41.07 L 41.14 40.80 L 41.35 40.53 L 41.55 40.27 L 41.75 40.01 L 41.95 39.75 L 42.16 39.50 L 42.36 39.26 L 42.56 39.01 L 42.77 38.78 L 42.97 38.54 L 43.17 38.31 L 43.38 38.08 L 43.58 37.86 L 43.78 37.64 L 43.98 37.43 L 44.19 37.22 L 44.39 37.02 L 44.59 36.82 L 44.80 36.62 L 45.00 36.43 L 45.20 36.24 L 45.41 36.06 L 45.61 35.88 L 45.81 35.70 L 46.01 35.53 L 46.22 35.36 L 46.42 35.20 L 46.62 35.05 L 46.83 34.89 L 47.03 34.74 L 47.23 34.60 L 47.44 34.46 L 47.64 34.33 L 47.84 34.20 L 48.04 34.07 L 48.25 33.95 L 48.45 33.83 L 48.65 33.72 L 48.86 33.61 L 49.06 33.51 L 49.26 33.41 L 49.47 33.32 L 49.67 33.23 L 49.87 33.14 L 50.07 33.06 L 50.28 32.98 L 50.48 32.91 L 50.68 32.85 L 50.89 32.78 L 51.09 32.73 L 51.29 32.67 L 51.50 32.63 L 51.70 32.58 L 51.90 32.54 L 52.10 32.51 L 52.31 32.48 L 52.51 32.46 L 52.71 32.43 L 52.92 32.42 L 53.12 32.41 L 53.32 32.40 L 53.53 32.40 L 53.73 32.40 L 53.93 32.41 L 54.13 32.42 L 54.34 32.44 L 54.54 32.46 L 54.74 32.49 L 54.95 32.52 L 55.15 32.55 L 55.35 32.59 L 55.56 32.64 L 55.76 32.69 L 55.96 32.74 L 56.16 32.80 L 56.37 32.86 L 56.57 32.93 L 56.77 33.00 L 56.98 33.08 L 57.18 33.16 L 57.38 33.25 L 57.59 33.34 L 57.79 33.43 L 57.99 33.53 L 58.19 33.64 L 58.40 33.75 L 58.60 33.86 L 58.80 33.98 L 59.01 34.10 L 59.21 34.23 L 59.41 34.36 L 59.62 34.50 L 59.82 34.64 L 60.02 34.78 L 60.22 34.93 L 60.43 35.08 L 60.63 35.24 L 60.83 35.41 L 61.04 35.57 L 61.24 35.74 L 61.44 35.92 L 61.65 36.10 L 61.85 36.29 L 62.05 36.47 L 62.25 36.67 L 62.46 36.87 L 62.66 37.07 L 62.86 37.27 L 63.07 37.48 L 63.27 37.70 L 63.47 37.92 L 63.68 38.14 L 63.88 38.37 L 64.08 38.60 L 64.28 38.83 L 64.49 39.07 L 64.69 39.32 L 64.89 39.57 L 65.10 39.82 L 65.30 40.07 L 65.50 40.33 L 65.71 40.60 L 65.91 40.87 L 66.11 41.14 L 66.31 41.41 L 66.52 41.69 L 66.72 41.98 L 66.92 42.27 L 67.13 42.56 L 67.33 42.85 L 67.53 43.15 L 67.74 43.45 L 67.94 43.76 L 68.14 44.07 L 68.34 44.38 L 68.55 44.70 L 68.75 45.02 L 68.95 45.35 L 69.16 45.68 L 69.36 46.01 L 69.56 46.35 L 69.77 46.69 L 69.97 47.03 L 70.17 47.37 L 70.37 47.72 L 70.58 48.08 L 70.78 48.43 L 70.98 48.79 L 71.19 49.16 L 71.39 49.52 L 71.59 49.89 L 71.80 50.27 L 72.00 50.64 L 72.20 51.02 L 72.40 51.40 L 72.61 51.79 L 72.81 52.18 L 73.01 52.57 L 73.22 52.96 L 73.42 53.36 L 73.62 53.76 L 73.83 54.17 L 74.03 54.57 L 74.23 54.98 L 74.43 55.39 L 74.64 55.81 L 74.84 56.23 L 75.04 56.65 L 75.25 57.07 L 75.45 57.50 L 75.65 57.93 L 75.86 58.36 L 76.06 58.79 L 76.26 59.23 L 76.46 59.66 L 76.67 60.11 L 76.87 60.55 L 77.07 60.99 L 77.28 61.44 L 77.48 61.89 L 77.68 62.35 L 77.89 62.80 L 78.09 63.26 L 78.29 63.72 L 78.49 64.18 L 78.70 64.64 L 78.90 65.11 L 79.10 65.58 L 79.31 66.05 L 79.51 66.52 L 79.71 66.99 L 79.92 67.47 L 80.12 67.94 L 80.32 68.42 L 80.52 68.90 L 80.73 69.38 L 80.93 69.87 L 81.13 70.35 L 81.34 70.84 L 81.54 71.33 L 81.74 71.82 L 81.95 72.31 L 82.15 72.80 L 82.35 73.30 L 82.55 73.79 L 82.76 74.29 L 82.96 74.79 L 83.16 75.29 L 83.37 75.79 L 83.57 76.29 L 83.77 76.80 L 83.98 77.30 L 84.18 77.81 L 84.38 78.31 L 84.58 78.82 L 84.79 79.33 L 84.99 79.84 L 85.19 80.34 L 85.40 80.86 L 85.60 81.37 L 85.80 81.88 L 86.01 82.39 L 86.21 82.90 L 86.41 83.42 L 86.61 83.93 L 86.82 84.45 L 87.02 84.96 L 87.22 85.48 L 87.43 85.99 L 87.63 86.51 L 87.83 87.03 L 88.04 87.54 L 88.24 88.06 L 88.44 88.58 L 88.64 89.09 L 88.85 89.61 L 89.05 90.13 L 89.25 90.65 L 89.46 91.16 L 89.66 91.68 L 89.86 92.20 L 90.07 92.72 L 90.27 93.23 L 90.47 93.75 L 90.67 94.26 L 90.88 94.78 L 91.08 95.30 L 91.28 95.81 L 91.49 96.33 L 91.69 96.84 L 91.89 97.35 L 92.10 97.87 L 92.30 98.38 L 92.50 98.89 L 92.70 99.40 L 92.91 99.91 L 93.11 100.42 L 93.31 100.93 L 93.52 101.44 L 93.72 101.94 L 93.92 102.45 L 94.13 102.95 L 94.33 103.46 L 94.53 103.96 L 94.73 104.46 L 94.94 104.96 L 95.14 105.46 L 95.34 105.96 L 95.55 106.45 L 95.75 106.95 L 95.95 107.44 L 96.16 107.93 L 96.36 108.43 L 96.56 108.92 L 96.76 109.40 L 96.97 109.89 L 97.17 110.37 L 97.37 110.86 L 97.58 111.34 L 97.78 111.82 L 97.98 112.30 L 98.19 112.77 L 98.39 113.25 L 98.59 113.72 L 98.79 114.19 L 99.00 114.66 L 99.20 115.12 L 99.40 115.59 L 99.61 116.05 L 99.81 116.51 L 100.01 116.97 L 100.22 117.43 L 100.42 117.88 L 100.62 118.33 L 100.82 118.78 L 101.03 119.23 L 101.23 119.67 L 101.43 120.12 L 101.64 120.56 L 101.84 120.99 L 102.04 121.43 L 102.25 121.86 L 102.45 122.29 L 102.65 122.72 L 102.85 123.14 L 103.06 123.56 L 103.26 123.98 L 103.46 124.40 L 103.67 124.81 L 103.87 125.22 L 104.07 125.63 L 104.28 126.04 L 104.48 126.44 L 104.68 126.84 L 104.88 127.23 L 105.09 127.63 L 105.29 128.02 L 105.49 128.40 L 105.70 128.79 L 105.90 129.17 L 106.10 129.55 L 106.31 129.92 L 106.51 130.29 L 106.71 130.66 L 106.91 131.03 L 107.12 131.39 L 107.32 131.75 L 107.52 132.10 L 107.73 132.45 L 107.93 132.80 L 108.13 133.14 L 108.34 133.48 L 108.54 133.82 L 108.74 134.16 L 108.94 134.49 L 109.15 134.81 L 109.35 135.14 L 109.55 135.46 L 109.76 135.77 L 109.96 136.08 L 110.16 136.39 L 110.37 136.70 L 110.57 137.00 L 110.77 137.30 L 110.97 137.59 L 111.18 137.88 L 111.38 138.16 L 111.58 138.45 L 111.79 138.72 L 111.99 139.00 L 112.19 139.27 L 112.40 139.53 L 112.60 139.80 L 112.80 140.05 L 113.01 140.31 L 113.21 140.56 L 113.41 140.80 L 113.61 141.05 L 113.82 141.28 L 114.02 141.52 L 114.22 141.75 L 114.43 141.97 L 114.63 142.19 L 114.83 142.41 L 115.04 142.62 L 115.24 142.83 L 115.44 143.03 L 115.64 143.23 L 115.85 143.43 L 116.05 143.62 L 116.25 143.81 L 116.46 143.99 L 116.66 144.17 L 116.86 144.34 L 117.07 144.51 L 117.27 144.68 L 117.47 144.84 L 117.67 144.99 L 117.88 145.14 L 118.08 145.29 L 118.28 145.43 L 118.49 145.57 L 118.69 145.71 L 118.89 145.84 L 119.10 145.96 L 119.30 146.08 L 119.50 146.20 L 119.70 146.31 L 119.91 146.41 L 120.11 146.52 L 120.31 146.61 L 120.52 146.71 L 120.72 146.80 L 120.92 146.88 L 121.13 146.96 L 121.33 147.03 L 121.53 147.10 L 121.73 147.17 L 121.94 147.23 L 122.14 147.29 L 122.34 147.34 L 122.55 147.38 L 122.75 147.43 L 122.95 147.46 L 123.16 147.50 L 123.36 147.53 L 123.56 147.55 L 123.76 147.57 L 123.97 147.58 L 124.17 147.59 L 124.37 147.60 L 124.58 147.60 L 124.78 147.60 L 124.98 147.59 L 125.19 147.57 L 125.39 147.56 L 125.59 147.53 L 125.79 147.51 L 126.00 147.47 L 126.20 147.44 L 126.40 147.40 L 126.61 147.35 L 126.81 147.30 L 127.01 147.24 L 127.22 147.18 L 127.42 147.12 L 127.62 147.05 L 127.82 146.98 L 128.03 146.90 L 128.23 146.82 L 128.43 146.73 L 128.64 146.64 L 128.84 146.54 L 129.04 146.44 L 129.25 146.34 L 129.45 146.22 L 129.65 146.11 L 129.85 145.99 L 130.06 145.87 L 130.26 145.74 L 130.46 145.61 L 130.67 145.47 L 130.87 145.33 L 131.07 145.18 L 131.28 145.03 L 131.48 144.88 L 131.68 144.72 L 131.88 144.55 L 132.09 144.38 L 132.29 144.21 L 132.49 144.03 L 132.70 143.85 L 132.90 143.67 L 133.10 143.48 L 133.31 143.28 L 133.51 143.08 L 133.71 142.88 L 133.91 142.67 L 134.12 142.46 L 134.32 142.25 L 134.52 142.03 L 134.73 141.80 L 134.93 141.57 L 135.13 141.34 L 135.34 141.11 L 135.54 140.87 L 135.74 140.62 L 135.94 140.37 L 136.15 140.12 L 136.35 139.86 L 136.55 139.60 L 136.76 139.34 L 136.96 139.07 L 137.16 138.79 L 137.37 138.52 L 137.57 138.24 L 137.77 137.95 L 137.97 137.66 L 138.18 137.37 L 138.38 137.07 L 138.58 136.77 L 138.79 136.47 L 138.99 136.16 L 139.19 135.85 L 139.40 135.54 L 139.60 135.22 L 139.80 134.89 L 140.00 134.57 L 140.21 134.24 L 140.41 133.91 L 140.61 133.57 L 140.82 133.23 L 141.02 132.89 L 141.22 132.54 L 141.43 132.19 L 141.63 131.83 L 141.83 131.48 L 142.03 131.12 L 142.24 130.75 L 142.44 130.38 L 142.64 130.01 L 142.85 129.64 L 143.05 129.26 L 143.25 128.88 L 143.46 128.50 L 143.66 128.11 L 143.86 127.72 L 144.06 127.33 L 144.27 126.94 L 144.47 126.54 L 144.67 126.14 L 144.88 125.73 L 145.08 125.32 L 145.28 124.91 L 145.49 124.50 L 145.69 124.09 L 145.89 123.67 L 146.09 123.25 L 146.30 122.82 L 146.50 122.40 L 146.70 121.97 L 146.91 121.54 L 147.11 121.10 L 147.31 120.66 L 147.52 120.23 L 147.72 119.78 L 147.92 119.34 L 148.12 118.89 L 148.33 118.44 L 148.53 117.99 L 148.73 117.54 L 148.94 117.08 L 149.14 116.63 L 149.34 116.17 L 149.55 115.71 L 149.75 115.24 L 149.95 114.78 L 150.15 114.31 L 150.36 113.84 L 150.56 113.36 L 150.76 112.89 L 150.97 112.42 L 151.17 111.94 L 151.37 111.46 L 151.58 110.98 L 151.78 110.49 L 151.98 110.01 L 152.18 109.52 L 152.39 109.04 L 152.59 108.55 L 152.79 108.06 L 153.00 107.57 L 153.20 107.07 L 153.40 106.58 L 153.61 106.08 L 153.81 105.58 L 154.01 105.08 L 154.21 104.58 L 154.42 104.08 L 154.62 103.58 L 154.82 103.08 L 155.03 102.57 L 155.23 102.07 L 155.43 101.56 L 155.64 101.05 L 155.84 100.55 L 156.04 100.04 L 156.24 99.53 L 156.45 99.02 L 156.65 98.51 L 156.85 97.99 L 157.06 97.48 L 157.26 96.97 L 157.46 96.45 L 157.67 95.94 L 157.87 95.42 L 158.07 94.91 L 158.27 94.39 L 158.48 93.88 L 158.68 93.36 L 158.88 92.84 L 159.09 92.33 L 159.29 91.81 L 159.49 91.29 L 159.70 90.78 L 159.90 90.26 L 160.10 89.74 L 160.30 89.22 L 160.51 88.71 L 160.71 88.19 L 160.91 87.67 L 161.12 87.16 L 161.32 86.64 L 161.52 86.12 L 161.73 85.61 L 161.93 85.09 L 162.13 84.58 L 162.33 84.06 L 162.54 83.55 L 162.74 83.03 L 162.94 82.52 L 163.15 82.01 L 163.35 81.49 L 163.55 80.98 L 163.76 80.47 L 163.96 79.96 L 164.16 79.45 L 164.36 78.95 L 164.57 78.44 L 164.77 77.93 L 164.97 77.43 L 165.18 76.92 L 165.38 76.42 L 165.58 75.92 L 165.79 75.42 L 165.99 74.92 L 166.19 74.42 L 166.39 73.92 L 166.60 73.42 L 166.80 72.93 L 167.00 72.43 L 167.21 71.94 L 167.41 71.45 L 167.61 70.96 L 167.82 70.48 L 168.02 69.99 L 168.22 69.51 L 168.42 69.02 L 168.63 68.54 L 168.83 68.06 L 169.03 67.58 L 169.24 67.11 L 169.44 66.64 L 169.64 66.16 L 169.85 65.69 L 170.05 65.22 L 170.25 64.76 L 170.45 64.29 L 170.66 63.83 L 170.86 63.37 L 171.06 62.92 L 171.27 62.46 L 171.47 62.01 L 171.67 61.56 L 171.88 61.11 L 172.08 60.66 L 172.28 60.22 L 172.48 59.77 L 172.69 59.34 L 172.89 58.90 L 173.09 58.46 L 173.30 58.03 L 173.50 57.60 L 173.70 57.18 L 173.91 56.75 L 174.11 56.33 L 174.31 55.91 L 174.51 55.50 L 174.72 55.09 L 174.92 54.68 L 175.12 54.27 L 175.33 53.86 L 175.53 53.46 L 175.73 53.06 L 175.94 52.67 L 176.14 52.28 L 176.34 51.89 L 176.54 51.50 L 176.75 51.12 L 176.95 50.74 L 177.15 50.36 L 177.36 49.99 L 177.56 49.62 L 177.76 49.25 L 177.97 48.88 L 178.17 48.52 L 178.37 48.17 L 178.57 47.81 L 178.78 47.46 L 178.98 47.11 L 179.18 46.77 L 179.39 46.43 L 179.59 46.09 L 179.79 45.76 L 180.00 45.43 L 180.20 45.11 L 180.40 44.78 L 180.60 44.46 L 180.81 44.15 L 181.01 43.84 L 181.21 43.53 L 181.42 43.23 L 181.62 42.93 L 181.82 42.63 L 182.03 42.34 L 182.23 42.05 L 182.43 41.76 L 182.63 41.48 L 182.84 41.21 L 183.04 40.93 L 183.24 40.66 L 183.45 40.40 L 183.65 40.14 L 183.85 39.88 L 184.06 39.63 L 184.26 39.38 L 184.46 39.13 L 184.66 38.89 L 184.87 38.66 L 185.07 38.43 L 185.27 38.20 L 185.48 37.97 L 185.68 37.75 L 185.88 37.54 L 186.09 37.33 L 186.29 37.12 L 186.49 36.92 L 186.69 36.72 L 186.90 36.52 L 187.10 36.33 L 187.30 36.15 L 187.51 35.97 L 187.71 35.79 L 187.91 35.62 L 188.12 35.45 L 188.32 35.28 L 188.52 35.12 L 188.72 34.97 L 188.93 34.82 L 189.13 34.67 L 189.33 34.53 L 189.54 34.39 L 189.74 34.26 L 189.94 34.13 L 190.15 34.01 L 190.35 33.89 L 190.55 33.78 L 190.75 33.66 L 190.96 33.56 L 191.16 33.46 L 191.36 33.36 L 191.57 33.27 L 191.77 33.18 L 191.97 33.10 L 192.18 33.02 L 192.38 32.95 L 192.58 32.88 L 192.78 32.82 L 192.99 32.76 L 193.19 32.70 L 193.39 32.65 L 193.60 32.60 L 193.80 32.56 L 194.00 32.53 L 194.21 32.49 L 194.41 32.47 L 194.61 32.44 L 194.81 32.43 L 195.02 32.41 L 195.22 32.40 L 195.42 32.40 L 195.63 32.40 L 195.83 32.41 L 196.03 32.42 L 196.24 32.43 L 196.44 32.45 L 196.64 32.47 L 196.84 32.50 L 197.05 32.54 L 197.25 32.57 L 197.45 32.62 L 197.66 32.66 L 197.86 32.71 L 198.06 32.77 L 198.27 32.83 L 198.47 32.90 L 198.67 32.97 L 198.87 33.04 L 199.08 33.12 L 199.28 33.20 L 199.48 33.29 L 199.69 33.39 L 199.89 33.48 L 200.09 33.59 L 200.30 33.69 L 200.50 33.80 L 200.70 33.92 L 200.90 34.04 L 201.11 34.16 L 201.31 34.29 L 201.51 34.43 L 201.72 34.57 L 201.92 34.71 L 202.12 34.86 L 202.33 35.01 L 202.53 35.16 L 202.73 35.32 L 202.93 35.49 L 203.14 35.66 L 203.34 35.83 L 203.54 36.01 L 203.75 36.19 L 203.95 36.38 L 204.15 36.57 L 204.36 36.77 L 204.56 36.97 L 204.76 37.17 L 204.96 37.38 L 205.17 37.59 L 205.37 37.81 L 205.57 38.03 L 205.78 38.25 L 205.98 38.48 L 206.18 38.72 L 206.39 38.95 L 206.59 39.20 L 206.79 39.44 L 206.99 39.69 L 207.20 39.95 L 207.40 40.20 L 207.60 40.47 L 207.81 40.73 L 208.01 41.00 L 208.21 41.28 L 208.42 41.55 L 208.62 41.84 L 208.82 42.12 L 209.03 42.41 L 209.23 42.70 L 209.43 43.00 L 209.63 43.30 L 209.84 43.61 L 210.04 43.92 L 210.24 44.23 L 210.45 44.54 L 210.65 44.86 L 210.85 45.19 L 211.06 45.51 L 211.26 45.84 L 211.46 46.18 L 211.66 46.52 L 211.87 46.86 L 212.07 47.20 L 212.27 47.55 L 212.48 47.90 L 212.68 48.25 L 212.88 48.61 L 213.09 48.97 L 213.29 49.34 L 213.49 49.71 L 213.69 50.08 L 213.90 50.45 L 214.10 50.83 L 214.30 51.21 L 214.51 51.60 L 214.71 51.98 L 214.91 52.37 L 215.12 52.77 L 215.32 53.16 L 215.52 53.56 L 215.72 53.96 L 215.93 54.37 L 216.13 54.78 L 216.33 55.19 L 216.54 55.60 L 216.74 56.02 L 216.94 56.44 L 217.15 56.86 L 217.35 57.28 L 217.55 57.71 L 217.75 58.14 L 217.96 58.57 L 218.16 59.01 L 218.36 59.44 L 218.57 59.88 L 218.77 60.33 L 218.97 60.77 L 219.18 61.22 L 219.38 61.67 L 219.58 62.12 L 219.78 62.57 L 219.99 63.03 L 220.19 63.49 L 220.39 63.95 L 220.60 64.41 L 220.80 64.88 L 221.00 65.34 L 221.21 65.81 L 221.41 66.28 L 221.61 66.75 L 221.81 67.23 L 222.02 67.70 L 222.22 68.18 L 222.42 68.66 L 222.63 69.14 L 222.83 69.63 L 223.03 70.11 L 223.24 70.60 L 223.44 71.08 L 223.64 71.57 L 223.84 72.07 L 224.05 72.56 L 224.25 73.05 L 224.45 73.55 L 224.66 74.04 L 224.86 74.54 L 225.06 75.04 L 225.27 75.54 L 225.47 76.04 L 225.67 76.54 L 225.87 77.05 L 226.08 77.55 L 226.28 78.06 L 226.48 78.56 L 226.69 79.07 L 226.89 79.58 L 227.09 80.09 L 227.30 80.60 L 227.50 81.11 L 227.70 81.62 L 227.90 82.13 L 228.11 82.65 L 228.31 83.16 L 228.51 83.67 L 228.72 84.19 L 228.92 84.70 L 229.12 85.22 L 229.33 85.74 L 229.53 86.25 L 229.73 86.77 L 229.93 87.28 L 230.14 87.80 L 230.34 88.32 L 230.54 88.84 L 230.75 89.35 L 230.95 89.87 L 231.15 90.39 L 231.36 90.91 L 231.56 91.42 L 231.76 91.94 L 231.96 92.46 L 232.17 92.97 L 232.37 93.49 L 232.57 94.01 L 232.78 94.52 L 232.98 95.04 L 233.18 95.55 L 233.39 96.07 L 233.59 96.58 L 233.79 97.10 L 233.99 97.61 L 234.20 98.12 L 234.40 98.63 L 234.60 99.14 L 234.81 99.66 L 235.01 100.16 L 235.21 100.67 L 235.42 101.18 L 235.62 101.69 L 235.82 102.19 L 236.02 102.70 L 236.23 103.20 L 236.43 103.71 L 236.63 104.21 L 236.84 104.71 L 237.04 105.21 L 237.24 105.71 L 237.45 106.21 L 237.65 106.70 L 237.85 107.20 L 238.05 107.69 L 238.26 108.18 L 238.46 108.67 L 238.66 109.16 L 238.87 109.65 L 239.07 110.13 L 239.27 110.62 L 239.48 111.10 L 239.68 111.58 L 239.88 112.06 L 240.08 112.53 L 240.29 113.01 L 240.49 113.48 L 240.69 113.95 L 240.90 114.42 L 241.10 114.89 L 241.30 115.36 L 241.51 115.82 L 241.71 116.28 L 241.91 116.74 L 242.11 117.20 L 242.32 117.65 L 242.52 118.11 L 242.72 118.56 L 242.93 119.01 L 243.13 119.45 L 243.33 119.89 L 243.54 120.34 L 243.74 120.77 L 243.94 121.21 L 244.14 121.64 L 244.35 122.07 L 244.55 122.50 L 244.75 122.93 L 244.96 123.35 L 245.16 123.77 L 245.36 124.19 L 245.57 124.61 L 245.77 125.02 L 245.97 125.43 L 246.17 125.83 L 246.38 126.24 L 246.58 126.64 L 246.78 127.04 L 246.99 127.43 L 247.19 127.82 L 247.39 128.21 L 247.60 128.60 L 247.80 128.98 L 248.00 129.36 L 248.20 129.73 L 248.41 130.11 L 248.61 130.48 L 248.81 130.84 L 249.02 131.21 L 249.22 131.57 L 249.42 131.92 L 249.63 132.28 L 249.83 132.63 L 250.03 132.97 L 250.23 133.31 L 250.44 133.65 L 250.64 133.99 L 250.84 134.32 L 251.05 134.65 L 251.25 134.98 L 251.45 135.30 L 251.66 135.62 L 251.86 135.93 L 252.06 136.24 L 252.26 136.55 L 252.47 136.85 L 252.67 137.15 L 252.87 137.44 L 253.08 137.73 L 253.28 138.02 L 253.48 138.31 L 253.69 138.59 L 253.89 138.86 L 254.09 139.13 L 254.29 139.40 L 254.50 139.67 L 254.70 139.93 L 254.90 140.18 L 255.11 140.43 L 255.31 140.68 L 255.51 140.93 L 255.72 141.17 L 255.92 141.40 L 256.12 141.63 L 256.32 141.86 L 256.53 142.08 L 256.73 142.30 L 256.93 142.52 L 257.14 142.73 L 257.34 142.93 L 257.54 143.13 L 257.75 143.33 L 257.95 143.53 L 258.15 143.71 L 258.35 143.90 L 258.56 144.08 L 258.76 144.26 L 258.96 144.43 L 259.17 144.59 L 259.37 144.76 L 259.57 144.92 L 259.78 145.07 L 259.98 145.22 L 260.18 145.36 L 260.38 145.50 L 260.59 145.64 L 260.79 145.77 L 260.99 145.90 L 261.20 146.02 L 261.40 146.14 L 261.60 146.25 L 261.81 146.36 L 262.01 146.47 L 262.21 146.57 L 262.41 146.66 L 262.62 146.75 L 262.82 146.84 L 263.02 146.92 L 263.23 147.00 L 263.43 147.07 L 263.63 147.14 L 263.84 147.20 L 264.04 147.26 L 264.24 147.31 L 264.44 147.36 L 264.65 147.41 L 264.85 147.45 L 265.05 147.48 L 265.26 147.51 L 265.46 147.54 L 265.66 147.56 L 265.87 147.58 L 266.07 147.59 L 266.27 147.60 L 266.47 147.60 L 266.68 147.60 L 266.88 147.59 L 267.08 147.58 L 267.29 147.57 L 267.49 147.54 L 267.69 147.52 L 267.90 147.49 L 268.10 147.46 L 268.30 147.42 L 268.50 147.37 L 268.71 147.33 L 268.91 147.27 L 269.11 147.22 L 269.32 147.15 L 269.52 147.09 L 269.72 147.02 L 269.93 146.94 L 270.13 146.86 L 270.33 146.77 L 270.53 146.68 L 270.74 146.59 L 270.94 146.49 L 271.14 146.39 L 271.35 146.28 L 271.55 146.17 L 271.75 146.05 L 271.96 145.93 L 272.16 145.80 L 272.36 145.67 L 272.56 145.54 L 272.77 145.40 L 272.97 145.26 L 273.17 145.11 L 273.38 144.95 L 273.58 144.80 L 273.78 144.64 L 273.99 144.47 L 274.19 144.30 L 274.39 144.12 L 274.59 143.94 L 274.80 143.76 L 275.00 143.57 L 275.20 143.38 L 275.41 143.18 L 275.61 142.98 L 275.81 142.78 L 276.02 142.57 L 276.22 142.36 L 276.42 142.14 L 276.62 141.92 L 276.83 141.69 L 277.03 141.46 L 277.23 141.22 L 277.44 140.99 L 277.64 140.74 L 277.84 140.50 L 278.05 140.25 L 278.25 139.99 L 278.45 139.73 L 278.65 139.47 L 278.86 139.20 L 279.06 138.93 L 279.26 138.66 L 279.47 138.38 L 279.67 138.09 L 279.87 137.81 L 280.08 137.52 L 280.28 137.22 L 280.48 136.92 L 280.68 136.62 L 280.89 136.32 L 281.09 136.01 L 281.29 135.69 L 281.50 135.38 L 281.70 135.06 L 281.90 134.73 L 282.11 134.40 L 282.31 134.07 L 282.51 133.74 L 282.71 133.40 L 282.92 133.06 L 283.12 132.71 L 283.32 132.36 L 283.53 132.01 L 283.73 131.66 L 283.93 131.30 L 284.14 130.93 L 284.34 130.57 L 284.54 130.20 L 284.74 129.83 L 284.95 129.45 L 285.15 129.07 L 285.35 128.69 L 285.56 128.31 L 285.76 127.92 L 285.96 127.53 L 286.17 127.13 L 286.37 126.74 L 286.57 126.34 L 286.77 125.93 L 286.98 125.53 L 287.18 125.12 L 287.38 124.71 L 287.59 124.29 L 287.79 123.88 L 287.99 123.46 L 288.20 123.04 L 288.40 122.61 L 288.60 122.18 L 288.80 121.75 L 289.01 121.32 L 289.21 120.88 L 289.41 120.45 L 289.62 120.00 L 289.82 119.56 L 290.02 119.12 L 290.23 118.67 L 290.43 118.22 L 290.63 117.77 L 290.83 117.31 L 291.04 116.86 L 291.24 116.40 L 291.44 115.94 L 291.65 115.47 L 291.85 115.01 L 292.05 114.54 L 292.26 114.07 L 292.46 113.60 L 292.66 113.13 L 292.86 112.65 L 293.07 112.18 L 293.27 111.70 L 293.47 111.22 L 293.68 110.74 L 293.88 110.25 L 294.08 109.77 L 294.29 109.28 L 294.49 108.79 L 294.69 108.30 L 294.89 107.81 L 295.10 107.32 L 295.30 106.82 L 295.50 106.33 L 295.71 105.83 L 295.91 105.33 L 296.11 104.84 L 296.32 104.33 L 296.52 103.83 L 296.72 103.33 L 296.92 102.83 L 297.13 102.32 L 297.33 101.82 L 297.53 101.31 L 297.74 100.80 L 297.94 100.29 L 298.14 99.78 L 298.35 99.27 L 298.55 98.76 L 298.75 98.25 L 298.95 97.74 L 299.16 97.22 L 299.36 96.71 L 299.56 96.20 L 299.77 95.68 L 299.97 95.17 L 300.17 94.65 L 300.38 94.14 L 300.58 93.62 L 300.78 93.10 L 300.98 92.59 L 301.19 92.07 L 301.39 91.55 L 301.59 91.03 L 301.80 90.52 L 302.00 90.00" fill="none" stroke="#7E8692" stroke-width="2.3" stroke-linecap="round" stroke-linejoin="round"/>
</svg>
