<svg xmlns="http://www.w3.org/2000/svg" viewBox="0 0 320 180" width="320" height="180">
  <rect width="320" height="180" fill="#F4F5F7"/>
  <path d="M 18.00 221.81 L 18.18 219.84 L 18.36 217.93 L 18.53 216.07 L 18.71 214.27 L 18.89 212.51 L 19.07 210.81 L 19.24 209.14 L 19.42 207.53 L 19.60 205.95 L 19.78 204.42 L 19.95 202.93 L 20.13 201.47 L 20.31 200.05 L 20.49 198.67 L 20.66 197.32 L 20.84 196.00 L 21.02 194.71 L 21.20 193.45 L 21.37 192.23 L 21.55 191.03 L 21.73 189.85 L 21.91 188.71 L 22.09 187.59 L 22.26 186.49 L 22.44 185.42 L 22.62 184.37 L 22.80 183.34 L 22.97 182.34 L 23.15 181.35 L 23.33 180.39 L 23.51 179.44 L 23.68 178.51 L 23.86 177.61 L 24.04 176.72 L 24.22 175.84 L 24.39 174.99 L 24.57 174.15 L 24.75 173.32 L 24.93 172.51 L 25.10 171.72 L 25.28 170.94 L 25.46 170.18 L 25.64 169.43 L 25.81 168.69 L 25.99 167.97 L 26.17 167.25 L 26.35 166.55 L 26.53 165.87 L 26.70 165.19 L 26.88 164.53 L 27.06 163.87 L 27.24 163.23 L 27.41 162.60 L 27.59 161.98 L 27.77 161.37 L 27.95 160.77 L 28.12 160.17 L 28.30 159.59 L 28.48 159.02 L 28.66 158.45 L 28.83 157.90 L 29.01 157.35 L 29.19 156.81 L 29.37 156.28 L 29.54 155.76 L 29.72 155.24 L 29.90 154.73 L 30.08 154.23 L 30.26 153.74 L 30.43 153.25 L 30.61 152.78 L 30.79 152.30 L 30.97 151.84 L 31.14 151.38 L 31.32 150.92 L 31.50 150.48 L 31.68 150.04 L 31.85 149.60 L 32.03 149.17 L 32.21 148.75 L 32.39 148.33 L 32.56 147.92 L 32.74 147.52 L 32.92 147.11 L 33.10 146.72 L 33.27 146.33 L 33.45 145.94 L 33.63 145.56 L 33.81 145.18 L 33.98 144.81 L 34.16 144.44 L 34.34 144.08 L 34.52 143.72 L 34.70 143.37 L 34.87 143.02 L 35.05 142.67 L 35.23 142.33 L 35.41 141.99 L 35.58 141.66 L 35.76 141.33 L 35.94 141.00 L 36.12 140.68 L 36.29 140.36 L 36.47 140.05 L 36.65 139.74 L 36.83 139.43 L 37.00 139.13 L 37.18 138.83 L 37.36 138.53 L 37.54 138.23 L 37.71 137.94 L 37.89 137.65 L 38.07 137.37 L 38.25 137.09 L 38.43 136.81 L 38.60 136.53 L 38.78 136.26 L 38.96 135.99 L 39.14 135.72 L 39.31 135.46 L 39.49 135.20 L 39.67 134.94 L 39.85 134.68 L 40.02 134.43 L 40.20 134.17 L 40.38 133.93 L 40.56 133.68 L 40.73 133.44 L 40.91 133.19 L 41.09 132.95 L 41.27 132.72 L 41.44 132.48 L 41.62 132.25 L 41.80 132.02 L 41.98 131.79 L 42.16 131.57 L 42.33 131.34 L 42.51 131.12 L 42.69 130.90 L 42.87 130.68 L 43.04 130.47 L 43.22 130.25 L 43.40 130.04 L 43.58 129.83 L 43.75 129.62 L 43.93 129.42 L 44.11 129.21 L 44.29 129.01 L 44.46 128.81 L 44.64 128.61 L 44.82 128.41 L 45.00 128.22 L 45.17 128.03 L 45.35 127.83 L 45.53 127.64 L 45.71 127.45 L 45.88 127.27 L 46.06 127.08 L 46.24 126.90 L 46.42 126.71 L 46.60 126.53 L 46.77 126.35 L 46.95 126.18 L 47.13 126.00 L 47.31 125.82 L 47.48 125.65 L 47.66 125.48 L 47.84 125.31 L 48.02 125.14 L 48.19 124.97 L 48.37 124.80 L 48.55 124.64 L 48.73 124.47 L 48.90 124.31 L 49.08 124.15 L 49.26 123.99 L 49.44 123.83 L 49.61 123.67 L 49.79 123.51 L 49.97 123.36 L 50.15 123.20 L 50.33 123.05 L 50.50 122.90 L 50.68 122.75 L 50.86 122.60 L 51.04 122.45 L 51.21 122.30 L 51.39 122.15 L 51.57 122.01 L 51.75 121.86 L 51.92 121.72 L 52.10 121.58 L 52.28 121.43 L 52.46 121.29 L 52.63 121.15 L 52.81 121.02 L 52.99 120.88 L 53.17 120.74 L 53.34 120.61 L 53.52 120.47 L 53.70 120.34 L 53.88 120.20 L 54.06 120.07 L 54.23 119.94 L 54.41 119.81 L 54.59 119.68 L 54.77 119.55 L 54.94 119.43 L 55.12 119.30 L 55.30 119.17 L 55.48 119.05 L 55.65 118.92 L 55.83 118.80 L 56.01 118.68 L 56.19 118.56 L 56.36 118.43 L 56.54 118.31 L 56.72 118.19 L 56.90 118.08 L 57.07 117.96 L 57.25 117.84 L 57.43 117.72 L 57.61 117.61 L 57.78 117.49 L 57.96 117.38 L 58.14 117.27 L 58.32 117.15 L 58.50 117.04 L 58.67 116.93 L 58.85 116.82 L 59.03 116.71 L 59.21 116.60 L 59.38 116.49 L 59.56 116.38 L 59.74 116.27 L 59.92 116.17 L 60.09 116.06 L 60.27 115.95 L 60.45 115.85 L 60.63 115.74 L 60.80 115.64 L 60.98 115.54 L 61.16 115.44 L 61.34 115.33 L 61.51 115.23 L 61.69 115.13 L 61.87 115.03 L 62.05 114.93 L 62.23 114.83 L 62.40 114.73 L 62.58 114.63 L 62.76 114.54 L 62.94 114.44 L 63.11 114.34 L 63.29 114.25 L 63.47 114.15 L 63.65 114.06 L 63.82 113.96 L 64.00 113.87 L 64.18 113.78 L 64.36 113.68 L 64.53 113.59 L 64.71 113.50 L 64.89 113.41 L 65.07 113.32 L 65.24 113.23 L 65.42 113.14 L 65.60 113.05 L 65.78 112.96 L 65.95 112.87 L 66.13 112.78 L 66.31 112.69 L 66.49 112.61 L 66.67 112.52 L 66.84 112.43 L 67.02 112.35 L 67.20 112.26 L 67.38 112.18 L 67.55 112.09 L 67.73 112.01 L 67.91 111.92 L 68.09 111.84 L 68.26 111.76 L 68.44 111.68 L 68.62 111.59 L 68.80 111.51 L 68.97 111.43 L 69.15 111.35 L 69.33 111.27 L 69.51 111.19 L 69.68 111.11 L 69.86 111.03 L 70.04 110.95 L 70.22 110.87 L 70.40 110.79 L 70.57 110.72 L 70.75 110.64 L 70.93 110.56 L 71.11 110.49 L 71.28 110.41 L 71.46 110.33 L 71.64 110.26 L 71.82 110.18 L 71.99 110.11 L 72.17 110.03 L 72.35 109.96 L 72.53 109.88 L 72.70 109.81 L 72.88 109.74 L 73.06 109.66 L 73.24 109.59 L 73.41 109.52 L 73.59 109.45 L 73.77 109.38 L 73.95 109.30 L 74.13 109.23 L 74.30 109.16 L 74.48 109.09 L 74.66 109.02 L 74.84 108.95 L 75.01 108.88 L 75.19 108.81 L 75.37 108.74 L 75.55 108.67 L 75.72 108.61 L 75.90 108.54 L 76.08 108.47 L 76.26 108.40 L 76.43 108.34 L 76.61 108.27 L 76.79 108.20 L 76.97 108.14 L 77.14 108.07 L 77.32 108.00 L 77.50 107.94 L 77.68 107.87 L 77.85 107.81 L 78.03 107.74 L 78.21 107.68 L 78.39 107.61 L 78.57 107.55 L 78.74 107.49 L 78.92 107.42 L 79.10 107.36 L 79.28 107.30 L 79.45 107.23 L 79.63 107.17 L 79.81 107.11 L 79.99 107.05 L 80.16 106.98 L 80.34 106.92 L 80.52 106.86 L 80.70 106.80 L 80.87 106.74 L 81.05 106.68 L 81.23 106.62 L 81.41 106.56 L 81.58 106.50 L 81.76 106.44 L 81.94 106.38 L 82.12 106.32 L 82.30 106.26 L 82.47 106.20 L 82.65 106.14 L 82.83 106.08 L 83.01 106.03 L 83.18 105.97 L 83.36 105.91 L 83.54 105.85 L 83.72 105.80 L 83.89 105.74 L 84.07 105.68 L 84.25 105.62 L 84.43 105.57 L 84.60 105.51 L 84.78 105.46 L 84.96 105.40 L 85.14 105.34 L 85.31 105.29 L 85.49 105.23 L 85.67 105.18 L 85.85 105.12 L 86.03 105.07 L 86.20 105.01 L 86.38 104.96 L 86.56 104.90 L 86.74 104.85 L 86.91 104.80 L 87.09 104.74 L 87.27 104.69 L 87.45 104.63 L 87.62 104.58 L 87.80 104.53 L 87.98 104.48 L 88.16 104.42 L 88.33 104.37 L 88.51 104.32 L 88.69 104.27 L 88.87 104.21 L 89.04 104.16 L 89.22 104.11 L 89.40 104.06 L 89.58 104.01 L 89.75 103.96 L 89.93 103.91 L 90.11 103.85 L 90.29 103.80 L 90.47 103.75 L 90.64 103.70 L 90.82 103.65 L 91.00 103.60 L 91.18 103.55 L 91.35 103.50 L 91.53 103.45 L 91.71 103.40 L 91.89 103.35 L 92.06 103.31 L 92.24 103.26 L 92.42 103.21 L 92.60 103.16 L 92.77 103.11 L 92.95 103.06 L 93.13 103.01 L 93.31 102.97 L 93.48 102.92 L 93.66 102.87 L 93.84 102.82 L 94.02 102.77 L 94.20 102.73 L 94.37 102.68 L 94.55 102.63 L 94.73 102.59 L 94.91 102.54 L 95.08 102.49 L 95.26 102.45 L 95.44 102.40 L 95.62 102.35 L 95.79 102.31 L 95.97 102.26 L 96.15 102.21 L 96.33 102.17 L 96.50 102.12 L 96.68 102.08 L 96.86 102.03 L 97.04 101.99 L 97.21 101.94 L 97.39 101.90 L 97.57 101.85 L 97.75 101.81 L 97.92 101.76 L 98.10 101.72 L 98.28 101.67 L 98.46 101.63 L 98.64 101.58 L 98.81 101.54 L 98.99 101.49 L 99.17 101.45 L 99.35 101.41 L 99.52 101.36 L 99.70 101.32 L 99.88 101.28 L 100.06 101.23 L 100.23 101.19 L 100.41 101.15 L 100.59 101.10 L 100.77 101.06 L 100.94 101.02 L 101.12 100.97 L 101.30 100.93 L 101.48 100.89 L 101.65 100.85 L 101.83 100.81 L 102.01 100.76 L 102.19 100.72 L 102.37 100.68 L 102.54 100.64 L 102.72 100.60 L 102.90 100.55 L 103.08 100.51 L 103.25 100.47 L 103.43 100.43 L 103.61 100.39 L 103.79 100.35 L 103.96 100.31 L 104.14 100.26 L 104.32 100.22 L 104.50 100.18 L 104.67 100.14 L 104.85 100.10 L 105.03 100.06 L 105.21 100.02 L 105.38 99.98 L 105.56 99.94 L 105.74 99.90 L 105.92 99.86 L 106.10 99.82 L 106.27 99.78 L 106.45 99.74 L 106.63 99.70 L 106.81 99.66 L 106.98 99.62 L 107.16 99.58 L 107.34 99.54 L 107.52 99.50 L 107.69 99.46 L 107.87 99.42 L 108.05 99.39 L 108.23 99.35 L 108.40 99.31 L 108.58 99.27 L 108.76 99.23 L 108.94 99.19 L 109.11 99.15 L 109.29 99.11 L 109.47 99.08 L 109.65 99.04 L 109.82 99.00 L 110.00 98.96 L 110.18 98.92 L 110.36 98.88 L 110.54 98.85 L 110.71 98.81 L 110.89 98.77 L 111.07 98.73 L 111.25 98.70 L 111.42 98.66 L 111.60 98.62 L 111.78 98.58 L 111.96 98.55 L 112.13 98.51 L 112.31 98.47 L 112.49 98.43 L 112.67 98.40 L 112.84 98.36 L 113.02 98.32 L 113.20 98.29 L 113.38 98.25 L 113.55 98.21 L 113.73 98.18 L 113.91 98.14 L 114.09 98.10 L 114.27 98.07 L 114.44 98.03 L 114.62 97.99 L 114.80 97.96 L 114.98 97.92 L 115.15 97.89 L 115.33 97.85 L 115.51 97.81 L 115.69 97.78 L 115.86 97.74 L 116.04 97.71 L 116.22 97.67 L 116.40 97.64 L 116.57 97.60 L 116.75 97.56 L 116.93 97.53 L 117.11 97.49 L 117.28 97.46 L 117.46 97.42 L 117.64 97.39 L 117.82 97.35 L 117.99 97.32 L 118.17 97.28 L 118.35 97.25 L 118.53 97.21 L 118.71 97.18 L 118.88 97.14 L 119.06 97.11 L 119.24 97.07 L 119.42 97.04 L 119.59 97.00 L 119.77 96.97 L 119.95 96.93 L 120.13 96.90 L 120.30 96.87 L 120.48 96.83 L 120.66 96.80 L 120.84 96.76 L 121.01 96.73 L 121.19 96.69 L 121.37 96.66 L 121.55 96.63 L 121.72 96.59 L 121.90 96.56 L 122.08 96.52 L 122.26 96.49 L 122.44 96.46 L 122.61 96.42 L 122.79 96.39 L 122.97 96.36 L 123.15 96.32 L 123.32 96.29 L 123.50 96.26 L 123.68 96.22 L 123.86 96.19 L 124.03 96.16 L 124.21 96.12 L 124.39 96.09 L 124.57 96.06 L 124.74 96.02 L 124.92 95.99 L 125.10 95.96 L 125.28 95.92 L 125.45 95.89 L 125.63 95.86 L 125.81 95.82 L 125.99 95.79 L 126.17 95.76 L 126.34 95.73 L 126.52 95.69 L 126.70 95.66 L 126.88 95.63 L 127.05 95.60 L 127.23 95.56 L 127.41 95.53 L 127.59 95.50 L 127.76 95.47 L 127.94 95.43 L 128.12 95.40 L 128.30 95.37 L 128.47 95.34 L 128.65 95.30 L 128.83 95.27 L 129.01 95.24 L 129.18 95.21 L 129.36 95.18 L 129.54 95.14 L 129.72 95.11 L 129.89 95.08 L 130.07 95.05 L 130.25 95.02 L 130.43 94.98 L 130.61 94.95 L 130.78 94.92 L 130.96 94.89 L 131.14 94.86 L 131.32 94.83 L 131.49 94.79 L 131.67 94.76 L 131.85 94.73 L 132.03 94.70 L 132.20 94.67 L 132.38 94.64 L 132.56 94.60 L 132.74 94.57 L 132.91 94.54 L 133.09 94.51 L 133.27 94.48 L 133.45 94.45 L 133.62 94.42 L 133.80 94.39 L 133.98 94.35 L 134.16 94.32 L 134.34 94.29 L 134.51 94.26 L 134.69 94.23 L 134.87 94.20 L 135.05 94.17 L 135.22 94.14 L 135.40 94.11 L 135.58 94.07 L 135.76 94.04 L 135.93 94.01 L 136.11 93.98 L 136.29 93.95 L 136.47 93.92 L 136.64 93.89 L 136.82 93.86 L 137.00 93.83 L 137.18 93.80 L 137.35 93.77 L 137.53 93.74 L 137.71 93.71 L 137.89 93.68 L 138.07 93.64 L 138.24 93.61 L 138.42 93.58 L 138.60 93.55 L 138.78 93.52 L 138.95 93.49 L 139.13 93.46 L 139.31 93.43 L 139.49 93.40 L 139.66 93.37 L 139.84 93.34 L 140.02 93.31 L 140.20 93.28 L 140.37 93.25 L 140.55 93.22 L 140.73 93.19 L 140.91 93.16 L 141.08 93.13 L 141.26 93.10 L 141.44 93.07 L 141.62 93.04 L 141.79 93.01 L 141.97 92.98 L 142.15 92.95 L 142.33 92.92 L 142.51 92.89 L 142.68 92.86 L 142.86 92.83 L 143.04 92.80 L 143.22 92.77 L 143.39 92.74 L 143.57 92.71 L 143.75 92.68 L 143.93 92.65 L 144.10 92.62 L 144.28 92.59 L 144.46 92.56 L 144.64 92.53 L 144.81 92.50 L 144.99 92.47 L 145.17 92.44 L 145.35 92.41 L 145.52 92.38 L 145.70 92.35 L 145.88 92.32 L 146.06 92.29 L 146.24 92.26 L 146.41 92.23 L 146.59 92.20 L 146.77 92.18 L 146.95 92.15 L 147.12 92.12 L 147.30 92.09 L 147.48 92.06 L 147.66 92.03 L 147.83 92.00 L 148.01 91.97 L 148.19 91.94 L 148.37 91.91 L 148.54 91.88 L 148.72 91.85 L 148.90 91.82 L 149.08 91.79 L 149.25 91.76 L 149.43 91.73 L 149.61 91.70 L 149.79 91.67 L 149.96 91.65 L 150.14 91.62 L 150.32 91.59 L 150.50 91.56 L 150.68 91.53 L 150.85 91.50 L 151.03 91.47 L 151.21 91.44 L 151.39 91.41 L 151.56 91.38 L 151.74 91.35 L 151.92 91.32 L 152.10 91.29 L 152.27 91.26 L 152.45 91.24 L 152.63 91.21 L 152.81 91.18 L 152.98 91.15 L 153.16 91.12 L 153.34 91.09 L 153.52 91.06 L 153.69 91.03 L 153.87 91.00 L 154.05 90.97 L 154.23 90.94 L 154.41 90.92 L 154.58 90.89 L 154.76 90.86 L 154.94 90.83 L 155.12 90.80 L 155.29 90.77 L 155.47 90.74 L 155.65 90.71 L 155.83 90.68 L 156.00 90.65 L 156.18 90.62 L 156.36 90.60 L 156.54 90.57 L 156.71 90.54 L 156.89 90.51 L 157.07 90.48 L 157.25 90.45 L 157.42 90.42 L 157.60 90.39 L 157.78 90.36 L 157.96 90.33 L 158.14 90.30 L 158.31 90.28 L 158.49 90.25 L 158.67 90.22 L 158.85 90.19 L 159.02 90.16 L 159.20 90.13 L 159.38 90.10 L 159.56 90.07 L 159.73 90.04 L 159.91 90.01 L 160.09 89.99 L 160.27 89.96 L 160.44 89.93 L 160.62 89.90 L 160.80 89.87 L 160.98 89.84 L 161.15 89.81 L 161.33 89.78 L 161.51 89.75 L 161.69 89.72 L 161.86 89.70 L 162.04 89.67 L 162.22 89.64 L 162.40 89.61 L 162.58 89.58 L 162.75 89.55 L 162.93 89.52 L 163.11 89.49 L 163.29 89.46 L 163.46 89.43 L 163.64 89.40 L 163.82 89.38 L 164.00 89.35 L 164.17 89.32 L 164.35 89.29 L 164.53 89.26 L 164.71 89.23 L 164.88 89.20 L 165.06 89.17 L 165.24 89.14 L 165.42 89.11 L 165.59 89.08 L 165.77 89.06 L 165.95 89.03 L 166.13 89.00 L 166.31 88.97 L 166.48 88.94 L 166.66 88.91 L 166.84 88.88 L 167.02 88.85 L 167.19 88.82 L 167.37 88.79 L 167.55 88.76 L 167.73 88.74 L 167.90 88.71 L 168.08 88.68 L 168.26 88.65 L 168.44 88.62 L 168.61 88.59 L 168.79 88.56 L 168.97 88.53 L 169.15 88.50 L 169.32 88.47 L 169.50 88.44 L 169.68 88.41 L 169.86 88.38 L 170.04 88.35 L 170.21 88.33 L 170.39 88.30 L 170.57 88.27 L 170.75 88.24 L 170.92 88.21 L 171.10 88.18 L 171.28 88.15 L 171.46 88.12 L 171.63 88.09 L 171.81 88.06 L 171.99 88.03 L 172.17 88.00 L 172.34 87.97 L 172.52 87.94 L 172.70 87.91 L 172.88 87.88 L 173.05 87.85 L 173.23 87.82 L 173.41 87.80 L 173.59 87.77 L 173.76 87.74 L 173.94 87.71 L 174.12 87.68 L 174.30 87.65 L 174.48 87.62 L 174.65 87.59 L 174.83 87.56 L 175.01 87.53 L 175.19 87.50 L 175.36 87.47 L 175.54 87.44 L 175.72 87.41 L 175.90 87.38 L 176.07 87.35 L 176.25 87.32 L 176.43 87.29 L 176.61 87.26 L 176.78 87.23 L 176.96 87.20 L 177.14 87.17 L 177.32 87.14 L 177.49 87.11 L 177.67 87.08 L 177.85 87.05 L 178.03 87.02 L 178.21 86.99 L 178.38 86.96 L 178.56 86.93 L 178.74 86.90 L 178.92 86.87 L 179.09 86.84 L 179.27 86.81 L 179.45 86.78 L 179.63 86.75 L 179.80 86.72 L 179.98 86.69 L 180.16 86.66 L 180.34 86.63 L 180.51 86.60 L 180.69 86.57 L 180.87 86.54 L 181.05 86.51 L 181.22 86.48 L 181.40 86.45 L 181.58 86.42 L 181.76 86.39 L 181.93 86.36 L 182.11 86.32 L 182.29 86.29 L 182.47 86.26 L 182.65 86.23 L 182.82 86.20 L 183.00 86.17 L 183.18 86.14 L 183.36 86.11 L 183.53 86.08 L 183.71 86.05 L 183.89 86.02 L 184.07 85.99 L 184.24 85.96 L 184.42 85.93 L 184.60 85.89 L 184.78 85.86 L 184.95 85.83 L 185.13 85.80 L 185.31 85.77 L 185.49 85.74 L 185.66 85.71 L 185.84 85.68 L 186.02 85.65 L 186.20 85.61 L 186.38 85.58 L 186.55 85.55 L 186.73 85.52 L 186.91 85.49 L 187.09 85.46 L 187.26 85.43 L 187.44 85.40 L 187.62 85.36 L 187.80 85.33 L 187.97 85.30 L 188.15 85.27 L 188.33 85.24 L 188.51 85.21 L 188.68 85.17 L 188.86 85.14 L 189.04 85.11 L 189.22 85.08 L 189.39 85.05 L 189.57 85.02 L 189.75 84.98 L 189.93 84.95 L 190.11 84.92 L 190.28 84.89 L 190.46 84.86 L 190.64 84.82 L 190.82 84.79 L 190.99 84.76 L 191.17 84.73 L 191.35 84.70 L 191.53 84.66 L 191.70 84.63 L 191.88 84.60 L 192.06 84.57 L 192.24 84.53 L 192.41 84.50 L 192.59 84.47 L 192.77 84.44 L 192.95 84.40 L 193.12 84.37 L 193.30 84.34 L 193.48 84.31 L 193.66 84.27 L 193.83 84.24 L 194.01 84.21 L 194.19 84.18 L 194.37 84.14 L 194.55 84.11 L 194.72 84.08 L 194.90 84.04 L 195.08 84.01 L 195.26 83.98 L 195.43 83.94 L 195.61 83.91 L 195.79 83.88 L 195.97 83.84 L 196.14 83.81 L 196.32 83.78 L 196.50 83.74 L 196.68 83.71 L 196.85 83.68 L 197.03 83.64 L 197.21 83.61 L 197.39 83.58 L 197.56 83.54 L 197.74 83.51 L 197.92 83.48 L 198.10 83.44 L 198.28 83.41 L 198.45 83.37 L 198.63 83.34 L 198.81 83.31 L 198.99 83.27 L 199.16 83.24 L 199.34 83.20 L 199.52 83.17 L 199.70 83.13 L 199.87 83.10 L 200.05 83.07 L 200.23 83.03 L 200.41 83.00 L 200.58 82.96 L 200.76 82.93 L 200.94 82.89 L 201.12 82.86 L 201.29 82.82 L 201.47 82.79 L 201.65 82.75 L 201.83 82.72 L 202.01 82.68 L 202.18 82.65 L 202.36 82.61 L 202.54 82.58 L 202.72 82.54 L 202.89 82.51 L 203.07 82.47 L 203.25 82.44 L 203.43 82.40 L 203.60 82.36 L 203.78 82.33 L 203.96 82.29 L 204.14 82.26 L 204.31 82.22 L 204.49 82.19 L 204.67 82.15 L 204.85 82.11 L 205.02 82.08 L 205.20 82.04 L 205.38 82.01 L 205.56 81.97 L 205.73 81.93 L 205.91 81.90 L 206.09 81.86 L 206.27 81.82 L 206.45 81.79 L 206.62 81.75 L 206.80 81.71 L 206.98 81.68 L 207.16 81.64 L 207.33 81.60 L 207.51 81.57 L 207.69 81.53 L 207.87 81.49 L 208.04 81.45 L 208.22 81.42 L 208.40 81.38 L 208.58 81.34 L 208.75 81.30 L 208.93 81.27 L 209.11 81.23 L 209.29 81.19 L 209.46 81.15 L 209.64 81.12 L 209.82 81.08 L 210.00 81.04 L 210.18 81.00 L 210.35 80.96 L 210.53 80.92 L 210.71 80.89 L 210.89 80.85 L 211.06 80.81 L 211.24 80.77 L 211.42 80.73 L 211.60 80.69 L 211.77 80.65 L 211.95 80.61 L 212.13 80.58 L 212.31 80.54 L 212.48 80.50 L 212.66 80.46 L 212.84 80.42 L 213.02 80.38 L 213.19 80.34 L 213.37 80.30 L 213.55 80.26 L 213.73 80.22 L 213.90 80.18 L 214.08 80.14 L 214.26 80.10 L 214.44 80.06 L 214.62 80.02 L 214.79 79.98 L 214.97 79.94 L 215.15 79.90 L 215.33 79.86 L 215.50 79.82 L 215.68 79.78 L 215.86 79.74 L 216.04 79.69 L 216.21 79.65 L 216.39 79.61 L 216.57 79.57 L 216.75 79.53 L 216.92 79.49 L 217.10 79.45 L 217.28 79.40 L 217.46 79.36 L 217.63 79.32 L 217.81 79.28 L 217.99 79.24 L 218.17 79.19 L 218.35 79.15 L 218.52 79.11 L 218.70 79.07 L 218.88 79.03 L 219.06 78.98 L 219.23 78.94 L 219.41 78.90 L 219.59 78.85 L 219.77 78.81 L 219.94 78.77 L 220.12 78.72 L 220.30 78.68 L 220.48 78.64 L 220.65 78.59 L 220.83 78.55 L 221.01 78.51 L 221.19 78.46 L 221.36 78.42 L 221.54 78.37 L 221.72 78.33 L 221.90 78.28 L 222.08 78.24 L 222.25 78.19 L 222.43 78.15 L 222.61 78.10 L 222.79 78.06 L 222.96 78.01 L 223.14 77.97 L 223.32 77.92 L 223.50 77.88 L 223.67 77.83 L 223.85 77.79 L 224.03 77.74 L 224.21 77.69 L 224.38 77.65 L 224.56 77.60 L 224.74 77.55 L 224.92 77.51 L 225.09 77.46 L 225.27 77.41 L 225.45 77.37 L 225.63 77.32 L 225.80 77.27 L 225.98 77.23 L 226.16 77.18 L 226.34 77.13 L 226.52 77.08 L 226.69 77.03 L 226.87 76.99 L 227.05 76.94 L 227.23 76.89 L 227.40 76.84 L 227.58 76.79 L 227.76 76.74 L 227.94 76.69 L 228.11 76.65 L 228.29 76.60 L 228.47 76.55 L 228.65 76.50 L 228.82 76.45 L 229.00 76.40 L 229.18 76.35 L 229.36 76.30 L 229.53 76.25 L 229.71 76.20 L 229.89 76.15 L 230.07 76.09 L 230.25 76.04 L 230.42 75.99 L 230.60 75.94 L 230.78 75.89 L 230.96 75.84 L 231.13 75.79 L 231.31 75.73 L 231.49 75.68 L 231.67 75.63 L 231.84 75.58 L 232.02 75.52 L 232.20 75.47 L 232.38 75.42 L 232.55 75.37 L 232.73 75.31 L 232.91 75.26 L 233.09 75.20 L 233.26 75.15 L 233.44 75.10 L 233.62 75.04 L 233.80 74.99 L 233.97 74.93 L 234.15 74.88 L 234.33 74.82 L 234.51 74.77 L 234.69 74.71 L 234.86 74.66 L 235.04 74.60 L 235.22 74.54 L 235.40 74.49 L 235.57 74.43 L 235.75 74.38 L 235.93 74.32 L 236.11 74.26 L 236.28 74.20 L 236.46 74.15 L 236.64 74.09 L 236.82 74.03 L 236.99 73.97 L 237.17 73.92 L 237.35 73.86 L 237.53 73.80 L 237.70 73.74 L 237.88 73.68 L 238.06 73.62 L 238.24 73.56 L 238.42 73.50 L 238.59 73.44 L 238.77 73.38 L 238.95 73.32 L 239.13 73.26 L 239.30 73.20 L 239.48 73.14 L 239.66 73.08 L 239.84 73.02 L 240.01 72.95 L 240.19 72.89 L 240.37 72.83 L 240.55 72.77 L 240.72 72.70 L 240.90 72.64 L 241.08 72.58 L 241.26 72.51 L 241.43 72.45 L 241.61 72.39 L 241.79 72.32 L 241.97 72.26 L 242.15 72.19 L 242.32 72.13 L 242.50 72.06 L 242.68 72.00 L 242.86 71.93 L 243.03 71.86 L 243.21 71.80 L 243.39 71.73 L 243.57 71.66 L 243.74 71.60 L 243.92 71.53 L 244.10 71.46 L 244.28 71.39 L 244.45 71.33 L 244.63 71.26 L 244.81 71.19 L 244.99 71.12 L 245.16 71.05 L 245.34 70.98 L 245.52 70.91 L 245.70 70.84 L 245.87 70.77 L 246.05 70.70 L 246.23 70.62 L 246.41 70.55 L 246.59 70.48 L 246.76 70.41 L 246.94 70.34 L 247.12 70.26 L 247.30 70.19 L 247.47 70.12 L 247.65 70.04 L 247.83 69.97 L 248.01 69.89 L 248.18 69.82 L 248.36 69.74 L 248.54 69.67 L 248.72 69.59 L 248.89 69.51 L 249.07 69.44 L 249.25 69.36 L 249.43 69.28 L 249.60 69.21 L 249.78 69.13 L 249.96 69.05 L 250.14 68.97 L 250.32 68.89 L 250.49 68.81 L 250.67 68.73 L 250.85 68.65 L 251.03 68.57 L 251.20 68.49 L 251.38 68.41 L 251.56 68.32 L 251.74 68.24 L 251.91 68.16 L 252.09 68.08 L 252.27 67.99 L 252.45 67.91 L 252.62 67.82 L 252.80 67.74 L 252.98 67.65 L 253.16 67.57 L 253.33 67.48 L 253.51 67.39 L 253.69 67.31 L 253.87 67.22 L 254.05 67.13 L 254.22 67.04 L 254.40 66.95 L 254.58 66.86 L 254.76 66.77 L 254.93 66.68 L 255.11 66.59 L 255.29 66.50 L 255.47 66.41 L 255.64 66.32 L 255.82 66.22 L 256.00 66.13 L 256.18 66.04 L 256.35 65.94 L 256.53 65.85 L 256.71 65.75 L 256.89 65.66 L 257.06 65.56 L 257.24 65.46 L 257.42 65.37 L 257.60 65.27 L 257.77 65.17 L 257.95 65.07 L 258.13 64.97 L 258.31 64.87 L 258.49 64.77 L 258.66 64.67 L 258.84 64.56 L 259.02 64.46 L 259.20 64.36 L 259.37 64.26 L 259.55 64.15 L 259.73 64.05 L 259.91 63.94 L 260.08 63.83 L 260.26 63.73 L 260.44 63.62 L 260.62 63.51 L 260.79 63.40 L 260.97 63.29 L 261.15 63.18 L 261.33 63.07 L 261.50 62.96 L 261.68 62.85 L 261.86 62.73 L 262.04 62.62 L 262.22 62.51 L 262.39 62.39 L 262.57 62.28 L 262.75 62.16 L 262.93 62.04 L 263.10 61.92 L 263.28 61.81 L 263.46 61.69 L 263.64 61.57 L 263.81 61.44 L 263.99 61.32 L 264.17 61.20 L 264.35 61.08 L 264.52 60.95 L 264.70 60.83 L 264.88 60.70 L 265.06 60.57 L 265.23 60.45 L 265.41 60.32 L 265.59 60.19 L 265.77 60.06 L 265.94 59.93 L 266.12 59.80 L 266.30 59.66 L 266.48 59.53 L 266.66 59.39 L 266.83 59.26 L 267.01 59.12 L 267.19 58.98 L 267.37 58.85 L 267.54 58.71 L 267.72 58.57 L 267.90 58.42 L 268.08 58.28 L 268.25 58.14 L 268.43 57.99 L 268.61 57.85 L 268.79 57.70 L 268.96 57.55 L 269.14 57.40 L 269.32 57.25 L 269.50 57.10 L 269.67 56.95 L 269.85 56.80 L 270.03 56.64 L 270.21 56.49 L 270.39 56.33 L 270.56 56.17 L 270.74 56.01 L 270.92 55.85 L 271.10 55.69 L 271.27 55.53 L 271.45 55.36 L 271.63 55.20 L 271.81 55.03 L 271.98 54.86 L 272.16 54.69 L 272.34 54.52 L 272.52 54.35 L 272.69 54.18 L 272.87 54.00 L 273.05 53.82 L 273.23 53.65 L 273.40 53.47 L 273.58 53.29 L 273.76 53.10 L 273.94 52.92 L 274.12 52.73 L 274.29 52.55 L 274.47 52.36 L 274.65 52.17 L 274.83 51.97 L 275.00 51.78 L 275.18 51.59 L 275.36 51.39 L 275.54 51.19 L 275.71 50.99 L 275.89 50.79 L 276.07 50.58 L 276.25 50.38 L 276.42 50.17 L 276.60 49.96 L 276.78 49.75 L 276.96 49.53 L 277.13 49.32 L 277.31 49.10 L 277.49 48.88 L 277.67 48.66 L 277.84 48.43 L 278.02 48.21 L 278.20 47.98 L 278.38 47.75 L 278.56 47.52 L 278.73 47.28 L 278.91 47.05 L 279.09 46.81 L 279.27 46.56 L 279.44 46.32 L 279.62 46.07 L 279.80 45.83 L 279.98 45.57 L 280.15 45.32 L 280.33 45.06 L 280.51 44.80 L 280.69 44.54 L 280.86 44.28 L 281.04 44.01 L 281.22 43.74 L 281.40 43.47 L 281.57 43.19 L 281.75 42.91 L 281.93 42.63 L 282.11 42.35 L 282.29 42.06 L 282.46 41.77 L 282.64 41.47 L 282.82 41.17 L 283.00 40.87 L 283.17 40.57 L 283.35 40.26 L 283.53 39.95 L 283.71 39.64 L 283.88 39.32 L 284.06 39.00 L 284.24 38.67 L 284.42 38.34 L 284.59 38.01 L 284.77 37.67 L 284.95 37.33 L 285.13 36.98 L 285.30 36.63 L 285.48 36.28 L 285.66 35.92 L 285.84 35.56 L 286.02 35.19 L 286.19 34.82 L 286.37 34.44 L 286.55 34.06 L 286.73 33.67 L 286.90 33.28 L 287.08 32.89 L 287.26 32.48 L 287.44 32.08 L 287.61 31.67 L 287.79 31.25 L 287.97 30.83 L 288.15 30.40 L 288.32 29.96 L 288.50 29.52 L 288.68 29.08 L 288.86 28.62 L 289.03 28.16 L 289.21 27.70 L 289.39 27.22 L 289.57 26.75 L 289.74 26.26 L 289.92 25.77 L 290.10 25.27 L 290.28 24.76 L 290.46 24.24 L 290.63 23.72 L 290.81 23.19 L 290.99 22.65 L 291.17 22.10 L 291.34 21.55 L 291.52 20.98 L 291.70 20.41 L 291.88 19.83 L 292.05 19.23 L 292.23 18.63 L 292.41 18.02 L 292.59 17.40 L 292.76 16.77 L 292.94 16.13 L 293.12 15.47 L 293.30 14.81 L 293.47 14.13 L 293.65 13.45 L 293.83 12.75 L 294.01 12.03 L 294.19 11.31 L 294.36 10.57 L 294.54 9.82 L 294.72 9.06 L 294.90 8.28 L 295.07 7.49 L 295.25 6.68 L 295.43 5.85 L 295.61 5.01 L 295.78 4.16 L 295.96 3.28 L 296.14 2.39 L 296.32 1.49 L 296.49 0.56 L 296.67 -0.39 L 296.85 -1.35 L 297.03 -2.34 L 297.20 -3.34 L 297.38 -4.37 L 297.56 -5.42 L 297.74 -6.49 L 297.91 -7.59 L 298.09 -8.71 L 298.27 -9.85 L 298.45 -11.03 L 298.63 -12.23 L 298.80 -13.45 L 298.98 -14.71 L 299.16 -16.00 L 299.34 -17.32 L 299.51 -18.67 L 299.69 -20.05 L 299.87 -21.47 L 300.05 -22.93 L 300.22 -24.42 L 300.40 -25.95 L 300.58 -27.53 L 300.76 -29.14 L 300.93 -30.81 L 301.11 -32.51 L 301.29 -34.27 L 301.47 -36.07 L 301.64 -37.93 L 301.82 -39.84 L 302.00 -41.81" fill="none" stroke="#7E8692" stroke-width="2.3" stroke-linecap="round" stroke-linejoin="round"/>
</svg>
