<svg xmlns="http://www.w3.org/2000/svg" viewBox="0 0 320 180" width="320" height="180">
  <rect width="320" height="180" fill="#F4F5F7"/>
  <path d="M 18.00 149.96 L 18.32 149.96 L 18.63 149.96 L 18.95 149.96 L 19.26 149.96 L 19.58 149.96 L 19.90 149.96 L 20.21 149.95 L 20.53 149.95 L 20.84 149.95 L 21.16 149.95 L 21.47 149.95 L 21.79 149.95 L 22.11 149.95 L 22.42 149.95 L 22.74 149.95 L 23.05 149.95 L 23.37 149.95 L 23.69 149.94 L 24.00 149.94 L 24.32 149.94 L 24.63 149.94 L 24.95 149.94 L 25.27 149.94 L 25.58 149.94 L 25.90 149.94 L 26.21 149.94 L 26.53 149.93 L 26.85 149.93 L 27.16 149.93 L 27.48 149.93 L 27.79 149.93 L 28.11 149.93 L 28.42 149.93 L 28.74 149.93 L 29.06 149.92 L 29.37 149.92 L 29.69 149.92 L 30.00 149.92 L 30.32 149.92 L 30.64 149.92 L 30.95 149.92 L 31.27 149.92 L 31.58 149.91 L 31.90 149.91 L 32.22 149.91 L 32.53 149.91 L 32.85 149.91 L 33.16 149.91 L 33.48 149.90 L 33.80 149.90 L 34.11 149.90 L 34.43 149.90 L 34.74 149.90 L 35.06 149.89 L 35.37 149.89 L 35.69 149.89 L 36.01 149.89 L 36.32 149.89 L 36.64 149.89 L 36.95 149.88 L 37.27 149.88 L 37.59 149.88 L 37.90 149.88 L 38.22 149.87 L 38.53 149.87 L 38.85 149.87 L 39.17 149.87 L 39.48 149.87 L 39.80 149.86 L 40.11 149.86 L 40.43 149.86 L 40.75 149.86 L 41.06 149.85 L 41.38 149.85 L 41.69 149.85 L 42.01 149.84 L 42.32 149.84 L 42.64 149.84 L 42.96 149.84 L 43.27 149.83 L 43.59 149.83 L 43.90 149.83 L 44.22 149.82 L 44.54 149.82 L 44.85 149.82 L 45.17 149.81 L 45.48 149.81 L 45.80 149.81 L 46.12 149.80 L 46.43 149.80 L 46.75 149.80 L 47.06 149.79 L 47.38 149.79 L 47.70 149.79 L 48.01 149.78 L 48.33 149.78 L 48.64 149.77 L 48.96 149.77 L 49.27 149.77 L 49.59 149.76 L 49.91 149.76 L 50.22 149.75 L 50.54 149.75 L 50.85 149.74 L 51.17 149.74 L 51.49 149.74 L 51.80 149.73 L 52.12 149.73 L 52.43 149.72 L 52.75 149.72 L 53.07 149.71 L 53.38 149.71 L 53.70 149.70 L 54.01 149.69 L 54.33 149.69 L 54.65 149.68 L 54.96 149.68 L 55.28 149.67 L 55.59 149.67 L 55.91 149.66 L 56.22 149.65 L 56.54 149.65 L 56.86 149.64 L 57.17 149.64 L 57.49 149.63 L 57.80 149.62 L 58.12 149.62 L 58.44 149.61 L 58.75 149.60 L 59.07 149.59 L 59.38 149.59 L 59.70 149.58 L 60.02 149.57 L 60.33 149.56 L 60.65 149.56 L 60.96 149.55 L 61.28 149.54 L 61.60 149.53 L 61.91 149.52 L 62.23 149.52 L 62.54 149.51 L 62.86 149.50 L 63.17 149.49 L 63.49 149.48 L 63.81 149.47 L 64.12 149.46 L 64.44 149.45 L 64.75 149.44 L 65.07 149.43 L 65.39 149.42 L 65.70 149.41 L 66.02 149.40 L 66.33 149.39 L 66.65 149.38 L 66.97 149.37 L 67.28 149.36 L 67.60 149.35 L 67.91 149.33 L 68.23 149.32 L 68.55 149.31 L 68.86 149.30 L 69.18 149.28 L 69.49 149.27 L 69.81 149.26 L 70.12 149.25 L 70.44 149.23 L 70.76 149.22 L 71.07 149.20 L 71.39 149.19 L 71.70 149.18 L 72.02 149.16 L 72.34 149.15 L 72.65 149.13 L 72.97 149.12 L 73.28 149.10 L 73.60 149.08 L 73.92 149.07 L 74.23 149.05 L 74.55 149.03 L 74.86 149.02 L 75.18 149.00 L 75.49 148.98 L 75.81 148.96 L 76.13 148.95 L 76.44 148.93 L 76.76 148.91 L 77.07 148.89 L 77.39 148.87 L 77.71 148.85 L 78.02 148.83 L 78.34 148.81 L 78.65 148.79 L 78.97 148.76 L 79.29 148.74 L 79.60 148.72 L 79.92 148.70 L 80.23 148.67 L 80.55 148.65 L 80.87 148.63 L 81.18 148.60 L 81.50 148.58 L 81.81 148.55 L 82.13 148.53 L 82.44 148.50 L 82.76 148.47 L 83.08 148.45 L 83.39 148.42 L 83.71 148.39 L 84.02 148.36 L 84.34 148.33 L 84.66 148.30 L 84.97 148.27 L 85.29 148.24 L 85.60 148.21 L 85.92 148.18 L 86.24 148.15 L 86.55 148.12 L 86.87 148.08 L 87.18 148.05 L 87.50 148.01 L 87.82 147.98 L 88.13 147.94 L 88.45 147.91 L 88.76 147.87 L 89.08 147.83 L 89.39 147.79 L 89.71 147.76 L 90.03 147.72 L 90.34 147.68 L 90.66 147.63 L 90.97 147.59 L 91.29 147.55 L 91.61 147.51 L 91.92 147.46 L 92.24 147.42 L 92.55 147.37 L 92.87 147.33 L 93.19 147.28 L 93.50 147.23 L 93.82 147.18 L 94.13 147.14 L 94.45 147.08 L 94.77 147.03 L 95.08 146.98 L 95.40 146.93 L 95.71 146.88 L 96.03 146.82 L 96.34 146.77 L 96.66 146.71 L 96.98 146.65 L 97.29 146.59 L 97.61 146.53 L 97.92 146.47 L 98.24 146.41 L 98.56 146.35 L 98.87 146.29 L 99.19 146.22 L 99.50 146.16 L 99.82 146.09 L 100.14 146.02 L 100.45 145.95 L 100.77 145.88 L 101.08 145.81 L 101.40 145.74 L 101.72 145.66 L 102.03 145.59 L 102.35 145.51 L 102.66 145.43 L 102.98 145.36 L 103.29 145.28 L 103.61 145.19 L 103.93 145.11 L 104.24 145.03 L 104.56 144.94 L 104.87 144.86 L 105.19 144.77 L 105.51 144.68 L 105.82 144.59 L 106.14 144.49 L 106.45 144.40 L 106.77 144.30 L 107.09 144.21 L 107.40 144.11 L 107.72 144.01 L 108.03 143.90 L 108.35 143.80 L 108.67 143.69 L 108.98 143.59 L 109.30 143.48 L 109.61 143.37 L 109.93 143.26 L 110.24 143.14 L 110.56 143.03 L 110.88 142.91 L 111.19 142.79 L 111.51 142.67 L 111.82 142.54 L 112.14 142.42 L 112.46 142.29 L 112.77 142.16 L 113.09 142.03 L 113.40 141.90 L 113.72 141.76 L 114.04 141.62 L 114.35 141.48 L 114.67 141.34 L 114.98 141.20 L 115.30 141.05 L 115.62 140.90 L 115.93 140.75 L 116.25 140.60 L 116.56 140.44 L 116.88 140.28 L 117.19 140.12 L 117.51 139.96 L 117.83 139.80 L 118.14 139.63 L 118.46 139.46 L 118.77 139.29 L 119.09 139.11 L 119.41 138.94 L 119.72 138.76 L 120.04 138.57 L 120.35 138.39 L 120.67 138.20 L 120.99 138.01 L 121.30 137.81 L 121.62 137.62 L 121.93 137.42 L 122.25 137.22 L 122.57 137.01 L 122.88 136.81 L 123.20 136.60 L 123.51 136.38 L 123.83 136.17 L 124.14 135.95 L 124.46 135.72 L 124.78 135.50 L 125.09 135.27 L 125.41 135.04 L 125.72 134.80 L 126.04 134.57 L 126.36 134.32 L 126.67 134.08 L 126.99 133.83 L 127.30 133.58 L 127.62 133.33 L 127.94 133.07 L 128.25 132.81 L 128.57 132.55 L 128.88 132.28 L 129.20 132.01 L 129.52 131.74 L 129.83 131.46 L 130.15 131.18 L 130.46 130.89 L 130.78 130.61 L 131.09 130.32 L 131.41 130.02 L 131.73 129.72 L 132.04 129.42 L 132.36 129.12 L 132.67 128.81 L 132.99 128.49 L 133.31 128.18 L 133.62 127.86 L 133.94 127.54 L 134.25 127.21 L 134.57 126.88 L 134.89 126.54 L 135.20 126.21 L 135.52 125.87 L 135.83 125.52 L 136.15 125.17 L 136.46 124.82 L 136.78 124.46 L 137.10 124.10 L 137.41 123.74 L 137.73 123.37 L 138.04 123.00 L 138.36 122.63 L 138.68 122.25 L 138.99 121.87 L 139.31 121.48 L 139.62 121.10 L 139.94 120.70 L 140.26 120.31 L 140.57 119.91 L 140.89 119.51 L 141.20 119.10 L 141.52 118.69 L 141.84 118.28 L 142.15 117.86 L 142.47 117.44 L 142.78 117.01 L 143.10 116.59 L 143.41 116.16 L 143.73 115.72 L 144.05 115.28 L 144.36 114.84 L 144.68 114.40 L 144.99 113.95 L 145.31 113.50 L 145.63 113.05 L 145.94 112.59 L 146.26 112.13 L 146.57 111.67 L 146.89 111.20 L 147.21 110.73 L 147.52 110.26 L 147.84 109.79 L 148.15 109.31 L 148.47 108.83 L 148.79 108.35 L 149.10 107.86 L 149.42 107.37 L 149.73 106.88 L 150.05 106.39 L 150.36 105.90 L 150.68 105.40 L 151.00 104.90 L 151.31 104.40 L 151.63 103.89 L 151.94 103.39 L 152.26 102.88 L 152.58 102.37 L 152.89 101.86 L 153.21 101.34 L 153.52 100.83 L 153.84 100.31 L 154.16 99.79 L 154.47 99.27 L 154.79 98.75 L 155.10 98.22 L 155.42 97.70 L 155.74 97.17 L 156.05 96.65 L 156.37 96.12 L 156.68 95.59 L 157.00 95.06 L 157.31 94.53 L 157.63 94.00 L 157.95 93.47 L 158.26 92.93 L 158.58 92.40 L 158.89 91.87 L 159.21 91.33 L 159.53 90.80 L 159.84 90.27 L 160.16 89.73 L 160.47 89.20 L 160.79 88.67 L 161.11 88.13 L 161.42 87.60 L 161.74 87.07 L 162.05 86.53 L 162.37 86.00 L 162.69 85.47 L 163.00 84.94 L 163.32 84.41 L 163.63 83.88 L 163.95 83.35 L 164.26 82.83 L 164.58 82.30 L 164.90 81.78 L 165.21 81.25 L 165.53 80.73 L 165.84 80.21 L 166.16 79.69 L 166.48 79.17 L 166.79 78.66 L 167.11 78.14 L 167.42 77.63 L 167.74 77.12 L 168.06 76.61 L 168.37 76.11 L 168.69 75.60 L 169.00 75.10 L 169.32 74.60 L 169.64 74.10 L 169.95 73.61 L 170.27 73.12 L 170.58 72.63 L 170.90 72.14 L 171.21 71.65 L 171.53 71.17 L 171.85 70.69 L 172.16 70.21 L 172.48 69.74 L 172.79 69.27 L 173.11 68.80 L 173.43 68.33 L 173.74 67.87 L 174.06 67.41 L 174.37 66.95 L 174.69 66.50 L 175.01 66.05 L 175.32 65.60 L 175.64 65.16 L 175.95 64.72 L 176.27 64.28 L 176.59 63.84 L 176.90 63.41 L 177.22 62.99 L 177.53 62.56 L 177.85 62.14 L 178.16 61.72 L 178.48 61.31 L 178.80 60.90 L 179.11 60.49 L 179.43 60.09 L 179.74 59.69 L 180.06 59.30 L 180.38 58.90 L 180.69 58.52 L 181.01 58.13 L 181.32 57.75 L 181.64 57.37 L 181.96 57.00 L 182.27 56.63 L 182.59 56.26 L 182.90 55.90 L 183.22 55.54 L 183.54 55.18 L 183.85 54.83 L 184.17 54.48 L 184.48 54.13 L 184.80 53.79 L 185.11 53.46 L 185.43 53.12 L 185.75 52.79 L 186.06 52.46 L 186.38 52.14 L 186.69 51.82 L 187.01 51.51 L 187.33 51.19 L 187.64 50.88 L 187.96 50.58 L 188.27 50.28 L 188.59 49.98 L 188.91 49.68 L 189.22 49.39 L 189.54 49.11 L 189.85 48.82 L 190.17 48.54 L 190.48 48.26 L 190.80 47.99 L 191.12 47.72 L 191.43 47.45 L 191.75 47.19 L 192.06 46.93 L 192.38 46.67 L 192.70 46.42 L 193.01 46.17 L 193.33 45.92 L 193.64 45.68 L 193.96 45.43 L 194.28 45.20 L 194.59 44.96 L 194.91 44.73 L 195.22 44.50 L 195.54 44.28 L 195.86 44.05 L 196.17 43.83 L 196.49 43.62 L 196.80 43.40 L 197.12 43.19 L 197.43 42.99 L 197.75 42.78 L 198.07 42.58 L 198.38 42.38 L 198.70 42.19 L 199.01 41.99 L 199.33 41.80 L 199.65 41.61 L 199.96 41.43 L 200.28 41.24 L 200.59 41.06 L 200.91 40.89 L 201.23 40.71 L 201.54 40.54 L 201.86 40.37 L 202.17 40.20 L 202.49 40.04 L 202.81 39.88 L 203.12 39.72 L 203.44 39.56 L 203.75 39.40 L 204.07 39.25 L 204.38 39.10 L 204.70 38.95 L 205.02 38.80 L 205.33 38.66 L 205.65 38.52 L 205.96 38.38 L 206.28 38.24 L 206.60 38.10 L 206.91 37.97 L 207.23 37.84 L 207.54 37.71 L 207.86 37.58 L 208.18 37.46 L 208.49 37.33 L 208.81 37.21 L 209.12 37.09 L 209.44 36.97 L 209.76 36.86 L 210.07 36.74 L 210.39 36.63 L 210.70 36.52 L 211.02 36.41 L 211.33 36.31 L 211.65 36.20 L 211.97 36.10 L 212.28 35.99 L 212.60 35.89 L 212.91 35.79 L 213.23 35.70 L 213.55 35.60 L 213.86 35.51 L 214.18 35.41 L 214.49 35.32 L 214.81 35.23 L 215.13 35.14 L 215.44 35.06 L 215.76 34.97 L 216.07 34.89 L 216.39 34.81 L 216.71 34.72 L 217.02 34.64 L 217.34 34.57 L 217.65 34.49 L 217.97 34.41 L 218.28 34.34 L 218.60 34.26 L 218.92 34.19 L 219.23 34.12 L 219.55 34.05 L 219.86 33.98 L 220.18 33.91 L 220.50 33.84 L 220.81 33.78 L 221.13 33.71 L 221.44 33.65 L 221.76 33.59 L 222.08 33.53 L 222.39 33.47 L 222.71 33.41 L 223.02 33.35 L 223.34 33.29 L 223.66 33.23 L 223.97 33.18 L 224.29 33.12 L 224.60 33.07 L 224.92 33.02 L 225.23 32.97 L 225.55 32.92 L 225.87 32.86 L 226.18 32.82 L 226.50 32.77 L 226.81 32.72 L 227.13 32.67 L 227.45 32.63 L 227.76 32.58 L 228.08 32.54 L 228.39 32.49 L 228.71 32.45 L 229.03 32.41 L 229.34 32.37 L 229.66 32.32 L 229.97 32.28 L 230.29 32.24 L 230.61 32.21 L 230.92 32.17 L 231.24 32.13 L 231.55 32.09 L 231.87 32.06 L 232.18 32.02 L 232.50 31.99 L 232.82 31.95 L 233.13 31.92 L 233.45 31.88 L 233.76 31.85 L 234.08 31.82 L 234.40 31.79 L 234.71 31.76 L 235.03 31.73 L 235.34 31.70 L 235.66 31.67 L 235.98 31.64 L 236.29 31.61 L 236.61 31.58 L 236.92 31.55 L 237.24 31.53 L 237.56 31.50 L 237.87 31.47 L 238.19 31.45 L 238.50 31.42 L 238.82 31.40 L 239.13 31.37 L 239.45 31.35 L 239.77 31.33 L 240.08 31.30 L 240.40 31.28 L 240.71 31.26 L 241.03 31.24 L 241.35 31.21 L 241.66 31.19 L 241.98 31.17 L 242.29 31.15 L 242.61 31.13 L 242.93 31.11 L 243.24 31.09 L 243.56 31.07 L 243.87 31.05 L 244.19 31.04 L 244.51 31.02 L 244.82 31.00 L 245.14 30.98 L 245.45 30.97 L 245.77 30.95 L 246.08 30.93 L 246.40 30.92 L 246.72 30.90 L 247.03 30.88 L 247.35 30.87 L 247.66 30.85 L 247.98 30.84 L 248.30 30.82 L 248.61 30.81 L 248.93 30.80 L 249.24 30.78 L 249.56 30.77 L 249.88 30.75 L 250.19 30.74 L 250.51 30.73 L 250.82 30.72 L 251.14 30.70 L 251.45 30.69 L 251.77 30.68 L 252.09 30.67 L 252.40 30.65 L 252.72 30.64 L 253.03 30.63 L 253.35 30.62 L 253.67 30.61 L 253.98 30.60 L 254.30 30.59 L 254.61 30.58 L 254.93 30.57 L 255.25 30.56 L 255.56 30.55 L 255.88 30.54 L 256.19 30.53 L 256.51 30.52 L 256.83 30.51 L 257.14 30.50 L 257.46 30.49 L 257.77 30.48 L 258.09 30.48 L 258.40 30.47 L 258.72 30.46 L 259.04 30.45 L 259.35 30.44 L 259.67 30.44 L 259.98 30.43 L 260.30 30.42 L 260.62 30.41 L 260.93 30.41 L 261.25 30.40 L 261.56 30.39 L 261.88 30.38 L 262.20 30.38 L 262.51 30.37 L 262.83 30.36 L 263.14 30.36 L 263.46 30.35 L 263.78 30.35 L 264.09 30.34 L 264.41 30.33 L 264.72 30.33 L 265.04 30.32 L 265.35 30.32 L 265.67 30.31 L 265.99 30.31 L 266.30 30.30 L 266.62 30.29 L 266.93 30.29 L 267.25 30.28 L 267.57 30.28 L 267.88 30.27 L 268.20 30.27 L 268.51 30.26 L 268.83 30.26 L 269.15 30.26 L 269.46 30.25 L 269.78 30.25 L 270.09 30.24 L 270.41 30.24 L 270.73 30.23 L 271.04 30.23 L 271.36 30.23 L 271.67 30.22 L 271.99 30.22 L 272.30 30.21 L 272.62 30.21 L 272.94 30.21 L 273.25 30.20 L 273.57 30.20 L 273.88 30.20 L 274.20 30.19 L 274.52 30.19 L 274.83 30.19 L 275.15 30.18 L 275.46 30.18 L 275.78 30.18 L 276.10 30.17 L 276.41 30.17 L 276.73 30.17 L 277.04 30.16 L 277.36 30.16 L 277.68 30.16 L 277.99 30.16 L 278.31 30.15 L 278.62 30.15 L 278.94 30.15 L 279.25 30.14 L 279.57 30.14 L 279.89 30.14 L 280.20 30.14 L 280.52 30.13 L 280.83 30.13 L 281.15 30.13 L 281.47 30.13 L 281.78 30.13 L 282.10 30.12 L 282.41 30.12 L 282.73 30.12 L 283.05 30.12 L 283.36 30.11 L 283.68 30.11 L 283.99 30.11 L 284.31 30.11 L 284.63 30.11 L 284.94 30.11 L 285.26 30.10 L 285.57 30.10 L 285.89 30.10 L 286.20 30.10 L 286.52 30.10 L 286.84 30.09 L 287.15 30.09 L 287.47 30.09 L 287.78 30.09 L 288.10 30.09 L 288.42 30.09 L 288.73 30.08 L 289.05 30.08 L 289.36 30.08 L 289.68 30.08 L 290.00 30.08 L 290.31 30.08 L 290.63 30.08 L 290.94 30.08 L 291.26 30.07 L 291.58 30.07 L 291.89 30.07 L 292.21 30.07 L 292.52 30.07 L 292.84 30.07 L 293.15 30.07 L 293.47 30.07 L 293.79 30.06 L 294.10 30.06 L 294.42 30.06 L 294.73 30.06 L 295.05 30.06 L 295.37 30.06 L 295.68 30.06 L 296.00 30.06 L 296.31 30.06 L 296.63 30.05 L 296.95 30.05 L 297.26 30.05 L 297.58 30.05 L 297.89 30.05 L 298.21 30.05 L 298.53 30.05 L 298.84 30.05 L 299.16 30.05 L 299.47 30.05 L 299.79 30.05 L 300.10 30.04 L 300.42 30.04 L 300.74 30.04 L 301.05 30.04 L 301.37 30.04 L 301.68 30.04 L 302.00 30.04" fill="none" stroke="#7E8692" stroke-width="2.3" stroke-linecap="round" stroke-linejoin="round"/>
</svg>
