<svg xmlns="http://www.w3.org/2000/svg" viewBox="0 0 320 180" width="320" height="180">
  <rect width="320" height="180" fill="#F4F5F7"/>
  <path d="M 24.00 90.00 L 24.19 89.51 L 24.39 89.02 L 24.58 88.53 L 24.78 88.05 L 24.97 87.56 L 25.17 87.07 L 25.36 86.58 L 25.56 86.09 L 25.75 85.61 L 25.94 85.12 L 26.14 84.63 L 26.33 84.15 L 26.53 83.66 L 26.72 83.18 L 26.92 82.69 L 27.11 82.21 L 27.31 81.73 L 27.50 81.24 L 27.69 80.76 L 27.89 80.28 L 28.08 79.80 L 28.28 79.32 L 28.47 78.84 L 28.67 78.36 L 28.86 77.89 L 29.06 77.41 L 29.25 76.94 L 29.44 76.46 L 29.64 75.99 L 29.83 75.52 L 30.03 75.05 L 30.22 74.58 L 30.42 74.11 L 30.61 73.64 L 30.80 73.18 L 31.00 72.71 L 31.19 72.25 L 31.39 71.79 L 31.58 71.33 L 31.78 70.87 L 31.97 70.42 L 32.17 69.96 L 32.36 69.51 L 32.55 69.06 L 32.75 68.60 L 32.94 68.16 L 33.14 67.71 L 33.33 67.27 L 33.53 66.82 L 33.72 66.38 L 33.92 65.94 L 34.11 65.50 L 34.30 65.07 L 34.50 64.64 L 34.69 64.20 L 34.89 63.78 L 35.08 63.35 L 35.28 62.92 L 35.47 62.50 L 35.67 62.08 L 35.86 61.66 L 36.05 61.25 L 36.25 60.83 L 36.44 60.42 L 36.64 60.01 L 36.83 59.61 L 37.03 59.20 L 37.22 58.80 L 37.42 58.40 L 37.61 58.00 L 37.80 57.61 L 38.00 57.22 L 38.19 56.83 L 38.39 56.44 L 38.58 56.06 L 38.78 55.68 L 38.97 55.30 L 39.17 54.93 L 39.36 54.56 L 39.55 54.19 L 39.75 53.82 L 39.94 53.46 L 40.14 53.10 L 40.33 52.74 L 40.53 52.38 L 40.72 52.03 L 40.91 51.68 L 41.11 51.34 L 41.30 51.00 L 41.50 50.66 L 41.69 50.32 L 41.89 49.99 L 42.08 49.66 L 42.28 49.33 L 42.47 49.01 L 42.66 48.69 L 42.86 48.38 L 43.05 48.06 L 43.25 47.75 L 43.44 47.45 L 43.64 47.14 L 43.83 46.84 L 44.03 46.55 L 44.22 46.26 L 44.41 45.97 L 44.61 45.68 L 44.80 45.40 L 45.00 45.12 L 45.19 44.85 L 45.39 44.58 L 45.58 44.31 L 45.78 44.05 L 45.97 43.79 L 46.16 43.53 L 46.36 43.28 L 46.55 43.03 L 46.75 42.79 L 46.94 42.55 L 47.14 42.31 L 47.33 42.08 L 47.53 41.85 L 47.72 41.62 L 47.91 41.40 L 48.11 41.18 L 48.30 40.97 L 48.50 40.76 L 48.69 40.55 L 48.89 40.35 L 49.08 40.15 L 49.28 39.96 L 49.47 39.77 L 49.66 39.58 L 49.86 39.40 L 50.05 39.23 L 50.25 39.05 L 50.44 38.88 L 50.64 38.72 L 50.83 38.56 L 51.03 38.40 L 51.22 38.25 L 51.41 38.10 L 51.61 37.95 L 51.80 37.81 L 52.00 37.68 L 52.19 37.55 L 52.39 37.42 L 52.58 37.30 L 52.77 37.18 L 52.97 37.06 L 53.16 36.95 L 53.36 36.85 L 53.55 36.74 L 53.75 36.65 L 53.94 36.55 L 54.14 36.46 L 54.33 36.38 L 54.52 36.30 L 54.72 36.22 L 54.91 36.15 L 55.11 36.08 L 55.30 36.02 L 55.50 35.96 L 55.69 35.91 L 55.89 35.86 L 56.08 35.81 L 56.27 35.77 L 56.47 35.74 L 56.66 35.70 L 56.86 35.68 L 57.05 35.65 L 57.25 35.63 L 57.44 35.62 L 57.64 35.61 L 57.83 35.60 L 58.02 35.60 L 58.22 35.60 L 58.41 35.61 L 58.61 35.62 L 58.80 35.64 L 59.00 35.66 L 59.19 35.68 L 59.39 35.71 L 59.58 35.74 L 59.77 35.78 L 59.97 35.82 L 60.16 35.87 L 60.36 35.92 L 60.55 35.98 L 60.75 36.04 L 60.94 36.10 L 61.14 36.17 L 61.33 36.24 L 61.52 36.32 L 61.72 36.40 L 61.91 36.49 L 62.11 36.58 L 62.30 36.67 L 62.50 36.77 L 62.69 36.87 L 62.88 36.98 L 63.08 37.09 L 63.27 37.21 L 63.47 37.33 L 63.66 37.45 L 63.86 37.58 L 64.05 37.71 L 64.25 37.85 L 64.44 37.99 L 64.63 38.14 L 64.83 38.29 L 65.02 38.44 L 65.22 38.60 L 65.41 38.76 L 65.61 38.92 L 65.80 39.10 L 66.00 39.27 L 66.19 39.45 L 66.38 39.63 L 66.58 39.82 L 66.77 40.01 L 66.97 40.20 L 67.16 40.40 L 67.36 40.60 L 67.55 40.81 L 67.75 41.02 L 67.94 41.24 L 68.13 41.45 L 68.33 41.68 L 68.52 41.90 L 68.72 42.13 L 68.91 42.37 L 69.11 42.61 L 69.30 42.85 L 69.50 43.09 L 69.69 43.34 L 69.88 43.60 L 70.08 43.85 L 70.27 44.11 L 70.47 44.38 L 70.66 44.65 L 70.86 44.92 L 71.05 45.19 L 71.25 45.47 L 71.44 45.75 L 71.63 46.04 L 71.83 46.33 L 72.02 46.62 L 72.22 46.92 L 72.41 47.22 L 72.61 47.52 L 72.80 47.83 L 72.99 48.14 L 73.19 48.45 L 73.38 48.77 L 73.58 49.09 L 73.77 49.42 L 73.97 49.74 L 74.16 50.07 L 74.36 50.41 L 74.55 50.74 L 74.74 51.08 L 74.94 51.43 L 75.13 51.77 L 75.33 52.12 L 75.52 52.47 L 75.72 52.83 L 75.91 53.19 L 76.11 53.55 L 76.30 53.91 L 76.49 54.28 L 76.69 54.65 L 76.88 55.02 L 77.08 55.40 L 77.27 55.78 L 77.47 56.16 L 77.66 56.54 L 77.86 56.93 L 78.05 57.32 L 78.24 57.71 L 78.44 58.10 L 78.63 58.50 L 78.83 58.90 L 79.02 59.30 L 79.22 59.71 L 79.41 60.11 L 79.61 60.52 L 79.80 60.94 L 79.99 61.35 L 80.19 61.77 L 80.38 62.19 L 80.58 62.61 L 80.77 63.03 L 80.97 63.45 L 81.16 63.88 L 81.36 64.31 L 81.55 64.74 L 81.74 65.18 L 81.94 65.61 L 82.13 66.05 L 82.33 66.49 L 82.52 66.93 L 82.72 67.38 L 82.91 67.82 L 83.11 68.27 L 83.30 68.72 L 83.49 69.17 L 83.69 69.62 L 83.88 70.07 L 84.08 70.53 L 84.27 70.99 L 84.47 71.45 L 84.66 71.91 L 84.85 72.37 L 85.05 72.83 L 85.24 73.29 L 85.44 73.76 L 85.63 74.23 L 85.83 74.70 L 86.02 75.16 L 86.22 75.64 L 86.41 76.11 L 86.60 76.58 L 86.80 77.05 L 86.99 77.53 L 87.19 78.01 L 87.38 78.48 L 87.58 78.96 L 87.77 79.44 L 87.97 79.92 L 88.16 80.40 L 88.35 80.88 L 88.55 81.36 L 88.74 81.85 L 88.94 82.33 L 89.13 82.81 L 89.33 83.30 L 89.52 83.78 L 89.72 84.27 L 89.91 84.76 L 90.10 85.24 L 90.30 85.73 L 90.49 86.22 L 90.69 86.70 L 90.88 87.19 L 91.08 87.68 L 91.27 88.17 L 91.47 88.66 L 91.66 89.14 L 91.85 89.63 L 92.05 90.12 L 92.24 90.61 L 92.44 91.10 L 92.63 91.59 L 92.83 92.08 L 93.02 92.56 L 93.22 93.05 L 93.41 93.54 L 93.60 94.03 L 93.80 94.51 L 93.99 95.00 L 94.19 95.49 L 94.38 95.97 L 94.58 96.46 L 94.77 96.94 L 94.96 97.43 L 95.16 97.91 L 95.35 98.40 L 95.55 98.88 L 95.74 99.36 L 95.94 99.84 L 96.13 100.32 L 96.33 100.80 L 96.52 101.28 L 96.71 101.76 L 96.91 102.23 L 97.10 102.71 L 97.30 103.18 L 97.49 103.66 L 97.69 104.13 L 97.88 104.60 L 98.08 105.07 L 98.27 105.54 L 98.46 106.01 L 98.66 106.47 L 98.85 106.94 L 99.05 107.40 L 99.24 107.86 L 99.44 108.33 L 99.63 108.78 L 99.83 109.24 L 100.02 109.70 L 100.21 110.15 L 100.41 110.61 L 100.60 111.06 L 100.80 111.51 L 100.99 111.96 L 101.19 112.40 L 101.38 112.85 L 101.58 113.29 L 101.77 113.73 L 101.96 114.17 L 102.16 114.60 L 102.35 115.04 L 102.55 115.47 L 102.74 115.90 L 102.94 116.33 L 103.13 116.76 L 103.33 117.18 L 103.52 117.60 L 103.71 118.02 L 103.91 118.44 L 104.10 118.86 L 104.30 119.27 L 104.49 119.68 L 104.69 120.09 L 104.88 120.50 L 105.08 120.90 L 105.27 121.30 L 105.46 121.70 L 105.66 122.09 L 105.85 122.49 L 106.05 122.88 L 106.24 123.27 L 106.44 123.65 L 106.63 124.03 L 106.82 124.41 L 107.02 124.79 L 107.21 125.16 L 107.41 125.54 L 107.60 125.90 L 107.80 126.27 L 107.99 126.63 L 108.19 126.99 L 108.38 127.35 L 108.57 127.70 L 108.77 128.05 L 108.96 128.40 L 109.16 128.75 L 109.35 129.09 L 109.55 129.43 L 109.74 129.76 L 109.94 130.09 L 110.13 130.42 L 110.32 130.75 L 110.52 131.07 L 110.71 131.39 L 110.91 131.70 L 111.10 132.02 L 111.30 132.32 L 111.49 132.63 L 111.69 132.93 L 111.88 133.23 L 112.07 133.52 L 112.27 133.82 L 112.46 134.10 L 112.66 134.39 L 112.85 134.67 L 113.05 134.95 L 113.24 135.22 L 113.44 135.49 L 113.63 135.76 L 113.82 136.02 L 114.02 136.28 L 114.21 136.53 L 114.41 136.78 L 114.60 137.03 L 114.80 137.27 L 114.99 137.51 L 115.19 137.75 L 115.38 137.98 L 115.57 138.21 L 115.77 138.43 L 115.96 138.66 L 116.16 138.87 L 116.35 139.08 L 116.55 139.29 L 116.74 139.50 L 116.93 139.70 L 117.13 139.90 L 117.32 140.09 L 117.52 140.28 L 117.71 140.46 L 117.91 140.64 L 118.10 140.82 L 118.30 140.99 L 118.49 141.16 L 118.68 141.32 L 118.88 141.48 L 119.07 141.64 L 119.27 141.79 L 119.46 141.94 L 119.66 142.08 L 119.85 142.22 L 120.05 142.35 L 120.24 142.49 L 120.43 142.61 L 120.63 142.73 L 120.82 142.85 L 121.02 142.97 L 121.21 143.07 L 121.41 143.18 L 121.60 143.28 L 121.80 143.38 L 121.99 143.47 L 122.18 143.56 L 122.38 143.64 L 122.57 143.72 L 122.77 143.79 L 122.96 143.87 L 123.16 143.93 L 123.35 143.99 L 123.55 144.05 L 123.74 144.10 L 123.93 144.15 L 124.13 144.20 L 124.32 144.24 L 124.52 144.27 L 124.71 144.30 L 124.91 144.33 L 125.10 144.35 L 125.30 144.37 L 125.49 144.38 L 125.68 144.39 L 125.88 144.40 L 126.07 144.40 L 126.27 144.40 L 126.46 144.39 L 126.66 144.38 L 126.85 144.36 L 127.05 144.34 L 127.24 144.31 L 127.43 144.28 L 127.63 144.25 L 127.82 144.21 L 128.02 144.16 L 128.21 144.12 L 128.41 144.06 L 128.60 144.01 L 128.79 143.95 L 128.99 143.88 L 129.18 143.81 L 129.38 143.74 L 129.57 143.66 L 129.77 143.58 L 129.96 143.49 L 130.16 143.40 L 130.35 143.30 L 130.54 143.21 L 130.74 143.10 L 130.93 142.99 L 131.13 142.88 L 131.32 142.76 L 131.52 142.64 L 131.71 142.52 L 131.91 142.39 L 132.10 142.25 L 132.29 142.12 L 132.49 141.97 L 132.68 141.83 L 132.88 141.68 L 133.07 141.52 L 133.27 141.36 L 133.46 141.20 L 133.66 141.03 L 133.85 140.86 L 134.04 140.69 L 134.24 140.51 L 134.43 140.32 L 134.63 140.14 L 134.82 139.94 L 135.02 139.75 L 135.21 139.55 L 135.41 139.34 L 135.60 139.14 L 135.79 138.93 L 135.99 138.71 L 136.18 138.49 L 136.38 138.27 L 136.57 138.04 L 136.77 137.81 L 136.96 137.57 L 137.16 137.33 L 137.35 137.09 L 137.54 136.84 L 137.74 136.59 L 137.93 136.34 L 138.13 136.08 L 138.32 135.82 L 138.52 135.56 L 138.71 135.29 L 138.90 135.01 L 139.10 134.74 L 139.29 134.46 L 139.49 134.18 L 139.68 133.89 L 139.88 133.60 L 140.07 133.30 L 140.27 133.01 L 140.46 132.71 L 140.65 132.40 L 140.85 132.09 L 141.04 131.78 L 141.24 131.47 L 141.43 131.15 L 141.63 130.83 L 141.82 130.50 L 142.02 130.18 L 142.21 129.84 L 142.40 129.51 L 142.60 129.17 L 142.79 128.83 L 142.99 128.49 L 143.18 128.14 L 143.38 127.79 L 143.57 127.44 L 143.77 127.08 L 143.96 126.72 L 144.15 126.36 L 144.35 126.00 L 144.54 125.63 L 144.74 125.26 L 144.93 124.88 L 145.13 124.51 L 145.32 124.13 L 145.52 123.75 L 145.71 123.36 L 145.90 122.98 L 146.10 122.59 L 146.29 122.19 L 146.49 121.80 L 146.68 121.40 L 146.88 121.00 L 147.07 120.60 L 147.27 120.19 L 147.46 119.78 L 147.65 119.37 L 147.85 118.96 L 148.04 118.55 L 148.24 118.13 L 148.43 117.71 L 148.63 117.29 L 148.82 116.86 L 149.02 116.44 L 149.21 116.01 L 149.40 115.58 L 149.60 115.15 L 149.79 114.71 L 149.99 114.28 L 150.18 113.84 L 150.38 113.40 L 150.57 112.96 L 150.76 112.51 L 150.96 112.07 L 151.15 111.62 L 151.35 111.17 L 151.54 110.72 L 151.74 110.27 L 151.93 109.81 L 152.13 109.36 L 152.32 108.90 L 152.51 108.44 L 152.71 107.98 L 152.90 107.52 L 153.10 107.05 L 153.29 106.59 L 153.49 106.12 L 153.68 105.66 L 153.88 105.19 L 154.07 104.72 L 154.26 104.25 L 154.46 103.77 L 154.65 103.30 L 154.85 102.83 L 155.04 102.35 L 155.24 101.88 L 155.43 101.40 L 155.63 100.92 L 155.82 100.44 L 156.01 99.96 L 156.21 99.48 L 156.40 99.00 L 156.60 98.52 L 156.79 98.03 L 156.99 97.55 L 157.18 97.07 L 157.38 96.58 L 157.57 96.10 L 157.76 95.61 L 157.96 95.12 L 158.15 94.64 L 158.35 94.15 L 158.54 93.66 L 158.74 93.17 L 158.93 92.69 L 159.13 92.20 L 159.32 91.71 L 159.51 91.22 L 159.71 90.73 L 159.90 90.24 L 160.10 89.76 L 160.29 89.27 L 160.49 88.78 L 160.68 88.29 L 160.87 87.80 L 161.07 87.31 L 161.26 86.83 L 161.46 86.34 L 161.65 85.85 L 161.85 85.36 L 162.04 84.88 L 162.24 84.39 L 162.43 83.90 L 162.62 83.42 L 162.82 82.93 L 163.01 82.45 L 163.21 81.97 L 163.40 81.48 L 163.60 81.00 L 163.79 80.52 L 163.99 80.04 L 164.18 79.56 L 164.37 79.08 L 164.57 78.60 L 164.76 78.12 L 164.96 77.65 L 165.15 77.17 L 165.35 76.70 L 165.54 76.23 L 165.74 75.75 L 165.93 75.28 L 166.12 74.81 L 166.32 74.34 L 166.51 73.88 L 166.71 73.41 L 166.90 72.95 L 167.10 72.48 L 167.29 72.02 L 167.49 71.56 L 167.68 71.10 L 167.87 70.64 L 168.07 70.19 L 168.26 69.73 L 168.46 69.28 L 168.65 68.83 L 168.85 68.38 L 169.04 67.93 L 169.24 67.49 L 169.43 67.04 L 169.62 66.60 L 169.82 66.16 L 170.01 65.72 L 170.21 65.29 L 170.40 64.85 L 170.60 64.42 L 170.79 63.99 L 170.98 63.56 L 171.18 63.14 L 171.37 62.71 L 171.57 62.29 L 171.76 61.87 L 171.96 61.45 L 172.15 61.04 L 172.35 60.63 L 172.54 60.22 L 172.73 59.81 L 172.93 59.40 L 173.12 59.00 L 173.32 58.60 L 173.51 58.20 L 173.71 57.81 L 173.90 57.41 L 174.10 57.02 L 174.29 56.64 L 174.48 56.25 L 174.68 55.87 L 174.87 55.49 L 175.07 55.12 L 175.26 54.74 L 175.46 54.37 L 175.65 54.00 L 175.85 53.64 L 176.04 53.28 L 176.23 52.92 L 176.43 52.56 L 176.62 52.21 L 176.82 51.86 L 177.01 51.51 L 177.21 51.17 L 177.40 50.83 L 177.60 50.49 L 177.79 50.16 L 177.98 49.82 L 178.18 49.50 L 178.37 49.17 L 178.57 48.85 L 178.76 48.53 L 178.96 48.22 L 179.15 47.91 L 179.35 47.60 L 179.54 47.29 L 179.73 46.99 L 179.93 46.70 L 180.12 46.40 L 180.32 46.11 L 180.51 45.82 L 180.71 45.54 L 180.90 45.26 L 181.10 44.99 L 181.29 44.71 L 181.48 44.44 L 181.68 44.18 L 181.87 43.92 L 182.07 43.66 L 182.26 43.41 L 182.46 43.16 L 182.65 42.91 L 182.84 42.67 L 183.04 42.43 L 183.23 42.19 L 183.43 41.96 L 183.62 41.73 L 183.82 41.51 L 184.01 41.29 L 184.21 41.07 L 184.40 40.86 L 184.59 40.66 L 184.79 40.45 L 184.98 40.25 L 185.18 40.06 L 185.37 39.86 L 185.57 39.68 L 185.76 39.49 L 185.96 39.31 L 186.15 39.14 L 186.34 38.97 L 186.54 38.80 L 186.73 38.64 L 186.93 38.48 L 187.12 38.32 L 187.32 38.17 L 187.51 38.03 L 187.71 37.88 L 187.90 37.75 L 188.09 37.61 L 188.29 37.48 L 188.48 37.36 L 188.68 37.24 L 188.87 37.12 L 189.07 37.01 L 189.26 36.90 L 189.46 36.79 L 189.65 36.70 L 189.84 36.60 L 190.04 36.51 L 190.23 36.42 L 190.43 36.34 L 190.62 36.26 L 190.82 36.19 L 191.01 36.12 L 191.21 36.05 L 191.40 35.99 L 191.59 35.94 L 191.79 35.88 L 191.98 35.84 L 192.18 35.79 L 192.37 35.75 L 192.57 35.72 L 192.76 35.69 L 192.95 35.66 L 193.15 35.64 L 193.34 35.62 L 193.54 35.61 L 193.73 35.60 L 193.93 35.60 L 194.12 35.60 L 194.32 35.61 L 194.51 35.62 L 194.70 35.63 L 194.90 35.65 L 195.09 35.67 L 195.29 35.70 L 195.48 35.73 L 195.68 35.76 L 195.87 35.80 L 196.07 35.85 L 196.26 35.90 L 196.45 35.95 L 196.65 36.01 L 196.84 36.07 L 197.04 36.13 L 197.23 36.21 L 197.43 36.28 L 197.62 36.36 L 197.82 36.44 L 198.01 36.53 L 198.20 36.62 L 198.40 36.72 L 198.59 36.82 L 198.79 36.93 L 198.98 37.03 L 199.18 37.15 L 199.37 37.27 L 199.57 37.39 L 199.76 37.51 L 199.95 37.65 L 200.15 37.78 L 200.34 37.92 L 200.54 38.06 L 200.73 38.21 L 200.93 38.36 L 201.12 38.52 L 201.32 38.68 L 201.51 38.84 L 201.70 39.01 L 201.90 39.18 L 202.09 39.36 L 202.29 39.54 L 202.48 39.72 L 202.68 39.91 L 202.87 40.10 L 203.07 40.30 L 203.26 40.50 L 203.45 40.71 L 203.65 40.92 L 203.84 41.13 L 204.04 41.34 L 204.23 41.57 L 204.43 41.79 L 204.62 42.02 L 204.81 42.25 L 205.01 42.49 L 205.20 42.73 L 205.40 42.97 L 205.59 43.22 L 205.79 43.47 L 205.98 43.72 L 206.18 43.98 L 206.37 44.24 L 206.56 44.51 L 206.76 44.78 L 206.95 45.05 L 207.15 45.33 L 207.34 45.61 L 207.54 45.90 L 207.73 46.18 L 207.93 46.48 L 208.12 46.77 L 208.31 47.07 L 208.51 47.37 L 208.70 47.68 L 208.90 47.98 L 209.09 48.30 L 209.29 48.61 L 209.48 48.93 L 209.68 49.25 L 209.87 49.58 L 210.06 49.91 L 210.26 50.24 L 210.45 50.57 L 210.65 50.91 L 210.84 51.25 L 211.04 51.60 L 211.23 51.95 L 211.43 52.30 L 211.62 52.65 L 211.81 53.01 L 212.01 53.37 L 212.20 53.73 L 212.40 54.10 L 212.59 54.46 L 212.79 54.84 L 212.98 55.21 L 213.18 55.59 L 213.37 55.97 L 213.56 56.35 L 213.76 56.73 L 213.95 57.12 L 214.15 57.51 L 214.34 57.91 L 214.54 58.30 L 214.73 58.70 L 214.92 59.10 L 215.12 59.50 L 215.31 59.91 L 215.51 60.32 L 215.70 60.73 L 215.90 61.14 L 216.09 61.56 L 216.29 61.98 L 216.48 62.40 L 216.67 62.82 L 216.87 63.24 L 217.06 63.67 L 217.26 64.10 L 217.45 64.53 L 217.65 64.96 L 217.84 65.40 L 218.04 65.83 L 218.23 66.27 L 218.42 66.71 L 218.62 67.15 L 218.81 67.60 L 219.01 68.04 L 219.20 68.49 L 219.40 68.94 L 219.59 69.39 L 219.79 69.85 L 219.98 70.30 L 220.17 70.76 L 220.37 71.22 L 220.56 71.67 L 220.76 72.14 L 220.95 72.60 L 221.15 73.06 L 221.34 73.53 L 221.54 73.99 L 221.73 74.46 L 221.92 74.93 L 222.12 75.40 L 222.31 75.87 L 222.51 76.34 L 222.70 76.82 L 222.90 77.29 L 223.09 77.77 L 223.29 78.24 L 223.48 78.72 L 223.67 79.20 L 223.87 79.68 L 224.06 80.16 L 224.26 80.64 L 224.45 81.12 L 224.65 81.60 L 224.84 82.09 L 225.04 82.57 L 225.23 83.06 L 225.42 83.54 L 225.62 84.03 L 225.81 84.51 L 226.01 85.00 L 226.20 85.49 L 226.40 85.97 L 226.59 86.46 L 226.78 86.95 L 226.98 87.44 L 227.17 87.92 L 227.37 88.41 L 227.56 88.90 L 227.76 89.39 L 227.95 89.88 L 228.15 90.37 L 228.34 90.86 L 228.53 91.34 L 228.73 91.83 L 228.92 92.32 L 229.12 92.81 L 229.31 93.30 L 229.51 93.78 L 229.70 94.27 L 229.90 94.76 L 230.09 95.24 L 230.28 95.73 L 230.48 96.22 L 230.67 96.70 L 230.87 97.19 L 231.06 97.67 L 231.26 98.15 L 231.45 98.64 L 231.65 99.12 L 231.84 99.60 L 232.03 100.08 L 232.23 100.56 L 232.42 101.04 L 232.62 101.52 L 232.81 101.99 L 233.01 102.47 L 233.20 102.95 L 233.40 103.42 L 233.59 103.89 L 233.78 104.36 L 233.98 104.84 L 234.17 105.30 L 234.37 105.77 L 234.56 106.24 L 234.76 106.71 L 234.95 107.17 L 235.15 107.63 L 235.34 108.09 L 235.53 108.55 L 235.73 109.01 L 235.92 109.47 L 236.12 109.93 L 236.31 110.38 L 236.51 110.83 L 236.70 111.28 L 236.89 111.73 L 237.09 112.18 L 237.28 112.62 L 237.48 113.07 L 237.67 113.51 L 237.87 113.95 L 238.06 114.39 L 238.26 114.82 L 238.45 115.26 L 238.64 115.69 L 238.84 116.12 L 239.03 116.55 L 239.23 116.97 L 239.42 117.39 L 239.62 117.81 L 239.81 118.23 L 240.01 118.65 L 240.20 119.06 L 240.39 119.48 L 240.59 119.89 L 240.78 120.29 L 240.98 120.70 L 241.17 121.10 L 241.37 121.50 L 241.56 121.90 L 241.76 122.29 L 241.95 122.68 L 242.14 123.07 L 242.34 123.46 L 242.53 123.84 L 242.73 124.22 L 242.92 124.60 L 243.12 124.98 L 243.31 125.35 L 243.51 125.72 L 243.70 126.09 L 243.89 126.45 L 244.09 126.81 L 244.28 127.17 L 244.48 127.53 L 244.67 127.88 L 244.87 128.23 L 245.06 128.57 L 245.26 128.92 L 245.45 129.26 L 245.64 129.59 L 245.84 129.93 L 246.03 130.26 L 246.23 130.58 L 246.42 130.91 L 246.62 131.23 L 246.81 131.55 L 247.01 131.86 L 247.20 132.17 L 247.39 132.48 L 247.59 132.78 L 247.78 133.08 L 247.98 133.38 L 248.17 133.67 L 248.37 133.96 L 248.56 134.25 L 248.75 134.53 L 248.95 134.81 L 249.14 135.08 L 249.34 135.35 L 249.53 135.62 L 249.73 135.89 L 249.92 136.15 L 250.12 136.40 L 250.31 136.66 L 250.50 136.91 L 250.70 137.15 L 250.89 137.39 L 251.09 137.63 L 251.28 137.87 L 251.48 138.10 L 251.67 138.32 L 251.87 138.55 L 252.06 138.76 L 252.25 138.98 L 252.45 139.19 L 252.64 139.40 L 252.84 139.60 L 253.03 139.80 L 253.23 139.99 L 253.42 140.18 L 253.62 140.37 L 253.81 140.55 L 254.00 140.73 L 254.20 140.90 L 254.39 141.08 L 254.59 141.24 L 254.78 141.40 L 254.98 141.56 L 255.17 141.71 L 255.37 141.86 L 255.56 142.01 L 255.75 142.15 L 255.95 142.29 L 256.14 142.42 L 256.34 142.55 L 256.53 142.67 L 256.73 142.79 L 256.92 142.91 L 257.12 143.02 L 257.31 143.13 L 257.50 143.23 L 257.70 143.33 L 257.89 143.42 L 258.09 143.51 L 258.28 143.60 L 258.48 143.68 L 258.67 143.76 L 258.86 143.83 L 259.06 143.90 L 259.25 143.96 L 259.45 144.02 L 259.64 144.08 L 259.84 144.13 L 260.03 144.18 L 260.23 144.22 L 260.42 144.26 L 260.61 144.29 L 260.81 144.32 L 261.00 144.34 L 261.20 144.36 L 261.39 144.38 L 261.59 144.39 L 261.78 144.40 L 261.98 144.40 L 262.17 144.40 L 262.36 144.39 L 262.56 144.38 L 262.75 144.37 L 262.95 144.35 L 263.14 144.32 L 263.34 144.30 L 263.53 144.26 L 263.73 144.23 L 263.92 144.19 L 264.11 144.14 L 264.31 144.09 L 264.50 144.04 L 264.70 143.98 L 264.89 143.92 L 265.09 143.85 L 265.28 143.78 L 265.48 143.70 L 265.67 143.62 L 265.86 143.54 L 266.06 143.45 L 266.25 143.35 L 266.45 143.26 L 266.64 143.15 L 266.84 143.05 L 267.03 142.94 L 267.23 142.82 L 267.42 142.70 L 267.61 142.58 L 267.81 142.45 L 268.00 142.32 L 268.20 142.19 L 268.39 142.05 L 268.59 141.90 L 268.78 141.75 L 268.97 141.60 L 269.17 141.44 L 269.36 141.28 L 269.56 141.12 L 269.75 140.95 L 269.95 140.77 L 270.14 140.60 L 270.34 140.42 L 270.53 140.23 L 270.72 140.04 L 270.92 139.85 L 271.11 139.65 L 271.31 139.45 L 271.50 139.24 L 271.70 139.03 L 271.89 138.82 L 272.09 138.60 L 272.28 138.38 L 272.47 138.15 L 272.67 137.92 L 272.86 137.69 L 273.06 137.45 L 273.25 137.21 L 273.45 136.97 L 273.64 136.72 L 273.84 136.47 L 274.03 136.21 L 274.22 135.95 L 274.42 135.69 L 274.61 135.42 L 274.81 135.15 L 275.00 134.88 L 275.20 134.60 L 275.39 134.32 L 275.59 134.03 L 275.78 133.74 L 275.97 133.45 L 276.17 133.16 L 276.36 132.86 L 276.56 132.55 L 276.75 132.25 L 276.95 131.94 L 277.14 131.62 L 277.34 131.31 L 277.53 130.99 L 277.72 130.67 L 277.92 130.34 L 278.11 130.01 L 278.31 129.68 L 278.50 129.34 L 278.70 129.00 L 278.89 128.66 L 279.09 128.32 L 279.28 127.97 L 279.47 127.62 L 279.67 127.26 L 279.86 126.90 L 280.06 126.54 L 280.25 126.18 L 280.45 125.81 L 280.64 125.44 L 280.83 125.07 L 281.03 124.70 L 281.22 124.32 L 281.42 123.94 L 281.61 123.56 L 281.81 123.17 L 282.00 122.78 L 282.20 122.39 L 282.39 122.00 L 282.58 121.60 L 282.78 121.20 L 282.97 120.80 L 283.17 120.39 L 283.36 119.99 L 283.56 119.58 L 283.75 119.17 L 283.95 118.75 L 284.14 118.34 L 284.33 117.92 L 284.53 117.50 L 284.72 117.08 L 284.92 116.65 L 285.11 116.22 L 285.31 115.80 L 285.50 115.36 L 285.70 114.93 L 285.89 114.50 L 286.08 114.06 L 286.28 113.62 L 286.47 113.18 L 286.67 112.73 L 286.86 112.29 L 287.06 111.84 L 287.25 111.40 L 287.45 110.94 L 287.64 110.49 L 287.83 110.04 L 288.03 109.58 L 288.22 109.13 L 288.42 108.67 L 288.61 108.21 L 288.81 107.75 L 289.00 107.29 L 289.20 106.82 L 289.39 106.36 L 289.58 105.89 L 289.78 105.42 L 289.97 104.95 L 290.17 104.48 L 290.36 104.01 L 290.56 103.54 L 290.75 103.06 L 290.94 102.59 L 291.14 102.11 L 291.33 101.64 L 291.53 101.16 L 291.72 100.68 L 291.92 100.20 L 292.11 99.72 L 292.31 99.24 L 292.50 98.76 L 292.69 98.27 L 292.89 97.79 L 293.08 97.31 L 293.28 96.82 L 293.47 96.34 L 293.67 95.85 L 293.86 95.37 L 294.06 94.88 L 294.25 94.39 L 294.44 93.91 L 294.64 93.42 L 294.83 92.93 L 295.03 92.44 L 295.22 91.95 L 295.42 91.47 L 295.61 90.98 L 295.81 90.49 L 296.00 90.00" fill="none" stroke="#7E8692" stroke-width="2.3" stroke-linecap="round" stroke-linejoin="round"/>
</svg>
