<svg xmlns="http://www.w3.org/2000/svg" viewBox="0 0 320 180" width="320" height="180">
  <rect width="320" height="180" fill="#F4F5F7"/>
  <path d="M 18.00 156.67 L 18.32 152.50 L 18.63 150.77 L 18.95 149.44 L 19.26 148.32 L 19.58 147.34 L 19.90 146.45 L 20.21 145.63 L 20.53 144.87 L 20.84 144.15 L 21.16 143.47 L 21.47 142.83 L 21.79 142.22 L 22.11 141.63 L 22.42 141.06 L 22.74 140.51 L 23.05 139.98 L 23.37 139.47 L 23.69 138.97 L 24.00 138.48 L 24.32 138.01 L 24.63 137.55 L 24.95 137.10 L 25.27 136.66 L 25.58 136.23 L 25.90 135.81 L 26.21 135.40 L 26.53 134.99 L 26.85 134.59 L 27.16 134.20 L 27.48 133.82 L 27.79 133.44 L 28.11 133.07 L 28.42 132.70 L 28.74 132.34 L 29.06 131.99 L 29.37 131.64 L 29.69 131.29 L 30.00 130.95 L 30.32 130.62 L 30.64 130.28 L 30.95 129.96 L 31.27 129.63 L 31.58 129.31 L 31.90 129.00 L 32.22 128.68 L 32.53 128.37 L 32.85 128.07 L 33.16 127.77 L 33.48 127.47 L 33.80 127.17 L 34.11 126.88 L 34.43 126.58 L 34.74 126.30 L 35.06 126.01 L 35.37 125.73 L 35.69 125.45 L 36.01 125.17 L 36.32 124.90 L 36.64 124.62 L 36.95 124.35 L 37.27 124.09 L 37.59 123.82 L 37.90 123.56 L 38.22 123.29 L 38.53 123.03 L 38.85 122.78 L 39.17 122.52 L 39.48 122.27 L 39.80 122.01 L 40.11 121.76 L 40.43 121.52 L 40.75 121.27 L 41.06 121.02 L 41.38 120.78 L 41.69 120.54 L 42.01 120.30 L 42.32 120.06 L 42.64 119.82 L 42.96 119.59 L 43.27 119.35 L 43.59 119.12 L 43.90 118.89 L 44.22 118.66 L 44.54 118.43 L 44.85 118.21 L 45.17 117.98 L 45.48 117.76 L 45.80 117.53 L 46.12 117.31 L 46.43 117.09 L 46.75 116.87 L 47.06 116.65 L 47.38 116.44 L 47.70 116.22 L 48.01 116.01 L 48.33 115.79 L 48.64 115.58 L 48.96 115.37 L 49.27 115.16 L 49.59 114.95 L 49.91 114.74 L 50.22 114.54 L 50.54 114.33 L 50.85 114.12 L 51.17 113.92 L 51.49 113.72 L 51.80 113.52 L 52.12 113.31 L 52.43 113.11 L 52.75 112.91 L 53.07 112.72 L 53.38 112.52 L 53.70 112.32 L 54.01 112.13 L 54.33 111.93 L 54.65 111.74 L 54.96 111.54 L 55.28 111.35 L 55.59 111.16 L 55.91 110.97 L 56.22 110.78 L 56.54 110.59 L 56.86 110.40 L 57.17 110.21 L 57.49 110.03 L 57.80 109.84 L 58.12 109.66 L 58.44 109.47 L 58.75 109.29 L 59.07 109.10 L 59.38 108.92 L 59.70 108.74 L 60.02 108.56 L 60.33 108.38 L 60.65 108.20 L 60.96 108.02 L 61.28 107.84 L 61.60 107.66 L 61.91 107.48 L 62.23 107.31 L 62.54 107.13 L 62.86 106.96 L 63.17 106.78 L 63.49 106.61 L 63.81 106.43 L 64.12 106.26 L 64.44 106.09 L 64.75 105.92 L 65.07 105.75 L 65.39 105.58 L 65.70 105.41 L 66.02 105.24 L 66.33 105.07 L 66.65 104.90 L 66.97 104.73 L 67.28 104.56 L 67.60 104.40 L 67.91 104.23 L 68.23 104.07 L 68.55 103.90 L 68.86 103.74 L 69.18 103.57 L 69.49 103.41 L 69.81 103.24 L 70.12 103.08 L 70.44 102.92 L 70.76 102.76 L 71.07 102.60 L 71.39 102.44 L 71.70 102.28 L 72.02 102.12 L 72.34 101.96 L 72.65 101.80 L 72.97 101.64 L 73.28 101.48 L 73.60 101.32 L 73.92 101.17 L 74.23 101.01 L 74.55 100.85 L 74.86 100.70 L 75.18 100.54 L 75.49 100.39 L 75.81 100.23 L 76.13 100.08 L 76.44 99.93 L 76.76 99.77 L 77.07 99.62 L 77.39 99.47 L 77.71 99.32 L 78.02 99.17 L 78.34 99.01 L 78.65 98.86 L 78.97 98.71 L 79.29 98.56 L 79.60 98.41 L 79.92 98.26 L 80.23 98.12 L 80.55 97.97 L 80.87 97.82 L 81.18 97.67 L 81.50 97.52 L 81.81 97.38 L 82.13 97.23 L 82.44 97.08 L 82.76 96.94 L 83.08 96.79 L 83.39 96.65 L 83.71 96.50 L 84.02 96.36 L 84.34 96.21 L 84.66 96.07 L 84.97 95.93 L 85.29 95.78 L 85.60 95.64 L 85.92 95.50 L 86.24 95.36 L 86.55 95.22 L 86.87 95.07 L 87.18 94.93 L 87.50 94.79 L 87.82 94.65 L 88.13 94.51 L 88.45 94.37 L 88.76 94.23 L 89.08 94.09 L 89.39 93.95 L 89.71 93.82 L 90.03 93.68 L 90.34 93.54 L 90.66 93.40 L 90.97 93.26 L 91.29 93.13 L 91.61 92.99 L 91.92 92.85 L 92.24 92.72 L 92.55 92.58 L 92.87 92.45 L 93.19 92.31 L 93.50 92.18 L 93.82 92.04 L 94.13 91.91 L 94.45 91.77 L 94.77 91.64 L 95.08 91.50 L 95.40 91.37 L 95.71 91.24 L 96.03 91.11 L 96.34 90.97 L 96.66 90.84 L 96.98 90.71 L 97.29 90.58 L 97.61 90.44 L 97.92 90.31 L 98.24 90.18 L 98.56 90.05 L 98.87 89.92 L 99.19 89.79 L 99.50 89.66 L 99.82 89.53 L 100.14 89.40 L 100.45 89.27 L 100.77 89.14 L 101.08 89.02 L 101.40 88.89 L 101.72 88.76 L 102.03 88.63 L 102.35 88.50 L 102.66 88.38 L 102.98 88.25 L 103.29 88.12 L 103.61 87.99 L 103.93 87.87 L 104.24 87.74 L 104.56 87.61 L 104.87 87.49 L 105.19 87.36 L 105.51 87.24 L 105.82 87.11 L 106.14 86.99 L 106.45 86.86 L 106.77 86.74 L 107.09 86.61 L 107.40 86.49 L 107.72 86.37 L 108.03 86.24 L 108.35 86.12 L 108.67 86.00 L 108.98 85.87 L 109.30 85.75 L 109.61 85.63 L 109.93 85.50 L 110.24 85.38 L 110.56 85.26 L 110.88 85.14 L 111.19 85.02 L 111.51 84.90 L 111.82 84.78 L 112.14 84.65 L 112.46 84.53 L 112.77 84.41 L 113.09 84.29 L 113.40 84.17 L 113.72 84.05 L 114.04 83.93 L 114.35 83.81 L 114.67 83.69 L 114.98 83.57 L 115.30 83.46 L 115.62 83.34 L 115.93 83.22 L 116.25 83.10 L 116.56 82.98 L 116.88 82.86 L 117.19 82.75 L 117.51 82.63 L 117.83 82.51 L 118.14 82.39 L 118.46 82.28 L 118.77 82.16 L 119.09 82.04 L 119.41 81.93 L 119.72 81.81 L 120.04 81.69 L 120.35 81.58 L 120.67 81.46 L 120.99 81.35 L 121.30 81.23 L 121.62 81.12 L 121.93 81.00 L 122.25 80.89 L 122.57 80.77 L 122.88 80.66 L 123.20 80.54 L 123.51 80.43 L 123.83 80.31 L 124.14 80.20 L 124.46 80.09 L 124.78 79.97 L 125.09 79.86 L 125.41 79.75 L 125.72 79.63 L 126.04 79.52 L 126.36 79.41 L 126.67 79.30 L 126.99 79.18 L 127.30 79.07 L 127.62 78.96 L 127.94 78.85 L 128.25 78.74 L 128.57 78.62 L 128.88 78.51 L 129.20 78.40 L 129.52 78.29 L 129.83 78.18 L 130.15 78.07 L 130.46 77.96 L 130.78 77.85 L 131.09 77.74 L 131.41 77.63 L 131.73 77.52 L 132.04 77.41 L 132.36 77.30 L 132.67 77.19 L 132.99 77.08 L 133.31 76.97 L 133.62 76.86 L 133.94 76.75 L 134.25 76.64 L 134.57 76.53 L 134.89 76.42 L 135.20 76.32 L 135.52 76.21 L 135.83 76.10 L 136.15 75.99 L 136.46 75.88 L 136.78 75.78 L 137.10 75.67 L 137.41 75.56 L 137.73 75.45 L 138.04 75.35 L 138.36 75.24 L 138.68 75.13 L 138.99 75.03 L 139.31 74.92 L 139.62 74.81 L 139.94 74.71 L 140.26 74.60 L 140.57 74.50 L 140.89 74.39 L 141.20 74.28 L 141.52 74.18 L 141.84 74.07 L 142.15 73.97 L 142.47 73.86 L 142.78 73.76 L 143.10 73.65 L 143.41 73.55 L 143.73 73.44 L 144.05 73.34 L 144.36 73.24 L 144.68 73.13 L 144.99 73.03 L 145.31 72.92 L 145.63 72.82 L 145.94 72.72 L 146.26 72.61 L 146.57 72.51 L 146.89 72.40 L 147.21 72.30 L 147.52 72.20 L 147.84 72.10 L 148.15 71.99 L 148.47 71.89 L 148.79 71.79 L 149.10 71.69 L 149.42 71.58 L 149.73 71.48 L 150.05 71.38 L 150.36 71.28 L 150.68 71.17 L 151.00 71.07 L 151.31 70.97 L 151.63 70.87 L 151.94 70.77 L 152.26 70.67 L 152.58 70.57 L 152.89 70.47 L 153.21 70.36 L 153.52 70.26 L 153.84 70.16 L 154.16 70.06 L 154.47 69.96 L 154.79 69.86 L 155.10 69.76 L 155.42 69.66 L 155.74 69.56 L 156.05 69.46 L 156.37 69.36 L 156.68 69.26 L 157.00 69.16 L 157.31 69.06 L 157.63 68.96 L 157.95 68.87 L 158.26 68.77 L 158.58 68.67 L 158.89 68.57 L 159.21 68.47 L 159.53 68.37 L 159.84 68.27 L 160.16 68.17 L 160.47 68.08 L 160.79 67.98 L 161.11 67.88 L 161.42 67.78 L 161.74 67.68 L 162.05 67.59 L 162.37 67.49 L 162.69 67.39 L 163.00 67.29 L 163.32 67.20 L 163.63 67.10 L 163.95 67.00 L 164.26 66.91 L 164.58 66.81 L 164.90 66.71 L 165.21 66.61 L 165.53 66.52 L 165.84 66.42 L 166.16 66.33 L 166.48 66.23 L 166.79 66.13 L 167.11 66.04 L 167.42 65.94 L 167.74 65.85 L 168.06 65.75 L 168.37 65.65 L 168.69 65.56 L 169.00 65.46 L 169.32 65.37 L 169.64 65.27 L 169.95 65.18 L 170.27 65.08 L 170.58 64.99 L 170.90 64.89 L 171.21 64.80 L 171.53 64.70 L 171.85 64.61 L 172.16 64.51 L 172.48 64.42 L 172.79 64.32 L 173.11 64.23 L 173.43 64.14 L 173.74 64.04 L 174.06 63.95 L 174.37 63.85 L 174.69 63.76 L 175.01 63.67 L 175.32 63.57 L 175.64 63.48 L 175.95 63.39 L 176.27 63.29 L 176.59 63.20 L 176.90 63.11 L 177.22 63.02 L 177.53 62.92 L 177.85 62.83 L 178.16 62.74 L 178.48 62.64 L 178.80 62.55 L 179.11 62.46 L 179.43 62.37 L 179.74 62.27 L 180.06 62.18 L 180.38 62.09 L 180.69 62.00 L 181.01 61.91 L 181.32 61.81 L 181.64 61.72 L 181.96 61.63 L 182.27 61.54 L 182.59 61.45 L 182.90 61.36 L 183.22 61.27 L 183.54 61.17 L 183.85 61.08 L 184.17 60.99 L 184.48 60.90 L 184.80 60.81 L 185.11 60.72 L 185.43 60.63 L 185.75 60.54 L 186.06 60.45 L 186.38 60.36 L 186.69 60.27 L 187.01 60.18 L 187.33 60.09 L 187.64 60.00 L 187.96 59.91 L 188.27 59.82 L 188.59 59.73 L 188.91 59.64 L 189.22 59.55 L 189.54 59.46 L 189.85 59.37 L 190.17 59.28 L 190.48 59.19 L 190.80 59.10 L 191.12 59.01 L 191.43 58.92 L 191.75 58.83 L 192.06 58.75 L 192.38 58.66 L 192.70 58.57 L 193.01 58.48 L 193.33 58.39 L 193.64 58.30 L 193.96 58.21 L 194.28 58.13 L 194.59 58.04 L 194.91 57.95 L 195.22 57.86 L 195.54 57.77 L 195.86 57.69 L 196.17 57.60 L 196.49 57.51 L 196.80 57.42 L 197.12 57.33 L 197.43 57.25 L 197.75 57.16 L 198.07 57.07 L 198.38 56.98 L 198.70 56.90 L 199.01 56.81 L 199.33 56.72 L 199.65 56.64 L 199.96 56.55 L 200.28 56.46 L 200.59 56.38 L 200.91 56.29 L 201.23 56.20 L 201.54 56.12 L 201.86 56.03 L 202.17 55.94 L 202.49 55.86 L 202.81 55.77 L 203.12 55.68 L 203.44 55.60 L 203.75 55.51 L 204.07 55.43 L 204.38 55.34 L 204.70 55.25 L 205.02 55.17 L 205.33 55.08 L 205.65 55.00 L 205.96 54.91 L 206.28 54.83 L 206.60 54.74 L 206.91 54.65 L 207.23 54.57 L 207.54 54.48 L 207.86 54.40 L 208.18 54.31 L 208.49 54.23 L 208.81 54.14 L 209.12 54.06 L 209.44 53.97 L 209.76 53.89 L 210.07 53.81 L 210.39 53.72 L 210.70 53.64 L 211.02 53.55 L 211.33 53.47 L 211.65 53.38 L 211.97 53.30 L 212.28 53.21 L 212.60 53.13 L 212.91 53.05 L 213.23 52.96 L 213.55 52.88 L 213.86 52.80 L 214.18 52.71 L 214.49 52.63 L 214.81 52.54 L 215.13 52.46 L 215.44 52.38 L 215.76 52.29 L 216.07 52.21 L 216.39 52.13 L 216.71 52.04 L 217.02 51.96 L 217.34 51.88 L 217.65 51.79 L 217.97 51.71 L 218.28 51.63 L 218.60 51.55 L 218.92 51.46 L 219.23 51.38 L 219.55 51.30 L 219.86 51.22 L 220.18 51.13 L 220.50 51.05 L 220.81 50.97 L 221.13 50.89 L 221.44 50.80 L 221.76 50.72 L 222.08 50.64 L 222.39 50.56 L 222.71 50.48 L 223.02 50.39 L 223.34 50.31 L 223.66 50.23 L 223.97 50.15 L 224.29 50.07 L 224.60 49.99 L 224.92 49.90 L 225.23 49.82 L 225.55 49.74 L 225.87 49.66 L 226.18 49.58 L 226.50 49.50 L 226.81 49.42 L 227.13 49.33 L 227.45 49.25 L 227.76 49.17 L 228.08 49.09 L 228.39 49.01 L 228.71 48.93 L 229.03 48.85 L 229.34 48.77 L 229.66 48.69 L 229.97 48.61 L 230.29 48.53 L 230.61 48.45 L 230.92 48.37 L 231.24 48.29 L 231.55 48.21 L 231.87 48.13 L 232.18 48.05 L 232.50 47.97 L 232.82 47.89 L 233.13 47.81 L 233.45 47.73 L 233.76 47.65 L 234.08 47.57 L 234.40 47.49 L 234.71 47.41 L 235.03 47.33 L 235.34 47.25 L 235.66 47.17 L 235.98 47.09 L 236.29 47.01 L 236.61 46.93 L 236.92 46.85 L 237.24 46.77 L 237.56 46.69 L 237.87 46.61 L 238.19 46.53 L 238.50 46.45 L 238.82 46.38 L 239.13 46.30 L 239.45 46.22 L 239.77 46.14 L 240.08 46.06 L 240.40 45.98 L 240.71 45.90 L 241.03 45.83 L 241.35 45.75 L 241.66 45.67 L 241.98 45.59 L 242.29 45.51 L 242.61 45.43 L 242.93 45.36 L 243.24 45.28 L 243.56 45.20 L 243.87 45.12 L 244.19 45.04 L 244.51 44.96 L 244.82 44.89 L 245.14 44.81 L 245.45 44.73 L 245.77 44.65 L 246.08 44.58 L 246.40 44.50 L 246.72 44.42 L 247.03 44.34 L 247.35 44.27 L 247.66 44.19 L 247.98 44.11 L 248.30 44.03 L 248.61 43.96 L 248.93 43.88 L 249.24 43.80 L 249.56 43.73 L 249.88 43.65 L 250.19 43.57 L 250.51 43.49 L 250.82 43.42 L 251.14 43.34 L 251.45 43.26 L 251.77 43.19 L 252.09 43.11 L 252.40 43.03 L 252.72 42.96 L 253.03 42.88 L 253.35 42.80 L 253.67 42.73 L 253.98 42.65 L 254.30 42.58 L 254.61 42.50 L 254.93 42.42 L 255.25 42.35 L 255.56 42.27 L 255.88 42.20 L 256.19 42.12 L 256.51 42.04 L 256.83 41.97 L 257.14 41.89 L 257.46 41.82 L 257.77 41.74 L 258.09 41.66 L 258.40 41.59 L 258.72 41.51 L 259.04 41.44 L 259.35 41.36 L 259.67 41.29 L 259.98 41.21 L 260.30 41.14 L 260.62 41.06 L 260.93 40.99 L 261.25 40.91 L 261.56 40.83 L 261.88 40.76 L 262.20 40.68 L 262.51 40.61 L 262.83 40.53 L 263.14 40.46 L 263.46 40.39 L 263.78 40.31 L 264.09 40.24 L 264.41 40.16 L 264.72 40.09 L 265.04 40.01 L 265.35 39.94 L 265.67 39.86 L 265.99 39.79 L 266.30 39.71 L 266.62 39.64 L 266.93 39.56 L 267.25 39.49 L 267.57 39.42 L 267.88 39.34 L 268.20 39.27 L 268.51 39.19 L 268.83 39.12 L 269.15 39.05 L 269.46 38.97 L 269.78 38.90 L 270.09 38.82 L 270.41 38.75 L 270.73 38.68 L 271.04 38.60 L 271.36 38.53 L 271.67 38.46 L 271.99 38.38 L 272.30 38.31 L 272.62 38.24 L 272.94 38.16 L 273.25 38.09 L 273.57 38.01 L 273.88 37.94 L 274.20 37.87 L 274.52 37.80 L 274.83 37.72 L 275.15 37.65 L 275.46 37.58 L 275.78 37.50 L 276.10 37.43 L 276.41 37.36 L 276.73 37.28 L 277.04 37.21 L 277.36 37.14 L 277.68 37.07 L 277.99 36.99 L 278.31 36.92 L 278.62 36.85 L 278.94 36.77 L 279.25 36.70 L 279.57 36.63 L 279.89 36.56 L 280.20 36.48 L 280.52 36.41 L 280.83 36.34 L 281.15 36.27 L 281.47 36.20 L 281.78 36.12 L 282.10 36.05 L 282.41 35.98 L 282.73 35.91 L 283.05 35.83 L 283.36 35.76 L 283.68 35.69 L 283.99 35.62 L 284.31 35.55 L 284.63 35.48 L 284.94 35.40 L 285.26 35.33 L 285.57 35.26 L 285.89 35.19 L 286.20 35.12 L 286.52 35.05 L 286.84 34.97 L 287.15 34.90 L 287.47 34.83 L 287.78 34.76 L 288.10 34.69 L 288.42 34.62 L 288.73 34.55 L 289.05 34.47 L 289.36 34.40 L 289.68 34.33 L 290.00 34.26 L 290.31 34.19 L 290.63 34.12 L 290.94 34.05 L 291.26 33.98 L 291.58 33.91 L 291.89 33.84 L 292.21 33.76 L 292.52 33.69 L 292.84 33.62 L 293.15 33.55 L 293.47 33.48 L 293.79 33.41 L 294.10 33.34 L 294.42 33.27 L 294.73 33.20 L 295.05 33.13 L 295.37 33.06 L 295.68 32.99 L 296.00 32.92 L 296.31 32.85 L 296.63 32.78 L 296.95 32.71 L 297.26 32.64 L 297.58 32.57 L 297.89 32.50 L 298.21 32.43 L 298.53 32.36 L 298.84 32.29 L 299.16 32.22 L 299.47 32.15 L 299.79 32.08 L 300.10 32.01 L 300.42 31.94 L 300.74 31.87 L 301.05 31.80 L 301.37 31.73 L 301.68 31.66 L 302.00 31.59" fill="none" stroke="#7E8692" stroke-width="2.3" stroke-linecap="round" stroke-linejoin="round"/>
</svg>
