<svg xmlns="http://www.w3.org/2000/svg" viewBox="0 0 320 180" width="320" height="180">
  <rect width="320" height="180" fill="#F4F5F7"/>
  <path d="M 18.00 114.00 L 18.32 114.00 L 18.63 114.00 L 18.95 114.01 L 19.26 114.02 L 19.58 114.03 L 19.90 114.04 L 20.21 114.05 L 20.53 114.07 L 20.84 114.09 L 21.16 114.11 L 21.47 114.13 L 21.79 114.15 L 22.11 114.18 L 22.42 114.21 L 22.74 114.24 L 23.05 114.27 L 23.37 114.31 L 23.69 114.35 L 24.00 114.39 L 24.32 114.43 L 24.63 114.47 L 24.95 114.52 L 25.27 114.57 L 25.58 114.62 L 25.90 114.67 L 26.21 114.73 L 26.53 114.79 L 26.85 114.85 L 27.16 114.91 L 27.48 114.97 L 27.79 115.04 L 28.11 115.11 L 28.42 115.18 L 28.74 115.25 L 29.06 115.33 L 29.37 115.41 L 29.69 115.49 L 30.00 115.57 L 30.32 115.65 L 30.64 115.74 L 30.95 115.83 L 31.27 115.92 L 31.58 116.02 L 31.90 116.12 L 32.22 116.22 L 32.53 116.32 L 32.85 116.42 L 33.16 116.53 L 33.48 116.64 L 33.80 116.75 L 34.11 116.87 L 34.43 116.98 L 34.74 117.10 L 35.06 117.23 L 35.37 117.35 L 35.69 117.48 L 36.01 117.61 L 36.32 117.74 L 36.64 117.88 L 36.95 118.02 L 37.27 118.16 L 37.59 118.30 L 37.90 118.45 L 38.22 118.60 L 38.53 118.75 L 38.85 118.91 L 39.17 119.07 L 39.48 119.23 L 39.80 119.39 L 40.11 119.56 L 40.43 119.73 L 40.75 119.91 L 41.06 120.08 L 41.38 120.26 L 41.69 120.45 L 42.01 120.63 L 42.32 120.82 L 42.64 121.02 L 42.96 121.21 L 43.27 121.41 L 43.59 121.62 L 43.90 121.83 L 44.22 122.04 L 44.54 122.25 L 44.85 122.47 L 45.17 122.69 L 45.48 122.92 L 45.80 123.15 L 46.12 123.39 L 46.43 123.62 L 46.75 123.87 L 47.06 124.11 L 47.38 124.37 L 47.70 124.62 L 48.01 124.88 L 48.33 125.15 L 48.64 125.42 L 48.96 125.69 L 49.27 125.97 L 49.59 126.25 L 49.91 126.54 L 50.22 126.84 L 50.54 127.14 L 50.85 127.45 L 51.17 127.76 L 51.49 128.08 L 51.80 128.40 L 52.12 128.73 L 52.43 129.07 L 52.75 129.41 L 53.07 129.76 L 53.38 130.12 L 53.70 130.48 L 54.01 130.85 L 54.33 131.23 L 54.65 131.62 L 54.96 132.01 L 55.28 132.42 L 55.59 132.83 L 55.91 133.26 L 56.22 133.69 L 56.54 134.13 L 56.86 134.59 L 57.17 135.06 L 57.49 135.53 L 57.80 136.03 L 58.12 136.53 L 58.44 137.05 L 58.75 137.58 L 59.07 138.13 L 59.38 138.70 L 59.70 139.29 L 60.02 139.90 L 60.33 140.52 L 60.65 141.18 L 60.96 141.86 L 61.28 142.56 L 61.60 143.30 L 61.91 144.08 L 62.23 144.90 L 62.54 145.76 L 62.86 146.68 L 63.17 147.67 L 63.49 148.74 L 63.81 149.91 L 64.12 151.21 L 64.44 152.71 L 64.75 154.51 L 65.07 156.94" fill="none" stroke="#7E8692" stroke-width="2.3" stroke-linecap="round" stroke-linejoin="round"/>
</svg>
