<svg xmlns="http://www.w3.org/2000/svg" viewBox="0 0 320 180" width="320" height="180">
  <rect width="320" height="180" fill="#F4F5F7"/>
  <path d="M 24.00 142.31 L 24.30 142.31 L 24.61 142.31 L 24.91 142.31 L 25.21 142.31 L 25.51 142.31 L 25.82 142.31 L 26.12 142.31 L 26.42 142.31 L 26.72 142.31 L 27.03 142.31 L 27.33 142.31 L 27.63 142.31 L 27.93 142.31 L 28.24 142.31 L 28.54 142.31 L 28.84 142.31 L 29.14 142.31 L 29.45 142.31 L 29.75 142.31 L 30.05 142.31 L 30.35 142.31 L 30.66 142.31 L 30.96 142.31 L 31.26 142.31 L 31.56 142.31 L 31.87 142.31 L 32.17 142.31 L 32.47 142.31 L 32.77 142.31 L 33.08 142.31 L 33.38 142.31 L 33.68 142.31 L 33.98 142.31 L 34.29 142.31 L 34.59 142.31 L 34.89 142.31 L 35.19 142.31 L 35.50 142.31 L 35.80 142.31 L 36.10 142.31 L 36.40 142.31 L 36.71 142.31 L 37.01 142.31 L 37.31 142.31 L 37.62 142.31 L 37.92 142.31 L 38.22 142.31 L 38.52 142.31 L 38.83 142.31 L 39.13 142.31 L 39.43 142.31 L 39.73 142.31 L 40.04 142.31 L 40.34 142.31 L 40.64 142.31 L 40.94 142.31 L 41.25 142.31 L 41.55 142.31 L 41.85 142.31 L 42.15 142.31 L 42.46 142.31 L 42.76 142.31 L 43.06 142.31 L 43.36 142.31 L 43.67 142.31 L 43.97 142.31 L 44.27 142.31 L 44.57 142.31 L 44.88 142.31 L 45.18 142.31 L 45.48 142.31 L 45.78 142.31 L 46.09 142.31 L 46.39 142.31 L 46.69 142.31 L 46.99 142.31 L 47.30 142.31 L 47.60 142.31 L 47.90 142.31 L 48.20 142.31 L 48.51 142.31 L 48.81 142.31 L 49.11 142.31 L 49.41 142.31 L 49.72 142.31 L 50.02 142.31 L 50.32 142.31 L 50.63 142.31 L 50.93 142.31 L 51.23 142.31 L 51.53 142.31 L 51.84 142.31 L 52.14 142.31 L 52.44 142.31 L 52.74 142.31 L 53.05 142.31 L 53.35 142.31 L 53.65 142.31 L 53.95 142.31 L 54.26 142.31 L 54.56 142.31 L 54.86 142.31 L 55.16 142.31 L 55.47 142.31 L 55.77 142.31 L 56.07 142.31 L 56.37 142.31 L 56.68 142.31 L 56.98 142.31 L 57.28 142.31 L 57.58 142.31 L 57.89 142.31 L 58.19 142.31 L 58.49 142.31 L 58.79 142.31 L 59.10 142.31 L 59.40 142.31 L 59.70 142.31 L 60.00 142.31 L 60.31 142.31 L 60.61 142.31 L 60.91 142.31 L 61.21 142.31 L 61.52 142.31 L 61.82 142.31 L 62.12 142.31 L 62.42 142.31 L 62.73 142.31 L 63.03 142.31 L 63.33 142.31 L 63.64 142.31 L 63.94 142.31 L 64.24 142.31 L 64.54 142.31 L 64.85 142.31 L 65.15 142.31 L 65.45 142.31 L 65.75 142.31 L 66.06 142.31 L 66.36 142.31 L 66.66 142.31 L 66.96 142.31 L 67.27 142.31 L 67.57 142.31 L 67.87 142.31 L 68.17 142.31 L 68.48 142.31 L 68.78 142.31 L 69.08 142.31 L 69.38 142.31 L 69.69 142.31 L 69.99 142.31 L 70.29 142.31 L 70.59 142.31 L 70.90 142.31 L 71.20 142.31 L 71.50 142.31 L 71.80 142.31 L 72.11 142.31 L 72.41 142.31 L 72.71 142.31 L 73.01 142.31 L 73.32 142.31 L 73.62 142.31 L 73.92 142.31 L 74.22 142.31 L 74.53 142.31 L 74.83 142.31 L 75.13 142.31 L 75.43 142.31 L 75.74 142.31 L 76.04 142.31 L 76.34 142.31 L 76.65 142.31 L 76.95 142.31 L 77.25 142.31 L 77.55 142.31 L 77.86 142.31 L 78.16 142.31 L 78.46 142.31 L 78.76 142.31 L 79.07 142.31 L 79.37 142.31 L 79.67 142.31 L 79.97 142.31 L 80.28 142.31 L 80.58 142.31 L 80.88 142.31 L 81.18 142.31 L 81.49 142.31 L 81.79 142.31 L 82.09 142.31 L 82.39 142.31 L 82.70 142.31 L 83.00 142.31 L 83.30 142.31 L 83.60 142.31 L 83.91 142.31 L 84.21 142.31 L 84.51 142.31 L 84.81 142.31 L 85.12 142.31 L 85.42 142.31 L 85.72 142.31 L 86.02 142.31 L 86.33 142.31 L 86.63 142.31 L 86.93 142.31 L 87.23 142.31 L 87.54 142.31 L 87.84 142.31 L 88.14 142.31 L 88.44 142.31 L 88.75 142.31 L 89.05 142.31 L 89.35 142.31 L 89.66 142.31 L 89.96 142.31 L 90.26 142.31 L 90.56 142.31 L 90.87 142.31 L 91.17 142.31 L 91.47 142.31 L 91.77 142.31 L 92.08 142.31 L 92.38 142.31 L 92.68 142.31 L 92.98 142.31 L 93.29 142.31 L 93.59 142.31 L 93.89 142.31 L 94.19 142.31 L 94.50 142.31 L 94.80 142.31 L 95.10 142.31 L 95.40 142.31 L 95.71 142.31 L 96.01 142.31 L 96.31 142.31 L 96.61 142.31 L 96.92 142.31 L 97.22 142.31 L 97.52 142.31 L 97.82 142.31 L 98.13 142.31 L 98.43 142.31 L 98.73 142.31 L 99.03 142.31 L 99.34 142.31 L 99.64 142.31 L 99.94 142.31 L 100.24 142.31 L 100.55 142.31 L 100.85 142.31 L 101.15 142.31 L 101.45 142.31 L 101.76 142.31 L 102.06 142.31 L 102.36 142.31 L 102.67 142.31 L 102.97 142.31 L 103.27 142.31 L 103.57 142.31 L 103.88 142.31 L 104.18 142.31 L 104.48 142.31 L 104.78 142.31 L 105.09 142.31 L 105.39 142.31 L 105.69 142.31 L 105.99 142.31 L 106.30 142.31 L 106.60 142.31 L 106.90 142.31 L 107.20 142.31 L 107.51 142.31 L 107.81 142.31 L 108.11 142.31 L 108.41 142.31 L 108.72 142.31 L 109.02 142.31 L 109.32 142.31 L 109.62 142.31 L 109.93 142.31 L 110.23 142.31 L 110.53 142.31 L 110.83 142.31 L 111.14 142.31 L 111.44 142.31 L 111.74 142.31 L 112.04 142.31 L 112.35 142.31 L 112.65 142.31 L 112.95 142.31 L 113.25 142.31 L 113.56 142.31 L 113.86 142.31 L 114.16 142.31 L 114.46 142.31 L 114.77 142.31 L 115.07 142.31 L 115.37 142.31 L 115.68 142.31 L 115.98 142.31 L 116.28 142.31 L 116.58 142.31 L 116.89 142.31 L 117.19 142.31 L 117.49 142.31 L 117.79 142.31 L 118.10 142.31 L 118.40 142.31 L 118.70 142.31 L 119.00 142.31 L 119.31 142.31 L 119.61 142.31 L 119.91 142.31 L 120.21 142.31 L 120.52 142.31 L 120.82 142.31 L 121.12 142.31 L 121.42 142.31 L 121.73 142.31 L 122.03 142.31 L 122.33 142.31 L 122.63 142.31 L 122.94 142.31 L 123.24 142.31 L 123.54 142.31 L 123.84 142.31 L 124.15 142.31 L 124.45 142.31 L 124.75 142.31 L 125.05 142.31 L 125.36 142.31 L 125.66 142.31 L 125.96 142.31 L 126.26 142.31 L 126.57 142.31 L 126.87 142.31 L 127.17 142.31 L 127.47 142.31 L 127.78 142.31 L 128.08 142.31 L 128.38 142.31 L 128.69 142.31 L 128.99 142.31 L 129.29 142.31 L 129.59 142.31 L 129.90 142.31 L 130.20 142.31 L 130.50 142.31 L 130.80 142.31 L 131.11 142.31 L 131.41 142.31 L 131.71 142.31 L 132.01 142.31 L 132.32 142.31 L 132.62 142.31 L 132.92 142.31 L 133.22 142.31 L 133.53 142.31 L 133.83 142.31 L 134.13 142.31 L 134.43 142.31 L 134.74 142.31 L 135.04 142.31 L 135.34 142.31 L 135.64 142.31 L 135.95 142.31 L 136.25 142.31 L 136.55 142.31 L 136.85 142.31 L 137.16 142.31 L 137.46 142.31 L 137.76 142.31 L 138.06 142.31 L 138.37 142.31 L 138.67 142.31 L 138.97 142.31 L 139.27 142.31 L 139.58 142.31 L 139.88 142.31 L 140.18 142.31 L 140.48 142.31 L 140.79 142.31 L 141.09 142.31 L 141.39 142.31 L 141.70 142.31 L 142.00 142.31 L 142.30 142.31 L 142.60 142.31 L 142.91 142.31 L 143.21 142.31 L 143.51 142.31 L 143.81 142.31 L 144.12 142.31 L 144.42 142.31 L 144.72 142.31 L 145.02 142.31 L 145.33 142.31 L 145.63 142.31 L 145.93 142.31 L 146.23 142.31 L 146.54 142.31 L 146.84 142.31 L 147.14 142.31 L 147.44 142.31 L 147.75 142.31 L 148.05 142.31 L 148.35 142.31 L 148.65 142.31 L 148.96 142.31 L 149.26 142.31 L 149.56 142.31 L 149.86 142.31 L 150.17 142.31 L 150.47 142.31 L 150.77 142.31 L 151.07 142.31 L 151.38 142.31 L 151.68 142.31 L 151.98 142.31 L 152.28 142.31 L 152.59 142.31 L 152.89 142.31 L 153.19 142.31 L 153.49 142.31 L 153.80 142.31 L 154.10 142.31 L 154.40 142.31 L 154.71 142.31 L 155.01 142.31 L 155.31 142.31 L 155.61 142.31 L 155.92 142.31 L 156.22 142.31 L 156.52 142.31" fill="none" stroke="#7E8692" stroke-width="2.3" stroke-linecap="round" stroke-linejoin="round"/>
  <path d="M 163.48 37.69 L 163.78 37.69 L 164.08 37.69 L 164.39 37.69 L 164.69 37.69 L 164.99 37.69 L 165.29 37.69 L 165.60 37.69 L 165.90 37.69 L 166.20 37.69 L 166.51 37.69 L 166.81 37.69 L 167.11 37.69 L 167.41 37.69 L 167.72 37.69 L 168.02 37.69 L 168.32 37.69 L 168.62 37.69 L 168.93 37.69 L 169.23 37.69 L 169.53 37.69 L 169.83 37.69 L 170.14 37.69 L 170.44 37.69 L 170.74 37.69 L 171.04 37.69 L 171.35 37.69 L 171.65 37.69 L 171.95 37.69 L 172.25 37.69 L 172.56 37.69 L 172.86 37.69 L 173.16 37.69 L 173.46 37.69 L 173.77 37.69 L 174.07 37.69 L 174.37 37.69 L 174.67 37.69 L 174.98 37.69 L 175.28 37.69 L 175.58 37.69 L 175.88 37.69 L 176.19 37.69 L 176.49 37.69 L 176.79 37.69 L 177.09 37.69 L 177.40 37.69 L 177.70 37.69 L 178.00 37.69 L 178.30 37.69 L 178.61 37.69 L 178.91 37.69 L 179.21 37.69 L 179.52 37.69 L 179.82 37.69 L 180.12 37.69 L 180.42 37.69 L 180.73 37.69 L 181.03 37.69 L 181.33 37.69 L 181.63 37.69 L 181.94 37.69 L 182.24 37.69 L 182.54 37.69 L 182.84 37.69 L 183.15 37.69 L 183.45 37.69 L 183.75 37.69 L 184.05 37.69 L 184.36 37.69 L 184.66 37.69 L 184.96 37.69 L 185.26 37.69 L 185.57 37.69 L 185.87 37.69 L 186.17 37.69 L 186.47 37.69 L 186.78 37.69 L 187.08 37.69 L 187.38 37.69 L 187.68 37.69 L 187.99 37.69 L 188.29 37.69 L 188.59 37.69 L 188.89 37.69 L 189.20 37.69 L 189.50 37.69 L 189.80 37.69 L 190.10 37.69 L 190.41 37.69 L 190.71 37.69 L 191.01 37.69 L 191.31 37.69 L 191.62 37.69 L 191.92 37.69 L 192.22 37.69 L 192.53 37.69 L 192.83 37.69 L 193.13 37.69 L 193.43 37.69 L 193.74 37.69 L 194.04 37.69 L 194.34 37.69 L 194.64 37.69 L 194.95 37.69 L 195.25 37.69 L 195.55 37.69 L 195.85 37.69 L 196.16 37.69 L 196.46 37.69 L 196.76 37.69 L 197.06 37.69 L 197.37 37.69 L 197.67 37.69 L 197.97 37.69 L 198.27 37.69 L 198.58 37.69 L 198.88 37.69 L 199.18 37.69 L 199.48 37.69 L 199.79 37.69 L 200.09 37.69 L 200.39 37.69 L 200.69 37.69 L 201.00 37.69 L 201.30 37.69 L 201.60 37.69 L 201.90 37.69 L 202.21 37.69 L 202.51 37.69 L 202.81 37.69 L 203.11 37.69 L 203.42 37.69 L 203.72 37.69 L 204.02 37.69 L 204.32 37.69 L 204.63 37.69 L 204.93 37.69 L 205.23 37.69 L 205.54 37.69 L 205.84 37.69 L 206.14 37.69 L 206.44 37.69 L 206.75 37.69 L 207.05 37.69 L 207.35 37.69 L 207.65 37.69 L 207.96 37.69 L 208.26 37.69 L 208.56 37.69 L 208.86 37.69 L 209.17 37.69 L 209.47 37.69 L 209.77 37.69 L 210.07 37.69 L 210.38 37.69 L 210.68 37.69 L 210.98 37.69 L 211.28 37.69 L 211.59 37.69 L 211.89 37.69 L 212.19 37.69 L 212.49 37.69 L 212.80 37.69 L 213.10 37.69 L 213.40 37.69 L 213.70 37.69 L 214.01 37.69 L 214.31 37.69 L 214.61 37.69 L 214.91 37.69 L 215.22 37.69 L 215.52 37.69 L 215.82 37.69 L 216.12 37.69 L 216.43 37.69 L 216.73 37.69 L 217.03 37.69 L 217.33 37.69 L 217.64 37.69 L 217.94 37.69 L 218.24 37.69 L 218.55 37.69 L 218.85 37.69 L 219.15 37.69 L 219.45 37.69 L 219.76 37.69 L 220.06 37.69 L 220.36 37.69 L 220.66 37.69 L 220.97 37.69 L 221.27 37.69 L 221.57 37.69 L 221.87 37.69 L 222.18 37.69 L 222.48 37.69 L 222.78 37.69 L 223.08 37.69 L 223.39 37.69 L 223.69 37.69 L 223.99 37.69 L 224.29 37.69 L 224.60 37.69 L 224.90 37.69 L 225.20 37.69 L 225.50 37.69 L 225.81 37.69 L 226.11 37.69 L 226.41 37.69 L 226.71 37.69 L 227.02 37.69 L 227.32 37.69 L 227.62 37.69 L 227.92 37.69 L 228.23 37.69 L 228.53 37.69 L 228.83 37.69 L 229.13 37.69 L 229.44 37.69 L 229.74 37.69 L 230.04 37.69 L 230.34 37.69 L 230.65 37.69 L 230.95 37.69 L 231.25 37.69 L 231.56 37.69 L 231.86 37.69 L 232.16 37.69 L 232.46 37.69 L 232.77 37.69 L 233.07 37.69 L 233.37 37.69 L 233.67 37.69 L 233.98 37.69 L 234.28 37.69 L 234.58 37.69 L 234.88 37.69 L 235.19 37.69 L 235.49 37.69 L 235.79 37.69 L 236.09 37.69 L 236.40 37.69 L 236.70 37.69 L 237.00 37.69 L 237.30 37.69 L 237.61 37.69 L 237.91 37.69 L 238.21 37.69 L 238.51 37.69 L 238.82 37.69 L 239.12 37.69 L 239.42 37.69 L 239.72 37.69 L 240.03 37.69 L 240.33 37.69 L 240.63 37.69 L 240.93 37.69 L 241.24 37.69 L 241.54 37.69 L 241.84 37.69 L 242.14 37.69 L 242.45 37.69 L 242.75 37.69 L 243.05 37.69 L 243.35 37.69 L 243.66 37.69 L 243.96 37.69 L 244.26 37.69 L 244.57 37.69 L 244.87 37.69 L 245.17 37.69 L 245.47 37.69 L 245.78 37.69 L 246.08 37.69 L 246.38 37.69 L 246.68 37.69 L 246.99 37.69 L 247.29 37.69 L 247.59 37.69 L 247.89 37.69 L 248.20 37.69 L 248.50 37.69 L 248.80 37.69 L 249.10 37.69 L 249.41 37.69 L 249.71 37.69 L 250.01 37.69 L 250.31 37.69 L 250.62 37.69 L 250.92 37.69 L 251.22 37.69 L 251.52 37.69 L 251.83 37.69 L 252.13 37.69 L 252.43 37.69 L 252.73 37.69 L 253.04 37.69 L 253.34 37.69 L 253.64 37.69 L 253.94 37.69 L 254.25 37.69 L 254.55 37.69 L 254.85 37.69 L 255.15 37.69 L 255.46 37.69 L 255.76 37.69 L 256.06 37.69 L 256.36 37.69 L 256.67 37.69 L 256.97 37.69 L 257.27 37.69 L 257.58 37.69 L 257.88 37.69 L 258.18 37.69 L 258.48 37.69 L 258.79 37.69 L 259.09 37.69 L 259.39 37.69 L 259.69 37.69 L 260.00 37.69 L 260.30 37.69 L 260.60 37.69 L 260.90 37.69 L 261.21 37.69 L 261.51 37.69 L 261.81 37.69 L 262.11 37.69 L 262.42 37.69 L 262.72 37.69 L 263.02 37.69 L 263.32 37.69 L 263.63 37.69 L 263.93 37.69 L 264.23 37.69 L 264.53 37.69 L 264.84 37.69 L 265.14 37.69 L 265.44 37.69 L 265.74 37.69 L 266.05 37.69 L 266.35 37.69 L 266.65 37.69 L 266.95 37.69 L 267.26 37.69 L 267.56 37.69 L 267.86 37.69 L 268.16 37.69 L 268.47 37.69 L 268.77 37.69 L 269.07 37.69 L 269.37 37.69 L 269.68 37.69 L 269.98 37.69 L 270.28 37.69 L 270.59 37.69 L 270.89 37.69 L 271.19 37.69 L 271.49 37.69 L 271.80 37.69 L 272.10 37.69 L 272.40 37.69 L 272.70 37.69 L 273.01 37.69 L 273.31 37.69 L 273.61 37.69 L 273.91 37.69 L 274.22 37.69 L 274.52 37.69 L 274.82 37.69 L 275.12 37.69 L 275.43 37.69 L 275.73 37.69 L 276.03 37.69 L 276.33 37.69 L 276.64 37.69 L 276.94 37.69 L 277.24 37.69 L 277.54 37.69 L 277.85 37.69 L 278.15 37.69 L 278.45 37.69 L 278.75 37.69 L 279.06 37.69 L 279.36 37.69 L 279.66 37.69 L 279.96 37.69 L 280.27 37.69 L 280.57 37.69 L 280.87 37.69 L 281.17 37.69 L 281.48 37.69 L 281.78 37.69 L 282.08 37.69 L 282.38 37.69 L 282.69 37.69 L 282.99 37.69 L 283.29 37.69 L 283.60 37.69 L 283.90 37.69 L 284.20 37.69 L 284.50 37.69 L 284.81 37.69 L 285.11 37.69 L 285.41 37.69 L 285.71 37.69 L 286.02 37.69 L 286.32 37.69 L 286.62 37.69 L 286.92 37.69 L 287.23 37.69 L 287.53 37.69 L 287.83 37.69 L 288.13 37.69 L 288.44 37.69 L 288.74 37.69 L 289.04 37.69 L 289.34 37.69 L 289.65 37.69 L 289.95 37.69 L 290.25 37.69 L 290.55 37.69 L 290.86 37.69 L 291.16 37.69 L 291.46 37.69 L 291.76 37.69 L 292.07 37.69 L 292.37 37.69 L 292.67 37.69 L 292.97 37.69 L 293.28 37.69 L 293.58 37.69 L 293.88 37.69 L 294.18 37.69 L 294.49 37.69 L 294.79 37.69 L 295.09 37.69 L 295.39 37.69 L 295.70 37.69 L 296.00 37.69" fill="none" stroke="#7E8692" stroke-width="2.3" stroke-linecap="round" stroke-linejoin="round"/>
</svg>
