<svg xmlns="http://www.w3.org/2000/svg" viewBox="0 0 320 180" width="320" height="180">
  <rect width="320" height="180" fill="#F4F5F7"/>
  <path d="M 24.00 112.67 L 24.30 112.67 L 24.61 112.67 L 24.91 112.68 L 25.21 112.68 L 25.51 112.69 L 25.82 112.70 L 26.12 112.72 L 26.42 112.73 L 26.72 112.75 L 27.03 112.77 L 27.33 112.79 L 27.63 112.81 L 27.93 112.84 L 28.24 112.86 L 28.54 112.89 L 28.84 112.93 L 29.14 112.96 L 29.45 112.99 L 29.75 113.03 L 30.05 113.07 L 30.35 113.11 L 30.66 113.16 L 30.96 113.20 L 31.26 113.25 L 31.56 113.30 L 31.87 113.35 L 32.17 113.41 L 32.47 113.47 L 32.77 113.52 L 33.08 113.58 L 33.38 113.65 L 33.68 113.71 L 33.98 113.78 L 34.29 113.85 L 34.59 113.92 L 34.89 113.99 L 35.19 114.07 L 35.50 114.15 L 35.80 114.23 L 36.10 114.31 L 36.40 114.40 L 36.71 114.48 L 37.01 114.57 L 37.31 114.67 L 37.62 114.76 L 37.92 114.86 L 38.22 114.95 L 38.52 115.06 L 38.83 115.16 L 39.13 115.27 L 39.43 115.37 L 39.73 115.48 L 40.04 115.60 L 40.34 115.71 L 40.64 115.83 L 40.94 115.95 L 41.25 116.08 L 41.55 116.20 L 41.85 116.33 L 42.15 116.46 L 42.46 116.59 L 42.76 116.73 L 43.06 116.87 L 43.36 117.01 L 43.67 117.15 L 43.97 117.30 L 44.27 117.45 L 44.57 117.60 L 44.88 117.76 L 45.18 117.92 L 45.48 118.08 L 45.78 118.24 L 46.09 118.41 L 46.39 118.58 L 46.69 118.75 L 46.99 118.93 L 47.30 119.11 L 47.60 119.29 L 47.90 119.48 L 48.20 119.67 L 48.51 119.86 L 48.81 120.06 L 49.11 120.26 L 49.41 120.46 L 49.72 120.67 L 50.02 120.88 L 50.32 121.09 L 50.63 121.31 L 50.93 121.53 L 51.23 121.76 L 51.53 121.99 L 51.84 122.22 L 52.14 122.46 L 52.44 122.70 L 52.74 122.94 L 53.05 123.19 L 53.35 123.45 L 53.65 123.71 L 53.95 123.97 L 54.26 124.24 L 54.56 124.51 L 54.86 124.79 L 55.16 125.08 L 55.47 125.37 L 55.77 125.66 L 56.07 125.96 L 56.37 126.27 L 56.68 126.58 L 56.98 126.90 L 57.28 127.22 L 57.58 127.55 L 57.89 127.89 L 58.19 128.23 L 58.49 128.58 L 58.79 128.94 L 59.10 129.31 L 59.40 129.68 L 59.70 130.06 L 60.00 130.45 L 60.31 130.85 L 60.61 131.26 L 60.91 131.68 L 61.21 132.11 L 61.52 132.55 L 61.82 133.00 L 62.12 133.47 L 62.42 133.95 L 62.73 134.44 L 63.03 134.94 L 63.33 135.46 L 63.64 136.00 L 63.94 136.55 L 64.24 137.12 L 64.54 137.72 L 64.85 138.33 L 65.15 138.97 L 65.45 139.64 L 65.75 140.34 L 66.06 141.08 L 66.36 141.85 L 66.66 142.66 L 66.96 143.53 L 67.27 144.47 L 67.57 145.47 L 67.87 146.58 L 68.17 147.81 L 68.48 149.23 L 68.78 150.93 L 69.08 153.23" fill="none" stroke="#7E8692" stroke-width="2.3" stroke-linecap="round" stroke-linejoin="round"/>
</svg>
