<svg xmlns="http://www.w3.org/2000/svg" viewBox="0 0 320 180" width="320" height="180">
  <rect width="320" height="180" fill="none"/>
  <path d="M 24.00 62.43 L 24.15 63.24 L 24.30 64.04 L 24.45 64.84 L 24.60 65.64 L 24.76 66.44 L 24.91 67.24 L 25.06 68.03 L 25.21 68.82 L 25.36 69.61 L 25.51 70.40 L 25.66 71.19 L 25.81 71.97 L 25.97 72.75 L 26.12 73.53 L 26.27 74.31 L 26.42 75.08 L 26.57 75.85 L 26.72 76.62 L 26.87 77.39 L 27.02 78.15 L 27.18 78.92 L 27.33 79.68 L 27.48 80.43 L 27.63 81.19 L 27.78 81.94 L 27.93 82.69 L 28.08 83.43 L 28.23 84.18 L 28.38 84.92 L 28.54 85.65 L 28.69 86.39 L 28.84 87.12 L 28.99 87.85 L 29.14 88.57 L 29.29 89.30 L 29.44 90.02 L 29.59 90.73 L 29.75 91.45 L 29.90 92.16 L 30.05 92.86 L 30.20 93.57 L 30.35 94.27 L 30.50 94.96 L 30.65 95.66 L 30.80 96.35 L 30.95 97.04 L 31.11 97.72 L 31.26 98.40 L 31.41 99.08 L 31.56 99.75 L 31.71 100.42 L 31.86 101.09 L 32.01 101.75 L 32.16 102.41 L 32.32 103.07 L 32.47 103.72 L 32.62 104.37 L 32.77 105.01 L 32.92 105.65 L 33.07 106.29 L 33.22 106.92 L 33.37 107.55 L 33.53 108.18 L 33.68 108.80 L 33.83 109.42 L 33.98 110.03 L 34.13 110.64 L 34.28 111.25 L 34.43 111.85 L 34.58 112.45 L 34.73 113.05 L 34.89 113.64 L 35.04 114.22 L 35.19 114.80 L 35.34 115.38 L 35.49 115.96 L 35.64 116.53 L 35.79 117.09 L 35.94 117.65 L 36.10 118.21 L 36.25 118.76 L 36.40 119.31 L 36.55 119.86 L 36.70 120.40 L 36.85 120.93 L 37.00 121.46 L 37.15 121.99 L 37.31 122.51 L 37.46 123.03 L 37.61 123.54 L 37.76 124.05 L 37.91 124.56 L 38.06 125.06 L 38.21 125.56 L 38.36 126.05 L 38.51 126.53 L 38.67 127.02 L 38.82 127.49 L 38.97 127.97 L 39.12 128.44 L 39.27 128.90 L 39.42 129.36 L 39.57 129.82 L 39.72 130.27 L 39.88 130.71 L 40.03 131.15 L 40.18 131.59 L 40.33 132.02 L 40.48 132.45 L 40.63 132.87 L 40.78 133.29 L 40.93 133.70 L 41.09 134.11 L 41.24 134.51 L 41.39 134.91 L 41.54 135.30 L 41.69 135.69 L 41.84 136.08 L 41.99 136.46 L 42.14 136.83 L 42.29 137.20 L 42.45 137.56 L 42.60 137.92 L 42.75 138.28 L 42.90 138.63 L 43.05 138.97 L 43.20 139.32 L 43.35 139.65 L 43.50 139.98 L 43.66 140.31 L 43.81 140.63 L 43.96 140.94 L 44.11 141.26 L 44.26 141.56 L 44.41 141.86 L 44.56 142.16 L 44.71 142.45 L 44.86 142.74 L 45.02 143.02 L 45.17 143.29 L 45.32 143.57 L 45.47 143.83 L 45.62 144.09 L 45.77 144.35 L 45.92 144.60 L 46.07 144.85 L 46.23 145.09 L 46.38 145.33 L 46.53 145.56 L 46.68 145.79 L 46.83 146.01 L 46.98 146.23 L 47.13 146.44 L 47.28 146.65 L 47.44 146.85 L 47.59 147.05 L 47.74 147.24 L 47.89 147.43 L 48.04 147.61 L 48.19 147.78 L 48.34 147.96 L 48.49 148.12 L 48.64 148.29 L 48.80 148.44 L 48.95 148.60 L 49.10 148.75 L 49.25 148.89 L 49.40 149.03 L 49.55 149.16 L 49.70 149.29 L 49.85 149.41 L 50.01 149.53 L 50.16 149.64 L 50.31 149.75 L 50.46 149.85 L 50.61 149.95 L 50.76 150.05 L 50.91 150.14 L 51.06 150.22 L 51.22 150.30 L 51.37 150.37 L 51.52 150.44 L 51.67 150.51 L 51.82 150.57 L 51.97 150.62 L 52.12 150.67 L 52.27 150.72 L 52.42 150.76 L 52.58 150.80 L 52.73 150.83 L 52.88 150.85 L 53.03 150.87 L 53.18 150.89 L 53.33 150.90 L 53.48 150.91 L 53.63 150.91 L 53.79 150.91 L 53.94 150.91 L 54.09 150.90 L 54.24 150.88 L 54.39 150.86 L 54.54 150.83 L 54.69 150.80 L 54.84 150.77 L 54.99 150.73 L 55.15 150.69 L 55.30 150.64 L 55.45 150.59 L 55.60 150.53 L 55.75 150.47 L 55.90 150.40 L 56.05 150.33 L 56.20 150.26 L 56.36 150.18 L 56.51 150.10 L 56.66 150.01 L 56.81 149.92 L 56.96 149.82 L 57.11 149.72 L 57.26 149.61 L 57.41 149.50 L 57.57 149.39 L 57.72 149.27 L 57.87 149.15 L 58.02 149.02 L 58.17 148.89 L 58.32 148.76 L 58.47 148.62 L 58.62 148.47 L 58.77 148.33 L 58.93 148.17 L 59.08 148.02 L 59.23 147.86 L 59.38 147.69 L 59.53 147.53 L 59.68 147.35 L 59.83 147.18 L 59.98 147.00 L 60.14 146.81 L 60.29 146.62 L 60.44 146.43 L 60.59 146.24 L 60.74 146.04 L 60.89 145.83 L 61.04 145.63 L 61.19 145.41 L 61.35 145.20 L 61.50 144.98 L 61.65 144.76 L 61.80 144.53 L 61.95 144.30 L 62.10 144.07 L 62.25 143.83 L 62.40 143.59 L 62.55 143.35 L 62.71 143.10 L 62.86 142.85 L 63.01 142.59 L 63.16 142.33 L 63.31 142.07 L 63.46 141.81 L 63.61 141.54 L 63.76 141.26 L 63.92 140.99 L 64.07 140.71 L 64.22 140.43 L 64.37 140.14 L 64.52 139.85 L 64.67 139.56 L 64.82 139.26 L 64.97 138.97 L 65.13 138.66 L 65.28 138.36 L 65.43 138.05 L 65.58 137.74 L 65.73 137.43 L 65.88 137.11 L 66.03 136.79 L 66.18 136.46 L 66.33 136.14 L 66.49 135.81 L 66.64 135.48 L 66.79 135.14 L 66.94 134.80 L 67.09 134.46 L 67.24 134.12 L 67.39 133.77 L 67.54 133.43 L 67.70 133.07 L 67.85 132.72 L 68.00 132.36 L 68.15 132.00 L 68.30 131.64 L 68.45 131.28 L 68.60 130.91 L 68.75 130.54 L 68.90 130.17 L 69.06 129.79 L 69.21 129.42 L 69.36 129.04 L 69.51 128.66 L 69.66 128.27 L 69.81 127.89 L 69.96 127.50 L 70.11 127.11 L 70.27 126.71 L 70.42 126.32 L 70.57 125.92 L 70.72 125.52 L 70.87 125.12 L 71.02 124.72 L 71.17 124.31 L 71.32 123.90 L 71.48 123.50 L 71.63 123.08 L 71.78 122.67 L 71.93 122.26 L 72.08 121.84 L 72.23 121.42 L 72.38 121.00 L 72.53 120.58 L 72.68 120.15 L 72.84 119.73 L 72.99 119.30 L 73.14 118.87 L 73.29 118.44 L 73.44 118.01 L 73.59 117.57 L 73.74 117.14 L 73.89 116.70 L 74.05 116.26 L 74.20 115.82 L 74.35 115.38 L 74.50 114.94 L 74.65 114.50 L 74.80 114.05 L 74.95 113.61 L 75.10 113.16 L 75.26 112.71 L 75.41 112.26 L 75.56 111.81 L 75.71 111.36 L 75.86 110.90 L 76.01 110.45 L 76.16 109.99 L 76.31 109.54 L 76.46 109.08 L 76.62 108.62 L 76.77 108.16 L 76.92 107.70 L 77.07 107.24 L 77.22 106.78 L 77.37 106.32 L 77.52 105.86 L 77.67 105.39 L 77.83 104.93 L 77.98 104.46 L 78.13 104.00 L 78.28 103.53 L 78.43 103.06 L 78.58 102.60 L 78.73 102.13 L 78.88 101.66 L 79.04 101.19 L 79.19 100.72 L 79.34 100.25 L 79.49 99.78 L 79.64 99.31 L 79.79 98.84 L 79.94 98.37 L 80.09 97.90 L 80.24 97.43 L 80.40 96.96 L 80.55 96.49 L 80.70 96.01 L 80.85 95.54 L 81.00 95.07 L 81.15 94.60 L 81.30 94.13 L 81.45 93.66 L 81.61 93.18 L 81.76 92.71 L 81.91 92.24 L 82.06 91.77 L 82.21 91.30 L 82.36 90.83 L 82.51 90.36 L 82.66 89.89 L 82.81 89.42 L 82.97 88.95 L 83.12 88.48 L 83.27 88.01 L 83.42 87.54 L 83.57 87.07 L 83.72 86.60 L 83.87 86.13 L 84.02 85.67 L 84.18 85.20 L 84.33 84.74 L 84.48 84.27 L 84.63 83.81 L 84.78 83.34 L 84.93 82.88 L 85.08 82.42 L 85.23 81.95 L 85.39 81.49 L 85.54 81.03 L 85.69 80.57 L 85.84 80.12 L 85.99 79.66 L 86.14 79.20 L 86.29 78.74 L 86.44 78.29 L 86.59 77.84 L 86.75 77.38 L 86.90 76.93 L 87.05 76.48 L 87.20 76.03 L 87.35 75.58 L 87.50 75.13 L 87.65 74.69 L 87.80 74.24 L 87.96 73.80 L 88.11 73.35 L 88.26 72.91 L 88.41 72.47 L 88.56 72.03 L 88.71 71.59 L 88.86 71.16 L 89.01 70.72 L 89.17 70.29 L 89.32 69.85 L 89.47 69.42 L 89.62 68.99 L 89.77 68.57 L 89.92 68.14 L 90.07 67.71 L 90.22 67.29 L 90.37 66.87 L 90.53 66.45 L 90.68 66.03 L 90.83 65.61 L 90.98 65.19 L 91.13 64.78 L 91.28 64.37 L 91.43 63.96 L 91.58 63.55 L 91.74 63.14 L 91.89 62.74 L 92.04 62.33 L 92.19 61.93 L 92.34 61.53 L 92.49 61.13 L 92.64 60.73 L 92.79 60.34 L 92.94 59.95 L 93.10 59.56 L 93.25 59.17 L 93.40 58.78 L 93.55 58.40 L 93.70 58.01 L 93.85 57.63 L 94.00 57.25 L 94.15 56.88 L 94.31 56.50 L 94.46 56.13 L 94.61 55.76 L 94.76 55.39 L 94.91 55.02 L 95.06 54.66 L 95.21 54.30 L 95.36 53.94 L 95.52 53.58 L 95.67 53.22 L 95.82 52.87 L 95.97 52.52 L 96.12 52.17 L 96.27 51.82 L 96.42 51.48 L 96.57 51.14 L 96.72 50.80 L 96.88 50.46 L 97.03 50.13 L 97.18 49.79 L 97.33 49.46 L 97.48 49.13 L 97.63 48.81 L 97.78 48.49 L 97.93 48.16 L 98.09 47.85 L 98.24 47.53 L 98.39 47.22 L 98.54 46.91 L 98.69 46.60 L 98.84 46.29 L 98.99 45.99 L 99.14 45.69 L 99.30 45.39 L 99.45 45.09 L 99.60 44.80 L 99.75 44.51 L 99.90 44.22 L 100.05 43.93 L 100.20 43.65 L 100.35 43.37 L 100.50 43.09 L 100.66 42.82 L 100.81 42.54 L 100.96 42.27 L 101.11 42.00 L 101.26 41.74 L 101.41 41.48 L 101.56 41.22 L 101.71 40.96 L 101.87 40.71 L 102.02 40.45 L 102.17 40.20 L 102.32 39.96 L 102.47 39.71 L 102.62 39.47 L 102.77 39.24 L 102.92 39.00 L 103.08 38.77 L 103.23 38.54 L 103.38 38.31 L 103.53 38.08 L 103.68 37.86 L 103.83 37.64 L 103.98 37.43 L 104.13 37.21 L 104.28 37.00 L 104.44 36.79 L 104.59 36.59 L 104.74 36.39 L 104.89 36.19 L 105.04 35.99 L 105.19 35.79 L 105.34 35.60 L 105.49 35.41 L 105.65 35.23 L 105.80 35.04 L 105.95 34.86 L 106.10 34.69 L 106.25 34.51 L 106.40 34.34 L 106.55 34.17 L 106.70 34.00 L 106.85 33.84 L 107.01 33.68 L 107.16 33.52 L 107.31 33.36 L 107.46 33.21 L 107.61 33.06 L 107.76 32.91 L 107.91 32.77 L 108.06 32.63 L 108.22 32.49 L 108.37 32.35 L 108.52 32.22 L 108.67 32.09 L 108.82 31.96 L 108.97 31.84 L 109.12 31.71 L 109.27 31.59 L 109.43 31.48 L 109.58 31.36 L 109.73 31.25 L 109.88 31.14 L 110.03 31.04 L 110.18 30.93 L 110.33 30.83 L 110.48 30.74 L 110.63 30.64 L 110.79 30.55 L 110.94 30.46 L 111.09 30.37 L 111.24 30.29 L 111.39 30.21 L 111.54 30.13 L 111.69 30.05 L 111.84 29.98 L 112.00 29.91 L 112.15 29.84 L 112.30 29.78 L 112.45 29.72 L 112.60 29.66 L 112.75 29.60 L 112.90 29.54 L 113.05 29.49 L 113.21 29.44 L 113.36 29.40 L 113.51 29.35 L 113.66 29.31 L 113.81 29.27 L 113.96 29.23 L 114.11 29.20 L 114.26 29.17 L 114.41 29.14 L 114.57 29.11 L 114.72 29.09 L 114.87 29.07 L 115.02 29.05 L 115.17 29.03 L 115.32 29.02 L 115.47 29.01 L 115.62 29.00 L 115.78 28.99 L 115.93 28.99 L 116.08 28.99 L 116.23 28.99 L 116.38 28.99 L 116.53 29.00 L 116.68 29.01 L 116.83 29.02 L 116.98 29.03 L 117.14 29.05 L 117.29 29.06 L 117.44 29.08 L 117.59 29.11 L 117.74 29.13 L 117.89 29.16 L 118.04 29.19 L 118.19 29.22 L 118.35 29.25 L 118.50 29.29 L 118.65 29.33 L 118.80 29.37 L 118.95 29.41 L 119.10 29.46 L 119.25 29.50 L 119.40 29.55 L 119.56 29.60 L 119.71 29.66 L 119.86 29.71 L 120.01 29.77 L 120.16 29.83 L 120.31 29.89 L 120.46 29.95 L 120.61 30.02 L 120.76 30.09 L 120.92 30.16 L 121.07 30.23 L 121.22 30.30 L 121.37 30.38 L 121.52 30.46 L 121.67 30.54 L 121.82 30.62 L 121.97 30.70 L 122.13 30.79 L 122.28 30.88 L 122.43 30.96 L 122.58 31.06 L 122.73 31.15 L 122.88 31.24 L 123.03 31.34 L 123.18 31.44 L 123.34 31.54 L 123.49 31.64 L 123.64 31.74 L 123.79 31.85 L 123.94 31.95 L 124.09 32.06 L 124.24 32.17 L 124.39 32.28 L 124.54 32.40 L 124.70 32.51 L 124.85 32.63 L 125.00 32.75 L 125.15 32.86 L 125.30 32.99 L 125.45 33.11 L 125.60 33.23 L 125.75 33.36 L 125.91 33.48 L 126.06 33.61 L 126.21 33.74 L 126.36 33.87 L 126.51 34.00 L 126.66 34.14 L 126.81 34.27 L 126.96 34.41 L 127.12 34.55 L 127.27 34.69 L 127.42 34.83 L 127.57 34.97 L 127.72 35.11 L 127.87 35.25 L 128.02 35.40 L 128.17 35.55 L 128.32 35.69 L 128.48 35.84 L 128.63 35.99 L 128.78 36.14 L 128.93 36.29 L 129.08 36.44 L 129.23 36.60 L 129.38 36.75 L 129.53 36.91 L 129.69 37.07 L 129.84 37.22 L 129.99 37.38 L 130.14 37.54 L 130.29 37.70 L 130.44 37.86 L 130.59 38.02 L 130.74 38.19 L 130.89 38.35 L 131.05 38.51 L 131.20 38.68 L 131.35 38.84 L 131.50 39.01 L 131.65 39.18 L 131.80 39.35 L 131.95 39.51 L 132.10 39.68 L 132.26 39.85 L 132.41 40.02 L 132.56 40.19 L 132.71 40.36 L 132.86 40.54 L 133.01 40.71 L 133.16 40.88 L 133.31 41.06 L 133.47 41.23 L 133.62 41.40 L 133.77 41.58 L 133.92 41.75 L 134.07 41.93 L 134.22 42.10 L 134.37 42.28 L 134.52 42.46 L 134.67 42.63 L 134.83 42.81 L 134.98 42.99 L 135.13 43.16 L 135.28 43.34 L 135.43 43.52 L 135.58 43.70 L 135.73 43.88 L 135.88 44.05 L 136.04 44.23 L 136.19 44.41 L 136.34 44.59 L 136.49 44.77 L 136.64 44.95 L 136.79 45.13 L 136.94 45.30 L 137.09 45.48 L 137.25 45.66 L 137.40 45.84 L 137.55 46.02 L 137.70 46.20 L 137.85 46.37 L 138.00 46.55 L 138.15 46.73 L 138.30 46.91 L 138.45 47.08 L 138.61 47.26 L 138.76 47.44 L 138.91 47.62 L 139.06 47.79 L 139.21 47.97 L 139.36 48.14 L 139.51 48.32 L 139.66 48.49 L 139.82 48.67 L 139.97 48.84 L 140.12 49.02 L 140.27 49.19 L 140.42 49.36 L 140.57 49.54 L 140.72 49.71 L 140.87 49.88 L 141.03 50.05 L 141.18 50.22 L 141.33 50.39 L 141.48 50.56 L 141.63 50.73 L 141.78 50.90 L 141.93 51.06 L 142.08 51.23 L 142.23 51.40 L 142.39 51.56 L 142.54 51.73 L 142.69 51.89 L 142.84 52.05 L 142.99 52.22 L 143.14 52.38 L 143.29 52.54 L 143.44 52.70 L 143.60 52.86 L 143.75 53.02 L 143.90 53.17 L 144.05 53.33 L 144.20 53.49 L 144.35 53.64 L 144.50 53.80 L 144.65 53.95 L 144.80 54.10 L 144.96 54.25 L 145.11 54.40 L 145.26 54.55 L 145.41 54.70 L 145.56 54.85 L 145.71 54.99 L 145.86 55.14 L 146.01 55.28 L 146.17 55.43 L 146.32 55.57 L 146.47 55.71 L 146.62 55.85 L 146.77 55.99 L 146.92 56.12 L 147.07 56.26 L 147.22 56.39 L 147.38 56.53 L 147.53 56.66 L 147.68 56.79 L 147.83 56.92 L 147.98 57.05 L 148.13 57.18 L 148.28 57.31 L 148.43 57.43 L 148.58 57.55 L 148.74 57.68 L 148.89 57.80 L 149.04 57.92 L 149.19 58.04 L 149.34 58.15 L 149.49 58.27 L 149.64 58.38 L 149.79 58.50 L 149.95 58.61 L 150.10 58.72 L 150.25 58.83 L 150.40 58.93 L 150.55 59.04 L 150.70 59.14 L 150.85 59.25 L 151.00 59.35 L 151.16 59.45 L 151.31 59.55 L 151.46 59.64 L 151.61 59.74 L 151.76 59.83 L 151.91 59.93 L 152.06 60.02 L 152.21 60.11 L 152.36 60.19 L 152.52 60.28 L 152.67 60.36 L 152.82 60.45 L 152.97 60.53 L 153.12 60.61 L 153.27 60.69 L 153.42 60.76 L 153.57 60.84 L 153.73 60.91 L 153.88 60.98 L 154.03 61.05 L 154.18 61.12 L 154.33 61.19 L 154.48 61.25 L 154.63 61.31 L 154.78 61.38 L 154.93 61.44 L 155.09 61.49 L 155.24 61.55 L 155.39 61.60 L 155.54 61.66 L 155.69 61.71 L 155.84 61.76 L 155.99 61.81 L 156.14 61.85 L 156.30 61.90 L 156.45 61.94 L 156.60 61.98 L 156.75 62.02 L 156.90 62.06 L 157.05 62.09 L 157.20 62.13 L 157.35 62.16 L 157.51 62.19 L 157.66 62.22 L 157.81 62.24 L 157.96 62.27 L 158.11 62.29 L 158.26 62.31 L 158.41 62.33 L 158.56 62.35 L 158.71 62.37 L 158.87 62.38 L 159.02 62.39 L 159.17 62.41 L 159.32 62.41 L 159.47 62.42 L 159.62 62.43 L 159.77 62.43 L 159.92 62.43 L 160.08 62.43 L 160.23 62.43 L 160.38 62.43 L 160.53 62.42 L 160.68 62.41 L 160.83 62.41 L 160.98 62.39 L 161.13 62.38 L 161.29 62.37 L 161.44 62.35 L 161.59 62.33 L 161.74 62.31 L 161.89 62.29 L 162.04 62.27 L 162.19 62.24 L 162.34 62.22 L 162.49 62.19 L 162.65 62.16 L 162.80 62.13 L 162.95 62.09 L 163.10 62.06 L 163.25 62.02 L 163.40 61.98 L 163.55 61.94 L 163.70 61.90 L 163.86 61.85 L 164.01 61.81 L 164.16 61.76 L 164.31 61.71 L 164.46 61.66 L 164.61 61.60 L 164.76 61.55 L 164.91 61.49 L 165.07 61.44 L 165.22 61.38 L 165.37 61.31 L 165.52 61.25 L 165.67 61.19 L 165.82 61.12 L 165.97 61.05 L 166.12 60.98 L 166.27 60.91 L 166.43 60.84 L 166.58 60.76 L 166.73 60.69 L 166.88 60.61 L 167.03 60.53 L 167.18 60.45 L 167.33 60.36 L 167.48 60.28 L 167.64 60.19 L 167.79 60.11 L 167.94 60.02 L 168.09 59.93 L 168.24 59.83 L 168.39 59.74 L 168.54 59.64 L 168.69 59.55 L 168.84 59.45 L 169.00 59.35 L 169.15 59.25 L 169.30 59.14 L 169.45 59.04 L 169.60 58.93 L 169.75 58.83 L 169.90 58.72 L 170.05 58.61 L 170.21 58.50 L 170.36 58.38 L 170.51 58.27 L 170.66 58.15 L 170.81 58.04 L 170.96 57.92 L 171.11 57.80 L 171.26 57.68 L 171.42 57.55 L 171.57 57.43 L 171.72 57.31 L 171.87 57.18 L 172.02 57.05 L 172.17 56.92 L 172.32 56.79 L 172.47 56.66 L 172.62 56.53 L 172.78 56.39 L 172.93 56.26 L 173.08 56.12 L 173.23 55.99 L 173.38 55.85 L 173.53 55.71 L 173.68 55.57 L 173.83 55.43 L 173.99 55.28 L 174.14 55.14 L 174.29 54.99 L 174.44 54.85 L 174.59 54.70 L 174.74 54.55 L 174.89 54.40 L 175.04 54.25 L 175.20 54.10 L 175.35 53.95 L 175.50 53.80 L 175.65 53.64 L 175.80 53.49 L 175.95 53.33 L 176.10 53.17 L 176.25 53.02 L 176.40 52.86 L 176.56 52.70 L 176.71 52.54 L 176.86 52.38 L 177.01 52.22 L 177.16 52.05 L 177.31 51.89 L 177.46 51.73 L 177.61 51.56 L 177.77 51.40 L 177.92 51.23 L 178.07 51.06 L 178.22 50.90 L 178.37 50.73 L 178.52 50.56 L 178.67 50.39 L 178.82 50.22 L 178.97 50.05 L 179.13 49.88 L 179.28 49.71 L 179.43 49.54 L 179.58 49.36 L 179.73 49.19 L 179.88 49.02 L 180.03 48.84 L 180.18 48.67 L 180.34 48.49 L 180.49 48.32 L 180.64 48.14 L 180.79 47.97 L 180.94 47.79 L 181.09 47.62 L 181.24 47.44 L 181.39 47.26 L 181.55 47.08 L 181.70 46.91 L 181.85 46.73 L 182.00 46.55 L 182.15 46.37 L 182.30 46.20 L 182.45 46.02 L 182.60 45.84 L 182.75 45.66 L 182.91 45.48 L 183.06 45.30 L 183.21 45.13 L 183.36 44.95 L 183.51 44.77 L 183.66 44.59 L 183.81 44.41 L 183.96 44.23 L 184.12 44.05 L 184.27 43.88 L 184.42 43.70 L 184.57 43.52 L 184.72 43.34 L 184.87 43.16 L 185.02 42.99 L 185.17 42.81 L 185.33 42.63 L 185.48 42.46 L 185.63 42.28 L 185.78 42.10 L 185.93 41.93 L 186.08 41.75 L 186.23 41.58 L 186.38 41.40 L 186.53 41.23 L 186.69 41.06 L 186.84 40.88 L 186.99 40.71 L 187.14 40.54 L 187.29 40.36 L 187.44 40.19 L 187.59 40.02 L 187.74 39.85 L 187.90 39.68 L 188.05 39.51 L 188.20 39.35 L 188.35 39.18 L 188.50 39.01 L 188.65 38.84 L 188.80 38.68 L 188.95 38.51 L 189.11 38.35 L 189.26 38.19 L 189.41 38.02 L 189.56 37.86 L 189.71 37.70 L 189.86 37.54 L 190.01 37.38 L 190.16 37.22 L 190.31 37.07 L 190.47 36.91 L 190.62 36.75 L 190.77 36.60 L 190.92 36.44 L 191.07 36.29 L 191.22 36.14 L 191.37 35.99 L 191.52 35.84 L 191.68 35.69 L 191.83 35.55 L 191.98 35.40 L 192.13 35.25 L 192.28 35.11 L 192.43 34.97 L 192.58 34.83 L 192.73 34.69 L 192.88 34.55 L 193.04 34.41 L 193.19 34.27 L 193.34 34.14 L 193.49 34.00 L 193.64 33.87 L 193.79 33.74 L 193.94 33.61 L 194.09 33.48 L 194.25 33.36 L 194.40 33.23 L 194.55 33.11 L 194.70 32.99 L 194.85 32.86 L 195.00 32.75 L 195.15 32.63 L 195.30 32.51 L 195.46 32.40 L 195.61 32.28 L 195.76 32.17 L 195.91 32.06 L 196.06 31.95 L 196.21 31.85 L 196.36 31.74 L 196.51 31.64 L 196.66 31.54 L 196.82 31.44 L 196.97 31.34 L 197.12 31.24 L 197.27 31.15 L 197.42 31.06 L 197.57 30.96 L 197.72 30.88 L 197.87 30.79 L 198.03 30.70 L 198.18 30.62 L 198.33 30.54 L 198.48 30.46 L 198.63 30.38 L 198.78 30.30 L 198.93 30.23 L 199.08 30.16 L 199.24 30.09 L 199.39 30.02 L 199.54 29.95 L 199.69 29.89 L 199.84 29.83 L 199.99 29.77 L 200.14 29.71 L 200.29 29.66 L 200.44 29.60 L 200.60 29.55 L 200.75 29.50 L 200.90 29.46 L 201.05 29.41 L 201.20 29.37 L 201.35 29.33 L 201.50 29.29 L 201.65 29.25 L 201.81 29.22 L 201.96 29.19 L 202.11 29.16 L 202.26 29.13 L 202.41 29.11 L 202.56 29.08 L 202.71 29.06 L 202.86 29.05 L 203.02 29.03 L 203.17 29.02 L 203.32 29.01 L 203.47 29.00 L 203.62 28.99 L 203.77 28.99 L 203.92 28.99 L 204.07 28.99 L 204.22 28.99 L 204.38 29.00 L 204.53 29.01 L 204.68 29.02 L 204.83 29.03 L 204.98 29.05 L 205.13 29.07 L 205.28 29.09 L 205.43 29.11 L 205.59 29.14 L 205.74 29.17 L 205.89 29.20 L 206.04 29.23 L 206.19 29.27 L 206.34 29.31 L 206.49 29.35 L 206.64 29.40 L 206.79 29.44 L 206.95 29.49 L 207.10 29.54 L 207.25 29.60 L 207.40 29.66 L 207.55 29.72 L 207.70 29.78 L 207.85 29.84 L 208.00 29.91 L 208.16 29.98 L 208.31 30.05 L 208.46 30.13 L 208.61 30.21 L 208.76 30.29 L 208.91 30.37 L 209.06 30.46 L 209.21 30.55 L 209.37 30.64 L 209.52 30.74 L 209.67 30.83 L 209.82 30.93 L 209.97 31.04 L 210.12 31.14 L 210.27 31.25 L 210.42 31.36 L 210.57 31.48 L 210.73 31.59 L 210.88 31.71 L 211.03 31.84 L 211.18 31.96 L 211.33 32.09 L 211.48 32.22 L 211.63 32.35 L 211.78 32.49 L 211.94 32.63 L 212.09 32.77 L 212.24 32.91 L 212.39 33.06 L 212.54 33.21 L 212.69 33.36 L 212.84 33.52 L 212.99 33.68 L 213.15 33.84 L 213.30 34.00 L 213.45 34.17 L 213.60 34.34 L 213.75 34.51 L 213.90 34.69 L 214.05 34.86 L 214.20 35.04 L 214.35 35.23 L 214.51 35.41 L 214.66 35.60 L 214.81 35.79 L 214.96 35.99 L 215.11 36.19 L 215.26 36.39 L 215.41 36.59 L 215.56 36.79 L 215.72 37.00 L 215.87 37.21 L 216.02 37.43 L 216.17 37.64 L 216.32 37.86 L 216.47 38.08 L 216.62 38.31 L 216.77 38.54 L 216.92 38.77 L 217.08 39.00 L 217.23 39.24 L 217.38 39.47 L 217.53 39.71 L 217.68 39.96 L 217.83 40.20 L 217.98 40.45 L 218.13 40.71 L 218.29 40.96 L 218.44 41.22 L 218.59 41.48 L 218.74 41.74 L 218.89 42.00 L 219.04 42.27 L 219.19 42.54 L 219.34 42.82 L 219.50 43.09 L 219.65 43.37 L 219.80 43.65 L 219.95 43.93 L 220.10 44.22 L 220.25 44.51 L 220.40 44.80 L 220.55 45.09 L 220.70 45.39 L 220.86 45.69 L 221.01 45.99 L 221.16 46.29 L 221.31 46.60 L 221.46 46.91 L 221.61 47.22 L 221.76 47.53 L 221.91 47.85 L 222.07 48.16 L 222.22 48.49 L 222.37 48.81 L 222.52 49.13 L 222.67 49.46 L 222.82 49.79 L 222.97 50.13 L 223.12 50.46 L 223.28 50.80 L 223.43 51.14 L 223.58 51.48 L 223.73 51.82 L 223.88 52.17 L 224.03 52.52 L 224.18 52.87 L 224.33 53.22 L 224.48 53.58 L 224.64 53.94 L 224.79 54.30 L 224.94 54.66 L 225.09 55.02 L 225.24 55.39 L 225.39 55.76 L 225.54 56.13 L 225.69 56.50 L 225.85 56.88 L 226.00 57.25 L 226.15 57.63 L 226.30 58.01 L 226.45 58.40 L 226.60 58.78 L 226.75 59.17 L 226.90 59.56 L 227.06 59.95 L 227.21 60.34 L 227.36 60.73 L 227.51 61.13 L 227.66 61.53 L 227.81 61.93 L 227.96 62.33 L 228.11 62.74 L 228.26 63.14 L 228.42 63.55 L 228.57 63.96 L 228.72 64.37 L 228.87 64.78 L 229.02 65.19 L 229.17 65.61 L 229.32 66.03 L 229.47 66.45 L 229.63 66.87 L 229.78 67.29 L 229.93 67.71 L 230.08 68.14 L 230.23 68.57 L 230.38 68.99 L 230.53 69.42 L 230.68 69.85 L 230.83 70.29 L 230.99 70.72 L 231.14 71.16 L 231.29 71.59 L 231.44 72.03 L 231.59 72.47 L 231.74 72.91 L 231.89 73.35 L 232.04 73.80 L 232.20 74.24 L 232.35 74.69 L 232.50 75.13 L 232.65 75.58 L 232.80 76.03 L 232.95 76.48 L 233.10 76.93 L 233.25 77.38 L 233.41 77.84 L 233.56 78.29 L 233.71 78.74 L 233.86 79.20 L 234.01 79.66 L 234.16 80.12 L 234.31 80.57 L 234.46 81.03 L 234.61 81.49 L 234.77 81.95 L 234.92 82.42 L 235.07 82.88 L 235.22 83.34 L 235.37 83.81 L 235.52 84.27 L 235.67 84.74 L 235.82 85.20 L 235.98 85.67 L 236.13 86.13 L 236.28 86.60 L 236.43 87.07 L 236.58 87.54 L 236.73 88.01 L 236.88 88.48 L 237.03 88.95 L 237.19 89.42 L 237.34 89.89 L 237.49 90.36 L 237.64 90.83 L 237.79 91.30 L 237.94 91.77 L 238.09 92.24 L 238.24 92.71 L 238.39 93.18 L 238.55 93.66 L 238.70 94.13 L 238.85 94.60 L 239.00 95.07 L 239.15 95.54 L 239.30 96.01 L 239.45 96.49 L 239.60 96.96 L 239.76 97.43 L 239.91 97.90 L 240.06 98.37 L 240.21 98.84 L 240.36 99.31 L 240.51 99.78 L 240.66 100.25 L 240.81 100.72 L 240.96 101.19 L 241.12 101.66 L 241.27 102.13 L 241.42 102.60 L 241.57 103.06 L 241.72 103.53 L 241.87 104.00 L 242.02 104.46 L 242.17 104.93 L 242.33 105.39 L 242.48 105.86 L 242.63 106.32 L 242.78 106.78 L 242.93 107.24 L 243.08 107.70 L 243.23 108.16 L 243.38 108.62 L 243.54 109.08 L 243.69 109.54 L 243.84 109.99 L 243.99 110.45 L 244.14 110.90 L 244.29 111.36 L 244.44 111.81 L 244.59 112.26 L 244.74 112.71 L 244.90 113.16 L 245.05 113.61 L 245.20 114.05 L 245.35 114.50 L 245.50 114.94 L 245.65 115.38 L 245.80 115.82 L 245.95 116.26 L 246.11 116.70 L 246.26 117.14 L 246.41 117.57 L 246.56 118.01 L 246.71 118.44 L 246.86 118.87 L 247.01 119.30 L 247.16 119.73 L 247.32 120.15 L 247.47 120.58 L 247.62 121.00 L 247.77 121.42 L 247.92 121.84 L 248.07 122.26 L 248.22 122.67 L 248.37 123.08 L 248.52 123.50 L 248.68 123.90 L 248.83 124.31 L 248.98 124.72 L 249.13 125.12 L 249.28 125.52 L 249.43 125.92 L 249.58 126.32 L 249.73 126.71 L 249.89 127.11 L 250.04 127.50 L 250.19 127.89 L 250.34 128.27 L 250.49 128.66 L 250.64 129.04 L 250.79 129.42 L 250.94 129.79 L 251.10 130.17 L 251.25 130.54 L 251.40 130.91 L 251.55 131.28 L 251.70 131.64 L 251.85 132.00 L 252.00 132.36 L 252.15 132.72 L 252.30 133.07 L 252.46 133.43 L 252.61 133.77 L 252.76 134.12 L 252.91 134.46 L 253.06 134.80 L 253.21 135.14 L 253.36 135.48 L 253.51 135.81 L 253.67 136.14 L 253.82 136.46 L 253.97 136.79 L 254.12 137.11 L 254.27 137.43 L 254.42 137.74 L 254.57 138.05 L 254.72 138.36 L 254.87 138.66 L 255.03 138.97 L 255.18 139.26 L 255.33 139.56 L 255.48 139.85 L 255.63 140.14 L 255.78 140.43 L 255.93 140.71 L 256.08 140.99 L 256.24 141.26 L 256.39 141.54 L 256.54 141.81 L 256.69 142.07 L 256.84 142.33 L 256.99 142.59 L 257.14 142.85 L 257.29 143.10 L 257.45 143.35 L 257.60 143.59 L 257.75 143.83 L 257.90 144.07 L 258.05 144.30 L 258.20 144.53 L 258.35 144.76 L 258.50 144.98 L 258.65 145.20 L 258.81 145.41 L 258.96 145.63 L 259.11 145.83 L 259.26 146.04 L 259.41 146.24 L 259.56 146.43 L 259.71 146.62 L 259.86 146.81 L 260.02 147.00 L 260.17 147.18 L 260.32 147.35 L 260.47 147.53 L 260.62 147.69 L 260.77 147.86 L 260.92 148.02 L 261.07 148.17 L 261.23 148.33 L 261.38 148.47 L 261.53 148.62 L 261.68 148.76 L 261.83 148.89 L 261.98 149.02 L 262.13 149.15 L 262.28 149.27 L 262.43 149.39 L 262.59 149.50 L 262.74 149.61 L 262.89 149.72 L 263.04 149.82 L 263.19 149.92 L 263.34 150.01 L 263.49 150.10 L 263.64 150.18 L 263.80 150.26 L 263.95 150.33 L 264.10 150.40 L 264.25 150.47 L 264.40 150.53 L 264.55 150.59 L 264.70 150.64 L 264.85 150.69 L 265.01 150.73 L 265.16 150.77 L 265.31 150.80 L 265.46 150.83 L 265.61 150.86 L 265.76 150.88 L 265.91 150.90 L 266.06 150.91 L 266.21 150.91 L 266.37 150.91 L 266.52 150.91 L 266.67 150.90 L 266.82 150.89 L 266.97 150.87 L 267.12 150.85 L 267.27 150.83 L 267.42 150.80 L 267.58 150.76 L 267.73 150.72 L 267.88 150.67 L 268.03 150.62 L 268.18 150.57 L 268.33 150.51 L 268.48 150.44 L 268.63 150.37 L 268.78 150.30 L 268.94 150.22 L 269.09 150.14 L 269.24 150.05 L 269.39 149.95 L 269.54 149.85 L 269.69 149.75 L 269.84 149.64 L 269.99 149.53 L 270.15 149.41 L 270.30 149.29 L 270.45 149.16 L 270.60 149.03 L 270.75 148.89 L 270.90 148.75 L 271.05 148.60 L 271.20 148.44 L 271.36 148.29 L 271.51 148.12 L 271.66 147.96 L 271.81 147.78 L 271.96 147.61 L 272.11 147.43 L 272.26 147.24 L 272.41 147.05 L 272.56 146.85 L 272.72 146.65 L 272.87 146.44 L 273.02 146.23 L 273.17 146.01 L 273.32 145.79 L 273.47 145.56 L 273.62 145.33 L 273.77 145.09 L 273.93 144.85 L 274.08 144.60 L 274.23 144.35 L 274.38 144.09 L 274.53 143.83 L 274.68 143.57 L 274.83 143.29 L 274.98 143.02 L 275.14 142.74 L 275.29 142.45 L 275.44 142.16 L 275.59 141.86 L 275.74 141.56 L 275.89 141.26 L 276.04 140.94 L 276.19 140.63 L 276.34 140.31 L 276.50 139.98 L 276.65 139.65 L 276.80 139.32 L 276.95 138.97 L 277.10 138.63 L 277.25 138.28 L 277.40 137.92 L 277.55 137.56 L 277.71 137.20 L 277.86 136.83 L 278.01 136.46 L 278.16 136.08 L 278.31 135.69 L 278.46 135.30 L 278.61 134.91 L 278.76 134.51 L 278.91 134.11 L 279.07 133.70 L 279.22 133.29 L 279.37 132.87 L 279.52 132.45 L 279.67 132.02 L 279.82 131.59 L 279.97 131.15 L 280.12 130.71 L 280.28 130.27 L 280.43 129.82 L 280.58 129.36 L 280.73 128.90 L 280.88 128.44 L 281.03 127.97 L 281.18 127.49 L 281.33 127.02 L 281.49 126.53 L 281.64 126.05 L 281.79 125.56 L 281.94 125.06 L 282.09 124.56 L 282.24 124.05 L 282.39 123.54 L 282.54 123.03 L 282.69 122.51 L 282.85 121.99 L 283.00 121.46 L 283.15 120.93 L 283.30 120.40 L 283.45 119.86 L 283.60 119.31 L 283.75 118.76 L 283.90 118.21 L 284.06 117.65 L 284.21 117.09 L 284.36 116.53 L 284.51 115.96 L 284.66 115.38 L 284.81 114.80 L 284.96 114.22 L 285.11 113.64 L 285.27 113.05 L 285.42 112.45 L 285.57 111.85 L 285.72 111.25 L 285.87 110.64 L 286.02 110.03 L 286.17 109.42 L 286.32 108.80 L 286.47 108.18 L 286.63 107.55 L 286.78 106.92 L 286.93 106.29 L 287.08 105.65 L 287.23 105.01 L 287.38 104.37 L 287.53 103.72 L 287.68 103.07 L 287.84 102.41 L 287.99 101.75 L 288.14 101.09 L 288.29 100.42 L 288.44 99.75 L 288.59 99.08 L 288.74 98.40 L 288.89 97.72 L 289.05 97.04 L 289.20 96.35 L 289.35 95.66 L 289.50 94.96 L 289.65 94.27 L 289.80 93.57 L 289.95 92.86 L 290.10 92.16 L 290.25 91.45 L 290.41 90.73 L 290.56 90.02 L 290.71 89.30 L 290.86 88.57 L 291.01 87.85 L 291.16 87.12 L 291.31 86.39 L 291.46 85.65 L 291.62 84.92 L 291.77 84.18 L 291.92 83.43 L 292.07 82.69 L 292.22 81.94 L 292.37 81.19 L 292.52 80.43 L 292.67 79.68 L 292.82 78.92 L 292.98 78.15 L 293.13 77.39 L 293.28 76.62 L 293.43 75.85 L 293.58 75.08 L 293.73 74.31 L 293.88 73.53 L 294.03 72.75 L 294.19 71.97 L 294.34 71.19 L 294.49 70.40 L 294.64 69.61 L 294.79 68.82 L 294.94 68.03 L 295.09 67.24 L 295.24 66.44 L 295.40 65.64 L 295.55 64.84 L 295.70 64.04 L 295.85 63.24 L 296.00 62.43" fill="none" stroke="#5F6B7A" stroke-width="2.5" stroke-linecap="round" stroke-linejoin="round"/>
</svg>
