<svg xmlns="http://www.w3.org/2000/svg" viewBox="0 0 320 180" width="320" height="180">
  <rect width="320" height="180" fill="#F4F5F7"/>
  <path d="M 18.00 145.38 L 18.32 144.65 L 18.63 143.91 L 18.95 143.17 L 19.26 142.43 L 19.58 141.69 L 19.90 140.95 L 20.21 140.21 L 20.53 139.47 L 20.84 138.73 L 21.16 137.99 L 21.47 137.25 L 21.79 136.51 L 22.11 135.77 L 22.42 135.03 L 22.74 134.30 L 23.05 133.56 L 23.37 132.82 L 23.69 132.08 L 24.00 131.34 L 24.32 130.60 L 24.63 129.86 L 24.95 129.12 L 25.27 128.38 L 25.58 127.64 L 25.90 126.90 L 26.21 126.16 L 26.53 125.42 L 26.85 124.68 L 27.16 123.95 L 27.48 123.21 L 27.79 122.47 L 28.11 121.73 L 28.42 120.99 L 28.74 120.25 L 29.06 119.51 L 29.37 118.77 L 29.69 118.03 L 30.00 117.29 L 30.32 116.55 L 30.64 115.81 L 30.95 115.07 L 31.27 114.33 L 31.58 113.60 L 31.90 112.86 L 32.22 112.12 L 32.53 111.38 L 32.85 110.64 L 33.16 109.90 L 33.48 109.16 L 33.80 108.42 L 34.11 107.68 L 34.43 106.94 L 34.74 106.20 L 35.06 105.46 L 35.37 104.72 L 35.69 103.98 L 36.01 103.25 L 36.32 102.51 L 36.64 101.77 L 36.95 101.03 L 37.27 100.29 L 37.59 99.55 L 37.90 98.81 L 38.22 98.07 L 38.53 97.33 L 38.85 96.59 L 39.17 95.85 L 39.48 95.11 L 39.80 94.37 L 40.11 93.63 L 40.43 92.90 L 40.75 92.16 L 41.06 91.42 L 41.38 90.68 L 41.69 89.94 L 42.01 89.20 L 42.32 88.46 L 42.64 87.72 L 42.96 86.98 L 43.27 86.24 L 43.59 85.50 L 43.90 84.76 L 44.22 84.02 L 44.54 83.28 L 44.85 82.55 L 45.17 81.81 L 45.48 81.07 L 45.80 80.33 L 46.12 79.59 L 46.43 78.85 L 46.75 78.11 L 47.06 77.37 L 47.38 76.63 L 47.70 75.89 L 48.01 75.15 L 48.33 74.41 L 48.64 73.67 L 48.96 72.93 L 49.27 72.20 L 49.59 71.46 L 49.91 70.72 L 50.22 69.98 L 50.54 69.24 L 50.85 68.50 L 51.17 67.76 L 51.49 67.02 L 51.80 66.28 L 52.12 65.54 L 52.43 64.80 L 52.75 64.06 L 53.07 63.32 L 53.38 62.58 L 53.70 61.85 L 54.01 61.11 L 54.33 60.37 L 54.65 59.63 L 54.96 58.89 L 55.28 58.15 L 55.59 57.41 L 55.91 56.67 L 56.22 55.93 L 56.54 55.19 L 56.86 54.45 L 57.17 53.71 L 57.49 52.97 L 57.80 52.23 L 58.12 51.50 L 58.44 50.76 L 58.75 50.02 L 59.07 49.28 L 59.38 48.54 L 59.70 47.80 L 60.02 47.06 L 60.33 46.32 L 60.65 45.58 L 60.96 44.84 L 61.28 44.10 L 61.60 43.36 L 61.91 42.62" fill="none" stroke="#7E8692" stroke-width="2.3" stroke-linecap="round" stroke-linejoin="round"/>
  <path d="M 68.86 137.13 L 69.18 136.39 L 69.49 135.65 L 69.81 134.91 L 70.12 134.17 L 70.44 133.43 L 70.76 132.69 L 71.07 131.95 L 71.39 131.22 L 71.70 130.48 L 72.02 129.74 L 72.34 129.00 L 72.65 128.26 L 72.97 127.52 L 73.28 126.78 L 73.60 126.04 L 73.92 125.30 L 74.23 124.56 L 74.55 123.82 L 74.86 123.08 L 75.18 122.34 L 75.49 121.60 L 75.81 120.87 L 76.13 120.13 L 76.44 119.39 L 76.76 118.65 L 77.07 117.91 L 77.39 117.17 L 77.71 116.43 L 78.02 115.69 L 78.34 114.95 L 78.65 114.21 L 78.97 113.47 L 79.29 112.73 L 79.60 111.99 L 79.92 111.25 L 80.23 110.52 L 80.55 109.78 L 80.87 109.04 L 81.18 108.30 L 81.50 107.56 L 81.81 106.82 L 82.13 106.08 L 82.44 105.34 L 82.76 104.60 L 83.08 103.86 L 83.39 103.12 L 83.71 102.38 L 84.02 101.64 L 84.34 100.90 L 84.66 100.17 L 84.97 99.43 L 85.29 98.69 L 85.60 97.95 L 85.92 97.21 L 86.24 96.47 L 86.55 95.73 L 86.87 94.99 L 87.18 94.25 L 87.50 93.51 L 87.82 92.77 L 88.13 92.03 L 88.45 91.29 L 88.76 90.55 L 89.08 89.82 L 89.39 89.08 L 89.71 88.34 L 90.03 87.60 L 90.34 86.86 L 90.66 86.12 L 90.97 85.38 L 91.29 84.64 L 91.61 83.90 L 91.92 83.16 L 92.24 82.42 L 92.55 81.68 L 92.87 80.94 L 93.19 80.20 L 93.50 79.47 L 93.82 78.73 L 94.13 77.99 L 94.45 77.25 L 94.77 76.51 L 95.08 75.77 L 95.40 75.03 L 95.71 74.29 L 96.03 73.55 L 96.34 72.81 L 96.66 72.07 L 96.98 71.33 L 97.29 70.59 L 97.61 69.85 L 97.92 69.12 L 98.24 68.38 L 98.56 67.64 L 98.87 66.90 L 99.19 66.16 L 99.50 65.42 L 99.82 64.68 L 100.14 63.94 L 100.45 63.20 L 100.77 62.46 L 101.08 61.72 L 101.40 60.98 L 101.72 60.24 L 102.03 59.50 L 102.35 58.77 L 102.66 58.03 L 102.98 57.29 L 103.29 56.55 L 103.61 55.81 L 103.93 55.07 L 104.24 54.33 L 104.56 53.59 L 104.87 52.85 L 105.19 52.11 L 105.51 51.37 L 105.82 50.63 L 106.14 49.89 L 106.45 49.15 L 106.77 48.42 L 107.09 47.68 L 107.40 46.94 L 107.72 46.20 L 108.03 45.46 L 108.35 44.72 L 108.67 43.98 L 108.98 43.24" fill="none" stroke="#7E8692" stroke-width="2.3" stroke-linecap="round" stroke-linejoin="round"/>
  <path d="M 116.25 137.01 L 116.56 136.27 L 116.88 135.53 L 117.19 134.79 L 117.51 134.05 L 117.83 133.31 L 118.14 132.57 L 118.46 131.83 L 118.77 131.09 L 119.09 130.35 L 119.41 129.61 L 119.72 128.87 L 120.04 128.13 L 120.35 127.40 L 120.67 126.66 L 120.99 125.92 L 121.30 125.18 L 121.62 124.44 L 121.93 123.70 L 122.25 122.96 L 122.57 122.22 L 122.88 121.48 L 123.20 120.74 L 123.51 120.00 L 123.83 119.26 L 124.14 118.52 L 124.46 117.78 L 124.78 117.05 L 125.09 116.31 L 125.41 115.57 L 125.72 114.83 L 126.04 114.09 L 126.36 113.35 L 126.67 112.61 L 126.99 111.87 L 127.30 111.13 L 127.62 110.39 L 127.94 109.65 L 128.25 108.91 L 128.57 108.17 L 128.88 107.43 L 129.20 106.70 L 129.52 105.96 L 129.83 105.22 L 130.15 104.48 L 130.46 103.74 L 130.78 103.00 L 131.09 102.26 L 131.41 101.52 L 131.73 100.78 L 132.04 100.04 L 132.36 99.30 L 132.67 98.56 L 132.99 97.82 L 133.31 97.08 L 133.62 96.35 L 133.94 95.61 L 134.25 94.87 L 134.57 94.13 L 134.89 93.39 L 135.20 92.65 L 135.52 91.91 L 135.83 91.17 L 136.15 90.43 L 136.46 89.69 L 136.78 88.95 L 137.10 88.21 L 137.41 87.47 L 137.73 86.73 L 138.04 86.00 L 138.36 85.26 L 138.68 84.52 L 138.99 83.78 L 139.31 83.04 L 139.62 82.30 L 139.94 81.56 L 140.26 80.82 L 140.57 80.08 L 140.89 79.34 L 141.20 78.60 L 141.52 77.86 L 141.84 77.12 L 142.15 76.38 L 142.47 75.65 L 142.78 74.91 L 143.10 74.17 L 143.41 73.43 L 143.73 72.69 L 144.05 71.95 L 144.36 71.21 L 144.68 70.47 L 144.99 69.73 L 145.31 68.99 L 145.63 68.25 L 145.94 67.51 L 146.26 66.77 L 146.57 66.03 L 146.89 65.30 L 147.21 64.56 L 147.52 63.82 L 147.84 63.08 L 148.15 62.34 L 148.47 61.60 L 148.79 60.86 L 149.10 60.12 L 149.42 59.38 L 149.73 58.64 L 150.05 57.90 L 150.36 57.16 L 150.68 56.42 L 151.00 55.68 L 151.31 54.95 L 151.63 54.21 L 151.94 53.47 L 152.26 52.73 L 152.58 51.99 L 152.89 51.25 L 153.21 50.51 L 153.52 49.77 L 153.84 49.03 L 154.16 48.29 L 154.47 47.55 L 154.79 46.81 L 155.10 46.07 L 155.42 45.33 L 155.74 44.60 L 156.05 43.86 L 156.37 43.12" fill="none" stroke="#7E8692" stroke-width="2.3" stroke-linecap="round" stroke-linejoin="round"/>
  <path d="M 163.63 136.88 L 163.95 136.14 L 164.26 135.40 L 164.58 134.67 L 164.90 133.93 L 165.21 133.19 L 165.53 132.45 L 165.84 131.71 L 166.16 130.97 L 166.48 130.23 L 166.79 129.49 L 167.11 128.75 L 167.42 128.01 L 167.74 127.27 L 168.06 126.53 L 168.37 125.79 L 168.69 125.05 L 169.00 124.32 L 169.32 123.58 L 169.64 122.84 L 169.95 122.10 L 170.27 121.36 L 170.58 120.62 L 170.90 119.88 L 171.21 119.14 L 171.53 118.40 L 171.85 117.66 L 172.16 116.92 L 172.48 116.18 L 172.79 115.44 L 173.11 114.70 L 173.43 113.97 L 173.74 113.23 L 174.06 112.49 L 174.37 111.75 L 174.69 111.01 L 175.01 110.27 L 175.32 109.53 L 175.64 108.79 L 175.95 108.05 L 176.27 107.31 L 176.59 106.57 L 176.90 105.83 L 177.22 105.09 L 177.53 104.35 L 177.85 103.62 L 178.16 102.88 L 178.48 102.14 L 178.80 101.40 L 179.11 100.66 L 179.43 99.92 L 179.74 99.18 L 180.06 98.44 L 180.38 97.70 L 180.69 96.96 L 181.01 96.22 L 181.32 95.48 L 181.64 94.74 L 181.96 94.00 L 182.27 93.27 L 182.59 92.53 L 182.90 91.79 L 183.22 91.05 L 183.54 90.31 L 183.85 89.57 L 184.17 88.83 L 184.48 88.09 L 184.80 87.35 L 185.11 86.61 L 185.43 85.87 L 185.75 85.13 L 186.06 84.39 L 186.38 83.65 L 186.69 82.92 L 187.01 82.18 L 187.33 81.44 L 187.64 80.70 L 187.96 79.96 L 188.27 79.22 L 188.59 78.48 L 188.91 77.74 L 189.22 77.00 L 189.54 76.26 L 189.85 75.52 L 190.17 74.78 L 190.48 74.04 L 190.80 73.30 L 191.12 72.57 L 191.43 71.83 L 191.75 71.09 L 192.06 70.35 L 192.38 69.61 L 192.70 68.87 L 193.01 68.13 L 193.33 67.39 L 193.64 66.65 L 193.96 65.91 L 194.28 65.17 L 194.59 64.43 L 194.91 63.69 L 195.22 62.95 L 195.54 62.22 L 195.86 61.48 L 196.17 60.74 L 196.49 60.00 L 196.80 59.26 L 197.12 58.52 L 197.43 57.78 L 197.75 57.04 L 198.07 56.30 L 198.38 55.56 L 198.70 54.82 L 199.01 54.08 L 199.33 53.34 L 199.65 52.60 L 199.96 51.87 L 200.28 51.13 L 200.59 50.39 L 200.91 49.65 L 201.23 48.91 L 201.54 48.17 L 201.86 47.43 L 202.17 46.69 L 202.49 45.95 L 202.81 45.21 L 203.12 44.47 L 203.44 43.73 L 203.75 42.99" fill="none" stroke="#7E8692" stroke-width="2.3" stroke-linecap="round" stroke-linejoin="round"/>
  <path d="M 211.02 136.76 L 211.33 136.02 L 211.65 135.28 L 211.97 134.54 L 212.28 133.80 L 212.60 133.06 L 212.91 132.32 L 213.23 131.58 L 213.55 130.85 L 213.86 130.11 L 214.18 129.37 L 214.49 128.63 L 214.81 127.89 L 215.13 127.15 L 215.44 126.41 L 215.76 125.67 L 216.07 124.93 L 216.39 124.19 L 216.71 123.45 L 217.02 122.71 L 217.34 121.97 L 217.65 121.23 L 217.97 120.50 L 218.28 119.76 L 218.60 119.02 L 218.92 118.28 L 219.23 117.54 L 219.55 116.80 L 219.86 116.06 L 220.18 115.32 L 220.50 114.58 L 220.81 113.84 L 221.13 113.10 L 221.44 112.36 L 221.76 111.62 L 222.08 110.88 L 222.39 110.15 L 222.71 109.41 L 223.02 108.67 L 223.34 107.93 L 223.66 107.19 L 223.97 106.45 L 224.29 105.71 L 224.60 104.97 L 224.92 104.23 L 225.23 103.49 L 225.55 102.75 L 225.87 102.01 L 226.18 101.27 L 226.50 100.53 L 226.81 99.80 L 227.13 99.06 L 227.45 98.32 L 227.76 97.58 L 228.08 96.84 L 228.39 96.10 L 228.71 95.36 L 229.03 94.62 L 229.34 93.88 L 229.66 93.14 L 229.97 92.40 L 230.29 91.66 L 230.61 90.92 L 230.92 90.18 L 231.24 89.45 L 231.55 88.71 L 231.87 87.97 L 232.18 87.23 L 232.50 86.49 L 232.82 85.75 L 233.13 85.01 L 233.45 84.27 L 233.76 83.53 L 234.08 82.79 L 234.40 82.05 L 234.71 81.31 L 235.03 80.57 L 235.34 79.83 L 235.66 79.10 L 235.98 78.36 L 236.29 77.62 L 236.61 76.88 L 236.92 76.14 L 237.24 75.40 L 237.56 74.66 L 237.87 73.92 L 238.19 73.18 L 238.50 72.44 L 238.82 71.70 L 239.13 70.96 L 239.45 70.22 L 239.77 69.48 L 240.08 68.75 L 240.40 68.01 L 240.71 67.27 L 241.03 66.53 L 241.35 65.79 L 241.66 65.05 L 241.98 64.31 L 242.29 63.57 L 242.61 62.83 L 242.93 62.09 L 243.24 61.35 L 243.56 60.61 L 243.87 59.87 L 244.19 59.13 L 244.51 58.40 L 244.82 57.66 L 245.14 56.92 L 245.45 56.18 L 245.77 55.44 L 246.08 54.70 L 246.40 53.96 L 246.72 53.22 L 247.03 52.48 L 247.35 51.74 L 247.66 51.00 L 247.98 50.26 L 248.30 49.52 L 248.61 48.78 L 248.93 48.05 L 249.24 47.31 L 249.56 46.57 L 249.88 45.83 L 250.19 45.09 L 250.51 44.35 L 250.82 43.61 L 251.14 42.87" fill="none" stroke="#7E8692" stroke-width="2.3" stroke-linecap="round" stroke-linejoin="round"/>
  <path d="M 258.09 137.38 L 258.40 136.64 L 258.72 135.90 L 259.04 135.16 L 259.35 134.42 L 259.67 133.68 L 259.98 132.94 L 260.30 132.20 L 260.62 131.46 L 260.93 130.72 L 261.25 129.98 L 261.56 129.24 L 261.88 128.50 L 262.20 127.77 L 262.51 127.03 L 262.83 126.29 L 263.14 125.55 L 263.46 124.81 L 263.78 124.07 L 264.09 123.33 L 264.41 122.59 L 264.72 121.85 L 265.04 121.11 L 265.35 120.37 L 265.67 119.63 L 265.99 118.89 L 266.30 118.15 L 266.62 117.42 L 266.93 116.68 L 267.25 115.94 L 267.57 115.20 L 267.88 114.46 L 268.20 113.72 L 268.51 112.98 L 268.83 112.24 L 269.15 111.50 L 269.46 110.76 L 269.78 110.02 L 270.09 109.28 L 270.41 108.54 L 270.73 107.80 L 271.04 107.07 L 271.36 106.33 L 271.67 105.59 L 271.99 104.85 L 272.30 104.11 L 272.62 103.37 L 272.94 102.63 L 273.25 101.89 L 273.57 101.15 L 273.88 100.41 L 274.20 99.67 L 274.52 98.93 L 274.83 98.19 L 275.15 97.45 L 275.46 96.72 L 275.78 95.98 L 276.10 95.24 L 276.41 94.50 L 276.73 93.76 L 277.04 93.02 L 277.36 92.28 L 277.68 91.54 L 277.99 90.80 L 278.31 90.06 L 278.62 89.32 L 278.94 88.58 L 279.25 87.84 L 279.57 87.10 L 279.89 86.37 L 280.20 85.63 L 280.52 84.89 L 280.83 84.15 L 281.15 83.41 L 281.47 82.67 L 281.78 81.93 L 282.10 81.19 L 282.41 80.45 L 282.73 79.71 L 283.05 78.97 L 283.36 78.23 L 283.68 77.49 L 283.99 76.75 L 284.31 76.02 L 284.63 75.28 L 284.94 74.54 L 285.26 73.80 L 285.57 73.06 L 285.89 72.32 L 286.20 71.58 L 286.52 70.84 L 286.84 70.10 L 287.15 69.36 L 287.47 68.62 L 287.78 67.88 L 288.10 67.14 L 288.42 66.40 L 288.73 65.67 L 289.05 64.93 L 289.36 64.19 L 289.68 63.45 L 290.00 62.71 L 290.31 61.97 L 290.63 61.23 L 290.94 60.49 L 291.26 59.75 L 291.58 59.01 L 291.89 58.27 L 292.21 57.53 L 292.52 56.79 L 292.84 56.05 L 293.15 55.32 L 293.47 54.58 L 293.79 53.84 L 294.10 53.10 L 294.42 52.36 L 294.73 51.62 L 295.05 50.88 L 295.37 50.14 L 295.68 49.40 L 296.00 48.66 L 296.31 47.92 L 296.63 47.18 L 296.95 46.44 L 297.26 45.70 L 297.58 44.97 L 297.89 44.23 L 298.21 43.49 L 298.53 42.75 L 298.84 42.01 L 299.16 41.27 L 299.47 40.53 L 299.79 39.79 L 300.10 39.05 L 300.42 38.31 L 300.74 37.57 L 301.05 36.83 L 301.37 36.09 L 301.68 35.35 L 302.00 145.38" fill="none" stroke="#7E8692" stroke-width="2.3" stroke-linecap="round" stroke-linejoin="round"/>
</svg>
