<svg xmlns="http://www.w3.org/2000/svg" viewBox="0 0 320 180" width="320" height="180">
  <rect width="320" height="180" fill="#F4F5F7"/>
  <path d="M 24.00 135.80 L 24.19 135.70 L 24.39 135.59 L 24.58 135.49 L 24.78 135.39 L 24.97 135.29 L 25.17 135.18 L 25.36 135.08 L 25.56 134.98 L 25.75 134.89 L 25.94 134.79 L 26.14 134.69 L 26.33 134.59 L 26.53 134.49 L 26.72 134.40 L 26.92 134.30 L 27.11 134.21 L 27.31 134.11 L 27.50 134.02 L 27.69 133.92 L 27.89 133.83 L 28.08 133.74 L 28.28 133.65 L 28.47 133.56 L 28.67 133.47 L 28.86 133.38 L 29.06 133.29 L 29.25 133.20 L 29.44 133.11 L 29.64 133.02 L 29.83 132.93 L 30.03 132.85 L 30.22 132.76 L 30.42 132.68 L 30.61 132.59 L 30.80 132.51 L 31.00 132.42 L 31.19 132.34 L 31.39 132.26 L 31.58 132.17 L 31.78 132.09 L 31.97 132.01 L 32.17 131.93 L 32.36 131.85 L 32.55 131.77 L 32.75 131.69 L 32.94 131.62 L 33.14 131.54 L 33.33 131.46 L 33.53 131.39 L 33.72 131.31 L 33.92 131.24 L 34.11 131.16 L 34.30 131.09 L 34.50 131.01 L 34.69 130.94 L 34.89 130.87 L 35.08 130.80 L 35.28 130.73 L 35.47 130.66 L 35.67 130.59 L 35.86 130.52 L 36.05 130.45 L 36.25 130.38 L 36.44 130.31 L 36.64 130.24 L 36.83 130.18 L 37.03 130.11 L 37.22 130.05 L 37.42 129.98 L 37.61 129.92 L 37.80 129.85 L 38.00 129.79 L 38.19 129.73 L 38.39 129.67 L 38.58 129.61 L 38.78 129.54 L 38.97 129.48 L 39.17 129.42 L 39.36 129.37 L 39.55 129.31 L 39.75 129.25 L 39.94 129.19 L 40.14 129.13 L 40.33 129.08 L 40.53 129.02 L 40.72 128.97 L 40.91 128.91 L 41.11 128.86 L 41.30 128.80 L 41.50 128.75 L 41.69 128.70 L 41.89 128.65 L 42.08 128.60 L 42.28 128.55 L 42.47 128.49 L 42.66 128.44 L 42.86 128.40 L 43.05 128.35 L 43.25 128.30 L 43.44 128.25 L 43.64 128.20 L 43.83 128.16 L 44.03 128.11 L 44.22 128.07 L 44.41 128.02 L 44.61 127.98 L 44.80 127.93 L 45.00 127.89 L 45.19 127.84 L 45.39 127.80 L 45.58 127.76 L 45.78 127.72 L 45.97 127.68 L 46.16 127.64 L 46.36 127.60 L 46.55 127.56 L 46.75 127.52 L 46.94 127.48 L 47.14 127.44 L 47.33 127.40 L 47.53 127.37 L 47.72 127.33 L 47.91 127.30 L 48.11 127.26 L 48.30 127.22 L 48.50 127.19 L 48.69 127.16 L 48.89 127.12 L 49.08 127.09 L 49.28 127.06 L 49.47 127.02 L 49.66 126.99 L 49.86 126.96 L 50.05 126.93 L 50.25 126.90 L 50.44 126.87 L 50.64 126.84 L 50.83 126.81 L 51.03 126.78 L 51.22 126.75 L 51.41 126.73 L 51.61 126.70 L 51.80 126.67 L 52.00 126.64 L 52.19 126.62 L 52.39 126.59 L 52.58 126.57 L 52.77 126.54 L 52.97 126.52 L 53.16 126.49 L 53.36 126.47 L 53.55 126.45 L 53.75 126.43 L 53.94 126.40 L 54.14 126.38 L 54.33 126.36 L 54.52 126.34 L 54.72 126.32 L 54.91 126.30 L 55.11 126.28 L 55.30 126.26 L 55.50 126.24 L 55.69 126.22 L 55.89 126.20 L 56.08 126.18 L 56.27 126.16 L 56.47 126.15 L 56.66 126.13 L 56.86 126.11 L 57.05 126.10 L 57.25 126.08 L 57.44 126.07 L 57.64 126.05 L 57.83 126.04 L 58.02 126.02 L 58.22 126.01 L 58.41 125.99 L 58.61 125.98 L 58.80 125.97 L 59.00 125.95 L 59.19 125.94 L 59.39 125.93 L 59.58 125.91 L 59.77 125.90 L 59.97 125.89 L 60.16 125.88 L 60.36 125.87 L 60.55 125.86 L 60.75 125.85 L 60.94 125.84 L 61.14 125.83 L 61.33 125.82 L 61.52 125.81 L 61.72 125.80 L 61.91 125.79 L 62.11 125.78 L 62.30 125.78 L 62.50 125.77 L 62.69 125.76 L 62.88 125.75 L 63.08 125.75 L 63.27 125.74 L 63.47 125.73 L 63.66 125.72 L 63.86 125.72 L 64.05 125.71 L 64.25 125.71 L 64.44 125.70 L 64.63 125.70 L 64.83 125.69 L 65.02 125.69 L 65.22 125.68 L 65.41 125.68 L 65.61 125.67 L 65.80 125.67 L 66.00 125.66 L 66.19 125.66 L 66.38 125.66 L 66.58 125.65 L 66.77 125.65 L 66.97 125.65 L 67.16 125.64 L 67.36 125.64 L 67.55 125.64 L 67.75 125.63 L 67.94 125.63 L 68.13 125.63 L 68.33 125.63 L 68.52 125.63 L 68.72 125.62 L 68.91 125.62 L 69.11 125.62 L 69.30 125.62 L 69.50 125.62 L 69.69 125.62 L 69.88 125.61 L 70.08 125.61 L 70.27 125.61 L 70.47 125.61 L 70.66 125.61 L 70.86 125.61 L 71.05 125.61 L 71.25 125.61 L 71.44 125.61 L 71.63 125.61 L 71.83 125.61 L 72.02 125.61 L 72.22 125.61 L 72.41 125.61 L 72.61 125.61 L 72.80 125.61 L 72.99 125.61 L 73.19 125.60 L 73.38 125.60 L 73.58 125.60 L 73.77 125.60 L 73.97 125.60 L 74.16 125.60 L 74.36 125.60 L 74.55 125.60 L 74.74 125.60 L 74.94 125.60 L 75.13 125.60 L 75.33 125.60 L 75.52 125.60 L 75.72 125.60 L 75.91 125.60 L 76.11 125.60 L 76.30 125.60 L 76.49 125.60 L 76.69 125.60 L 76.88 125.60 L 77.08 125.60 L 77.27 125.60 L 77.47 125.60 L 77.66 125.60 L 77.86 125.60 L 78.05 125.60 L 78.24 125.60 L 78.44 125.60 L 78.63 125.60 L 78.83 125.60 L 79.02 125.60 L 79.22 125.60 L 79.41 125.59 L 79.61 125.59 L 79.80 125.59 L 79.99 125.59 L 80.19 125.59 L 80.38 125.59 L 80.58 125.58 L 80.77 125.58 L 80.97 125.58 L 81.16 125.58 L 81.36 125.58 L 81.55 125.57 L 81.74 125.57 L 81.94 125.57 L 82.13 125.56 L 82.33 125.56 L 82.52 125.56 L 82.72 125.55 L 82.91 125.55 L 83.11 125.55 L 83.30 125.54 L 83.49 125.54 L 83.69 125.53 L 83.88 125.53 L 84.08 125.52 L 84.27 125.52 L 84.47 125.51 L 84.66 125.51 L 84.85 125.50 L 85.05 125.50 L 85.24 125.49 L 85.44 125.48 L 85.63 125.48 L 85.83 125.47 L 86.02 125.46 L 86.22 125.46 L 86.41 125.45 L 86.60 125.44 L 86.80 125.43 L 86.99 125.43 L 87.19 125.42 L 87.38 125.41 L 87.58 125.40 L 87.77 125.39 L 87.97 125.38 L 88.16 125.37 L 88.35 125.36 L 88.55 125.35 L 88.74 125.34 L 88.94 125.33 L 89.13 125.32 L 89.33 125.31 L 89.52 125.29 L 89.72 125.28 L 89.91 125.27 L 90.10 125.26 L 90.30 125.24 L 90.49 125.23 L 90.69 125.22 L 90.88 125.20 L 91.08 125.19 L 91.27 125.17 L 91.47 125.16 L 91.66 125.14 L 91.85 125.13 L 92.05 125.11 L 92.24 125.10 L 92.44 125.08 L 92.63 125.06 L 92.83 125.04 L 93.02 125.03 L 93.22 125.01 L 93.41 124.99 L 93.60 124.97 L 93.80 124.95 L 93.99 124.93 L 94.19 124.91 L 94.38 124.89 L 94.58 124.87 L 94.77 124.85 L 94.96 124.83 L 95.16 124.81 L 95.35 124.78 L 95.55 124.76 L 95.74 124.74 L 95.94 124.71 L 96.13 124.69 L 96.33 124.67 L 96.52 124.64 L 96.71 124.62 L 96.91 124.59 L 97.10 124.56 L 97.30 124.54 L 97.49 124.51 L 97.69 124.48 L 97.88 124.46 L 98.08 124.43 L 98.27 124.40 L 98.46 124.37 L 98.66 124.34 L 98.85 124.31 L 99.05 124.28 L 99.24 124.25 L 99.44 124.22 L 99.63 124.19 L 99.83 124.15 L 100.02 124.12 L 100.21 124.09 L 100.41 124.05 L 100.60 124.02 L 100.80 123.98 L 100.99 123.95 L 101.19 123.91 L 101.38 123.88 L 101.58 123.84 L 101.77 123.80 L 101.96 123.77 L 102.16 123.73 L 102.35 123.69 L 102.55 123.65 L 102.74 123.61 L 102.94 123.57 L 103.13 123.53 L 103.33 123.49 L 103.52 123.45 L 103.71 123.41 L 103.91 123.36 L 104.10 123.32 L 104.30 123.28 L 104.49 123.23 L 104.69 123.19 L 104.88 123.14 L 105.08 123.10 L 105.27 123.05 L 105.46 123.01 L 105.66 122.96 L 105.85 122.91 L 106.05 122.86 L 106.24 122.81 L 106.44 122.76 L 106.63 122.71 L 106.82 122.66 L 107.02 122.61 L 107.21 122.56 L 107.41 122.51 L 107.60 122.46 L 107.80 122.40 L 107.99 122.35 L 108.19 122.30 L 108.38 122.24 L 108.57 122.19 L 108.77 122.13 L 108.96 122.07 L 109.16 122.02 L 109.35 121.96 L 109.55 121.90 L 109.74 121.84 L 109.94 121.78 L 110.13 121.72 L 110.32 121.66 L 110.52 121.60 L 110.71 121.54 L 110.91 121.48 L 111.10 121.42 L 111.30 121.35 L 111.49 121.29 L 111.69 121.23 L 111.88 121.16 L 112.07 121.10 L 112.27 121.03 L 112.46 120.96 L 112.66 120.90 L 112.85 120.83 L 113.05 120.76 L 113.24 120.69 L 113.44 120.62 L 113.63 120.55 L 113.82 120.48 L 114.02 120.41 L 114.21 120.34 L 114.41 120.27 L 114.60 120.19 L 114.80 120.12 L 114.99 120.05 L 115.19 119.97 L 115.38 119.90 L 115.57 119.82 L 115.77 119.75 L 115.96 119.67 L 116.16 119.59 L 116.35 119.51 L 116.55 119.44 L 116.74 119.36 L 116.93 119.28 L 117.13 119.20 L 117.32 119.12 L 117.52 119.03 L 117.71 118.95 L 117.91 118.87 L 118.10 118.79 L 118.30 118.70 L 118.49 118.62 L 118.68 118.53 L 118.88 118.45 L 119.07 118.36 L 119.27 118.27 L 119.46 118.19 L 119.66 118.10 L 119.85 118.01 L 120.05 117.92 L 120.24 117.83 L 120.43 117.74 L 120.63 117.65 L 120.82 117.56 L 121.02 117.47 L 121.21 117.38 L 121.41 117.28 L 121.60 117.19 L 121.80 117.10 L 121.99 117.00 L 122.18 116.91 L 122.38 116.81 L 122.57 116.71 L 122.77 116.62 L 122.96 116.52 L 123.16 116.42 L 123.35 116.32 L 123.55 116.22 L 123.74 116.12 L 123.93 116.02 L 124.13 115.92 L 124.32 115.82 L 124.52 115.72 L 124.71 115.62 L 124.91 115.51 L 125.10 115.41 L 125.30 115.30 L 125.49 115.20 L 125.68 115.09 L 125.88 114.99 L 126.07 114.88 L 126.27 114.77 L 126.46 114.67 L 126.66 114.56 L 126.85 114.45 L 127.05 114.34 L 127.24 114.23 L 127.43 114.12 L 127.63 114.01 L 127.82 113.90 L 128.02 113.79 L 128.21 113.67 L 128.41 113.56 L 128.60 113.45 L 128.79 113.33 L 128.99 113.22 L 129.18 113.10 L 129.38 112.99 L 129.57 112.87 L 129.77 112.76 L 129.96 112.64 L 130.16 112.52 L 130.35 112.40 L 130.54 112.28 L 130.74 112.16 L 130.93 112.05 L 131.13 111.92 L 131.32 111.80 L 131.52 111.68 L 131.71 111.56 L 131.91 111.44 L 132.10 111.32 L 132.29 111.19 L 132.49 111.07 L 132.68 110.94 L 132.88 110.82 L 133.07 110.69 L 133.27 110.57 L 133.46 110.44 L 133.66 110.32 L 133.85 110.19 L 134.04 110.06 L 134.24 109.93 L 134.43 109.80 L 134.63 109.68 L 134.82 109.55 L 135.02 109.42 L 135.21 109.29 L 135.41 109.16 L 135.60 109.02 L 135.79 108.89 L 135.99 108.76 L 136.18 108.63 L 136.38 108.49 L 136.57 108.36 L 136.77 108.23 L 136.96 108.09 L 137.16 107.96 L 137.35 107.82 L 137.54 107.69 L 137.74 107.55 L 137.93 107.41 L 138.13 107.28 L 138.32 107.14 L 138.52 107.00 L 138.71 106.86 L 138.90 106.72 L 139.10 106.59 L 139.29 106.45 L 139.49 106.31 L 139.68 106.17 L 139.88 106.02 L 140.07 105.88 L 140.27 105.74 L 140.46 105.60 L 140.65 105.46 L 140.85 105.32 L 141.04 105.17 L 141.24 105.03 L 141.43 104.89 L 141.63 104.74 L 141.82 104.60 L 142.02 104.45 L 142.21 104.31 L 142.40 104.16 L 142.60 104.02 L 142.79 103.87 L 142.99 103.72 L 143.18 103.58 L 143.38 103.43 L 143.57 103.28 L 143.77 103.13 L 143.96 102.99 L 144.15 102.84 L 144.35 102.69 L 144.54 102.54 L 144.74 102.39 L 144.93 102.24 L 145.13 102.09 L 145.32 101.94 L 145.52 101.79 L 145.71 101.64 L 145.90 101.49 L 146.10 101.34 L 146.29 101.18 L 146.49 101.03 L 146.68 100.88 L 146.88 100.73 L 147.07 100.57 L 147.27 100.42 L 147.46 100.27 L 147.65 100.11 L 147.85 99.96 L 148.04 99.81 L 148.24 99.65 L 148.43 99.50 L 148.63 99.34 L 148.82 99.19 L 149.02 99.03 L 149.21 98.88 L 149.40 98.72 L 149.60 98.56 L 149.79 98.41 L 149.99 98.25 L 150.18 98.09 L 150.38 97.94 L 150.57 97.78 L 150.76 97.62 L 150.96 97.46 L 151.15 97.31 L 151.35 97.15 L 151.54 96.99 L 151.74 96.83 L 151.93 96.67 L 152.13 96.52 L 152.32 96.36 L 152.51 96.20 L 152.71 96.04 L 152.90 95.88 L 153.10 95.72 L 153.29 95.56 L 153.49 95.40 L 153.68 95.24 L 153.88 95.08 L 154.07 94.92 L 154.26 94.76 L 154.46 94.60 L 154.65 94.44 L 154.85 94.28 L 155.04 94.12 L 155.24 93.96 L 155.43 93.80 L 155.63 93.64 L 155.82 93.48 L 156.01 93.32 L 156.21 93.15 L 156.40 92.99 L 156.60 92.83 L 156.79 92.67 L 156.99 92.51 L 157.18 92.35 L 157.38 92.19 L 157.57 92.02 L 157.76 91.86 L 157.96 91.70 L 158.15 91.54 L 158.35 91.38 L 158.54 91.21 L 158.74 91.05 L 158.93 90.89 L 159.13 90.73 L 159.32 90.57 L 159.51 90.41 L 159.71 90.24 L 159.90 90.08 L 160.10 89.92 L 160.29 89.76 L 160.49 89.59 L 160.68 89.43 L 160.87 89.27 L 161.07 89.11 L 161.26 88.95 L 161.46 88.79 L 161.65 88.62 L 161.85 88.46 L 162.04 88.30 L 162.24 88.14 L 162.43 87.98 L 162.62 87.81 L 162.82 87.65 L 163.01 87.49 L 163.21 87.33 L 163.40 87.17 L 163.60 87.01 L 163.79 86.85 L 163.99 86.68 L 164.18 86.52 L 164.37 86.36 L 164.57 86.20 L 164.76 86.04 L 164.96 85.88 L 165.15 85.72 L 165.35 85.56 L 165.54 85.40 L 165.74 85.24 L 165.93 85.08 L 166.12 84.92 L 166.32 84.76 L 166.51 84.60 L 166.71 84.44 L 166.90 84.28 L 167.10 84.12 L 167.29 83.96 L 167.49 83.80 L 167.68 83.64 L 167.87 83.48 L 168.07 83.33 L 168.26 83.17 L 168.46 83.01 L 168.65 82.85 L 168.85 82.69 L 169.04 82.54 L 169.24 82.38 L 169.43 82.22 L 169.62 82.06 L 169.82 81.91 L 170.01 81.75 L 170.21 81.59 L 170.40 81.44 L 170.60 81.28 L 170.79 81.12 L 170.98 80.97 L 171.18 80.81 L 171.37 80.66 L 171.57 80.50 L 171.76 80.35 L 171.96 80.19 L 172.15 80.04 L 172.35 79.89 L 172.54 79.73 L 172.73 79.58 L 172.93 79.43 L 173.12 79.27 L 173.32 79.12 L 173.51 78.97 L 173.71 78.82 L 173.90 78.66 L 174.10 78.51 L 174.29 78.36 L 174.48 78.21 L 174.68 78.06 L 174.87 77.91 L 175.07 77.76 L 175.26 77.61 L 175.46 77.46 L 175.65 77.31 L 175.85 77.16 L 176.04 77.01 L 176.23 76.87 L 176.43 76.72 L 176.62 76.57 L 176.82 76.42 L 177.01 76.28 L 177.21 76.13 L 177.40 75.98 L 177.60 75.84 L 177.79 75.69 L 177.98 75.55 L 178.18 75.40 L 178.37 75.26 L 178.57 75.11 L 178.76 74.97 L 178.96 74.83 L 179.15 74.68 L 179.35 74.54 L 179.54 74.40 L 179.73 74.26 L 179.93 74.12 L 180.12 73.98 L 180.32 73.83 L 180.51 73.69 L 180.71 73.55 L 180.90 73.41 L 181.10 73.28 L 181.29 73.14 L 181.48 73.00 L 181.68 72.86 L 181.87 72.72 L 182.07 72.59 L 182.26 72.45 L 182.46 72.31 L 182.65 72.18 L 182.84 72.04 L 183.04 71.91 L 183.23 71.77 L 183.43 71.64 L 183.62 71.51 L 183.82 71.37 L 184.01 71.24 L 184.21 71.11 L 184.40 70.98 L 184.59 70.84 L 184.79 70.71 L 184.98 70.58 L 185.18 70.45 L 185.37 70.32 L 185.57 70.20 L 185.76 70.07 L 185.96 69.94 L 186.15 69.81 L 186.34 69.68 L 186.54 69.56 L 186.73 69.43 L 186.93 69.31 L 187.12 69.18 L 187.32 69.06 L 187.51 68.93 L 187.71 68.81 L 187.90 68.68 L 188.09 68.56 L 188.29 68.44 L 188.48 68.32 L 188.68 68.20 L 188.87 68.08 L 189.07 67.95 L 189.26 67.84 L 189.46 67.72 L 189.65 67.60 L 189.84 67.48 L 190.04 67.36 L 190.23 67.24 L 190.43 67.13 L 190.62 67.01 L 190.82 66.90 L 191.01 66.78 L 191.21 66.67 L 191.40 66.55 L 191.59 66.44 L 191.79 66.33 L 191.98 66.21 L 192.18 66.10 L 192.37 65.99 L 192.57 65.88 L 192.76 65.77 L 192.95 65.66 L 193.15 65.55 L 193.34 65.44 L 193.54 65.33 L 193.73 65.23 L 193.93 65.12 L 194.12 65.01 L 194.32 64.91 L 194.51 64.80 L 194.70 64.70 L 194.90 64.59 L 195.09 64.49 L 195.29 64.38 L 195.48 64.28 L 195.68 64.18 L 195.87 64.08 L 196.07 63.98 L 196.26 63.88 L 196.45 63.78 L 196.65 63.68 L 196.84 63.58 L 197.04 63.48 L 197.23 63.38 L 197.43 63.29 L 197.62 63.19 L 197.82 63.09 L 198.01 63.00 L 198.20 62.90 L 198.40 62.81 L 198.59 62.72 L 198.79 62.62 L 198.98 62.53 L 199.18 62.44 L 199.37 62.35 L 199.57 62.26 L 199.76 62.17 L 199.95 62.08 L 200.15 61.99 L 200.34 61.90 L 200.54 61.81 L 200.73 61.73 L 200.93 61.64 L 201.12 61.55 L 201.32 61.47 L 201.51 61.38 L 201.70 61.30 L 201.90 61.21 L 202.09 61.13 L 202.29 61.05 L 202.48 60.97 L 202.68 60.88 L 202.87 60.80 L 203.07 60.72 L 203.26 60.64 L 203.45 60.56 L 203.65 60.49 L 203.84 60.41 L 204.04 60.33 L 204.23 60.25 L 204.43 60.18 L 204.62 60.10 L 204.81 60.03 L 205.01 59.95 L 205.20 59.88 L 205.40 59.81 L 205.59 59.73 L 205.79 59.66 L 205.98 59.59 L 206.18 59.52 L 206.37 59.45 L 206.56 59.38 L 206.76 59.31 L 206.95 59.24 L 207.15 59.17 L 207.34 59.10 L 207.54 59.04 L 207.73 58.97 L 207.93 58.90 L 208.12 58.84 L 208.31 58.77 L 208.51 58.71 L 208.70 58.65 L 208.90 58.58 L 209.09 58.52 L 209.29 58.46 L 209.48 58.40 L 209.68 58.34 L 209.87 58.28 L 210.06 58.22 L 210.26 58.16 L 210.45 58.10 L 210.65 58.04 L 210.84 57.98 L 211.04 57.93 L 211.23 57.87 L 211.43 57.81 L 211.62 57.76 L 211.81 57.70 L 212.01 57.65 L 212.20 57.60 L 212.40 57.54 L 212.59 57.49 L 212.79 57.44 L 212.98 57.39 L 213.18 57.34 L 213.37 57.29 L 213.56 57.24 L 213.76 57.19 L 213.95 57.14 L 214.15 57.09 L 214.34 57.04 L 214.54 56.99 L 214.73 56.95 L 214.92 56.90 L 215.12 56.86 L 215.31 56.81 L 215.51 56.77 L 215.70 56.72 L 215.90 56.68 L 216.09 56.64 L 216.29 56.59 L 216.48 56.55 L 216.67 56.51 L 216.87 56.47 L 217.06 56.43 L 217.26 56.39 L 217.45 56.35 L 217.65 56.31 L 217.84 56.27 L 218.04 56.23 L 218.23 56.20 L 218.42 56.16 L 218.62 56.12 L 218.81 56.09 L 219.01 56.05 L 219.20 56.02 L 219.40 55.98 L 219.59 55.95 L 219.79 55.91 L 219.98 55.88 L 220.17 55.85 L 220.37 55.81 L 220.56 55.78 L 220.76 55.75 L 220.95 55.72 L 221.15 55.69 L 221.34 55.66 L 221.54 55.63 L 221.73 55.60 L 221.92 55.57 L 222.12 55.54 L 222.31 55.52 L 222.51 55.49 L 222.70 55.46 L 222.90 55.44 L 223.09 55.41 L 223.29 55.38 L 223.48 55.36 L 223.67 55.33 L 223.87 55.31 L 224.06 55.29 L 224.26 55.26 L 224.45 55.24 L 224.65 55.22 L 224.84 55.19 L 225.04 55.17 L 225.23 55.15 L 225.42 55.13 L 225.62 55.11 L 225.81 55.09 L 226.01 55.07 L 226.20 55.05 L 226.40 55.03 L 226.59 55.01 L 226.78 54.99 L 226.98 54.97 L 227.17 54.96 L 227.37 54.94 L 227.56 54.92 L 227.76 54.90 L 227.95 54.89 L 228.15 54.87 L 228.34 54.86 L 228.53 54.84 L 228.73 54.83 L 228.92 54.81 L 229.12 54.80 L 229.31 54.78 L 229.51 54.77 L 229.70 54.76 L 229.90 54.74 L 230.09 54.73 L 230.28 54.72 L 230.48 54.71 L 230.67 54.69 L 230.87 54.68 L 231.06 54.67 L 231.26 54.66 L 231.45 54.65 L 231.65 54.64 L 231.84 54.63 L 232.03 54.62 L 232.23 54.61 L 232.42 54.60 L 232.62 54.59 L 232.81 54.58 L 233.01 54.57 L 233.20 54.57 L 233.40 54.56 L 233.59 54.55 L 233.78 54.54 L 233.98 54.54 L 234.17 54.53 L 234.37 54.52 L 234.56 54.52 L 234.76 54.51 L 234.95 54.50 L 235.15 54.50 L 235.34 54.49 L 235.53 54.49 L 235.73 54.48 L 235.92 54.48 L 236.12 54.47 L 236.31 54.47 L 236.51 54.46 L 236.70 54.46 L 236.89 54.45 L 237.09 54.45 L 237.28 54.45 L 237.48 54.44 L 237.67 54.44 L 237.87 54.44 L 238.06 54.43 L 238.26 54.43 L 238.45 54.43 L 238.64 54.42 L 238.84 54.42 L 239.03 54.42 L 239.23 54.42 L 239.42 54.42 L 239.62 54.41 L 239.81 54.41 L 240.01 54.41 L 240.20 54.41 L 240.39 54.41 L 240.59 54.41 L 240.78 54.40 L 240.98 54.40 L 241.17 54.40 L 241.37 54.40 L 241.56 54.40 L 241.76 54.40 L 241.95 54.40 L 242.14 54.40 L 242.34 54.40 L 242.53 54.40 L 242.73 54.40 L 242.92 54.40 L 243.12 54.40 L 243.31 54.40 L 243.51 54.40 L 243.70 54.40 L 243.89 54.40 L 244.09 54.40 L 244.28 54.40 L 244.48 54.40 L 244.67 54.40 L 244.87 54.40 L 245.06 54.40 L 245.26 54.40 L 245.45 54.40 L 245.64 54.40 L 245.84 54.40 L 246.03 54.40 L 246.23 54.40 L 246.42 54.40 L 246.62 54.40 L 246.81 54.40 L 247.01 54.39 L 247.20 54.39 L 247.39 54.39 L 247.59 54.39 L 247.78 54.39 L 247.98 54.39 L 248.17 54.39 L 248.37 54.39 L 248.56 54.39 L 248.75 54.39 L 248.95 54.39 L 249.14 54.39 L 249.34 54.39 L 249.53 54.39 L 249.73 54.39 L 249.92 54.39 L 250.12 54.39 L 250.31 54.38 L 250.50 54.38 L 250.70 54.38 L 250.89 54.38 L 251.09 54.38 L 251.28 54.38 L 251.48 54.37 L 251.67 54.37 L 251.87 54.37 L 252.06 54.37 L 252.25 54.37 L 252.45 54.36 L 252.64 54.36 L 252.84 54.36 L 253.03 54.35 L 253.23 54.35 L 253.42 54.35 L 253.62 54.34 L 253.81 54.34 L 254.00 54.34 L 254.20 54.33 L 254.39 54.33 L 254.59 54.32 L 254.78 54.32 L 254.98 54.31 L 255.17 54.31 L 255.37 54.30 L 255.56 54.30 L 255.75 54.29 L 255.95 54.29 L 256.14 54.28 L 256.34 54.28 L 256.53 54.27 L 256.73 54.26 L 256.92 54.25 L 257.12 54.25 L 257.31 54.24 L 257.50 54.23 L 257.70 54.22 L 257.89 54.22 L 258.09 54.21 L 258.28 54.20 L 258.48 54.19 L 258.67 54.18 L 258.86 54.17 L 259.06 54.16 L 259.25 54.15 L 259.45 54.14 L 259.64 54.13 L 259.84 54.12 L 260.03 54.11 L 260.23 54.10 L 260.42 54.09 L 260.61 54.07 L 260.81 54.06 L 261.00 54.05 L 261.20 54.03 L 261.39 54.02 L 261.59 54.01 L 261.78 53.99 L 261.98 53.98 L 262.17 53.96 L 262.36 53.95 L 262.56 53.93 L 262.75 53.92 L 262.95 53.90 L 263.14 53.89 L 263.34 53.87 L 263.53 53.85 L 263.73 53.84 L 263.92 53.82 L 264.11 53.80 L 264.31 53.78 L 264.50 53.76 L 264.70 53.74 L 264.89 53.72 L 265.09 53.70 L 265.28 53.68 L 265.48 53.66 L 265.67 53.64 L 265.86 53.62 L 266.06 53.60 L 266.25 53.57 L 266.45 53.55 L 266.64 53.53 L 266.84 53.51 L 267.03 53.48 L 267.23 53.46 L 267.42 53.43 L 267.61 53.41 L 267.81 53.38 L 268.00 53.36 L 268.20 53.33 L 268.39 53.30 L 268.59 53.27 L 268.78 53.25 L 268.97 53.22 L 269.17 53.19 L 269.36 53.16 L 269.56 53.13 L 269.75 53.10 L 269.95 53.07 L 270.14 53.04 L 270.34 53.01 L 270.53 52.98 L 270.72 52.94 L 270.92 52.91 L 271.11 52.88 L 271.31 52.84 L 271.50 52.81 L 271.70 52.78 L 271.89 52.74 L 272.09 52.70 L 272.28 52.67 L 272.47 52.63 L 272.67 52.60 L 272.86 52.56 L 273.06 52.52 L 273.25 52.48 L 273.45 52.44 L 273.64 52.40 L 273.84 52.36 L 274.03 52.32 L 274.22 52.28 L 274.42 52.24 L 274.61 52.20 L 274.81 52.16 L 275.00 52.11 L 275.20 52.07 L 275.39 52.02 L 275.59 51.98 L 275.78 51.93 L 275.97 51.89 L 276.17 51.84 L 276.36 51.80 L 276.56 51.75 L 276.75 51.70 L 276.95 51.65 L 277.14 51.60 L 277.34 51.56 L 277.53 51.51 L 277.72 51.45 L 277.92 51.40 L 278.11 51.35 L 278.31 51.30 L 278.50 51.25 L 278.70 51.20 L 278.89 51.14 L 279.09 51.09 L 279.28 51.03 L 279.47 50.98 L 279.67 50.92 L 279.86 50.87 L 280.06 50.81 L 280.25 50.75 L 280.45 50.69 L 280.64 50.63 L 280.83 50.58 L 281.03 50.52 L 281.22 50.46 L 281.42 50.39 L 281.61 50.33 L 281.81 50.27 L 282.00 50.21 L 282.20 50.15 L 282.39 50.08 L 282.58 50.02 L 282.78 49.95 L 282.97 49.89 L 283.17 49.82 L 283.36 49.76 L 283.56 49.69 L 283.75 49.62 L 283.95 49.55 L 284.14 49.48 L 284.33 49.41 L 284.53 49.34 L 284.72 49.27 L 284.92 49.20 L 285.11 49.13 L 285.31 49.06 L 285.50 48.99 L 285.70 48.91 L 285.89 48.84 L 286.08 48.76 L 286.28 48.69 L 286.47 48.61 L 286.67 48.54 L 286.86 48.46 L 287.06 48.38 L 287.25 48.31 L 287.45 48.23 L 287.64 48.15 L 287.83 48.07 L 288.03 47.99 L 288.22 47.91 L 288.42 47.83 L 288.61 47.74 L 288.81 47.66 L 289.00 47.58 L 289.20 47.49 L 289.39 47.41 L 289.58 47.32 L 289.78 47.24 L 289.97 47.15 L 290.17 47.07 L 290.36 46.98 L 290.56 46.89 L 290.75 46.80 L 290.94 46.71 L 291.14 46.62 L 291.33 46.53 L 291.53 46.44 L 291.72 46.35 L 291.92 46.26 L 292.11 46.17 L 292.31 46.08 L 292.50 45.98 L 292.69 45.89 L 292.89 45.79 L 293.08 45.70 L 293.28 45.60 L 293.47 45.51 L 293.67 45.41 L 293.86 45.31 L 294.06 45.21 L 294.25 45.11 L 294.44 45.02 L 294.64 44.92 L 294.83 44.82 L 295.03 44.71 L 295.22 44.61 L 295.42 44.51 L 295.61 44.41 L 295.81 44.30 L 296.00 44.20" fill="none" stroke="#7E8692" stroke-width="2.3" stroke-linecap="round" stroke-linejoin="round"/>
</svg>
