<svg xmlns="http://www.w3.org/2000/svg" viewBox="0 0 320 180" width="320" height="180">
  <rect width="320" height="180" fill="none"/>
  <path d="M 24.00 155.49 L 24.30 155.48 L 24.61 155.48 L 24.91 155.47 L 25.21 155.47 L 25.51 155.46 L 25.82 155.46 L 26.12 155.45 L 26.42 155.45 L 26.72 155.44 L 27.03 155.44 L 27.33 155.43 L 27.63 155.43 L 27.93 155.42 L 28.24 155.42 L 28.54 155.41 L 28.84 155.41 L 29.14 155.40 L 29.45 155.40 L 29.75 155.39 L 30.05 155.39 L 30.35 155.38 L 30.66 155.38 L 30.96 155.37 L 31.26 155.37 L 31.56 155.36 L 31.87 155.35 L 32.17 155.35 L 32.47 155.34 L 32.77 155.34 L 33.08 155.33 L 33.38 155.33 L 33.68 155.32 L 33.98 155.32 L 34.29 155.31 L 34.59 155.31 L 34.89 155.30 L 35.19 155.29 L 35.50 155.29 L 35.80 155.28 L 36.10 155.28 L 36.40 155.27 L 36.71 155.27 L 37.01 155.26 L 37.31 155.25 L 37.62 155.25 L 37.92 155.24 L 38.22 155.24 L 38.52 155.23 L 38.83 155.22 L 39.13 155.22 L 39.43 155.21 L 39.73 155.20 L 40.04 155.20 L 40.34 155.19 L 40.64 155.19 L 40.94 155.18 L 41.25 155.17 L 41.55 155.17 L 41.85 155.16 L 42.15 155.15 L 42.46 155.15 L 42.76 155.14 L 43.06 155.13 L 43.36 155.13 L 43.67 155.12 L 43.97 155.11 L 44.27 155.11 L 44.57 155.10 L 44.88 155.09 L 45.18 155.09 L 45.48 155.08 L 45.78 155.07 L 46.09 155.07 L 46.39 155.06 L 46.69 155.05 L 46.99 155.05 L 47.30 155.04 L 47.60 155.03 L 47.90 155.02 L 48.20 155.02 L 48.51 155.01 L 48.81 155.00 L 49.11 154.99 L 49.41 154.99 L 49.72 154.98 L 50.02 154.97 L 50.32 154.96 L 50.63 154.96 L 50.93 154.95 L 51.23 154.94 L 51.53 154.93 L 51.84 154.93 L 52.14 154.92 L 52.44 154.91 L 52.74 154.90 L 53.05 154.90 L 53.35 154.89 L 53.65 154.88 L 53.95 154.87 L 54.26 154.86 L 54.56 154.86 L 54.86 154.85 L 55.16 154.84 L 55.47 154.83 L 55.77 154.82 L 56.07 154.81 L 56.37 154.81 L 56.68 154.80 L 56.98 154.79 L 57.28 154.78 L 57.58 154.77 L 57.89 154.76 L 58.19 154.75 L 58.49 154.75 L 58.79 154.74 L 59.10 154.73 L 59.40 154.72 L 59.70 154.71 L 60.00 154.70 L 60.31 154.69 L 60.61 154.68 L 60.91 154.67 L 61.21 154.66 L 61.52 154.65 L 61.82 154.65 L 62.12 154.64 L 62.42 154.63 L 62.73 154.62 L 63.03 154.61 L 63.33 154.60 L 63.64 154.59 L 63.94 154.58 L 64.24 154.57 L 64.54 154.56 L 64.85 154.55 L 65.15 154.54 L 65.45 154.53 L 65.75 154.52 L 66.06 154.51 L 66.36 154.50 L 66.66 154.49 L 66.96 154.48 L 67.27 154.47 L 67.57 154.46 L 67.87 154.45 L 68.17 154.44 L 68.48 154.43 L 68.78 154.42 L 69.08 154.41 L 69.38 154.40 L 69.69 154.39 L 69.99 154.37 L 70.29 154.36 L 70.59 154.35 L 70.90 154.34 L 71.20 154.33 L 71.50 154.32 L 71.80 154.31 L 72.11 154.30 L 72.41 154.29 L 72.71 154.27 L 73.01 154.26 L 73.32 154.25 L 73.62 154.24 L 73.92 154.23 L 74.22 154.22 L 74.53 154.20 L 74.83 154.19 L 75.13 154.18 L 75.43 154.17 L 75.74 154.16 L 76.04 154.15 L 76.34 154.13 L 76.65 154.12 L 76.95 154.11 L 77.25 154.10 L 77.55 154.08 L 77.86 154.07 L 78.16 154.06 L 78.46 154.05 L 78.76 154.03 L 79.07 154.02 L 79.37 154.01 L 79.67 153.99 L 79.97 153.98 L 80.28 153.97 L 80.58 153.96 L 80.88 153.94 L 81.18 153.93 L 81.49 153.92 L 81.79 153.90 L 82.09 153.89 L 82.39 153.88 L 82.70 153.86 L 83.00 153.85 L 83.30 153.83 L 83.60 153.82 L 83.91 153.81 L 84.21 153.79 L 84.51 153.78 L 84.81 153.76 L 85.12 153.75 L 85.42 153.74 L 85.72 153.72 L 86.02 153.71 L 86.33 153.69 L 86.63 153.68 L 86.93 153.66 L 87.23 153.65 L 87.54 153.63 L 87.84 153.62 L 88.14 153.60 L 88.44 153.59 L 88.75 153.57 L 89.05 153.56 L 89.35 153.54 L 89.66 153.53 L 89.96 153.51 L 90.26 153.50 L 90.56 153.48 L 90.87 153.46 L 91.17 153.45 L 91.47 153.43 L 91.77 153.42 L 92.08 153.40 L 92.38 153.38 L 92.68 153.37 L 92.98 153.35 L 93.29 153.33 L 93.59 153.32 L 93.89 153.30 L 94.19 153.28 L 94.50 153.27 L 94.80 153.25 L 95.10 153.23 L 95.40 153.21 L 95.71 153.20 L 96.01 153.18 L 96.31 153.16 L 96.61 153.15 L 96.92 153.13 L 97.22 153.11 L 97.52 153.09 L 97.82 153.07 L 98.13 153.06 L 98.43 153.04 L 98.73 153.02 L 99.03 153.00 L 99.34 152.98 L 99.64 152.96 L 99.94 152.94 L 100.24 152.93 L 100.55 152.91 L 100.85 152.89 L 101.15 152.87 L 101.45 152.85 L 101.76 152.83 L 102.06 152.81 L 102.36 152.79 L 102.67 152.77 L 102.97 152.75 L 103.27 152.73 L 103.57 152.71 L 103.88 152.69 L 104.18 152.67 L 104.48 152.65 L 104.78 152.63 L 105.09 152.61 L 105.39 152.59 L 105.69 152.57 L 105.99 152.55 L 106.30 152.53 L 106.60 152.51 L 106.90 152.48 L 107.20 152.46 L 107.51 152.44 L 107.81 152.42 L 108.11 152.40 L 108.41 152.38 L 108.72 152.35 L 109.02 152.33 L 109.32 152.31 L 109.62 152.29 L 109.93 152.26 L 110.23 152.24 L 110.53 152.22 L 110.83 152.20 L 111.14 152.17 L 111.44 152.15 L 111.74 152.13 L 112.04 152.10 L 112.35 152.08 L 112.65 152.06 L 112.95 152.03 L 113.25 152.01 L 113.56 151.98 L 113.86 151.96 L 114.16 151.94 L 114.46 151.91 L 114.77 151.89 L 115.07 151.86 L 115.37 151.84 L 115.68 151.81 L 115.98 151.79 L 116.28 151.76 L 116.58 151.74 L 116.89 151.71 L 117.19 151.69 L 117.49 151.66 L 117.79 151.63 L 118.10 151.61 L 118.40 151.58 L 118.70 151.55 L 119.00 151.53 L 119.31 151.50 L 119.61 151.47 L 119.91 151.45 L 120.21 151.42 L 120.52 151.39 L 120.82 151.37 L 121.12 151.34 L 121.42 151.31 L 121.73 151.28 L 122.03 151.25 L 122.33 151.23 L 122.63 151.20 L 122.94 151.17 L 123.24 151.14 L 123.54 151.11 L 123.84 151.08 L 124.15 151.05 L 124.45 151.02 L 124.75 150.99 L 125.05 150.96 L 125.36 150.93 L 125.66 150.90 L 125.96 150.87 L 126.26 150.84 L 126.57 150.81 L 126.87 150.78 L 127.17 150.75 L 127.47 150.72 L 127.78 150.69 L 128.08 150.66 L 128.38 150.63 L 128.69 150.59 L 128.99 150.56 L 129.29 150.53 L 129.59 150.50 L 129.90 150.47 L 130.20 150.43 L 130.50 150.40 L 130.80 150.37 L 131.11 150.33 L 131.41 150.30 L 131.71 150.27 L 132.01 150.23 L 132.32 150.20 L 132.62 150.16 L 132.92 150.13 L 133.22 150.10 L 133.53 150.06 L 133.83 150.03 L 134.13 149.99 L 134.43 149.96 L 134.74 149.92 L 135.04 149.88 L 135.34 149.85 L 135.64 149.81 L 135.95 149.78 L 136.25 149.74 L 136.55 149.70 L 136.85 149.67 L 137.16 149.63 L 137.46 149.59 L 137.76 149.55 L 138.06 149.52 L 138.37 149.48 L 138.67 149.44 L 138.97 149.40 L 139.27 149.36 L 139.58 149.32 L 139.88 149.29 L 140.18 149.25 L 140.48 149.21 L 140.79 149.17 L 141.09 149.13 L 141.39 149.09 L 141.70 149.05 L 142.00 149.01 L 142.30 148.97 L 142.60 148.92 L 142.91 148.88 L 143.21 148.84 L 143.51 148.80 L 143.81 148.76 L 144.12 148.72 L 144.42 148.67 L 144.72 148.63 L 145.02 148.59 L 145.33 148.54 L 145.63 148.50 L 145.93 148.46 L 146.23 148.41 L 146.54 148.37 L 146.84 148.33 L 147.14 148.28 L 147.44 148.24 L 147.75 148.19 L 148.05 148.15 L 148.35 148.10 L 148.65 148.05 L 148.96 148.01 L 149.26 147.96 L 149.56 147.92 L 149.86 147.87 L 150.17 147.82 L 150.47 147.77 L 150.77 147.73 L 151.07 147.68 L 151.38 147.63 L 151.68 147.58 L 151.98 147.53 L 152.28 147.48 L 152.59 147.43 L 152.89 147.38 L 153.19 147.34 L 153.49 147.29 L 153.80 147.23 L 154.10 147.18 L 154.40 147.13 L 154.71 147.08 L 155.01 147.03 L 155.31 146.98 L 155.61 146.93 L 155.92 146.87 L 156.22 146.82 L 156.52 146.77 L 156.82 146.71 L 157.13 146.66 L 157.43 146.61 L 157.73 146.55 L 158.03 146.50 L 158.34 146.44 L 158.64 146.39 L 158.94 146.33 L 159.24 146.28 L 159.55 146.22 L 159.85 146.17 L 160.15 146.11 L 160.45 146.05 L 160.76 145.99 L 161.06 145.94 L 161.36 145.88 L 161.66 145.82 L 161.97 145.76 L 162.27 145.70 L 162.57 145.64 L 162.87 145.58 L 163.18 145.52 L 163.48 145.46 L 163.78 145.40 L 164.08 145.34 L 164.39 145.28 L 164.69 145.22 L 164.99 145.16 L 165.29 145.10 L 165.60 145.03 L 165.90 144.97 L 166.20 144.91 L 166.51 144.84 L 166.81 144.78 L 167.11 144.72 L 167.41 144.65 L 167.72 144.59 L 168.02 144.52 L 168.32 144.45 L 168.62 144.39 L 168.93 144.32 L 169.23 144.25 L 169.53 144.19 L 169.83 144.12 L 170.14 144.05 L 170.44 143.98 L 170.74 143.91 L 171.04 143.85 L 171.35 143.78 L 171.65 143.71 L 171.95 143.64 L 172.25 143.56 L 172.56 143.49 L 172.86 143.42 L 173.16 143.35 L 173.46 143.28 L 173.77 143.20 L 174.07 143.13 L 174.37 143.06 L 174.67 142.98 L 174.98 142.91 L 175.28 142.83 L 175.58 142.76 L 175.88 142.68 L 176.19 142.61 L 176.49 142.53 L 176.79 142.45 L 177.09 142.38 L 177.40 142.30 L 177.70 142.22 L 178.00 142.14 L 178.30 142.06 L 178.61 141.98 L 178.91 141.90 L 179.21 141.82 L 179.52 141.74 L 179.82 141.66 L 180.12 141.58 L 180.42 141.50 L 180.73 141.41 L 181.03 141.33 L 181.33 141.25 L 181.63 141.16 L 181.94 141.08 L 182.24 140.99 L 182.54 140.91 L 182.84 140.82 L 183.15 140.74 L 183.45 140.65 L 183.75 140.56 L 184.05 140.47 L 184.36 140.39 L 184.66 140.30 L 184.96 140.21 L 185.26 140.12 L 185.57 140.03 L 185.87 139.94 L 186.17 139.85 L 186.47 139.75 L 186.78 139.66 L 187.08 139.57 L 187.38 139.47 L 187.68 139.38 L 187.99 139.29 L 188.29 139.19 L 188.59 139.10 L 188.89 139.00 L 189.20 138.90 L 189.50 138.81 L 189.80 138.71 L 190.10 138.61 L 190.41 138.51 L 190.71 138.41 L 191.01 138.31 L 191.31 138.21 L 191.62 138.11 L 191.92 138.01 L 192.22 137.91 L 192.53 137.80 L 192.83 137.70 L 193.13 137.60 L 193.43 137.49 L 193.74 137.39 L 194.04 137.28 L 194.34 137.18 L 194.64 137.07 L 194.95 136.96 L 195.25 136.85 L 195.55 136.75 L 195.85 136.64 L 196.16 136.53 L 196.46 136.42 L 196.76 136.30 L 197.06 136.19 L 197.37 136.08 L 197.67 135.97 L 197.97 135.85 L 198.27 135.74 L 198.58 135.63 L 198.88 135.51 L 199.18 135.39 L 199.48 135.28 L 199.79 135.16 L 200.09 135.04 L 200.39 134.92 L 200.69 134.80 L 201.00 134.68 L 201.30 134.56 L 201.60 134.44 L 201.90 134.32 L 202.21 134.20 L 202.51 134.07 L 202.81 133.95 L 203.11 133.82 L 203.42 133.70 L 203.72 133.57 L 204.02 133.45 L 204.32 133.32 L 204.63 133.19 L 204.93 133.06 L 205.23 132.93 L 205.54 132.80 L 205.84 132.67 L 206.14 132.54 L 206.44 132.41 L 206.75 132.27 L 207.05 132.14 L 207.35 132.00 L 207.65 131.87 L 207.96 131.73 L 208.26 131.59 L 208.56 131.46 L 208.86 131.32 L 209.17 131.18 L 209.47 131.04 L 209.77 130.90 L 210.07 130.76 L 210.38 130.61 L 210.68 130.47 L 210.98 130.32 L 211.28 130.18 L 211.59 130.03 L 211.89 129.89 L 212.19 129.74 L 212.49 129.59 L 212.80 129.44 L 213.10 129.29 L 213.40 129.14 L 213.70 128.99 L 214.01 128.84 L 214.31 128.68 L 214.61 128.53 L 214.91 128.38 L 215.22 128.22 L 215.52 128.06 L 215.82 127.91 L 216.12 127.75 L 216.43 127.59 L 216.73 127.43 L 217.03 127.27 L 217.33 127.10 L 217.64 126.94 L 217.94 126.78 L 218.24 126.61 L 218.55 126.45 L 218.85 126.28 L 219.15 126.11 L 219.45 125.94 L 219.76 125.77 L 220.06 125.60 L 220.36 125.43 L 220.66 125.26 L 220.97 125.09 L 221.27 124.91 L 221.57 124.74 L 221.87 124.56 L 222.18 124.39 L 222.48 124.21 L 222.78 124.03 L 223.08 123.85 L 223.39 123.67 L 223.69 123.48 L 223.99 123.30 L 224.29 123.12 L 224.60 122.93 L 224.90 122.75 L 225.20 122.56 L 225.50 122.37 L 225.81 122.18 L 226.11 121.99 L 226.41 121.80 L 226.71 121.61 L 227.02 121.41 L 227.32 121.22 L 227.62 121.02 L 227.92 120.83 L 228.23 120.63 L 228.53 120.43 L 228.83 120.23 L 229.13 120.03 L 229.44 119.82 L 229.74 119.62 L 230.04 119.42 L 230.34 119.21 L 230.65 119.00 L 230.95 118.80 L 231.25 118.59 L 231.56 118.38 L 231.86 118.16 L 232.16 117.95 L 232.46 117.74 L 232.77 117.52 L 233.07 117.31 L 233.37 117.09 L 233.67 116.87 L 233.98 116.65 L 234.28 116.43 L 234.58 116.21 L 234.88 115.98 L 235.19 115.76 L 235.49 115.53 L 235.79 115.30 L 236.09 115.07 L 236.40 114.84 L 236.70 114.61 L 237.00 114.38 L 237.30 114.15 L 237.61 113.91 L 237.91 113.67 L 238.21 113.44 L 238.51 113.20 L 238.82 112.96 L 239.12 112.72 L 239.42 112.47 L 239.72 112.23 L 240.03 111.98 L 240.33 111.73 L 240.63 111.49 L 240.93 111.24 L 241.24 110.98 L 241.54 110.73 L 241.84 110.48 L 242.14 110.22 L 242.45 109.96 L 242.75 109.71 L 243.05 109.45 L 243.35 109.18 L 243.66 108.92 L 243.96 108.66 L 244.26 108.39 L 244.57 108.12 L 244.87 107.86 L 245.17 107.58 L 245.47 107.31 L 245.78 107.04 L 246.08 106.76 L 246.38 106.49 L 246.68 106.21 L 246.99 105.93 L 247.29 105.65 L 247.59 105.37 L 247.89 105.08 L 248.20 104.80 L 248.50 104.51 L 248.80 104.22 L 249.10 103.93 L 249.41 103.64 L 249.71 103.34 L 250.01 103.05 L 250.31 102.75 L 250.62 102.45 L 250.92 102.15 L 251.22 101.85 L 251.52 101.55 L 251.83 101.24 L 252.13 100.93 L 252.43 100.63 L 252.73 100.31 L 253.04 100.00 L 253.34 99.69 L 253.64 99.37 L 253.94 99.05 L 254.25 98.74 L 254.55 98.41 L 254.85 98.09 L 255.15 97.77 L 255.46 97.44 L 255.76 97.11 L 256.06 96.78 L 256.36 96.45 L 256.67 96.12 L 256.97 95.78 L 257.27 95.44 L 257.58 95.10 L 257.88 94.76 L 258.18 94.42 L 258.48 94.07 L 258.79 93.73 L 259.09 93.38 L 259.39 93.03 L 259.69 92.67 L 260.00 92.32 L 260.30 91.96 L 260.60 91.60 L 260.90 91.24 L 261.21 90.88 L 261.51 90.51 L 261.81 90.15 L 262.11 89.78 L 262.42 89.40 L 262.72 89.03 L 263.02 88.66 L 263.32 88.28 L 263.63 87.90 L 263.93 87.52 L 264.23 87.13 L 264.53 86.75 L 264.84 86.36 L 265.14 85.97 L 265.44 85.58 L 265.74 85.18 L 266.05 84.79 L 266.35 84.39 L 266.65 83.99 L 266.95 83.58 L 267.26 83.18 L 267.56 82.77 L 267.86 82.36 L 268.16 81.95 L 268.47 81.53 L 268.77 81.11 L 269.07 80.70 L 269.37 80.27 L 269.68 79.85 L 269.98 79.42 L 270.28 78.99 L 270.59 78.56 L 270.89 78.13 L 271.19 77.69 L 271.49 77.25 L 271.80 76.81 L 272.10 76.37 L 272.40 75.92 L 272.70 75.48 L 273.01 75.02 L 273.31 74.57 L 273.61 74.12 L 273.91 73.66 L 274.22 73.20 L 274.52 72.73 L 274.82 72.27 L 275.12 71.80 L 275.43 71.33 L 275.73 70.85 L 276.03 70.38 L 276.33 69.90 L 276.64 69.41 L 276.94 68.93 L 277.24 68.44 L 277.54 67.95 L 277.85 67.46 L 278.15 66.96 L 278.45 66.46 L 278.75 65.96 L 279.06 65.46 L 279.36 64.95 L 279.66 64.44 L 279.96 63.93 L 280.27 63.42 L 280.57 62.90 L 280.87 62.38 L 281.17 61.85 L 281.48 61.33 L 281.78 60.80 L 282.08 60.26 L 282.38 59.73 L 282.69 59.19 L 282.99 58.65 L 283.29 58.10 L 283.60 57.55 L 283.90 57.00 L 284.20 56.45 L 284.50 55.89 L 284.81 55.33 L 285.11 54.77 L 285.41 54.20 L 285.71 53.63 L 286.02 53.06 L 286.32 52.48 L 286.62 51.91 L 286.92 51.32 L 287.23 50.74 L 287.53 50.15 L 287.83 49.56 L 288.13 48.96 L 288.44 48.36 L 288.74 47.76 L 289.04 47.15 L 289.34 46.55 L 289.65 45.93 L 289.95 45.32 L 290.25 44.70 L 290.55 44.08 L 290.86 43.45 L 291.16 42.82 L 291.46 42.19 L 291.76 41.55 L 292.07 40.91 L 292.37 40.27 L 292.67 39.62 L 292.97 38.97 L 293.28 38.32 L 293.58 37.66 L 293.88 37.00 L 294.18 36.33 L 294.49 35.66 L 294.79 34.99 L 295.09 34.31 L 295.39 33.63 L 295.70 32.95 L 296.00 32.26" fill="none" stroke="#5F6B7A" stroke-width="2.5" stroke-linecap="round" stroke-linejoin="round"/>
</svg>
