<svg xmlns="http://www.w3.org/2000/svg" viewBox="0 0 320 180" width="320" height="180">
  <rect width="320" height="180" fill="#F4F5F7"/>
  <path d="M 18.00 162.00 L 18.32 158.08 L 18.63 156.45 L 18.95 155.21 L 19.26 154.16 L 19.58 153.23 L 19.90 152.39 L 20.21 151.63 L 20.53 150.91 L 20.84 150.24 L 21.16 149.60 L 21.47 148.99 L 21.79 148.42 L 22.11 147.86 L 22.42 147.33 L 22.74 146.81 L 23.05 146.31 L 23.37 145.83 L 23.69 145.36 L 24.00 144.91 L 24.32 144.46 L 24.63 144.03 L 24.95 143.61 L 25.27 143.19 L 25.58 142.79 L 25.90 142.39 L 26.21 142.00 L 26.53 141.62 L 26.85 141.25 L 27.16 140.88 L 27.48 140.52 L 27.79 140.17 L 28.11 139.82 L 28.42 139.47 L 28.74 139.13 L 29.06 138.80 L 29.37 138.47 L 29.69 138.15 L 30.00 137.83 L 30.32 137.51 L 30.64 137.20 L 30.95 136.89 L 31.27 136.59 L 31.58 136.29 L 31.90 135.99 L 32.22 135.69 L 32.53 135.40 L 32.85 135.12 L 33.16 134.83 L 33.48 134.55 L 33.80 134.27 L 34.11 134.00 L 34.43 133.72 L 34.74 133.45 L 35.06 133.18 L 35.37 132.92 L 35.69 132.66 L 36.01 132.39 L 36.32 132.14 L 36.64 131.88 L 36.95 131.63 L 37.27 131.37 L 37.59 131.12 L 37.90 130.88 L 38.22 130.63 L 38.53 130.38 L 38.85 130.14 L 39.17 129.90 L 39.48 129.66 L 39.80 129.43 L 40.11 129.19 L 40.43 128.96 L 40.75 128.73 L 41.06 128.50 L 41.38 128.27 L 41.69 128.04 L 42.01 127.81 L 42.32 127.59 L 42.64 127.37 L 42.96 127.15 L 43.27 126.93 L 43.59 126.71 L 43.90 126.49 L 44.22 126.27 L 44.54 126.06 L 44.85 125.85 L 45.17 125.63 L 45.48 125.42 L 45.80 125.21 L 46.12 125.01 L 46.43 124.80 L 46.75 124.59 L 47.06 124.39 L 47.38 124.18 L 47.70 123.98 L 48.01 123.78 L 48.33 123.58 L 48.64 123.38 L 48.96 123.18 L 49.27 122.98 L 49.59 122.79 L 49.91 122.59 L 50.22 122.40 L 50.54 122.20 L 50.85 122.01 L 51.17 121.82 L 51.49 121.63 L 51.80 121.44 L 52.12 121.25 L 52.43 121.06 L 52.75 120.87 L 53.07 120.69 L 53.38 120.50 L 53.70 120.32 L 54.01 120.13 L 54.33 119.95 L 54.65 119.77 L 54.96 119.58 L 55.28 119.40 L 55.59 119.22 L 55.91 119.04 L 56.22 118.87 L 56.54 118.69 L 56.86 118.51 L 57.17 118.33 L 57.49 118.16 L 57.80 117.98 L 58.12 117.81 L 58.44 117.63 L 58.75 117.46 L 59.07 117.29 L 59.38 117.12 L 59.70 116.95 L 60.02 116.78 L 60.33 116.61 L 60.65 116.44 L 60.96 116.27 L 61.28 116.10 L 61.60 115.93 L 61.91 115.77 L 62.23 115.60 L 62.54 115.44 L 62.86 115.27 L 63.17 115.11 L 63.49 114.94 L 63.81 114.78 L 64.12 114.62 L 64.44 114.46 L 64.75 114.29 L 65.07 114.13 L 65.39 113.97 L 65.70 113.81 L 66.02 113.65 L 66.33 113.50 L 66.65 113.34 L 66.97 113.18 L 67.28 113.02 L 67.60 112.87 L 67.91 112.71 L 68.23 112.55 L 68.55 112.40 L 68.86 112.24 L 69.18 112.09 L 69.49 111.94 L 69.81 111.78 L 70.12 111.63 L 70.44 111.48 L 70.76 111.32 L 71.07 111.17 L 71.39 111.02 L 71.70 110.87 L 72.02 110.72 L 72.34 110.57 L 72.65 110.42 L 72.97 110.27 L 73.28 110.13 L 73.60 109.98 L 73.92 109.83 L 74.23 109.68 L 74.55 109.54 L 74.86 109.39 L 75.18 109.24 L 75.49 109.10 L 75.81 108.95 L 76.13 108.81 L 76.44 108.66 L 76.76 108.52 L 77.07 108.38 L 77.39 108.23 L 77.71 108.09 L 78.02 107.95 L 78.34 107.81 L 78.65 107.66 L 78.97 107.52 L 79.29 107.38 L 79.60 107.24 L 79.92 107.10 L 80.23 106.96 L 80.55 106.82 L 80.87 106.68 L 81.18 106.54 L 81.50 106.41 L 81.81 106.27 L 82.13 106.13 L 82.44 105.99 L 82.76 105.85 L 83.08 105.72 L 83.39 105.58 L 83.71 105.45 L 84.02 105.31 L 84.34 105.17 L 84.66 105.04 L 84.97 104.90 L 85.29 104.77 L 85.60 104.64 L 85.92 104.50 L 86.24 104.37 L 86.55 104.23 L 86.87 104.10 L 87.18 103.97 L 87.50 103.84 L 87.82 103.70 L 88.13 103.57 L 88.45 103.44 L 88.76 103.31 L 89.08 103.18 L 89.39 103.05 L 89.71 102.92 L 90.03 102.79 L 90.34 102.66 L 90.66 102.53 L 90.97 102.40 L 91.29 102.27 L 91.61 102.14 L 91.92 102.01 L 92.24 101.89 L 92.55 101.76 L 92.87 101.63 L 93.19 101.50 L 93.50 101.38 L 93.82 101.25 L 94.13 101.12 L 94.45 101.00 L 94.77 100.87 L 95.08 100.75 L 95.40 100.62 L 95.71 100.50 L 96.03 100.37 L 96.34 100.25 L 96.66 100.12 L 96.98 100.00 L 97.29 99.87 L 97.61 99.75 L 97.92 99.63 L 98.24 99.50 L 98.56 99.38 L 98.87 99.26 L 99.19 99.14 L 99.50 99.01 L 99.82 98.89 L 100.14 98.77 L 100.45 98.65 L 100.77 98.53 L 101.08 98.41 L 101.40 98.29 L 101.72 98.16 L 102.03 98.04 L 102.35 97.92 L 102.66 97.80 L 102.98 97.68 L 103.29 97.57 L 103.61 97.45 L 103.93 97.33 L 104.24 97.21 L 104.56 97.09 L 104.87 96.97 L 105.19 96.85 L 105.51 96.74 L 105.82 96.62 L 106.14 96.50 L 106.45 96.38 L 106.77 96.27 L 107.09 96.15 L 107.40 96.03 L 107.72 95.92 L 108.03 95.80 L 108.35 95.68 L 108.67 95.57 L 108.98 95.45 L 109.30 95.34 L 109.61 95.22 L 109.93 95.11 L 110.24 94.99 L 110.56 94.88 L 110.88 94.76 L 111.19 94.65 L 111.51 94.53 L 111.82 94.42 L 112.14 94.31 L 112.46 94.19 L 112.77 94.08 L 113.09 93.97 L 113.40 93.85 L 113.72 93.74 L 114.04 93.63 L 114.35 93.52 L 114.67 93.40 L 114.98 93.29 L 115.30 93.18 L 115.62 93.07 L 115.93 92.96 L 116.25 92.85 L 116.56 92.73 L 116.88 92.62 L 117.19 92.51 L 117.51 92.40 L 117.83 92.29 L 118.14 92.18 L 118.46 92.07 L 118.77 91.96 L 119.09 91.85 L 119.41 91.74 L 119.72 91.63 L 120.04 91.52 L 120.35 91.42 L 120.67 91.31 L 120.99 91.20 L 121.30 91.09 L 121.62 90.98 L 121.93 90.87 L 122.25 90.76 L 122.57 90.66 L 122.88 90.55 L 123.20 90.44 L 123.51 90.33 L 123.83 90.23 L 124.14 90.12 L 124.46 90.01 L 124.78 89.91 L 125.09 89.80 L 125.41 89.69 L 125.72 89.59 L 126.04 89.48 L 126.36 89.38 L 126.67 89.27 L 126.99 89.16 L 127.30 89.06 L 127.62 88.95 L 127.94 88.85 L 128.25 88.74 L 128.57 88.64 L 128.88 88.53 L 129.20 88.43 L 129.52 88.32 L 129.83 88.22 L 130.15 88.12 L 130.46 88.01 L 130.78 87.91 L 131.09 87.80 L 131.41 87.70 L 131.73 87.60 L 132.04 87.49 L 132.36 87.39 L 132.67 87.29 L 132.99 87.19 L 133.31 87.08 L 133.62 86.98 L 133.94 86.88 L 134.25 86.78 L 134.57 86.67 L 134.89 86.57 L 135.20 86.47 L 135.52 86.37 L 135.83 86.27 L 136.15 86.16 L 136.46 86.06 L 136.78 85.96 L 137.10 85.86 L 137.41 85.76 L 137.73 85.66 L 138.04 85.56 L 138.36 85.46 L 138.68 85.36 L 138.99 85.26 L 139.31 85.16 L 139.62 85.06 L 139.94 84.96 L 140.26 84.86 L 140.57 84.76 L 140.89 84.66 L 141.20 84.56 L 141.52 84.46 L 141.84 84.36 L 142.15 84.26 L 142.47 84.16 L 142.78 84.06 L 143.10 83.97 L 143.41 83.87 L 143.73 83.77 L 144.05 83.67 L 144.36 83.57 L 144.68 83.47 L 144.99 83.38 L 145.31 83.28 L 145.63 83.18 L 145.94 83.08 L 146.26 82.99 L 146.57 82.89 L 146.89 82.79 L 147.21 82.70 L 147.52 82.60 L 147.84 82.50 L 148.15 82.41 L 148.47 82.31 L 148.79 82.21 L 149.10 82.12 L 149.42 82.02 L 149.73 81.92 L 150.05 81.83 L 150.36 81.73 L 150.68 81.64 L 151.00 81.54 L 151.31 81.44 L 151.63 81.35 L 151.94 81.25 L 152.26 81.16 L 152.58 81.06 L 152.89 80.97 L 153.21 80.87 L 153.52 80.78 L 153.84 80.68 L 154.16 80.59 L 154.47 80.50 L 154.79 80.40 L 155.10 80.31 L 155.42 80.21 L 155.74 80.12 L 156.05 80.03 L 156.37 79.93 L 156.68 79.84 L 157.00 79.74 L 157.31 79.65 L 157.63 79.56 L 157.95 79.46 L 158.26 79.37 L 158.58 79.28 L 158.89 79.19 L 159.21 79.09 L 159.53 79.00 L 159.84 78.91 L 160.16 78.82 L 160.47 78.72 L 160.79 78.63 L 161.11 78.54 L 161.42 78.45 L 161.74 78.35 L 162.05 78.26 L 162.37 78.17 L 162.69 78.08 L 163.00 77.99 L 163.32 77.90 L 163.63 77.80 L 163.95 77.71 L 164.26 77.62 L 164.58 77.53 L 164.90 77.44 L 165.21 77.35 L 165.53 77.26 L 165.84 77.17 L 166.16 77.08 L 166.48 76.99 L 166.79 76.90 L 167.11 76.81 L 167.42 76.72 L 167.74 76.63 L 168.06 76.54 L 168.37 76.45 L 168.69 76.36 L 169.00 76.27 L 169.32 76.18 L 169.64 76.09 L 169.95 76.00 L 170.27 75.91 L 170.58 75.82 L 170.90 75.73 L 171.21 75.64 L 171.53 75.55 L 171.85 75.46 L 172.16 75.37 L 172.48 75.29 L 172.79 75.20 L 173.11 75.11 L 173.43 75.02 L 173.74 74.93 L 174.06 74.84 L 174.37 74.76 L 174.69 74.67 L 175.01 74.58 L 175.32 74.49 L 175.64 74.40 L 175.95 74.32 L 176.27 74.23 L 176.59 74.14 L 176.90 74.05 L 177.22 73.97 L 177.53 73.88 L 177.85 73.79 L 178.16 73.70 L 178.48 73.62 L 178.80 73.53 L 179.11 73.44 L 179.43 73.36 L 179.74 73.27 L 180.06 73.18 L 180.38 73.10 L 180.69 73.01 L 181.01 72.92 L 181.32 72.84 L 181.64 72.75 L 181.96 72.67 L 182.27 72.58 L 182.59 72.49 L 182.90 72.41 L 183.22 72.32 L 183.54 72.24 L 183.85 72.15 L 184.17 72.06 L 184.48 71.98 L 184.80 71.89 L 185.11 71.81 L 185.43 71.72 L 185.75 71.64 L 186.06 71.55 L 186.38 71.47 L 186.69 71.38 L 187.01 71.30 L 187.33 71.21 L 187.64 71.13 L 187.96 71.04 L 188.27 70.96 L 188.59 70.88 L 188.91 70.79 L 189.22 70.71 L 189.54 70.62 L 189.85 70.54 L 190.17 70.45 L 190.48 70.37 L 190.80 70.29 L 191.12 70.20 L 191.43 70.12 L 191.75 70.04 L 192.06 69.95 L 192.38 69.87 L 192.70 69.79 L 193.01 69.70 L 193.33 69.62 L 193.64 69.54 L 193.96 69.45 L 194.28 69.37 L 194.59 69.29 L 194.91 69.20 L 195.22 69.12 L 195.54 69.04 L 195.86 68.96 L 196.17 68.87 L 196.49 68.79 L 196.80 68.71 L 197.12 68.63 L 197.43 68.54 L 197.75 68.46 L 198.07 68.38 L 198.38 68.30 L 198.70 68.21 L 199.01 68.13 L 199.33 68.05 L 199.65 67.97 L 199.96 67.89 L 200.28 67.81 L 200.59 67.72 L 200.91 67.64 L 201.23 67.56 L 201.54 67.48 L 201.86 67.40 L 202.17 67.32 L 202.49 67.24 L 202.81 67.15 L 203.12 67.07 L 203.44 66.99 L 203.75 66.91 L 204.07 66.83 L 204.38 66.75 L 204.70 66.67 L 205.02 66.59 L 205.33 66.51 L 205.65 66.43 L 205.96 66.35 L 206.28 66.27 L 206.60 66.19 L 206.91 66.11 L 207.23 66.03 L 207.54 65.95 L 207.86 65.87 L 208.18 65.79 L 208.49 65.71 L 208.81 65.63 L 209.12 65.55 L 209.44 65.47 L 209.76 65.39 L 210.07 65.31 L 210.39 65.23 L 210.70 65.15 L 211.02 65.07 L 211.33 64.99 L 211.65 64.91 L 211.97 64.83 L 212.28 64.75 L 212.60 64.67 L 212.91 64.60 L 213.23 64.52 L 213.55 64.44 L 213.86 64.36 L 214.18 64.28 L 214.49 64.20 L 214.81 64.12 L 215.13 64.04 L 215.44 63.97 L 215.76 63.89 L 216.07 63.81 L 216.39 63.73 L 216.71 63.65 L 217.02 63.57 L 217.34 63.50 L 217.65 63.42 L 217.97 63.34 L 218.28 63.26 L 218.60 63.18 L 218.92 63.11 L 219.23 63.03 L 219.55 62.95 L 219.86 62.87 L 220.18 62.80 L 220.50 62.72 L 220.81 62.64 L 221.13 62.56 L 221.44 62.49 L 221.76 62.41 L 222.08 62.33 L 222.39 62.26 L 222.71 62.18 L 223.02 62.10 L 223.34 62.02 L 223.66 61.95 L 223.97 61.87 L 224.29 61.79 L 224.60 61.72 L 224.92 61.64 L 225.23 61.56 L 225.55 61.49 L 225.87 61.41 L 226.18 61.33 L 226.50 61.26 L 226.81 61.18 L 227.13 61.11 L 227.45 61.03 L 227.76 60.95 L 228.08 60.88 L 228.39 60.80 L 228.71 60.73 L 229.03 60.65 L 229.34 60.57 L 229.66 60.50 L 229.97 60.42 L 230.29 60.35 L 230.61 60.27 L 230.92 60.20 L 231.24 60.12 L 231.55 60.04 L 231.87 59.97 L 232.18 59.89 L 232.50 59.82 L 232.82 59.74 L 233.13 59.67 L 233.45 59.59 L 233.76 59.52 L 234.08 59.44 L 234.40 59.37 L 234.71 59.29 L 235.03 59.22 L 235.34 59.14 L 235.66 59.07 L 235.98 58.99 L 236.29 58.92 L 236.61 58.85 L 236.92 58.77 L 237.24 58.70 L 237.56 58.62 L 237.87 58.55 L 238.19 58.47 L 238.50 58.40 L 238.82 58.32 L 239.13 58.25 L 239.45 58.18 L 239.77 58.10 L 240.08 58.03 L 240.40 57.95 L 240.71 57.88 L 241.03 57.81 L 241.35 57.73 L 241.66 57.66 L 241.98 57.59 L 242.29 57.51 L 242.61 57.44 L 242.93 57.36 L 243.24 57.29 L 243.56 57.22 L 243.87 57.14 L 244.19 57.07 L 244.51 57.00 L 244.82 56.93 L 245.14 56.85 L 245.45 56.78 L 245.77 56.71 L 246.08 56.63 L 246.40 56.56 L 246.72 56.49 L 247.03 56.41 L 247.35 56.34 L 247.66 56.27 L 247.98 56.20 L 248.30 56.12 L 248.61 56.05 L 248.93 55.98 L 249.24 55.91 L 249.56 55.83 L 249.88 55.76 L 250.19 55.69 L 250.51 55.62 L 250.82 55.54 L 251.14 55.47 L 251.45 55.40 L 251.77 55.33 L 252.09 55.26 L 252.40 55.18 L 252.72 55.11 L 253.03 55.04 L 253.35 54.97 L 253.67 54.90 L 253.98 54.82 L 254.30 54.75 L 254.61 54.68 L 254.93 54.61 L 255.25 54.54 L 255.56 54.47 L 255.88 54.39 L 256.19 54.32 L 256.51 54.25 L 256.83 54.18 L 257.14 54.11 L 257.46 54.04 L 257.77 53.97 L 258.09 53.90 L 258.40 53.82 L 258.72 53.75 L 259.04 53.68 L 259.35 53.61 L 259.67 53.54 L 259.98 53.47 L 260.30 53.40 L 260.62 53.33 L 260.93 53.26 L 261.25 53.19 L 261.56 53.12 L 261.88 53.05 L 262.20 52.97 L 262.51 52.90 L 262.83 52.83 L 263.14 52.76 L 263.46 52.69 L 263.78 52.62 L 264.09 52.55 L 264.41 52.48 L 264.72 52.41 L 265.04 52.34 L 265.35 52.27 L 265.67 52.20 L 265.99 52.13 L 266.30 52.06 L 266.62 51.99 L 266.93 51.92 L 267.25 51.85 L 267.57 51.78 L 267.88 51.71 L 268.20 51.64 L 268.51 51.57 L 268.83 51.50 L 269.15 51.43 L 269.46 51.36 L 269.78 51.30 L 270.09 51.23 L 270.41 51.16 L 270.73 51.09 L 271.04 51.02 L 271.36 50.95 L 271.67 50.88 L 271.99 50.81 L 272.30 50.74 L 272.62 50.67 L 272.94 50.60 L 273.25 50.53 L 273.57 50.46 L 273.88 50.40 L 274.20 50.33 L 274.52 50.26 L 274.83 50.19 L 275.15 50.12 L 275.46 50.05 L 275.78 49.98 L 276.10 49.91 L 276.41 49.85 L 276.73 49.78 L 277.04 49.71 L 277.36 49.64 L 277.68 49.57 L 277.99 49.50 L 278.31 49.44 L 278.62 49.37 L 278.94 49.30 L 279.25 49.23 L 279.57 49.16 L 279.89 49.09 L 280.20 49.03 L 280.52 48.96 L 280.83 48.89 L 281.15 48.82 L 281.47 48.75 L 281.78 48.69 L 282.10 48.62 L 282.41 48.55 L 282.73 48.48 L 283.05 48.42 L 283.36 48.35 L 283.68 48.28 L 283.99 48.21 L 284.31 48.15 L 284.63 48.08 L 284.94 48.01 L 285.26 47.94 L 285.57 47.88 L 285.89 47.81 L 286.20 47.74 L 286.52 47.67 L 286.84 47.61 L 287.15 47.54 L 287.47 47.47 L 287.78 47.40 L 288.10 47.34 L 288.42 47.27 L 288.73 47.20 L 289.05 47.14 L 289.36 47.07 L 289.68 47.00 L 290.00 46.94 L 290.31 46.87 L 290.63 46.80 L 290.94 46.74 L 291.26 46.67 L 291.58 46.60 L 291.89 46.54 L 292.21 46.47 L 292.52 46.40 L 292.84 46.34 L 293.15 46.27 L 293.47 46.20 L 293.79 46.14 L 294.10 46.07 L 294.42 46.00 L 294.73 45.94 L 295.05 45.87 L 295.37 45.81 L 295.68 45.74 L 296.00 45.67 L 296.31 45.61 L 296.63 45.54 L 296.95 45.48 L 297.26 45.41 L 297.58 45.34 L 297.89 45.28 L 298.21 45.21 L 298.53 45.15 L 298.84 45.08 L 299.16 45.01 L 299.47 44.95 L 299.79 44.88 L 300.10 44.82 L 300.42 44.75 L 300.74 44.69 L 301.05 44.62 L 301.37 44.56 L 301.68 44.49 L 302.00 44.42" fill="none" stroke="#7E8692" stroke-width="2.3" stroke-linecap="round" stroke-linejoin="round"/>
</svg>
