<svg xmlns="http://www.w3.org/2000/svg" viewBox="0 0 320 180" width="320" height="180">
  <rect width="320" height="180" fill="#F4F5F7"/>
  <path d="M 28.42 352.28 L 28.74 349.14 L 29.06 346.04 L 29.37 342.96 L 29.69 339.92 L 30.00 336.91 L 30.32 333.92 L 30.64 330.96 L 30.95 328.04 L 31.27 325.14 L 31.58 322.27 L 31.90 319.42 L 32.22 316.61 L 32.53 313.82 L 32.85 311.06 L 33.16 308.33 L 33.48 305.62 L 33.80 302.94 L 34.11 300.29 L 34.43 297.67 L 34.74 295.07 L 35.06 292.50 L 35.37 289.95 L 35.69 287.43 L 36.01 284.93 L 36.32 282.46 L 36.64 280.02 L 36.95 277.59 L 37.27 275.20 L 37.59 272.83 L 37.90 270.48 L 38.22 268.16 L 38.53 265.86 L 38.85 263.58 L 39.17 261.33 L 39.48 259.10 L 39.80 256.90 L 40.11 254.72 L 40.43 252.56 L 40.75 250.42 L 41.06 248.31 L 41.38 246.22 L 41.69 244.15 L 42.01 242.10 L 42.32 240.08 L 42.64 238.07 L 42.96 236.09 L 43.27 234.13 L 43.59 232.19 L 43.90 230.27 L 44.22 228.37 L 44.54 226.50 L 44.85 224.64 L 45.17 222.80 L 45.48 220.99 L 45.80 219.19 L 46.12 217.41 L 46.43 215.65 L 46.75 213.92 L 47.06 212.20 L 47.38 210.50 L 47.70 208.82 L 48.01 207.16 L 48.33 205.51 L 48.64 203.89 L 48.96 202.28 L 49.27 200.69 L 49.59 199.12 L 49.91 197.57 L 50.22 196.04 L 50.54 194.52 L 50.85 193.02 L 51.17 191.54 L 51.49 190.07 L 51.80 188.62 L 52.12 187.19 L 52.43 185.78 L 52.75 184.38 L 53.07 183.00 L 53.38 181.63 L 53.70 180.28 L 54.01 178.95 L 54.33 177.63 L 54.65 176.33 L 54.96 175.04 L 55.28 173.77 L 55.59 172.52 L 55.91 171.28 L 56.22 170.05 L 56.54 168.84 L 56.86 167.64 L 57.17 166.46 L 57.49 165.29 L 57.80 164.14 L 58.12 163.00 L 58.44 161.88 L 58.75 160.77 L 59.07 159.67 L 59.38 158.59 L 59.70 157.52 L 60.02 156.46 L 60.33 155.42 L 60.65 154.39 L 60.96 153.37 L 61.28 152.36 L 61.60 151.37 L 61.91 150.39 L 62.23 149.43 L 62.54 148.47 L 62.86 147.53 L 63.17 146.60 L 63.49 145.69 L 63.81 144.78 L 64.12 143.89 L 64.44 143.00 L 64.75 142.13 L 65.07 141.27 L 65.39 140.43 L 65.70 139.59 L 66.02 138.77 L 66.33 137.95 L 66.65 137.15 L 66.97 136.36 L 67.28 135.57 L 67.60 134.80 L 67.91 134.04 L 68.23 133.29 L 68.55 132.55 L 68.86 131.82 L 69.18 131.10 L 69.49 130.39 L 69.81 129.69 L 70.12 129.00 L 70.44 128.32 L 70.76 127.65 L 71.07 126.99 L 71.39 126.34 L 71.70 125.69 L 72.02 125.06 L 72.34 124.43 L 72.65 123.82 L 72.97 123.21 L 73.28 122.61 L 73.60 122.02 L 73.92 121.44 L 74.23 120.87 L 74.55 120.31 L 74.86 119.75 L 75.18 119.20 L 75.49 118.66 L 75.81 118.13 L 76.13 117.61 L 76.44 117.09 L 76.76 116.58 L 77.07 116.08 L 77.39 115.59 L 77.71 115.10 L 78.02 114.62 L 78.34 114.15 L 78.65 113.69 L 78.97 113.23 L 79.29 112.78 L 79.60 112.34 L 79.92 111.91 L 80.23 111.48 L 80.55 111.06 L 80.87 110.64 L 81.18 110.23 L 81.50 109.83 L 81.81 109.43 L 82.13 109.04 L 82.44 108.66 L 82.76 108.28 L 83.08 107.91 L 83.39 107.55 L 83.71 107.19 L 84.02 106.84 L 84.34 106.49 L 84.66 106.15 L 84.97 105.81 L 85.29 105.48 L 85.60 105.16 L 85.92 104.84 L 86.24 104.53 L 86.55 104.22 L 86.87 103.91 L 87.18 103.62 L 87.50 103.32 L 87.82 103.04 L 88.13 102.75 L 88.45 102.47 L 88.76 102.20 L 89.08 101.93 L 89.39 101.67 L 89.71 101.41 L 90.03 101.16 L 90.34 100.91 L 90.66 100.66 L 90.97 100.42 L 91.29 100.19 L 91.61 99.95 L 91.92 99.73 L 92.24 99.50 L 92.55 99.28 L 92.87 99.07 L 93.19 98.86 L 93.50 98.65 L 93.82 98.45 L 94.13 98.25 L 94.45 98.05 L 94.77 97.86 L 95.08 97.67 L 95.40 97.48 L 95.71 97.30 L 96.03 97.13 L 96.34 96.95 L 96.66 96.78 L 96.98 96.61 L 97.29 96.45 L 97.61 96.29 L 97.92 96.13 L 98.24 95.98 L 98.56 95.82 L 98.87 95.68 L 99.19 95.53 L 99.50 95.39 L 99.82 95.25 L 100.14 95.11 L 100.45 94.98 L 100.77 94.85 L 101.08 94.72 L 101.40 94.60 L 101.72 94.47 L 102.03 94.35 L 102.35 94.24 L 102.66 94.12 L 102.98 94.01 L 103.29 93.90 L 103.61 93.79 L 103.93 93.69 L 104.24 93.58 L 104.56 93.48 L 104.87 93.39 L 105.19 93.29 L 105.51 93.20 L 105.82 93.10 L 106.14 93.02 L 106.45 92.93 L 106.77 92.84 L 107.09 92.76 L 107.40 92.68 L 107.72 92.60 L 108.03 92.52 L 108.35 92.44 L 108.67 92.37 L 108.98 92.30 L 109.30 92.23 L 109.61 92.16 L 109.93 92.09 L 110.24 92.03 L 110.56 91.96 L 110.88 91.90 L 111.19 91.84 L 111.51 91.78 L 111.82 91.73 L 112.14 91.67 L 112.46 91.62 L 112.77 91.56 L 113.09 91.51 L 113.40 91.46 L 113.72 91.41 L 114.04 91.36 L 114.35 91.32 L 114.67 91.27 L 114.98 91.23 L 115.30 91.19 L 115.62 91.15 L 115.93 91.11 L 116.25 91.07 L 116.56 91.03 L 116.88 90.99 L 117.19 90.96 L 117.51 90.92 L 117.83 90.89 L 118.14 90.85 L 118.46 90.82 L 118.77 90.79 L 119.09 90.76 L 119.41 90.73 L 119.72 90.71 L 120.04 90.68 L 120.35 90.65 L 120.67 90.63 L 120.99 90.60 L 121.30 90.58 L 121.62 90.55 L 121.93 90.53 L 122.25 90.51 L 122.57 90.49 L 122.88 90.47 L 123.20 90.45 L 123.51 90.43 L 123.83 90.41 L 124.14 90.39 L 124.46 90.38 L 124.78 90.36 L 125.09 90.34 L 125.41 90.33 L 125.72 90.31 L 126.04 90.30 L 126.36 90.29 L 126.67 90.27 L 126.99 90.26 L 127.30 90.25 L 127.62 90.24 L 127.94 90.23 L 128.25 90.21 L 128.57 90.20 L 128.88 90.19 L 129.20 90.18 L 129.52 90.18 L 129.83 90.17 L 130.15 90.16 L 130.46 90.15 L 130.78 90.14 L 131.09 90.13 L 131.41 90.13 L 131.73 90.12 L 132.04 90.11 L 132.36 90.11 L 132.67 90.10 L 132.99 90.10 L 133.31 90.09 L 133.62 90.08 L 133.94 90.08 L 134.25 90.08 L 134.57 90.07 L 134.89 90.07 L 135.20 90.06 L 135.52 90.06 L 135.83 90.05 L 136.15 90.05 L 136.46 90.05 L 136.78 90.04 L 137.10 90.04 L 137.41 90.04 L 137.73 90.04 L 138.04 90.03 L 138.36 90.03 L 138.68 90.03 L 138.99 90.03 L 139.31 90.03 L 139.62 90.02 L 139.94 90.02 L 140.26 90.02 L 140.57 90.02 L 140.89 90.02 L 141.20 90.02 L 141.52 90.01 L 141.84 90.01 L 142.15 90.01 L 142.47 90.01 L 142.78 90.01 L 143.10 90.01 L 143.41 90.01 L 143.73 90.01 L 144.05 90.01 L 144.36 90.01 L 144.68 90.01 L 144.99 90.01 L 145.31 90.00 L 145.63 90.00 L 145.94 90.00 L 146.26 90.00 L 146.57 90.00 L 146.89 90.00 L 147.21 90.00 L 147.52 90.00 L 147.84 90.00 L 148.15 90.00 L 148.47 90.00 L 148.79 90.00 L 149.10 90.00 L 149.42 90.00 L 149.73 90.00 L 150.05 90.00 L 150.36 90.00 L 150.68 90.00 L 151.00 90.00 L 151.31 90.00 L 151.63 90.00 L 151.94 90.00 L 152.26 90.00 L 152.58 90.00 L 152.89 90.00 L 153.21 90.00 L 153.52 90.00 L 153.84 90.00 L 154.16 90.00 L 154.47 90.00 L 154.79 90.00 L 155.10 90.00 L 155.42 90.00 L 155.74 90.00 L 156.05 90.00 L 156.37 90.00 L 156.68 90.00 L 157.00 90.00 L 157.31 90.00 L 157.63 90.00 L 157.95 90.00 L 158.26 90.00 L 158.58 90.00 L 158.89 90.00 L 159.21 90.00 L 159.53 90.00 L 159.84 90.00 L 160.16 90.00 L 160.47 90.00 L 160.79 90.00 L 161.11 90.00 L 161.42 90.00 L 161.74 90.00 L 162.05 90.00 L 162.37 90.00 L 162.69 90.00 L 163.00 90.00 L 163.32 90.00 L 163.63 90.00 L 163.95 90.00 L 164.26 90.00 L 164.58 90.00 L 164.90 90.00 L 165.21 90.00 L 165.53 90.00 L 165.84 90.00 L 166.16 90.00 L 166.48 90.00 L 166.79 90.00 L 167.11 90.00 L 167.42 90.00 L 167.74 90.00 L 168.06 90.00 L 168.37 90.00 L 168.69 90.00 L 169.00 90.00 L 169.32 90.00 L 169.64 90.00 L 169.95 90.00 L 170.27 90.00 L 170.58 90.00 L 170.90 90.00 L 171.21 90.00 L 171.53 90.00 L 171.85 90.00 L 172.16 90.00 L 172.48 90.00 L 172.79 90.00 L 173.11 90.00 L 173.43 90.00 L 173.74 90.00 L 174.06 90.00 L 174.37 90.00 L 174.69 90.00 L 175.01 89.99 L 175.32 89.99 L 175.64 89.99 L 175.95 89.99 L 176.27 89.99 L 176.59 89.99 L 176.90 89.99 L 177.22 89.99 L 177.53 89.99 L 177.85 89.99 L 178.16 89.99 L 178.48 89.99 L 178.80 89.98 L 179.11 89.98 L 179.43 89.98 L 179.74 89.98 L 180.06 89.98 L 180.38 89.98 L 180.69 89.97 L 181.01 89.97 L 181.32 89.97 L 181.64 89.97 L 181.96 89.97 L 182.27 89.96 L 182.59 89.96 L 182.90 89.96 L 183.22 89.96 L 183.54 89.95 L 183.85 89.95 L 184.17 89.95 L 184.48 89.94 L 184.80 89.94 L 185.11 89.93 L 185.43 89.93 L 185.75 89.92 L 186.06 89.92 L 186.38 89.92 L 186.69 89.91 L 187.01 89.90 L 187.33 89.90 L 187.64 89.89 L 187.96 89.89 L 188.27 89.88 L 188.59 89.87 L 188.91 89.87 L 189.22 89.86 L 189.54 89.85 L 189.85 89.84 L 190.17 89.83 L 190.48 89.82 L 190.80 89.82 L 191.12 89.81 L 191.43 89.80 L 191.75 89.79 L 192.06 89.77 L 192.38 89.76 L 192.70 89.75 L 193.01 89.74 L 193.33 89.73 L 193.64 89.71 L 193.96 89.70 L 194.28 89.69 L 194.59 89.67 L 194.91 89.66 L 195.22 89.64 L 195.54 89.62 L 195.86 89.61 L 196.17 89.59 L 196.49 89.57 L 196.80 89.55 L 197.12 89.53 L 197.43 89.51 L 197.75 89.49 L 198.07 89.47 L 198.38 89.45 L 198.70 89.42 L 199.01 89.40 L 199.33 89.37 L 199.65 89.35 L 199.96 89.32 L 200.28 89.29 L 200.59 89.27 L 200.91 89.24 L 201.23 89.21 L 201.54 89.18 L 201.86 89.15 L 202.17 89.11 L 202.49 89.08 L 202.81 89.04 L 203.12 89.01 L 203.44 88.97 L 203.75 88.93 L 204.07 88.89 L 204.38 88.85 L 204.70 88.81 L 205.02 88.77 L 205.33 88.73 L 205.65 88.68 L 205.96 88.64 L 206.28 88.59 L 206.60 88.54 L 206.91 88.49 L 207.23 88.44 L 207.54 88.38 L 207.86 88.33 L 208.18 88.27 L 208.49 88.22 L 208.81 88.16 L 209.12 88.10 L 209.44 88.04 L 209.76 87.97 L 210.07 87.91 L 210.39 87.84 L 210.70 87.77 L 211.02 87.70 L 211.33 87.63 L 211.65 87.56 L 211.97 87.48 L 212.28 87.40 L 212.60 87.32 L 212.91 87.24 L 213.23 87.16 L 213.55 87.07 L 213.86 86.98 L 214.18 86.90 L 214.49 86.80 L 214.81 86.71 L 215.13 86.61 L 215.44 86.52 L 215.76 86.42 L 216.07 86.31 L 216.39 86.21 L 216.71 86.10 L 217.02 85.99 L 217.34 85.88 L 217.65 85.76 L 217.97 85.65 L 218.28 85.53 L 218.60 85.40 L 218.92 85.28 L 219.23 85.15 L 219.55 85.02 L 219.86 84.89 L 220.18 84.75 L 220.50 84.61 L 220.81 84.47 L 221.13 84.32 L 221.44 84.18 L 221.76 84.02 L 222.08 83.87 L 222.39 83.71 L 222.71 83.55 L 223.02 83.39 L 223.34 83.22 L 223.66 83.05 L 223.97 82.87 L 224.29 82.70 L 224.60 82.52 L 224.92 82.33 L 225.23 82.14 L 225.55 81.95 L 225.87 81.75 L 226.18 81.55 L 226.50 81.35 L 226.81 81.14 L 227.13 80.93 L 227.45 80.72 L 227.76 80.50 L 228.08 80.27 L 228.39 80.05 L 228.71 79.81 L 229.03 79.58 L 229.34 79.34 L 229.66 79.09 L 229.97 78.84 L 230.29 78.59 L 230.61 78.33 L 230.92 78.07 L 231.24 77.80 L 231.55 77.53 L 231.87 77.25 L 232.18 76.96 L 232.50 76.68 L 232.82 76.38 L 233.13 76.09 L 233.45 75.78 L 233.76 75.47 L 234.08 75.16 L 234.40 74.84 L 234.71 74.52 L 235.03 74.19 L 235.34 73.85 L 235.66 73.51 L 235.98 73.16 L 236.29 72.81 L 236.61 72.45 L 236.92 72.09 L 237.24 71.72 L 237.56 71.34 L 237.87 70.96 L 238.19 70.57 L 238.50 70.17 L 238.82 69.77 L 239.13 69.36 L 239.45 68.94 L 239.77 68.52 L 240.08 68.09 L 240.40 67.66 L 240.71 67.22 L 241.03 66.77 L 241.35 66.31 L 241.66 65.85 L 241.98 65.38 L 242.29 64.90 L 242.61 64.41 L 242.93 63.92 L 243.24 63.42 L 243.56 62.91 L 243.87 62.39 L 244.19 61.87 L 244.51 61.34 L 244.82 60.80 L 245.14 60.25 L 245.45 59.69 L 245.77 59.13 L 246.08 58.56 L 246.40 57.98 L 246.72 57.39 L 247.03 56.79 L 247.35 56.18 L 247.66 55.57 L 247.98 54.94 L 248.30 54.31 L 248.61 53.66 L 248.93 53.01 L 249.24 52.35 L 249.56 51.68 L 249.88 51.00 L 250.19 50.31 L 250.51 49.61 L 250.82 48.90 L 251.14 48.18 L 251.45 47.45 L 251.77 46.71 L 252.09 45.96 L 252.40 45.20 L 252.72 44.43 L 253.03 43.64 L 253.35 42.85 L 253.67 42.05 L 253.98 41.23 L 254.30 40.41 L 254.61 39.57 L 254.93 38.73 L 255.25 37.87 L 255.56 37.00 L 255.88 36.11 L 256.19 35.22 L 256.51 34.31 L 256.83 33.40 L 257.14 32.47 L 257.46 31.53 L 257.77 30.57 L 258.09 29.61 L 258.40 28.63 L 258.72 27.64 L 259.04 26.63 L 259.35 25.61 L 259.67 24.58 L 259.98 23.54 L 260.30 22.48 L 260.62 21.41 L 260.93 20.33 L 261.25 19.23 L 261.56 18.12 L 261.88 17.00 L 262.20 15.86 L 262.51 14.71 L 262.83 13.54 L 263.14 12.36 L 263.46 11.16 L 263.78 9.95 L 264.09 8.72 L 264.41 7.48 L 264.72 6.23 L 265.04 4.96 L 265.35 3.67 L 265.67 2.37 L 265.99 1.05 L 266.30 -0.28 L 266.62 -1.63 L 266.93 -3.00 L 267.25 -4.38 L 267.57 -5.78 L 267.88 -7.19 L 268.20 -8.62 L 268.51 -10.07 L 268.83 -11.54 L 269.15 -13.02 L 269.46 -14.52 L 269.78 -16.04 L 270.09 -17.57 L 270.41 -19.12 L 270.73 -20.69 L 271.04 -22.28 L 271.36 -23.89 L 271.67 -25.51 L 271.99 -27.16 L 272.30 -28.82 L 272.62 -30.50 L 272.94 -32.20 L 273.25 -33.92 L 273.57 -35.65 L 273.88 -37.41 L 274.20 -39.19 L 274.52 -40.99 L 274.83 -42.80 L 275.15 -44.64 L 275.46 -46.50 L 275.78 -48.37 L 276.10 -50.27 L 276.41 -52.19 L 276.73 -54.13 L 277.04 -56.09 L 277.36 -58.07 L 277.68 -60.08 L 277.99 -62.10 L 278.31 -64.15 L 278.62 -66.22 L 278.94 -68.31 L 279.25 -70.42 L 279.57 -72.56 L 279.89 -74.72 L 280.20 -76.90 L 280.52 -79.10 L 280.83 -81.33 L 281.15 -83.58 L 281.47 -85.86 L 281.78 -88.16 L 282.10 -90.48 L 282.41 -92.83 L 282.73 -95.20 L 283.05 -97.59 L 283.36 -100.02 L 283.68 -102.46 L 283.99 -104.93 L 284.31 -107.43 L 284.63 -109.95 L 284.94 -112.50 L 285.26 -115.07 L 285.57 -117.67 L 285.89 -120.29 L 286.20 -122.94 L 286.52 -125.62 L 286.84 -128.33 L 287.15 -131.06 L 287.47 -133.82 L 287.78 -136.61 L 288.10 -139.42 L 288.42 -142.27 L 288.73 -145.14 L 289.05 -148.04 L 289.36 -150.96 L 289.68 -153.92 L 290.00 -156.91 L 290.31 -159.92 L 290.63 -162.96 L 290.94 -166.04 L 291.26 -169.14 L 291.58 -172.28" fill="none" stroke="#7E8692" stroke-width="2.3" stroke-linecap="round" stroke-linejoin="round"/>
</svg>
