<svg xmlns="http://www.w3.org/2000/svg" viewBox="0 0 320 180" width="320" height="180">
  <rect width="320" height="180" fill="#F4F5F7"/>
  <path d="M 24.00 130.27 L 24.15 130.19 L 24.30 130.11 L 24.45 130.03 L 24.60 129.94 L 24.76 129.86 L 24.91 129.77 L 25.06 129.68 L 25.21 129.60 L 25.36 129.51 L 25.51 129.42 L 25.66 129.33 L 25.81 129.24 L 25.97 129.15 L 26.12 129.05 L 26.27 128.96 L 26.42 128.87 L 26.57 128.77 L 26.72 128.68 L 26.87 128.58 L 27.02 128.49 L 27.18 128.39 L 27.33 128.29 L 27.48 128.20 L 27.63 128.10 L 27.78 128.00 L 27.93 127.90 L 28.08 127.80 L 28.23 127.70 L 28.38 127.60 L 28.54 127.49 L 28.69 127.39 L 28.84 127.29 L 28.99 127.19 L 29.14 127.08 L 29.29 126.98 L 29.44 126.87 L 29.59 126.77 L 29.75 126.66 L 29.90 126.56 L 30.05 126.45 L 30.20 126.34 L 30.35 126.24 L 30.50 126.13 L 30.65 126.02 L 30.80 125.91 L 30.95 125.80 L 31.11 125.69 L 31.26 125.58 L 31.41 125.47 L 31.56 125.36 L 31.71 125.25 L 31.86 125.14 L 32.01 125.03 L 32.16 124.92 L 32.32 124.81 L 32.47 124.70 L 32.62 124.59 L 32.77 124.48 L 32.92 124.36 L 33.07 124.25 L 33.22 124.14 L 33.37 124.03 L 33.53 123.91 L 33.68 123.80 L 33.83 123.69 L 33.98 123.57 L 34.13 123.46 L 34.28 123.35 L 34.43 123.24 L 34.58 123.12 L 34.73 123.01 L 34.89 122.90 L 35.04 122.78 L 35.19 122.67 L 35.34 122.56 L 35.49 122.44 L 35.64 122.33 L 35.79 122.22 L 35.94 122.10 L 36.10 121.99 L 36.25 121.88 L 36.40 121.77 L 36.55 121.65 L 36.70 121.54 L 36.85 121.43 L 37.00 121.32 L 37.15 121.21 L 37.31 121.09 L 37.46 120.98 L 37.61 120.87 L 37.76 120.76 L 37.91 120.65 L 38.06 120.54 L 38.21 120.43 L 38.36 120.32 L 38.51 120.21 L 38.67 120.10 L 38.82 119.99 L 38.97 119.89 L 39.12 119.78 L 39.27 119.67 L 39.42 119.56 L 39.57 119.46 L 39.72 119.35 L 39.88 119.25 L 40.03 119.14 L 40.18 119.04 L 40.33 118.93 L 40.48 118.83 L 40.63 118.73 L 40.78 118.62 L 40.93 118.52 L 41.09 118.42 L 41.24 118.32 L 41.39 118.22 L 41.54 118.12 L 41.69 118.02 L 41.84 117.92 L 41.99 117.82 L 42.14 117.73 L 42.29 117.63 L 42.45 117.53 L 42.60 117.44 L 42.75 117.34 L 42.90 117.25 L 43.05 117.16 L 43.20 117.06 L 43.35 116.97 L 43.50 116.88 L 43.66 116.79 L 43.81 116.70 L 43.96 116.61 L 44.11 116.53 L 44.26 116.44 L 44.41 116.36 L 44.56 116.27 L 44.71 116.19 L 44.86 116.10 L 45.02 116.02 L 45.17 115.94 L 45.32 115.86 L 45.47 115.78 L 45.62 115.70 L 45.77 115.62 L 45.92 115.55 L 46.07 115.47 L 46.23 115.40 L 46.38 115.32 L 46.53 115.25 L 46.68 115.18 L 46.83 115.11 L 46.98 115.04 L 47.13 114.97 L 47.28 114.90 L 47.44 114.84 L 47.59 114.77 L 47.74 114.71 L 47.89 114.65 L 48.04 114.59 L 48.19 114.52 L 48.34 114.47 L 48.49 114.41 L 48.64 114.35 L 48.80 114.29 L 48.95 114.24 L 49.10 114.19 L 49.25 114.13 L 49.40 114.08 L 49.55 114.03 L 49.70 113.98 L 49.85 113.94 L 50.01 113.89 L 50.16 113.85 L 50.31 113.80 L 50.46 113.76 L 50.61 113.72 L 50.76 113.68 L 50.91 113.64 L 51.06 113.61 L 51.22 113.57 L 51.37 113.54 L 51.52 113.50 L 51.67 113.47 L 51.82 113.44 L 51.97 113.41 L 52.12 113.38 L 52.27 113.36 L 52.42 113.33 L 52.58 113.31 L 52.73 113.29 L 52.88 113.27 L 53.03 113.25 L 53.18 113.23 L 53.33 113.21 L 53.48 113.20 L 53.63 113.19 L 53.79 113.17 L 53.94 113.16 L 54.09 113.16 L 54.24 113.15 L 54.39 113.14 L 54.54 113.14 L 54.69 113.13 L 54.84 113.13 L 54.99 113.13 L 55.15 113.13 L 55.30 113.14 L 55.45 113.14 L 55.60 113.15 L 55.75 113.15 L 55.90 113.16 L 56.05 113.17 L 56.20 113.18 L 56.36 113.20 L 56.51 113.21 L 56.66 113.23 L 56.81 113.25 L 56.96 113.27 L 57.11 113.29 L 57.26 113.31 L 57.41 113.33 L 57.57 113.36 L 57.72 113.39 L 57.87 113.42 L 58.02 113.45 L 58.17 113.48 L 58.32 113.51 L 58.47 113.55 L 58.62 113.58 L 58.77 113.62 L 58.93 113.66 L 59.08 113.70 L 59.23 113.74 L 59.38 113.79 L 59.53 113.83 L 59.68 113.88 L 59.83 113.93 L 59.98 113.98 L 60.14 114.03 L 60.29 114.08 L 60.44 114.14 L 60.59 114.20 L 60.74 114.25 L 60.89 114.31 L 61.04 114.37 L 61.19 114.44 L 61.35 114.50 L 61.50 114.57 L 61.65 114.63 L 61.80 114.70 L 61.95 114.77 L 62.10 114.84 L 62.25 114.92 L 62.40 114.99 L 62.55 115.07 L 62.71 115.14 L 62.86 115.22 L 63.01 115.30 L 63.16 115.39 L 63.31 115.47 L 63.46 115.55 L 63.61 115.64 L 63.76 115.73 L 63.92 115.82 L 64.07 115.91 L 64.22 116.00 L 64.37 116.09 L 64.52 116.19 L 64.67 116.29 L 64.82 116.38 L 64.97 116.48 L 65.13 116.58 L 65.28 116.69 L 65.43 116.79 L 65.58 116.89 L 65.73 117.00 L 65.88 117.11 L 66.03 117.22 L 66.18 117.33 L 66.33 117.44 L 66.49 117.55 L 66.64 117.67 L 66.79 117.78 L 66.94 117.90 L 67.09 118.02 L 67.24 118.13 L 67.39 118.25 L 67.54 118.38 L 67.70 118.50 L 67.85 118.62 L 68.00 118.75 L 68.15 118.88 L 68.30 119.00 L 68.45 119.13 L 68.60 119.26 L 68.75 119.39 L 68.90 119.53 L 69.06 119.66 L 69.21 119.80 L 69.36 119.93 L 69.51 120.07 L 69.66 120.21 L 69.81 120.35 L 69.96 120.49 L 70.11 120.63 L 70.27 120.77 L 70.42 120.91 L 70.57 121.06 L 70.72 121.20 L 70.87 121.35 L 71.02 121.50 L 71.17 121.64 L 71.32 121.79 L 71.48 121.94 L 71.63 122.09 L 71.78 122.25 L 71.93 122.40 L 72.08 122.55 L 72.23 122.71 L 72.38 122.86 L 72.53 123.02 L 72.68 123.18 L 72.84 123.33 L 72.99 123.49 L 73.14 123.65 L 73.29 123.81 L 73.44 123.97 L 73.59 124.13 L 73.74 124.30 L 73.89 124.46 L 74.05 124.62 L 74.20 124.79 L 74.35 124.95 L 74.50 125.12 L 74.65 125.28 L 74.80 125.45 L 74.95 125.62 L 75.10 125.79 L 75.26 125.95 L 75.41 126.12 L 75.56 126.29 L 75.71 126.46 L 75.86 126.63 L 76.01 126.80 L 76.16 126.97 L 76.31 127.14 L 76.46 127.32 L 76.62 127.49 L 76.77 127.66 L 76.92 127.83 L 77.07 128.01 L 77.22 128.18 L 77.37 128.35 L 77.52 128.53 L 77.67 128.70 L 77.83 128.88 L 77.98 129.05 L 78.13 129.23 L 78.28 129.40 L 78.43 129.58 L 78.58 129.75 L 78.73 129.93 L 78.88 130.10 L 79.04 130.28 L 79.19 130.45 L 79.34 130.63 L 79.49 130.80 L 79.64 130.98 L 79.79 131.15 L 79.94 131.33 L 80.09 131.50 L 80.24 131.68 L 80.40 131.85 L 80.55 132.03 L 80.70 132.20 L 80.85 132.37 L 81.00 132.55 L 81.15 132.72 L 81.30 132.90 L 81.45 133.07 L 81.61 133.24 L 81.76 133.41 L 81.91 133.59 L 82.06 133.76 L 82.21 133.93 L 82.36 134.10 L 82.51 134.27 L 82.66 134.44 L 82.81 134.61 L 82.97 134.78 L 83.12 134.95 L 83.27 135.12 L 83.42 135.28 L 83.57 135.45 L 83.72 135.62 L 83.87 135.78 L 84.02 135.95 L 84.18 136.11 L 84.33 136.27 L 84.48 136.44 L 84.63 136.60 L 84.78 136.76 L 84.93 136.92 L 85.08 137.08 L 85.23 137.24 L 85.39 137.40 L 85.54 137.56 L 85.69 137.71 L 85.84 137.87 L 85.99 138.02 L 86.14 138.17 L 86.29 138.33 L 86.44 138.48 L 86.59 138.63 L 86.75 138.78 L 86.90 138.93 L 87.05 139.07 L 87.20 139.22 L 87.35 139.37 L 87.50 139.51 L 87.65 139.65 L 87.80 139.79 L 87.96 139.93 L 88.11 140.07 L 88.26 140.21 L 88.41 140.35 L 88.56 140.48 L 88.71 140.62 L 88.86 140.75 L 89.01 140.88 L 89.17 141.01 L 89.32 141.14 L 89.47 141.27 L 89.62 141.39 L 89.77 141.51 L 89.92 141.64 L 90.07 141.76 L 90.22 141.88 L 90.37 142.00 L 90.53 142.11 L 90.68 142.23 L 90.83 142.34 L 90.98 142.45 L 91.13 142.56 L 91.28 142.67 L 91.43 142.78 L 91.58 142.88 L 91.74 142.98 L 91.89 143.09 L 92.04 143.19 L 92.19 143.28 L 92.34 143.38 L 92.49 143.47 L 92.64 143.57 L 92.79 143.66 L 92.94 143.74 L 93.10 143.83 L 93.25 143.92 L 93.40 144.00 L 93.55 144.08 L 93.70 144.16 L 93.85 144.24 L 94.00 144.31 L 94.15 144.38 L 94.31 144.45 L 94.46 144.52 L 94.61 144.59 L 94.76 144.65 L 94.91 144.72 L 95.06 144.78 L 95.21 144.84 L 95.36 144.89 L 95.52 144.95 L 95.67 145.00 L 95.82 145.05 L 95.97 145.09 L 96.12 145.14 L 96.27 145.18 L 96.42 145.22 L 96.57 145.26 L 96.72 145.30 L 96.88 145.33 L 97.03 145.36 L 97.18 145.39 L 97.33 145.42 L 97.48 145.44 L 97.63 145.46 L 97.78 145.48 L 97.93 145.50 L 98.09 145.51 L 98.24 145.52 L 98.39 145.53 L 98.54 145.54 L 98.69 145.55 L 98.84 145.55 L 98.99 145.55 L 99.14 145.54 L 99.30 145.54 L 99.45 145.53 L 99.60 145.52 L 99.75 145.51 L 99.90 145.49 L 100.05 145.47 L 100.20 145.45 L 100.35 145.43 L 100.50 145.40 L 100.66 145.37 L 100.81 145.34 L 100.96 145.31 L 101.11 145.27 L 101.26 145.23 L 101.41 145.19 L 101.56 145.14 L 101.71 145.10 L 101.87 145.05 L 102.02 144.99 L 102.17 144.94 L 102.32 144.88 L 102.47 144.82 L 102.62 144.75 L 102.77 144.69 L 102.92 144.62 L 103.08 144.54 L 103.23 144.47 L 103.38 144.39 L 103.53 144.31 L 103.68 144.23 L 103.83 144.14 L 103.98 144.05 L 104.13 143.96 L 104.28 143.86 L 104.44 143.77 L 104.59 143.67 L 104.74 143.56 L 104.89 143.46 L 105.04 143.35 L 105.19 143.23 L 105.34 143.12 L 105.49 143.00 L 105.65 142.88 L 105.80 142.76 L 105.95 142.63 L 106.10 142.50 L 106.25 142.37 L 106.40 142.24 L 106.55 142.10 L 106.70 141.96 L 106.85 141.81 L 107.01 141.67 L 107.16 141.52 L 107.31 141.37 L 107.46 141.21 L 107.61 141.05 L 107.76 140.89 L 107.91 140.73 L 108.06 140.56 L 108.22 140.39 L 108.37 140.22 L 108.52 140.05 L 108.67 139.87 L 108.82 139.69 L 108.97 139.50 L 109.12 139.32 L 109.27 139.13 L 109.43 138.93 L 109.58 138.74 L 109.73 138.54 L 109.88 138.34 L 110.03 138.14 L 110.18 137.93 L 110.33 137.72 L 110.48 137.51 L 110.63 137.29 L 110.79 137.07 L 110.94 136.85 L 111.09 136.63 L 111.24 136.40 L 111.39 136.17 L 111.54 135.94 L 111.69 135.71 L 111.84 135.47 L 112.00 135.23 L 112.15 134.99 L 112.30 134.74 L 112.45 134.49 L 112.60 134.24 L 112.75 133.99 L 112.90 133.73 L 113.05 133.47 L 113.21 133.21 L 113.36 132.94 L 113.51 132.67 L 113.66 132.40 L 113.81 132.13 L 113.96 131.86 L 114.11 131.58 L 114.26 131.30 L 114.41 131.01 L 114.57 130.73 L 114.72 130.44 L 114.87 130.15 L 115.02 129.85 L 115.17 129.56 L 115.32 129.26 L 115.47 128.96 L 115.62 128.65 L 115.78 128.34 L 115.93 128.04 L 116.08 127.72 L 116.23 127.41 L 116.38 127.09 L 116.53 126.77 L 116.68 126.45 L 116.83 126.13 L 116.98 125.80 L 117.14 125.47 L 117.29 125.14 L 117.44 124.81 L 117.59 124.47 L 117.74 124.14 L 117.89 123.80 L 118.04 123.45 L 118.19 123.11 L 118.35 122.76 L 118.50 122.41 L 118.65 122.06 L 118.80 121.71 L 118.95 121.35 L 119.10 120.99 L 119.25 120.63 L 119.40 120.27 L 119.56 119.91 L 119.71 119.54 L 119.86 119.17 L 120.01 118.80 L 120.16 118.43 L 120.31 118.05 L 120.46 117.68 L 120.61 117.30 L 120.76 116.92 L 120.92 116.54 L 121.07 116.15 L 121.22 115.77 L 121.37 115.38 L 121.52 114.99 L 121.67 114.60 L 121.82 114.20 L 121.97 113.81 L 122.13 113.41 L 122.28 113.01 L 122.43 112.61 L 122.58 112.21 L 122.73 111.81 L 122.88 111.40 L 123.03 110.99 L 123.18 110.59 L 123.34 110.18 L 123.49 109.76 L 123.64 109.35 L 123.79 108.94 L 123.94 108.52 L 124.09 108.10 L 124.24 107.68 L 124.39 107.26 L 124.54 106.84 L 124.70 106.42 L 124.85 106.00 L 125.00 105.57 L 125.15 105.14 L 125.30 104.71 L 125.45 104.29 L 125.60 103.85 L 125.75 103.42 L 125.91 102.99 L 126.06 102.56 L 126.21 102.12 L 126.36 101.69 L 126.51 101.25 L 126.66 100.81 L 126.81 100.37 L 126.96 99.93 L 127.12 99.49 L 127.27 99.05 L 127.42 98.61 L 127.57 98.16 L 127.72 97.72 L 127.87 97.27 L 128.02 96.83 L 128.17 96.38 L 128.32 95.94 L 128.48 95.49 L 128.63 95.04 L 128.78 94.59 L 128.93 94.14 L 129.08 93.69 L 129.23 93.24 L 129.38 92.79 L 129.53 92.34 L 129.69 91.89 L 129.84 91.43 L 129.99 90.98 L 130.14 90.53 L 130.29 90.07 L 130.44 89.62 L 130.59 89.17 L 130.74 88.71 L 130.89 88.26 L 131.05 87.80 L 131.20 87.35 L 131.35 86.89 L 131.50 86.44 L 131.65 85.98 L 131.80 85.53 L 131.95 85.07 L 132.10 84.62 L 132.26 84.17 L 132.41 83.71 L 132.56 83.26 L 132.71 82.80 L 132.86 82.35 L 133.01 81.89 L 133.16 81.44 L 133.31 80.99 L 133.47 80.53 L 133.62 80.08 L 133.77 79.63 L 133.92 79.18 L 134.07 78.73 L 134.22 78.28 L 134.37 77.83 L 134.52 77.38 L 134.67 76.93 L 134.83 76.48 L 134.98 76.03 L 135.13 75.58 L 135.28 75.14 L 135.43 74.69 L 135.58 74.25 L 135.73 73.80 L 135.88 73.36 L 136.04 72.92 L 136.19 72.47 L 136.34 72.03 L 136.49 71.59 L 136.64 71.15 L 136.79 70.72 L 136.94 70.28 L 137.09 69.84 L 137.25 69.41 L 137.40 68.97 L 137.55 68.54 L 137.70 68.11 L 137.85 67.68 L 138.00 67.25 L 138.15 66.82 L 138.30 66.40 L 138.45 65.97 L 138.61 65.55 L 138.76 65.13 L 138.91 64.71 L 139.06 64.29 L 139.21 63.87 L 139.36 63.45 L 139.51 63.04 L 139.66 62.62 L 139.82 62.21 L 139.97 61.80 L 140.12 61.39 L 140.27 60.99 L 140.42 60.58 L 140.57 60.18 L 140.72 59.78 L 140.87 59.38 L 141.03 58.98 L 141.18 58.59 L 141.33 58.19 L 141.48 57.80 L 141.63 57.41 L 141.78 57.02 L 141.93 56.63 L 142.08 56.25 L 142.23 55.87 L 142.39 55.49 L 142.54 55.11 L 142.69 54.73 L 142.84 54.36 L 142.99 53.99 L 143.14 53.62 L 143.29 53.25 L 143.44 52.89 L 143.60 52.53 L 143.75 52.17 L 143.90 51.81 L 144.05 51.45 L 144.20 51.10 L 144.35 50.75 L 144.50 50.40 L 144.65 50.05 L 144.80 49.71 L 144.96 49.37 L 145.11 49.03 L 145.26 48.70 L 145.41 48.36 L 145.56 48.03 L 145.71 47.71 L 145.86 47.38 L 146.01 47.06 L 146.17 46.74 L 146.32 46.42 L 146.47 46.11 L 146.62 45.80 L 146.77 45.49 L 146.92 45.18 L 147.07 44.88 L 147.22 44.58 L 147.38 44.28 L 147.53 43.99 L 147.68 43.70 L 147.83 43.41 L 147.98 43.12 L 148.13 42.84 L 148.28 42.56 L 148.43 42.28 L 148.58 42.01 L 148.74 41.74 L 148.89 41.47 L 149.04 41.21 L 149.19 40.95 L 149.34 40.69 L 149.49 40.44 L 149.64 40.19 L 149.79 39.94 L 149.95 39.69 L 150.10 39.45 L 150.25 39.21 L 150.40 38.98 L 150.55 38.75 L 150.70 38.52 L 150.85 38.29 L 151.00 38.07 L 151.16 37.85 L 151.31 37.64 L 151.46 37.43 L 151.61 37.22 L 151.76 37.01 L 151.91 36.81 L 152.06 36.61 L 152.21 36.42 L 152.36 36.23 L 152.52 36.04 L 152.67 35.86 L 152.82 35.68 L 152.97 35.50 L 153.12 35.33 L 153.27 35.16 L 153.42 34.99 L 153.57 34.83 L 153.73 34.67 L 153.88 34.52 L 154.03 34.36 L 154.18 34.22 L 154.33 34.07 L 154.48 33.93 L 154.63 33.80 L 154.78 33.66 L 154.93 33.53 L 155.09 33.41 L 155.24 33.28 L 155.39 33.17 L 155.54 33.05 L 155.69 32.94 L 155.84 32.83 L 155.99 32.73 L 156.14 32.63 L 156.30 32.53 L 156.45 32.44 L 156.60 32.35 L 156.75 32.27 L 156.90 32.19 L 157.05 32.11 L 157.20 32.04 L 157.35 31.97 L 157.51 31.90 L 157.66 31.84 L 157.81 31.78 L 157.96 31.73 L 158.11 31.68 L 158.26 31.63 L 158.41 31.59 L 158.56 31.55 L 158.71 31.52 L 158.87 31.49 L 159.02 31.46 L 159.17 31.44 L 159.32 31.42 L 159.47 31.40 L 159.62 31.39 L 159.77 31.38 L 159.92 31.38 L 160.08 31.38 L 160.23 31.38 L 160.38 31.39 L 160.53 31.40 L 160.68 31.42 L 160.83 31.44 L 160.98 31.46 L 161.13 31.49 L 161.29 31.52 L 161.44 31.55 L 161.59 31.59 L 161.74 31.63 L 161.89 31.68 L 162.04 31.73 L 162.19 31.78 L 162.34 31.84 L 162.49 31.90 L 162.65 31.97 L 162.80 32.04 L 162.95 32.11 L 163.10 32.19 L 163.25 32.27 L 163.40 32.35 L 163.55 32.44 L 163.70 32.53 L 163.86 32.63 L 164.01 32.73 L 164.16 32.83 L 164.31 32.94 L 164.46 33.05 L 164.61 33.17 L 164.76 33.28 L 164.91 33.41 L 165.07 33.53 L 165.22 33.66 L 165.37 33.80 L 165.52 33.93 L 165.67 34.07 L 165.82 34.22 L 165.97 34.36 L 166.12 34.52 L 166.27 34.67 L 166.43 34.83 L 166.58 34.99 L 166.73 35.16 L 166.88 35.33 L 167.03 35.50 L 167.18 35.68 L 167.33 35.86 L 167.48 36.04 L 167.64 36.23 L 167.79 36.42 L 167.94 36.61 L 168.09 36.81 L 168.24 37.01 L 168.39 37.22 L 168.54 37.43 L 168.69 37.64 L 168.84 37.85 L 169.00 38.07 L 169.15 38.29 L 169.30 38.52 L 169.45 38.75 L 169.60 38.98 L 169.75 39.21 L 169.90 39.45 L 170.05 39.69 L 170.21 39.94 L 170.36 40.19 L 170.51 40.44 L 170.66 40.69 L 170.81 40.95 L 170.96 41.21 L 171.11 41.47 L 171.26 41.74 L 171.42 42.01 L 171.57 42.28 L 171.72 42.56 L 171.87 42.84 L 172.02 43.12 L 172.17 43.41 L 172.32 43.70 L 172.47 43.99 L 172.62 44.28 L 172.78 44.58 L 172.93 44.88 L 173.08 45.18 L 173.23 45.49 L 173.38 45.80 L 173.53 46.11 L 173.68 46.42 L 173.83 46.74 L 173.99 47.06 L 174.14 47.38 L 174.29 47.71 L 174.44 48.03 L 174.59 48.36 L 174.74 48.70 L 174.89 49.03 L 175.04 49.37 L 175.20 49.71 L 175.35 50.05 L 175.50 50.40 L 175.65 50.75 L 175.80 51.10 L 175.95 51.45 L 176.10 51.81 L 176.25 52.17 L 176.40 52.53 L 176.56 52.89 L 176.71 53.25 L 176.86 53.62 L 177.01 53.99 L 177.16 54.36 L 177.31 54.73 L 177.46 55.11 L 177.61 55.49 L 177.77 55.87 L 177.92 56.25 L 178.07 56.63 L 178.22 57.02 L 178.37 57.41 L 178.52 57.80 L 178.67 58.19 L 178.82 58.59 L 178.97 58.98 L 179.13 59.38 L 179.28 59.78 L 179.43 60.18 L 179.58 60.58 L 179.73 60.99 L 179.88 61.39 L 180.03 61.80 L 180.18 62.21 L 180.34 62.62 L 180.49 63.04 L 180.64 63.45 L 180.79 63.87 L 180.94 64.29 L 181.09 64.71 L 181.24 65.13 L 181.39 65.55 L 181.55 65.97 L 181.70 66.40 L 181.85 66.82 L 182.00 67.25 L 182.15 67.68 L 182.30 68.11 L 182.45 68.54 L 182.60 68.97 L 182.75 69.41 L 182.91 69.84 L 183.06 70.28 L 183.21 70.72 L 183.36 71.15 L 183.51 71.59 L 183.66 72.03 L 183.81 72.47 L 183.96 72.92 L 184.12 73.36 L 184.27 73.80 L 184.42 74.25 L 184.57 74.69 L 184.72 75.14 L 184.87 75.58 L 185.02 76.03 L 185.17 76.48 L 185.33 76.93 L 185.48 77.38 L 185.63 77.83 L 185.78 78.28 L 185.93 78.73 L 186.08 79.18 L 186.23 79.63 L 186.38 80.08 L 186.53 80.53 L 186.69 80.99 L 186.84 81.44 L 186.99 81.89 L 187.14 82.35 L 187.29 82.80 L 187.44 83.26 L 187.59 83.71 L 187.74 84.17 L 187.90 84.62 L 188.05 85.07 L 188.20 85.53 L 188.35 85.98 L 188.50 86.44 L 188.65 86.89 L 188.80 87.35 L 188.95 87.80 L 189.11 88.26 L 189.26 88.71 L 189.41 89.17 L 189.56 89.62 L 189.71 90.07 L 189.86 90.53 L 190.01 90.98 L 190.16 91.43 L 190.31 91.89 L 190.47 92.34 L 190.62 92.79 L 190.77 93.24 L 190.92 93.69 L 191.07 94.14 L 191.22 94.59 L 191.37 95.04 L 191.52 95.49 L 191.68 95.94 L 191.83 96.38 L 191.98 96.83 L 192.13 97.27 L 192.28 97.72 L 192.43 98.16 L 192.58 98.61 L 192.73 99.05 L 192.88 99.49 L 193.04 99.93 L 193.19 100.37 L 193.34 100.81 L 193.49 101.25 L 193.64 101.69 L 193.79 102.12 L 193.94 102.56 L 194.09 102.99 L 194.25 103.42 L 194.40 103.85 L 194.55 104.29 L 194.70 104.71 L 194.85 105.14 L 195.00 105.57 L 195.15 106.00 L 195.30 106.42 L 195.46 106.84 L 195.61 107.26 L 195.76 107.68 L 195.91 108.10 L 196.06 108.52 L 196.21 108.94 L 196.36 109.35 L 196.51 109.76 L 196.66 110.18 L 196.82 110.59 L 196.97 110.99 L 197.12 111.40 L 197.27 111.81 L 197.42 112.21 L 197.57 112.61 L 197.72 113.01 L 197.87 113.41 L 198.03 113.81 L 198.18 114.20 L 198.33 114.60 L 198.48 114.99 L 198.63 115.38 L 198.78 115.77 L 198.93 116.15 L 199.08 116.54 L 199.24 116.92 L 199.39 117.30 L 199.54 117.68 L 199.69 118.05 L 199.84 118.43 L 199.99 118.80 L 200.14 119.17 L 200.29 119.54 L 200.44 119.91 L 200.60 120.27 L 200.75 120.63 L 200.90 120.99 L 201.05 121.35 L 201.20 121.71 L 201.35 122.06 L 201.50 122.41 L 201.65 122.76 L 201.81 123.11 L 201.96 123.45 L 202.11 123.80 L 202.26 124.14 L 202.41 124.47 L 202.56 124.81 L 202.71 125.14 L 202.86 125.47 L 203.02 125.80 L 203.17 126.13 L 203.32 126.45 L 203.47 126.77 L 203.62 127.09 L 203.77 127.41 L 203.92 127.72 L 204.07 128.04 L 204.22 128.34 L 204.38 128.65 L 204.53 128.96 L 204.68 129.26 L 204.83 129.56 L 204.98 129.85 L 205.13 130.15 L 205.28 130.44 L 205.43 130.73 L 205.59 131.01 L 205.74 131.30 L 205.89 131.58 L 206.04 131.86 L 206.19 132.13 L 206.34 132.40 L 206.49 132.67 L 206.64 132.94 L 206.79 133.21 L 206.95 133.47 L 207.10 133.73 L 207.25 133.99 L 207.40 134.24 L 207.55 134.49 L 207.70 134.74 L 207.85 134.99 L 208.00 135.23 L 208.16 135.47 L 208.31 135.71 L 208.46 135.94 L 208.61 136.17 L 208.76 136.40 L 208.91 136.63 L 209.06 136.85 L 209.21 137.07 L 209.37 137.29 L 209.52 137.51 L 209.67 137.72 L 209.82 137.93 L 209.97 138.14 L 210.12 138.34 L 210.27 138.54 L 210.42 138.74 L 210.57 138.93 L 210.73 139.13 L 210.88 139.32 L 211.03 139.50 L 211.18 139.69 L 211.33 139.87 L 211.48 140.05 L 211.63 140.22 L 211.78 140.39 L 211.94 140.56 L 212.09 140.73 L 212.24 140.89 L 212.39 141.05 L 212.54 141.21 L 212.69 141.37 L 212.84 141.52 L 212.99 141.67 L 213.15 141.81 L 213.30 141.96 L 213.45 142.10 L 213.60 142.24 L 213.75 142.37 L 213.90 142.50 L 214.05 142.63 L 214.20 142.76 L 214.35 142.88 L 214.51 143.00 L 214.66 143.12 L 214.81 143.23 L 214.96 143.35 L 215.11 143.46 L 215.26 143.56 L 215.41 143.67 L 215.56 143.77 L 215.72 143.86 L 215.87 143.96 L 216.02 144.05 L 216.17 144.14 L 216.32 144.23 L 216.47 144.31 L 216.62 144.39 L 216.77 144.47 L 216.92 144.54 L 217.08 144.62 L 217.23 144.69 L 217.38 144.75 L 217.53 144.82 L 217.68 144.88 L 217.83 144.94 L 217.98 144.99 L 218.13 145.05 L 218.29 145.10 L 218.44 145.14 L 218.59 145.19 L 218.74 145.23 L 218.89 145.27 L 219.04 145.31 L 219.19 145.34 L 219.34 145.37 L 219.50 145.40 L 219.65 145.43 L 219.80 145.45 L 219.95 145.47 L 220.10 145.49 L 220.25 145.51 L 220.40 145.52 L 220.55 145.53 L 220.70 145.54 L 220.86 145.54 L 221.01 145.55 L 221.16 145.55 L 221.31 145.55 L 221.46 145.54 L 221.61 145.53 L 221.76 145.52 L 221.91 145.51 L 222.07 145.50 L 222.22 145.48 L 222.37 145.46 L 222.52 145.44 L 222.67 145.42 L 222.82 145.39 L 222.97 145.36 L 223.12 145.33 L 223.28 145.30 L 223.43 145.26 L 223.58 145.22 L 223.73 145.18 L 223.88 145.14 L 224.03 145.09 L 224.18 145.05 L 224.33 145.00 L 224.48 144.95 L 224.64 144.89 L 224.79 144.84 L 224.94 144.78 L 225.09 144.72 L 225.24 144.65 L 225.39 144.59 L 225.54 144.52 L 225.69 144.45 L 225.85 144.38 L 226.00 144.31 L 226.15 144.24 L 226.30 144.16 L 226.45 144.08 L 226.60 144.00 L 226.75 143.92 L 226.90 143.83 L 227.06 143.74 L 227.21 143.66 L 227.36 143.57 L 227.51 143.47 L 227.66 143.38 L 227.81 143.28 L 227.96 143.19 L 228.11 143.09 L 228.26 142.98 L 228.42 142.88 L 228.57 142.78 L 228.72 142.67 L 228.87 142.56 L 229.02 142.45 L 229.17 142.34 L 229.32 142.23 L 229.47 142.11 L 229.63 142.00 L 229.78 141.88 L 229.93 141.76 L 230.08 141.64 L 230.23 141.51 L 230.38 141.39 L 230.53 141.27 L 230.68 141.14 L 230.83 141.01 L 230.99 140.88 L 231.14 140.75 L 231.29 140.62 L 231.44 140.48 L 231.59 140.35 L 231.74 140.21 L 231.89 140.07 L 232.04 139.93 L 232.20 139.79 L 232.35 139.65 L 232.50 139.51 L 232.65 139.37 L 232.80 139.22 L 232.95 139.07 L 233.10 138.93 L 233.25 138.78 L 233.41 138.63 L 233.56 138.48 L 233.71 138.33 L 233.86 138.17 L 234.01 138.02 L 234.16 137.87 L 234.31 137.71 L 234.46 137.56 L 234.61 137.40 L 234.77 137.24 L 234.92 137.08 L 235.07 136.92 L 235.22 136.76 L 235.37 136.60 L 235.52 136.44 L 235.67 136.27 L 235.82 136.11 L 235.98 135.95 L 236.13 135.78 L 236.28 135.62 L 236.43 135.45 L 236.58 135.28 L 236.73 135.12 L 236.88 134.95 L 237.03 134.78 L 237.19 134.61 L 237.34 134.44 L 237.49 134.27 L 237.64 134.10 L 237.79 133.93 L 237.94 133.76 L 238.09 133.59 L 238.24 133.41 L 238.39 133.24 L 238.55 133.07 L 238.70 132.90 L 238.85 132.72 L 239.00 132.55 L 239.15 132.37 L 239.30 132.20 L 239.45 132.03 L 239.60 131.85 L 239.76 131.68 L 239.91 131.50 L 240.06 131.33 L 240.21 131.15 L 240.36 130.98 L 240.51 130.80 L 240.66 130.63 L 240.81 130.45 L 240.96 130.28 L 241.12 130.10 L 241.27 129.93 L 241.42 129.75 L 241.57 129.58 L 241.72 129.40 L 241.87 129.23 L 242.02 129.05 L 242.17 128.88 L 242.33 128.70 L 242.48 128.53 L 242.63 128.35 L 242.78 128.18 L 242.93 128.01 L 243.08 127.83 L 243.23 127.66 L 243.38 127.49 L 243.54 127.32 L 243.69 127.14 L 243.84 126.97 L 243.99 126.80 L 244.14 126.63 L 244.29 126.46 L 244.44 126.29 L 244.59 126.12 L 244.74 125.95 L 244.90 125.79 L 245.05 125.62 L 245.20 125.45 L 245.35 125.28 L 245.50 125.12 L 245.65 124.95 L 245.80 124.79 L 245.95 124.62 L 246.11 124.46 L 246.26 124.30 L 246.41 124.13 L 246.56 123.97 L 246.71 123.81 L 246.86 123.65 L 247.01 123.49 L 247.16 123.33 L 247.32 123.18 L 247.47 123.02 L 247.62 122.86 L 247.77 122.71 L 247.92 122.55 L 248.07 122.40 L 248.22 122.25 L 248.37 122.09 L 248.52 121.94 L 248.68 121.79 L 248.83 121.64 L 248.98 121.50 L 249.13 121.35 L 249.28 121.20 L 249.43 121.06 L 249.58 120.91 L 249.73 120.77 L 249.89 120.63 L 250.04 120.49 L 250.19 120.35 L 250.34 120.21 L 250.49 120.07 L 250.64 119.93 L 250.79 119.80 L 250.94 119.66 L 251.10 119.53 L 251.25 119.39 L 251.40 119.26 L 251.55 119.13 L 251.70 119.00 L 251.85 118.88 L 252.00 118.75 L 252.15 118.62 L 252.30 118.50 L 252.46 118.38 L 252.61 118.25 L 252.76 118.13 L 252.91 118.02 L 253.06 117.90 L 253.21 117.78 L 253.36 117.67 L 253.51 117.55 L 253.67 117.44 L 253.82 117.33 L 253.97 117.22 L 254.12 117.11 L 254.27 117.00 L 254.42 116.89 L 254.57 116.79 L 254.72 116.69 L 254.87 116.58 L 255.03 116.48 L 255.18 116.38 L 255.33 116.29 L 255.48 116.19 L 255.63 116.09 L 255.78 116.00 L 255.93 115.91 L 256.08 115.82 L 256.24 115.73 L 256.39 115.64 L 256.54 115.55 L 256.69 115.47 L 256.84 115.39 L 256.99 115.30 L 257.14 115.22 L 257.29 115.14 L 257.45 115.07 L 257.60 114.99 L 257.75 114.92 L 257.90 114.84 L 258.05 114.77 L 258.20 114.70 L 258.35 114.63 L 258.50 114.57 L 258.65 114.50 L 258.81 114.44 L 258.96 114.37 L 259.11 114.31 L 259.26 114.25 L 259.41 114.20 L 259.56 114.14 L 259.71 114.08 L 259.86 114.03 L 260.02 113.98 L 260.17 113.93 L 260.32 113.88 L 260.47 113.83 L 260.62 113.79 L 260.77 113.74 L 260.92 113.70 L 261.07 113.66 L 261.23 113.62 L 261.38 113.58 L 261.53 113.55 L 261.68 113.51 L 261.83 113.48 L 261.98 113.45 L 262.13 113.42 L 262.28 113.39 L 262.43 113.36 L 262.59 113.33 L 262.74 113.31 L 262.89 113.29 L 263.04 113.27 L 263.19 113.25 L 263.34 113.23 L 263.49 113.21 L 263.64 113.20 L 263.80 113.18 L 263.95 113.17 L 264.10 113.16 L 264.25 113.15 L 264.40 113.15 L 264.55 113.14 L 264.70 113.14 L 264.85 113.13 L 265.01 113.13 L 265.16 113.13 L 265.31 113.13 L 265.46 113.14 L 265.61 113.14 L 265.76 113.15 L 265.91 113.16 L 266.06 113.16 L 266.21 113.17 L 266.37 113.19 L 266.52 113.20 L 266.67 113.21 L 266.82 113.23 L 266.97 113.25 L 267.12 113.27 L 267.27 113.29 L 267.42 113.31 L 267.58 113.33 L 267.73 113.36 L 267.88 113.38 L 268.03 113.41 L 268.18 113.44 L 268.33 113.47 L 268.48 113.50 L 268.63 113.54 L 268.78 113.57 L 268.94 113.61 L 269.09 113.64 L 269.24 113.68 L 269.39 113.72 L 269.54 113.76 L 269.69 113.80 L 269.84 113.85 L 269.99 113.89 L 270.15 113.94 L 270.30 113.98 L 270.45 114.03 L 270.60 114.08 L 270.75 114.13 L 270.90 114.19 L 271.05 114.24 L 271.20 114.29 L 271.36 114.35 L 271.51 114.41 L 271.66 114.47 L 271.81 114.52 L 271.96 114.59 L 272.11 114.65 L 272.26 114.71 L 272.41 114.77 L 272.56 114.84 L 272.72 114.90 L 272.87 114.97 L 273.02 115.04 L 273.17 115.11 L 273.32 115.18 L 273.47 115.25 L 273.62 115.32 L 273.77 115.40 L 273.93 115.47 L 274.08 115.55 L 274.23 115.62 L 274.38 115.70 L 274.53 115.78 L 274.68 115.86 L 274.83 115.94 L 274.98 116.02 L 275.14 116.10 L 275.29 116.19 L 275.44 116.27 L 275.59 116.36 L 275.74 116.44 L 275.89 116.53 L 276.04 116.61 L 276.19 116.70 L 276.34 116.79 L 276.50 116.88 L 276.65 116.97 L 276.80 117.06 L 276.95 117.16 L 277.10 117.25 L 277.25 117.34 L 277.40 117.44 L 277.55 117.53 L 277.71 117.63 L 277.86 117.73 L 278.01 117.82 L 278.16 117.92 L 278.31 118.02 L 278.46 118.12 L 278.61 118.22 L 278.76 118.32 L 278.91 118.42 L 279.07 118.52 L 279.22 118.62 L 279.37 118.73 L 279.52 118.83 L 279.67 118.93 L 279.82 119.04 L 279.97 119.14 L 280.12 119.25 L 280.28 119.35 L 280.43 119.46 L 280.58 119.56 L 280.73 119.67 L 280.88 119.78 L 281.03 119.89 L 281.18 119.99 L 281.33 120.10 L 281.49 120.21 L 281.64 120.32 L 281.79 120.43 L 281.94 120.54 L 282.09 120.65 L 282.24 120.76 L 282.39 120.87 L 282.54 120.98 L 282.69 121.09 L 282.85 121.21 L 283.00 121.32 L 283.15 121.43 L 283.30 121.54 L 283.45 121.65 L 283.60 121.77 L 283.75 121.88 L 283.90 121.99 L 284.06 122.10 L 284.21 122.22 L 284.36 122.33 L 284.51 122.44 L 284.66 122.56 L 284.81 122.67 L 284.96 122.78 L 285.11 122.90 L 285.27 123.01 L 285.42 123.12 L 285.57 123.24 L 285.72 123.35 L 285.87 123.46 L 286.02 123.57 L 286.17 123.69 L 286.32 123.80 L 286.47 123.91 L 286.63 124.03 L 286.78 124.14 L 286.93 124.25 L 287.08 124.36 L 287.23 124.48 L 287.38 124.59 L 287.53 124.70 L 287.68 124.81 L 287.84 124.92 L 287.99 125.03 L 288.14 125.14 L 288.29 125.25 L 288.44 125.36 L 288.59 125.47 L 288.74 125.58 L 288.89 125.69 L 289.05 125.80 L 289.20 125.91 L 289.35 126.02 L 289.50 126.13 L 289.65 126.24 L 289.80 126.34 L 289.95 126.45 L 290.10 126.56 L 290.25 126.66 L 290.41 126.77 L 290.56 126.87 L 290.71 126.98 L 290.86 127.08 L 291.01 127.19 L 291.16 127.29 L 291.31 127.39 L 291.46 127.49 L 291.62 127.60 L 291.77 127.70 L 291.92 127.80 L 292.07 127.90 L 292.22 128.00 L 292.37 128.10 L 292.52 128.20 L 292.67 128.29 L 292.82 128.39 L 292.98 128.49 L 293.13 128.58 L 293.28 128.68 L 293.43 128.77 L 293.58 128.87 L 293.73 128.96 L 293.88 129.05 L 294.03 129.15 L 294.19 129.24 L 294.34 129.33 L 294.49 129.42 L 294.64 129.51 L 294.79 129.60 L 294.94 129.68 L 295.09 129.77 L 295.24 129.86 L 295.40 129.94 L 295.55 130.03 L 295.70 130.11 L 295.85 130.19 L 296.00 130.27" fill="none" stroke="#7E8692" stroke-width="2.3" stroke-linecap="round" stroke-linejoin="round"/>
</svg>
