<svg xmlns="http://www.w3.org/2000/svg" viewBox="0 0 320 180" width="320" height="180">
  <rect width="320" height="180" fill="none"/>
  <path d="M 24.00 157.58 L 24.30 157.22 L 24.61 156.85 L 24.91 156.49 L 25.21 156.13 L 25.51 155.77 L 25.82 155.42 L 26.12 155.06 L 26.42 154.71 L 26.72 154.36 L 27.03 154.01 L 27.33 153.66 L 27.63 153.32 L 27.93 152.97 L 28.24 152.63 L 28.54 152.29 L 28.84 151.95 L 29.14 151.62 L 29.45 151.28 L 29.75 150.95 L 30.05 150.62 L 30.35 150.29 L 30.66 149.96 L 30.96 149.63 L 31.26 149.31 L 31.56 148.99 L 31.87 148.67 L 32.17 148.35 L 32.47 148.03 L 32.77 147.71 L 33.08 147.40 L 33.38 147.09 L 33.68 146.78 L 33.98 146.47 L 34.29 146.16 L 34.59 145.85 L 34.89 145.55 L 35.19 145.24 L 35.50 144.94 L 35.80 144.64 L 36.10 144.34 L 36.40 144.05 L 36.71 143.75 L 37.01 143.46 L 37.31 143.17 L 37.62 142.88 L 37.92 142.59 L 38.22 142.30 L 38.52 142.01 L 38.83 141.73 L 39.13 141.44 L 39.43 141.16 L 39.73 140.88 L 40.04 140.60 L 40.34 140.33 L 40.64 140.05 L 40.94 139.78 L 41.25 139.50 L 41.55 139.23 L 41.85 138.96 L 42.15 138.69 L 42.46 138.42 L 42.76 138.16 L 43.06 137.89 L 43.36 137.63 L 43.67 137.37 L 43.97 137.11 L 44.27 136.85 L 44.57 136.59 L 44.88 136.33 L 45.18 136.08 L 45.48 135.82 L 45.78 135.57 L 46.09 135.32 L 46.39 135.07 L 46.69 134.82 L 46.99 134.57 L 47.30 134.33 L 47.60 134.08 L 47.90 133.84 L 48.20 133.60 L 48.51 133.35 L 48.81 133.11 L 49.11 132.87 L 49.41 132.64 L 49.72 132.40 L 50.02 132.17 L 50.32 131.93 L 50.63 131.70 L 50.93 131.47 L 51.23 131.24 L 51.53 131.01 L 51.84 130.78 L 52.14 130.55 L 52.44 130.33 L 52.74 130.10 L 53.05 129.88 L 53.35 129.66 L 53.65 129.43 L 53.95 129.21 L 54.26 129.00 L 54.56 128.78 L 54.86 128.56 L 55.16 128.35 L 55.47 128.13 L 55.77 127.92 L 56.07 127.71 L 56.37 127.49 L 56.68 127.28 L 56.98 127.07 L 57.28 126.87 L 57.58 126.66 L 57.89 126.45 L 58.19 126.25 L 58.49 126.04 L 58.79 125.84 L 59.10 125.64 L 59.40 125.44 L 59.70 125.24 L 60.00 125.04 L 60.31 124.84 L 60.61 124.64 L 60.91 124.45 L 61.21 124.25 L 61.52 124.06 L 61.82 123.87 L 62.12 123.67 L 62.42 123.48 L 62.73 123.29 L 63.03 123.10 L 63.33 122.92 L 63.64 122.73 L 63.94 122.54 L 64.24 122.36 L 64.54 122.17 L 64.85 121.99 L 65.15 121.81 L 65.45 121.62 L 65.75 121.44 L 66.06 121.26 L 66.36 121.09 L 66.66 120.91 L 66.96 120.73 L 67.27 120.55 L 67.57 120.38 L 67.87 120.20 L 68.17 120.03 L 68.48 119.86 L 68.78 119.68 L 69.08 119.51 L 69.38 119.34 L 69.69 119.17 L 69.99 119.00 L 70.29 118.84 L 70.59 118.67 L 70.90 118.50 L 71.20 118.34 L 71.50 118.17 L 71.80 118.01 L 72.11 117.85 L 72.41 117.68 L 72.71 117.52 L 73.01 117.36 L 73.32 117.20 L 73.62 117.04 L 73.92 116.88 L 74.22 116.73 L 74.53 116.57 L 74.83 116.41 L 75.13 116.26 L 75.43 116.10 L 75.74 115.95 L 76.04 115.80 L 76.34 115.64 L 76.65 115.49 L 76.95 115.34 L 77.25 115.19 L 77.55 115.04 L 77.86 114.89 L 78.16 114.74 L 78.46 114.60 L 78.76 114.45 L 79.07 114.30 L 79.37 114.16 L 79.67 114.02 L 79.97 113.87 L 80.28 113.73 L 80.58 113.59 L 80.88 113.44 L 81.18 113.30 L 81.49 113.16 L 81.79 113.02 L 82.09 112.88 L 82.39 112.74 L 82.70 112.61 L 83.00 112.47 L 83.30 112.33 L 83.60 112.20 L 83.91 112.06 L 84.21 111.93 L 84.51 111.79 L 84.81 111.66 L 85.12 111.53 L 85.42 111.39 L 85.72 111.26 L 86.02 111.13 L 86.33 111.00 L 86.63 110.87 L 86.93 110.74 L 87.23 110.61 L 87.54 110.49 L 87.84 110.36 L 88.14 110.23 L 88.44 110.10 L 88.75 109.98 L 89.05 109.85 L 89.35 109.73 L 89.66 109.61 L 89.96 109.48 L 90.26 109.36 L 90.56 109.24 L 90.87 109.11 L 91.17 108.99 L 91.47 108.87 L 91.77 108.75 L 92.08 108.63 L 92.38 108.51 L 92.68 108.39 L 92.98 108.28 L 93.29 108.16 L 93.59 108.04 L 93.89 107.93 L 94.19 107.81 L 94.50 107.69 L 94.80 107.58 L 95.10 107.46 L 95.40 107.35 L 95.71 107.24 L 96.01 107.12 L 96.31 107.01 L 96.61 106.90 L 96.92 106.79 L 97.22 106.68 L 97.52 106.57 L 97.82 106.46 L 98.13 106.35 L 98.43 106.24 L 98.73 106.13 L 99.03 106.02 L 99.34 105.91 L 99.64 105.81 L 99.94 105.70 L 100.24 105.59 L 100.55 105.49 L 100.85 105.38 L 101.15 105.27 L 101.45 105.17 L 101.76 105.07 L 102.06 104.96 L 102.36 104.86 L 102.67 104.76 L 102.97 104.65 L 103.27 104.55 L 103.57 104.45 L 103.88 104.35 L 104.18 104.25 L 104.48 104.15 L 104.78 104.05 L 105.09 103.95 L 105.39 103.85 L 105.69 103.75 L 105.99 103.65 L 106.30 103.55 L 106.60 103.45 L 106.90 103.36 L 107.20 103.26 L 107.51 103.16 L 107.81 103.07 L 108.11 102.97 L 108.41 102.88 L 108.72 102.78 L 109.02 102.69 L 109.32 102.59 L 109.62 102.50 L 109.93 102.40 L 110.23 102.31 L 110.53 102.22 L 110.83 102.12 L 111.14 102.03 L 111.44 101.94 L 111.74 101.85 L 112.04 101.76 L 112.35 101.67 L 112.65 101.58 L 112.95 101.49 L 113.25 101.40 L 113.56 101.31 L 113.86 101.22 L 114.16 101.13 L 114.46 101.04 L 114.77 100.95 L 115.07 100.86 L 115.37 100.78 L 115.68 100.69 L 115.98 100.60 L 116.28 100.51 L 116.58 100.43 L 116.89 100.34 L 117.19 100.26 L 117.49 100.17 L 117.79 100.08 L 118.10 100.00 L 118.40 99.91 L 118.70 99.83 L 119.00 99.75 L 119.31 99.66 L 119.61 99.58 L 119.91 99.49 L 120.21 99.41 L 120.52 99.33 L 120.82 99.25 L 121.12 99.16 L 121.42 99.08 L 121.73 99.00 L 122.03 98.92 L 122.33 98.84 L 122.63 98.76 L 122.94 98.68 L 123.24 98.60 L 123.54 98.51 L 123.84 98.43 L 124.15 98.35 L 124.45 98.28 L 124.75 98.20 L 125.05 98.12 L 125.36 98.04 L 125.66 97.96 L 125.96 97.88 L 126.26 97.80 L 126.57 97.73 L 126.87 97.65 L 127.17 97.57 L 127.47 97.49 L 127.78 97.42 L 128.08 97.34 L 128.38 97.26 L 128.69 97.19 L 128.99 97.11 L 129.29 97.03 L 129.59 96.96 L 129.90 96.88 L 130.20 96.81 L 130.50 96.73 L 130.80 96.66 L 131.11 96.58 L 131.41 96.51 L 131.71 96.43 L 132.01 96.36 L 132.32 96.28 L 132.62 96.21 L 132.92 96.14 L 133.22 96.06 L 133.53 95.99 L 133.83 95.92 L 134.13 95.84 L 134.43 95.77 L 134.74 95.70 L 135.04 95.62 L 135.34 95.55 L 135.64 95.48 L 135.95 95.41 L 136.25 95.34 L 136.55 95.26 L 136.85 95.19 L 137.16 95.12 L 137.46 95.05 L 137.76 94.98 L 138.06 94.91 L 138.37 94.84 L 138.67 94.76 L 138.97 94.69 L 139.27 94.62 L 139.58 94.55 L 139.88 94.48 L 140.18 94.41 L 140.48 94.34 L 140.79 94.27 L 141.09 94.20 L 141.39 94.13 L 141.70 94.06 L 142.00 93.99 L 142.30 93.92 L 142.60 93.86 L 142.91 93.79 L 143.21 93.72 L 143.51 93.65 L 143.81 93.58 L 144.12 93.51 L 144.42 93.44 L 144.72 93.37 L 145.02 93.31 L 145.33 93.24 L 145.63 93.17 L 145.93 93.10 L 146.23 93.03 L 146.54 92.97 L 146.84 92.90 L 147.14 92.83 L 147.44 92.76 L 147.75 92.69 L 148.05 92.63 L 148.35 92.56 L 148.65 92.49 L 148.96 92.42 L 149.26 92.36 L 149.56 92.29 L 149.86 92.22 L 150.17 92.16 L 150.47 92.09 L 150.77 92.02 L 151.07 91.96 L 151.38 91.89 L 151.68 91.82 L 151.98 91.76 L 152.28 91.69 L 152.59 91.62 L 152.89 91.56 L 153.19 91.49 L 153.49 91.42 L 153.80 91.36 L 154.10 91.29 L 154.40 91.22 L 154.71 91.16 L 155.01 91.09 L 155.31 91.02 L 155.61 90.96 L 155.92 90.89 L 156.22 90.83 L 156.52 90.76 L 156.82 90.69 L 157.13 90.63 L 157.43 90.56 L 157.73 90.50 L 158.03 90.43 L 158.34 90.36 L 158.64 90.30 L 158.94 90.23 L 159.24 90.17 L 159.55 90.10 L 159.85 90.03 L 160.15 89.97 L 160.45 89.90 L 160.76 89.83 L 161.06 89.77 L 161.36 89.70 L 161.66 89.64 L 161.97 89.57 L 162.27 89.50 L 162.57 89.44 L 162.87 89.37 L 163.18 89.31 L 163.48 89.24 L 163.78 89.17 L 164.08 89.11 L 164.39 89.04 L 164.69 88.98 L 164.99 88.91 L 165.29 88.84 L 165.60 88.78 L 165.90 88.71 L 166.20 88.64 L 166.51 88.58 L 166.81 88.51 L 167.11 88.44 L 167.41 88.38 L 167.72 88.31 L 168.02 88.24 L 168.32 88.18 L 168.62 88.11 L 168.93 88.04 L 169.23 87.98 L 169.53 87.91 L 169.83 87.84 L 170.14 87.78 L 170.44 87.71 L 170.74 87.64 L 171.04 87.58 L 171.35 87.51 L 171.65 87.44 L 171.95 87.37 L 172.25 87.31 L 172.56 87.24 L 172.86 87.17 L 173.16 87.10 L 173.46 87.03 L 173.77 86.97 L 174.07 86.90 L 174.37 86.83 L 174.67 86.76 L 174.98 86.69 L 175.28 86.63 L 175.58 86.56 L 175.88 86.49 L 176.19 86.42 L 176.49 86.35 L 176.79 86.28 L 177.09 86.21 L 177.40 86.14 L 177.70 86.08 L 178.00 86.01 L 178.30 85.94 L 178.61 85.87 L 178.91 85.80 L 179.21 85.73 L 179.52 85.66 L 179.82 85.59 L 180.12 85.52 L 180.42 85.45 L 180.73 85.38 L 181.03 85.31 L 181.33 85.24 L 181.63 85.16 L 181.94 85.09 L 182.24 85.02 L 182.54 84.95 L 182.84 84.88 L 183.15 84.81 L 183.45 84.74 L 183.75 84.66 L 184.05 84.59 L 184.36 84.52 L 184.66 84.45 L 184.96 84.38 L 185.26 84.30 L 185.57 84.23 L 185.87 84.16 L 186.17 84.08 L 186.47 84.01 L 186.78 83.94 L 187.08 83.86 L 187.38 83.79 L 187.68 83.72 L 187.99 83.64 L 188.29 83.57 L 188.59 83.49 L 188.89 83.42 L 189.20 83.34 L 189.50 83.27 L 189.80 83.19 L 190.10 83.12 L 190.41 83.04 L 190.71 82.97 L 191.01 82.89 L 191.31 82.81 L 191.62 82.74 L 191.92 82.66 L 192.22 82.58 L 192.53 82.51 L 192.83 82.43 L 193.13 82.35 L 193.43 82.27 L 193.74 82.20 L 194.04 82.12 L 194.34 82.04 L 194.64 81.96 L 194.95 81.88 L 195.25 81.80 L 195.55 81.72 L 195.85 81.65 L 196.16 81.57 L 196.46 81.49 L 196.76 81.40 L 197.06 81.32 L 197.37 81.24 L 197.67 81.16 L 197.97 81.08 L 198.27 81.00 L 198.58 80.92 L 198.88 80.84 L 199.18 80.75 L 199.48 80.67 L 199.79 80.59 L 200.09 80.51 L 200.39 80.42 L 200.69 80.34 L 201.00 80.25 L 201.30 80.17 L 201.60 80.09 L 201.90 80.00 L 202.21 79.92 L 202.51 79.83 L 202.81 79.74 L 203.11 79.66 L 203.42 79.57 L 203.72 79.49 L 204.02 79.40 L 204.32 79.31 L 204.63 79.22 L 204.93 79.14 L 205.23 79.05 L 205.54 78.96 L 205.84 78.87 L 206.14 78.78 L 206.44 78.69 L 206.75 78.60 L 207.05 78.51 L 207.35 78.42 L 207.65 78.33 L 207.96 78.24 L 208.26 78.15 L 208.56 78.06 L 208.86 77.97 L 209.17 77.88 L 209.47 77.78 L 209.77 77.69 L 210.07 77.60 L 210.38 77.50 L 210.68 77.41 L 210.98 77.31 L 211.28 77.22 L 211.59 77.12 L 211.89 77.03 L 212.19 76.93 L 212.49 76.84 L 212.80 76.74 L 213.10 76.64 L 213.40 76.55 L 213.70 76.45 L 214.01 76.35 L 214.31 76.25 L 214.61 76.15 L 214.91 76.05 L 215.22 75.95 L 215.52 75.85 L 215.82 75.75 L 216.12 75.65 L 216.43 75.55 L 216.73 75.45 L 217.03 75.35 L 217.33 75.24 L 217.64 75.14 L 217.94 75.04 L 218.24 74.93 L 218.55 74.83 L 218.85 74.73 L 219.15 74.62 L 219.45 74.51 L 219.76 74.41 L 220.06 74.30 L 220.36 74.19 L 220.66 74.09 L 220.97 73.98 L 221.27 73.87 L 221.57 73.76 L 221.87 73.65 L 222.18 73.54 L 222.48 73.43 L 222.78 73.32 L 223.08 73.21 L 223.39 73.10 L 223.69 72.99 L 223.99 72.88 L 224.29 72.76 L 224.60 72.65 L 224.90 72.54 L 225.20 72.42 L 225.50 72.31 L 225.81 72.19 L 226.11 72.07 L 226.41 71.96 L 226.71 71.84 L 227.02 71.72 L 227.32 71.61 L 227.62 71.49 L 227.92 71.37 L 228.23 71.25 L 228.53 71.13 L 228.83 71.01 L 229.13 70.89 L 229.44 70.76 L 229.74 70.64 L 230.04 70.52 L 230.34 70.39 L 230.65 70.27 L 230.95 70.15 L 231.25 70.02 L 231.56 69.90 L 231.86 69.77 L 232.16 69.64 L 232.46 69.51 L 232.77 69.39 L 233.07 69.26 L 233.37 69.13 L 233.67 69.00 L 233.98 68.87 L 234.28 68.74 L 234.58 68.61 L 234.88 68.47 L 235.19 68.34 L 235.49 68.21 L 235.79 68.07 L 236.09 67.94 L 236.40 67.80 L 236.70 67.67 L 237.00 67.53 L 237.30 67.39 L 237.61 67.26 L 237.91 67.12 L 238.21 66.98 L 238.51 66.84 L 238.82 66.70 L 239.12 66.56 L 239.42 66.41 L 239.72 66.27 L 240.03 66.13 L 240.33 65.98 L 240.63 65.84 L 240.93 65.70 L 241.24 65.55 L 241.54 65.40 L 241.84 65.26 L 242.14 65.11 L 242.45 64.96 L 242.75 64.81 L 243.05 64.66 L 243.35 64.51 L 243.66 64.36 L 243.96 64.20 L 244.26 64.05 L 244.57 63.90 L 244.87 63.74 L 245.17 63.59 L 245.47 63.43 L 245.78 63.27 L 246.08 63.12 L 246.38 62.96 L 246.68 62.80 L 246.99 62.64 L 247.29 62.48 L 247.59 62.32 L 247.89 62.15 L 248.20 61.99 L 248.50 61.83 L 248.80 61.66 L 249.10 61.50 L 249.41 61.33 L 249.71 61.16 L 250.01 61.00 L 250.31 60.83 L 250.62 60.66 L 250.92 60.49 L 251.22 60.32 L 251.52 60.14 L 251.83 59.97 L 252.13 59.80 L 252.43 59.62 L 252.73 59.45 L 253.04 59.27 L 253.34 59.09 L 253.64 58.91 L 253.94 58.74 L 254.25 58.56 L 254.55 58.38 L 254.85 58.19 L 255.15 58.01 L 255.46 57.83 L 255.76 57.64 L 256.06 57.46 L 256.36 57.27 L 256.67 57.08 L 256.97 56.90 L 257.27 56.71 L 257.58 56.52 L 257.88 56.33 L 258.18 56.13 L 258.48 55.94 L 258.79 55.75 L 259.09 55.55 L 259.39 55.36 L 259.69 55.16 L 260.00 54.96 L 260.30 54.76 L 260.60 54.56 L 260.90 54.36 L 261.21 54.16 L 261.51 53.96 L 261.81 53.75 L 262.11 53.55 L 262.42 53.34 L 262.72 53.13 L 263.02 52.93 L 263.32 52.72 L 263.63 52.51 L 263.93 52.29 L 264.23 52.08 L 264.53 51.87 L 264.84 51.65 L 265.14 51.44 L 265.44 51.22 L 265.74 51.00 L 266.05 50.79 L 266.35 50.57 L 266.65 50.34 L 266.95 50.12 L 267.26 49.90 L 267.56 49.67 L 267.86 49.45 L 268.16 49.22 L 268.47 48.99 L 268.77 48.76 L 269.07 48.53 L 269.37 48.30 L 269.68 48.07 L 269.98 47.83 L 270.28 47.60 L 270.59 47.36 L 270.89 47.13 L 271.19 46.89 L 271.49 46.65 L 271.80 46.40 L 272.10 46.16 L 272.40 45.92 L 272.70 45.67 L 273.01 45.43 L 273.31 45.18 L 273.61 44.93 L 273.91 44.68 L 274.22 44.43 L 274.52 44.18 L 274.82 43.92 L 275.12 43.67 L 275.43 43.41 L 275.73 43.15 L 276.03 42.89 L 276.33 42.63 L 276.64 42.37 L 276.94 42.11 L 277.24 41.84 L 277.54 41.58 L 277.85 41.31 L 278.15 41.04 L 278.45 40.77 L 278.75 40.50 L 279.06 40.22 L 279.36 39.95 L 279.66 39.67 L 279.96 39.40 L 280.27 39.12 L 280.57 38.84 L 280.87 38.56 L 281.17 38.27 L 281.48 37.99 L 281.78 37.70 L 282.08 37.41 L 282.38 37.12 L 282.69 36.83 L 282.99 36.54 L 283.29 36.25 L 283.60 35.95 L 283.90 35.66 L 284.20 35.36 L 284.50 35.06 L 284.81 34.76 L 285.11 34.45 L 285.41 34.15 L 285.71 33.84 L 286.02 33.53 L 286.32 33.22 L 286.62 32.91 L 286.92 32.60 L 287.23 32.29 L 287.53 31.97 L 287.83 31.65 L 288.13 31.33 L 288.44 31.01 L 288.74 30.69 L 289.04 30.37 L 289.34 30.04 L 289.65 29.71 L 289.95 29.38 L 290.25 29.05 L 290.55 28.72 L 290.86 28.38 L 291.16 28.05 L 291.46 27.71 L 291.76 27.37 L 292.07 27.03 L 292.37 26.68 L 292.67 26.34 L 292.97 25.99 L 293.28 25.64 L 293.58 25.29 L 293.88 24.94 L 294.18 24.58 L 294.49 24.23 L 294.79 23.87 L 295.09 23.51 L 295.39 23.15 L 295.70 22.78 L 296.00 22.42" fill="none" stroke="#5F6B7A" stroke-width="2.5" stroke-linecap="round" stroke-linejoin="round"/>
</svg>
