<svg xmlns="http://www.w3.org/2000/svg" viewBox="0 0 320 180" width="320" height="180">
  <rect width="320" height="180" fill="#F4F5F7"/>
  <path d="M 18.00 -39.60 L 18.32 -38.83 L 18.63 -38.07 L 18.95 -37.30 L 19.26 -36.54 L 19.58 -35.78 L 19.90 -35.02 L 20.21 -34.26 L 20.53 -33.50 L 20.84 -32.75 L 21.16 -32.00 L 21.47 -31.25 L 21.79 -30.50 L 22.11 -29.75 L 22.42 -29.00 L 22.74 -28.26 L 23.05 -27.52 L 23.37 -26.78 L 23.69 -26.04 L 24.00 -25.30 L 24.32 -24.57 L 24.63 -23.83 L 24.95 -23.10 L 25.27 -22.37 L 25.58 -21.64 L 25.90 -20.91 L 26.21 -20.19 L 26.53 -19.46 L 26.85 -18.74 L 27.16 -18.02 L 27.48 -17.30 L 27.79 -16.59 L 28.11 -15.87 L 28.42 -15.16 L 28.74 -14.45 L 29.06 -13.74 L 29.37 -13.03 L 29.69 -12.32 L 30.00 -11.62 L 30.32 -10.92 L 30.64 -10.21 L 30.95 -9.51 L 31.27 -8.82 L 31.58 -8.12 L 31.90 -7.43 L 32.22 -6.73 L 32.53 -6.04 L 32.85 -5.35 L 33.16 -4.67 L 33.48 -3.98 L 33.80 -3.30 L 34.11 -2.61 L 34.43 -1.93 L 34.74 -1.25 L 35.06 -0.58 L 35.37 0.10 L 35.69 0.77 L 36.01 1.45 L 36.32 2.12 L 36.64 2.79 L 36.95 3.45 L 37.27 4.12 L 37.59 4.78 L 37.90 5.44 L 38.22 6.10 L 38.53 6.76 L 38.85 7.42 L 39.17 8.07 L 39.48 8.73 L 39.80 9.38 L 40.11 10.03 L 40.43 10.68 L 40.75 11.32 L 41.06 11.97 L 41.38 12.61 L 41.69 13.25 L 42.01 13.89 L 42.32 14.53 L 42.64 15.17 L 42.96 15.80 L 43.27 16.43 L 43.59 17.07 L 43.90 17.70 L 44.22 18.32 L 44.54 18.95 L 44.85 19.57 L 45.17 20.20 L 45.48 20.82 L 45.80 21.44 L 46.12 22.05 L 46.43 22.67 L 46.75 23.28 L 47.06 23.90 L 47.38 24.51 L 47.70 25.12 L 48.01 25.72 L 48.33 26.33 L 48.64 26.93 L 48.96 27.53 L 49.27 28.13 L 49.59 28.73 L 49.91 29.33 L 50.22 29.93 L 50.54 30.52 L 50.85 31.11 L 51.17 31.70 L 51.49 32.29 L 51.80 32.88 L 52.12 33.46 L 52.43 34.04 L 52.75 34.63 L 53.07 35.21 L 53.38 35.78 L 53.70 36.36 L 54.01 36.93 L 54.33 37.51 L 54.65 38.08 L 54.96 38.65 L 55.28 39.22 L 55.59 39.78 L 55.91 40.35 L 56.22 40.91 L 56.54 41.47 L 56.86 42.03 L 57.17 42.59 L 57.49 43.14 L 57.80 43.70 L 58.12 44.25 L 58.44 44.80 L 58.75 45.35 L 59.07 45.90 L 59.38 46.44 L 59.70 46.99 L 60.02 47.53 L 60.33 48.07 L 60.65 48.61 L 60.96 49.15 L 61.28 49.68 L 61.60 50.21 L 61.91 50.75 L 62.23 51.28 L 62.54 51.81 L 62.86 52.33 L 63.17 52.86 L 63.49 53.38 L 63.81 53.90 L 64.12 54.42 L 64.44 54.94 L 64.75 55.46 L 65.07 55.97 L 65.39 56.49 L 65.70 57.00 L 66.02 57.51 L 66.33 58.01 L 66.65 58.52 L 66.97 59.03 L 67.28 59.53 L 67.60 60.03 L 67.91 60.53 L 68.23 61.03 L 68.55 61.52 L 68.86 62.02 L 69.18 62.51 L 69.49 63.00 L 69.81 63.49 L 70.12 63.98 L 70.44 64.46 L 70.76 64.95 L 71.07 65.43 L 71.39 65.91 L 71.70 66.39 L 72.02 66.87 L 72.34 67.34 L 72.65 67.82 L 72.97 68.29 L 73.28 68.76 L 73.60 69.23 L 73.92 69.69 L 74.23 70.16 L 74.55 70.62 L 74.86 71.08 L 75.18 71.54 L 75.49 72.00 L 75.81 72.46 L 76.13 72.91 L 76.44 73.37 L 76.76 73.82 L 77.07 74.27 L 77.39 74.72 L 77.71 75.16 L 78.02 75.61 L 78.34 76.05 L 78.65 76.49 L 78.97 76.93 L 79.29 77.37 L 79.60 77.81 L 79.92 78.24 L 80.23 78.67 L 80.55 79.10 L 80.87 79.53 L 81.18 79.96 L 81.50 80.39 L 81.81 80.81 L 82.13 81.23 L 82.44 81.65 L 82.76 82.07 L 83.08 82.49 L 83.39 82.91 L 83.71 83.32 L 84.02 83.73 L 84.34 84.14 L 84.66 84.55 L 84.97 84.96 L 85.29 85.36 L 85.60 85.77 L 85.92 86.17 L 86.24 86.57 L 86.55 86.97 L 86.87 87.37 L 87.18 87.76 L 87.50 88.15 L 87.82 88.55 L 88.13 88.94 L 88.45 89.32 L 88.76 89.71 L 89.08 90.10 L 89.39 90.48 L 89.71 90.86 L 90.03 91.24 L 90.34 91.62 L 90.66 91.99 L 90.97 92.37 L 91.29 92.74 L 91.61 93.11 L 91.92 93.48 L 92.24 93.85 L 92.55 94.22 L 92.87 94.58 L 93.19 94.94 L 93.50 95.30 L 93.82 95.66 L 94.13 96.02 L 94.45 96.38 L 94.77 96.73 L 95.08 97.08 L 95.40 97.43 L 95.71 97.78 L 96.03 98.13 L 96.34 98.48 L 96.66 98.82 L 96.98 99.16 L 97.29 99.50 L 97.61 99.84 L 97.92 100.18 L 98.24 100.51 L 98.56 100.85 L 98.87 101.18 L 99.19 101.51 L 99.50 101.84 L 99.82 102.16 L 100.14 102.49 L 100.45 102.81 L 100.77 103.13 L 101.08 103.45 L 101.40 103.77 L 101.72 104.09 L 102.03 104.40 L 102.35 104.72 L 102.66 105.03 L 102.98 105.34 L 103.29 105.64 L 103.61 105.95 L 103.93 106.25 L 104.24 106.56 L 104.56 106.86 L 104.87 107.16 L 105.19 107.46 L 105.51 107.75 L 105.82 108.05 L 106.14 108.34 L 106.45 108.63 L 106.77 108.92 L 107.09 109.21 L 107.40 109.49 L 107.72 109.77 L 108.03 110.06 L 108.35 110.34 L 108.67 110.62 L 108.98 110.89 L 109.30 111.17 L 109.61 111.44 L 109.93 111.71 L 110.24 111.98 L 110.56 112.25 L 110.88 112.52 L 111.19 112.79 L 111.51 113.05 L 111.82 113.31 L 112.14 113.57 L 112.46 113.83 L 112.77 114.09 L 113.09 114.34 L 113.40 114.59 L 113.72 114.84 L 114.04 115.09 L 114.35 115.34 L 114.67 115.59 L 114.98 115.83 L 115.30 116.08 L 115.62 116.32 L 115.93 116.56 L 116.25 116.79 L 116.56 117.03 L 116.88 117.27 L 117.19 117.50 L 117.51 117.73 L 117.83 117.96 L 118.14 118.19 L 118.46 118.41 L 118.77 118.64 L 119.09 118.86 L 119.41 119.08 L 119.72 119.30 L 120.04 119.51 L 120.35 119.73 L 120.67 119.94 L 120.99 120.16 L 121.30 120.37 L 121.62 120.57 L 121.93 120.78 L 122.25 120.99 L 122.57 121.19 L 122.88 121.39 L 123.20 121.59 L 123.51 121.79 L 123.83 121.99 L 124.14 122.18 L 124.46 122.38 L 124.78 122.57 L 125.09 122.76 L 125.41 122.95 L 125.72 123.13 L 126.04 123.32 L 126.36 123.50 L 126.67 123.68 L 126.99 123.86 L 127.30 124.04 L 127.62 124.21 L 127.94 124.39 L 128.25 124.56 L 128.57 124.73 L 128.88 124.90 L 129.20 125.07 L 129.52 125.24 L 129.83 125.40 L 130.15 125.56 L 130.46 125.72 L 130.78 125.88 L 131.09 126.04 L 131.41 126.20 L 131.73 126.35 L 132.04 126.50 L 132.36 126.65 L 132.67 126.80 L 132.99 126.95 L 133.31 127.09 L 133.62 127.24 L 133.94 127.38 L 134.25 127.52 L 134.57 127.66 L 134.89 127.79 L 135.20 127.93 L 135.52 128.06 L 135.83 128.19 L 136.15 128.32 L 136.46 128.45 L 136.78 128.58 L 137.10 128.70 L 137.41 128.83 L 137.73 128.95 L 138.04 129.07 L 138.36 129.19 L 138.68 129.30 L 138.99 129.42 L 139.31 129.53 L 139.62 129.64 L 139.94 129.75 L 140.26 129.86 L 140.57 129.97 L 140.89 130.07 L 141.20 130.17 L 141.52 130.27 L 141.84 130.37 L 142.15 130.47 L 142.47 130.57 L 142.78 130.66 L 143.10 130.75 L 143.41 130.84 L 143.73 130.93 L 144.05 131.02 L 144.36 131.10 L 144.68 131.19 L 144.99 131.27 L 145.31 131.35 L 145.63 131.43 L 145.94 131.51 L 146.26 131.58 L 146.57 131.66 L 146.89 131.73 L 147.21 131.80 L 147.52 131.87 L 147.84 131.93 L 148.15 132.00 L 148.47 132.06 L 148.79 132.12 L 149.10 132.18 L 149.42 132.24 L 149.73 132.30 L 150.05 132.35 L 150.36 132.40 L 150.68 132.46 L 151.00 132.51 L 151.31 132.55 L 151.63 132.60 L 151.94 132.64 L 152.26 132.69 L 152.58 132.73 L 152.89 132.77 L 153.21 132.80 L 153.52 132.84 L 153.84 132.87 L 154.16 132.91 L 154.47 132.94 L 154.79 132.97 L 155.10 132.99 L 155.42 133.02 L 155.74 133.04 L 156.05 133.07 L 156.37 133.09 L 156.68 133.11 L 157.00 133.12 L 157.31 133.14 L 157.63 133.15 L 157.95 133.16 L 158.26 133.17 L 158.58 133.18 L 158.89 133.19 L 159.21 133.19 L 159.53 133.20 L 159.84 133.20 L 160.16 133.20 L 160.47 133.20 L 160.79 133.19 L 161.11 133.19 L 161.42 133.18 L 161.74 133.17 L 162.05 133.16 L 162.37 133.15 L 162.69 133.14 L 163.00 133.12 L 163.32 133.11 L 163.63 133.09 L 163.95 133.07 L 164.26 133.04 L 164.58 133.02 L 164.90 132.99 L 165.21 132.97 L 165.53 132.94 L 165.84 132.91 L 166.16 132.87 L 166.48 132.84 L 166.79 132.80 L 167.11 132.77 L 167.42 132.73 L 167.74 132.69 L 168.06 132.64 L 168.37 132.60 L 168.69 132.55 L 169.00 132.51 L 169.32 132.46 L 169.64 132.40 L 169.95 132.35 L 170.27 132.30 L 170.58 132.24 L 170.90 132.18 L 171.21 132.12 L 171.53 132.06 L 171.85 132.00 L 172.16 131.93 L 172.48 131.87 L 172.79 131.80 L 173.11 131.73 L 173.43 131.66 L 173.74 131.58 L 174.06 131.51 L 174.37 131.43 L 174.69 131.35 L 175.01 131.27 L 175.32 131.19 L 175.64 131.10 L 175.95 131.02 L 176.27 130.93 L 176.59 130.84 L 176.90 130.75 L 177.22 130.66 L 177.53 130.57 L 177.85 130.47 L 178.16 130.37 L 178.48 130.27 L 178.80 130.17 L 179.11 130.07 L 179.43 129.97 L 179.74 129.86 L 180.06 129.75 L 180.38 129.64 L 180.69 129.53 L 181.01 129.42 L 181.32 129.30 L 181.64 129.19 L 181.96 129.07 L 182.27 128.95 L 182.59 128.83 L 182.90 128.70 L 183.22 128.58 L 183.54 128.45 L 183.85 128.32 L 184.17 128.19 L 184.48 128.06 L 184.80 127.93 L 185.11 127.79 L 185.43 127.66 L 185.75 127.52 L 186.06 127.38 L 186.38 127.24 L 186.69 127.09 L 187.01 126.95 L 187.33 126.80 L 187.64 126.65 L 187.96 126.50 L 188.27 126.35 L 188.59 126.20 L 188.91 126.04 L 189.22 125.88 L 189.54 125.72 L 189.85 125.56 L 190.17 125.40 L 190.48 125.24 L 190.80 125.07 L 191.12 124.90 L 191.43 124.73 L 191.75 124.56 L 192.06 124.39 L 192.38 124.21 L 192.70 124.04 L 193.01 123.86 L 193.33 123.68 L 193.64 123.50 L 193.96 123.32 L 194.28 123.13 L 194.59 122.95 L 194.91 122.76 L 195.22 122.57 L 195.54 122.38 L 195.86 122.18 L 196.17 121.99 L 196.49 121.79 L 196.80 121.59 L 197.12 121.39 L 197.43 121.19 L 197.75 120.99 L 198.07 120.78 L 198.38 120.57 L 198.70 120.37 L 199.01 120.16 L 199.33 119.94 L 199.65 119.73 L 199.96 119.51 L 200.28 119.30 L 200.59 119.08 L 200.91 118.86 L 201.23 118.64 L 201.54 118.41 L 201.86 118.19 L 202.17 117.96 L 202.49 117.73 L 202.81 117.50 L 203.12 117.27 L 203.44 117.03 L 203.75 116.79 L 204.07 116.56 L 204.38 116.32 L 204.70 116.08 L 205.02 115.83 L 205.33 115.59 L 205.65 115.34 L 205.96 115.09 L 206.28 114.84 L 206.60 114.59 L 206.91 114.34 L 207.23 114.09 L 207.54 113.83 L 207.86 113.57 L 208.18 113.31 L 208.49 113.05 L 208.81 112.79 L 209.12 112.52 L 209.44 112.25 L 209.76 111.98 L 210.07 111.71 L 210.39 111.44 L 210.70 111.17 L 211.02 110.89 L 211.33 110.62 L 211.65 110.34 L 211.97 110.06 L 212.28 109.77 L 212.60 109.49 L 212.91 109.21 L 213.23 108.92 L 213.55 108.63 L 213.86 108.34 L 214.18 108.05 L 214.49 107.75 L 214.81 107.46 L 215.13 107.16 L 215.44 106.86 L 215.76 106.56 L 216.07 106.25 L 216.39 105.95 L 216.71 105.64 L 217.02 105.34 L 217.34 105.03 L 217.65 104.72 L 217.97 104.40 L 218.28 104.09 L 218.60 103.77 L 218.92 103.45 L 219.23 103.13 L 219.55 102.81 L 219.86 102.49 L 220.18 102.16 L 220.50 101.84 L 220.81 101.51 L 221.13 101.18 L 221.44 100.85 L 221.76 100.51 L 222.08 100.18 L 222.39 99.84 L 222.71 99.50 L 223.02 99.16 L 223.34 98.82 L 223.66 98.48 L 223.97 98.13 L 224.29 97.78 L 224.60 97.43 L 224.92 97.08 L 225.23 96.73 L 225.55 96.38 L 225.87 96.02 L 226.18 95.66 L 226.50 95.30 L 226.81 94.94 L 227.13 94.58 L 227.45 94.22 L 227.76 93.85 L 228.08 93.48 L 228.39 93.11 L 228.71 92.74 L 229.03 92.37 L 229.34 91.99 L 229.66 91.62 L 229.97 91.24 L 230.29 90.86 L 230.61 90.48 L 230.92 90.10 L 231.24 89.71 L 231.55 89.32 L 231.87 88.94 L 232.18 88.55 L 232.50 88.15 L 232.82 87.76 L 233.13 87.37 L 233.45 86.97 L 233.76 86.57 L 234.08 86.17 L 234.40 85.77 L 234.71 85.36 L 235.03 84.96 L 235.34 84.55 L 235.66 84.14 L 235.98 83.73 L 236.29 83.32 L 236.61 82.91 L 236.92 82.49 L 237.24 82.07 L 237.56 81.65 L 237.87 81.23 L 238.19 80.81 L 238.50 80.39 L 238.82 79.96 L 239.13 79.53 L 239.45 79.10 L 239.77 78.67 L 240.08 78.24 L 240.40 77.81 L 240.71 77.37 L 241.03 76.93 L 241.35 76.49 L 241.66 76.05 L 241.98 75.61 L 242.29 75.16 L 242.61 74.72 L 242.93 74.27 L 243.24 73.82 L 243.56 73.37 L 243.87 72.91 L 244.19 72.46 L 244.51 72.00 L 244.82 71.54 L 245.14 71.08 L 245.45 70.62 L 245.77 70.16 L 246.08 69.69 L 246.40 69.23 L 246.72 68.76 L 247.03 68.29 L 247.35 67.82 L 247.66 67.34 L 247.98 66.87 L 248.30 66.39 L 248.61 65.91 L 248.93 65.43 L 249.24 64.95 L 249.56 64.46 L 249.88 63.98 L 250.19 63.49 L 250.51 63.00 L 250.82 62.51 L 251.14 62.02 L 251.45 61.52 L 251.77 61.03 L 252.09 60.53 L 252.40 60.03 L 252.72 59.53 L 253.03 59.03 L 253.35 58.52 L 253.67 58.01 L 253.98 57.51 L 254.30 57.00 L 254.61 56.49 L 254.93 55.97 L 255.25 55.46 L 255.56 54.94 L 255.88 54.42 L 256.19 53.90 L 256.51 53.38 L 256.83 52.86 L 257.14 52.33 L 257.46 51.81 L 257.77 51.28 L 258.09 50.75 L 258.40 50.21 L 258.72 49.68 L 259.04 49.15 L 259.35 48.61 L 259.67 48.07 L 259.98 47.53 L 260.30 46.99 L 260.62 46.44 L 260.93 45.90 L 261.25 45.35 L 261.56 44.80 L 261.88 44.25 L 262.20 43.70 L 262.51 43.14 L 262.83 42.59 L 263.14 42.03 L 263.46 41.47 L 263.78 40.91 L 264.09 40.35 L 264.41 39.78 L 264.72 39.22 L 265.04 38.65 L 265.35 38.08 L 265.67 37.51 L 265.99 36.93 L 266.30 36.36 L 266.62 35.78 L 266.93 35.21 L 267.25 34.63 L 267.57 34.04 L 267.88 33.46 L 268.20 32.88 L 268.51 32.29 L 268.83 31.70 L 269.15 31.11 L 269.46 30.52 L 269.78 29.93 L 270.09 29.33 L 270.41 28.73 L 270.73 28.13 L 271.04 27.53 L 271.36 26.93 L 271.67 26.33 L 271.99 25.72 L 272.30 25.12 L 272.62 24.51 L 272.94 23.90 L 273.25 23.28 L 273.57 22.67 L 273.88 22.05 L 274.20 21.44 L 274.52 20.82 L 274.83 20.20 L 275.15 19.57 L 275.46 18.95 L 275.78 18.32 L 276.10 17.70 L 276.41 17.07 L 276.73 16.43 L 277.04 15.80 L 277.36 15.17 L 277.68 14.53 L 277.99 13.89 L 278.31 13.25 L 278.62 12.61 L 278.94 11.97 L 279.25 11.32 L 279.57 10.68 L 279.89 10.03 L 280.20 9.38 L 280.52 8.73 L 280.83 8.07 L 281.15 7.42 L 281.47 6.76 L 281.78 6.10 L 282.10 5.44 L 282.41 4.78 L 282.73 4.12 L 283.05 3.45 L 283.36 2.79 L 283.68 2.12 L 283.99 1.45 L 284.31 0.77 L 284.63 0.10 L 284.94 -0.58 L 285.26 -1.25 L 285.57 -1.93 L 285.89 -2.61 L 286.20 -3.30 L 286.52 -3.98 L 286.84 -4.67 L 287.15 -5.35 L 287.47 -6.04 L 287.78 -6.73 L 288.10 -7.43 L 288.42 -8.12 L 288.73 -8.82 L 289.05 -9.51 L 289.36 -10.21 L 289.68 -10.92 L 290.00 -11.62 L 290.31 -12.32 L 290.63 -13.03 L 290.94 -13.74 L 291.26 -14.45 L 291.58 -15.16 L 291.89 -15.87 L 292.21 -16.59 L 292.52 -17.30 L 292.84 -18.02 L 293.15 -18.74 L 293.47 -19.46 L 293.79 -20.19 L 294.10 -20.91 L 294.42 -21.64 L 294.73 -22.37 L 295.05 -23.10 L 295.37 -23.83 L 295.68 -24.57 L 296.00 -25.30 L 296.31 -26.04 L 296.63 -26.78 L 296.95 -27.52 L 297.26 -28.26 L 297.58 -29.00 L 297.89 -29.75 L 298.21 -30.50 L 298.53 -31.25 L 298.84 -32.00 L 299.16 -32.75 L 299.47 -33.50 L 299.79 -34.26 L 300.10 -35.02 L 300.42 -35.78 L 300.74 -36.54 L 301.05 -37.30 L 301.37 -38.07 L 301.68 -38.83 L 302.00 -39.60" fill="none" stroke="#7E8692" stroke-width="2.3" stroke-linecap="round" stroke-linejoin="round"/>
</svg>
