<svg xmlns="http://www.w3.org/2000/svg" viewBox="0 0 320 180" width="320" height="180">
  <rect width="320" height="180" fill="#F4F5F7"/>
  <path d="M 18.00 38.45 L 18.32 39.43 L 18.63 40.41 L 18.95 41.37 L 19.26 42.33 L 19.58 43.29 L 19.90 44.23 L 20.21 45.18 L 20.53 46.11 L 20.84 47.04 L 21.16 47.96 L 21.47 48.88 L 21.79 49.79 L 22.11 50.69 L 22.42 51.59 L 22.74 52.48 L 23.05 53.36 L 23.37 54.24 L 23.69 55.11 L 24.00 55.98 L 24.32 56.84 L 24.63 57.69 L 24.95 58.54 L 25.27 59.38 L 25.58 60.22 L 25.90 61.05 L 26.21 61.88 L 26.53 62.70 L 26.85 63.51 L 27.16 64.32 L 27.48 65.12 L 27.79 65.92 L 28.11 66.71 L 28.42 67.49 L 28.74 68.27 L 29.06 69.04 L 29.37 69.81 L 29.69 70.57 L 30.00 71.33 L 30.32 72.08 L 30.64 72.83 L 30.95 73.57 L 31.27 74.30 L 31.58 75.03 L 31.90 75.76 L 32.22 76.48 L 32.53 77.19 L 32.85 77.90 L 33.16 78.60 L 33.48 79.30 L 33.80 79.99 L 34.11 80.68 L 34.43 81.36 L 34.74 82.04 L 35.06 82.71 L 35.37 83.38 L 35.69 84.04 L 36.01 84.70 L 36.32 85.35 L 36.64 85.99 L 36.95 86.64 L 37.27 87.27 L 37.59 87.91 L 37.90 88.53 L 38.22 89.16 L 38.53 89.77 L 38.85 90.39 L 39.17 90.99 L 39.48 91.60 L 39.80 92.20 L 40.11 92.79 L 40.43 93.38 L 40.75 93.96 L 41.06 94.54 L 41.38 95.12 L 41.69 95.69 L 42.01 96.26 L 42.32 96.82 L 42.64 97.37 L 42.96 97.93 L 43.27 98.48 L 43.59 99.02 L 43.90 99.56 L 44.22 100.09 L 44.54 100.62 L 44.85 101.15 L 45.17 101.67 L 45.48 102.19 L 45.80 102.70 L 46.12 103.21 L 46.43 103.72 L 46.75 104.22 L 47.06 104.71 L 47.38 105.21 L 47.70 105.70 L 48.01 106.18 L 48.33 106.66 L 48.64 107.14 L 48.96 107.61 L 49.27 108.08 L 49.59 108.54 L 49.91 109.00 L 50.22 109.46 L 50.54 109.91 L 50.85 110.36 L 51.17 110.80 L 51.49 111.24 L 51.80 111.68 L 52.12 112.11 L 52.43 112.54 L 52.75 112.97 L 53.07 113.39 L 53.38 113.80 L 53.70 114.22 L 54.01 114.63 L 54.33 115.04 L 54.65 115.44 L 54.96 115.84 L 55.28 116.24 L 55.59 116.63 L 55.91 117.02 L 56.22 117.40 L 56.54 117.78 L 56.86 118.16 L 57.17 118.54 L 57.49 118.91 L 57.80 119.28 L 58.12 119.64 L 58.44 120.00 L 58.75 120.36 L 59.07 120.72 L 59.38 121.07 L 59.70 121.41 L 60.02 121.76 L 60.33 122.10 L 60.65 122.44 L 60.96 122.77 L 61.28 123.11 L 61.60 123.44 L 61.91 123.76 L 62.23 124.08 L 62.54 124.40 L 62.86 124.72 L 63.17 125.03 L 63.49 125.34 L 63.81 125.65 L 64.12 125.95 L 64.44 126.25 L 64.75 126.55 L 65.07 126.85 L 65.39 127.14 L 65.70 127.43 L 66.02 127.72 L 66.33 128.00 L 66.65 128.28 L 66.97 128.56 L 67.28 128.83 L 67.60 129.10 L 67.91 129.37 L 68.23 129.64 L 68.55 129.90 L 68.86 130.17 L 69.18 130.42 L 69.49 130.68 L 69.81 130.93 L 70.12 131.18 L 70.44 131.43 L 70.76 131.68 L 71.07 131.92 L 71.39 132.16 L 71.70 132.40 L 72.02 132.63 L 72.34 132.86 L 72.65 133.09 L 72.97 133.32 L 73.28 133.55 L 73.60 133.77 L 73.92 133.99 L 74.23 134.21 L 74.55 134.42 L 74.86 134.64 L 75.18 134.85 L 75.49 135.06 L 75.81 135.26 L 76.13 135.47 L 76.44 135.67 L 76.76 135.87 L 77.07 136.06 L 77.39 136.26 L 77.71 136.45 L 78.02 136.64 L 78.34 136.83 L 78.65 137.01 L 78.97 137.20 L 79.29 137.38 L 79.60 137.56 L 79.92 137.74 L 80.23 137.91 L 80.55 138.08 L 80.87 138.26 L 81.18 138.42 L 81.50 138.59 L 81.81 138.76 L 82.13 138.92 L 82.44 139.08 L 82.76 139.24 L 83.08 139.40 L 83.39 139.55 L 83.71 139.71 L 84.02 139.86 L 84.34 140.01 L 84.66 140.15 L 84.97 140.30 L 85.29 140.44 L 85.60 140.59 L 85.92 140.73 L 86.24 140.87 L 86.55 141.00 L 86.87 141.14 L 87.18 141.27 L 87.50 141.40 L 87.82 141.53 L 88.13 141.66 L 88.45 141.79 L 88.76 141.91 L 89.08 142.04 L 89.39 142.16 L 89.71 142.28 L 90.03 142.40 L 90.34 142.51 L 90.66 142.63 L 90.97 142.74 L 91.29 142.85 L 91.61 142.96 L 91.92 143.07 L 92.24 143.18 L 92.55 143.29 L 92.87 143.39 L 93.19 143.50 L 93.50 143.60 L 93.82 143.70 L 94.13 143.80 L 94.45 143.89 L 94.77 143.99 L 95.08 144.08 L 95.40 144.18 L 95.71 144.27 L 96.03 144.36 L 96.34 144.45 L 96.66 144.54 L 96.98 144.62 L 97.29 144.71 L 97.61 144.79 L 97.92 144.88 L 98.24 144.96 L 98.56 145.04 L 98.87 145.12 L 99.19 145.19 L 99.50 145.27 L 99.82 145.35 L 100.14 145.42 L 100.45 145.49 L 100.77 145.57 L 101.08 145.64 L 101.40 145.71 L 101.72 145.77 L 102.03 145.84 L 102.35 145.91 L 102.66 145.97 L 102.98 146.04 L 103.29 146.10 L 103.61 146.16 L 103.93 146.22 L 104.24 146.28 L 104.56 146.34 L 104.87 146.40 L 105.19 146.46 L 105.51 146.51 L 105.82 146.57 L 106.14 146.62 L 106.45 146.68 L 106.77 146.73 L 107.09 146.78 L 107.40 146.83 L 107.72 146.88 L 108.03 146.93 L 108.35 146.98 L 108.67 147.02 L 108.98 147.07 L 109.30 147.11 L 109.61 147.16 L 109.93 147.20 L 110.24 147.24 L 110.56 147.29 L 110.88 147.33 L 111.19 147.37 L 111.51 147.41 L 111.82 147.45 L 112.14 147.48 L 112.46 147.52 L 112.77 147.56 L 113.09 147.59 L 113.40 147.63 L 113.72 147.66 L 114.04 147.70 L 114.35 147.73 L 114.67 147.76 L 114.98 147.79 L 115.30 147.82 L 115.62 147.85 L 115.93 147.88 L 116.25 147.91 L 116.56 147.94 L 116.88 147.97 L 117.19 148.00 L 117.51 148.02 L 117.83 148.05 L 118.14 148.08 L 118.46 148.10 L 118.77 148.12 L 119.09 148.15 L 119.41 148.17 L 119.72 148.19 L 120.04 148.22 L 120.35 148.24 L 120.67 148.26 L 120.99 148.28 L 121.30 148.30 L 121.62 148.32 L 121.93 148.34 L 122.25 148.36 L 122.57 148.38 L 122.88 148.39 L 123.20 148.41 L 123.51 148.43 L 123.83 148.44 L 124.14 148.46 L 124.46 148.48 L 124.78 148.49 L 125.09 148.51 L 125.41 148.52 L 125.72 148.53 L 126.04 148.55 L 126.36 148.56 L 126.67 148.57 L 126.99 148.59 L 127.30 148.60 L 127.62 148.61 L 127.94 148.62 L 128.25 148.63 L 128.57 148.64 L 128.88 148.65 L 129.20 148.66 L 129.52 148.67 L 129.83 148.68 L 130.15 148.69 L 130.46 148.70 L 130.78 148.71 L 131.09 148.72 L 131.41 148.73 L 131.73 148.74 L 132.04 148.74 L 132.36 148.75 L 132.67 148.76 L 132.99 148.76 L 133.31 148.77 L 133.62 148.78 L 133.94 148.78 L 134.25 148.79 L 134.57 148.80 L 134.89 148.80 L 135.20 148.81 L 135.52 148.81 L 135.83 148.82 L 136.15 148.82 L 136.46 148.83 L 136.78 148.83 L 137.10 148.83 L 137.41 148.84 L 137.73 148.84 L 138.04 148.85 L 138.36 148.85 L 138.68 148.85 L 138.99 148.86 L 139.31 148.86 L 139.62 148.86 L 139.94 148.87 L 140.26 148.87 L 140.57 148.87 L 140.89 148.87 L 141.20 148.88 L 141.52 148.88 L 141.84 148.88 L 142.15 148.88 L 142.47 148.88 L 142.78 148.89 L 143.10 148.89 L 143.41 148.89 L 143.73 148.89 L 144.05 148.89 L 144.36 148.89 L 144.68 148.89 L 144.99 148.90 L 145.31 148.90 L 145.63 148.90 L 145.94 148.90 L 146.26 148.90 L 146.57 148.90 L 146.89 148.90 L 147.21 148.90 L 147.52 148.90 L 147.84 148.90 L 148.15 148.90 L 148.47 148.90 L 148.79 148.90 L 149.10 148.91 L 149.42 148.91 L 149.73 148.91 L 150.05 148.91 L 150.36 148.91 L 150.68 148.91 L 151.00 148.91 L 151.31 148.91 L 151.63 148.91 L 151.94 148.91 L 152.26 148.91 L 152.58 148.91 L 152.89 148.91 L 153.21 148.91 L 153.52 148.91 L 153.84 148.91 L 154.16 148.91 L 154.47 148.91 L 154.79 148.91 L 155.10 148.91 L 155.42 148.91 L 155.74 148.91 L 156.05 148.91 L 156.37 148.91 L 156.68 148.91 L 157.00 148.91 L 157.31 148.91 L 157.63 148.91 L 157.95 148.91 L 158.26 148.91 L 158.58 148.91 L 158.89 148.91 L 159.21 148.91 L 159.53 148.91 L 159.84 148.91 L 160.16 148.91 L 160.47 148.91 L 160.79 148.91 L 161.11 148.91 L 161.42 148.91 L 161.74 148.91 L 162.05 148.91 L 162.37 148.91 L 162.69 148.91 L 163.00 148.91 L 163.32 148.91 L 163.63 148.91 L 163.95 148.91 L 164.26 148.91 L 164.58 148.91 L 164.90 148.91 L 165.21 148.91 L 165.53 148.91 L 165.84 148.91 L 166.16 148.91 L 166.48 148.91 L 166.79 148.91 L 167.11 148.91 L 167.42 148.91 L 167.74 148.91 L 168.06 148.91 L 168.37 148.91 L 168.69 148.91 L 169.00 148.91 L 169.32 148.91 L 169.64 148.91 L 169.95 148.91 L 170.27 148.91 L 170.58 148.91 L 170.90 148.91 L 171.21 148.90 L 171.53 148.90 L 171.85 148.90 L 172.16 148.90 L 172.48 148.90 L 172.79 148.90 L 173.11 148.90 L 173.43 148.90 L 173.74 148.90 L 174.06 148.90 L 174.37 148.90 L 174.69 148.90 L 175.01 148.90 L 175.32 148.89 L 175.64 148.89 L 175.95 148.89 L 176.27 148.89 L 176.59 148.89 L 176.90 148.89 L 177.22 148.89 L 177.53 148.88 L 177.85 148.88 L 178.16 148.88 L 178.48 148.88 L 178.80 148.88 L 179.11 148.87 L 179.43 148.87 L 179.74 148.87 L 180.06 148.87 L 180.38 148.86 L 180.69 148.86 L 181.01 148.86 L 181.32 148.85 L 181.64 148.85 L 181.96 148.85 L 182.27 148.84 L 182.59 148.84 L 182.90 148.83 L 183.22 148.83 L 183.54 148.83 L 183.85 148.82 L 184.17 148.82 L 184.48 148.81 L 184.80 148.81 L 185.11 148.80 L 185.43 148.80 L 185.75 148.79 L 186.06 148.78 L 186.38 148.78 L 186.69 148.77 L 187.01 148.76 L 187.33 148.76 L 187.64 148.75 L 187.96 148.74 L 188.27 148.74 L 188.59 148.73 L 188.91 148.72 L 189.22 148.71 L 189.54 148.70 L 189.85 148.69 L 190.17 148.68 L 190.48 148.67 L 190.80 148.66 L 191.12 148.65 L 191.43 148.64 L 191.75 148.63 L 192.06 148.62 L 192.38 148.61 L 192.70 148.60 L 193.01 148.59 L 193.33 148.57 L 193.64 148.56 L 193.96 148.55 L 194.28 148.53 L 194.59 148.52 L 194.91 148.51 L 195.22 148.49 L 195.54 148.48 L 195.86 148.46 L 196.17 148.44 L 196.49 148.43 L 196.80 148.41 L 197.12 148.39 L 197.43 148.38 L 197.75 148.36 L 198.07 148.34 L 198.38 148.32 L 198.70 148.30 L 199.01 148.28 L 199.33 148.26 L 199.65 148.24 L 199.96 148.22 L 200.28 148.19 L 200.59 148.17 L 200.91 148.15 L 201.23 148.12 L 201.54 148.10 L 201.86 148.08 L 202.17 148.05 L 202.49 148.02 L 202.81 148.00 L 203.12 147.97 L 203.44 147.94 L 203.75 147.91 L 204.07 147.88 L 204.38 147.85 L 204.70 147.82 L 205.02 147.79 L 205.33 147.76 L 205.65 147.73 L 205.96 147.70 L 206.28 147.66 L 206.60 147.63 L 206.91 147.59 L 207.23 147.56 L 207.54 147.52 L 207.86 147.48 L 208.18 147.45 L 208.49 147.41 L 208.81 147.37 L 209.12 147.33 L 209.44 147.29 L 209.76 147.24 L 210.07 147.20 L 210.39 147.16 L 210.70 147.11 L 211.02 147.07 L 211.33 147.02 L 211.65 146.98 L 211.97 146.93 L 212.28 146.88 L 212.60 146.83 L 212.91 146.78 L 213.23 146.73 L 213.55 146.68 L 213.86 146.62 L 214.18 146.57 L 214.49 146.51 L 214.81 146.46 L 215.13 146.40 L 215.44 146.34 L 215.76 146.28 L 216.07 146.22 L 216.39 146.16 L 216.71 146.10 L 217.02 146.04 L 217.34 145.97 L 217.65 145.91 L 217.97 145.84 L 218.28 145.77 L 218.60 145.71 L 218.92 145.64 L 219.23 145.57 L 219.55 145.49 L 219.86 145.42 L 220.18 145.35 L 220.50 145.27 L 220.81 145.19 L 221.13 145.12 L 221.44 145.04 L 221.76 144.96 L 222.08 144.88 L 222.39 144.79 L 222.71 144.71 L 223.02 144.62 L 223.34 144.54 L 223.66 144.45 L 223.97 144.36 L 224.29 144.27 L 224.60 144.18 L 224.92 144.08 L 225.23 143.99 L 225.55 143.89 L 225.87 143.80 L 226.18 143.70 L 226.50 143.60 L 226.81 143.50 L 227.13 143.39 L 227.45 143.29 L 227.76 143.18 L 228.08 143.07 L 228.39 142.96 L 228.71 142.85 L 229.03 142.74 L 229.34 142.63 L 229.66 142.51 L 229.97 142.40 L 230.29 142.28 L 230.61 142.16 L 230.92 142.04 L 231.24 141.91 L 231.55 141.79 L 231.87 141.66 L 232.18 141.53 L 232.50 141.40 L 232.82 141.27 L 233.13 141.14 L 233.45 141.00 L 233.76 140.87 L 234.08 140.73 L 234.40 140.59 L 234.71 140.44 L 235.03 140.30 L 235.34 140.15 L 235.66 140.01 L 235.98 139.86 L 236.29 139.71 L 236.61 139.55 L 236.92 139.40 L 237.24 139.24 L 237.56 139.08 L 237.87 138.92 L 238.19 138.76 L 238.50 138.59 L 238.82 138.42 L 239.13 138.26 L 239.45 138.08 L 239.77 137.91 L 240.08 137.74 L 240.40 137.56 L 240.71 137.38 L 241.03 137.20 L 241.35 137.01 L 241.66 136.83 L 241.98 136.64 L 242.29 136.45 L 242.61 136.26 L 242.93 136.06 L 243.24 135.87 L 243.56 135.67 L 243.87 135.47 L 244.19 135.26 L 244.51 135.06 L 244.82 134.85 L 245.14 134.64 L 245.45 134.42 L 245.77 134.21 L 246.08 133.99 L 246.40 133.77 L 246.72 133.55 L 247.03 133.32 L 247.35 133.09 L 247.66 132.86 L 247.98 132.63 L 248.30 132.40 L 248.61 132.16 L 248.93 131.92 L 249.24 131.68 L 249.56 131.43 L 249.88 131.18 L 250.19 130.93 L 250.51 130.68 L 250.82 130.42 L 251.14 130.17 L 251.45 129.90 L 251.77 129.64 L 252.09 129.37 L 252.40 129.10 L 252.72 128.83 L 253.03 128.56 L 253.35 128.28 L 253.67 128.00 L 253.98 127.72 L 254.30 127.43 L 254.61 127.14 L 254.93 126.85 L 255.25 126.55 L 255.56 126.25 L 255.88 125.95 L 256.19 125.65 L 256.51 125.34 L 256.83 125.03 L 257.14 124.72 L 257.46 124.40 L 257.77 124.08 L 258.09 123.76 L 258.40 123.44 L 258.72 123.11 L 259.04 122.77 L 259.35 122.44 L 259.67 122.10 L 259.98 121.76 L 260.30 121.41 L 260.62 121.07 L 260.93 120.72 L 261.25 120.36 L 261.56 120.00 L 261.88 119.64 L 262.20 119.28 L 262.51 118.91 L 262.83 118.54 L 263.14 118.16 L 263.46 117.78 L 263.78 117.40 L 264.09 117.02 L 264.41 116.63 L 264.72 116.24 L 265.04 115.84 L 265.35 115.44 L 265.67 115.04 L 265.99 114.63 L 266.30 114.22 L 266.62 113.80 L 266.93 113.39 L 267.25 112.97 L 267.57 112.54 L 267.88 112.11 L 268.20 111.68 L 268.51 111.24 L 268.83 110.80 L 269.15 110.36 L 269.46 109.91 L 269.78 109.46 L 270.09 109.00 L 270.41 108.54 L 270.73 108.08 L 271.04 107.61 L 271.36 107.14 L 271.67 106.66 L 271.99 106.18 L 272.30 105.70 L 272.62 105.21 L 272.94 104.71 L 273.25 104.22 L 273.57 103.72 L 273.88 103.21 L 274.20 102.70 L 274.52 102.19 L 274.83 101.67 L 275.15 101.15 L 275.46 100.62 L 275.78 100.09 L 276.10 99.56 L 276.41 99.02 L 276.73 98.48 L 277.04 97.93 L 277.36 97.37 L 277.68 96.82 L 277.99 96.26 L 278.31 95.69 L 278.62 95.12 L 278.94 94.54 L 279.25 93.96 L 279.57 93.38 L 279.89 92.79 L 280.20 92.20 L 280.52 91.60 L 280.83 90.99 L 281.15 90.39 L 281.47 89.77 L 281.78 89.16 L 282.10 88.53 L 282.41 87.91 L 282.73 87.27 L 283.05 86.64 L 283.36 85.99 L 283.68 85.35 L 283.99 84.70 L 284.31 84.04 L 284.63 83.38 L 284.94 82.71 L 285.26 82.04 L 285.57 81.36 L 285.89 80.68 L 286.20 79.99 L 286.52 79.30 L 286.84 78.60 L 287.15 77.90 L 287.47 77.19 L 287.78 76.48 L 288.10 75.76 L 288.42 75.03 L 288.73 74.30 L 289.05 73.57 L 289.36 72.83 L 289.68 72.08 L 290.00 71.33 L 290.31 70.57 L 290.63 69.81 L 290.94 69.04 L 291.26 68.27 L 291.58 67.49 L 291.89 66.71 L 292.21 65.92 L 292.52 65.12 L 292.84 64.32 L 293.15 63.51 L 293.47 62.70 L 293.79 61.88 L 294.10 61.05 L 294.42 60.22 L 294.73 59.38 L 295.05 58.54 L 295.37 57.69 L 295.68 56.84 L 296.00 55.98 L 296.31 55.11 L 296.63 54.24 L 296.95 53.36 L 297.26 52.48 L 297.58 51.59 L 297.89 50.69 L 298.21 49.79 L 298.53 48.88 L 298.84 47.96 L 299.16 47.04 L 299.47 46.11 L 299.79 45.18 L 300.10 44.23 L 300.42 43.29 L 300.74 42.33 L 301.05 41.37 L 301.37 40.41 L 301.68 39.43 L 302.00 38.45" fill="none" stroke="#7E8692" stroke-width="2.3" stroke-linecap="round" stroke-linejoin="round"/>
</svg>
