<svg xmlns="http://www.w3.org/2000/svg" viewBox="0 0 320 180" width="320" height="180">
  <rect width="320" height="180" fill="#F4F5F7"/>
  <path d="M 18.00 43.63 L 18.18 45.31 L 18.36 46.93 L 18.53 48.49 L 18.71 50.00 L 18.89 51.46 L 19.07 52.87 L 19.24 54.23 L 19.42 55.55 L 19.60 56.83 L 19.78 58.07 L 19.95 59.27 L 20.13 60.43 L 20.31 61.56 L 20.49 62.66 L 20.66 63.72 L 20.84 64.75 L 21.02 65.75 L 21.20 66.73 L 21.37 67.68 L 21.55 68.60 L 21.73 69.50 L 21.91 70.37 L 22.09 71.22 L 22.26 72.05 L 22.44 72.86 L 22.62 73.64 L 22.80 74.41 L 22.97 75.16 L 23.15 75.89 L 23.33 76.60 L 23.51 77.29 L 23.68 77.97 L 23.86 78.63 L 24.04 79.28 L 24.22 79.91 L 24.39 80.53 L 24.57 81.14 L 24.75 81.73 L 24.93 82.30 L 25.10 82.87 L 25.28 83.42 L 25.46 83.96 L 25.64 84.49 L 25.81 85.01 L 25.99 85.52 L 26.17 86.01 L 26.35 86.50 L 26.53 86.98 L 26.70 87.45 L 26.88 87.90 L 27.06 88.35 L 27.24 88.79 L 27.41 89.23 L 27.59 89.65 L 27.77 90.06 L 27.95 90.47 L 28.12 90.87 L 28.30 91.27 L 28.48 91.65 L 28.66 92.03 L 28.83 92.40 L 29.01 92.76 L 29.19 93.12 L 29.37 93.48 L 29.54 93.82 L 29.72 94.16 L 29.90 94.49 L 30.08 94.82 L 30.26 95.14 L 30.43 95.46 L 30.61 95.77 L 30.79 96.08 L 30.97 96.38 L 31.14 96.68 L 31.32 96.97 L 31.50 97.26 L 31.68 97.54 L 31.85 97.82 L 32.03 98.09 L 32.21 98.36 L 32.39 98.62 L 32.56 98.88 L 32.74 99.14 L 32.92 99.39 L 33.10 99.64 L 33.27 99.89 L 33.45 100.13 L 33.63 100.37 L 33.81 100.60 L 33.98 100.83 L 34.16 101.06 L 34.34 101.28 L 34.52 101.50 L 34.70 101.72 L 34.87 101.93 L 35.05 102.15 L 35.23 102.35 L 35.41 102.56 L 35.58 102.76 L 35.76 102.96 L 35.94 103.16 L 36.12 103.35 L 36.29 103.54 L 36.47 103.73 L 36.65 103.92 L 36.83 104.10 L 37.00 104.28 L 37.18 104.46 L 37.36 104.64 L 37.54 104.81 L 37.71 104.98 L 37.89 105.15 L 38.07 105.32 L 38.25 105.48 L 38.43 105.65 L 38.60 105.81 L 38.78 105.97 L 38.96 106.12 L 39.14 106.28 L 39.31 106.43 L 39.49 106.58 L 39.67 106.73 L 39.85 106.88 L 40.02 107.02 L 40.20 107.17 L 40.38 107.31 L 40.56 107.45 L 40.73 107.59 L 40.91 107.72 L 41.09 107.86 L 41.27 107.99 L 41.44 108.12 L 41.62 108.25 L 41.80 108.38 L 41.98 108.51 L 42.16 108.63 L 42.33 108.76 L 42.51 108.88 L 42.69 109.00 L 42.87 109.12 L 43.04 109.24 L 43.22 109.36 L 43.40 109.47 L 43.58 109.59 L 43.75 109.70 L 43.93 109.81 L 44.11 109.92 L 44.29 110.03 L 44.46 110.14 L 44.64 110.25 L 44.82 110.35 L 45.00 110.46 L 45.17 110.56 L 45.35 110.66 L 45.53 110.77 L 45.71 110.87 L 45.88 110.96 L 46.06 111.06 L 46.24 111.16 L 46.42 111.25 L 46.60 111.35 L 46.77 111.44 L 46.95 111.54 L 47.13 111.63 L 47.31 111.72 L 47.48 111.81 L 47.66 111.90 L 47.84 111.98 L 48.02 112.07 L 48.19 112.16 L 48.37 112.24 L 48.55 112.33 L 48.73 112.41 L 48.90 112.49 L 49.08 112.58 L 49.26 112.66 L 49.44 112.74 L 49.61 112.82 L 49.79 112.89 L 49.97 112.97 L 50.15 113.05 L 50.33 113.12 L 50.50 113.20 L 50.68 113.27 L 50.86 113.35 L 51.04 113.42 L 51.21 113.49 L 51.39 113.57 L 51.57 113.64 L 51.75 113.71 L 51.92 113.78 L 52.10 113.84 L 52.28 113.91 L 52.46 113.98 L 52.63 114.05 L 52.81 114.11 L 52.99 114.18 L 53.17 114.24 L 53.34 114.31 L 53.52 114.37 L 53.70 114.43 L 53.88 114.50 L 54.06 114.56 L 54.23 114.62 L 54.41 114.68 L 54.59 114.74 L 54.77 114.80 L 54.94 114.86 L 55.12 114.92 L 55.30 114.98 L 55.48 115.03 L 55.65 115.09 L 55.83 115.15 L 56.01 115.20 L 56.19 115.26 L 56.36 115.31 L 56.54 115.37 L 56.72 115.42 L 56.90 115.47 L 57.07 115.53 L 57.25 115.58 L 57.43 115.63 L 57.61 115.68 L 57.78 115.73 L 57.96 115.78 L 58.14 115.83 L 58.32 115.88 L 58.50 115.93 L 58.67 115.98 L 58.85 116.03 L 59.03 116.07 L 59.21 116.12 L 59.38 116.17 L 59.56 116.21 L 59.74 116.26 L 59.92 116.30 L 60.09 116.35 L 60.27 116.39 L 60.45 116.44 L 60.63 116.48 L 60.80 116.53 L 60.98 116.57 L 61.16 116.61 L 61.34 116.65 L 61.51 116.69 L 61.69 116.74 L 61.87 116.78 L 62.05 116.82 L 62.23 116.86 L 62.40 116.90 L 62.58 116.94 L 62.76 116.98 L 62.94 117.02 L 63.11 117.05 L 63.29 117.09 L 63.47 117.13 L 63.65 117.17 L 63.82 117.21 L 64.00 117.24 L 64.18 117.28 L 64.36 117.32 L 64.53 117.35 L 64.71 117.39 L 64.89 117.42 L 65.07 117.46 L 65.24 117.49 L 65.42 117.53 L 65.60 117.56 L 65.78 117.59 L 65.95 117.63 L 66.13 117.66 L 66.31 117.69 L 66.49 117.73 L 66.67 117.76 L 66.84 117.79 L 67.02 117.82 L 67.20 117.85 L 67.38 117.88 L 67.55 117.91 L 67.73 117.95 L 67.91 117.98 L 68.09 118.01 L 68.26 118.04 L 68.44 118.06 L 68.62 118.09 L 68.80 118.12 L 68.97 118.15 L 69.15 118.18 L 69.33 118.21 L 69.51 118.24 L 69.68 118.26 L 69.86 118.29 L 70.04 118.32 L 70.22 118.35 L 70.40 118.37 L 70.57 118.40 L 70.75 118.42 L 70.93 118.45 L 71.11 118.48 L 71.28 118.50 L 71.46 118.53 L 71.64 118.55 L 71.82 118.58 L 71.99 118.60 L 72.17 118.63 L 72.35 118.65 L 72.53 118.67 L 72.70 118.70 L 72.88 118.72 L 73.06 118.74 L 73.24 118.77 L 73.41 118.79 L 73.59 118.81 L 73.77 118.83 L 73.95 118.86 L 74.13 118.88 L 74.30 118.90 L 74.48 118.92 L 74.66 118.94 L 74.84 118.96 L 75.01 118.99 L 75.19 119.01 L 75.37 119.03 L 75.55 119.05 L 75.72 119.07 L 75.90 119.09 L 76.08 119.11 L 76.26 119.13 L 76.43 119.15 L 76.61 119.17 L 76.79 119.18 L 76.97 119.20 L 77.14 119.22 L 77.32 119.24 L 77.50 119.26 L 77.68 119.28 L 77.85 119.30 L 78.03 119.31 L 78.21 119.33 L 78.39 119.35 L 78.57 119.37 L 78.74 119.38 L 78.92 119.40 L 79.10 119.42 L 79.28 119.43 L 79.45 119.45 L 79.63 119.47 L 79.81 119.48 L 79.99 119.50 L 80.16 119.51 L 80.34 119.53 L 80.52 119.54 L 80.70 119.56 L 80.87 119.57 L 81.05 119.59 L 81.23 119.60 L 81.41 119.62 L 81.58 119.63 L 81.76 119.65 L 81.94 119.66 L 82.12 119.68 L 82.30 119.69 L 82.47 119.70 L 82.65 119.72 L 82.83 119.73 L 83.01 119.74 L 83.18 119.76 L 83.36 119.77 L 83.54 119.78 L 83.72 119.80 L 83.89 119.81 L 84.07 119.82 L 84.25 119.83 L 84.43 119.84 L 84.60 119.86 L 84.78 119.87 L 84.96 119.88 L 85.14 119.89 L 85.31 119.90 L 85.49 119.91 L 85.67 119.93 L 85.85 119.94 L 86.03 119.95 L 86.20 119.96 L 86.38 119.97 L 86.56 119.98 L 86.74 119.99 L 86.91 120.00 L 87.09 120.01 L 87.27 120.02 L 87.45 120.03 L 87.62 120.04 L 87.80 120.05 L 87.98 120.06 L 88.16 120.07 L 88.33 120.08 L 88.51 120.09 L 88.69 120.09 L 88.87 120.10 L 89.04 120.11 L 89.22 120.12 L 89.40 120.13 L 89.58 120.14 L 89.75 120.15 L 89.93 120.15 L 90.11 120.16 L 90.29 120.17 L 90.47 120.18 L 90.64 120.18 L 90.82 120.19 L 91.00 120.20 L 91.18 120.21 L 91.35 120.21 L 91.53 120.22 L 91.71 120.23 L 91.89 120.23 L 92.06 120.24 L 92.24 120.25 L 92.42 120.25 L 92.60 120.26 L 92.77 120.27 L 92.95 120.27 L 93.13 120.28 L 93.31 120.28 L 93.48 120.29 L 93.66 120.30 L 93.84 120.30 L 94.02 120.31 L 94.20 120.31 L 94.37 120.32 L 94.55 120.32 L 94.73 120.33 L 94.91 120.33 L 95.08 120.34 L 95.26 120.34 L 95.44 120.35 L 95.62 120.35 L 95.79 120.35 L 95.97 120.36 L 96.15 120.36 L 96.33 120.37 L 96.50 120.37 L 96.68 120.37 L 96.86 120.38 L 97.04 120.38 L 97.21 120.39 L 97.39 120.39 L 97.57 120.39 L 97.75 120.40 L 97.92 120.40 L 98.10 120.40 L 98.28 120.40 L 98.46 120.41 L 98.64 120.41 L 98.81 120.41 L 98.99 120.42 L 99.17 120.42 L 99.35 120.42 L 99.52 120.42 L 99.70 120.42 L 99.88 120.43 L 100.06 120.43 L 100.23 120.43 L 100.41 120.43 L 100.59 120.43 L 100.77 120.44 L 100.94 120.44 L 101.12 120.44 L 101.30 120.44 L 101.48 120.44 L 101.65 120.44 L 101.83 120.44 L 102.01 120.44 L 102.19 120.44 L 102.37 120.44 L 102.54 120.45 L 102.72 120.45 L 102.90 120.45 L 103.08 120.45 L 103.25 120.45 L 103.43 120.45 L 103.61 120.45 L 103.79 120.45 L 103.96 120.45 L 104.14 120.45 L 104.32 120.45 L 104.50 120.45 L 104.67 120.45 L 104.85 120.45 L 105.03 120.44 L 105.21 120.44 L 105.38 120.44 L 105.56 120.44 L 105.74 120.44 L 105.92 120.44 L 106.10 120.44 L 106.27 120.44 L 106.45 120.44 L 106.63 120.43 L 106.81 120.43 L 106.98 120.43 L 107.16 120.43 L 107.34 120.43 L 107.52 120.43 L 107.69 120.42 L 107.87 120.42 L 108.05 120.42 L 108.23 120.42 L 108.40 120.42 L 108.58 120.41 L 108.76 120.41 L 108.94 120.41 L 109.11 120.40 L 109.29 120.40 L 109.47 120.40 L 109.65 120.40 L 109.82 120.39 L 110.00 120.39 L 110.18 120.39 L 110.36 120.38 L 110.54 120.38 L 110.71 120.38 L 110.89 120.37 L 111.07 120.37 L 111.25 120.37 L 111.42 120.36 L 111.60 120.36 L 111.78 120.35 L 111.96 120.35 L 112.13 120.35 L 112.31 120.34 L 112.49 120.34 L 112.67 120.33 L 112.84 120.33 L 113.02 120.32 L 113.20 120.32 L 113.38 120.32 L 113.55 120.31 L 113.73 120.31 L 113.91 120.30 L 114.09 120.30 L 114.27 120.29 L 114.44 120.29 L 114.62 120.28 L 114.80 120.27 L 114.98 120.27 L 115.15 120.26 L 115.33 120.26 L 115.51 120.25 L 115.69 120.25 L 115.86 120.24 L 116.04 120.23 L 116.22 120.23 L 116.40 120.22 L 116.57 120.22 L 116.75 120.21 L 116.93 120.20 L 117.11 120.20 L 117.28 120.19 L 117.46 120.18 L 117.64 120.18 L 117.82 120.17 L 117.99 120.16 L 118.17 120.16 L 118.35 120.15 L 118.53 120.14 L 118.71 120.14 L 118.88 120.13 L 119.06 120.12 L 119.24 120.11 L 119.42 120.11 L 119.59 120.10 L 119.77 120.09 L 119.95 120.08 L 120.13 120.08 L 120.30 120.07 L 120.48 120.06 L 120.66 120.05 L 120.84 120.04 L 121.01 120.04 L 121.19 120.03 L 121.37 120.02 L 121.55 120.01 L 121.72 120.00 L 121.90 119.99 L 122.08 119.98 L 122.26 119.98 L 122.44 119.97 L 122.61 119.96 L 122.79 119.95 L 122.97 119.94 L 123.15 119.93 L 123.32 119.92 L 123.50 119.91 L 123.68 119.90 L 123.86 119.89 L 124.03 119.88 L 124.21 119.87 L 124.39 119.86 L 124.57 119.85 L 124.74 119.84 L 124.92 119.83 L 125.10 119.82 L 125.28 119.81 L 125.45 119.80 L 125.63 119.79 L 125.81 119.78 L 125.99 119.77 L 126.17 119.76 L 126.34 119.75 L 126.52 119.74 L 126.70 119.73 L 126.88 119.72 L 127.05 119.71 L 127.23 119.70 L 127.41 119.69 L 127.59 119.67 L 127.76 119.66 L 127.94 119.65 L 128.12 119.64 L 128.30 119.63 L 128.47 119.62 L 128.65 119.61 L 128.83 119.59 L 129.01 119.58 L 129.18 119.57 L 129.36 119.56 L 129.54 119.55 L 129.72 119.53 L 129.89 119.52 L 130.07 119.51 L 130.25 119.50 L 130.43 119.48 L 130.61 119.47 L 130.78 119.46 L 130.96 119.45 L 131.14 119.43 L 131.32 119.42 L 131.49 119.41 L 131.67 119.39 L 131.85 119.38 L 132.03 119.37 L 132.20 119.35 L 132.38 119.34 L 132.56 119.33 L 132.74 119.31 L 132.91 119.30 L 133.09 119.29 L 133.27 119.27 L 133.45 119.26 L 133.62 119.24 L 133.80 119.23 L 133.98 119.22 L 134.16 119.20 L 134.34 119.19 L 134.51 119.17 L 134.69 119.16 L 134.87 119.14 L 135.05 119.13 L 135.22 119.11 L 135.40 119.10 L 135.58 119.08 L 135.76 119.07 L 135.93 119.05 L 136.11 119.04 L 136.29 119.02 L 136.47 119.01 L 136.64 118.99 L 136.82 118.98 L 137.00 118.96 L 137.18 118.95 L 137.35 118.93 L 137.53 118.91 L 137.71 118.90 L 137.89 118.88 L 138.07 118.87 L 138.24 118.85 L 138.42 118.83 L 138.60 118.82 L 138.78 118.80 L 138.95 118.78 L 139.13 118.77 L 139.31 118.75 L 139.49 118.73 L 139.66 118.72 L 139.84 118.70 L 140.02 118.68 L 140.20 118.67 L 140.37 118.65 L 140.55 118.63 L 140.73 118.61 L 140.91 118.60 L 141.08 118.58 L 141.26 118.56 L 141.44 118.54 L 141.62 118.52 L 141.79 118.51 L 141.97 118.49 L 142.15 118.47 L 142.33 118.45 L 142.51 118.43 L 142.68 118.41 L 142.86 118.40 L 143.04 118.38 L 143.22 118.36 L 143.39 118.34 L 143.57 118.32 L 143.75 118.30 L 143.93 118.28 L 144.10 118.26 L 144.28 118.24 L 144.46 118.22 L 144.64 118.21 L 144.81 118.19 L 144.99 118.17 L 145.17 118.15 L 145.35 118.13 L 145.52 118.11 L 145.70 118.09 L 145.88 118.07 L 146.06 118.05 L 146.24 118.03 L 146.41 118.01 L 146.59 117.98 L 146.77 117.96 L 146.95 117.94 L 147.12 117.92 L 147.30 117.90 L 147.48 117.88 L 147.66 117.86 L 147.83 117.84 L 148.01 117.82 L 148.19 117.80 L 148.37 117.77 L 148.54 117.75 L 148.72 117.73 L 148.90 117.71 L 149.08 117.69 L 149.25 117.67 L 149.43 117.64 L 149.61 117.62 L 149.79 117.60 L 149.96 117.58 L 150.14 117.55 L 150.32 117.53 L 150.50 117.51 L 150.68 117.49 L 150.85 117.46 L 151.03 117.44 L 151.21 117.42 L 151.39 117.39 L 151.56 117.37 L 151.74 117.35 L 151.92 117.32 L 152.10 117.30 L 152.27 117.28 L 152.45 117.25 L 152.63 117.23 L 152.81 117.20 L 152.98 117.18 L 153.16 117.16 L 153.34 117.13 L 153.52 117.11 L 153.69 117.08 L 153.87 117.06 L 154.05 117.03 L 154.23 117.01 L 154.41 116.98 L 154.58 116.96 L 154.76 116.93 L 154.94 116.91 L 155.12 116.88 L 155.29 116.86 L 155.47 116.83 L 155.65 116.81 L 155.83 116.78 L 156.00 116.75 L 156.18 116.73 L 156.36 116.70 L 156.54 116.68 L 156.71 116.65 L 156.89 116.62 L 157.07 116.60 L 157.25 116.57 L 157.42 116.54 L 157.60 116.52 L 157.78 116.49 L 157.96 116.46 L 158.14 116.44 L 158.31 116.41 L 158.49 116.38 L 158.67 116.35 L 158.85 116.33 L 159.02 116.30 L 159.20 116.27 L 159.38 116.24 L 159.56 116.21 L 159.73 116.19 L 159.91 116.16 L 160.09 116.13 L 160.27 116.10 L 160.44 116.07 L 160.62 116.04 L 160.80 116.01 L 160.98 115.98 L 161.15 115.96 L 161.33 115.93 L 161.51 115.90 L 161.69 115.87 L 161.86 115.84 L 162.04 115.81 L 162.22 115.78 L 162.40 115.75 L 162.58 115.72 L 162.75 115.69 L 162.93 115.66 L 163.11 115.63 L 163.29 115.60 L 163.46 115.57 L 163.64 115.53 L 163.82 115.50 L 164.00 115.47 L 164.17 115.44 L 164.35 115.41 L 164.53 115.38 L 164.71 115.35 L 164.88 115.31 L 165.06 115.28 L 165.24 115.25 L 165.42 115.22 L 165.59 115.19 L 165.77 115.15 L 165.95 115.12 L 166.13 115.09 L 166.31 115.06 L 166.48 115.02 L 166.66 114.99 L 166.84 114.96 L 167.02 114.92 L 167.19 114.89 L 167.37 114.86 L 167.55 114.82 L 167.73 114.79 L 167.90 114.76 L 168.08 114.72 L 168.26 114.69 L 168.44 114.65 L 168.61 114.62 L 168.79 114.59 L 168.97 114.55 L 169.15 114.52 L 169.32 114.48 L 169.50 114.45 L 169.68 114.41 L 169.86 114.38 L 170.04 114.34 L 170.21 114.30 L 170.39 114.27 L 170.57 114.23 L 170.75 114.20 L 170.92 114.16 L 171.10 114.12 L 171.28 114.09 L 171.46 114.05 L 171.63 114.01 L 171.81 113.98 L 171.99 113.94 L 172.17 113.90 L 172.34 113.87 L 172.52 113.83 L 172.70 113.79 L 172.88 113.75 L 173.05 113.72 L 173.23 113.68 L 173.41 113.64 L 173.59 113.60 L 173.76 113.56 L 173.94 113.52 L 174.12 113.49 L 174.30 113.45 L 174.48 113.41 L 174.65 113.37 L 174.83 113.33 L 175.01 113.29 L 175.19 113.25 L 175.36 113.21 L 175.54 113.17 L 175.72 113.13 L 175.90 113.09 L 176.07 113.05 L 176.25 113.01 L 176.43 112.97 L 176.61 112.93 L 176.78 112.89 L 176.96 112.85 L 177.14 112.80 L 177.32 112.76 L 177.49 112.72 L 177.67 112.68 L 177.85 112.64 L 178.03 112.60 L 178.21 112.55 L 178.38 112.51 L 178.56 112.47 L 178.74 112.43 L 178.92 112.38 L 179.09 112.34 L 179.27 112.30 L 179.45 112.25 L 179.63 112.21 L 179.80 112.17 L 179.98 112.12 L 180.16 112.08 L 180.34 112.03 L 180.51 111.99 L 180.69 111.95 L 180.87 111.90 L 181.05 111.86 L 181.22 111.81 L 181.40 111.77 L 181.58 111.72 L 181.76 111.68 L 181.93 111.63 L 182.11 111.58 L 182.29 111.54 L 182.47 111.49 L 182.65 111.45 L 182.82 111.40 L 183.00 111.35 L 183.18 111.31 L 183.36 111.26 L 183.53 111.21 L 183.71 111.16 L 183.89 111.12 L 184.07 111.07 L 184.24 111.02 L 184.42 110.97 L 184.60 110.92 L 184.78 110.88 L 184.95 110.83 L 185.13 110.78 L 185.31 110.73 L 185.49 110.68 L 185.66 110.63 L 185.84 110.58 L 186.02 110.53 L 186.20 110.48 L 186.38 110.43 L 186.55 110.38 L 186.73 110.33 L 186.91 110.28 L 187.09 110.23 L 187.26 110.18 L 187.44 110.13 L 187.62 110.08 L 187.80 110.03 L 187.97 109.97 L 188.15 109.92 L 188.33 109.87 L 188.51 109.82 L 188.68 109.76 L 188.86 109.71 L 189.04 109.66 L 189.22 109.61 L 189.39 109.55 L 189.57 109.50 L 189.75 109.45 L 189.93 109.39 L 190.11 109.34 L 190.28 109.28 L 190.46 109.23 L 190.64 109.17 L 190.82 109.12 L 190.99 109.06 L 191.17 109.01 L 191.35 108.95 L 191.53 108.90 L 191.70 108.84 L 191.88 108.79 L 192.06 108.73 L 192.24 108.67 L 192.41 108.62 L 192.59 108.56 L 192.77 108.50 L 192.95 108.44 L 193.12 108.39 L 193.30 108.33 L 193.48 108.27 L 193.66 108.21 L 193.83 108.15 L 194.01 108.10 L 194.19 108.04 L 194.37 107.98 L 194.55 107.92 L 194.72 107.86 L 194.90 107.80 L 195.08 107.74 L 195.26 107.68 L 195.43 107.62 L 195.61 107.56 L 195.79 107.50 L 195.97 107.44 L 196.14 107.38 L 196.32 107.31 L 196.50 107.25 L 196.68 107.19 L 196.85 107.13 L 197.03 107.07 L 197.21 107.00 L 197.39 106.94 L 197.56 106.88 L 197.74 106.81 L 197.92 106.75 L 198.10 106.69 L 198.28 106.62 L 198.45 106.56 L 198.63 106.49 L 198.81 106.43 L 198.99 106.36 L 199.16 106.30 L 199.34 106.23 L 199.52 106.17 L 199.70 106.10 L 199.87 106.04 L 200.05 105.97 L 200.23 105.90 L 200.41 105.84 L 200.58 105.77 L 200.76 105.70 L 200.94 105.63 L 201.12 105.57 L 201.29 105.50 L 201.47 105.43 L 201.65 105.36 L 201.83 105.29 L 202.01 105.22 L 202.18 105.15 L 202.36 105.08 L 202.54 105.01 L 202.72 104.94 L 202.89 104.87 L 203.07 104.80 L 203.25 104.73 L 203.43 104.66 L 203.60 104.59 L 203.78 104.52 L 203.96 104.44 L 204.14 104.37 L 204.31 104.30 L 204.49 104.23 L 204.67 104.15 L 204.85 104.08 L 205.02 104.01 L 205.20 103.93 L 205.38 103.86 L 205.56 103.78 L 205.73 103.71 L 205.91 103.64 L 206.09 103.56 L 206.27 103.48 L 206.45 103.41 L 206.62 103.33 L 206.80 103.26 L 206.98 103.18 L 207.16 103.10 L 207.33 103.03 L 207.51 102.95 L 207.69 102.87 L 207.87 102.79 L 208.04 102.71 L 208.22 102.63 L 208.40 102.56 L 208.58 102.48 L 208.75 102.40 L 208.93 102.32 L 209.11 102.24 L 209.29 102.16 L 209.46 102.08 L 209.64 102.00 L 209.82 101.91 L 210.00 101.83 L 210.18 101.75 L 210.35 101.67 L 210.53 101.59 L 210.71 101.50 L 210.89 101.42 L 211.06 101.34 L 211.24 101.25 L 211.42 101.17 L 211.60 101.08 L 211.77 101.00 L 211.95 100.91 L 212.13 100.83 L 212.31 100.74 L 212.48 100.66 L 212.66 100.57 L 212.84 100.48 L 213.02 100.40 L 213.19 100.31 L 213.37 100.22 L 213.55 100.14 L 213.73 100.05 L 213.90 99.96 L 214.08 99.87 L 214.26 99.78 L 214.44 99.69 L 214.62 99.60 L 214.79 99.51 L 214.97 99.42 L 215.15 99.33 L 215.33 99.24 L 215.50 99.15 L 215.68 99.06 L 215.86 98.96 L 216.04 98.87 L 216.21 98.78 L 216.39 98.68 L 216.57 98.59 L 216.75 98.50 L 216.92 98.40 L 217.10 98.31 L 217.28 98.21 L 217.46 98.12 L 217.63 98.02 L 217.81 97.93 L 217.99 97.83 L 218.17 97.73 L 218.35 97.64 L 218.52 97.54 L 218.70 97.44 L 218.88 97.34 L 219.06 97.24 L 219.23 97.14 L 219.41 97.05 L 219.59 96.95 L 219.77 96.85 L 219.94 96.75 L 220.12 96.64 L 220.30 96.54 L 220.48 96.44 L 220.65 96.34 L 220.83 96.24 L 221.01 96.13 L 221.19 96.03 L 221.36 95.93 L 221.54 95.82 L 221.72 95.72 L 221.90 95.62 L 222.08 95.51 L 222.25 95.40 L 222.43 95.30 L 222.61 95.19 L 222.79 95.09 L 222.96 94.98 L 223.14 94.87 L 223.32 94.76 L 223.50 94.66 L 223.67 94.55 L 223.85 94.44 L 224.03 94.33 L 224.21 94.22 L 224.38 94.11 L 224.56 94.00 L 224.74 93.89 L 224.92 93.78 L 225.09 93.66 L 225.27 93.55 L 225.45 93.44 L 225.63 93.33 L 225.80 93.21 L 225.98 93.10 L 226.16 92.98 L 226.34 92.87 L 226.52 92.75 L 226.69 92.64 L 226.87 92.52 L 227.05 92.40 L 227.23 92.29 L 227.40 92.17 L 227.58 92.05 L 227.76 91.93 L 227.94 91.81 L 228.11 91.69 L 228.29 91.58 L 228.47 91.45 L 228.65 91.33 L 228.82 91.21 L 229.00 91.09 L 229.18 90.97 L 229.36 90.85 L 229.53 90.72 L 229.71 90.60 L 229.89 90.48 L 230.07 90.35 L 230.25 90.23 L 230.42 90.10 L 230.60 89.98 L 230.78 89.85 L 230.96 89.72 L 231.13 89.60 L 231.31 89.47 L 231.49 89.34 L 231.67 89.21 L 231.84 89.08 L 232.02 88.95 L 232.20 88.82 L 232.38 88.69 L 232.55 88.56 L 232.73 88.43 L 232.91 88.30 L 233.09 88.16 L 233.26 88.03 L 233.44 87.90 L 233.62 87.76 L 233.80 87.63 L 233.97 87.49 L 234.15 87.36 L 234.33 87.22 L 234.51 87.09 L 234.69 86.95 L 234.86 86.81 L 235.04 86.67 L 235.22 86.53 L 235.40 86.39 L 235.57 86.25 L 235.75 86.11 L 235.93 85.97 L 236.11 85.83 L 236.28 85.69 L 236.46 85.55 L 236.64 85.40 L 236.82 85.26 L 236.99 85.12 L 237.17 84.97 L 237.35 84.83 L 237.53 84.68 L 237.70 84.53 L 237.88 84.39 L 238.06 84.24 L 238.24 84.09 L 238.42 83.94 L 238.59 83.79 L 238.77 83.64 L 238.95 83.49 L 239.13 83.34 L 239.30 83.19 L 239.48 83.04 L 239.66 82.88 L 239.84 82.73 L 240.01 82.58 L 240.19 82.42 L 240.37 82.27 L 240.55 82.11 L 240.72 81.96 L 240.90 81.80 L 241.08 81.64 L 241.26 81.48 L 241.43 81.32 L 241.61 81.17 L 241.79 81.01 L 241.97 80.84 L 242.15 80.68 L 242.32 80.52 L 242.50 80.36 L 242.68 80.20 L 242.86 80.03 L 243.03 79.87 L 243.21 79.70 L 243.39 79.54 L 243.57 79.37 L 243.74 79.20 L 243.92 79.04 L 244.10 78.87 L 244.28 78.70 L 244.45 78.53 L 244.63 78.36 L 244.81 78.19 L 244.99 78.02 L 245.16 77.85 L 245.34 77.67 L 245.52 77.50 L 245.70 77.33 L 245.87 77.15 L 246.05 76.98 L 246.23 76.80 L 246.41 76.62 L 246.59 76.45 L 246.76 76.27 L 246.94 76.09 L 247.12 75.91 L 247.30 75.73 L 247.47 75.55 L 247.65 75.37 L 247.83 75.18 L 248.01 75.00 L 248.18 74.82 L 248.36 74.63 L 248.54 74.45 L 248.72 74.26 L 248.89 74.07 L 249.07 73.89 L 249.25 73.70 L 249.43 73.51 L 249.60 73.32 L 249.78 73.13 L 249.96 72.94 L 250.14 72.75 L 250.32 72.55 L 250.49 72.36 L 250.67 72.17 L 250.85 71.97 L 251.03 71.78 L 251.20 71.58 L 251.38 71.38 L 251.56 71.18 L 251.74 70.99 L 251.91 70.79 L 252.09 70.59 L 252.27 70.38 L 252.45 70.18 L 252.62 69.98 L 252.80 69.78 L 252.98 69.57 L 253.16 69.37 L 253.33 69.16 L 253.51 68.95 L 253.69 68.75 L 253.87 68.54 L 254.05 68.33 L 254.22 68.12 L 254.40 67.91 L 254.58 67.70 L 254.76 67.49 L 254.93 67.27 L 255.11 67.06 L 255.29 66.84 L 255.47 66.63 L 255.64 66.41 L 255.82 66.19 L 256.00 65.97 L 256.18 65.76 L 256.35 65.54 L 256.53 65.31 L 256.71 65.09 L 256.89 64.87 L 257.06 64.65 L 257.24 64.42 L 257.42 64.20 L 257.60 63.97 L 257.77 63.74 L 257.95 63.52 L 258.13 63.29 L 258.31 63.06 L 258.49 62.83 L 258.66 62.59 L 258.84 62.36 L 259.02 62.13 L 259.20 61.89 L 259.37 61.66 L 259.55 61.42 L 259.73 61.18 L 259.91 60.95 L 260.08 60.71 L 260.26 60.47 L 260.44 60.23 L 260.62 59.98 L 260.79 59.74 L 260.97 59.50 L 261.15 59.25 L 261.33 59.01 L 261.50 58.76 L 261.68 58.51 L 261.86 58.26 L 262.04 58.01 L 262.22 57.76 L 262.39 57.51 L 262.57 57.26 L 262.75 57.00 L 262.93 56.75 L 263.10 56.49 L 263.28 56.24 L 263.46 55.98 L 263.64 55.72 L 263.81 55.46 L 263.99 55.20 L 264.17 54.94 L 264.35 54.67 L 264.52 54.41 L 264.70 54.14 L 264.88 53.88 L 265.06 53.61 L 265.23 53.34 L 265.41 53.07 L 265.59 52.80 L 265.77 52.53 L 265.94 52.26 L 266.12 51.98 L 266.30 51.71 L 266.48 51.43 L 266.66 51.16 L 266.83 50.88 L 267.01 50.60 L 267.19 50.32 L 267.37 50.04 L 267.54 49.75 L 267.72 49.47 L 267.90 49.18 L 268.08 48.90 L 268.25 48.61 L 268.43 48.32 L 268.61 48.03 L 268.79 47.74 L 268.96 47.45 L 269.14 47.16 L 269.32 46.86 L 269.50 46.57 L 269.67 46.27 L 269.85 45.97 L 270.03 45.67 L 270.21 45.37 L 270.39 45.07 L 270.56 44.77 L 270.74 44.46 L 270.92 44.16 L 271.10 43.85 L 271.27 43.54 L 271.45 43.23 L 271.63 42.92 L 271.81 42.61 L 271.98 42.30 L 272.16 41.99 L 272.34 41.67 L 272.52 41.35 L 272.69 41.04 L 272.87 40.72 L 273.05 40.40 L 273.23 40.07 L 273.40 39.75 L 273.58 39.43 L 273.76 39.10 L 273.94 38.77 L 274.12 38.45 L 274.29 38.12 L 274.47 37.78 L 274.65 37.45 L 274.83 37.12 L 275.00 36.78 L 275.18 36.45 L 275.36 36.11 L 275.54 35.77 L 275.71 35.43 L 275.89 35.09 L 276.07 34.74 L 276.25 34.40 L 276.42 34.05 L 276.60 33.70 L 276.78 33.36 L 276.96 33.00 L 277.13 32.65 L 277.31 32.30 L 277.49 31.94 L 277.67 31.59 L 277.84 31.23 L 278.02 30.87 L 278.20 30.51 L 278.38 30.15 L 278.56 29.78 L 278.73 29.42 L 278.91 29.05 L 279.09 28.68 L 279.27 28.31 L 279.44 27.94 L 279.62 27.57 L 279.80 27.20 L 279.98 26.82 L 280.15 26.44 L 280.33 26.06 L 280.51 25.68 L 280.69 25.30 L 280.86 24.92 L 281.04 24.53 L 281.22 24.15 L 281.40 23.76 L 281.57 23.37 L 281.75 22.98 L 281.93 22.58 L 282.11 22.19 L 282.29 21.79 L 282.46 21.39 L 282.64 20.99 L 282.82 20.59 L 283.00 20.19 L 283.17 19.78 L 283.35 19.38 L 283.53 18.97 L 283.71 18.56 L 283.88 18.15 L 284.06 17.74 L 284.24 17.32 L 284.42 16.90 L 284.59 16.49 L 284.77 16.07 L 284.95 15.64 L 285.13 15.22 L 285.30 14.80 L 285.48 14.37 L 285.66 13.94 L 285.84 13.51 L 286.02 13.08 L 286.19 12.64 L 286.37 12.21 L 286.55 11.77 L 286.73 11.33 L 286.90 10.89 L 287.08 10.44 L 287.26 10.00 L 287.44 9.55 L 287.61 9.10 L 287.79 8.65 L 287.97 8.20 L 288.15 7.74 L 288.32 7.29 L 288.50 6.83 L 288.68 6.37 L 288.86 5.91 L 289.03 5.44 L 289.21 4.98 L 289.39 4.51 L 289.57 4.04 L 289.74 3.57 L 289.92 3.09 L 290.10 2.62 L 290.28 2.14 L 290.46 1.66 L 290.63 1.18 L 290.81 0.69 L 290.99 0.21 L 291.17 -0.28 L 291.34 -0.77 L 291.52 -1.26 L 291.70 -1.76 L 291.88 -2.25 L 292.05 -2.75 L 292.23 -3.25 L 292.41 -3.75 L 292.59 -4.26 L 292.76 -4.77 L 292.94 -5.28 L 293.12 -5.79 L 293.30 -6.30 L 293.47 -6.81 L 293.65 -7.33 L 293.83 -7.85 L 294.01 -8.37 L 294.19 -8.90 L 294.36 -9.42 L 294.54 -9.95 L 294.72 -10.48 L 294.90 -11.02 L 295.07 -11.55 L 295.25 -12.09 L 295.43 -12.63 L 295.61 -13.17 L 295.78 -13.72 L 295.96 -14.26 L 296.14 -14.81 L 296.32 -15.36 L 296.49 -15.92 L 296.67 -16.47 L 296.85 -17.03 L 297.03 -17.59 L 297.20 -18.15 L 297.38 -18.72 L 297.56 -19.29 L 297.74 -19.86 L 297.91 -20.43 L 298.09 -21.01 L 298.27 -21.58 L 298.45 -22.16 L 298.63 -22.75 L 298.80 -23.33 L 298.98 -23.92 L 299.16 -24.51 L 299.34 -25.10 L 299.51 -25.70 L 299.69 -26.29 L 299.87 -26.89 L 300.05 -27.50 L 300.22 -28.10 L 300.40 -28.71 L 300.58 -29.32 L 300.76 -29.93 L 300.93 -30.55 L 301.11 -31.17 L 301.29 -31.79 L 301.47 -32.41 L 301.64 -33.04 L 301.82 -33.67 L 302.00 -34.30" fill="none" stroke="#7E8692" stroke-width="2.3" stroke-linecap="round" stroke-linejoin="round"/>
</svg>
