<svg xmlns="http://www.w3.org/2000/svg" viewBox="0 0 320 180" width="320" height="180">
  <rect width="320" height="180" fill="none"/>
  <path d="M 24.00 148.78 L 24.30 148.39 L 24.61 148.00 L 24.91 147.61 L 25.21 147.22 L 25.51 146.84 L 25.82 146.46 L 26.12 146.08 L 26.42 145.70 L 26.72 145.32 L 27.03 144.94 L 27.33 144.57 L 27.63 144.20 L 27.93 143.83 L 28.24 143.46 L 28.54 143.09 L 28.84 142.72 L 29.14 142.36 L 29.45 142.00 L 29.75 141.64 L 30.05 141.28 L 30.35 140.92 L 30.66 140.57 L 30.96 140.21 L 31.26 139.86 L 31.56 139.51 L 31.87 139.16 L 32.17 138.81 L 32.47 138.47 L 32.77 138.12 L 33.08 137.78 L 33.38 137.44 L 33.68 137.10 L 33.98 136.76 L 34.29 136.43 L 34.59 136.09 L 34.89 135.76 L 35.19 135.43 L 35.50 135.10 L 35.80 134.77 L 36.10 134.44 L 36.40 134.12 L 36.71 133.80 L 37.01 133.47 L 37.31 133.15 L 37.62 132.83 L 37.92 132.52 L 38.22 132.20 L 38.52 131.89 L 38.83 131.58 L 39.13 131.27 L 39.43 130.96 L 39.73 130.65 L 40.04 130.34 L 40.34 130.04 L 40.64 129.74 L 40.94 129.43 L 41.25 129.13 L 41.55 128.84 L 41.85 128.54 L 42.15 128.24 L 42.46 127.95 L 42.76 127.66 L 43.06 127.37 L 43.36 127.08 L 43.67 126.79 L 43.97 126.50 L 44.27 126.22 L 44.57 125.94 L 44.88 125.65 L 45.18 125.37 L 45.48 125.09 L 45.78 124.82 L 46.09 124.54 L 46.39 124.27 L 46.69 123.99 L 46.99 123.72 L 47.30 123.45 L 47.60 123.18 L 47.90 122.92 L 48.20 122.65 L 48.51 122.39 L 48.81 122.12 L 49.11 121.86 L 49.41 121.60 L 49.72 121.34 L 50.02 121.09 L 50.32 120.83 L 50.63 120.58 L 50.93 120.32 L 51.23 120.07 L 51.53 119.82 L 51.84 119.57 L 52.14 119.32 L 52.44 119.08 L 52.74 118.83 L 53.05 118.59 L 53.35 118.35 L 53.65 118.11 L 53.95 117.87 L 54.26 117.63 L 54.56 117.39 L 54.86 117.16 L 55.16 116.92 L 55.47 116.69 L 55.77 116.46 L 56.07 116.23 L 56.37 116.00 L 56.68 115.78 L 56.98 115.55 L 57.28 115.33 L 57.58 115.10 L 57.89 114.88 L 58.19 114.66 L 58.49 114.44 L 58.79 114.22 L 59.10 114.01 L 59.40 113.79 L 59.70 113.58 L 60.00 113.36 L 60.31 113.15 L 60.61 112.94 L 60.91 112.73 L 61.21 112.53 L 61.52 112.32 L 61.82 112.11 L 62.12 111.91 L 62.42 111.71 L 62.73 111.51 L 63.03 111.31 L 63.33 111.11 L 63.64 110.91 L 63.94 110.71 L 64.24 110.52 L 64.54 110.33 L 64.85 110.13 L 65.15 109.94 L 65.45 109.75 L 65.75 109.56 L 66.06 109.37 L 66.36 109.19 L 66.66 109.00 L 66.96 108.82 L 67.27 108.64 L 67.57 108.45 L 67.87 108.27 L 68.17 108.09 L 68.48 107.92 L 68.78 107.74 L 69.08 107.56 L 69.38 107.39 L 69.69 107.21 L 69.99 107.04 L 70.29 106.87 L 70.59 106.70 L 70.90 106.53 L 71.20 106.36 L 71.50 106.20 L 71.80 106.03 L 72.11 105.87 L 72.41 105.70 L 72.71 105.54 L 73.01 105.38 L 73.32 105.22 L 73.62 105.06 L 73.92 104.90 L 74.22 104.75 L 74.53 104.59 L 74.83 104.44 L 75.13 104.28 L 75.43 104.13 L 75.74 103.98 L 76.04 103.83 L 76.34 103.68 L 76.65 103.53 L 76.95 103.39 L 77.25 103.24 L 77.55 103.10 L 77.86 102.95 L 78.16 102.81 L 78.46 102.67 L 78.76 102.53 L 79.07 102.39 L 79.37 102.25 L 79.67 102.11 L 79.97 101.98 L 80.28 101.84 L 80.58 101.71 L 80.88 101.57 L 81.18 101.44 L 81.49 101.31 L 81.79 101.18 L 82.09 101.05 L 82.39 100.92 L 82.70 100.79 L 83.00 100.67 L 83.30 100.54 L 83.60 100.42 L 83.91 100.30 L 84.21 100.17 L 84.51 100.05 L 84.81 99.93 L 85.12 99.81 L 85.42 99.69 L 85.72 99.58 L 86.02 99.46 L 86.33 99.34 L 86.63 99.23 L 86.93 99.12 L 87.23 99.00 L 87.54 98.89 L 87.84 98.78 L 88.14 98.67 L 88.44 98.56 L 88.75 98.45 L 89.05 98.35 L 89.35 98.24 L 89.66 98.13 L 89.96 98.03 L 90.26 97.93 L 90.56 97.82 L 90.87 97.72 L 91.17 97.62 L 91.47 97.52 L 91.77 97.42 L 92.08 97.32 L 92.38 97.23 L 92.68 97.13 L 92.98 97.03 L 93.29 96.94 L 93.59 96.84 L 93.89 96.75 L 94.19 96.66 L 94.50 96.57 L 94.80 96.48 L 95.10 96.39 L 95.40 96.30 L 95.71 96.21 L 96.01 96.12 L 96.31 96.04 L 96.61 95.95 L 96.92 95.87 L 97.22 95.78 L 97.52 95.70 L 97.82 95.62 L 98.13 95.54 L 98.43 95.45 L 98.73 95.37 L 99.03 95.30 L 99.34 95.22 L 99.64 95.14 L 99.94 95.06 L 100.24 94.99 L 100.55 94.91 L 100.85 94.84 L 101.15 94.76 L 101.45 94.69 L 101.76 94.62 L 102.06 94.55 L 102.36 94.47 L 102.67 94.40 L 102.97 94.33 L 103.27 94.27 L 103.57 94.20 L 103.88 94.13 L 104.18 94.06 L 104.48 94.00 L 104.78 93.93 L 105.09 93.87 L 105.39 93.81 L 105.69 93.74 L 105.99 93.68 L 106.30 93.62 L 106.60 93.56 L 106.90 93.50 L 107.20 93.44 L 107.51 93.38 L 107.81 93.32 L 108.11 93.26 L 108.41 93.21 L 108.72 93.15 L 109.02 93.10 L 109.32 93.04 L 109.62 92.99 L 109.93 92.93 L 110.23 92.88 L 110.53 92.83 L 110.83 92.78 L 111.14 92.73 L 111.44 92.68 L 111.74 92.63 L 112.04 92.58 L 112.35 92.53 L 112.65 92.48 L 112.95 92.43 L 113.25 92.39 L 113.56 92.34 L 113.86 92.30 L 114.16 92.25 L 114.46 92.21 L 114.77 92.16 L 115.07 92.12 L 115.37 92.08 L 115.68 92.03 L 115.98 91.99 L 116.28 91.95 L 116.58 91.91 L 116.89 91.87 L 117.19 91.83 L 117.49 91.80 L 117.79 91.76 L 118.10 91.72 L 118.40 91.68 L 118.70 91.65 L 119.00 91.61 L 119.31 91.57 L 119.61 91.54 L 119.91 91.51 L 120.21 91.47 L 120.52 91.44 L 120.82 91.41 L 121.12 91.37 L 121.42 91.34 L 121.73 91.31 L 122.03 91.28 L 122.33 91.25 L 122.63 91.22 L 122.94 91.19 L 123.24 91.16 L 123.54 91.13 L 123.84 91.10 L 124.15 91.08 L 124.45 91.05 L 124.75 91.02 L 125.05 91.00 L 125.36 90.97 L 125.66 90.95 L 125.96 90.92 L 126.26 90.90 L 126.57 90.87 L 126.87 90.85 L 127.17 90.83 L 127.47 90.80 L 127.78 90.78 L 128.08 90.76 L 128.38 90.74 L 128.69 90.72 L 128.99 90.70 L 129.29 90.68 L 129.59 90.66 L 129.90 90.64 L 130.20 90.62 L 130.50 90.60 L 130.80 90.58 L 131.11 90.56 L 131.41 90.55 L 131.71 90.53 L 132.01 90.51 L 132.32 90.50 L 132.62 90.48 L 132.92 90.46 L 133.22 90.45 L 133.53 90.43 L 133.83 90.42 L 134.13 90.40 L 134.43 90.39 L 134.74 90.38 L 135.04 90.36 L 135.34 90.35 L 135.64 90.34 L 135.95 90.33 L 136.25 90.31 L 136.55 90.30 L 136.85 90.29 L 137.16 90.28 L 137.46 90.27 L 137.76 90.26 L 138.06 90.25 L 138.37 90.24 L 138.67 90.23 L 138.97 90.22 L 139.27 90.21 L 139.58 90.20 L 139.88 90.19 L 140.18 90.18 L 140.48 90.17 L 140.79 90.17 L 141.09 90.16 L 141.39 90.15 L 141.70 90.14 L 142.00 90.14 L 142.30 90.13 L 142.60 90.12 L 142.91 90.12 L 143.21 90.11 L 143.51 90.10 L 143.81 90.10 L 144.12 90.09 L 144.42 90.09 L 144.72 90.08 L 145.02 90.08 L 145.33 90.07 L 145.63 90.07 L 145.93 90.07 L 146.23 90.06 L 146.54 90.06 L 146.84 90.05 L 147.14 90.05 L 147.44 90.05 L 147.75 90.04 L 148.05 90.04 L 148.35 90.04 L 148.65 90.03 L 148.96 90.03 L 149.26 90.03 L 149.56 90.03 L 149.86 90.02 L 150.17 90.02 L 150.47 90.02 L 150.77 90.02 L 151.07 90.02 L 151.38 90.01 L 151.68 90.01 L 151.98 90.01 L 152.28 90.01 L 152.59 90.01 L 152.89 90.01 L 153.19 90.01 L 153.49 90.01 L 153.80 90.01 L 154.10 90.00 L 154.40 90.00 L 154.71 90.00 L 155.01 90.00 L 155.31 90.00 L 155.61 90.00 L 155.92 90.00 L 156.22 90.00 L 156.52 90.00 L 156.82 90.00 L 157.13 90.00 L 157.43 90.00 L 157.73 90.00 L 158.03 90.00 L 158.34 90.00 L 158.64 90.00 L 158.94 90.00 L 159.24 90.00 L 159.55 90.00 L 159.85 90.00 L 160.15 90.00 L 160.45 90.00 L 160.76 90.00 L 161.06 90.00 L 161.36 90.00 L 161.66 90.00 L 161.97 90.00 L 162.27 90.00 L 162.57 90.00 L 162.87 90.00 L 163.18 90.00 L 163.48 90.00 L 163.78 90.00 L 164.08 90.00 L 164.39 90.00 L 164.69 90.00 L 164.99 90.00 L 165.29 90.00 L 165.60 90.00 L 165.90 90.00 L 166.20 89.99 L 166.51 89.99 L 166.81 89.99 L 167.11 89.99 L 167.41 89.99 L 167.72 89.99 L 168.02 89.99 L 168.32 89.99 L 168.62 89.99 L 168.93 89.98 L 169.23 89.98 L 169.53 89.98 L 169.83 89.98 L 170.14 89.98 L 170.44 89.97 L 170.74 89.97 L 171.04 89.97 L 171.35 89.97 L 171.65 89.96 L 171.95 89.96 L 172.25 89.96 L 172.56 89.95 L 172.86 89.95 L 173.16 89.95 L 173.46 89.94 L 173.77 89.94 L 174.07 89.93 L 174.37 89.93 L 174.67 89.93 L 174.98 89.92 L 175.28 89.92 L 175.58 89.91 L 175.88 89.91 L 176.19 89.90 L 176.49 89.90 L 176.79 89.89 L 177.09 89.88 L 177.40 89.88 L 177.70 89.87 L 178.00 89.86 L 178.30 89.86 L 178.61 89.85 L 178.91 89.84 L 179.21 89.83 L 179.52 89.83 L 179.82 89.82 L 180.12 89.81 L 180.42 89.80 L 180.73 89.79 L 181.03 89.78 L 181.33 89.77 L 181.63 89.76 L 181.94 89.75 L 182.24 89.74 L 182.54 89.73 L 182.84 89.72 L 183.15 89.71 L 183.45 89.70 L 183.75 89.69 L 184.05 89.67 L 184.36 89.66 L 184.66 89.65 L 184.96 89.64 L 185.26 89.62 L 185.57 89.61 L 185.87 89.60 L 186.17 89.58 L 186.47 89.57 L 186.78 89.55 L 187.08 89.54 L 187.38 89.52 L 187.68 89.50 L 187.99 89.49 L 188.29 89.47 L 188.59 89.45 L 188.89 89.44 L 189.20 89.42 L 189.50 89.40 L 189.80 89.38 L 190.10 89.36 L 190.41 89.34 L 190.71 89.32 L 191.01 89.30 L 191.31 89.28 L 191.62 89.26 L 191.92 89.24 L 192.22 89.22 L 192.53 89.20 L 192.83 89.17 L 193.13 89.15 L 193.43 89.13 L 193.74 89.10 L 194.04 89.08 L 194.34 89.05 L 194.64 89.03 L 194.95 89.00 L 195.25 88.98 L 195.55 88.95 L 195.85 88.92 L 196.16 88.90 L 196.46 88.87 L 196.76 88.84 L 197.06 88.81 L 197.37 88.78 L 197.67 88.75 L 197.97 88.72 L 198.27 88.69 L 198.58 88.66 L 198.88 88.63 L 199.18 88.59 L 199.48 88.56 L 199.79 88.53 L 200.09 88.49 L 200.39 88.46 L 200.69 88.43 L 201.00 88.39 L 201.30 88.35 L 201.60 88.32 L 201.90 88.28 L 202.21 88.24 L 202.51 88.20 L 202.81 88.17 L 203.11 88.13 L 203.42 88.09 L 203.72 88.05 L 204.02 88.01 L 204.32 87.97 L 204.63 87.92 L 204.93 87.88 L 205.23 87.84 L 205.54 87.79 L 205.84 87.75 L 206.14 87.70 L 206.44 87.66 L 206.75 87.61 L 207.05 87.57 L 207.35 87.52 L 207.65 87.47 L 207.96 87.42 L 208.26 87.37 L 208.56 87.32 L 208.86 87.27 L 209.17 87.22 L 209.47 87.17 L 209.77 87.12 L 210.07 87.07 L 210.38 87.01 L 210.68 86.96 L 210.98 86.90 L 211.28 86.85 L 211.59 86.79 L 211.89 86.74 L 212.19 86.68 L 212.49 86.62 L 212.80 86.56 L 213.10 86.50 L 213.40 86.44 L 213.70 86.38 L 214.01 86.32 L 214.31 86.26 L 214.61 86.19 L 214.91 86.13 L 215.22 86.07 L 215.52 86.00 L 215.82 85.94 L 216.12 85.87 L 216.43 85.80 L 216.73 85.73 L 217.03 85.67 L 217.33 85.60 L 217.64 85.53 L 217.94 85.45 L 218.24 85.38 L 218.55 85.31 L 218.85 85.24 L 219.15 85.16 L 219.45 85.09 L 219.76 85.01 L 220.06 84.94 L 220.36 84.86 L 220.66 84.78 L 220.97 84.70 L 221.27 84.63 L 221.57 84.55 L 221.87 84.46 L 222.18 84.38 L 222.48 84.30 L 222.78 84.22 L 223.08 84.13 L 223.39 84.05 L 223.69 83.96 L 223.99 83.88 L 224.29 83.79 L 224.60 83.70 L 224.90 83.61 L 225.20 83.52 L 225.50 83.43 L 225.81 83.34 L 226.11 83.25 L 226.41 83.16 L 226.71 83.06 L 227.02 82.97 L 227.32 82.87 L 227.62 82.77 L 227.92 82.68 L 228.23 82.58 L 228.53 82.48 L 228.83 82.38 L 229.13 82.28 L 229.44 82.18 L 229.74 82.07 L 230.04 81.97 L 230.34 81.87 L 230.65 81.76 L 230.95 81.65 L 231.25 81.55 L 231.56 81.44 L 231.86 81.33 L 232.16 81.22 L 232.46 81.11 L 232.77 81.00 L 233.07 80.88 L 233.37 80.77 L 233.67 80.66 L 233.98 80.54 L 234.28 80.42 L 234.58 80.31 L 234.88 80.19 L 235.19 80.07 L 235.49 79.95 L 235.79 79.83 L 236.09 79.70 L 236.40 79.58 L 236.70 79.46 L 237.00 79.33 L 237.30 79.21 L 237.61 79.08 L 237.91 78.95 L 238.21 78.82 L 238.51 78.69 L 238.82 78.56 L 239.12 78.43 L 239.42 78.29 L 239.72 78.16 L 240.03 78.02 L 240.33 77.89 L 240.63 77.75 L 240.93 77.61 L 241.24 77.47 L 241.54 77.33 L 241.84 77.19 L 242.14 77.05 L 242.45 76.90 L 242.75 76.76 L 243.05 76.61 L 243.35 76.47 L 243.66 76.32 L 243.96 76.17 L 244.26 76.02 L 244.57 75.87 L 244.87 75.72 L 245.17 75.56 L 245.47 75.41 L 245.78 75.25 L 246.08 75.10 L 246.38 74.94 L 246.68 74.78 L 246.99 74.62 L 247.29 74.46 L 247.59 74.30 L 247.89 74.13 L 248.20 73.97 L 248.50 73.80 L 248.80 73.64 L 249.10 73.47 L 249.41 73.30 L 249.71 73.13 L 250.01 72.96 L 250.31 72.79 L 250.62 72.61 L 250.92 72.44 L 251.22 72.26 L 251.52 72.08 L 251.83 71.91 L 252.13 71.73 L 252.43 71.55 L 252.73 71.36 L 253.04 71.18 L 253.34 71.00 L 253.64 70.81 L 253.94 70.63 L 254.25 70.44 L 254.55 70.25 L 254.85 70.06 L 255.15 69.87 L 255.46 69.67 L 255.76 69.48 L 256.06 69.29 L 256.36 69.09 L 256.67 68.89 L 256.97 68.69 L 257.27 68.49 L 257.58 68.29 L 257.88 68.09 L 258.18 67.89 L 258.48 67.68 L 258.79 67.47 L 259.09 67.27 L 259.39 67.06 L 259.69 66.85 L 260.00 66.64 L 260.30 66.42 L 260.60 66.21 L 260.90 65.99 L 261.21 65.78 L 261.51 65.56 L 261.81 65.34 L 262.11 65.12 L 262.42 64.90 L 262.72 64.67 L 263.02 64.45 L 263.32 64.22 L 263.63 64.00 L 263.93 63.77 L 264.23 63.54 L 264.53 63.31 L 264.84 63.08 L 265.14 62.84 L 265.44 62.61 L 265.74 62.37 L 266.05 62.13 L 266.35 61.89 L 266.65 61.65 L 266.95 61.41 L 267.26 61.17 L 267.56 60.92 L 267.86 60.68 L 268.16 60.43 L 268.47 60.18 L 268.77 59.93 L 269.07 59.68 L 269.37 59.42 L 269.68 59.17 L 269.98 58.91 L 270.28 58.66 L 270.59 58.40 L 270.89 58.14 L 271.19 57.88 L 271.49 57.61 L 271.80 57.35 L 272.10 57.08 L 272.40 56.82 L 272.70 56.55 L 273.01 56.28 L 273.31 56.01 L 273.61 55.73 L 273.91 55.46 L 274.22 55.18 L 274.52 54.91 L 274.82 54.63 L 275.12 54.35 L 275.43 54.06 L 275.73 53.78 L 276.03 53.50 L 276.33 53.21 L 276.64 52.92 L 276.94 52.63 L 277.24 52.34 L 277.54 52.05 L 277.85 51.76 L 278.15 51.46 L 278.45 51.16 L 278.75 50.87 L 279.06 50.57 L 279.36 50.26 L 279.66 49.96 L 279.96 49.66 L 280.27 49.35 L 280.57 49.04 L 280.87 48.73 L 281.17 48.42 L 281.48 48.11 L 281.78 47.80 L 282.08 47.48 L 282.38 47.17 L 282.69 46.85 L 282.99 46.53 L 283.29 46.20 L 283.60 45.88 L 283.90 45.56 L 284.20 45.23 L 284.50 44.90 L 284.81 44.57 L 285.11 44.24 L 285.41 43.91 L 285.71 43.57 L 286.02 43.24 L 286.32 42.90 L 286.62 42.56 L 286.92 42.22 L 287.23 41.88 L 287.53 41.53 L 287.83 41.19 L 288.13 40.84 L 288.44 40.49 L 288.74 40.14 L 289.04 39.79 L 289.34 39.43 L 289.65 39.08 L 289.95 38.72 L 290.25 38.36 L 290.55 38.00 L 290.86 37.64 L 291.16 37.28 L 291.46 36.91 L 291.76 36.54 L 292.07 36.17 L 292.37 35.80 L 292.67 35.43 L 292.97 35.06 L 293.28 34.68 L 293.58 34.30 L 293.88 33.92 L 294.18 33.54 L 294.49 33.16 L 294.79 32.78 L 295.09 32.39 L 295.39 32.00 L 295.70 31.61 L 296.00 31.22" fill="none" stroke="#5F6B7A" stroke-width="2.5" stroke-linecap="round" stroke-linejoin="round"/>
</svg>
