<svg xmlns="http://www.w3.org/2000/svg" viewBox="0 0 320 180" width="320" height="180">
  <rect width="320" height="180" fill="#F4F5F7"/>
  <path d="M 18.00 149.66 L 18.32 149.66 L 18.63 149.66 L 18.95 149.66 L 19.26 149.66 L 19.58 149.66 L 19.90 149.66 L 20.21 149.66 L 20.53 149.66 L 20.84 149.66 L 21.16 149.66 L 21.47 149.66 L 21.79 149.66 L 22.11 149.66 L 22.42 149.66 L 22.74 149.66 L 23.05 149.66 L 23.37 149.66 L 23.69 149.66 L 24.00 149.66 L 24.32 149.66 L 24.63 149.66 L 24.95 149.66 L 25.27 149.66 L 25.58 149.66 L 25.90 149.66 L 26.21 149.66 L 26.53 149.66 L 26.85 149.66 L 27.16 149.66 L 27.48 149.66 L 27.79 149.66 L 28.11 149.66 L 28.42 149.66 L 28.74 149.66 L 29.06 149.66 L 29.37 149.66 L 29.69 149.66 L 30.00 149.66 L 30.32 149.66 L 30.64 149.66 L 30.95 149.66 L 31.27 149.66 L 31.58 149.66 L 31.90 149.66 L 32.22 149.66 L 32.53 149.66 L 32.85 149.66 L 33.16 149.66 L 33.48 149.66 L 33.80 149.66 L 34.11 149.66 L 34.43 149.66 L 34.74 149.66 L 35.06 149.66 L 35.37 149.66 L 35.69 149.66 L 36.01 149.66 L 36.32 149.66 L 36.64 149.66 L 36.95 149.66 L 37.27 149.66 L 37.59 149.66 L 37.90 149.66 L 38.22 149.66 L 38.53 149.66 L 38.85 149.66 L 39.17 149.66 L 39.48 149.66 L 39.80 149.66 L 40.11 149.66 L 40.43 149.66 L 40.75 149.66 L 41.06 149.66 L 41.38 149.66 L 41.69 149.66 L 42.01 149.66 L 42.32 149.66 L 42.64 149.66 L 42.96 149.66 L 43.27 149.66 L 43.59 149.66 L 43.90 149.66 L 44.22 149.66 L 44.54 149.66 L 44.85 149.66 L 45.17 149.66 L 45.48 149.66 L 45.80 149.66 L 46.12 149.66 L 46.43 149.66 L 46.75 149.66 L 47.06 149.66 L 47.38 149.66 L 47.70 149.66 L 48.01 149.66 L 48.33 149.66 L 48.64 149.66 L 48.96 149.66 L 49.27 149.66 L 49.59 149.66 L 49.91 149.66 L 50.22 149.66 L 50.54 149.66 L 50.85 149.66 L 51.17 149.66 L 51.49 149.66 L 51.80 149.66 L 52.12 149.66 L 52.43 149.66 L 52.75 149.66 L 53.07 149.66 L 53.38 149.66 L 53.70 149.66 L 54.01 149.66 L 54.33 149.66 L 54.65 149.66 L 54.96 149.66 L 55.28 149.66 L 55.59 149.66 L 55.91 149.66 L 56.22 149.66 L 56.54 149.66 L 56.86 149.66 L 57.17 149.66 L 57.49 149.66 L 57.80 149.66 L 58.12 149.66 L 58.44 149.66 L 58.75 149.66 L 59.07 149.66 L 59.38 149.66 L 59.70 149.66 L 60.02 149.66 L 60.33 149.66 L 60.65 149.66 L 60.96 149.66 L 61.28 149.66 L 61.60 149.66 L 61.91 149.66 L 62.23 149.66 L 62.54 149.66 L 62.86 149.66 L 63.17 149.66 L 63.49 149.66 L 63.81 149.66 L 64.12 149.66 L 64.44 149.66 L 64.75 149.66 L 65.07 149.66 L 65.39 149.66 L 65.70 149.66 L 66.02 149.66 L 66.33 149.66 L 66.65 149.66 L 66.97 149.66 L 67.28 149.66 L 67.60 149.66 L 67.91 149.66 L 68.23 149.66 L 68.55 149.66 L 68.86 149.66 L 69.18 149.66 L 69.49 149.66 L 69.81 149.66 L 70.12 149.66 L 70.44 149.66 L 70.76 149.66 L 71.07 149.66 L 71.39 149.66 L 71.70 149.66 L 72.02 149.66 L 72.34 149.66 L 72.65 149.66 L 72.97 149.66 L 73.28 149.66 L 73.60 149.66 L 73.92 149.66 L 74.23 149.66 L 74.55 149.66 L 74.86 149.66 L 75.18 149.66 L 75.49 149.66 L 75.81 149.66 L 76.13 149.66 L 76.44 149.66 L 76.76 149.66 L 77.07 149.66 L 77.39 149.66 L 77.71 149.66 L 78.02 149.66 L 78.34 149.66 L 78.65 149.66 L 78.97 149.66 L 79.29 149.66 L 79.60 149.66 L 79.92 149.66 L 80.23 149.66 L 80.55 149.66 L 80.87 149.66 L 81.18 149.66 L 81.50 149.66 L 81.81 149.66 L 82.13 149.66 L 82.44 149.66 L 82.76 149.66 L 83.08 149.66 L 83.39 149.66 L 83.71 149.66 L 84.02 149.66 L 84.34 149.66 L 84.66 149.66 L 84.97 149.66 L 85.29 149.66 L 85.60 149.66 L 85.92 149.66 L 86.24 149.66 L 86.55 149.66 L 86.87 149.66 L 87.18 149.66 L 87.50 149.66 L 87.82 149.66 L 88.13 149.66 L 88.45 149.66 L 88.76 149.66 L 89.08 149.66 L 89.39 149.66 L 89.71 149.66 L 90.03 149.66 L 90.34 149.66 L 90.66 149.66 L 90.97 149.66 L 91.29 149.66 L 91.61 149.66 L 91.92 149.66 L 92.24 149.66 L 92.55 149.66 L 92.87 149.66 L 93.19 149.66 L 93.50 149.66 L 93.82 149.66 L 94.13 149.66 L 94.45 149.66 L 94.77 149.66 L 95.08 149.66 L 95.40 149.66 L 95.71 149.66 L 96.03 149.66 L 96.34 149.66 L 96.66 149.66 L 96.98 149.66 L 97.29 149.66 L 97.61 149.66 L 97.92 149.66 L 98.24 149.66 L 98.56 149.66 L 98.87 149.66 L 99.19 149.66 L 99.50 149.66 L 99.82 149.66 L 100.14 149.66 L 100.45 149.66 L 100.77 149.66 L 101.08 149.66 L 101.40 149.66 L 101.72 149.66 L 102.03 149.66 L 102.35 149.66 L 102.66 149.66 L 102.98 149.66 L 103.29 149.66 L 103.61 149.66 L 103.93 149.66 L 104.24 149.66 L 104.56 149.66 L 104.87 149.66 L 105.19 149.66 L 105.51 149.66 L 105.82 149.66 L 106.14 149.66 L 106.45 149.66 L 106.77 149.66 L 107.09 149.66 L 107.40 149.66 L 107.72 149.66 L 108.03 149.66 L 108.35 149.66 L 108.67 149.66 L 108.98 149.66 L 109.30 149.66 L 109.61 149.66 L 109.93 149.66 L 110.24 149.66 L 110.56 149.66 L 110.88 149.66 L 111.19 149.66 L 111.51 149.66 L 111.82 149.66 L 112.14 149.66 L 112.46 149.66 L 112.77 149.66 L 113.09 149.66 L 113.40 149.66 L 113.72 149.66 L 114.04 149.66 L 114.35 149.66 L 114.67 149.66 L 114.98 149.66 L 115.30 149.66 L 115.62 149.66 L 115.93 149.66 L 116.25 149.66 L 116.56 149.66 L 116.88 149.66 L 117.19 149.66 L 117.51 149.66 L 117.83 149.66 L 118.14 149.66 L 118.46 149.66 L 118.77 149.66 L 119.09 149.66 L 119.41 149.66 L 119.72 149.66 L 120.04 149.66 L 120.35 149.66 L 120.67 149.66 L 120.99 149.66 L 121.30 149.66 L 121.62 149.66 L 121.93 149.66 L 122.25 149.66 L 122.57 149.66 L 122.88 149.66 L 123.20 149.66 L 123.51 149.66 L 123.83 149.66 L 124.14 149.66 L 124.46 149.66 L 124.78 149.66 L 125.09 149.66 L 125.41 149.66 L 125.72 149.66 L 126.04 149.66 L 126.36 149.66 L 126.67 149.66 L 126.99 149.66 L 127.30 149.66 L 127.62 149.66 L 127.94 149.66 L 128.25 149.66 L 128.57 149.66 L 128.88 149.66 L 129.20 149.66 L 129.52 149.66 L 129.83 149.66 L 130.15 149.66 L 130.46 149.66 L 130.78 149.66 L 131.09 149.66 L 131.41 149.66 L 131.73 149.66 L 132.04 149.66 L 132.36 149.66 L 132.67 149.66 L 132.99 149.66 L 133.31 149.66 L 133.62 149.66 L 133.94 149.66 L 134.25 149.66 L 134.57 149.66 L 134.89 149.66 L 135.20 149.66 L 135.52 149.66 L 135.83 149.66 L 136.15 149.66 L 136.46 149.66 L 136.78 149.66 L 137.10 149.66 L 137.41 149.66 L 137.73 149.66 L 138.04 149.66 L 138.36 149.66 L 138.68 149.66 L 138.99 149.66 L 139.31 149.66 L 139.62 149.66 L 139.94 149.66 L 140.26 149.66 L 140.57 149.66 L 140.89 149.66 L 141.20 149.66 L 141.52 149.66 L 141.84 149.66 L 142.15 149.66 L 142.47 149.66 L 142.78 149.66 L 143.10 149.66 L 143.41 149.66 L 143.73 149.66 L 144.05 149.66 L 144.36 149.66 L 144.68 149.66 L 144.99 149.66 L 145.31 149.66 L 145.63 149.66 L 145.94 149.66 L 146.26 149.66 L 146.57 149.66 L 146.89 149.66 L 147.21 149.66 L 147.52 149.66 L 147.84 149.66 L 148.15 149.66 L 148.47 149.66 L 148.79 149.66 L 149.10 149.66 L 149.42 149.66 L 149.73 149.66 L 150.05 149.66 L 150.36 149.66 L 150.68 149.66 L 151.00 149.66 L 151.31 149.66 L 151.63 149.66 L 151.94 149.66 L 152.26 149.66 L 152.58 149.66 L 152.89 149.66 L 153.21 149.66 L 153.52 149.66 L 153.84 149.66 L 154.16 149.66 L 154.47 149.66 L 154.79 149.66 L 155.10 149.66 L 155.42 149.66 L 155.74 149.66 L 156.05 149.66 L 156.37 149.66 L 156.68 149.66 L 157.00 149.66 L 157.31 149.66 L 157.63 149.66 L 157.95 149.66 L 158.26 149.66 L 158.58 149.66 L 158.89 149.66 L 159.21 149.66 L 159.53 149.66 L 159.84 149.66 L 160.16 149.52 L 160.47 149.25 L 160.79 148.97 L 161.11 148.70 L 161.42 148.42 L 161.74 148.15 L 162.05 147.87 L 162.37 147.60 L 162.69 147.32 L 163.00 147.05 L 163.32 146.77 L 163.63 146.50 L 163.95 146.22 L 164.26 145.95 L 164.58 145.68 L 164.90 145.40 L 165.21 145.13 L 165.53 144.85 L 165.84 144.58 L 166.16 144.30 L 166.48 144.03 L 166.79 143.75 L 167.11 143.48 L 167.42 143.20 L 167.74 142.93 L 168.06 142.66 L 168.37 142.38 L 168.69 142.11 L 169.00 141.83 L 169.32 141.56 L 169.64 141.28 L 169.95 141.01 L 170.27 140.73 L 170.58 140.46 L 170.90 140.18 L 171.21 139.91 L 171.53 139.63 L 171.85 139.36 L 172.16 139.09 L 172.48 138.81 L 172.79 138.54 L 173.11 138.26 L 173.43 137.99 L 173.74 137.71 L 174.06 137.44 L 174.37 137.16 L 174.69 136.89 L 175.01 136.61 L 175.32 136.34 L 175.64 136.06 L 175.95 135.79 L 176.27 135.52 L 176.59 135.24 L 176.90 134.97 L 177.22 134.69 L 177.53 134.42 L 177.85 134.14 L 178.16 133.87 L 178.48 133.59 L 178.80 133.32 L 179.11 133.04 L 179.43 132.77 L 179.74 132.50 L 180.06 132.22 L 180.38 131.95 L 180.69 131.67 L 181.01 131.40 L 181.32 131.12 L 181.64 130.85 L 181.96 130.57 L 182.27 130.30 L 182.59 130.02 L 182.90 129.75 L 183.22 129.47 L 183.54 129.20 L 183.85 128.93 L 184.17 128.65 L 184.48 128.38 L 184.80 128.10 L 185.11 127.83 L 185.43 127.55 L 185.75 127.28 L 186.06 127.00 L 186.38 126.73 L 186.69 126.45 L 187.01 126.18 L 187.33 125.91 L 187.64 125.63 L 187.96 125.36 L 188.27 125.08 L 188.59 124.81 L 188.91 124.53 L 189.22 124.26 L 189.54 123.98 L 189.85 123.71 L 190.17 123.43 L 190.48 123.16 L 190.80 122.88 L 191.12 122.61 L 191.43 122.34 L 191.75 122.06 L 192.06 121.79 L 192.38 121.51 L 192.70 121.24 L 193.01 120.96 L 193.33 120.69 L 193.64 120.41 L 193.96 120.14 L 194.28 119.86 L 194.59 119.59 L 194.91 119.31 L 195.22 119.04 L 195.54 118.77 L 195.86 118.49 L 196.17 118.22 L 196.49 117.94 L 196.80 117.67 L 197.12 117.39 L 197.43 117.12 L 197.75 116.84 L 198.07 116.57 L 198.38 116.29 L 198.70 116.02 L 199.01 115.75 L 199.33 115.47 L 199.65 115.20 L 199.96 114.92 L 200.28 114.65 L 200.59 114.37 L 200.91 114.10 L 201.23 113.82 L 201.54 113.55 L 201.86 113.27 L 202.17 113.00 L 202.49 112.72 L 202.81 112.45 L 203.12 112.18 L 203.44 111.90 L 203.75 111.63 L 204.07 111.35 L 204.38 111.08 L 204.70 110.80 L 205.02 110.53 L 205.33 110.25 L 205.65 109.98 L 205.96 109.70 L 206.28 109.43 L 206.60 109.15 L 206.91 108.88 L 207.23 108.61 L 207.54 108.33 L 207.86 108.06 L 208.18 107.78 L 208.49 107.51 L 208.81 107.23 L 209.12 106.96 L 209.44 106.68 L 209.76 106.41 L 210.07 106.13 L 210.39 105.86 L 210.70 105.59 L 211.02 105.31 L 211.33 105.04 L 211.65 104.76 L 211.97 104.49 L 212.28 104.21 L 212.60 103.94 L 212.91 103.66 L 213.23 103.39 L 213.55 103.11 L 213.86 102.84 L 214.18 102.56 L 214.49 102.29 L 214.81 102.02 L 215.13 101.74 L 215.44 101.47 L 215.76 101.19 L 216.07 100.92 L 216.39 100.64 L 216.71 100.37 L 217.02 100.09 L 217.34 99.82 L 217.65 99.54 L 217.97 99.27 L 218.28 99.00 L 218.60 98.72 L 218.92 98.45 L 219.23 98.17 L 219.55 97.90 L 219.86 97.62 L 220.18 97.35 L 220.50 97.07 L 220.81 96.80 L 221.13 96.52 L 221.44 96.25 L 221.76 95.97 L 222.08 95.70 L 222.39 95.43 L 222.71 95.15 L 223.02 94.88 L 223.34 94.60 L 223.66 94.33 L 223.97 94.05 L 224.29 93.78 L 224.60 93.50 L 224.92 93.23 L 225.23 92.95 L 225.55 92.68 L 225.87 92.40 L 226.18 92.13 L 226.50 91.86 L 226.81 91.58 L 227.13 91.31 L 227.45 91.03 L 227.76 90.76 L 228.08 90.48 L 228.39 90.21 L 228.71 89.93 L 229.03 89.66 L 229.34 89.38 L 229.66 89.11 L 229.97 88.84 L 230.29 88.56 L 230.61 88.29 L 230.92 88.01 L 231.24 87.74 L 231.55 87.46 L 231.87 87.19 L 232.18 86.91 L 232.50 86.64 L 232.82 86.36 L 233.13 86.09 L 233.45 85.81 L 233.76 85.54 L 234.08 85.27 L 234.40 84.99 L 234.71 84.72 L 235.03 84.44 L 235.34 84.17 L 235.66 83.89 L 235.98 83.62 L 236.29 83.34 L 236.61 83.07 L 236.92 82.79 L 237.24 82.52 L 237.56 82.25 L 237.87 81.97 L 238.19 81.70 L 238.50 81.42 L 238.82 81.15 L 239.13 80.87 L 239.45 80.60 L 239.77 80.32 L 240.08 80.05 L 240.40 79.77 L 240.71 79.50 L 241.03 79.22 L 241.35 78.95 L 241.66 78.68 L 241.98 78.40 L 242.29 78.13 L 242.61 77.85 L 242.93 77.58 L 243.24 77.30 L 243.56 77.03 L 243.87 76.75 L 244.19 76.48 L 244.51 76.20 L 244.82 75.93 L 245.14 75.65 L 245.45 75.38 L 245.77 75.11 L 246.08 74.83 L 246.40 74.56 L 246.72 74.28 L 247.03 74.01 L 247.35 73.73 L 247.66 73.46 L 247.98 73.18 L 248.30 72.91 L 248.61 72.63 L 248.93 72.36 L 249.24 72.09 L 249.56 71.81 L 249.88 71.54 L 250.19 71.26 L 250.51 70.99 L 250.82 70.71 L 251.14 70.44 L 251.45 70.16 L 251.77 69.89 L 252.09 69.61 L 252.40 69.34 L 252.72 69.06 L 253.03 68.79 L 253.35 68.52 L 253.67 68.24 L 253.98 67.97 L 254.30 67.69 L 254.61 67.42 L 254.93 67.14 L 255.25 66.87 L 255.56 66.59 L 255.88 66.32 L 256.19 66.04 L 256.51 65.77 L 256.83 65.50 L 257.14 65.22 L 257.46 64.95 L 257.77 64.67 L 258.09 64.40 L 258.40 64.12 L 258.72 63.85 L 259.04 63.57 L 259.35 63.30 L 259.67 63.02 L 259.98 62.75 L 260.30 62.47 L 260.62 62.20 L 260.93 61.93 L 261.25 61.65 L 261.56 61.38 L 261.88 61.10 L 262.20 60.83 L 262.51 60.55 L 262.83 60.28 L 263.14 60.00 L 263.46 59.73 L 263.78 59.45 L 264.09 59.18 L 264.41 58.90 L 264.72 58.63 L 265.04 58.36 L 265.35 58.08 L 265.67 57.81 L 265.99 57.53 L 266.30 57.26 L 266.62 56.98 L 266.93 56.71 L 267.25 56.43 L 267.57 56.16 L 267.88 55.88 L 268.20 55.61 L 268.51 55.34 L 268.83 55.06 L 269.15 54.79 L 269.46 54.51 L 269.78 54.24 L 270.09 53.96 L 270.41 53.69 L 270.73 53.41 L 271.04 53.14 L 271.36 52.86 L 271.67 52.59 L 271.99 52.31 L 272.30 52.04 L 272.62 51.77 L 272.94 51.49 L 273.25 51.22 L 273.57 50.94 L 273.88 50.67 L 274.20 50.39 L 274.52 50.12 L 274.83 49.84 L 275.15 49.57 L 275.46 49.29 L 275.78 49.02 L 276.10 48.75 L 276.41 48.47 L 276.73 48.20 L 277.04 47.92 L 277.36 47.65 L 277.68 47.37 L 277.99 47.10 L 278.31 46.82 L 278.62 46.55 L 278.94 46.27 L 279.25 46.00 L 279.57 45.72 L 279.89 45.45 L 280.20 45.18 L 280.52 44.90 L 280.83 44.63 L 281.15 44.35 L 281.47 44.08 L 281.78 43.80 L 282.10 43.53 L 282.41 43.25 L 282.73 42.98 L 283.05 42.70 L 283.36 42.43 L 283.68 42.15 L 283.99 41.88 L 284.31 41.61 L 284.63 41.33 L 284.94 41.06 L 285.26 40.78 L 285.57 40.51 L 285.89 40.23 L 286.20 39.96 L 286.52 39.68 L 286.84 39.41 L 287.15 39.13 L 287.47 38.86 L 287.78 38.59 L 288.10 38.31 L 288.42 38.04 L 288.73 37.76 L 289.05 37.49 L 289.36 37.21 L 289.68 36.94 L 290.00 36.66 L 290.31 36.39 L 290.63 36.11 L 290.94 35.84 L 291.26 35.56 L 291.58 35.29 L 291.89 35.02 L 292.21 34.74 L 292.52 34.47 L 292.84 34.19 L 293.15 33.92 L 293.47 33.64 L 293.79 33.37 L 294.10 33.09 L 294.42 32.82 L 294.73 32.54 L 295.05 32.27 L 295.37 31.99 L 295.68 31.72 L 296.00 31.45 L 296.31 31.17 L 296.63 30.90 L 296.95 30.62 L 297.26 30.35 L 297.58 30.07 L 297.89 29.80 L 298.21 29.52 L 298.53 29.25 L 298.84 28.97 L 299.16 28.70 L 299.47 28.43 L 299.79 28.15 L 300.10 27.88 L 300.42 27.60 L 300.74 27.33 L 301.05 27.05 L 301.37 26.78 L 301.68 26.50 L 302.00 26.23" fill="none" stroke="#7E8692" stroke-width="2.3" stroke-linecap="round" stroke-linejoin="round"/>
</svg>
