<svg xmlns="http://www.w3.org/2000/svg" viewBox="0 0 320 180" width="320" height="180">
  <rect width="320" height="180" fill="#F4F5F7"/>
  <path d="M 18.00 156.85 L 18.32 156.86 L 18.63 156.86 L 18.95 156.87 L 19.26 156.88 L 19.58 156.88 L 19.90 156.89 L 20.21 156.89 L 20.53 156.90 L 20.84 156.91 L 21.16 156.91 L 21.47 156.92 L 21.79 156.93 L 22.11 156.93 L 22.42 156.94 L 22.74 156.95 L 23.05 156.95 L 23.37 156.96 L 23.69 156.97 L 24.00 156.97 L 24.32 156.98 L 24.63 156.99 L 24.95 156.99 L 25.27 157.00 L 25.58 157.01 L 25.90 157.01 L 26.21 157.02 L 26.53 157.03 L 26.85 157.03 L 27.16 157.04 L 27.48 157.05 L 27.79 157.05 L 28.11 157.06 L 28.42 157.07 L 28.74 157.08 L 29.06 157.08 L 29.37 157.09 L 29.69 157.10 L 30.00 157.10 L 30.32 157.11 L 30.64 157.12 L 30.95 157.12 L 31.27 157.13 L 31.58 157.14 L 31.90 157.15 L 32.22 157.15 L 32.53 157.16 L 32.85 157.17 L 33.16 157.17 L 33.48 157.18 L 33.80 157.19 L 34.11 157.20 L 34.43 157.20 L 34.74 157.21 L 35.06 157.22 L 35.37 157.22 L 35.69 157.23 L 36.01 157.24 L 36.32 157.25 L 36.64 157.25 L 36.95 157.26 L 37.27 157.27 L 37.59 157.28 L 37.90 157.28 L 38.22 157.29 L 38.53 157.30 L 38.85 157.31 L 39.17 157.31 L 39.48 157.32 L 39.80 157.33 L 40.11 157.34 L 40.43 157.34 L 40.75 157.35 L 41.06 157.36 L 41.38 157.37 L 41.69 157.37 L 42.01 157.38 L 42.32 157.39 L 42.64 157.40 L 42.96 157.40 L 43.27 157.41 L 43.59 157.42 L 43.90 157.43 L 44.22 157.43 L 44.54 157.44 L 44.85 157.45 L 45.17 157.46 L 45.48 157.47 L 45.80 157.47 L 46.12 157.48 L 46.43 157.49 L 46.75 157.50 L 47.06 157.50 L 47.38 157.51 L 47.70 157.52 L 48.01 157.53 L 48.33 157.54 L 48.64 157.54 L 48.96 157.55 L 49.27 157.56 L 49.59 157.57 L 49.91 157.58 L 50.22 157.58 L 50.54 157.59 L 50.85 157.60 L 51.17 157.61 L 51.49 157.62 L 51.80 157.62 L 52.12 157.63 L 52.43 157.64 L 52.75 157.65 L 53.07 157.66 L 53.38 157.66 L 53.70 157.67 L 54.01 157.68 L 54.33 157.69 L 54.65 157.70 L 54.96 157.71 L 55.28 157.71 L 55.59 157.72 L 55.91 157.73 L 56.22 157.74 L 56.54 157.75 L 56.86 157.75 L 57.17 157.76 L 57.49 157.77 L 57.80 157.78 L 58.12 157.79 L 58.44 157.80 L 58.75 157.80 L 59.07 157.81 L 59.38 157.82 L 59.70 157.83 L 60.02 157.84 L 60.33 157.85 L 60.65 157.85 L 60.96 157.86 L 61.28 157.87 L 61.60 157.88 L 61.91 157.89 L 62.23 157.90 L 62.54 157.90 L 62.86 157.91 L 63.17 157.92 L 63.49 157.93 L 63.81 157.94 L 64.12 157.95 L 64.44 157.96 L 64.75 157.96 L 65.07 157.97 L 65.39 157.98 L 65.70 157.99 L 66.02 158.00 L 66.33 158.01 L 66.65 158.02 L 66.97 158.02 L 67.28 158.03 L 67.60 158.04 L 67.91 158.05 L 68.23 158.06 L 68.55 158.07 L 68.86 158.07 L 69.18 158.08 L 69.49 158.09 L 69.81 158.10 L 70.12 158.11 L 70.44 158.12 L 70.76 158.13 L 71.07 158.13 L 71.39 158.14 L 71.70 158.15 L 72.02 158.16 L 72.34 158.17 L 72.65 158.18 L 72.97 158.19 L 73.28 158.19 L 73.60 158.20 L 73.92 158.21 L 74.23 158.22 L 74.55 158.23 L 74.86 158.24 L 75.18 158.25 L 75.49 158.26 L 75.81 158.26 L 76.13 158.27 L 76.44 158.28 L 76.76 158.29 L 77.07 158.30 L 77.39 158.31 L 77.71 158.32 L 78.02 158.32 L 78.34 158.33 L 78.65 158.34 L 78.97 158.35 L 79.29 158.36 L 79.60 158.37 L 79.92 158.38 L 80.23 158.38 L 80.55 158.39 L 80.87 158.40 L 81.18 158.41 L 81.50 158.42 L 81.81 158.43 L 82.13 158.44 L 82.44 158.44 L 82.76 158.45 L 83.08 158.46 L 83.39 158.47 L 83.71 158.48 L 84.02 158.49 L 84.34 158.49 L 84.66 158.50 L 84.97 158.51 L 85.29 158.52 L 85.60 158.53 L 85.92 158.54 L 86.24 158.55 L 86.55 158.55 L 86.87 158.56 L 87.18 158.57 L 87.50 158.58 L 87.82 158.59 L 88.13 158.60 L 88.45 158.60 L 88.76 158.61 L 89.08 158.62 L 89.39 158.63 L 89.71 158.64 L 90.03 158.65 L 90.34 158.65 L 90.66 158.66 L 90.97 158.67 L 91.29 158.68 L 91.61 158.69 L 91.92 158.69 L 92.24 158.70 L 92.55 158.71 L 92.87 158.72 L 93.19 158.73 L 93.50 158.73 L 93.82 158.74 L 94.13 158.75 L 94.45 158.76 L 94.77 158.77 L 95.08 158.77 L 95.40 158.78 L 95.71 158.79 L 96.03 158.80 L 96.34 158.81 L 96.66 158.81 L 96.98 158.82 L 97.29 158.83 L 97.61 158.84 L 97.92 158.84 L 98.24 158.85 L 98.56 158.86 L 98.87 158.87 L 99.19 158.87 L 99.50 158.88 L 99.82 158.89 L 100.14 158.90 L 100.45 158.90 L 100.77 158.91 L 101.08 158.92 L 101.40 158.93 L 101.72 158.93 L 102.03 158.94 L 102.35 158.95 L 102.66 158.96 L 102.98 158.96 L 103.29 158.97 L 103.61 158.98 L 103.93 158.98 L 104.24 158.99 L 104.56 159.00 L 104.87 159.00 L 105.19 159.01 L 105.51 159.02 L 105.82 159.03 L 106.14 159.03 L 106.45 159.04 L 106.77 159.05 L 107.09 159.05 L 107.40 159.06 L 107.72 159.06 L 108.03 159.07 L 108.35 159.08 L 108.67 159.08 L 108.98 159.09 L 109.30 159.10 L 109.61 159.10 L 109.93 159.11 L 110.24 159.11 L 110.56 159.12 L 110.88 159.13 L 111.19 159.13 L 111.51 159.14 L 111.82 159.14 L 112.14 159.15 L 112.46 159.16 L 112.77 159.16 L 113.09 159.17 L 113.40 159.17 L 113.72 159.18 L 114.04 159.18 L 114.35 159.19 L 114.67 159.19 L 114.98 159.20 L 115.30 159.20 L 115.62 159.21 L 115.93 159.21 L 116.25 159.22 L 116.56 159.22 L 116.88 159.23 L 117.19 159.23 L 117.51 159.24 L 117.83 159.24 L 118.14 159.25 L 118.46 159.25 L 118.77 159.25 L 119.09 159.26 L 119.41 159.26 L 119.72 159.27 L 120.04 159.27 L 120.35 159.27 L 120.67 159.28 L 120.99 159.28 L 121.30 159.29 L 121.62 159.29 L 121.93 159.29 L 122.25 159.30 L 122.57 159.30 L 122.88 159.30 L 123.20 159.31 L 123.51 159.31 L 123.83 159.31 L 124.14 159.31 L 124.46 159.32 L 124.78 159.32 L 125.09 159.32 L 125.41 159.32 L 125.72 159.33 L 126.04 159.33 L 126.36 159.33 L 126.67 159.33 L 126.99 159.33 L 127.30 159.34 L 127.62 159.34 L 127.94 159.34 L 128.25 159.34 L 128.57 159.34 L 128.88 159.34 L 129.20 159.34 L 129.52 159.34 L 129.83 159.35 L 130.15 159.35 L 130.46 159.35 L 130.78 159.35 L 131.09 159.35 L 131.41 159.35 L 131.73 159.35 L 132.04 159.35 L 132.36 159.35 L 132.67 159.35 L 132.99 159.35 L 133.31 159.35 L 133.62 159.34 L 133.94 159.34 L 134.25 159.34 L 134.57 159.34 L 134.89 159.34 L 135.20 159.34 L 135.52 159.34 L 135.83 159.33 L 136.15 159.33 L 136.46 159.33 L 136.78 159.33 L 137.10 159.33 L 137.41 159.32 L 137.73 159.32 L 138.04 159.32 L 138.36 159.31 L 138.68 159.31 L 138.99 159.31 L 139.31 159.30 L 139.62 159.30 L 139.94 159.30 L 140.26 159.29 L 140.57 159.29 L 140.89 159.28 L 141.20 159.28 L 141.52 159.28 L 141.84 159.27 L 142.15 159.27 L 142.47 159.26 L 142.78 159.25 L 143.10 159.25 L 143.41 159.24 L 143.73 159.24 L 144.05 159.23 L 144.36 159.22 L 144.68 159.22 L 144.99 159.21 L 145.31 159.20 L 145.63 159.20 L 145.94 159.19 L 146.26 159.18 L 146.57 159.17 L 146.89 159.16 L 147.21 159.16 L 147.52 159.15 L 147.84 159.14 L 148.15 159.13 L 148.47 159.12 L 148.79 159.11 L 149.10 159.10 L 149.42 159.09 L 149.73 159.08 L 150.05 159.07 L 150.36 159.06 L 150.68 159.05 L 151.00 159.04 L 151.31 159.03 L 151.63 159.02 L 151.94 159.00 L 152.26 158.99 L 152.58 158.98 L 152.89 158.97 L 153.21 158.95 L 153.52 158.94 L 153.84 158.93 L 154.16 158.91 L 154.47 158.90 L 154.79 158.89 L 155.10 158.87 L 155.42 158.86 L 155.74 158.84 L 156.05 158.83 L 156.37 158.81 L 156.68 158.79 L 157.00 158.78 L 157.31 158.76 L 157.63 158.74 L 157.95 158.73 L 158.26 158.71 L 158.58 158.69 L 158.89 158.67 L 159.21 158.66 L 159.53 158.64 L 159.84 158.62 L 160.16 158.60 L 160.47 158.58 L 160.79 158.56 L 161.11 158.54 L 161.42 158.52 L 161.74 158.50 L 162.05 158.48 L 162.37 158.45 L 162.69 158.43 L 163.00 158.41 L 163.32 158.39 L 163.63 158.37 L 163.95 158.34 L 164.26 158.32 L 164.58 158.29 L 164.90 158.27 L 165.21 158.24 L 165.53 158.22 L 165.84 158.19 L 166.16 158.17 L 166.48 158.14 L 166.79 158.11 L 167.11 158.09 L 167.42 158.06 L 167.74 158.03 L 168.06 158.00 L 168.37 157.98 L 168.69 157.95 L 169.00 157.92 L 169.32 157.89 L 169.64 157.86 L 169.95 157.83 L 170.27 157.79 L 170.58 157.76 L 170.90 157.73 L 171.21 157.70 L 171.53 157.66 L 171.85 157.63 L 172.16 157.60 L 172.48 157.56 L 172.79 157.53 L 173.11 157.49 L 173.43 157.46 L 173.74 157.42 L 174.06 157.38 L 174.37 157.35 L 174.69 157.31 L 175.01 157.27 L 175.32 157.23 L 175.64 157.19 L 175.95 157.15 L 176.27 157.11 L 176.59 157.07 L 176.90 157.03 L 177.22 156.99 L 177.53 156.95 L 177.85 156.91 L 178.16 156.86 L 178.48 156.82 L 178.80 156.77 L 179.11 156.73 L 179.43 156.68 L 179.74 156.64 L 180.06 156.59 L 180.38 156.54 L 180.69 156.50 L 181.01 156.45 L 181.32 156.40 L 181.64 156.35 L 181.96 156.30 L 182.27 156.25 L 182.59 156.20 L 182.90 156.15 L 183.22 156.09 L 183.54 156.04 L 183.85 155.99 L 184.17 155.93 L 184.48 155.88 L 184.80 155.82 L 185.11 155.77 L 185.43 155.71 L 185.75 155.65 L 186.06 155.59 L 186.38 155.54 L 186.69 155.48 L 187.01 155.42 L 187.33 155.35 L 187.64 155.29 L 187.96 155.23 L 188.27 155.17 L 188.59 155.10 L 188.91 155.04 L 189.22 154.98 L 189.54 154.91 L 189.85 154.84 L 190.17 154.78 L 190.48 154.71 L 190.80 154.64 L 191.12 154.57 L 191.43 154.50 L 191.75 154.43 L 192.06 154.36 L 192.38 154.28 L 192.70 154.21 L 193.01 154.14 L 193.33 154.06 L 193.64 153.99 L 193.96 153.91 L 194.28 153.83 L 194.59 153.75 L 194.91 153.67 L 195.22 153.59 L 195.54 153.51 L 195.86 153.43 L 196.17 153.35 L 196.49 153.27 L 196.80 153.18 L 197.12 153.10 L 197.43 153.01 L 197.75 152.92 L 198.07 152.84 L 198.38 152.75 L 198.70 152.66 L 199.01 152.57 L 199.33 152.48 L 199.65 152.38 L 199.96 152.29 L 200.28 152.20 L 200.59 152.10 L 200.91 152.01 L 201.23 151.91 L 201.54 151.81 L 201.86 151.71 L 202.17 151.61 L 202.49 151.51 L 202.81 151.41 L 203.12 151.30 L 203.44 151.20 L 203.75 151.09 L 204.07 150.99 L 204.38 150.88 L 204.70 150.77 L 205.02 150.66 L 205.33 150.55 L 205.65 150.44 L 205.96 150.33 L 206.28 150.21 L 206.60 150.10 L 206.91 149.98 L 207.23 149.87 L 207.54 149.75 L 207.86 149.63 L 208.18 149.51 L 208.49 149.38 L 208.81 149.26 L 209.12 149.14 L 209.44 149.01 L 209.76 148.88 L 210.07 148.76 L 210.39 148.63 L 210.70 148.50 L 211.02 148.37 L 211.33 148.23 L 211.65 148.10 L 211.97 147.96 L 212.28 147.83 L 212.60 147.69 L 212.91 147.55 L 213.23 147.41 L 213.55 147.27 L 213.86 147.12 L 214.18 146.98 L 214.49 146.83 L 214.81 146.68 L 215.13 146.53 L 215.44 146.38 L 215.76 146.23 L 216.07 146.08 L 216.39 145.92 L 216.71 145.77 L 217.02 145.61 L 217.34 145.45 L 217.65 145.29 L 217.97 145.13 L 218.28 144.97 L 218.60 144.80 L 218.92 144.64 L 219.23 144.47 L 219.55 144.30 L 219.86 144.13 L 220.18 143.95 L 220.50 143.78 L 220.81 143.60 L 221.13 143.43 L 221.44 143.25 L 221.76 143.07 L 222.08 142.88 L 222.39 142.70 L 222.71 142.51 L 223.02 142.33 L 223.34 142.14 L 223.66 141.95 L 223.97 141.75 L 224.29 141.56 L 224.60 141.36 L 224.92 141.17 L 225.23 140.97 L 225.55 140.77 L 225.87 140.56 L 226.18 140.36 L 226.50 140.15 L 226.81 139.94 L 227.13 139.73 L 227.45 139.52 L 227.76 139.31 L 228.08 139.09 L 228.39 138.87 L 228.71 138.65 L 229.03 138.43 L 229.34 138.21 L 229.66 137.98 L 229.97 137.75 L 230.29 137.52 L 230.61 137.29 L 230.92 137.06 L 231.24 136.82 L 231.55 136.58 L 231.87 136.34 L 232.18 136.10 L 232.50 135.86 L 232.82 135.61 L 233.13 135.36 L 233.45 135.11 L 233.76 134.86 L 234.08 134.60 L 234.40 134.34 L 234.71 134.08 L 235.03 133.82 L 235.34 133.56 L 235.66 133.29 L 235.98 133.02 L 236.29 132.75 L 236.61 132.48 L 236.92 132.20 L 237.24 131.92 L 237.56 131.64 L 237.87 131.36 L 238.19 131.08 L 238.50 130.79 L 238.82 130.50 L 239.13 130.20 L 239.45 129.91 L 239.77 129.61 L 240.08 129.31 L 240.40 129.01 L 240.71 128.70 L 241.03 128.40 L 241.35 128.08 L 241.66 127.77 L 241.98 127.46 L 242.29 127.14 L 242.61 126.82 L 242.93 126.49 L 243.24 126.16 L 243.56 125.84 L 243.87 125.50 L 244.19 125.17 L 244.51 124.83 L 244.82 124.49 L 245.14 124.15 L 245.45 123.80 L 245.77 123.45 L 246.08 123.10 L 246.40 122.74 L 246.72 122.38 L 247.03 122.02 L 247.35 121.66 L 247.66 121.29 L 247.98 120.92 L 248.30 120.55 L 248.61 120.17 L 248.93 119.79 L 249.24 119.41 L 249.56 119.02 L 249.88 118.63 L 250.19 118.24 L 250.51 117.85 L 250.82 117.45 L 251.14 117.05 L 251.45 116.64 L 251.77 116.23 L 252.09 115.82 L 252.40 115.40 L 252.72 114.99 L 253.03 114.56 L 253.35 114.14 L 253.67 113.71 L 253.98 113.28 L 254.30 112.84 L 254.61 112.40 L 254.93 111.96 L 255.25 111.51 L 255.56 111.06 L 255.88 110.60 L 256.19 110.15 L 256.51 109.68 L 256.83 109.22 L 257.14 108.75 L 257.46 108.28 L 257.77 107.80 L 258.09 107.32 L 258.40 106.83 L 258.72 106.34 L 259.04 105.85 L 259.35 105.36 L 259.67 104.86 L 259.98 104.35 L 260.30 103.84 L 260.62 103.33 L 260.93 102.81 L 261.25 102.29 L 261.56 101.77 L 261.88 101.24 L 262.20 100.70 L 262.51 100.16 L 262.83 99.62 L 263.14 99.08 L 263.46 98.52 L 263.78 97.97 L 264.09 97.41 L 264.41 96.85 L 264.72 96.28 L 265.04 95.70 L 265.35 95.13 L 265.67 94.54 L 265.99 93.96 L 266.30 93.36 L 266.62 92.77 L 266.93 92.17 L 267.25 91.56 L 267.57 90.95 L 267.88 90.33 L 268.20 89.71 L 268.51 89.09 L 268.83 88.46 L 269.15 87.82 L 269.46 87.18 L 269.78 86.54 L 270.09 85.89 L 270.41 85.23 L 270.73 84.57 L 271.04 83.90 L 271.36 83.23 L 271.67 82.56 L 271.99 81.87 L 272.30 81.19 L 272.62 80.50 L 272.94 79.80 L 273.25 79.09 L 273.57 78.39 L 273.88 77.67 L 274.20 76.95 L 274.52 76.23 L 274.83 75.49 L 275.15 74.76 L 275.46 74.01 L 275.78 73.27 L 276.10 72.51 L 276.41 71.75 L 276.73 70.99 L 277.04 70.21 L 277.36 69.44 L 277.68 68.65 L 277.99 67.86 L 278.31 67.06 L 278.62 66.26 L 278.94 65.45 L 279.25 64.64 L 279.57 63.82 L 279.89 62.99 L 280.20 62.16 L 280.52 61.32 L 280.83 60.47 L 281.15 59.62 L 281.47 58.76 L 281.78 57.89 L 282.10 57.02 L 282.41 56.14 L 282.73 55.25 L 283.05 54.36 L 283.36 53.45 L 283.68 52.55 L 283.99 51.63 L 284.31 50.71 L 284.63 49.78 L 284.94 48.85 L 285.26 47.91 L 285.57 46.96 L 285.89 46.00 L 286.20 45.03 L 286.52 44.06 L 286.84 43.08 L 287.15 42.10 L 287.47 41.10 L 287.78 40.10 L 288.10 39.09 L 288.42 38.07 L 288.73 37.05 L 289.05 36.02 L 289.36 34.98 L 289.68 33.93 L 290.00 32.87 L 290.31 31.81 L 290.63 30.74 L 290.94 29.66 L 291.26 28.57 L 291.58 27.47 L 291.89 26.36 L 292.21 25.25 L 292.52 24.13 L 292.84 23.00 L 293.15 21.86 L 293.47 20.71 L 293.79 19.56 L 294.10 18.39 L 294.42 17.22 L 294.73 16.04 L 295.05 14.84 L 295.37 13.64 L 295.68 12.43 L 296.00 11.22 L 296.31 9.99 L 296.63 8.75 L 296.95 7.51 L 297.26 6.25 L 297.58 4.98 L 297.89 3.71 L 298.21 2.43 L 298.53 1.13 L 298.84 -0.17 L 299.16 -1.48 L 299.47 -2.81 L 299.79 -4.14 L 300.10 -5.48 L 300.42 -6.83 L 300.74 -8.20 L 301.05 -9.57 L 301.37 -10.95 L 301.68 -12.35 L 302.00 -13.75" fill="none" stroke="#7E8692" stroke-width="2.3" stroke-linecap="round" stroke-linejoin="round"/>
</svg>
