<svg xmlns="http://www.w3.org/2000/svg" viewBox="0 0 320 180" width="320" height="180">
  <rect width="320" height="180" fill="none"/>
  <path d="M 24.00 85.75 L 24.17 85.74 L 24.34 85.74 L 24.51 85.73 L 24.68 85.73 L 24.85 85.72 L 25.02 85.72 L 25.19 85.71 L 25.36 85.71 L 25.53 85.70 L 25.70 85.70 L 25.87 85.69 L 26.04 85.69 L 26.21 85.68 L 26.38 85.67 L 26.55 85.67 L 26.72 85.66 L 26.89 85.66 L 27.06 85.65 L 27.23 85.65 L 27.40 85.64 L 27.57 85.64 L 27.74 85.63 L 27.91 85.62 L 28.08 85.62 L 28.25 85.61 L 28.42 85.61 L 28.59 85.60 L 28.76 85.60 L 28.93 85.59 L 29.10 85.58 L 29.27 85.58 L 29.44 85.57 L 29.61 85.57 L 29.78 85.56 L 29.95 85.56 L 30.12 85.55 L 30.29 85.54 L 30.46 85.54 L 30.63 85.53 L 30.80 85.53 L 30.97 85.52 L 31.14 85.51 L 31.31 85.51 L 31.48 85.50 L 31.65 85.50 L 31.82 85.49 L 31.99 85.48 L 32.17 85.48 L 32.34 85.47 L 32.51 85.47 L 32.68 85.46 L 32.85 85.45 L 33.02 85.45 L 33.19 85.44 L 33.36 85.44 L 33.53 85.43 L 33.70 85.42 L 33.87 85.42 L 34.04 85.41 L 34.21 85.41 L 34.38 85.40 L 34.55 85.39 L 34.72 85.39 L 34.89 85.38 L 35.06 85.37 L 35.23 85.37 L 35.40 85.36 L 35.57 85.35 L 35.74 85.35 L 35.91 85.34 L 36.08 85.34 L 36.25 85.33 L 36.42 85.32 L 36.59 85.32 L 36.76 85.31 L 36.93 85.30 L 37.10 85.30 L 37.27 85.29 L 37.44 85.28 L 37.61 85.28 L 37.78 85.27 L 37.95 85.26 L 38.12 85.26 L 38.29 85.25 L 38.46 85.24 L 38.63 85.24 L 38.80 85.23 L 38.97 85.22 L 39.14 85.22 L 39.31 85.21 L 39.48 85.20 L 39.65 85.20 L 39.82 85.19 L 39.99 85.18 L 40.16 85.18 L 40.33 85.17 L 40.50 85.16 L 40.67 85.16 L 40.84 85.15 L 41.01 85.14 L 41.18 85.14 L 41.35 85.13 L 41.52 85.12 L 41.69 85.11 L 41.86 85.11 L 42.03 85.10 L 42.20 85.09 L 42.37 85.09 L 42.54 85.08 L 42.71 85.07 L 42.88 85.06 L 43.05 85.06 L 43.22 85.05 L 43.39 85.04 L 43.56 85.04 L 43.73 85.03 L 43.90 85.02 L 44.07 85.01 L 44.24 85.01 L 44.41 85.00 L 44.58 84.99 L 44.75 84.98 L 44.92 84.98 L 45.09 84.97 L 45.26 84.96 L 45.43 84.95 L 45.60 84.95 L 45.77 84.94 L 45.94 84.93 L 46.11 84.92 L 46.28 84.92 L 46.45 84.91 L 46.62 84.90 L 46.79 84.89 L 46.96 84.89 L 47.13 84.88 L 47.30 84.87 L 47.47 84.86 L 47.64 84.86 L 47.81 84.85 L 47.98 84.84 L 48.16 84.83 L 48.33 84.82 L 48.50 84.82 L 48.67 84.81 L 48.84 84.80 L 49.01 84.79 L 49.18 84.78 L 49.35 84.78 L 49.52 84.77 L 49.69 84.76 L 49.86 84.75 L 50.03 84.74 L 50.20 84.74 L 50.37 84.73 L 50.54 84.72 L 50.71 84.71 L 50.88 84.70 L 51.05 84.69 L 51.22 84.69 L 51.39 84.68 L 51.56 84.67 L 51.73 84.66 L 51.90 84.65 L 52.07 84.64 L 52.24 84.64 L 52.41 84.63 L 52.58 84.62 L 52.75 84.61 L 52.92 84.60 L 53.09 84.59 L 53.26 84.59 L 53.43 84.58 L 53.60 84.57 L 53.77 84.56 L 53.94 84.55 L 54.11 84.54 L 54.28 84.53 L 54.45 84.52 L 54.62 84.52 L 54.79 84.51 L 54.96 84.50 L 55.13 84.49 L 55.30 84.48 L 55.47 84.47 L 55.64 84.46 L 55.81 84.45 L 55.98 84.44 L 56.15 84.43 L 56.32 84.43 L 56.49 84.42 L 56.66 84.41 L 56.83 84.40 L 57.00 84.39 L 57.17 84.38 L 57.34 84.37 L 57.51 84.36 L 57.68 84.35 L 57.85 84.34 L 58.02 84.33 L 58.19 84.32 L 58.36 84.31 L 58.53 84.30 L 58.70 84.29 L 58.87 84.28 L 59.04 84.27 L 59.21 84.27 L 59.38 84.26 L 59.55 84.25 L 59.72 84.24 L 59.89 84.23 L 60.06 84.22 L 60.23 84.21 L 60.40 84.20 L 60.57 84.19 L 60.74 84.18 L 60.91 84.17 L 61.08 84.16 L 61.25 84.15 L 61.42 84.14 L 61.59 84.13 L 61.76 84.12 L 61.93 84.11 L 62.10 84.10 L 62.27 84.09 L 62.44 84.08 L 62.61 84.06 L 62.78 84.05 L 62.95 84.04 L 63.12 84.03 L 63.29 84.02 L 63.46 84.01 L 63.63 84.00 L 63.80 83.99 L 63.97 83.98 L 64.15 83.97 L 64.32 83.96 L 64.49 83.95 L 64.66 83.94 L 64.83 83.93 L 65.00 83.92 L 65.17 83.91 L 65.34 83.89 L 65.51 83.88 L 65.68 83.87 L 65.85 83.86 L 66.02 83.85 L 66.19 83.84 L 66.36 83.83 L 66.53 83.82 L 66.70 83.81 L 66.87 83.79 L 67.04 83.78 L 67.21 83.77 L 67.38 83.76 L 67.55 83.75 L 67.72 83.74 L 67.89 83.73 L 68.06 83.71 L 68.23 83.70 L 68.40 83.69 L 68.57 83.68 L 68.74 83.67 L 68.91 83.65 L 69.08 83.64 L 69.25 83.63 L 69.42 83.62 L 69.59 83.61 L 69.76 83.59 L 69.93 83.58 L 70.10 83.57 L 70.27 83.56 L 70.44 83.55 L 70.61 83.53 L 70.78 83.52 L 70.95 83.51 L 71.12 83.50 L 71.29 83.48 L 71.46 83.47 L 71.63 83.46 L 71.80 83.45 L 71.97 83.43 L 72.14 83.42 L 72.31 83.41 L 72.48 83.40 L 72.65 83.38 L 72.82 83.37 L 72.99 83.36 L 73.16 83.34 L 73.33 83.33 L 73.50 83.32 L 73.67 83.30 L 73.84 83.29 L 74.01 83.28 L 74.18 83.26 L 74.35 83.25 L 74.52 83.24 L 74.69 83.22 L 74.86 83.21 L 75.03 83.20 L 75.20 83.18 L 75.37 83.17 L 75.54 83.16 L 75.71 83.14 L 75.88 83.13 L 76.05 83.11 L 76.22 83.10 L 76.39 83.09 L 76.56 83.07 L 76.73 83.06 L 76.90 83.04 L 77.07 83.03 L 77.24 83.02 L 77.41 83.00 L 77.58 82.99 L 77.75 82.97 L 77.92 82.96 L 78.09 82.94 L 78.26 82.93 L 78.43 82.91 L 78.60 82.90 L 78.77 82.88 L 78.94 82.87 L 79.11 82.85 L 79.28 82.84 L 79.45 82.82 L 79.62 82.81 L 79.79 82.79 L 79.96 82.78 L 80.14 82.76 L 80.31 82.75 L 80.48 82.73 L 80.65 82.72 L 80.82 82.70 L 80.99 82.68 L 81.16 82.67 L 81.33 82.65 L 81.50 82.64 L 81.67 82.62 L 81.84 82.61 L 82.01 82.59 L 82.18 82.57 L 82.35 82.56 L 82.52 82.54 L 82.69 82.52 L 82.86 82.51 L 83.03 82.49 L 83.20 82.47 L 83.37 82.46 L 83.54 82.44 L 83.71 82.42 L 83.88 82.41 L 84.05 82.39 L 84.22 82.37 L 84.39 82.36 L 84.56 82.34 L 84.73 82.32 L 84.90 82.30 L 85.07 82.29 L 85.24 82.27 L 85.41 82.25 L 85.58 82.23 L 85.75 82.22 L 85.92 82.20 L 86.09 82.18 L 86.26 82.16 L 86.43 82.14 L 86.60 82.13 L 86.77 82.11 L 86.94 82.09 L 87.11 82.07 L 87.28 82.05 L 87.45 82.03 L 87.62 82.01 L 87.79 82.00 L 87.96 81.98 L 88.13 81.96 L 88.30 81.94 L 88.47 81.92 L 88.64 81.90 L 88.81 81.88 L 88.98 81.86 L 89.15 81.84 L 89.32 81.82 L 89.49 81.80 L 89.66 81.78 L 89.83 81.76 L 90.00 81.74 L 90.17 81.72 L 90.34 81.70 L 90.51 81.68 L 90.68 81.66 L 90.85 81.64 L 91.02 81.62 L 91.19 81.60 L 91.36 81.58 L 91.53 81.56 L 91.70 81.54 L 91.87 81.52 L 92.04 81.49 L 92.21 81.47 L 92.38 81.45 L 92.55 81.43 L 92.72 81.41 L 92.89 81.39 L 93.06 81.36 L 93.23 81.34 L 93.40 81.32 L 93.57 81.30 L 93.74 81.28 L 93.91 81.25 L 94.08 81.23 L 94.25 81.21 L 94.42 81.19 L 94.59 81.16 L 94.76 81.14 L 94.93 81.12 L 95.10 81.09 L 95.27 81.07 L 95.44 81.05 L 95.61 81.02 L 95.78 81.00 L 95.95 80.98 L 96.13 80.95 L 96.30 80.93 L 96.47 80.90 L 96.64 80.88 L 96.81 80.85 L 96.98 80.83 L 97.15 80.80 L 97.32 80.78 L 97.49 80.75 L 97.66 80.73 L 97.83 80.70 L 98.00 80.68 L 98.17 80.65 L 98.34 80.63 L 98.51 80.60 L 98.68 80.57 L 98.85 80.55 L 99.02 80.52 L 99.19 80.50 L 99.36 80.47 L 99.53 80.44 L 99.70 80.42 L 99.87 80.39 L 100.04 80.36 L 100.21 80.33 L 100.38 80.31 L 100.55 80.28 L 100.72 80.25 L 100.89 80.22 L 101.06 80.19 L 101.23 80.17 L 101.40 80.14 L 101.57 80.11 L 101.74 80.08 L 101.91 80.05 L 102.08 80.02 L 102.25 79.99 L 102.42 79.96 L 102.59 79.93 L 102.76 79.90 L 102.93 79.87 L 103.10 79.84 L 103.27 79.81 L 103.44 79.78 L 103.61 79.75 L 103.78 79.72 L 103.95 79.69 L 104.12 79.66 L 104.29 79.62 L 104.46 79.59 L 104.63 79.56 L 104.80 79.53 L 104.97 79.50 L 105.14 79.46 L 105.31 79.43 L 105.48 79.40 L 105.65 79.37 L 105.82 79.33 L 105.99 79.30 L 106.16 79.26 L 106.33 79.23 L 106.50 79.20 L 106.67 79.16 L 106.84 79.13 L 107.01 79.09 L 107.18 79.06 L 107.35 79.02 L 107.52 78.99 L 107.69 78.95 L 107.86 78.91 L 108.03 78.88 L 108.20 78.84 L 108.37 78.80 L 108.54 78.77 L 108.71 78.73 L 108.88 78.69 L 109.05 78.65 L 109.22 78.62 L 109.39 78.58 L 109.56 78.54 L 109.73 78.50 L 109.90 78.46 L 110.07 78.42 L 110.24 78.38 L 110.41 78.34 L 110.58 78.30 L 110.75 78.26 L 110.92 78.22 L 111.09 78.18 L 111.26 78.14 L 111.43 78.10 L 111.60 78.06 L 111.77 78.01 L 111.94 77.97 L 112.12 77.93 L 112.29 77.89 L 112.46 77.84 L 112.63 77.80 L 112.80 77.76 L 112.97 77.71 L 113.14 77.67 L 113.31 77.62 L 113.48 77.58 L 113.65 77.53 L 113.82 77.48 L 113.99 77.44 L 114.16 77.39 L 114.33 77.34 L 114.50 77.30 L 114.67 77.25 L 114.84 77.20 L 115.01 77.15 L 115.18 77.10 L 115.35 77.06 L 115.52 77.01 L 115.69 76.96 L 115.86 76.91 L 116.03 76.86 L 116.20 76.80 L 116.37 76.75 L 116.54 76.70 L 116.71 76.65 L 116.88 76.60 L 117.05 76.54 L 117.22 76.49 L 117.39 76.44 L 117.56 76.38 L 117.73 76.33 L 117.90 76.27 L 118.07 76.22 L 118.24 76.16 L 118.41 76.10 L 118.58 76.05 L 118.75 75.99 L 118.92 75.93 L 119.09 75.87 L 119.26 75.81 L 119.43 75.75 L 119.60 75.69 L 119.77 75.63 L 119.94 75.57 L 120.11 75.51 L 120.28 75.45 L 120.45 75.39 L 120.62 75.32 L 120.79 75.26 L 120.96 75.19 L 121.13 75.13 L 121.30 75.06 L 121.47 75.00 L 121.64 74.93 L 121.81 74.86 L 121.98 74.80 L 122.15 74.73 L 122.32 74.66 L 122.49 74.59 L 122.66 74.52 L 122.83 74.45 L 123.00 74.38 L 123.17 74.31 L 123.34 74.23 L 123.51 74.16 L 123.68 74.08 L 123.85 74.01 L 124.02 73.93 L 124.19 73.86 L 124.36 73.78 L 124.53 73.70 L 124.70 73.62 L 124.87 73.55 L 125.04 73.47 L 125.21 73.38 L 125.38 73.30 L 125.55 73.22 L 125.72 73.14 L 125.89 73.05 L 126.06 72.97 L 126.23 72.88 L 126.40 72.80 L 126.57 72.71 L 126.74 72.62 L 126.91 72.53 L 127.08 72.44 L 127.25 72.35 L 127.42 72.26 L 127.59 72.16 L 127.76 72.07 L 127.93 71.97 L 128.11 71.88 L 128.28 71.78 L 128.45 71.68 L 128.62 71.58 L 128.79 71.48 L 128.96 71.38 L 129.13 71.28 L 129.30 71.18 L 129.47 71.07 L 129.64 70.96 L 129.81 70.86 L 129.98 70.75 L 130.15 70.64 L 130.32 70.53 L 130.49 70.42 L 130.66 70.30 L 130.83 70.19 L 131.00 70.07 L 131.17 69.95 L 131.34 69.83 L 131.51 69.71 L 131.68 69.59 L 131.85 69.47 L 132.02 69.34 L 132.19 69.22 L 132.36 69.09 L 132.53 68.96 L 132.70 68.83 L 132.87 68.70 L 133.04 68.56 L 133.21 68.43 L 133.38 68.29 L 133.55 68.15 L 133.72 68.01 L 133.89 67.86 L 134.06 67.72 L 134.23 67.57 L 134.40 67.42 L 134.57 67.27 L 134.74 67.12 L 134.91 66.96 L 135.08 66.81 L 135.25 66.65 L 135.42 66.49 L 135.59 66.32 L 135.76 66.16 L 135.93 65.99 L 136.10 65.82 L 136.27 65.64 L 136.44 65.47 L 136.61 65.29 L 136.78 65.11 L 136.95 64.92 L 137.12 64.74 L 137.29 64.55 L 137.46 64.36 L 137.63 64.16 L 137.80 63.96 L 137.97 63.76 L 138.14 63.56 L 138.31 63.35 L 138.48 63.14 L 138.65 62.93 L 138.82 62.71 L 138.99 62.49 L 139.16 62.26 L 139.33 62.03 L 139.50 61.80 L 139.67 61.57 L 139.84 61.33 L 140.01 61.08 L 140.18 60.83 L 140.35 60.58 L 140.52 60.32 L 140.69 60.06 L 140.86 59.80 L 141.03 59.53 L 141.20 59.25 L 141.37 58.97 L 141.54 58.68 L 141.71 58.39 L 141.88 58.10 L 142.05 57.79 L 142.22 57.48 L 142.39 57.17 L 142.56 56.85 L 142.73 56.52 L 142.90 56.19 L 143.07 55.85 L 143.24 55.50 L 143.41 55.15 L 143.58 54.79 L 143.75 54.42 L 143.92 54.04 L 144.10 53.66 L 144.27 53.27 L 144.44 52.86 L 144.61 52.45 L 144.78 52.03 L 144.95 51.61 L 145.12 51.17 L 145.29 50.72 L 145.46 50.26 L 145.63 49.79 L 145.80 49.31 L 145.97 48.81 L 146.14 48.31 L 146.31 47.79 L 146.48 47.26 L 146.65 46.71 L 146.82 46.16 L 146.99 45.58 L 147.16 45.00 L 147.33 44.39 L 147.50 43.77 L 147.67 43.13 L 147.84 42.48 L 148.01 41.80 L 148.18 41.11 L 148.35 40.40 L 148.52 39.66 L 148.69 38.90 L 148.86 38.12 L 149.03 37.32 L 149.20 36.49 L 149.37 35.63 L 149.54 34.75 L 149.71 33.84 L 149.88 32.89 L 150.05 31.92 L 150.22 30.91 L 150.39 29.86 L 150.56 28.78 L 150.73 27.65 L 150.90 26.49 L 151.07 25.28 L 151.24 24.02 L 151.41 22.72" fill="none" stroke="#5F6B7A" stroke-width="2.5" stroke-linecap="round" stroke-linejoin="round"/>
  <path d="M 168.59 157.28 L 168.76 155.98 L 168.93 154.72 L 169.10 153.51 L 169.27 152.35 L 169.44 151.22 L 169.61 150.14 L 169.78 149.09 L 169.95 148.08 L 170.12 147.11 L 170.29 146.16 L 170.46 145.25 L 170.63 144.37 L 170.80 143.51 L 170.97 142.68 L 171.14 141.88 L 171.31 141.10 L 171.48 140.34 L 171.65 139.60 L 171.82 138.89 L 171.99 138.20 L 172.16 137.52 L 172.33 136.87 L 172.50 136.23 L 172.67 135.61 L 172.84 135.00 L 173.01 134.42 L 173.18 133.84 L 173.35 133.29 L 173.52 132.74 L 173.69 132.21 L 173.86 131.69 L 174.03 131.19 L 174.20 130.69 L 174.37 130.21 L 174.54 129.74 L 174.71 129.28 L 174.88 128.83 L 175.05 128.39 L 175.22 127.97 L 175.39 127.55 L 175.56 127.14 L 175.73 126.73 L 175.90 126.34 L 176.08 125.96 L 176.25 125.58 L 176.42 125.21 L 176.59 124.85 L 176.76 124.50 L 176.93 124.15 L 177.10 123.81 L 177.27 123.48 L 177.44 123.15 L 177.61 122.83 L 177.78 122.52 L 177.95 122.21 L 178.12 121.90 L 178.29 121.61 L 178.46 121.32 L 178.63 121.03 L 178.80 120.75 L 178.97 120.47 L 179.14 120.20 L 179.31 119.94 L 179.48 119.68 L 179.65 119.42 L 179.82 119.17 L 179.99 118.92 L 180.16 118.67 L 180.33 118.43 L 180.50 118.20 L 180.67 117.97 L 180.84 117.74 L 181.01 117.51 L 181.18 117.29 L 181.35 117.07 L 181.52 116.86 L 181.69 116.65 L 181.86 116.44 L 182.03 116.24 L 182.20 116.04 L 182.37 115.84 L 182.54 115.64 L 182.71 115.45 L 182.88 115.26 L 183.05 115.08 L 183.22 114.89 L 183.39 114.71 L 183.56 114.53 L 183.73 114.36 L 183.90 114.18 L 184.07 114.01 L 184.24 113.84 L 184.41 113.68 L 184.58 113.51 L 184.75 113.35 L 184.92 113.19 L 185.09 113.04 L 185.26 112.88 L 185.43 112.73 L 185.60 112.58 L 185.77 112.43 L 185.94 112.28 L 186.11 112.14 L 186.28 111.99 L 186.45 111.85 L 186.62 111.71 L 186.79 111.57 L 186.96 111.44 L 187.13 111.30 L 187.30 111.17 L 187.47 111.04 L 187.64 110.91 L 187.81 110.78 L 187.98 110.66 L 188.15 110.53 L 188.32 110.41 L 188.49 110.29 L 188.66 110.17 L 188.83 110.05 L 189.00 109.93 L 189.17 109.81 L 189.34 109.70 L 189.51 109.58 L 189.68 109.47 L 189.85 109.36 L 190.02 109.25 L 190.19 109.14 L 190.36 109.04 L 190.53 108.93 L 190.70 108.82 L 190.87 108.72 L 191.04 108.62 L 191.21 108.52 L 191.38 108.42 L 191.55 108.32 L 191.72 108.22 L 191.89 108.12 L 192.07 108.03 L 192.24 107.93 L 192.41 107.84 L 192.58 107.74 L 192.75 107.65 L 192.92 107.56 L 193.09 107.47 L 193.26 107.38 L 193.43 107.29 L 193.60 107.20 L 193.77 107.12 L 193.94 107.03 L 194.11 106.95 L 194.28 106.86 L 194.45 106.78 L 194.62 106.70 L 194.79 106.62 L 194.96 106.53 L 195.13 106.45 L 195.30 106.38 L 195.47 106.30 L 195.64 106.22 L 195.81 106.14 L 195.98 106.07 L 196.15 105.99 L 196.32 105.92 L 196.49 105.84 L 196.66 105.77 L 196.83 105.69 L 197.00 105.62 L 197.17 105.55 L 197.34 105.48 L 197.51 105.41 L 197.68 105.34 L 197.85 105.27 L 198.02 105.20 L 198.19 105.14 L 198.36 105.07 L 198.53 105.00 L 198.70 104.94 L 198.87 104.87 L 199.04 104.81 L 199.21 104.74 L 199.38 104.68 L 199.55 104.61 L 199.72 104.55 L 199.89 104.49 L 200.06 104.43 L 200.23 104.37 L 200.40 104.31 L 200.57 104.25 L 200.74 104.19 L 200.91 104.13 L 201.08 104.07 L 201.25 104.01 L 201.42 103.95 L 201.59 103.90 L 201.76 103.84 L 201.93 103.78 L 202.10 103.73 L 202.27 103.67 L 202.44 103.62 L 202.61 103.56 L 202.78 103.51 L 202.95 103.46 L 203.12 103.40 L 203.29 103.35 L 203.46 103.30 L 203.63 103.25 L 203.80 103.20 L 203.97 103.14 L 204.14 103.09 L 204.31 103.04 L 204.48 102.99 L 204.65 102.94 L 204.82 102.90 L 204.99 102.85 L 205.16 102.80 L 205.33 102.75 L 205.50 102.70 L 205.67 102.66 L 205.84 102.61 L 206.01 102.56 L 206.18 102.52 L 206.35 102.47 L 206.52 102.42 L 206.69 102.38 L 206.86 102.33 L 207.03 102.29 L 207.20 102.24 L 207.37 102.20 L 207.54 102.16 L 207.71 102.11 L 207.88 102.07 L 208.06 102.03 L 208.23 101.99 L 208.40 101.94 L 208.57 101.90 L 208.74 101.86 L 208.91 101.82 L 209.08 101.78 L 209.25 101.74 L 209.42 101.70 L 209.59 101.66 L 209.76 101.62 L 209.93 101.58 L 210.10 101.54 L 210.27 101.50 L 210.44 101.46 L 210.61 101.42 L 210.78 101.38 L 210.95 101.35 L 211.12 101.31 L 211.29 101.27 L 211.46 101.23 L 211.63 101.20 L 211.80 101.16 L 211.97 101.12 L 212.14 101.09 L 212.31 101.05 L 212.48 101.01 L 212.65 100.98 L 212.82 100.94 L 212.99 100.91 L 213.16 100.87 L 213.33 100.84 L 213.50 100.80 L 213.67 100.77 L 213.84 100.74 L 214.01 100.70 L 214.18 100.67 L 214.35 100.63 L 214.52 100.60 L 214.69 100.57 L 214.86 100.54 L 215.03 100.50 L 215.20 100.47 L 215.37 100.44 L 215.54 100.41 L 215.71 100.38 L 215.88 100.34 L 216.05 100.31 L 216.22 100.28 L 216.39 100.25 L 216.56 100.22 L 216.73 100.19 L 216.90 100.16 L 217.07 100.13 L 217.24 100.10 L 217.41 100.07 L 217.58 100.04 L 217.75 100.01 L 217.92 99.98 L 218.09 99.95 L 218.26 99.92 L 218.43 99.89 L 218.60 99.86 L 218.77 99.83 L 218.94 99.81 L 219.11 99.78 L 219.28 99.75 L 219.45 99.72 L 219.62 99.69 L 219.79 99.67 L 219.96 99.64 L 220.13 99.61 L 220.30 99.58 L 220.47 99.56 L 220.64 99.53 L 220.81 99.50 L 220.98 99.48 L 221.15 99.45 L 221.32 99.43 L 221.49 99.40 L 221.66 99.37 L 221.83 99.35 L 222.00 99.32 L 222.17 99.30 L 222.34 99.27 L 222.51 99.25 L 222.68 99.22 L 222.85 99.20 L 223.02 99.17 L 223.19 99.15 L 223.36 99.12 L 223.53 99.10 L 223.70 99.07 L 223.87 99.05 L 224.05 99.02 L 224.22 99.00 L 224.39 98.98 L 224.56 98.95 L 224.73 98.93 L 224.90 98.91 L 225.07 98.88 L 225.24 98.86 L 225.41 98.84 L 225.58 98.81 L 225.75 98.79 L 225.92 98.77 L 226.09 98.75 L 226.26 98.72 L 226.43 98.70 L 226.60 98.68 L 226.77 98.66 L 226.94 98.64 L 227.11 98.61 L 227.28 98.59 L 227.45 98.57 L 227.62 98.55 L 227.79 98.53 L 227.96 98.51 L 228.13 98.48 L 228.30 98.46 L 228.47 98.44 L 228.64 98.42 L 228.81 98.40 L 228.98 98.38 L 229.15 98.36 L 229.32 98.34 L 229.49 98.32 L 229.66 98.30 L 229.83 98.28 L 230.00 98.26 L 230.17 98.24 L 230.34 98.22 L 230.51 98.20 L 230.68 98.18 L 230.85 98.16 L 231.02 98.14 L 231.19 98.12 L 231.36 98.10 L 231.53 98.08 L 231.70 98.06 L 231.87 98.04 L 232.04 98.02 L 232.21 98.00 L 232.38 97.99 L 232.55 97.97 L 232.72 97.95 L 232.89 97.93 L 233.06 97.91 L 233.23 97.89 L 233.40 97.87 L 233.57 97.86 L 233.74 97.84 L 233.91 97.82 L 234.08 97.80 L 234.25 97.78 L 234.42 97.77 L 234.59 97.75 L 234.76 97.73 L 234.93 97.71 L 235.10 97.70 L 235.27 97.68 L 235.44 97.66 L 235.61 97.64 L 235.78 97.63 L 235.95 97.61 L 236.12 97.59 L 236.29 97.58 L 236.46 97.56 L 236.63 97.54 L 236.80 97.53 L 236.97 97.51 L 237.14 97.49 L 237.31 97.48 L 237.48 97.46 L 237.65 97.44 L 237.82 97.43 L 237.99 97.41 L 238.16 97.39 L 238.33 97.38 L 238.50 97.36 L 238.67 97.35 L 238.84 97.33 L 239.01 97.32 L 239.18 97.30 L 239.35 97.28 L 239.52 97.27 L 239.69 97.25 L 239.86 97.24 L 240.04 97.22 L 240.21 97.21 L 240.38 97.19 L 240.55 97.18 L 240.72 97.16 L 240.89 97.15 L 241.06 97.13 L 241.23 97.12 L 241.40 97.10 L 241.57 97.09 L 241.74 97.07 L 241.91 97.06 L 242.08 97.04 L 242.25 97.03 L 242.42 97.01 L 242.59 97.00 L 242.76 96.98 L 242.93 96.97 L 243.10 96.96 L 243.27 96.94 L 243.44 96.93 L 243.61 96.91 L 243.78 96.90 L 243.95 96.89 L 244.12 96.87 L 244.29 96.86 L 244.46 96.84 L 244.63 96.83 L 244.80 96.82 L 244.97 96.80 L 245.14 96.79 L 245.31 96.78 L 245.48 96.76 L 245.65 96.75 L 245.82 96.74 L 245.99 96.72 L 246.16 96.71 L 246.33 96.70 L 246.50 96.68 L 246.67 96.67 L 246.84 96.66 L 247.01 96.64 L 247.18 96.63 L 247.35 96.62 L 247.52 96.60 L 247.69 96.59 L 247.86 96.58 L 248.03 96.57 L 248.20 96.55 L 248.37 96.54 L 248.54 96.53 L 248.71 96.52 L 248.88 96.50 L 249.05 96.49 L 249.22 96.48 L 249.39 96.47 L 249.56 96.45 L 249.73 96.44 L 249.90 96.43 L 250.07 96.42 L 250.24 96.41 L 250.41 96.39 L 250.58 96.38 L 250.75 96.37 L 250.92 96.36 L 251.09 96.35 L 251.26 96.33 L 251.43 96.32 L 251.60 96.31 L 251.77 96.30 L 251.94 96.29 L 252.11 96.27 L 252.28 96.26 L 252.45 96.25 L 252.62 96.24 L 252.79 96.23 L 252.96 96.22 L 253.13 96.21 L 253.30 96.19 L 253.47 96.18 L 253.64 96.17 L 253.81 96.16 L 253.98 96.15 L 254.15 96.14 L 254.32 96.13 L 254.49 96.12 L 254.66 96.11 L 254.83 96.09 L 255.00 96.08 L 255.17 96.07 L 255.34 96.06 L 255.51 96.05 L 255.68 96.04 L 255.85 96.03 L 256.03 96.02 L 256.20 96.01 L 256.37 96.00 L 256.54 95.99 L 256.71 95.98 L 256.88 95.97 L 257.05 95.96 L 257.22 95.95 L 257.39 95.94 L 257.56 95.92 L 257.73 95.91 L 257.90 95.90 L 258.07 95.89 L 258.24 95.88 L 258.41 95.87 L 258.58 95.86 L 258.75 95.85 L 258.92 95.84 L 259.09 95.83 L 259.26 95.82 L 259.43 95.81 L 259.60 95.80 L 259.77 95.79 L 259.94 95.78 L 260.11 95.77 L 260.28 95.76 L 260.45 95.75 L 260.62 95.74 L 260.79 95.73 L 260.96 95.73 L 261.13 95.72 L 261.30 95.71 L 261.47 95.70 L 261.64 95.69 L 261.81 95.68 L 261.98 95.67 L 262.15 95.66 L 262.32 95.65 L 262.49 95.64 L 262.66 95.63 L 262.83 95.62 L 263.00 95.61 L 263.17 95.60 L 263.34 95.59 L 263.51 95.58 L 263.68 95.57 L 263.85 95.57 L 264.02 95.56 L 264.19 95.55 L 264.36 95.54 L 264.53 95.53 L 264.70 95.52 L 264.87 95.51 L 265.04 95.50 L 265.21 95.49 L 265.38 95.48 L 265.55 95.48 L 265.72 95.47 L 265.89 95.46 L 266.06 95.45 L 266.23 95.44 L 266.40 95.43 L 266.57 95.42 L 266.74 95.41 L 266.91 95.41 L 267.08 95.40 L 267.25 95.39 L 267.42 95.38 L 267.59 95.37 L 267.76 95.36 L 267.93 95.36 L 268.10 95.35 L 268.27 95.34 L 268.44 95.33 L 268.61 95.32 L 268.78 95.31 L 268.95 95.31 L 269.12 95.30 L 269.29 95.29 L 269.46 95.28 L 269.63 95.27 L 269.80 95.26 L 269.97 95.26 L 270.14 95.25 L 270.31 95.24 L 270.48 95.23 L 270.65 95.22 L 270.82 95.22 L 270.99 95.21 L 271.16 95.20 L 271.33 95.19 L 271.50 95.18 L 271.67 95.18 L 271.84 95.17 L 272.02 95.16 L 272.19 95.15 L 272.36 95.14 L 272.53 95.14 L 272.70 95.13 L 272.87 95.12 L 273.04 95.11 L 273.21 95.11 L 273.38 95.10 L 273.55 95.09 L 273.72 95.08 L 273.89 95.08 L 274.06 95.07 L 274.23 95.06 L 274.40 95.05 L 274.57 95.05 L 274.74 95.04 L 274.91 95.03 L 275.08 95.02 L 275.25 95.02 L 275.42 95.01 L 275.59 95.00 L 275.76 94.99 L 275.93 94.99 L 276.10 94.98 L 276.27 94.97 L 276.44 94.96 L 276.61 94.96 L 276.78 94.95 L 276.95 94.94 L 277.12 94.94 L 277.29 94.93 L 277.46 94.92 L 277.63 94.91 L 277.80 94.91 L 277.97 94.90 L 278.14 94.89 L 278.31 94.89 L 278.48 94.88 L 278.65 94.87 L 278.82 94.86 L 278.99 94.86 L 279.16 94.85 L 279.33 94.84 L 279.50 94.84 L 279.67 94.83 L 279.84 94.82 L 280.01 94.82 L 280.18 94.81 L 280.35 94.80 L 280.52 94.80 L 280.69 94.79 L 280.86 94.78 L 281.03 94.78 L 281.20 94.77 L 281.37 94.76 L 281.54 94.76 L 281.71 94.75 L 281.88 94.74 L 282.05 94.74 L 282.22 94.73 L 282.39 94.72 L 282.56 94.72 L 282.73 94.71 L 282.90 94.70 L 283.07 94.70 L 283.24 94.69 L 283.41 94.68 L 283.58 94.68 L 283.75 94.67 L 283.92 94.66 L 284.09 94.66 L 284.26 94.65 L 284.43 94.65 L 284.60 94.64 L 284.77 94.63 L 284.94 94.63 L 285.11 94.62 L 285.28 94.61 L 285.45 94.61 L 285.62 94.60 L 285.79 94.59 L 285.96 94.59 L 286.13 94.58 L 286.30 94.58 L 286.47 94.57 L 286.64 94.56 L 286.81 94.56 L 286.98 94.55 L 287.15 94.55 L 287.32 94.54 L 287.49 94.53 L 287.66 94.53 L 287.83 94.52 L 288.01 94.52 L 288.18 94.51 L 288.35 94.50 L 288.52 94.50 L 288.69 94.49 L 288.86 94.49 L 289.03 94.48 L 289.20 94.47 L 289.37 94.47 L 289.54 94.46 L 289.71 94.46 L 289.88 94.45 L 290.05 94.44 L 290.22 94.44 L 290.39 94.43 L 290.56 94.43 L 290.73 94.42 L 290.90 94.42 L 291.07 94.41 L 291.24 94.40 L 291.41 94.40 L 291.58 94.39 L 291.75 94.39 L 291.92 94.38 L 292.09 94.38 L 292.26 94.37 L 292.43 94.36 L 292.60 94.36 L 292.77 94.35 L 292.94 94.35 L 293.11 94.34 L 293.28 94.34 L 293.45 94.33 L 293.62 94.33 L 293.79 94.32 L 293.96 94.31 L 294.13 94.31 L 294.30 94.30 L 294.47 94.30 L 294.64 94.29 L 294.81 94.29 L 294.98 94.28 L 295.15 94.28 L 295.32 94.27 L 295.49 94.27 L 295.66 94.26 L 295.83 94.26 L 296.00 94.25" fill="none" stroke="#5F6B7A" stroke-width="2.5" stroke-linecap="round" stroke-linejoin="round"/>
</svg>
