<svg xmlns="http://www.w3.org/2000/svg" viewBox="0 0 320 180" width="320" height="180">
  <rect width="320" height="180" fill="#F4F5F7"/>
  <path d="M 24.00 103.61 L 24.17 103.61 L 24.34 103.62 L 24.51 103.62 L 24.68 103.62 L 24.85 103.63 L 25.02 103.63 L 25.19 103.63 L 25.36 103.64 L 25.53 103.64 L 25.70 103.64 L 25.87 103.65 L 26.04 103.65 L 26.21 103.66 L 26.38 103.66 L 26.55 103.67 L 26.72 103.67 L 26.89 103.68 L 27.06 103.68 L 27.23 103.69 L 27.40 103.70 L 27.57 103.70 L 27.74 103.71 L 27.91 103.72 L 28.08 103.72 L 28.25 103.73 L 28.42 103.74 L 28.59 103.75 L 28.76 103.75 L 28.93 103.76 L 29.10 103.77 L 29.27 103.78 L 29.44 103.79 L 29.61 103.80 L 29.78 103.81 L 29.95 103.82 L 30.12 103.83 L 30.29 103.84 L 30.46 103.85 L 30.63 103.86 L 30.80 103.87 L 30.97 103.88 L 31.14 103.89 L 31.31 103.90 L 31.48 103.91 L 31.65 103.92 L 31.82 103.94 L 31.99 103.95 L 32.17 103.96 L 32.34 103.97 L 32.51 103.99 L 32.68 104.00 L 32.85 104.01 L 33.02 104.03 L 33.19 104.04 L 33.36 104.05 L 33.53 104.07 L 33.70 104.08 L 33.87 104.10 L 34.04 104.11 L 34.21 104.13 L 34.38 104.14 L 34.55 104.16 L 34.72 104.18 L 34.89 104.19 L 35.06 104.21 L 35.23 104.22 L 35.40 104.24 L 35.57 104.26 L 35.74 104.28 L 35.91 104.29 L 36.08 104.31 L 36.25 104.33 L 36.42 104.35 L 36.59 104.37 L 36.76 104.39 L 36.93 104.41 L 37.10 104.43 L 37.27 104.45 L 37.44 104.47 L 37.61 104.49 L 37.78 104.51 L 37.95 104.53 L 38.12 104.55 L 38.29 104.57 L 38.46 104.59 L 38.63 104.62 L 38.80 104.64 L 38.97 104.66 L 39.14 104.68 L 39.31 104.71 L 39.48 104.73 L 39.65 104.76 L 39.82 104.78 L 39.99 104.80 L 40.16 104.83 L 40.33 104.85 L 40.50 104.88 L 40.67 104.91 L 40.84 104.93 L 41.01 104.96 L 41.18 104.98 L 41.35 105.01 L 41.52 105.04 L 41.69 105.07 L 41.86 105.09 L 42.03 105.12 L 42.20 105.15 L 42.37 105.18 L 42.54 105.21 L 42.71 105.24 L 42.88 105.27 L 43.05 105.30 L 43.22 105.33 L 43.39 105.36 L 43.56 105.39 L 43.73 105.43 L 43.90 105.46 L 44.07 105.49 L 44.24 105.52 L 44.41 105.56 L 44.58 105.59 L 44.75 105.62 L 44.92 105.66 L 45.09 105.69 L 45.26 105.73 L 45.43 105.76 L 45.60 105.80 L 45.77 105.84 L 45.94 105.87 L 46.11 105.91 L 46.28 105.95 L 46.45 105.99 L 46.62 106.02 L 46.79 106.06 L 46.96 106.10 L 47.13 106.14 L 47.30 106.18 L 47.47 106.22 L 47.64 106.26 L 47.81 106.31 L 47.98 106.35 L 48.16 106.39 L 48.33 106.43 L 48.50 106.48 L 48.67 106.52 L 48.84 106.57 L 49.01 106.61 L 49.18 106.66 L 49.35 106.70 L 49.52 106.75 L 49.69 106.80 L 49.86 106.84 L 50.03 106.89 L 50.20 106.94 L 50.37 106.99 L 50.54 107.04 L 50.71 107.09 L 50.88 107.14 L 51.05 107.19 L 51.22 107.24 L 51.39 107.29 L 51.56 107.35 L 51.73 107.40 L 51.90 107.45 L 52.07 107.51 L 52.24 107.57 L 52.41 107.62 L 52.58 107.68 L 52.75 107.73 L 52.92 107.79 L 53.09 107.85 L 53.26 107.91 L 53.43 107.97 L 53.60 108.03 L 53.77 108.09 L 53.94 108.15 L 54.11 108.22 L 54.28 108.28 L 54.45 108.34 L 54.62 108.41 L 54.79 108.47 L 54.96 108.54 L 55.13 108.61 L 55.30 108.68 L 55.47 108.74 L 55.64 108.81 L 55.81 108.88 L 55.98 108.95 L 56.15 109.03 L 56.32 109.10 L 56.49 109.17 L 56.66 109.25 L 56.83 109.32 L 57.00 109.40 L 57.17 109.47 L 57.34 109.55 L 57.51 109.63 L 57.68 109.71 L 57.85 109.79 L 58.02 109.87 L 58.19 109.96 L 58.36 110.04 L 58.53 110.12 L 58.70 110.21 L 58.87 110.30 L 59.04 110.38 L 59.21 110.47 L 59.38 110.56 L 59.55 110.65 L 59.72 110.75 L 59.89 110.84 L 60.06 110.93 L 60.23 111.03 L 60.40 111.13 L 60.57 111.22 L 60.74 111.32 L 60.91 111.42 L 61.08 111.52 L 61.25 111.63 L 61.42 111.73 L 61.59 111.84 L 61.76 111.94 L 61.93 112.05 L 62.10 112.16 L 62.27 112.27 L 62.44 112.39 L 62.61 112.50 L 62.78 112.62 L 62.95 112.73 L 63.12 112.85 L 63.29 112.97 L 63.46 113.10 L 63.63 113.22 L 63.80 113.34 L 63.97 113.47 L 64.15 113.60 L 64.32 113.73 L 64.49 113.86 L 64.66 114.00 L 64.83 114.13 L 65.00 114.27 L 65.17 114.41 L 65.34 114.56 L 65.51 114.70 L 65.68 114.85 L 65.85 114.99 L 66.02 115.14 L 66.19 115.30 L 66.36 115.45 L 66.53 115.61 L 66.70 115.77 L 66.87 115.93 L 67.04 116.10 L 67.21 116.26 L 67.38 116.43 L 67.55 116.60 L 67.72 116.78 L 67.89 116.96 L 68.06 117.14 L 68.23 117.32 L 68.40 117.51 L 68.57 117.69 L 68.74 117.89 L 68.91 118.08 L 69.08 118.28 L 69.25 118.48 L 69.42 118.69 L 69.59 118.89 L 69.76 119.11 L 69.93 119.32 L 70.10 119.54 L 70.27 119.76 L 70.44 119.99 L 70.61 120.22 L 70.78 120.46 L 70.95 120.69 L 71.12 120.94 L 71.29 121.18 L 71.46 121.44 L 71.63 121.69 L 71.80 121.95 L 71.97 122.22 L 72.14 122.49 L 72.31 122.77 L 72.48 123.05 L 72.65 123.33 L 72.82 123.63 L 72.99 123.92 L 73.16 124.23 L 73.33 124.54 L 73.50 124.85 L 73.67 125.17 L 73.84 125.50 L 74.01 125.84 L 74.18 126.18 L 74.35 126.53 L 74.52 126.89 L 74.69 127.25 L 74.86 127.62 L 75.03 128.00 L 75.20 128.39 L 75.37 128.79 L 75.54 129.20 L 75.71 129.61 L 75.88 130.04 L 76.05 130.47 L 76.22 130.92 L 76.39 131.37 L 76.56 131.84 L 76.73 132.32 L 76.90 132.80 L 77.07 133.31 L 77.24 133.82 L 77.41 134.35 L 77.58 134.89 L 77.75 135.44 L 77.92 136.01 L 78.09 136.60 L 78.26 137.20 L 78.43 137.81 L 78.60 138.45 L 78.77 139.10 L 78.94 139.77 L 79.11 140.46 L 79.28 141.16 L 79.45 141.90 L 79.62 142.65 L 79.79 143.42 L 79.96 144.22 L 80.14 145.05 L 80.31 145.90 L 80.48 146.77 L 80.65 147.68 L 80.82 148.62 L 80.99 149.59 L 81.16 150.59 L 81.33 151.63 L 81.50 152.70 L 81.67 153.82 L 81.84 154.97 L 82.01 156.17 L 82.18 157.42" fill="none" stroke="#7E8692" stroke-width="2.3" stroke-linecap="round" stroke-linejoin="round"/>
  <path d="M 100.04 22.87 L 100.21 24.10 L 100.38 25.29 L 100.55 26.44 L 100.72 27.54 L 100.89 28.61 L 101.06 29.64 L 101.23 30.64 L 101.40 31.60 L 101.57 32.53 L 101.74 33.43 L 101.91 34.30 L 102.08 35.14 L 102.25 35.96 L 102.42 36.76 L 102.59 37.53 L 102.76 38.27 L 102.93 39.00 L 103.10 39.70 L 103.27 40.39 L 103.44 41.05 L 103.61 41.70 L 103.78 42.33 L 103.95 42.94 L 104.12 43.54 L 104.29 44.12 L 104.46 44.68 L 104.63 45.24 L 104.80 45.77 L 104.97 46.30 L 105.14 46.81 L 105.31 47.31 L 105.48 47.79 L 105.65 48.27 L 105.82 48.73 L 105.99 49.19 L 106.16 49.63 L 106.33 50.06 L 106.50 50.48 L 106.67 50.90 L 106.84 51.30 L 107.01 51.70 L 107.18 52.08 L 107.35 52.46 L 107.52 52.83 L 107.69 53.20 L 107.86 53.55 L 108.03 53.90 L 108.20 54.24 L 108.37 54.57 L 108.54 54.90 L 108.71 55.22 L 108.88 55.53 L 109.05 55.84 L 109.22 56.14 L 109.39 56.44 L 109.56 56.73 L 109.73 57.02 L 109.90 57.30 L 110.07 57.57 L 110.24 57.84 L 110.41 58.11 L 110.58 58.37 L 110.75 58.62 L 110.92 58.87 L 111.09 59.12 L 111.26 59.36 L 111.43 59.60 L 111.60 59.83 L 111.77 60.06 L 111.94 60.29 L 112.12 60.51 L 112.29 60.73 L 112.46 60.94 L 112.63 61.15 L 112.80 61.36 L 112.97 61.56 L 113.14 61.77 L 113.31 61.96 L 113.48 62.16 L 113.65 62.35 L 113.82 62.54 L 113.99 62.72 L 114.16 62.90 L 114.33 63.08 L 114.50 63.26 L 114.67 63.44 L 114.84 63.61 L 115.01 63.78 L 115.18 63.94 L 115.35 64.11 L 115.52 64.27 L 115.69 64.43 L 115.86 64.58 L 116.03 64.74 L 116.20 64.89 L 116.37 65.04 L 116.54 65.19 L 116.71 65.33 L 116.88 65.48 L 117.05 65.62 L 117.22 65.76 L 117.39 65.90 L 117.56 66.03 L 117.73 66.17 L 117.90 66.30 L 118.07 66.43 L 118.24 66.56 L 118.41 66.68 L 118.58 66.81 L 118.75 66.93 L 118.92 67.05 L 119.09 67.17 L 119.26 67.29 L 119.43 67.41 L 119.60 67.52 L 119.77 67.64 L 119.94 67.75 L 120.11 67.86 L 120.28 67.97 L 120.45 68.08 L 120.62 68.19 L 120.79 68.29 L 120.96 68.40 L 121.13 68.50 L 121.30 68.60 L 121.47 68.70 L 121.64 68.80 L 121.81 68.90 L 121.98 68.99 L 122.15 69.09 L 122.32 69.18 L 122.49 69.28 L 122.66 69.37 L 122.83 69.46 L 123.00 69.55 L 123.17 69.64 L 123.34 69.72 L 123.51 69.81 L 123.68 69.90 L 123.85 69.98 L 124.02 70.06 L 124.19 70.15 L 124.36 70.23 L 124.53 70.31 L 124.70 70.39 L 124.87 70.47 L 125.04 70.54 L 125.21 70.62 L 125.38 70.70 L 125.55 70.77 L 125.72 70.85 L 125.89 70.92 L 126.06 70.99 L 126.23 71.06 L 126.40 71.13 L 126.57 71.20 L 126.74 71.27 L 126.91 71.34 L 127.08 71.41 L 127.25 71.47 L 127.42 71.54 L 127.59 71.61 L 127.76 71.67 L 127.93 71.73 L 128.11 71.80 L 128.28 71.86 L 128.45 71.92 L 128.62 71.98 L 128.79 72.04 L 128.96 72.10 L 129.13 72.16 L 129.30 72.22 L 129.47 72.28 L 129.64 72.34 L 129.81 72.39 L 129.98 72.45 L 130.15 72.50 L 130.32 72.56 L 130.49 72.61 L 130.66 72.66 L 130.83 72.72 L 131.00 72.77 L 131.17 72.82 L 131.34 72.87 L 131.51 72.92 L 131.68 72.97 L 131.85 73.02 L 132.02 73.07 L 132.19 73.12 L 132.36 73.17 L 132.53 73.22 L 132.70 73.26 L 132.87 73.31 L 133.04 73.35 L 133.21 73.40 L 133.38 73.44 L 133.55 73.49 L 133.72 73.53 L 133.89 73.58 L 134.06 73.62 L 134.23 73.66 L 134.40 73.70 L 134.57 73.74 L 134.74 73.79 L 134.91 73.83 L 135.08 73.87 L 135.25 73.91 L 135.42 73.95 L 135.59 73.98 L 135.76 74.02 L 135.93 74.06 L 136.10 74.10 L 136.27 74.14 L 136.44 74.17 L 136.61 74.21 L 136.78 74.24 L 136.95 74.28 L 137.12 74.31 L 137.29 74.35 L 137.46 74.38 L 137.63 74.42 L 137.80 74.45 L 137.97 74.48 L 138.14 74.52 L 138.31 74.55 L 138.48 74.58 L 138.65 74.61 L 138.82 74.65 L 138.99 74.68 L 139.16 74.71 L 139.33 74.74 L 139.50 74.77 L 139.67 74.80 L 139.84 74.83 L 140.01 74.86 L 140.18 74.88 L 140.35 74.91 L 140.52 74.94 L 140.69 74.97 L 140.86 74.99 L 141.03 75.02 L 141.20 75.05 L 141.37 75.07 L 141.54 75.10 L 141.71 75.13 L 141.88 75.15 L 142.05 75.18 L 142.22 75.20 L 142.39 75.23 L 142.56 75.25 L 142.73 75.27 L 142.90 75.30 L 143.07 75.32 L 143.24 75.34 L 143.41 75.37 L 143.58 75.39 L 143.75 75.41 L 143.92 75.43 L 144.10 75.45 L 144.27 75.48 L 144.44 75.50 L 144.61 75.52 L 144.78 75.54 L 144.95 75.56 L 145.12 75.58 L 145.29 75.60 L 145.46 75.62 L 145.63 75.64 L 145.80 75.65 L 145.97 75.67 L 146.14 75.69 L 146.31 75.71 L 146.48 75.73 L 146.65 75.74 L 146.82 75.76 L 146.99 75.78 L 147.16 75.80 L 147.33 75.81 L 147.50 75.83 L 147.67 75.84 L 147.84 75.86 L 148.01 75.88 L 148.18 75.89 L 148.35 75.91 L 148.52 75.92 L 148.69 75.94 L 148.86 75.95 L 149.03 75.96 L 149.20 75.98 L 149.37 75.99 L 149.54 76.00 L 149.71 76.02 L 149.88 76.03 L 150.05 76.04 L 150.22 76.05 L 150.39 76.07 L 150.56 76.08 L 150.73 76.09 L 150.90 76.10 L 151.07 76.11 L 151.24 76.12 L 151.41 76.14 L 151.58 76.15 L 151.75 76.16 L 151.92 76.17 L 152.09 76.18 L 152.26 76.19 L 152.43 76.20 L 152.60 76.20 L 152.77 76.21 L 152.94 76.22 L 153.11 76.23 L 153.28 76.24 L 153.45 76.25 L 153.62 76.25 L 153.79 76.26 L 153.96 76.27 L 154.13 76.28 L 154.30 76.28 L 154.47 76.29 L 154.64 76.30 L 154.81 76.30 L 154.98 76.31 L 155.15 76.32 L 155.32 76.32 L 155.49 76.33 L 155.66 76.33 L 155.83 76.34 L 156.00 76.34 L 156.17 76.35 L 156.34 76.35 L 156.51 76.36 L 156.68 76.36 L 156.85 76.36 L 157.02 76.37 L 157.19 76.37 L 157.36 76.38 L 157.53 76.38 L 157.70 76.38 L 157.87 76.38 L 158.04 76.39 L 158.21 76.39 L 158.38 76.39 L 158.55 76.39 L 158.72 76.39 L 158.89 76.40 L 159.06 76.40 L 159.23 76.40 L 159.40 76.40 L 159.57 76.40 L 159.74 76.40 L 159.91 76.40 L 160.09 76.40 L 160.26 76.40 L 160.43 76.40 L 160.60 76.40 L 160.77 76.40 L 160.94 76.40 L 161.11 76.40 L 161.28 76.39 L 161.45 76.39 L 161.62 76.39 L 161.79 76.39 L 161.96 76.39 L 162.13 76.38 L 162.30 76.38 L 162.47 76.38 L 162.64 76.38 L 162.81 76.37 L 162.98 76.37 L 163.15 76.36 L 163.32 76.36 L 163.49 76.36 L 163.66 76.35 L 163.83 76.35 L 164.00 76.34 L 164.17 76.34 L 164.34 76.33 L 164.51 76.33 L 164.68 76.32 L 164.85 76.32 L 165.02 76.31 L 165.19 76.30 L 165.36 76.30 L 165.53 76.29 L 165.70 76.28 L 165.87 76.28 L 166.04 76.27 L 166.21 76.26 L 166.38 76.25 L 166.55 76.25 L 166.72 76.24 L 166.89 76.23 L 167.06 76.22 L 167.23 76.21 L 167.40 76.20 L 167.57 76.20 L 167.74 76.19 L 167.91 76.18 L 168.08 76.17 L 168.25 76.16 L 168.42 76.15 L 168.59 76.14 L 168.76 76.12 L 168.93 76.11 L 169.10 76.10 L 169.27 76.09 L 169.44 76.08 L 169.61 76.07 L 169.78 76.05 L 169.95 76.04 L 170.12 76.03 L 170.29 76.02 L 170.46 76.00 L 170.63 75.99 L 170.80 75.98 L 170.97 75.96 L 171.14 75.95 L 171.31 75.94 L 171.48 75.92 L 171.65 75.91 L 171.82 75.89 L 171.99 75.88 L 172.16 75.86 L 172.33 75.84 L 172.50 75.83 L 172.67 75.81 L 172.84 75.80 L 173.01 75.78 L 173.18 75.76 L 173.35 75.74 L 173.52 75.73 L 173.69 75.71 L 173.86 75.69 L 174.03 75.67 L 174.20 75.65 L 174.37 75.64 L 174.54 75.62 L 174.71 75.60 L 174.88 75.58 L 175.05 75.56 L 175.22 75.54 L 175.39 75.52 L 175.56 75.50 L 175.73 75.48 L 175.90 75.45 L 176.08 75.43 L 176.25 75.41 L 176.42 75.39 L 176.59 75.37 L 176.76 75.34 L 176.93 75.32 L 177.10 75.30 L 177.27 75.27 L 177.44 75.25 L 177.61 75.23 L 177.78 75.20 L 177.95 75.18 L 178.12 75.15 L 178.29 75.13 L 178.46 75.10 L 178.63 75.07 L 178.80 75.05 L 178.97 75.02 L 179.14 74.99 L 179.31 74.97 L 179.48 74.94 L 179.65 74.91 L 179.82 74.88 L 179.99 74.86 L 180.16 74.83 L 180.33 74.80 L 180.50 74.77 L 180.67 74.74 L 180.84 74.71 L 181.01 74.68 L 181.18 74.65 L 181.35 74.61 L 181.52 74.58 L 181.69 74.55 L 181.86 74.52 L 182.03 74.48 L 182.20 74.45 L 182.37 74.42 L 182.54 74.38 L 182.71 74.35 L 182.88 74.31 L 183.05 74.28 L 183.22 74.24 L 183.39 74.21 L 183.56 74.17 L 183.73 74.14 L 183.90 74.10 L 184.07 74.06 L 184.24 74.02 L 184.41 73.98 L 184.58 73.95 L 184.75 73.91 L 184.92 73.87 L 185.09 73.83 L 185.26 73.79 L 185.43 73.74 L 185.60 73.70 L 185.77 73.66 L 185.94 73.62 L 186.11 73.58 L 186.28 73.53 L 186.45 73.49 L 186.62 73.44 L 186.79 73.40 L 186.96 73.35 L 187.13 73.31 L 187.30 73.26 L 187.47 73.22 L 187.64 73.17 L 187.81 73.12 L 187.98 73.07 L 188.15 73.02 L 188.32 72.97 L 188.49 72.92 L 188.66 72.87 L 188.83 72.82 L 189.00 72.77 L 189.17 72.72 L 189.34 72.66 L 189.51 72.61 L 189.68 72.56 L 189.85 72.50 L 190.02 72.45 L 190.19 72.39 L 190.36 72.34 L 190.53 72.28 L 190.70 72.22 L 190.87 72.16 L 191.04 72.10 L 191.21 72.04 L 191.38 71.98 L 191.55 71.92 L 191.72 71.86 L 191.89 71.80 L 192.07 71.73 L 192.24 71.67 L 192.41 71.61 L 192.58 71.54 L 192.75 71.47 L 192.92 71.41 L 193.09 71.34 L 193.26 71.27 L 193.43 71.20 L 193.60 71.13 L 193.77 71.06 L 193.94 70.99 L 194.11 70.92 L 194.28 70.85 L 194.45 70.77 L 194.62 70.70 L 194.79 70.62 L 194.96 70.54 L 195.13 70.47 L 195.30 70.39 L 195.47 70.31 L 195.64 70.23 L 195.81 70.15 L 195.98 70.06 L 196.15 69.98 L 196.32 69.90 L 196.49 69.81 L 196.66 69.72 L 196.83 69.64 L 197.00 69.55 L 197.17 69.46 L 197.34 69.37 L 197.51 69.28 L 197.68 69.18 L 197.85 69.09 L 198.02 68.99 L 198.19 68.90 L 198.36 68.80 L 198.53 68.70 L 198.70 68.60 L 198.87 68.50 L 199.04 68.40 L 199.21 68.29 L 199.38 68.19 L 199.55 68.08 L 199.72 67.97 L 199.89 67.86 L 200.06 67.75 L 200.23 67.64 L 200.40 67.52 L 200.57 67.41 L 200.74 67.29 L 200.91 67.17 L 201.08 67.05 L 201.25 66.93 L 201.42 66.81 L 201.59 66.68 L 201.76 66.56 L 201.93 66.43 L 202.10 66.30 L 202.27 66.17 L 202.44 66.03 L 202.61 65.90 L 202.78 65.76 L 202.95 65.62 L 203.12 65.48 L 203.29 65.33 L 203.46 65.19 L 203.63 65.04 L 203.80 64.89 L 203.97 64.74 L 204.14 64.58 L 204.31 64.43 L 204.48 64.27 L 204.65 64.11 L 204.82 63.94 L 204.99 63.78 L 205.16 63.61 L 205.33 63.44 L 205.50 63.26 L 205.67 63.08 L 205.84 62.90 L 206.01 62.72 L 206.18 62.54 L 206.35 62.35 L 206.52 62.16 L 206.69 61.96 L 206.86 61.77 L 207.03 61.56 L 207.20 61.36 L 207.37 61.15 L 207.54 60.94 L 207.71 60.73 L 207.88 60.51 L 208.06 60.29 L 208.23 60.06 L 208.40 59.83 L 208.57 59.60 L 208.74 59.36 L 208.91 59.12 L 209.08 58.87 L 209.25 58.62 L 209.42 58.37 L 209.59 58.11 L 209.76 57.84 L 209.93 57.57 L 210.10 57.30 L 210.27 57.02 L 210.44 56.73 L 210.61 56.44 L 210.78 56.14 L 210.95 55.84 L 211.12 55.53 L 211.29 55.22 L 211.46 54.90 L 211.63 54.57 L 211.80 54.24 L 211.97 53.90 L 212.14 53.55 L 212.31 53.20 L 212.48 52.83 L 212.65 52.46 L 212.82 52.08 L 212.99 51.70 L 213.16 51.30 L 213.33 50.90 L 213.50 50.48 L 213.67 50.06 L 213.84 49.63 L 214.01 49.19 L 214.18 48.73 L 214.35 48.27 L 214.52 47.79 L 214.69 47.31 L 214.86 46.81 L 215.03 46.30 L 215.20 45.77 L 215.37 45.24 L 215.54 44.68 L 215.71 44.12 L 215.88 43.54 L 216.05 42.94 L 216.22 42.33 L 216.39 41.70 L 216.56 41.05 L 216.73 40.39 L 216.90 39.70 L 217.07 39.00 L 217.24 38.27 L 217.41 37.53 L 217.58 36.76 L 217.75 35.96 L 217.92 35.14 L 218.09 34.30 L 218.26 33.43 L 218.43 32.53 L 218.60 31.60 L 218.77 30.64 L 218.94 29.64 L 219.11 28.61 L 219.28 27.54 L 219.45 26.44 L 219.62 25.29 L 219.79 24.10 L 219.96 22.87" fill="none" stroke="#7E8692" stroke-width="2.3" stroke-linecap="round" stroke-linejoin="round"/>
  <path d="M 237.82 157.42 L 237.99 156.17 L 238.16 154.97 L 238.33 153.82 L 238.50 152.70 L 238.67 151.63 L 238.84 150.59 L 239.01 149.59 L 239.18 148.62 L 239.35 147.68 L 239.52 146.77 L 239.69 145.90 L 239.86 145.05 L 240.04 144.22 L 240.21 143.42 L 240.38 142.65 L 240.55 141.90 L 240.72 141.16 L 240.89 140.46 L 241.06 139.77 L 241.23 139.10 L 241.40 138.45 L 241.57 137.81 L 241.74 137.20 L 241.91 136.60 L 242.08 136.01 L 242.25 135.44 L 242.42 134.89 L 242.59 134.35 L 242.76 133.82 L 242.93 133.31 L 243.10 132.80 L 243.27 132.32 L 243.44 131.84 L 243.61 131.37 L 243.78 130.92 L 243.95 130.47 L 244.12 130.04 L 244.29 129.61 L 244.46 129.20 L 244.63 128.79 L 244.80 128.39 L 244.97 128.00 L 245.14 127.62 L 245.31 127.25 L 245.48 126.89 L 245.65 126.53 L 245.82 126.18 L 245.99 125.84 L 246.16 125.50 L 246.33 125.17 L 246.50 124.85 L 246.67 124.54 L 246.84 124.23 L 247.01 123.92 L 247.18 123.63 L 247.35 123.33 L 247.52 123.05 L 247.69 122.77 L 247.86 122.49 L 248.03 122.22 L 248.20 121.95 L 248.37 121.69 L 248.54 121.44 L 248.71 121.18 L 248.88 120.94 L 249.05 120.69 L 249.22 120.46 L 249.39 120.22 L 249.56 119.99 L 249.73 119.76 L 249.90 119.54 L 250.07 119.32 L 250.24 119.11 L 250.41 118.89 L 250.58 118.69 L 250.75 118.48 L 250.92 118.28 L 251.09 118.08 L 251.26 117.89 L 251.43 117.69 L 251.60 117.51 L 251.77 117.32 L 251.94 117.14 L 252.11 116.96 L 252.28 116.78 L 252.45 116.60 L 252.62 116.43 L 252.79 116.26 L 252.96 116.10 L 253.13 115.93 L 253.30 115.77 L 253.47 115.61 L 253.64 115.45 L 253.81 115.30 L 253.98 115.14 L 254.15 114.99 L 254.32 114.85 L 254.49 114.70 L 254.66 114.56 L 254.83 114.41 L 255.00 114.27 L 255.17 114.13 L 255.34 114.00 L 255.51 113.86 L 255.68 113.73 L 255.85 113.60 L 256.03 113.47 L 256.20 113.34 L 256.37 113.22 L 256.54 113.10 L 256.71 112.97 L 256.88 112.85 L 257.05 112.73 L 257.22 112.62 L 257.39 112.50 L 257.56 112.39 L 257.73 112.27 L 257.90 112.16 L 258.07 112.05 L 258.24 111.94 L 258.41 111.84 L 258.58 111.73 L 258.75 111.63 L 258.92 111.52 L 259.09 111.42 L 259.26 111.32 L 259.43 111.22 L 259.60 111.13 L 259.77 111.03 L 259.94 110.93 L 260.11 110.84 L 260.28 110.75 L 260.45 110.65 L 260.62 110.56 L 260.79 110.47 L 260.96 110.38 L 261.13 110.30 L 261.30 110.21 L 261.47 110.12 L 261.64 110.04 L 261.81 109.96 L 261.98 109.87 L 262.15 109.79 L 262.32 109.71 L 262.49 109.63 L 262.66 109.55 L 262.83 109.47 L 263.00 109.40 L 263.17 109.32 L 263.34 109.25 L 263.51 109.17 L 263.68 109.10 L 263.85 109.03 L 264.02 108.95 L 264.19 108.88 L 264.36 108.81 L 264.53 108.74 L 264.70 108.68 L 264.87 108.61 L 265.04 108.54 L 265.21 108.47 L 265.38 108.41 L 265.55 108.34 L 265.72 108.28 L 265.89 108.22 L 266.06 108.15 L 266.23 108.09 L 266.40 108.03 L 266.57 107.97 L 266.74 107.91 L 266.91 107.85 L 267.08 107.79 L 267.25 107.73 L 267.42 107.68 L 267.59 107.62 L 267.76 107.57 L 267.93 107.51 L 268.10 107.45 L 268.27 107.40 L 268.44 107.35 L 268.61 107.29 L 268.78 107.24 L 268.95 107.19 L 269.12 107.14 L 269.29 107.09 L 269.46 107.04 L 269.63 106.99 L 269.80 106.94 L 269.97 106.89 L 270.14 106.84 L 270.31 106.80 L 270.48 106.75 L 270.65 106.70 L 270.82 106.66 L 270.99 106.61 L 271.16 106.57 L 271.33 106.52 L 271.50 106.48 L 271.67 106.43 L 271.84 106.39 L 272.02 106.35 L 272.19 106.31 L 272.36 106.26 L 272.53 106.22 L 272.70 106.18 L 272.87 106.14 L 273.04 106.10 L 273.21 106.06 L 273.38 106.02 L 273.55 105.99 L 273.72 105.95 L 273.89 105.91 L 274.06 105.87 L 274.23 105.84 L 274.40 105.80 L 274.57 105.76 L 274.74 105.73 L 274.91 105.69 L 275.08 105.66 L 275.25 105.62 L 275.42 105.59 L 275.59 105.56 L 275.76 105.52 L 275.93 105.49 L 276.10 105.46 L 276.27 105.43 L 276.44 105.39 L 276.61 105.36 L 276.78 105.33 L 276.95 105.30 L 277.12 105.27 L 277.29 105.24 L 277.46 105.21 L 277.63 105.18 L 277.80 105.15 L 277.97 105.12 L 278.14 105.09 L 278.31 105.07 L 278.48 105.04 L 278.65 105.01 L 278.82 104.98 L 278.99 104.96 L 279.16 104.93 L 279.33 104.91 L 279.50 104.88 L 279.67 104.85 L 279.84 104.83 L 280.01 104.80 L 280.18 104.78 L 280.35 104.76 L 280.52 104.73 L 280.69 104.71 L 280.86 104.68 L 281.03 104.66 L 281.20 104.64 L 281.37 104.62 L 281.54 104.59 L 281.71 104.57 L 281.88 104.55 L 282.05 104.53 L 282.22 104.51 L 282.39 104.49 L 282.56 104.47 L 282.73 104.45 L 282.90 104.43 L 283.07 104.41 L 283.24 104.39 L 283.41 104.37 L 283.58 104.35 L 283.75 104.33 L 283.92 104.31 L 284.09 104.29 L 284.26 104.28 L 284.43 104.26 L 284.60 104.24 L 284.77 104.22 L 284.94 104.21 L 285.11 104.19 L 285.28 104.18 L 285.45 104.16 L 285.62 104.14 L 285.79 104.13 L 285.96 104.11 L 286.13 104.10 L 286.30 104.08 L 286.47 104.07 L 286.64 104.05 L 286.81 104.04 L 286.98 104.03 L 287.15 104.01 L 287.32 104.00 L 287.49 103.99 L 287.66 103.97 L 287.83 103.96 L 288.01 103.95 L 288.18 103.94 L 288.35 103.92 L 288.52 103.91 L 288.69 103.90 L 288.86 103.89 L 289.03 103.88 L 289.20 103.87 L 289.37 103.86 L 289.54 103.85 L 289.71 103.84 L 289.88 103.83 L 290.05 103.82 L 290.22 103.81 L 290.39 103.80 L 290.56 103.79 L 290.73 103.78 L 290.90 103.77 L 291.07 103.76 L 291.24 103.75 L 291.41 103.75 L 291.58 103.74 L 291.75 103.73 L 291.92 103.72 L 292.09 103.72 L 292.26 103.71 L 292.43 103.70 L 292.60 103.70 L 292.77 103.69 L 292.94 103.68 L 293.11 103.68 L 293.28 103.67 L 293.45 103.67 L 293.62 103.66 L 293.79 103.66 L 293.96 103.65 L 294.13 103.65 L 294.30 103.64 L 294.47 103.64 L 294.64 103.64 L 294.81 103.63 L 294.98 103.63 L 295.15 103.63 L 295.32 103.62 L 295.49 103.62 L 295.66 103.62 L 295.83 103.61 L 296.00 103.61" fill="none" stroke="#7E8692" stroke-width="2.3" stroke-linecap="round" stroke-linejoin="round"/>
</svg>
