<svg xmlns="http://www.w3.org/2000/svg" viewBox="0 0 320 180" width="320" height="180">
  <rect width="320" height="180" fill="#F4F5F7"/>
  <path d="M 33.19 157.98 L 33.36 157.40 L 33.53 156.83 L 33.70 156.28 L 33.87 155.72 L 34.04 155.18 L 34.21 154.65 L 34.38 154.13 L 34.55 153.61 L 34.72 153.10 L 34.89 152.60 L 35.06 152.10 L 35.23 151.62 L 35.40 151.14 L 35.57 150.66 L 35.74 150.20 L 35.91 149.74 L 36.08 149.29 L 36.25 148.84 L 36.42 148.40 L 36.59 147.97 L 36.76 147.54 L 36.93 147.12 L 37.10 146.70 L 37.27 146.29 L 37.44 145.89 L 37.61 145.49 L 37.78 145.09 L 37.95 144.70 L 38.12 144.32 L 38.29 143.94 L 38.46 143.57 L 38.63 143.20 L 38.80 142.83 L 38.97 142.47 L 39.14 142.12 L 39.31 141.77 L 39.48 141.42 L 39.65 141.08 L 39.82 140.74 L 39.99 140.40 L 40.16 140.07 L 40.33 139.75 L 40.50 139.42 L 40.67 139.11 L 40.84 138.79 L 41.01 138.48 L 41.18 138.17 L 41.35 137.87 L 41.52 137.57 L 41.69 137.27 L 41.86 136.98 L 42.03 136.68 L 42.20 136.40 L 42.37 136.11 L 42.54 135.83 L 42.71 135.55 L 42.88 135.28 L 43.05 135.01 L 43.22 134.74 L 43.39 134.47 L 43.56 134.21 L 43.73 133.95 L 43.90 133.69 L 44.07 133.43 L 44.24 133.18 L 44.41 132.93 L 44.58 132.69 L 44.75 132.44 L 44.92 132.20 L 45.09 131.96 L 45.26 131.72 L 45.43 131.49 L 45.60 131.25 L 45.77 131.02 L 45.94 130.79 L 46.11 130.57 L 46.28 130.34 L 46.45 130.12 L 46.62 129.90 L 46.79 129.69 L 46.96 129.47 L 47.13 129.26 L 47.30 129.05 L 47.47 128.84 L 47.64 128.63 L 47.81 128.42 L 47.98 128.22 L 48.16 128.02 L 48.33 127.82 L 48.50 127.62 L 48.67 127.42 L 48.84 127.23 L 49.01 127.04 L 49.18 126.84 L 49.35 126.65 L 49.52 126.47 L 49.69 126.28 L 49.86 126.10 L 50.03 125.91 L 50.20 125.73 L 50.37 125.55 L 50.54 125.37 L 50.71 125.20 L 50.88 125.02 L 51.05 124.85 L 51.22 124.67 L 51.39 124.50 L 51.56 124.33 L 51.73 124.17 L 51.90 124.00 L 52.07 123.83 L 52.24 123.67 L 52.41 123.51 L 52.58 123.35 L 52.75 123.19 L 52.92 123.03 L 53.09 122.87 L 53.26 122.71 L 53.43 122.56 L 53.60 122.40 L 53.77 122.25 L 53.94 122.10 L 54.11 121.95 L 54.28 121.80 L 54.45 121.65 L 54.62 121.50 L 54.79 121.36 L 54.96 121.21 L 55.13 121.07 L 55.30 120.93 L 55.47 120.78 L 55.64 120.64 L 55.81 120.50 L 55.98 120.37 L 56.15 120.23 L 56.32 120.09 L 56.49 119.96 L 56.66 119.82 L 56.83 119.69 L 57.00 119.55 L 57.17 119.42 L 57.34 119.29 L 57.51 119.16 L 57.68 119.03 L 57.85 118.90 L 58.02 118.78 L 58.19 118.65 L 58.36 118.53 L 58.53 118.40 L 58.70 118.28 L 58.87 118.15 L 59.04 118.03 L 59.21 117.91 L 59.38 117.79 L 59.55 117.67 L 59.72 117.55 L 59.89 117.43 L 60.06 117.32 L 60.23 117.20 L 60.40 117.08 L 60.57 116.97 L 60.74 116.85 L 60.91 116.74 L 61.08 116.63 L 61.25 116.52 L 61.42 116.40 L 61.59 116.29 L 61.76 116.18 L 61.93 116.07 L 62.10 115.97 L 62.27 115.86 L 62.44 115.75 L 62.61 115.64 L 62.78 115.54 L 62.95 115.43 L 63.12 115.33 L 63.29 115.22 L 63.46 115.12 L 63.63 115.02 L 63.80 114.92 L 63.97 114.81 L 64.15 114.71 L 64.32 114.61 L 64.49 114.51 L 64.66 114.41 L 64.83 114.31 L 65.00 114.22 L 65.17 114.12 L 65.34 114.02 L 65.51 113.93 L 65.68 113.83 L 65.85 113.73 L 66.02 113.64 L 66.19 113.55 L 66.36 113.45 L 66.53 113.36 L 66.70 113.27 L 66.87 113.17 L 67.04 113.08 L 67.21 112.99 L 67.38 112.90 L 67.55 112.81 L 67.72 112.72 L 67.89 112.63 L 68.06 112.54 L 68.23 112.45 L 68.40 112.37 L 68.57 112.28 L 68.74 112.19 L 68.91 112.11 L 69.08 112.02 L 69.25 111.94 L 69.42 111.85 L 69.59 111.77 L 69.76 111.68 L 69.93 111.60 L 70.10 111.52 L 70.27 111.43 L 70.44 111.35 L 70.61 111.27 L 70.78 111.19 L 70.95 111.11 L 71.12 111.03 L 71.29 110.95 L 71.46 110.87 L 71.63 110.79 L 71.80 110.71 L 71.97 110.63 L 72.14 110.55 L 72.31 110.47 L 72.48 110.39 L 72.65 110.32 L 72.82 110.24 L 72.99 110.16 L 73.16 110.09 L 73.33 110.01 L 73.50 109.94 L 73.67 109.86 L 73.84 109.79 L 74.01 109.71 L 74.18 109.64 L 74.35 109.57 L 74.52 109.49 L 74.69 109.42 L 74.86 109.35 L 75.03 109.28 L 75.20 109.20 L 75.37 109.13 L 75.54 109.06 L 75.71 108.99 L 75.88 108.92 L 76.05 108.85 L 76.22 108.78 L 76.39 108.71 L 76.56 108.64 L 76.73 108.57 L 76.90 108.50 L 77.07 108.43 L 77.24 108.37 L 77.41 108.30 L 77.58 108.23 L 77.75 108.16 L 77.92 108.10 L 78.09 108.03 L 78.26 107.96 L 78.43 107.90 L 78.60 107.83 L 78.77 107.77 L 78.94 107.70 L 79.11 107.64 L 79.28 107.57 L 79.45 107.51 L 79.62 107.44 L 79.79 107.38 L 79.96 107.32 L 80.14 107.25 L 80.31 107.19 L 80.48 107.13 L 80.65 107.07 L 80.82 107.00 L 80.99 106.94 L 81.16 106.88 L 81.33 106.82 L 81.50 106.76 L 81.67 106.70 L 81.84 106.64 L 82.01 106.57 L 82.18 106.51 L 82.35 106.45 L 82.52 106.39 L 82.69 106.33 L 82.86 106.28 L 83.03 106.22 L 83.20 106.16 L 83.37 106.10 L 83.54 106.04 L 83.71 105.98 L 83.88 105.92 L 84.05 105.87 L 84.22 105.81 L 84.39 105.75 L 84.56 105.69 L 84.73 105.64 L 84.90 105.58 L 85.07 105.52 L 85.24 105.47 L 85.41 105.41 L 85.58 105.36 L 85.75 105.30 L 85.92 105.25 L 86.09 105.19 L 86.26 105.14 L 86.43 105.08 L 86.60 105.03 L 86.77 104.97 L 86.94 104.92 L 87.11 104.86 L 87.28 104.81 L 87.45 104.76 L 87.62 104.70 L 87.79 104.65 L 87.96 104.60 L 88.13 104.54 L 88.30 104.49 L 88.47 104.44 L 88.64 104.39 L 88.81 104.33 L 88.98 104.28 L 89.15 104.23 L 89.32 104.18 L 89.49 104.13 L 89.66 104.08 L 89.83 104.02 L 90.00 103.97 L 90.17 103.92 L 90.34 103.87 L 90.51 103.82 L 90.68 103.77 L 90.85 103.72 L 91.02 103.67 L 91.19 103.62 L 91.36 103.57 L 91.53 103.52 L 91.70 103.47 L 91.87 103.42 L 92.04 103.38 L 92.21 103.33 L 92.38 103.28 L 92.55 103.23 L 92.72 103.18 L 92.89 103.13 L 93.06 103.09 L 93.23 103.04 L 93.40 102.99 L 93.57 102.94 L 93.74 102.89 L 93.91 102.85 L 94.08 102.80 L 94.25 102.75 L 94.42 102.71 L 94.59 102.66 L 94.76 102.61 L 94.93 102.57 L 95.10 102.52 L 95.27 102.47 L 95.44 102.43 L 95.61 102.38 L 95.78 102.34 L 95.95 102.29 L 96.13 102.25 L 96.30 102.20 L 96.47 102.15 L 96.64 102.11 L 96.81 102.06 L 96.98 102.02 L 97.15 101.98 L 97.32 101.93 L 97.49 101.89 L 97.66 101.84 L 97.83 101.80 L 98.00 101.75 L 98.17 101.71 L 98.34 101.67 L 98.51 101.62 L 98.68 101.58 L 98.85 101.54 L 99.02 101.49 L 99.19 101.45 L 99.36 101.41 L 99.53 101.36 L 99.70 101.32 L 99.87 101.28 L 100.04 101.23 L 100.21 101.19 L 100.38 101.15 L 100.55 101.11 L 100.72 101.07 L 100.89 101.02 L 101.06 100.98 L 101.23 100.94 L 101.40 100.90 L 101.57 100.86 L 101.74 100.81 L 101.91 100.77 L 102.08 100.73 L 102.25 100.69 L 102.42 100.65 L 102.59 100.61 L 102.76 100.57 L 102.93 100.53 L 103.10 100.49 L 103.27 100.45 L 103.44 100.41 L 103.61 100.37 L 103.78 100.32 L 103.95 100.28 L 104.12 100.24 L 104.29 100.20 L 104.46 100.16 L 104.63 100.13 L 104.80 100.09 L 104.97 100.05 L 105.14 100.01 L 105.31 99.97 L 105.48 99.93 L 105.65 99.89 L 105.82 99.85 L 105.99 99.81 L 106.16 99.77 L 106.33 99.73 L 106.50 99.69 L 106.67 99.66 L 106.84 99.62 L 107.01 99.58 L 107.18 99.54 L 107.35 99.50 L 107.52 99.46 L 107.69 99.43 L 107.86 99.39 L 108.03 99.35 L 108.20 99.31 L 108.37 99.27 L 108.54 99.24 L 108.71 99.20 L 108.88 99.16 L 109.05 99.12 L 109.22 99.09 L 109.39 99.05 L 109.56 99.01 L 109.73 98.97 L 109.90 98.94 L 110.07 98.90 L 110.24 98.86 L 110.41 98.83 L 110.58 98.79 L 110.75 98.75 L 110.92 98.72 L 111.09 98.68 L 111.26 98.64 L 111.43 98.61 L 111.60 98.57 L 111.77 98.54 L 111.94 98.50 L 112.12 98.46 L 112.29 98.43 L 112.46 98.39 L 112.63 98.36 L 112.80 98.32 L 112.97 98.28 L 113.14 98.25 L 113.31 98.21 L 113.48 98.18 L 113.65 98.14 L 113.82 98.11 L 113.99 98.07 L 114.16 98.04 L 114.33 98.00 L 114.50 97.97 L 114.67 97.93 L 114.84 97.90 L 115.01 97.86 L 115.18 97.83 L 115.35 97.79 L 115.52 97.76 L 115.69 97.72 L 115.86 97.69 L 116.03 97.65 L 116.20 97.62 L 116.37 97.58 L 116.54 97.55 L 116.71 97.52 L 116.88 97.48 L 117.05 97.45 L 117.22 97.41 L 117.39 97.38 L 117.56 97.35 L 117.73 97.31 L 117.90 97.28 L 118.07 97.24 L 118.24 97.21 L 118.41 97.18 L 118.58 97.14 L 118.75 97.11 L 118.92 97.08 L 119.09 97.04 L 119.26 97.01 L 119.43 96.98 L 119.60 96.94 L 119.77 96.91 L 119.94 96.88 L 120.11 96.84 L 120.28 96.81 L 120.45 96.78 L 120.62 96.75 L 120.79 96.71 L 120.96 96.68 L 121.13 96.65 L 121.30 96.61 L 121.47 96.58 L 121.64 96.55 L 121.81 96.52 L 121.98 96.48 L 122.15 96.45 L 122.32 96.42 L 122.49 96.39 L 122.66 96.35 L 122.83 96.32 L 123.00 96.29 L 123.17 96.26 L 123.34 96.23 L 123.51 96.19 L 123.68 96.16 L 123.85 96.13 L 124.02 96.10 L 124.19 96.07 L 124.36 96.03 L 124.53 96.00 L 124.70 95.97 L 124.87 95.94 L 125.04 95.91 L 125.21 95.88 L 125.38 95.84 L 125.55 95.81 L 125.72 95.78 L 125.89 95.75 L 126.06 95.72 L 126.23 95.69 L 126.40 95.66 L 126.57 95.63 L 126.74 95.59 L 126.91 95.56 L 127.08 95.53 L 127.25 95.50 L 127.42 95.47 L 127.59 95.44 L 127.76 95.41 L 127.93 95.38 L 128.11 95.35 L 128.28 95.32 L 128.45 95.28 L 128.62 95.25 L 128.79 95.22 L 128.96 95.19 L 129.13 95.16 L 129.30 95.13 L 129.47 95.10 L 129.64 95.07 L 129.81 95.04 L 129.98 95.01 L 130.15 94.98 L 130.32 94.95 L 130.49 94.92 L 130.66 94.89 L 130.83 94.86 L 131.00 94.83 L 131.17 94.80 L 131.34 94.77 L 131.51 94.74 L 131.68 94.71 L 131.85 94.68 L 132.02 94.65 L 132.19 94.62 L 132.36 94.59 L 132.53 94.56 L 132.70 94.53 L 132.87 94.50 L 133.04 94.47 L 133.21 94.44 L 133.38 94.41 L 133.55 94.38 L 133.72 94.35 L 133.89 94.32 L 134.06 94.29 L 134.23 94.26 L 134.40 94.23 L 134.57 94.20 L 134.74 94.17 L 134.91 94.14 L 135.08 94.11 L 135.25 94.08 L 135.42 94.05 L 135.59 94.02 L 135.76 93.99 L 135.93 93.97 L 136.10 93.94 L 136.27 93.91 L 136.44 93.88 L 136.61 93.85 L 136.78 93.82 L 136.95 93.79 L 137.12 93.76 L 137.29 93.73 L 137.46 93.70 L 137.63 93.67 L 137.80 93.64 L 137.97 93.62 L 138.14 93.59 L 138.31 93.56 L 138.48 93.53 L 138.65 93.50 L 138.82 93.47 L 138.99 93.44 L 139.16 93.41 L 139.33 93.38 L 139.50 93.36 L 139.67 93.33 L 139.84 93.30 L 140.01 93.27 L 140.18 93.24 L 140.35 93.21 L 140.52 93.18 L 140.69 93.16 L 140.86 93.13 L 141.03 93.10 L 141.20 93.07 L 141.37 93.04 L 141.54 93.01 L 141.71 92.98 L 141.88 92.96 L 142.05 92.93 L 142.22 92.90 L 142.39 92.87 L 142.56 92.84 L 142.73 92.81 L 142.90 92.79 L 143.07 92.76 L 143.24 92.73 L 143.41 92.70 L 143.58 92.67 L 143.75 92.64 L 143.92 92.62 L 144.10 92.59 L 144.27 92.56 L 144.44 92.53 L 144.61 92.50 L 144.78 92.47 L 144.95 92.45 L 145.12 92.42 L 145.29 92.39 L 145.46 92.36 L 145.63 92.33 L 145.80 92.31 L 145.97 92.28 L 146.14 92.25 L 146.31 92.22 L 146.48 92.19 L 146.65 92.17 L 146.82 92.14 L 146.99 92.11 L 147.16 92.08 L 147.33 92.05 L 147.50 92.03 L 147.67 92.00 L 147.84 91.97 L 148.01 91.94 L 148.18 91.91 L 148.35 91.89 L 148.52 91.86 L 148.69 91.83 L 148.86 91.80 L 149.03 91.78 L 149.20 91.75 L 149.37 91.72 L 149.54 91.69 L 149.71 91.66 L 149.88 91.64 L 150.05 91.61 L 150.22 91.58 L 150.39 91.55 L 150.56 91.53 L 150.73 91.50 L 150.90 91.47 L 151.07 91.44 L 151.24 91.42 L 151.41 91.39 L 151.58 91.36 L 151.75 91.33 L 151.92 91.31 L 152.09 91.28 L 152.26 91.25 L 152.43 91.22 L 152.60 91.19 L 152.77 91.17 L 152.94 91.14 L 153.11 91.11 L 153.28 91.08 L 153.45 91.06 L 153.62 91.03 L 153.79 91.00 L 153.96 90.97 L 154.13 90.95 L 154.30 90.92 L 154.47 90.89 L 154.64 90.86 L 154.81 90.84 L 154.98 90.81 L 155.15 90.78 L 155.32 90.75 L 155.49 90.73 L 155.66 90.70 L 155.83 90.67 L 156.00 90.64 L 156.17 90.62 L 156.34 90.59 L 156.51 90.56 L 156.68 90.53 L 156.85 90.51 L 157.02 90.48 L 157.19 90.45 L 157.36 90.42 L 157.53 90.40 L 157.70 90.37 L 157.87 90.34 L 158.04 90.32 L 158.21 90.29 L 158.38 90.26 L 158.55 90.23 L 158.72 90.21 L 158.89 90.18 L 159.06 90.15 L 159.23 90.12 L 159.40 90.10 L 159.57 90.07 L 159.74 90.04 L 159.91 90.01 L 160.09 89.99 L 160.26 89.96 L 160.43 89.93 L 160.60 89.90 L 160.77 89.88 L 160.94 89.85 L 161.11 89.82 L 161.28 89.79 L 161.45 89.77 L 161.62 89.74 L 161.79 89.71 L 161.96 89.68 L 162.13 89.66 L 162.30 89.63 L 162.47 89.60 L 162.64 89.58 L 162.81 89.55 L 162.98 89.52 L 163.15 89.49 L 163.32 89.47 L 163.49 89.44 L 163.66 89.41 L 163.83 89.38 L 164.00 89.36 L 164.17 89.33 L 164.34 89.30 L 164.51 89.27 L 164.68 89.25 L 164.85 89.22 L 165.02 89.19 L 165.19 89.16 L 165.36 89.14 L 165.53 89.11 L 165.70 89.08 L 165.87 89.05 L 166.04 89.03 L 166.21 89.00 L 166.38 88.97 L 166.55 88.94 L 166.72 88.92 L 166.89 88.89 L 167.06 88.86 L 167.23 88.83 L 167.40 88.81 L 167.57 88.78 L 167.74 88.75 L 167.91 88.72 L 168.08 88.69 L 168.25 88.67 L 168.42 88.64 L 168.59 88.61 L 168.76 88.58 L 168.93 88.56 L 169.10 88.53 L 169.27 88.50 L 169.44 88.47 L 169.61 88.45 L 169.78 88.42 L 169.95 88.39 L 170.12 88.36 L 170.29 88.34 L 170.46 88.31 L 170.63 88.28 L 170.80 88.25 L 170.97 88.22 L 171.14 88.20 L 171.31 88.17 L 171.48 88.14 L 171.65 88.11 L 171.82 88.09 L 171.99 88.06 L 172.16 88.03 L 172.33 88.00 L 172.50 87.97 L 172.67 87.95 L 172.84 87.92 L 173.01 87.89 L 173.18 87.86 L 173.35 87.83 L 173.52 87.81 L 173.69 87.78 L 173.86 87.75 L 174.03 87.72 L 174.20 87.69 L 174.37 87.67 L 174.54 87.64 L 174.71 87.61 L 174.88 87.58 L 175.05 87.55 L 175.22 87.53 L 175.39 87.50 L 175.56 87.47 L 175.73 87.44 L 175.90 87.41 L 176.08 87.38 L 176.25 87.36 L 176.42 87.33 L 176.59 87.30 L 176.76 87.27 L 176.93 87.24 L 177.10 87.21 L 177.27 87.19 L 177.44 87.16 L 177.61 87.13 L 177.78 87.10 L 177.95 87.07 L 178.12 87.04 L 178.29 87.02 L 178.46 86.99 L 178.63 86.96 L 178.80 86.93 L 178.97 86.90 L 179.14 86.87 L 179.31 86.84 L 179.48 86.82 L 179.65 86.79 L 179.82 86.76 L 179.99 86.73 L 180.16 86.70 L 180.33 86.67 L 180.50 86.64 L 180.67 86.62 L 180.84 86.59 L 181.01 86.56 L 181.18 86.53 L 181.35 86.50 L 181.52 86.47 L 181.69 86.44 L 181.86 86.41 L 182.03 86.38 L 182.20 86.36 L 182.37 86.33 L 182.54 86.30 L 182.71 86.27 L 182.88 86.24 L 183.05 86.21 L 183.22 86.18 L 183.39 86.15 L 183.56 86.12 L 183.73 86.09 L 183.90 86.06 L 184.07 86.03 L 184.24 86.01 L 184.41 85.98 L 184.58 85.95 L 184.75 85.92 L 184.92 85.89 L 185.09 85.86 L 185.26 85.83 L 185.43 85.80 L 185.60 85.77 L 185.77 85.74 L 185.94 85.71 L 186.11 85.68 L 186.28 85.65 L 186.45 85.62 L 186.62 85.59 L 186.79 85.56 L 186.96 85.53 L 187.13 85.50 L 187.30 85.47 L 187.47 85.44 L 187.64 85.41 L 187.81 85.38 L 187.98 85.35 L 188.15 85.32 L 188.32 85.29 L 188.49 85.26 L 188.66 85.23 L 188.83 85.20 L 189.00 85.17 L 189.17 85.14 L 189.34 85.11 L 189.51 85.08 L 189.68 85.05 L 189.85 85.02 L 190.02 84.99 L 190.19 84.96 L 190.36 84.93 L 190.53 84.90 L 190.70 84.87 L 190.87 84.84 L 191.04 84.81 L 191.21 84.78 L 191.38 84.75 L 191.55 84.72 L 191.72 84.68 L 191.89 84.65 L 192.07 84.62 L 192.24 84.59 L 192.41 84.56 L 192.58 84.53 L 192.75 84.50 L 192.92 84.47 L 193.09 84.44 L 193.26 84.41 L 193.43 84.37 L 193.60 84.34 L 193.77 84.31 L 193.94 84.28 L 194.11 84.25 L 194.28 84.22 L 194.45 84.19 L 194.62 84.16 L 194.79 84.12 L 194.96 84.09 L 195.13 84.06 L 195.30 84.03 L 195.47 84.00 L 195.64 83.97 L 195.81 83.93 L 195.98 83.90 L 196.15 83.87 L 196.32 83.84 L 196.49 83.81 L 196.66 83.77 L 196.83 83.74 L 197.00 83.71 L 197.17 83.68 L 197.34 83.65 L 197.51 83.61 L 197.68 83.58 L 197.85 83.55 L 198.02 83.52 L 198.19 83.48 L 198.36 83.45 L 198.53 83.42 L 198.70 83.39 L 198.87 83.35 L 199.04 83.32 L 199.21 83.29 L 199.38 83.25 L 199.55 83.22 L 199.72 83.19 L 199.89 83.16 L 200.06 83.12 L 200.23 83.09 L 200.40 83.06 L 200.57 83.02 L 200.74 82.99 L 200.91 82.96 L 201.08 82.92 L 201.25 82.89 L 201.42 82.86 L 201.59 82.82 L 201.76 82.79 L 201.93 82.76 L 202.10 82.72 L 202.27 82.69 L 202.44 82.65 L 202.61 82.62 L 202.78 82.59 L 202.95 82.55 L 203.12 82.52 L 203.29 82.48 L 203.46 82.45 L 203.63 82.42 L 203.80 82.38 L 203.97 82.35 L 204.14 82.31 L 204.31 82.28 L 204.48 82.24 L 204.65 82.21 L 204.82 82.17 L 204.99 82.14 L 205.16 82.10 L 205.33 82.07 L 205.50 82.03 L 205.67 82.00 L 205.84 81.96 L 206.01 81.93 L 206.18 81.89 L 206.35 81.86 L 206.52 81.82 L 206.69 81.79 L 206.86 81.75 L 207.03 81.72 L 207.20 81.68 L 207.37 81.64 L 207.54 81.61 L 207.71 81.57 L 207.88 81.54 L 208.06 81.50 L 208.23 81.46 L 208.40 81.43 L 208.57 81.39 L 208.74 81.36 L 208.91 81.32 L 209.08 81.28 L 209.25 81.25 L 209.42 81.21 L 209.59 81.17 L 209.76 81.14 L 209.93 81.10 L 210.10 81.06 L 210.27 81.03 L 210.44 80.99 L 210.61 80.95 L 210.78 80.91 L 210.95 80.88 L 211.12 80.84 L 211.29 80.80 L 211.46 80.76 L 211.63 80.73 L 211.80 80.69 L 211.97 80.65 L 212.14 80.61 L 212.31 80.57 L 212.48 80.54 L 212.65 80.50 L 212.82 80.46 L 212.99 80.42 L 213.16 80.38 L 213.33 80.34 L 213.50 80.31 L 213.67 80.27 L 213.84 80.23 L 214.01 80.19 L 214.18 80.15 L 214.35 80.11 L 214.52 80.07 L 214.69 80.03 L 214.86 79.99 L 215.03 79.95 L 215.20 79.91 L 215.37 79.87 L 215.54 79.84 L 215.71 79.80 L 215.88 79.76 L 216.05 79.72 L 216.22 79.68 L 216.39 79.63 L 216.56 79.59 L 216.73 79.55 L 216.90 79.51 L 217.07 79.47 L 217.24 79.43 L 217.41 79.39 L 217.58 79.35 L 217.75 79.31 L 217.92 79.27 L 218.09 79.23 L 218.26 79.19 L 218.43 79.14 L 218.60 79.10 L 218.77 79.06 L 218.94 79.02 L 219.11 78.98 L 219.28 78.93 L 219.45 78.89 L 219.62 78.85 L 219.79 78.81 L 219.96 78.77 L 220.13 78.72 L 220.30 78.68 L 220.47 78.64 L 220.64 78.59 L 220.81 78.55 L 220.98 78.51 L 221.15 78.46 L 221.32 78.42 L 221.49 78.38 L 221.66 78.33 L 221.83 78.29 L 222.00 78.25 L 222.17 78.20 L 222.34 78.16 L 222.51 78.11 L 222.68 78.07 L 222.85 78.02 L 223.02 77.98 L 223.19 77.94 L 223.36 77.89 L 223.53 77.85 L 223.70 77.80 L 223.87 77.75 L 224.05 77.71 L 224.22 77.66 L 224.39 77.62 L 224.56 77.57 L 224.73 77.53 L 224.90 77.48 L 225.07 77.43 L 225.24 77.39 L 225.41 77.34 L 225.58 77.29 L 225.75 77.25 L 225.92 77.20 L 226.09 77.15 L 226.26 77.11 L 226.43 77.06 L 226.60 77.01 L 226.77 76.96 L 226.94 76.91 L 227.11 76.87 L 227.28 76.82 L 227.45 76.77 L 227.62 76.72 L 227.79 76.67 L 227.96 76.62 L 228.13 76.58 L 228.30 76.53 L 228.47 76.48 L 228.64 76.43 L 228.81 76.38 L 228.98 76.33 L 229.15 76.28 L 229.32 76.23 L 229.49 76.18 L 229.66 76.13 L 229.83 76.08 L 230.00 76.03 L 230.17 75.98 L 230.34 75.92 L 230.51 75.87 L 230.68 75.82 L 230.85 75.77 L 231.02 75.72 L 231.19 75.67 L 231.36 75.61 L 231.53 75.56 L 231.70 75.51 L 231.87 75.46 L 232.04 75.40 L 232.21 75.35 L 232.38 75.30 L 232.55 75.24 L 232.72 75.19 L 232.89 75.14 L 233.06 75.08 L 233.23 75.03 L 233.40 74.97 L 233.57 74.92 L 233.74 74.86 L 233.91 74.81 L 234.08 74.75 L 234.25 74.70 L 234.42 74.64 L 234.59 74.59 L 234.76 74.53 L 234.93 74.48 L 235.10 74.42 L 235.27 74.36 L 235.44 74.31 L 235.61 74.25 L 235.78 74.19 L 235.95 74.13 L 236.12 74.08 L 236.29 74.02 L 236.46 73.96 L 236.63 73.90 L 236.80 73.84 L 236.97 73.78 L 237.14 73.72 L 237.31 73.67 L 237.48 73.61 L 237.65 73.55 L 237.82 73.49 L 237.99 73.43 L 238.16 73.36 L 238.33 73.30 L 238.50 73.24 L 238.67 73.18 L 238.84 73.12 L 239.01 73.06 L 239.18 73.00 L 239.35 72.93 L 239.52 72.87 L 239.69 72.81 L 239.86 72.75 L 240.04 72.68 L 240.21 72.62 L 240.38 72.56 L 240.55 72.49 L 240.72 72.43 L 240.89 72.36 L 241.06 72.30 L 241.23 72.23 L 241.40 72.17 L 241.57 72.10 L 241.74 72.04 L 241.91 71.97 L 242.08 71.90 L 242.25 71.84 L 242.42 71.77 L 242.59 71.70 L 242.76 71.63 L 242.93 71.57 L 243.10 71.50 L 243.27 71.43 L 243.44 71.36 L 243.61 71.29 L 243.78 71.22 L 243.95 71.15 L 244.12 71.08 L 244.29 71.01 L 244.46 70.94 L 244.63 70.87 L 244.80 70.80 L 244.97 70.72 L 245.14 70.65 L 245.31 70.58 L 245.48 70.51 L 245.65 70.43 L 245.82 70.36 L 245.99 70.29 L 246.16 70.21 L 246.33 70.14 L 246.50 70.06 L 246.67 69.99 L 246.84 69.91 L 247.01 69.84 L 247.18 69.76 L 247.35 69.68 L 247.52 69.61 L 247.69 69.53 L 247.86 69.45 L 248.03 69.37 L 248.20 69.29 L 248.37 69.21 L 248.54 69.13 L 248.71 69.05 L 248.88 68.97 L 249.05 68.89 L 249.22 68.81 L 249.39 68.73 L 249.56 68.65 L 249.73 68.57 L 249.90 68.48 L 250.07 68.40 L 250.24 68.32 L 250.41 68.23 L 250.58 68.15 L 250.75 68.06 L 250.92 67.98 L 251.09 67.89 L 251.26 67.81 L 251.43 67.72 L 251.60 67.63 L 251.77 67.55 L 251.94 67.46 L 252.11 67.37 L 252.28 67.28 L 252.45 67.19 L 252.62 67.10 L 252.79 67.01 L 252.96 66.92 L 253.13 66.83 L 253.30 66.73 L 253.47 66.64 L 253.64 66.55 L 253.81 66.45 L 253.98 66.36 L 254.15 66.27 L 254.32 66.17 L 254.49 66.07 L 254.66 65.98 L 254.83 65.88 L 255.00 65.78 L 255.17 65.69 L 255.34 65.59 L 255.51 65.49 L 255.68 65.39 L 255.85 65.29 L 256.03 65.19 L 256.20 65.08 L 256.37 64.98 L 256.54 64.88 L 256.71 64.78 L 256.88 64.67 L 257.05 64.57 L 257.22 64.46 L 257.39 64.36 L 257.56 64.25 L 257.73 64.14 L 257.90 64.03 L 258.07 63.93 L 258.24 63.82 L 258.41 63.71 L 258.58 63.60 L 258.75 63.48 L 258.92 63.37 L 259.09 63.26 L 259.26 63.15 L 259.43 63.03 L 259.60 62.92 L 259.77 62.80 L 259.94 62.68 L 260.11 62.57 L 260.28 62.45 L 260.45 62.33 L 260.62 62.21 L 260.79 62.09 L 260.96 61.97 L 261.13 61.85 L 261.30 61.72 L 261.47 61.60 L 261.64 61.47 L 261.81 61.35 L 261.98 61.22 L 262.15 61.10 L 262.32 60.97 L 262.49 60.84 L 262.66 60.71 L 262.83 60.58 L 263.00 60.45 L 263.17 60.31 L 263.34 60.18 L 263.51 60.04 L 263.68 59.91 L 263.85 59.77 L 264.02 59.63 L 264.19 59.50 L 264.36 59.36 L 264.53 59.22 L 264.70 59.07 L 264.87 58.93 L 265.04 58.79 L 265.21 58.64 L 265.38 58.50 L 265.55 58.35 L 265.72 58.20 L 265.89 58.05 L 266.06 57.90 L 266.23 57.75 L 266.40 57.60 L 266.57 57.44 L 266.74 57.29 L 266.91 57.13 L 267.08 56.97 L 267.25 56.81 L 267.42 56.65 L 267.59 56.49 L 267.76 56.33 L 267.93 56.17 L 268.10 56.00 L 268.27 55.83 L 268.44 55.67 L 268.61 55.50 L 268.78 55.33 L 268.95 55.15 L 269.12 54.98 L 269.29 54.80 L 269.46 54.63 L 269.63 54.45 L 269.80 54.27 L 269.97 54.09 L 270.14 53.90 L 270.31 53.72 L 270.48 53.53 L 270.65 53.35 L 270.82 53.16 L 270.99 52.96 L 271.16 52.77 L 271.33 52.58 L 271.50 52.38 L 271.67 52.18 L 271.84 51.98 L 272.02 51.78 L 272.19 51.58 L 272.36 51.37 L 272.53 51.16 L 272.70 50.95 L 272.87 50.74 L 273.04 50.53 L 273.21 50.31 L 273.38 50.10 L 273.55 49.88 L 273.72 49.66 L 273.89 49.43 L 274.06 49.21 L 274.23 48.98 L 274.40 48.75 L 274.57 48.51 L 274.74 48.28 L 274.91 48.04 L 275.08 47.80 L 275.25 47.56 L 275.42 47.31 L 275.59 47.07 L 275.76 46.82 L 275.93 46.57 L 276.10 46.31 L 276.27 46.05 L 276.44 45.79 L 276.61 45.53 L 276.78 45.26 L 276.95 44.99 L 277.12 44.72 L 277.29 44.45 L 277.46 44.17 L 277.63 43.89 L 277.80 43.60 L 277.97 43.32 L 278.14 43.02 L 278.31 42.73 L 278.48 42.43 L 278.65 42.13 L 278.82 41.83 L 278.99 41.52 L 279.16 41.21 L 279.33 40.89 L 279.50 40.58 L 279.67 40.25 L 279.84 39.93 L 280.01 39.60 L 280.18 39.26 L 280.35 38.92 L 280.52 38.58 L 280.69 38.23 L 280.86 37.88 L 281.03 37.53 L 281.20 37.17 L 281.37 36.80 L 281.54 36.43 L 281.71 36.06 L 281.88 35.68 L 282.05 35.30 L 282.22 34.91 L 282.39 34.51 L 282.56 34.11 L 282.73 33.71 L 282.90 33.30 L 283.07 32.88 L 283.24 32.46 L 283.41 32.03 L 283.58 31.60 L 283.75 31.16 L 283.92 30.71 L 284.09 30.26 L 284.26 29.80 L 284.43 29.34 L 284.60 28.86 L 284.77 28.38 L 284.94 27.90 L 285.11 27.40 L 285.28 26.90 L 285.45 26.39 L 285.62 25.87 L 285.79 25.35 L 285.96 24.82 L 286.13 24.28 L 286.30 23.72 L 286.47 23.17 L 286.64 22.60 L 286.81 22.02" fill="none" stroke="#7E8692" stroke-width="2.3" stroke-linecap="round" stroke-linejoin="round"/>
</svg>
