<svg xmlns="http://www.w3.org/2000/svg" viewBox="0 0 320 180" width="320" height="180">
  <rect width="320" height="180" fill="#F4F5F7"/>
  <path d="M 24.00 106.37 L 24.23 106.40 L 24.45 106.42 L 24.68 106.45 L 24.91 106.48 L 25.13 106.50 L 25.36 106.53 L 25.59 106.56 L 25.81 106.58 L 26.04 106.61 L 26.27 106.64 L 26.50 106.67 L 26.72 106.69 L 26.95 106.72 L 27.18 106.75 L 27.40 106.78 L 27.63 106.80 L 27.86 106.83 L 28.08 106.86 L 28.31 106.89 L 28.54 106.92 L 28.76 106.94 L 28.99 106.97 L 29.22 107.00 L 29.44 107.03 L 29.67 107.06 L 29.90 107.09 L 30.13 107.11 L 30.35 107.14 L 30.58 107.17 L 30.81 107.20 L 31.03 107.23 L 31.26 107.26 L 31.49 107.29 L 31.71 107.32 L 31.94 107.35 L 32.17 107.38 L 32.39 107.41 L 32.62 107.44 L 32.85 107.47 L 33.07 107.50 L 33.30 107.53 L 33.53 107.56 L 33.75 107.59 L 33.98 107.62 L 34.21 107.65 L 34.44 107.68 L 34.66 107.71 L 34.89 107.74 L 35.12 107.77 L 35.34 107.80 L 35.57 107.83 L 35.80 107.86 L 36.02 107.90 L 36.25 107.93 L 36.48 107.96 L 36.70 107.99 L 36.93 108.02 L 37.16 108.05 L 37.38 108.09 L 37.61 108.12 L 37.84 108.15 L 38.07 108.18 L 38.29 108.22 L 38.52 108.25 L 38.75 108.28 L 38.97 108.31 L 39.20 108.35 L 39.43 108.38 L 39.65 108.41 L 39.88 108.45 L 40.11 108.48 L 40.33 108.51 L 40.56 108.55 L 40.79 108.58 L 41.01 108.61 L 41.24 108.65 L 41.47 108.68 L 41.69 108.72 L 41.92 108.75 L 42.15 108.78 L 42.38 108.82 L 42.60 108.85 L 42.83 108.89 L 43.06 108.92 L 43.28 108.96 L 43.51 108.99 L 43.74 109.03 L 43.96 109.07 L 44.19 109.10 L 44.42 109.14 L 44.64 109.17 L 44.87 109.21 L 45.10 109.24 L 45.32 109.28 L 45.55 109.32 L 45.78 109.35 L 46.01 109.39 L 46.23 109.43 L 46.46 109.46 L 46.69 109.50 L 46.91 109.54 L 47.14 109.58 L 47.37 109.61 L 47.59 109.65 L 47.82 109.69 L 48.05 109.73 L 48.27 109.76 L 48.50 109.80 L 48.73 109.84 L 48.95 109.88 L 49.18 109.92 L 49.41 109.96 L 49.63 110.00 L 49.86 110.03 L 50.09 110.07 L 50.32 110.11 L 50.54 110.15 L 50.77 110.19 L 51.00 110.23 L 51.22 110.27 L 51.45 110.31 L 51.68 110.35 L 51.90 110.39 L 52.13 110.43 L 52.36 110.47 L 52.58 110.51 L 52.81 110.56 L 53.04 110.60 L 53.26 110.64 L 53.49 110.68 L 53.72 110.72 L 53.94 110.76 L 54.17 110.81 L 54.40 110.85 L 54.63 110.89 L 54.85 110.93 L 55.08 110.97 L 55.31 111.02 L 55.53 111.06 L 55.76 111.10 L 55.99 111.15 L 56.21 111.19 L 56.44 111.23 L 56.67 111.28 L 56.89 111.32 L 57.12 111.37 L 57.35 111.41 L 57.57 111.46 L 57.80 111.50 L 58.03 111.55 L 58.26 111.59 L 58.48 111.64 L 58.71 111.68 L 58.94 111.73 L 59.16 111.77 L 59.39 111.82 L 59.62 111.86 L 59.84 111.91 L 60.07 111.96 L 60.30 112.00 L 60.52 112.05 L 60.75 112.10 L 60.98 112.15 L 61.20 112.19 L 61.43 112.24 L 61.66 112.29 L 61.88 112.34 L 62.11 112.39 L 62.34 112.43 L 62.57 112.48 L 62.79 112.53 L 63.02 112.58 L 63.25 112.63 L 63.47 112.68 L 63.70 112.73 L 63.93 112.78 L 64.15 112.83 L 64.38 112.88 L 64.61 112.93 L 64.83 112.98 L 65.06 113.03 L 65.29 113.08 L 65.51 113.14 L 65.74 113.19 L 65.97 113.24 L 66.20 113.29 L 66.42 113.34 L 66.65 113.40 L 66.88 113.45 L 67.10 113.50 L 67.33 113.56 L 67.56 113.61 L 67.78 113.66 L 68.01 113.72 L 68.24 113.77 L 68.46 113.83 L 68.69 113.88 L 68.92 113.94 L 69.14 113.99 L 69.37 114.05 L 69.60 114.10 L 69.82 114.16 L 70.05 114.21 L 70.28 114.27 L 70.51 114.33 L 70.73 114.38 L 70.96 114.44 L 71.19 114.50 L 71.41 114.56 L 71.64 114.61 L 71.87 114.67 L 72.09 114.73 L 72.32 114.79 L 72.55 114.85 L 72.77 114.91 L 73.00 114.97 L 73.23 115.03 L 73.45 115.09 L 73.68 115.15 L 73.91 115.21 L 74.14 115.27 L 74.36 115.33 L 74.59 115.39 L 74.82 115.45 L 75.04 115.51 L 75.27 115.58 L 75.50 115.64 L 75.72 115.70 L 75.95 115.77 L 76.18 115.83 L 76.40 115.89 L 76.63 115.96 L 76.86 116.02 L 77.08 116.09 L 77.31 116.15 L 77.54 116.22 L 77.76 116.28 L 77.99 116.35 L 78.22 116.41 L 78.45 116.48 L 78.67 116.55 L 78.90 116.61 L 79.13 116.68 L 79.35 116.75 L 79.58 116.82 L 79.81 116.89 L 80.03 116.95 L 80.26 117.02 L 80.49 117.09 L 80.71 117.16 L 80.94 117.23 L 81.17 117.30 L 81.39 117.37 L 81.62 117.44 L 81.85 117.52 L 82.08 117.59 L 82.30 117.66 L 82.53 117.73 L 82.76 117.80 L 82.98 117.88 L 83.21 117.95 L 83.44 118.02 L 83.66 118.10 L 83.89 118.17 L 84.12 118.25 L 84.34 118.32 L 84.57 118.40 L 84.80 118.48 L 85.02 118.55 L 85.25 118.63 L 85.48 118.71 L 85.70 118.78 L 85.93 118.86 L 86.16 118.94 L 86.39 119.02 L 86.61 119.10 L 86.84 119.18 L 87.07 119.26 L 87.29 119.34 L 87.52 119.42 L 87.75 119.50 L 87.97 119.58 L 88.20 119.66 L 88.43 119.74 L 88.65 119.83 L 88.88 119.91 L 89.11 119.99 L 89.33 120.08 L 89.56 120.16 L 89.79 120.25 L 90.02 120.33 L 90.24 120.42 L 90.47 120.50 L 90.70 120.59 L 90.92 120.68 L 91.15 120.76 L 91.38 120.85 L 91.60 120.94 L 91.83 121.03 L 92.06 121.12 L 92.28 121.21 L 92.51 121.30 L 92.74 121.39 L 92.96 121.48 L 93.19 121.57 L 93.42 121.66 L 93.64 121.76 L 93.87 121.85 L 94.10 121.94 L 94.33 122.04 L 94.55 122.13 L 94.78 122.23 L 95.01 122.32 L 95.23 122.42 L 95.46 122.51 L 95.69 122.61 L 95.91 122.71 L 96.14 122.80 L 96.37 122.90 L 96.59 123.00 L 96.82 123.10 L 97.05 123.20 L 97.27 123.30 L 97.50 123.40 L 97.73 123.50 L 97.95 123.61 L 98.18 123.71 L 98.41 123.81 L 98.64 123.92 L 98.86 124.02 L 99.09 124.12 L 99.32 124.23 L 99.54 124.34 L 99.77 124.44 L 100.00 124.55 L 100.22 124.66 L 100.45 124.76 L 100.68 124.87 L 100.90 124.98 L 101.13 125.09 L 101.36 125.20 L 101.58 125.31 L 101.81 125.42 L 102.04 125.54 L 102.27 125.65 L 102.49 125.76 L 102.72 125.87 L 102.95 125.99 L 103.17 126.10 L 103.40 126.22 L 103.63 126.33 L 103.85 126.45 L 104.08 126.57 L 104.31 126.69 L 104.53 126.80 L 104.76 126.92 L 104.99 127.04 L 105.21 127.16 L 105.44 127.28 L 105.67 127.41 L 105.89 127.53 L 106.12 127.65 L 106.35 127.77 L 106.58 127.90 L 106.80 128.02 L 107.03 128.15 L 107.26 128.27 L 107.48 128.40 L 107.71 128.52 L 107.94 128.65 L 108.16 128.78 L 108.39 128.91 L 108.62 129.04 L 108.84 129.17 L 109.07 129.30 L 109.30 129.43 L 109.52 129.56 L 109.75 129.69 L 109.98 129.83 L 110.21 129.96 L 110.43 130.09 L 110.66 130.23 L 110.89 130.36 L 111.11 130.50 L 111.34 130.63 L 111.57 130.77 L 111.79 130.91 L 112.02 131.05 L 112.25 131.19 L 112.47 131.32 L 112.70 131.46 L 112.93 131.60 L 113.15 131.75 L 113.38 131.89 L 113.61 132.03 L 113.83 132.17 L 114.06 132.31 L 114.29 132.46 L 114.52 132.60 L 114.74 132.75 L 114.97 132.89 L 115.20 133.04 L 115.42 133.18 L 115.65 133.33 L 115.88 133.47 L 116.10 133.62 L 116.33 133.77 L 116.56 133.92 L 116.78 134.06 L 117.01 134.21 L 117.24 134.36 L 117.46 134.51 L 117.69 134.66 L 117.92 134.81 L 118.15 134.96 L 118.37 135.11 L 118.60 135.26 L 118.83 135.41 L 119.05 135.56 L 119.28 135.71 L 119.51 135.86 L 119.73 136.01 L 119.96 136.16 L 120.19 136.31 L 120.41 136.46 L 120.64 136.61 L 120.87 136.76 L 121.09 136.91 L 121.32 137.06 L 121.55 137.21 L 121.77 137.36 L 122.00 137.51 L 122.23 137.66 L 122.46 137.81 L 122.68 137.96 L 122.91 138.10 L 123.14 138.25 L 123.36 138.40 L 123.59 138.54 L 123.82 138.68 L 124.04 138.83 L 124.27 138.97 L 124.50 139.11 L 124.72 139.25 L 124.95 139.39 L 125.18 139.53 L 125.40 139.66 L 125.63 139.79 L 125.86 139.93 L 126.09 140.06 L 126.31 140.19 L 126.54 140.31 L 126.77 140.44 L 126.99 140.56 L 127.22 140.68 L 127.45 140.80 L 127.67 140.91 L 127.90 141.02 L 128.13 141.13 L 128.35 141.24 L 128.58 141.34 L 128.81 141.43 L 129.03 141.53 L 129.26 141.62 L 129.49 141.70 L 129.71 141.79 L 129.94 141.86 L 130.17 141.93 L 130.40 142.00 L 130.62 142.06 L 130.85 142.12 L 131.08 142.16 L 131.30 142.21 L 131.53 142.24 L 131.76 142.27 L 131.98 142.29 L 132.21 142.30 L 132.44 142.31 L 132.66 142.30 L 132.89 142.29 L 133.12 142.27 L 133.34 142.23 L 133.57 142.19 L 133.80 142.13 L 134.03 142.07 L 134.25 141.99 L 134.48 141.90 L 134.71 141.79 L 134.93 141.67 L 135.16 141.54 L 135.39 141.39 L 135.61 141.22 L 135.84 141.04 L 136.07 140.83 L 136.29 140.61 L 136.52 140.37 L 136.75 140.11 L 136.97 139.83 L 137.20 139.52 L 137.43 139.19 L 137.65 138.83 L 137.88 138.45 L 138.11 138.04 L 138.34 137.60 L 138.56 137.13 L 138.79 136.63 L 139.02 136.10 L 139.24 135.53 L 139.47 134.92 L 139.70 134.28 L 139.92 133.60 L 140.15 132.87 L 140.38 132.10 L 140.60 131.29 L 140.83 130.42 L 141.06 129.51 L 141.28 128.55 L 141.51 127.53 L 141.74 126.45 L 141.96 125.32 L 142.19 124.12 L 142.42 122.86 L 142.65 121.54 L 142.87 120.14 L 143.10 118.67 L 143.33 117.13 L 143.55 115.51 L 143.78 113.81 L 144.01 112.03 L 144.23 110.17 L 144.46 108.22 L 144.69 106.18 L 144.91 104.05 L 145.14 101.83 L 145.37 99.52 L 145.59 97.12 L 145.82 94.62 L 146.05 92.02 L 146.28 89.34 L 146.50 86.57 L 146.73 83.72 L 146.96 80.78 L 147.18 77.78 L 147.41 74.71 L 147.64 71.58 L 147.86 68.42 L 148.09 65.23 L 148.32 62.05 L 148.54 58.88 L 148.77 55.77 L 149.00 52.73 L 149.22 49.82 L 149.45 47.08 L 149.68 44.56 L 149.90 42.33 L 150.13 40.44 L 150.36 38.98 L 150.59 38.03 L 150.81 37.69 L 151.04 38.06 L 151.27 39.24 L 151.49 41.35 L 151.72 44.50 L 151.95 48.77 L 152.17 54.27 L 152.40 61.03 L 152.63 69.07 L 152.85 78.32 L 153.08 88.61 L 153.31 99.65 L 153.53 110.97 L 153.76 121.90 L 153.99 131.55 L 154.22 138.76 L 154.44 142.20 L 154.67 140.46 L 154.90 132.35 L 155.12 117.30 L 155.35 96.06 L 155.58 71.51 L 155.80 49.35 L 156.03 37.91 L 156.26 45.95 L 156.48 76.81 L 156.71 119.28 L 156.94 142.31 L 157.16 112.37 L 157.39 49.50 L 157.62 57.29 L 157.84 139.43 L 158.07 66.82 L 158.30 106.00 L 158.53 43.78 L 158.75 82.79 L 158.98 37.69 L 159.21 43.04 L 159.43 132.01 L 159.66 142.30 L 159.89 37.76 L 160.11 142.24 L 160.34 37.70 L 160.57 47.99 L 160.79 136.96 L 161.02 142.31 L 161.25 97.21 L 161.47 136.22 L 161.70 74.00 L 161.93 113.18 L 162.16 40.57 L 162.38 122.71 L 162.61 130.50 L 162.84 67.63 L 163.06 37.69 L 163.29 60.72 L 163.52 103.19 L 163.74 134.05 L 163.97 142.09 L 164.20 130.65 L 164.42 108.49 L 164.65 83.94 L 164.88 62.70 L 165.10 47.65 L 165.33 39.54 L 165.56 37.80 L 165.78 41.24 L 166.01 48.45 L 166.24 58.10 L 166.47 69.03 L 166.69 80.35 L 166.92 91.39 L 167.15 101.68 L 167.37 110.93 L 167.60 118.97 L 167.83 125.73 L 168.05 131.23 L 168.28 135.50 L 168.51 138.65 L 168.73 140.76 L 168.96 141.94 L 169.19 142.31 L 169.41 141.97 L 169.64 141.02 L 169.87 139.56 L 170.10 137.67 L 170.32 135.44 L 170.55 132.92 L 170.78 130.18 L 171.00 127.27 L 171.23 124.23 L 171.46 121.12 L 171.68 117.95 L 171.91 114.77 L 172.14 111.58 L 172.36 108.42 L 172.59 105.29 L 172.82 102.22 L 173.04 99.22 L 173.27 96.28 L 173.50 93.43 L 173.72 90.66 L 173.95 87.98 L 174.18 85.38 L 174.41 82.88 L 174.63 80.48 L 174.86 78.17 L 175.09 75.95 L 175.31 73.82 L 175.54 71.78 L 175.77 69.83 L 175.99 67.97 L 176.22 66.19 L 176.45 64.49 L 176.67 62.87 L 176.90 61.33 L 177.13 59.86 L 177.35 58.46 L 177.58 57.14 L 177.81 55.88 L 178.04 54.68 L 178.26 53.55 L 178.49 52.47 L 178.72 51.45 L 178.94 50.49 L 179.17 49.58 L 179.40 48.71 L 179.62 47.90 L 179.85 47.13 L 180.08 46.40 L 180.30 45.72 L 180.53 45.08 L 180.76 44.47 L 180.98 43.90 L 181.21 43.37 L 181.44 42.87 L 181.66 42.40 L 181.89 41.96 L 182.12 41.55 L 182.35 41.17 L 182.57 40.81 L 182.80 40.48 L 183.03 40.17 L 183.25 39.89 L 183.48 39.63 L 183.71 39.39 L 183.93 39.17 L 184.16 38.96 L 184.39 38.78 L 184.61 38.61 L 184.84 38.46 L 185.07 38.33 L 185.29 38.21 L 185.52 38.10 L 185.75 38.01 L 185.97 37.93 L 186.20 37.87 L 186.43 37.81 L 186.66 37.77 L 186.88 37.73 L 187.11 37.71 L 187.34 37.70 L 187.56 37.69 L 187.79 37.70 L 188.02 37.71 L 188.24 37.73 L 188.47 37.76 L 188.70 37.79 L 188.92 37.84 L 189.15 37.88 L 189.38 37.94 L 189.60 38.00 L 189.83 38.07 L 190.06 38.14 L 190.29 38.21 L 190.51 38.30 L 190.74 38.38 L 190.97 38.47 L 191.19 38.57 L 191.42 38.66 L 191.65 38.76 L 191.87 38.87 L 192.10 38.98 L 192.33 39.09 L 192.55 39.20 L 192.78 39.32 L 193.01 39.44 L 193.23 39.56 L 193.46 39.69 L 193.69 39.81 L 193.91 39.94 L 194.14 40.07 L 194.37 40.21 L 194.60 40.34 L 194.82 40.47 L 195.05 40.61 L 195.28 40.75 L 195.50 40.89 L 195.73 41.03 L 195.96 41.17 L 196.18 41.32 L 196.41 41.46 L 196.64 41.60 L 196.86 41.75 L 197.09 41.90 L 197.32 42.04 L 197.54 42.19 L 197.77 42.34 L 198.00 42.49 L 198.23 42.64 L 198.45 42.79 L 198.68 42.94 L 198.91 43.09 L 199.13 43.24 L 199.36 43.39 L 199.59 43.54 L 199.81 43.69 L 200.04 43.84 L 200.27 43.99 L 200.49 44.14 L 200.72 44.29 L 200.95 44.44 L 201.17 44.59 L 201.40 44.74 L 201.63 44.89 L 201.85 45.04 L 202.08 45.19 L 202.31 45.34 L 202.54 45.49 L 202.76 45.64 L 202.99 45.79 L 203.22 45.94 L 203.44 46.08 L 203.67 46.23 L 203.90 46.38 L 204.12 46.53 L 204.35 46.67 L 204.58 46.82 L 204.80 46.96 L 205.03 47.11 L 205.26 47.25 L 205.48 47.40 L 205.71 47.54 L 205.94 47.69 L 206.17 47.83 L 206.39 47.97 L 206.62 48.11 L 206.85 48.25 L 207.07 48.40 L 207.30 48.54 L 207.53 48.68 L 207.75 48.81 L 207.98 48.95 L 208.21 49.09 L 208.43 49.23 L 208.66 49.37 L 208.89 49.50 L 209.11 49.64 L 209.34 49.77 L 209.57 49.91 L 209.79 50.04 L 210.02 50.17 L 210.25 50.31 L 210.48 50.44 L 210.70 50.57 L 210.93 50.70 L 211.16 50.83 L 211.38 50.96 L 211.61 51.09 L 211.84 51.22 L 212.06 51.35 L 212.29 51.48 L 212.52 51.60 L 212.74 51.73 L 212.97 51.85 L 213.20 51.98 L 213.42 52.10 L 213.65 52.23 L 213.88 52.35 L 214.11 52.47 L 214.33 52.59 L 214.56 52.72 L 214.79 52.84 L 215.01 52.96 L 215.24 53.08 L 215.47 53.20 L 215.69 53.31 L 215.92 53.43 L 216.15 53.55 L 216.37 53.67 L 216.60 53.78 L 216.83 53.90 L 217.05 54.01 L 217.28 54.13 L 217.51 54.24 L 217.73 54.35 L 217.96 54.46 L 218.19 54.58 L 218.42 54.69 L 218.64 54.80 L 218.87 54.91 L 219.10 55.02 L 219.32 55.13 L 219.55 55.24 L 219.78 55.34 L 220.00 55.45 L 220.23 55.56 L 220.46 55.66 L 220.68 55.77 L 220.91 55.88 L 221.14 55.98 L 221.36 56.08 L 221.59 56.19 L 221.82 56.29 L 222.05 56.39 L 222.27 56.50 L 222.50 56.60 L 222.73 56.70 L 222.95 56.80 L 223.18 56.90 L 223.41 57.00 L 223.63 57.10 L 223.86 57.20 L 224.09 57.29 L 224.31 57.39 L 224.54 57.49 L 224.77 57.58 L 224.99 57.68 L 225.22 57.77 L 225.45 57.87 L 225.67 57.96 L 225.90 58.06 L 226.13 58.15 L 226.36 58.24 L 226.58 58.34 L 226.81 58.43 L 227.04 58.52 L 227.26 58.61 L 227.49 58.70 L 227.72 58.79 L 227.94 58.88 L 228.17 58.97 L 228.40 59.06 L 228.62 59.15 L 228.85 59.24 L 229.08 59.32 L 229.30 59.41 L 229.53 59.50 L 229.76 59.58 L 229.98 59.67 L 230.21 59.75 L 230.44 59.84 L 230.67 59.92 L 230.89 60.01 L 231.12 60.09 L 231.35 60.17 L 231.57 60.26 L 231.80 60.34 L 232.03 60.42 L 232.25 60.50 L 232.48 60.58 L 232.71 60.66 L 232.93 60.74 L 233.16 60.82 L 233.39 60.90 L 233.61 60.98 L 233.84 61.06 L 234.07 61.14 L 234.30 61.22 L 234.52 61.29 L 234.75 61.37 L 234.98 61.45 L 235.20 61.52 L 235.43 61.60 L 235.66 61.68 L 235.88 61.75 L 236.11 61.83 L 236.34 61.90 L 236.56 61.98 L 236.79 62.05 L 237.02 62.12 L 237.24 62.20 L 237.47 62.27 L 237.70 62.34 L 237.92 62.41 L 238.15 62.48 L 238.38 62.56 L 238.61 62.63 L 238.83 62.70 L 239.06 62.77 L 239.29 62.84 L 239.51 62.91 L 239.74 62.98 L 239.97 63.05 L 240.19 63.11 L 240.42 63.18 L 240.65 63.25 L 240.87 63.32 L 241.10 63.39 L 241.33 63.45 L 241.55 63.52 L 241.78 63.59 L 242.01 63.65 L 242.24 63.72 L 242.46 63.78 L 242.69 63.85 L 242.92 63.91 L 243.14 63.98 L 243.37 64.04 L 243.60 64.11 L 243.82 64.17 L 244.05 64.23 L 244.28 64.30 L 244.50 64.36 L 244.73 64.42 L 244.96 64.49 L 245.18 64.55 L 245.41 64.61 L 245.64 64.67 L 245.86 64.73 L 246.09 64.79 L 246.32 64.85 L 246.55 64.91 L 246.77 64.97 L 247.00 65.03 L 247.23 65.09 L 247.45 65.15 L 247.68 65.21 L 247.91 65.27 L 248.13 65.33 L 248.36 65.39 L 248.59 65.44 L 248.81 65.50 L 249.04 65.56 L 249.27 65.62 L 249.49 65.67 L 249.72 65.73 L 249.95 65.79 L 250.18 65.84 L 250.40 65.90 L 250.63 65.95 L 250.86 66.01 L 251.08 66.06 L 251.31 66.12 L 251.54 66.17 L 251.76 66.23 L 251.99 66.28 L 252.22 66.34 L 252.44 66.39 L 252.67 66.44 L 252.90 66.50 L 253.12 66.55 L 253.35 66.60 L 253.58 66.66 L 253.80 66.71 L 254.03 66.76 L 254.26 66.81 L 254.49 66.86 L 254.71 66.92 L 254.94 66.97 L 255.17 67.02 L 255.39 67.07 L 255.62 67.12 L 255.85 67.17 L 256.07 67.22 L 256.30 67.27 L 256.53 67.32 L 256.75 67.37 L 256.98 67.42 L 257.21 67.47 L 257.43 67.52 L 257.66 67.57 L 257.89 67.61 L 258.12 67.66 L 258.34 67.71 L 258.57 67.76 L 258.80 67.81 L 259.02 67.85 L 259.25 67.90 L 259.48 67.95 L 259.70 68.00 L 259.93 68.04 L 260.16 68.09 L 260.38 68.14 L 260.61 68.18 L 260.84 68.23 L 261.06 68.27 L 261.29 68.32 L 261.52 68.36 L 261.74 68.41 L 261.97 68.45 L 262.20 68.50 L 262.43 68.54 L 262.65 68.59 L 262.88 68.63 L 263.11 68.68 L 263.33 68.72 L 263.56 68.77 L 263.79 68.81 L 264.01 68.85 L 264.24 68.90 L 264.47 68.94 L 264.69 68.98 L 264.92 69.03 L 265.15 69.07 L 265.37 69.11 L 265.60 69.15 L 265.83 69.19 L 266.06 69.24 L 266.28 69.28 L 266.51 69.32 L 266.74 69.36 L 266.96 69.40 L 267.19 69.44 L 267.42 69.49 L 267.64 69.53 L 267.87 69.57 L 268.10 69.61 L 268.32 69.65 L 268.55 69.69 L 268.78 69.73 L 269.00 69.77 L 269.23 69.81 L 269.46 69.85 L 269.68 69.89 L 269.91 69.93 L 270.14 69.97 L 270.37 70.00 L 270.59 70.04 L 270.82 70.08 L 271.05 70.12 L 271.27 70.16 L 271.50 70.20 L 271.73 70.24 L 271.95 70.27 L 272.18 70.31 L 272.41 70.35 L 272.63 70.39 L 272.86 70.42 L 273.09 70.46 L 273.31 70.50 L 273.54 70.54 L 273.77 70.57 L 273.99 70.61 L 274.22 70.65 L 274.45 70.68 L 274.68 70.72 L 274.90 70.76 L 275.13 70.79 L 275.36 70.83 L 275.58 70.86 L 275.81 70.90 L 276.04 70.93 L 276.26 70.97 L 276.49 71.01 L 276.72 71.04 L 276.94 71.08 L 277.17 71.11 L 277.40 71.15 L 277.62 71.18 L 277.85 71.22 L 278.08 71.25 L 278.31 71.28 L 278.53 71.32 L 278.76 71.35 L 278.99 71.39 L 279.21 71.42 L 279.44 71.45 L 279.67 71.49 L 279.89 71.52 L 280.12 71.55 L 280.35 71.59 L 280.57 71.62 L 280.80 71.65 L 281.03 71.69 L 281.25 71.72 L 281.48 71.75 L 281.71 71.78 L 281.93 71.82 L 282.16 71.85 L 282.39 71.88 L 282.62 71.91 L 282.84 71.95 L 283.07 71.98 L 283.30 72.01 L 283.52 72.04 L 283.75 72.07 L 283.98 72.10 L 284.20 72.14 L 284.43 72.17 L 284.66 72.20 L 284.88 72.23 L 285.11 72.26 L 285.34 72.29 L 285.56 72.32 L 285.79 72.35 L 286.02 72.38 L 286.25 72.41 L 286.47 72.44 L 286.70 72.47 L 286.93 72.50 L 287.15 72.53 L 287.38 72.56 L 287.61 72.59 L 287.83 72.62 L 288.06 72.65 L 288.29 72.68 L 288.51 72.71 L 288.74 72.74 L 288.97 72.77 L 289.19 72.80 L 289.42 72.83 L 289.65 72.86 L 289.87 72.89 L 290.10 72.91 L 290.33 72.94 L 290.56 72.97 L 290.78 73.00 L 291.01 73.03 L 291.24 73.06 L 291.46 73.08 L 291.69 73.11 L 291.92 73.14 L 292.14 73.17 L 292.37 73.20 L 292.60 73.22 L 292.82 73.25 L 293.05 73.28 L 293.28 73.31 L 293.50 73.33 L 293.73 73.36 L 293.96 73.39 L 294.19 73.42 L 294.41 73.44 L 294.64 73.47 L 294.87 73.50 L 295.09 73.52 L 295.32 73.55 L 295.55 73.58 L 295.77 73.60 L 296.00 73.63" fill="none" stroke="#7E8692" stroke-width="2.3" stroke-linecap="round" stroke-linejoin="round"/>
</svg>
