<svg xmlns="http://www.w3.org/2000/svg" viewBox="0 0 320 180" width="320" height="180">
  <rect width="320" height="180" fill="#F4F5F7"/>
  <path d="M 24.00 146.67 L 24.30 146.67 L 24.61 146.67 L 24.91 146.67 L 25.21 146.67 L 25.51 146.67 L 25.82 146.67 L 26.12 146.67 L 26.42 146.67 L 26.72 146.67 L 27.03 146.67 L 27.33 146.67 L 27.63 146.67 L 27.93 146.67 L 28.24 146.67 L 28.54 146.67 L 28.84 146.67 L 29.14 146.67 L 29.45 146.67 L 29.75 146.67 L 30.05 146.67 L 30.35 146.67 L 30.66 146.67 L 30.96 146.67 L 31.26 146.67 L 31.56 146.67 L 31.87 146.67 L 32.17 146.67 L 32.47 146.67 L 32.77 146.67 L 33.08 146.67 L 33.38 146.67 L 33.68 146.67 L 33.98 146.67 L 34.29 146.67 L 34.59 146.67 L 34.89 146.67 L 35.19 146.67 L 35.50 146.67 L 35.80 146.67 L 36.10 146.67 L 36.40 146.67 L 36.71 146.67 L 37.01 146.67 L 37.31 146.67 L 37.62 146.67 L 37.92 146.67 L 38.22 146.67 L 38.52 146.67 L 38.83 146.67 L 39.13 146.67 L 39.43 146.67 L 39.73 146.67 L 40.04 146.67 L 40.34 146.67 L 40.64 146.67 L 40.94 146.67 L 41.25 146.67 L 41.55 146.67 L 41.85 146.67 L 42.15 146.67 L 42.46 146.67 L 42.76 146.67 L 43.06 146.67 L 43.36 146.67 L 43.67 146.67 L 43.97 146.67 L 44.27 146.67 L 44.57 146.67 L 44.88 146.67 L 45.18 146.67 L 45.48 146.67 L 45.78 146.67 L 46.09 146.67 L 46.39 146.67 L 46.69 146.67 L 46.99 146.67 L 47.30 146.67 L 47.60 146.67 L 47.90 146.67 L 48.20 146.67 L 48.51 146.67 L 48.81 146.67 L 49.11 146.67 L 49.41 146.67 L 49.72 146.67 L 50.02 146.67 L 50.32 146.67 L 50.63 146.67 L 50.93 146.67 L 51.23 146.67 L 51.53 146.67 L 51.84 146.67 L 52.14 146.67 L 52.44 146.67 L 52.74 146.67 L 53.05 146.67 L 53.35 146.67 L 53.65 146.67 L 53.95 146.67 L 54.26 146.67 L 54.56 146.67 L 54.86 146.67 L 55.16 146.67 L 55.47 146.67 L 55.77 146.67 L 56.07 146.67 L 56.37 146.67 L 56.68 146.67 L 56.98 146.67 L 57.28 146.67 L 57.58 146.67 L 57.89 146.67 L 58.19 146.67 L 58.49 146.67 L 58.79 146.67 L 59.10 146.67 L 59.40 146.67 L 59.70 146.67 L 60.00 146.67 L 60.31 146.67 L 60.61 146.67 L 60.91 146.67 L 61.21 146.67 L 61.52 146.67 L 61.82 146.67 L 62.12 146.67 L 62.42 146.67 L 62.73 146.67 L 63.03 146.67 L 63.33 146.67 L 63.64 146.67 L 63.94 146.67 L 64.24 146.67 L 64.54 146.67 L 64.85 146.67 L 65.15 146.67 L 65.45 146.67 L 65.75 146.67 L 66.06 146.67 L 66.36 146.67 L 66.66 146.67 L 66.96 146.67 L 67.27 146.67 L 67.57 146.67 L 67.87 146.67 L 68.17 146.67 L 68.48 146.67 L 68.78 146.67 L 69.08 146.67 L 69.38 146.67 L 69.69 146.67 L 69.99 146.67 L 70.29 146.67 L 70.59 146.67 L 70.90 146.67 L 71.20 146.67 L 71.50 146.67 L 71.80 146.67 L 72.11 146.67 L 72.41 146.67 L 72.71 146.67 L 73.01 146.67 L 73.32 146.67 L 73.62 146.67 L 73.92 146.67 L 74.22 146.67 L 74.53 146.67 L 74.83 146.67 L 75.13 146.67 L 75.43 146.67 L 75.74 146.67 L 76.04 146.67 L 76.34 146.67 L 76.65 146.67 L 76.95 146.67 L 77.25 146.67 L 77.55 146.67 L 77.86 146.67 L 78.16 146.66 L 78.46 146.66 L 78.76 146.66 L 79.07 146.66 L 79.37 146.66 L 79.67 146.66 L 79.97 146.66 L 80.28 146.66 L 80.58 146.66 L 80.88 146.66 L 81.18 146.66 L 81.49 146.66 L 81.79 146.66 L 82.09 146.66 L 82.39 146.66 L 82.70 146.66 L 83.00 146.66 L 83.30 146.66 L 83.60 146.66 L 83.91 146.66 L 84.21 146.66 L 84.51 146.66 L 84.81 146.65 L 85.12 146.65 L 85.42 146.65 L 85.72 146.65 L 86.02 146.65 L 86.33 146.65 L 86.63 146.65 L 86.93 146.65 L 87.23 146.64 L 87.54 146.64 L 87.84 146.64 L 88.14 146.64 L 88.44 146.64 L 88.75 146.63 L 89.05 146.63 L 89.35 146.63 L 89.66 146.63 L 89.96 146.62 L 90.26 146.62 L 90.56 146.62 L 90.87 146.61 L 91.17 146.61 L 91.47 146.60 L 91.77 146.60 L 92.08 146.60 L 92.38 146.59 L 92.68 146.59 L 92.98 146.58 L 93.29 146.57 L 93.59 146.57 L 93.89 146.56 L 94.19 146.56 L 94.50 146.55 L 94.80 146.54 L 95.10 146.53 L 95.40 146.53 L 95.71 146.52 L 96.01 146.51 L 96.31 146.50 L 96.61 146.49 L 96.92 146.48 L 97.22 146.47 L 97.52 146.45 L 97.82 146.44 L 98.13 146.43 L 98.43 146.42 L 98.73 146.40 L 99.03 146.39 L 99.34 146.37 L 99.64 146.36 L 99.94 146.34 L 100.24 146.32 L 100.55 146.30 L 100.85 146.29 L 101.15 146.27 L 101.45 146.25 L 101.76 146.22 L 102.06 146.20 L 102.36 146.18 L 102.67 146.15 L 102.97 146.13 L 103.27 146.10 L 103.57 146.08 L 103.88 146.05 L 104.18 146.02 L 104.48 145.99 L 104.78 145.96 L 105.09 145.92 L 105.39 145.89 L 105.69 145.86 L 105.99 145.82 L 106.30 145.78 L 106.60 145.74 L 106.90 145.70 L 107.20 145.66 L 107.51 145.62 L 107.81 145.57 L 108.11 145.53 L 108.41 145.48 L 108.72 145.43 L 109.02 145.38 L 109.32 145.33 L 109.62 145.28 L 109.93 145.22 L 110.23 145.16 L 110.53 145.10 L 110.83 145.04 L 111.14 144.98 L 111.44 144.92 L 111.74 144.85 L 112.04 144.78 L 112.35 144.71 L 112.65 144.64 L 112.95 144.57 L 113.25 144.49 L 113.56 144.42 L 113.86 144.34 L 114.16 144.26 L 114.46 144.17 L 114.77 144.09 L 115.07 144.00 L 115.37 143.91 L 115.68 143.82 L 115.98 143.72 L 116.28 143.62 L 116.58 143.53 L 116.89 143.42 L 117.19 143.32 L 117.49 143.21 L 117.79 143.11 L 118.10 143.00 L 118.40 142.88 L 118.70 142.77 L 119.00 142.65 L 119.31 142.53 L 119.61 142.40 L 119.91 142.28 L 120.21 142.15 L 120.52 142.02 L 120.82 141.89 L 121.12 141.75 L 121.42 141.61 L 121.73 141.47 L 122.03 141.33 L 122.33 141.18 L 122.63 141.03 L 122.94 140.88 L 123.24 140.72 L 123.54 140.57 L 123.84 140.41 L 124.15 140.24 L 124.45 140.08 L 124.75 139.91 L 125.05 139.74 L 125.36 139.57 L 125.66 139.39 L 125.96 139.21 L 126.26 139.03 L 126.57 138.84 L 126.87 138.66 L 127.17 138.47 L 127.47 138.27 L 127.78 138.08 L 128.08 137.88 L 128.38 137.68 L 128.69 137.47 L 128.99 137.27 L 129.29 137.06 L 129.59 136.84 L 129.90 136.63 L 130.20 136.41 L 130.50 136.19 L 130.80 135.97 L 131.11 135.74 L 131.41 135.51 L 131.71 135.28 L 132.01 135.05 L 132.32 134.81 L 132.62 134.57 L 132.92 134.33 L 133.22 134.08 L 133.53 133.84 L 133.83 133.59 L 134.13 133.33 L 134.43 133.08 L 134.74 132.82 L 135.04 132.56 L 135.34 132.30 L 135.64 132.03 L 135.95 131.76 L 136.25 131.49 L 136.55 131.22 L 136.85 130.95 L 137.16 130.67 L 137.46 130.39 L 137.76 130.11 L 138.06 129.82 L 138.37 129.54 L 138.67 129.25 L 138.97 128.95 L 139.27 128.66 L 139.58 128.36 L 139.88 128.07 L 140.18 127.77 L 140.48 127.46 L 140.79 127.16 L 141.09 126.85 L 141.39 126.54 L 141.70 126.23 L 142.00 125.92 L 142.30 125.61 L 142.60 125.29 L 142.91 124.97 L 143.21 124.65 L 143.51 124.33 L 143.81 124.01 L 144.12 123.68 L 144.42 123.35 L 144.72 123.03 L 145.02 122.70 L 145.33 122.36 L 145.63 122.03 L 145.93 121.69 L 146.23 121.36 L 146.54 121.02 L 146.84 120.68 L 147.14 120.34 L 147.44 119.99 L 147.75 119.65 L 148.05 119.31 L 148.35 118.96 L 148.65 118.61 L 148.96 118.26 L 149.26 117.91 L 149.56 117.56 L 149.86 117.21 L 150.17 116.85 L 150.47 116.50 L 150.77 116.14 L 151.07 115.79 L 151.38 115.43 L 151.68 115.07 L 151.98 114.71 L 152.28 114.35 L 152.59 113.99 L 152.89 113.63 L 153.19 113.26 L 153.49 112.90 L 153.80 112.54 L 154.10 112.17 L 154.40 111.81 L 154.71 111.44 L 155.01 111.07 L 155.31 110.71 L 155.61 110.34 L 155.92 109.97 L 156.22 109.60 L 156.52 109.23 L 156.82 108.86 L 157.13 108.49 L 157.43 108.12 L 157.73 107.75 L 158.03 107.38 L 158.34 107.01 L 158.64 106.64 L 158.94 106.27 L 159.24 105.90 L 159.55 105.53 L 159.85 105.16 L 160.15 104.79 L 160.45 104.42 L 160.76 104.05 L 161.06 103.68 L 161.36 103.30 L 161.66 102.93 L 161.97 102.56 L 162.27 102.19 L 162.57 101.82 L 162.87 101.45 L 163.18 101.08 L 163.48 100.71 L 163.78 100.35 L 164.08 99.98 L 164.39 99.61 L 164.69 99.24 L 164.99 98.87 L 165.29 98.51 L 165.60 98.14 L 165.90 97.77 L 166.20 97.41 L 166.51 97.04 L 166.81 96.68 L 167.11 96.31 L 167.41 95.95 L 167.72 95.59 L 168.02 95.23 L 168.32 94.87 L 168.62 94.51 L 168.93 94.15 L 169.23 93.79 L 169.53 93.43 L 169.83 93.07 L 170.14 92.71 L 170.44 92.36 L 170.74 92.00 L 171.04 91.65 L 171.35 91.30 L 171.65 90.94 L 171.95 90.59 L 172.25 90.24 L 172.56 89.89 L 172.86 89.54 L 173.16 89.19 L 173.46 88.85 L 173.77 88.50 L 174.07 88.16 L 174.37 87.81 L 174.67 87.47 L 174.98 87.13 L 175.28 86.79 L 175.58 86.45 L 175.88 86.11 L 176.19 85.77 L 176.49 85.44 L 176.79 85.10 L 177.09 84.77 L 177.40 84.44 L 177.70 84.10 L 178.00 83.77 L 178.30 83.45 L 178.61 83.12 L 178.91 82.79 L 179.21 82.47 L 179.52 82.14 L 179.82 81.82 L 180.12 81.50 L 180.42 81.18 L 180.73 80.86 L 181.03 80.54 L 181.33 80.22 L 181.63 79.91 L 181.94 79.60 L 182.24 79.28 L 182.54 78.97 L 182.84 78.66 L 183.15 78.35 L 183.45 78.05 L 183.75 77.74 L 184.05 77.44 L 184.36 77.13 L 184.66 76.83 L 184.96 76.53 L 185.26 76.23 L 185.57 75.94 L 185.87 75.64 L 186.17 75.34 L 186.47 75.05 L 186.78 74.76 L 187.08 74.47 L 187.38 74.18 L 187.68 73.89 L 187.99 73.61 L 188.29 73.32 L 188.59 73.04 L 188.89 72.76 L 189.20 72.48 L 189.50 72.20 L 189.80 71.92 L 190.10 71.64 L 190.41 71.37 L 190.71 71.10 L 191.01 70.82 L 191.31 70.55 L 191.62 70.28 L 191.92 70.02 L 192.22 69.75 L 192.53 69.49 L 192.83 69.22 L 193.13 68.96 L 193.43 68.70 L 193.74 68.44 L 194.04 68.19 L 194.34 67.93 L 194.64 67.67 L 194.95 67.42 L 195.25 67.17 L 195.55 66.92 L 195.85 66.67 L 196.16 66.42 L 196.46 66.18 L 196.76 65.93 L 197.06 65.69 L 197.37 65.45 L 197.67 65.21 L 197.97 64.97 L 198.27 64.73 L 198.58 64.50 L 198.88 64.26 L 199.18 64.03 L 199.48 63.80 L 199.79 63.57 L 200.09 63.34 L 200.39 63.11 L 200.69 62.89 L 201.00 62.66 L 201.30 62.44 L 201.60 62.22 L 201.90 62.00 L 202.21 61.78 L 202.51 61.56 L 202.81 61.34 L 203.11 61.13 L 203.42 60.92 L 203.72 60.70 L 204.02 60.49 L 204.32 60.28 L 204.63 60.07 L 204.93 59.87 L 205.23 59.66 L 205.54 59.46 L 205.84 59.26 L 206.14 59.05 L 206.44 58.85 L 206.75 58.66 L 207.05 58.46 L 207.35 58.26 L 207.65 58.07 L 207.96 57.87 L 208.26 57.68 L 208.56 57.49 L 208.86 57.30 L 209.17 57.11 L 209.47 56.93 L 209.77 56.74 L 210.07 56.56 L 210.38 56.37 L 210.68 56.19 L 210.98 56.01 L 211.28 55.83 L 211.59 55.65 L 211.89 55.48 L 212.19 55.30 L 212.49 55.12 L 212.80 54.95 L 213.10 54.78 L 213.40 54.61 L 213.70 54.44 L 214.01 54.27 L 214.31 54.10 L 214.61 53.94 L 214.91 53.77 L 215.22 53.61 L 215.52 53.45 L 215.82 53.28 L 216.12 53.12 L 216.43 52.96 L 216.73 52.81 L 217.03 52.65 L 217.33 52.49 L 217.64 52.34 L 217.94 52.19 L 218.24 52.03 L 218.55 51.88 L 218.85 51.73 L 219.15 51.58 L 219.45 51.43 L 219.76 51.29 L 220.06 51.14 L 220.36 51.00 L 220.66 50.85 L 220.97 50.71 L 221.27 50.57 L 221.57 50.43 L 221.87 50.29 L 222.18 50.15 L 222.48 50.01 L 222.78 49.88 L 223.08 49.74 L 223.39 49.61 L 223.69 49.47 L 223.99 49.34 L 224.29 49.21 L 224.60 49.08 L 224.90 48.95 L 225.20 48.82 L 225.50 48.69 L 225.81 48.57 L 226.11 48.44 L 226.41 48.32 L 226.71 48.19 L 227.02 48.07 L 227.32 47.95 L 227.62 47.83 L 227.92 47.71 L 228.23 47.59 L 228.53 47.47 L 228.83 47.35 L 229.13 47.24 L 229.44 47.12 L 229.74 47.01 L 230.04 46.89 L 230.34 46.78 L 230.65 46.67 L 230.95 46.56 L 231.25 46.45 L 231.56 46.34 L 231.86 46.23 L 232.16 46.12 L 232.46 46.02 L 232.77 45.91 L 233.07 45.81 L 233.37 45.70 L 233.67 45.60 L 233.98 45.50 L 234.28 45.39 L 234.58 45.29 L 234.88 45.19 L 235.19 45.09 L 235.49 44.99 L 235.79 44.90 L 236.09 44.80 L 236.40 44.70 L 236.70 44.61 L 237.00 44.51 L 237.30 44.42 L 237.61 44.33 L 237.91 44.23 L 238.21 44.14 L 238.51 44.05 L 238.82 43.96 L 239.12 43.87 L 239.42 43.78 L 239.72 43.69 L 240.03 43.61 L 240.33 43.52 L 240.63 43.43 L 240.93 43.35 L 241.24 43.26 L 241.54 43.18 L 241.84 43.10 L 242.14 43.01 L 242.45 42.93 L 242.75 42.85 L 243.05 42.77 L 243.35 42.69 L 243.66 42.61 L 243.96 42.53 L 244.26 42.45 L 244.57 42.37 L 244.87 42.30 L 245.17 42.22 L 245.47 42.15 L 245.78 42.07 L 246.08 42.00 L 246.38 41.92 L 246.68 41.85 L 246.99 41.78 L 247.29 41.71 L 247.59 41.63 L 247.89 41.56 L 248.20 41.49 L 248.50 41.42 L 248.80 41.35 L 249.10 41.29 L 249.41 41.22 L 249.71 41.15 L 250.01 41.08 L 250.31 41.02 L 250.62 40.95 L 250.92 40.89 L 251.22 40.82 L 251.52 40.76 L 251.83 40.69 L 252.13 40.63 L 252.43 40.57 L 252.73 40.51 L 253.04 40.44 L 253.34 40.38 L 253.64 40.32 L 253.94 40.26 L 254.25 40.20 L 254.55 40.14 L 254.85 40.09 L 255.15 40.03 L 255.46 39.97 L 255.76 39.91 L 256.06 39.86 L 256.36 39.80 L 256.67 39.75 L 256.97 39.69 L 257.27 39.64 L 257.58 39.58 L 257.88 39.53 L 258.18 39.47 L 258.48 39.42 L 258.79 39.37 L 259.09 39.32 L 259.39 39.27 L 259.69 39.21 L 260.00 39.16 L 260.30 39.11 L 260.60 39.06 L 260.90 39.01 L 261.21 38.96 L 261.51 38.92 L 261.81 38.87 L 262.11 38.82 L 262.42 38.77 L 262.72 38.73 L 263.02 38.68 L 263.32 38.63 L 263.63 38.59 L 263.93 38.54 L 264.23 38.50 L 264.53 38.45 L 264.84 38.41 L 265.14 38.36 L 265.44 38.32 L 265.74 38.28 L 266.05 38.23 L 266.35 38.19 L 266.65 38.15 L 266.95 38.11 L 267.26 38.07 L 267.56 38.02 L 267.86 37.98 L 268.16 37.94 L 268.47 37.90 L 268.77 37.86 L 269.07 37.82 L 269.37 37.79 L 269.68 37.75 L 269.98 37.71 L 270.28 37.67 L 270.59 37.63 L 270.89 37.60 L 271.19 37.56 L 271.49 37.52 L 271.80 37.49 L 272.10 37.45 L 272.40 37.41 L 272.70 37.38 L 273.01 37.34 L 273.31 37.31 L 273.61 37.27 L 273.91 37.24 L 274.22 37.21 L 274.52 37.17 L 274.82 37.14 L 275.12 37.10 L 275.43 37.07 L 275.73 37.04 L 276.03 37.01 L 276.33 36.98 L 276.64 36.94 L 276.94 36.91 L 277.24 36.88 L 277.54 36.85 L 277.85 36.82 L 278.15 36.79 L 278.45 36.76 L 278.75 36.73 L 279.06 36.70 L 279.36 36.67 L 279.66 36.64 L 279.96 36.61 L 280.27 36.58 L 280.57 36.55 L 280.87 36.53 L 281.17 36.50 L 281.48 36.47 L 281.78 36.44 L 282.08 36.42 L 282.38 36.39 L 282.69 36.36 L 282.99 36.34 L 283.29 36.31 L 283.60 36.28 L 283.90 36.26 L 284.20 36.23 L 284.50 36.21 L 284.81 36.18 L 285.11 36.16 L 285.41 36.13 L 285.71 36.11 L 286.02 36.08 L 286.32 36.06 L 286.62 36.04 L 286.92 36.01 L 287.23 35.99 L 287.53 35.97 L 287.83 35.94 L 288.13 35.92 L 288.44 35.90 L 288.74 35.87 L 289.04 35.85 L 289.34 35.83 L 289.65 35.81 L 289.95 35.79 L 290.25 35.77 L 290.55 35.74 L 290.86 35.72 L 291.16 35.70 L 291.46 35.68 L 291.76 35.66 L 292.07 35.64 L 292.37 35.62 L 292.67 35.60 L 292.97 35.58 L 293.28 35.56 L 293.58 35.54 L 293.88 35.52 L 294.18 35.50 L 294.49 35.48 L 294.79 35.46 L 295.09 35.45 L 295.39 35.43 L 295.70 35.41 L 296.00 35.39" fill="none" stroke="#7E8692" stroke-width="2.3" stroke-linecap="round" stroke-linejoin="round"/>
</svg>
