<svg xmlns="http://www.w3.org/2000/svg" viewBox="0 0 320 180" width="320" height="180">
  <rect width="320" height="180" fill="#F4F5F7"/>
  <path d="M 24.00 152.79 L 24.30 152.79 L 24.61 152.79 L 24.91 152.79 L 25.21 152.79 L 25.51 152.78 L 25.82 152.78 L 26.12 152.78 L 26.42 152.78 L 26.72 152.78 L 27.03 152.77 L 27.33 152.77 L 27.63 152.77 L 27.93 152.77 L 28.24 152.77 L 28.54 152.76 L 28.84 152.76 L 29.14 152.76 L 29.45 152.76 L 29.75 152.75 L 30.05 152.75 L 30.35 152.75 L 30.66 152.75 L 30.96 152.74 L 31.26 152.74 L 31.56 152.74 L 31.87 152.74 L 32.17 152.73 L 32.47 152.73 L 32.77 152.73 L 33.08 152.73 L 33.38 152.72 L 33.68 152.72 L 33.98 152.72 L 34.29 152.72 L 34.59 152.71 L 34.89 152.71 L 35.19 152.71 L 35.50 152.71 L 35.80 152.70 L 36.10 152.70 L 36.40 152.70 L 36.71 152.69 L 37.01 152.69 L 37.31 152.69 L 37.62 152.68 L 37.92 152.68 L 38.22 152.68 L 38.52 152.68 L 38.83 152.67 L 39.13 152.67 L 39.43 152.67 L 39.73 152.66 L 40.04 152.66 L 40.34 152.66 L 40.64 152.65 L 40.94 152.65 L 41.25 152.65 L 41.55 152.64 L 41.85 152.64 L 42.15 152.63 L 42.46 152.63 L 42.76 152.63 L 43.06 152.62 L 43.36 152.62 L 43.67 152.62 L 43.97 152.61 L 44.27 152.61 L 44.57 152.60 L 44.88 152.60 L 45.18 152.60 L 45.48 152.59 L 45.78 152.59 L 46.09 152.58 L 46.39 152.58 L 46.69 152.58 L 46.99 152.57 L 47.30 152.57 L 47.60 152.56 L 47.90 152.56 L 48.20 152.55 L 48.51 152.55 L 48.81 152.54 L 49.11 152.54 L 49.41 152.53 L 49.72 152.53 L 50.02 152.53 L 50.32 152.52 L 50.63 152.52 L 50.93 152.51 L 51.23 152.51 L 51.53 152.50 L 51.84 152.50 L 52.14 152.49 L 52.44 152.48 L 52.74 152.48 L 53.05 152.47 L 53.35 152.47 L 53.65 152.46 L 53.95 152.46 L 54.26 152.45 L 54.56 152.45 L 54.86 152.44 L 55.16 152.43 L 55.47 152.43 L 55.77 152.42 L 56.07 152.42 L 56.37 152.41 L 56.68 152.41 L 56.98 152.40 L 57.28 152.39 L 57.58 152.39 L 57.89 152.38 L 58.19 152.37 L 58.49 152.37 L 58.79 152.36 L 59.10 152.35 L 59.40 152.35 L 59.70 152.34 L 60.00 152.33 L 60.31 152.33 L 60.61 152.32 L 60.91 152.31 L 61.21 152.31 L 61.52 152.30 L 61.82 152.29 L 62.12 152.28 L 62.42 152.28 L 62.73 152.27 L 63.03 152.26 L 63.33 152.25 L 63.64 152.24 L 63.94 152.24 L 64.24 152.23 L 64.54 152.22 L 64.85 152.21 L 65.15 152.20 L 65.45 152.20 L 65.75 152.19 L 66.06 152.18 L 66.36 152.17 L 66.66 152.16 L 66.96 152.15 L 67.27 152.14 L 67.57 152.13 L 67.87 152.13 L 68.17 152.12 L 68.48 152.11 L 68.78 152.10 L 69.08 152.09 L 69.38 152.08 L 69.69 152.07 L 69.99 152.06 L 70.29 152.05 L 70.59 152.04 L 70.90 152.03 L 71.20 152.02 L 71.50 152.01 L 71.80 152.00 L 72.11 151.99 L 72.41 151.98 L 72.71 151.97 L 73.01 151.95 L 73.32 151.94 L 73.62 151.93 L 73.92 151.92 L 74.22 151.91 L 74.53 151.90 L 74.83 151.89 L 75.13 151.87 L 75.43 151.86 L 75.74 151.85 L 76.04 151.84 L 76.34 151.83 L 76.65 151.81 L 76.95 151.80 L 77.25 151.79 L 77.55 151.78 L 77.86 151.76 L 78.16 151.75 L 78.46 151.74 L 78.76 151.72 L 79.07 151.71 L 79.37 151.70 L 79.67 151.68 L 79.97 151.67 L 80.28 151.65 L 80.58 151.64 L 80.88 151.63 L 81.18 151.61 L 81.49 151.60 L 81.79 151.58 L 82.09 151.57 L 82.39 151.55 L 82.70 151.54 L 83.00 151.52 L 83.30 151.50 L 83.60 151.49 L 83.91 151.47 L 84.21 151.46 L 84.51 151.44 L 84.81 151.42 L 85.12 151.41 L 85.42 151.39 L 85.72 151.37 L 86.02 151.36 L 86.33 151.34 L 86.63 151.32 L 86.93 151.30 L 87.23 151.29 L 87.54 151.27 L 87.84 151.25 L 88.14 151.23 L 88.44 151.21 L 88.75 151.19 L 89.05 151.17 L 89.35 151.15 L 89.66 151.13 L 89.96 151.11 L 90.26 151.09 L 90.56 151.07 L 90.87 151.05 L 91.17 151.03 L 91.47 151.01 L 91.77 150.99 L 92.08 150.97 L 92.38 150.95 L 92.68 150.93 L 92.98 150.91 L 93.29 150.88 L 93.59 150.86 L 93.89 150.84 L 94.19 150.82 L 94.50 150.79 L 94.80 150.77 L 95.10 150.75 L 95.40 150.72 L 95.71 150.70 L 96.01 150.67 L 96.31 150.65 L 96.61 150.63 L 96.92 150.60 L 97.22 150.58 L 97.52 150.55 L 97.82 150.52 L 98.13 150.50 L 98.43 150.47 L 98.73 150.45 L 99.03 150.42 L 99.34 150.39 L 99.64 150.36 L 99.94 150.34 L 100.24 150.31 L 100.55 150.28 L 100.85 150.25 L 101.15 150.22 L 101.45 150.19 L 101.76 150.16 L 102.06 150.14 L 102.36 150.11 L 102.67 150.08 L 102.97 150.04 L 103.27 150.01 L 103.57 149.98 L 103.88 149.95 L 104.18 149.92 L 104.48 149.89 L 104.78 149.86 L 105.09 149.82 L 105.39 149.79 L 105.69 149.76 L 105.99 149.72 L 106.30 149.69 L 106.60 149.65 L 106.90 149.62 L 107.20 149.58 L 107.51 149.55 L 107.81 149.51 L 108.11 149.48 L 108.41 149.44 L 108.72 149.40 L 109.02 149.37 L 109.32 149.33 L 109.62 149.29 L 109.93 149.25 L 110.23 149.22 L 110.53 149.18 L 110.83 149.14 L 111.14 149.10 L 111.44 149.06 L 111.74 149.02 L 112.04 148.98 L 112.35 148.93 L 112.65 148.89 L 112.95 148.85 L 113.25 148.81 L 113.56 148.77 L 113.86 148.72 L 114.16 148.68 L 114.46 148.64 L 114.77 148.59 L 115.07 148.55 L 115.37 148.50 L 115.68 148.46 L 115.98 148.41 L 116.28 148.36 L 116.58 148.32 L 116.89 148.27 L 117.19 148.22 L 117.49 148.17 L 117.79 148.12 L 118.10 148.07 L 118.40 148.02 L 118.70 147.97 L 119.00 147.92 L 119.31 147.87 L 119.61 147.82 L 119.91 147.77 L 120.21 147.72 L 120.52 147.66 L 120.82 147.61 L 121.12 147.56 L 121.42 147.50 L 121.73 147.45 L 122.03 147.39 L 122.33 147.34 L 122.63 147.28 L 122.94 147.22 L 123.24 147.17 L 123.54 147.11 L 123.84 147.05 L 124.15 146.99 L 124.45 146.93 L 124.75 146.87 L 125.05 146.81 L 125.36 146.75 L 125.66 146.69 L 125.96 146.63 L 126.26 146.56 L 126.57 146.50 L 126.87 146.44 L 127.17 146.37 L 127.47 146.31 L 127.78 146.24 L 128.08 146.18 L 128.38 146.11 L 128.69 146.04 L 128.99 145.98 L 129.29 145.91 L 129.59 145.84 L 129.90 145.77 L 130.20 145.70 L 130.50 145.63 L 130.80 145.56 L 131.11 145.49 L 131.41 145.41 L 131.71 145.34 L 132.01 145.27 L 132.32 145.19 L 132.62 145.12 L 132.92 145.04 L 133.22 144.97 L 133.53 144.89 L 133.83 144.81 L 134.13 144.74 L 134.43 144.66 L 134.74 144.58 L 135.04 144.50 L 135.34 144.42 L 135.64 144.34 L 135.95 144.26 L 136.25 144.17 L 136.55 144.09 L 136.85 144.01 L 137.16 143.92 L 137.46 143.84 L 137.76 143.75 L 138.06 143.67 L 138.37 143.58 L 138.67 143.49 L 138.97 143.40 L 139.27 143.32 L 139.58 143.23 L 139.88 143.14 L 140.18 143.05 L 140.48 142.95 L 140.79 142.86 L 141.09 142.77 L 141.39 142.68 L 141.70 142.58 L 142.00 142.49 L 142.30 142.39 L 142.60 142.29 L 142.91 142.20 L 143.21 142.10 L 143.51 142.00 L 143.81 141.90 L 144.12 141.80 L 144.42 141.70 L 144.72 141.60 L 145.02 141.50 L 145.33 141.39 L 145.63 141.29 L 145.93 141.19 L 146.23 141.08 L 146.54 140.98 L 146.84 140.87 L 147.14 140.76 L 147.44 140.65 L 147.75 140.55 L 148.05 140.44 L 148.35 140.33 L 148.65 140.21 L 148.96 140.10 L 149.26 139.99 L 149.56 139.88 L 149.86 139.76 L 150.17 139.65 L 150.47 139.53 L 150.77 139.42 L 151.07 139.30 L 151.38 139.18 L 151.68 139.06 L 151.98 138.95 L 152.28 138.83 L 152.59 138.70 L 152.89 138.58 L 153.19 138.46 L 153.49 138.34 L 153.80 138.21 L 154.10 138.09 L 154.40 137.96 L 154.71 137.84 L 155.01 137.71 L 155.31 137.58 L 155.61 137.46 L 155.92 137.33 L 156.22 137.20 L 156.52 137.07 L 156.82 136.93 L 157.13 136.80 L 157.43 136.67 L 157.73 136.53 L 158.03 136.40 L 158.34 136.26 L 158.64 136.13 L 158.94 135.99 L 159.24 135.85 L 159.55 135.72 L 159.85 135.58 L 160.15 135.44 L 160.45 135.29 L 160.76 135.15 L 161.06 135.01 L 161.36 134.87 L 161.66 134.72 L 161.97 134.58 L 162.27 134.43 L 162.57 134.29 L 162.87 134.14 L 163.18 133.99 L 163.48 133.84 L 163.78 133.69 L 164.08 133.54 L 164.39 133.39 L 164.69 133.24 L 164.99 133.09 L 165.29 132.94 L 165.60 132.78 L 165.90 132.63 L 166.20 132.47 L 166.51 132.31 L 166.81 132.16 L 167.11 132.00 L 167.41 131.84 L 167.72 131.68 L 168.02 131.52 L 168.32 131.36 L 168.62 131.20 L 168.93 131.04 L 169.23 130.87 L 169.53 130.71 L 169.83 130.54 L 170.14 130.38 L 170.44 130.21 L 170.74 130.05 L 171.04 129.88 L 171.35 129.71 L 171.65 129.54 L 171.95 129.37 L 172.25 129.20 L 172.56 129.03 L 172.86 128.86 L 173.16 128.68 L 173.46 128.51 L 173.77 128.33 L 174.07 128.16 L 174.37 127.98 L 174.67 127.81 L 174.98 127.63 L 175.28 127.45 L 175.58 127.27 L 175.88 127.09 L 176.19 126.91 L 176.49 126.73 L 176.79 126.55 L 177.09 126.37 L 177.40 126.19 L 177.70 126.00 L 178.00 125.82 L 178.30 125.63 L 178.61 125.45 L 178.91 125.26 L 179.21 125.07 L 179.52 124.88 L 179.82 124.70 L 180.12 124.51 L 180.42 124.32 L 180.73 124.13 L 181.03 123.93 L 181.33 123.74 L 181.63 123.55 L 181.94 123.36 L 182.24 123.16 L 182.54 122.97 L 182.84 122.77 L 183.15 122.58 L 183.45 122.38 L 183.75 122.18 L 184.05 121.98 L 184.36 121.79 L 184.66 121.59 L 184.96 121.39 L 185.26 121.19 L 185.57 120.99 L 185.87 120.78 L 186.17 120.58 L 186.47 120.38 L 186.78 120.17 L 187.08 119.97 L 187.38 119.77 L 187.68 119.56 L 187.99 119.35 L 188.29 119.15 L 188.59 118.94 L 188.89 118.73 L 189.20 118.52 L 189.50 118.31 L 189.80 118.10 L 190.10 117.89 L 190.41 117.68 L 190.71 117.47 L 191.01 117.26 L 191.31 117.05 L 191.62 116.83 L 191.92 116.62 L 192.22 116.41 L 192.53 116.19 L 192.83 115.98 L 193.13 115.76 L 193.43 115.54 L 193.74 115.33 L 194.04 115.11 L 194.34 114.89 L 194.64 114.67 L 194.95 114.45 L 195.25 114.23 L 195.55 114.01 L 195.85 113.79 L 196.16 113.57 L 196.46 113.35 L 196.76 113.13 L 197.06 112.90 L 197.37 112.68 L 197.67 112.46 L 197.97 112.23 L 198.27 112.01 L 198.58 111.78 L 198.88 111.56 L 199.18 111.33 L 199.48 111.10 L 199.79 110.88 L 200.09 110.65 L 200.39 110.42 L 200.69 110.19 L 201.00 109.96 L 201.30 109.73 L 201.60 109.50 L 201.90 109.27 L 202.21 109.04 L 202.51 108.81 L 202.81 108.58 L 203.11 108.35 L 203.42 108.11 L 203.72 107.88 L 204.02 107.65 L 204.32 107.41 L 204.63 107.18 L 204.93 106.94 L 205.23 106.71 L 205.54 106.47 L 205.84 106.24 L 206.14 106.00 L 206.44 105.76 L 206.75 105.53 L 207.05 105.29 L 207.35 105.05 L 207.65 104.81 L 207.96 104.57 L 208.26 104.33 L 208.56 104.09 L 208.86 103.85 L 209.17 103.61 L 209.47 103.37 L 209.77 103.13 L 210.07 102.89 L 210.38 102.65 L 210.68 102.41 L 210.98 102.16 L 211.28 101.92 L 211.59 101.68 L 211.89 101.43 L 212.19 101.19 L 212.49 100.94 L 212.80 100.70 L 213.10 100.45 L 213.40 100.21 L 213.70 99.96 L 214.01 99.72 L 214.31 99.47 L 214.61 99.22 L 214.91 98.98 L 215.22 98.73 L 215.52 98.48 L 215.82 98.23 L 216.12 97.98 L 216.43 97.74 L 216.73 97.49 L 217.03 97.24 L 217.33 96.99 L 217.64 96.74 L 217.94 96.49 L 218.24 96.24 L 218.55 95.99 L 218.85 95.73 L 219.15 95.48 L 219.45 95.23 L 219.76 94.98 L 220.06 94.73 L 220.36 94.47 L 220.66 94.22 L 220.97 93.97 L 221.27 93.72 L 221.57 93.46 L 221.87 93.21 L 222.18 92.95 L 222.48 92.70 L 222.78 92.44 L 223.08 92.19 L 223.39 91.93 L 223.69 91.68 L 223.99 91.42 L 224.29 91.17 L 224.60 90.91 L 224.90 90.65 L 225.20 90.40 L 225.50 90.14 L 225.81 89.88 L 226.11 89.63 L 226.41 89.37 L 226.71 89.11 L 227.02 88.85 L 227.32 88.60 L 227.62 88.34 L 227.92 88.08 L 228.23 87.82 L 228.53 87.56 L 228.83 87.30 L 229.13 87.04 L 229.44 86.78 L 229.74 86.52 L 230.04 86.26 L 230.34 86.00 L 230.65 85.74 L 230.95 85.48 L 231.25 85.22 L 231.56 84.96 L 231.86 84.70 L 232.16 84.43 L 232.46 84.17 L 232.77 83.91 L 233.07 83.65 L 233.37 83.39 L 233.67 83.12 L 233.98 82.86 L 234.28 82.60 L 234.58 82.33 L 234.88 82.07 L 235.19 81.81 L 235.49 81.54 L 235.79 81.28 L 236.09 81.02 L 236.40 80.75 L 236.70 80.49 L 237.00 80.22 L 237.30 79.96 L 237.61 79.69 L 237.91 79.43 L 238.21 79.16 L 238.51 78.90 L 238.82 78.63 L 239.12 78.37 L 239.42 78.10 L 239.72 77.84 L 240.03 77.57 L 240.33 77.30 L 240.63 77.04 L 240.93 76.77 L 241.24 76.50 L 241.54 76.24 L 241.84 75.97 L 242.14 75.70 L 242.45 75.44 L 242.75 75.17 L 243.05 74.90 L 243.35 74.63 L 243.66 74.37 L 243.96 74.10 L 244.26 73.83 L 244.57 73.56 L 244.87 73.29 L 245.17 73.03 L 245.47 72.76 L 245.78 72.49 L 246.08 72.22 L 246.38 71.95 L 246.68 71.68 L 246.99 71.41 L 247.29 71.14 L 247.59 70.87 L 247.89 70.60 L 248.20 70.34 L 248.50 70.07 L 248.80 69.80 L 249.10 69.53 L 249.41 69.26 L 249.71 68.99 L 250.01 68.72 L 250.31 68.45 L 250.62 68.17 L 250.92 67.90 L 251.22 67.63 L 251.52 67.36 L 251.83 67.09 L 252.13 66.82 L 252.43 66.55 L 252.73 66.28 L 253.04 66.01 L 253.34 65.74 L 253.64 65.46 L 253.94 65.19 L 254.25 64.92 L 254.55 64.65 L 254.85 64.38 L 255.15 64.11 L 255.46 63.83 L 255.76 63.56 L 256.06 63.29 L 256.36 63.02 L 256.67 62.75 L 256.97 62.47 L 257.27 62.20 L 257.58 61.93 L 257.88 61.66 L 258.18 61.38 L 258.48 61.11 L 258.79 60.84 L 259.09 60.56 L 259.39 60.29 L 259.69 60.02 L 260.00 59.74 L 260.30 59.47 L 260.60 59.20 L 260.90 58.92 L 261.21 58.65 L 261.51 58.38 L 261.81 58.10 L 262.11 57.83 L 262.42 57.56 L 262.72 57.28 L 263.02 57.01 L 263.32 56.73 L 263.63 56.46 L 263.93 56.19 L 264.23 55.91 L 264.53 55.64 L 264.84 55.36 L 265.14 55.09 L 265.44 54.82 L 265.74 54.54 L 266.05 54.27 L 266.35 53.99 L 266.65 53.72 L 266.95 53.44 L 267.26 53.17 L 267.56 52.89 L 267.86 52.62 L 268.16 52.34 L 268.47 52.07 L 268.77 51.79 L 269.07 51.52 L 269.37 51.24 L 269.68 50.97 L 269.98 50.69 L 270.28 50.42 L 270.59 50.14 L 270.89 49.87 L 271.19 49.59 L 271.49 49.31 L 271.80 49.04 L 272.10 48.76 L 272.40 48.49 L 272.70 48.21 L 273.01 47.94 L 273.31 47.66 L 273.61 47.38 L 273.91 47.11 L 274.22 46.83 L 274.52 46.56 L 274.82 46.28 L 275.12 46.00 L 275.43 45.73 L 275.73 45.45 L 276.03 45.18 L 276.33 44.90 L 276.64 44.62 L 276.94 44.35 L 277.24 44.07 L 277.54 43.79 L 277.85 43.52 L 278.15 43.24 L 278.45 42.96 L 278.75 42.69 L 279.06 42.41 L 279.36 42.13 L 279.66 41.86 L 279.96 41.58 L 280.27 41.30 L 280.57 41.03 L 280.87 40.75 L 281.17 40.47 L 281.48 40.20 L 281.78 39.92 L 282.08 39.64 L 282.38 39.37 L 282.69 39.09 L 282.99 38.81 L 283.29 38.53 L 283.60 38.26 L 283.90 37.98 L 284.20 37.70 L 284.50 37.42 L 284.81 37.15 L 285.11 36.87 L 285.41 36.59 L 285.71 36.32 L 286.02 36.04 L 286.32 35.76 L 286.62 35.48 L 286.92 35.21 L 287.23 34.93 L 287.53 34.65 L 287.83 34.37 L 288.13 34.10 L 288.44 33.82 L 288.74 33.54 L 289.04 33.26 L 289.34 32.98 L 289.65 32.71 L 289.95 32.43 L 290.25 32.15 L 290.55 31.87 L 290.86 31.60 L 291.16 31.32 L 291.46 31.04 L 291.76 30.76 L 292.07 30.48 L 292.37 30.21 L 292.67 29.93 L 292.97 29.65 L 293.28 29.37 L 293.58 29.09 L 293.88 28.82 L 294.18 28.54 L 294.49 28.26 L 294.79 27.98 L 295.09 27.70 L 295.39 27.42 L 295.70 27.15 L 296.00 26.87" fill="none" stroke="#7E8692" stroke-width="2.3" stroke-linecap="round" stroke-linejoin="round"/>
</svg>
