<svg xmlns="http://www.w3.org/2000/svg" viewBox="0 0 320 180" width="320" height="180">
  <rect width="320" height="180" fill="#F4F5F7"/>
  <path d="M 18.00 28.63 L 18.32 29.33 L 18.63 30.03 L 18.95 30.72 L 19.26 31.40 L 19.58 32.09 L 19.90 32.77 L 20.21 33.44 L 20.53 34.12 L 20.84 34.79 L 21.16 35.45 L 21.47 36.11 L 21.79 36.77 L 22.11 37.43 L 22.42 38.08 L 22.74 38.72 L 23.05 39.37 L 23.37 40.01 L 23.69 40.64 L 24.00 41.28 L 24.32 41.91 L 24.63 42.53 L 24.95 43.16 L 25.27 43.78 L 25.58 44.39 L 25.90 45.01 L 26.21 45.62 L 26.53 46.22 L 26.85 46.83 L 27.16 47.43 L 27.48 48.02 L 27.79 48.62 L 28.11 49.21 L 28.42 49.79 L 28.74 50.38 L 29.06 50.96 L 29.37 51.53 L 29.69 52.11 L 30.00 52.68 L 30.32 53.25 L 30.64 53.81 L 30.95 54.37 L 31.27 54.93 L 31.58 55.49 L 31.90 56.04 L 32.22 56.59 L 32.53 57.14 L 32.85 57.68 L 33.16 58.22 L 33.48 58.76 L 33.80 59.29 L 34.11 59.82 L 34.43 60.35 L 34.74 60.88 L 35.06 61.40 L 35.37 61.92 L 35.69 62.44 L 36.01 62.95 L 36.32 63.47 L 36.64 63.97 L 36.95 64.48 L 37.27 64.98 L 37.59 65.48 L 37.90 65.98 L 38.22 66.48 L 38.53 66.97 L 38.85 67.46 L 39.17 67.95 L 39.48 68.43 L 39.80 68.91 L 40.11 69.39 L 40.43 69.87 L 40.75 70.34 L 41.06 70.81 L 41.38 71.28 L 41.69 71.75 L 42.01 72.21 L 42.32 72.67 L 42.64 73.13 L 42.96 73.58 L 43.27 74.04 L 43.59 74.49 L 43.90 74.94 L 44.22 75.38 L 44.54 75.82 L 44.85 76.26 L 45.17 76.70 L 45.48 77.14 L 45.80 77.57 L 46.12 78.00 L 46.43 78.43 L 46.75 78.86 L 47.06 79.28 L 47.38 79.70 L 47.70 80.12 L 48.01 80.54 L 48.33 80.95 L 48.64 81.37 L 48.96 81.78 L 49.27 82.18 L 49.59 82.59 L 49.91 82.99 L 50.22 83.39 L 50.54 83.79 L 50.85 84.19 L 51.17 84.58 L 51.49 84.97 L 51.80 85.36 L 52.12 85.75 L 52.43 86.14 L 52.75 86.52 L 53.07 86.90 L 53.38 87.28 L 53.70 87.66 L 54.01 88.03 L 54.33 88.40 L 54.65 88.77 L 54.96 89.14 L 55.28 89.51 L 55.59 89.87 L 55.91 90.23 L 56.22 90.59 L 56.54 90.95 L 56.86 91.31 L 57.17 91.66 L 57.49 92.01 L 57.80 92.36 L 58.12 92.71 L 58.44 93.06 L 58.75 93.40 L 59.07 93.74 L 59.38 94.09 L 59.70 94.42 L 60.02 94.76 L 60.33 95.09 L 60.65 95.43 L 60.96 95.76 L 61.28 96.09 L 61.60 96.41 L 61.91 96.74 L 62.23 97.06 L 62.54 97.38 L 62.86 97.70 L 63.17 98.02 L 63.49 98.33 L 63.81 98.65 L 64.12 98.96 L 64.44 99.27 L 64.75 99.58 L 65.07 99.89 L 65.39 100.19 L 65.70 100.49 L 66.02 100.80 L 66.33 101.10 L 66.65 101.39 L 66.97 101.69 L 67.28 101.98 L 67.60 102.28 L 67.91 102.57 L 68.23 102.86 L 68.55 103.15 L 68.86 103.43 L 69.18 103.72 L 69.49 104.00 L 69.81 104.28 L 70.12 104.56 L 70.44 104.84 L 70.76 105.11 L 71.07 105.39 L 71.39 105.66 L 71.70 105.93 L 72.02 106.20 L 72.34 106.47 L 72.65 106.74 L 72.97 107.00 L 73.28 107.27 L 73.60 107.53 L 73.92 107.79 L 74.23 108.05 L 74.55 108.30 L 74.86 108.56 L 75.18 108.81 L 75.49 109.07 L 75.81 109.32 L 76.13 109.57 L 76.44 109.82 L 76.76 110.06 L 77.07 110.31 L 77.39 110.55 L 77.71 110.79 L 78.02 111.03 L 78.34 111.27 L 78.65 111.51 L 78.97 111.75 L 79.29 111.98 L 79.60 112.22 L 79.92 112.45 L 80.23 112.68 L 80.55 112.91 L 80.87 113.14 L 81.18 113.36 L 81.50 113.59 L 81.81 113.81 L 82.13 114.03 L 82.44 114.26 L 82.76 114.48 L 83.08 114.69 L 83.39 114.91 L 83.71 115.13 L 84.02 115.34 L 84.34 115.55 L 84.66 115.77 L 84.97 115.98 L 85.29 116.18 L 85.60 116.39 L 85.92 116.60 L 86.24 116.80 L 86.55 117.01 L 86.87 117.21 L 87.18 117.41 L 87.50 117.61 L 87.82 117.81 L 88.13 118.01 L 88.45 118.20 L 88.76 118.40 L 89.08 118.59 L 89.39 118.79 L 89.71 118.98 L 90.03 119.17 L 90.34 119.36 L 90.66 119.54 L 90.97 119.73 L 91.29 119.91 L 91.61 120.10 L 91.92 120.28 L 92.24 120.46 L 92.55 120.64 L 92.87 120.82 L 93.19 121.00 L 93.50 121.18 L 93.82 121.35 L 94.13 121.53 L 94.45 121.70 L 94.77 121.87 L 95.08 122.04 L 95.40 122.21 L 95.71 122.38 L 96.03 122.55 L 96.34 122.72 L 96.66 122.88 L 96.98 123.05 L 97.29 123.21 L 97.61 123.37 L 97.92 123.53 L 98.24 123.69 L 98.56 123.85 L 98.87 124.01 L 99.19 124.17 L 99.50 124.32 L 99.82 124.48 L 100.14 124.63 L 100.45 124.78 L 100.77 124.93 L 101.08 125.08 L 101.40 125.23 L 101.72 125.38 L 102.03 125.53 L 102.35 125.68 L 102.66 125.82 L 102.98 125.96 L 103.29 126.11 L 103.61 126.25 L 103.93 126.39 L 104.24 126.53 L 104.56 126.67 L 104.87 126.81 L 105.19 126.94 L 105.51 127.08 L 105.82 127.22 L 106.14 127.35 L 106.45 127.48 L 106.77 127.61 L 107.09 127.75 L 107.40 127.88 L 107.72 128.00 L 108.03 128.13 L 108.35 128.26 L 108.67 128.39 L 108.98 128.51 L 109.30 128.63 L 109.61 128.76 L 109.93 128.88 L 110.24 129.00 L 110.56 129.12 L 110.88 129.24 L 111.19 129.36 L 111.51 129.48 L 111.82 129.59 L 112.14 129.71 L 112.46 129.83 L 112.77 129.94 L 113.09 130.05 L 113.40 130.16 L 113.72 130.28 L 114.04 130.39 L 114.35 130.50 L 114.67 130.60 L 114.98 130.71 L 115.30 130.82 L 115.62 130.92 L 115.93 131.03 L 116.25 131.13 L 116.56 131.24 L 116.88 131.34 L 117.19 131.44 L 117.51 131.54 L 117.83 131.64 L 118.14 131.74 L 118.46 131.84 L 118.77 131.93 L 119.09 132.03 L 119.41 132.13 L 119.72 132.22 L 120.04 132.31 L 120.35 132.41 L 120.67 132.50 L 120.99 132.59 L 121.30 132.68 L 121.62 132.77 L 121.93 132.86 L 122.25 132.95 L 122.57 133.03 L 122.88 133.12 L 123.20 133.21 L 123.51 133.29 L 123.83 133.37 L 124.14 133.46 L 124.46 133.54 L 124.78 133.62 L 125.09 133.70 L 125.41 133.78 L 125.72 133.86 L 126.04 133.94 L 126.36 134.01 L 126.67 134.09 L 126.99 134.17 L 127.30 134.24 L 127.62 134.32 L 127.94 134.39 L 128.25 134.46 L 128.57 134.53 L 128.88 134.60 L 129.20 134.67 L 129.52 134.74 L 129.83 134.81 L 130.15 134.88 L 130.46 134.95 L 130.78 135.01 L 131.09 135.08 L 131.41 135.14 L 131.73 135.21 L 132.04 135.27 L 132.36 135.33 L 132.67 135.39 L 132.99 135.46 L 133.31 135.52 L 133.62 135.58 L 133.94 135.63 L 134.25 135.69 L 134.57 135.75 L 134.89 135.81 L 135.20 135.86 L 135.52 135.92 L 135.83 135.97 L 136.15 136.02 L 136.46 136.08 L 136.78 136.13 L 137.10 136.18 L 137.41 136.23 L 137.73 136.28 L 138.04 136.33 L 138.36 136.38 L 138.68 136.42 L 138.99 136.47 L 139.31 136.52 L 139.62 136.56 L 139.94 136.61 L 140.26 136.65 L 140.57 136.69 L 140.89 136.74 L 141.20 136.78 L 141.52 136.82 L 141.84 136.86 L 142.15 136.90 L 142.47 136.94 L 142.78 136.98 L 143.10 137.01 L 143.41 137.05 L 143.73 137.09 L 144.05 137.12 L 144.36 137.16 L 144.68 137.19 L 144.99 137.22 L 145.31 137.26 L 145.63 137.29 L 145.94 137.32 L 146.26 137.35 L 146.57 137.38 L 146.89 137.41 L 147.21 137.44 L 147.52 137.46 L 147.84 137.49 L 148.15 137.52 L 148.47 137.54 L 148.79 137.57 L 149.10 137.59 L 149.42 137.62 L 149.73 137.64 L 150.05 137.66 L 150.36 137.68 L 150.68 137.70 L 151.00 137.72 L 151.31 137.74 L 151.63 137.76 L 151.94 137.78 L 152.26 137.79 L 152.58 137.81 L 152.89 137.83 L 153.21 137.84 L 153.52 137.86 L 153.84 137.87 L 154.16 137.88 L 154.47 137.90 L 154.79 137.91 L 155.10 137.92 L 155.42 137.93 L 155.74 137.94 L 156.05 137.95 L 156.37 137.95 L 156.68 137.96 L 157.00 137.97 L 157.31 137.98 L 157.63 137.98 L 157.95 137.99 L 158.26 137.99 L 158.58 137.99 L 158.89 138.00 L 159.21 138.00 L 159.53 138.00 L 159.84 138.00 L 160.16 138.00 L 160.47 138.00 L 160.79 138.00 L 161.11 138.00 L 161.42 137.99 L 161.74 137.99 L 162.05 137.99 L 162.37 137.98 L 162.69 137.98 L 163.00 137.97 L 163.32 137.96 L 163.63 137.95 L 163.95 137.95 L 164.26 137.94 L 164.58 137.93 L 164.90 137.92 L 165.21 137.91 L 165.53 137.90 L 165.84 137.88 L 166.16 137.87 L 166.48 137.86 L 166.79 137.84 L 167.11 137.83 L 167.42 137.81 L 167.74 137.79 L 168.06 137.78 L 168.37 137.76 L 168.69 137.74 L 169.00 137.72 L 169.32 137.70 L 169.64 137.68 L 169.95 137.66 L 170.27 137.64 L 170.58 137.62 L 170.90 137.59 L 171.21 137.57 L 171.53 137.54 L 171.85 137.52 L 172.16 137.49 L 172.48 137.46 L 172.79 137.44 L 173.11 137.41 L 173.43 137.38 L 173.74 137.35 L 174.06 137.32 L 174.37 137.29 L 174.69 137.26 L 175.01 137.22 L 175.32 137.19 L 175.64 137.16 L 175.95 137.12 L 176.27 137.09 L 176.59 137.05 L 176.90 137.01 L 177.22 136.98 L 177.53 136.94 L 177.85 136.90 L 178.16 136.86 L 178.48 136.82 L 178.80 136.78 L 179.11 136.74 L 179.43 136.69 L 179.74 136.65 L 180.06 136.61 L 180.38 136.56 L 180.69 136.52 L 181.01 136.47 L 181.32 136.42 L 181.64 136.38 L 181.96 136.33 L 182.27 136.28 L 182.59 136.23 L 182.90 136.18 L 183.22 136.13 L 183.54 136.08 L 183.85 136.02 L 184.17 135.97 L 184.48 135.92 L 184.80 135.86 L 185.11 135.81 L 185.43 135.75 L 185.75 135.69 L 186.06 135.63 L 186.38 135.58 L 186.69 135.52 L 187.01 135.46 L 187.33 135.39 L 187.64 135.33 L 187.96 135.27 L 188.27 135.21 L 188.59 135.14 L 188.91 135.08 L 189.22 135.01 L 189.54 134.95 L 189.85 134.88 L 190.17 134.81 L 190.48 134.74 L 190.80 134.67 L 191.12 134.60 L 191.43 134.53 L 191.75 134.46 L 192.06 134.39 L 192.38 134.32 L 192.70 134.24 L 193.01 134.17 L 193.33 134.09 L 193.64 134.01 L 193.96 133.94 L 194.28 133.86 L 194.59 133.78 L 194.91 133.70 L 195.22 133.62 L 195.54 133.54 L 195.86 133.46 L 196.17 133.37 L 196.49 133.29 L 196.80 133.21 L 197.12 133.12 L 197.43 133.03 L 197.75 132.95 L 198.07 132.86 L 198.38 132.77 L 198.70 132.68 L 199.01 132.59 L 199.33 132.50 L 199.65 132.41 L 199.96 132.31 L 200.28 132.22 L 200.59 132.13 L 200.91 132.03 L 201.23 131.93 L 201.54 131.84 L 201.86 131.74 L 202.17 131.64 L 202.49 131.54 L 202.81 131.44 L 203.12 131.34 L 203.44 131.24 L 203.75 131.13 L 204.07 131.03 L 204.38 130.92 L 204.70 130.82 L 205.02 130.71 L 205.33 130.60 L 205.65 130.50 L 205.96 130.39 L 206.28 130.28 L 206.60 130.16 L 206.91 130.05 L 207.23 129.94 L 207.54 129.83 L 207.86 129.71 L 208.18 129.59 L 208.49 129.48 L 208.81 129.36 L 209.12 129.24 L 209.44 129.12 L 209.76 129.00 L 210.07 128.88 L 210.39 128.76 L 210.70 128.63 L 211.02 128.51 L 211.33 128.39 L 211.65 128.26 L 211.97 128.13 L 212.28 128.00 L 212.60 127.88 L 212.91 127.75 L 213.23 127.61 L 213.55 127.48 L 213.86 127.35 L 214.18 127.22 L 214.49 127.08 L 214.81 126.94 L 215.13 126.81 L 215.44 126.67 L 215.76 126.53 L 216.07 126.39 L 216.39 126.25 L 216.71 126.11 L 217.02 125.96 L 217.34 125.82 L 217.65 125.68 L 217.97 125.53 L 218.28 125.38 L 218.60 125.23 L 218.92 125.08 L 219.23 124.93 L 219.55 124.78 L 219.86 124.63 L 220.18 124.48 L 220.50 124.32 L 220.81 124.17 L 221.13 124.01 L 221.44 123.85 L 221.76 123.69 L 222.08 123.53 L 222.39 123.37 L 222.71 123.21 L 223.02 123.05 L 223.34 122.88 L 223.66 122.72 L 223.97 122.55 L 224.29 122.38 L 224.60 122.21 L 224.92 122.04 L 225.23 121.87 L 225.55 121.70 L 225.87 121.53 L 226.18 121.35 L 226.50 121.18 L 226.81 121.00 L 227.13 120.82 L 227.45 120.64 L 227.76 120.46 L 228.08 120.28 L 228.39 120.10 L 228.71 119.91 L 229.03 119.73 L 229.34 119.54 L 229.66 119.36 L 229.97 119.17 L 230.29 118.98 L 230.61 118.79 L 230.92 118.59 L 231.24 118.40 L 231.55 118.20 L 231.87 118.01 L 232.18 117.81 L 232.50 117.61 L 232.82 117.41 L 233.13 117.21 L 233.45 117.01 L 233.76 116.80 L 234.08 116.60 L 234.40 116.39 L 234.71 116.18 L 235.03 115.98 L 235.34 115.77 L 235.66 115.55 L 235.98 115.34 L 236.29 115.13 L 236.61 114.91 L 236.92 114.69 L 237.24 114.48 L 237.56 114.26 L 237.87 114.03 L 238.19 113.81 L 238.50 113.59 L 238.82 113.36 L 239.13 113.14 L 239.45 112.91 L 239.77 112.68 L 240.08 112.45 L 240.40 112.22 L 240.71 111.98 L 241.03 111.75 L 241.35 111.51 L 241.66 111.27 L 241.98 111.03 L 242.29 110.79 L 242.61 110.55 L 242.93 110.31 L 243.24 110.06 L 243.56 109.82 L 243.87 109.57 L 244.19 109.32 L 244.51 109.07 L 244.82 108.81 L 245.14 108.56 L 245.45 108.30 L 245.77 108.05 L 246.08 107.79 L 246.40 107.53 L 246.72 107.27 L 247.03 107.00 L 247.35 106.74 L 247.66 106.47 L 247.98 106.20 L 248.30 105.93 L 248.61 105.66 L 248.93 105.39 L 249.24 105.11 L 249.56 104.84 L 249.88 104.56 L 250.19 104.28 L 250.51 104.00 L 250.82 103.72 L 251.14 103.43 L 251.45 103.15 L 251.77 102.86 L 252.09 102.57 L 252.40 102.28 L 252.72 101.98 L 253.03 101.69 L 253.35 101.39 L 253.67 101.10 L 253.98 100.80 L 254.30 100.49 L 254.61 100.19 L 254.93 99.89 L 255.25 99.58 L 255.56 99.27 L 255.88 98.96 L 256.19 98.65 L 256.51 98.33 L 256.83 98.02 L 257.14 97.70 L 257.46 97.38 L 257.77 97.06 L 258.09 96.74 L 258.40 96.41 L 258.72 96.09 L 259.04 95.76 L 259.35 95.43 L 259.67 95.09 L 259.98 94.76 L 260.30 94.42 L 260.62 94.09 L 260.93 93.74 L 261.25 93.40 L 261.56 93.06 L 261.88 92.71 L 262.20 92.36 L 262.51 92.01 L 262.83 91.66 L 263.14 91.31 L 263.46 90.95 L 263.78 90.59 L 264.09 90.23 L 264.41 89.87 L 264.72 89.51 L 265.04 89.14 L 265.35 88.77 L 265.67 88.40 L 265.99 88.03 L 266.30 87.66 L 266.62 87.28 L 266.93 86.90 L 267.25 86.52 L 267.57 86.14 L 267.88 85.75 L 268.20 85.36 L 268.51 84.97 L 268.83 84.58 L 269.15 84.19 L 269.46 83.79 L 269.78 83.39 L 270.09 82.99 L 270.41 82.59 L 270.73 82.18 L 271.04 81.78 L 271.36 81.37 L 271.67 80.95 L 271.99 80.54 L 272.30 80.12 L 272.62 79.70 L 272.94 79.28 L 273.25 78.86 L 273.57 78.43 L 273.88 78.00 L 274.20 77.57 L 274.52 77.14 L 274.83 76.70 L 275.15 76.26 L 275.46 75.82 L 275.78 75.38 L 276.10 74.94 L 276.41 74.49 L 276.73 74.04 L 277.04 73.58 L 277.36 73.13 L 277.68 72.67 L 277.99 72.21 L 278.31 71.75 L 278.62 71.28 L 278.94 70.81 L 279.25 70.34 L 279.57 69.87 L 279.89 69.39 L 280.20 68.91 L 280.52 68.43 L 280.83 67.95 L 281.15 67.46 L 281.47 66.97 L 281.78 66.48 L 282.10 65.98 L 282.41 65.48 L 282.73 64.98 L 283.05 64.48 L 283.36 63.97 L 283.68 63.47 L 283.99 62.95 L 284.31 62.44 L 284.63 61.92 L 284.94 61.40 L 285.26 60.88 L 285.57 60.35 L 285.89 59.82 L 286.20 59.29 L 286.52 58.76 L 286.84 58.22 L 287.15 57.68 L 287.47 57.14 L 287.78 56.59 L 288.10 56.04 L 288.42 55.49 L 288.73 54.93 L 289.05 54.37 L 289.36 53.81 L 289.68 53.25 L 290.00 52.68 L 290.31 52.11 L 290.63 51.53 L 290.94 50.96 L 291.26 50.38 L 291.58 49.79 L 291.89 49.21 L 292.21 48.62 L 292.52 48.02 L 292.84 47.43 L 293.15 46.83 L 293.47 46.22 L 293.79 45.62 L 294.10 45.01 L 294.42 44.39 L 294.73 43.78 L 295.05 43.16 L 295.37 42.53 L 295.68 41.91 L 296.00 41.28 L 296.31 40.64 L 296.63 40.01 L 296.95 39.37 L 297.26 38.72 L 297.58 38.08 L 297.89 37.43 L 298.21 36.77 L 298.53 36.11 L 298.84 35.45 L 299.16 34.79 L 299.47 34.12 L 299.79 33.44 L 300.10 32.77 L 300.42 32.09 L 300.74 31.40 L 301.05 30.72 L 301.37 30.03 L 301.68 29.33 L 302.00 28.63" fill="none" stroke="#7E8692" stroke-width="2.3" stroke-linecap="round" stroke-linejoin="round"/>
</svg>
