<svg xmlns="http://www.w3.org/2000/svg" viewBox="0 0 320 180" width="320" height="180">
  <rect width="320" height="180" fill="#F4F5F7"/>
  <path d="M 18.00 147.80 L 18.32 147.78 L 18.63 147.76 L 18.95 147.74 L 19.26 147.72 L 19.58 147.70 L 19.90 147.68 L 20.21 147.66 L 20.53 147.64 L 20.84 147.62 L 21.16 147.60 L 21.47 147.58 L 21.79 147.55 L 22.11 147.53 L 22.42 147.51 L 22.74 147.49 L 23.05 147.47 L 23.37 147.44 L 23.69 147.42 L 24.00 147.40 L 24.32 147.37 L 24.63 147.35 L 24.95 147.33 L 25.27 147.30 L 25.58 147.28 L 25.90 147.25 L 26.21 147.23 L 26.53 147.21 L 26.85 147.18 L 27.16 147.16 L 27.48 147.13 L 27.79 147.10 L 28.11 147.08 L 28.42 147.05 L 28.74 147.03 L 29.06 147.00 L 29.37 146.97 L 29.69 146.95 L 30.00 146.92 L 30.32 146.89 L 30.64 146.86 L 30.95 146.83 L 31.27 146.81 L 31.58 146.78 L 31.90 146.75 L 32.22 146.72 L 32.53 146.69 L 32.85 146.66 L 33.16 146.63 L 33.48 146.60 L 33.80 146.57 L 34.11 146.54 L 34.43 146.51 L 34.74 146.48 L 35.06 146.45 L 35.37 146.41 L 35.69 146.38 L 36.01 146.35 L 36.32 146.32 L 36.64 146.28 L 36.95 146.25 L 37.27 146.22 L 37.59 146.18 L 37.90 146.15 L 38.22 146.12 L 38.53 146.08 L 38.85 146.05 L 39.17 146.01 L 39.48 145.97 L 39.80 145.94 L 40.11 145.90 L 40.43 145.87 L 40.75 145.83 L 41.06 145.79 L 41.38 145.75 L 41.69 145.72 L 42.01 145.68 L 42.32 145.64 L 42.64 145.60 L 42.96 145.56 L 43.27 145.52 L 43.59 145.48 L 43.90 145.44 L 44.22 145.40 L 44.54 145.36 L 44.85 145.32 L 45.17 145.28 L 45.48 145.23 L 45.80 145.19 L 46.12 145.15 L 46.43 145.10 L 46.75 145.06 L 47.06 145.02 L 47.38 144.97 L 47.70 144.93 L 48.01 144.88 L 48.33 144.84 L 48.64 144.79 L 48.96 144.74 L 49.27 144.70 L 49.59 144.65 L 49.91 144.60 L 50.22 144.55 L 50.54 144.50 L 50.85 144.45 L 51.17 144.41 L 51.49 144.36 L 51.80 144.30 L 52.12 144.25 L 52.43 144.20 L 52.75 144.15 L 53.07 144.10 L 53.38 144.05 L 53.70 143.99 L 54.01 143.94 L 54.33 143.88 L 54.65 143.83 L 54.96 143.77 L 55.28 143.72 L 55.59 143.66 L 55.91 143.61 L 56.22 143.55 L 56.54 143.49 L 56.86 143.43 L 57.17 143.37 L 57.49 143.32 L 57.80 143.26 L 58.12 143.20 L 58.44 143.13 L 58.75 143.07 L 59.07 143.01 L 59.38 142.95 L 59.70 142.89 L 60.02 142.82 L 60.33 142.76 L 60.65 142.69 L 60.96 142.63 L 61.28 142.56 L 61.60 142.50 L 61.91 142.43 L 62.23 142.36 L 62.54 142.29 L 62.86 142.22 L 63.17 142.15 L 63.49 142.08 L 63.81 142.01 L 64.12 141.94 L 64.44 141.87 L 64.75 141.80 L 65.07 141.72 L 65.39 141.65 L 65.70 141.57 L 66.02 141.50 L 66.33 141.42 L 66.65 141.35 L 66.97 141.27 L 67.28 141.19 L 67.60 141.11 L 67.91 141.03 L 68.23 140.95 L 68.55 140.87 L 68.86 140.79 L 69.18 140.71 L 69.49 140.63 L 69.81 140.54 L 70.12 140.46 L 70.44 140.37 L 70.76 140.29 L 71.07 140.20 L 71.39 140.11 L 71.70 140.02 L 72.02 139.93 L 72.34 139.84 L 72.65 139.75 L 72.97 139.66 L 73.28 139.57 L 73.60 139.48 L 73.92 139.38 L 74.23 139.29 L 74.55 139.19 L 74.86 139.09 L 75.18 139.00 L 75.49 138.90 L 75.81 138.80 L 76.13 138.70 L 76.44 138.60 L 76.76 138.50 L 77.07 138.39 L 77.39 138.29 L 77.71 138.19 L 78.02 138.08 L 78.34 137.97 L 78.65 137.87 L 78.97 137.76 L 79.29 137.65 L 79.60 137.54 L 79.92 137.43 L 80.23 137.31 L 80.55 137.20 L 80.87 137.09 L 81.18 136.97 L 81.50 136.85 L 81.81 136.74 L 82.13 136.62 L 82.44 136.50 L 82.76 136.38 L 83.08 136.26 L 83.39 136.13 L 83.71 136.01 L 84.02 135.88 L 84.34 135.76 L 84.66 135.63 L 84.97 135.50 L 85.29 135.37 L 85.60 135.24 L 85.92 135.11 L 86.24 134.98 L 86.55 134.84 L 86.87 134.71 L 87.18 134.57 L 87.50 134.43 L 87.82 134.29 L 88.13 134.15 L 88.45 134.01 L 88.76 133.87 L 89.08 133.72 L 89.39 133.58 L 89.71 133.43 L 90.03 133.28 L 90.34 133.13 L 90.66 132.98 L 90.97 132.83 L 91.29 132.68 L 91.61 132.52 L 91.92 132.37 L 92.24 132.21 L 92.55 132.05 L 92.87 131.89 L 93.19 131.73 L 93.50 131.56 L 93.82 131.40 L 94.13 131.23 L 94.45 131.07 L 94.77 130.90 L 95.08 130.73 L 95.40 130.55 L 95.71 130.38 L 96.03 130.20 L 96.34 130.03 L 96.66 129.85 L 96.98 129.67 L 97.29 129.49 L 97.61 129.30 L 97.92 129.12 L 98.24 128.93 L 98.56 128.74 L 98.87 128.55 L 99.19 128.36 L 99.50 128.17 L 99.82 127.97 L 100.14 127.78 L 100.45 127.58 L 100.77 127.38 L 101.08 127.17 L 101.40 126.97 L 101.72 126.76 L 102.03 126.56 L 102.35 126.35 L 102.66 126.14 L 102.98 125.92 L 103.29 125.71 L 103.61 125.49 L 103.93 125.27 L 104.24 125.05 L 104.56 124.83 L 104.87 124.60 L 105.19 124.38 L 105.51 124.15 L 105.82 123.92 L 106.14 123.68 L 106.45 123.45 L 106.77 123.21 L 107.09 122.97 L 107.40 122.73 L 107.72 122.48 L 108.03 122.24 L 108.35 121.99 L 108.67 121.74 L 108.98 121.49 L 109.30 121.23 L 109.61 120.98 L 109.93 120.72 L 110.24 120.45 L 110.56 120.19 L 110.88 119.92 L 111.19 119.66 L 111.51 119.38 L 111.82 119.11 L 112.14 118.83 L 112.46 118.56 L 112.77 118.27 L 113.09 117.99 L 113.40 117.70 L 113.72 117.42 L 114.04 117.12 L 114.35 116.83 L 114.67 116.53 L 114.98 116.24 L 115.30 115.93 L 115.62 115.63 L 115.93 115.32 L 116.25 115.01 L 116.56 114.70 L 116.88 114.38 L 117.19 114.07 L 117.51 113.74 L 117.83 113.42 L 118.14 113.09 L 118.46 112.76 L 118.77 112.43 L 119.09 112.09 L 119.41 111.76 L 119.72 111.41 L 120.04 111.07 L 120.35 110.72 L 120.67 110.37 L 120.99 110.02 L 121.30 109.66 L 121.62 109.30 L 121.93 108.93 L 122.25 108.57 L 122.57 108.20 L 122.88 107.82 L 123.20 107.45 L 123.51 107.07 L 123.83 106.68 L 124.14 106.29 L 124.46 105.90 L 124.78 105.51 L 125.09 105.11 L 125.41 104.71 L 125.72 104.31 L 126.04 103.90 L 126.36 103.49 L 126.67 103.07 L 126.99 102.65 L 127.30 102.23 L 127.62 101.80 L 127.94 101.37 L 128.25 100.93 L 128.57 100.50 L 128.88 100.05 L 129.20 99.61 L 129.52 99.16 L 129.83 98.70 L 130.15 98.24 L 130.46 97.78 L 130.78 97.31 L 131.09 96.84 L 131.41 96.37 L 131.73 95.89 L 132.04 95.40 L 132.36 94.92 L 132.67 94.42 L 132.99 93.93 L 133.31 93.43 L 133.62 92.92 L 133.94 92.41 L 134.25 91.90 L 134.57 91.38 L 134.89 90.85 L 135.20 90.32 L 135.52 89.79 L 135.83 89.25 L 136.15 88.71 L 136.46 88.16 L 136.78 87.61 L 137.10 87.05 L 137.41 86.49 L 137.73 85.92 L 138.04 85.35 L 138.36 84.77 L 138.68 84.19 L 138.99 83.60 L 139.31 83.00 L 139.62 82.41 L 139.94 81.80 L 140.26 81.19 L 140.57 80.58 L 140.89 79.96 L 141.20 79.33 L 141.52 78.70 L 141.84 78.06 L 142.15 77.42 L 142.47 76.77 L 142.78 76.12 L 143.10 75.45 L 143.41 74.79 L 143.73 74.12 L 144.05 73.44 L 144.36 72.75 L 144.68 72.06 L 144.99 71.37 L 145.31 70.66 L 145.63 69.95 L 145.94 69.24 L 146.26 68.52 L 146.57 67.79 L 146.89 67.05 L 147.21 66.31 L 147.52 65.56 L 147.84 64.81 L 148.15 64.05 L 148.47 63.28 L 148.79 62.50 L 149.10 61.72 L 149.42 60.93 L 149.73 60.14 L 150.05 59.33 L 150.36 58.52 L 150.68 57.71 L 151.00 56.88 L 151.31 56.05 L 151.63 55.21 L 151.94 54.36 L 152.26 53.51 L 152.58 52.64 L 152.89 51.77 L 153.21 50.90 L 153.52 50.01 L 153.84 49.12 L 154.16 48.21 L 154.47 47.31 L 154.79 46.39 L 155.10 45.46 L 155.42 44.53 L 155.74 43.58 L 156.05 42.63 L 156.37 41.67 L 156.68 40.70 L 157.00 39.73 L 157.31 38.74 L 157.63 37.75 L 157.95 36.74 L 158.26 35.73 L 158.58 34.71 L 158.89 33.68 L 159.21 32.64 L 159.53 31.59 L 159.84 30.53 L 160.16 30.53 L 160.47 31.59 L 160.79 32.64 L 161.11 33.68 L 161.42 34.71 L 161.74 35.73 L 162.05 36.74 L 162.37 37.75 L 162.69 38.74 L 163.00 39.73 L 163.32 40.70 L 163.63 41.67 L 163.95 42.63 L 164.26 43.58 L 164.58 44.53 L 164.90 45.46 L 165.21 46.39 L 165.53 47.31 L 165.84 48.21 L 166.16 49.12 L 166.48 50.01 L 166.79 50.90 L 167.11 51.77 L 167.42 52.64 L 167.74 53.51 L 168.06 54.36 L 168.37 55.21 L 168.69 56.05 L 169.00 56.88 L 169.32 57.71 L 169.64 58.52 L 169.95 59.33 L 170.27 60.14 L 170.58 60.93 L 170.90 61.72 L 171.21 62.50 L 171.53 63.28 L 171.85 64.05 L 172.16 64.81 L 172.48 65.56 L 172.79 66.31 L 173.11 67.05 L 173.43 67.79 L 173.74 68.52 L 174.06 69.24 L 174.37 69.95 L 174.69 70.66 L 175.01 71.37 L 175.32 72.06 L 175.64 72.75 L 175.95 73.44 L 176.27 74.12 L 176.59 74.79 L 176.90 75.45 L 177.22 76.12 L 177.53 76.77 L 177.85 77.42 L 178.16 78.06 L 178.48 78.70 L 178.80 79.33 L 179.11 79.96 L 179.43 80.58 L 179.74 81.19 L 180.06 81.80 L 180.38 82.41 L 180.69 83.00 L 181.01 83.60 L 181.32 84.19 L 181.64 84.77 L 181.96 85.35 L 182.27 85.92 L 182.59 86.49 L 182.90 87.05 L 183.22 87.61 L 183.54 88.16 L 183.85 88.71 L 184.17 89.25 L 184.48 89.79 L 184.80 90.32 L 185.11 90.85 L 185.43 91.38 L 185.75 91.90 L 186.06 92.41 L 186.38 92.92 L 186.69 93.43 L 187.01 93.93 L 187.33 94.42 L 187.64 94.92 L 187.96 95.40 L 188.27 95.89 L 188.59 96.37 L 188.91 96.84 L 189.22 97.31 L 189.54 97.78 L 189.85 98.24 L 190.17 98.70 L 190.48 99.16 L 190.80 99.61 L 191.12 100.05 L 191.43 100.50 L 191.75 100.93 L 192.06 101.37 L 192.38 101.80 L 192.70 102.23 L 193.01 102.65 L 193.33 103.07 L 193.64 103.49 L 193.96 103.90 L 194.28 104.31 L 194.59 104.71 L 194.91 105.11 L 195.22 105.51 L 195.54 105.90 L 195.86 106.29 L 196.17 106.68 L 196.49 107.07 L 196.80 107.45 L 197.12 107.82 L 197.43 108.20 L 197.75 108.57 L 198.07 108.93 L 198.38 109.30 L 198.70 109.66 L 199.01 110.02 L 199.33 110.37 L 199.65 110.72 L 199.96 111.07 L 200.28 111.41 L 200.59 111.76 L 200.91 112.09 L 201.23 112.43 L 201.54 112.76 L 201.86 113.09 L 202.17 113.42 L 202.49 113.74 L 202.81 114.07 L 203.12 114.38 L 203.44 114.70 L 203.75 115.01 L 204.07 115.32 L 204.38 115.63 L 204.70 115.93 L 205.02 116.24 L 205.33 116.53 L 205.65 116.83 L 205.96 117.12 L 206.28 117.42 L 206.60 117.70 L 206.91 117.99 L 207.23 118.27 L 207.54 118.56 L 207.86 118.83 L 208.18 119.11 L 208.49 119.38 L 208.81 119.66 L 209.12 119.92 L 209.44 120.19 L 209.76 120.45 L 210.07 120.72 L 210.39 120.98 L 210.70 121.23 L 211.02 121.49 L 211.33 121.74 L 211.65 121.99 L 211.97 122.24 L 212.28 122.48 L 212.60 122.73 L 212.91 122.97 L 213.23 123.21 L 213.55 123.45 L 213.86 123.68 L 214.18 123.92 L 214.49 124.15 L 214.81 124.38 L 215.13 124.60 L 215.44 124.83 L 215.76 125.05 L 216.07 125.27 L 216.39 125.49 L 216.71 125.71 L 217.02 125.92 L 217.34 126.14 L 217.65 126.35 L 217.97 126.56 L 218.28 126.76 L 218.60 126.97 L 218.92 127.17 L 219.23 127.38 L 219.55 127.58 L 219.86 127.78 L 220.18 127.97 L 220.50 128.17 L 220.81 128.36 L 221.13 128.55 L 221.44 128.74 L 221.76 128.93 L 222.08 129.12 L 222.39 129.30 L 222.71 129.49 L 223.02 129.67 L 223.34 129.85 L 223.66 130.03 L 223.97 130.20 L 224.29 130.38 L 224.60 130.55 L 224.92 130.73 L 225.23 130.90 L 225.55 131.07 L 225.87 131.23 L 226.18 131.40 L 226.50 131.56 L 226.81 131.73 L 227.13 131.89 L 227.45 132.05 L 227.76 132.21 L 228.08 132.37 L 228.39 132.52 L 228.71 132.68 L 229.03 132.83 L 229.34 132.98 L 229.66 133.13 L 229.97 133.28 L 230.29 133.43 L 230.61 133.58 L 230.92 133.72 L 231.24 133.87 L 231.55 134.01 L 231.87 134.15 L 232.18 134.29 L 232.50 134.43 L 232.82 134.57 L 233.13 134.71 L 233.45 134.84 L 233.76 134.98 L 234.08 135.11 L 234.40 135.24 L 234.71 135.37 L 235.03 135.50 L 235.34 135.63 L 235.66 135.76 L 235.98 135.88 L 236.29 136.01 L 236.61 136.13 L 236.92 136.26 L 237.24 136.38 L 237.56 136.50 L 237.87 136.62 L 238.19 136.74 L 238.50 136.85 L 238.82 136.97 L 239.13 137.09 L 239.45 137.20 L 239.77 137.31 L 240.08 137.43 L 240.40 137.54 L 240.71 137.65 L 241.03 137.76 L 241.35 137.87 L 241.66 137.97 L 241.98 138.08 L 242.29 138.19 L 242.61 138.29 L 242.93 138.39 L 243.24 138.50 L 243.56 138.60 L 243.87 138.70 L 244.19 138.80 L 244.51 138.90 L 244.82 139.00 L 245.14 139.09 L 245.45 139.19 L 245.77 139.29 L 246.08 139.38 L 246.40 139.48 L 246.72 139.57 L 247.03 139.66 L 247.35 139.75 L 247.66 139.84 L 247.98 139.93 L 248.30 140.02 L 248.61 140.11 L 248.93 140.20 L 249.24 140.29 L 249.56 140.37 L 249.88 140.46 L 250.19 140.54 L 250.51 140.63 L 250.82 140.71 L 251.14 140.79 L 251.45 140.87 L 251.77 140.95 L 252.09 141.03 L 252.40 141.11 L 252.72 141.19 L 253.03 141.27 L 253.35 141.35 L 253.67 141.42 L 253.98 141.50 L 254.30 141.57 L 254.61 141.65 L 254.93 141.72 L 255.25 141.80 L 255.56 141.87 L 255.88 141.94 L 256.19 142.01 L 256.51 142.08 L 256.83 142.15 L 257.14 142.22 L 257.46 142.29 L 257.77 142.36 L 258.09 142.43 L 258.40 142.50 L 258.72 142.56 L 259.04 142.63 L 259.35 142.69 L 259.67 142.76 L 259.98 142.82 L 260.30 142.89 L 260.62 142.95 L 260.93 143.01 L 261.25 143.07 L 261.56 143.13 L 261.88 143.20 L 262.20 143.26 L 262.51 143.32 L 262.83 143.37 L 263.14 143.43 L 263.46 143.49 L 263.78 143.55 L 264.09 143.61 L 264.41 143.66 L 264.72 143.72 L 265.04 143.77 L 265.35 143.83 L 265.67 143.88 L 265.99 143.94 L 266.30 143.99 L 266.62 144.05 L 266.93 144.10 L 267.25 144.15 L 267.57 144.20 L 267.88 144.25 L 268.20 144.30 L 268.51 144.36 L 268.83 144.41 L 269.15 144.45 L 269.46 144.50 L 269.78 144.55 L 270.09 144.60 L 270.41 144.65 L 270.73 144.70 L 271.04 144.74 L 271.36 144.79 L 271.67 144.84 L 271.99 144.88 L 272.30 144.93 L 272.62 144.97 L 272.94 145.02 L 273.25 145.06 L 273.57 145.10 L 273.88 145.15 L 274.20 145.19 L 274.52 145.23 L 274.83 145.28 L 275.15 145.32 L 275.46 145.36 L 275.78 145.40 L 276.10 145.44 L 276.41 145.48 L 276.73 145.52 L 277.04 145.56 L 277.36 145.60 L 277.68 145.64 L 277.99 145.68 L 278.31 145.72 L 278.62 145.75 L 278.94 145.79 L 279.25 145.83 L 279.57 145.87 L 279.89 145.90 L 280.20 145.94 L 280.52 145.97 L 280.83 146.01 L 281.15 146.05 L 281.47 146.08 L 281.78 146.12 L 282.10 146.15 L 282.41 146.18 L 282.73 146.22 L 283.05 146.25 L 283.36 146.28 L 283.68 146.32 L 283.99 146.35 L 284.31 146.38 L 284.63 146.41 L 284.94 146.45 L 285.26 146.48 L 285.57 146.51 L 285.89 146.54 L 286.20 146.57 L 286.52 146.60 L 286.84 146.63 L 287.15 146.66 L 287.47 146.69 L 287.78 146.72 L 288.10 146.75 L 288.42 146.78 L 288.73 146.81 L 289.05 146.83 L 289.36 146.86 L 289.68 146.89 L 290.00 146.92 L 290.31 146.95 L 290.63 146.97 L 290.94 147.00 L 291.26 147.03 L 291.58 147.05 L 291.89 147.08 L 292.21 147.10 L 292.52 147.13 L 292.84 147.16 L 293.15 147.18 L 293.47 147.21 L 293.79 147.23 L 294.10 147.25 L 294.42 147.28 L 294.73 147.30 L 295.05 147.33 L 295.37 147.35 L 295.68 147.37 L 296.00 147.40 L 296.31 147.42 L 296.63 147.44 L 296.95 147.47 L 297.26 147.49 L 297.58 147.51 L 297.89 147.53 L 298.21 147.55 L 298.53 147.58 L 298.84 147.60 L 299.16 147.62 L 299.47 147.64 L 299.79 147.66 L 300.10 147.68 L 300.42 147.70 L 300.74 147.72 L 301.05 147.74 L 301.37 147.76 L 301.68 147.78 L 302.00 147.80" fill="none" stroke="#7E8692" stroke-width="2.3" stroke-linecap="round" stroke-linejoin="round"/>
</svg>
