<svg xmlns="http://www.w3.org/2000/svg" viewBox="0 0 320 180" width="320" height="180">
  <rect width="320" height="180" fill="#F4F5F7"/>
  <path d="M 18.00 138.00 L 18.32 138.00 L 18.63 138.00 L 18.95 138.00 L 19.26 138.00 L 19.58 138.00 L 19.90 138.00 L 20.21 138.00 L 20.53 138.00 L 20.84 138.00 L 21.16 138.00 L 21.47 138.00 L 21.79 138.00 L 22.11 138.00 L 22.42 138.00 L 22.74 138.00 L 23.05 138.00 L 23.37 138.00 L 23.69 138.00 L 24.00 138.00 L 24.32 138.00 L 24.63 138.00 L 24.95 138.00 L 25.27 138.00 L 25.58 138.00 L 25.90 138.00 L 26.21 138.00 L 26.53 138.00 L 26.85 138.00 L 27.16 138.00 L 27.48 138.00 L 27.79 138.00 L 28.11 138.00 L 28.42 138.00 L 28.74 138.00 L 29.06 138.00 L 29.37 138.00 L 29.69 138.00 L 30.00 138.00 L 30.32 138.00 L 30.64 138.00 L 30.95 138.00 L 31.27 138.00 L 31.58 138.00 L 31.90 138.00 L 32.22 138.00 L 32.53 138.00 L 32.85 138.00 L 33.16 138.00 L 33.48 138.00 L 33.80 138.00 L 34.11 138.00 L 34.43 138.00 L 34.74 138.00 L 35.06 138.00 L 35.37 138.00 L 35.69 138.00 L 36.01 138.00 L 36.32 138.00 L 36.64 138.00 L 36.95 138.00 L 37.27 138.00 L 37.59 138.00 L 37.90 138.00 L 38.22 138.00 L 38.53 138.00 L 38.85 138.00 L 39.17 138.00 L 39.48 138.00 L 39.80 138.00 L 40.11 138.00 L 40.43 138.00 L 40.75 138.00 L 41.06 138.00 L 41.38 138.00 L 41.69 138.00 L 42.01 138.00 L 42.32 138.00 L 42.64 138.00 L 42.96 138.00 L 43.27 138.00 L 43.59 138.00 L 43.90 138.00 L 44.22 138.00 L 44.54 138.00 L 44.85 138.00 L 45.17 138.00 L 45.48 138.00 L 45.80 138.00 L 46.12 138.00 L 46.43 138.00 L 46.75 138.00 L 47.06 138.00 L 47.38 138.00 L 47.70 138.00 L 48.01 138.00 L 48.33 138.00 L 48.64 138.00 L 48.96 138.00 L 49.27 138.00 L 49.59 138.00 L 49.91 138.00 L 50.22 138.00 L 50.54 138.00 L 50.85 138.00 L 51.17 138.00 L 51.49 138.00 L 51.80 138.00 L 52.12 138.00 L 52.43 138.00 L 52.75 138.00 L 53.07 138.00 L 53.38 138.00 L 53.70 138.00 L 54.01 138.00 L 54.33 138.00 L 54.65 138.00 L 54.96 138.00 L 55.28 138.00 L 55.59 138.00 L 55.91 138.00 L 56.22 138.00 L 56.54 138.00 L 56.86 138.00 L 57.17 138.00 L 57.49 138.00 L 57.80 138.00 L 58.12 138.00 L 58.44 138.00 L 58.75 138.00 L 59.07 138.00 L 59.38 138.00 L 59.70 138.00 L 60.02 138.00 L 60.33 138.00 L 60.65 138.00 L 60.96 138.00 L 61.28 138.00 L 61.60 138.00 L 61.91 138.00 L 62.23 138.00 L 62.54 138.00 L 62.86 138.00 L 63.17 138.00 L 63.49 138.00 L 63.81 138.00 L 64.12 138.00 L 64.44 138.00 L 64.75 138.00 L 65.07 138.00 L 65.39 138.00 L 65.70 138.00 L 66.02 138.00 L 66.33 138.00 L 66.65 138.00 L 66.97 138.00 L 67.28 138.00 L 67.60 138.00 L 67.91 138.00 L 68.23 138.00 L 68.55 138.00 L 68.86 138.00 L 69.18 138.00 L 69.49 138.00 L 69.81 138.00 L 70.12 138.00 L 70.44 138.00 L 70.76 138.00 L 71.07 138.00 L 71.39 138.00 L 71.70 138.00 L 72.02 138.00 L 72.34 138.00 L 72.65 138.00 L 72.97 138.00 L 73.28 138.00 L 73.60 138.00 L 73.92 138.00 L 74.23 138.00 L 74.55 138.00 L 74.86 138.00 L 75.18 138.00 L 75.49 138.00 L 75.81 138.00 L 76.13 138.00 L 76.44 138.00 L 76.76 138.00 L 77.07 138.00 L 77.39 138.00 L 77.71 138.00 L 78.02 138.00 L 78.34 138.00 L 78.65 138.00 L 78.97 138.00 L 79.29 138.00 L 79.60 138.00 L 79.92 138.00 L 80.23 138.00 L 80.55 138.00 L 80.87 138.00 L 81.18 138.00 L 81.50 138.00 L 81.81 138.00 L 82.13 138.00 L 82.44 138.00 L 82.76 138.00 L 83.08 138.00 L 83.39 138.00 L 83.71 138.00 L 84.02 138.00 L 84.34 138.00 L 84.66 138.00 L 84.97 138.00 L 85.29 138.00 L 85.60 138.00 L 85.92 138.00 L 86.24 138.00 L 86.55 138.00 L 86.87 138.00 L 87.18 138.00 L 87.50 138.00 L 87.82 138.00 L 88.13 138.00 L 88.45 138.00 L 88.76 138.00 L 89.08 138.00 L 89.39 138.00 L 89.71 138.00 L 90.03 138.00 L 90.34 138.00 L 90.66 138.00 L 90.97 138.00 L 91.29 138.00 L 91.61 138.00 L 91.92 138.00 L 92.24 138.00 L 92.55 138.00 L 92.87 138.00 L 93.19 138.00 L 93.50 138.00 L 93.82 138.00 L 94.13 138.00 L 94.45 138.00 L 94.77 138.00 L 95.08 138.00 L 95.40 138.00 L 95.71 138.00 L 96.03 138.00 L 96.34 138.00 L 96.66 138.00 L 96.98 138.00 L 97.29 138.00 L 97.61 138.00 L 97.92 138.00 L 98.24 138.00 L 98.56 138.00 L 98.87 138.00 L 99.19 138.00 L 99.50 138.00 L 99.82 138.00 L 100.14 138.00 L 100.45 138.00 L 100.77 138.00 L 101.08 138.00 L 101.40 138.00 L 101.72 138.00 L 102.03 138.00 L 102.35 138.00 L 102.66 138.00 L 102.98 138.00 L 103.29 138.00 L 103.61 138.00 L 103.93 138.00 L 104.24 138.00 L 104.56 138.00 L 104.87 138.00 L 105.19 138.00 L 105.51 138.00 L 105.82 138.00 L 106.14 138.00 L 106.45 138.00 L 106.77 138.00 L 107.09 138.00 L 107.40 138.00 L 107.72 138.00 L 108.03 138.00 L 108.35 138.00 L 108.67 138.00 L 108.98 138.00 L 109.30 138.00 L 109.61 138.00 L 109.93 138.00 L 110.24 138.00 L 110.56 138.00 L 110.88 138.00 L 111.19 138.00 L 111.51 138.00 L 111.82 138.00 L 112.14 138.00 L 112.46 138.00 L 112.77 138.00 L 113.09 138.00 L 113.40 138.00 L 113.72 138.00 L 114.04 138.00 L 114.35 138.00 L 114.67 138.00 L 114.98 138.00 L 115.30 138.00 L 115.62 138.00 L 115.93 138.00 L 116.25 138.00 L 116.56 138.00 L 116.88 138.00 L 117.19 138.00 L 117.51 138.00 L 117.83 138.00 L 118.14 138.00 L 118.46 138.00 L 118.77 138.00 L 119.09 138.00 L 119.41 138.00 L 119.72 138.00 L 120.04 138.00 L 120.35 138.00 L 120.67 138.00 L 120.99 138.00 L 121.30 138.00 L 121.62 138.00 L 121.93 138.00 L 122.25 138.00 L 122.57 138.00 L 122.88 138.00 L 123.20 138.00 L 123.51 138.00 L 123.83 138.00 L 124.14 138.00 L 124.46 138.00 L 124.78 138.00 L 125.09 138.00 L 125.41 138.00 L 125.72 138.00 L 126.04 138.00 L 126.36 138.00 L 126.67 138.00 L 126.99 138.00 L 127.30 138.00 L 127.62 138.00 L 127.94 138.00 L 128.25 138.00 L 128.57 138.00 L 128.88 138.00 L 129.20 138.00 L 129.52 138.00 L 129.83 138.00 L 130.15 138.00 L 130.46 138.00 L 130.78 138.00 L 131.09 138.00 L 131.41 138.00 L 131.73 138.00 L 132.04 138.00 L 132.36 138.00 L 132.67 138.00 L 132.99 138.00 L 133.31 138.00 L 133.62 138.00 L 133.94 138.00 L 134.25 138.00 L 134.57 138.00 L 134.89 138.00 L 135.20 138.00 L 135.52 138.00 L 135.83 138.00 L 136.15 138.00 L 136.46 138.00 L 136.78 138.00 L 137.10 138.00 L 137.41 138.00 L 137.73 138.00 L 138.04 138.00 L 138.36 138.00 L 138.68 138.00 L 138.99 138.00 L 139.31 138.00 L 139.62 138.00 L 139.94 138.00 L 140.26 138.00 L 140.57 138.00 L 140.89 138.00 L 141.20 138.00 L 141.52 138.00 L 141.84 138.00 L 142.15 138.00 L 142.47 138.00 L 142.78 138.00 L 143.10 138.00 L 143.41 138.00 L 143.73 138.00 L 144.05 138.00 L 144.36 138.00 L 144.68 138.00 L 144.99 138.00 L 145.31 138.00 L 145.63 138.00 L 145.94 138.00 L 146.26 138.00 L 146.57 138.00 L 146.89 138.00 L 147.21 138.00 L 147.52 138.00 L 147.84 138.00 L 148.15 138.00 L 148.47 138.00 L 148.79 138.00 L 149.10 138.00 L 149.42 138.00 L 149.73 138.00 L 150.05 138.00 L 150.36 138.00 L 150.68 138.00 L 151.00 138.00 L 151.31 138.00 L 151.63 138.00 L 151.94 138.00 L 152.26 138.00 L 152.58 138.00 L 152.89 138.00 L 153.21 138.00 L 153.52 138.00 L 153.84 138.00 L 154.16 138.00 L 154.47 138.00 L 154.79 138.00 L 155.10 138.00 L 155.42 138.00 L 155.74 138.00 L 156.05 138.00 L 156.37 138.00" fill="none" stroke="#7E8692" stroke-width="2.3" stroke-linecap="round" stroke-linejoin="round"/>
  <path d="M 163.63 42.00 L 163.95 42.00 L 164.26 42.00 L 164.58 42.00 L 164.90 42.00 L 165.21 42.00 L 165.53 42.00 L 165.84 42.00 L 166.16 42.00 L 166.48 42.00 L 166.79 42.00 L 167.11 42.00 L 167.42 42.00 L 167.74 42.00 L 168.06 42.00 L 168.37 42.00 L 168.69 42.00 L 169.00 42.00 L 169.32 42.00 L 169.64 42.00 L 169.95 42.00 L 170.27 42.00 L 170.58 42.00 L 170.90 42.00 L 171.21 42.00 L 171.53 42.00 L 171.85 42.00 L 172.16 42.00 L 172.48 42.00 L 172.79 42.00 L 173.11 42.00 L 173.43 42.00 L 173.74 42.00 L 174.06 42.00 L 174.37 42.00 L 174.69 42.00 L 175.01 42.00 L 175.32 42.00 L 175.64 42.00 L 175.95 42.00 L 176.27 42.00 L 176.59 42.00 L 176.90 42.00 L 177.22 42.00 L 177.53 42.00 L 177.85 42.00 L 178.16 42.00 L 178.48 42.00 L 178.80 42.00 L 179.11 42.00 L 179.43 42.00 L 179.74 42.00 L 180.06 42.00 L 180.38 42.00 L 180.69 42.00 L 181.01 42.00 L 181.32 42.00 L 181.64 42.00 L 181.96 42.00 L 182.27 42.00 L 182.59 42.00 L 182.90 42.00 L 183.22 42.00 L 183.54 42.00 L 183.85 42.00 L 184.17 42.00 L 184.48 42.00 L 184.80 42.00 L 185.11 42.00 L 185.43 42.00 L 185.75 42.00 L 186.06 42.00 L 186.38 42.00 L 186.69 42.00 L 187.01 42.00 L 187.33 42.00 L 187.64 42.00 L 187.96 42.00 L 188.27 42.00 L 188.59 42.00 L 188.91 42.00 L 189.22 42.00 L 189.54 42.00 L 189.85 42.00 L 190.17 42.00 L 190.48 42.00 L 190.80 42.00 L 191.12 42.00 L 191.43 42.00 L 191.75 42.00 L 192.06 42.00 L 192.38 42.00 L 192.70 42.00 L 193.01 42.00 L 193.33 42.00 L 193.64 42.00 L 193.96 42.00 L 194.28 42.00 L 194.59 42.00 L 194.91 42.00 L 195.22 42.00 L 195.54 42.00 L 195.86 42.00 L 196.17 42.00 L 196.49 42.00 L 196.80 42.00 L 197.12 42.00 L 197.43 42.00 L 197.75 42.00 L 198.07 42.00 L 198.38 42.00 L 198.70 42.00 L 199.01 42.00 L 199.33 42.00 L 199.65 42.00 L 199.96 42.00 L 200.28 42.00 L 200.59 42.00 L 200.91 42.00 L 201.23 42.00 L 201.54 42.00 L 201.86 42.00 L 202.17 42.00 L 202.49 42.00 L 202.81 42.00 L 203.12 42.00 L 203.44 42.00 L 203.75 42.00 L 204.07 42.00 L 204.38 42.00 L 204.70 42.00 L 205.02 42.00 L 205.33 42.00 L 205.65 42.00 L 205.96 42.00 L 206.28 42.00 L 206.60 42.00 L 206.91 42.00 L 207.23 42.00 L 207.54 42.00 L 207.86 42.00 L 208.18 42.00 L 208.49 42.00 L 208.81 42.00 L 209.12 42.00 L 209.44 42.00 L 209.76 42.00 L 210.07 42.00 L 210.39 42.00 L 210.70 42.00 L 211.02 42.00 L 211.33 42.00 L 211.65 42.00 L 211.97 42.00 L 212.28 42.00 L 212.60 42.00 L 212.91 42.00 L 213.23 42.00 L 213.55 42.00 L 213.86 42.00 L 214.18 42.00 L 214.49 42.00 L 214.81 42.00 L 215.13 42.00 L 215.44 42.00 L 215.76 42.00 L 216.07 42.00 L 216.39 42.00 L 216.71 42.00 L 217.02 42.00 L 217.34 42.00 L 217.65 42.00 L 217.97 42.00 L 218.28 42.00 L 218.60 42.00 L 218.92 42.00 L 219.23 42.00 L 219.55 42.00 L 219.86 42.00 L 220.18 42.00 L 220.50 42.00 L 220.81 42.00 L 221.13 42.00 L 221.44 42.00 L 221.76 42.00 L 222.08 42.00 L 222.39 42.00 L 222.71 42.00 L 223.02 42.00 L 223.34 42.00 L 223.66 42.00 L 223.97 42.00 L 224.29 42.00 L 224.60 42.00 L 224.92 42.00 L 225.23 42.00 L 225.55 42.00 L 225.87 42.00 L 226.18 42.00 L 226.50 42.00 L 226.81 42.00 L 227.13 42.00 L 227.45 42.00 L 227.76 42.00 L 228.08 42.00 L 228.39 42.00 L 228.71 42.00 L 229.03 42.00 L 229.34 42.00 L 229.66 42.00 L 229.97 42.00 L 230.29 42.00 L 230.61 42.00 L 230.92 42.00 L 231.24 42.00 L 231.55 42.00 L 231.87 42.00 L 232.18 42.00 L 232.50 42.00 L 232.82 42.00 L 233.13 42.00 L 233.45 42.00 L 233.76 42.00 L 234.08 42.00 L 234.40 42.00 L 234.71 42.00 L 235.03 42.00 L 235.34 42.00 L 235.66 42.00 L 235.98 42.00 L 236.29 42.00 L 236.61 42.00 L 236.92 42.00 L 237.24 42.00 L 237.56 42.00 L 237.87 42.00 L 238.19 42.00 L 238.50 42.00 L 238.82 42.00 L 239.13 42.00 L 239.45 42.00 L 239.77 42.00 L 240.08 42.00 L 240.40 42.00 L 240.71 42.00 L 241.03 42.00 L 241.35 42.00 L 241.66 42.00 L 241.98 42.00 L 242.29 42.00 L 242.61 42.00 L 242.93 42.00 L 243.24 42.00 L 243.56 42.00 L 243.87 42.00 L 244.19 42.00 L 244.51 42.00 L 244.82 42.00 L 245.14 42.00 L 245.45 42.00 L 245.77 42.00 L 246.08 42.00 L 246.40 42.00 L 246.72 42.00 L 247.03 42.00 L 247.35 42.00 L 247.66 42.00 L 247.98 42.00 L 248.30 42.00 L 248.61 42.00 L 248.93 42.00 L 249.24 42.00 L 249.56 42.00 L 249.88 42.00 L 250.19 42.00 L 250.51 42.00 L 250.82 42.00 L 251.14 42.00 L 251.45 42.00 L 251.77 42.00 L 252.09 42.00 L 252.40 42.00 L 252.72 42.00 L 253.03 42.00 L 253.35 42.00 L 253.67 42.00 L 253.98 42.00 L 254.30 42.00 L 254.61 42.00 L 254.93 42.00 L 255.25 42.00 L 255.56 42.00 L 255.88 42.00 L 256.19 42.00 L 256.51 42.00 L 256.83 42.00 L 257.14 42.00 L 257.46 42.00 L 257.77 42.00 L 258.09 42.00 L 258.40 42.00 L 258.72 42.00 L 259.04 42.00 L 259.35 42.00 L 259.67 42.00 L 259.98 42.00 L 260.30 42.00 L 260.62 42.00 L 260.93 42.00 L 261.25 42.00 L 261.56 42.00 L 261.88 42.00 L 262.20 42.00 L 262.51 42.00 L 262.83 42.00 L 263.14 42.00 L 263.46 42.00 L 263.78 42.00 L 264.09 42.00 L 264.41 42.00 L 264.72 42.00 L 265.04 42.00 L 265.35 42.00 L 265.67 42.00 L 265.99 42.00 L 266.30 42.00 L 266.62 42.00 L 266.93 42.00 L 267.25 42.00 L 267.57 42.00 L 267.88 42.00 L 268.20 42.00 L 268.51 42.00 L 268.83 42.00 L 269.15 42.00 L 269.46 42.00 L 269.78 42.00 L 270.09 42.00 L 270.41 42.00 L 270.73 42.00 L 271.04 42.00 L 271.36 42.00 L 271.67 42.00 L 271.99 42.00 L 272.30 42.00 L 272.62 42.00 L 272.94 42.00 L 273.25 42.00 L 273.57 42.00 L 273.88 42.00 L 274.20 42.00 L 274.52 42.00 L 274.83 42.00 L 275.15 42.00 L 275.46 42.00 L 275.78 42.00 L 276.10 42.00 L 276.41 42.00 L 276.73 42.00 L 277.04 42.00 L 277.36 42.00 L 277.68 42.00 L 277.99 42.00 L 278.31 42.00 L 278.62 42.00 L 278.94 42.00 L 279.25 42.00 L 279.57 42.00 L 279.89 42.00 L 280.20 42.00 L 280.52 42.00 L 280.83 42.00 L 281.15 42.00 L 281.47 42.00 L 281.78 42.00 L 282.10 42.00 L 282.41 42.00 L 282.73 42.00 L 283.05 42.00 L 283.36 42.00 L 283.68 42.00 L 283.99 42.00 L 284.31 42.00 L 284.63 42.00 L 284.94 42.00 L 285.26 42.00 L 285.57 42.00 L 285.89 42.00 L 286.20 42.00 L 286.52 42.00 L 286.84 42.00 L 287.15 42.00 L 287.47 42.00 L 287.78 42.00 L 288.10 42.00 L 288.42 42.00 L 288.73 42.00 L 289.05 42.00 L 289.36 42.00 L 289.68 42.00 L 290.00 42.00 L 290.31 42.00 L 290.63 42.00 L 290.94 42.00 L 291.26 42.00 L 291.58 42.00 L 291.89 42.00 L 292.21 42.00 L 292.52 42.00 L 292.84 42.00 L 293.15 42.00 L 293.47 42.00 L 293.79 42.00 L 294.10 42.00 L 294.42 42.00 L 294.73 42.00 L 295.05 42.00 L 295.37 42.00 L 295.68 42.00 L 296.00 42.00 L 296.31 42.00 L 296.63 42.00 L 296.95 42.00 L 297.26 42.00 L 297.58 42.00 L 297.89 42.00 L 298.21 42.00 L 298.53 42.00 L 298.84 42.00 L 299.16 42.00 L 299.47 42.00 L 299.79 42.00 L 300.10 42.00 L 300.42 42.00 L 300.74 42.00 L 301.05 42.00 L 301.37 42.00 L 301.68 42.00 L 302.00 42.00" fill="none" stroke="#7E8692" stroke-width="2.3" stroke-linecap="round" stroke-linejoin="round"/>
</svg>
