<svg xmlns="http://www.w3.org/2000/svg" viewBox="0 0 320 180" width="320" height="180">
  <rect width="320" height="180" fill="#F4F5F7"/>
  <path d="M 18.00 145.27 L 18.32 145.26 L 18.63 145.24 L 18.95 145.22 L 19.26 145.21 L 19.58 145.19 L 19.90 145.17 L 20.21 145.16 L 20.53 145.14 L 20.84 145.12 L 21.16 145.11 L 21.47 145.09 L 21.79 145.07 L 22.11 145.05 L 22.42 145.04 L 22.74 145.02 L 23.05 145.00 L 23.37 144.98 L 23.69 144.96 L 24.00 144.94 L 24.32 144.93 L 24.63 144.91 L 24.95 144.89 L 25.27 144.87 L 25.58 144.85 L 25.90 144.83 L 26.21 144.81 L 26.53 144.79 L 26.85 144.77 L 27.16 144.75 L 27.48 144.73 L 27.79 144.71 L 28.11 144.69 L 28.42 144.67 L 28.74 144.65 L 29.06 144.63 L 29.37 144.61 L 29.69 144.59 L 30.00 144.57 L 30.32 144.55 L 30.64 144.53 L 30.95 144.51 L 31.27 144.48 L 31.58 144.46 L 31.90 144.44 L 32.22 144.42 L 32.53 144.40 L 32.85 144.37 L 33.16 144.35 L 33.48 144.33 L 33.80 144.31 L 34.11 144.28 L 34.43 144.26 L 34.74 144.24 L 35.06 144.21 L 35.37 144.19 L 35.69 144.16 L 36.01 144.14 L 36.32 144.12 L 36.64 144.09 L 36.95 144.07 L 37.27 144.04 L 37.59 144.02 L 37.90 143.99 L 38.22 143.97 L 38.53 143.94 L 38.85 143.91 L 39.17 143.89 L 39.48 143.86 L 39.80 143.83 L 40.11 143.81 L 40.43 143.78 L 40.75 143.75 L 41.06 143.73 L 41.38 143.70 L 41.69 143.67 L 42.01 143.64 L 42.32 143.61 L 42.64 143.59 L 42.96 143.56 L 43.27 143.53 L 43.59 143.50 L 43.90 143.47 L 44.22 143.44 L 44.54 143.41 L 44.85 143.38 L 45.17 143.35 L 45.48 143.32 L 45.80 143.29 L 46.12 143.26 L 46.43 143.22 L 46.75 143.19 L 47.06 143.16 L 47.38 143.13 L 47.70 143.10 L 48.01 143.06 L 48.33 143.03 L 48.64 143.00 L 48.96 142.96 L 49.27 142.93 L 49.59 142.89 L 49.91 142.86 L 50.22 142.82 L 50.54 142.79 L 50.85 142.75 L 51.17 142.72 L 51.49 142.68 L 51.80 142.65 L 52.12 142.61 L 52.43 142.57 L 52.75 142.53 L 53.07 142.50 L 53.38 142.46 L 53.70 142.42 L 54.01 142.38 L 54.33 142.34 L 54.65 142.30 L 54.96 142.26 L 55.28 142.22 L 55.59 142.18 L 55.91 142.14 L 56.22 142.10 L 56.54 142.06 L 56.86 142.02 L 57.17 141.97 L 57.49 141.93 L 57.80 141.89 L 58.12 141.84 L 58.44 141.80 L 58.75 141.76 L 59.07 141.71 L 59.38 141.67 L 59.70 141.62 L 60.02 141.57 L 60.33 141.53 L 60.65 141.48 L 60.96 141.43 L 61.28 141.39 L 61.60 141.34 L 61.91 141.29 L 62.23 141.24 L 62.54 141.19 L 62.86 141.14 L 63.17 141.09 L 63.49 141.04 L 63.81 140.98 L 64.12 140.93 L 64.44 140.88 L 64.75 140.83 L 65.07 140.77 L 65.39 140.72 L 65.70 140.66 L 66.02 140.61 L 66.33 140.55 L 66.65 140.49 L 66.97 140.44 L 67.28 140.38 L 67.60 140.32 L 67.91 140.26 L 68.23 140.20 L 68.55 140.14 L 68.86 140.08 L 69.18 140.02 L 69.49 139.96 L 69.81 139.90 L 70.12 139.83 L 70.44 139.77 L 70.76 139.70 L 71.07 139.64 L 71.39 139.57 L 71.70 139.50 L 72.02 139.44 L 72.34 139.37 L 72.65 139.30 L 72.97 139.23 L 73.28 139.16 L 73.60 139.09 L 73.92 139.01 L 74.23 138.94 L 74.55 138.87 L 74.86 138.79 L 75.18 138.72 L 75.49 138.64 L 75.81 138.56 L 76.13 138.49 L 76.44 138.41 L 76.76 138.33 L 77.07 138.25 L 77.39 138.16 L 77.71 138.08 L 78.02 138.00 L 78.34 137.91 L 78.65 137.83 L 78.97 137.74 L 79.29 137.65 L 79.60 137.57 L 79.92 137.48 L 80.23 137.39 L 80.55 137.29 L 80.87 137.20 L 81.18 137.11 L 81.50 137.01 L 81.81 136.91 L 82.13 136.82 L 82.44 136.72 L 82.76 136.62 L 83.08 136.52 L 83.39 136.42 L 83.71 136.31 L 84.02 136.21 L 84.34 136.10 L 84.66 135.99 L 84.97 135.88 L 85.29 135.77 L 85.60 135.66 L 85.92 135.55 L 86.24 135.43 L 86.55 135.32 L 86.87 135.20 L 87.18 135.08 L 87.50 134.96 L 87.82 134.84 L 88.13 134.71 L 88.45 134.59 L 88.76 134.46 L 89.08 134.33 L 89.39 134.20 L 89.71 134.07 L 90.03 133.93 L 90.34 133.80 L 90.66 133.66 L 90.97 133.52 L 91.29 133.38 L 91.61 133.23 L 91.92 133.09 L 92.24 132.94 L 92.55 132.79 L 92.87 132.64 L 93.19 132.48 L 93.50 132.33 L 93.82 132.17 L 94.13 132.01 L 94.45 131.84 L 94.77 131.68 L 95.08 131.51 L 95.40 131.34 L 95.71 131.17 L 96.03 130.99 L 96.34 130.81 L 96.66 130.63 L 96.98 130.45 L 97.29 130.26 L 97.61 130.07 L 97.92 129.88 L 98.24 129.69 L 98.56 129.49 L 98.87 129.29 L 99.19 129.08 L 99.50 128.87 L 99.82 128.66 L 100.14 128.45 L 100.45 128.23 L 100.77 128.01 L 101.08 127.79 L 101.40 127.56 L 101.72 127.32 L 102.03 127.09 L 102.35 126.85 L 102.66 126.61 L 102.98 126.36 L 103.29 126.11 L 103.61 125.85 L 103.93 125.59 L 104.24 125.32 L 104.56 125.05 L 104.87 124.78 L 105.19 124.50 L 105.51 124.22 L 105.82 123.93 L 106.14 123.63 L 106.45 123.34 L 106.77 123.03 L 107.09 122.72 L 107.40 122.41 L 107.72 122.08 L 108.03 121.76 L 108.35 121.42 L 108.67 121.09 L 108.98 120.74 L 109.30 120.39 L 109.61 120.03 L 109.93 119.66 L 110.24 119.29 L 110.56 118.91 L 110.88 118.52 L 111.19 118.13 L 111.51 117.73 L 111.82 117.32 L 112.14 116.90 L 112.46 116.47 L 112.77 116.04 L 113.09 115.59 L 113.40 115.14 L 113.72 114.68 L 114.04 114.20 L 114.35 113.72 L 114.67 113.23 L 114.98 112.73 L 115.30 112.21 L 115.62 111.69 L 115.93 111.15 L 116.25 110.61 L 116.56 110.05 L 116.88 109.48 L 117.19 108.89 L 117.51 108.29 L 117.83 107.68 L 118.14 107.06 L 118.46 106.42 L 118.77 105.77 L 119.09 105.10 L 119.41 104.41 L 119.72 103.71 L 120.04 103.00 L 120.35 102.26 L 120.67 101.51 L 120.99 100.74 L 121.30 99.95 L 121.62 99.14 L 121.93 98.31 L 122.25 97.46 L 122.57 96.59 L 122.88 95.69 L 123.20 94.77 L 123.51 93.83 L 123.83 92.87 L 124.14 91.87 L 124.46 90.86 L 124.78 89.81 L 125.09 88.74 L 125.41 87.63 L 125.72 86.50 L 126.04 85.33 L 126.36 84.13 L 126.67 82.90 L 126.99 81.63 L 127.30 80.32 L 127.62 78.98 L 127.94 77.59 L 128.25 76.17 L 128.57 74.70 L 128.88 73.18 L 129.20 71.62 L 129.52 70.01 L 129.83 68.35 L 130.15 66.64 L 130.46 64.87 L 130.78 63.04 L 131.09 61.15 L 131.41 59.20 L 131.73 57.19 L 132.04 55.10 L 132.36 52.94 L 132.67 50.71 L 132.99 48.40 L 133.31 46.01 L 133.62 43.53 L 133.94 40.96 L 134.25 38.29 L 134.57 35.53 L 134.89 32.66 L 135.20 29.68 L 135.52 26.58 L 135.83 23.36 L 136.15 20.02 L 136.46 16.53 L 136.78 12.90 L 137.10 9.13 L 137.41 5.19 L 137.73 1.08 L 138.04 -3.20 L 138.36 -7.67 L 138.68 -12.35 L 138.99 -17.23 L 139.31 -22.35 L 139.62 -27.70 L 139.94 -33.30 L 140.26 -39.18 L 140.57 -45.35 L 140.89 -51.82 L 141.20 -58.63 L 141.52 -65.78 L 141.84 -73.31 L 142.15 -81.25 L 142.47 -89.62 L 142.78 -98.45 L 143.10 -107.79 L 143.41 -117.66 L 143.73 -128.11 L 144.05 -139.19 L 144.36 -150.95 L 144.68 -163.44 L 144.99 -176.73 L 145.31 -190.89 L 145.63 -205.99 L 145.94 -222.12 L 146.26 -239.37 L 146.57 -257.86 L 146.89 -277.70 L 147.21 -299.03 L 147.52 -322.00 L 147.84 -346.78 L 148.15 -373.56" fill="none" stroke="#7E8692" stroke-width="2.3" stroke-linecap="round" stroke-linejoin="round"/>
  <path d="M 171.85 -373.56 L 172.16 -346.78 L 172.48 -322.00 L 172.79 -299.03 L 173.11 -277.70 L 173.43 -257.86 L 173.74 -239.37 L 174.06 -222.12 L 174.37 -205.99 L 174.69 -190.89 L 175.01 -176.73 L 175.32 -163.44 L 175.64 -150.95 L 175.95 -139.19 L 176.27 -128.11 L 176.59 -117.66 L 176.90 -107.79 L 177.22 -98.45 L 177.53 -89.62 L 177.85 -81.25 L 178.16 -73.31 L 178.48 -65.78 L 178.80 -58.63 L 179.11 -51.82 L 179.43 -45.35 L 179.74 -39.18 L 180.06 -33.30 L 180.38 -27.70 L 180.69 -22.35 L 181.01 -17.23 L 181.32 -12.35 L 181.64 -7.67 L 181.96 -3.20 L 182.27 1.08 L 182.59 5.19 L 182.90 9.13 L 183.22 12.90 L 183.54 16.53 L 183.85 20.02 L 184.17 23.36 L 184.48 26.58 L 184.80 29.68 L 185.11 32.66 L 185.43 35.53 L 185.75 38.29 L 186.06 40.96 L 186.38 43.53 L 186.69 46.01 L 187.01 48.40 L 187.33 50.71 L 187.64 52.94 L 187.96 55.10 L 188.27 57.19 L 188.59 59.20 L 188.91 61.15 L 189.22 63.04 L 189.54 64.87 L 189.85 66.64 L 190.17 68.35 L 190.48 70.01 L 190.80 71.62 L 191.12 73.18 L 191.43 74.70 L 191.75 76.17 L 192.06 77.59 L 192.38 78.98 L 192.70 80.32 L 193.01 81.63 L 193.33 82.90 L 193.64 84.13 L 193.96 85.33 L 194.28 86.50 L 194.59 87.63 L 194.91 88.74 L 195.22 89.81 L 195.54 90.86 L 195.86 91.87 L 196.17 92.87 L 196.49 93.83 L 196.80 94.77 L 197.12 95.69 L 197.43 96.59 L 197.75 97.46 L 198.07 98.31 L 198.38 99.14 L 198.70 99.95 L 199.01 100.74 L 199.33 101.51 L 199.65 102.26 L 199.96 103.00 L 200.28 103.71 L 200.59 104.41 L 200.91 105.10 L 201.23 105.77 L 201.54 106.42 L 201.86 107.06 L 202.17 107.68 L 202.49 108.29 L 202.81 108.89 L 203.12 109.48 L 203.44 110.05 L 203.75 110.61 L 204.07 111.15 L 204.38 111.69 L 204.70 112.21 L 205.02 112.73 L 205.33 113.23 L 205.65 113.72 L 205.96 114.20 L 206.28 114.68 L 206.60 115.14 L 206.91 115.59 L 207.23 116.04 L 207.54 116.47 L 207.86 116.90 L 208.18 117.32 L 208.49 117.73 L 208.81 118.13 L 209.12 118.52 L 209.44 118.91 L 209.76 119.29 L 210.07 119.66 L 210.39 120.03 L 210.70 120.39 L 211.02 120.74 L 211.33 121.09 L 211.65 121.42 L 211.97 121.76 L 212.28 122.08 L 212.60 122.41 L 212.91 122.72 L 213.23 123.03 L 213.55 123.34 L 213.86 123.63 L 214.18 123.93 L 214.49 124.22 L 214.81 124.50 L 215.13 124.78 L 215.44 125.05 L 215.76 125.32 L 216.07 125.59 L 216.39 125.85 L 216.71 126.11 L 217.02 126.36 L 217.34 126.61 L 217.65 126.85 L 217.97 127.09 L 218.28 127.32 L 218.60 127.56 L 218.92 127.79 L 219.23 128.01 L 219.55 128.23 L 219.86 128.45 L 220.18 128.66 L 220.50 128.87 L 220.81 129.08 L 221.13 129.29 L 221.44 129.49 L 221.76 129.69 L 222.08 129.88 L 222.39 130.07 L 222.71 130.26 L 223.02 130.45 L 223.34 130.63 L 223.66 130.81 L 223.97 130.99 L 224.29 131.17 L 224.60 131.34 L 224.92 131.51 L 225.23 131.68 L 225.55 131.84 L 225.87 132.01 L 226.18 132.17 L 226.50 132.33 L 226.81 132.48 L 227.13 132.64 L 227.45 132.79 L 227.76 132.94 L 228.08 133.09 L 228.39 133.23 L 228.71 133.38 L 229.03 133.52 L 229.34 133.66 L 229.66 133.80 L 229.97 133.93 L 230.29 134.07 L 230.61 134.20 L 230.92 134.33 L 231.24 134.46 L 231.55 134.59 L 231.87 134.71 L 232.18 134.84 L 232.50 134.96 L 232.82 135.08 L 233.13 135.20 L 233.45 135.32 L 233.76 135.43 L 234.08 135.55 L 234.40 135.66 L 234.71 135.77 L 235.03 135.88 L 235.34 135.99 L 235.66 136.10 L 235.98 136.21 L 236.29 136.31 L 236.61 136.42 L 236.92 136.52 L 237.24 136.62 L 237.56 136.72 L 237.87 136.82 L 238.19 136.91 L 238.50 137.01 L 238.82 137.11 L 239.13 137.20 L 239.45 137.29 L 239.77 137.39 L 240.08 137.48 L 240.40 137.57 L 240.71 137.65 L 241.03 137.74 L 241.35 137.83 L 241.66 137.91 L 241.98 138.00 L 242.29 138.08 L 242.61 138.16 L 242.93 138.25 L 243.24 138.33 L 243.56 138.41 L 243.87 138.49 L 244.19 138.56 L 244.51 138.64 L 244.82 138.72 L 245.14 138.79 L 245.45 138.87 L 245.77 138.94 L 246.08 139.01 L 246.40 139.09 L 246.72 139.16 L 247.03 139.23 L 247.35 139.30 L 247.66 139.37 L 247.98 139.44 L 248.30 139.50 L 248.61 139.57 L 248.93 139.64 L 249.24 139.70 L 249.56 139.77 L 249.88 139.83 L 250.19 139.90 L 250.51 139.96 L 250.82 140.02 L 251.14 140.08 L 251.45 140.14 L 251.77 140.20 L 252.09 140.26 L 252.40 140.32 L 252.72 140.38 L 253.03 140.44 L 253.35 140.49 L 253.67 140.55 L 253.98 140.61 L 254.30 140.66 L 254.61 140.72 L 254.93 140.77 L 255.25 140.83 L 255.56 140.88 L 255.88 140.93 L 256.19 140.98 L 256.51 141.04 L 256.83 141.09 L 257.14 141.14 L 257.46 141.19 L 257.77 141.24 L 258.09 141.29 L 258.40 141.34 L 258.72 141.39 L 259.04 141.43 L 259.35 141.48 L 259.67 141.53 L 259.98 141.57 L 260.30 141.62 L 260.62 141.67 L 260.93 141.71 L 261.25 141.76 L 261.56 141.80 L 261.88 141.84 L 262.20 141.89 L 262.51 141.93 L 262.83 141.97 L 263.14 142.02 L 263.46 142.06 L 263.78 142.10 L 264.09 142.14 L 264.41 142.18 L 264.72 142.22 L 265.04 142.26 L 265.35 142.30 L 265.67 142.34 L 265.99 142.38 L 266.30 142.42 L 266.62 142.46 L 266.93 142.50 L 267.25 142.53 L 267.57 142.57 L 267.88 142.61 L 268.20 142.65 L 268.51 142.68 L 268.83 142.72 L 269.15 142.75 L 269.46 142.79 L 269.78 142.82 L 270.09 142.86 L 270.41 142.89 L 270.73 142.93 L 271.04 142.96 L 271.36 143.00 L 271.67 143.03 L 271.99 143.06 L 272.30 143.10 L 272.62 143.13 L 272.94 143.16 L 273.25 143.19 L 273.57 143.22 L 273.88 143.26 L 274.20 143.29 L 274.52 143.32 L 274.83 143.35 L 275.15 143.38 L 275.46 143.41 L 275.78 143.44 L 276.10 143.47 L 276.41 143.50 L 276.73 143.53 L 277.04 143.56 L 277.36 143.59 L 277.68 143.61 L 277.99 143.64 L 278.31 143.67 L 278.62 143.70 L 278.94 143.73 L 279.25 143.75 L 279.57 143.78 L 279.89 143.81 L 280.20 143.83 L 280.52 143.86 L 280.83 143.89 L 281.15 143.91 L 281.47 143.94 L 281.78 143.97 L 282.10 143.99 L 282.41 144.02 L 282.73 144.04 L 283.05 144.07 L 283.36 144.09 L 283.68 144.12 L 283.99 144.14 L 284.31 144.16 L 284.63 144.19 L 284.94 144.21 L 285.26 144.24 L 285.57 144.26 L 285.89 144.28 L 286.20 144.31 L 286.52 144.33 L 286.84 144.35 L 287.15 144.37 L 287.47 144.40 L 287.78 144.42 L 288.10 144.44 L 288.42 144.46 L 288.73 144.48 L 289.05 144.51 L 289.36 144.53 L 289.68 144.55 L 290.00 144.57 L 290.31 144.59 L 290.63 144.61 L 290.94 144.63 L 291.26 144.65 L 291.58 144.67 L 291.89 144.69 L 292.21 144.71 L 292.52 144.73 L 292.84 144.75 L 293.15 144.77 L 293.47 144.79 L 293.79 144.81 L 294.10 144.83 L 294.42 144.85 L 294.73 144.87 L 295.05 144.89 L 295.37 144.91 L 295.68 144.93 L 296.00 144.94 L 296.31 144.96 L 296.63 144.98 L 296.95 145.00 L 297.26 145.02 L 297.58 145.04 L 297.89 145.05 L 298.21 145.07 L 298.53 145.09 L 298.84 145.11 L 299.16 145.12 L 299.47 145.14 L 299.79 145.16 L 300.10 145.17 L 300.42 145.19 L 300.74 145.21 L 301.05 145.22 L 301.37 145.24 L 301.68 145.26 L 302.00 145.27" fill="none" stroke="#7E8692" stroke-width="2.3" stroke-linecap="round" stroke-linejoin="round"/>
</svg>
