<svg xmlns="http://www.w3.org/2000/svg" viewBox="0 0 320 180" width="320" height="180">
  <rect width="320" height="180" fill="none"/>
  <path d="M 33.52 157.57 L 33.65 156.68 L 33.77 155.80 L 33.90 154.95 L 34.02 154.12 L 34.14 153.31 L 34.27 152.52 L 34.39 151.75 L 34.51 150.99 L 34.64 150.25 L 34.76 149.53 L 34.88 148.83 L 35.01 148.14 L 35.13 147.46 L 35.26 146.80 L 35.38 146.15 L 35.50 145.52 L 35.63 144.90 L 35.75 144.30 L 35.87 143.70 L 36.00 143.12 L 36.12 142.55 L 36.25 141.99 L 36.37 141.44 L 36.49 140.90 L 36.62 140.37 L 36.74 139.85 L 36.86 139.35 L 36.99 138.85 L 37.11 138.36 L 37.24 137.88 L 37.36 137.40 L 37.48 136.94 L 37.61 136.48 L 37.73 136.04 L 37.85 135.60 L 37.98 135.16 L 38.10 134.74 L 38.22 134.32 L 38.35 133.91 L 38.47 133.51 L 38.60 133.11 L 38.72 132.72 L 38.84 132.33 L 38.97 131.95 L 39.09 131.58 L 39.21 131.21 L 39.34 130.85 L 39.46 130.49 L 39.59 130.14 L 39.71 129.80 L 39.83 129.46 L 39.96 129.12 L 40.08 128.79 L 40.20 128.47 L 40.33 128.15 L 40.45 127.83 L 40.57 127.52 L 40.70 127.21 L 40.82 126.91 L 40.95 126.61 L 41.07 126.32 L 41.19 126.03 L 41.32 125.74 L 41.44 125.46 L 41.56 125.18 L 41.69 124.90 L 41.81 124.63 L 41.94 124.36 L 42.06 124.10 L 42.18 123.84 L 42.31 123.58 L 42.43 123.32 L 42.55 123.07 L 42.68 122.82 L 42.80 122.58 L 42.92 122.34 L 43.05 122.10 L 43.17 121.86 L 43.30 121.63 L 43.42 121.39 L 43.54 121.17 L 43.67 120.94 L 43.79 120.72 L 43.91 120.50 L 44.04 120.28 L 44.16 120.06 L 44.29 119.85 L 44.41 119.64 L 44.53 119.43 L 44.66 119.23 L 44.78 119.02 L 44.90 118.82 L 45.03 118.62 L 45.15 118.43 L 45.28 118.23 L 45.40 118.04 L 45.52 117.85 L 45.65 117.66 L 45.77 117.47 L 45.89 117.29 L 46.02 117.10 L 46.14 116.92 L 46.26 116.74 L 46.39 116.57 L 46.51 116.39 L 46.64 116.22 L 46.76 116.04 L 46.88 115.87 L 47.01 115.70 L 47.13 115.54 L 47.25 115.37 L 47.38 115.21 L 47.50 115.04 L 47.63 114.88 L 47.75 114.72 L 47.87 114.57 L 48.00 114.41 L 48.12 114.25 L 48.24 114.10 L 48.37 113.95 L 48.49 113.80 L 48.61 113.65 L 48.74 113.50 L 48.86 113.35 L 48.99 113.21 L 49.11 113.06 L 49.23 112.92 L 49.36 112.78 L 49.48 112.64 L 49.60 112.50 L 49.73 112.36 L 49.85 112.22 L 49.98 112.09 L 50.10 111.95 L 50.22 111.82 L 50.35 111.69 L 50.47 111.55 L 50.59 111.42 L 50.72 111.29 L 50.84 111.17 L 50.96 111.04 L 51.09 110.91 L 51.21 110.79 L 51.34 110.66 L 51.46 110.54 L 51.58 110.42 L 51.71 110.29 L 51.83 110.17 L 51.95 110.05 L 52.08 109.94 L 52.20 109.82 L 52.33 109.70 L 52.45 109.58 L 52.57 109.47 L 52.70 109.35 L 52.82 109.24 L 52.94 109.13 L 53.07 109.02 L 53.19 108.91 L 53.32 108.79 L 53.44 108.69 L 53.56 108.58 L 53.69 108.47 L 53.81 108.36 L 53.93 108.25 L 54.06 108.15 L 54.18 108.04 L 54.30 107.94 L 54.43 107.84 L 54.55 107.73 L 54.68 107.63 L 54.80 107.53 L 54.92 107.43 L 55.05 107.33 L 55.17 107.23 L 55.29 107.13 L 55.42 107.03 L 55.54 106.93 L 55.67 106.84 L 55.79 106.74 L 55.91 106.64 L 56.04 106.55 L 56.16 106.45 L 56.28 106.36 L 56.41 106.27 L 56.53 106.17 L 56.65 106.08 L 56.78 105.99 L 56.90 105.90 L 57.03 105.81 L 57.15 105.72 L 57.27 105.63 L 57.40 105.54 L 57.52 105.45 L 57.64 105.36 L 57.77 105.27 L 57.89 105.19 L 58.02 105.10 L 58.14 105.01 L 58.26 104.93 L 58.39 104.84 L 58.51 104.76 L 58.63 104.67 L 58.76 104.59 L 58.88 104.51 L 59.01 104.43 L 59.13 104.34 L 59.25 104.26 L 59.38 104.18 L 59.50 104.10 L 59.62 104.02 L 59.75 103.94 L 59.87 103.86 L 59.99 103.78 L 60.12 103.70 L 60.24 103.62 L 60.37 103.54 L 60.49 103.47 L 60.61 103.39 L 60.74 103.31 L 60.86 103.24 L 60.98 103.16 L 61.11 103.08 L 61.23 103.01 L 61.36 102.93 L 61.48 102.86 L 61.60 102.78 L 61.73 102.71 L 61.85 102.64 L 61.97 102.56 L 62.10 102.49 L 62.22 102.42 L 62.34 102.35 L 62.47 102.27 L 62.59 102.20 L 62.72 102.13 L 62.84 102.06 L 62.96 101.99 L 63.09 101.92 L 63.21 101.85 L 63.33 101.78 L 63.46 101.71 L 63.58 101.64 L 63.71 101.57 L 63.83 101.51 L 63.95 101.44 L 64.08 101.37 L 64.20 101.30 L 64.32 101.23 L 64.45 101.17 L 64.57 101.10 L 64.69 101.04 L 64.82 100.97 L 64.94 100.90 L 65.07 100.84 L 65.19 100.77 L 65.31 100.71 L 65.44 100.64 L 65.56 100.58 L 65.68 100.51 L 65.81 100.45 L 65.93 100.39 L 66.06 100.32 L 66.18 100.26 L 66.30 100.20 L 66.43 100.13 L 66.55 100.07 L 66.67 100.01 L 66.80 99.95 L 66.92 99.89 L 67.05 99.82 L 67.17 99.76 L 67.29 99.70 L 67.42 99.64 L 67.54 99.58 L 67.66 99.52 L 67.79 99.46 L 67.91 99.40 L 68.03 99.34 L 68.16 99.28 L 68.28 99.22 L 68.41 99.16 L 68.53 99.10 L 68.65 99.04 L 68.78 98.99 L 68.90 98.93 L 69.02 98.87 L 69.15 98.81 L 69.27 98.75 L 69.40 98.70 L 69.52 98.64 L 69.64 98.58 L 69.77 98.52 L 69.89 98.47 L 70.01 98.41 L 70.14 98.35 L 70.26 98.30 L 70.38 98.24 L 70.51 98.19 L 70.63 98.13 L 70.76 98.07 L 70.88 98.02 L 71.00 97.96 L 71.13 97.91 L 71.25 97.85 L 71.37 97.80 L 71.50 97.74 L 71.62 97.69 L 71.75 97.64 L 71.87 97.58 L 71.99 97.53 L 72.12 97.47 L 72.24 97.42 L 72.36 97.37 L 72.49 97.31 L 72.61 97.26 L 72.73 97.21 L 72.86 97.15 L 72.98 97.10 L 73.11 97.05 L 73.23 97.00 L 73.35 96.94 L 73.48 96.89 L 73.60 96.84 L 73.72 96.79 L 73.85 96.74 L 73.97 96.68 L 74.10 96.63 L 74.22 96.58 L 74.34 96.53 L 74.47 96.48 L 74.59 96.43 L 74.71 96.38 L 74.84 96.33 L 74.96 96.28 L 75.09 96.22 L 75.21 96.17 L 75.33 96.12 L 75.46 96.07 L 75.58 96.02 L 75.70 95.97 L 75.83 95.92 L 75.95 95.87 L 76.07 95.82 L 76.20 95.77 L 76.32 95.73 L 76.45 95.68 L 76.57 95.63 L 76.69 95.58 L 76.82 95.53 L 76.94 95.48 L 77.06 95.43 L 77.19 95.38 L 77.31 95.33 L 77.44 95.29 L 77.56 95.24 L 77.68 95.19 L 77.81 95.14 L 77.93 95.09 L 78.05 95.04 L 78.18 95.00 L 78.30 94.95 L 78.42 94.90 L 78.55 94.85 L 78.67 94.81 L 78.80 94.76 L 78.92 94.71 L 79.04 94.66 L 79.17 94.62 L 79.29 94.57 L 79.41 94.52 L 79.54 94.47 L 79.66 94.43 L 79.79 94.38 L 79.91 94.33 L 80.03 94.29 L 80.16 94.24 L 80.28 94.19 L 80.40 94.15 L 80.53 94.10 L 80.65 94.05 L 80.77 94.01 L 80.90 93.96 L 81.02 93.92 L 81.15 93.87 L 81.27 93.82 L 81.39 93.78 L 81.52 93.73 L 81.64 93.69 L 81.76 93.64 L 81.89 93.60 L 82.01 93.55 L 82.14 93.50 L 82.26 93.46 L 82.38 93.41 L 82.51 93.37 L 82.63 93.32 L 82.75 93.28 L 82.88 93.23 L 83.00 93.19 L 83.13 93.14 L 83.25 93.10 L 83.37 93.05 L 83.50 93.01 L 83.62 92.96 L 83.74 92.92 L 83.87 92.87 L 83.99 92.83 L 84.11 92.78 L 84.24 92.74 L 84.36 92.69 L 84.49 92.65 L 84.61 92.61 L 84.73 92.56 L 84.86 92.52 L 84.98 92.47 L 85.10 92.43 L 85.23 92.38 L 85.35 92.34 L 85.48 92.29 L 85.60 92.25 L 85.72 92.21 L 85.85 92.16 L 85.97 92.12 L 86.09 92.07 L 86.22 92.03 L 86.34 91.99 L 86.46 91.94 L 86.59 91.90 L 86.71 91.86 L 86.84 91.81 L 86.96 91.77 L 87.08 91.72 L 87.21 91.68 L 87.33 91.64 L 87.45 91.59 L 87.58 91.55 L 87.70 91.51 L 87.83 91.46 L 87.95 91.42 L 88.07 91.37 L 88.20 91.33 L 88.32 91.29 L 88.44 91.24 L 88.57 91.20 L 88.69 91.16 L 88.81 91.11 L 88.94 91.07 L 89.06 91.03 L 89.19 90.98 L 89.31 90.94 L 89.43 90.90 L 89.56 90.85 L 89.68 90.81 L 89.80 90.77 L 89.93 90.72 L 90.05 90.68 L 90.18 90.64 L 90.30 90.59 L 90.42 90.55 L 90.55 90.51 L 90.67 90.46 L 90.79 90.42 L 90.92 90.38 L 91.04 90.33 L 91.17 90.29 L 91.29 90.25 L 91.41 90.21 L 91.54 90.16 L 91.66 90.12 L 91.78 90.08 L 91.91 90.03 L 92.03 89.99 L 92.15 89.95 L 92.28 89.90 L 92.40 89.86 L 92.53 89.82 L 92.65 89.77 L 92.77 89.73 L 92.90 89.69 L 93.02 89.64 L 93.14 89.60 L 93.27 89.56 L 93.39 89.51 L 93.52 89.47 L 93.64 89.43 L 93.76 89.38 L 93.89 89.34 L 94.01 89.30 L 94.13 89.25 L 94.26 89.21 L 94.38 89.17 L 94.50 89.12 L 94.63 89.08 L 94.75 89.04 L 94.88 88.99 L 95.00 88.95 L 95.12 88.91 L 95.25 88.86 L 95.37 88.82 L 95.49 88.78 L 95.62 88.73 L 95.74 88.69 L 95.87 88.65 L 95.99 88.60 L 96.11 88.56 L 96.24 88.52 L 96.36 88.47 L 96.48 88.43 L 96.61 88.39 L 96.73 88.34 L 96.85 88.30 L 96.98 88.25 L 97.10 88.21 L 97.23 88.17 L 97.35 88.12 L 97.47 88.08 L 97.60 88.04 L 97.72 87.99 L 97.84 87.95 L 97.97 87.90 L 98.09 87.86 L 98.22 87.82 L 98.34 87.77 L 98.46 87.73 L 98.59 87.68 L 98.71 87.64 L 98.83 87.59 L 98.96 87.55 L 99.08 87.51 L 99.21 87.46 L 99.33 87.42 L 99.45 87.37 L 99.58 87.33 L 99.70 87.28 L 99.82 87.24 L 99.95 87.19 L 100.07 87.15 L 100.19 87.10 L 100.32 87.06 L 100.44 87.02 L 100.57 86.97 L 100.69 86.93 L 100.81 86.88 L 100.94 86.84 L 101.06 86.79 L 101.18 86.75 L 101.31 86.70 L 101.43 86.65 L 101.56 86.61 L 101.68 86.56 L 101.80 86.52 L 101.93 86.47 L 102.05 86.43 L 102.17 86.38 L 102.30 86.34 L 102.42 86.29 L 102.54 86.24 L 102.67 86.20 L 102.79 86.15 L 102.92 86.11 L 103.04 86.06 L 103.16 86.01 L 103.29 85.97 L 103.41 85.92 L 103.53 85.88 L 103.66 85.83 L 103.78 85.78 L 103.91 85.74 L 104.03 85.69 L 104.15 85.64 L 104.28 85.60 L 104.40 85.55 L 104.52 85.50 L 104.65 85.46 L 104.77 85.41 L 104.89 85.36 L 105.02 85.31 L 105.14 85.27 L 105.27 85.22 L 105.39 85.17 L 105.51 85.12 L 105.64 85.08 L 105.76 85.03 L 105.88 84.98 L 106.01 84.93 L 106.13 84.88 L 106.26 84.84 L 106.38 84.79 L 106.50 84.74 L 106.63 84.69 L 106.75 84.64 L 106.87 84.59 L 107.00 84.54 L 107.12 84.50 L 107.25 84.45 L 107.37 84.40 L 107.49 84.35 L 107.62 84.30 L 107.74 84.25 L 107.86 84.20 L 107.99 84.15 L 108.11 84.10 L 108.23 84.05 L 108.36 84.00 L 108.48 83.95 L 108.61 83.90 L 108.73 83.85 L 108.85 83.80 L 108.98 83.75 L 109.10 83.70 L 109.22 83.65 L 109.35 83.60 L 109.47 83.55 L 109.60 83.50 L 109.72 83.44 L 109.84 83.39 L 109.97 83.34 L 110.09 83.29 L 110.21 83.24 L 110.34 83.19 L 110.46 83.13 L 110.58 83.08 L 110.71 83.03 L 110.83 82.98 L 110.96 82.93 L 111.08 82.87 L 111.20 82.82 L 111.33 82.77 L 111.45 82.71 L 111.57 82.66 L 111.70 82.61 L 111.82 82.55 L 111.95 82.50 L 112.07 82.45 L 112.19 82.39 L 112.32 82.34 L 112.44 82.28 L 112.56 82.23 L 112.69 82.17 L 112.81 82.12 L 112.93 82.06 L 113.06 82.01 L 113.18 81.95 L 113.31 81.90 L 113.43 81.84 L 113.55 81.79 L 113.68 81.73 L 113.80 81.67 L 113.92 81.62 L 114.05 81.56 L 114.17 81.50 L 114.30 81.45 L 114.42 81.39 L 114.54 81.33 L 114.67 81.28 L 114.79 81.22 L 114.91 81.16 L 115.04 81.10 L 115.16 81.04 L 115.29 80.99 L 115.41 80.93 L 115.53 80.87 L 115.66 80.81 L 115.78 80.75 L 115.90 80.69 L 116.03 80.63 L 116.15 80.57 L 116.27 80.51 L 116.40 80.45 L 116.52 80.39 L 116.65 80.33 L 116.77 80.27 L 116.89 80.21 L 117.02 80.15 L 117.14 80.08 L 117.26 80.02 L 117.39 79.96 L 117.51 79.90 L 117.64 79.83 L 117.76 79.77 L 117.88 79.71 L 118.01 79.65 L 118.13 79.58 L 118.25 79.52 L 118.38 79.45 L 118.50 79.39 L 118.62 79.32 L 118.75 79.26 L 118.87 79.19 L 119.00 79.13 L 119.12 79.06 L 119.24 79.00 L 119.37 78.93 L 119.49 78.87 L 119.61 78.80 L 119.74 78.73 L 119.86 78.66 L 119.99 78.60 L 120.11 78.53 L 120.23 78.46 L 120.36 78.39 L 120.48 78.32 L 120.60 78.25 L 120.73 78.18 L 120.85 78.11 L 120.97 78.04 L 121.10 77.97 L 121.22 77.90 L 121.35 77.83 L 121.47 77.76 L 121.59 77.69 L 121.72 77.62 L 121.84 77.55 L 121.96 77.47 L 122.09 77.40 L 122.21 77.33 L 122.34 77.25 L 122.46 77.18 L 122.58 77.10 L 122.71 77.03 L 122.83 76.95 L 122.95 76.88 L 123.08 76.80 L 123.20 76.73 L 123.33 76.65 L 123.45 76.57 L 123.57 76.50 L 123.70 76.42 L 123.82 76.34 L 123.94 76.26 L 124.07 76.18 L 124.19 76.10 L 124.31 76.02 L 124.44 75.94 L 124.56 75.86 L 124.69 75.78 L 124.81 75.70 L 124.93 75.62 L 125.06 75.53 L 125.18 75.45 L 125.30 75.37 L 125.43 75.28 L 125.55 75.20 L 125.68 75.11 L 125.80 75.03 L 125.92 74.94 L 126.05 74.86 L 126.17 74.77 L 126.29 74.68 L 126.42 74.59 L 126.54 74.51 L 126.66 74.42 L 126.79 74.33 L 126.91 74.24 L 127.04 74.15 L 127.16 74.06 L 127.28 73.97 L 127.41 73.87 L 127.53 73.78 L 127.65 73.69 L 127.78 73.59 L 127.90 73.50 L 128.03 73.40 L 128.15 73.31 L 128.27 73.21 L 128.40 73.12 L 128.52 73.02 L 128.64 72.92 L 128.77 72.82 L 128.89 72.72 L 129.02 72.62 L 129.14 72.52 L 129.26 72.42 L 129.39 72.32 L 129.51 72.22 L 129.63 72.11 L 129.76 72.01 L 129.88 71.90 L 130.00 71.80 L 130.13 71.69 L 130.25 71.59 L 130.38 71.48 L 130.50 71.37 L 130.62 71.26 L 130.75 71.15 L 130.87 71.04 L 130.99 70.93 L 131.12 70.82 L 131.24 70.70 L 131.37 70.59 L 131.49 70.47 L 131.61 70.36 L 131.74 70.24 L 131.86 70.12 L 131.98 70.01 L 132.11 69.89 L 132.23 69.77 L 132.35 69.64 L 132.48 69.52 L 132.60 69.40 L 132.73 69.28 L 132.85 69.15 L 132.97 69.03 L 133.10 68.90 L 133.22 68.77 L 133.34 68.64 L 133.47 68.51 L 133.59 68.38 L 133.72 68.25 L 133.84 68.12 L 133.96 67.98 L 134.09 67.85 L 134.21 67.71 L 134.33 67.57 L 134.46 67.43 L 134.58 67.29 L 134.70 67.15 L 134.83 67.01 L 134.95 66.87 L 135.08 66.72 L 135.20 66.57 L 135.32 66.43 L 135.45 66.28 L 135.57 66.13 L 135.69 65.98 L 135.82 65.82 L 135.94 65.67 L 136.07 65.51 L 136.19 65.35 L 136.31 65.20 L 136.44 65.04 L 136.56 64.87 L 136.68 64.71 L 136.81 64.55 L 136.93 64.38 L 137.06 64.21 L 137.18 64.04 L 137.30 63.87 L 137.43 63.70 L 137.55 63.52 L 137.67 63.35 L 137.80 63.17 L 137.92 62.99 L 138.04 62.80 L 138.17 62.62 L 138.29 62.43 L 138.42 62.25 L 138.54 62.06 L 138.66 61.87 L 138.79 61.67 L 138.91 61.48 L 139.03 61.28 L 139.16 61.08 L 139.28 60.87 L 139.41 60.67 L 139.53 60.46 L 139.65 60.25 L 139.78 60.04 L 139.90 59.83 L 140.02 59.61 L 140.15 59.39 L 140.27 59.17 L 140.39 58.95 L 140.52 58.72 L 140.64 58.49 L 140.77 58.26 L 140.89 58.02 L 141.01 57.78 L 141.14 57.54 L 141.26 57.30 L 141.38 57.05 L 141.51 56.80 L 141.63 56.55 L 141.76 56.29 L 141.88 56.03 L 142.00 55.77 L 142.13 55.50 L 142.25 55.23 L 142.37 54.96 L 142.50 54.68 L 142.62 54.40 L 142.74 54.12 L 142.87 53.83 L 142.99 53.54 L 143.12 53.24 L 143.24 52.94 L 143.36 52.63 L 143.49 52.33 L 143.61 52.01 L 143.73 51.69 L 143.86 51.37 L 143.98 51.04 L 144.11 50.71 L 144.23 50.37 L 144.35 50.03 L 144.48 49.68 L 144.60 49.33 L 144.72 48.97 L 144.85 48.61 L 144.97 48.24 L 145.10 47.86 L 145.22 47.48 L 145.34 47.09 L 145.47 46.69 L 145.59 46.29 L 145.71 45.89 L 145.84 45.47 L 145.96 45.05 L 146.08 44.62 L 146.21 44.18 L 146.33 43.74 L 146.46 43.29 L 146.58 42.83 L 146.70 42.36 L 146.83 41.88 L 146.95 41.40 L 147.07 40.90 L 147.20 40.40 L 147.32 39.89 L 147.45 39.36 L 147.57 38.83 L 147.69 38.29 L 147.82 37.73 L 147.94 37.17 L 148.06 36.59 L 148.19 36.00 L 148.31 35.40 L 148.43 34.79 L 148.56 34.16 L 148.68 33.52 L 148.81 32.87 L 148.93 32.20 L 149.05 31.52 L 149.18 30.82 L 149.30 30.11 L 149.42 29.38 L 149.55 28.63 L 149.67 27.87 L 149.80 27.09 L 149.92 26.29 L 150.04 25.47 L 150.17 24.62 L 150.29 23.76 L 150.41 22.88" fill="none" stroke="#5F6B7A" stroke-width="2.5" stroke-linecap="round" stroke-linejoin="round"/>
  <path d="M 169.59 157.12 L 169.71 156.24 L 169.83 155.38 L 169.96 154.53 L 170.08 153.71 L 170.20 152.91 L 170.33 152.13 L 170.45 151.37 L 170.58 150.62 L 170.70 149.89 L 170.82 149.18 L 170.95 148.48 L 171.07 147.80 L 171.19 147.13 L 171.32 146.48 L 171.44 145.84 L 171.57 145.21 L 171.69 144.60 L 171.81 144.00 L 171.94 143.41 L 172.06 142.83 L 172.18 142.27 L 172.31 141.71 L 172.43 141.17 L 172.55 140.64 L 172.68 140.11 L 172.80 139.60 L 172.93 139.10 L 173.05 138.60 L 173.17 138.12 L 173.30 137.64 L 173.42 137.17 L 173.54 136.71 L 173.67 136.26 L 173.79 135.82 L 173.92 135.38 L 174.04 134.95 L 174.16 134.53 L 174.29 134.11 L 174.41 133.71 L 174.53 133.31 L 174.66 132.91 L 174.78 132.52 L 174.90 132.14 L 175.03 131.76 L 175.15 131.39 L 175.28 131.03 L 175.40 130.67 L 175.52 130.32 L 175.65 129.97 L 175.77 129.63 L 175.89 129.29 L 176.02 128.96 L 176.14 128.63 L 176.27 128.31 L 176.39 127.99 L 176.51 127.67 L 176.64 127.37 L 176.76 127.06 L 176.88 126.76 L 177.01 126.46 L 177.13 126.17 L 177.26 125.88 L 177.38 125.60 L 177.50 125.32 L 177.63 125.04 L 177.75 124.77 L 177.87 124.50 L 178.00 124.23 L 178.12 123.97 L 178.24 123.71 L 178.37 123.45 L 178.49 123.20 L 178.62 122.95 L 178.74 122.70 L 178.86 122.46 L 178.99 122.22 L 179.11 121.98 L 179.23 121.74 L 179.36 121.51 L 179.48 121.28 L 179.61 121.05 L 179.73 120.83 L 179.85 120.61 L 179.98 120.39 L 180.10 120.17 L 180.22 119.96 L 180.35 119.75 L 180.47 119.54 L 180.59 119.33 L 180.72 119.13 L 180.84 118.92 L 180.97 118.72 L 181.09 118.52 L 181.21 118.33 L 181.34 118.13 L 181.46 117.94 L 181.58 117.75 L 181.71 117.57 L 181.83 117.38 L 181.96 117.20 L 182.08 117.01 L 182.20 116.83 L 182.33 116.65 L 182.45 116.48 L 182.57 116.30 L 182.70 116.13 L 182.82 115.96 L 182.94 115.79 L 183.07 115.62 L 183.19 115.45 L 183.32 115.29 L 183.44 115.13 L 183.56 114.96 L 183.69 114.80 L 183.81 114.65 L 183.93 114.49 L 184.06 114.33 L 184.18 114.18 L 184.31 114.02 L 184.43 113.87 L 184.55 113.72 L 184.68 113.57 L 184.80 113.43 L 184.92 113.28 L 185.05 113.13 L 185.17 112.99 L 185.30 112.85 L 185.42 112.71 L 185.54 112.57 L 185.67 112.43 L 185.79 112.29 L 185.91 112.15 L 186.04 112.02 L 186.16 111.88 L 186.28 111.75 L 186.41 111.62 L 186.53 111.49 L 186.66 111.36 L 186.78 111.23 L 186.90 111.10 L 187.03 110.97 L 187.15 110.85 L 187.27 110.72 L 187.40 110.60 L 187.52 110.48 L 187.65 110.36 L 187.77 110.23 L 187.89 110.11 L 188.02 109.99 L 188.14 109.88 L 188.26 109.76 L 188.39 109.64 L 188.51 109.53 L 188.63 109.41 L 188.76 109.30 L 188.88 109.18 L 189.01 109.07 L 189.13 108.96 L 189.25 108.85 L 189.38 108.74 L 189.50 108.63 L 189.62 108.52 L 189.75 108.41 L 189.87 108.31 L 190.00 108.20 L 190.12 108.10 L 190.24 107.99 L 190.37 107.89 L 190.49 107.78 L 190.61 107.68 L 190.74 107.58 L 190.86 107.48 L 190.98 107.38 L 191.11 107.28 L 191.23 107.18 L 191.36 107.08 L 191.48 106.98 L 191.60 106.88 L 191.73 106.79 L 191.85 106.69 L 191.97 106.60 L 192.10 106.50 L 192.22 106.41 L 192.35 106.31 L 192.47 106.22 L 192.59 106.13 L 192.72 106.03 L 192.84 105.94 L 192.96 105.85 L 193.09 105.76 L 193.21 105.67 L 193.34 105.58 L 193.46 105.49 L 193.58 105.41 L 193.71 105.32 L 193.83 105.23 L 193.95 105.14 L 194.08 105.06 L 194.20 104.97 L 194.32 104.89 L 194.45 104.80 L 194.57 104.72 L 194.70 104.63 L 194.82 104.55 L 194.94 104.47 L 195.07 104.38 L 195.19 104.30 L 195.31 104.22 L 195.44 104.14 L 195.56 104.06 L 195.69 103.98 L 195.81 103.90 L 195.93 103.82 L 196.06 103.74 L 196.18 103.66 L 196.30 103.58 L 196.43 103.50 L 196.55 103.43 L 196.67 103.35 L 196.80 103.27 L 196.92 103.20 L 197.05 103.12 L 197.17 103.05 L 197.29 102.97 L 197.42 102.90 L 197.54 102.82 L 197.66 102.75 L 197.79 102.67 L 197.91 102.60 L 198.04 102.53 L 198.16 102.45 L 198.28 102.38 L 198.41 102.31 L 198.53 102.24 L 198.65 102.17 L 198.78 102.10 L 198.90 102.03 L 199.03 101.96 L 199.15 101.89 L 199.27 101.82 L 199.40 101.75 L 199.52 101.68 L 199.64 101.61 L 199.77 101.54 L 199.89 101.47 L 200.01 101.40 L 200.14 101.34 L 200.26 101.27 L 200.39 101.20 L 200.51 101.13 L 200.63 101.07 L 200.76 101.00 L 200.88 100.94 L 201.00 100.87 L 201.13 100.81 L 201.25 100.74 L 201.38 100.68 L 201.50 100.61 L 201.62 100.55 L 201.75 100.48 L 201.87 100.42 L 201.99 100.35 L 202.12 100.29 L 202.24 100.23 L 202.36 100.17 L 202.49 100.10 L 202.61 100.04 L 202.74 99.98 L 202.86 99.92 L 202.98 99.85 L 203.11 99.79 L 203.23 99.73 L 203.35 99.67 L 203.48 99.61 L 203.60 99.55 L 203.73 99.49 L 203.85 99.43 L 203.97 99.37 L 204.10 99.31 L 204.22 99.25 L 204.34 99.19 L 204.47 99.13 L 204.59 99.07 L 204.71 99.01 L 204.84 98.96 L 204.96 98.90 L 205.09 98.84 L 205.21 98.78 L 205.33 98.72 L 205.46 98.67 L 205.58 98.61 L 205.70 98.55 L 205.83 98.50 L 205.95 98.44 L 206.08 98.38 L 206.20 98.33 L 206.32 98.27 L 206.45 98.21 L 206.57 98.16 L 206.69 98.10 L 206.82 98.05 L 206.94 97.99 L 207.07 97.94 L 207.19 97.88 L 207.31 97.83 L 207.44 97.77 L 207.56 97.72 L 207.68 97.66 L 207.81 97.61 L 207.93 97.55 L 208.05 97.50 L 208.18 97.45 L 208.30 97.39 L 208.43 97.34 L 208.55 97.29 L 208.67 97.23 L 208.80 97.18 L 208.92 97.13 L 209.04 97.07 L 209.17 97.02 L 209.29 96.97 L 209.42 96.92 L 209.54 96.87 L 209.66 96.81 L 209.79 96.76 L 209.91 96.71 L 210.03 96.66 L 210.16 96.61 L 210.28 96.56 L 210.40 96.50 L 210.53 96.45 L 210.65 96.40 L 210.78 96.35 L 210.90 96.30 L 211.02 96.25 L 211.15 96.20 L 211.27 96.15 L 211.39 96.10 L 211.52 96.05 L 211.64 96.00 L 211.77 95.95 L 211.89 95.90 L 212.01 95.85 L 212.14 95.80 L 212.26 95.75 L 212.38 95.70 L 212.51 95.65 L 212.63 95.60 L 212.75 95.55 L 212.88 95.50 L 213.00 95.46 L 213.13 95.41 L 213.25 95.36 L 213.37 95.31 L 213.50 95.26 L 213.62 95.21 L 213.74 95.16 L 213.87 95.12 L 213.99 95.07 L 214.12 95.02 L 214.24 94.97 L 214.36 94.92 L 214.49 94.88 L 214.61 94.83 L 214.73 94.78 L 214.86 94.73 L 214.98 94.69 L 215.11 94.64 L 215.23 94.59 L 215.35 94.54 L 215.48 94.50 L 215.60 94.45 L 215.72 94.40 L 215.85 94.36 L 215.97 94.31 L 216.09 94.26 L 216.22 94.22 L 216.34 94.17 L 216.47 94.12 L 216.59 94.08 L 216.71 94.03 L 216.84 93.99 L 216.96 93.94 L 217.08 93.89 L 217.21 93.85 L 217.33 93.80 L 217.46 93.76 L 217.58 93.71 L 217.70 93.66 L 217.83 93.62 L 217.95 93.57 L 218.07 93.53 L 218.20 93.48 L 218.32 93.44 L 218.44 93.39 L 218.57 93.35 L 218.69 93.30 L 218.82 93.25 L 218.94 93.21 L 219.06 93.16 L 219.19 93.12 L 219.31 93.07 L 219.43 93.03 L 219.56 92.98 L 219.68 92.94 L 219.81 92.90 L 219.93 92.85 L 220.05 92.81 L 220.18 92.76 L 220.30 92.72 L 220.42 92.67 L 220.55 92.63 L 220.67 92.58 L 220.79 92.54 L 220.92 92.49 L 221.04 92.45 L 221.17 92.41 L 221.29 92.36 L 221.41 92.32 L 221.54 92.27 L 221.66 92.23 L 221.78 92.18 L 221.91 92.14 L 222.03 92.10 L 222.16 92.05 L 222.28 92.01 L 222.40 91.96 L 222.53 91.92 L 222.65 91.88 L 222.77 91.83 L 222.90 91.79 L 223.02 91.75 L 223.15 91.70 L 223.27 91.66 L 223.39 91.61 L 223.52 91.57 L 223.64 91.53 L 223.76 91.48 L 223.89 91.44 L 224.01 91.40 L 224.13 91.35 L 224.26 91.31 L 224.38 91.27 L 224.51 91.22 L 224.63 91.18 L 224.75 91.14 L 224.88 91.09 L 225.00 91.05 L 225.12 91.01 L 225.25 90.96 L 225.37 90.92 L 225.50 90.88 L 225.62 90.83 L 225.74 90.79 L 225.87 90.75 L 225.99 90.70 L 226.11 90.66 L 226.24 90.62 L 226.36 90.57 L 226.48 90.53 L 226.61 90.49 L 226.73 90.44 L 226.86 90.40 L 226.98 90.36 L 227.10 90.31 L 227.23 90.27 L 227.35 90.23 L 227.47 90.18 L 227.60 90.14 L 227.72 90.10 L 227.85 90.05 L 227.97 90.01 L 228.09 89.97 L 228.22 89.92 L 228.34 89.88 L 228.46 89.84 L 228.59 89.79 L 228.71 89.75 L 228.83 89.71 L 228.96 89.67 L 229.08 89.62 L 229.21 89.58 L 229.33 89.54 L 229.45 89.49 L 229.58 89.45 L 229.70 89.41 L 229.82 89.36 L 229.95 89.32 L 230.07 89.28 L 230.20 89.23 L 230.32 89.19 L 230.44 89.15 L 230.57 89.10 L 230.69 89.06 L 230.81 89.02 L 230.94 88.97 L 231.06 88.93 L 231.19 88.89 L 231.31 88.84 L 231.43 88.80 L 231.56 88.76 L 231.68 88.71 L 231.80 88.67 L 231.93 88.63 L 232.05 88.58 L 232.17 88.54 L 232.30 88.49 L 232.42 88.45 L 232.55 88.41 L 232.67 88.36 L 232.79 88.32 L 232.92 88.28 L 233.04 88.23 L 233.16 88.19 L 233.29 88.14 L 233.41 88.10 L 233.54 88.06 L 233.66 88.01 L 233.78 87.97 L 233.91 87.93 L 234.03 87.88 L 234.15 87.84 L 234.28 87.79 L 234.40 87.75 L 234.52 87.71 L 234.65 87.66 L 234.77 87.62 L 234.90 87.57 L 235.02 87.53 L 235.14 87.48 L 235.27 87.44 L 235.39 87.39 L 235.51 87.35 L 235.64 87.31 L 235.76 87.26 L 235.89 87.22 L 236.01 87.17 L 236.13 87.13 L 236.26 87.08 L 236.38 87.04 L 236.50 86.99 L 236.63 86.95 L 236.75 86.90 L 236.87 86.86 L 237.00 86.81 L 237.12 86.77 L 237.25 86.72 L 237.37 86.68 L 237.49 86.63 L 237.62 86.59 L 237.74 86.54 L 237.86 86.50 L 237.99 86.45 L 238.11 86.40 L 238.24 86.36 L 238.36 86.31 L 238.48 86.27 L 238.61 86.22 L 238.73 86.18 L 238.85 86.13 L 238.98 86.08 L 239.10 86.04 L 239.23 85.99 L 239.35 85.95 L 239.47 85.90 L 239.60 85.85 L 239.72 85.81 L 239.84 85.76 L 239.97 85.71 L 240.09 85.67 L 240.21 85.62 L 240.34 85.57 L 240.46 85.53 L 240.59 85.48 L 240.71 85.43 L 240.83 85.38 L 240.96 85.34 L 241.08 85.29 L 241.20 85.24 L 241.33 85.19 L 241.45 85.15 L 241.58 85.10 L 241.70 85.05 L 241.82 85.00 L 241.95 84.96 L 242.07 84.91 L 242.19 84.86 L 242.32 84.81 L 242.44 84.76 L 242.56 84.71 L 242.69 84.67 L 242.81 84.62 L 242.94 84.57 L 243.06 84.52 L 243.18 84.47 L 243.31 84.42 L 243.43 84.37 L 243.55 84.32 L 243.68 84.27 L 243.80 84.23 L 243.93 84.18 L 244.05 84.13 L 244.17 84.08 L 244.30 84.03 L 244.42 83.98 L 244.54 83.93 L 244.67 83.88 L 244.79 83.83 L 244.91 83.78 L 245.04 83.72 L 245.16 83.67 L 245.29 83.62 L 245.41 83.57 L 245.53 83.52 L 245.66 83.47 L 245.78 83.42 L 245.90 83.37 L 246.03 83.32 L 246.15 83.26 L 246.28 83.21 L 246.40 83.16 L 246.52 83.11 L 246.65 83.06 L 246.77 83.00 L 246.89 82.95 L 247.02 82.90 L 247.14 82.85 L 247.27 82.79 L 247.39 82.74 L 247.51 82.69 L 247.64 82.63 L 247.76 82.58 L 247.88 82.53 L 248.01 82.47 L 248.13 82.42 L 248.25 82.36 L 248.38 82.31 L 248.50 82.26 L 248.63 82.20 L 248.75 82.15 L 248.87 82.09 L 249.00 82.04 L 249.12 81.98 L 249.24 81.93 L 249.37 81.87 L 249.49 81.81 L 249.62 81.76 L 249.74 81.70 L 249.86 81.65 L 249.99 81.59 L 250.11 81.53 L 250.23 81.48 L 250.36 81.42 L 250.48 81.36 L 250.60 81.30 L 250.73 81.25 L 250.85 81.19 L 250.98 81.13 L 251.10 81.07 L 251.22 81.01 L 251.35 80.96 L 251.47 80.90 L 251.59 80.84 L 251.72 80.78 L 251.84 80.72 L 251.97 80.66 L 252.09 80.60 L 252.21 80.54 L 252.34 80.48 L 252.46 80.42 L 252.58 80.36 L 252.71 80.30 L 252.83 80.24 L 252.95 80.18 L 253.08 80.11 L 253.20 80.05 L 253.33 79.99 L 253.45 79.93 L 253.57 79.87 L 253.70 79.80 L 253.82 79.74 L 253.94 79.68 L 254.07 79.61 L 254.19 79.55 L 254.32 79.49 L 254.44 79.42 L 254.56 79.36 L 254.69 79.29 L 254.81 79.23 L 254.93 79.16 L 255.06 79.10 L 255.18 79.03 L 255.31 78.96 L 255.43 78.90 L 255.55 78.83 L 255.68 78.77 L 255.80 78.70 L 255.92 78.63 L 256.05 78.56 L 256.17 78.49 L 256.29 78.43 L 256.42 78.36 L 256.54 78.29 L 256.67 78.22 L 256.79 78.15 L 256.91 78.08 L 257.04 78.01 L 257.16 77.94 L 257.28 77.87 L 257.41 77.80 L 257.53 77.73 L 257.66 77.65 L 257.78 77.58 L 257.90 77.51 L 258.03 77.44 L 258.15 77.36 L 258.27 77.29 L 258.40 77.22 L 258.52 77.14 L 258.64 77.07 L 258.77 76.99 L 258.89 76.92 L 259.02 76.84 L 259.14 76.76 L 259.26 76.69 L 259.39 76.61 L 259.51 76.53 L 259.63 76.46 L 259.76 76.38 L 259.88 76.30 L 260.01 76.22 L 260.13 76.14 L 260.25 76.06 L 260.38 75.98 L 260.50 75.90 L 260.62 75.82 L 260.75 75.74 L 260.87 75.66 L 260.99 75.57 L 261.12 75.49 L 261.24 75.41 L 261.37 75.33 L 261.49 75.24 L 261.61 75.16 L 261.74 75.07 L 261.86 74.99 L 261.98 74.90 L 262.11 74.81 L 262.23 74.73 L 262.36 74.64 L 262.48 74.55 L 262.60 74.46 L 262.73 74.37 L 262.85 74.28 L 262.97 74.19 L 263.10 74.10 L 263.22 74.01 L 263.35 73.92 L 263.47 73.83 L 263.59 73.73 L 263.72 73.64 L 263.84 73.55 L 263.96 73.45 L 264.09 73.36 L 264.21 73.26 L 264.33 73.16 L 264.46 73.07 L 264.58 72.97 L 264.71 72.87 L 264.83 72.77 L 264.95 72.67 L 265.08 72.57 L 265.20 72.47 L 265.32 72.37 L 265.45 72.27 L 265.57 72.16 L 265.70 72.06 L 265.82 71.96 L 265.94 71.85 L 266.07 71.75 L 266.19 71.64 L 266.31 71.53 L 266.44 71.42 L 266.56 71.31 L 266.68 71.21 L 266.81 71.09 L 266.93 70.98 L 267.06 70.87 L 267.18 70.76 L 267.30 70.65 L 267.43 70.53 L 267.55 70.42 L 267.67 70.30 L 267.80 70.18 L 267.92 70.06 L 268.05 69.95 L 268.17 69.83 L 268.29 69.71 L 268.42 69.58 L 268.54 69.46 L 268.66 69.34 L 268.79 69.21 L 268.91 69.09 L 269.04 68.96 L 269.16 68.83 L 269.28 68.71 L 269.41 68.58 L 269.53 68.45 L 269.65 68.31 L 269.78 68.18 L 269.90 68.05 L 270.02 67.91 L 270.15 67.78 L 270.27 67.64 L 270.40 67.50 L 270.52 67.36 L 270.64 67.22 L 270.77 67.08 L 270.89 66.94 L 271.01 66.79 L 271.14 66.65 L 271.26 66.50 L 271.39 66.35 L 271.51 66.20 L 271.63 66.05 L 271.76 65.90 L 271.88 65.75 L 272.00 65.59 L 272.13 65.43 L 272.25 65.28 L 272.37 65.12 L 272.50 64.96 L 272.62 64.79 L 272.75 64.63 L 272.87 64.46 L 272.99 64.30 L 273.12 64.13 L 273.24 63.96 L 273.36 63.78 L 273.49 63.61 L 273.61 63.43 L 273.74 63.26 L 273.86 63.08 L 273.98 62.90 L 274.11 62.71 L 274.23 62.53 L 274.35 62.34 L 274.48 62.15 L 274.60 61.96 L 274.72 61.77 L 274.85 61.57 L 274.97 61.38 L 275.10 61.18 L 275.22 60.98 L 275.34 60.77 L 275.47 60.57 L 275.59 60.36 L 275.71 60.15 L 275.84 59.94 L 275.96 59.72 L 276.09 59.50 L 276.21 59.28 L 276.33 59.06 L 276.46 58.83 L 276.58 58.61 L 276.70 58.37 L 276.83 58.14 L 276.95 57.90 L 277.08 57.66 L 277.20 57.42 L 277.32 57.18 L 277.45 56.93 L 277.57 56.68 L 277.69 56.42 L 277.82 56.16 L 277.94 55.90 L 278.06 55.64 L 278.19 55.37 L 278.31 55.10 L 278.44 54.82 L 278.56 54.54 L 278.68 54.26 L 278.81 53.97 L 278.93 53.68 L 279.05 53.39 L 279.18 53.09 L 279.30 52.79 L 279.43 52.48 L 279.55 52.17 L 279.67 51.85 L 279.80 51.53 L 279.92 51.21 L 280.04 50.88 L 280.17 50.54 L 280.29 50.20 L 280.41 49.86 L 280.54 49.51 L 280.66 49.15 L 280.79 48.79 L 280.91 48.42 L 281.03 48.05 L 281.16 47.67 L 281.28 47.28 L 281.40 46.89 L 281.53 46.49 L 281.65 46.09 L 281.78 45.68 L 281.90 45.26 L 282.02 44.84 L 282.15 44.40 L 282.27 43.96 L 282.39 43.52 L 282.52 43.06 L 282.64 42.60 L 282.76 42.12 L 282.89 41.64 L 283.01 41.15 L 283.14 40.65 L 283.26 40.15 L 283.38 39.63 L 283.51 39.10 L 283.63 38.56 L 283.75 38.01 L 283.88 37.45 L 284.00 36.88 L 284.13 36.30 L 284.25 35.70 L 284.37 35.10 L 284.50 34.48 L 284.62 33.85 L 284.74 33.20 L 284.87 32.54 L 284.99 31.86 L 285.12 31.17 L 285.24 30.47 L 285.36 29.75 L 285.49 29.01 L 285.61 28.25 L 285.73 27.48 L 285.86 26.69 L 285.98 25.88 L 286.10 25.05 L 286.23 24.20 L 286.35 23.32 L 286.48 22.43" fill="none" stroke="#5F6B7A" stroke-width="2.5" stroke-linecap="round" stroke-linejoin="round"/>
</svg>
