<svg xmlns="http://www.w3.org/2000/svg" viewBox="0 0 320 180" width="320" height="180">
  <rect width="320" height="180" fill="#F4F5F7"/>
  <path d="M 18.00 70.80 L 18.24 70.79 L 18.47 70.78 L 18.71 70.77 L 18.95 70.76 L 19.18 70.75 L 19.42 70.74 L 19.66 70.72 L 19.89 70.71 L 20.13 70.70 L 20.37 70.69 L 20.61 70.68 L 20.84 70.67 L 21.08 70.66 L 21.32 70.65 L 21.55 70.63 L 21.79 70.62 L 22.03 70.61 L 22.26 70.60 L 22.50 70.59 L 22.74 70.58 L 22.97 70.56 L 23.21 70.55 L 23.45 70.54 L 23.68 70.53 L 23.92 70.52 L 24.16 70.51 L 24.40 70.49 L 24.63 70.48 L 24.87 70.47 L 25.11 70.46 L 25.34 70.44 L 25.58 70.43 L 25.82 70.42 L 26.05 70.41 L 26.29 70.39 L 26.53 70.38 L 26.76 70.37 L 27.00 70.36 L 27.24 70.34 L 27.47 70.33 L 27.71 70.32 L 27.95 70.31 L 28.19 70.29 L 28.42 70.28 L 28.66 70.27 L 28.90 70.25 L 29.13 70.24 L 29.37 70.23 L 29.61 70.21 L 29.84 70.20 L 30.08 70.19 L 30.32 70.17 L 30.55 70.16 L 30.79 70.14 L 31.03 70.13 L 31.26 70.12 L 31.50 70.10 L 31.74 70.09 L 31.97 70.08 L 32.21 70.06 L 32.45 70.05 L 32.69 70.03 L 32.92 70.02 L 33.16 70.00 L 33.40 69.99 L 33.63 69.97 L 33.87 69.96 L 34.11 69.94 L 34.34 69.93 L 34.58 69.91 L 34.82 69.90 L 35.05 69.88 L 35.29 69.87 L 35.53 69.85 L 35.76 69.84 L 36.00 69.82 L 36.24 69.81 L 36.48 69.79 L 36.71 69.78 L 36.95 69.76 L 37.19 69.75 L 37.42 69.73 L 37.66 69.71 L 37.90 69.70 L 38.13 69.68 L 38.37 69.66 L 38.61 69.65 L 38.84 69.63 L 39.08 69.62 L 39.32 69.60 L 39.55 69.58 L 39.79 69.57 L 40.03 69.55 L 40.27 69.53 L 40.50 69.51 L 40.74 69.50 L 40.98 69.48 L 41.21 69.46 L 41.45 69.44 L 41.69 69.43 L 41.92 69.41 L 42.16 69.39 L 42.40 69.37 L 42.63 69.36 L 42.87 69.34 L 43.11 69.32 L 43.34 69.30 L 43.58 69.28 L 43.82 69.26 L 44.06 69.25 L 44.29 69.23 L 44.53 69.21 L 44.77 69.19 L 45.00 69.17 L 45.24 69.15 L 45.48 69.13 L 45.71 69.11 L 45.95 69.09 L 46.19 69.07 L 46.42 69.05 L 46.66 69.03 L 46.90 69.01 L 47.13 68.99 L 47.37 68.97 L 47.61 68.95 L 47.84 68.93 L 48.08 68.91 L 48.32 68.89 L 48.56 68.87 L 48.79 68.85 L 49.03 68.83 L 49.27 68.81 L 49.50 68.78 L 49.74 68.76 L 49.98 68.74 L 50.21 68.72 L 50.45 68.70 L 50.69 68.67 L 50.92 68.65 L 51.16 68.63 L 51.40 68.61 L 51.63 68.58 L 51.87 68.56 L 52.11 68.54 L 52.35 68.52 L 52.58 68.49 L 52.82 68.47 L 53.06 68.44 L 53.29 68.42 L 53.53 68.40 L 53.77 68.37 L 54.00 68.35 L 54.24 68.32 L 54.48 68.30 L 54.71 68.27 L 54.95 68.25 L 55.19 68.22 L 55.42 68.20 L 55.66 68.17 L 55.90 68.15 L 56.14 68.12 L 56.37 68.10 L 56.61 68.07 L 56.85 68.04 L 57.08 68.02 L 57.32 67.99 L 57.56 67.96 L 57.79 67.94 L 58.03 67.91 L 58.27 67.88 L 58.50 67.85 L 58.74 67.83 L 58.98 67.80 L 59.21 67.77 L 59.45 67.74 L 59.69 67.71 L 59.92 67.68 L 60.16 67.65 L 60.40 67.63 L 60.64 67.60 L 60.87 67.57 L 61.11 67.54 L 61.35 67.51 L 61.58 67.48 L 61.82 67.44 L 62.06 67.41 L 62.29 67.38 L 62.53 67.35 L 62.77 67.32 L 63.00 67.29 L 63.24 67.26 L 63.48 67.22 L 63.71 67.19 L 63.95 67.16 L 64.19 67.12 L 64.43 67.09 L 64.66 67.06 L 64.90 67.02 L 65.14 66.99 L 65.37 66.95 L 65.61 66.92 L 65.85 66.88 L 66.08 66.85 L 66.32 66.81 L 66.56 66.78 L 66.79 66.74 L 67.03 66.70 L 67.27 66.67 L 67.50 66.63 L 67.74 66.59 L 67.98 66.56 L 68.22 66.52 L 68.45 66.48 L 68.69 66.44 L 68.93 66.40 L 69.16 66.36 L 69.40 66.32 L 69.64 66.28 L 69.87 66.24 L 70.11 66.20 L 70.35 66.16 L 70.58 66.12 L 70.82 66.08 L 71.06 66.03 L 71.29 65.99 L 71.53 65.95 L 71.77 65.91 L 72.01 65.86 L 72.24 65.82 L 72.48 65.77 L 72.72 65.73 L 72.95 65.68 L 73.19 65.64 L 73.43 65.59 L 73.66 65.54 L 73.90 65.50 L 74.14 65.45 L 74.37 65.40 L 74.61 65.35 L 74.85 65.30 L 75.08 65.26 L 75.32 65.21 L 75.56 65.15 L 75.79 65.10 L 76.03 65.05 L 76.27 65.00 L 76.51 64.95 L 76.74 64.90 L 76.98 64.84 L 77.22 64.79 L 77.45 64.73 L 77.69 64.68 L 77.93 64.62 L 78.16 64.57 L 78.40 64.51 L 78.64 64.45 L 78.87 64.40 L 79.11 64.34 L 79.35 64.28 L 79.58 64.22 L 79.82 64.16 L 80.06 64.10 L 80.30 64.04 L 80.53 63.97 L 80.77 63.91 L 81.01 63.85 L 81.24 63.78 L 81.48 63.72 L 81.72 63.65 L 81.95 63.58 L 82.19 63.52 L 82.43 63.45 L 82.66 63.38 L 82.90 63.31 L 83.14 63.24 L 83.37 63.17 L 83.61 63.10 L 83.85 63.02 L 84.09 62.95 L 84.32 62.88 L 84.56 62.80 L 84.80 62.72 L 85.03 62.65 L 85.27 62.57 L 85.51 62.49 L 85.74 62.41 L 85.98 62.33 L 86.22 62.25 L 86.45 62.16 L 86.69 62.08 L 86.93 61.99 L 87.16 61.91 L 87.40 61.82 L 87.64 61.73 L 87.87 61.64 L 88.11 61.55 L 88.35 61.46 L 88.59 61.37 L 88.82 61.27 L 89.06 61.18 L 89.30 61.08 L 89.53 60.98 L 89.77 60.88 L 90.01 60.78 L 90.24 60.68 L 90.48 60.57 L 90.72 60.47 L 90.95 60.36 L 91.19 60.25 L 91.43 60.14 L 91.66 60.03 L 91.90 59.92 L 92.14 59.80 L 92.38 59.69 L 92.61 59.57 L 92.85 59.45 L 93.09 59.33 L 93.32 59.20 L 93.56 59.08 L 93.80 58.95 L 94.03 58.82 L 94.27 58.69 L 94.51 58.56 L 94.74 58.42 L 94.98 58.28 L 95.22 58.14 L 95.45 58.00 L 95.69 57.86 L 95.93 57.71 L 96.17 57.56 L 96.40 57.41 L 96.64 57.25 L 96.88 57.09 L 97.11 56.93 L 97.35 56.77 L 97.59 56.61 L 97.82 56.44 L 98.06 56.27 L 98.30 56.09 L 98.53 55.91 L 98.77 55.73 L 99.01 55.55 L 99.24 55.36 L 99.48 55.17 L 99.72 54.97 L 99.95 54.77 L 100.19 54.57 L 100.43 54.36 L 100.67 54.15 L 100.90 53.94 L 101.14 53.72 L 101.38 53.49 L 101.61 53.26 L 101.85 53.03 L 102.09 52.79 L 102.32 52.55 L 102.56 52.30 L 102.80 52.05 L 103.03 51.79 L 103.27 51.52 L 103.51 51.25 L 103.74 50.97 L 103.98 50.69 L 104.22 50.39 L 104.46 50.10 L 104.69 49.79 L 104.93 49.48 L 105.17 49.16 L 105.40 48.83 L 105.64 48.50 L 105.88 48.15 L 106.11 47.80 L 106.35 47.43 L 106.59 47.06 L 106.82 46.68 L 107.06 46.29 L 107.30 45.88 L 107.53 45.47 L 107.77 45.04 L 108.01 44.60 L 108.25 44.15 L 108.48 43.69 L 108.72 43.21 L 108.96 42.71 L 109.19 42.20 L 109.43 41.68 L 109.67 41.14 L 109.90 40.58 L 110.14 40.00 L 110.38 39.40 L 110.61 38.79 L 110.85 38.15 L 111.09 37.49 L 111.32 36.80 L 111.56 36.09 L 111.80 35.35 L 112.04 34.59 L 112.27 33.79 L 112.51 32.97 L 112.75 32.11 L 112.98 31.22 L 113.22 30.28 L 113.46 29.31 L 113.69 28.30 L 113.93 27.24 L 114.17 26.13 L 114.40 24.97 L 114.64 23.75 L 114.88 22.48 L 115.11 21.13 L 115.35 19.72 L 115.59 18.24 L 115.82 16.67 L 116.06 15.02 L 116.30 13.27 L 116.54 11.42 L 116.77 9.45 L 117.01 7.36 L 117.25 5.13 L 117.48 2.75 L 117.72 0.20 L 117.96 -2.52 L 118.19 -5.46 L 118.43 -8.62 L 118.67 -12.04 L 118.90 -15.75 L 119.14 -19.79 L 119.38 -24.20 L 119.61 -29.04 L 119.85 -34.37 L 120.09 -40.28 L 120.33 -46.85 L 120.56 -54.22 L 120.80 -62.52 L 121.04 -71.97 L 121.27 -82.80 L 121.51 -95.35 L 121.75 -110.05 L 121.98 -127.52 L 122.22 -148.63 L 122.46 -174.63" fill="none" stroke="#7E8692" stroke-width="2.3" stroke-linecap="round" stroke-linejoin="round"/>
  <path d="M 126.48 333.30 L 126.72 305.81 L 126.96 283.62 L 127.19 265.33 L 127.43 250.00 L 127.67 236.96 L 127.90 225.74 L 128.14 215.97 L 128.38 207.40 L 128.62 199.81 L 128.85 193.05 L 129.09 186.99 L 129.33 181.52 L 129.56 176.57 L 129.80 172.06 L 130.04 167.93 L 130.27 164.14 L 130.51 160.65 L 130.75 157.43 L 130.98 154.44 L 131.22 151.66 L 131.46 149.07 L 131.69 146.65 L 131.93 144.39 L 132.17 142.26 L 132.41 140.27 L 132.64 138.38 L 132.88 136.61 L 133.12 134.93 L 133.35 133.34 L 133.59 131.84 L 133.83 130.41 L 134.06 129.05 L 134.30 127.76 L 134.54 126.53 L 134.77 125.36 L 135.01 124.24 L 135.25 123.16 L 135.48 122.14 L 135.72 121.16 L 135.96 120.21 L 136.20 119.31 L 136.43 118.44 L 136.67 117.61 L 136.91 116.81 L 137.14 116.03 L 137.38 115.29 L 137.62 114.57 L 137.85 113.88 L 138.09 113.22 L 138.33 112.57 L 138.56 111.95 L 138.80 111.35 L 139.04 110.76 L 139.27 110.20 L 139.51 109.65 L 139.75 109.13 L 139.98 108.61 L 140.22 108.12 L 140.46 107.63 L 140.70 107.16 L 140.93 106.71 L 141.17 106.27 L 141.41 105.84 L 141.64 105.42 L 141.88 105.01 L 142.12 104.62 L 142.35 104.23 L 142.59 103.86 L 142.83 103.49 L 143.06 103.14 L 143.30 102.79 L 143.54 102.45 L 143.77 102.12 L 144.01 101.80 L 144.25 101.49 L 144.49 101.18 L 144.72 100.88 L 144.96 100.59 L 145.20 100.30 L 145.43 100.02 L 145.67 99.75 L 145.91 99.48 L 146.14 99.22 L 146.38 98.96 L 146.62 98.71 L 146.85 98.47 L 147.09 98.23 L 147.33 97.99 L 147.56 97.76 L 147.80 97.54 L 148.04 97.32 L 148.28 97.10 L 148.51 96.89 L 148.75 96.68 L 148.99 96.48 L 149.22 96.28 L 149.46 96.08 L 149.70 95.89 L 149.93 95.70 L 150.17 95.51 L 150.41 95.33 L 150.64 95.15 L 150.88 94.98 L 151.12 94.81 L 151.35 94.64 L 151.59 94.47 L 151.83 94.31 L 152.07 94.15 L 152.30 93.99 L 152.54 93.83 L 152.78 93.68 L 153.01 93.53 L 153.25 93.38 L 153.49 93.24 L 153.72 93.09 L 153.96 92.95 L 154.20 92.81 L 154.43 92.68 L 154.67 92.54 L 154.91 92.41 L 155.14 92.28 L 155.38 92.15 L 155.62 92.03 L 155.85 91.90 L 156.09 91.78 L 156.33 91.66 L 156.57 91.54 L 156.80 91.43 L 157.04 91.31 L 157.28 91.20 L 157.51 91.08 L 157.75 90.97 L 157.99 90.87 L 158.22 90.76 L 158.46 90.65 L 158.70 90.55 L 158.93 90.45 L 159.17 90.34 L 159.41 90.24 L 159.64 90.15 L 159.88 90.05 L 160.12 89.95 L 160.36 89.86 L 160.59 89.76 L 160.83 89.67 L 161.07 89.58 L 161.30 89.49 L 161.54 89.40 L 161.78 89.31 L 162.01 89.23 L 162.25 89.14 L 162.49 89.06 L 162.72 88.97 L 162.96 88.89 L 163.20 88.81 L 163.43 88.73 L 163.67 88.65 L 163.91 88.57 L 164.15 88.49 L 164.38 88.42 L 164.62 88.34 L 164.86 88.27 L 165.09 88.19 L 165.33 88.12 L 165.57 88.05 L 165.80 87.98 L 166.04 87.91 L 166.28 87.84 L 166.51 87.77 L 166.75 87.70 L 166.99 87.63 L 167.22 87.57 L 167.46 87.50 L 167.70 87.43 L 167.93 87.37 L 168.17 87.31 L 168.41 87.24 L 168.65 87.18 L 168.88 87.12 L 169.12 87.06 L 169.36 87.00 L 169.59 86.94 L 169.83 86.88 L 170.07 86.82 L 170.30 86.76 L 170.54 86.70 L 170.78 86.65 L 171.01 86.59 L 171.25 86.53 L 171.49 86.48 L 171.72 86.42 L 171.96 86.37 L 172.20 86.32 L 172.44 86.26 L 172.67 86.21 L 172.91 86.16 L 173.15 86.11 L 173.38 86.06 L 173.62 86.01 L 173.86 85.96 L 174.09 85.91 L 174.33 85.86 L 174.57 85.81 L 174.80 85.76 L 175.04 85.71 L 175.28 85.67 L 175.51 85.62 L 175.75 85.57 L 175.99 85.53 L 176.23 85.48 L 176.46 85.44 L 176.70 85.39 L 176.94 85.35 L 177.17 85.31 L 177.41 85.26 L 177.65 85.22 L 177.88 85.18 L 178.12 85.13 L 178.36 85.09 L 178.59 85.05 L 178.83 85.01 L 179.07 84.97 L 179.30 84.93 L 179.54 84.89 L 179.78 84.85 L 180.02 84.81 L 180.25 84.77 L 180.49 84.73 L 180.73 84.69 L 180.96 84.65 L 181.20 84.62 L 181.44 84.58 L 181.67 84.54 L 181.91 84.50 L 182.15 84.47 L 182.38 84.43 L 182.62 84.40 L 182.86 84.36 L 183.09 84.32 L 183.33 84.29 L 183.57 84.25 L 183.80 84.22 L 184.04 84.19 L 184.28 84.15 L 184.52 84.12 L 184.75 84.08 L 184.99 84.05 L 185.23 84.02 L 185.46 83.99 L 185.70 83.95 L 185.94 83.92 L 186.17 83.89 L 186.41 83.86 L 186.65 83.83 L 186.88 83.79 L 187.12 83.76 L 187.36 83.73 L 187.59 83.70 L 187.83 83.67 L 188.07 83.64 L 188.31 83.61 L 188.54 83.58 L 188.78 83.55 L 189.02 83.52 L 189.25 83.49 L 189.49 83.47 L 189.73 83.44 L 189.96 83.41 L 190.20 83.38 L 190.44 83.35 L 190.67 83.33 L 190.91 83.30 L 191.15 83.27 L 191.38 83.24 L 191.62 83.22 L 191.86 83.19 L 192.10 83.16 L 192.33 83.14 L 192.57 83.11 L 192.81 83.08 L 193.04 83.06 L 193.28 83.03 L 193.52 83.01 L 193.75 82.98 L 193.99 82.96 L 194.23 82.93 L 194.46 82.91 L 194.70 82.88 L 194.94 82.86 L 195.17 82.83 L 195.41 82.81 L 195.65 82.79 L 195.88 82.76 L 196.12 82.74 L 196.36 82.71 L 196.60 82.69 L 196.83 82.67 L 197.07 82.64 L 197.31 82.62 L 197.54 82.60 L 197.78 82.58 L 198.02 82.55 L 198.25 82.53 L 198.49 82.51 L 198.73 82.49 L 198.96 82.47 L 199.20 82.44 L 199.44 82.42 L 199.67 82.40 L 199.91 82.38 L 200.15 82.36 L 200.39 82.34 L 200.62 82.32 L 200.86 82.29 L 201.10 82.27 L 201.33 82.25 L 201.57 82.23 L 201.81 82.21 L 202.04 82.19 L 202.28 82.17 L 202.52 82.15 L 202.75 82.13 L 202.99 82.11 L 203.23 82.09 L 203.46 82.07 L 203.70 82.05 L 203.94 82.04 L 204.18 82.02 L 204.41 82.00 L 204.65 81.98 L 204.89 81.96 L 205.12 81.94 L 205.36 81.92 L 205.60 81.90 L 205.83 81.89 L 206.07 81.87 L 206.31 81.85 L 206.54 81.83 L 206.78 81.81 L 207.02 81.80 L 207.25 81.78 L 207.49 81.76 L 207.73 81.74 L 207.96 81.72 L 208.20 81.71 L 208.44 81.69 L 208.68 81.67 L 208.91 81.66 L 209.15 81.64 L 209.39 81.62 L 209.62 81.61 L 209.86 81.59 L 210.10 81.57 L 210.33 81.56 L 210.57 81.54 L 210.81 81.52 L 211.04 81.51 L 211.28 81.49 L 211.52 81.47 L 211.75 81.46 L 211.99 81.44 L 212.23 81.43 L 212.47 81.41 L 212.70 81.40 L 212.94 81.38 L 213.18 81.36 L 213.41 81.35 L 213.65 81.33 L 213.89 81.32 L 214.12 81.30 L 214.36 81.29 L 214.60 81.27 L 214.83 81.26 L 215.07 81.24 L 215.31 81.23 L 215.54 81.21 L 215.78 81.20 L 216.02 81.19 L 216.26 81.17 L 216.49 81.16 L 216.73 81.14 L 216.97 81.13 L 217.20 81.11 L 217.44 81.10 L 217.68 81.09 L 217.91 81.07 L 218.15 81.06 L 218.39 81.04 L 218.62 81.03 L 218.86 81.02 L 219.10 81.00 L 219.33 80.99 L 219.57 80.98 L 219.81 80.96 L 220.05 80.95 L 220.28 80.94 L 220.52 80.92 L 220.76 80.91 L 220.99 80.90 L 221.23 80.88 L 221.47 80.87 L 221.70 80.86 L 221.94 80.85 L 222.18 80.83 L 222.41 80.82 L 222.65 80.81 L 222.89 80.80 L 223.12 80.78 L 223.36 80.77 L 223.60 80.76 L 223.83 80.75 L 224.07 80.73 L 224.31 80.72 L 224.55 80.71 L 224.78 80.70 L 225.02 80.69 L 225.26 80.67 L 225.49 80.66 L 225.73 80.65 L 225.97 80.64 L 226.20 80.63 L 226.44 80.61 L 226.68 80.60 L 226.91 80.59 L 227.15 80.58 L 227.39 80.57 L 227.62 80.56 L 227.86 80.55 L 228.10 80.53 L 228.34 80.52 L 228.57 80.51 L 228.81 80.50 L 229.05 80.49 L 229.28 80.48 L 229.52 80.47 L 229.76 80.46 L 229.99 80.45 L 230.23 80.43 L 230.47 80.42 L 230.70 80.41 L 230.94 80.40 L 231.18 80.39 L 231.41 80.38 L 231.65 80.37 L 231.89 80.36 L 232.13 80.35 L 232.36 80.34 L 232.60 80.33 L 232.84 80.32 L 233.07 80.31 L 233.31 80.30 L 233.55 80.29 L 233.78 80.28 L 234.02 80.27 L 234.26 80.26 L 234.49 80.25 L 234.73 80.24 L 234.97 80.23 L 235.20 80.22 L 235.44 80.21 L 235.68 80.20 L 235.91 80.19 L 236.15 80.18 L 236.39 80.17 L 236.63 80.16 L 236.86 80.15 L 237.10 80.14 L 237.34 80.13 L 237.57 80.12 L 237.81 80.11 L 238.05 80.10 L 238.28 80.09 L 238.52 80.08 L 238.76 80.07 L 238.99 80.06 L 239.23 80.06 L 239.47 80.05 L 239.70 80.04 L 239.94 80.03 L 240.18 80.02 L 240.42 80.01 L 240.65 80.00 L 240.89 79.99 L 241.13 79.98 L 241.36 79.97 L 241.60 79.97 L 241.84 79.96 L 242.07 79.95 L 242.31 79.94 L 242.55 79.93 L 242.78 79.92 L 243.02 79.91 L 243.26 79.90 L 243.49 79.90 L 243.73 79.89 L 243.97 79.88 L 244.21 79.87 L 244.44 79.86 L 244.68 79.85 L 244.92 79.85 L 245.15 79.84 L 245.39 79.83 L 245.63 79.82 L 245.86 79.81 L 246.10 79.80 L 246.34 79.80 L 246.57 79.79 L 246.81 79.78 L 247.05 79.77 L 247.28 79.76 L 247.52 79.76 L 247.76 79.75 L 247.99 79.74 L 248.23 79.73 L 248.47 79.72 L 248.71 79.72 L 248.94 79.71 L 249.18 79.70 L 249.42 79.69 L 249.65 79.68 L 249.89 79.68 L 250.13 79.67 L 250.36 79.66 L 250.60 79.65 L 250.84 79.65 L 251.07 79.64 L 251.31 79.63 L 251.55 79.62 L 251.78 79.62 L 252.02 79.61 L 252.26 79.60 L 252.50 79.59 L 252.73 79.59 L 252.97 79.58 L 253.21 79.57 L 253.44 79.56 L 253.68 79.56 L 253.92 79.55 L 254.15 79.54 L 254.39 79.54 L 254.63 79.53 L 254.86 79.52 L 255.10 79.51 L 255.34 79.51 L 255.57 79.50 L 255.81 79.49 L 256.05 79.49 L 256.29 79.48 L 256.52 79.47 L 256.76 79.47 L 257.00 79.46 L 257.23 79.45 L 257.47 79.44 L 257.71 79.44 L 257.94 79.43 L 258.18 79.42 L 258.42 79.42 L 258.65 79.41 L 258.89 79.40 L 259.13 79.40 L 259.36 79.39 L 259.60 79.38 L 259.84 79.38 L 260.08 79.37 L 260.31 79.36 L 260.55 79.36 L 260.79 79.35 L 261.02 79.34 L 261.26 79.34 L 261.50 79.33 L 261.73 79.33 L 261.97 79.32 L 262.21 79.31 L 262.44 79.31 L 262.68 79.30 L 262.92 79.29 L 263.15 79.29 L 263.39 79.28 L 263.63 79.27 L 263.86 79.27 L 264.10 79.26 L 264.34 79.26 L 264.58 79.25 L 264.81 79.24 L 265.05 79.24 L 265.29 79.23 L 265.52 79.22 L 265.76 79.22 L 266.00 79.21 L 266.23 79.21 L 266.47 79.20 L 266.71 79.19 L 266.94 79.19 L 267.18 79.18 L 267.42 79.18 L 267.65 79.17 L 267.89 79.17 L 268.13 79.16 L 268.37 79.15 L 268.60 79.15 L 268.84 79.14 L 269.08 79.14 L 269.31 79.13 L 269.55 79.12 L 269.79 79.12 L 270.02 79.11 L 270.26 79.11 L 270.50 79.10 L 270.73 79.10 L 270.97 79.09 L 271.21 79.08 L 271.44 79.08 L 271.68 79.07 L 271.92 79.07 L 272.16 79.06 L 272.39 79.06 L 272.63 79.05 L 272.87 79.05 L 273.10 79.04 L 273.34 79.03 L 273.58 79.03 L 273.81 79.02 L 274.05 79.02 L 274.29 79.01 L 274.52 79.01 L 274.76 79.00 L 275.00 79.00 L 275.23 78.99 L 275.47 78.99 L 275.71 78.98 L 275.94 78.98 L 276.18 78.97 L 276.42 78.96 L 276.66 78.96 L 276.89 78.95 L 277.13 78.95 L 277.37 78.94 L 277.60 78.94 L 277.84 78.93 L 278.08 78.93 L 278.31 78.92 L 278.55 78.92 L 278.79 78.91 L 279.02 78.91 L 279.26 78.90 L 279.50 78.90 L 279.73 78.89 L 279.97 78.89 L 280.21 78.88 L 280.45 78.88 L 280.68 78.87 L 280.92 78.87 L 281.16 78.86 L 281.39 78.86 L 281.63 78.85 L 281.87 78.85 L 282.10 78.84 L 282.34 78.84 L 282.58 78.83 L 282.81 78.83 L 283.05 78.82 L 283.29 78.82 L 283.52 78.81 L 283.76 78.81 L 284.00 78.81 L 284.24 78.80 L 284.47 78.80 L 284.71 78.79 L 284.95 78.79 L 285.18 78.78 L 285.42 78.78 L 285.66 78.77 L 285.89 78.77 L 286.13 78.76 L 286.37 78.76 L 286.60 78.75 L 286.84 78.75 L 287.08 78.74 L 287.31 78.74 L 287.55 78.74 L 287.79 78.73 L 288.03 78.73 L 288.26 78.72 L 288.50 78.72 L 288.74 78.71 L 288.97 78.71 L 289.21 78.70 L 289.45 78.70 L 289.68 78.69 L 289.92 78.69 L 290.16 78.69 L 290.39 78.68 L 290.63 78.68 L 290.87 78.67 L 291.10 78.67 L 291.34 78.66 L 291.58 78.66 L 291.81 78.66 L 292.05 78.65 L 292.29 78.65 L 292.53 78.64 L 292.76 78.64 L 293.00 78.63 L 293.24 78.63 L 293.47 78.63 L 293.71 78.62 L 293.95 78.62 L 294.18 78.61 L 294.42 78.61 L 294.66 78.60 L 294.89 78.60 L 295.13 78.60 L 295.37 78.59 L 295.60 78.59 L 295.84 78.58 L 296.08 78.58 L 296.32 78.58 L 296.55 78.57 L 296.79 78.57 L 297.03 78.56 L 297.26 78.56 L 297.50 78.55 L 297.74 78.55 L 297.97 78.55 L 298.21 78.54 L 298.45 78.54 L 298.68 78.53 L 298.92 78.53 L 299.16 78.53 L 299.39 78.52 L 299.63 78.52 L 299.87 78.52 L 300.11 78.51 L 300.34 78.51 L 300.58 78.50 L 300.82 78.50 L 301.05 78.50 L 301.29 78.49 L 301.53 78.49 L 301.76 78.48 L 302.00 78.48" fill="none" stroke="#7E8692" stroke-width="2.3" stroke-linecap="round" stroke-linejoin="round"/>
</svg>
