<svg xmlns="http://www.w3.org/2000/svg" viewBox="0 0 320 180" width="320" height="180">
  <rect width="320" height="180" fill="none"/>
  <path d="M 27.33 142.74 L 27.63 141.92 L 27.93 141.09 L 28.24 140.27 L 28.54 139.44 L 28.84 138.62 L 29.14 137.79 L 29.45 136.97 L 29.75 136.14 L 30.05 135.31 L 30.35 134.49 L 30.66 133.66 L 30.96 132.84 L 31.26 132.01 L 31.56 131.19 L 31.87 130.36 L 32.17 129.54 L 32.47 128.71 L 32.77 127.89 L 33.08 127.06 L 33.38 126.24 L 33.68 125.41 L 33.98 124.59 L 34.29 123.76 L 34.59 122.94 L 34.89 122.11 L 35.19 121.29 L 35.50 120.46 L 35.80 119.64 L 36.10 118.81 L 36.40 117.99 L 36.71 117.16 L 37.01 116.34 L 37.31 115.51 L 37.62 114.69 L 37.92 113.86 L 38.22 113.04 L 38.52 112.21 L 38.83 111.39 L 39.13 110.56 L 39.43 109.74 L 39.73 108.91 L 40.04 108.08 L 40.34 107.26 L 40.64 106.43 L 40.94 105.61 L 41.25 104.78 L 41.55 103.96 L 41.85 103.13 L 42.15 102.31 L 42.46 101.48 L 42.76 100.66 L 43.06 99.83 L 43.36 99.01 L 43.67 98.18 L 43.97 97.36 L 44.27 96.53 L 44.57 95.71 L 44.88 94.88 L 45.18 94.06 L 45.48 93.23 L 45.78 92.41 L 46.09 91.58 L 46.39 90.76 L 46.69 89.93 L 46.99 89.11 L 47.30 88.28 L 47.60 87.46 L 47.90 86.63 L 48.20 85.81 L 48.51 84.98 L 48.81 84.16 L 49.11 83.33 L 49.41 82.50 L 49.72 81.68 L 50.02 80.85 L 50.32 80.03 L 50.63 79.20 L 50.93 78.38 L 51.23 77.55 L 51.53 76.73 L 51.84 75.90 L 52.14 75.08 L 52.44 74.25 L 52.74 73.43 L 53.05 72.60 L 53.35 71.78 L 53.65 70.95 L 53.95 70.13 L 54.26 69.30 L 54.56 68.48 L 54.86 67.65 L 55.16 66.83 L 55.47 66.00 L 55.77 65.18 L 56.07 64.35 L 56.37 63.53 L 56.68 62.70 L 56.98 61.88 L 57.28 61.05 L 57.58 60.23 L 57.89 59.40 L 58.19 58.58 L 58.49 57.75 L 58.79 56.92 L 59.10 56.10 L 59.40 55.27 L 59.70 54.45 L 60.00 53.62 L 60.31 52.80 L 60.61 51.97 L 60.91 51.15 L 61.21 50.32 L 61.52 49.50 L 61.82 48.67 L 62.12 47.85 L 62.42 47.02 L 62.73 46.20 L 63.03 45.37 L 63.33 44.55 L 63.64 43.72 L 63.94 42.90 L 64.24 42.07 L 64.54 41.25 L 64.85 40.42 L 65.15 39.60 L 65.45 38.77 L 65.75 37.95 L 66.06 37.12" fill="none" stroke="#5F6B7A" stroke-width="2.5" stroke-linecap="round" stroke-linejoin="round"/>
  <path d="M 72.71 142.60 L 73.01 141.78 L 73.32 140.95 L 73.62 140.13 L 73.92 139.30 L 74.22 138.48 L 74.53 137.65 L 74.83 136.83 L 75.13 136.00 L 75.43 135.18 L 75.74 134.35 L 76.04 133.53 L 76.34 132.70 L 76.65 131.88 L 76.95 131.05 L 77.25 130.23 L 77.55 129.40 L 77.86 128.58 L 78.16 127.75 L 78.46 126.93 L 78.76 126.10 L 79.07 125.28 L 79.37 124.45 L 79.67 123.63 L 79.97 122.80 L 80.28 121.97 L 80.58 121.15 L 80.88 120.32 L 81.18 119.50 L 81.49 118.67 L 81.79 117.85 L 82.09 117.02 L 82.39 116.20 L 82.70 115.37 L 83.00 114.55 L 83.30 113.72 L 83.60 112.90 L 83.91 112.07 L 84.21 111.25 L 84.51 110.42 L 84.81 109.60 L 85.12 108.77 L 85.42 107.95 L 85.72 107.12 L 86.02 106.30 L 86.33 105.47 L 86.63 104.65 L 86.93 103.82 L 87.23 103.00 L 87.54 102.17 L 87.84 101.35 L 88.14 100.52 L 88.44 99.70 L 88.75 98.87 L 89.05 98.05 L 89.35 97.22 L 89.66 96.39 L 89.96 95.57 L 90.26 94.74 L 90.56 93.92 L 90.87 93.09 L 91.17 92.27 L 91.47 91.44 L 91.77 90.62 L 92.08 89.79 L 92.38 88.97 L 92.68 88.14 L 92.98 87.32 L 93.29 86.49 L 93.59 85.67 L 93.89 84.84 L 94.19 84.02 L 94.50 83.19 L 94.80 82.37 L 95.10 81.54 L 95.40 80.72 L 95.71 79.89 L 96.01 79.07 L 96.31 78.24 L 96.61 77.42 L 96.92 76.59 L 97.22 75.77 L 97.52 74.94 L 97.82 74.12 L 98.13 73.29 L 98.43 72.47 L 98.73 71.64 L 99.03 70.82 L 99.34 69.99 L 99.64 69.16 L 99.94 68.34 L 100.24 67.51 L 100.55 66.69 L 100.85 65.86 L 101.15 65.04 L 101.45 64.21 L 101.76 63.39 L 102.06 62.56 L 102.36 61.74 L 102.67 60.91 L 102.97 60.09 L 103.27 59.26 L 103.57 58.44 L 103.88 57.61 L 104.18 56.79 L 104.48 55.96 L 104.78 55.14 L 105.09 54.31 L 105.39 53.49 L 105.69 52.66 L 105.99 51.84 L 106.30 51.01 L 106.60 50.19 L 106.90 49.36 L 107.20 48.54 L 107.51 47.71 L 107.81 46.89 L 108.11 46.06 L 108.41 45.24 L 108.72 44.41 L 109.02 43.58 L 109.32 42.76 L 109.62 41.93 L 109.93 41.11 L 110.23 40.28 L 110.53 39.46 L 110.83 38.63 L 111.14 37.81" fill="none" stroke="#5F6B7A" stroke-width="2.5" stroke-linecap="round" stroke-linejoin="round"/>
  <path d="M 118.10 142.47 L 118.40 141.64 L 118.70 140.82 L 119.00 139.99 L 119.31 139.17 L 119.61 138.34 L 119.91 137.52 L 120.21 136.69 L 120.52 135.87 L 120.82 135.04 L 121.12 134.21 L 121.42 133.39 L 121.73 132.56 L 122.03 131.74 L 122.33 130.91 L 122.63 130.09 L 122.94 129.26 L 123.24 128.44 L 123.54 127.61 L 123.84 126.79 L 124.15 125.96 L 124.45 125.14 L 124.75 124.31 L 125.05 123.49 L 125.36 122.66 L 125.66 121.84 L 125.96 121.01 L 126.26 120.19 L 126.57 119.36 L 126.87 118.54 L 127.17 117.71 L 127.47 116.89 L 127.78 116.06 L 128.08 115.24 L 128.38 114.41 L 128.69 113.59 L 128.99 112.76 L 129.29 111.94 L 129.59 111.11 L 129.90 110.29 L 130.20 109.46 L 130.50 108.63 L 130.80 107.81 L 131.11 106.98 L 131.41 106.16 L 131.71 105.33 L 132.01 104.51 L 132.32 103.68 L 132.62 102.86 L 132.92 102.03 L 133.22 101.21 L 133.53 100.38 L 133.83 99.56 L 134.13 98.73 L 134.43 97.91 L 134.74 97.08 L 135.04 96.26 L 135.34 95.43 L 135.64 94.61 L 135.95 93.78 L 136.25 92.96 L 136.55 92.13 L 136.85 91.31 L 137.16 90.48 L 137.46 89.66 L 137.76 88.83 L 138.06 88.01 L 138.37 87.18 L 138.67 86.36 L 138.97 85.53 L 139.27 84.71 L 139.58 83.88 L 139.88 83.05 L 140.18 82.23 L 140.48 81.40 L 140.79 80.58 L 141.09 79.75 L 141.39 78.93 L 141.70 78.10 L 142.00 77.28 L 142.30 76.45 L 142.60 75.63 L 142.91 74.80 L 143.21 73.98 L 143.51 73.15 L 143.81 72.33 L 144.12 71.50 L 144.42 70.68 L 144.72 69.85 L 145.02 69.03 L 145.33 68.20 L 145.63 67.38 L 145.93 66.55 L 146.23 65.73 L 146.54 64.90 L 146.84 64.08 L 147.14 63.25 L 147.44 62.43 L 147.75 61.60 L 148.05 60.78 L 148.35 59.95 L 148.65 59.13 L 148.96 58.30 L 149.26 57.47 L 149.56 56.65 L 149.86 55.82 L 150.17 55.00 L 150.47 54.17 L 150.77 53.35 L 151.07 52.52 L 151.38 51.70 L 151.68 50.87 L 151.98 50.05 L 152.28 49.22 L 152.59 48.40 L 152.89 47.57 L 153.19 46.75 L 153.49 45.92 L 153.80 45.10 L 154.10 44.27 L 154.40 43.45 L 154.71 42.62 L 155.01 41.80 L 155.31 40.97 L 155.61 40.15 L 155.92 39.32 L 156.22 38.50 L 156.52 37.67" fill="none" stroke="#5F6B7A" stroke-width="2.5" stroke-linecap="round" stroke-linejoin="round"/>
  <path d="M 163.48 142.33 L 163.78 141.50 L 164.08 140.68 L 164.39 139.85 L 164.69 139.03 L 164.99 138.20 L 165.29 137.38 L 165.60 136.55 L 165.90 135.73 L 166.20 134.90 L 166.51 134.08 L 166.81 133.25 L 167.11 132.43 L 167.41 131.60 L 167.72 130.78 L 168.02 129.95 L 168.32 129.13 L 168.62 128.30 L 168.93 127.48 L 169.23 126.65 L 169.53 125.83 L 169.83 125.00 L 170.14 124.18 L 170.44 123.35 L 170.74 122.53 L 171.04 121.70 L 171.35 120.87 L 171.65 120.05 L 171.95 119.22 L 172.25 118.40 L 172.56 117.57 L 172.86 116.75 L 173.16 115.92 L 173.46 115.10 L 173.77 114.27 L 174.07 113.45 L 174.37 112.62 L 174.67 111.80 L 174.98 110.97 L 175.28 110.15 L 175.58 109.32 L 175.88 108.50 L 176.19 107.67 L 176.49 106.85 L 176.79 106.02 L 177.09 105.20 L 177.40 104.37 L 177.70 103.55 L 178.00 102.72 L 178.30 101.90 L 178.61 101.07 L 178.91 100.25 L 179.21 99.42 L 179.52 98.60 L 179.82 97.77 L 180.12 96.95 L 180.42 96.12 L 180.73 95.29 L 181.03 94.47 L 181.33 93.64 L 181.63 92.82 L 181.94 91.99 L 182.24 91.17 L 182.54 90.34 L 182.84 89.52 L 183.15 88.69 L 183.45 87.87 L 183.75 87.04 L 184.05 86.22 L 184.36 85.39 L 184.66 84.57 L 184.96 83.74 L 185.26 82.92 L 185.57 82.09 L 185.87 81.27 L 186.17 80.44 L 186.47 79.62 L 186.78 78.79 L 187.08 77.97 L 187.38 77.14 L 187.68 76.32 L 187.99 75.49 L 188.29 74.67 L 188.59 73.84 L 188.89 73.02 L 189.20 72.19 L 189.50 71.37 L 189.80 70.54 L 190.10 69.71 L 190.41 68.89 L 190.71 68.06 L 191.01 67.24 L 191.31 66.41 L 191.62 65.59 L 191.92 64.76 L 192.22 63.94 L 192.53 63.11 L 192.83 62.29 L 193.13 61.46 L 193.43 60.64 L 193.74 59.81 L 194.04 58.99 L 194.34 58.16 L 194.64 57.34 L 194.95 56.51 L 195.25 55.69 L 195.55 54.86 L 195.85 54.04 L 196.16 53.21 L 196.46 52.39 L 196.76 51.56 L 197.06 50.74 L 197.37 49.91 L 197.67 49.09 L 197.97 48.26 L 198.27 47.44 L 198.58 46.61 L 198.88 45.79 L 199.18 44.96 L 199.48 44.13 L 199.79 43.31 L 200.09 42.48 L 200.39 41.66 L 200.69 40.83 L 201.00 40.01 L 201.30 39.18 L 201.60 38.36 L 201.90 37.53" fill="none" stroke="#5F6B7A" stroke-width="2.5" stroke-linecap="round" stroke-linejoin="round"/>
  <path d="M 208.86 142.19 L 209.17 141.37 L 209.47 140.54 L 209.77 139.72 L 210.07 138.89 L 210.38 138.07 L 210.68 137.24 L 210.98 136.42 L 211.28 135.59 L 211.59 134.76 L 211.89 133.94 L 212.19 133.11 L 212.49 132.29 L 212.80 131.46 L 213.10 130.64 L 213.40 129.81 L 213.70 128.99 L 214.01 128.16 L 214.31 127.34 L 214.61 126.51 L 214.91 125.69 L 215.22 124.86 L 215.52 124.04 L 215.82 123.21 L 216.12 122.39 L 216.43 121.56 L 216.73 120.74 L 217.03 119.91 L 217.33 119.09 L 217.64 118.26 L 217.94 117.44 L 218.24 116.61 L 218.55 115.79 L 218.85 114.96 L 219.15 114.14 L 219.45 113.31 L 219.76 112.49 L 220.06 111.66 L 220.36 110.84 L 220.66 110.01 L 220.97 109.18 L 221.27 108.36 L 221.57 107.53 L 221.87 106.71 L 222.18 105.88 L 222.48 105.06 L 222.78 104.23 L 223.08 103.41 L 223.39 102.58 L 223.69 101.76 L 223.99 100.93 L 224.29 100.11 L 224.60 99.28 L 224.90 98.46 L 225.20 97.63 L 225.50 96.81 L 225.81 95.98 L 226.11 95.16 L 226.41 94.33 L 226.71 93.51 L 227.02 92.68 L 227.32 91.86 L 227.62 91.03 L 227.92 90.21 L 228.23 89.38 L 228.53 88.56 L 228.83 87.73 L 229.13 86.91 L 229.44 86.08 L 229.74 85.26 L 230.04 84.43 L 230.34 83.61 L 230.65 82.78 L 230.95 81.95 L 231.25 81.13 L 231.56 80.30 L 231.86 79.48 L 232.16 78.65 L 232.46 77.83 L 232.77 77.00 L 233.07 76.18 L 233.37 75.35 L 233.67 74.53 L 233.98 73.70 L 234.28 72.88 L 234.58 72.05 L 234.88 71.23 L 235.19 70.40 L 235.49 69.58 L 235.79 68.75 L 236.09 67.93 L 236.40 67.10 L 236.70 66.28 L 237.00 65.45 L 237.30 64.63 L 237.61 63.80 L 237.91 62.98 L 238.21 62.15 L 238.51 61.33 L 238.82 60.50 L 239.12 59.68 L 239.42 58.85 L 239.72 58.03 L 240.03 57.20 L 240.33 56.37 L 240.63 55.55 L 240.93 54.72 L 241.24 53.90 L 241.54 53.07 L 241.84 52.25 L 242.14 51.42 L 242.45 50.60 L 242.75 49.77 L 243.05 48.95 L 243.35 48.12 L 243.66 47.30 L 243.96 46.47 L 244.26 45.65 L 244.57 44.82 L 244.87 44.00 L 245.17 43.17 L 245.47 42.35 L 245.78 41.52 L 246.08 40.70 L 246.38 39.87 L 246.68 39.05 L 246.99 38.22 L 247.29 37.40" fill="none" stroke="#5F6B7A" stroke-width="2.5" stroke-linecap="round" stroke-linejoin="round"/>
  <path d="M 253.94 142.88 L 254.25 142.05 L 254.55 141.23 L 254.85 140.40 L 255.15 139.58 L 255.46 138.75 L 255.76 137.93 L 256.06 137.10 L 256.36 136.28 L 256.67 135.45 L 256.97 134.63 L 257.27 133.80 L 257.58 132.98 L 257.88 132.15 L 258.18 131.33 L 258.48 130.50 L 258.79 129.68 L 259.09 128.85 L 259.39 128.03 L 259.69 127.20 L 260.00 126.38 L 260.30 125.55 L 260.60 124.73 L 260.90 123.90 L 261.21 123.08 L 261.51 122.25 L 261.81 121.42 L 262.11 120.60 L 262.42 119.77 L 262.72 118.95 L 263.02 118.12 L 263.32 117.30 L 263.63 116.47 L 263.93 115.65 L 264.23 114.82 L 264.53 114.00 L 264.84 113.17 L 265.14 112.35 L 265.44 111.52 L 265.74 110.70 L 266.05 109.87 L 266.35 109.05 L 266.65 108.22 L 266.95 107.40 L 267.26 106.57 L 267.56 105.75 L 267.86 104.92 L 268.16 104.10 L 268.47 103.27 L 268.77 102.45 L 269.07 101.62 L 269.37 100.80 L 269.68 99.97 L 269.98 99.15 L 270.28 98.32 L 270.59 97.50 L 270.89 96.67 L 271.19 95.84 L 271.49 95.02 L 271.80 94.19 L 272.10 93.37 L 272.40 92.54 L 272.70 91.72 L 273.01 90.89 L 273.31 90.07 L 273.61 89.24 L 273.91 88.42 L 274.22 87.59 L 274.52 86.77 L 274.82 85.94 L 275.12 85.12 L 275.43 84.29 L 275.73 83.47 L 276.03 82.64 L 276.33 81.82 L 276.64 80.99 L 276.94 80.17 L 277.24 79.34 L 277.54 78.52 L 277.85 77.69 L 278.15 76.87 L 278.45 76.04 L 278.75 75.22 L 279.06 74.39 L 279.36 73.57 L 279.66 72.74 L 279.96 71.92 L 280.27 71.09 L 280.57 70.26 L 280.87 69.44 L 281.17 68.61 L 281.48 67.79 L 281.78 66.96 L 282.08 66.14 L 282.38 65.31 L 282.69 64.49 L 282.99 63.66 L 283.29 62.84 L 283.60 62.01 L 283.90 61.19 L 284.20 60.36 L 284.50 59.54 L 284.81 58.71 L 285.11 57.89 L 285.41 57.06 L 285.71 56.24 L 286.02 55.41 L 286.32 54.59 L 286.62 53.76 L 286.92 52.94 L 287.23 52.11 L 287.53 51.29 L 287.83 50.46 L 288.13 49.64 L 288.44 48.81 L 288.74 47.99 L 289.04 47.16 L 289.34 46.34 L 289.65 45.51 L 289.95 44.69 L 290.25 43.86 L 290.55 43.03 L 290.86 42.21 L 291.16 41.38 L 291.46 40.56 L 291.76 39.73 L 292.07 38.91 L 292.37 38.08 L 292.67 37.26" fill="none" stroke="#5F6B7A" stroke-width="2.5" stroke-linecap="round" stroke-linejoin="round"/>
</svg>
