<svg xmlns="http://www.w3.org/2000/svg" viewBox="0 0 320 180" width="320" height="180">
  <rect width="320" height="180" fill="#F4F5F7"/>
  <path d="M 24.00 151.53 L 24.10 151.53 L 24.21 151.52 L 24.31 151.51 L 24.42 151.50 L 24.52 151.49 L 24.63 151.49 L 24.73 151.48 L 24.84 151.47 L 24.94 151.46 L 25.05 151.45 L 25.15 151.44 L 25.26 151.43 L 25.36 151.43 L 25.47 151.42 L 25.57 151.41 L 25.67 151.40 L 25.78 151.39 L 25.88 151.38 L 25.99 151.37 L 26.09 151.36 L 26.20 151.35 L 26.30 151.34 L 26.41 151.33 L 26.51 151.32 L 26.62 151.31 L 26.72 151.30 L 26.83 151.29 L 26.93 151.28 L 27.04 151.26 L 27.14 151.25 L 27.24 151.24 L 27.35 151.23 L 27.45 151.22 L 27.56 151.21 L 27.66 151.20 L 27.77 151.18 L 27.87 151.17 L 27.98 151.16 L 28.08 151.15 L 28.19 151.14 L 28.29 151.12 L 28.40 151.11 L 28.50 151.10 L 28.60 151.08 L 28.71 151.07 L 28.81 151.06 L 28.92 151.04 L 29.02 151.03 L 29.13 151.02 L 29.23 151.00 L 29.34 150.99 L 29.44 150.98 L 29.55 150.96 L 29.65 150.95 L 29.76 150.93 L 29.86 150.92 L 29.97 150.90 L 30.07 150.89 L 30.17 150.87 L 30.28 150.86 L 30.38 150.84 L 30.49 150.83 L 30.59 150.81 L 30.70 150.79 L 30.80 150.78 L 30.91 150.76 L 31.01 150.75 L 31.12 150.73 L 31.22 150.71 L 31.33 150.70 L 31.43 150.68 L 31.54 150.66 L 31.64 150.65 L 31.74 150.63 L 31.85 150.61 L 31.95 150.59 L 32.06 150.58 L 32.16 150.56 L 32.27 150.54 L 32.37 150.52 L 32.48 150.50 L 32.58 150.48 L 32.69 150.47 L 32.79 150.45 L 32.90 150.43 L 33.00 150.41 L 33.11 150.39 L 33.21 150.37 L 33.31 150.35 L 33.42 150.33 L 33.52 150.31 L 33.63 150.29 L 33.73 150.27 L 33.84 150.25 L 33.94 150.23 L 34.05 150.21 L 34.15 150.19 L 34.26 150.16 L 34.36 150.14 L 34.47 150.12 L 34.57 150.10 L 34.67 150.08 L 34.78 150.06 L 34.88 150.03 L 34.99 150.01 L 35.09 149.99 L 35.20 149.97 L 35.30 149.94 L 35.41 149.92 L 35.51 149.90 L 35.62 149.87 L 35.72 149.85 L 35.83 149.83 L 35.93 149.80 L 36.04 149.78 L 36.14 149.75 L 36.24 149.73 L 36.35 149.70 L 36.45 149.68 L 36.56 149.65 L 36.66 149.63 L 36.77 149.60 L 36.87 149.58 L 36.98 149.55 L 37.08 149.52 L 37.19 149.50 L 37.29 149.47 L 37.40 149.45 L 37.50 149.42 L 37.61 149.39 L 37.71 149.36 L 37.81 149.34 L 37.92 149.31 L 38.02 149.28 L 38.13 149.25 L 38.23 149.22 L 38.34 149.20 L 38.44 149.17 L 38.55 149.14 L 38.65 149.11 L 38.76 149.08 L 38.86 149.05 L 38.97 149.02 L 39.07 148.99 L 39.18 148.96 L 39.28 148.93 L 39.38 148.90 L 39.49 148.87 L 39.59 148.84 L 39.70 148.81 L 39.80 148.78 L 39.91 148.75 L 40.01 148.71 L 40.12 148.68 L 40.22 148.65 L 40.33 148.62 L 40.43 148.58 L 40.54 148.55 L 40.64 148.52 L 40.74 148.48 L 40.85 148.45 L 40.95 148.42 L 41.06 148.38 L 41.16 148.35 L 41.27 148.32 L 41.37 148.28 L 41.48 148.25 L 41.58 148.21 L 41.69 148.18 L 41.79 148.14 L 41.90 148.10 L 42.00 148.07 L 42.11 148.03 L 42.21 148.00 L 42.31 147.96 L 42.42 147.92 L 42.52 147.88 L 42.63 147.85 L 42.73 147.81 L 42.84 147.77 L 42.94 147.73 L 43.05 147.69 L 43.15 147.66 L 43.26 147.62 L 43.36 147.58 L 43.47 147.54 L 43.57 147.50 L 43.68 147.46 L 43.78 147.42 L 43.88 147.38 L 43.99 147.34 L 44.09 147.30 L 44.20 147.26 L 44.30 147.21 L 44.41 147.17 L 44.51 147.13 L 44.62 147.09 L 44.72 147.05 L 44.83 147.00 L 44.93 146.96 L 45.04 146.92 L 45.14 146.87 L 45.25 146.83 L 45.35 146.79 L 45.45 146.74 L 45.56 146.70 L 45.66 146.65 L 45.77 146.61 L 45.87 146.56 L 45.98 146.52 L 46.08 146.47 L 46.19 146.43 L 46.29 146.38 L 46.40 146.33 L 46.50 146.29 L 46.61 146.24 L 46.71 146.19 L 46.81 146.14 L 46.92 146.10 L 47.02 146.05 L 47.13 146.00 L 47.23 145.95 L 47.34 145.90 L 47.44 145.85 L 47.55 145.80 L 47.65 145.75 L 47.76 145.70 L 47.86 145.65 L 47.97 145.60 L 48.07 145.55 L 48.18 145.50 L 48.28 145.44 L 48.38 145.39 L 48.49 145.34 L 48.59 145.29 L 48.70 145.23 L 48.80 145.18 L 48.91 145.13 L 49.01 145.07 L 49.12 145.02 L 49.22 144.96 L 49.33 144.91 L 49.43 144.85 L 49.54 144.80 L 49.64 144.74 L 49.75 144.69 L 49.85 144.63 L 49.95 144.57 L 50.06 144.52 L 50.16 144.46 L 50.27 144.40 L 50.37 144.34 L 50.48 144.29 L 50.58 144.23 L 50.69 144.17 L 50.79 144.11 L 50.90 144.05 L 51.00 143.99 L 51.11 143.93 L 51.21 143.87 L 51.32 143.81 L 51.42 143.75 L 51.52 143.68 L 51.63 143.62 L 51.73 143.56 L 51.84 143.50 L 51.94 143.43 L 52.05 143.37 L 52.15 143.31 L 52.26 143.24 L 52.36 143.18 L 52.47 143.11 L 52.57 143.05 L 52.68 142.98 L 52.78 142.92 L 52.88 142.85 L 52.99 142.79 L 53.09 142.72 L 53.20 142.65 L 53.30 142.58 L 53.41 142.52 L 53.51 142.45 L 53.62 142.38 L 53.72 142.31 L 53.83 142.24 L 53.93 142.17 L 54.04 142.10 L 54.14 142.03 L 54.25 141.96 L 54.35 141.89 L 54.45 141.82 L 54.56 141.75 L 54.66 141.67 L 54.77 141.60 L 54.87 141.53 L 54.98 141.45 L 55.08 141.38 L 55.19 141.31 L 55.29 141.23 L 55.40 141.16 L 55.50 141.08 L 55.61 141.00 L 55.71 140.93 L 55.82 140.85 L 55.92 140.77 L 56.02 140.70 L 56.13 140.62 L 56.23 140.54 L 56.34 140.46 L 56.44 140.38 L 56.55 140.30 L 56.65 140.22 L 56.76 140.14 L 56.86 140.06 L 56.97 139.98 L 57.07 139.90 L 57.18 139.82 L 57.28 139.74 L 57.39 139.65 L 57.49 139.57 L 57.59 139.49 L 57.70 139.40 L 57.80 139.32 L 57.91 139.23 L 58.01 139.15 L 58.12 139.06 L 58.22 138.98 L 58.33 138.89 L 58.43 138.80 L 58.54 138.72 L 58.64 138.63 L 58.75 138.54 L 58.85 138.45 L 58.95 138.36 L 59.06 138.27 L 59.16 138.18 L 59.27 138.09 L 59.37 138.00 L 59.48 137.91 L 59.58 137.82 L 59.69 137.72 L 59.79 137.63 L 59.90 137.54 L 60.00 137.44 L 60.11 137.35 L 60.21 137.25 L 60.32 137.16 L 60.42 137.06 L 60.52 136.97 L 60.63 136.87 L 60.73 136.77 L 60.84 136.68 L 60.94 136.58 L 61.05 136.48 L 61.15 136.38 L 61.26 136.28 L 61.36 136.18 L 61.47 136.08 L 61.57 135.98 L 61.68 135.88 L 61.78 135.78 L 61.89 135.67 L 61.99 135.57 L 62.09 135.47 L 62.20 135.36 L 62.30 135.26 L 62.41 135.16 L 62.51 135.05 L 62.62 134.94 L 62.72 134.84 L 62.83 134.73 L 62.93 134.62 L 63.04 134.52 L 63.14 134.41 L 63.25 134.30 L 63.35 134.19 L 63.46 134.08 L 63.56 133.97 L 63.66 133.86 L 63.77 133.74 L 63.87 133.63 L 63.98 133.52 L 64.08 133.41 L 64.19 133.29 L 64.29 133.18 L 64.40 133.06 L 64.50 132.95 L 64.61 132.83 L 64.71 132.72 L 64.82 132.60 L 64.92 132.48 L 65.03 132.36 L 65.13 132.24 L 65.23 132.13 L 65.34 132.01 L 65.44 131.89 L 65.55 131.76 L 65.65 131.64 L 65.76 131.52 L 65.86 131.40 L 65.97 131.28 L 66.07 131.15 L 66.18 131.03 L 66.28 130.90 L 66.39 130.78 L 66.49 130.65 L 66.59 130.52 L 66.70 130.40 L 66.80 130.27 L 66.91 130.14 L 67.01 130.01 L 67.12 129.88 L 67.22 129.75 L 67.33 129.62 L 67.43 129.49 L 67.54 129.36 L 67.64 129.23 L 67.75 129.09 L 67.85 128.96 L 67.96 128.82 L 68.06 128.69 L 68.16 128.55 L 68.27 128.42 L 68.37 128.28 L 68.48 128.14 L 68.58 128.00 L 68.69 127.87 L 68.79 127.73 L 68.90 127.59 L 69.00 127.45 L 69.11 127.30 L 69.21 127.16 L 69.32 127.02 L 69.42 126.88 L 69.53 126.73 L 69.63 126.59 L 69.73 126.44 L 69.84 126.30 L 69.94 126.15 L 70.05 126.00 L 70.15 125.86 L 70.26 125.71 L 70.36 125.56 L 70.47 125.41 L 70.57 125.26 L 70.68 125.11 L 70.78 124.96 L 70.89 124.81 L 70.99 124.65 L 71.10 124.50 L 71.20 124.34 L 71.30 124.19 L 71.41 124.03 L 71.51 123.88 L 71.62 123.72 L 71.72 123.56 L 71.83 123.40 L 71.93 123.25 L 72.04 123.09 L 72.14 122.93 L 72.25 122.76 L 72.35 122.60 L 72.46 122.44 L 72.56 122.28 L 72.66 122.11 L 72.77 121.95 L 72.87 121.78 L 72.98 121.62 L 73.08 121.45 L 73.19 121.28 L 73.29 121.11 L 73.40 120.95 L 73.50 120.78 L 73.61 120.61 L 73.71 120.43 L 73.82 120.26 L 73.92 120.09 L 74.03 119.92 L 74.13 119.74 L 74.23 119.57 L 74.34 119.39 L 74.44 119.22 L 74.55 119.04 L 74.65 118.86 L 74.76 118.68 L 74.86 118.50 L 74.97 118.32 L 75.07 118.14 L 75.18 117.96 L 75.28 117.78 L 75.39 117.60 L 75.49 117.41 L 75.60 117.23 L 75.70 117.04 L 75.80 116.86 L 75.91 116.67 L 76.01 116.48 L 76.12 116.30 L 76.22 116.11 L 76.33 115.92 L 76.43 115.73 L 76.54 115.53 L 76.64 115.34 L 76.75 115.15 L 76.85 114.96 L 76.96 114.76 L 77.06 114.57 L 77.17 114.37 L 77.27 114.17 L 77.37 113.98 L 77.48 113.78 L 77.58 113.58 L 77.69 113.38 L 77.79 113.18 L 77.90 112.98 L 78.00 112.77 L 78.11 112.57 L 78.21 112.37 L 78.32 112.16 L 78.42 111.96 L 78.53 111.75 L 78.63 111.54 L 78.73 111.33 L 78.84 111.13 L 78.94 110.92 L 79.05 110.71 L 79.15 110.49 L 79.26 110.28 L 79.36 110.07 L 79.47 109.86 L 79.57 109.64 L 79.68 109.43 L 79.78 109.21 L 79.89 108.99 L 79.99 108.77 L 80.10 108.56 L 80.20 108.34 L 80.30 108.12 L 80.41 107.90 L 80.51 107.67 L 80.62 107.45 L 80.72 107.23 L 80.83 107.00 L 80.93 106.78 L 81.04 106.55 L 81.14 106.32 L 81.25 106.10 L 81.35 105.87 L 81.46 105.64 L 81.56 105.41 L 81.67 105.18 L 81.77 104.94 L 81.87 104.71 L 81.98 104.48 L 82.08 104.24 L 82.19 104.01 L 82.29 103.77 L 82.40 103.53 L 82.50 103.30 L 82.61 103.06 L 82.71 102.82 L 82.82 102.58 L 82.92 102.33 L 83.03 102.09 L 83.13 101.85 L 83.24 101.61 L 83.34 101.36 L 83.44 101.11 L 83.55 100.87 L 83.65 100.62 L 83.76 100.37 L 83.86 100.12 L 83.97 99.87 L 84.07 99.62 L 84.18 99.37 L 84.28 99.12 L 84.39 98.86 L 84.49 98.61 L 84.60 98.36 L 84.70 98.10 L 84.80 97.84 L 84.91 97.59 L 85.01 97.33 L 85.12 97.07 L 85.22 96.81 L 85.33 96.55 L 85.43 96.28 L 85.54 96.02 L 85.64 95.76 L 85.75 95.49 L 85.85 95.23 L 85.96 94.96 L 86.06 94.69 L 86.17 94.43 L 86.27 94.16 L 86.37 93.89 L 86.48 93.62 L 86.58 93.35 L 86.69 93.07 L 86.79 92.80 L 86.90 92.53 L 87.00 92.25 L 87.11 91.98 L 87.21 91.70 L 87.32 91.42 L 87.42 91.15 L 87.53 90.87 L 87.63 90.59 L 87.74 90.31 L 87.84 90.03 L 87.94 89.74 L 88.05 89.46 L 88.15 89.18 L 88.26 88.89 L 88.36 88.61 L 88.47 88.32 L 88.57 88.04 L 88.68 87.75 L 88.78 87.46 L 88.89 87.17 L 88.99 86.88 L 89.10 86.59 L 89.20 86.30 L 89.31 86.00 L 89.41 85.71 L 89.51 85.42 L 89.62 85.12 L 89.72 84.83 L 89.83 84.53 L 89.93 84.23 L 90.04 83.94 L 90.14 83.64 L 90.25 83.34 L 90.35 83.04 L 90.46 82.74 L 90.56 82.44 L 90.67 82.13 L 90.77 81.83 L 90.87 81.53 L 90.98 81.22 L 91.08 80.92 L 91.19 80.61 L 91.29 80.31 L 91.40 80.00 L 91.50 79.69 L 91.61 79.38 L 91.71 79.07 L 91.82 78.76 L 91.92 78.45 L 92.03 78.14 L 92.13 77.83 L 92.24 77.52 L 92.34 77.20 L 92.44 76.89 L 92.55 76.58 L 92.65 76.26 L 92.76 75.95 L 92.86 75.63 L 92.97 75.31 L 93.07 75.00 L 93.18 74.68 L 93.28 74.36 L 93.39 74.04 L 93.49 73.72 L 93.60 73.40 L 93.70 73.08 L 93.81 72.76 L 93.91 72.44 L 94.01 72.12 L 94.12 71.79 L 94.22 71.47 L 94.33 71.15 L 94.43 70.82 L 94.54 70.50 L 94.64 70.17 L 94.75 69.85 L 94.85 69.52 L 94.96 69.19 L 95.06 68.87 L 95.17 68.54 L 95.27 68.21 L 95.38 67.89 L 95.48 67.56 L 95.58 67.23 L 95.69 66.90 L 95.79 66.57 L 95.90 66.24 L 96.00 65.91 L 96.11 65.58 L 96.21 65.25 L 96.32 64.92 L 96.42 64.59 L 96.53 64.26 L 96.63 63.93 L 96.74 63.60 L 96.84 63.27 L 96.94 62.94 L 97.05 62.60 L 97.15 62.27 L 97.26 61.94 L 97.36 61.61 L 97.47 61.28 L 97.57 60.94 L 97.68 60.61 L 97.78 60.28 L 97.89 59.95 L 97.99 59.62 L 98.10 59.28 L 98.20 58.95 L 98.31 58.62 L 98.41 58.29 L 98.51 57.96 L 98.62 57.62 L 98.72 57.29 L 98.83 56.96 L 98.93 56.63 L 99.04 56.30 L 99.14 55.97 L 99.25 55.64 L 99.35 55.31 L 99.46 54.98 L 99.56 54.65 L 99.67 54.32 L 99.77 53.99 L 99.88 53.66 L 99.98 53.33 L 100.08 53.01 L 100.19 52.68 L 100.29 52.35 L 100.40 52.03 L 100.50 51.70 L 100.61 51.38 L 100.71 51.05 L 100.82 50.73 L 100.92 50.41 L 101.03 50.08 L 101.13 49.76 L 101.24 49.44 L 101.34 49.12 L 101.45 48.80 L 101.55 48.48 L 101.65 48.17 L 101.76 47.85 L 101.86 47.53 L 101.97 47.22 L 102.07 46.90 L 102.18 46.59 L 102.28 46.28 L 102.39 45.97 L 102.49 45.66 L 102.60 45.35 L 102.70 45.04 L 102.81 44.74 L 102.91 44.43 L 103.02 44.13 L 103.12 43.83 L 103.22 43.53 L 103.33 43.23 L 103.43 42.93 L 103.54 42.63 L 103.64 42.34 L 103.75 42.05 L 103.85 41.75 L 103.96 41.46 L 104.06 41.18 L 104.17 40.89 L 104.27 40.60 L 104.38 40.32 L 104.48 40.04 L 104.58 39.76 L 104.69 39.48 L 104.79 39.21 L 104.90 38.94 L 105.00 38.66 L 105.11 38.40 L 105.21 38.13 L 105.32 37.86 L 105.42 37.60 L 105.53 37.34 L 105.63 37.08 L 105.74 36.83 L 105.84 36.58 L 105.95 36.33 L 106.05 36.08 L 106.15 35.83 L 106.26 35.59 L 106.36 35.35 L 106.47 35.11 L 106.57 34.88 L 106.68 34.65 L 106.78 34.42 L 106.89 34.20 L 106.99 33.97 L 107.10 33.75 L 107.20 33.54 L 107.31 33.33 L 107.41 33.12 L 107.52 32.91 L 107.62 32.71 L 107.72 32.51 L 107.83 32.31 L 107.93 32.12 L 108.04 31.93 L 108.14 31.75 L 108.25 31.57 L 108.35 31.39 L 108.46 31.22 L 108.56 31.05 L 108.67 30.89 L 108.77 30.72 L 108.88 30.57 L 108.98 30.42 L 109.09 30.27 L 109.19 30.12 L 109.29 29.99 L 109.40 29.85 L 109.50 29.72 L 109.61 29.60 L 109.71 29.48 L 109.82 29.36 L 109.92 29.25 L 110.03 29.14 L 110.13 29.04 L 110.24 28.95 L 110.34 28.86 L 110.45 28.77 L 110.55 28.69 L 110.65 28.62 L 110.76 28.55 L 110.86 28.49 L 110.97 28.43 L 111.07 28.38 L 111.18 28.33 L 111.28 28.29 L 111.39 28.26 L 111.49 28.23 L 111.60 28.21 L 111.70 28.19 L 111.81 28.18 L 111.91 28.18 L 112.02 28.19 L 112.12 28.20 L 112.22 28.21 L 112.33 28.24 L 112.43 28.27 L 112.54 28.31 L 112.64 28.35 L 112.75 28.40 L 112.85 28.46 L 112.96 28.53 L 113.06 28.60 L 113.17 28.68 L 113.27 28.77 L 113.38 28.87 L 113.48 28.97 L 113.59 29.08 L 113.69 29.20 L 113.79 29.33 L 113.90 29.47 L 114.00 29.61 L 114.11 29.76 L 114.21 29.93 L 114.32 30.09 L 114.42 30.27 L 114.53 30.46 L 114.63 30.65 L 114.74 30.86 L 114.84 31.07 L 114.95 31.29 L 115.05 31.52 L 115.16 31.76 L 115.26 32.01 L 115.36 32.27 L 115.47 32.54 L 115.57 32.82 L 115.68 33.10 L 115.78 33.40 L 115.89 33.71 L 115.99 34.02 L 116.10 34.35 L 116.20 34.69 L 116.31 35.03 L 116.41 35.39 L 116.52 35.76 L 116.62 36.13 L 116.72 36.52 L 116.83 36.92 L 116.93 37.33 L 117.04 37.75 L 117.14 38.18 L 117.25 38.62 L 117.35 39.07 L 117.46 39.53 L 117.56 40.00 L 117.67 40.49 L 117.77 40.98 L 117.88 41.49 L 117.98 42.01 L 118.09 42.54 L 118.19 43.08 L 118.29 43.63 L 118.40 44.19 L 118.50 44.77 L 118.61 45.35 L 118.71 45.95 L 118.82 46.56 L 118.92 47.18 L 119.03 47.82 L 119.13 48.46 L 119.24 49.12 L 119.34 49.78 L 119.45 50.46 L 119.55 51.15 L 119.66 51.86 L 119.76 52.57 L 119.86 53.30 L 119.97 54.04 L 120.07 54.79 L 120.18 55.55 L 120.28 56.32 L 120.39 57.11 L 120.49 57.91 L 120.60 58.71 L 120.70 59.54 L 120.81 60.37 L 120.91 61.21 L 121.02 62.07 L 121.12 62.93 L 121.23 63.81 L 121.33 64.70 L 121.43 65.60 L 121.54 66.51 L 121.64 67.43 L 121.75 68.37 L 121.85 69.31 L 121.96 70.27 L 122.06 71.23 L 122.17 72.21 L 122.27 73.19 L 122.38 74.19 L 122.48 75.20 L 122.59 76.21 L 122.69 77.24 L 122.79 78.27 L 122.90 79.32 L 123.00 80.37 L 123.11 81.44 L 123.21 82.51 L 123.32 83.59 L 123.42 84.68 L 123.53 85.77 L 123.63 86.88 L 123.74 87.99 L 123.84 89.10 L 123.95 90.23 L 124.05 91.36 L 124.16 92.50 L 124.26 93.64 L 124.36 94.79 L 124.47 95.94 L 124.57 97.10 L 124.68 98.26 L 124.78 99.43 L 124.89 100.60 L 124.99 101.78 L 125.10 102.95 L 125.20 104.13 L 125.31 105.31 L 125.41 106.49 L 125.52 107.67 L 125.62 108.85 L 125.73 110.03 L 125.83 111.21 L 125.93 112.39 L 126.04 113.57 L 126.14 114.74 L 126.25 115.91 L 126.35 117.08 L 126.46 118.24 L 126.56 119.40 L 126.67 120.55 L 126.77 121.69 L 126.88 122.83 L 126.98 123.96 L 127.09 125.08 L 127.19 126.19 L 127.30 127.29 L 127.40 128.38 L 127.50 129.45 L 127.61 130.51 L 127.71 131.56 L 127.82 132.60 L 127.92 133.61 L 128.03 134.62 L 128.13 135.60 L 128.24 136.57 L 128.34 137.51 L 128.45 138.44 L 128.55 139.34 L 128.66 140.22 L 128.76 141.08 L 128.86 141.92 L 128.97 142.72 L 129.07 143.51 L 129.18 144.26 L 129.28 144.98 L 129.39 145.68 L 129.49 146.34 L 129.60 146.98 L 129.70 147.57 L 129.81 148.14 L 129.91 148.67 L 130.02 149.16 L 130.12 149.61 L 130.23 150.03 L 130.33 150.40 L 130.43 150.74 L 130.54 151.03 L 130.64 151.28 L 130.75 151.48 L 130.85 151.63 L 130.96 151.74 L 131.06 151.80 L 131.17 151.82 L 131.27 151.78 L 131.38 151.69 L 131.48 151.55 L 131.59 151.35 L 131.69 151.10 L 131.80 150.79 L 131.90 150.43 L 132.00 150.01 L 132.11 149.53 L 132.21 148.99 L 132.32 148.39 L 132.42 147.73 L 132.53 147.01 L 132.63 146.23 L 132.74 145.39 L 132.84 144.48 L 132.95 143.51 L 133.05 142.47 L 133.16 141.37 L 133.26 140.21 L 133.37 138.98 L 133.47 137.69 L 133.57 136.33 L 133.68 134.91 L 133.78 133.42 L 133.89 131.87 L 133.99 130.26 L 134.10 128.58 L 134.20 126.84 L 134.31 125.04 L 134.41 123.18 L 134.52 121.26 L 134.62 119.28 L 134.73 117.25 L 134.83 115.16 L 134.93 113.02 L 135.04 110.83 L 135.14 108.59 L 135.25 106.31 L 135.35 103.97 L 135.46 101.60 L 135.56 99.19 L 135.67 96.75 L 135.77 94.27 L 135.88 91.76 L 135.98 89.23 L 136.09 86.68 L 136.19 84.11 L 136.30 81.53 L 136.40 78.94 L 136.50 76.35 L 136.61 73.76 L 136.71 71.18 L 136.82 68.61 L 136.92 66.06 L 137.03 63.54 L 137.13 61.04 L 137.24 58.58 L 137.34 56.17 L 137.45 53.81 L 137.55 51.50 L 137.66 49.25 L 137.76 47.08 L 137.87 44.99 L 137.97 42.98 L 138.07 41.07 L 138.18 39.26 L 138.28 37.55 L 138.39 35.97 L 138.49 34.50 L 138.60 33.18 L 138.70 31.99 L 138.81 30.94 L 138.91 30.06 L 139.02 29.33 L 139.12 28.78 L 139.23 28.40 L 139.33 28.21 L 139.44 28.20 L 139.54 28.39 L 139.64 28.79 L 139.75 29.38 L 139.85 30.19 L 139.96 31.21 L 140.06 32.45 L 140.17 33.90 L 140.27 35.58 L 140.38 37.48 L 140.48 39.60 L 140.59 41.93 L 140.69 44.49 L 140.80 47.26 L 140.90 50.23 L 141.01 53.41 L 141.11 56.78 L 141.21 60.34 L 141.32 64.07 L 141.42 67.96 L 141.53 72.01 L 141.63 76.18 L 141.74 80.47 L 141.84 84.86 L 141.95 89.33 L 142.05 93.85 L 142.16 98.41 L 142.26 102.97 L 142.37 107.51 L 142.47 112.01 L 142.57 116.42 L 142.68 120.73 L 142.78 124.89 L 142.89 128.89 L 142.99 132.67 L 143.10 136.21 L 143.20 139.48 L 143.31 142.43 L 143.41 145.04 L 143.52 147.27 L 143.62 149.09 L 143.73 150.47 L 143.83 151.38 L 143.94 151.79 L 144.04 151.69 L 144.14 151.04 L 144.25 149.84 L 144.35 148.07 L 144.46 145.73 L 144.56 142.82 L 144.67 139.34 L 144.77 135.30 L 144.88 130.74 L 144.98 125.67 L 145.09 120.13 L 145.19 114.17 L 145.30 107.84 L 145.40 101.21 L 145.51 94.33 L 145.61 87.31 L 145.71 80.22 L 145.82 73.15 L 145.92 66.22 L 146.03 59.53 L 146.13 53.18 L 146.24 47.31 L 146.34 42.02 L 146.45 37.43 L 146.55 33.66 L 146.66 30.80 L 146.76 28.95 L 146.87 28.20 L 146.97 28.61 L 147.08 30.23 L 147.18 33.10 L 147.28 37.20 L 147.39 42.52 L 147.49 48.99 L 147.60 56.51 L 147.70 64.97 L 147.81 74.18 L 147.91 83.97 L 148.02 94.08 L 148.12 104.25 L 148.23 114.20 L 148.33 123.62 L 148.44 132.17 L 148.54 139.55 L 148.64 145.43 L 148.75 149.53 L 148.85 151.60 L 148.96 151.45 L 149.06 148.96 L 149.17 144.08 L 149.27 136.89 L 149.38 127.55 L 149.48 116.36 L 149.59 103.73 L 149.69 90.19 L 149.80 76.36 L 149.90 62.96 L 150.01 50.76 L 150.11 40.53 L 150.21 33.01 L 150.32 28.85 L 150.42 28.54 L 150.53 32.36 L 150.63 40.32 L 150.74 52.10 L 150.84 67.05 L 150.95 84.18 L 151.05 102.20 L 151.16 119.55 L 151.26 134.58 L 151.37 145.64 L 151.47 151.31 L 151.58 150.57 L 151.68 143.03 L 151.78 129.07 L 151.89 109.92 L 151.99 87.70 L 152.10 65.23 L 152.20 45.77 L 152.31 32.55 L 152.41 28.21 L 152.52 34.24 L 152.62 50.42 L 152.73 74.53 L 152.83 102.41 L 152.94 128.41 L 153.04 146.50 L 153.15 151.62 L 153.25 141.30 L 153.35 116.88 L 153.46 84.09 L 153.56 52.13 L 153.67 31.51 L 153.77 30.46 L 153.88 51.31 L 153.98 87.99 L 154.09 126.63 L 154.19 149.96 L 154.30 145.11 L 154.40 111.65 L 154.51 65.17 L 154.61 32.07 L 154.71 35.06 L 154.82 76.02 L 154.92 128.58 L 155.03 151.76 L 155.13 122.14 L 155.24 61.63 L 155.34 28.20 L 155.45 61.66 L 155.55 129.60 L 155.66 148.02 L 155.76 85.66 L 155.87 28.85 L 155.97 72.13 L 156.08 147.77 L 156.18 111.33 L 156.28 30.13 L 156.39 86.66 L 156.49 149.91 L 156.60 51.73 L 156.70 68.31" fill="none" stroke="#7E8692" stroke-width="2.3" stroke-linecap="round" stroke-linejoin="round"/>
  <path d="M 163.30 111.69 L 163.40 128.27 L 163.51 30.09 L 163.61 93.34 L 163.72 149.87 L 163.82 68.67 L 163.92 32.23 L 164.03 107.87 L 164.13 151.15 L 164.24 94.34 L 164.34 31.98 L 164.45 50.40 L 164.55 118.34 L 164.66 151.80 L 164.76 118.37 L 164.87 57.86 L 164.97 28.24 L 165.08 51.42 L 165.18 103.98 L 165.29 144.94 L 165.39 147.93 L 165.49 114.83 L 165.60 68.35 L 165.70 34.89 L 165.81 30.04 L 165.91 53.37 L 166.02 92.01 L 166.12 128.69 L 166.23 149.54 L 166.33 148.49 L 166.44 127.87 L 166.54 95.91 L 166.65 63.12 L 166.75 38.70 L 166.85 28.38 L 166.96 33.50 L 167.06 51.59 L 167.17 77.59 L 167.27 105.47 L 167.38 129.58 L 167.48 145.76 L 167.59 151.79 L 167.69 147.45 L 167.80 134.23 L 167.90 114.77 L 168.01 92.30 L 168.11 70.08 L 168.22 50.93 L 168.32 36.97 L 168.42 29.43 L 168.53 28.69 L 168.63 34.36 L 168.74 45.42 L 168.84 60.45 L 168.95 77.80 L 169.05 95.82 L 169.16 112.95 L 169.26 127.90 L 169.37 139.68 L 169.47 147.64 L 169.58 151.46 L 169.68 151.15 L 169.79 146.99 L 169.89 139.47 L 169.99 129.24 L 170.10 117.04 L 170.20 103.64 L 170.31 89.81 L 170.41 76.27 L 170.52 63.64 L 170.62 52.45 L 170.73 43.11 L 170.83 35.92 L 170.94 31.04 L 171.04 28.55 L 171.15 28.40 L 171.25 30.47 L 171.36 34.57 L 171.46 40.45 L 171.56 47.83 L 171.67 56.38 L 171.77 65.80 L 171.88 75.75 L 171.98 85.92 L 172.09 96.03 L 172.19 105.82 L 172.30 115.03 L 172.40 123.49 L 172.51 131.01 L 172.61 137.48 L 172.72 142.80 L 172.82 146.90 L 172.92 149.77 L 173.03 151.39 L 173.13 151.80 L 173.24 151.05 L 173.34 149.20 L 173.45 146.34 L 173.55 142.57 L 173.66 137.98 L 173.76 132.69 L 173.87 126.82 L 173.97 120.47 L 174.08 113.78 L 174.18 106.85 L 174.29 99.78 L 174.39 92.69 L 174.49 85.67 L 174.60 78.79 L 174.70 72.16 L 174.81 65.83 L 174.91 59.87 L 175.02 54.33 L 175.12 49.26 L 175.23 44.70 L 175.33 40.66 L 175.44 37.18 L 175.54 34.27 L 175.65 31.93 L 175.75 30.16 L 175.86 28.96 L 175.96 28.31 L 176.06 28.21 L 176.17 28.62 L 176.27 29.53 L 176.38 30.91 L 176.48 32.73 L 176.59 34.96 L 176.69 37.57 L 176.80 40.52 L 176.90 43.79 L 177.01 47.33 L 177.11 51.11 L 177.22 55.11 L 177.32 59.27 L 177.43 63.58 L 177.53 67.99 L 177.63 72.49 L 177.74 77.03 L 177.84 81.59 L 177.95 86.15 L 178.05 90.67 L 178.16 95.14 L 178.26 99.53 L 178.37 103.82 L 178.47 107.99 L 178.58 112.04 L 178.68 115.93 L 178.79 119.66 L 178.89 123.22 L 178.99 126.59 L 179.10 129.77 L 179.20 132.74 L 179.31 135.51 L 179.41 138.07 L 179.52 140.40 L 179.62 142.52 L 179.73 144.42 L 179.83 146.10 L 179.94 147.55 L 180.04 148.79 L 180.15 149.81 L 180.25 150.62 L 180.36 151.21 L 180.46 151.61 L 180.56 151.80 L 180.67 151.79 L 180.77 151.60 L 180.88 151.22 L 180.98 150.67 L 181.09 149.94 L 181.19 149.06 L 181.30 148.01 L 181.40 146.82 L 181.51 145.50 L 181.61 144.03 L 181.72 142.45 L 181.82 140.74 L 181.93 138.93 L 182.03 137.02 L 182.13 135.01 L 182.24 132.92 L 182.34 130.75 L 182.45 128.50 L 182.55 126.19 L 182.66 123.83 L 182.76 121.42 L 182.87 118.96 L 182.97 116.46 L 183.08 113.94 L 183.18 111.39 L 183.29 108.82 L 183.39 106.24 L 183.50 103.65 L 183.60 101.06 L 183.70 98.47 L 183.81 95.89 L 183.91 93.32 L 184.02 90.77 L 184.12 88.24 L 184.23 85.73 L 184.33 83.25 L 184.44 80.81 L 184.54 78.40 L 184.65 76.03 L 184.75 73.69 L 184.86 71.41 L 184.96 69.17 L 185.07 66.98 L 185.17 64.84 L 185.27 62.75 L 185.38 60.72 L 185.48 58.74 L 185.59 56.82 L 185.69 54.96 L 185.80 53.16 L 185.90 51.42 L 186.01 49.74 L 186.11 48.13 L 186.22 46.58 L 186.32 45.09 L 186.43 43.67 L 186.53 42.31 L 186.63 41.02 L 186.74 39.79 L 186.84 38.63 L 186.95 37.53 L 187.05 36.49 L 187.16 35.52 L 187.26 34.61 L 187.37 33.77 L 187.47 32.99 L 187.58 32.27 L 187.68 31.61 L 187.79 31.01 L 187.89 30.47 L 188.00 29.99 L 188.10 29.57 L 188.20 29.21 L 188.31 28.90 L 188.41 28.65 L 188.52 28.45 L 188.62 28.31 L 188.73 28.22 L 188.83 28.18 L 188.94 28.20 L 189.04 28.26 L 189.15 28.37 L 189.25 28.52 L 189.36 28.72 L 189.46 28.97 L 189.57 29.26 L 189.67 29.60 L 189.77 29.97 L 189.88 30.39 L 189.98 30.84 L 190.09 31.33 L 190.19 31.86 L 190.30 32.43 L 190.40 33.02 L 190.51 33.66 L 190.61 34.32 L 190.72 35.02 L 190.82 35.74 L 190.93 36.49 L 191.03 37.28 L 191.14 38.08 L 191.24 38.92 L 191.34 39.78 L 191.45 40.66 L 191.55 41.56 L 191.66 42.49 L 191.76 43.43 L 191.87 44.40 L 191.97 45.38 L 192.08 46.39 L 192.18 47.40 L 192.29 48.44 L 192.39 49.49 L 192.50 50.55 L 192.60 51.62 L 192.70 52.71 L 192.81 53.81 L 192.91 54.92 L 193.02 56.04 L 193.12 57.17 L 193.23 58.31 L 193.33 59.45 L 193.44 60.60 L 193.54 61.76 L 193.65 62.92 L 193.75 64.09 L 193.86 65.26 L 193.96 66.43 L 194.07 67.61 L 194.17 68.79 L 194.27 69.97 L 194.38 71.15 L 194.48 72.33 L 194.59 73.51 L 194.69 74.69 L 194.80 75.87 L 194.90 77.05 L 195.01 78.22 L 195.11 79.40 L 195.22 80.57 L 195.32 81.74 L 195.43 82.90 L 195.53 84.06 L 195.64 85.21 L 195.74 86.36 L 195.84 87.50 L 195.95 88.64 L 196.05 89.77 L 196.16 90.90 L 196.26 92.01 L 196.37 93.12 L 196.47 94.23 L 196.58 95.32 L 196.68 96.41 L 196.79 97.49 L 196.89 98.56 L 197.00 99.63 L 197.10 100.68 L 197.21 101.73 L 197.31 102.76 L 197.41 103.79 L 197.52 104.80 L 197.62 105.81 L 197.73 106.81 L 197.83 107.79 L 197.94 108.77 L 198.04 109.73 L 198.15 110.69 L 198.25 111.63 L 198.36 112.57 L 198.46 113.49 L 198.57 114.40 L 198.67 115.30 L 198.77 116.19 L 198.88 117.07 L 198.98 117.93 L 199.09 118.79 L 199.19 119.63 L 199.30 120.46 L 199.40 121.29 L 199.51 122.09 L 199.61 122.89 L 199.72 123.68 L 199.82 124.45 L 199.93 125.21 L 200.03 125.96 L 200.14 126.70 L 200.24 127.43 L 200.34 128.14 L 200.45 128.85 L 200.55 129.54 L 200.66 130.22 L 200.76 130.88 L 200.87 131.54 L 200.97 132.18 L 201.08 132.82 L 201.18 133.44 L 201.29 134.05 L 201.39 134.65 L 201.50 135.23 L 201.60 135.81 L 201.71 136.37 L 201.81 136.92 L 201.91 137.46 L 202.02 137.99 L 202.12 138.51 L 202.23 139.02 L 202.33 139.51 L 202.44 140.00 L 202.54 140.47 L 202.65 140.93 L 202.75 141.38 L 202.86 141.82 L 202.96 142.25 L 203.07 142.67 L 203.17 143.08 L 203.28 143.48 L 203.38 143.87 L 203.48 144.24 L 203.59 144.61 L 203.69 144.97 L 203.80 145.31 L 203.90 145.65 L 204.01 145.98 L 204.11 146.29 L 204.22 146.60 L 204.32 146.90 L 204.43 147.18 L 204.53 147.46 L 204.64 147.73 L 204.74 147.99 L 204.84 148.24 L 204.95 148.48 L 205.05 148.71 L 205.16 148.93 L 205.26 149.14 L 205.37 149.35 L 205.47 149.54 L 205.58 149.73 L 205.68 149.91 L 205.79 150.07 L 205.89 150.24 L 206.00 150.39 L 206.10 150.53 L 206.21 150.67 L 206.31 150.80 L 206.41 150.92 L 206.52 151.03 L 206.62 151.13 L 206.73 151.23 L 206.83 151.32 L 206.94 151.40 L 207.04 151.47 L 207.15 151.54 L 207.25 151.60 L 207.36 151.65 L 207.46 151.69 L 207.57 151.73 L 207.67 151.76 L 207.78 151.79 L 207.88 151.80 L 207.98 151.81 L 208.09 151.82 L 208.19 151.82 L 208.30 151.81 L 208.40 151.79 L 208.51 151.77 L 208.61 151.74 L 208.72 151.71 L 208.82 151.67 L 208.93 151.62 L 209.03 151.57 L 209.14 151.51 L 209.24 151.45 L 209.35 151.38 L 209.45 151.31 L 209.55 151.23 L 209.66 151.14 L 209.76 151.05 L 209.87 150.96 L 209.97 150.86 L 210.08 150.75 L 210.18 150.64 L 210.29 150.52 L 210.39 150.40 L 210.50 150.28 L 210.60 150.15 L 210.71 150.01 L 210.81 149.88 L 210.91 149.73 L 211.02 149.58 L 211.12 149.43 L 211.23 149.28 L 211.33 149.11 L 211.44 148.95 L 211.54 148.78 L 211.65 148.61 L 211.75 148.43 L 211.86 148.25 L 211.96 148.07 L 212.07 147.88 L 212.17 147.69 L 212.28 147.49 L 212.38 147.29 L 212.48 147.09 L 212.59 146.88 L 212.69 146.67 L 212.80 146.46 L 212.90 146.25 L 213.01 146.03 L 213.11 145.80 L 213.22 145.58 L 213.32 145.35 L 213.43 145.12 L 213.53 144.89 L 213.64 144.65 L 213.74 144.41 L 213.85 144.17 L 213.95 143.92 L 214.05 143.67 L 214.16 143.42 L 214.26 143.17 L 214.37 142.92 L 214.47 142.66 L 214.58 142.40 L 214.68 142.14 L 214.79 141.87 L 214.89 141.60 L 215.00 141.34 L 215.10 141.06 L 215.21 140.79 L 215.31 140.52 L 215.42 140.24 L 215.52 139.96 L 215.62 139.68 L 215.73 139.40 L 215.83 139.11 L 215.94 138.82 L 216.04 138.54 L 216.15 138.25 L 216.25 137.95 L 216.36 137.66 L 216.46 137.37 L 216.57 137.07 L 216.67 136.77 L 216.78 136.47 L 216.88 136.17 L 216.98 135.87 L 217.09 135.57 L 217.19 135.26 L 217.30 134.96 L 217.40 134.65 L 217.51 134.34 L 217.61 134.03 L 217.72 133.72 L 217.82 133.41 L 217.93 133.10 L 218.03 132.78 L 218.14 132.47 L 218.24 132.15 L 218.35 131.83 L 218.45 131.52 L 218.55 131.20 L 218.66 130.88 L 218.76 130.56 L 218.87 130.24 L 218.97 129.92 L 219.08 129.59 L 219.18 129.27 L 219.29 128.95 L 219.39 128.62 L 219.50 128.30 L 219.60 127.97 L 219.71 127.65 L 219.81 127.32 L 219.92 126.99 L 220.02 126.67 L 220.12 126.34 L 220.23 126.01 L 220.33 125.68 L 220.44 125.35 L 220.54 125.02 L 220.65 124.69 L 220.75 124.36 L 220.86 124.03 L 220.96 123.70 L 221.07 123.37 L 221.17 123.04 L 221.28 122.71 L 221.38 122.38 L 221.49 122.04 L 221.59 121.71 L 221.69 121.38 L 221.80 121.05 L 221.90 120.72 L 222.01 120.38 L 222.11 120.05 L 222.22 119.72 L 222.32 119.39 L 222.43 119.06 L 222.53 118.72 L 222.64 118.39 L 222.74 118.06 L 222.85 117.73 L 222.95 117.40 L 223.06 117.06 L 223.16 116.73 L 223.26 116.40 L 223.37 116.07 L 223.47 115.74 L 223.58 115.41 L 223.68 115.08 L 223.79 114.75 L 223.89 114.42 L 224.00 114.09 L 224.10 113.76 L 224.21 113.43 L 224.31 113.10 L 224.42 112.77 L 224.52 112.44 L 224.62 112.11 L 224.73 111.79 L 224.83 111.46 L 224.94 111.13 L 225.04 110.81 L 225.15 110.48 L 225.25 110.15 L 225.36 109.83 L 225.46 109.50 L 225.57 109.18 L 225.67 108.85 L 225.78 108.53 L 225.88 108.21 L 225.99 107.88 L 226.09 107.56 L 226.19 107.24 L 226.30 106.92 L 226.40 106.60 L 226.51 106.28 L 226.61 105.96 L 226.72 105.64 L 226.82 105.32 L 226.93 105.00 L 227.03 104.69 L 227.14 104.37 L 227.24 104.05 L 227.35 103.74 L 227.45 103.42 L 227.56 103.11 L 227.66 102.80 L 227.76 102.48 L 227.87 102.17 L 227.97 101.86 L 228.08 101.55 L 228.18 101.24 L 228.29 100.93 L 228.39 100.62 L 228.50 100.31 L 228.60 100.00 L 228.71 99.69 L 228.81 99.39 L 228.92 99.08 L 229.02 98.78 L 229.13 98.47 L 229.23 98.17 L 229.33 97.87 L 229.44 97.56 L 229.54 97.26 L 229.65 96.96 L 229.75 96.66 L 229.86 96.36 L 229.96 96.06 L 230.07 95.77 L 230.17 95.47 L 230.28 95.17 L 230.38 94.88 L 230.49 94.58 L 230.59 94.29 L 230.69 94.00 L 230.80 93.70 L 230.90 93.41 L 231.01 93.12 L 231.11 92.83 L 231.22 92.54 L 231.32 92.25 L 231.43 91.96 L 231.53 91.68 L 231.64 91.39 L 231.74 91.11 L 231.85 90.82 L 231.95 90.54 L 232.06 90.26 L 232.16 89.97 L 232.26 89.69 L 232.37 89.41 L 232.47 89.13 L 232.58 88.85 L 232.68 88.58 L 232.79 88.30 L 232.89 88.02 L 233.00 87.75 L 233.10 87.47 L 233.21 87.20 L 233.31 86.93 L 233.42 86.65 L 233.52 86.38 L 233.63 86.11 L 233.73 85.84 L 233.83 85.57 L 233.94 85.31 L 234.04 85.04 L 234.15 84.77 L 234.25 84.51 L 234.36 84.24 L 234.46 83.98 L 234.57 83.72 L 234.67 83.45 L 234.78 83.19 L 234.88 82.93 L 234.99 82.67 L 235.09 82.41 L 235.20 82.16 L 235.30 81.90 L 235.40 81.64 L 235.51 81.39 L 235.61 81.14 L 235.72 80.88 L 235.82 80.63 L 235.93 80.38 L 236.03 80.13 L 236.14 79.88 L 236.24 79.63 L 236.35 79.38 L 236.45 79.13 L 236.56 78.89 L 236.66 78.64 L 236.76 78.39 L 236.87 78.15 L 236.97 77.91 L 237.08 77.67 L 237.18 77.42 L 237.29 77.18 L 237.39 76.94 L 237.50 76.70 L 237.60 76.47 L 237.71 76.23 L 237.81 75.99 L 237.92 75.76 L 238.02 75.52 L 238.13 75.29 L 238.23 75.06 L 238.33 74.82 L 238.44 74.59 L 238.54 74.36 L 238.65 74.13 L 238.75 73.90 L 238.86 73.68 L 238.96 73.45 L 239.07 73.22 L 239.17 73.00 L 239.28 72.77 L 239.38 72.55 L 239.49 72.33 L 239.59 72.10 L 239.70 71.88 L 239.80 71.66 L 239.90 71.44 L 240.01 71.23 L 240.11 71.01 L 240.22 70.79 L 240.32 70.57 L 240.43 70.36 L 240.53 70.14 L 240.64 69.93 L 240.74 69.72 L 240.85 69.51 L 240.95 69.29 L 241.06 69.08 L 241.16 68.87 L 241.27 68.67 L 241.37 68.46 L 241.47 68.25 L 241.58 68.04 L 241.68 67.84 L 241.79 67.63 L 241.89 67.43 L 242.00 67.23 L 242.10 67.02 L 242.21 66.82 L 242.31 66.62 L 242.42 66.42 L 242.52 66.22 L 242.63 66.02 L 242.73 65.83 L 242.83 65.63 L 242.94 65.43 L 243.04 65.24 L 243.15 65.04 L 243.25 64.85 L 243.36 64.66 L 243.46 64.47 L 243.57 64.27 L 243.67 64.08 L 243.78 63.89 L 243.88 63.70 L 243.99 63.52 L 244.09 63.33 L 244.20 63.14 L 244.30 62.96 L 244.40 62.77 L 244.51 62.59 L 244.61 62.40 L 244.72 62.22 L 244.82 62.04 L 244.93 61.86 L 245.03 61.68 L 245.14 61.50 L 245.24 61.32 L 245.35 61.14 L 245.45 60.96 L 245.56 60.78 L 245.66 60.61 L 245.77 60.43 L 245.87 60.26 L 245.97 60.08 L 246.08 59.91 L 246.18 59.74 L 246.29 59.57 L 246.39 59.39 L 246.50 59.22 L 246.60 59.05 L 246.71 58.89 L 246.81 58.72 L 246.92 58.55 L 247.02 58.38 L 247.13 58.22 L 247.23 58.05 L 247.34 57.89 L 247.44 57.72 L 247.54 57.56 L 247.65 57.40 L 247.75 57.24 L 247.86 57.07 L 247.96 56.91 L 248.07 56.75 L 248.17 56.60 L 248.28 56.44 L 248.38 56.28 L 248.49 56.12 L 248.59 55.97 L 248.70 55.81 L 248.80 55.66 L 248.90 55.50 L 249.01 55.35 L 249.11 55.19 L 249.22 55.04 L 249.32 54.89 L 249.43 54.74 L 249.53 54.59 L 249.64 54.44 L 249.74 54.29 L 249.85 54.14 L 249.95 54.00 L 250.06 53.85 L 250.16 53.70 L 250.27 53.56 L 250.37 53.41 L 250.47 53.27 L 250.58 53.12 L 250.68 52.98 L 250.79 52.84 L 250.89 52.70 L 251.00 52.55 L 251.10 52.41 L 251.21 52.27 L 251.31 52.13 L 251.42 52.00 L 251.52 51.86 L 251.63 51.72 L 251.73 51.58 L 251.84 51.45 L 251.94 51.31 L 252.04 51.18 L 252.15 51.04 L 252.25 50.91 L 252.36 50.77 L 252.46 50.64 L 252.57 50.51 L 252.67 50.38 L 252.78 50.25 L 252.88 50.12 L 252.99 49.99 L 253.09 49.86 L 253.20 49.73 L 253.30 49.60 L 253.41 49.48 L 253.51 49.35 L 253.61 49.22 L 253.72 49.10 L 253.82 48.97 L 253.93 48.85 L 254.03 48.72 L 254.14 48.60 L 254.24 48.48 L 254.35 48.36 L 254.45 48.24 L 254.56 48.11 L 254.66 47.99 L 254.77 47.87 L 254.87 47.76 L 254.97 47.64 L 255.08 47.52 L 255.18 47.40 L 255.29 47.28 L 255.39 47.17 L 255.50 47.05 L 255.60 46.94 L 255.71 46.82 L 255.81 46.71 L 255.92 46.59 L 256.02 46.48 L 256.13 46.37 L 256.23 46.26 L 256.34 46.14 L 256.44 46.03 L 256.54 45.92 L 256.65 45.81 L 256.75 45.70 L 256.86 45.59 L 256.96 45.48 L 257.07 45.38 L 257.17 45.27 L 257.28 45.16 L 257.38 45.06 L 257.49 44.95 L 257.59 44.84 L 257.70 44.74 L 257.80 44.64 L 257.91 44.53 L 258.01 44.43 L 258.11 44.33 L 258.22 44.22 L 258.32 44.12 L 258.43 44.02 L 258.53 43.92 L 258.64 43.82 L 258.74 43.72 L 258.85 43.62 L 258.95 43.52 L 259.06 43.42 L 259.16 43.32 L 259.27 43.23 L 259.37 43.13 L 259.48 43.03 L 259.58 42.94 L 259.68 42.84 L 259.79 42.75 L 259.89 42.65 L 260.00 42.56 L 260.10 42.46 L 260.21 42.37 L 260.31 42.28 L 260.42 42.18 L 260.52 42.09 L 260.63 42.00 L 260.73 41.91 L 260.84 41.82 L 260.94 41.73 L 261.05 41.64 L 261.15 41.55 L 261.25 41.46 L 261.36 41.37 L 261.46 41.28 L 261.57 41.20 L 261.67 41.11 L 261.78 41.02 L 261.88 40.94 L 261.99 40.85 L 262.09 40.77 L 262.20 40.68 L 262.30 40.60 L 262.41 40.51 L 262.51 40.43 L 262.61 40.35 L 262.72 40.26 L 262.82 40.18 L 262.93 40.10 L 263.03 40.02 L 263.14 39.94 L 263.24 39.86 L 263.35 39.78 L 263.45 39.70 L 263.56 39.62 L 263.66 39.54 L 263.77 39.46 L 263.87 39.38 L 263.98 39.30 L 264.08 39.23 L 264.18 39.15 L 264.29 39.07 L 264.39 39.00 L 264.50 38.92 L 264.60 38.84 L 264.71 38.77 L 264.81 38.69 L 264.92 38.62 L 265.02 38.55 L 265.13 38.47 L 265.23 38.40 L 265.34 38.33 L 265.44 38.25 L 265.55 38.18 L 265.65 38.11 L 265.75 38.04 L 265.86 37.97 L 265.96 37.90 L 266.07 37.83 L 266.17 37.76 L 266.28 37.69 L 266.38 37.62 L 266.49 37.55 L 266.59 37.48 L 266.70 37.42 L 266.80 37.35 L 266.91 37.28 L 267.01 37.21 L 267.12 37.15 L 267.22 37.08 L 267.32 37.02 L 267.43 36.95 L 267.53 36.89 L 267.64 36.82 L 267.74 36.76 L 267.85 36.69 L 267.95 36.63 L 268.06 36.57 L 268.16 36.50 L 268.27 36.44 L 268.37 36.38 L 268.48 36.32 L 268.58 36.25 L 268.68 36.19 L 268.79 36.13 L 268.89 36.07 L 269.00 36.01 L 269.10 35.95 L 269.21 35.89 L 269.31 35.83 L 269.42 35.77 L 269.52 35.71 L 269.63 35.66 L 269.73 35.60 L 269.84 35.54 L 269.94 35.48 L 270.05 35.43 L 270.15 35.37 L 270.25 35.31 L 270.36 35.26 L 270.46 35.20 L 270.57 35.15 L 270.67 35.09 L 270.78 35.04 L 270.88 34.98 L 270.99 34.93 L 271.09 34.87 L 271.20 34.82 L 271.30 34.77 L 271.41 34.71 L 271.51 34.66 L 271.62 34.61 L 271.72 34.56 L 271.82 34.50 L 271.93 34.45 L 272.03 34.40 L 272.14 34.35 L 272.24 34.30 L 272.35 34.25 L 272.45 34.20 L 272.56 34.15 L 272.66 34.10 L 272.77 34.05 L 272.87 34.00 L 272.98 33.95 L 273.08 33.90 L 273.19 33.86 L 273.29 33.81 L 273.39 33.76 L 273.50 33.71 L 273.60 33.67 L 273.71 33.62 L 273.81 33.57 L 273.92 33.53 L 274.02 33.48 L 274.13 33.44 L 274.23 33.39 L 274.34 33.35 L 274.44 33.30 L 274.55 33.26 L 274.65 33.21 L 274.75 33.17 L 274.86 33.13 L 274.96 33.08 L 275.07 33.04 L 275.17 33.00 L 275.28 32.95 L 275.38 32.91 L 275.49 32.87 L 275.59 32.83 L 275.70 32.79 L 275.80 32.74 L 275.91 32.70 L 276.01 32.66 L 276.12 32.62 L 276.22 32.58 L 276.32 32.54 L 276.43 32.50 L 276.53 32.46 L 276.64 32.42 L 276.74 32.38 L 276.85 32.34 L 276.95 32.31 L 277.06 32.27 L 277.16 32.23 L 277.27 32.19 L 277.37 32.15 L 277.48 32.12 L 277.58 32.08 L 277.69 32.04 L 277.79 32.00 L 277.89 31.97 L 278.00 31.93 L 278.10 31.90 L 278.21 31.86 L 278.31 31.82 L 278.42 31.79 L 278.52 31.75 L 278.63 31.72 L 278.73 31.68 L 278.84 31.65 L 278.94 31.62 L 279.05 31.58 L 279.15 31.55 L 279.26 31.52 L 279.36 31.48 L 279.46 31.45 L 279.57 31.42 L 279.67 31.38 L 279.78 31.35 L 279.88 31.32 L 279.99 31.29 L 280.09 31.25 L 280.20 31.22 L 280.30 31.19 L 280.41 31.16 L 280.51 31.13 L 280.62 31.10 L 280.72 31.07 L 280.82 31.04 L 280.93 31.01 L 281.03 30.98 L 281.14 30.95 L 281.24 30.92 L 281.35 30.89 L 281.45 30.86 L 281.56 30.83 L 281.66 30.80 L 281.77 30.78 L 281.87 30.75 L 281.98 30.72 L 282.08 30.69 L 282.19 30.66 L 282.29 30.64 L 282.39 30.61 L 282.50 30.58 L 282.60 30.55 L 282.71 30.53 L 282.81 30.50 L 282.92 30.48 L 283.02 30.45 L 283.13 30.42 L 283.23 30.40 L 283.34 30.37 L 283.44 30.35 L 283.55 30.32 L 283.65 30.30 L 283.76 30.27 L 283.86 30.25 L 283.96 30.22 L 284.07 30.20 L 284.17 30.17 L 284.28 30.15 L 284.38 30.13 L 284.49 30.10 L 284.59 30.08 L 284.70 30.06 L 284.80 30.03 L 284.91 30.01 L 285.01 29.99 L 285.12 29.97 L 285.22 29.94 L 285.33 29.92 L 285.43 29.90 L 285.53 29.88 L 285.64 29.86 L 285.74 29.84 L 285.85 29.81 L 285.95 29.79 L 286.06 29.77 L 286.16 29.75 L 286.27 29.73 L 286.37 29.71 L 286.48 29.69 L 286.58 29.67 L 286.69 29.65 L 286.79 29.63 L 286.89 29.61 L 287.00 29.59 L 287.10 29.57 L 287.21 29.55 L 287.31 29.53 L 287.42 29.52 L 287.52 29.50 L 287.63 29.48 L 287.73 29.46 L 287.84 29.44 L 287.94 29.42 L 288.05 29.41 L 288.15 29.39 L 288.26 29.37 L 288.36 29.35 L 288.46 29.34 L 288.57 29.32 L 288.67 29.30 L 288.78 29.29 L 288.88 29.27 L 288.99 29.25 L 289.09 29.24 L 289.20 29.22 L 289.30 29.21 L 289.41 29.19 L 289.51 29.17 L 289.62 29.16 L 289.72 29.14 L 289.83 29.13 L 289.93 29.11 L 290.03 29.10 L 290.14 29.08 L 290.24 29.07 L 290.35 29.05 L 290.45 29.04 L 290.56 29.02 L 290.66 29.01 L 290.77 29.00 L 290.87 28.98 L 290.98 28.97 L 291.08 28.96 L 291.19 28.94 L 291.29 28.93 L 291.40 28.92 L 291.50 28.90 L 291.60 28.89 L 291.71 28.88 L 291.81 28.86 L 291.92 28.85 L 292.02 28.84 L 292.13 28.83 L 292.23 28.82 L 292.34 28.80 L 292.44 28.79 L 292.55 28.78 L 292.65 28.77 L 292.76 28.76 L 292.86 28.75 L 292.96 28.74 L 293.07 28.72 L 293.17 28.71 L 293.28 28.70 L 293.38 28.69 L 293.49 28.68 L 293.59 28.67 L 293.70 28.66 L 293.80 28.65 L 293.91 28.64 L 294.01 28.63 L 294.12 28.62 L 294.22 28.61 L 294.33 28.60 L 294.43 28.59 L 294.53 28.58 L 294.64 28.57 L 294.74 28.57 L 294.85 28.56 L 294.95 28.55 L 295.06 28.54 L 295.16 28.53 L 295.27 28.52 L 295.37 28.51 L 295.48 28.51 L 295.58 28.50 L 295.69 28.49 L 295.79 28.48 L 295.90 28.47 L 296.00 28.47" fill="none" stroke="#7E8692" stroke-width="2.3" stroke-linecap="round" stroke-linejoin="round"/>
</svg>
