<?xml version="1.0" encoding="UTF-8"?>
<svg xmlns="http://www.w3.org/2000/svg" xmlns:xlink="http://www.w3.org/1999/xlink" width="212.654" height="179.774" viewBox="0 0 212.654 179.774">
<defs>
<clipPath id="clip-0">
<path clip-rule="nonzero" d="M 7 0.03125 L 212 0.03125 L 212 175 L 7 175 Z M 7 0.03125 "/>
</clipPath>
</defs>
<path fill="none" stroke-width="0.3985" stroke-linecap="butt" stroke-linejoin="miter" stroke="rgb(0%, 0%, 0%)" stroke-opacity="1" stroke-miterlimit="10" d="M -16.1914 -13.451855 L -16.1914 147.947042 L 178.089036 147.947042 L 178.089036 -13.451855 Z M -16.1914 -13.451855 " transform="matrix(0.998376, 0, 0, -0.998376, 28.653379, 153.59734)"/>
<g clip-path="url(#clip-0)">
<path fill="none" stroke-width="1.49442" stroke-linecap="butt" stroke-linejoin="miter" stroke="rgb(13.331604%, 13.331604%, 13.331604%)" stroke-opacity="0.8" stroke-miterlimit="10" d="M -0.00103728 134.495503 L 0.812785 130.410743 L 1.626607 126.431623 L 2.440429 122.550318 L 3.254251 118.774654 L 4.068073 115.096804 L 4.881895 111.512858 L 5.695717 108.030639 L 6.509539 104.646235 L 7.323361 101.351821 L 8.137183 98.155222 L 8.947092 95.052526 L 9.760914 92.039819 L 10.574736 89.121015 L 11.388558 86.292201 L 12.20238 83.549465 L 13.016202 80.896718 L 13.830024 78.330049 L 14.643846 75.849457 L 15.457668 73.454942 L 16.27149 71.142592 L 17.085312 68.91632 L 17.899134 66.768299 L 18.712956 64.702443 L 19.526778 62.718752 L 20.3406 60.809401 L 21.150509 58.982214 L 21.964331 57.229366 L 22.778153 55.550858 L 23.591975 53.950603 L 24.405797 52.420774 L 25.219619 50.961372 L 26.033441 49.57631 L 26.847263 48.261674 L 27.661085 47.017465 L 28.474907 45.839771 L 29.288729 44.732504 L 30.102551 43.687838 L 30.916373 42.709687 L 31.730195 41.794137 L 32.540104 40.945101 L 33.353926 40.154755 L 34.167748 39.42701 L 34.98157 38.761867 L 35.795392 38.151501 L 36.609214 37.599824 L 37.423036 37.106835 L 38.236858 36.668623 L 39.05068 36.285188 L 39.864502 35.956529 L 40.678324 35.678734 L 41.492146 35.455716 L 42.305968 35.279648 L 43.11979 35.154445 L 43.929699 35.080106 L 44.743521 35.052717 L 45.557343 35.068368 L 46.371165 35.134882 L 47.184987 35.240522 L 47.998809 35.393114 L 48.812631 35.588744 L 49.626453 35.823501 L 50.440275 36.097383 L 51.254097 36.414304 L 52.067919 36.766439 L 52.881741 37.157699 L 53.695563 37.584173 L 54.509385 38.045861 L 55.319295 38.538849 L 56.133117 39.067051 L 56.946939 39.630466 L 57.76076 40.221269 L 58.574582 40.843374 L 59.388404 41.492866 L 60.202226 42.169747 L 61.016048 42.874016 L 61.82987 43.605673 L 62.643692 44.360806 L 63.457514 45.139415 L 64.271336 45.941499 L 65.085158 46.767059 L 65.89898 47.608269 L 66.712802 48.472955 L 67.522712 49.357204 L 68.336534 50.25319 L 69.150356 51.16874 L 69.964178 52.103853 L 70.778 53.046791 L 71.591822 54.005379 L 72.405644 54.975705 L 73.219466 55.961682 L 74.033288 56.951571 L 74.84711 57.953198 L 75.660932 58.962651 L 76.474754 59.979928 L 78.102397 62.030134 L 78.912307 63.063061 L 82.981417 68.247264 L 83.795239 69.280192 L 85.422883 71.338222 L 86.236705 72.359413 L 87.050527 73.372777 L 87.864349 74.378317 L 88.678171 75.376032 L 89.491993 76.365921 L 90.301902 77.344072 L 91.115724 78.310486 L 91.929546 79.265162 L 92.743368 80.204187 L 93.55719 81.131474 L 94.371012 82.039199 L 95.184834 82.935186 L 95.998656 83.807697 L 96.812478 84.664557 L 97.6263 85.501855 L 98.440122 86.315677 L 99.253944 87.109936 L 100.067766 87.880719 L 100.881588 88.624114 L 101.691497 89.347946 L 102.505319 90.040478 L 103.319141 90.709533 L 104.132963 91.347288 L 104.946785 91.957654 L 105.760607 92.540633 L 106.574429 93.088397 L 107.388251 93.604861 L 108.202073 94.086112 L 109.015895 94.536062 L 109.829717 94.946885 L 110.643539 95.322495 L 111.457361 95.662892 L 112.271183 95.964163 L 113.085005 96.222395 L 113.894914 96.441501 L 114.708736 96.62148 L 115.522558 96.754509 L 116.33638 96.848412 L 117.150202 96.895363 L 117.964024 96.895363 L 118.777846 96.848412 L 119.591668 96.754509 L 120.40549 96.609743 L 121.219312 96.418025 L 122.033134 96.171531 L 122.846956 95.878085 L 123.660778 95.525951 L 124.4746 95.122952 L 125.284509 94.665178 L 126.098331 94.148714 L 126.912153 93.577473 L 127.725975 92.943631 L 128.539797 92.255012 L 129.353619 91.503792 L 130.167441 90.68997 L 130.981263 89.817459 L 131.795085 88.878434 L 132.608907 87.876807 L 133.422729 86.804753 L 134.236551 85.670097 L 135.050373 84.468927 L 135.864195 83.19733 L 136.674105 81.855307 L 137.487927 80.442856 L 138.301749 78.959978 L 139.115571 77.402761 L 139.929393 75.771205 L 140.743215 74.065309 L 141.557037 72.285073 L 142.370859 70.426585 L 143.18468 68.485933 L 143.998502 66.470941 L 144.812324 64.373784 L 145.626146 62.198376 L 146.439968 59.936889 L 147.25379 57.597151 L 148.0637 55.167423 L 148.877522 52.65553 L 149.691344 50.05756 L 150.505166 47.3696 L 151.318988 44.595563 L 152.13281 41.731535 L 152.946632 38.777518 L 153.760454 35.729598 L 154.574276 32.591688 L 155.388098 29.359876 L 156.20192 26.030249 L 157.015742 22.606719 L 157.829564 19.089286 L 158.643386 15.470126 L 159.453295 11.75315 L 160.267117 7.93836 L 161.080939 4.017929 L 161.894761 -0.000317066 " transform="matrix(0.998376, 0, 0, -0.998376, 28.653379, 153.59734)"/>
</g>
</svg>
