<?xml version="1.0" encoding="UTF-8"?>
<svg xmlns="http://www.w3.org/2000/svg" xmlns:xlink="http://www.w3.org/1999/xlink" width="212.654" height="179.774" viewBox="0 0 212.654 179.774">
<defs>
<clipPath id="clip-0">
<path clip-rule="nonzero" d="M 7 0.03125 L 212 0.03125 L 212 175 L 7 175 Z M 7 0.03125 "/>
</clipPath>
</defs>
<path fill="none" stroke-width="0.3985" stroke-linecap="butt" stroke-linejoin="miter" stroke="rgb(0%, 0%, 0%)" stroke-opacity="1" stroke-miterlimit="10" d="M -16.1914 -13.451855 L -16.1914 147.947042 L 178.089036 147.947042 L 178.089036 -13.451855 Z M -16.1914 -13.451855 " transform="matrix(0.998376, 0, 0, -0.998376, 28.653379, 153.59734)"/>
<g clip-path="url(#clip-0)">
<path fill="none" stroke-width="1.49442" stroke-linecap="butt" stroke-linejoin="miter" stroke="rgb(13.331604%, 13.331604%, 13.331604%)" stroke-opacity="0.8" stroke-miterlimit="10" d="M -0.00103728 -0.000317066 L 0.812785 4.084443 L 1.626607 8.063563 L 2.440429 11.940955 L 3.254251 15.720533 L 4.068073 19.398382 L 4.881895 22.978416 L 5.695717 26.464548 L 6.509539 29.848952 L 7.323361 33.139453 L 8.137183 36.339965 L 8.947092 39.442661 L 9.760914 42.455367 L 10.574736 45.374171 L 11.388558 48.202985 L 12.20238 50.945722 L 13.016202 53.598468 L 13.830024 56.165138 L 14.643846 58.64573 L 15.457668 61.040244 L 16.27149 63.348682 L 17.085312 65.578867 L 17.899134 67.726887 L 18.712956 69.788831 L 19.526778 71.776434 L 20.3406 73.681873 L 21.150509 75.512973 L 21.964331 77.26582 L 22.778153 78.944328 L 23.591975 80.544584 L 24.405797 82.074412 L 25.219619 83.529902 L 26.033441 84.914964 L 26.847263 86.233512 L 27.661085 87.477721 L 28.474907 88.655415 L 29.288729 89.762683 L 30.102551 90.807348 L 30.916373 91.7855 L 31.730195 92.70105 L 32.540104 93.550085 L 33.353926 94.340431 L 34.167748 95.068176 L 34.98157 95.733319 L 35.795392 96.343685 L 36.609214 96.895363 L 37.423036 97.388351 L 38.236858 97.826563 L 39.05068 98.209998 L 39.864502 98.538657 L 40.678324 98.816452 L 41.492146 99.039471 L 42.305968 99.215538 L 43.11979 99.336829 L 43.929699 99.415081 L 44.743521 99.442469 L 45.557343 99.422906 L 46.371165 99.360304 L 47.184987 99.254664 L 47.998809 99.102072 L 48.812631 98.906442 L 49.626453 98.671686 L 50.440275 98.397803 L 51.254097 98.080882 L 52.067919 97.728748 L 52.881741 97.337487 L 53.695563 96.911013 L 54.509385 96.449326 L 55.319295 95.956337 L 56.133117 95.428136 L 56.946939 94.86472 L 57.76076 94.273917 L 58.574582 93.651813 L 59.388404 93.00232 L 60.202226 92.325439 L 61.016048 91.62117 L 61.82987 90.889513 L 62.643692 90.13438 L 63.457514 89.355772 L 64.271336 88.553687 L 65.085158 87.728128 L 65.89898 86.883005 L 66.712802 86.022232 L 67.522712 85.137983 L 68.336534 84.238083 L 69.150356 83.322534 L 69.964178 82.391334 L 70.778 81.448396 L 71.591822 80.489807 L 72.405644 79.515568 L 73.219466 78.533504 L 74.033288 77.543615 L 74.84711 76.541988 L 75.660932 75.532536 L 76.474754 74.515258 L 77.288575 73.490156 L 78.102397 72.46114 L 78.912307 71.432125 L 82.981417 66.247922 L 83.795239 65.214995 L 85.422883 63.156964 L 86.236705 62.135774 L 87.050527 61.122409 L 87.864349 60.116869 L 88.678171 59.119155 L 89.491993 58.129266 L 90.301902 57.151114 L 91.115724 56.184701 L 91.929546 55.230025 L 92.743368 54.290999 L 93.55719 53.363712 L 94.371012 52.455987 L 95.184834 51.560001 L 95.998656 50.68749 L 96.812478 49.830629 L 97.6263 48.993331 L 98.440122 48.179509 L 99.253944 47.38525 L 100.067766 46.614467 L 100.881588 45.867159 L 101.691497 45.14724 L 102.505319 44.450796 L 103.319141 43.785653 L 104.132963 43.143986 L 104.946785 42.533619 L 105.760607 41.954554 L 106.574429 41.406789 L 107.388251 40.890325 L 108.202073 40.409074 L 109.015895 39.959125 L 109.829717 39.548301 L 110.643539 39.168778 L 111.457361 38.832294 L 112.271183 38.531024 L 113.085005 38.272792 L 113.894914 38.053686 L 114.708736 37.873706 L 115.522558 37.740677 L 116.33638 37.646775 L 117.150202 37.599824 L 117.964024 37.599824 L 118.777846 37.646775 L 119.591668 37.740677 L 120.40549 37.885444 L 121.219312 38.077161 L 122.033134 38.323656 L 122.846956 38.617101 L 123.660778 38.969236 L 124.4746 39.372234 L 125.284509 39.830009 L 126.098331 40.346473 L 126.912153 40.917713 L 127.725975 41.551555 L 128.539797 42.240174 L 129.353619 42.991394 L 130.167441 43.805216 L 130.981263 44.677727 L 131.795085 45.616753 L 132.608907 46.61838 L 133.422729 47.686521 L 134.236551 48.825089 L 135.050373 50.026259 L 135.864195 51.297856 L 136.674105 52.63988 L 137.487927 54.052331 L 138.301749 55.535208 L 139.115571 57.092425 L 139.929393 58.723982 L 140.743215 60.429878 L 141.557037 62.210113 L 142.370859 64.068601 L 143.18468 66.005341 L 143.998502 68.024245 L 144.812324 70.117489 L 145.626146 72.296811 L 146.439968 74.554384 L 147.25379 76.898035 L 148.0637 79.327763 L 148.877522 81.839656 L 149.691344 84.437626 L 150.505166 87.125586 L 151.318988 89.899624 L 152.13281 92.763651 L 152.946632 95.717668 L 153.760454 98.765588 L 154.574276 101.903498 L 155.388098 105.13531 L 156.20192 108.464938 L 157.015742 111.888468 L 157.829564 115.4059 L 158.643386 119.025061 L 159.453295 122.742036 L 160.267117 126.556827 L 161.080939 130.477257 L 161.894761 134.495503 " transform="matrix(0.998376, 0, 0, -0.998376, 28.653379, 153.59734)"/>
</g>
</svg>
